<svg  viewBox="0 0 24 24" fill="none" xmlns="http://www.w3.org/2000/svg" id="__THIS_ID_NEEDS_FOR_UI_ICON_COMPONENT__">
<path d="M23.25 20.2502C23.25 20.4491 23.171 20.6399 23.0303 20.7805C22.8897 20.9212 22.6989 21.0002 22.5 21.0002H9C8.80109 21.0002 8.61032 20.9212 8.46967 20.7805C8.32902 20.6399 8.25 20.4491 8.25 20.2502C8.25 20.0513 8.32902 19.8605 8.46967 19.7199C8.61032 19.5792 8.80109 19.5002 9 19.5002H22.5C22.6989 19.5002 22.8897 19.5792 23.0303 19.7199C23.171 19.8605 23.25 20.0513 23.25 20.2502ZM21 17.6252C21.0995 17.6252 21.1948 17.5857 21.2652 17.5154C21.3355 17.445 21.375 17.3497 21.375 17.2502V13.9055C21.3733 13.1682 21.131 12.4517 20.6849 11.8647C20.2387 11.2778 19.6132 10.8525 18.9033 10.6536L14.499 9.4302L11.5756 4.31418C11.5298 4.23407 11.4561 4.17364 11.3686 4.14444L10.1058 3.72348C9.93666 3.66712 9.75657 3.65176 9.58035 3.67865C9.40413 3.70554 9.23682 3.77392 9.09221 3.87815C8.9476 3.98238 8.82983 4.11949 8.7486 4.27816C8.66737 4.43684 8.62501 4.61255 8.625 4.79081V7.74013L6.25854 7.00061L4.83087 4.32375C4.78567 4.239 4.70968 4.17482 4.61856 4.14444L3.35577 3.72348C3.18666 3.66712 3.00657 3.65176 2.83035 3.67865C2.65413 3.70554 2.48682 3.77392 2.34221 3.87815C2.1976 3.98238 2.07983 4.11949 1.9986 4.27816C1.91737 4.43684 1.87501 4.61255 1.875 4.79081V9.72486C1.87686 10.4609 2.11847 11.1762 2.56326 11.7627C3.00805 12.3491 3.6318 12.7746 4.34006 12.9748L20.8989 17.6113C20.9318 17.6205 20.9658 17.6252 21 17.6252Z" fill="#1D1F21" style="fill: var(--ui-icon-primary-color);"/>
</svg>
