<svg  viewBox="0 0 24 24" fill="none" xmlns="http://www.w3.org/2000/svg" id="__THIS_ID_NEEDS_FOR_UI_ICON_COMPONENT__">
<path d="M17.0694 19.7619C17.1627 19.8708 17.2229 20.0042 17.2427 20.1463C17.2625 20.2883 17.2412 20.4331 17.1813 20.5634C17.1214 20.6937 17.0253 20.8041 16.9046 20.8815C16.7838 20.9588 16.6434 21 16.5 21H7.49995C7.35651 21 7.21608 20.9589 7.0953 20.8815C6.97453 20.8041 6.87848 20.6937 6.81854 20.5634C6.7586 20.4331 6.73729 20.2883 6.75713 20.1462C6.77698 20.0042 6.83714 19.8708 6.9305 19.7619L11.4308 14.5119C11.5012 14.4297 11.5885 14.3638 11.6868 14.3186C11.7851 14.2734 11.892 14.25 12.0002 14.25C12.1084 14.25 12.2153 14.2734 12.3136 14.3186C12.4119 14.3638 12.4993 14.4298 12.5697 14.5119L17.0694 19.7619ZM19.5002 3.75H4.49995C3.90343 3.75068 3.33153 3.98795 2.90972 4.40976C2.48791 4.83157 2.25064 5.40347 2.24995 6V16.5C2.25064 17.0965 2.48791 17.6684 2.90972 18.0902C3.33153 18.512 3.90343 18.7493 4.49995 18.75H5.8222L10.2921 13.5354C10.5034 13.289 10.7654 13.0913 11.0603 12.9557C11.3552 12.8201 11.6759 12.75 12.0004 12.75C12.325 12.75 12.6457 12.8203 12.9405 12.9559C13.2354 13.0915 13.4974 13.2894 13.7086 13.5358L18.1777 18.75H19.5002C20.0968 18.7493 20.6687 18.512 21.0905 18.0902C21.5123 17.6684 21.7495 17.0965 21.7502 16.5V6C21.7495 5.40347 21.5123 4.83157 21.0905 4.40976C20.6687 3.98796 20.0968 3.75068 19.5002 3.75Z" fill="#1D1F21" style="fill: var(--ui-icon-primary-color);"/>
</svg>
