<svg  viewBox="0 0 24 24" fill="none" xmlns="http://www.w3.org/2000/svg" id="__THIS_ID_NEEDS_FOR_UI_ICON_COMPONENT__">
<path d="M22.0763 6.16665C22.0066 6.2363 21.924 6.29155 21.833 6.32924C21.742 6.36693 21.6444 6.38634 21.5459 6.38634C21.4475 6.38634 21.3499 6.36693 21.2589 6.32924C21.1679 6.29155 21.0852 6.2363 21.0156 6.16665L17.8336 2.98469C17.693 2.84404 17.614 2.65328 17.614 2.45437C17.614 2.25545 17.693 2.06468 17.8336 1.92403C17.9743 1.78337 18.165 1.70435 18.3639 1.70435C18.5629 1.70434 18.7536 1.78335 18.8943 1.924L22.0763 5.10601C22.2169 5.24666 22.2959 5.43742 22.2959 5.63633C22.2959 5.83524 22.2169 6.026 22.0763 6.16665ZM6.16634 1.92401C6.02569 1.78336 5.83493 1.70435 5.63603 1.70435C5.43712 1.70435 5.24636 1.78336 5.10571 1.92401L1.9237 5.10601C1.78305 5.24667 1.70404 5.43744 1.70404 5.63635C1.70405 5.83526 1.78307 6.02603 1.92372 6.16668C2.06438 6.30733 2.25515 6.38634 2.45406 6.38633C2.65297 6.38633 2.84374 6.30731 2.98439 6.16665L6.16634 2.98469C6.30699 2.84403 6.386 2.65326 6.386 2.45435C6.386 2.25544 6.30699 2.06467 6.16634 1.92401ZM20.9971 11.7702C20.999 11.8468 21 11.9235 21 12.0003C21 12.0772 20.999 12.1539 20.9971 12.2304C20.9968 12.2405 20.9962 12.2505 20.996 12.2606C20.994 12.3279 20.9917 12.395 20.9883 12.462C20.9882 12.4644 20.988 12.4667 20.9879 12.469C20.8719 14.6908 19.9372 16.791 18.3639 18.3642C16.7907 19.9375 14.6905 20.8723 12.4686 20.9882C12.4664 20.9883 12.4641 20.9885 12.4617 20.9886C12.3947 20.992 12.3276 20.9944 12.2603 20.9963C12.2502 20.9965 12.2402 20.9971 12.2301 20.9974C12.1535 20.9993 12.0768 21.0003 12 21.0003C11.9231 21.0003 11.8464 20.9993 11.7699 20.9974C11.7598 20.9971 11.7498 20.9965 11.7397 20.9963C11.6724 20.9944 11.6053 20.992 11.5382 20.9886C11.5359 20.9885 11.5336 20.9883 11.5313 20.9882C9.30946 20.8723 7.20926 19.9375 5.63602 18.3643C4.06279 16.791 3.12802 14.6908 3.01212 12.469C3.01199 12.4667 3.0118 12.4644 3.01171 12.462C3.00832 12.395 3.00594 12.3279 3.00402 12.2606C3.00375 12.2505 3.0032 12.2405 3.00293 12.2304C3.001 12.1538 3.00002 12.0771 2.99999 12.0003C2.99999 11.9234 3.00097 11.8468 3.00292 11.7702C3.0032 11.7601 3.00375 11.7501 3.00402 11.74C3.00594 11.6727 3.00832 11.6056 3.01171 11.5386C3.0118 11.5362 3.01198 11.5339 3.01212 11.5316C3.12804 9.30978 4.06281 7.20959 5.63605 5.63635C7.20928 4.06312 9.30947 3.12835 11.5313 3.01243C11.5336 3.01229 11.5359 3.01211 11.5382 3.01202C11.6053 3.00863 11.6724 3.00625 11.7397 3.00433C11.7498 3.00406 11.7598 3.00351 11.7699 3.00323C11.8465 3.00131 11.9231 3.00033 12 3.0003C12.0769 3.0003 12.1535 3.00128 12.2301 3.00323C12.2402 3.00351 12.2502 3.00405 12.2603 3.00433C12.3276 3.00625 12.3947 3.00863 12.4617 3.01202C12.4641 3.01211 12.4664 3.01229 12.4687 3.01243C14.6905 3.12833 16.7907 4.06309 18.364 5.63633C19.9372 7.20957 20.872 9.30977 20.9879 11.5316C20.988 11.5339 20.9882 11.5362 20.9883 11.5386C20.9917 11.6056 20.994 11.6727 20.996 11.74C20.9962 11.7501 20.9968 11.7601 20.9971 11.7702ZM18 12.0003C18 11.8014 17.921 11.6106 17.7803 11.47C17.6397 11.3293 17.4489 11.2503 17.25 11.2503H12.75V6.7503C12.75 6.55139 12.671 6.36062 12.5303 6.21997C12.3897 6.07932 12.1989 6.0003 12 6.0003C11.8011 6.0003 11.6103 6.07932 11.4697 6.21997C11.329 6.36062 11.25 6.55139 11.25 6.7503V12.0003C11.25 12.1992 11.329 12.39 11.4697 12.5306C11.6103 12.6713 11.8011 12.7503 12 12.7503H17.25C17.4489 12.7503 17.6397 12.6713 17.7803 12.5306C17.921 12.39 18 12.1992 18 12.0003Z" fill="#1D1F21" style="fill: var(--ui-icon-primary-color);"/>
</svg>
