<svg  viewBox="0 0 24 24" fill="none" xmlns="http://www.w3.org/2000/svg" id="__THIS_ID_NEEDS_FOR_UI_ICON_COMPONENT__">
<path d="M21 14.25V18C20.9995 18.3977 20.8414 18.7789 20.5602 19.0601C20.279 19.3413 19.8977 19.4995 19.5 19.5H12.75V20.9995C12.75 21.1984 12.671 21.3892 12.5303 21.5298C12.3897 21.6705 12.1989 21.7495 12 21.7495C11.8011 21.7495 11.6103 21.6705 11.4697 21.5298C11.329 21.3892 11.25 21.1984 11.25 20.9995V19.5H4.5C4.10231 19.4995 3.72105 19.3413 3.43984 19.0601C3.15864 18.7789 3.00045 18.3977 3 18V14.25C3.00045 13.8523 3.15864 13.471 3.43984 13.1898C3.72105 12.9086 4.10231 12.7504 4.5 12.75H11.25V11.25H6.75C6.35231 11.2495 5.97105 11.0913 5.68984 10.8101C5.40864 10.5289 5.25045 10.1477 5.25 9.74997V5.99997C5.25045 5.60228 5.40864 5.22102 5.68984 4.93981C5.97105 4.65861 6.35231 4.50042 6.75 4.49997H11.25V2.99951C11.25 2.8006 11.329 2.60983 11.4697 2.46918C11.6103 2.32853 11.8011 2.24951 12 2.24951C12.1989 2.24951 12.3897 2.32853 12.5303 2.46918C12.671 2.60983 12.75 2.8006 12.75 2.99951V4.49997H17.25C17.6477 4.50042 18.029 4.65861 18.3102 4.93981C18.5914 5.22102 18.7495 5.60228 18.75 5.99997V9.74997C18.7495 10.1477 18.5914 10.5289 18.3102 10.8101C18.029 11.0913 17.6477 11.2495 17.25 11.25H12.75V12.75H19.5C19.8977 12.7504 20.279 12.9086 20.5602 13.1898C20.8414 13.471 20.9995 13.8523 21 14.25Z" fill="#1D1F21" style="fill: var(--ui-icon-primary-color);"/>
</svg>
