<svg  viewBox="0 0 24 24" fill="none" xmlns="http://www.w3.org/2000/svg" id="__THIS_ID_NEEDS_FOR_UI_ICON_COMPONENT__">
<path d="M20.9208 6.41455L19.4208 3.41455C19.3585 3.28998 19.2628 3.18521 19.1443 3.11199C19.0258 3.03878 18.8893 3 18.75 3H5.25C5.11072 3 4.97419 3.03878 4.85571 3.11199C4.73723 3.18521 4.64148 3.28998 4.57919 3.41455L3.07919 6.41455C3.02711 6.5187 3 6.63355 3 6.75V19.5C3.00045 19.8977 3.15864 20.279 3.43984 20.5602C3.72105 20.8414 4.10231 20.9995 4.5 21H19.5C19.8977 20.9995 20.279 20.8414 20.5602 20.5602C20.8414 20.279 20.9995 19.8977 21 19.5V6.75C21 6.63355 20.9729 6.5187 20.9208 6.41455ZM15.7123 14.5984L12.5304 17.7804C12.5253 17.7854 12.5197 17.7898 12.5145 17.7947C12.502 17.8066 12.4895 17.8184 12.4762 17.8293C12.4699 17.8345 12.4632 17.839 12.4568 17.8439C12.4438 17.8539 12.4308 17.864 12.4172 17.8732C12.4119 17.8768 12.4063 17.8797 12.4009 17.8831C12.3856 17.8928 12.3701 17.9025 12.3541 17.9111C12.3501 17.9133 12.3459 17.9149 12.3419 17.917C12.3241 17.9261 12.3062 17.9349 12.2876 17.9426C12.2849 17.9438 12.2821 17.9446 12.2794 17.9457C12.2595 17.9537 12.2393 17.9611 12.2186 17.9674C12.2158 17.9683 12.213 17.9688 12.2103 17.9696C12.1897 17.9756 12.1689 17.9811 12.1476 17.9853C12.1415 17.9865 12.1352 17.9871 12.129 17.9881C12.1111 17.9913 12.0932 17.9944 12.0749 17.9962C12.0251 18.0013 11.9749 18.0013 11.9251 17.9962C11.9068 17.9944 11.8889 17.9913 11.871 17.9881C11.8648 17.9871 11.8585 17.9865 11.8524 17.9853C11.8311 17.9811 11.8103 17.9756 11.7897 17.9696C11.787 17.9688 11.7842 17.9683 11.7814 17.9674C11.7606 17.9611 11.7404 17.9536 11.7204 17.9456C11.7178 17.9445 11.715 17.9437 11.7124 17.9426C11.6938 17.9349 11.6759 17.9261 11.658 17.917C11.6541 17.9149 11.6499 17.9133 11.6459 17.9111C11.6298 17.9025 11.6144 17.8928 11.5991 17.8831C11.5937 17.8797 11.5881 17.8768 11.5828 17.8732C11.5691 17.864 11.5562 17.8539 11.5432 17.8439C11.5368 17.839 11.5301 17.8345 11.5238 17.8293C11.5108 17.8187 11.4987 17.8071 11.4865 17.7957C11.481 17.7904 11.475 17.7858 11.4696 17.7804L8.28767 14.5984C8.14701 14.4577 8.06799 14.2669 8.06798 14.068C8.06798 13.8691 8.147 13.6783 8.28765 13.5376C8.42831 13.397 8.61908 13.318 8.818 13.318C9.01692 13.318 9.2077 13.397 9.34836 13.5376L11.25 15.4393V9.75C11.25 9.55109 11.329 9.36032 11.4697 9.21967C11.6103 9.07902 11.8011 9 12 9C12.1989 9 12.3897 9.07902 12.5303 9.21967C12.671 9.36032 12.75 9.55109 12.75 9.75V15.4393L14.6516 13.5376C14.7213 13.468 14.804 13.4127 14.895 13.375C14.986 13.3374 15.0835 13.318 15.182 13.318C15.2805 13.318 15.378 13.3374 15.469 13.3751C15.56 13.4127 15.6427 13.468 15.7124 13.5376C15.782 13.6073 15.8372 13.69 15.8749 13.781C15.9126 13.872 15.932 13.9695 15.932 14.068C15.932 14.1665 15.9126 14.264 15.8749 14.355C15.8372 14.446 15.782 14.5287 15.7123 14.5984L15.7123 14.5984ZM4.96353 6L5.71353 4.5H18.2865L19.0365 6H4.96353Z" fill="#1D1F21" style="fill: var(--ui-icon-primary-color);"/>
</svg>
