<svg  viewBox="0 0 24 24" fill="none" xmlns="http://www.w3.org/2000/svg" id="__THIS_ID_NEEDS_FOR_UI_ICON_COMPONENT__">
<path d="M2.83781 10.0838C2.82538 10.0813 2.81332 10.0779 2.8011 10.0748C2.78957 10.0719 2.77798 10.0694 2.76658 10.0659C2.75473 10.0623 2.7433 10.0579 2.73172 10.0537C2.72019 10.0496 2.70858 10.0458 2.69723 10.0411C2.68661 10.0367 2.67645 10.0315 2.66611 10.0267C2.6542 10.0211 2.64226 10.0158 2.63063 10.0096C2.62104 10.0044 2.61195 9.99856 2.60264 9.99303C2.5909 9.98608 2.57906 9.97942 2.56764 9.97177C2.55794 9.96526 2.54883 9.95798 2.53944 9.95103C2.52914 9.94342 2.51864 9.93622 2.50866 9.92802C2.49518 9.91695 2.48254 9.90495 2.46989 9.89298C2.46469 9.88807 2.45913 9.88375 2.45402 9.87866C2.44874 9.87337 2.44425 9.86761 2.43915 9.86221C2.42741 9.84975 2.41559 9.83733 2.40472 9.8241C2.39619 9.81372 2.38868 9.8028 2.38078 9.79208C2.37417 9.78311 2.36721 9.77445 2.36101 9.76518C2.35304 9.75331 2.34611 9.74101 2.3389 9.7288C2.33368 9.71995 2.32809 9.71134 2.32322 9.70226C2.31674 9.69016 2.3112 9.67771 2.30543 9.66534C2.30081 9.65546 2.29587 9.64578 2.29165 9.63566C2.28675 9.6238 2.28275 9.61169 2.27847 9.59963C2.27453 9.58855 2.27025 9.57765 2.26682 9.56633C2.26316 9.55425 2.26046 9.54198 2.25741 9.52975C2.25455 9.51822 2.2513 9.50687 2.24897 9.49513C2.24615 9.48093 2.24441 9.46659 2.24242 9.45227C2.24105 9.44234 2.23912 9.43259 2.23814 9.42254C2.23564 9.39771 2.23439 9.37277 2.23439 9.34782V4.8483C2.23439 4.64938 2.31341 4.45862 2.45406 4.31797C2.59471 4.17731 2.78548 4.0983 2.98439 4.0983C3.1833 4.0983 3.37407 4.17731 3.51472 4.31797C3.65537 4.45862 3.73439 4.64938 3.73439 4.8483V7.53757L5.63603 5.63593C7.32521 3.95062 9.61391 3.00415 12 3.00415C14.3862 3.00415 16.6749 3.95062 18.3641 5.63593C18.4337 5.70557 18.489 5.78826 18.5266 5.87926C18.5643 5.97026 18.5837 6.06779 18.5837 6.16629C18.5837 6.26479 18.5643 6.36232 18.5266 6.45332C18.489 6.54432 18.4337 6.62701 18.3641 6.69666C18.2944 6.7663 18.2117 6.82155 18.1207 6.85925C18.0297 6.89694 17.9322 6.91634 17.8337 6.91634C17.7352 6.91634 17.6377 6.89694 17.5467 6.85925C17.4557 6.82155 17.373 6.7663 17.3033 6.69666C15.8957 5.29215 13.9885 4.50337 12 4.50337C10.0116 4.50337 8.10435 5.29215 6.69676 6.69666L4.79512 8.5983H7.48439C7.6833 8.5983 7.87406 8.67731 8.01472 8.81797C8.15537 8.95862 8.23439 9.14938 8.23439 9.3483C8.23439 9.54721 8.15537 9.73797 8.01472 9.87863C7.87406 10.0193 7.6833 10.0983 7.48439 10.0983H2.98439C2.95967 10.0983 2.93497 10.097 2.91037 10.0946C2.89929 10.0935 2.88855 10.0914 2.87764 10.0898C2.86434 10.0879 2.85102 10.0864 2.83781 10.0838ZM5.63603 17.3032C5.49538 17.4439 5.41637 17.6347 5.41637 17.8336C5.41637 18.0325 5.49538 18.2233 5.63603 18.364C7.32521 20.0493 9.61391 20.9957 12 20.9957C14.3862 20.9957 16.6749 20.0493 18.3641 18.364L20.2657 16.4623V19.1516C20.2657 19.3505 20.3447 19.5413 20.4854 19.6819C20.626 19.8226 20.8168 19.9016 21.0157 19.9016C21.2146 19.9016 21.4054 19.8226 21.546 19.6819C21.6867 19.5413 21.7657 19.3505 21.7657 19.1516V14.6521C21.7657 14.6271 21.7644 14.6022 21.7619 14.5773C21.761 14.5673 21.759 14.5575 21.7577 14.5476C21.7557 14.5333 21.7539 14.5189 21.7511 14.5047C21.7488 14.493 21.7455 14.4817 21.7427 14.4701C21.7396 14.4579 21.7369 14.4456 21.7333 14.4335C21.7298 14.4222 21.7256 14.4113 21.7216 14.4002C21.7173 14.3882 21.7133 14.3761 21.7084 14.3642C21.7042 14.3541 21.6993 14.3444 21.6947 14.3345C21.6889 14.3222 21.6833 14.3097 21.6769 14.2976C21.672 14.2885 21.6664 14.2799 21.6612 14.2711C21.654 14.2589 21.647 14.2466 21.6391 14.2347C21.6329 14.2254 21.6259 14.2168 21.6193 14.2078C21.6114 14.1971 21.6039 14.1862 21.5954 14.1758C21.5845 14.1625 21.5727 14.1501 21.5609 14.1377C21.5558 14.1323 21.5513 14.1265 21.5461 14.1212C21.541 14.1162 21.5356 14.112 21.5305 14.1072C21.5177 14.0951 21.505 14.083 21.4914 14.0718C21.4816 14.0638 21.4713 14.0568 21.4612 14.0493C21.4517 14.0422 21.4423 14.0347 21.4324 14.0281C21.4213 14.0207 21.4098 14.0142 21.3984 14.0074C21.3887 14.0017 21.3792 13.9956 21.3693 13.9902C21.3582 13.9843 21.3468 13.9793 21.3355 13.9739C21.3245 13.9688 21.3138 13.9633 21.3025 13.9587C21.292 13.9543 21.2812 13.9508 21.2705 13.9469C21.2581 13.9424 21.2458 13.9377 21.2331 13.9339C21.2228 13.9308 21.2124 13.9285 21.202 13.9259C21.1887 13.9224 21.1755 13.9187 21.1618 13.9161C21.1505 13.9138 21.139 13.9125 21.1275 13.9108C21.1148 13.9089 21.1022 13.9066 21.0892 13.9053C21.0703 13.9034 21.0513 13.9028 21.0323 13.9024C21.0267 13.9023 21.0213 13.9016 21.0157 13.9016H16.5157C16.3168 13.9016 16.126 13.9806 15.9854 14.1213C15.8447 14.2619 15.7657 14.4527 15.7657 14.6516C15.7657 14.8505 15.8447 15.0413 15.9854 15.1819C16.126 15.3226 16.3168 15.4016 16.5157 15.4016H19.205L17.3033 17.3032C15.8957 18.7077 13.9885 19.4965 12 19.4965C10.0116 19.4965 8.10435 18.7077 6.69676 17.3032C6.55607 17.1626 6.3653 17.0836 6.1664 17.0836C5.96749 17.0836 5.77672 17.1626 5.63603 17.3032Z" fill="#1D1F21" style="fill: var(--ui-icon-primary-color);"/>
</svg>
