<svg  viewBox="0 0 24 24" fill="none" xmlns="http://www.w3.org/2000/svg" id="__THIS_ID_NEEDS_FOR_UI_ICON_COMPONENT__">
<path d="M5.25009 5.99794C5.25018 5.97395 5.25141 5.94999 5.25376 5.92607C5.25485 5.91476 5.25696 5.90378 5.25856 5.89261C5.26044 5.87951 5.26195 5.86642 5.26456 5.85347C5.26703 5.84079 5.27051 5.82852 5.27367 5.81607C5.27651 5.80481 5.27898 5.7935 5.28237 5.78233C5.28608 5.77011 5.29061 5.75834 5.29491 5.7464C5.29889 5.73523 5.30256 5.72401 5.30713 5.71302C5.31171 5.70199 5.31707 5.69146 5.32215 5.6807C5.32755 5.66921 5.33263 5.65763 5.33867 5.64642C5.34408 5.6363 5.35026 5.62673 5.35611 5.61689C5.36275 5.60572 5.36911 5.59436 5.37639 5.58347C5.38353 5.57285 5.39145 5.56282 5.3991 5.55262C5.4061 5.54323 5.4126 5.53362 5.42011 5.52446C5.43407 5.50748 5.44895 5.49123 5.46433 5.47553C5.4662 5.4736 5.46781 5.47154 5.46968 5.46962C5.47184 5.46751 5.47417 5.46573 5.47632 5.46362C5.49179 5.44851 5.50777 5.43382 5.52452 5.42004C5.53354 5.41267 5.54306 5.40622 5.55231 5.3993C5.56265 5.39157 5.57277 5.38355 5.58353 5.37632C5.59419 5.36918 5.60532 5.363 5.61626 5.35646C5.62633 5.35041 5.63617 5.3441 5.64656 5.33856C5.65741 5.33275 5.66863 5.32785 5.6797 5.32258C5.69083 5.31732 5.70181 5.31178 5.71321 5.30702C5.72369 5.30272 5.73436 5.29924 5.74498 5.29544C5.75748 5.29091 5.76984 5.2861 5.78265 5.28225C5.79286 5.27914 5.80325 5.27694 5.8136 5.27429C5.82697 5.27085 5.8402 5.26714 5.85388 5.26444C5.86524 5.2622 5.87673 5.26092 5.88812 5.25922C5.90089 5.2573 5.91353 5.25497 5.92648 5.25368C5.94544 5.25185 5.96443 5.25121 5.98343 5.2508C5.98897 5.25073 5.99442 5.25 6 5.25H15.75C15.9489 5.25 16.1397 5.32902 16.2803 5.46967C16.421 5.61032 16.5 5.80109 16.5 6C16.5 6.19891 16.421 6.38968 16.2803 6.53033C16.1397 6.67098 15.9489 6.75 15.75 6.75H7.81069L18.5303 17.4696C18.6 17.5393 18.6552 17.622 18.6929 17.713C18.7306 17.8039 18.75 17.9015 18.75 18C18.75 18.0985 18.7306 18.196 18.6929 18.287C18.6553 18.378 18.6 18.4607 18.5304 18.5303C18.4607 18.6 18.378 18.6552 18.287 18.6929C18.1961 18.7306 18.0985 18.75 18 18.75C17.9015 18.75 17.804 18.7306 17.713 18.6929C17.622 18.6553 17.5393 18.6 17.4697 18.5304L6.75 7.81069V15.75C6.75 15.9489 6.67098 16.1397 6.53033 16.2803C6.38968 16.421 6.19891 16.5 6 16.5C5.80109 16.5 5.61032 16.421 5.46967 16.2803C5.32902 16.1397 5.25 15.9489 5.25 15.75V6L5.25009 5.99794Z" fill="#1D1F21" style="fill: var(--ui-icon-primary-color);"/>
</svg>
