<svg  viewBox="0 0 24 24" fill="none" xmlns="http://www.w3.org/2000/svg" id="__THIS_ID_NEEDS_FOR_UI_ICON_COMPONENT__">
<path d="M18.75 7.49977V20.9998C18.75 21.1987 18.671 21.3895 18.5303 21.5301C18.3897 21.6708 18.1989 21.7498 18 21.7498C17.8011 21.7498 17.6103 21.6708 17.4697 21.5301C17.329 21.3895 17.25 21.1987 17.25 20.9998V8.24977H6.31062L9.53034 11.4695C9.67099 11.6101 9.75001 11.8009 9.75 11.9998C9.74999 12.1987 9.67096 12.3895 9.5303 12.5301C9.38964 12.6708 9.19886 12.7498 8.99995 12.7498C8.80103 12.7498 8.61026 12.6708 8.46961 12.5301L3.96961 8.03009C3.96769 8.02817 3.96609 8.02604 3.96421 8.02409C3.94888 8.00844 3.93405 7.99228 3.92013 7.97532C3.91235 7.96589 3.90557 7.95596 3.89839 7.94625C3.89102 7.93634 3.88333 7.92669 3.87641 7.9164C3.86886 7.9051 3.86227 7.89336 3.85536 7.88173C3.84977 7.87234 3.84391 7.86321 3.83874 7.85358C3.83238 7.84176 3.82702 7.82963 3.82139 7.81758C3.81663 7.80741 3.8115 7.79746 3.8072 7.78704C3.80239 7.77536 3.79846 7.76342 3.7942 7.75157C3.79022 7.74033 3.78587 7.72925 3.78239 7.71776C3.77877 7.70579 3.77607 7.69361 3.77309 7.68151C3.77016 7.66988 3.76691 7.65842 3.76453 7.64659C3.76174 7.63245 3.76005 7.61815 3.75803 7.60389C3.75666 7.59391 3.75474 7.58412 3.75373 7.57402C3.74883 7.52464 3.74883 7.4749 3.75373 7.42552C3.75474 7.41543 3.75666 7.40563 3.75803 7.39565C3.76005 7.38139 3.76174 7.3671 3.76453 7.35296C3.76691 7.34112 3.77016 7.32967 3.77309 7.31804C3.77607 7.30593 3.77877 7.29376 3.78239 7.28179C3.78587 7.2703 3.79021 7.25922 3.7942 7.24798C3.79846 7.23612 3.80239 7.22419 3.8072 7.2125C3.8115 7.20209 3.81663 7.19213 3.82139 7.18197C3.82702 7.16991 3.83238 7.15778 3.83874 7.14597C3.84391 7.13633 3.84977 7.1272 3.85536 7.11782C3.86227 7.10619 3.86886 7.09445 3.87641 7.08314C3.88333 7.07285 3.89102 7.06321 3.89839 7.0533C3.90557 7.04359 3.91235 7.03366 3.92013 7.02423C3.93405 7.00727 3.94888 6.99111 3.96421 6.97545C3.96609 6.97351 3.96769 6.97138 3.96961 6.96945L8.46961 2.46945C8.61026 2.32879 8.80103 2.24976 8.99995 2.24976C9.19886 2.24975 9.38964 2.32876 9.5303 2.46941C9.67096 2.61006 9.74999 2.80082 9.75 2.99974C9.75001 3.19866 9.67099 3.38943 9.53034 3.53009L6.31062 6.74977H18C18.1989 6.74978 18.3897 6.82879 18.5303 6.96945C18.671 7.1101 18.75 7.30086 18.75 7.49977Z" fill="#1D1F21" style="fill: var(--ui-icon-primary-color);"/>
</svg>
