<svg  viewBox="0 0 24 24" fill="none" xmlns="http://www.w3.org/2000/svg" id="__THIS_ID_NEEDS_FOR_UI_ICON_COMPONENT__">
<path d="M19.5 3H4.5C4.10231 3.00045 3.72105 3.15864 3.43984 3.43984C3.15864 3.72105 3.00045 4.10231 3 4.5V19.5C3.00045 19.8977 3.15864 20.279 3.43984 20.5602C3.72105 20.8414 4.10231 20.9995 4.5 21H19.5C19.8977 20.9995 20.279 20.8414 20.5602 20.5602C20.8414 20.279 20.9995 19.8977 21 19.5V4.5C20.9995 4.10231 20.8414 3.72105 20.5602 3.43984C20.279 3.15864 19.8977 3.00045 19.5 3ZM15.1553 15.1554C15.0147 15.296 14.8239 15.375 14.625 15.375C14.4261 15.375 14.2353 15.296 14.0947 15.1554L10.125 11.1857V13.875C10.125 14.0739 10.046 14.2647 9.90533 14.4053C9.76468 14.546 9.57391 14.625 9.375 14.625C9.17609 14.625 8.98532 14.546 8.84467 14.4053C8.70402 14.2647 8.625 14.0739 8.625 13.875V9.37523C8.625 9.35042 8.6263 9.32561 8.62874 9.30089C8.62978 9.29022 8.63181 9.27987 8.6333 9.26935C8.63523 9.25566 8.63686 9.24193 8.63956 9.22833C8.64198 9.21606 8.64538 9.20411 8.64842 9.19203C8.65133 9.1804 8.65388 9.16873 8.65736 9.15719C8.66099 9.14525 8.66548 9.13376 8.66967 9.12204C8.67375 9.11064 8.67751 9.09915 8.68215 9.08793C8.68666 9.07709 8.69197 9.06665 8.69696 9.05603C8.70241 9.04445 8.70757 9.03277 8.71365 9.02142C8.71906 9.0113 8.72523 9.00173 8.73109 8.99189C8.73775 8.98073 8.74409 8.96937 8.75139 8.95848C8.75851 8.94786 8.76645 8.93783 8.77408 8.92762C8.78108 8.91824 8.78761 8.90863 8.79511 8.89947C8.80937 8.88212 8.82452 8.86555 8.84027 8.84953C8.84183 8.84793 8.84312 8.84619 8.84469 8.84463C8.8465 8.8428 8.84851 8.84134 8.85034 8.83951C8.86613 8.82404 8.88245 8.80911 8.89956 8.79506C8.9084 8.78778 8.91772 8.78146 8.9268 8.77469C8.93733 8.76681 8.94764 8.75866 8.95858 8.75134C8.96912 8.74429 8.98005 8.73816 8.99085 8.7317C9.00108 8.72562 9.01108 8.71921 9.02161 8.71353C9.03239 8.70776 9.04348 8.70291 9.05448 8.69769C9.06569 8.69238 9.07675 8.6868 9.08826 8.68204C9.09864 8.67773 9.10925 8.6743 9.11978 8.6705C9.13236 8.66592 9.14481 8.66116 9.15768 8.65722C9.16784 8.6542 9.17817 8.65196 9.18842 8.64935C9.20186 8.64592 9.21515 8.64216 9.22888 8.63946C9.24021 8.63722 9.25164 8.63598 9.26305 8.63424C9.27585 8.63232 9.28849 8.62999 9.30149 8.6287C9.32041 8.62687 9.3394 8.62628 9.35839 8.62582C9.36397 8.62573 9.36939 8.625 9.375 8.625H13.875C14.0739 8.625 14.2647 8.70402 14.4053 8.84467C14.546 8.98532 14.625 9.17609 14.625 9.375C14.625 9.57391 14.546 9.76468 14.4053 9.90533C14.2647 10.046 14.0739 10.125 13.875 10.125H11.1857L15.1553 14.0946C15.225 14.1643 15.2802 14.247 15.3179 14.338C15.3556 14.429 15.375 14.5265 15.375 14.625C15.375 14.7235 15.3556 14.821 15.3179 14.912C15.2802 15.003 15.225 15.0857 15.1553 15.1554Z" fill="#1D1F21" style="fill: var(--ui-icon-primary-color);"/>
</svg>
