<svg  viewBox="0 0 24 24" fill="none" xmlns="http://www.w3.org/2000/svg" id="__THIS_ID_NEEDS_FOR_UI_ICON_COMPONENT__">
<path d="M3 4.5V19.5C3.00045 19.8977 3.15864 20.279 3.43984 20.5602C3.72105 20.8414 4.10231 20.9995 4.5 21H19.5C19.8977 20.9995 20.279 20.8414 20.5602 20.5602C20.8414 20.279 20.9995 19.8977 21 19.5V4.5C20.9995 4.10231 20.8414 3.72105 20.5602 3.43984C20.279 3.15864 19.8977 3.00045 19.5 3H4.5C4.10231 3.00045 3.72105 3.15864 3.43984 3.43984C3.15864 3.72105 3.00045 4.10231 3 4.5ZM8.84468 14.0946L12.8143 10.125H10.125C9.92609 10.125 9.73532 10.046 9.59467 9.90533C9.45402 9.76468 9.375 9.57391 9.375 9.375C9.375 9.17609 9.45402 8.98532 9.59467 8.84467C9.73532 8.70402 9.92609 8.625 10.125 8.625H14.625C14.6306 8.625 14.636 8.62573 14.6416 8.62582C14.6606 8.62628 14.6796 8.62688 14.6985 8.62871C14.7115 8.62999 14.7242 8.63232 14.737 8.63425C14.7484 8.63599 14.7598 8.63722 14.7711 8.63947C14.7848 8.64217 14.7981 8.64592 14.8116 8.64935C14.8218 8.65196 14.8322 8.65421 14.8423 8.65723C14.8552 8.66117 14.8676 8.66593 14.8802 8.6705C14.8908 8.6743 14.9014 8.67774 14.9117 8.68204C14.9233 8.6868 14.9343 8.69238 14.9455 8.6977C14.9565 8.70291 14.9676 8.70777 14.9784 8.71353C14.9889 8.71921 14.9989 8.72562 15.0092 8.73171C15.02 8.73816 15.0309 8.7443 15.0414 8.75135C15.0524 8.75867 15.0627 8.76681 15.0732 8.77469C15.0823 8.78146 15.0916 8.78778 15.1004 8.79506C15.1176 8.80911 15.1339 8.82404 15.1497 8.83951C15.1515 8.84134 15.1535 8.8428 15.1553 8.84464C15.1569 8.84619 15.1582 8.84793 15.1597 8.84953C15.1755 8.86556 15.1906 8.88213 15.2049 8.89948C15.2124 8.90863 15.2189 8.91824 15.2259 8.92763C15.2335 8.93784 15.2415 8.94786 15.2486 8.95848C15.2559 8.96938 15.2623 8.98073 15.2689 8.9919C15.2748 9.00174 15.2809 9.0113 15.2864 9.02142C15.2924 9.03278 15.2976 9.04445 15.303 9.05603C15.308 9.06665 15.3133 9.07709 15.3179 9.08794C15.3225 9.09915 15.3263 9.11064 15.3303 9.12204C15.3345 9.13376 15.339 9.14525 15.3426 9.1572C15.3461 9.16873 15.3487 9.18041 15.3516 9.19203C15.3546 9.20412 15.358 9.21607 15.3604 9.22833C15.3631 9.24193 15.3648 9.25566 15.3667 9.26935C15.3682 9.27988 15.3702 9.29022 15.3713 9.30089C15.3737 9.32561 15.375 9.35042 15.375 9.37523V13.875C15.375 14.0739 15.296 14.2647 15.1553 14.4053C15.0147 14.546 14.8239 14.625 14.625 14.625C14.4261 14.625 14.2353 14.546 14.0947 14.4053C13.954 14.2647 13.875 14.0739 13.875 13.875V11.1857L9.90532 15.1554C9.76466 15.296 9.57389 15.375 9.37497 15.375C9.17605 15.375 8.98529 15.296 8.84464 15.1553C8.70399 15.0147 8.62498 14.8239 8.62499 14.625C8.62499 14.4261 8.70402 14.2353 8.84468 14.0946L8.84468 14.0946Z" fill="#1D1F21" style="fill: var(--ui-icon-primary-color);"/>
</svg>
