<svg  viewBox="0 0 24 24" fill="none" xmlns="http://www.w3.org/2000/svg" id="__THIS_ID_NEEDS_FOR_UI_ICON_COMPONENT__">
<path d="M12 2.25C10.0716 2.25 8.18653 2.82183 6.58315 3.89317C4.97977 4.96451 3.73009 6.48726 2.99213 8.26884C2.25418 10.0504 2.0611 12.0108 2.4373 13.9021C2.81351 15.7934 3.74211 17.5307 5.10567 18.8943C6.46923 20.2579 8.20651 21.1865 10.0978 21.5627C11.9891 21.9389 13.9495 21.7458 15.7311 21.0078C17.5127 20.2699 19.0354 19.0202 20.1068 17.4168C21.1781 15.8134 21.75 13.9284 21.75 12C21.747 9.41506 20.7188 6.93684 18.8909 5.10901C17.0631 3.28118 14.5849 2.25299 12 2.25ZM15.7119 11.9619C15.6422 12.0316 15.5596 12.0868 15.4686 12.1245C15.3776 12.1622 15.2801 12.1816 15.1816 12.1816C15.0831 12.1816 14.9856 12.1622 14.8946 12.1245C14.8036 12.0868 14.7209 12.0316 14.6513 11.9619L12.75 10.0605V15.75C12.75 15.9489 12.6709 16.1397 12.5303 16.2803C12.3896 16.421 12.1989 16.5 12 16.5C11.801 16.5 11.6103 16.421 11.4696 16.2803C11.329 16.1397 11.25 15.9489 11.25 15.75V10.0605L9.34859 11.9619C9.2079 12.1023 9.01724 12.1811 8.81848 12.181C8.61973 12.1809 8.42915 12.1019 8.28861 11.9613C8.14807 11.8208 8.06907 11.6302 8.06896 11.4315C8.06886 11.2327 8.14765 11.0421 8.28804 10.9014L11.4688 7.72064C11.6098 7.58001 11.8008 7.50103 12 7.50103C12.1991 7.50103 12.3901 7.58001 12.5311 7.72064L15.7119 10.9014C15.7815 10.971 15.8368 11.0537 15.8745 11.1446C15.9122 11.2356 15.9316 11.3332 15.9316 11.4316C15.9316 11.5301 15.9122 11.6277 15.8745 11.7186C15.8368 11.8096 15.7815 11.8923 15.7119 11.9619Z" fill="#1D1F21" style="fill: var(--ui-icon-primary-color);"/>
</svg>
