<svg  viewBox="0 0 24 24" fill="none" xmlns="http://www.w3.org/2000/svg" id="__THIS_ID_NEEDS_FOR_UI_ICON_COMPONENT__">
<path d="M4.71968 11.0298C4.57903 10.8892 4.50002 10.6984 4.50002 10.4995C4.50002 10.3006 4.57903 10.1098 4.71968 9.96919C4.86033 9.82854 5.05109 9.74953 5.25 9.74953C5.44891 9.74953 5.63967 9.82854 5.78032 9.96919L11.25 15.4389V2.24951C11.25 2.0506 11.329 1.85983 11.4697 1.71918C11.6103 1.57853 11.8011 1.49951 12 1.49951C12.1989 1.49951 12.3897 1.57853 12.5303 1.71918C12.671 1.85983 12.75 2.0506 12.75 2.24951V15.4389L18.2197 9.96919C18.3603 9.82854 18.5511 9.74953 18.75 9.74953C18.9489 9.74953 19.1397 9.82854 19.2803 9.96919C19.421 10.1098 19.5 10.3006 19.5 10.4995C19.5 10.6984 19.421 10.8892 19.2803 11.0298L12.5306 17.7795C12.513 17.7972 12.4945 17.8138 12.4752 17.8296C12.4672 17.8362 12.4587 17.8419 12.4505 17.8481C12.4392 17.8566 12.4281 17.8654 12.4162 17.8733C12.406 17.8801 12.3954 17.8861 12.3848 17.8924C12.3744 17.8986 12.3641 17.9052 12.3534 17.911C12.3425 17.9168 12.3313 17.9217 12.3202 17.927C12.3091 17.9322 12.2982 17.9377 12.2869 17.9424C12.2761 17.9469 12.265 17.9505 12.2541 17.9544C12.2419 17.9588 12.23 17.9634 12.2176 17.9672C12.2065 17.9705 12.1954 17.973 12.1842 17.9758C12.1717 17.9789 12.1593 17.9824 12.1465 17.985C12.1334 17.9876 12.1202 17.9891 12.1071 17.991C12.096 17.9926 12.0852 17.9947 12.074 17.9958C12.0494 17.9982 12.0247 17.9995 12 17.9995C11.9753 17.9995 11.9506 17.9982 11.926 17.9958C11.9148 17.9947 11.904 17.9926 11.8929 17.991C11.8797 17.9891 11.8666 17.9876 11.8535 17.985C11.8407 17.9824 11.8283 17.9789 11.8158 17.9758C11.8046 17.973 11.7935 17.9705 11.7824 17.9672C11.77 17.9634 11.7581 17.9588 11.7459 17.9544C11.735 17.9505 11.7239 17.9469 11.7131 17.9424C11.7018 17.9377 11.6909 17.9322 11.6798 17.927C11.6687 17.9217 11.6575 17.9168 11.6466 17.911C11.6358 17.9052 11.6256 17.8986 11.6152 17.8924C11.6046 17.8861 11.594 17.8801 11.5837 17.8733C11.5719 17.8654 11.5608 17.8566 11.5495 17.8481C11.5413 17.8419 11.5328 17.8362 11.5248 17.8296C11.5055 17.8138 11.4871 17.7972 11.4694 17.7796L4.71968 11.0298ZM19.5 19.4995H4.5C4.30109 19.4995 4.11032 19.5785 3.96967 19.7192C3.82902 19.8598 3.75 20.0506 3.75 20.2495C3.75 20.4484 3.82902 20.6392 3.96967 20.7798C4.11032 20.9205 4.30109 20.9995 4.5 20.9995H19.5C19.6989 20.9995 19.8897 20.9205 20.0303 20.7798C20.171 20.6392 20.25 20.4484 20.25 20.2495C20.25 20.0506 20.171 19.8598 20.0303 19.7192C19.8897 19.5785 19.6989 19.4995 19.5 19.4995Z" fill="#1D1F21" style="fill: var(--ui-icon-primary-color);"/>
</svg>
