<svg  viewBox="0 0 24 24" fill="none" xmlns="http://www.w3.org/2000/svg" id="__THIS_ID_NEEDS_FOR_UI_ICON_COMPONENT__">
<path d="M19.5 3C19.5 3.19891 19.421 3.38967 19.2803 3.53032C19.1397 3.67097 18.9489 3.74999 18.75 3.75C16.5627 3.75247 14.4658 4.62246 12.9191 6.1691C11.3725 7.71574 10.5025 9.81272 10.5 12V19.1894L13.7196 15.9696C13.8603 15.829 14.0511 15.75 14.25 15.75C14.4489 15.75 14.6397 15.829 14.7804 15.9696C14.921 16.1103 15.0001 16.3011 15.0001 16.5C15.0001 16.6989 14.921 16.8897 14.7804 17.0304L10.2804 21.5304C10.2753 21.5354 10.2697 21.5398 10.2645 21.5447C10.2519 21.5566 10.2392 21.5686 10.2257 21.5797C10.2158 21.588 10.2053 21.5951 10.195 21.6027C10.1856 21.6097 10.1765 21.617 10.1668 21.6235C10.1553 21.6311 10.1435 21.6378 10.1318 21.6447C10.1225 21.6503 10.1134 21.6561 10.1038 21.6612C10.0921 21.6675 10.0802 21.6728 10.0683 21.6784C10.058 21.6832 10.0478 21.6884 10.0372 21.6928C10.0258 21.6975 10.0142 21.7013 10.0027 21.7054C9.9911 21.7096 9.97968 21.714 9.96782 21.7176C9.95642 21.7211 9.94484 21.7236 9.93331 21.7265C9.92108 21.7296 9.90902 21.733 9.89659 21.7354C9.88339 21.7381 9.87006 21.7397 9.85677 21.7415C9.84585 21.7431 9.83511 21.7451 9.82404 21.7462C9.79943 21.7487 9.77474 21.75 9.75002 21.75C9.7253 21.75 9.7006 21.7487 9.676 21.7462C9.66492 21.7451 9.65418 21.7431 9.64327 21.7415C9.62997 21.7397 9.61665 21.7381 9.60344 21.7354C9.59101 21.733 9.57895 21.7296 9.56673 21.7265C9.55519 21.7236 9.54361 21.7211 9.53221 21.7176C9.52036 21.714 9.50894 21.7096 9.49735 21.7054C9.48582 21.7013 9.47421 21.6975 9.46286 21.6928C9.45224 21.6884 9.44208 21.6832 9.43174 21.6784C9.41984 21.6728 9.40789 21.6675 9.39626 21.6612C9.38667 21.6561 9.37758 21.6503 9.36827 21.6447C9.35653 21.6378 9.34469 21.6311 9.33327 21.6235C9.32357 21.617 9.31446 21.6097 9.30507 21.6027C9.29477 21.5951 9.28427 21.588 9.27429 21.5797C9.26081 21.5686 9.24817 21.5566 9.23552 21.5447C9.23032 21.5398 9.22476 21.5354 9.21965 21.5304L4.71965 17.0304C4.65001 16.9607 4.59476 16.878 4.55706 16.787C4.51937 16.696 4.49997 16.5985 4.49997 16.5C4.49997 16.4015 4.51937 16.304 4.55706 16.213C4.59476 16.122 4.65001 16.0393 4.71965 15.9696C4.7893 15.9 4.87199 15.8447 4.96299 15.807C5.05399 15.7694 5.15152 15.75 5.25002 15.75C5.34852 15.75 5.44605 15.7694 5.53705 15.807C5.62805 15.8447 5.71074 15.9 5.78038 15.9696L9.00001 19.1894V12C9.00294 9.41504 10.0311 6.93679 11.859 5.10894C13.6868 3.28109 16.1651 2.25293 18.75 2.25C18.9489 2.25001 19.1397 2.32903 19.2803 2.46968C19.421 2.61033 19.5 2.80109 19.5 3Z" fill="#1D1F21" style="fill: var(--ui-icon-primary-color);"/>
</svg>
