<svg  viewBox="0 0 24 24" fill="none" xmlns="http://www.w3.org/2000/svg" id="__THIS_ID_NEEDS_FOR_UI_ICON_COMPONENT__">
<path d="M12 2.25C10.0716 2.25 8.18653 2.82183 6.58315 3.89317C4.97977 4.96451 3.73009 6.48726 2.99213 8.26884C2.25418 10.0504 2.0611 12.0108 2.4373 13.9021C2.81351 15.7934 3.74211 17.5307 5.10567 18.8943C6.46923 20.2579 8.20651 21.1865 10.0978 21.5627C11.9891 21.9389 13.9495 21.7458 15.7311 21.0078C17.5127 20.2699 19.0354 19.0202 20.1068 17.4168C21.1781 15.8134 21.75 13.9284 21.75 12C21.747 9.41506 20.7188 6.93684 18.8909 5.10901C17.0631 3.28118 14.5849 2.25299 12 2.25ZM15.375 14.625C15.3743 14.8237 15.295 15.0141 15.1545 15.1546C15.014 15.2951 14.8237 15.3743 14.625 15.375H10.125C9.92605 15.375 9.73528 15.296 9.59463 15.1553C9.45398 15.0147 9.37496 14.8239 9.37496 14.625C9.37496 14.4261 9.45398 14.2353 9.59463 14.0947C9.73528 13.954 9.92605 13.875 10.125 13.875H12.8144L8.84469 9.90527C8.7043 9.76458 8.6255 9.57392 8.6256 9.37516C8.62571 9.17641 8.70471 8.98583 8.84525 8.84529C8.98579 8.70475 9.17637 8.62575 9.37512 8.62564C9.57388 8.62554 9.76454 8.70434 9.90523 8.84473L13.875 12.8145V10.125C13.875 9.92609 13.954 9.73532 14.0946 9.59467C14.2353 9.45402 14.426 9.375 14.625 9.375C14.8239 9.375 15.0146 9.45402 15.1553 9.59467C15.2959 9.73532 15.375 9.92609 15.375 10.125V14.625Z" fill="#1D1F21" style="fill: var(--ui-icon-primary-color);"/>
</svg>
