<svg  viewBox="0 0 24 24" fill="none" xmlns="http://www.w3.org/2000/svg" id="__THIS_ID_NEEDS_FOR_UI_ICON_COMPONENT__">
<path d="M17.0304 7.71964C17.171 7.8603 17.25 8.05108 17.25 8.25C17.25 8.44892 17.171 8.6397 17.0304 8.78036L7.81073 18H15C15.1989 18 15.3897 18.079 15.5303 18.2197C15.671 18.3603 15.75 18.5511 15.75 18.75C15.75 18.9489 15.671 19.1397 15.5303 19.2803C15.3897 19.421 15.1989 19.5 15 19.5H6C5.97528 19.5 5.95061 19.4987 5.92598 19.4963C5.91481 19.4952 5.90396 19.4931 5.89289 19.4915C5.87975 19.4896 5.86656 19.4881 5.85347 19.4855C5.84088 19.483 5.82862 19.4795 5.81625 19.4764C5.8049 19.4735 5.7935 19.471 5.78229 19.4676C5.7702 19.464 5.75848 19.4594 5.74667 19.4552C5.73541 19.4511 5.72406 19.4474 5.71298 19.4429C5.70204 19.4383 5.69156 19.433 5.68089 19.428C5.66931 19.4225 5.65768 19.4174 5.64638 19.4113C5.6364 19.406 5.62692 19.3999 5.61722 19.3941C5.60592 19.3874 5.59447 19.381 5.58344 19.3736C5.57309 19.3667 5.56339 19.3589 5.55341 19.3515C5.5437 19.3443 5.53382 19.3376 5.52443 19.3298C5.50928 19.3174 5.4949 19.304 5.48081 19.2904C5.47715 19.2869 5.47326 19.2839 5.46964 19.2804C5.46611 19.2768 5.46314 19.2729 5.45966 19.2693C5.44607 19.2552 5.43265 19.2408 5.4202 19.2256C5.41233 19.216 5.40541 19.2059 5.39809 19.196C5.39081 19.1863 5.38326 19.1768 5.37648 19.1667C5.36893 19.1554 5.36243 19.1438 5.35556 19.1322C5.34993 19.1227 5.34394 19.1135 5.33872 19.1037C5.33254 19.0922 5.32732 19.0804 5.32183 19.0687C5.31688 19.0582 5.31162 19.0478 5.30718 19.0371C5.30251 19.0258 5.29876 19.0143 5.29468 19.0029C5.29047 18.9912 5.28598 18.9797 5.28237 18.9678C5.27893 18.9564 5.27637 18.9448 5.27349 18.9332C5.27042 18.921 5.26699 18.909 5.26456 18.8966C5.26191 18.8834 5.26035 18.87 5.25847 18.8567C5.25692 18.8458 5.25481 18.8351 5.25376 18.824C5.25133 18.7994 5.25001 18.7747 5.25001 18.75V9.75C5.25001 9.55109 5.32903 9.36032 5.46968 9.21967C5.61033 9.07902 5.80109 9 6.00001 9C6.19892 9 6.38969 9.07902 6.53034 9.21967C6.67099 9.36032 6.75001 9.55109 6.75001 9.75V16.9393L15.9696 7.71964C16.1103 7.57903 16.3011 7.50005 16.5 7.50005C16.6989 7.50005 16.8897 7.57903 17.0304 7.71964ZM19.5 3H4.5C4.30109 3 4.11032 3.07902 3.96967 3.21967C3.82902 3.36032 3.75 3.55109 3.75 3.75C3.75 3.94891 3.82902 4.13968 3.96967 4.28033C4.11032 4.42098 4.30109 4.5 4.5 4.5H19.5C19.6989 4.5 19.8897 4.42098 20.0303 4.28033C20.171 4.13968 20.25 3.94891 20.25 3.75C20.25 3.55109 20.171 3.36032 20.0303 3.21967C19.8897 3.07902 19.6989 3 19.5 3Z" fill="#1D1F21" style="fill: var(--ui-icon-primary-color);"/>
</svg>
