<svg  viewBox="0 0 24 24" fill="none" xmlns="http://www.w3.org/2000/svg" id="__THIS_ID_NEEDS_FOR_UI_ICON_COMPONENT__">
<path d="M21.5304 15.5303L17.0304 20.0303C17.0289 20.0318 17.0272 20.0331 17.0257 20.0346C17.0096 20.0504 16.9929 20.0656 16.9754 20.08C16.9666 20.0872 16.9573 20.0935 16.9482 20.1004C16.9377 20.1082 16.9274 20.1163 16.9165 20.1237C16.9057 20.1309 16.8945 20.1371 16.8835 20.1437C16.8735 20.1496 16.8638 20.1559 16.8536 20.1614C16.8423 20.1674 16.8307 20.1725 16.8192 20.1779C16.8085 20.183 16.798 20.1883 16.787 20.1929C16.7759 20.1974 16.7646 20.2011 16.7534 20.2052C16.7415 20.2094 16.7298 20.214 16.7177 20.2177C16.7065 20.221 16.6951 20.2235 16.6837 20.2264C16.6714 20.2295 16.6592 20.233 16.6466 20.2355C16.6334 20.2381 16.62 20.2396 16.6068 20.2415C16.5958 20.2431 16.5851 20.2452 16.574 20.2463C16.5494 20.2487 16.5247 20.25 16.5 20.25C16.4753 20.25 16.4506 20.2487 16.426 20.2463C16.4149 20.2452 16.4042 20.2431 16.3932 20.2415C16.38 20.2396 16.3666 20.2381 16.3534 20.2355C16.3408 20.233 16.3286 20.2295 16.3163 20.2264C16.3049 20.2235 16.2935 20.221 16.2823 20.2177C16.2702 20.214 16.2585 20.2094 16.2466 20.2052C16.2354 20.2011 16.2241 20.1974 16.213 20.1929C16.202 20.1883 16.1915 20.183 16.1808 20.1779C16.1693 20.1725 16.1577 20.1674 16.1464 20.1614C16.1362 20.1559 16.1265 20.1496 16.1165 20.1437C16.1055 20.1371 16.0943 20.1309 16.0835 20.1237C16.0726 20.1163 16.0623 20.1082 16.0518 20.1004C16.0427 20.0935 16.0334 20.0872 16.0246 20.08C16.0071 20.0656 15.9904 20.0504 15.9744 20.0346C15.9728 20.0331 15.9711 20.0318 15.9696 20.0303L11.4696 15.5303C11.329 15.3897 11.25 15.1989 11.25 15C11.25 14.8011 11.329 14.6103 11.4697 14.4696C11.6103 14.329 11.8011 14.25 12 14.25C12.199 14.25 12.3897 14.329 12.5304 14.4697L15.75 17.6894V6.75H3C2.80109 6.75 2.61032 6.67098 2.46967 6.53033C2.32902 6.38968 2.25 6.19891 2.25 6C2.25 5.80109 2.32902 5.61032 2.46967 5.46967C2.61032 5.32902 2.80109 5.25 3 5.25H16.5C16.6989 5.25 16.8897 5.32902 17.0303 5.46967C17.171 5.61032 17.25 5.80109 17.25 6V17.6894L20.4696 14.4697C20.6103 14.329 20.8011 14.25 21 14.25C21.1989 14.25 21.3897 14.329 21.5303 14.4696C21.671 14.6103 21.75 14.8011 21.75 15C21.75 15.1989 21.671 15.3897 21.5304 15.5303Z" fill="#1D1F21" style="fill: var(--ui-icon-primary-color);"/>
</svg>
