<svg  viewBox="0 0 24 24" fill="none" xmlns="http://www.w3.org/2000/svg" id="__THIS_ID_NEEDS_FOR_UI_ICON_COMPONENT__">
<path d="M22.5004 12C22.5004 12.1989 22.4213 12.3897 22.2807 12.5303C22.14 12.671 21.9493 12.75 21.7504 12.75H8.561L14.0306 18.2197C14.1004 18.2893 14.1557 18.372 14.1934 18.463C14.2312 18.554 14.2506 18.6516 14.2506 18.7501C14.2507 18.8486 14.2313 18.9462 14.1936 19.0372C14.1559 19.1283 14.1006 19.211 14.031 19.2807C13.9613 19.3503 13.8786 19.4056 13.7876 19.4433C13.6965 19.481 13.5989 19.5003 13.5004 19.5003C13.4019 19.5003 13.3043 19.4808 13.2133 19.4431C13.1223 19.4053 13.0396 19.35 12.97 19.2803L6.22028 12.5306C6.2027 12.513 6.18602 12.4946 6.17024 12.4753C6.16356 12.4671 6.15774 12.4585 6.15143 12.4501C6.143 12.4389 6.13435 12.4279 6.12657 12.4163C6.11966 12.4059 6.11366 12.3952 6.1073 12.3846C6.10112 12.3742 6.09462 12.3641 6.0889 12.3534C6.08304 12.3425 6.07809 12.3312 6.07283 12.3201C6.06761 12.309 6.06212 12.2982 6.0574 12.2869C6.05296 12.2761 6.04935 12.265 6.04541 12.2541C6.04106 12.242 6.03644 12.23 6.03268 12.2176C6.02934 12.2066 6.02692 12.1953 6.02408 12.1842C6.02092 12.1717 6.0174 12.1593 6.01488 12.1465C6.01231 12.1336 6.0108 12.1205 6.00893 12.1075C6.00732 12.0963 6.00522 12.0853 6.00407 12.0739C6.00174 12.05 6.00053 12.0261 6.00046 12.0021L6.00037 12L6.00046 11.9979C6.00051 11.9739 6.00171 11.95 6.00408 11.9261C6.00522 11.9147 6.00733 11.9037 6.00893 11.8924C6.0108 11.8794 6.01232 11.8664 6.01488 11.8535C6.0174 11.8407 6.02092 11.8283 6.02408 11.8158C6.02692 11.8046 6.02935 11.7934 6.03269 11.7824C6.03644 11.77 6.04106 11.758 6.04541 11.7459C6.04935 11.735 6.05297 11.7239 6.05741 11.7131C6.06212 11.7018 6.06761 11.691 6.07283 11.6799C6.0781 11.6688 6.08304 11.6575 6.0889 11.6466C6.09462 11.6359 6.10112 11.6258 6.1073 11.6154C6.11367 11.6048 6.11966 11.5941 6.12657 11.5837C6.13436 11.5721 6.14301 11.5611 6.15143 11.5499C6.15775 11.5415 6.16356 11.5329 6.17024 11.5247C6.18604 11.5055 6.20271 11.4871 6.22028 11.4694L12.97 4.71968C13.0396 4.64996 13.1223 4.59465 13.2133 4.5569C13.3043 4.51916 13.4019 4.49971 13.5004 4.49968C13.5989 4.49965 13.6965 4.51903 13.7876 4.55672C13.8786 4.59441 13.9613 4.64967 14.031 4.71934C14.1006 4.78902 14.1559 4.87173 14.1936 4.96277C14.2313 5.0538 14.2507 5.15137 14.2506 5.2499C14.2506 5.34843 14.2312 5.44599 14.1934 5.537C14.1557 5.62801 14.1004 5.71069 14.0306 5.78032L8.561 11.25H21.7504C21.9493 11.25 22.14 11.329 22.2807 11.4697C22.4213 11.6103 22.5004 11.8011 22.5004 12ZM3.75037 3.75C3.65187 3.75 3.55435 3.76939 3.46335 3.80708C3.37235 3.84477 3.28967 3.90002 3.22003 3.96966C3.15039 4.03931 3.09514 4.12199 3.05745 4.21298C3.01976 4.30398 3.00036 4.40151 3.00037 4.5V19.5C3.00037 19.6989 3.07938 19.8897 3.22004 20.0303C3.36069 20.171 3.55145 20.25 3.75037 20.25C3.94928 20.25 4.14004 20.171 4.2807 20.0303C4.42135 19.8897 4.50037 19.6989 4.50037 19.5V4.5C4.50036 4.30109 4.42135 4.11032 4.28069 3.96967C4.14004 3.82902 3.94928 3.75 3.75037 3.75Z" fill="#1D1F21" style="fill: var(--ui-icon-primary-color);"/>
</svg>
