<svg  viewBox="0 0 24 24" fill="none" xmlns="http://www.w3.org/2000/svg" id="__THIS_ID_NEEDS_FOR_UI_ICON_COMPONENT__">
<path d="M19.2803 12.9702C19.35 13.0398 19.4052 13.1225 19.4429 13.2135C19.4806 13.3045 19.5 13.402 19.5 13.5005C19.5 13.599 19.4806 13.6965 19.4429 13.7875C19.4052 13.8785 19.35 13.9612 19.2803 14.0308C19.2107 14.1004 19.128 14.1557 19.037 14.1934C18.946 14.2311 18.8485 14.2505 18.75 14.2505C18.6515 14.2505 18.554 14.2311 18.463 14.1934C18.372 14.1557 18.2893 14.1004 18.2197 14.0308L12.75 8.56113V21.7505C12.75 21.9494 12.671 22.1402 12.5303 22.2808C12.3897 22.4215 12.1989 22.5005 12 22.5005C11.8011 22.5005 11.6103 22.4215 11.4697 22.2808C11.329 22.1402 11.25 21.9494 11.25 21.7505V8.56113L5.78032 14.0308C5.71068 14.1004 5.628 14.1557 5.53701 14.1934C5.44601 14.2311 5.34849 14.2505 5.25 14.2505C5.15151 14.2505 5.05399 14.2311 4.96299 14.1934C4.872 14.1557 4.78932 14.1004 4.71968 14.0308C4.65004 13.9612 4.5948 13.8785 4.5571 13.7875C4.51941 13.6965 4.50002 13.599 4.50002 13.5005C4.50002 13.402 4.51941 13.3045 4.5571 13.2135C4.59479 13.1225 4.65004 13.0398 4.71968 12.9702L11.4695 6.2204C11.487 6.20282 11.5055 6.18614 11.5248 6.17036C11.5328 6.16377 11.5413 6.15807 11.5495 6.15187C11.5608 6.14336 11.5719 6.13459 11.5838 6.12669C11.594 6.11987 11.6045 6.11397 11.615 6.10772C11.6255 6.1014 11.6358 6.09481 11.6467 6.089C11.6574 6.08328 11.6684 6.07842 11.6794 6.07325C11.6906 6.06791 11.7017 6.06233 11.7133 6.05752C11.7238 6.05317 11.7345 6.04967 11.7453 6.0458C11.7576 6.04134 11.7698 6.0366 11.7825 6.03278C11.7932 6.02955 11.8039 6.02722 11.8147 6.02449C11.8277 6.0212 11.8405 6.01761 11.8537 6.015C11.8659 6.01257 11.8782 6.01117 11.8905 6.00937C11.9024 6.00763 11.9142 6.00538 11.9263 6.00422C11.948 6.00206 11.9698 6.00115 11.9917 6.0009C11.9945 6.00087 11.9972 6.00049 12 6.00049C12.0028 6.00049 12.0055 6.00087 12.0083 6.0009C12.0302 6.00115 12.052 6.00206 12.0737 6.00422C12.0858 6.00538 12.0976 6.00763 12.1095 6.00937C12.1218 6.01117 12.1341 6.01257 12.1463 6.015C12.1595 6.01761 12.1723 6.0212 12.1853 6.02449C12.1961 6.02722 12.2068 6.02956 12.2175 6.03278C12.2302 6.0366 12.2424 6.04134 12.2547 6.0458C12.2655 6.04967 12.2762 6.05317 12.2867 6.05752C12.2983 6.06233 12.3094 6.06791 12.3206 6.07325C12.3316 6.07842 12.3426 6.08327 12.3533 6.089C12.3642 6.09481 12.3745 6.1014 12.385 6.10772C12.3955 6.11397 12.406 6.11987 12.4162 6.12669C12.4281 6.13459 12.4392 6.14336 12.4505 6.15187C12.4587 6.15807 12.4672 6.16378 12.4752 6.17036C12.4945 6.18616 12.513 6.20284 12.5306 6.22047L19.2803 12.9702ZM19.5 3.00049H4.5C4.30109 3.00049 4.11032 3.07951 3.96967 3.22016C3.82902 3.36081 3.75 3.55158 3.75 3.75049C3.75 3.9494 3.82902 4.14017 3.96967 4.28082C4.11032 4.42147 4.30109 4.50049 4.5 4.50049H19.5C19.6989 4.50049 19.8897 4.42147 20.0303 4.28082C20.171 4.14017 20.25 3.9494 20.25 3.75049C20.25 3.55158 20.171 3.36081 20.0303 3.22016C19.8897 3.07951 19.6989 3.00049 19.5 3.00049Z" fill="#1D1F21" style="fill: var(--ui-icon-primary-color);"/>
</svg>
