<svg  viewBox="0 0 24 24" fill="none" xmlns="http://www.w3.org/2000/svg" id="__THIS_ID_NEEDS_FOR_UI_ICON_COMPONENT__">
<path d="M4.5 20.9995H19.5C19.8977 20.9991 20.279 20.841 20.5602 20.5597C20.8414 20.2785 20.9996 19.8972 21 19.4995V4.49951C20.9996 4.10181 20.8414 3.7205 20.5602 3.43929C20.279 3.15807 19.8977 2.9999 19.5 2.99951H4.5C4.1023 2.9999 3.72099 3.15807 3.43977 3.43929C3.15855 3.7205 3.00039 4.10181 3 4.49951V19.4995C3.00039 19.8972 3.15855 20.2785 3.43977 20.5597C3.72099 20.841 4.1023 20.9991 4.5 20.9995ZM12.0381 15.7129C11.9684 15.6433 11.9132 15.5606 11.8755 15.4696C11.8378 15.3786 11.8184 15.2811 11.8184 15.1826C11.8184 15.0841 11.8378 14.9866 11.8755 14.8956C11.9132 14.8046 11.9684 14.722 12.0381 14.6523L13.9399 12.7495H8.25C8.05109 12.7495 7.86032 12.6705 7.71967 12.5298C7.57902 12.3892 7.5 12.1984 7.5 11.9995C7.5 11.8006 7.57902 11.6098 7.71967 11.4692C7.86032 11.3285 8.05109 11.2495 8.25 11.2495H13.9395L12.0381 9.34814C11.8977 9.20746 11.8189 9.01679 11.819 8.81804C11.8191 8.61928 11.8981 8.4287 12.0387 8.28816C12.1792 8.14762 12.3698 8.06862 12.5685 8.06852C12.7673 8.06841 12.9579 8.14721 13.0986 8.2876L16.2794 11.4683C16.42 11.6093 16.499 11.8004 16.499 11.9995C16.499 12.1987 16.42 12.3897 16.2794 12.5307L13.0986 15.7129C13.029 15.7825 12.9463 15.8378 12.8554 15.8755C12.7644 15.9132 12.6668 15.9326 12.5684 15.9326C12.4699 15.9326 12.3723 15.9132 12.2814 15.8755C12.1904 15.8378 12.1077 15.7825 12.0381 15.7129Z" fill="#1D1F21" style="fill: var(--ui-icon-primary-color);"/>
</svg>
