<svg  viewBox="0 0 24 24" fill="none" xmlns="http://www.w3.org/2000/svg" id="__THIS_ID_NEEDS_FOR_UI_ICON_COMPONENT__">
<path d="M6.74992 3.75C6.74993 3.55109 6.82895 3.36033 6.9696 3.21968C7.11025 3.07903 7.30101 3.00001 7.49992 3H16.4999C16.6988 3 16.8896 3.07902 17.0303 3.21967C17.1709 3.36032 17.2499 3.55109 17.2499 3.75C17.2499 3.94891 17.1709 4.13968 17.0303 4.28033C16.8896 4.42098 16.6988 4.5 16.4999 4.5H7.49992C7.30101 4.49999 7.11025 4.42097 6.9696 4.28032C6.82895 4.13967 6.74993 3.94891 6.74992 3.75ZM21.6928 12.463C21.636 12.3259 21.5399 12.2088 21.4166 12.1264C21.2932 12.044 21.1483 12 20.9999 12H17.2499V6.75C17.2499 6.55109 17.1709 6.36033 17.0302 6.21968C16.8896 6.07903 16.6988 6.00001 16.4999 6H7.49992C7.30101 6.00001 7.11025 6.07903 6.9696 6.21968C6.82895 6.36033 6.74993 6.55109 6.74992 6.75V12H2.99992C2.85159 12 2.70659 12.044 2.58326 12.1264C2.45993 12.2088 2.3638 12.326 2.30704 12.463C2.25027 12.6001 2.23541 12.7509 2.26434 12.8963C2.29327 13.0418 2.36468 13.1755 2.46956 13.2804L11.4696 22.2804C11.6103 22.421 11.801 22.5 11.9999 22.5C12.1988 22.5 12.3896 22.421 12.5303 22.2804L21.5303 13.2804C21.6352 13.1755 21.7066 13.0418 21.7355 12.8963C21.7644 12.7508 21.7496 12.6 21.6928 12.463Z" fill="#1D1F21" style="fill: var(--ui-icon-primary-color);"/>
</svg>
