<svg  viewBox="0 0 24 24" fill="none" xmlns="http://www.w3.org/2000/svg" id="__THIS_ID_NEEDS_FOR_UI_ICON_COMPONENT__">
<path d="M21.75 11.999C21.75 12.0466 21.7489 12.0939 21.7482 12.1413C21.7165 13.4781 21.2199 14.999 19.125 14.999C16.9554 14.999 16.5 13.3677 16.5 11.999V8.24905C16.5 8.05013 16.421 7.85937 16.2804 7.71872C16.1397 7.57806 15.9489 7.49905 15.75 7.49905C15.5511 7.49905 15.3603 7.57806 15.2197 7.71872C15.079 7.85937 15 8.05013 15 8.24905V8.64852C14.323 8.04184 13.4781 7.65446 12.5766 7.53741C11.6751 7.42036 10.7592 7.57912 9.94973 7.99279C9.14023 8.40646 8.47501 9.05563 8.0417 9.8548C7.60839 10.654 7.42731 11.5656 7.52231 12.4697C7.61732 13.3738 7.98395 14.228 8.57392 14.9196C9.16389 15.6112 9.94952 16.1079 10.8273 16.3443C11.7052 16.5807 12.634 16.5456 13.4915 16.2437C14.3489 15.9418 15.0949 15.3873 15.631 14.6531C15.7246 14.8162 15.8305 14.9719 15.9477 15.119C16.4509 15.7486 17.4106 16.499 19.125 16.499C19.6936 16.5068 20.2588 16.4094 20.792 16.2118C19.7557 18.3735 17.9591 20.0775 15.7458 20.9983C13.5324 21.919 11.0573 21.9919 8.79356 21.203C6.52982 20.4142 4.63612 18.8188 3.47435 16.7219C2.31258 14.6249 1.96419 12.1734 2.49577 9.83586C3.02734 7.49828 4.40161 5.43852 6.35595 4.0502C8.31029 2.66188 10.7077 2.04235 13.0899 2.30999C15.4722 2.57764 17.6723 3.71369 19.2699 5.50106C20.8674 7.28843 21.7504 9.60178 21.75 11.999ZM9.00002 11.999C9.00002 12.5924 9.17597 13.1724 9.50562 13.6658C9.83526 14.1591 10.3038 14.5436 10.852 14.7707C11.4002 14.9977 12.0034 15.0572 12.5853 14.9414C13.1672 14.8256 13.7018 14.5399 14.1213 14.1204C14.5409 13.7008 14.8266 13.1663 14.9424 12.5843C15.0581 12.0024 14.9987 11.3992 14.7717 10.851C14.5446 10.3028 14.1601 9.83428 13.6667 9.50464C13.1734 9.17499 12.5934 8.99905 12 8.99905C11.2047 8.99996 10.4421 9.31632 9.87971 9.87873C9.3173 10.4411 9.00093 11.2037 9.00002 11.999Z" fill="#1D1F21" style="fill: var(--ui-icon-primary-color);"/>
</svg>
