<svg  viewBox="0 0 24 24" fill="none" xmlns="http://www.w3.org/2000/svg" id="__THIS_ID_NEEDS_FOR_UI_ICON_COMPONENT__">
<path d="M19.5 5.25H16.4363C16.2593 4.20148 15.7166 3.24956 14.9045 2.5631C14.0924 1.87664 13.0634 1.5 12 1.5C10.9366 1.5 9.90764 1.87664 9.09554 2.5631C8.28344 3.24956 7.74073 4.20148 7.56367 5.25H4.5C4.10231 5.25045 3.72105 5.40863 3.43984 5.68984C3.15864 5.97105 3.00045 6.35231 3 6.75V18.75C3.00045 19.1477 3.15864 19.5289 3.43984 19.8102C3.72105 20.0914 4.10231 20.2495 4.5 20.25H19.5C19.8977 20.2495 20.279 20.0914 20.5602 19.8102C20.8414 19.5289 20.9995 19.1477 21 18.75V6.75C20.9995 6.35231 20.8414 5.97105 20.5602 5.68984C20.279 5.40863 19.8977 5.25045 19.5 5.25ZM12 3C12.6649 3.00085 13.3108 3.22218 13.8364 3.62932C14.3621 4.03647 14.7379 4.60644 14.9051 5.25H9.09494C9.26206 4.60644 9.63789 4.03647 10.1636 3.62932C10.6892 3.22218 11.3351 3.00085 12 3Z" fill="#1D1F21" style="fill: var(--ui-icon-primary-color);"/>
</svg>
