<svg  viewBox="0 0 24 24" fill="none" xmlns="http://www.w3.org/2000/svg" id="__THIS_ID_NEEDS_FOR_UI_ICON_COMPONENT__">
<path d="M8.25 1.5C8.25 1.40151 8.26939 1.30398 8.30708 1.21298C8.34477 1.12199 8.40002 1.03931 8.46966 0.969664C8.53931 0.900019 8.62199 0.844775 8.71298 0.807085C8.80398 0.769395 8.90151 0.749997 9 0.75H15C15.1989 0.75 15.3897 0.829018 15.5303 0.96967C15.671 1.11032 15.75 1.30109 15.75 1.5C15.75 1.69891 15.671 1.88968 15.5303 2.03033C15.3897 2.17098 15.1989 2.25 15 2.25H9C8.90151 2.25 8.80398 2.23061 8.71298 2.19292C8.62199 2.15523 8.53931 2.09998 8.46966 2.03034C8.40002 1.96069 8.34477 1.87801 8.30708 1.78702C8.26939 1.69602 8.25 1.59849 8.25 1.5ZM19.5 6V20.25C19.4993 20.8465 19.262 21.4184 18.8402 21.8402C18.4184 22.262 17.8465 22.4993 17.25 22.5H6.75C6.15347 22.4993 5.58157 22.262 5.15976 21.8402C4.73795 21.4184 4.50068 20.8465 4.5 20.25V6C4.50068 5.40347 4.73795 4.83157 5.15976 4.40976C5.58157 3.98795 6.15347 3.75068 6.75 3.75H17.25C17.8465 3.75068 18.4184 3.98795 18.8402 4.40976C19.262 4.83157 19.4993 5.40347 19.5 6ZM11.25 13.125C11.25 13.3239 11.329 13.5147 11.4697 13.6553C11.6103 13.796 11.8011 13.875 12 13.875C12.1989 13.875 12.3897 13.796 12.5303 13.6553C12.671 13.5147 12.75 13.3239 12.75 13.125V9.375C12.75 9.17609 12.671 8.98532 12.5303 8.84467C12.3897 8.70402 12.1989 8.625 12 8.625C11.8011 8.625 11.6103 8.70402 11.4697 8.84467C11.329 8.98532 11.25 9.17609 11.25 9.375V13.125ZM13.125 16.5C13.125 16.2775 13.059 16.06 12.9354 15.875C12.8118 15.69 12.6361 15.5458 12.4305 15.4606C12.225 15.3755 11.9988 15.3532 11.7805 15.3966C11.5623 15.44 11.3618 15.5472 11.2045 15.7045C11.0472 15.8618 10.94 16.0623 10.8966 16.2805C10.8532 16.4988 10.8755 16.725 10.9606 16.9305C11.0458 17.1361 11.19 17.3118 11.375 17.4354C11.56 17.559 11.7775 17.625 12 17.625C12.2983 17.6247 12.5842 17.506 12.7951 17.2951C13.006 17.0842 13.1247 16.7983 13.125 16.5Z" fill="#1D1F21" style="fill: var(--ui-icon-primary-color);"/>
</svg>
