<svg  viewBox="0 0 24 24" fill="none" xmlns="http://www.w3.org/2000/svg" id="__THIS_ID_NEEDS_FOR_UI_ICON_COMPONENT__">
<path d="M20.7283 17.9981C20.5981 18.2277 20.409 18.4185 20.1805 18.5507C19.952 18.6829 19.6923 18.7517 19.4283 18.75H4.57169C4.30773 18.75 4.04844 18.6803 3.82003 18.548C3.59162 18.4157 3.40217 18.2254 3.27082 17.9965C3.13947 17.7675 3.07087 17.5079 3.07194 17.244C3.07302 16.98 3.14374 16.721 3.27695 16.4931C3.83506 15.5357 4.50037 13.7185 4.50037 10.5V9.75C4.50035 7.76097 5.29045 5.85338 6.69685 4.44687C8.10326 3.04036 10.0108 2.25013 11.9998 2.25C12.019 2.25 12.0379 2.25009 12.0571 2.25019C16.1613 2.28058 19.5004 5.68305 19.5004 9.83478V10.5C19.5004 13.7189 20.1654 15.536 20.7232 16.4935C20.8579 16.7212 20.9293 16.9806 20.9302 17.2451C20.9311 17.5096 20.8614 17.7695 20.7283 17.9981ZM14.9933 20.25H8.99332C8.79441 20.25 8.60364 20.329 8.46299 20.4697C8.32234 20.6103 8.24332 20.8011 8.24332 21C8.24332 21.1989 8.32234 21.3897 8.46299 21.5303C8.60364 21.671 8.79441 21.75 8.99332 21.75H14.9933C15.1922 21.75 15.383 21.671 15.5236 21.5303C15.6643 21.3897 15.7433 21.1989 15.7433 21C15.7433 20.8011 15.6643 20.6103 15.5236 20.4697C15.383 20.329 15.1922 20.25 14.9933 20.25Z" fill="#1D1F21" style="fill: var(--ui-icon-primary-color);"/>
</svg>
