<svg  viewBox="0 0 24 24" fill="none" xmlns="http://www.w3.org/2000/svg" id="__THIS_ID_NEEDS_FOR_UI_ICON_COMPONENT__">
<path d="M11.2493 21.75C11.0504 21.7499 10.8597 21.6709 10.7191 21.5303C10.5784 21.3896 10.4994 21.1989 10.4994 21V13.5L5.6994 17.1C5.6206 17.1591 5.53094 17.2021 5.43554 17.2265C5.34013 17.2509 5.24084 17.2563 5.14334 17.2424C5.04584 17.2285 4.95204 17.1955 4.8673 17.1453C4.78255 17.0951 4.70852 17.0288 4.64942 16.95C4.53008 16.7908 4.47884 16.5908 4.50697 16.3939C4.5351 16.197 4.64031 16.0193 4.79943 15.9L10.5864 11.5597L3.94502 4.25425C3.81121 4.10707 3.74136 3.91276 3.75082 3.71408C3.76028 3.51539 3.84828 3.3286 3.99546 3.1948C4.14264 3.061 4.33695 2.99114 4.53563 3.00061C4.73432 3.01007 4.92111 3.09807 5.05491 3.24525L14.1548 13.2552C14.1614 13.2621 14.1678 13.2692 14.1741 13.2763L17.1089 16.5046C17.113 16.509 17.1171 16.5135 17.1211 16.5181L20.0549 19.7452C20.1887 19.8924 20.2586 20.0867 20.2491 20.2854C20.2396 20.4841 20.1516 20.6709 20.0045 20.8047C19.8573 20.9385 19.663 21.0084 19.4643 20.9989C19.2656 20.9894 19.0788 20.9014 18.945 20.7542L16.4648 18.026L11.6994 21.6C11.5696 21.6974 11.4116 21.75 11.2493 21.75ZM11.9994 13.5V19.5L15.4512 16.9111L13.1019 14.3269L11.9994 13.5ZM14.1071 10.6072C13.9497 10.6073 13.7962 10.5578 13.6684 10.4658C13.5406 10.3738 13.445 10.244 13.3952 10.0946C13.3453 9.94524 13.3437 9.78398 13.3907 9.63367C13.4376 9.48336 13.5306 9.35163 13.6566 9.25715L15.9994 7.49998L11.9994 4.49998V6.71432C11.9994 6.91323 11.9204 7.10399 11.7797 7.24465C11.6391 7.3853 11.4483 7.46432 11.2494 7.46432C11.0505 7.46432 10.8597 7.3853 10.7191 7.24465C10.5784 7.10399 10.4994 6.91323 10.4994 6.71432V2.99998C10.4994 2.8607 10.5382 2.72417 10.6114 2.60569C10.6847 2.48721 10.7894 2.39147 10.914 2.32918C11.0386 2.26689 11.178 2.24052 11.3168 2.25303C11.4555 2.26554 11.588 2.31642 11.6994 2.39999L17.6994 6.89999C17.7925 6.96984 17.8682 7.06043 17.9202 7.16457C17.9723 7.26871 17.9994 7.38354 17.9994 7.49998C17.9994 7.61641 17.9723 7.73125 17.9202 7.83539C17.8682 7.93953 17.7925 8.03011 17.6994 8.09997L14.5565 10.4571C14.427 10.5546 14.2693 10.6073 14.1071 10.6072Z" fill="#1D1F21" style="fill: var(--ui-icon-primary-color);"/>
</svg>
