<svg  viewBox="0 0 24 24" fill="none" xmlns="http://www.w3.org/2000/svg" id="__THIS_ID_NEEDS_FOR_UI_ICON_COMPONENT__">
<path d="M4.87499 13.125C4.65249 13.125 4.43498 13.059 4.24998 12.9354C4.06497 12.8118 3.92078 12.6361 3.83563 12.4305C3.75048 12.2249 3.7282 11.9987 3.77161 11.7805C3.81502 11.5623 3.92216 11.3618 4.0795 11.2045C4.23683 11.0472 4.43729 10.94 4.65552 10.8966C4.87375 10.8532 5.09994 10.8755 5.30551 10.9606C5.51108 11.0458 5.68678 11.19 5.8104 11.375C5.93401 11.56 5.99999 11.7775 5.99999 12C5.99966 12.2983 5.88103 12.5842 5.67012 12.7951C5.45921 13.006 5.17326 13.1247 4.87499 13.125ZM18 16.5C18 16.6164 17.9729 16.7313 17.9208 16.8354C17.8687 16.9396 17.7931 17.0302 17.7 17.1L11.7 21.6C11.5885 21.6836 11.456 21.7345 11.3173 21.747C11.1786 21.7595 11.0392 21.7331 10.9146 21.6708C10.79 21.6085 10.6852 21.5128 10.612 21.3943C10.5388 21.2758 10.5 21.1393 10.5 21V13.5L5.69997 17.1C5.54083 17.2194 5.3408 17.2706 5.14389 17.2425C4.94697 17.2143 4.7693 17.1091 4.64996 16.95C4.53061 16.7908 4.47938 16.5908 4.50752 16.3939C4.53566 16.197 4.64087 16.0193 4.80001 15.9L9.99993 12L4.80001 8.10003C4.64115 7.98059 4.53619 7.80297 4.50819 7.60619C4.48019 7.40942 4.53144 7.20957 4.65069 7.05056C4.76994 6.89155 4.94743 6.78637 5.14417 6.75813C5.34091 6.7299 5.54082 6.78091 5.69997 6.89996L10.5 10.5V2.99999C10.5 2.86071 10.5388 2.72419 10.612 2.60571C10.6852 2.48723 10.79 2.39148 10.9146 2.32919C11.0392 2.2669 11.1786 2.24053 11.3173 2.25303C11.456 2.26553 11.5885 2.3164 11.7 2.39996L17.7 6.89996C17.7931 6.96982 17.8687 7.06042 17.9208 7.16456C17.9729 7.26871 18 7.38355 18 7.49999C18 7.61644 17.9729 7.73128 17.9208 7.83542C17.8687 7.93957 17.7931 8.03017 17.7 8.10003L12.5001 12L17.7 15.9C17.7931 15.9698 17.8687 16.0604 17.9208 16.1646C17.9729 16.2687 18 16.3836 18 16.5ZM12 10.5L16 7.49999L12 4.49999V10.5ZM16 16.5L12 13.5V19.5L16 16.5ZM18.375 10.875C18.1525 10.875 17.935 10.941 17.75 11.0646C17.565 11.1882 17.4208 11.3639 17.3356 11.5695C17.2505 11.775 17.2282 12.0012 17.2716 12.2195C17.315 12.4377 17.4222 12.6382 17.5795 12.7955C17.7368 12.9528 17.9373 13.06 18.1555 13.1034C18.3737 13.1468 18.5999 13.1245 18.8055 13.0394C19.0111 12.9542 19.1868 12.81 19.3104 12.625C19.434 12.44 19.5 12.2225 19.5 12C19.4997 11.7017 19.381 11.4158 19.1701 11.2049C18.9592 10.994 18.6733 10.8753 18.375 10.875Z" fill="#1D1F21" style="fill: var(--ui-icon-primary-color);"/>
</svg>
