<svg  viewBox="0 0 24 24" fill="none" xmlns="http://www.w3.org/2000/svg" id="__THIS_ID_NEEDS_FOR_UI_ICON_COMPONENT__">
<path d="M15.75 12.0003C15.75 12.742 15.5301 13.467 15.118 14.0837C14.706 14.7004 14.1203 15.181 13.4351 15.4649C12.7498 15.7487 11.9958 15.8229 11.2684 15.6783C10.541 15.5336 9.8728 15.1764 9.34835 14.652C8.82391 14.1275 8.46675 13.4593 8.32206 12.7319C8.17736 12.0045 8.25163 11.2505 8.53546 10.5652C8.81928 9.88002 9.29993 9.29435 9.91662 8.8823C10.5333 8.47024 11.2583 8.25031 12 8.25031C12.9942 8.25144 13.9474 8.64689 14.6504 9.3499C15.3534 10.0529 15.7489 11.0061 15.75 12.0003ZM7.75736 7.75766C7.89801 7.617 7.97702 7.42623 7.97701 7.22731C7.977 7.02839 7.89797 6.83763 7.75731 6.69698C7.61665 6.55633 7.42588 6.47732 7.22696 6.47733C7.02804 6.47733 6.83728 6.55636 6.69663 6.69702C5.99953 7.39309 5.4465 8.21976 5.06917 9.12975C4.69184 10.0397 4.49762 11.0152 4.49762 12.0003C4.49762 12.9854 4.69184 13.9609 5.06917 14.8709C5.4465 15.7809 5.99953 16.6075 6.69663 17.3036C6.76627 17.3732 6.84895 17.4285 6.93994 17.4662C7.03094 17.5039 7.12847 17.5233 7.22696 17.5233C7.32545 17.5233 7.42298 17.5039 7.51398 17.4662C7.60498 17.4285 7.68766 17.3733 7.75731 17.3036C7.82696 17.234 7.88221 17.1513 7.91991 17.0603C7.9576 16.9693 7.97701 16.8718 7.97701 16.7733C7.97702 16.6748 7.95762 16.5773 7.91993 16.4863C7.88224 16.3953 7.827 16.3126 7.75736 16.243C7.19953 15.6862 6.75698 15.0249 6.45502 14.2969C6.15307 13.5689 5.99764 12.7884 5.99764 12.0003C5.99764 11.2122 6.15307 10.4318 6.45502 9.70375C6.75698 8.97575 7.19953 8.31443 7.75736 7.75766ZM19.5 12.0003C19.5012 11.0152 19.3077 10.0396 18.9307 9.12954C18.5538 8.21944 18.0007 7.39278 17.3034 6.69702C17.2337 6.62737 17.1511 6.57213 17.0601 6.53443C16.9691 6.49673 16.8715 6.47733 16.773 6.47733C16.6746 6.47732 16.577 6.49672 16.486 6.5344C16.395 6.57209 16.3123 6.62734 16.2427 6.69698C16.173 6.76662 16.1178 6.8493 16.0801 6.94029C16.0424 7.03129 16.023 7.12882 16.023 7.22731C16.023 7.3258 16.0424 7.42333 16.0801 7.51433C16.1178 7.60533 16.173 7.68801 16.2426 7.75766C16.8005 8.31443 17.243 8.97575 17.545 9.70375C17.8469 10.4318 18.0024 11.2122 18.0024 12.0003C18.0024 12.7884 17.8469 13.5689 17.545 14.2969C17.243 15.0249 16.8005 15.6862 16.2426 16.243C16.102 16.3836 16.023 16.5744 16.023 16.7733C16.023 16.9722 16.102 17.163 16.2427 17.3036C16.3834 17.4443 16.5741 17.5233 16.773 17.5233C16.972 17.5233 17.1627 17.4443 17.3034 17.3036C18.0007 16.6078 18.5538 15.7812 18.9307 14.8711C19.3077 13.961 19.5012 12.9854 19.5 12.0003ZM3.01593 15.7952C2.25994 14.008 2.05497 12.0357 2.4273 10.1313C2.79963 8.22678 3.7323 6.47692 5.10571 5.10602C5.24619 4.96532 5.32506 4.7746 5.32498 4.57578C5.3249 4.37696 5.24587 4.18631 5.10528 4.04573C4.96469 3.90514 4.77403 3.82614 4.5752 3.82607C4.37638 3.82601 4.18567 3.90489 4.04499 4.04538C2.99928 5.08945 2.16969 6.32945 1.60367 7.69444C1.03765 9.05942 0.746307 10.5226 0.746307 12.0003C0.746307 13.478 1.03765 14.9412 1.60367 16.3062C2.16969 17.6712 2.99928 18.9112 4.04499 19.9552C4.11463 20.0249 4.19731 20.0801 4.2883 20.1178C4.3793 20.1555 4.47682 20.1749 4.57532 20.1749C4.67381 20.1749 4.77134 20.1555 4.86234 20.1179C4.95334 20.0802 5.03602 20.0249 5.10567 19.9553C5.17532 19.8856 5.23057 19.803 5.26826 19.712C5.30596 19.621 5.32536 19.5234 5.32537 19.4249C5.32537 19.3265 5.30598 19.2289 5.26829 19.1379C5.2306 19.0469 5.17536 18.9642 5.10572 18.8946C4.2151 18.0065 3.50538 16.9539 3.01593 15.7952ZM22.3656 7.62107C21.801 6.2844 20.9824 5.07005 19.955 4.04538C19.8854 3.97573 19.8027 3.92048 19.7117 3.88279C19.6207 3.84509 19.5232 3.82569 19.4247 3.82568C19.3262 3.82568 19.2287 3.84507 19.1377 3.88276C19.0467 3.92045 18.964 3.97569 18.8943 4.04534C18.8247 4.11498 18.7694 4.19766 18.7317 4.28865C18.694 4.37965 18.6746 4.47717 18.6746 4.57567C18.6746 4.67416 18.694 4.77169 18.7317 4.86269C18.7694 4.95369 18.8246 5.03637 18.8943 5.10602C19.8007 6.01079 20.5198 7.08543 21.0105 8.26844C21.5011 9.45144 21.7537 10.7196 21.7537 12.0003C21.7537 13.281 21.5011 14.5492 21.0105 15.7322C20.5198 16.9152 19.8007 17.9898 18.8943 18.8946C18.7536 19.0353 18.6746 19.226 18.6746 19.4249C18.6746 19.6239 18.7537 19.8146 18.8943 19.9553C19.035 20.0959 19.2258 20.1749 19.4247 20.1749C19.6236 20.1749 19.8144 20.0959 19.955 19.9552C21.5372 18.3717 22.6115 16.3526 23.0409 14.1557C23.4703 11.9588 23.2352 9.68375 22.3656 7.62107Z" fill="#1D1F21" style="fill: var(--ui-icon-primary-color);"/>
</svg>
