<svg  viewBox="0 0 24 24" fill="none" xmlns="http://www.w3.org/2000/svg" id="__THIS_ID_NEEDS_FOR_UI_ICON_COMPONENT__">
<path d="M3.69136 1.74528C3.55756 1.59809 3.37076 1.51008 3.17207 1.50061C2.97338 1.49114 2.77906 1.56099 2.63187 1.69479C2.48467 1.82859 2.39666 2.01539 2.38719 2.21408C2.37772 2.41277 2.44757 2.60709 2.58138 2.75428L4.85001 5.24978H4.49995C3.90343 5.25046 3.33153 5.48774 2.90972 5.90955C2.48791 6.33135 2.25064 6.90325 2.24995 7.49978V17.9998C2.25064 18.5963 2.48791 19.1682 2.90972 19.59C3.33153 20.0118 3.90343 20.2491 4.49995 20.2498H18.4864L20.3086 22.2543C20.4424 22.4015 20.6292 22.4895 20.8279 22.499C21.0266 22.5084 21.2209 22.4386 21.3681 22.3048C21.5153 22.171 21.6033 21.9842 21.6128 21.7855C21.6223 21.5868 21.5524 21.3925 21.4186 21.2453L3.69136 1.74528ZM12 15.7498C11.3613 15.7503 10.7356 15.5694 10.1957 15.2282C9.65584 14.8869 9.22394 14.3994 8.95028 13.8224C8.67661 13.2453 8.57244 12.6024 8.64988 11.9684C8.72732 11.3344 8.9832 10.7355 9.38773 10.2412L13.8771 15.1796C13.3221 15.5523 12.6685 15.7508 12 15.7498ZM21.75 7.49978V17.44C21.75 17.5914 21.7042 17.7392 21.6186 17.8641C21.533 17.9889 21.4116 18.085 21.2704 18.1396C21.1292 18.1942 20.9748 18.2047 20.8275 18.1699C20.6801 18.1351 20.5468 18.0565 20.445 17.9445L8.25618 4.53677C8.1437 4.41301 8.0758 4.25521 8.06328 4.08845C8.05075 3.92168 8.09432 3.75551 8.18706 3.61634L8.37529 3.33386C8.44377 3.23109 8.53657 3.14683 8.64545 3.08855C8.75433 3.03027 8.87591 2.99978 8.9994 2.99978H14.9994C15.1229 2.99978 15.2444 3.03026 15.3533 3.08853C15.4622 3.14679 15.5549 3.23103 15.6234 3.33377L16.9008 5.24978H19.5C20.0965 5.25046 20.6684 5.48774 21.0902 5.90955C21.512 6.33135 21.7493 6.90325 21.75 7.49978Z" fill="#1D1F21" style="fill: var(--ui-icon-primary-color);"/>
</svg>
