<svg  viewBox="0 0 24 24" fill="none" xmlns="http://www.w3.org/2000/svg" id="__THIS_ID_NEEDS_FOR_UI_ICON_COMPONENT__">
<path d="M12 2.25C10.0716 2.25 8.18653 2.82183 6.58315 3.89317C4.97977 4.96451 3.73009 6.48726 2.99213 8.26884C2.25418 10.0504 2.0611 12.0108 2.4373 13.9021C2.81351 15.7934 3.74211 17.5307 5.10567 18.8943C6.46923 20.2579 8.20651 21.1865 10.0978 21.5627C11.9891 21.9389 13.9495 21.7458 15.7311 21.0078C17.5127 20.2699 19.0354 19.0202 20.1068 17.4168C21.1781 15.8134 21.75 13.9284 21.75 12C21.747 9.41506 20.7188 6.93684 18.8909 5.10901C17.0631 3.28118 14.5849 2.25299 12 2.25ZM14.0017 14.8176C14.0749 14.8835 14.1345 14.9632 14.1769 15.052C14.2194 15.1409 14.2439 15.2373 14.2491 15.3357C14.2543 15.4341 14.2401 15.5325 14.2072 15.6254C14.1743 15.7182 14.1235 15.8037 14.0576 15.877C13.9917 15.9502 13.912 16.0097 13.8231 16.0521C13.7342 16.0945 13.6378 16.119 13.5394 16.1241C13.441 16.1293 13.3426 16.115 13.2498 16.0821C13.1569 16.0492 13.0714 15.9983 12.9982 15.9324L9.24825 12.5574C9.1701 12.4871 9.10761 12.4011 9.06484 12.3051C9.02206 12.2091 8.99996 12.1051 8.99996 12C8.99996 11.8949 9.02206 11.7909 9.06484 11.6949C9.10761 11.5989 9.1701 11.5129 9.24825 11.4426L12.9982 8.06763C13.0714 8.00169 13.1569 7.95081 13.2498 7.91791C13.3426 7.885 13.441 7.87071 13.5394 7.87586C13.6378 7.88101 13.7342 7.90549 13.8231 7.9479C13.912 7.99031 13.9917 8.04983 14.0576 8.12305C14.1235 8.19626 14.1743 8.28175 14.2072 8.37462C14.2401 8.46749 14.2543 8.56592 14.2491 8.6643C14.2439 8.76267 14.2194 8.85906 14.1769 8.94795C14.1345 9.03685 14.0749 9.1165 14.0017 9.18237L10.8713 12L14.0017 14.8176Z" fill="#1D1F21" style="fill: var(--ui-icon-primary-color);"/>
</svg>
