<svg  viewBox="0 0 24 24" fill="none" xmlns="http://www.w3.org/2000/svg" id="__THIS_ID_NEEDS_FOR_UI_ICON_COMPONENT__">
<path d="M20.1929 11.713C20.2496 11.85 20.2645 12.0008 20.2355 12.1463C20.2066 12.2918 20.1352 12.4254 20.0303 12.5303L12.5303 20.0304C12.3896 20.171 12.1989 20.25 12 20.25C11.8011 20.25 11.6103 20.171 11.4696 20.0304L3.96964 12.5303C3.86475 12.4254 3.79331 12.2918 3.76437 12.1463C3.73543 12.0008 3.75028 11.85 3.80704 11.713C3.86381 11.5759 3.95994 11.4588 4.08328 11.3764C4.20662 11.294 4.35162 11.25 4.49996 11.25H10.1893L3.96964 5.03032C3.86475 4.92543 3.79331 4.7918 3.76437 4.64631C3.73543 4.50083 3.75028 4.35002 3.80704 4.21298C3.86381 4.07593 3.95994 3.9588 4.08328 3.87639C4.20662 3.79398 4.35162 3.75 4.49996 3.75H19.5C19.6483 3.75 19.7933 3.79398 19.9166 3.87639C20.04 3.9588 20.1361 4.07593 20.1929 4.21298C20.2496 4.35002 20.2645 4.50083 20.2355 4.64631C20.2066 4.7918 20.1352 4.92543 20.0303 5.03032L13.8106 11.25H19.5C19.6483 11.25 19.7933 11.294 19.9166 11.3764C20.04 11.4588 20.1361 11.5759 20.1929 11.713Z" fill="#1D1F21" style="fill: var(--ui-icon-primary-color);"/>
</svg>
