<svg  viewBox="0 0 24 24" fill="none" xmlns="http://www.w3.org/2000/svg" id="__THIS_ID_NEEDS_FOR_UI_ICON_COMPONENT__">
<path d="M5.10572 5.10559C3.74365 6.46889 2.81634 8.2054 2.44102 10.0956C2.06569 11.9858 2.2592 13.9449 2.99708 15.7252C3.73496 17.5054 4.98408 19.027 6.58655 20.0975C8.18902 21.1679 10.0729 21.7393 12 21.7393C13.9271 21.7393 15.811 21.1679 17.4135 20.0975C19.0159 19.027 20.2651 17.5054 21.0029 15.7252C21.7408 13.9449 21.9343 11.9858 21.559 10.0956C21.1837 8.2054 20.2564 6.46889 18.8943 5.10559C17.0643 3.27993 14.5849 2.25464 12 2.25464C9.41508 2.25464 6.93569 3.27993 5.10572 5.10559ZM14.4697 12.9696C14.5393 12.8998 14.622 12.8445 14.713 12.8067C14.8041 12.7689 14.9016 12.7494 15.0002 12.7494C15.0987 12.7493 15.1963 12.7687 15.2874 12.8064C15.3784 12.8441 15.4612 12.8994 15.5308 12.969C15.6005 13.0387 15.6558 13.1215 15.6935 13.2125C15.7312 13.3036 15.7505 13.4012 15.7505 13.4997C15.7504 13.5983 15.731 13.6958 15.6932 13.7868C15.6554 13.8779 15.6 13.9605 15.5303 14.0302L12.5303 17.0302C12.4607 17.0998 12.378 17.1551 12.287 17.1928C12.196 17.2305 12.0985 17.2499 12 17.2499C11.9015 17.2499 11.804 17.2305 11.713 17.1928C11.622 17.1551 11.5394 17.0998 11.4697 17.0302L8.46973 14.0302C8.32934 13.8895 8.25054 13.6988 8.25065 13.5C8.25076 13.3013 8.32976 13.1107 8.4703 12.9702C8.61084 12.8296 8.80142 12.7506 9.00017 12.7505C9.19892 12.7504 9.38959 12.8292 9.53028 12.9696L12 15.4393L14.4697 12.9696ZM14.4697 7.7196C14.5393 7.64985 14.622 7.59449 14.713 7.55671C14.8041 7.51892 14.9016 7.49945 15.0002 7.49939C15.0987 7.49934 15.1963 7.51871 15.2874 7.5564C15.3784 7.59409 15.4612 7.64936 15.5308 7.71904C15.6005 7.78872 15.6558 7.87146 15.6935 7.96252C15.7312 8.05357 15.7505 8.15116 15.7505 8.24971C15.7504 8.34826 15.731 8.44583 15.6932 8.53685C15.6554 8.62786 15.6 8.71054 15.5303 8.78015L12.5303 11.7802C12.4607 11.8498 12.378 11.9051 12.287 11.9428C12.196 11.9805 12.0985 11.9999 12 11.9999C11.9015 11.9999 11.804 11.9805 11.713 11.9428C11.622 11.9051 11.5394 11.8498 11.4697 11.7802L8.46973 8.78015C8.32934 8.63946 8.25054 8.4488 8.25065 8.25004C8.25076 8.05129 8.32976 7.86071 8.4703 7.72017C8.61084 7.57963 8.80142 7.50063 9.00017 7.50052C9.19892 7.50042 9.38959 7.57921 9.53028 7.7196L12 10.1893L14.4697 7.7196Z" fill="#1D1F21" style="fill: var(--ui-icon-primary-color);"/>
</svg>
