<svg  viewBox="0 0 24 24" fill="none" xmlns="http://www.w3.org/2000/svg" id="__THIS_ID_NEEDS_FOR_UI_ICON_COMPONENT__">
<path d="M20.25 9H16.5V5.25C16.5 5.15151 16.4806 5.05398 16.4429 4.96298C16.4052 4.87199 16.35 4.78931 16.2803 4.71966C16.2107 4.65002 16.128 4.59477 16.037 4.55708C15.946 4.51939 15.8485 4.5 15.75 4.5H4.5V3.75C4.5 3.55109 4.42098 3.36032 4.28033 3.21967C4.13968 3.07902 3.94891 3 3.75 3C3.55109 3 3.36032 3.07902 3.21967 3.21967C3.07902 3.36032 3 3.55109 3 3.75V20.25C3 20.4489 3.07902 20.6397 3.21967 20.7803C3.36032 20.921 3.55109 21 3.75 21C3.94891 21 4.13968 20.921 4.28033 20.7803C4.42098 20.6397 4.5 20.4489 4.5 20.25V19.5H12.75C12.8485 19.5 12.946 19.4806 13.037 19.4429C13.128 19.4052 13.2107 19.35 13.2803 19.2803C13.35 19.2107 13.4052 19.128 13.4429 19.037C13.4806 18.946 13.5 18.8485 13.5 18.75V15H20.25C20.3485 15 20.446 14.9806 20.537 14.9429C20.628 14.9052 20.7107 14.85 20.7803 14.7803C20.85 14.7107 20.9052 14.628 20.9429 14.537C20.9806 14.446 21 14.3485 21 14.25V9.75C21 9.65151 20.9806 9.55398 20.9429 9.46298C20.9052 9.37199 20.85 9.28931 20.7803 9.21966C20.7107 9.15002 20.628 9.09477 20.537 9.05708C20.446 9.01939 20.3485 9 20.25 9ZM15 6V9H4.5V6H15ZM12 18H4.5V15H12V18Z" fill="#1D1F21" style="fill: var(--ui-icon-primary-color);"/>
</svg>
