<svg  viewBox="0 0 24 24" fill="none" xmlns="http://www.w3.org/2000/svg" id="__THIS_ID_NEEDS_FOR_UI_ICON_COMPONENT__">
<path d="M21.75 19.5C21.7499 19.6989 21.6709 19.8897 21.5303 20.0303C21.3896 20.171 21.1989 20.25 21 20.25H2.99995C2.80104 20.25 2.61029 20.171 2.46963 20.0303C2.32898 19.8897 2.24996 19.6989 2.24995 19.5V4.5C2.24995 4.30109 2.32897 4.11032 2.46962 3.96967C2.61028 3.82902 2.80104 3.75 2.99995 3.75C3.19887 3.75 3.38963 3.82902 3.53028 3.96967C3.67094 4.11032 3.74995 4.30109 3.74995 4.5V14.6895L8.46986 9.96964C8.61053 9.82899 8.80131 9.74998 9.00023 9.74998C9.19915 9.74998 9.38992 9.82899 9.53059 9.96964L12.0002 12.4394L17.6895 6.75H15.7502C15.5513 6.75 15.3606 6.67098 15.2199 6.53033C15.0793 6.38968 15.0002 6.19891 15.0002 6C15.0002 5.80109 15.0793 5.61032 15.2199 5.46967C15.3606 5.32902 15.5513 5.25 15.7502 5.25H19.5002C19.525 5.25 19.5496 5.25133 19.5743 5.25375C19.5853 5.2548 19.596 5.25691 19.6069 5.25846C19.6203 5.26034 19.6336 5.2619 19.6468 5.26455C19.6592 5.26698 19.6713 5.27041 19.6834 5.27348C19.695 5.27636 19.7066 5.27893 19.718 5.28236C19.7299 5.28598 19.7415 5.29046 19.7531 5.29467C19.7645 5.29875 19.776 5.3025 19.7873 5.30717C19.798 5.31161 19.8084 5.31688 19.8189 5.32182C19.8306 5.32731 19.8425 5.33253 19.8539 5.33871C19.8637 5.34393 19.8729 5.34993 19.8825 5.35556C19.894 5.36242 19.9056 5.36892 19.9169 5.37648C19.927 5.38325 19.9365 5.3908 19.9463 5.39808C19.9562 5.40541 19.9662 5.41232 19.9758 5.42019C19.9913 5.43292 20.006 5.44656 20.0204 5.46043C20.0237 5.46363 20.0273 5.46638 20.0306 5.46963C20.0341 5.47316 20.037 5.47705 20.0405 5.48062C20.0541 5.49476 20.0675 5.50914 20.08 5.52433C20.0882 5.53427 20.0954 5.54475 20.103 5.55505C20.1099 5.56439 20.1172 5.5735 20.1237 5.5832C20.1315 5.59488 20.1383 5.60696 20.1454 5.61895C20.1508 5.62802 20.1564 5.63681 20.1614 5.6461C20.1679 5.65809 20.1733 5.67045 20.1791 5.68272C20.1838 5.69266 20.1887 5.70245 20.193 5.71266C20.1979 5.72451 20.2018 5.7366 20.2061 5.74859C20.2101 5.75972 20.2143 5.77061 20.2178 5.78197C20.2214 5.79405 20.2241 5.80632 20.2272 5.81854C20.2301 5.83007 20.2333 5.84143 20.2357 5.85315C20.2385 5.86739 20.2402 5.88176 20.2422 5.89609C20.2436 5.90597 20.2455 5.91572 20.2465 5.92575C20.249 5.95061 20.2502 5.97555 20.2502 6.00046V9.75C20.2502 9.94891 20.1712 10.1397 20.0306 10.2803C19.8899 10.421 19.6991 10.5 19.5002 10.5C19.3013 10.5 19.1105 10.421 18.9699 10.2803C18.8292 10.1397 18.7502 9.94891 18.7502 9.75V7.81073L12.5306 14.0304C12.3899 14.171 12.1991 14.25 12.0002 14.25C11.8013 14.25 11.6105 14.171 11.4699 14.0304L9.00023 11.5606L3.74995 16.811V18.75H21C21.1989 18.75 21.3896 18.829 21.5303 18.9697C21.6709 19.1103 21.7499 19.3011 21.75 19.5Z" fill="#1D1F21" style="fill: var(--ui-icon-primary-color);"/>
</svg>
