<svg  viewBox="0 0 24 24" fill="none" xmlns="http://www.w3.org/2000/svg" id="__THIS_ID_NEEDS_FOR_UI_ICON_COMPONENT__">
<path d="M20.2499 3.75H3.74999C3.3523 3.75045 2.97104 3.90864 2.68983 4.18984C2.40863 4.47105 2.25045 4.85231 2.24999 5.24999V17.2499C2.25045 17.6475 2.40863 18.0288 2.68983 18.31C2.97104 18.5912 3.3523 18.7494 3.74999 18.7498L9.32525 18.7499L10.7137 21.0639C10.847 21.286 11.0355 21.4698 11.2609 21.5975C11.4863 21.7251 11.7409 21.7921 12 21.7921C12.259 21.7921 12.5136 21.7251 12.739 21.5975C12.9644 21.4698 13.1529 21.286 13.2862 21.0639L14.6746 18.7499H20.2498C20.6475 18.7495 21.0288 18.5913 21.31 18.3101C21.5913 18.0289 21.7495 17.6476 21.7499 17.2499V5.24999C21.7495 4.85231 21.5913 4.47105 21.3101 4.18984C21.0289 3.90864 20.6476 3.75045 20.2499 3.75ZM14.9999 13.4999H8.99997C8.80105 13.4999 8.61029 13.4209 8.46964 13.2802C8.32899 13.1395 8.24997 12.9488 8.24997 12.7499C8.24997 12.551 8.32899 12.3602 8.46964 12.2195C8.61029 12.0789 8.80105 11.9999 8.99997 11.9999H14.9999C15.1989 11.9999 15.3896 12.0789 15.5303 12.2195C15.6709 12.3602 15.7499 12.551 15.7499 12.7499C15.7499 12.9488 15.6709 13.1395 15.5303 13.2802C15.3896 13.4209 15.1989 13.4999 14.9999 13.4999ZM14.9999 10.4999H8.99997C8.80105 10.4999 8.61029 10.4209 8.46964 10.2802C8.32899 10.1396 8.24997 9.94879 8.24997 9.74988C8.24997 9.55097 8.32899 9.36021 8.46964 9.21956C8.61029 9.0789 8.80105 8.99989 8.99997 8.99989H14.9999C15.1989 8.99989 15.3896 9.0789 15.5303 9.21956C15.6709 9.36021 15.7499 9.55097 15.7499 9.74988C15.7499 9.94879 15.6709 10.1396 15.5303 10.2802C15.3896 10.4209 15.1989 10.4999 14.9999 10.4999Z" fill="#1D1F21" style="fill: var(--ui-icon-primary-color);"/>
</svg>
