<svg  viewBox="0 0 24 24" fill="none" xmlns="http://www.w3.org/2000/svg" id="__THIS_ID_NEEDS_FOR_UI_ICON_COMPONENT__">
<path d="M21.7499 5.24999V17.2499C21.7494 17.6476 21.5913 18.0289 21.31 18.3101C21.0288 18.5913 20.6475 18.7495 20.2498 18.7499H14.6746L13.2862 21.0639C13.1529 21.286 12.9644 21.4698 12.739 21.5975C12.5136 21.7251 12.259 21.7921 11.9999 21.7921C11.7409 21.7921 11.4863 21.7251 11.2609 21.5975C11.0355 21.4698 10.847 21.286 10.7137 21.0639L9.32524 18.7499L3.74998 18.7498C3.3523 18.7494 2.97103 18.5912 2.68983 18.31C2.40862 18.0288 2.25044 17.6475 2.24998 17.2499V5.24999C2.25044 4.85231 2.40862 4.47105 2.68983 4.18984C2.97103 3.90864 3.3523 3.75045 3.74998 3.75H20.2499C20.6476 3.75045 21.0289 3.90864 21.3101 4.18984C21.5913 4.47105 21.7495 4.85231 21.7499 5.24999Z" fill="#1D1F21" style="fill: var(--ui-icon-primary-color);"/>
</svg>
