<svg  viewBox="0 0 24 24" fill="none" xmlns="http://www.w3.org/2000/svg" id="__THIS_ID_NEEDS_FOR_UI_ICON_COMPONENT__">
<path d="M12.0002 2.25073C10.3067 2.25103 8.64256 2.69231 7.17147 3.53113C5.70038 4.36996 4.47309 5.57741 3.61041 7.03464C2.74772 8.49186 2.27938 10.1486 2.25149 11.8418C2.2236 13.535 2.63712 15.2063 3.45134 16.6912L2.64934 19.4949C2.57565 19.7521 2.57214 20.0244 2.63917 20.2835C2.70621 20.5425 2.84135 20.7789 3.03056 20.9681C3.21978 21.1574 3.45618 21.2925 3.71524 21.3595C3.9743 21.4266 4.24658 21.4231 4.50383 21.3494L7.30827 20.5496C8.6116 21.2648 10.0612 21.6726 11.5463 21.7417C13.0314 21.8108 14.5126 21.5393 15.8767 20.9482C17.2408 20.357 18.4516 19.4618 19.4167 18.3309C20.3817 17.2 21.0754 15.8634 21.4446 14.4233C21.8139 12.9832 21.8489 11.4777 21.5471 10.022C21.2453 8.56623 20.6146 7.19879 19.7033 6.02419C18.7919 4.84959 17.624 3.89894 16.2889 3.24493C14.9538 2.59091 13.4869 2.25084 12.0002 2.25073H12.0002ZM7.50007 13.125C7.27757 13.125 7.06006 13.059 6.87506 12.9354C6.69005 12.8118 6.54586 12.6361 6.46071 12.4305C6.37556 12.225 6.35328 11.9988 6.39669 11.7805C6.4401 11.5623 6.54724 11.3618 6.70458 11.2045C6.86191 11.0472 7.06237 10.94 7.2806 10.8966C7.49883 10.8532 7.72503 10.8755 7.93059 10.9606C8.13616 11.0458 8.31186 11.19 8.43548 11.375C8.55909 11.56 8.62507 11.7775 8.62507 12C8.62507 12.2984 8.50655 12.5845 8.29557 12.7955C8.08459 13.0065 7.79844 13.125 7.50007 13.125ZM12.0001 13.125C11.7776 13.125 11.5601 13.059 11.3751 12.9354C11.1901 12.8118 11.0459 12.6361 10.9607 12.4305C10.8756 12.225 10.8533 11.9988 10.8967 11.7805C10.9401 11.5623 11.0472 11.3618 11.2046 11.2045C11.3619 11.0472 11.5624 10.94 11.7806 10.8966C11.9988 10.8532 12.225 10.8755 12.4306 10.9606C12.6362 11.0458 12.8119 11.19 12.9355 11.375C13.0591 11.56 13.1251 11.7775 13.1251 12C13.1251 12.2984 13.0065 12.5845 12.7956 12.7955C12.5846 13.0065 12.2984 13.125 12.0001 13.125ZM16.5001 13.125C16.2776 13.125 16.0601 13.059 15.8751 12.9354C15.6901 12.8118 15.5459 12.6361 15.4607 12.4305C15.3756 12.225 15.3533 11.9988 15.3967 11.7805C15.4401 11.5623 15.5472 11.3618 15.7046 11.2045C15.8619 11.0472 16.0624 10.94 16.2806 10.8966C16.4988 10.8532 16.725 10.8755 16.9306 10.9606C17.1362 11.0458 17.3119 11.19 17.4355 11.375C17.5591 11.56 17.6251 11.7775 17.6251 12C17.6251 12.2984 17.5065 12.5845 17.2956 12.7955C17.0846 13.0065 16.7984 13.125 16.5001 13.125Z" fill="#1D1F21" style="fill: var(--ui-icon-primary-color);"/>
</svg>
