<svg  viewBox="0 0 24 24" fill="none" xmlns="http://www.w3.org/2000/svg" id="__THIS_ID_NEEDS_FOR_UI_ICON_COMPONENT__">
<path d="M19.5001 3H4.50014C4.10243 3.00039 3.72113 3.15855 3.43991 3.43977C3.15869 3.72099 3.00053 4.1023 3.00014 4.5V19.5C3.00053 19.8977 3.15869 20.279 3.43991 20.5602C3.72113 20.8414 4.10243 20.9996 4.50014 21H19.5001C19.8978 20.9996 20.2791 20.8414 20.5604 20.5602C20.8416 20.279 20.9997 19.8977 21.0001 19.5V4.5C20.9997 4.1023 20.8416 3.72099 20.5604 3.43977C20.2791 3.15855 19.8978 3.00039 19.5001 3ZM16.643 10.292L11.1425 15.542C11.0031 15.6755 10.8176 15.75 10.6246 15.75C10.4317 15.75 10.2462 15.6755 10.1068 15.542L7.35732 12.917C7.28594 12.849 7.22867 12.7677 7.18877 12.6776C7.14888 12.5875 7.12714 12.4904 7.12481 12.3918C7.12248 12.2933 7.13959 12.1953 7.17518 12.1034C7.21077 12.0115 7.26413 11.9275 7.3322 11.8563C7.40028 11.785 7.48174 11.7279 7.57192 11.6882C7.6621 11.6484 7.75923 11.6268 7.85776 11.6247C7.95628 11.6225 8.05426 11.6398 8.1461 11.6756C8.23794 11.7113 8.32182 11.7648 8.39296 11.833L10.6246 13.9629L15.6073 9.20801C15.6784 9.13981 15.7623 9.0863 15.8542 9.05056C15.946 9.01481 16.044 8.99752 16.1425 8.99968C16.241 9.00185 16.3382 9.02341 16.4284 9.06315C16.5185 9.10289 16.6 9.16002 16.6681 9.23128C16.7361 9.30253 16.7895 9.38651 16.8251 9.47841C16.8607 9.57031 16.8778 9.66832 16.8755 9.76684C16.8731 9.86536 16.8514 9.96246 16.8115 10.0526C16.7716 10.1427 16.7143 10.224 16.643 10.292H16.643Z" fill="#1D1F21" style="fill: var(--ui-icon-primary-color);"/>
</svg>
