<svg  viewBox="0 0 24 24" fill="none" xmlns="http://www.w3.org/2000/svg" id="__THIS_ID_NEEDS_FOR_UI_ICON_COMPONENT__">
<path d="M12.7499 7.4997V11.5667L16.272 13.6002C16.3573 13.6494 16.4321 13.715 16.4921 13.7931C16.552 13.8713 16.596 13.9605 16.6215 14.0556C16.647 14.1507 16.6535 14.2499 16.6406 14.3476C16.6278 14.4452 16.5958 14.5394 16.5466 14.6247C16.4973 14.71 16.4318 14.7848 16.3536 14.8447C16.2755 14.9047 16.1863 14.9487 16.0912 14.9741C15.996 14.9996 15.8968 15.0061 15.7992 14.9933C15.7015 14.9804 15.6073 14.9485 15.522 14.8992L11.6249 12.6492C11.6189 12.6458 11.6136 12.6417 11.6077 12.6381C11.595 12.6302 11.5823 12.6223 11.5701 12.6138C11.5604 12.607 11.5512 12.5998 11.5419 12.5927C11.5323 12.5853 11.5228 12.5779 11.5136 12.5701C11.5032 12.5612 11.4932 12.5519 11.4834 12.5426C11.476 12.5355 11.4686 12.5284 11.4615 12.5211C11.4514 12.5107 11.4419 12.5001 11.4326 12.4893C11.4261 12.4818 11.4197 12.4742 11.4134 12.4664C11.4048 12.4556 11.3966 12.4445 11.3887 12.4333C11.3824 12.4244 11.3762 12.4155 11.3703 12.4063C11.3635 12.3958 11.3571 12.3852 11.3509 12.3744C11.3447 12.3636 11.3387 12.3528 11.333 12.3418C11.328 12.332 11.3233 12.3221 11.3188 12.3122C11.3131 12.2997 11.3076 12.2872 11.3025 12.2744C11.2989 12.265 11.2955 12.2555 11.2922 12.246C11.2875 12.2327 11.2831 12.2192 11.2792 12.2055C11.2764 12.1955 11.2739 12.1854 11.2714 12.1753C11.2683 12.1622 11.2653 12.1492 11.2629 12.1359C11.2606 12.1238 11.259 12.1117 11.2573 12.0996C11.2558 12.0881 11.2542 12.0767 11.2532 12.0651C11.2519 12.05 11.2514 12.035 11.2509 12.0199C11.2507 12.0131 11.2499 12.0065 11.2499 11.9997V7.4997C11.2499 7.30079 11.3289 7.11002 11.4696 6.96937C11.6102 6.82872 11.801 6.7497 11.9999 6.7497C12.1988 6.7497 12.3896 6.82872 12.5303 6.96937C12.6709 7.11002 12.7499 7.30079 12.7499 7.4997ZM21.0155 4.84806C20.917 4.84806 20.8195 4.86745 20.7285 4.90514C20.6375 4.94283 20.5548 4.99808 20.4852 5.06772C20.4156 5.13737 20.3603 5.22005 20.3226 5.31104C20.2849 5.40204 20.2655 5.49957 20.2655 5.59806V7.5374L18.3638 5.63573C17.1054 4.37849 15.5025 3.52257 13.7577 3.17615C12.013 2.82972 10.2046 3.00836 8.56136 3.68948C6.91808 4.3706 5.51363 5.52362 4.52553 7.00278C3.53744 8.48195 3.01006 10.2209 3.01006 11.9997C3.01006 13.7785 3.53744 15.5175 4.52553 16.9966C5.51363 18.4758 6.91808 19.6288 8.56136 20.3099C10.2046 20.991 12.013 21.1697 13.7577 20.8233C15.5025 20.4768 17.1054 19.6209 18.3638 18.3637C18.5045 18.223 18.5835 18.0323 18.5835 17.8333C18.5835 17.6344 18.5045 17.4437 18.3638 17.303C18.2942 17.2334 18.2115 17.1781 18.1205 17.1405C18.0295 17.1028 17.932 17.0834 17.8335 17.0834C17.6346 17.0834 17.4439 17.1624 17.3032 17.303C16.2543 18.3519 14.9179 19.0662 13.4631 19.3556C12.0082 19.645 10.5002 19.4965 9.12978 18.9288C7.75934 18.3611 6.588 17.3998 5.76389 16.1665C4.93978 14.9331 4.49992 13.4831 4.49992 11.9997C4.49992 10.5163 4.93978 9.0663 5.76389 7.83293C6.588 6.59956 7.75934 5.63826 9.12978 5.0706C10.5002 4.50294 12.0082 4.35441 13.4631 4.6438C14.9179 4.93318 16.2543 5.64748 17.3032 6.69637L19.2049 8.59806H17.2655C17.0666 8.59806 16.8759 8.67708 16.7352 8.81773C16.5946 8.95838 16.5155 9.14915 16.5155 9.34806C16.5155 9.54697 16.5946 9.73774 16.7352 9.87839C16.8759 10.019 17.0666 10.0981 17.2655 10.0981H21.0153C21.0401 10.0981 21.0649 10.0968 21.0896 10.0943C21.1003 10.0933 21.1106 10.0913 21.1211 10.0898C21.1349 10.0878 21.1486 10.0862 21.1622 10.0835C21.1745 10.0811 21.1865 10.0777 21.1986 10.0746C21.2102 10.0717 21.2218 10.0692 21.2333 10.0657C21.2453 10.0621 21.2569 10.0575 21.2687 10.0533C21.28 10.0493 21.2914 10.0455 21.3026 10.0409C21.3136 10.0363 21.3242 10.031 21.335 10.0259C21.3464 10.0205 21.3579 10.0154 21.369 10.0095C21.3795 10.0038 21.3895 9.99744 21.3997 9.99134C21.4104 9.9849 21.4213 9.97882 21.4319 9.97179C21.4433 9.96412 21.4541 9.9556 21.4651 9.94734C21.4737 9.94091 21.4825 9.93498 21.4908 9.92813C21.5291 9.89671 21.5642 9.8616 21.5956 9.82331C21.6023 9.81515 21.6082 9.80652 21.6144 9.79814C21.6229 9.78697 21.6315 9.77599 21.6393 9.76434C21.6462 9.75399 21.6522 9.74324 21.6586 9.73263C21.6648 9.72228 21.6713 9.71215 21.677 9.70149C21.6828 9.69054 21.6878 9.67929 21.6931 9.66812C21.6983 9.65709 21.7038 9.64624 21.7085 9.63492C21.7129 9.62411 21.7165 9.61308 21.7204 9.60211C21.7248 9.59002 21.7295 9.57806 21.7332 9.56568C21.7366 9.55463 21.739 9.54341 21.7418 9.53225C21.745 9.51972 21.7485 9.50733 21.751 9.49456C21.7536 9.48165 21.7551 9.46861 21.757 9.45561C21.7586 9.4444 21.7607 9.43336 21.7618 9.422C21.7642 9.39741 21.7655 9.37274 21.7655 9.34806V5.59806C21.7655 5.49957 21.7461 5.40204 21.7084 5.31104C21.6708 5.22005 21.6155 5.13737 21.5459 5.06772C21.4762 4.99808 21.3935 4.94283 21.3025 4.90514C21.2116 4.86745 21.114 4.84806 21.0155 4.84806Z" fill="#1D1F21" style="fill: var(--ui-icon-primary-color);"/>
</svg>
