<svg  viewBox="0 0 24 24" fill="none" xmlns="http://www.w3.org/2000/svg" id="__THIS_ID_NEEDS_FOR_UI_ICON_COMPONENT__">
<path d="M23.25 12C23.2475 14.1873 22.3775 16.2843 20.8309 17.8309C19.2842 19.3775 17.1873 20.2475 15 20.25H6.74997C5.22568 20.2502 3.75847 19.6702 2.64637 18.6277C1.53428 17.5853 0.860695 16.1586 0.762452 14.6375C0.664208 13.1163 1.14867 11.6149 2.11743 10.438C3.08619 9.26116 4.4666 8.4972 5.97825 8.30132C5.4955 9.47463 5.2477 10.7313 5.24887 12C5.24887 12.1989 5.32789 12.3897 5.46854 12.5303C5.6092 12.671 5.79996 12.75 5.99887 12.75C6.19779 12.75 6.38855 12.671 6.5292 12.5303C6.66986 12.3897 6.74887 12.1989 6.74887 12C6.74748 10.7198 7.04586 9.45704 7.62014 8.31286L7.62064 8.3129C8.45124 6.65017 9.81902 5.31665 11.5023 4.52847C13.1855 3.74029 15.0857 3.54364 16.8947 3.9704C18.7037 4.39716 20.3155 5.42232 21.469 6.87972C22.6226 8.33712 23.2501 10.1414 23.25 12Z" fill="#1D1F21" style="fill: var(--ui-icon-primary-color);"/>
</svg>
