<svg  viewBox="0 0 24 24" fill="none" xmlns="http://www.w3.org/2000/svg" id="__THIS_ID_NEEDS_FOR_UI_ICON_COMPONENT__">
<path d="M6.48016 8.82652L2.67156 12.0004L6.48016 15.1742C6.556 15.2372 6.61867 15.3146 6.6646 15.4018C6.71052 15.489 6.7388 15.5845 6.7478 15.6827C6.7568 15.7809 6.74636 15.8798 6.71706 15.974C6.68777 16.0681 6.6402 16.1556 6.57708 16.2313C6.51397 16.307 6.43653 16.3696 6.34922 16.4154C6.2619 16.4612 6.16641 16.4893 6.06822 16.4981C5.97002 16.507 5.87105 16.4964 5.77695 16.4669C5.68286 16.4375 5.5955 16.3898 5.51986 16.3265L1.01986 12.5765C0.935402 12.5061 0.867449 12.418 0.820817 12.3185C0.774184 12.2189 0.750011 12.1103 0.750011 12.0004C0.750011 11.8904 0.774184 11.7818 0.820817 11.6823C0.867449 11.5827 0.935402 11.4946 1.01986 11.4242L5.51986 7.67424C5.5955 7.61099 5.68286 7.56328 5.77695 7.53384C5.87105 7.50439 5.97002 7.49379 6.06822 7.50263C6.16641 7.51148 6.2619 7.53959 6.34922 7.58538C6.43653 7.63116 6.51397 7.69371 6.57708 7.76945C6.6402 7.84519 6.68777 7.93263 6.71706 8.02677C6.74636 8.12091 6.7568 8.2199 6.7478 8.31808C6.7388 8.41626 6.71052 8.5117 6.6646 8.59895C6.61867 8.68619 6.556 8.76352 6.48016 8.82652V8.82652ZM22.9802 11.4242L18.4802 7.67424C18.4045 7.61099 18.3172 7.56329 18.2231 7.53384C18.129 7.5044 18.03 7.49379 17.9318 7.50264C17.8336 7.51148 17.7381 7.5396 17.6508 7.58538C17.5635 7.63116 17.4861 7.69371 17.4229 7.76945C17.3598 7.84519 17.3122 7.93263 17.283 8.02677C17.2537 8.12091 17.2432 8.2199 17.2522 8.31808C17.2612 8.41626 17.2895 8.5117 17.3354 8.59895C17.3813 8.68619 17.444 8.76352 17.5199 8.82652L21.3285 12.0004L17.5199 15.1742C17.444 15.2372 17.3813 15.3146 17.3354 15.4018C17.2895 15.489 17.2612 15.5845 17.2522 15.6827C17.2432 15.7809 17.2537 15.8798 17.283 15.974C17.3122 16.0681 17.3598 16.1556 17.4229 16.2313C17.4861 16.307 17.5635 16.3696 17.6508 16.4154C17.7381 16.4612 17.8336 16.4893 17.9318 16.4981C18.03 16.507 18.129 16.4964 18.2231 16.4669C18.3172 16.4375 18.4045 16.3898 18.4802 16.3265L22.9802 12.5765C23.0646 12.5061 23.1326 12.418 23.1792 12.3185C23.2258 12.2189 23.25 12.1103 23.25 12.0004C23.25 11.8904 23.2258 11.7818 23.1792 11.6823C23.1326 11.5827 23.0646 11.4946 22.9802 11.4242V11.4242ZM15.2563 3.04552C15.0694 2.97767 14.8631 2.98679 14.6829 3.07089C14.5027 3.15498 14.3632 3.30718 14.2951 3.49404L8.29515 19.994C8.26139 20.0866 8.24621 20.1849 8.25048 20.2834C8.25475 20.3819 8.27837 20.4785 8.32 20.5678C8.36164 20.6571 8.42047 20.7374 8.49313 20.8039C8.56578 20.8705 8.65085 20.9221 8.74346 20.9558C8.83607 20.9895 8.93441 21.0046 9.03286 21.0002C9.13131 20.9959 9.22794 20.9722 9.31722 20.9305C9.40651 20.8888 9.4867 20.8299 9.55322 20.7572C9.61973 20.6845 9.67127 20.5994 9.70487 20.5067L15.7049 4.00673C15.7728 3.81978 15.7638 3.61349 15.6797 3.43323C15.5955 3.25296 15.4433 3.1135 15.2563 3.04551V3.04552Z" fill="#1D1F21" style="fill: var(--ui-icon-primary-color);"/>
</svg>
