<svg  viewBox="0 0 24 24" fill="none" xmlns="http://www.w3.org/2000/svg" id="__THIS_ID_NEEDS_FOR_UI_ICON_COMPONENT__">
<path d="M12 1.875C9.99742 1.875 8.03985 2.46882 6.37481 3.58137C4.70976 4.69392 3.41201 6.27523 2.64567 8.12533C1.87934 9.97543 1.67883 12.0112 2.0695 13.9753C2.46018 15.9393 3.42449 17.7435 4.8405 19.1595C6.25651 20.5755 8.06061 21.5398 10.0247 21.9305C11.9887 22.3211 14.0245 22.1206 15.8746 21.3543C17.7247 20.5879 19.306 19.2902 20.4186 17.6251C21.5311 15.9601 22.125 14.0025 22.125 12C22.1219 9.31562 21.0542 6.74205 19.1561 4.8439C17.2579 2.94575 14.6843 1.87804 12 1.875ZM12 20.25C10.3683 20.25 8.77321 19.7661 7.4165 18.8596C6.05979 17.9531 5.00237 16.6646 4.37795 15.1571C3.75353 13.6496 3.59015 11.9908 3.90848 10.3905C4.2268 8.79016 5.01254 7.32015 6.16632 6.16637C7.32011 5.01259 8.79012 4.22685 10.3905 3.90852C11.9908 3.59019 13.6496 3.75357 15.1571 4.37799C16.6646 5.00242 17.9531 6.05984 18.8596 7.41655C19.7661 8.77325 20.25 10.3683 20.25 12C20.2475 14.1873 19.3775 16.2843 17.8309 17.8309C16.2842 19.3775 14.1872 20.2475 12 20.25ZM12 5.25C10.6649 5.25 9.35989 5.64588 8.24986 6.38758C7.13982 7.12928 6.27466 8.18349 5.76377 9.41689C5.25288 10.6503 5.1192 12.0075 5.37965 13.3169C5.6401 14.6262 6.28298 15.829 7.22698 16.773C8.17099 17.717 9.37372 18.3599 10.6831 18.6203C11.9925 18.8808 13.3497 18.7471 14.5831 18.2362C15.8165 17.7253 16.8707 16.8601 17.6124 15.7501C18.3541 14.6401 18.75 13.335 18.75 12C18.7479 10.2104 18.0361 8.49469 16.7707 7.22926C15.5053 5.96382 13.7895 5.25202 12 5.25ZM12.0002 14.9995C12.4663 15.0013 12.9263 14.8937 13.3432 14.6852C13.7601 14.4768 14.1222 14.1735 14.4005 13.7996C14.5202 13.6413 14.6979 13.537 14.8944 13.5095C15.0909 13.482 15.2904 13.5334 15.449 13.6527C15.6077 13.7719 15.7126 13.9491 15.7408 14.1455C15.769 14.342 15.7183 14.5416 15.5996 14.7007C15.0328 15.456 14.2427 16.0138 13.3412 16.2951C12.4398 16.5765 11.4726 16.5671 10.5768 16.2683C9.68097 15.9696 8.90183 15.3965 8.34973 14.6304C7.79763 13.8643 7.50054 12.9439 7.50054 11.9995C7.50054 11.0552 7.79763 10.1348 8.34973 9.36863C8.90183 8.6025 9.68097 8.02947 10.5768 7.7307C11.4726 7.43192 12.4398 7.42255 13.3412 7.70391C14.2427 7.98526 15.0328 8.54308 15.5996 9.29837C15.7183 9.45744 15.769 9.65705 15.7408 9.85347C15.7125 10.0499 15.6076 10.2271 15.449 10.3463C15.2903 10.4655 15.0909 10.517 14.8944 10.4895C14.6979 10.462 14.5203 10.3577 14.4005 10.1995C14.0936 9.79036 13.6873 9.46646 13.2201 9.25853C12.7529 9.05061 12.2403 8.96556 11.731 9.01147C11.2217 9.05738 10.7326 9.23271 10.3101 9.52083C9.88756 9.80895 9.54572 10.2003 9.31701 10.6577C9.08829 11.1151 8.98029 11.6233 9.00326 12.1342C9.02623 12.6451 9.17941 13.1416 9.44824 13.5766C9.71708 14.0116 10.0927 14.3707 10.5393 14.6197C10.9859 14.8688 11.4888 14.9995 12.0002 14.9995Z" fill="#1D1F21" style="fill: var(--ui-icon-primary-color);"/>
</svg>
