<svg  viewBox="0 0 24 24" fill="none" xmlns="http://www.w3.org/2000/svg" id="__THIS_ID_NEEDS_FOR_UI_ICON_COMPONENT__">
<path d="M18.75 15.75C18.7487 16.9431 18.2741 18.0869 17.4305 18.9305C16.5869 19.7741 15.4431 20.2487 14.25 20.25H12.75V21.75C12.75 21.9489 12.671 22.1397 12.5303 22.2803C12.3897 22.421 12.1989 22.5 12 22.5C11.8011 22.5 11.6103 22.421 11.4697 22.2803C11.329 22.1397 11.25 21.9489 11.25 21.75V20.25H9.75C8.55694 20.2487 7.41312 19.7741 6.5695 18.9305C5.72588 18.0869 5.25134 16.9431 5.25 15.75C5.25 15.5511 5.32902 15.3603 5.46967 15.2197C5.61032 15.079 5.80109 15 6 15C6.19891 15 6.38968 15.079 6.53033 15.2197C6.67098 15.3603 6.75 15.5511 6.75 15.75C6.7509 16.5454 7.06726 17.3079 7.62968 17.8703C8.19209 18.4327 8.95463 18.7491 9.75 18.75H14.25C15.0456 18.75 15.8087 18.4339 16.3713 17.8713C16.9339 17.3087 17.25 16.5456 17.25 15.75C17.25 14.9544 16.9339 14.1913 16.3713 13.6287C15.8087 13.0661 15.0456 12.75 14.25 12.75H10.125C8.93153 12.75 7.78693 12.2759 6.94302 11.432C6.09911 10.5881 5.625 9.44347 5.625 8.25C5.625 7.05653 6.09911 5.91193 6.94302 5.06802C7.78693 4.22411 8.93153 3.75 10.125 3.75H11.25V2.25C11.25 2.05109 11.329 1.86032 11.4697 1.71967C11.6103 1.57902 11.8011 1.5 12 1.5C12.1989 1.5 12.3897 1.57902 12.5303 1.71967C12.671 1.86032 12.75 2.05109 12.75 2.25V3.75H13.5C14.6931 3.75134 15.8369 4.22588 16.6805 5.0695C17.5241 5.91312 17.9987 7.05694 18 8.25C18 8.44891 17.921 8.63968 17.7803 8.78033C17.6397 8.92098 17.4489 9 17.25 9C17.0511 9 16.8603 8.92098 16.7197 8.78033C16.579 8.63968 16.5 8.44891 16.5 8.25C16.4991 7.45463 16.1827 6.69209 15.6203 6.12968C15.0579 5.56726 14.2954 5.2509 13.5 5.25H10.125C9.32935 5.25 8.56629 5.56607 8.00368 6.12868C7.44107 6.69129 7.125 7.45435 7.125 8.25C7.125 9.04565 7.44107 9.80871 8.00368 10.3713C8.56629 10.9339 9.32935 11.25 10.125 11.25H14.25C15.4431 11.2513 16.5869 11.7259 17.4305 12.5695C18.2741 13.4131 18.7487 14.5569 18.75 15.75Z" fill="#1D1F21" style="fill: var(--ui-icon-primary-color);"/>
</svg>
