<svg  viewBox="0 0 24 24" fill="none" xmlns="http://www.w3.org/2000/svg" id="__THIS_ID_NEEDS_FOR_UI_ICON_COMPONENT__">
<path d="M19.3305 4.97472L13.5827 11.9998H16.5C16.6989 11.9998 16.8897 12.0788 17.0304 12.2195C17.171 12.3601 17.25 12.5509 17.25 12.7498C17.25 12.9487 17.171 13.1395 17.0304 13.2801C16.8897 13.4208 16.6989 13.4998 16.5 13.4998H12.75V14.9998H16.5C16.6989 14.9998 16.8897 15.0788 17.0304 15.2195C17.171 15.3601 17.25 15.5509 17.25 15.7498C17.25 15.9487 17.171 16.1395 17.0304 16.2801C16.8897 16.4208 16.6989 16.4998 16.5 16.4998H12.75V20.2498C12.75 20.4487 12.671 20.6395 12.5304 20.7801C12.3897 20.9208 12.1989 20.9998 12 20.9998C11.8011 20.9998 11.6104 20.9208 11.4697 20.7801C11.329 20.6395 11.25 20.4487 11.25 20.2498V16.4998H7.50003C7.30112 16.4998 7.11035 16.4208 6.9697 16.2801C6.82905 16.1395 6.75003 15.9487 6.75003 15.7498C6.75003 15.5509 6.82905 15.3601 6.9697 15.2195C7.11035 15.0788 7.30112 14.9998 7.50003 14.9998H11.25V13.4998H7.50003C7.30112 13.4998 7.11035 13.4208 6.9697 13.2801C6.82905 13.1395 6.75003 12.9487 6.75003 12.7498C6.75003 12.5509 6.82905 12.3601 6.9697 12.2195C7.11035 12.0788 7.30112 11.9998 7.50003 11.9998H10.4174L4.66958 4.97472C4.60716 4.8985 4.56036 4.81073 4.53186 4.71642C4.50336 4.62211 4.49373 4.52311 4.5035 4.42508C4.51328 4.32704 4.54228 4.23189 4.58883 4.14507C4.63539 4.05824 4.6986 3.98144 4.77485 3.91905C4.8511 3.85666 4.9389 3.80991 5.03322 3.78146C5.12755 3.75301 5.22656 3.74343 5.32459 3.75325C5.42262 3.76308 5.51775 3.79212 5.60455 3.83873C5.69135 3.88533 5.76812 3.94858 5.83047 4.02486L12 11.5654L18.1696 4.02486C18.2319 3.94858 18.3087 3.88533 18.3955 3.83873C18.4823 3.79212 18.5774 3.76308 18.6755 3.75325C18.7735 3.74343 18.8725 3.75301 18.9668 3.78146C19.0612 3.80991 19.149 3.85666 19.2252 3.91905C19.3015 3.98144 19.3647 4.05824 19.4112 4.14507C19.4578 4.23189 19.4868 4.32704 19.4966 4.42508C19.5063 4.52311 19.4967 4.62211 19.4682 4.71642C19.4397 4.81073 19.3929 4.8985 19.3305 4.97472Z" fill="#1D1F21" style="fill: var(--ui-icon-primary-color);"/>
</svg>
