<svg  viewBox="0 0 24 24" fill="none" xmlns="http://www.w3.org/2000/svg" id="__THIS_ID_NEEDS_FOR_UI_ICON_COMPONENT__">
<path d="M18 2.25H6C5.40347 2.25068 4.83157 2.48795 4.40976 2.90976C3.98795 3.33157 3.75068 3.90347 3.75 4.5V19.5C3.75068 20.0965 3.98795 20.6684 4.40976 21.0902C4.83157 21.512 5.40347 21.7493 6 21.75H18C18.5965 21.7493 19.1684 21.512 19.5902 21.0902C20.012 20.6684 20.2493 20.0965 20.25 19.5V4.5C20.2493 3.90347 20.012 3.33157 19.5902 2.90976C19.1684 2.48795 18.5965 2.25068 18 2.25ZM12 7.5C11.7775 7.5 11.56 7.43402 11.375 7.3104C11.19 7.18679 11.0458 7.01109 10.9606 6.80552C10.8755 6.59995 10.8532 6.37375 10.8966 6.15552C10.94 5.93729 11.0472 5.73684 11.2045 5.5795C11.3618 5.42217 11.5623 5.31502 11.7805 5.27162C11.9988 5.22821 12.225 5.25049 12.4305 5.33564C12.6361 5.42078 12.8118 5.56498 12.9354 5.74998C13.059 5.93499 13.125 6.1525 13.125 6.375C13.125 6.67337 13.0065 6.95952 12.7955 7.1705C12.5845 7.38147 12.2984 7.5 12 7.5Z" fill="#1D1F21" style="fill: var(--ui-icon-primary-color);"/>
</svg>
