<svg  viewBox="0 0 24 24" fill="none" xmlns="http://www.w3.org/2000/svg" id="__THIS_ID_NEEDS_FOR_UI_ICON_COMPONENT__">
<path d="M23.1854 11.6952C23.1524 11.6211 22.3586 9.85989 20.5929 8.09412C18.2412 5.74222 15.2698 4.49902 12 4.49902C8.7302 4.49902 5.75877 5.74222 3.40714 8.09412C1.64145 9.8599 0.847603 11.6211 0.814644 11.6952C0.772042 11.7911 0.750031 11.8948 0.750031 11.9998C0.750031 12.1047 0.772042 12.2085 0.814644 12.3044C0.847603 12.3785 1.64155 14.1393 3.40723 15.9048C5.75886 18.2561 8.7302 19.499 12 19.499C15.2698 19.499 18.2412 18.2561 20.5928 15.9048C22.3585 14.1393 23.1524 12.3785 23.1854 12.3044C23.228 12.2085 23.25 12.1047 23.25 11.9998C23.25 11.8948 23.228 11.7911 23.1854 11.6952ZM12 8.62485C12.6675 8.62485 13.32 8.82279 13.8751 9.19364C14.4301 9.56449 14.8627 10.0916 15.1181 10.7083C15.3735 11.325 15.4404 12.0036 15.3102 12.6583C15.1799 13.313 14.8585 13.9143 14.3865 14.3863C13.9145 14.8583 13.3131 15.1798 12.6584 15.31C12.0038 15.4402 11.3252 15.3734 10.7085 15.1179C10.0918 14.8625 9.56465 14.4299 9.1938 13.8749C8.82295 13.3199 8.62501 12.6674 8.62501 11.9998C8.62602 11.1051 8.98192 10.2472 9.61464 9.61448C10.2474 8.98176 11.1052 8.62585 12 8.62485Z" fill="#1D1F21" style="fill: var(--ui-icon-primary-color);"/>
</svg>
