<svg  viewBox="0 0 24 24" fill="none" xmlns="http://www.w3.org/2000/svg" id="__THIS_ID_NEEDS_FOR_UI_ICON_COMPONENT__">
<path d="M21 6.75016H20.9033C20.8273 6.54729 20.7084 6.36324 20.5546 6.2106C20.4009 6.05797 20.216 5.94035 20.0126 5.86581L12.5126 3.1385C12.1814 3.01829 11.8186 3.01829 11.4874 3.1385L3.98739 5.86576C3.78398 5.94031 3.59908 6.05794 3.44535 6.21058C3.29162 6.36323 3.17268 6.54728 3.09668 6.75016H3C2.20463 6.75106 1.44209 7.06742 0.879676 7.62984C0.317262 8.19225 0.000901958 8.95479 0 9.75016L0 12.0002C0.000901958 12.7955 0.317262 13.5581 0.879676 14.1205C1.44209 14.6829 2.20463 14.9993 3 15.0002H3.4872C4.10229 16.3484 5.29239 17.5313 7.01518 18.4884C8.98604 19.5832 11.0956 20.0784 11.6951 20.204C11.8961 20.2465 12.1038 20.2465 12.3048 20.204C12.9044 20.0784 15.014 19.5832 16.9848 18.4884C18.7076 17.5313 19.8977 16.3484 20.5128 15.0002H21C21.7954 14.9993 22.5579 14.6829 23.1203 14.1205C23.6827 13.5581 23.9991 12.7955 24 12.0002V9.75016C23.9991 8.95479 23.6827 8.19225 23.1203 7.62984C22.5579 7.06742 21.7954 6.75106 21 6.75016ZM3 13.5002C2.60231 13.4997 2.22105 13.3415 1.93984 13.0603C1.65864 12.7791 1.50045 12.3978 1.5 12.0002V9.75016C1.50045 9.35248 1.65864 8.97121 1.93984 8.69C2.22105 8.4088 2.60231 8.25062 3 8.25016V12.7502C3.00015 13.001 3.01746 13.2516 3.05182 13.5002H3ZM15.75 14.2502H8.25C8.05109 14.2502 7.86032 14.1711 7.71967 14.0305C7.57902 13.8898 7.5 13.6991 7.5 13.5002C7.5 13.3012 7.57902 13.1105 7.71967 12.9698C7.86032 12.8292 8.05109 12.7502 8.25 12.7502H15.75C15.9489 12.7502 16.1397 12.8292 16.2803 12.9698C16.421 13.1105 16.5 13.3012 16.5 13.5002C16.5 13.6991 16.421 13.8898 16.2803 14.0305C16.1397 14.1711 15.9489 14.2502 15.75 14.2502ZM15.75 11.2502H8.25C8.05109 11.2502 7.86032 11.1711 7.71967 11.0305C7.57902 10.8898 7.5 10.6991 7.5 10.5002C7.5 10.3012 7.57902 10.1105 7.71967 9.96983C7.86032 9.82918 8.05109 9.75016 8.25 9.75016H15.75C15.9489 9.75016 16.1397 9.82918 16.2803 9.96983C16.421 10.1105 16.5 10.3012 16.5 10.5002C16.5 10.6991 16.421 10.8898 16.2803 11.0305C16.1397 11.1711 15.9489 11.2502 15.75 11.2502ZM22.5 12.0002C22.4995 12.3978 22.3414 12.7791 22.0602 13.0603C21.779 13.3415 21.3977 13.4997 21 13.5002H20.9482C20.9825 13.2516 20.9999 13.001 21 12.7502V8.25016C21.3977 8.25062 21.779 8.4088 22.0602 8.69C22.3414 8.97121 22.4995 9.35248 22.5 9.75016V12.0002Z" fill="#1D1F21" style="fill: var(--ui-icon-primary-color);"/>
</svg>
