<svg  viewBox="0 0 24 24" fill="none" xmlns="http://www.w3.org/2000/svg" id="__THIS_ID_NEEDS_FOR_UI_ICON_COMPONENT__">
<path d="M13.4999 16.1245C13.4999 16.3234 13.4208 16.5142 13.2802 16.6548C13.1395 16.7955 12.9488 16.8745 12.7499 16.8745H3.74988C3.55097 16.8745 3.3602 16.7955 3.21955 16.6548C3.0789 16.5142 2.99988 16.3234 2.99988 16.1245C2.99988 15.9256 3.0789 15.7348 3.21955 15.5942C3.3602 15.4535 3.55097 15.3745 3.74988 15.3745H12.7499C12.9488 15.3745 13.1395 15.4535 13.2802 15.5942C13.4208 15.7348 13.4999 15.9256 13.4999 16.1245ZM20.2499 15.3745H16.4999V13.8745C16.4999 13.6756 16.4209 13.4848 16.2802 13.3442C16.1396 13.2035 15.9488 13.1245 15.7499 13.1245C15.551 13.1245 15.3602 13.2035 15.2195 13.3442C15.0789 13.4848 14.9999 13.6756 14.9999 13.8745V18.3745C14.9999 18.5734 15.0789 18.7642 15.2195 18.9048C15.3602 19.0455 15.551 19.1245 15.7499 19.1245C15.9488 19.1245 16.1396 19.0455 16.2802 18.9048C16.4209 18.7642 16.4999 18.5734 16.4999 18.3745V16.8745H20.2499C20.4488 16.8745 20.6396 16.7955 20.7802 16.6548C20.9209 16.5142 20.9999 16.3234 20.9999 16.1245C20.9999 15.9256 20.9209 15.7348 20.7802 15.5942C20.6396 15.4535 20.4488 15.3745 20.2499 15.3745ZM3.74988 8.62442L6.74988 8.62451C6.94879 8.62451 7.13956 8.54549 7.28021 8.40484C7.42086 8.26419 7.49988 8.07342 7.49988 7.87451C7.49988 7.6756 7.42086 7.48483 7.28021 7.34418C7.13956 7.20353 6.94879 7.12451 6.74988 7.12451L3.74988 7.12442C3.55097 7.12442 3.3602 7.20344 3.21955 7.34409C3.0789 7.48474 2.99988 7.67551 2.99988 7.87442C2.99988 8.07333 3.0789 8.2641 3.21955 8.40475C3.3602 8.5454 3.55097 8.62442 3.74988 8.62442ZM9.74988 10.8745C9.94879 10.8745 10.1395 10.7955 10.2802 10.6548C10.4208 10.5142 10.4999 10.3234 10.4999 10.1245V8.62451L20.2499 8.62442C20.4488 8.62442 20.6396 8.5454 20.7802 8.40475C20.9209 8.2641 20.9999 8.07333 20.9999 7.87442C20.9999 7.67551 20.9209 7.48474 20.7802 7.34409C20.6396 7.20344 20.4488 7.12442 20.2499 7.12442L10.4999 7.12451V5.62451C10.4999 5.4256 10.4209 5.23483 10.2802 5.09418C10.1396 4.95353 9.94879 4.87451 9.74988 4.87451C9.55097 4.87451 9.3602 4.95353 9.21955 5.09418C9.0789 5.23483 8.99988 5.4256 8.99988 5.62451V10.1245C8.99989 10.3234 9.07891 10.5142 9.21956 10.6548C9.36021 10.7955 9.55097 10.8745 9.74988 10.8745Z" fill="#1D1F21" style="fill: var(--ui-icon-primary-color);"/>
</svg>
