<svg  viewBox="0 0 24 24" fill="none" xmlns="http://www.w3.org/2000/svg" id="__THIS_ID_NEEDS_FOR_UI_ICON_COMPONENT__">
<path d="M12 2.25C10.0716 2.25 8.18653 2.82183 6.58315 3.89317C4.97977 4.96451 3.73009 6.48726 2.99213 8.26884C2.25418 10.0504 2.0611 12.0108 2.4373 13.9021C2.81351 15.7934 3.74211 17.5307 5.10567 18.8943C6.46923 20.2579 8.20651 21.1865 10.0978 21.5627C11.9891 21.9389 13.9495 21.7458 15.7311 21.0078C17.5127 20.2699 19.0354 19.0202 20.1068 17.4168C21.1781 15.8134 21.75 13.9284 21.75 12C21.747 9.41504 20.7189 6.93679 18.891 5.10894C17.0632 3.28109 14.5849 2.25293 12 2.25ZM18.416 12.624L13.916 15.624C13.803 15.6993 13.6718 15.7425 13.5362 15.7491C13.4006 15.7556 13.2658 15.7253 13.1461 15.6612C13.0264 15.5972 12.9263 15.5018 12.8566 15.3854C12.7868 15.2689 12.75 15.1357 12.75 15V12C12.75 12.1235 12.7195 12.245 12.6612 12.3539C12.603 12.4627 12.5187 12.5555 12.416 12.624L7.91597 15.624C7.80302 15.6993 7.67176 15.7425 7.53617 15.7491C7.40058 15.7556 7.26576 15.7253 7.14608 15.6612C7.02639 15.5972 6.92634 15.5018 6.85658 15.3854C6.78682 15.2689 6.74997 15.1357 6.74996 15V9C6.74997 8.86425 6.78682 8.73106 6.85658 8.61461C6.92634 8.49816 7.02639 8.40283 7.14608 8.33878C7.26576 8.27473 7.40058 8.24436 7.53617 8.25091C7.67176 8.25746 7.80302 8.30068 7.91597 8.37598L12.416 11.376C12.5187 11.4445 12.603 11.5372 12.6612 11.6461C12.7195 11.755 12.75 11.8765 12.75 12V9C12.75 8.86425 12.7868 8.73106 12.8566 8.61461C12.9263 8.49816 13.0264 8.40283 13.1461 8.33878C13.2658 8.27473 13.4006 8.24436 13.5362 8.25091C13.6718 8.25746 13.803 8.30068 13.916 8.37598L18.416 11.376C18.5187 11.4445 18.6029 11.5373 18.6612 11.6461C18.7195 11.755 18.75 11.8765 18.75 12C18.75 12.1235 18.7195 12.245 18.6612 12.3539C18.6029 12.4627 18.5187 12.5555 18.416 12.624Z" fill="#1D1F21" style="fill: var(--ui-icon-primary-color);"/>
</svg>
