<svg  viewBox="0 0 24 24" fill="none" xmlns="http://www.w3.org/2000/svg" id="__THIS_ID_NEEDS_FOR_UI_ICON_COMPONENT__">
<path d="M19.1237 3.04867C19.0561 3.02167 17.4371 2.383 15.5187 2.383C14.3741 2.383 13.3621 2.612 12.5107 3.06367C11.7564 3.464 10.7331 3.66667 9.46908 3.66667C7.69975 3.66667 5.95508 3.26267 5.33341 3.10233V2.33333C5.33341 2.149 5.18441 2 5.00008 2C4.81575 2 4.66675 2.149 4.66675 2.33333V3.33333C4.66675 3.338 4.66908 3.342 4.66941 3.34667C4.66941 3.35067 4.66675 3.354 4.66675 3.358V13V13.358V21.6667C4.66675 21.851 4.81575 22 5.00008 22C5.18441 22 5.33341 21.851 5.33341 21.6667V13.791C6.09108 13.979 7.74775 14.3333 9.46908 14.3333C10.8431 14.3333 11.9714 14.104 12.8231 13.6527C13.5774 13.2523 14.4841 13.0493 15.5187 13.0493C17.3044 13.0493 18.8611 13.6613 18.8764 13.6673C18.9794 13.7087 19.0954 13.696 19.1871 13.6333C19.2784 13.572 19.3334 13.4687 19.3334 13.358V3.358C19.3334 3.22167 19.2504 3.09933 19.1237 3.04867Z" fill="#1D1D21" style="fill: var(--ui-icon-primary-color);"/>
</svg>
