<svg  viewBox="0 0 24 24" fill="none" xmlns="http://www.w3.org/2000/svg" id="__THIS_ID_NEEDS_FOR_UI_ICON_COMPONENT__">
<path d="M21 4.50047V15.7505C21 15.8669 20.9728 15.9818 20.9208 16.0859C20.8687 16.19 20.7931 16.2806 20.6999 16.3505C19.2804 17.4151 17.923 17.7969 16.6285 17.7969C14.871 17.797 13.2292 17.0933 11.7045 16.4399C9.20023 15.3665 7.02402 14.4353 4.49995 16.1381V20.2505C4.49995 20.4494 4.42094 20.6401 4.28028 20.7808C4.13963 20.9215 3.94887 21.0005 3.74995 21.0005C3.55104 21.0005 3.36028 20.9215 3.21962 20.7808C3.07897 20.6401 2.99995 20.4494 2.99995 20.2505V4.50047C2.99995 4.49521 3.00064 4.49012 3.00073 4.48486C3.00105 4.47115 3.00179 4.45749 3.0028 4.44382C3.00371 4.43201 3.00472 4.42029 3.00614 4.40864C3.0076 4.39681 3.00952 4.38509 3.01154 4.37335C3.01373 4.36042 3.01607 4.34753 3.01891 4.33485C3.02129 4.32435 3.02413 4.314 3.02696 4.30361C3.03053 4.29045 3.03415 4.27736 3.03841 4.26451C3.04184 4.25415 3.04578 4.24394 3.04967 4.23371C3.05429 4.2216 3.05892 4.20949 3.06413 4.19768C3.06903 4.18653 3.07457 4.17564 3.08002 4.1647C3.08519 4.15438 3.09032 4.14405 3.09595 4.13403C3.10254 4.12222 3.10977 4.11078 3.11701 4.09931C3.12259 4.09054 3.12804 4.08175 3.13399 4.07324C3.14196 4.06171 3.15056 4.05053 3.15926 4.03941C3.16557 4.03133 3.17185 4.02325 3.17848 4.01542C3.18723 4.00512 3.19647 3.99519 3.20586 3.9853C3.21369 3.97704 3.22156 3.96887 3.22975 3.96097C3.23854 3.95248 3.24774 3.94428 3.25704 3.93616C3.26697 3.92749 3.27699 3.91906 3.28739 3.91092C3.29169 3.90753 3.29553 3.90375 3.29997 3.90043C6.6465 1.39051 9.64751 2.67628 12.2954 3.81108C14.8985 4.92674 17.1469 5.89033 19.8 3.90043C19.9114 3.81687 20.0439 3.76599 20.1826 3.75349C20.3213 3.74098 20.4608 3.76736 20.5854 3.82965C20.71 3.89194 20.8147 3.98769 20.8879 4.10618C20.9612 4.22466 21 4.36119 21 4.50047L21 4.50047Z" fill="#1D1F21" style="fill: var(--ui-icon-primary-color);"/>
</svg>
