<svg  viewBox="0 0 24 24" fill="none" xmlns="http://www.w3.org/2000/svg" id="__THIS_ID_NEEDS_FOR_UI_ICON_COMPONENT__">
<path d="M21.8404 13.7833L21.0003 12.5228V11.4769L21.8396 10.2179C21.9637 10.0319 22.0454 9.82107 22.0791 9.60011C22.1128 9.37915 22.0975 9.15349 22.0345 8.93906C21.8379 8.2917 21.5789 7.66498 21.261 7.06773C21.155 6.87132 21.0067 6.70086 20.8269 6.56864C20.647 6.43642 20.4401 6.34572 20.221 6.30309L18.7342 6.00573L17.9944 5.26598L17.6971 3.77917C17.6545 3.55976 17.5636 3.35257 17.4311 3.17257C17.2986 2.99257 17.1278 2.84428 16.931 2.7384C16.3343 2.42123 15.7083 2.16245 15.0618 1.9657C14.8476 1.90161 14.6218 1.88578 14.4007 1.91933C14.1796 1.95289 13.9686 2.03501 13.783 2.15979L12.5233 2.99988H11.4774L10.2169 2.15979C10.0317 2.03479 9.82097 1.95253 9.60005 1.91896C9.37914 1.88539 9.15352 1.90136 8.93954 1.9657C8.29217 2.16227 7.66545 2.4213 7.06821 2.73914C6.87151 2.84483 6.70083 2.993 6.56857 3.1729C6.4363 3.3528 6.34577 3.55991 6.30356 3.77917L6.0062 5.26598L5.26645 6.00573L3.77818 6.30309C3.55901 6.34557 3.35205 6.4363 3.17229 6.56868C2.99253 6.70106 2.84448 6.87178 2.73888 7.06847C2.42141 7.66538 2.1624 8.29158 1.96544 8.93833C1.9012 9.15245 1.88528 9.37816 1.91885 9.59918C1.95241 9.8202 2.03462 10.031 2.15953 10.2164L3.00035 11.4769V12.5228L2.1588 13.784C2.03414 13.9694 1.95213 14.1801 1.9187 14.401C1.88526 14.6219 1.90123 14.8474 1.96544 15.0614C2.16214 15.7077 2.42117 16.3335 2.73888 16.9298C2.84425 17.1269 2.9923 17.2981 3.17223 17.4307C3.35215 17.5634 3.55942 17.6542 3.77891 17.6966L5.26645 17.994L6.0062 18.7337L6.30356 20.2198C6.34531 20.4394 6.43565 20.6469 6.56795 20.8271C6.70025 21.0073 6.87117 21.1557 7.06821 21.2613C7.6649 21.5788 8.29116 21.8374 8.93807 22.0333C9.15209 22.0989 9.37813 22.1156 9.59948 22.0822C9.82083 22.0487 10.0318 21.9659 10.2169 21.8399L11.4774 20.9998H12.5233L13.783 21.8399C14.033 22.0079 14.3271 22.0981 14.6282 22.0992C14.7752 22.099 14.9213 22.077 15.0618 22.034C15.7081 21.8374 16.3339 21.5786 16.9302 21.2613C17.1274 21.1561 17.2986 21.0081 17.4312 20.8281C17.5637 20.6481 17.6543 20.4408 17.6963 20.2212L17.9937 18.7337L18.7342 17.994L20.2217 17.6966C20.4409 17.6537 20.6479 17.5628 20.8278 17.4303C21.0076 17.2979 21.1558 17.1271 21.2618 16.9305C21.5792 16.3339 21.8379 15.7079 22.0345 15.0614C22.0975 14.8471 22.1129 14.6216 22.0793 14.4008C22.0458 14.1799 21.9642 13.9692 21.8404 13.7833ZM12 16.4999C11.11 16.4999 10.24 16.236 9.49999 15.7415C8.75997 15.2471 8.18319 14.5443 7.8426 13.722C7.50201 12.8997 7.41289 11.9949 7.58653 11.122C7.76016 10.2491 8.18874 9.4473 8.81807 8.81797C9.44741 8.18864 10.2492 7.76005 11.1221 7.58642C11.9951 7.41279 12.8998 7.5019 13.7221 7.8425C14.5444 8.18309 15.2472 8.75986 15.7416 9.49988C16.2361 10.2399 16.5 11.1099 16.5 11.9999C16.5 13.1934 16.0259 14.338 15.182 15.1819C14.3381 16.0258 13.1935 16.4999 12 16.4999Z" fill="#1D1F21" style="fill: var(--ui-icon-primary-color);"/>
</svg>
