<svg  viewBox="0 0 24 24" fill="none" xmlns="http://www.w3.org/2000/svg" id="__THIS_ID_NEEDS_FOR_UI_ICON_COMPONENT__">
<path d="M20.25 6.75033H16.9718C17.4599 6.1548 17.7004 5.39439 17.6434 4.62651C17.5864 3.85862 17.2363 3.14205 16.6656 2.62513C16.0949 2.10821 15.3472 1.83053 14.5775 1.84956C13.8077 1.86859 13.0747 2.18288 12.5303 2.72736C12.3131 2.95367 12.134 3.21364 12 3.49718C11.8659 3.21363 11.6868 2.95365 11.4696 2.72732C10.9252 2.18284 10.1922 1.86857 9.42243 1.84955C8.65266 1.83053 7.90506 2.10822 7.33437 2.62515C6.76368 3.14207 6.4136 3.85864 6.35661 4.62653C6.29961 5.39441 6.54006 6.15482 7.02818 6.75033H3.75C3.35231 6.75078 2.97104 6.90896 2.68984 7.19017C2.40863 7.47137 2.25045 7.85264 2.25 8.25033V11.2503C2.25045 11.648 2.40863 12.0293 2.68984 12.3105C2.97104 12.5917 3.35231 12.7499 3.75 12.7503V18.7503C3.75045 19.148 3.90864 19.5293 4.18984 19.8105C4.47105 20.0917 4.85231 20.2499 5.25 20.2503H18.75C19.1477 20.2499 19.529 20.0917 19.8102 19.8105C20.0914 19.5293 20.2495 19.148 20.25 18.7503V12.7503C20.6477 12.7499 21.029 12.5917 21.3102 12.3105C21.5914 12.0293 21.7495 11.648 21.75 11.2503V8.25033C21.7495 7.85264 21.5914 7.47137 21.3102 7.19017C21.029 6.90896 20.6477 6.75078 20.25 6.75033ZM13.5909 3.78803C13.7302 3.64868 13.8955 3.53813 14.0776 3.4627C14.2596 3.38727 14.4546 3.34843 14.6517 3.34841C14.8487 3.34838 15.0438 3.38716 15.2258 3.46255C15.4078 3.53793 15.5732 3.64843 15.7125 3.78774C15.8518 3.92705 15.9623 4.09244 16.0377 4.27446C16.1131 4.45649 16.1519 4.65158 16.1519 4.84859C16.1519 5.04561 16.113 5.24069 16.0376 5.4227C15.9622 5.6047 15.8516 5.77007 15.7123 5.90935C15.2491 6.37258 13.9099 6.63271 12.782 6.71835C12.8676 5.59033 13.1277 4.25121 13.5909 3.78803ZM8.28763 3.78803C8.56917 3.50715 8.95062 3.34941 9.34831 3.3494C9.746 3.3494 10.1275 3.50713 10.409 3.788C10.8723 4.25124 11.1324 5.59047 11.218 6.71833C10.09 6.63266 8.75089 6.37254 8.28772 5.90935C8.00684 5.62782 7.8491 5.24638 7.84908 4.84871C7.84906 4.45103 8.00678 4.06958 8.28763 3.78803ZM20.25 11.2503H12.75V18.0003C12.75 18.1992 12.671 18.39 12.5303 18.5307C12.3897 18.6713 12.1989 18.7503 12 18.7503C11.8011 18.7503 11.6103 18.6713 11.4697 18.5307C11.329 18.39 11.25 18.1992 11.25 18.0003V11.2503H3.75V8.25033H11.25V11.2503H12.75V8.25033H20.25L20.2509 11.2503L20.25 11.2503Z" fill="#1D1F21" style="fill: var(--ui-icon-primary-color);"/>
</svg>
