<svg  viewBox="0 0 24 24" fill="none" xmlns="http://www.w3.org/2000/svg" id="__THIS_ID_NEEDS_FOR_UI_ICON_COMPONENT__">
<path d="M17.6243 9.75017C16.7945 9.75126 15.9941 10.0576 15.3756 10.6109C14.7571 11.1641 14.3638 11.9256 14.2707 12.7502H12.2318C11.6819 12.7509 11.1387 12.6303 10.6407 12.3971C10.1428 12.1638 9.70238 11.8237 9.35089 11.4009L7.73544 9.46236C8.46909 9.13873 9.06351 8.56443 9.41221 7.84235C9.7609 7.12028 9.84106 6.29763 9.63834 5.52182C9.43561 4.74601 8.96324 4.06774 8.30588 3.60856C7.64851 3.14938 6.84911 2.93929 6.05092 3.01595C5.25274 3.0926 4.50793 3.45099 3.94997 4.02688C3.392 4.60278 3.05735 5.35855 3.00598 6.15876C2.95461 6.95897 3.18987 7.75132 3.66961 8.39384C4.14935 9.03636 4.84221 9.48704 5.62405 9.66513V14.3352C4.81503 14.5196 4.10229 14.9956 3.62198 15.6722C3.14166 16.3488 2.92743 17.1786 3.02021 18.0032C3.11299 18.8278 3.50627 19.5892 4.12493 20.1422C4.7436 20.6952 5.54428 21.0008 6.37405 21.0008C7.20381 21.0008 8.0045 20.6952 8.62316 20.1422C9.24182 19.5892 9.63511 18.8278 9.72788 18.0032C9.82066 17.1786 9.60643 16.3488 9.12612 15.6722C8.6458 14.9956 7.93306 14.5196 7.12405 14.3352V11.0717L8.1986 12.3611C8.69066 12.9531 9.3072 13.4293 10.0043 13.7558C10.7014 14.0823 11.462 14.2511 12.2318 14.2502H14.4429C14.6492 14.8335 15.0118 15.3488 15.4912 15.7399C15.9706 16.131 16.5483 16.3828 17.1612 16.4678C17.774 16.5527 18.3984 16.4676 18.9661 16.2216C19.5338 15.9757 20.023 15.5784 20.3802 15.0732C20.7374 14.568 20.9488 13.9743 20.9913 13.3571C21.0339 12.7398 20.9059 12.1228 20.6215 11.5734C20.337 11.0239 19.907 10.5633 19.3784 10.2417C18.8498 9.92018 18.243 9.75013 17.6243 9.75017H17.6243ZM8.24905 17.6252C8.24905 17.996 8.13908 18.3585 7.93305 18.6669C7.72702 18.9752 7.43419 19.2155 7.09158 19.3574C6.74897 19.4994 6.37197 19.5365 6.00825 19.4641C5.64454 19.3918 5.31044 19.2132 5.04822 18.951C4.786 18.6888 4.60742 18.3547 4.53507 17.991C4.46273 17.6273 4.49986 17.2503 4.64177 16.9076C4.78369 16.565 5.02401 16.2722 5.33235 16.0662C5.64069 15.8601 6.00321 15.7502 6.37405 15.7502C6.87116 15.7507 7.34775 15.9484 7.69926 16.3C8.05077 16.6515 8.24849 17.1281 8.24905 17.6252ZM17.6243 15.0002C17.2535 15.0002 16.891 14.8902 16.5826 14.6842C16.2743 14.4782 16.034 14.1853 15.892 13.8427C15.7501 13.5001 15.713 13.1231 15.7853 12.7594C15.8577 12.3957 16.0363 12.0616 16.2985 11.7993C16.5607 11.5371 16.8948 11.3585 17.2585 11.2862C17.6222 11.2139 17.9992 11.251 18.3419 11.3929C18.6845 11.5348 18.9773 11.7751 19.1833 12.0835C19.3894 12.3918 19.4993 12.7543 19.4993 13.1252C19.4988 13.6223 19.301 14.0989 18.9495 14.4504C18.598 14.8019 18.1214 14.9996 17.6243 15.0002Z" fill="#1D1F21" style="fill: var(--ui-icon-primary-color);"/>
</svg>
