<svg  viewBox="0 0 24 24" fill="none" xmlns="http://www.w3.org/2000/svg" id="__THIS_ID_NEEDS_FOR_UI_ICON_COMPONENT__">
<path d="M9.75002 6.37468C9.75015 5.73931 9.57092 5.11681 9.23295 4.57879C8.89499 4.04077 8.41201 3.60907 7.83959 3.33336C7.26716 3.05764 6.62853 2.94911 5.99716 3.02024C5.36579 3.09138 4.76732 3.33929 4.2706 3.73546C3.77387 4.13164 3.39906 4.65998 3.18928 5.25971C2.97951 5.85945 2.94328 6.50622 3.08478 7.12563C3.22627 7.74504 3.53974 8.31193 3.98912 8.76109C4.4385 9.21025 5.00554 9.52345 5.62502 9.66464V14.3347C4.81601 14.5191 4.10327 14.9951 3.62295 15.6717C3.14264 16.3483 2.92841 17.1781 3.02119 18.0027C3.11396 18.8273 3.50725 19.5887 4.12591 20.1417C4.74458 20.6947 5.54526 21.0003 6.37502 21.0003C7.20479 21.0003 8.00547 20.6947 8.62414 20.1417C9.2428 19.5887 9.63608 18.8273 9.72886 18.0027C9.82164 17.1781 9.60741 16.3483 9.12709 15.6717C8.64678 14.9951 7.93404 14.5191 7.12502 14.3347V9.66464C7.87011 9.49386 8.53531 9.07558 9.01205 8.47806C9.4888 7.88055 9.74894 7.13908 9.75002 6.37468ZM8.25002 17.6247C8.25002 17.9955 8.14006 18.358 7.93403 18.6664C7.728 18.9747 7.43517 19.215 7.09256 19.357C6.74994 19.4989 6.37294 19.536 6.00923 19.4636C5.64551 19.3913 5.31142 19.2127 5.0492 18.9505C4.78697 18.6883 4.6084 18.3542 4.53605 17.9905C4.4637 17.6268 4.50083 17.2498 4.64275 16.9071C4.78466 16.5645 5.02499 16.2717 5.33333 16.0657C5.64167 15.8596 6.00418 15.7497 6.37502 15.7497C6.87213 15.7502 7.34872 15.948 7.70023 16.2995C8.05174 16.651 8.24946 17.1276 8.25002 17.6247ZM21.0002 17.6247C21.0003 18.26 20.8211 18.8825 20.4831 19.4206C20.1452 19.9586 19.6622 20.3903 19.0898 20.666C18.5174 20.9417 17.8787 21.0502 17.2474 20.9791C16.616 20.908 16.0175 20.6601 15.5208 20.2639C15.0241 19.8677 14.6493 19.3394 14.4395 18.7397C14.2297 18.1399 14.1935 17.4932 14.335 16.8738C14.4764 16.2543 14.7899 15.6875 15.2393 15.2383C15.6887 14.7891 16.2557 14.4759 16.8752 14.3347L16.875 11.2386C16.8764 10.746 16.78 10.258 16.5914 9.80281C16.4029 9.34767 16.126 8.93445 15.7767 8.58705L13.5 6.31038V8.24968C13.5 8.44859 13.421 8.63936 13.2804 8.78001C13.1397 8.92066 12.9489 8.99968 12.75 8.99968C12.5511 8.99968 12.3603 8.92066 12.2197 8.78001C12.079 8.63936 12 8.44859 12 8.24968V4.50016C12 4.47521 12.0013 4.4503 12.0038 4.42543C12.0048 4.41533 12.0067 4.40554 12.0081 4.39556C12.0101 4.38129 12.0118 4.36701 12.0146 4.35286C12.017 4.34103 12.0202 4.32957 12.0231 4.31795C12.0261 4.30583 12.0288 4.29366 12.0324 4.28168C12.0359 4.27021 12.0403 4.25913 12.0442 4.24789C12.0485 4.23602 12.0524 4.22409 12.0572 4.21241C12.0615 4.202 12.0667 4.19204 12.0714 4.18188C12.0771 4.16981 12.0824 4.15768 12.0888 4.14588C12.094 4.13624 12.0998 4.1271 12.1054 4.11772C12.1123 4.10609 12.1189 4.09435 12.1265 4.08304C12.1334 4.07275 12.1411 4.06311 12.1484 4.05319C12.1556 4.04348 12.1624 4.03356 12.1702 4.02413C12.1841 4.00717 12.1989 3.99101 12.2143 3.97535C12.2161 3.97341 12.2177 3.97128 12.2197 3.96936C12.2211 3.96792 12.2227 3.96673 12.2241 3.96531C12.2403 3.94939 12.2571 3.93407 12.2747 3.91965C12.283 3.91286 12.2917 3.90696 12.3002 3.90057C12.3113 3.8922 12.3222 3.8836 12.3338 3.87585C12.3438 3.86919 12.3541 3.86345 12.3643 3.85733C12.3751 3.85083 12.3857 3.84407 12.3969 3.8381C12.4072 3.83256 12.4179 3.82789 12.4285 3.82288C12.4401 3.81735 12.4516 3.81158 12.4635 3.80664C12.4736 3.80246 12.484 3.7991 12.4942 3.79539C12.507 3.79074 12.5197 3.78586 12.5328 3.7819C12.543 3.77881 12.5535 3.77658 12.5638 3.77393C12.5771 3.77053 12.5903 3.76684 12.6039 3.76415C12.6161 3.76174 12.6284 3.76034 12.6407 3.75853C12.6525 3.7568 12.6642 3.75458 12.6762 3.75341C12.6993 3.75113 12.7225 3.75002 12.7457 3.74989C12.7472 3.74989 12.7486 3.74968 12.75 3.74968H16.5C16.6989 3.74968 16.8897 3.82869 17.0303 3.96935C17.171 4.11 17.25 4.30076 17.25 4.49968C17.25 4.69859 17.171 4.88935 17.0303 5.03001C16.8897 5.17066 16.6989 5.24968 16.5 5.24968H14.5607L16.8374 7.52641C17.3264 8.01277 17.7141 8.59129 17.978 9.22848C18.2419 9.86566 18.3769 10.5489 18.375 11.2386L18.3752 14.3347C19.1203 14.5055 19.7855 14.9238 20.2622 15.5213C20.739 16.1188 20.9991 16.8603 21.0002 17.6247H21.0002Z" fill="#1D1F21" style="fill: var(--ui-icon-primary-color);"/>
</svg>
