<svg  viewBox="0 0 24 24" fill="none" xmlns="http://www.w3.org/2000/svg" id="__THIS_ID_NEEDS_FOR_UI_ICON_COMPONENT__">
<path d="M20.7747 16.2481C21.4009 14.9555 21.7338 13.5405 21.7494 12.1042C21.7651 10.6679 21.4631 9.24597 20.8652 7.94C20.2672 6.63403 19.3881 5.47634 18.2906 4.54973C17.1931 3.62312 15.9044 2.95049 14.5167 2.57996C14.4998 2.57469 14.4827 2.57016 14.4655 2.56609C12.9431 2.16852 11.347 2.14564 9.81383 2.49943C8.28065 2.85322 6.85598 3.57314 5.6617 4.5976C5.61601 4.62931 5.57401 4.66604 5.5365 4.7071C4.055 6.01831 3.00767 7.74938 2.53374 9.67019C2.0598 11.591 2.18172 13.6106 2.88327 15.4604C3.58482 17.3103 4.83278 18.9028 6.46125 20.0263C8.08973 21.1497 10.0216 21.751 12 21.75C12.069 21.75 12.1377 21.7488 12.2063 21.7474C12.208 21.7474 12.2097 21.7476 12.2114 21.7476C12.2147 21.7476 12.2178 21.7473 12.2211 21.7472C13.9918 21.7054 15.7178 21.1827 17.2141 20.235C18.7104 19.2873 19.9207 17.9503 20.7153 16.3673L20.7167 16.3653C20.7394 16.328 20.7588 16.2888 20.7747 16.2481ZM20.25 12C20.2508 12.9829 20.0752 13.9579 19.7314 14.8787L15.3814 12.2033C15.2031 12.0933 15.0037 12.0222 14.7961 11.9945L12.6568 11.7061C12.3818 11.6705 12.1023 11.7112 11.8489 11.8239C11.5956 11.9366 11.3781 12.1169 11.2204 12.345H10.4195L10.0628 11.6081C9.96407 11.4023 9.8194 11.222 9.63995 11.0811C9.4605 10.9401 9.25107 10.8422 9.02782 10.795L8.41213 10.6627L8.84142 9.64353H10.8426C11.0962 9.6434 11.3456 9.57909 11.5677 9.45658L12.7155 8.82276C12.8165 8.76696 12.9107 8.69971 12.9964 8.62235L15.5192 6.34067C15.7367 6.14548 15.892 5.8907 15.9659 5.60797C16.0398 5.32525 16.029 5.02704 15.9349 4.7504C17.2395 5.45921 18.3288 6.50667 19.0882 7.78249C19.8476 9.05831 20.249 10.5153 20.25 12ZM3.74999 12C3.74852 10.7079 4.05243 9.43374 4.63695 8.28141L5.61414 10.8896C5.70186 11.1253 5.84772 11.3351 6.03817 11.4995C6.22862 11.6638 6.4575 11.7774 6.70357 11.8296L7.22038 11.9407L7.22464 11.9416L8.7126 12.2615L9.06938 12.9985C9.19298 13.2515 9.38496 13.465 9.62358 13.6146C9.86219 13.7642 10.1379 13.844 10.4196 13.845H10.5235L9.80208 15.4638C9.68243 15.7318 9.64411 16.029 9.69188 16.3186C9.73965 16.6082 9.8714 16.8774 10.0708 17.0927L11.8332 18.999L11.5932 20.2399C9.47905 20.133 7.4866 19.2186 6.02711 17.6853C4.56762 16.152 3.75249 14.1169 3.74999 12Z" fill="#1D1F21" style="fill: var(--ui-icon-primary-color);"/>
</svg>
