<svg  viewBox="0 0 24 24" fill="none" xmlns="http://www.w3.org/2000/svg" id="__THIS_ID_NEEDS_FOR_UI_ICON_COMPONENT__">
<path d="M20.9787 15.8006C20.995 15.768 21.0089 15.7344 21.0202 15.6998C21.8587 13.6572 21.9784 11.3903 21.3597 9.27075C20.741 7.15118 19.4207 5.30467 17.615 4.03388C17.5751 3.99951 17.5317 3.96941 17.4856 3.94406C15.6034 2.66043 13.3309 2.07683 11.0631 2.29467C8.79535 2.51251 6.67555 3.51802 5.07213 5.13648C3.46871 6.75494 2.48302 8.88402 2.28635 11.1538C2.08968 13.4235 2.69447 15.6904 3.99561 17.5605C3.99945 17.5673 4.00257 17.5743 4.00659 17.581C4.02891 17.6172 4.05424 17.6514 4.08231 17.6833C4.87175 18.7854 5.88265 19.7106 7.05027 20.3994C8.21789 21.0883 9.5165 21.5258 10.863 21.6839C12.2094 21.8419 13.574 21.717 14.8694 21.3172C16.1648 20.9174 17.3625 20.2516 18.3857 19.3622C18.4178 19.3393 18.4481 19.3138 18.4763 19.2861C18.4834 19.279 18.4895 19.2713 18.4963 19.264C19.5679 18.3057 20.4154 17.1232 20.9787 15.8006ZM5.76404 17.3961L6.1026 17.1917C6.34621 17.0435 6.53938 16.8251 6.65683 16.5653C6.77428 16.3054 6.81054 16.0161 6.76087 15.7353L6.16092 12.4164L7.13875 10.6084L8.6101 9.42175L9.20093 9.74667L9.31793 10.0658C9.4104 10.3181 9.57307 10.5386 9.78676 10.7014C10.0004 10.8642 10.2562 10.9625 10.524 10.9847C10.7917 11.007 11.0602 10.9521 11.2978 10.8268C11.5354 10.7014 11.7322 10.5107 11.8649 10.2771L12.2599 9.58252L13.53 10.4021C13.7633 10.5527 14.036 10.6309 14.3136 10.627C14.5913 10.6231 14.8616 10.5372 15.0906 10.3801C15.3196 10.223 15.497 10.0018 15.6007 9.74415C15.7043 9.48653 15.7295 9.20402 15.6731 8.93213L17.4689 8.07511C17.7351 7.94751 17.9545 7.73962 18.0963 7.48072C18.2381 7.22182 18.2951 6.92496 18.2592 6.63196C19.1358 7.65198 19.7494 8.87107 20.0465 10.1828C20.3435 11.4945 20.315 12.8591 19.9633 14.1572L18.4398 12.8C18.2258 12.6107 17.9596 12.4906 17.6761 12.4555C17.3925 12.4203 17.105 12.4717 16.8513 12.6029L14.6142 13.7701C14.417 13.8733 14.247 14.0216 14.118 14.203C13.9891 14.3844 13.9048 14.5937 13.872 14.8138L13.6489 16.3296C13.6194 16.5298 13.6334 16.7339 13.6899 16.9282C13.7464 17.1225 13.8441 17.3023 13.9763 17.4555C14.1085 17.6086 14.2722 17.7314 14.4562 17.8156C14.6402 17.8998 14.8401 17.9434 15.0425 17.9434H16.0765L16.8219 18.6902C15.1511 19.8973 13.0884 20.434 11.0412 20.1944C8.99397 19.9548 7.11098 18.9564 5.76404 17.3961Z" fill="#1D1F21" style="fill: var(--ui-icon-primary-color);"/>
</svg>
