<svg  viewBox="0 0 24 24" fill="none" xmlns="http://www.w3.org/2000/svg" id="__THIS_ID_NEEDS_FOR_UI_ICON_COMPONENT__">
<path d="M11.2275 20.1373C11.2037 20.2329 11.1613 20.3229 11.1027 20.4021C11.0441 20.4813 10.9705 20.5481 10.886 20.5988C10.8015 20.6495 10.7078 20.683 10.6104 20.6975C10.5129 20.7119 10.4136 20.707 10.318 20.6829L7.49241 19.9766C7.26317 19.9189 7.05067 19.8082 6.87205 19.6534L4.75792 17.8157C4.60779 17.6852 4.51564 17.5004 4.50175 17.302C4.48786 17.1035 4.55336 16.9077 4.68385 16.7576C4.81434 16.6075 4.99912 16.5153 5.19755 16.5014C5.39598 16.4875 5.5918 16.553 5.74193 16.6835L7.85625 18.5214L10.6818 19.2278C10.7774 19.2517 10.8673 19.2941 10.9464 19.3528C11.0256 19.4114 11.0924 19.485 11.1431 19.5695C11.1937 19.654 11.2273 19.7476 11.2418 19.845C11.2562 19.9424 11.2514 20.0417 11.2275 20.1373ZM23.6589 11.2079C23.5981 11.3977 23.4999 11.5734 23.37 11.7245C23.2401 11.8756 23.0812 11.9991 22.9027 12.0877L20.7213 13.1784L19.32 14.8177C19.3151 14.8234 19.3098 14.8287 19.3047 14.8342C19.3001 14.8393 19.2955 14.8444 19.2908 14.8493C19.2872 14.853 19.2839 14.857 19.2803 14.8607L15.8306 18.3105C15.5478 18.5916 15.1652 18.7493 14.7665 18.7492C14.6449 18.7493 14.5239 18.7344 14.406 18.7049L8.97254 17.3466C8.76861 17.2959 8.5777 17.2026 8.41233 17.073L3.34718 13.1123L1.09718 11.9872C0.919024 11.8981 0.760399 11.7745 0.630558 11.6234C0.500718 11.4723 0.402262 11.2969 0.340935 11.1074C0.279608 10.9179 0.256638 10.7181 0.273366 10.5196C0.290093 10.3211 0.346184 10.1279 0.438364 9.95134L2.74394 5.53598C2.92739 5.18877 3.23909 4.92686 3.61271 4.80596C3.98633 4.68507 4.39238 4.71474 4.74446 4.88866L6.84211 5.93748L11.4051 4.60723C11.7488 4.50715 12.117 4.53317 12.4432 4.68061L15.5367 6.08036H17.0729L19.2555 4.98914C19.6075 4.81509 20.0136 4.78536 20.3873 4.90627C20.7609 5.02719 21.0726 5.2892 21.2559 5.63651L23.5615 10.0518C23.6543 10.2282 23.7107 10.4214 23.7275 10.62C23.7442 10.8186 23.7209 11.0185 23.6589 11.2079ZM17.599 14.4207L14.6318 12.2627L13.8749 12.8304C13.2246 13.3142 12.4355 13.5756 11.6249 13.5756C10.8143 13.5756 10.0253 13.3142 9.37492 12.8304L8.86671 12.4492C8.69479 12.3203 8.55259 12.1559 8.44973 11.9672C8.34687 11.7785 8.28575 11.5699 8.27051 11.3556C8.25528 11.1412 8.28628 10.9261 8.36142 10.7247C8.43656 10.5234 8.55408 10.3406 8.70603 10.1886L12.3749 6.51971C12.4285 6.46691 12.486 6.41817 12.5468 6.37389L11.825 6.04726L7.25712 7.37891L4.70376 12.2689L9.33637 15.8914L14.7698 17.2498L17.599 14.4207ZM19.3505 12.4735L16.7954 7.58035H15.377L15.3745 7.58054C15.3733 7.58054 15.3721 7.58036 15.371 7.58035H13.4356L9.76676 11.2492L10.2749 11.6304C10.6651 11.9207 11.1385 12.0775 11.6249 12.0775C12.1113 12.0775 12.5847 11.9207 12.975 11.6304L14.1749 10.7304C14.3032 10.6341 14.459 10.5815 14.6194 10.5804C14.7798 10.5792 14.9363 10.6295 15.066 10.7238L18.6303 13.316L19.3505 12.4735Z" fill="#1D1F21" style="fill: var(--ui-icon-primary-color);"/>
</svg>
