<svg  viewBox="0 0 24 24" fill="none" xmlns="http://www.w3.org/2000/svg" id="__THIS_ID_NEEDS_FOR_UI_ICON_COMPONENT__">
<path d="M15.75 2.90556C15.7502 2.70677 15.8292 2.51618 15.9699 2.37568C16.1105 2.23518 16.3012 2.15625 16.5 2.15625H16.5007C17.4875 2.15854 18.4564 2.41948 19.3109 2.91303C20.1654 3.40659 20.8756 4.11553 21.3707 4.96916C21.42 5.05447 21.452 5.14865 21.4649 5.24633C21.4778 5.34402 21.4713 5.44328 21.4458 5.53846C21.4203 5.63364 21.3764 5.72287 21.3164 5.80104C21.2564 5.87922 21.1816 5.94481 21.0963 5.99407C21.011 6.04333 20.9168 6.0753 20.8191 6.08815C20.7214 6.10099 20.6221 6.09446 20.527 6.06893C20.4318 6.0434 20.3426 5.99937 20.2644 5.93936C20.1863 5.87934 20.1207 5.80452 20.0715 5.71916C19.7084 5.09306 19.1874 4.5731 18.5606 4.21113C17.9338 3.84917 17.223 3.65785 16.4992 3.65625C16.3003 3.65606 16.1096 3.57686 15.9691 3.43608C15.8286 3.2953 15.7498 3.10447 15.75 2.90556ZM8.02987 21.8839C6.84864 21.0661 5.86462 19.9952 5.14944 18.7491C5.04998 18.5769 4.88617 18.4512 4.69405 18.3997C4.50192 18.3482 4.29722 18.3752 4.12497 18.4747C3.95271 18.5741 3.82703 18.7379 3.77555 18.93C3.72408 19.1222 3.75103 19.3269 3.85049 19.4991C4.67599 20.9371 5.81176 22.1729 7.17514 23.1166C7.25607 23.1728 7.34728 23.2124 7.44355 23.2333C7.53982 23.2543 7.63927 23.256 7.73621 23.2385C7.83316 23.2209 7.92569 23.1845 8.00854 23.1312C8.09139 23.0779 8.16293 23.0088 8.21906 22.9278C8.2752 22.8468 8.31484 22.7556 8.33571 22.6593C8.35658 22.5631 8.35828 22.4636 8.34071 22.3667C8.32315 22.2697 8.28665 22.1772 8.23332 22.0944C8.17998 22.0116 8.11085 21.94 8.02987 21.8839ZM21.4683 16.0092C21.0455 17.5849 20.1651 19 18.9384 20.0756C17.7116 21.1511 16.1935 21.8388 14.576 22.0517C12.9585 22.2647 11.3141 21.9933 9.85077 21.2719C8.38743 20.5506 7.1708 19.4116 6.35464 17.9989L2.79214 11.8285C2.57059 11.445 2.4497 11.0117 2.44072 10.5689C2.43175 10.1261 2.53499 9.68824 2.74082 9.29609C2.94665 8.90395 3.24838 8.57028 3.6179 8.32616C3.98743 8.08204 4.41273 7.93541 4.85418 7.89993L4.16479 6.70587C3.85235 6.16419 3.74351 5.52879 3.85786 4.914C3.97221 4.29922 4.30223 3.74544 4.78854 3.35233C5.27484 2.95921 5.88549 2.75258 6.51059 2.76963C7.13568 2.78667 7.73417 3.02626 8.19833 3.44529C8.436 3.05742 8.77041 2.73799 9.16877 2.51834C9.56712 2.29868 10.0157 2.18635 10.4706 2.19236C10.9254 2.19837 11.3709 2.32251 11.7633 2.55261C12.1557 2.7827 12.4816 3.11085 12.709 3.50487L14.3349 6.32112C14.5868 5.95689 14.9267 5.66228 15.323 5.46466C15.7193 5.26705 16.1591 5.17285 16.6016 5.19084C17.0441 5.20882 17.4748 5.3384 17.8538 5.56752C18.2327 5.79665 18.5476 6.11788 18.7691 6.50134L20.644 9.7489C21.1885 10.686 21.5418 11.7219 21.6832 12.7965C21.8247 13.8711 21.7517 14.963 21.4683 16.0092V16.0092ZM19.3451 10.4989L17.4701 7.25134C17.3962 7.12339 17.2978 7.01125 17.1806 6.92131C17.0634 6.83137 16.9297 6.76539 16.787 6.72715C16.6443 6.68891 16.4954 6.67915 16.3489 6.69843C16.2025 6.71771 16.0612 6.76565 15.9333 6.83951C15.8053 6.91338 15.6932 7.01172 15.6032 7.12893C15.5133 7.24614 15.4473 7.37991 15.4091 7.52261C15.3708 7.66532 15.3611 7.81416 15.3804 7.96063C15.3996 8.10711 15.4476 8.24835 15.5215 8.3763L16.459 10.0001C16.4715 10.0218 16.4829 10.0441 16.4931 10.0669C16.5007 10.0835 16.5068 10.1004 16.513 10.1173C16.5153 10.1233 16.518 10.1292 16.5201 10.1353C16.5271 10.156 16.5328 10.1769 16.5379 10.1979C16.5385 10.2005 16.5394 10.2031 16.5401 10.2057C16.5451 10.2273 16.5488 10.249 16.5519 10.2707C16.5522 10.2731 16.5528 10.2754 16.5531 10.2777C16.5558 10.2985 16.5573 10.3193 16.5582 10.3401C16.5584 10.3437 16.5589 10.3473 16.5591 10.351C16.5597 10.3701 16.559 10.3892 16.5582 10.4082C16.5579 10.4137 16.5581 10.4192 16.5578 10.4246C16.5566 10.4425 16.5542 10.4602 16.5517 10.478C16.5508 10.4845 16.5505 10.4911 16.5494 10.4977C16.5458 10.5189 16.5411 10.54 16.5358 10.5609C16.535 10.5636 16.5347 10.5665 16.5339 10.5693C16.5332 10.5721 16.532 10.5748 16.5312 10.5776C16.5254 10.5984 16.519 10.6189 16.5115 10.639C16.5094 10.6446 16.5067 10.6499 16.5045 10.6554C16.4975 10.6727 16.4904 10.6899 16.4822 10.7066C16.4802 10.7106 16.4778 10.7144 16.4758 10.7184C16.4666 10.7362 16.457 10.7539 16.4464 10.7711C16.4451 10.7731 16.4437 10.7749 16.4425 10.7768C16.4306 10.7955 16.4181 10.8139 16.4046 10.8316L16.4029 10.8335C16.3886 10.8521 16.3734 10.8701 16.3572 10.8874L16.3557 10.8889C16.3396 10.906 16.3227 10.9226 16.3048 10.9383C16.3018 10.9408 16.2986 10.9431 16.2956 10.9456C16.2801 10.9589 16.2642 10.9719 16.2473 10.984C16.227 10.9986 16.2061 11.0122 16.1845 11.0246C15.4954 11.4225 14.9926 12.0777 14.7867 12.8462C14.5807 13.6148 14.6885 14.4337 15.0863 15.1227C15.1858 15.295 15.2127 15.4997 15.1612 15.6918C15.1098 15.8839 14.9841 16.0477 14.8118 16.1472C14.6396 16.2467 14.4349 16.2736 14.2427 16.2221C14.0506 16.1707 13.8868 16.045 13.7874 15.8727C13.2558 14.9516 13.0674 13.872 13.2557 12.8253C13.4439 11.7786 13.9966 10.8323 14.8159 10.1542L14.2225 9.12634L14.2223 9.12593L11.41 4.25491C11.2608 3.99651 11.0151 3.80796 10.7269 3.73073C10.4387 3.6535 10.1316 3.69392 9.87319 3.84311C9.61479 3.99229 9.42624 4.23802 9.34901 4.52622C9.27178 4.81443 9.3122 5.12151 9.46139 5.37991L11.8988 9.60182C11.9983 9.77409 12.0252 9.9788 11.9737 10.1709C11.9222 10.3631 11.7965 10.5269 11.6243 10.6263C11.452 10.7258 11.2473 10.7528 11.0552 10.7013C10.863 10.6498 10.6992 10.5241 10.5998 10.3518L8.16225 6.12991L8.16079 6.12726L7.41235 4.83087C7.26304 4.57274 7.01734 4.38444 6.72927 4.30737C6.44119 4.2303 6.1343 4.27076 5.87604 4.41986C5.61778 4.56896 5.42928 4.81449 5.35197 5.1025C5.27466 5.39052 5.31486 5.69744 5.46374 5.95583L7.33838 9.20282L7.33874 9.20343L9.02624 12.1263C9.07988 12.2182 9.11327 12.3204 9.12419 12.4261C9.13511 12.5319 9.1233 12.6388 9.08955 12.7396C9.0558 12.8404 9.0009 12.9329 8.92851 13.0108C8.85612 13.0887 8.76792 13.1502 8.66983 13.1912C8.66172 13.1946 8.65358 13.1976 8.64543 13.2007C8.62474 13.2087 8.60388 13.2157 8.58285 13.2218C8.57447 13.2242 8.56619 13.2267 8.55777 13.2288C8.53177 13.2353 8.50544 13.2405 8.47889 13.2442C8.47656 13.2445 8.47422 13.2451 8.47189 13.2454C8.44296 13.249 8.41384 13.2509 8.38469 13.251C8.38231 13.251 8.37988 13.2515 8.3775 13.2515C8.37255 13.2515 8.3677 13.2506 8.36276 13.2505C8.34001 13.2501 8.31738 13.2486 8.29487 13.2461C8.28682 13.2452 8.2788 13.2444 8.27079 13.2433C8.24383 13.2395 8.21709 13.2343 8.19069 13.2276C8.18885 13.2271 8.18698 13.2269 8.18515 13.2264C8.15686 13.2188 8.12904 13.2095 8.10183 13.1987C8.09483 13.1959 8.0881 13.1928 8.08119 13.1898C8.0605 13.181 8.04023 13.1712 8.0204 13.1605C8.01326 13.1566 8.00616 13.1529 7.99911 13.1488C7.97423 13.1345 7.95019 13.1188 7.9271 13.1017L7.92546 13.1006C7.90168 13.0825 7.87901 13.0629 7.85757 13.0421C7.85194 13.0367 7.84654 13.0309 7.84105 13.0252C7.82484 13.0086 7.80935 12.9912 7.79458 12.9729C7.78945 12.9666 7.78424 12.9604 7.77929 12.9538C7.76034 12.9291 7.74294 12.9032 7.7272 12.8763L6.0397 9.95347C5.89051 9.69508 5.64478 9.50654 5.35658 9.42933C5.06838 9.35211 4.76131 9.39255 4.50292 9.54174C4.24453 9.69093 4.05599 9.93665 3.97877 10.2249C3.90156 10.5131 3.94199 10.8201 4.09118 11.0785L7.65359 17.2489C8.54869 18.7993 10.023 19.9306 11.7523 20.3939C13.4815 20.8573 15.3239 20.6147 16.8743 19.7196C18.4247 18.8245 19.556 17.3502 20.0194 15.621C20.4827 13.8918 20.2402 12.0493 19.3451 10.4989V10.4989Z" fill="#1D1F21" style="fill: var(--ui-icon-primary-color);"/>
</svg>
