<svg  viewBox="0 0 24 24" fill="none" xmlns="http://www.w3.org/2000/svg" id="__THIS_ID_NEEDS_FOR_UI_ICON_COMPONENT__">
<path d="M22.1272 8.625C22.1272 11.4905 20.4665 14.438 17.1914 17.3856C15.7059 18.7173 14.0902 19.8961 12.3687 20.9044C12.2567 20.9671 12.1305 21 12.0022 21C11.8739 21 11.7477 20.9671 11.6357 20.9044C11.2373 20.6813 1.8772 15.3621 1.8772 8.625C1.8776 7.44466 2.24916 6.29433 2.93932 5.33679C3.62948 4.37925 4.60327 3.66299 5.72291 3.28936C6.84256 2.91572 8.05134 2.90364 9.17823 3.25482C10.3051 3.60599 11.293 4.30265 12.0022 5.2462C12.7114 4.30265 13.6993 3.60599 14.8262 3.25482C15.9531 2.90364 17.1618 2.91572 18.2815 3.28936C19.4011 3.66299 20.3749 4.37925 21.0651 5.33679C21.7552 6.29433 22.1268 7.44466 22.1272 8.625Z" fill="#1D1F21" style="fill: var(--ui-icon-primary-color);"/>
</svg>
