<svg  viewBox="0 0 24 24" fill="none" xmlns="http://www.w3.org/2000/svg" id="__THIS_ID_NEEDS_FOR_UI_ICON_COMPONENT__">
<path d="M18.9425 5.1537C18.0378 4.23067 16.9574 3.49816 15.765 2.99938C14.5727 2.5006 13.2925 2.24564 12.0001 2.24956H11.2501C11.0512 2.24956 10.8604 2.32858 10.7197 2.46923C10.5791 2.60988 10.5001 2.80064 10.5001 2.99956V5.58047L1.10703 11.3608C1.01921 11.4148 0.94348 11.4864 0.884566 11.571C0.825653 11.6557 0.784822 11.7515 0.764623 11.8526C0.744424 11.9537 0.745291 12.0579 0.767171 12.1587C0.78905 12.2595 0.831471 12.3546 0.891785 12.4383L2.18433 14.2304C2.51135 14.6869 2.96051 15.0418 3.48021 15.2545C3.9999 15.4671 4.56905 15.5289 5.12225 15.4326C6.40207 15.216 8.74024 15.0359 10.8902 16.013L8.43967 19.4438C7.73514 19.1062 7.08216 18.6703 6.50031 18.149C6.35209 18.0163 6.15725 17.948 5.95863 17.959C5.76001 17.97 5.5739 18.0594 5.44122 18.2076C5.30855 18.3558 5.24019 18.5507 5.25118 18.7493C5.26217 18.9479 5.3516 19.134 5.49982 19.2667C7.28616 20.8685 9.60191 21.7529 12.0013 21.7496C12.0664 21.7496 12.1317 21.7489 12.197 21.7476C14.1024 21.7091 15.9547 21.113 17.525 20.0331C19.0953 18.9532 20.3146 17.4367 21.0323 15.6712C21.75 13.9057 21.9345 11.9686 21.5631 10.0994C21.1917 8.23013 20.2806 6.51071 18.9425 5.1537ZM11.625 10.4996C11.4025 10.4996 11.185 10.4336 11 10.31C10.815 10.1863 10.6708 10.0106 10.5857 9.80507C10.5005 9.59951 10.4782 9.37331 10.5217 9.15508C10.5651 8.93685 10.6722 8.73639 10.8295 8.57906C10.9869 8.42173 11.1873 8.31458 11.4056 8.27117C11.6238 8.22776 11.85 8.25004 12.0556 8.33519C12.2611 8.42034 12.4368 8.56453 12.5604 8.74954C12.6841 8.93454 12.75 9.15205 12.75 9.37456C12.75 9.67292 12.6315 9.95907 12.4205 10.1701C12.2096 10.381 11.9234 10.4996 11.625 10.4996Z" fill="#1D1F21" style="fill: var(--ui-icon-primary-color);"/>
</svg>
