<svg  viewBox="0 0 24 24" fill="none" xmlns="http://www.w3.org/2000/svg" id="__THIS_ID_NEEDS_FOR_UI_ICON_COMPONENT__">
<path d="M21 10.8318V19.4999C21 19.6969 20.9612 19.8919 20.8858 20.0739C20.8104 20.2559 20.6999 20.4213 20.5607 20.5606C20.4214 20.6999 20.256 20.8103 20.074 20.8857C19.892 20.9611 19.697 20.9999 19.5 20.9999H19.4998L14.9994 20.9992C14.8005 20.9992 14.6097 20.9202 14.4691 20.7795C14.3285 20.6389 14.2494 20.4481 14.2495 20.2492V14.2492H9.74945V20.2492C9.74946 20.4481 9.67045 20.6389 9.52982 20.7795C9.38919 20.9202 9.19844 20.9992 8.99955 20.9992L4.50019 20.9999C4.30319 20.9999 4.10811 20.9611 3.9261 20.8858C3.74409 20.8104 3.57871 20.6999 3.4394 20.5606C3.3001 20.4213 3.18959 20.256 3.1142 20.074C3.0388 19.892 3 19.6969 3 19.4999V10.8317C3.00018 10.6228 3.04394 10.4161 3.12848 10.225C3.21302 10.0339 3.33649 9.86254 3.491 9.72184L10.9904 2.90304C11.2658 2.65073 11.6258 2.51077 11.9994 2.51074C12.3729 2.51072 12.7329 2.65063 13.0085 2.9029L20.5091 9.72189C20.6636 9.86261 20.787 10.034 20.8715 10.2251C20.956 10.4162 20.9998 10.6228 21 10.8318Z" fill="#1D1F21" style="fill: var(--ui-icon-primary-color);"/>
</svg>
