<svg  viewBox="0 0 24 24" fill="none" xmlns="http://www.w3.org/2000/svg" id="__THIS_ID_NEEDS_FOR_UI_ICON_COMPONENT__">
<path d="M16.3719 7.62797C16.1222 6.28505 15.5104 5.03585 14.6026 4.01521C13.6947 2.99458 12.5254 2.24127 11.2208 1.83662C9.91613 1.43197 8.52574 1.39133 7.1997 1.7191C5.87366 2.04687 4.66232 2.73059 3.69645 3.69646C2.73057 4.66234 2.04685 5.87367 1.71908 7.19972C1.39132 8.52576 1.43195 9.91614 1.8366 11.2208C2.24126 12.5254 2.99456 13.6948 4.0152 14.6026C5.03583 15.5104 6.28503 16.1222 7.62795 16.372C7.87772 17.7149 8.48953 18.9641 9.39734 19.9847C10.3052 21.0053 11.4745 21.7586 12.7791 22.1633C14.0838 22.568 15.4741 22.6086 16.8002 22.2808C18.1262 21.9531 19.3376 21.2693 20.3034 20.3035C21.2693 19.3376 21.953 18.1262 22.2808 16.8002C22.6086 15.4742 22.5679 14.0838 22.1633 12.7791C21.7586 11.4745 21.0053 10.3052 19.9847 9.39736C18.9641 8.48954 17.7149 7.87773 16.3719 7.62797ZM2.99998 8.99997C3.00007 7.53916 3.53306 6.12855 4.49901 5.03268C5.46496 3.93681 6.7975 3.23096 8.24675 3.0475C9.696 2.86404 11.1624 3.21557 12.371 4.03617C13.5795 4.85677 14.4472 6.09007 14.8113 7.50478C12.8894 7.55523 11.0601 8.34122 9.70065 9.70067C8.34119 11.0601 7.5552 12.8894 7.50474 14.8113C6.21653 14.4779 5.07535 13.7265 4.26012 12.6748C3.44488 11.6231 3.00168 10.3306 2.99998 8.99997ZM14.9999 20.9999C13.6693 20.9982 12.3768 20.555 11.3251 19.7398C10.2734 18.9245 9.52198 17.7834 9.1886 16.4951C11.1105 16.4447 12.9398 15.6587 14.2992 14.2992C15.6587 12.9398 16.4447 11.1105 16.4951 9.18862C17.9099 9.55272 19.1432 10.4204 19.9637 11.629C20.7843 12.8375 21.1359 14.3039 20.9524 15.7532C20.7689 17.2024 20.0631 18.535 18.9672 19.5009C17.8714 20.4668 16.4607 20.9998 14.9999 20.9999Z" fill="#1D1F21" style="fill: var(--ui-icon-primary-color);"/>
</svg>
