<svg  viewBox="0 0 24 24" fill="none" xmlns="http://www.w3.org/2000/svg" id="__THIS_ID_NEEDS_FOR_UI_ICON_COMPONENT__">
<path d="M20.055 19.7451C20.1213 19.818 20.1727 19.9032 20.206 19.9959C20.2394 20.0886 20.2542 20.187 20.2496 20.2854C20.2449 20.3839 20.2209 20.4804 20.1789 20.5695C20.137 20.6587 20.0778 20.7387 20.0049 20.805C19.932 20.8713 19.8467 20.9225 19.754 20.9558C19.6613 20.9892 19.5629 21.0039 19.4645 20.9992C19.366 20.9944 19.2695 20.9704 19.1804 20.9283C19.0913 20.8863 19.0113 20.8271 18.9451 20.7541L15.3469 16.7961L9.54835 23.0088C9.43701 23.1281 9.2898 23.2078 9.12905 23.2359C8.96831 23.2639 8.80279 23.2388 8.65762 23.1643C8.51244 23.0898 8.39552 22.97 8.32459 22.823C8.25367 22.6761 8.2326 22.51 8.2646 22.35L9.63954 15.4754L4.23669 13.4493C4.12124 13.406 4.01825 13.3349 3.93684 13.2423C3.85542 13.1497 3.79808 13.0385 3.76991 12.9184C3.74173 12.7984 3.74358 12.6733 3.7753 12.5541C3.80701 12.435 3.86761 12.3255 3.95173 12.2353L7.62391 8.30083L3.94509 4.25413C3.87876 4.18126 3.82743 4.09604 3.79404 4.00333C3.76066 3.91063 3.74586 3.81225 3.75052 3.71382C3.75517 3.61539 3.77917 3.51885 3.82115 3.4297C3.86312 3.34055 3.92226 3.26055 3.99517 3.19427C4.06808 3.12799 4.15334 3.07672 4.24607 3.0434C4.3388 3.01008 4.43719 2.99536 4.53562 3.00009C4.63404 3.00481 4.73057 3.02888 4.81968 3.07093C4.9088 3.11297 4.98876 3.17216 5.05499 3.24512L20.055 19.7451ZM16.8531 13.993C16.9228 14.0698 17.0077 14.1312 17.1024 14.1734C17.197 14.2157 17.2994 14.2379 17.4031 14.2385H17.408C17.5109 14.2385 17.6126 14.2174 17.7069 14.1764C17.8013 14.1354 17.8861 14.0755 17.9563 14.0003L20.0484 11.7588C20.1325 11.6687 20.1931 11.5592 20.2248 11.44C20.2565 11.3208 20.2584 11.1957 20.2302 11.0757C20.202 10.9556 20.1447 10.8444 20.0633 10.7518C19.9818 10.6592 19.8788 10.5881 19.7634 10.5448L14.3605 8.51874L15.7355 1.64414C15.7675 1.48413 15.7464 1.31805 15.6755 1.17109C15.6046 1.02413 15.4876 0.904315 15.3425 0.829811C15.1973 0.755307 15.0318 0.730182 14.871 0.758247C14.7103 0.786312 14.5631 0.866036 14.4517 0.985326L10.1492 5.59524C10.0207 5.73288 9.94872 5.91379 9.94749 6.10206C9.94627 6.29032 10.0159 6.47216 10.1425 6.61147L16.8531 13.993Z" fill="#1D1F21" style="fill: var(--ui-icon-primary-color);"/>
</svg>
