<svg  viewBox="0 0 24 24" fill="none" xmlns="http://www.w3.org/2000/svg" id="__THIS_ID_NEEDS_FOR_UI_ICON_COMPONENT__">
<path d="M10.4994 16.4995C10.4993 16.6984 10.4203 16.8892 10.2797 17.0298C10.139 17.1705 9.94827 17.2495 9.74936 17.2495H5.99936C4.60697 17.2495 3.27161 16.6964 2.28705 15.7118C1.30248 14.7273 0.749359 13.3919 0.749359 11.9995C0.749359 10.6071 1.30248 9.27177 2.28705 8.2872C3.27161 7.30263 4.60697 6.74951 5.99936 6.74951H9.74936C9.94827 6.74951 10.139 6.82853 10.2797 6.96918C10.4203 7.10983 10.4994 7.3006 10.4994 7.49951C10.4994 7.69842 10.4203 7.88919 10.2797 8.02984C10.139 8.17049 9.94827 8.24951 9.74936 8.24951H5.99936C5.0048 8.24951 4.05097 8.6446 3.34771 9.34786C2.64445 10.0511 2.24936 11.005 2.24936 11.9995C2.24936 12.9941 2.64445 13.9479 3.34771 14.6512C4.05097 15.3544 5.0048 15.7495 5.99936 15.7495H9.74936C9.94827 15.7495 10.139 15.8285 10.2797 15.9692C10.4203 16.1098 10.4993 16.3006 10.4994 16.4995ZM18 6.74951H14.25C14.0511 6.74951 13.8603 6.82853 13.7197 6.96918C13.579 7.10983 13.5 7.3006 13.5 7.49951C13.5 7.69842 13.579 7.88919 13.7197 8.02984C13.8603 8.17049 14.0511 8.24951 14.25 8.24951H18C18.9946 8.24951 19.9484 8.6446 20.6516 9.34786C21.3549 10.0511 21.75 11.005 21.75 11.9995C21.75 12.9941 21.3549 13.9479 20.6516 14.6512C19.9484 15.3544 18.9946 15.7495 18 15.7495H14.25C14.0511 15.7495 13.8603 15.8285 13.7197 15.9692C13.579 16.1098 13.5 16.3006 13.5 16.4995C13.5 16.6984 13.579 16.8892 13.7197 17.0298C13.8603 17.1705 14.0511 17.2495 14.25 17.2495H18C19.3924 17.2495 20.7277 16.6964 21.7123 15.7118C22.6969 14.7273 23.25 13.3919 23.25 11.9995C23.25 10.6071 22.6969 9.27177 21.7123 8.2872C20.7277 7.30263 19.3924 6.74951 18 6.74951Z" fill="#1D1F21" style="fill: var(--ui-icon-primary-color);"/>
</svg>
