<svg  viewBox="0 0 24 24" fill="none" xmlns="http://www.w3.org/2000/svg" id="__THIS_ID_NEEDS_FOR_UI_ICON_COMPONENT__">
<path d="M14.1208 16.2425C14.2614 16.3832 14.3404 16.5739 14.3404 16.7729C14.3404 16.9718 14.2614 17.1626 14.1208 17.3032L11.4691 19.9549C10.4846 20.9394 9.1492 21.4926 7.75681 21.4926C6.36442 21.4926 5.02906 20.9394 4.04449 19.9549C3.05992 18.9703 2.50679 17.6349 2.50679 16.2425C2.50679 14.8501 3.05992 13.5148 4.04449 12.5302L6.69613 9.87857C6.83679 9.73791 7.02757 9.65889 7.22649 9.65889C7.42542 9.65889 7.6162 9.73791 7.75686 9.87857C7.89752 10.0192 7.97654 10.21 7.97654 10.4089C7.97654 10.6079 7.89752 10.7986 7.75686 10.9393L5.10522 13.5909C4.40197 14.2942 4.00689 15.248 4.00689 16.2425C4.00689 17.2371 4.40197 18.1909 5.10522 18.8941C5.80847 19.5974 6.76227 19.9925 7.75682 19.9925C8.75136 19.9925 9.70517 19.5974 10.4084 18.8941L13.0601 16.2425C13.2007 16.1019 13.3915 16.0229 13.5904 16.0229C13.7893 16.0229 13.9801 16.1019 14.1208 16.2425ZM19.9549 4.04446C18.9703 3.05993 17.6349 2.50684 16.2426 2.50684C14.8502 2.50684 13.5148 3.05993 12.5302 4.04446L9.87859 6.6961C9.80874 6.76571 9.7533 6.8484 9.71544 6.93946C9.67758 7.03051 9.65805 7.12814 9.65796 7.22675C9.65787 7.32536 9.67723 7.42302 9.71492 7.51414C9.75262 7.60526 9.80791 7.68805 9.87764 7.75778C9.94737 7.82751 10.0302 7.8828 10.1213 7.9205C10.2124 7.9582 10.3101 7.97755 10.4087 7.97747C10.5073 7.97738 10.6049 7.95785 10.696 7.91999C10.787 7.88213 10.8697 7.82669 10.9393 7.75683L13.591 5.10519C14.2942 4.40195 15.248 4.00687 16.2426 4.00687C17.2371 4.00687 18.1909 4.40195 18.8942 5.10519C19.5974 5.80844 19.9925 6.76225 19.9925 7.75679C19.9925 8.75133 19.5974 9.70514 18.8942 10.4084L16.2425 13.06C16.1019 13.2007 16.0228 13.3915 16.0228 13.5904C16.0228 13.7893 16.1019 13.9801 16.2425 14.1208C16.3832 14.2614 16.5739 14.3404 16.7729 14.3404C16.9718 14.3404 17.1626 14.2614 17.3032 14.1208L19.9549 11.4691C20.938 10.4838 21.4901 9.14869 21.4901 7.75679C21.4901 6.36489 20.938 5.02982 19.9549 4.04446Z" fill="#1D1F21" style="fill: var(--ui-icon-primary-color);"/>
</svg>
