<svg  viewBox="0 0 24 24" fill="none" xmlns="http://www.w3.org/2000/svg" id="__THIS_ID_NEEDS_FOR_UI_ICON_COMPONENT__">
<path d="M3 6C3 5.80109 3.07902 5.61032 3.21967 5.46967C3.36032 5.32902 3.55109 5.25 3.75 5.25H20.25C20.4489 5.25 20.6397 5.32902 20.7803 5.46967C20.921 5.61032 21 5.80109 21 6C21 6.19891 20.921 6.38968 20.7803 6.53033C20.6397 6.67098 20.4489 6.75 20.25 6.75H3.75C3.55109 6.75 3.36032 6.67098 3.21967 6.53033C3.07902 6.38968 3 6.19891 3 6ZM3.75 12.75H20.25C20.4489 12.75 20.6397 12.671 20.7803 12.5303C20.921 12.3897 21 12.1989 21 12C21 11.8011 20.921 11.6103 20.7803 11.4697C20.6397 11.329 20.4489 11.25 20.25 11.25H3.75C3.55109 11.25 3.36032 11.329 3.21967 11.4697C3.07902 11.6103 3 11.8011 3 12C3 12.1989 3.07902 12.3897 3.21967 12.5303C3.36032 12.671 3.55109 12.75 3.75 12.75ZM13.5 17.25H3.75C3.55109 17.25 3.36032 17.329 3.21967 17.4697C3.07902 17.6103 3 17.8011 3 18C3 18.1989 3.07902 18.3897 3.21967 18.5303C3.36032 18.671 3.55109 18.75 3.75 18.75H13.5C13.6989 18.75 13.8897 18.671 14.0303 18.5303C14.171 18.3897 14.25 18.1989 14.25 18C14.25 17.8011 14.171 17.6103 14.0303 17.4697C13.8897 17.329 13.6989 17.25 13.5 17.25ZM21.75 17.25H20.25V15.75C20.25 15.5511 20.171 15.3603 20.0303 15.2197C19.8897 15.079 19.6989 15 19.5 15C19.3011 15 19.1103 15.079 18.9697 15.2197C18.829 15.3603 18.75 15.5511 18.75 15.75V17.25H17.25C17.0511 17.25 16.8603 17.329 16.7197 17.4697C16.579 17.6103 16.5 17.8011 16.5 18C16.5 18.1989 16.579 18.3897 16.7197 18.5303C16.8603 18.671 17.0511 18.75 17.25 18.75H18.75V20.25C18.75 20.4489 18.829 20.6397 18.9697 20.7803C19.1103 20.921 19.3011 21 19.5 21C19.6989 21 19.8897 20.921 20.0303 20.7803C20.171 20.6397 20.25 20.4489 20.25 20.25V18.75H21.75C21.9489 18.75 22.1397 18.671 22.2803 18.5303C22.421 18.3897 22.5 18.1989 22.5 18C22.5 17.8011 22.421 17.6103 22.2803 17.4697C22.1397 17.329 21.9489 17.25 21.75 17.25Z" fill="#1D1F21" style="fill: var(--ui-icon-primary-color);"/>
</svg>
