<svg  viewBox="0 0 24 24" fill="none" xmlns="http://www.w3.org/2000/svg" id="__THIS_ID_NEEDS_FOR_UI_ICON_COMPONENT__">
<path d="M13.1245 13.125C13.1245 13.3475 13.0585 13.565 12.9349 13.75C12.8112 13.935 12.6355 14.0792 12.43 14.1644C12.2244 14.2495 11.9982 14.2718 11.78 14.2284C11.5617 14.185 11.3613 14.0778 11.204 13.9205C11.0466 13.7632 10.9395 13.5627 10.8961 13.3445C10.8527 13.1262 10.8749 12.9 10.9601 12.6945C11.0452 12.4889 11.1894 12.3132 11.3744 12.1896C11.5594 12.066 11.7769 12 11.9995 12C12.2977 12.0003 12.5837 12.119 12.7946 12.3299C13.0055 12.5408 13.1241 12.8267 13.1245 13.125ZM20.9995 9V19.5C20.999 19.8977 20.8408 20.279 20.5596 20.5602C20.2784 20.8414 19.8971 20.9995 19.4995 21H4.49945C4.10177 20.9995 3.7205 20.8414 3.43929 20.5602C3.15809 20.279 2.99991 19.8977 2.99945 19.5V9C2.99991 8.60231 3.15809 8.22105 3.43929 7.93984C3.7205 7.65864 4.10177 7.50045 4.49945 7.5H7.87445V4.875C7.87445 3.78098 8.30905 2.73177 9.08263 1.95818C9.85622 1.1846 10.9054 0.75 11.9995 0.75C13.0935 0.75 14.1427 1.1846 14.9163 1.95818C15.6899 2.73177 16.1245 3.78098 16.1245 4.875C16.1245 5.07391 16.0454 5.26468 15.9048 5.40533C15.7641 5.54598 15.5734 5.625 15.3745 5.625C15.1755 5.625 14.9848 5.54598 14.8441 5.40533C14.7035 5.26468 14.6245 5.07391 14.6245 4.875C14.6245 4.17881 14.3479 3.51113 13.8556 3.01884C13.3633 2.52656 12.6956 2.25 11.9995 2.25C11.3033 2.25 10.6356 2.52656 10.1433 3.01884C9.65101 3.51113 9.37445 4.17881 9.37445 4.875V7.5H19.4995C19.8971 7.50045 20.2784 7.65864 20.5596 7.93984C20.8408 8.22105 20.999 8.60231 20.9995 9ZM14.6245 13.125C14.6245 12.6382 14.4892 12.1609 14.2336 11.7465C13.978 11.3322 13.6122 10.9971 13.1771 10.7787C12.742 10.5603 12.2547 10.4671 11.7698 10.5097C11.2848 10.5523 10.8212 10.729 10.4308 11.0199C10.0405 11.3108 9.73872 11.7046 9.55927 12.1571C9.37983 12.6097 9.32977 13.1032 9.41471 13.5826C9.49964 14.062 9.71621 14.5083 10.0402 14.8717C10.3642 15.2351 10.7829 15.5012 11.2495 15.6403V17.25C11.2495 17.4489 11.3285 17.6397 11.4691 17.7803C11.6098 17.921 11.8005 18 11.9995 18C12.1984 18 12.3891 17.921 12.5298 17.7803C12.6704 17.6397 12.7495 17.4489 12.7495 17.25V15.6403C13.2908 15.4781 13.7655 15.146 14.1032 14.6929C14.4409 14.2399 14.6237 13.6901 14.6245 13.125Z" fill="#1D1F21" style="fill: var(--ui-icon-primary-color);"/>
</svg>
