<svg  viewBox="0 0 24 24" fill="none" xmlns="http://www.w3.org/2000/svg" id="__THIS_ID_NEEDS_FOR_UI_ICON_COMPONENT__">
<path d="M18.75 21H14.1131C14.8932 20.3046 15.629 19.5609 16.3159 18.7734C18.8896 15.8136 20.25 12.6934 20.25 9.75C20.25 7.56196 19.3808 5.46354 17.8336 3.91637C16.2864 2.36919 14.188 1.5 12 1.5C9.81193 1.5 7.71351 2.36919 6.16634 3.91637C4.61916 5.46354 3.74997 7.56196 3.74997 9.75C3.74997 12.6934 5.11035 15.8136 7.68399 18.7734C8.37099 19.5609 9.10673 20.3046 9.88687 21H5.24997C5.05106 21 4.86029 21.079 4.71964 21.2197C4.57899 21.3603 4.49997 21.5511 4.49997 21.75C4.49997 21.9489 4.57899 22.1397 4.71964 22.2803C4.86029 22.421 5.05106 22.5 5.24997 22.5H18.75C18.9489 22.5 19.1396 22.421 19.2803 22.2803C19.421 22.1397 19.5 21.9489 19.5 21.75C19.5 21.5511 19.421 21.3603 19.2803 21.2197C19.1396 21.079 18.9489 21 18.75 21ZM12 6.75C12.5933 6.75 13.1734 6.92595 13.6667 7.25559C14.1601 7.58524 14.5446 8.05377 14.7716 8.60195C14.9987 9.15013 15.0581 9.75333 14.9423 10.3353C14.8266 10.9172 14.5409 11.4518 14.1213 11.8713C13.7018 12.2909 13.1672 12.5766 12.5853 12.6924C12.0033 12.8081 11.4001 12.7487 10.8519 12.5216C10.3038 12.2946 9.83523 11.9101 9.50558 11.4167C9.17594 10.9234 8.99999 10.3433 8.99999 9.75C8.99999 9.35603 9.07758 8.96592 9.22835 8.60194C9.37911 8.23797 9.60009 7.90725 9.87866 7.62867C10.1572 7.3501 10.488 7.12912 10.8519 6.97835C11.2159 6.82759 11.606 6.75 12 6.75Z" fill="#1D1F21" style="fill: var(--ui-icon-primary-color);"/>
</svg>
