<svg  viewBox="0 0 24 24" fill="none" xmlns="http://www.w3.org/2000/svg" id="__THIS_ID_NEEDS_FOR_UI_ICON_COMPONENT__">
<path d="M7.49942 11.9995V5.99951C7.49942 5.40856 7.61582 4.8234 7.84197 4.27744C8.06811 3.73147 8.39958 3.23539 8.81744 2.81753C9.23531 2.39967 9.73138 2.0682 10.2773 1.84205C10.8233 1.61591 11.4085 1.49951 11.9994 1.49951C12.5904 1.49951 13.1755 1.61591 13.7215 1.84205C14.2675 2.0682 14.7635 2.39967 15.1814 2.81753C15.5993 3.23539 15.9307 3.73147 16.1569 4.27744C16.383 4.8234 16.4994 5.40856 16.4994 5.99951V12.0002C16.4993 13.1937 16.0251 14.3383 15.1811 15.1821C14.3372 16.026 13.1925 16.5 11.9991 16.4999C10.8056 16.4998 9.66103 16.0256 8.81718 15.1816C7.97334 14.3376 7.49933 13.193 7.49942 11.9995ZM18.7904 12.0046C18.5931 11.9848 18.3958 12.0432 18.241 12.1673C18.0863 12.2914 17.9864 12.4713 17.9628 12.6682C17.7982 14.1346 17.099 15.489 15.9988 16.4725C14.8987 17.456 13.4747 17.9996 11.9991 17.9995C10.5234 17.9994 9.09957 17.4556 7.99955 16.472C6.89953 15.4884 6.2005 14.1339 6.03605 12.6675C6.01184 12.4709 5.91173 12.2915 5.75711 12.1676C5.60248 12.0438 5.40557 11.9853 5.20841 12.0046C5.01062 12.0266 4.82964 12.1262 4.70522 12.2815C4.5808 12.4368 4.52311 12.6352 4.54483 12.833C4.73575 14.5349 5.50625 16.1194 6.72704 17.3206C7.94783 18.5217 9.54461 19.2664 11.2494 19.4297V21.7495C11.2494 21.9484 11.3284 22.1392 11.4691 22.2798C11.6097 22.4205 11.8005 22.4995 11.9994 22.4995C12.1983 22.4995 12.3891 22.4205 12.5298 22.2798C12.6704 22.1392 12.7494 21.9484 12.7494 21.7495V19.4298C14.4545 19.2668 16.0516 18.5222 17.2725 17.3208C18.4934 16.1194 19.2637 14.5345 19.454 12.8323C19.4757 12.6345 19.418 12.4363 19.2936 12.2811C19.1691 12.1259 18.9882 12.0264 18.7904 12.0046Z" fill="#1D1F21" style="fill: var(--ui-icon-primary-color);"/>
</svg>
