<svg  viewBox="0 0 24 24" fill="none" xmlns="http://www.w3.org/2000/svg" id="__THIS_ID_NEEDS_FOR_UI_ICON_COMPONENT__">
<path d="M13.875 13.875C13.875 14.2458 13.765 14.6084 13.559 14.9167C13.353 15.225 13.0601 15.4654 12.7175 15.6073C12.3749 15.7492 11.9979 15.7863 11.6342 15.714C11.2705 15.6416 10.9364 15.463 10.6742 15.2008C10.412 14.9386 10.2334 14.6045 10.161 14.2408C10.0887 13.8771 10.1258 13.5001 10.2677 13.1575C10.4096 12.8149 10.65 12.522 10.9583 12.316C11.2666 12.11 11.6292 12 12 12C12.4971 12.0006 12.9737 12.1983 13.3252 12.5498C13.6767 12.9013 13.8744 13.3779 13.875 13.875ZM21 4.5V19.5C20.9995 19.8977 20.8414 20.279 20.5602 20.5602C20.279 20.8414 19.8977 20.9995 19.5 21H4.5C4.10231 20.9995 3.72105 20.8414 3.43984 20.5602C3.15864 20.279 3.00045 19.8977 3 19.5V4.5C3.00045 4.10231 3.15864 3.72105 3.43984 3.43984C3.72105 3.15864 4.10231 3.00045 4.5 3H19.5C19.8977 3.00045 20.279 3.15864 20.5602 3.43984C20.8414 3.72105 20.9995 4.10231 21 4.5ZM15.375 13.875C15.374 12.9802 15.0181 12.1223 14.3854 11.4896C13.7527 10.8569 12.8948 10.501 12 10.5C11.9428 10.5 11.886 10.5014 11.8295 10.5043L13.394 7.88388C13.4957 7.7131 13.5254 7.50893 13.4767 7.31623C13.4279 7.12353 13.3047 6.95806 13.134 6.85618C12.9633 6.75429 12.7592 6.72433 12.5664 6.77286C12.3737 6.82139 12.2081 6.94446 12.106 7.11502L9.08304 12.1783C9.07727 12.1879 9.07269 12.1979 9.0674 12.2077C8.81201 12.6569 8.66317 13.1587 8.63235 13.6744C8.60154 14.1902 8.68957 14.7061 8.88966 15.1825C9.08976 15.6588 9.39657 16.0829 9.78645 16.4219C10.1763 16.7609 10.6388 17.0059 11.1384 17.138C11.6379 17.27 12.161 17.2856 12.6675 17.1834C13.174 17.0813 13.6503 16.8643 14.0596 16.549C14.469 16.2338 14.8004 15.8287 15.0285 15.3651C15.2566 14.9015 15.3751 14.3917 15.375 13.875Z" fill="#1D1F21" style="fill: var(--ui-icon-primary-color);"/>
</svg>
