<svg  viewBox="0 0 24 24" fill="none" xmlns="http://www.w3.org/2000/svg" id="__THIS_ID_NEEDS_FOR_UI_ICON_COMPONENT__">
<path d="M16.875 9.00023V21.0002C16.875 21.1991 16.796 21.3899 16.6554 21.5306C16.5147 21.6712 16.324 21.7502 16.125 21.7502C15.9261 21.7502 15.7354 21.6712 15.5947 21.5306C15.4541 21.3899 15.375 21.1991 15.375 21.0002V15.7502H7.12504C7.00509 15.7502 6.8869 15.7214 6.78038 15.6663C6.67385 15.6112 6.5821 15.5313 6.51282 15.4334C6.44354 15.3355 6.39876 15.2224 6.38222 15.1036C6.36569 14.9848 6.37788 14.8638 6.41779 14.7507L10.9175 2.00066C10.9839 1.81328 11.1219 1.6599 11.3012 1.57423C11.4806 1.48855 11.6866 1.47757 11.8741 1.54372C12.0615 1.60987 12.215 1.74772 12.3009 1.92699C12.3868 2.10626 12.398 2.31229 12.332 2.49981L8.18503 14.2502H15.375V9.00023C15.375 8.80132 15.4541 8.61056 15.5947 8.4699C15.7354 8.32925 15.9261 8.25023 16.125 8.25023C16.324 8.25023 16.5147 8.32925 16.6554 8.4699C16.796 8.61056 16.875 8.80132 16.875 9.00023Z" fill="#1D1F21" style="fill: var(--ui-icon-primary-color);"/>
</svg>
