<svg  viewBox="0 0 24 24" fill="none" xmlns="http://www.w3.org/2000/svg" id="__THIS_ID_NEEDS_FOR_UI_ICON_COMPONENT__">
<path d="M13.875 13.5C13.875 13.8708 13.765 14.2334 13.559 14.5417C13.3529 14.85 13.0601 15.0904 12.7175 15.2323C12.3749 15.3742 11.9979 15.4113 11.6342 15.339C11.2704 15.2666 10.9364 15.088 10.6741 14.8258C10.4119 14.5636 10.2333 14.2295 10.161 13.8658C10.0886 13.5021 10.1258 13.1251 10.2677 12.7825C10.4096 12.4399 10.6499 12.147 10.9583 11.941C11.2666 11.735 11.6291 11.625 12 11.625C12.4971 11.6256 12.9737 11.8233 13.3252 12.1748C13.6767 12.5263 13.8744 13.0029 13.875 13.5ZM21.75 12C21.75 13.9284 21.1781 15.8134 20.1068 17.4168C19.0354 19.0202 17.5127 20.2699 15.7311 21.0078C13.9495 21.7458 11.9891 21.9389 10.0978 21.5627C8.20651 21.1865 6.46923 20.2579 5.10567 18.8943C3.74211 17.5307 2.81351 15.7934 2.4373 13.9021C2.0611 12.0108 2.25418 10.0504 2.99213 8.26884C3.73009 6.48726 4.97977 4.96451 6.58315 3.89317C8.18653 2.82183 10.0716 2.25 12 2.25C14.5849 2.25293 17.0632 3.28109 18.891 5.10894C20.7189 6.93679 21.747 9.41504 21.75 12ZM15.375 13.5C15.374 12.6052 15.018 11.7473 14.3853 11.1146C13.7526 10.4819 12.8948 10.126 12 10.125C11.9426 10.125 11.8857 10.1264 11.829 10.1293L13.3938 7.50961C13.4444 7.42506 13.4777 7.33138 13.492 7.23393C13.5063 7.13648 13.5013 7.03717 13.4772 6.94166C13.4531 6.84616 13.4105 6.75633 13.3517 6.67731C13.2929 6.59829 13.2191 6.53162 13.1346 6.48111C13.05 6.4306 12.9563 6.39724 12.8589 6.38294C12.7614 6.36863 12.6621 6.37366 12.5666 6.39774C12.4711 6.42181 12.3813 6.46447 12.3023 6.52326C12.2232 6.58205 12.1566 6.65583 12.1061 6.74039L9.08273 11.8019C9.07227 11.8194 9.06325 11.8373 9.05439 11.8553C8.803 12.3054 8.65811 12.8072 8.63084 13.3221C8.60356 13.8369 8.69463 14.3512 8.89705 14.8254C9.09947 15.2996 9.40786 15.7211 9.79854 16.0575C10.1892 16.394 10.6518 16.6364 11.1508 16.7663C11.6497 16.8961 12.1718 16.9099 12.6769 16.8065C13.1821 16.7032 13.6568 16.4854 14.0646 16.1701C14.4725 15.8547 14.8027 15.45 15.0298 14.9872C15.257 14.5243 15.375 14.0156 15.375 13.5Z" fill="#1D1F21" style="fill: var(--ui-icon-primary-color);"/>
</svg>
