<svg  viewBox="0 0 24 24" fill="none" xmlns="http://www.w3.org/2000/svg" id="__THIS_ID_NEEDS_FOR_UI_ICON_COMPONENT__">
<path d="M14.25 12C14.25 13.3931 13.7761 15.75 12 15.75C10.2238 15.75 9.74996 13.3931 9.74996 12C9.74996 10.6069 10.2238 8.25 12 8.25C13.7761 8.25 14.25 10.6069 14.25 12ZM21.75 12C21.75 13.9284 21.1781 15.8134 20.1068 17.4168C19.0354 19.0202 17.5127 20.2699 15.7311 21.0078C13.9495 21.7458 11.9891 21.9389 10.0978 21.5627C8.20651 21.1865 6.46923 20.2579 5.10567 18.8943C3.74211 17.5307 2.81351 15.7934 2.4373 13.9021C2.0611 12.0108 2.25418 10.0504 2.99213 8.26884C3.73009 6.48726 4.97977 4.96451 6.58315 3.89317C8.18653 2.82183 10.0716 2.25 12 2.25C14.5849 2.25299 17.0631 3.28118 18.8909 5.10901C20.7188 6.93684 21.747 9.41506 21.75 12ZM15.75 12C15.75 9.38672 14.5905 6.75 12 6.75C9.40938 6.75 8.24996 9.38672 8.24996 12C8.24996 14.6133 9.40938 17.25 12 17.25C14.5905 17.25 15.75 14.6133 15.75 12Z" fill="#1D1F21" style="fill: var(--ui-icon-primary-color);"/>
</svg>
