<svg  viewBox="0 0 24 24" fill="none" xmlns="http://www.w3.org/2000/svg" id="__THIS_ID_NEEDS_FOR_UI_ICON_COMPONENT__">
<path d="M21.75 8.58252V15.4175C21.7488 15.815 21.5909 16.1961 21.3105 16.478L16.478 21.3105C16.1961 21.5909 15.815 21.7488 15.4175 21.75H8.58252C8.18495 21.7488 7.8039 21.5909 7.52197 21.3105L2.68945 16.478C2.40913 16.1961 2.25124 15.815 2.25 15.4175V8.58252C2.25124 8.18495 2.40913 7.8039 2.68945 7.52197L7.52197 2.68945C7.8039 2.40913 8.18495 2.25124 8.58252 2.25H15.4175C15.815 2.25124 16.1961 2.40913 16.478 2.68945L21.3105 7.52197C21.5909 7.8039 21.7488 8.18495 21.75 8.58252Z" fill="#1D1F21" style="fill: var(--ui-icon-primary-color);"/>
</svg>
