<svg  viewBox="0 0 24 24" fill="none" xmlns="http://www.w3.org/2000/svg" id="__THIS_ID_NEEDS_FOR_UI_ICON_COMPONENT__">
<path d="M21.1711 6.82811C21.1681 6.82267 21.1658 6.81703 21.1627 6.81159C21.1602 6.80715 21.1571 6.80316 21.1545 6.79877C21.0211 6.57297 20.8307 6.38612 20.6025 6.25687L12.7275 1.80585C12.5021 1.67928 12.2479 1.6128 11.9894 1.61279C11.7309 1.61278 11.4767 1.67925 11.2513 1.8058L3.37622 6.25696C3.14413 6.38831 2.95128 6.5792 2.81757 6.80994C2.81615 6.81241 2.81445 6.81461 2.81308 6.81708C2.81065 6.82143 2.80885 6.82596 2.80651 6.83035C2.68083 7.05402 2.61469 7.30622 2.61441 7.56278V16.4375C2.61467 16.7031 2.68532 16.9639 2.81915 17.1933C2.95299 17.4227 3.14524 17.6125 3.37632 17.7434L11.2513 22.1945C11.461 22.3124 11.6961 22.378 11.9366 22.3858C11.9516 22.3869 11.9664 22.3884 11.9816 22.3885C11.9843 22.3886 11.9869 22.3886 11.9896 22.3886C12.01 22.3886 12.03 22.3872 12.0499 22.3856C12.2878 22.3766 12.5201 22.3111 12.7275 22.1945L20.6026 17.7433C20.8337 17.6124 21.0259 17.4226 21.1597 17.1932C21.2935 16.9639 21.3642 16.7031 21.3644 16.4375V7.56278C21.3641 7.30535 21.2976 7.05233 21.1711 6.82811ZM11.9894 3.11167L19.0969 7.12895L16.5915 8.56153L9.42859 4.55911L11.9894 3.11167ZM12.0846 11.1386L4.89524 7.1214L7.89985 5.42314L15.0717 9.43059L12.0846 11.1386ZM12.7517 20.4578L12.8345 12.4378L15.8458 10.7159V13.923C15.8458 14.122 15.9248 14.3127 16.0655 14.4534C16.2061 14.594 16.3969 14.673 16.5958 14.673C16.7947 14.673 16.9855 14.594 17.1261 14.4534C17.2668 14.3127 17.3458 14.122 17.3458 13.923V9.85814L19.8644 8.41797V16.4375L12.7517 20.4578Z" fill="#1D1F21" style="fill: var(--ui-icon-primary-color);"/>
</svg>
