<svg  viewBox="0 0 24 24" fill="none" xmlns="http://www.w3.org/2000/svg" id="__THIS_ID_NEEDS_FOR_UI_ICON_COMPONENT__">
<path d="M21.3583 4.49214L16.4314 21.9604C16.35 22.2552 16.1799 22.5177 15.944 22.7123C15.7081 22.9069 15.418 23.0241 15.1132 23.048C15.0697 23.0516 15.0265 23.0534 14.9835 23.0534C14.6998 23.0542 14.4219 22.9739 14.1824 22.8218C13.943 22.6698 13.752 22.4524 13.6321 22.1953L10.1713 14.8891L15.1665 9.89384C15.2361 9.8242 15.2914 9.74151 15.3291 9.65051C15.3668 9.55951 15.3862 9.46198 15.3862 9.36348C15.3862 9.26498 15.3668 9.16745 15.3291 9.07645C15.2914 8.98545 15.2361 8.90276 15.1665 8.83311C15.0968 8.76347 15.0142 8.70822 14.9232 8.67052C14.8321 8.63283 14.7346 8.61343 14.6361 8.61343C14.5376 8.61343 14.4401 8.63283 14.3491 8.67052C14.2581 8.70822 14.1754 8.76347 14.1058 8.83311L9.11055 13.8283L1.80427 10.3674C1.52829 10.2367 1.29877 10.0249 1.14641 9.76023C0.99405 9.49558 0.926097 9.19073 0.951636 8.88642C0.977176 8.58211 1.09499 8.29285 1.28933 8.05729C1.48367 7.82174 1.74528 7.65111 2.0392 7.56822L19.5075 2.64131C19.7641 2.56891 20.0354 2.56623 20.2934 2.63354C20.5514 2.70086 20.7868 2.83573 20.9753 3.02428C21.1639 3.21282 21.2987 3.44822 21.3661 3.70622C21.4334 3.96423 21.4307 4.23552 21.3583 4.49214Z" fill="#1D1F21" style="fill: var(--ui-icon-primary-color);"/>
</svg>
