<svg  viewBox="0 0 24 24" fill="none" xmlns="http://www.w3.org/2000/svg" id="__THIS_ID_NEEDS_FOR_UI_ICON_COMPONENT__">
<path d="M12 2.25C10.0716 2.25 8.18653 2.82183 6.58315 3.89317C4.97977 4.96451 3.73009 6.48726 2.99213 8.26884C2.25418 10.0504 2.0611 12.0108 2.4373 13.9021C2.81351 15.7934 3.74211 17.5307 5.10567 18.8943C6.46923 20.2579 8.20651 21.1865 10.0978 21.5627C11.9891 21.9389 13.9495 21.7458 15.7311 21.0078C17.5127 20.2699 19.0354 19.0202 20.1068 17.4168C21.1781 15.8134 21.75 13.9284 21.75 12C21.747 9.41506 20.7188 6.93684 18.8909 5.10901C17.0631 3.28118 14.5849 2.25299 12 2.25ZM15.416 12.624L10.916 15.624C10.8031 15.6995 10.6718 15.7428 10.5361 15.7494C10.4005 15.756 10.2656 15.7257 10.1459 15.6616C10.0261 15.5975 9.92607 15.5021 9.85634 15.3856C9.78661 15.2691 9.74984 15.1358 9.74996 15V9C9.74984 8.8642 9.78661 8.73092 9.85634 8.6144C9.92607 8.49787 10.0261 8.40248 10.1459 8.3384C10.2656 8.27433 10.4005 8.24398 10.5361 8.2506C10.6718 8.25721 10.8031 8.30055 10.916 8.37598L15.416 11.376C15.5187 11.4445 15.6029 11.5373 15.6612 11.6461C15.7195 11.755 15.75 11.8765 15.75 12C15.75 12.1235 15.7195 12.245 15.6612 12.3539C15.6029 12.4627 15.5187 12.5555 15.416 12.624Z" fill="#1D1F21" style="fill: var(--ui-icon-primary-color);"/>
</svg>
