<svg  viewBox="0 0 24 24" fill="none" xmlns="http://www.w3.org/2000/svg" id="__THIS_ID_NEEDS_FOR_UI_ICON_COMPONENT__">
<path d="M2.25 12C2.25202 10.2104 2.96382 8.49471 4.22926 7.22927C5.49469 5.96384 7.21041 5.25203 9 5.25002H19.1893L18.2196 4.28034C18.15 4.21069 18.0947 4.128 18.0571 4.03701C18.0194 3.94601 18 3.84848 18 3.74998C18 3.55107 18.079 3.3603 18.2197 3.21965C18.3603 3.079 18.5511 2.99999 18.75 3C18.9489 3.00001 19.1397 3.07904 19.2804 3.2197L21.5304 5.4697C21.5326 5.47194 21.5345 5.47446 21.5367 5.4767C21.5517 5.49208 21.5662 5.50783 21.5798 5.52445C21.5877 5.53406 21.5946 5.54418 21.602 5.55406C21.6092 5.56377 21.6167 5.57324 21.6235 5.58331C21.6312 5.5948 21.6379 5.60671 21.6449 5.61847C21.6503 5.62772 21.6561 5.63669 21.6612 5.64616C21.6676 5.65807 21.673 5.67029 21.6787 5.68242C21.6834 5.69249 21.6885 5.70238 21.6928 5.71272C21.6976 5.72449 21.7016 5.73648 21.7058 5.74843C21.7098 5.7596 21.7141 5.77058 21.7176 5.78198C21.7212 5.79402 21.7239 5.80629 21.7269 5.81847C21.7298 5.83 21.7331 5.84145 21.7354 5.85321C21.7382 5.86736 21.74 5.88168 21.7419 5.89601C21.7433 5.90595 21.7453 5.9157 21.7462 5.92577C21.7511 5.97515 21.7511 6.02489 21.7462 6.07427C21.7453 6.08434 21.7433 6.09409 21.7419 6.10402C21.74 6.11835 21.7382 6.13268 21.7354 6.14682C21.7331 6.15859 21.7298 6.17003 21.7269 6.18157C21.7239 6.19374 21.7212 6.20601 21.7176 6.21805C21.7141 6.22945 21.7098 6.24044 21.7058 6.2516C21.7016 6.26355 21.6976 6.27555 21.6928 6.28731C21.6885 6.29766 21.6834 6.30754 21.6787 6.31761C21.673 6.32975 21.6676 6.34197 21.6612 6.35387C21.6561 6.36334 21.6503 6.37232 21.6449 6.38156C21.6379 6.39333 21.6312 6.40523 21.6235 6.41672C21.6167 6.42679 21.6092 6.43627 21.602 6.44597C21.5946 6.45586 21.5877 6.46597 21.5798 6.47559C21.5665 6.49188 21.5522 6.50735 21.5375 6.52242C21.535 6.52498 21.5329 6.52782 21.5304 6.53034L19.2804 8.78034C19.2107 8.84998 19.128 8.90523 19.037 8.94293C18.9461 8.98062 18.8485 9.00003 18.75 9.00003C18.6515 9.00004 18.554 8.98064 18.463 8.94295C18.372 8.90527 18.2893 8.85002 18.2197 8.78038C18.15 8.71074 18.0948 8.62806 18.0571 8.53706C18.0194 8.44607 18 8.34854 18 8.25005C18 8.05113 18.079 7.86036 18.2196 7.7197L19.1893 6.75002H9C7.60809 6.75159 6.27365 7.30521 5.28942 8.28944C4.3052 9.27367 3.75157 10.6081 3.75 12C3.75 12.1989 3.67098 12.3897 3.53033 12.5303C3.38968 12.671 3.19891 12.75 3 12.75C2.80109 12.75 2.61032 12.671 2.46967 12.5303C2.32902 12.3897 2.25 12.1989 2.25 12ZM21 11.25C20.8011 11.25 20.6103 11.329 20.4697 11.4697C20.329 11.6103 20.25 11.8011 20.25 12C20.2484 13.3919 19.6948 14.7264 18.7106 15.7106C17.7264 16.6948 16.3919 17.2484 15 17.25H4.81066L5.78037 16.2803C5.92101 16.1397 6.00003 15.9489 6.00002 15.75C6.00001 15.5511 5.92098 15.3603 5.78032 15.2197C5.63966 15.079 5.44888 15 5.24997 15C5.05105 15 4.86028 15.079 4.71963 15.2197L2.46963 17.4697C2.46739 17.4719 2.46552 17.4745 2.4633 17.4767C2.44833 17.4921 2.43377 17.5078 2.42015 17.5244C2.41225 17.5341 2.40537 17.5442 2.39802 17.5541C2.39079 17.5638 2.38326 17.5732 2.3765 17.5833C2.36882 17.5948 2.36213 17.6067 2.35515 17.6185C2.34966 17.6277 2.34386 17.6367 2.33878 17.6462C2.3324 17.6581 2.327 17.6703 2.3213 17.6824C2.31658 17.6925 2.31152 17.7024 2.30724 17.7127C2.30237 17.7245 2.29843 17.7365 2.29417 17.7484C2.29019 17.7596 2.28589 17.7706 2.28243 17.782C2.27879 17.794 2.27609 17.8063 2.27307 17.8185C2.27019 17.83 2.26691 17.8414 2.26458 17.8532C2.26177 17.8674 2.26002 17.8817 2.25806 17.896C2.25666 17.9059 2.25474 17.9157 2.25375 17.9258C2.24886 17.9751 2.24886 18.0249 2.25375 18.0743C2.25474 18.0843 2.25666 18.0941 2.25806 18.104C2.26003 18.1183 2.26176 18.1327 2.26458 18.1468C2.26691 18.1586 2.27019 18.17 2.27307 18.1816C2.27609 18.1937 2.27879 18.206 2.28243 18.2181C2.28589 18.2294 2.29019 18.2404 2.29417 18.2516C2.29843 18.2636 2.30237 18.2755 2.30724 18.2873C2.31152 18.2977 2.31658 18.3075 2.3213 18.3176C2.327 18.3297 2.3324 18.342 2.33878 18.3539C2.34386 18.3633 2.34966 18.3723 2.35515 18.3816C2.36213 18.3933 2.36881 18.4052 2.3765 18.4167C2.38325 18.4268 2.39079 18.4363 2.39802 18.446C2.40537 18.4559 2.41225 18.466 2.42015 18.4756C2.43352 18.4919 2.44782 18.5074 2.46249 18.5224C2.46499 18.525 2.46709 18.5278 2.46963 18.5303L4.71963 20.7803C4.78928 20.85 4.87196 20.9052 4.96295 20.9429C5.05395 20.9806 5.15147 21 5.24997 21C5.34846 21 5.44599 20.9806 5.53699 20.943C5.62799 20.9053 5.71067 20.85 5.78032 20.7804C5.84997 20.7107 5.90522 20.6281 5.94291 20.5371C5.98061 20.4461 6.00001 20.3485 6.00002 20.25C6.00002 20.1516 5.98063 20.054 5.94294 19.963C5.90525 19.872 5.85001 19.7893 5.78037 19.7197L4.81066 18.75H15C16.7896 18.748 18.5053 18.0362 19.7707 16.7708C21.0362 15.5053 21.748 13.7896 21.75 12C21.75 11.8011 21.671 11.6103 21.5303 11.4697C21.3897 11.329 21.1989 11.25 21 11.25Z" fill="#1D1F21" style="fill: var(--ui-icon-primary-color);"/>
</svg>
