<svg  viewBox="0 0 24 24" fill="none" xmlns="http://www.w3.org/2000/svg" id="__THIS_ID_NEEDS_FOR_UI_ICON_COMPONENT__">
<path d="M9.52953 17.5414C9.01821 19.0752 7.79974 20.202 6.00576 20.7999C5.20111 21.066 4.36188 21.213 3.5147 21.2362C3.31579 21.2362 3.12503 21.1572 2.98438 21.0165C2.84373 20.8759 2.76471 20.6851 2.7647 20.4862C2.78792 19.639 2.93489 18.7998 3.20095 17.9951C3.79897 16.2011 4.92571 14.9826 6.45949 14.4714C6.55295 14.4401 6.65165 14.4276 6.74994 14.4346C6.84823 14.4415 6.94419 14.4677 7.03234 14.5118C7.12048 14.5558 7.19909 14.6168 7.26367 14.6912C7.32824 14.7656 7.37752 14.852 7.40868 14.9455C7.43985 15.039 7.45229 15.1377 7.44529 15.236C7.43829 15.3343 7.412 15.4302 7.36791 15.5183C7.32382 15.6065 7.2628 15.685 7.18833 15.7496C7.11387 15.8141 7.02742 15.8633 6.93392 15.8944C5.09096 16.5087 4.52013 18.5091 4.34362 19.6574C5.49132 19.4809 7.49212 18.9101 8.10643 17.0671C8.13752 16.9736 8.18673 16.8871 8.25125 16.8126C8.31577 16.7381 8.39434 16.6771 8.48246 16.633C8.57059 16.5889 8.66654 16.5625 8.76484 16.5555C8.86313 16.5485 8.96185 16.561 9.05534 16.5921C9.14883 16.6233 9.23526 16.6726 9.3097 16.7371C9.38413 16.8017 9.44511 16.8803 9.48915 16.9685C9.53319 17.0567 9.55942 17.1526 9.56635 17.2509C9.57328 17.3492 9.56077 17.4479 9.52953 17.5414L9.52953 17.5414ZM18.8943 10.4099L18.0533 11.2509V16.9935C18.0538 17.1906 18.0153 17.3858 17.9399 17.5678C17.8645 17.7499 17.7537 17.9152 17.614 18.0541L14.582 21.0862C14.39 21.2782 14.1495 21.4145 13.8861 21.4806C13.6228 21.5466 13.3464 21.5399 13.0866 21.4613C12.8267 21.3826 12.5931 21.2349 12.4106 21.0338C12.2281 20.8328 12.1036 20.586 12.0503 20.3198L11.3091 16.6133L7.38754 12.6918L3.68114 11.9505C3.41492 11.8973 3.16814 11.7728 2.96712 11.5903C2.76609 11.4078 2.61836 11.1742 2.53968 10.9144C2.461 10.6545 2.45431 10.3782 2.52033 10.1148C2.58635 9.8515 2.72261 9.61102 2.91457 9.41903L5.94662 6.38694C6.08561 6.24723 6.25092 6.13647 6.43299 6.06107C6.61506 5.98566 6.81028 5.9471 7.00735 5.94762H12.7499L13.5909 5.10662C16.271 2.42664 19.0212 2.50437 20.0792 2.66225C20.3969 2.70835 20.6911 2.85586 20.918 3.0828C21.145 3.30973 21.2925 3.60394 21.3386 3.92156C21.4966 4.97963 21.5744 7.72978 18.8943 10.4099ZM3.9753 10.4797L7.51082 11.1867L11.2499 7.44762H7.00735L3.9753 10.4797ZM16.5533 12.7509L12.8141 16.4901L13.5212 20.0256L16.5533 16.9935L16.5533 12.7509Z" fill="#1D1F21" style="fill: var(--ui-icon-primary-color);"/>
</svg>
