<svg  viewBox="0 0 24 24" fill="none" xmlns="http://www.w3.org/2000/svg" id="__THIS_ID_NEEDS_FOR_UI_ICON_COMPONENT__">
<path d="M21 16.124C21 16.3229 20.9209 16.5137 20.7803 16.6544C20.6396 16.795 20.4489 16.874 20.25 16.874H18.2652C18.1038 17.4157 17.7718 17.8909 17.3186 18.2287C16.8654 18.5665 16.3152 18.749 15.75 18.749C15.1847 18.749 14.6345 18.5665 14.1813 18.2287C13.7281 17.8909 13.3961 17.4157 13.2347 16.874H3.74995C3.55104 16.874 3.36028 16.795 3.21962 16.6544C3.07897 16.5137 2.99995 16.3229 2.99995 16.124C2.99995 15.9251 3.07897 15.7343 3.21962 15.5937C3.36028 15.453 3.55104 15.374 3.74995 15.374H13.2347C13.3961 14.8323 13.7281 14.3572 14.1813 14.0193C14.6345 13.6815 15.1847 13.499 15.75 13.499C16.3152 13.499 16.8654 13.6815 17.3186 14.0193C17.7718 14.3572 18.1038 14.8323 18.2652 15.374H20.25C20.4489 15.374 20.6396 15.453 20.7803 15.5937C20.9209 15.7343 21 15.9251 21 16.124ZM3.74991 8.62393L7.23468 8.62402C7.39612 9.16574 7.72814 9.64086 8.18134 9.9787C8.63453 10.3165 9.18469 10.499 9.74995 10.499C10.3152 10.499 10.8654 10.3165 11.3186 9.9787C11.7718 9.64086 12.1038 9.16574 12.2652 8.62402L20.25 8.62393C20.4489 8.62393 20.6396 8.54491 20.7803 8.40426C20.9209 8.26361 21 8.07284 21 7.87393C21 7.67502 20.9209 7.48425 20.7803 7.3436C20.6396 7.20295 20.4489 7.12393 20.25 7.12393L12.2652 7.12402C12.1038 6.58231 11.7718 6.10719 11.3186 5.76935C10.8654 5.43152 10.3152 5.24902 9.74995 5.24902C9.18469 5.24902 8.63453 5.43152 8.18134 5.76935C7.72814 6.10719 7.39612 6.58231 7.23468 7.12402L3.75 7.12393H3.74995C3.55104 7.12392 3.36027 7.20294 3.21962 7.34358C3.07896 7.48423 2.99994 7.67499 2.99993 7.87391C2.99993 8.07282 3.07894 8.26359 3.21959 8.40424C3.36023 8.5449 3.551 8.62392 3.74991 8.62393H3.74991Z" fill="#1D1F21" style="fill: var(--ui-icon-primary-color);"/>
</svg>
