<svg  viewBox="0 0 24 24" fill="none" xmlns="http://www.w3.org/2000/svg" id="__THIS_ID_NEEDS_FOR_UI_ICON_COMPONENT__">
<path d="M12 2.25C10.5978 2.25117 9.21243 2.55476 7.93826 3.14005C6.6641 3.72535 5.53117 4.57858 4.61675 5.64155C3.70233 6.70451 3.02793 7.95221 2.63957 9.29952C2.25121 10.6468 2.15802 12.062 2.36635 13.4487C2.57469 14.8353 3.07965 16.1606 3.84678 17.3343C4.61392 18.508 5.62518 19.5024 6.81159 20.2498C7.99801 20.9971 9.33165 21.4797 10.7216 21.6647C12.1115 21.8498 13.5249 21.7328 14.8655 21.3219C14.9826 21.286 15.0891 21.2219 15.1757 21.1353L21.1354 15.1753C21.222 15.0887 21.2861 14.9822 21.322 14.8651C21.7688 13.4067 21.8675 11.864 21.6101 10.3606C21.3527 8.8572 20.7464 7.4351 19.84 6.20843C18.9335 4.98176 17.7521 3.98468 16.3906 3.29723C15.029 2.60978 13.5253 2.25111 12 2.25ZM15.375 9C15.5975 9 15.815 9.06598 16 9.1896C16.185 9.31321 16.3292 9.48891 16.4144 9.69448C16.4995 9.90005 16.5218 10.1262 16.4784 10.3445C16.435 10.5627 16.3278 10.7632 16.1705 10.9205C16.0132 11.0778 15.8127 11.185 15.5945 11.2284C15.3763 11.2718 15.1501 11.2495 14.9445 11.1644C14.7389 11.0792 14.5632 10.935 14.4396 10.75C14.316 10.565 14.25 10.3475 14.25 10.125C14.25 9.82663 14.3685 9.54048 14.5795 9.3295C14.7905 9.11853 15.0766 9 15.375 9ZM8.62501 9C8.84751 9 9.06502 9.06598 9.25002 9.1896C9.43503 9.31321 9.57922 9.48891 9.66437 9.69448C9.74952 9.90005 9.7718 10.1262 9.72839 10.3445C9.68498 10.5627 9.57784 10.7632 9.4205 10.9205C9.26317 11.0778 9.06271 11.185 8.84448 11.2284C8.62626 11.2718 8.40006 11.2495 8.19449 11.1644C7.98892 11.0792 7.81322 10.935 7.6896 10.75C7.56599 10.565 7.50001 10.3475 7.50001 10.125C7.50001 9.82663 7.61853 9.54048 7.82951 9.3295C8.04049 9.11853 8.32664 9 8.62501 9ZM16.5472 14.6252C15.9747 15.6144 15.096 16.3906 14.0438 16.8367C12.8643 17.334 11.5439 17.3837 10.3304 16.9766C9.11689 16.5694 8.0937 15.7333 7.45286 14.6253C7.35325 14.4531 7.32612 14.2484 7.37743 14.0562C7.42875 13.8641 7.55431 13.7001 7.72649 13.6005C7.89866 13.5009 8.10336 13.4738 8.29554 13.5251C8.48772 13.5764 8.65165 13.702 8.75126 13.8742C9.16052 14.5812 9.7885 15.1362 10.5406 15.4553C11.228 15.746 11.9865 15.8248 12.719 15.6816C13.4515 15.5383 14.1244 15.1796 14.6517 14.6513C14.8837 14.4193 15.0844 14.1581 15.2488 13.8741C15.3484 13.7019 15.5123 13.5764 15.7045 13.5251C15.8966 13.4737 16.1013 13.5009 16.2735 13.6005C16.4457 13.7001 16.5713 13.864 16.6226 14.0562C16.6739 14.2484 16.6468 14.4531 16.5472 14.6252V14.6252Z" fill="#1D1F21" style="fill: var(--ui-icon-primary-color);"/>
</svg>
