<svg  viewBox="0 0 24 24" fill="none" xmlns="http://www.w3.org/2000/svg" id="__THIS_ID_NEEDS_FOR_UI_ICON_COMPONENT__">
<path d="M20.9942 13.9824C21.0197 14.0775 21.0262 14.1768 21.0133 14.2744C21.0005 14.3721 20.9685 14.4662 20.9193 14.5515C20.87 14.6368 20.8044 14.7116 20.7263 14.7715C20.6482 14.8315 20.559 14.8755 20.4638 14.901L18.1147 15.5304L18.7442 17.8794C18.7698 17.9746 18.7764 18.0739 18.7636 18.1716C18.7508 18.2693 18.7189 18.3636 18.6696 18.449C18.6204 18.5343 18.5548 18.6092 18.4766 18.6692C18.3985 18.7292 18.3092 18.7732 18.214 18.7987C18.1188 18.8242 18.0195 18.8307 17.9218 18.8178C17.8241 18.8049 17.7299 18.7729 17.6446 18.7236C17.5593 18.6743 17.4845 18.6086 17.4246 18.5304C17.3646 18.4521 17.3207 18.3628 17.2953 18.2676L16.5521 15.4942L12.75 13.299V17.6893L14.7803 19.7196C14.921 19.8603 15 20.0511 15 20.25C15 20.4489 14.921 20.6397 14.7804 20.7803C14.6397 20.921 14.449 21 14.25 21C14.0511 21 13.8603 20.921 13.7197 20.7804L12 19.0607L10.2803 20.7804C10.1397 20.921 9.94889 21 9.74997 21C9.55105 21 9.36029 20.921 9.21964 20.7803C9.07899 20.6397 8.99998 20.4489 8.99999 20.25C9 20.0511 9.07902 19.8603 9.21968 19.7197L11.25 17.6893V13.299L7.44789 15.4942L6.70473 18.2676C6.65325 18.4598 6.52756 18.6236 6.3553 18.723C6.18304 18.8225 5.97832 18.8495 5.78618 18.798C5.59404 18.7465 5.43022 18.6208 5.33076 18.4486C5.2313 18.2763 5.20434 18.0716 5.25582 17.8794L5.88529 15.5304L3.53618 14.901C3.44096 14.8755 3.35168 14.8316 3.27344 14.7717C3.19521 14.7117 3.12955 14.637 3.08023 14.5517C3.03091 14.4663 2.99889 14.3721 2.986 14.2744C2.97311 14.1767 2.9796 14.0774 3.0051 13.9822C3.03061 13.887 3.07462 13.7978 3.13464 13.7196C3.19465 13.6414 3.26948 13.5758 3.35485 13.5266C3.44023 13.4774 3.53447 13.4454 3.63219 13.4326C3.72991 13.4199 3.82919 13.4264 3.92436 13.452L6.69793 14.1952L10.5001 12L6.69793 9.80486L3.92437 10.548C3.82919 10.5736 3.72991 10.5802 3.63219 10.5674C3.53447 10.5546 3.44023 10.5227 3.35486 10.4734C3.26948 10.4242 3.19465 10.3586 3.13464 10.2804C3.07462 10.2023 3.03061 10.113 3.0051 10.0178C2.9796 9.92262 2.97311 9.82333 2.986 9.72563C2.99889 9.62792 3.03091 9.53371 3.08023 9.44838C3.12956 9.36306 3.19521 9.28829 3.27345 9.22836C3.35168 9.16842 3.44096 9.12449 3.53618 9.09908L5.88529 8.46966L5.25582 6.12059C5.23022 6.02542 5.22363 5.92614 5.23642 5.82842C5.24922 5.7307 5.28115 5.63645 5.33039 5.55108C5.37962 5.46571 5.4452 5.39088 5.52338 5.33086C5.60156 5.27085 5.69079 5.22683 5.78599 5.20133C5.88119 5.17583 5.98048 5.16933 6.07819 5.18222C6.17589 5.19512 6.2701 5.22714 6.35543 5.27646C6.44075 5.32578 6.51552 5.39144 6.57545 5.46967C6.63539 5.54791 6.67932 5.63719 6.70473 5.73241L7.44789 8.50588L11.25 10.701V6.31071L9.21968 4.28038C9.07902 4.13973 9 3.94897 8.99999 3.75005C8.99998 3.55113 9.07899 3.36036 9.21964 3.2197C9.36029 3.07904 9.55105 3.00001 9.74997 3C9.94889 2.99999 10.1397 3.079 10.2803 3.21965L12 4.93938L13.7197 3.21965C13.7893 3.15001 13.872 3.09477 13.963 3.05708C14.054 3.01939 14.1515 3 14.25 3C14.3485 3 14.4461 3.01941 14.5371 3.0571C14.628 3.0948 14.7107 3.15005 14.7804 3.2197C14.85 3.28935 14.9053 3.37203 14.9429 3.46303C14.9806 3.55403 15 3.65156 15 3.75005C15 3.84854 14.9806 3.94607 14.9429 4.03707C14.9052 4.12806 14.85 4.21074 14.7803 4.28038L12.75 6.31071V10.701L16.5521 8.50588L17.2953 5.73241C17.3208 5.63727 17.3647 5.54808 17.4247 5.46994C17.4847 5.3918 17.5594 5.32623 17.6447 5.27698C17.73 5.22774 17.8242 5.19577 17.9218 5.18291C18.0195 5.17005 18.1187 5.17655 18.2138 5.20204C18.309 5.22753 18.3982 5.27151 18.4763 5.33146C18.5544 5.39142 18.62 5.46618 18.6692 5.55147C18.7185 5.63677 18.7505 5.73093 18.7633 5.82858C18.7762 5.92623 18.7697 6.02546 18.7442 6.12059L18.1147 8.46965L20.4638 9.09908C20.559 9.12449 20.6483 9.16842 20.7266 9.22835C20.8048 9.28829 20.8705 9.36306 20.9198 9.44838C20.9691 9.5337 21.0011 9.62791 21.014 9.72562C21.0269 9.82333 21.0204 9.92262 20.9949 10.0178C20.9694 10.113 20.9254 10.2023 20.8654 10.2804C20.8054 10.3586 20.7305 10.4242 20.6452 10.4734C20.5598 10.5227 20.4655 10.5546 20.3678 10.5674C20.2701 10.5802 20.1708 10.5736 20.0756 10.548L17.3021 9.80486L13.4999 12L17.3021 14.1952L20.0756 13.452C20.2678 13.4006 20.4725 13.4275 20.6447 13.527C20.817 13.6265 20.9427 13.7903 20.9942 13.9824Z" fill="#1D1F21" style="fill: var(--ui-icon-primary-color);"/>
</svg>
