<svg  viewBox="0 0 24 24" fill="none" xmlns="http://www.w3.org/2000/svg" id="__THIS_ID_NEEDS_FOR_UI_ICON_COMPONENT__">
<path d="M6.96968 7.28037C6.90003 7.21072 6.84478 7.12803 6.80708 7.03703C6.76939 6.94603 6.74999 6.8485 6.74999 6.75C6.74999 6.6515 6.76939 6.55397 6.80708 6.46297C6.84478 6.37197 6.90003 6.28928 6.96968 6.21964L11.4697 1.71964C11.4721 1.71726 11.4747 1.71524 11.4771 1.71291C11.4924 1.69803 11.508 1.68361 11.5245 1.67006C11.5335 1.66269 11.5431 1.65624 11.5523 1.64933C11.5627 1.64159 11.5728 1.63358 11.5835 1.62635C11.5942 1.61921 11.6053 1.61303 11.6163 1.60648C11.6263 1.60044 11.6362 1.59412 11.6466 1.58858C11.6574 1.58277 11.6686 1.57787 11.6797 1.57261C11.6908 1.56734 11.7018 1.5618 11.7132 1.55704C11.7237 1.55274 11.7344 1.54926 11.745 1.54546C11.7575 1.54093 11.7698 1.53612 11.7827 1.53228C11.7929 1.52917 11.8033 1.52697 11.8136 1.52431C11.827 1.52088 11.8402 1.51717 11.8539 1.51447C11.8652 1.51222 11.8767 1.51094 11.8881 1.50925C11.9009 1.50732 11.9135 1.50499 11.9265 1.50371C11.9454 1.50188 11.9644 1.50124 11.9834 1.50082C11.989 1.50073 11.9944 1.5 12 1.5C12.0056 1.5 12.011 1.50073 12.0166 1.50082C12.0356 1.50124 12.0546 1.50188 12.0735 1.50371C12.0865 1.50499 12.0991 1.50732 12.1119 1.50925C12.1233 1.51094 12.1348 1.51222 12.1461 1.51447C12.1598 1.51717 12.173 1.52087 12.1864 1.52431C12.1967 1.52696 12.2071 1.52916 12.2173 1.53228C12.2302 1.53612 12.2425 1.54093 12.255 1.54546C12.2656 1.54926 12.2763 1.55274 12.2868 1.55704C12.2982 1.5618 12.3092 1.56734 12.3203 1.57261C12.3314 1.57787 12.3426 1.58277 12.3534 1.58858C12.3638 1.59412 12.3737 1.60044 12.3837 1.60648C12.3947 1.61303 12.4058 1.61921 12.4165 1.62635C12.4272 1.63358 12.4373 1.64159 12.4477 1.64933C12.4569 1.65624 12.4665 1.66269 12.4755 1.67006C12.4922 1.68384 12.5082 1.69854 12.5237 1.71364C12.5258 1.71575 12.5282 1.71753 12.5303 1.71964L17.0303 6.21964C17.171 6.36029 17.25 6.55106 17.25 6.74998C17.25 6.94889 17.171 7.13967 17.0304 7.28033C16.8897 7.42099 16.6989 7.50002 16.5 7.50003C16.3011 7.50003 16.1103 7.42102 15.9697 7.28037L12.75 4.06064V12C12.75 12.1989 12.671 12.3897 12.5303 12.5303C12.3897 12.671 12.1989 12.75 12 12.75C11.8011 12.75 11.6103 12.671 11.4697 12.5303C11.329 12.3897 11.25 12.1989 11.25 12V4.06064L8.03032 7.28037C7.88965 7.42097 7.69889 7.49996 7.5 7.49996C7.30111 7.49996 7.11035 7.42097 6.96968 7.28037ZM22.5 12.75V18.75C22.4995 19.1477 22.3414 19.529 22.0602 19.8102C21.779 20.0914 21.3977 20.2495 21 20.25H3C2.60231 20.2495 2.22105 20.0914 1.93984 19.8102C1.65864 19.529 1.50045 19.1477 1.5 18.75V12.75C1.50045 12.3523 1.65864 11.971 1.93984 11.6898C2.22105 11.4086 2.60231 11.2505 3 11.25H9.75V12C9.75 12.5967 9.98705 13.169 10.409 13.591C10.831 14.0129 11.4033 14.25 12 14.25C12.5967 14.25 13.169 14.0129 13.591 13.591C14.0129 13.169 14.25 12.5967 14.25 12V11.25H21C21.3977 11.2505 21.779 11.4086 22.0602 11.6898C22.3414 11.971 22.4995 12.3523 22.5 12.75ZM18.75 15.75C18.75 15.5275 18.6841 15.31 18.5604 15.125C18.4368 14.94 18.2611 14.7958 18.0556 14.7106C17.85 14.6255 17.6238 14.6032 17.4056 14.6466C17.1873 14.69 16.9869 14.7972 16.8296 14.9545C16.6722 15.1118 16.5651 15.3123 16.5217 15.5305C16.4783 15.7488 16.5005 15.975 16.5857 16.1805C16.6708 16.3861 16.815 16.5618 17 16.6854C17.185 16.809 17.4025 16.875 17.625 16.875C17.9234 16.875 18.2096 16.7565 18.4205 16.5455C18.6315 16.3345 18.75 16.0484 18.75 15.75Z" fill="#1D1F21" style="fill: var(--ui-icon-primary-color);"/>
</svg>
