<svg  viewBox="0 0 24 24" fill="none" xmlns="http://www.w3.org/2000/svg" id="__THIS_ID_NEEDS_FOR_UI_ICON_COMPONENT__">
<path d="M16.125 11.25C16.125 12.0658 15.8831 12.8634 15.4298 13.5417C14.9766 14.2201 14.3323 14.7488 13.5786 15.061C12.8248 15.3732 11.9954 15.4549 11.1953 15.2957C10.3951 15.1366 9.66008 14.7437 9.08318 14.1668C8.50629 13.5899 8.11343 12.8549 7.95426 12.0547C7.7951 11.2546 7.87679 10.4252 8.189 9.67143C8.50121 8.91769 9.02992 8.27345 9.70827 7.82019C10.3866 7.36693 11.1842 7.125 12 7.125C13.094 7.125 14.1432 7.5596 14.9168 8.33318C15.6904 9.10677 16.125 10.156 16.125 11.25ZM21 4.5V19.5C20.9995 19.8977 20.8414 20.279 20.5602 20.5602C20.279 20.8414 19.8977 20.9995 19.5 21H4.5C4.10231 20.9995 3.72105 20.8414 3.43984 20.5602C3.15864 20.279 3.00045 19.8977 3 19.5V4.5C3.00045 4.10231 3.15864 3.72105 3.43984 3.43984C3.72105 3.15864 4.10231 3.00045 4.5 3H19.5C19.8977 3.00045 20.279 3.15864 20.5602 3.43984C20.8414 3.72105 20.9995 4.10231 21 4.5ZM19.501 19.5L19.5 4.5H4.5V19.5H4.84436C5.29017 18.0912 6.14001 16.8444 7.28833 15.9145C7.55513 15.6994 7.8365 15.503 8.13041 15.3267C9.17357 16.3206 10.5592 16.875 12 16.875C13.4408 16.875 14.8264 16.3206 15.8696 15.3267C16.1635 15.503 16.4449 15.6994 16.7117 15.9145C17.86 16.8444 18.7098 18.0912 19.1556 19.5H19.5L19.501 19.5Z" fill="#1D1F21" style="fill: var(--ui-icon-primary-color);"/>
</svg>
