<svg  viewBox="0 0 24 24" fill="none" xmlns="http://www.w3.org/2000/svg" id="__THIS_ID_NEEDS_FOR_UI_ICON_COMPONENT__">
<path d="M16.125 11.25C16.125 12.0658 15.8831 12.8634 15.4298 13.5417C14.9766 14.2201 14.3323 14.7488 13.5786 15.061C12.8248 15.3732 11.9954 15.4549 11.1953 15.2957C10.3951 15.1366 9.6601 14.7437 9.0832 14.1668C8.50631 13.5899 8.11344 12.8549 7.95428 12.0547C7.79512 11.2546 7.87681 10.4252 8.18902 9.67143C8.50123 8.91769 9.02994 8.27345 9.70829 7.82019C10.3866 7.36693 11.1842 7.125 12 7.125C13.0937 7.12624 14.1422 7.56123 14.9155 8.33455C15.6888 9.10787 16.1238 10.1564 16.125 11.25ZM21.75 12C21.75 13.9284 21.1782 15.8134 20.1068 17.4168C19.0355 19.0202 17.5128 20.2699 15.7312 21.0078C13.9496 21.7458 11.9892 21.9389 10.0979 21.5627C8.20657 21.1865 6.46929 20.2579 5.10573 18.8943C3.74217 17.5307 2.81357 15.7934 2.43736 13.9021C2.06116 12.0108 2.25424 10.0504 2.99219 8.26884C3.73015 6.48726 4.97983 4.96451 6.58321 3.89317C8.18659 2.82183 10.0717 2.25 12 2.25C14.585 2.25293 17.0632 3.28109 18.8911 5.10894C20.7189 6.93679 21.7471 9.41504 21.75 12ZM20.25 12C20.2511 10.6634 19.9274 9.3466 19.3068 8.16284C18.6862 6.97908 17.7872 5.96383 16.6873 5.20444C15.5875 4.44505 14.3195 3.96426 12.9927 3.80344C11.6658 3.64263 10.3197 3.80659 9.07026 4.28124C7.82081 4.75589 6.70538 5.527 5.81995 6.52823C4.93453 7.52946 4.30562 8.73083 3.98734 10.029C3.66907 11.3271 3.67095 12.6831 3.99284 13.9803C4.31472 15.2776 4.94697 16.4772 5.83518 17.476C6.43726 16.6037 7.21801 15.8695 8.1256 15.3221C9.16924 16.3188 10.5569 16.875 12 16.875C13.4432 16.875 14.8308 16.3188 15.8744 15.3221C16.782 15.8695 17.5628 16.6037 18.1648 17.476C19.5093 15.969 20.2516 14.0196 20.25 12Z" fill="#1D1F21" style="fill: var(--ui-icon-primary-color);"/>
</svg>
