<svg  viewBox="0 0 24 24" fill="none" xmlns="http://www.w3.org/2000/svg" id="__THIS_ID_NEEDS_FOR_UI_ICON_COMPONENT__">
<path d="M21.7446 20.6241C21.6787 20.7381 21.584 20.8329 21.47 20.8988C21.3559 20.9646 21.2266 20.9993 21.0949 20.9993L2.9052 20.9991C2.77349 20.9991 2.6441 20.9645 2.53005 20.8986C2.416 20.8327 2.32131 20.7379 2.25551 20.6238C2.18971 20.5097 2.15511 20.3803 2.15521 20.2486C2.1553 20.1169 2.19008 19.9876 2.25605 19.8735C3.6555 17.4633 5.89661 15.6555 8.54842 14.7979C7.27799 14.0419 6.29085 12.8899 5.73862 11.5186C5.18639 10.1473 5.0996 8.63262 5.49159 7.20722C5.88358 5.78183 6.73267 4.52454 7.90845 3.62846C9.08422 2.73238 10.5217 2.24707 12 2.24707C13.4783 2.24707 14.9157 2.73238 16.0915 3.62846C17.2673 4.52454 18.1163 5.78183 18.5083 7.20722C18.9003 8.63262 18.8135 10.1473 18.2613 11.5186C17.7091 12.8899 16.7219 14.0419 15.4515 14.7979C18.1034 15.6556 20.3446 17.4634 21.744 19.8737C21.81 19.9877 21.8447 20.1171 21.8448 20.2488C21.8449 20.3805 21.8104 20.51 21.7446 20.6241Z" fill="#1D1F21" style="fill: var(--ui-icon-primary-color);"/>
</svg>
