<svg  viewBox="0 0 24 24" fill="none" xmlns="http://www.w3.org/2000/svg" id="__THIS_ID_NEEDS_FOR_UI_ICON_COMPONENT__">
<path d="M23.25 7.49957V16.4996C23.25 16.6309 23.2155 16.76 23.1499 16.8738C23.0844 16.9877 22.9901 17.0823 22.8765 17.1482C22.7628 17.2142 22.6339 17.2491 22.5025 17.2496C22.3712 17.25 22.242 17.2159 22.1279 17.1508L16.8779 14.1508C16.877 14.1502 16.8761 14.1495 16.8752 14.149C16.8487 14.1337 16.8232 14.1167 16.7989 14.0983C16.7922 14.0933 16.7861 14.0877 16.7796 14.0824C16.7626 14.0687 16.746 14.0545 16.7301 14.0392C16.7218 14.0311 16.7139 14.0227 16.706 14.0143C16.6988 14.0067 16.6912 13.9998 16.6843 13.9919L9.82956 6.11694C9.73505 6.00839 9.67377 5.87494 9.65304 5.73252C9.63231 5.59009 9.653 5.44471 9.71265 5.31373C9.77229 5.18274 9.86837 5.07169 9.98941 4.99381C10.1104 4.91594 10.2513 4.87455 10.3953 4.87457H14.25C15.2442 4.87571 16.1974 5.27116 16.9004 5.97417C17.6034 6.67719 17.9989 7.63036 18 8.62457V9.20716L22.1279 6.84835C22.242 6.78319 22.3712 6.74913 22.5025 6.74958C22.6339 6.75003 22.7628 6.78497 22.8765 6.85091C22.9901 6.91685 23.0844 7.01147 23.1499 7.12531C23.2155 7.23915 23.25 7.3682 23.25 7.49957ZM3.82773 1.74502C3.69391 1.59783 3.50711 1.50982 3.30841 1.50036C3.1097 1.4909 2.91538 1.56076 2.76819 1.69458C2.62099 1.82839 2.53299 2.0152 2.52353 2.2139C2.51407 2.4126 2.58393 2.60692 2.71774 2.75412L4.64543 4.87457H2.25C1.85231 4.87502 1.47105 5.0332 1.18984 5.31441C0.908636 5.59562 0.750455 5.97688 0.75 6.37457V15.3746C0.751137 16.3688 1.14659 17.3219 1.84961 18.025C2.55262 18.728 3.50579 19.1234 4.5 19.1246H16.5C16.8059 19.1247 17.1045 19.0307 17.3551 18.8553L20.445 22.2541C20.5113 22.327 20.5912 22.3861 20.6803 22.4281C20.7694 22.4701 20.8659 22.4941 20.9643 22.4988C21.0627 22.5035 21.1611 22.4887 21.2538 22.4554C21.3464 22.4221 21.4317 22.3708 21.5045 22.3046C21.5774 22.2383 21.6365 22.1583 21.6785 22.0692C21.7205 21.9801 21.7445 21.8836 21.7492 21.7852C21.7539 21.6868 21.7392 21.5885 21.7058 21.4958C21.6725 21.4031 21.6213 21.3179 21.555 21.245L3.82773 1.74502Z" fill="#1D1F21" style="fill: var(--ui-icon-primary-color);"/>
</svg>
