<svg  viewBox="0 0 24 24" fill="none" xmlns="http://www.w3.org/2000/svg" id="__THIS_ID_NEEDS_FOR_UI_ICON_COMPONENT__">
<path d="M21.3105 7.52197L16.478 2.68945C16.1961 2.40913 15.815 2.25124 15.4175 2.25H8.58252C8.18495 2.25124 7.8039 2.40913 7.52197 2.68945L2.68945 7.52197C2.40913 7.8039 2.25124 8.18495 2.25 8.58252V15.4175C2.25124 15.815 2.40913 16.1961 2.68945 16.478L7.52197 21.3105C7.8039 21.5909 8.18495 21.7488 8.58252 21.75H15.4175C15.815 21.7488 16.1961 21.5909 16.478 21.3105L21.3105 16.478C21.5909 16.1961 21.7488 15.815 21.75 15.4175V8.58252C21.7488 8.18495 21.5909 7.8039 21.3105 7.52197ZM11.25 7.5C11.25 7.30109 11.329 7.11032 11.4697 6.96967C11.6103 6.82902 11.8011 6.75 12 6.75C12.1989 6.75 12.3897 6.82902 12.5303 6.96967C12.671 7.11032 12.75 7.30109 12.75 7.5V12.75C12.75 12.9489 12.671 13.1397 12.5303 13.2803C12.3897 13.421 12.1989 13.5 12 13.5C11.8011 13.5 11.6103 13.421 11.4697 13.2803C11.329 13.1397 11.25 12.9489 11.25 12.75V7.5ZM12 17.25C11.7775 17.25 11.56 17.184 11.375 17.0604C11.19 16.9368 11.0458 16.7611 10.9606 16.5555C10.8755 16.35 10.8532 16.1238 10.8966 15.9055C10.94 15.6873 11.0472 15.4868 11.2045 15.3295C11.3618 15.1722 11.5623 15.065 11.7805 15.0216C11.9988 14.9782 12.225 15.0005 12.4305 15.0856C12.6361 15.1708 12.8118 15.315 12.9354 15.5C13.059 15.685 13.125 15.9025 13.125 16.125C13.125 16.4234 13.0065 16.7095 12.7955 16.9205C12.5845 17.1315 12.2984 17.25 12 17.25Z" fill="#1D1F21" style="fill: var(--ui-icon-primary-color);"/>
</svg>
