<svg  viewBox="0 0 24 24" fill="none" xmlns="http://www.w3.org/2000/svg" id="__THIS_ID_NEEDS_FOR_UI_ICON_COMPONENT__">
<path d="M12 2.25C10.3066 2.25046 8.64239 2.69187 7.17132 3.5308C5.70024 4.36973 4.47297 5.57726 3.6103 7.03453C2.74762 8.4918 2.27928 10.1486 2.25136 11.8418C2.22344 13.5351 2.6369 15.2064 3.45106 16.6913L2.6498 19.4959C2.57628 19.7531 2.5729 20.0253 2.63999 20.2842C2.70707 20.5432 2.8422 20.7795 3.03135 20.9687C3.2205 21.1578 3.4568 21.293 3.71575 21.3601C3.97471 21.4272 4.2469 21.4238 4.50411 21.3503L7.30874 20.549C8.61207 21.2642 10.0617 21.6718 11.5467 21.7409C13.0318 21.8099 14.513 21.5384 15.877 20.9472C17.2411 20.356 18.4518 19.4607 19.4168 18.3297C20.3818 17.1988 21.0754 15.8622 21.4446 14.4221C21.8138 12.9821 21.8488 11.4766 21.5469 10.0209C21.2451 8.56524 20.6144 7.19784 19.703 6.02329C18.7917 4.84873 17.6238 3.89812 16.2887 3.24414C14.9536 2.59015 13.4867 2.2501 12 2.25ZM14.2617 18C14.259 18.0022 14.2538 18 14.2499 18C13.1655 18 12.0918 17.7862 11.0901 17.3709C10.0884 16.9556 9.17842 16.3468 8.4122 15.5795C7.64597 14.8122 7.03853 13.9013 6.62462 12.8991C6.21071 11.8968 5.99845 10.8228 5.99999 9.73837C6.00341 8.84539 6.36045 7.99013 6.99298 7.35978C7.62551 6.72943 8.482 6.37534 9.37499 6.375C9.62105 6.37531 9.86269 6.4405 10.0755 6.564C10.2884 6.68749 10.4649 6.86493 10.5872 7.07841L11.6833 8.99662C11.8153 9.22801 11.8834 9.49037 11.8806 9.75677C11.8777 10.0232 11.8041 10.284 11.6671 10.5125L11.0005 11.6236C11.3302 12.1953 11.8048 12.6699 12.3764 12.9996L13.4874 12.3329C13.716 12.196 13.9768 12.1223 14.2432 12.1194C14.5096 12.1166 14.772 12.1847 15.0034 12.3167L16.9215 13.4128C17.135 13.5351 17.3125 13.7116 17.436 13.9244C17.5595 14.1373 17.6247 14.3789 17.625 14.625C17.6246 15.518 17.2706 16.3744 16.6402 17.007C16.0099 17.6395 15.1547 17.9965 14.2617 18Z" fill="#1D1F21" style="fill: var(--ui-icon-primary-color);"/>
<path d="M12.7922 14.4994C12.6884 14.5616 12.5712 14.5979 12.4504 14.605C12.3297 14.6121 12.209 14.5899 12.0987 14.5403C10.9257 14.0133 9.98672 13.0744 9.45972 11.9014C9.41011 11.791 9.38791 11.6704 9.39504 11.5496C9.40217 11.4288 9.4384 11.3116 9.50065 11.2079L10.3808 9.74082L9.31525 7.87598C8.83013 7.89119 8.36983 8.09403 8.03125 8.44179C7.69266 8.78954 7.5022 9.25509 7.49995 9.74045C7.49869 10.6277 7.67235 11.5065 8.01101 12.3265C8.34966 13.1466 8.84666 13.8918 9.47358 14.5196C10.1005 15.1474 10.845 15.6455 11.6646 15.9853C12.4842 16.3251 13.3627 16.5001 14.2499 16.5001H14.2596C14.7449 16.4978 15.2105 16.3073 15.5582 15.9688C15.906 15.6302 16.1088 15.1699 16.124 14.6848L14.2592 13.6192L12.7922 14.4994Z" fill="#1D1F21" style="fill: var(--ui-icon-primary-color);"/>
</svg>
