<svg  viewBox="0 0 24 24" fill="none" xmlns="http://www.w3.org/2000/svg" id="__THIS_ID_NEEDS_FOR_UI_ICON_COMPONENT__">
<path d="M16.4999 20.2499C16.4999 20.4488 16.4209 20.6395 16.2803 20.7802C16.1396 20.9209 15.9489 20.9999 15.7499 20.9999H2.24995C2.05103 20.9999 1.86027 20.9209 1.71962 20.7802C1.57896 20.6395 1.49995 20.4488 1.49995 20.2499C1.49995 20.051 1.57896 19.8602 1.71962 19.7195C1.86027 19.5789 2.05103 19.4999 2.24995 19.4999H15.7499C15.9489 19.4999 16.1396 19.5789 16.2803 19.7195C16.4209 19.8602 16.4999 20.051 16.4999 20.2499ZM23.613 8.75858C23.5936 8.86539 23.5513 8.96672 23.4889 9.05558C23.4266 9.14444 23.3457 9.21871 23.2519 9.27325L9.05744 17.5259C8.36105 17.935 7.55062 18.1068 6.74813 18.0155C5.94563 17.9243 5.1945 17.5748 4.60779 17.0197L1.07386 13.7066L1.07377 13.7066C0.891976 13.5361 0.755523 13.3231 0.676733 13.0866C0.597944 12.8502 0.579301 12.5979 0.62249 12.3524C0.665678 12.107 0.769337 11.8762 0.9241 11.6808C1.07886 11.4855 1.27986 11.3318 1.50892 11.2336L3.0795 10.5605C3.17286 10.5205 3.27337 10.4999 3.37495 10.4999C3.47652 10.4999 3.57703 10.5205 3.67039 10.5605L5.95206 11.5384L7.35218 10.7384L5.24518 8.84208C5.05802 8.67363 4.91628 8.46078 4.83302 8.22314C4.74975 7.9855 4.72765 7.73073 4.76875 7.4823C4.80985 7.23388 4.91282 6.9998 5.06818 6.80164C5.22354 6.60347 5.42628 6.44761 5.65772 6.34841L7.2045 5.68553C7.37334 5.61311 7.56289 5.60523 7.73716 5.66337L13.0386 7.43052L16.9042 5.15658C17.6745 4.69888 18.5837 4.53367 19.4657 4.69114C20.3478 4.84861 21.1436 5.31825 21.7079 6.0142L23.4554 8.14994C23.5241 8.23394 23.5738 8.33187 23.601 8.43695C23.6283 8.54204 23.6323 8.65178 23.613 8.75858ZM21.7372 8.41879L20.547 6.96406C20.2085 6.54649 19.7309 6.26471 19.2017 6.17023C18.6725 6.07575 18.1269 6.17488 17.6648 6.44949L13.5053 8.89633C13.4129 8.95059 13.31 8.98447 13.2035 8.99569C13.097 9.00691 12.9893 8.99521 12.8877 8.96137L7.53327 7.17655L6.2486 7.72711L9.12665 10.3174C9.21485 10.3968 9.28295 10.496 9.32536 10.6068C9.36778 10.7176 9.3833 10.8369 9.37064 10.9548C9.35799 11.0728 9.31752 11.1861 9.25257 11.2854C9.18762 11.3847 9.10004 11.4672 8.99702 11.526L6.37202 13.026C6.27129 13.0836 6.15858 13.117 6.04275 13.1237C5.92692 13.1303 5.81114 13.1099 5.7045 13.0642L3.37495 12.0658L2.0998 12.6123L5.63373 15.9254C5.98574 16.2585 6.43643 16.4682 6.91796 16.523C7.39948 16.5778 7.88577 16.4746 8.3036 16.2291L21.7372 8.41879Z" fill="#1D1F21" style="fill: var(--ui-icon-primary-color);"/>
</svg>
