<svg  viewBox="0 0 24 24" fill="none" xmlns="http://www.w3.org/2000/svg" id="__THIS_ID_NEEDS_FOR_UI_ICON_COMPONENT__">
<path d="M12.5697 14.5119C12.4993 14.4298 12.4119 14.3638 12.3136 14.3186C12.2153 14.2734 12.1084 14.25 12.0002 14.25C11.892 14.25 11.7851 14.2734 11.6868 14.3186C11.5885 14.3638 11.5012 14.4297 11.4308 14.5119L6.93048 19.7619C6.83713 19.8708 6.77696 20.0042 6.75712 20.1462C6.73728 20.2883 6.75859 20.4331 6.81853 20.5634C6.87847 20.6937 6.97452 20.8041 7.09529 20.8815C7.21607 20.9589 7.3565 21 7.49994 21H16.4999C16.6434 21 16.7838 20.9588 16.9045 20.8815C17.0253 20.8041 17.1213 20.6937 17.1813 20.5634C17.2412 20.4331 17.2625 20.2883 17.2427 20.1463C17.2229 20.0042 17.1627 19.8708 17.0694 19.7619L12.5697 14.5119ZM9.13067 19.5L12.0002 16.1524L14.8693 19.5H9.13067ZM21.7499 6V16.5C21.7493 17.0965 21.512 17.6684 21.0902 18.0902C20.6684 18.512 20.0965 18.7493 19.4999 18.75H17.9999C17.801 18.75 17.6103 18.671 17.4696 18.5303C17.329 18.3897 17.2499 18.1989 17.2499 18C17.2499 17.8011 17.329 17.6103 17.4696 17.4697C17.6103 17.329 17.801 17.25 17.9999 17.25H19.4999C19.6988 17.2498 19.8894 17.1707 20.03 17.0301C20.1706 16.8895 20.2497 16.6988 20.2499 16.5V6C20.2497 5.80116 20.1706 5.61052 20.03 5.46992C19.8894 5.32932 19.6988 5.25023 19.4999 5.25H4.49994C4.3011 5.25023 4.11046 5.32932 3.96986 5.46992C3.82926 5.61052 3.75017 5.80116 3.74994 6V16.5C3.75017 16.6988 3.82926 16.8895 3.96986 17.0301C4.11046 17.1707 4.3011 17.2498 4.49994 17.25H5.99994C6.19885 17.25 6.38962 17.329 6.53027 17.4697C6.67092 17.6103 6.74994 17.8011 6.74994 18C6.74994 18.1989 6.67092 18.3897 6.53027 18.5303C6.38962 18.671 6.19885 18.75 5.99994 18.75H4.49994C3.90341 18.7493 3.33151 18.512 2.9097 18.0902C2.48789 17.6684 2.25062 17.0965 2.24994 16.5V6C2.25062 5.40347 2.48789 4.83157 2.9097 4.40976C3.33151 3.98795 3.90341 3.75068 4.49994 3.75H19.4999C20.0965 3.75068 20.6684 3.98795 21.0902 4.40976C21.512 4.83157 21.7493 5.40347 21.7499 6Z" fill="#1D1F21" style="fill: var(--ui-icon-primary-color);"/>
</svg>
