<svg  viewBox="0 0 24 24" fill="none" xmlns="http://www.w3.org/2000/svg" id="__THIS_ID_NEEDS_FOR_UI_ICON_COMPONENT__">
<path d="M23.25 20.2495C23.25 20.4484 23.171 20.6392 23.0303 20.7798C22.8897 20.9205 22.6989 20.9995 22.5 20.9995H9C8.80109 20.9995 8.61032 20.9205 8.46967 20.7798C8.32902 20.6392 8.25 20.4484 8.25 20.2495C8.25 20.0506 8.32902 19.8598 8.46967 19.7192C8.61032 19.5785 8.80109 19.4995 9 19.4995H22.5C22.6989 19.4995 22.8897 19.5785 23.0303 19.7192C23.171 19.8598 23.25 20.0506 23.25 20.2495ZM20.7978 17.9717L4.23889 13.3352C3.45195 13.1127 2.75891 12.6399 2.26471 11.9883C1.77051 11.3368 1.50206 10.5419 1.5 9.72414V4.79009C1.5 4.55241 1.55648 4.31813 1.66479 4.10656C1.77309 3.89499 1.93012 3.71219 2.12293 3.57321C2.31574 3.43423 2.53882 3.34306 2.77377 3.30721C3.00873 3.27135 3.24885 3.29184 3.47433 3.36699L4.73721 3.78799C4.91942 3.84875 5.07137 3.97709 5.16174 4.14656L6.51709 6.68784L8.25 7.22937V4.79009C8.25 4.55241 8.30648 4.31813 8.41479 4.10657C8.52309 3.895 8.68012 3.71219 8.87293 3.57321C9.06574 3.43424 9.28882 3.34306 9.52378 3.30721C9.75873 3.27136 9.99885 3.29185 10.2243 3.36699L11.4872 3.788C11.6623 3.84635 11.8097 3.96718 11.9012 4.12738L14.748 9.10946L19.0037 10.2916C19.7925 10.5126 20.4875 10.9851 20.9832 11.6373C21.4789 12.2894 21.7482 13.0856 21.75 13.9048V17.2495C21.75 17.3652 21.7232 17.4794 21.6717 17.5831C21.6202 17.6868 21.5455 17.7771 21.4532 17.8471C21.361 17.917 21.2538 17.9647 21.1401 17.9863C21.0264 18.0079 20.9092 18.0029 20.7978 17.9717ZM20.25 13.9048C20.2489 13.4133 20.0874 12.9356 19.7899 12.5443C19.4925 12.153 19.0755 11.8695 18.6022 11.7368L14.0492 10.4721C13.8588 10.4192 13.6969 10.2932 13.5988 10.1216L10.741 5.12041L9.75 4.79004V8.2495C9.74999 8.36713 9.72231 8.48312 9.6692 8.58808C9.61608 8.69304 9.53903 8.78404 9.44425 8.85372C9.34947 8.9234 9.23963 8.96981 9.12361 8.9892C9.00758 9.00859 8.88862 9.00042 8.77634 8.96535L5.77634 8.02785C5.5883 7.96913 5.43093 7.83876 5.33826 7.66493L3.97898 5.11638L3 4.79004V9.72414C3.00123 10.2148 3.16231 10.6917 3.45884 11.0827C3.75536 11.4736 4.17119 11.7573 4.64337 11.8908L20.25 16.2606V13.9048Z" fill="#1D1F21" style="fill: var(--ui-icon-primary-color);"/>
</svg>
