<svg  viewBox="0 0 24 24" fill="none" xmlns="http://www.w3.org/2000/svg" id="__THIS_ID_NEEDS_FOR_UI_ICON_COMPONENT__">
<path d="M15.75 22.4998C15.7006 22.4998 15.6513 22.4949 15.6029 22.4852L12 21.7646L8.39713 22.4852C8.28831 22.507 8.17603 22.5043 8.06836 22.4775C7.9607 22.4506 7.86034 22.4002 7.77452 22.3298C7.6887 22.2595 7.61957 22.1709 7.57209 22.0706C7.52462 21.9703 7.5 21.8607 7.5 21.7498V19.4998C7.5 19.3009 7.579 19.1101 7.71964 18.9695L9 17.6891V15.1646L2.39713 16.4852C2.28831 16.507 2.17603 16.5043 2.06836 16.4775C1.9607 16.4506 1.86034 16.4002 1.77452 16.3298C1.6887 16.2595 1.61957 16.1709 1.5721 16.0706C1.52462 15.9703 1.5 15.8607 1.5 15.7498V13.4998C1.5 13.3605 1.53878 13.224 1.61199 13.1055C1.68521 12.987 1.78998 12.8913 1.91455 12.829L9.00092 9.28579L9.01053 4.49827C9.01073 3.70262 9.32699 2.93964 9.88974 2.37717C10.4525 1.8147 11.2156 1.49882 12.0113 1.49902C12.8069 1.49922 13.5699 1.81549 14.1324 2.37824C14.6948 2.94099 15.0107 3.70413 15.0105 4.49978L15.0202 9.28579L22.1066 12.829C22.2312 12.8913 22.3359 12.987 22.4092 13.1055C22.4824 13.224 22.5212 13.3605 22.5211 13.4998V15.7498C22.5211 15.8607 22.4965 15.9703 22.4491 16.0706C22.4016 16.1709 22.3324 16.2595 22.2466 16.3298C22.1608 16.4002 22.0605 16.4506 21.9528 16.4775C21.8451 16.5043 21.7328 16.507 21.624 16.4852L15.0211 15.1646V17.6923L16.2841 18.9732C16.4225 19.1136 16.5 19.3027 16.5 19.4998V21.7498C16.5 21.8483 16.4806 21.9458 16.4429 22.0368C16.4052 22.1278 16.35 22.2105 16.2803 22.2801C16.2107 22.3498 16.128 22.405 16.037 22.4427C15.946 22.4804 15.8485 22.4998 15.75 22.4998ZM12 20.2498C12.0494 20.2498 12.0987 20.2547 12.1471 20.2643L15 20.8349V19.8073L13.737 18.5263C13.5987 18.386 13.5211 18.1968 13.5211 17.9998V14.2498C13.5211 14.1388 13.5458 14.0292 13.5932 13.9289C13.6407 13.8286 13.7099 13.7401 13.7957 13.6698C13.8815 13.5994 13.9818 13.549 14.0895 13.5221C14.1972 13.4952 14.3095 13.4926 14.4183 13.5143L21.0211 14.8349V13.9633L13.9357 10.4206C13.8114 10.3584 13.7067 10.2629 13.6335 10.1447C13.5603 10.0265 13.5214 9.89031 13.5211 9.75129L13.5105 4.50129C13.5106 4.30431 13.4719 4.10923 13.3966 3.92721C13.3213 3.74518 13.2109 3.57977 13.0717 3.44041C12.7906 3.15896 12.4091 3.00073 12.0113 3.00053C11.8143 3.00043 11.6192 3.03914 11.4372 3.11443C11.2552 3.18972 11.0898 3.30012 10.9504 3.43934C10.669 3.7205 10.5107 4.10195 10.5105 4.49978L10.5 9.75129C10.4997 9.89031 10.4608 10.0265 10.3876 10.1447C10.3144 10.2629 10.2098 10.3584 10.0854 10.4206L3 13.9633V14.8349L9.60287 13.5143C9.71169 13.4926 9.82397 13.4952 9.93164 13.5221C10.0393 13.549 10.1397 13.5994 10.2255 13.6698C10.3113 13.7401 10.3804 13.8286 10.4279 13.9289C10.4754 14.0292 10.5 14.1388 10.5 14.2498V17.9998C10.5 18.1987 10.421 18.3894 10.2804 18.5301L9 19.8105V20.8349L11.8529 20.2643C11.9013 20.2547 11.9506 20.2498 12 20.2498Z" fill="#1D1F21" style="fill: var(--ui-icon-primary-color);"/>
</svg>
