<svg  viewBox="0 0 24 24" fill="none" xmlns="http://www.w3.org/2000/svg" id="__THIS_ID_NEEDS_FOR_UI_ICON_COMPONENT__">
<path d="M21.0001 20.25C21.0001 20.4489 20.9211 20.6397 20.7804 20.7803C20.6398 20.921 20.449 21 20.2501 21H6.75009C6.55118 21 6.36041 20.921 6.21976 20.7803C6.07911 20.6397 6.00009 20.4489 6.00009 20.25C6.00009 20.0511 6.07911 19.8603 6.21976 19.7197C6.36041 19.579 6.55118 19.5 6.75009 19.5H20.2501C20.449 19.5 20.6398 19.579 20.7804 19.7197C20.9211 19.8603 21.0001 20.0511 21.0001 20.25ZM23.2501 12.75V15C23.2501 15.1989 23.1711 15.3897 23.0304 15.5303C22.8898 15.671 22.699 15.75 22.5001 15.75H5.98215C5.17476 15.7537 4.38799 15.4952 3.74022 15.0132C3.09245 14.5313 2.6187 13.852 2.39026 13.0776L1.07135 8.68103C1.00417 8.45705 0.990291 8.22048 1.03081 7.99018C1.07132 7.75988 1.16511 7.54225 1.3047 7.35464C1.44428 7.16704 1.62578 7.01467 1.83472 6.90968C2.04367 6.8047 2.27426 6.75002 2.50809 6.75H4.12509C4.23503 6.75 4.34363 6.77417 4.44319 6.82081C4.54276 6.86744 4.63085 6.93539 4.70123 7.01985L6.35138 9H7.9595L7.11758 6.47433C7.04242 6.24885 7.02192 6.00873 7.05777 5.77377C7.09362 5.5388 7.18479 5.31572 7.32377 5.12291C7.46275 4.93009 7.64556 4.77306 7.85714 4.66476C8.06871 4.55646 8.303 4.49999 8.54068 4.5H10.1251C10.2291 4.5 10.3319 4.52162 10.4271 4.56349C10.5223 4.60536 10.6077 4.66656 10.678 4.74321L14.58 9H19.5001C20.4943 9.00113 21.4475 9.39658 22.1505 10.0996C22.8535 10.8026 23.249 11.7558 23.2501 12.75ZM21.7501 12.75C21.7494 12.1535 21.5121 11.5816 21.0903 11.1598C20.6685 10.7379 20.0966 10.5007 19.5001 10.5H14.2501C14.1461 10.5 14.0433 10.4784 13.9481 10.4365C13.8529 10.3946 13.7675 10.3334 13.6972 10.2568L9.79513 6H8.54068L9.71164 9.51283C9.74922 9.62558 9.75947 9.74564 9.74155 9.86312C9.72362 9.9806 9.67804 10.0921 9.60855 10.1885C9.53905 10.285 9.44765 10.3635 9.34186 10.4176C9.23607 10.4718 9.11893 10.5 9.00009 10.5H6.00009C5.89015 10.5 5.78155 10.4758 5.68199 10.4292C5.58242 10.3826 5.49433 10.3146 5.42395 10.2301L3.7738 8.25H2.50809L2.50589 8.25009L3.82709 12.6465C3.96413 13.1112 4.24836 13.5188 4.63702 13.8079C5.02567 14.0971 5.49772 14.2522 5.98215 14.25H21.7501V12.75Z" fill="#1D1F21" style="fill: var(--ui-icon-primary-color);"/>
</svg>
