<svg  viewBox="0 0 24 24" fill="none" xmlns="http://www.w3.org/2000/svg" id="__THIS_ID_NEEDS_FOR_UI_ICON_COMPONENT__">
<path d="M17.25 11.2498C17.4489 11.2498 17.6397 11.3288 17.7803 11.4695C17.921 11.6101 18 11.8009 18 11.9998C18 12.1987 17.921 12.3895 17.7803 12.5301C17.6397 12.6708 17.4489 12.7498 17.25 12.7498H12C11.9015 12.7498 11.804 12.7304 11.713 12.6927C11.622 12.655 11.5393 12.5998 11.4697 12.5301C11.4 12.4605 11.3448 12.3778 11.3071 12.2868C11.2694 12.1958 11.25 12.0983 11.25 11.9998V6.74981C11.25 6.5509 11.329 6.36013 11.4697 6.21948C11.6103 6.07883 11.8011 5.99981 12 5.99981C12.1989 5.99981 12.3897 6.07883 12.5303 6.21948C12.671 6.36013 12.75 6.5509 12.75 6.74981V11.2498H17.25ZM18.364 5.63584C19.8363 7.10818 20.7526 9.04549 20.9567 11.1177C21.1608 13.1898 20.6401 15.2687 19.4833 17C18.3264 18.7313 16.6051 20.0079 14.6126 20.6123C12.62 21.2168 10.4795 21.1116 8.55584 20.3148C6.63213 19.518 5.04422 18.0788 4.06268 16.2424C3.08113 14.4061 2.76668 12.2862 3.17289 10.244C3.57911 8.20183 4.68087 6.36366 6.29043 5.04272C7.9 3.72179 9.91779 2.99981 12 2.99981C13.1824 2.99659 14.3536 3.22791 15.446 3.68038C16.5384 4.13286 17.5302 4.7975 18.364 5.63584ZM19.5 11.9998C19.5 10.2646 18.8984 8.58312 17.7976 7.2418C16.6968 5.90048 15.165 4.98234 13.4632 4.64381C11.7613 4.30529 9.99476 4.56732 8.46446 5.38527C6.93417 6.20322 5.73483 7.52648 5.0708 9.12958C4.40676 10.7327 4.31913 12.5164 4.82282 14.1769C5.32651 15.8373 6.39037 17.2718 7.83311 18.2358C9.27586 19.1998 11.0082 19.6338 12.7351 19.4637C14.4619 19.2936 16.0763 18.5301 17.3033 17.3031C18.0019 16.6083 18.5558 15.7818 18.9329 14.8715C19.3099 13.9612 19.5027 12.9851 19.5 11.9998ZM22.0763 5.10552L18.8943 1.92352C18.7536 1.78287 18.5629 1.70385 18.3639 1.70386C18.165 1.70386 17.9743 1.78288 17.8336 1.92354C17.693 2.0642 17.614 2.25496 17.614 2.45388C17.614 2.65279 17.693 2.84355 17.8336 2.9842L21.0156 6.16616C21.0852 6.23581 21.1679 6.29105 21.2589 6.32875C21.3499 6.36644 21.4474 6.38584 21.5459 6.38584C21.6444 6.38585 21.7419 6.36645 21.8329 6.32876C21.9239 6.29107 22.0066 6.23583 22.0763 6.16619C22.1459 6.09654 22.2012 6.01386 22.2389 5.92287C22.2765 5.83188 22.2959 5.73435 22.2959 5.63586C22.296 5.53737 22.2766 5.43984 22.2389 5.34884C22.2012 5.25785 22.1459 5.17517 22.0763 5.10552H22.0763ZM6.16634 1.92352C6.02569 1.78287 5.83493 1.70386 5.63603 1.70386C5.43712 1.70386 5.24636 1.78287 5.10571 1.92352L1.9237 5.10552C1.78305 5.24618 1.70404 5.43695 1.70404 5.63586C1.70405 5.83477 1.78307 6.02554 1.92372 6.16619C2.06438 6.30683 2.25515 6.38585 2.45406 6.38584C2.65297 6.38584 2.84374 6.30682 2.98439 6.16616L6.16634 2.9842C6.23599 2.91456 6.29124 2.83188 6.32894 2.74088C6.36663 2.64988 6.38604 2.55235 6.38604 2.45386C6.38604 2.35536 6.36663 2.25783 6.32894 2.16684C6.29124 2.07584 6.23599 1.99316 6.16634 1.92352Z" fill="#1D1F21" style="fill: var(--ui-icon-primary-color);"/>
</svg>
