<svg  viewBox="0 0 24 24" fill="none" xmlns="http://www.w3.org/2000/svg" id="__THIS_ID_NEEDS_FOR_UI_ICON_COMPONENT__">
<path d="M21.0005 3.74951C21.0005 3.848 20.9811 3.94553 20.9434 4.03653C20.9057 4.12752 20.8504 4.2102 20.7808 4.27985C20.7111 4.34949 20.6285 4.40474 20.5375 4.44243C20.4465 4.48012 20.3489 4.49951 20.2505 4.49951H3.75046C3.55155 4.49951 3.36078 4.42049 3.22013 4.27984C3.07948 4.13919 3.00046 3.94842 3.00046 3.74951C3.00046 3.5506 3.07948 3.35983 3.22013 3.21918C3.36078 3.07853 3.55155 2.99951 3.75046 2.99951H20.2505C20.3489 2.99951 20.4465 3.01891 20.5375 3.0566C20.6285 3.09429 20.7111 3.14953 20.7808 3.21918C20.8504 3.28882 20.9057 3.3715 20.9434 3.4625C20.9811 3.55349 21.0005 3.65102 21.0005 3.74951ZM19.5 7.50006V16.5001C19.4995 16.8977 19.3414 17.279 19.0602 17.5602C18.779 17.8414 18.3977 17.9996 18 18.0001H14.25C13.8523 17.9996 13.471 17.8414 13.1898 17.5602C12.9086 17.279 12.7505 16.8977 12.75 16.5001V7.50006C12.7505 7.10238 12.9086 6.72111 13.1898 6.4399C13.471 6.1587 13.8523 6.00052 14.25 6.00006H18C18.3977 6.00052 18.779 6.1587 19.0602 6.4399C19.3414 6.72111 19.4995 7.10238 19.5 7.50006ZM18 7.50006H14.25V16.5001L14.25 16.501L18 16.5001V7.50006ZM11.25 7.50006V20.2501C11.2495 20.6477 11.0914 21.029 10.8102 21.3102C10.529 21.5914 10.1477 21.7496 9.75 21.7501H6C5.60232 21.7496 5.22105 21.5914 4.93984 21.3102C4.65864 21.029 4.50046 20.6477 4.5 20.2501V7.50006C4.50046 7.10238 4.65864 6.72111 4.93984 6.4399C5.22105 6.1587 5.60232 6.00052 6 6.00006H9.75C10.1477 6.00052 10.529 6.1587 10.8102 6.4399C11.0914 6.72111 11.2495 7.10238 11.25 7.50006ZM9.75 7.50006H6V20.2501L6.00005 20.251L9.75 20.2501V7.50006Z" fill="#1D1F21" style="fill: var(--ui-icon-primary-color);"/>
</svg>
