<svg  viewBox="0 0 24 24" fill="none" xmlns="http://www.w3.org/2000/svg" id="__THIS_ID_NEEDS_FOR_UI_ICON_COMPONENT__">
<path d="M21.0004 20.2505C21.0004 20.4495 20.9214 20.6402 20.7808 20.7809C20.6401 20.9215 20.4493 21.0005 20.2504 21.0005H3.75043C3.55151 21.0005 3.36075 20.9215 3.2201 20.7809C3.07945 20.6402 3.00043 20.4495 3.00043 20.2505C3.00043 20.0516 3.07945 19.8609 3.2201 19.7202C3.36075 19.5796 3.55151 19.5005 3.75043 19.5005H20.2504C20.4493 19.5006 20.6401 19.5796 20.7808 19.7202C20.9214 19.8609 21.0004 20.0516 21.0004 20.2505ZM12.75 16.5V7.5C12.7504 7.10231 12.9086 6.72105 13.1898 6.43984C13.471 6.15864 13.8523 6.00045 14.25 6H18C18.3977 6.00045 18.7789 6.15864 19.0601 6.43984C19.3413 6.72105 19.4995 7.10231 19.5 7.5V16.5C19.4995 16.8977 19.3413 17.279 19.0601 17.5602C18.7789 17.8414 18.3977 17.9995 18 18H14.25C13.8523 17.9995 13.471 17.8414 13.1898 17.5602C12.9086 17.279 12.7504 16.8977 12.75 16.5ZM14.25 16.5H18V7.5H14.25V16.5ZM4.49997 16.5V3.75C4.50042 3.35231 4.65861 2.97105 4.93981 2.68984C5.22102 2.40864 5.60228 2.25045 5.99997 2.25H9.74997C10.1477 2.25045 10.5289 2.40864 10.8101 2.68984C11.0913 2.97105 11.2495 3.35231 11.25 3.75V16.5C11.2495 16.8977 11.0913 17.279 10.8101 17.5602C10.5289 17.8414 10.1477 17.9995 9.74997 18H5.99997C5.60228 17.9995 5.22102 17.8414 4.93981 17.5602C4.65861 17.279 4.50042 16.8977 4.49997 16.5ZM5.99997 16.5H9.74997V3.75H5.99997V16.5Z" fill="#1D1F21" style="fill: var(--ui-icon-primary-color);"/>
</svg>
