<svg  viewBox="0 0 24 24" fill="none" xmlns="http://www.w3.org/2000/svg" id="__THIS_ID_NEEDS_FOR_UI_ICON_COMPONENT__">
<path d="M21.0005 3.74951V20.2495C21.0005 20.4484 20.9215 20.6392 20.7809 20.7798C20.6402 20.9205 20.4495 20.9995 20.2505 20.9995C20.0516 20.9995 19.8609 20.9205 19.7202 20.7798C19.5796 20.6392 19.5005 20.4484 19.5005 20.2495V3.74951C19.5005 3.5506 19.5796 3.35983 19.7202 3.21918C19.8609 3.07853 20.0516 2.99951 20.2505 2.99951C20.4495 2.99951 20.6402 3.07853 20.7809 3.21918C20.9215 3.35983 21.0005 3.5506 21.0005 3.74951ZM18 5.99997V9.74997C17.9995 10.1477 17.8414 10.5289 17.5602 10.8101C17.279 11.0913 16.8977 11.2495 16.5 11.25H7.5C7.10231 11.2495 6.72105 11.0913 6.43984 10.8101C6.15864 10.5289 6.00045 10.1477 6 9.74997V5.99997C6.00045 5.60228 6.15864 5.22102 6.43984 4.93981C6.72105 4.65861 7.10231 4.50042 7.5 4.49997H16.5C16.8977 4.50042 17.279 4.65861 17.5602 4.93981C17.8414 5.22102 17.9995 5.60228 18 5.99997ZM16.5 5.99997H7.5V9.74997H16.5V5.99997ZM18 14.25V18C17.9995 18.3977 17.8414 18.7789 17.5602 19.0601C17.279 19.3413 16.8977 19.4995 16.5 19.5H3.75C3.35231 19.4995 2.97105 19.3413 2.68984 19.0601C2.40864 18.7789 2.25045 18.3977 2.25 18V14.25C2.25045 13.8523 2.40864 13.471 2.68984 13.1898C2.97105 12.9086 3.35231 12.7504 3.75 12.75H16.5C16.8977 12.7504 17.279 12.9086 17.5602 13.1898C17.8414 13.471 17.9995 13.8523 18 14.25ZM16.5 14.25H3.75V18H16.5V14.25Z" fill="#1D1F21" style="fill: var(--ui-icon-primary-color);"/>
</svg>
