<svg  viewBox="0 0 24 24" fill="none" xmlns="http://www.w3.org/2000/svg" id="__THIS_ID_NEEDS_FOR_UI_ICON_COMPONENT__">
<path d="M21.0004 11.25H19.5V6.75C19.4995 6.35231 19.3413 5.97105 19.0601 5.68984C18.7789 5.40864 18.3977 5.25045 18 5.25H14.25C13.8523 5.25045 13.471 5.40864 13.1898 5.68984C12.9086 5.97105 12.7504 6.35231 12.75 6.75V11.25H11.25V4.5C11.2495 4.10231 11.0913 3.72105 10.8101 3.43984C10.5289 3.15864 10.1477 3.00045 9.74997 3H5.99997C5.60228 3.00045 5.22102 3.15864 4.93981 3.43984C4.65861 3.72105 4.50042 4.10231 4.49997 4.5V11.25H3.00043C2.80151 11.25 2.61075 11.329 2.4701 11.4697C2.32944 11.6103 2.25043 11.8011 2.25043 12C2.25043 12.1989 2.32944 12.3897 2.4701 12.5303C2.61075 12.671 2.80151 12.75 3.00043 12.75H4.49997V19.5C4.50042 19.8977 4.65861 20.279 4.93981 20.5602C5.22102 20.8414 5.60228 20.9995 5.99997 21H9.74997C10.1477 20.9995 10.5289 20.8414 10.8101 20.5602C11.0913 20.279 11.2495 19.8977 11.25 19.5V12.75H12.75V17.25C12.7504 17.6477 12.9086 18.029 13.1898 18.3102C13.471 18.5914 13.8523 18.7495 14.25 18.75H18C18.3977 18.7495 18.7789 18.5914 19.0601 18.3102C19.3413 18.029 19.4995 17.6477 19.5 17.25V12.75H21.0004C21.1993 12.75 21.3901 12.671 21.5308 12.5303C21.6714 12.3897 21.7504 12.1989 21.7504 12C21.7504 11.8011 21.6714 11.6103 21.5308 11.4697C21.3901 11.329 21.1993 11.25 21.0004 11.25ZM9.74997 19.5L6.00002 19.5009L5.99997 19.5V12.0091C6.00002 12.006 6.00043 12.0031 6.00043 12C6.00043 11.9969 6.00002 11.994 5.99997 11.9909V4.5H9.74997V19.5ZM18 17.25L14.25 17.2509L14.25 17.25V12.0091C14.25 12.006 14.2504 12.0031 14.2504 12C14.2504 11.9969 14.25 11.994 14.25 11.9909V6.75H18V17.25Z" fill="#1D1F21" style="fill: var(--ui-icon-primary-color);"/>
</svg>
