<svg  viewBox="0 0 24 24" fill="none" xmlns="http://www.w3.org/2000/svg" id="__THIS_ID_NEEDS_FOR_UI_ICON_COMPONENT__">
<path d="M20.25 12.7501C20.0511 12.7501 19.8603 12.8291 19.7197 12.9698C19.579 13.1104 19.5 13.3012 19.5 13.5001C19.4989 14.4943 19.1034 15.4475 18.4004 16.1505C17.6974 16.8535 16.7442 17.249 15.75 17.2501C14.6422 17.2495 13.5734 17.6594 12.75 18.4006V11.2501H15.75C15.9489 11.2501 16.1397 11.1711 16.2803 11.0304C16.421 10.8898 16.5 10.699 16.5 10.5001C16.5 10.3012 16.421 10.1104 16.2803 9.96977C16.1397 9.82912 15.9489 9.7501 15.75 9.7501H12.75V7.39033C13.3542 7.21018 13.8735 6.81855 14.2127 6.28705C14.5519 5.75556 14.6885 5.11971 14.5975 4.49579C14.5065 3.87186 14.1939 3.30155 13.7169 2.88913C13.24 2.47671 12.6305 2.24976 12 2.24976C11.3695 2.24976 10.76 2.47671 10.2831 2.88913C9.8061 3.30155 9.49353 3.87186 9.4025 4.49579C9.31147 5.11971 9.44806 5.75556 9.7873 6.28705C10.1265 6.81855 10.6458 7.21018 11.25 7.39033V9.7501H8.25C8.05109 9.7501 7.86032 9.82912 7.71967 9.96977C7.57902 10.1104 7.5 10.3012 7.5 10.5001C7.5 10.699 7.57902 10.8898 7.71967 11.0304C7.86032 11.1711 8.05109 11.2501 8.25 11.2501H11.25V18.4006C10.4266 17.6594 9.35783 17.2495 8.25 17.2501C7.25579 17.249 6.30262 16.8535 5.59961 16.1505C4.89659 15.4475 4.50114 14.4943 4.5 13.5001C4.5 13.3012 4.42098 13.1104 4.28033 12.9698C4.13968 12.8291 3.94891 12.7501 3.75 12.7501C3.55109 12.7501 3.36032 12.8291 3.21967 12.9698C3.07902 13.1104 3 13.3012 3 13.5001C3.00156 14.892 3.55519 16.2265 4.53941 17.2107C5.52364 18.1949 6.85809 18.7485 8.25 18.7501C9.04537 18.751 9.8079 19.0674 10.3703 19.6298C10.9327 20.1922 11.2491 20.9547 11.25 21.7501C11.25 21.949 11.329 22.1398 11.4697 22.2804C11.6103 22.4211 11.8011 22.5001 12 22.5001C12.1989 22.5001 12.3897 22.4211 12.5303 22.2804C12.671 22.1398 12.75 21.949 12.75 21.7501C12.7509 20.9547 13.0673 20.1922 13.6297 19.6298C14.1921 19.0674 14.9546 18.751 15.75 18.7501C17.1419 18.7485 18.4764 18.1949 19.4606 17.2107C20.4448 16.2265 20.9984 14.892 21 13.5001C21 13.3012 20.921 13.1104 20.7803 12.9698C20.6397 12.8291 20.4489 12.7501 20.25 12.7501ZM10.875 4.8751C10.875 4.6526 10.941 4.43509 11.0646 4.25009C11.1882 4.06508 11.3639 3.92089 11.5695 3.83574C11.775 3.75059 12.0012 3.72831 12.2195 3.77172C12.4377 3.81513 12.6382 3.92227 12.7955 4.07961C12.9528 4.23694 13.06 4.4374 13.1034 4.65563C13.1468 4.87386 13.1245 5.10006 13.0394 5.30562C12.9542 5.51119 12.81 5.68689 12.625 5.81051C12.44 5.93412 12.2225 6.0001 12 6.0001C11.7017 5.99978 11.4158 5.88115 11.2049 5.67024C10.994 5.45933 10.8753 5.17337 10.875 4.8751Z" fill="#1D1F21" style="fill: var(--ui-icon-primary-color);"/>
</svg>
