<svg  viewBox="0 0 24 24" fill="none" xmlns="http://www.w3.org/2000/svg" id="__THIS_ID_NEEDS_FOR_UI_ICON_COMPONENT__">
<path d="M8.25 7.87467C8.25 7.65216 8.31598 7.43466 8.4396 7.24965C8.56322 7.06465 8.73892 6.92045 8.94448 6.8353C9.15005 6.75015 9.37625 6.72788 9.59448 6.77128C9.81271 6.81469 10.0132 6.92184 10.1705 7.07917C10.3278 7.23651 10.435 7.43696 10.4784 7.65519C10.5218 7.87342 10.4995 8.09962 10.4144 8.30519C10.3292 8.51075 10.185 8.68645 10 8.81007C9.81501 8.93369 9.59751 8.99967 9.375 8.99967C9.07663 8.99967 8.79049 8.88114 8.57951 8.67016C8.36853 8.45918 8.25 8.17304 8.25 7.87467ZM14.625 8.99967C14.8475 8.99967 15.065 8.93369 15.25 8.81007C15.435 8.68645 15.5792 8.51075 15.6644 8.30519C15.7495 8.09962 15.7718 7.87342 15.7284 7.65519C15.685 7.43696 15.5778 7.23651 15.4205 7.07917C15.2632 6.92184 15.0627 6.81469 14.8445 6.77128C14.6263 6.72788 14.4001 6.75015 14.1945 6.8353C13.9889 6.92045 13.8132 7.06465 13.6896 7.24965C13.566 7.43466 13.5 7.65216 13.5 7.87467C13.5 8.17304 13.6185 8.45918 13.8295 8.67016C14.0405 8.88114 14.3266 8.99967 14.625 8.99967ZM20.25 9.74967V14.2497C20.25 16.4377 19.3808 18.5361 17.8336 20.0833C16.2865 21.6305 14.188 22.4997 12 22.4997C9.81197 22.4997 7.71355 21.6305 6.16637 20.0833C4.6192 18.5361 3.75 16.4377 3.75 14.2497V9.74967C3.74865 7.60613 4.5845 5.54681 6.07942 4.01059L4.74701 2.80599C4.67386 2.73996 4.61444 2.66016 4.57215 2.57116C4.52986 2.48215 4.50552 2.38569 4.50052 2.28727C4.49553 2.18886 4.50998 2.09042 4.54304 1.9976C4.57611 1.90477 4.62715 1.81937 4.69323 1.74627C4.75932 1.67318 4.83917 1.61382 4.9282 1.5716C5.01724 1.52938 5.11373 1.50512 5.21215 1.5002C5.31056 1.49529 5.40899 1.50981 5.50179 1.54296C5.59459 1.5761 5.67995 1.6272 5.75299 1.69335L7.2258 3.02489C8.62007 2.03276 10.2888 1.49966 12 1.49966C13.7112 1.49967 15.3799 2.0328 16.7742 3.02493L18.247 1.69334C18.3946 1.56013 18.589 1.49096 18.7876 1.50104C18.9861 1.51111 19.1725 1.59961 19.3059 1.74708C19.4392 1.89455 19.5085 2.08892 19.4986 2.28748C19.4887 2.48604 19.4004 2.67253 19.253 2.80598L17.9206 4.01064C19.4155 5.54686 20.2513 7.60615 20.25 9.74967ZM5.25 9.74967V10.4997H18.75V9.74967C18.75 7.95946 18.0388 6.24257 16.773 4.9767C15.5071 3.71083 13.7902 2.99967 12 2.99967C10.2098 2.99967 8.4929 3.71083 7.22703 4.9767C5.96116 6.24257 5.25 7.95946 5.25 9.74967ZM18.75 14.2497V11.9997H5.25V14.2497C5.25 16.0399 5.96116 17.7568 7.22703 19.0226C8.4929 20.2885 10.2098 20.9997 12 20.9997C13.7902 20.9997 15.5071 20.2885 16.773 19.0226C18.0388 17.7568 18.75 16.0399 18.75 14.2497Z" fill="#1D1F21" style="fill: var(--ui-icon-primary-color);"/>
</svg>
