<svg  viewBox="0 0 24 24" fill="none" xmlns="http://www.w3.org/2000/svg" id="__THIS_ID_NEEDS_FOR_UI_ICON_COMPONENT__">
<path d="M21.7501 12C21.7501 10.0716 21.1782 8.18657 20.1069 6.58319C19.0356 4.97981 17.5128 3.73013 15.7312 2.99218C13.9497 2.25422 11.9893 2.06114 10.0979 2.43735C8.20663 2.81356 6.46935 3.74215 5.10579 5.10572C3.74239 6.4691 2.81385 8.20613 2.43755 10.0972C2.06125 11.9882 2.25409 13.9484 2.9917 15.7299C3.72931 17.5113 4.97856 19.0341 6.58151 20.1056C8.18446 21.1772 10.0691 21.7494 11.9973 21.75C11.9982 21.75 11.9991 21.7502 12.0001 21.7502C12.0021 21.7502 12.0041 21.75 12.0061 21.7499C14.5909 21.7483 17.0693 20.7204 18.8965 18.8921C20.7237 17.0638 21.7501 14.5848 21.7501 12ZM10.2978 14.0039L9.41357 11.5278L11.1158 9.52396L13.7023 9.99614L14.5866 12.4722L12.8844 14.476L10.2978 14.0039ZM4.61028 8.33625L9.41181 9.21286L4.37359 15.144C3.92864 14.0572 3.71965 12.8883 3.76045 11.7147C3.80126 10.5411 4.09093 9.3895 4.61028 8.33625ZM19.6266 8.85599C20.0715 9.94277 20.2805 11.1117 20.2397 12.2853C20.1989 13.4589 19.9092 14.6105 19.3899 15.6638L14.5883 14.7871L19.6266 8.85599ZM18.8692 7.43061L15.7079 11.1521L13.0904 3.82315C14.255 3.97825 15.373 4.38032 16.3696 5.00246C17.3662 5.6246 18.2184 6.45246 18.8692 7.43061ZM11.478 3.76813L13.1197 8.36495L5.46532 6.96753C5.6816 6.68574 5.91578 6.41816 6.16643 6.16645C7.58289 4.7426 9.47328 3.88904 11.478 3.76813ZM5.13097 16.5694L8.29224 12.8479L10.9097 20.1769C9.74516 20.0218 8.62715 19.6197 7.63055 18.9976C6.63394 18.3754 5.78173 17.5476 5.13097 16.5694V16.5694ZM12.5221 20.2319L10.8804 15.6351L13.0444 16.0301L13.0486 16.0309L18.5348 17.0325C18.3186 17.3143 18.0844 17.5818 17.8337 17.8336C16.4173 19.2574 14.5269 20.111 12.5221 20.2319Z" fill="#1D1F21" style="fill: var(--ui-icon-primary-color);"/>
</svg>
