<svg  viewBox="0 0 24 24" fill="none" xmlns="http://www.w3.org/2000/svg" id="__THIS_ID_NEEDS_FOR_UI_ICON_COMPONENT__">
<path d="M12.2494 2.77794C12.5244 2.07241 13.0054 1.46595 13.6297 1.0374C14.254 0.608852 14.9928 0.378049 15.75 0.375C15.9489 0.375 16.1397 0.454018 16.2803 0.59467C16.421 0.735322 16.5 0.926088 16.5 1.125C16.5 1.32391 16.421 1.51468 16.2803 1.65533C16.1397 1.79598 15.9489 1.875 15.75 1.875C15.2956 1.87681 14.8522 2.01529 14.4776 2.27245C14.1029 2.5296 13.8143 2.89353 13.6492 3.31691C13.6139 3.40895 13.5608 3.49314 13.493 3.56464C13.4251 3.63615 13.3439 3.69358 13.2538 3.73365C13.1637 3.77371 13.0666 3.79563 12.9681 3.79815C12.8695 3.80066 12.7715 3.78372 12.6795 3.7483C12.5875 3.71288 12.5034 3.65967 12.432 3.59172C12.3605 3.52376 12.3032 3.4424 12.2633 3.35227C12.2233 3.26215 12.2016 3.16504 12.1992 3.06649C12.1968 2.96794 12.2139 2.86989 12.2494 2.77794V2.77794ZM21.1796 15.5592C19.868 18.7626 17.4811 21 15.375 21H8.625C7.09039 21 5.36861 19.8077 4.01916 17.8105C2.65654 15.7938 1.875 13.2659 1.875 10.875C1.87508 9.69904 2.20041 8.54601 2.81501 7.54343C3.42961 6.54086 4.30952 5.7278 5.35744 5.19418C6.40536 4.66056 7.58046 4.42717 8.75276 4.51982C9.92507 4.61247 11.0489 5.02755 12 5.71916C13.334 4.74919 14.9919 4.33388 16.6256 4.56045C18.2593 4.78701 19.7417 5.63783 20.7614 6.9342C20.8271 7.01766 20.8743 7.11413 20.8999 7.21721C20.9255 7.32029 20.929 7.42764 20.91 7.53214C20.891 7.63665 20.8501 7.73594 20.7898 7.82343C20.7296 7.91092 20.6515 7.98462 20.5606 8.03966C19.9869 8.38653 19.5166 8.88084 19.1986 9.47112C18.8807 10.0614 18.7268 10.7261 18.7528 11.3961C18.7789 12.066 18.9841 12.7168 19.3469 13.2805C19.7098 13.8443 20.2171 14.3006 20.8161 14.6018C20.9867 14.6857 21.1191 14.8311 21.1866 15.0089C21.254 15.1866 21.2516 15.3833 21.1796 15.5592ZM19.5299 15.5811C18.869 15.1272 18.3207 14.5281 17.9271 13.8296C17.5334 13.1312 17.3048 12.3519 17.2587 11.5515C17.2126 10.751 17.3503 9.95067 17.6612 9.21166C17.9722 8.47265 18.4481 7.81459 19.0526 7.28787C18.1635 6.46991 17.0025 6.01106 15.7944 6.0002C14.5864 5.98934 13.4173 6.42725 12.5137 7.22909C12.3772 7.35731 12.1977 7.42984 12.0105 7.43241C11.8233 7.43499 11.6418 7.36742 11.5019 7.24301L11.4987 7.24017C10.7972 6.61315 9.92914 6.20255 8.99939 6.05793C8.06964 5.9133 7.1179 6.04083 6.25902 6.42512C5.40014 6.80941 4.67083 7.43405 4.15908 8.22364C3.64733 9.01324 3.37501 9.93407 3.375 10.875C3.375 15.5528 6.59972 19.5 8.625 19.5H15.375C16.7259 19.5 18.445 17.8524 19.5299 15.5811H19.5299Z" fill="#1D1F21" style="fill: var(--ui-icon-primary-color);"/>
</svg>
