<svg  viewBox="0 0 24 24" fill="none" xmlns="http://www.w3.org/2000/svg" id="__THIS_ID_NEEDS_FOR_UI_ICON_COMPONENT__">
<path d="M15.7123 13.5376C15.853 13.6783 15.932 13.8691 15.932 14.068C15.932 14.2669 15.853 14.4577 15.7123 14.5984L12.5303 17.7804C12.5261 17.7846 12.5214 17.7883 12.517 17.7924C12.5037 17.8051 12.4904 17.8177 12.4762 17.8294C12.4701 17.8344 12.4636 17.8387 12.4574 17.8434C12.4442 17.8537 12.431 17.864 12.4171 17.8732C12.412 17.8767 12.4065 17.8796 12.4013 17.8829C12.3858 17.8927 12.3703 17.9024 12.354 17.9111C12.3502 17.9132 12.3461 17.9149 12.3422 17.9169C12.3243 17.926 12.3062 17.9349 12.2876 17.9426C12.285 17.9437 12.2823 17.9445 12.2796 17.9455C12.2596 17.9536 12.2394 17.9611 12.2186 17.9674C12.2159 17.9682 12.2131 17.9687 12.2105 17.9695C12.1898 17.9756 12.169 17.981 12.1476 17.9853C12.1415 17.9865 12.1353 17.987 12.1292 17.9881C12.1112 17.9913 12.0933 17.9944 12.0749 17.9962C12.0251 18.0013 11.9749 18.0013 11.9251 17.9962C11.9067 17.9944 11.8886 17.9912 11.8706 17.9881C11.8646 17.987 11.8584 17.9865 11.8524 17.9853C11.831 17.981 11.8102 17.9756 11.7895 17.9695C11.7868 17.9687 11.7841 17.9682 11.7814 17.9674C11.7606 17.9611 11.7404 17.9536 11.7204 17.9455C11.7177 17.9445 11.715 17.9437 11.7124 17.9426C11.6938 17.9349 11.6757 17.926 11.6578 17.9169C11.6539 17.9149 11.6498 17.9132 11.646 17.9111C11.6297 17.9024 11.6142 17.8927 11.5987 17.8829C11.5935 17.8796 11.588 17.8767 11.5829 17.8732C11.569 17.864 11.5558 17.8537 11.5426 17.8434C11.5364 17.8387 11.5299 17.8344 11.5238 17.8294C11.5096 17.8177 11.4963 17.8051 11.483 17.7924C11.4786 17.7883 11.4739 17.7846 11.4697 17.7804L8.28767 14.5984C8.14701 14.4577 8.06799 14.2669 8.06798 14.068C8.06798 13.8691 8.147 13.6783 8.28765 13.5376C8.42831 13.397 8.61908 13.318 8.818 13.318C9.01692 13.318 9.2077 13.397 9.34836 13.5376L11.25 15.4394V9.75C11.25 9.55109 11.329 9.36032 11.4697 9.21967C11.6103 9.07902 11.8011 9 12 9C12.1989 9 12.3897 9.07902 12.5303 9.21967C12.671 9.36032 12.75 9.55109 12.75 9.75V15.4394L14.6516 13.5376C14.7923 13.397 14.9831 13.318 15.182 13.318C15.3809 13.318 15.5716 13.397 15.7123 13.5376ZM21 6.75V19.5C20.9995 19.8977 20.8414 20.279 20.5602 20.5602C20.279 20.8414 19.8977 20.9995 19.5 21H4.5C4.10231 20.9995 3.72105 20.8414 3.43984 20.5602C3.15864 20.279 3.00045 19.8977 3 19.5V6.75C3.0001 6.72231 3.0017 6.69466 3.00481 6.66714C3.00558 6.66028 3.007 6.6535 3.00797 6.64668C3.0108 6.62595 3.01419 6.60544 3.01872 6.58525C3.02046 6.57761 3.02261 6.57014 3.02458 6.56255C3.02957 6.54327 3.03511 6.52423 3.04156 6.50555C3.04422 6.49787 3.04701 6.49031 3.04994 6.48271C3.05699 6.46422 3.06476 6.44611 3.07324 6.42838C3.0754 6.42384 3.0769 6.41904 3.07919 6.41455L4.57919 3.41455C4.64148 3.28998 4.73723 3.18521 4.85571 3.11199C4.97419 3.03878 5.11072 3 5.25 3H18.75C18.8893 3 19.0258 3.03878 19.1443 3.11199C19.2628 3.18521 19.3585 3.28998 19.4208 3.41455L20.9208 6.41455C20.923 6.41904 20.9246 6.4238 20.9268 6.42833C20.9352 6.44614 20.943 6.46417 20.9501 6.48271C20.953 6.49031 20.9558 6.49791 20.9584 6.5056C20.9649 6.52423 20.9704 6.54319 20.9754 6.56246C20.9774 6.5701 20.9795 6.57765 20.9813 6.58535C20.9858 6.6054 20.9892 6.62581 20.992 6.64646C20.993 6.65337 20.9944 6.66024 20.9952 6.66719C20.9983 6.69469 20.9999 6.72233 21 6.75ZM4.96353 6H19.0365L18.2865 4.5H5.71353L4.96353 6ZM19.5009 19.5L19.5 7.5H4.5V19.5H19.5009Z" fill="#1D1F21" style="fill: var(--ui-icon-primary-color);"/>
</svg>
