<svg  viewBox="0 0 24 24" fill="none" xmlns="http://www.w3.org/2000/svg" id="__THIS_ID_NEEDS_FOR_UI_ICON_COMPONENT__">
<path d="M21.75 5.25C21.747 7.83496 20.7189 10.3132 18.891 12.1411C17.0632 13.9689 14.5849 14.9971 12 15H4.81063L8.03034 18.2196C8.09999 18.2893 8.15524 18.372 8.19293 18.463C8.23062 18.554 8.25002 18.6515 8.25002 18.75C8.25002 18.8485 8.23062 18.946 8.19293 19.037C8.15524 19.128 8.09999 19.2107 8.03034 19.2804C7.96069 19.35 7.87801 19.4053 7.78701 19.443C7.69601 19.4806 7.59847 19.5 7.49997 19.5C7.40148 19.5 7.30394 19.4806 7.21294 19.443C7.12194 19.4053 7.03926 19.35 6.96961 19.2804L2.46961 14.7804C2.46432 14.7751 2.45984 14.7693 2.45474 14.7639C2.44299 14.7514 2.43119 14.739 2.42031 14.7258C2.41177 14.7154 2.40426 14.7045 2.39636 14.6938C2.38976 14.6848 2.3828 14.6761 2.37659 14.6669C2.36864 14.655 2.36169 14.6427 2.35449 14.6305C2.34926 14.6217 2.34368 14.6131 2.33881 14.6039C2.33233 14.5919 2.3268 14.5794 2.32103 14.567C2.3164 14.5572 2.31145 14.5475 2.30724 14.5374C2.30233 14.5255 2.29834 14.5134 2.29405 14.5013C2.29011 14.4902 2.28584 14.4793 2.28241 14.468C2.27875 14.4559 2.27604 14.4437 2.273 14.4315C2.27013 14.4199 2.26688 14.4086 2.26455 14.3968C2.26173 14.3826 2.26001 14.3683 2.25801 14.354C2.25663 14.344 2.25472 14.3343 2.25373 14.3242C2.24884 14.2749 2.24884 14.2251 2.25373 14.1757C2.25472 14.1657 2.25663 14.156 2.25801 14.146C2.26001 14.1317 2.26173 14.1174 2.26455 14.1031C2.26688 14.0914 2.27013 14.0801 2.273 14.0685C2.27604 14.0563 2.27875 14.044 2.28241 14.032C2.28584 14.0207 2.29011 14.0098 2.29405 13.9987C2.29833 13.9866 2.30233 13.9745 2.30724 13.9626C2.31145 13.9525 2.3164 13.9428 2.32103 13.9329C2.3268 13.9206 2.33233 13.9081 2.33881 13.8961C2.34368 13.8869 2.34926 13.8783 2.35449 13.8695C2.36169 13.8573 2.36864 13.845 2.37659 13.8331C2.3828 13.8239 2.38976 13.8152 2.39636 13.8062C2.40426 13.7955 2.41177 13.7846 2.42031 13.7742C2.43118 13.761 2.44299 13.7486 2.45474 13.7361C2.45984 13.7307 2.46432 13.7249 2.46961 13.7196L6.96961 9.21963C7.11027 9.07897 7.30105 8.99994 7.49997 8.99994C7.6989 8.99994 7.88968 9.07897 8.03034 9.21963C8.171 9.36029 8.25002 9.55107 8.25002 9.74999C8.25002 9.94892 8.171 10.1397 8.03034 10.2804L4.81063 13.5H12C14.1873 13.4975 16.2842 12.6275 17.8309 11.0809C19.3775 9.53426 20.2475 7.43728 20.25 5.25C20.25 5.05109 20.329 4.86032 20.4696 4.71967C20.6103 4.57902 20.8011 4.5 21 4.5C21.1989 4.5 21.3897 4.57902 21.5303 4.71967C21.671 4.86032 21.75 5.05109 21.75 5.25Z" fill="#1D1F21" style="fill: var(--ui-icon-primary-color);"/>
</svg>
