<svg  viewBox="0 0 24 24" fill="none" xmlns="http://www.w3.org/2000/svg" id="__THIS_ID_NEEDS_FOR_UI_ICON_COMPONENT__">
<path d="M18.5303 18.5304C18.3897 18.671 18.1989 18.75 18 18.75C17.8011 18.75 17.6103 18.671 17.4697 18.5304L6.75 7.81069V15.75C6.75 15.9489 6.67098 16.1397 6.53033 16.2803C6.38968 16.421 6.19891 16.5 6 16.5C5.80109 16.5 5.61032 16.421 5.46967 16.2803C5.32902 16.1397 5.25 15.9489 5.25 15.75V6C5.25 5.80109 5.32902 5.61032 5.46967 5.46967C5.61032 5.32902 5.80109 5.25 6 5.25H15.75C15.9489 5.25 16.1397 5.32902 16.2803 5.46967C16.421 5.61032 16.5 5.80109 16.5 6C16.5 6.19891 16.421 6.38968 16.2803 6.53033C16.1397 6.67098 15.9489 6.75 15.75 6.75H7.81069L18.5303 17.4696C18.6 17.5393 18.6552 17.622 18.6929 17.713C18.7306 17.804 18.75 17.9015 18.75 18C18.75 18.0985 18.7306 18.196 18.6929 18.287C18.6552 18.378 18.6 18.4607 18.5303 18.5304Z" fill="#1D1F21" style="fill: var(--ui-icon-primary-color);"/>
</svg>
