<svg  viewBox="0 0 24 24" fill="none" xmlns="http://www.w3.org/2000/svg" id="__THIS_ID_NEEDS_FOR_UI_ICON_COMPONENT__">
<path d="M19.2803 12.9702C19.35 13.0398 19.4052 13.1225 19.4429 13.2135C19.4806 13.3045 19.5 13.402 19.5 13.5005C19.5 13.599 19.4806 13.6965 19.4429 13.7875C19.4052 13.8785 19.35 13.9612 19.2803 14.0308C19.2107 14.1004 19.128 14.1557 19.037 14.1934C18.946 14.2311 18.8485 14.2505 18.75 14.2505C18.6515 14.2505 18.554 14.2311 18.463 14.1934C18.372 14.1557 18.2893 14.1004 18.2197 14.0308L12.75 8.56113V21.7505C12.75 21.9494 12.671 22.1402 12.5303 22.2808C12.3897 22.4215 12.1989 22.5005 12 22.5005C11.8011 22.5005 11.6103 22.4215 11.4697 22.2808C11.329 22.1402 11.25 21.9494 11.25 21.7505V8.56113L5.78032 14.0308C5.71068 14.1004 5.628 14.1557 5.53701 14.1934C5.44601 14.2311 5.34849 14.2505 5.25 14.2505C5.15151 14.2505 5.05399 14.2311 4.96299 14.1934C4.872 14.1557 4.78932 14.1004 4.71968 14.0308C4.65004 13.9612 4.5948 13.8785 4.5571 13.7875C4.51941 13.6965 4.50002 13.599 4.50002 13.5005C4.50002 13.402 4.51941 13.3045 4.5571 13.2135C4.59479 13.1225 4.65004 13.0398 4.71968 12.9702L11.4697 6.22017C11.6103 6.07952 11.8011 6.00051 12 6.00051C12.1989 6.00051 12.3897 6.07952 12.5303 6.22017L19.2803 12.9702ZM19.5 3.00049H4.5C4.30109 3.00049 4.11032 3.07951 3.96967 3.22016C3.82902 3.36081 3.75 3.55158 3.75 3.75049C3.75 3.9494 3.82902 4.14017 3.96967 4.28082C4.11032 4.42147 4.30109 4.50049 4.5 4.50049H19.5C19.6989 4.50049 19.8897 4.42147 20.0303 4.28082C20.171 4.14017 20.25 3.9494 20.25 3.75049C20.25 3.55158 20.171 3.36081 20.0303 3.22016C19.8897 3.07951 19.6989 3.00049 19.5 3.00049Z" fill="#1D1F21" style="fill: var(--ui-icon-primary-color);"/>
</svg>
