<svg  viewBox="0 0 24 24" fill="none" xmlns="http://www.w3.org/2000/svg" id="__THIS_ID_NEEDS_FOR_UI_ICON_COMPONENT__">
<path d="M19.5 3H4.5C4.10231 3.00045 3.72105 3.15864 3.43984 3.43984C3.15864 3.72105 3.00045 4.10231 3 4.5V19.5C3.00045 19.8977 3.15864 20.279 3.43984 20.5602C3.72105 20.8414 4.10231 20.9995 4.5 21H19.5C19.8977 20.9995 20.279 20.8414 20.5602 20.5602C20.8414 20.279 20.9995 19.8977 21 19.5V4.5C20.9995 4.10231 20.8414 3.72105 20.5602 3.43984C20.279 3.15864 19.8977 3.00045 19.5 3ZM19.5 19.5H4.5V4.5H19.5L19.501 19.5H19.5ZM15.7123 12.0376C15.7819 12.1073 15.8372 12.19 15.8749 12.281C15.9126 12.372 15.932 12.4695 15.932 12.568C15.932 12.6665 15.9126 12.764 15.8749 12.855C15.8372 12.946 15.7819 13.0287 15.7123 13.0984L12.5303 16.2804C12.3897 16.421 12.1989 16.5 12 16.5C11.8011 16.5 11.6103 16.421 11.4697 16.2804L8.28772 13.0984C8.14706 12.9577 8.06803 12.7669 8.06802 12.568C8.06802 12.4695 8.08741 12.372 8.1251 12.281C8.16279 12.19 8.21803 12.1073 8.28767 12.0377C8.35732 11.968 8.43999 11.9128 8.53099 11.8751C8.62198 11.8374 8.71951 11.818 8.81801 11.818C9.01692 11.818 9.2077 11.897 9.34836 12.0376L11.25 13.9393V8.25C11.25 8.05109 11.329 7.86032 11.4697 7.71967C11.6103 7.57902 11.8011 7.5 12 7.5C12.1989 7.5 12.3897 7.57902 12.5303 7.71967C12.671 7.86032 12.75 8.05109 12.75 8.25V13.9393L14.6516 12.0376C14.7923 11.897 14.9831 11.818 15.182 11.818C15.3809 11.818 15.5716 11.897 15.7123 12.0376Z" fill="#1D1F21" style="fill: var(--ui-icon-primary-color);"/>
</svg>
