<svg  viewBox="0 0 24 24" fill="none" xmlns="http://www.w3.org/2000/svg" id="__THIS_ID_NEEDS_FOR_UI_ICON_COMPONENT__">
<path d="M19.5 3H4.5C4.10231 3.00045 3.72105 3.15864 3.43984 3.43984C3.15864 3.72105 3.00045 4.10231 3 4.5V19.5C3.00045 19.8977 3.15864 20.279 3.43984 20.5602C3.72105 20.8414 4.10231 20.9995 4.5 21H19.5C19.8977 20.9995 20.279 20.8414 20.5602 20.5602C20.8414 20.279 20.9995 19.8977 21 19.5V4.5C20.9995 4.10231 20.8414 3.72105 20.5602 3.43984C20.279 3.15864 19.8977 3.00045 19.5 3ZM19.5 19.5H4.5V4.5H19.5V19.5ZM7.5 12C7.5 11.8011 7.57902 11.6103 7.71967 11.4697C7.86032 11.329 8.05109 11.25 8.25 11.25H13.9394L12.0377 9.34836C11.9681 9.27872 11.9128 9.19604 11.8751 9.10504C11.8374 9.01405 11.818 8.91652 11.818 8.81803C11.818 8.71953 11.8374 8.622 11.8751 8.531C11.9128 8.44001 11.968 8.35732 12.0377 8.28767C12.1073 8.21803 12.19 8.16278 12.281 8.12508C12.372 8.08738 12.4695 8.06798 12.568 8.06798C12.6665 8.06797 12.764 8.08737 12.855 8.12506C12.946 8.16274 13.0287 8.21799 13.0984 8.28763L16.2803 11.4696C16.35 11.5393 16.4052 11.622 16.4429 11.713C16.4806 11.804 16.5 11.9015 16.5 12C16.5 12.0985 16.4806 12.196 16.4429 12.287C16.4052 12.378 16.35 12.4607 16.2803 12.5304L13.0984 15.7124C13.0287 15.782 12.946 15.8373 12.855 15.8749C12.764 15.9126 12.6665 15.932 12.568 15.932C12.4695 15.932 12.372 15.9126 12.281 15.8749C12.19 15.8372 12.1073 15.782 12.0377 15.7123C11.968 15.6427 11.9128 15.56 11.8751 15.469C11.8374 15.378 11.818 15.2805 11.818 15.182C11.818 15.0835 11.8374 14.986 11.8751 14.895C11.9128 14.804 11.9681 14.7213 12.0377 14.6516L13.9394 12.75H8.25C8.05109 12.75 7.86032 12.671 7.71967 12.5303C7.57902 12.3897 7.5 12.1989 7.5 12Z" fill="#1D1F21" style="fill: var(--ui-icon-primary-color);"/>
</svg>
