<svg  viewBox="0 0 24 24" fill="none" xmlns="http://www.w3.org/2000/svg" id="__THIS_ID_NEEDS_FOR_UI_ICON_COMPONENT__">
<path d="M4.71968 11.0298C4.57903 10.8892 4.50002 10.6984 4.50002 10.4995C4.50002 10.3006 4.57903 10.1098 4.71968 9.96919C4.86033 9.82854 5.05109 9.74953 5.25 9.74953C5.44891 9.74953 5.63967 9.82854 5.78032 9.96919L11.25 15.4389V2.24951C11.25 2.0506 11.329 1.85983 11.4697 1.71918C11.6103 1.57853 11.8011 1.49951 12 1.49951C12.1989 1.49951 12.3897 1.57853 12.5303 1.71918C12.671 1.85983 12.75 2.0506 12.75 2.24951V15.4389L18.2197 9.96919C18.3603 9.82854 18.5511 9.74953 18.75 9.74953C18.9489 9.74953 19.1397 9.82854 19.2803 9.96919C19.421 10.1098 19.5 10.3006 19.5 10.4995C19.5 10.6984 19.421 10.8892 19.2803 11.0298L12.5303 17.7798C12.4607 17.8495 12.378 17.9047 12.287 17.9424C12.196 17.9801 12.0985 17.9995 12 17.9995C11.9015 17.9995 11.804 17.9801 11.713 17.9424C11.622 17.9047 11.5393 17.8495 11.4697 17.7798L4.71968 11.0298ZM19.5 19.4995H4.5C4.30109 19.4995 4.11032 19.5785 3.96967 19.7192C3.82902 19.8598 3.75 20.0506 3.75 20.2495C3.75 20.4484 3.82902 20.6392 3.96967 20.7798C4.11032 20.9205 4.30109 20.9995 4.5 20.9995H19.5C19.6989 20.9995 19.8897 20.9205 20.0303 20.7798C20.171 20.6392 20.25 20.4484 20.25 20.2495C20.25 20.0506 20.171 19.8598 20.0303 19.7192C19.8897 19.5785 19.6989 19.4995 19.5 19.4995Z" fill="#1D1F21" style="fill: var(--ui-icon-primary-color);"/>
</svg>
