<svg  viewBox="0 0 24 24" fill="none" xmlns="http://www.w3.org/2000/svg" id="__THIS_ID_NEEDS_FOR_UI_ICON_COMPONENT__">
<path d="M11.9999 2.25C10.0716 2.25 8.18651 2.82183 6.58313 3.89317C4.97975 4.96451 3.73007 6.48726 2.99212 8.26884C2.25416 10.0504 2.06108 12.0108 2.43729 13.9021C2.81349 15.7934 3.74209 17.5307 5.10565 18.8943C6.46921 20.2579 8.2065 21.1865 10.0978 21.5627C11.9891 21.9389 13.9495 21.7458 15.7311 21.0078C17.5127 20.2699 19.0354 19.0202 20.1068 17.4168C21.1781 15.8134 21.7499 13.9284 21.7499 12C21.747 9.41504 20.7188 6.93679 18.891 5.10894C17.0632 3.28109 14.5849 2.25293 11.9999 2.25ZM11.9999 20.25C10.3682 20.25 8.77319 19.7661 7.41649 18.8596C6.05978 17.9531 5.00236 16.6646 4.37794 15.1571C3.75351 13.6496 3.59014 11.9908 3.90846 10.3905C4.22679 8.79016 5.01253 7.32015 6.16631 6.16637C7.3201 5.01259 8.7901 4.22685 10.3904 3.90852C11.9908 3.59019 13.6496 3.75357 15.1571 4.37799C16.6646 5.00242 17.953 6.05984 18.8596 7.41655C19.7661 8.77325 20.2499 10.3683 20.2499 12C20.2475 14.1873 19.3775 16.2843 17.8308 17.8309C16.2842 19.3775 14.1872 20.2475 11.9999 20.25ZM15.1553 14.0947C15.225 14.1643 15.2803 14.247 15.318 14.338C15.3558 14.429 15.3752 14.5266 15.3753 14.6251C15.3753 14.7236 15.3559 14.8212 15.3182 14.9122C15.2805 15.0033 15.2253 15.086 15.1556 15.1557C15.0859 15.2253 15.0032 15.2806 14.9122 15.3183C14.8211 15.356 14.7236 15.3753 14.625 15.3753C14.5265 15.3753 14.429 15.3558 14.3379 15.3181C14.2469 15.2803 14.1643 15.225 14.0946 15.1553L10.1249 11.1856V13.875C10.1249 14.0739 10.0459 14.2647 9.90527 14.4053C9.76462 14.546 9.57386 14.625 9.37494 14.625C9.17603 14.625 8.98527 14.546 8.84461 14.4053C8.70396 14.2647 8.62494 14.0739 8.62494 13.875V9.375C8.62495 9.17609 8.70396 8.98532 8.84462 8.84467C8.98527 8.70402 9.17603 8.625 9.37494 8.625H13.8749C14.0739 8.625 14.2646 8.70402 14.4053 8.84467C14.5459 8.98532 14.6249 9.17609 14.6249 9.375C14.6249 9.57391 14.5459 9.76468 14.4053 9.90533C14.2646 10.046 14.0739 10.125 13.8749 10.125H11.1856L15.1553 14.0947Z" fill="#1D1F21" style="fill: var(--ui-icon-primary-color);"/>
</svg>
