<svg  viewBox="0 0 24 24" fill="none" xmlns="http://www.w3.org/2000/svg" id="__THIS_ID_NEEDS_FOR_UI_ICON_COMPONENT__">
<path d="M21.4374 14.6323C21.4185 14.6341 21.3995 14.6348 21.3805 14.6352C21.3749 14.6353 21.3695 14.636 21.3639 14.636H15.3639C15.165 14.636 14.9742 14.557 14.8336 14.4163C14.6929 14.2757 14.6139 14.0849 14.6139 13.886C14.6139 13.6871 14.6929 13.4963 14.8336 13.3557C14.9742 13.215 15.165 13.136 15.3639 13.136H19.5532L17.8336 11.4164C16.6798 10.2626 15.2098 9.47688 13.6095 9.15857C12.0091 8.84025 10.3504 9.00363 8.84288 9.62804C7.33541 10.2525 6.04695 11.3099 5.14042 12.6665C4.2339 14.0232 3.75003 15.6182 3.75 17.2499C3.75 17.4488 3.67098 17.6396 3.53033 17.7802C3.38968 17.9209 3.19891 17.9999 3 17.9999C2.80109 17.9999 2.61032 17.9209 2.46967 17.7802C2.32902 17.6396 2.25 17.4488 2.25 17.2499C2.25 15.3215 2.82183 13.4365 3.89317 11.8331C4.96451 10.2297 6.48725 8.98004 8.26883 8.24208C10.0504 7.50413 12.0108 7.31105 13.9021 7.68725C15.7934 8.06346 17.5307 8.99206 18.8943 10.3556L20.6139 12.0753V7.88599C20.6139 7.68707 20.6929 7.49631 20.8336 7.35566C20.9742 7.215 21.165 7.13599 21.3639 7.13599C21.5628 7.13599 21.7536 7.215 21.8943 7.35566C22.0349 7.49631 22.1139 7.68707 22.1139 7.88599V13.8855C22.1139 13.9104 22.1126 13.9354 22.1102 13.9602C22.1092 13.9703 22.1073 13.98 22.1059 13.9899C22.1039 14.0043 22.1022 14.0186 22.0993 14.0328C22.097 14.0446 22.0938 14.0559 22.0909 14.0674C22.0879 14.0797 22.0851 14.0919 22.0815 14.104C22.0781 14.1153 22.0738 14.1262 22.0698 14.1373C22.0656 14.1494 22.0616 14.1615 22.0567 14.1734C22.0524 14.1834 22.0475 14.1932 22.0429 14.203C22.0371 14.2154 22.0316 14.2279 22.0251 14.2399C22.0202 14.249 22.0146 14.2577 22.0094 14.2665C22.0022 14.2787 21.9953 14.291 21.9873 14.3029C21.9811 14.3121 21.9741 14.3208 21.9675 14.3297C21.9596 14.3405 21.9521 14.3514 21.9436 14.3618C21.9327 14.375 21.9209 14.3874 21.9092 14.3999C21.9041 14.4053 21.8996 14.411 21.8943 14.4164C21.8893 14.4213 21.8838 14.4256 21.8787 14.4304C21.866 14.4425 21.8532 14.4546 21.8396 14.4658C21.8299 14.4737 21.8197 14.4807 21.8097 14.4881C21.8 14.4953 21.7906 14.5028 21.7805 14.5096C21.7695 14.5169 21.7581 14.5233 21.7468 14.53C21.7371 14.5358 21.7275 14.542 21.7175 14.5474C21.7064 14.5533 21.695 14.5583 21.6837 14.5636C21.6727 14.5688 21.662 14.5742 21.6508 14.5789C21.6402 14.5833 21.6294 14.5868 21.6187 14.5906C21.6063 14.5952 21.594 14.5999 21.5813 14.6037C21.5711 14.6068 21.5607 14.609 21.5504 14.6117C21.537 14.6151 21.5237 14.6188 21.51 14.6215C21.4988 14.6237 21.4874 14.625 21.4761 14.6267C21.4632 14.6286 21.4505 14.631 21.4374 14.6323Z" fill="#1D1F21" style="fill: var(--ui-icon-primary-color);"/>
</svg>
