<svg  viewBox="0 0 24 24" fill="none" xmlns="http://www.w3.org/2000/svg" id="__THIS_ID_NEEDS_FOR_UI_ICON_COMPONENT__">
<path d="M18.7501 6V15.75C18.7501 15.9489 18.6711 16.1397 18.5304 16.2803C18.3898 16.421 18.199 16.5 18.0001 16.5C17.8012 16.5 17.6104 16.421 17.4697 16.2803C17.3291 16.1397 17.2501 15.9489 17.2501 15.75V7.81069L6.5304 18.5304C6.38974 18.671 6.19896 18.75 6.00005 18.75C5.80113 18.75 5.61036 18.671 5.46971 18.5303C5.32906 18.3897 5.25005 18.1989 5.25006 18C5.25007 17.8011 5.3291 17.6103 5.46976 17.4696L16.1894 6.75H8.25008C8.05117 6.75 7.8604 6.67098 7.71975 6.53033C7.5791 6.38968 7.50008 6.19891 7.50008 6C7.50008 5.80109 7.5791 5.61032 7.71975 5.46967C7.8604 5.32902 8.05117 5.25 8.25008 5.25H18.0001C18.199 5.25001 18.3897 5.32903 18.5304 5.46968C18.671 5.61033 18.7501 5.80109 18.7501 6Z" fill="#1D1F21" style="fill: var(--ui-icon-primary-color);"/>
</svg>
