<svg  viewBox="0 0 24 24" fill="none" xmlns="http://www.w3.org/2000/svg" id="__THIS_ID_NEEDS_FOR_UI_ICON_COMPONENT__">
<path d="M19.5 21C19.5 21.1989 19.421 21.3897 19.2803 21.5303C19.1397 21.671 18.9489 21.75 18.75 21.75C16.165 21.7471 13.6868 20.7189 11.8589 18.8911C10.0311 17.0632 9.00291 14.585 8.99999 12V4.81066L5.78035 8.03036C5.63969 8.17103 5.44891 8.25005 5.24999 8.25005C5.05106 8.25005 4.86028 8.17103 4.71962 8.03036C4.57896 7.8897 4.49994 7.69893 4.49994 7.5C4.49994 7.30107 4.57896 7.1103 4.71962 6.96964L9.21962 2.46963C9.22463 2.46465 9.23008 2.46039 9.23519 2.45558C9.24795 2.4435 9.26071 2.43141 9.27429 2.42024C9.28408 2.4122 9.29436 2.40518 9.30444 2.39772C9.31404 2.39057 9.32338 2.38314 9.33332 2.37648C9.3444 2.36906 9.3559 2.36261 9.36728 2.35585C9.37698 2.35006 9.38645 2.34397 9.39643 2.33864C9.40751 2.33271 9.41891 2.32767 9.43022 2.32234C9.44116 2.31717 9.45192 2.31172 9.46314 2.30708C9.4737 2.3027 9.48449 2.2992 9.49521 2.29533C9.50762 2.29085 9.5199 2.28611 9.53262 2.28227C9.54288 2.27915 9.55333 2.27691 9.56369 2.27428C9.57703 2.27087 9.59023 2.26716 9.60384 2.26446C9.61522 2.26221 9.62673 2.26093 9.63818 2.25924C9.65093 2.25732 9.66352 2.25496 9.67647 2.2537C9.6954 2.25185 9.7144 2.25125 9.7334 2.25082C9.73897 2.25071 9.74439 2.25 9.74999 2.25C9.75559 2.25 9.761 2.25071 9.76658 2.25082C9.78557 2.25126 9.80458 2.25186 9.82351 2.25371C9.83645 2.25497 9.84904 2.25732 9.86179 2.25925C9.87325 2.26094 9.88475 2.26222 9.89614 2.26447C9.90975 2.26717 9.92295 2.27087 9.93629 2.27428C9.94665 2.27692 9.95709 2.27916 9.96736 2.28227C9.98007 2.28612 9.99235 2.29086 10.0048 2.29534C10.0155 2.29921 10.0263 2.30271 10.0368 2.30708C10.0481 2.31173 10.0588 2.31718 10.0698 2.32235C10.0811 2.32768 10.0925 2.33272 10.1035 2.33865C10.1135 2.34398 10.123 2.35007 10.1327 2.35586C10.1441 2.36261 10.1556 2.36906 10.1667 2.37648C10.1766 2.38314 10.1859 2.39058 10.1955 2.39772C10.2056 2.40518 10.2159 2.41221 10.2257 2.42025C10.2393 2.43141 10.252 2.4435 10.2648 2.45559C10.2699 2.4604 10.2753 2.46465 10.2804 2.46964L14.7804 6.96964C14.921 7.1103 15 7.30108 15 7.50001C15 7.69893 14.921 7.88971 14.7804 8.03037C14.6397 8.17103 14.4489 8.25006 14.25 8.25006C14.0511 8.25006 13.8603 8.17103 13.7196 8.03037L10.5 4.81066V12C10.5025 14.1873 11.3724 16.2843 12.9191 17.8309C14.4657 19.3775 16.5627 20.2475 18.75 20.25C18.9489 20.25 19.1397 20.329 19.2803 20.4697C19.421 20.6103 19.5 20.8011 19.5 21Z" fill="#1D1F21" style="fill: var(--ui-icon-primary-color);"/>
</svg>
