<svg  viewBox="0 0 24 24" fill="none" xmlns="http://www.w3.org/2000/svg" id="__THIS_ID_NEEDS_FOR_UI_ICON_COMPONENT__">
<path d="M19.5 6.75023H12V3.00023C12 2.8519 11.956 2.7069 11.8736 2.58357C11.7912 2.46024 11.674 2.36411 11.537 2.30734C11.4 2.25058 11.2492 2.23572 11.1037 2.26465C10.9582 2.29357 10.8246 2.36499 10.7197 2.46986L1.71966 11.4699C1.57901 11.6105 1.5 11.8013 1.5 12.0002C1.5 12.1992 1.57901 12.3899 1.71966 12.5306L10.7197 21.5306C10.8246 21.6355 10.9582 21.7069 11.1037 21.7358C11.2492 21.7647 11.4 21.7499 11.537 21.6931C11.674 21.6363 11.7912 21.5402 11.8736 21.4169C11.956 21.2936 12 21.1486 12 21.0002V17.2502H19.5C19.8977 17.2498 20.279 17.0916 20.5602 16.8104C20.8414 16.5292 20.9996 16.1479 21 15.7502V8.25023C20.9996 7.85254 20.8414 7.47128 20.5602 7.19007C20.279 6.90887 19.8977 6.75068 19.5 6.75023ZM19.5 15.7502H11.25C11.0511 15.7502 10.8604 15.8293 10.7197 15.9699C10.5791 16.1106 10.5 16.3013 10.5 16.5002V19.1896L3.31066 12.0002L10.5 4.81087V7.50023C10.5 7.69914 10.5791 7.8899 10.7197 8.03055C10.8604 8.1712 11.0511 8.25022 11.25 8.25023H19.5V15.7502Z" fill="#1D1F21" style="fill: var(--ui-icon-primary-color);"/>
</svg>
