<svg  viewBox="0 0 24 24" fill="none" xmlns="http://www.w3.org/2000/svg" id="__THIS_ID_NEEDS_FOR_UI_ICON_COMPONENT__">
<path d="M18.75 9.75V18.75C18.75 18.9489 18.671 19.1397 18.5303 19.2803C18.3897 19.421 18.1989 19.5 18 19.5H9C8.80109 19.5 8.61032 19.421 8.46967 19.2803C8.32902 19.1397 8.25 18.9489 8.25 18.75C8.25 18.5511 8.32902 18.3603 8.46967 18.2197C8.61032 18.079 8.80109 18 9 18H16.1893L6.96968 8.78032C6.82918 8.63964 6.75029 8.44892 6.75035 8.2501C6.75041 8.05127 6.82942 7.86061 6.97001 7.72001C7.11061 7.57942 7.30127 7.50041 7.5001 7.50035C7.69892 7.50029 7.88964 7.57918 8.03032 7.71968L17.25 16.9393V9.75C17.25 9.55109 17.329 9.36032 17.4697 9.21967C17.6103 9.07902 17.8011 9 18 9C18.1989 9 18.3897 9.07902 18.5303 9.21967C18.671 9.36032 18.75 9.55109 18.75 9.75ZM19.5 3H4.5C4.30109 3 4.11032 3.07902 3.96967 3.21967C3.82902 3.36032 3.75 3.55109 3.75 3.75C3.75 3.94891 3.82902 4.13968 3.96967 4.28033C4.11032 4.42098 4.30109 4.5 4.5 4.5H19.5C19.6989 4.5 19.8897 4.42098 20.0303 4.28033C20.171 4.13968 20.25 3.94891 20.25 3.75C20.25 3.55109 20.171 3.36032 20.0303 3.21967C19.8897 3.07902 19.6989 3 19.5 3Z" fill="#1D1F21" style="fill: var(--ui-icon-primary-color);"/>
</svg>
