<svg  viewBox="0 0 24 24" fill="none" xmlns="http://www.w3.org/2000/svg" id="__THIS_ID_NEEDS_FOR_UI_ICON_COMPONENT__">
<path d="M18.3639 18.364C16.6747 20.0493 14.386 20.9958 11.9999 20.9958C9.61379 20.9958 7.32509 20.0493 5.6359 18.364C5.49524 18.2233 5.41622 18.0326 5.41622 17.8336C5.41622 17.6347 5.49524 17.4439 5.6359 17.3033C5.77657 17.1626 5.96734 17.0836 6.16627 17.0836C6.36519 17.0836 6.55597 17.1626 6.69663 17.3033C7.74553 18.3522 9.0819 19.0665 10.5368 19.3559C11.9916 19.6452 13.4996 19.4967 14.87 18.9291C16.2405 18.3614 17.4118 17.4001 18.2359 16.1667C19.06 14.9334 19.4999 13.4833 19.4999 12C19.4999 10.5166 19.06 9.06657 18.2359 7.8332C17.4118 6.59984 16.2405 5.63854 14.87 5.07088C13.4996 4.50323 11.9916 4.3547 10.5368 4.64409C9.0819 4.93347 7.74553 5.64778 6.69663 6.69666L4.79495 8.59835H7.48426C7.68317 8.59835 7.87394 8.67737 8.01459 8.81802C8.15524 8.95867 8.23426 9.14944 8.23426 9.34835C8.23426 9.54726 8.15524 9.73803 8.01459 9.87868C7.87394 10.0193 7.68317 10.0984 7.48426 10.0984H2.98426C2.98146 10.0984 2.97876 10.098 2.97596 10.0979C2.95411 10.0977 2.93227 10.0968 2.9105 10.0946C2.89844 10.0934 2.88671 10.0912 2.87481 10.0895C2.8625 10.0877 2.85015 10.0863 2.83792 10.0838C2.82475 10.0812 2.81198 10.0777 2.79907 10.0744C2.78829 10.0716 2.77744 10.0693 2.76677 10.0661C2.75419 10.0623 2.74205 10.0576 2.72977 10.0531C2.71896 10.0492 2.70808 10.0457 2.69742 10.0413C2.68609 10.0366 2.67522 10.0311 2.66418 10.0258C2.65302 10.0206 2.64176 10.0156 2.63081 10.0098C2.62038 10.0042 2.61045 9.99782 2.60031 9.99176C2.58944 9.98526 2.57843 9.97912 2.56782 9.97202C2.55684 9.96468 2.54653 9.9565 2.53597 9.94861C2.52692 9.94183 2.51763 9.93554 2.50882 9.9283C2.49136 9.91397 2.47469 9.89874 2.45859 9.88292C2.45707 9.88142 2.4554 9.88018 2.45389 9.87867C2.45197 9.87675 2.45038 9.87462 2.44848 9.87268C2.43314 9.85701 2.41831 9.84086 2.40439 9.8239C2.39664 9.81447 2.38987 9.80454 2.38265 9.79483C2.37528 9.78492 2.3676 9.77527 2.36071 9.76499C2.35313 9.75367 2.34653 9.74194 2.33964 9.73031C2.33407 9.72094 2.32816 9.71179 2.323 9.70215C2.31667 9.69035 2.31131 9.67822 2.30566 9.66615C2.30089 9.65599 2.2958 9.64603 2.29148 9.63562C2.28665 9.62394 2.28272 9.61201 2.2785 9.60014C2.27448 9.5889 2.27015 9.57783 2.26667 9.56634C2.26305 9.55437 2.26037 9.5422 2.25735 9.53008C2.25446 9.51846 2.25118 9.507 2.24883 9.49517C2.24601 9.48102 2.2443 9.46673 2.24232 9.45247C2.24092 9.44249 2.23899 9.43269 2.238 9.42259C2.23555 9.39775 2.23424 9.37282 2.23425 9.34787V4.84835C2.23425 4.64944 2.31327 4.45867 2.45392 4.31802C2.59458 4.17737 2.78534 4.09835 2.98425 4.09835C3.18317 4.09835 3.37393 4.17737 3.51458 4.31802C3.65524 4.45867 3.73425 4.64944 3.73425 4.84835V7.53766L5.6359 5.63603C7.32388 3.94885 9.61287 3.00119 11.9995 3.00146C14.3861 3.00174 16.6748 3.94994 18.3624 5.63751C20.05 7.32508 20.9982 9.61385 20.9985 12.0004C20.9988 14.387 20.0511 16.676 18.3639 18.364Z" fill="#1D1F21" style="fill: var(--ui-icon-primary-color);"/>
</svg>
