<svg  viewBox="0 0 24 24" fill="none" xmlns="http://www.w3.org/2000/svg" id="__THIS_ID_NEEDS_FOR_UI_ICON_COMPONENT__">
<path d="M19.5 3C19.5 3.19891 19.421 3.38967 19.2803 3.53032C19.1397 3.67097 18.9489 3.74999 18.75 3.75C16.5627 3.75247 14.4657 4.62246 12.9191 6.1691C11.3724 7.71574 10.5025 9.81272 10.5 12V19.1894L13.7196 15.9696C13.8603 15.829 14.0511 15.75 14.25 15.75C14.4489 15.75 14.6397 15.829 14.7804 15.9696C14.921 16.1103 15 16.3011 15 16.5C15 16.6989 14.921 16.8897 14.7804 17.0304L10.2804 21.5304C10.2753 21.5354 10.2697 21.5398 10.2645 21.5447C10.2518 21.5566 10.2392 21.5686 10.2257 21.5797C10.2157 21.588 10.2052 21.5951 10.1949 21.6027C10.1856 21.6097 10.1764 21.617 10.1667 21.6235C10.1553 21.6311 10.1435 21.6378 10.1317 21.6447C10.1224 21.6503 10.1133 21.6561 10.1038 21.6612C10.0921 21.6675 10.0802 21.6728 10.0683 21.6784C10.0579 21.6832 10.0478 21.6884 10.0371 21.6928C10.0258 21.6975 10.0142 21.7013 10.0027 21.7054C9.99108 21.7096 9.97964 21.714 9.9678 21.7176C9.95639 21.7211 9.9448 21.7236 9.93327 21.7265C9.92106 21.7296 9.909 21.733 9.89656 21.7354C9.88336 21.7381 9.87004 21.7397 9.85674 21.7415C9.84582 21.7431 9.83508 21.7451 9.82401 21.7462C9.7994 21.7487 9.7747 21.75 9.74999 21.75C9.72528 21.75 9.70057 21.7487 9.67596 21.7462C9.6649 21.7451 9.65416 21.7431 9.64324 21.7415C9.62994 21.7397 9.61661 21.7381 9.60342 21.7354C9.59098 21.733 9.57892 21.7296 9.56671 21.7265C9.55518 21.7236 9.54358 21.7211 9.53217 21.7176C9.52033 21.714 9.5089 21.7096 9.49732 21.7054C9.48579 21.7013 9.4742 21.6975 9.46284 21.6928C9.45222 21.6884 9.44206 21.6832 9.4317 21.6784C9.41982 21.6728 9.40786 21.6675 9.39622 21.6612C9.38664 21.6561 9.37756 21.6503 9.36824 21.6447C9.35651 21.6378 9.34467 21.6311 9.33325 21.6235C9.32353 21.617 9.31442 21.6097 9.30504 21.6027C9.29474 21.5951 9.28424 21.588 9.27426 21.5797C9.26079 21.5686 9.24814 21.5566 9.23548 21.5447C9.23028 21.5398 9.22472 21.5354 9.21962 21.5304L4.71962 17.0304C4.64997 16.9607 4.59473 16.878 4.55703 16.787C4.51934 16.696 4.49994 16.5985 4.49994 16.5C4.49994 16.4015 4.51934 16.304 4.55703 16.213C4.59473 16.122 4.64997 16.0393 4.71962 15.9696C4.86028 15.829 5.05106 15.75 5.24999 15.75C5.34849 15.75 5.44602 15.7694 5.53702 15.807C5.62802 15.8447 5.71071 15.9 5.78035 15.9696L8.99999 19.1894V12C9.00291 9.41504 10.0311 6.93679 11.8589 5.10894C13.6868 3.28109 16.165 2.25293 18.75 2.25C18.9489 2.25001 19.1397 2.32903 19.2803 2.46968C19.421 2.61033 19.5 2.80109 19.5 3Z" fill="#1D1F21" style="fill: var(--ui-icon-primary-color);"/>
</svg>
