<svg  viewBox="0 0 24 24" fill="none" xmlns="http://www.w3.org/2000/svg" id="__THIS_ID_NEEDS_FOR_UI_ICON_COMPONENT__">
<path d="M21.1225 10.0898C21.1116 10.0914 21.1008 10.0935 21.0898 10.0946C21.0652 10.097 21.0405 10.0983 21.0157 10.0983H16.5157C16.3168 10.0983 16.1261 10.0193 15.9854 9.87863C15.8448 9.73797 15.7657 9.54721 15.7657 9.3483C15.7657 9.14938 15.8448 8.95862 15.9854 8.81797C16.1261 8.67731 16.3168 8.5983 16.5157 8.5983H19.205L17.3034 6.69666C15.8958 5.29215 13.9885 4.50337 12.0001 4.50337C10.0116 4.50337 8.10439 5.29215 6.6968 6.69666C6.55614 6.83732 6.36536 6.91634 6.16643 6.91634C5.96751 6.91634 5.77673 6.83732 5.63607 6.69666C5.49541 6.55599 5.41638 6.36522 5.41638 6.16629C5.41638 5.96736 5.49541 5.77659 5.63607 5.63593C7.32525 3.95062 9.61395 3.00415 12.0001 3.00415C14.3862 3.00415 16.6749 3.95062 18.3641 5.63593L20.2657 7.53757V4.8483C20.2657 4.64938 20.3448 4.45862 20.4854 4.31797C20.6261 4.17731 20.8168 4.0983 21.0157 4.0983C21.2147 4.0983 21.4054 4.17731 21.5461 4.31797C21.6867 4.45862 21.7657 4.64938 21.7657 4.8483V9.34782C21.7658 9.37277 21.7644 9.39769 21.762 9.42254C21.761 9.43259 21.7591 9.44234 21.7577 9.45227C21.7557 9.46659 21.754 9.48093 21.7512 9.49513C21.7488 9.50687 21.7456 9.51822 21.7427 9.52975C21.7397 9.54198 21.737 9.55425 21.7333 9.56633C21.7299 9.57765 21.7256 9.58855 21.7217 9.59963C21.7174 9.61169 21.7134 9.6238 21.7085 9.63566C21.7043 9.64578 21.6993 9.65546 21.6947 9.66534C21.6889 9.67771 21.6834 9.69016 21.6769 9.70226C21.672 9.71134 21.6665 9.71995 21.6612 9.7288C21.654 9.74101 21.6471 9.75331 21.6391 9.76518C21.6329 9.77445 21.626 9.78311 21.6194 9.79208C21.6115 9.8028 21.6039 9.81372 21.5954 9.8241C21.5845 9.83733 21.5727 9.84975 21.561 9.86221C21.5559 9.86761 21.5514 9.87337 21.5461 9.87866C21.541 9.88375 21.5354 9.88807 21.5302 9.89298C21.5176 9.90495 21.5049 9.91695 21.4915 9.92802C21.4815 9.93623 21.471 9.94342 21.4607 9.95103C21.4513 9.95797 21.4422 9.96526 21.4325 9.97177C21.4211 9.97942 21.4092 9.98608 21.3975 9.99303C21.3882 9.99856 21.3791 10.0044 21.3695 10.0096C21.3579 10.0158 21.3459 10.0211 21.334 10.0267C21.3237 10.0315 21.3135 10.0367 21.3029 10.0411C21.2915 10.0458 21.2799 10.0496 21.2684 10.0537C21.2568 10.0579 21.2454 10.0623 21.2336 10.0659C21.2221 10.0694 21.2106 10.0719 21.199 10.0748C21.1868 10.0779 21.1747 10.0813 21.1623 10.0838C21.1491 10.0864 21.1358 10.0879 21.1225 10.0898ZM17.3034 17.3032C15.8958 18.7077 13.9885 19.4965 12.0001 19.4965C10.0116 19.4965 8.10439 18.7077 6.6968 17.3032L4.79516 15.4016H7.48443C7.68334 15.4016 7.8741 15.3226 8.01476 15.1819C8.15541 15.0413 8.23443 14.8505 8.23443 14.6516C8.23443 14.4527 8.15541 14.2619 8.01476 14.1213C7.8741 13.9806 7.68334 13.9016 7.48443 13.9016H2.98443C2.97882 13.9016 2.97341 13.9023 2.96784 13.9024C2.94884 13.9028 2.92984 13.9034 2.91091 13.9053C2.89796 13.9066 2.88537 13.9089 2.87262 13.9108C2.86117 13.9125 2.84966 13.9138 2.83828 13.9161C2.82467 13.9187 2.81147 13.9224 2.79813 13.9259C2.78776 13.9285 2.77732 13.9308 2.76706 13.9338C2.75434 13.9377 2.74206 13.9424 2.72965 13.9469C2.71894 13.9508 2.70815 13.9543 2.69759 13.9587C2.68637 13.9633 2.6756 13.9688 2.66466 13.9739C2.65335 13.9793 2.64196 13.9843 2.63087 13.9902C2.62089 13.9956 2.61142 14.0017 2.60172 14.0074C2.59034 14.0142 2.57884 14.0207 2.56776 14.0281C2.55781 14.0347 2.54848 14.0422 2.53888 14.0493C2.5288 14.0568 2.51852 14.0638 2.50873 14.0718C2.49515 14.083 2.4824 14.0951 2.46964 14.1072C2.46453 14.112 2.45908 14.1162 2.45407 14.1212C2.44878 14.1265 2.4443 14.1323 2.4392 14.1377C2.42745 14.1501 2.41565 14.1625 2.40477 14.1758C2.39623 14.1862 2.38872 14.1971 2.38082 14.2078C2.37422 14.2168 2.36726 14.2254 2.36105 14.2347C2.3531 14.2466 2.34615 14.2589 2.33895 14.2711C2.33372 14.2799 2.32814 14.2885 2.32327 14.2976C2.31679 14.3097 2.31126 14.3222 2.30549 14.3345C2.30086 14.3444 2.29591 14.3541 2.2917 14.3642C2.28679 14.3761 2.2828 14.3882 2.27851 14.4002C2.27457 14.4113 2.2703 14.4222 2.26687 14.4335C2.26321 14.4456 2.2605 14.4579 2.25746 14.4701C2.25459 14.4817 2.25134 14.493 2.24901 14.5047C2.24619 14.5189 2.24447 14.5333 2.24247 14.5476C2.24109 14.5575 2.23918 14.5673 2.23819 14.5773C2.23573 14.6022 2.23441 14.6271 2.23444 14.6521V19.1516C2.23444 19.3505 2.31345 19.5413 2.45411 19.6819C2.59476 19.8226 2.78552 19.9016 2.98444 19.9016C3.18335 19.9016 3.37411 19.8226 3.51477 19.6819C3.65542 19.5413 3.73444 19.3505 3.73444 19.1516V16.4623L5.63608 18.364C7.32526 20.0493 9.61396 20.9957 12.0001 20.9957C14.3862 20.9957 16.6749 20.0493 18.3641 18.364C18.5048 18.2233 18.5838 18.0325 18.5838 17.8336C18.5838 17.6347 18.5048 17.4439 18.3641 17.3032C18.2234 17.1626 18.0327 17.0835 17.8337 17.0835C17.6348 17.0835 17.444 17.1626 17.3034 17.3032H17.3034Z" fill="#1D1F21" style="fill: var(--ui-icon-primary-color);"/>
</svg>
