<svg  viewBox="0 0 24 24" fill="none" xmlns="http://www.w3.org/2000/svg" id="__THIS_ID_NEEDS_FOR_UI_ICON_COMPONENT__">
<path d="M5.25 14.25V5.25C5.25 5.15151 5.26939 5.05398 5.30708 4.96298C5.34477 4.87199 5.40002 4.78931 5.46966 4.71966C5.53931 4.65002 5.62199 4.59477 5.71298 4.55708C5.80398 4.51939 5.90151 4.5 6 4.5H15C15.1989 4.5 15.3897 4.57902 15.5303 4.71967C15.671 4.86032 15.75 5.05109 15.75 5.25C15.75 5.44891 15.671 5.63968 15.5303 5.78033C15.3897 5.92098 15.1989 6 15 6H7.81064L17.0303 15.2197C17.1 15.2893 17.1553 15.372 17.1931 15.463C17.2308 15.554 17.2503 15.6516 17.2503 15.7501C17.2503 15.8486 17.231 15.9462 17.1933 16.0372C17.1556 16.1283 17.1003 16.211 17.0307 16.2807C16.961 16.3503 16.8783 16.4056 16.7872 16.4433C16.6962 16.481 16.5986 16.5003 16.5001 16.5003C16.4016 16.5003 16.304 16.4808 16.213 16.4431C16.122 16.4053 16.0393 16.35 15.9697 16.2803L6.75 7.06065V14.25C6.75 14.4489 6.67098 14.6397 6.53033 14.7803C6.38968 14.921 6.19891 15 6 15C5.80109 15 5.61032 14.921 5.46967 14.7803C5.32902 14.6397 5.25 14.4489 5.25 14.25ZM19.5 19.5H4.5C4.30109 19.5 4.11032 19.579 3.96967 19.7197C3.82902 19.8603 3.75 20.0511 3.75 20.25C3.75 20.4489 3.82902 20.6397 3.96967 20.7803C4.11032 20.921 4.30109 21 4.5 21H19.5C19.6989 21 19.8897 20.921 20.0303 20.7803C20.171 20.6397 20.25 20.4489 20.25 20.25C20.25 20.0511 20.171 19.8603 20.0303 19.7197C19.8897 19.579 19.6989 19.5 19.5 19.5Z" fill="#1D1F21" style="fill: var(--ui-icon-primary-color);"/>
</svg>
