<svg  viewBox="0 0 24 24" fill="none" xmlns="http://www.w3.org/2000/svg" id="__THIS_ID_NEEDS_FOR_UI_ICON_COMPONENT__">
<path d="M18.75 3V16.5C18.75 16.6989 18.671 16.8897 18.5303 17.0303C18.3896 17.171 18.1989 17.25 18 17.25H6.31062L9.53034 20.4697C9.67099 20.6103 9.75 20.8011 9.74999 21C9.74998 21.1989 9.67095 21.3897 9.53029 21.5304C9.38963 21.671 9.19886 21.75 8.99994 21.75C8.80102 21.75 8.61026 21.671 8.46961 21.5303L3.96961 17.0303C3.96768 17.0284 3.96609 17.0263 3.96419 17.0243C3.94886 17.0087 3.93403 16.9925 3.92011 16.9755C3.91235 16.9661 3.90558 16.9562 3.89836 16.9465C3.89099 16.9366 3.88331 16.9269 3.87643 16.9166C3.86885 16.9053 3.86225 16.8936 3.85535 16.882C3.84979 16.8726 3.84388 16.8634 3.83871 16.8538C3.83239 16.842 3.82702 16.8299 3.82138 16.8178C3.81661 16.8076 3.81152 16.7977 3.8072 16.7873C3.80237 16.7756 3.79844 16.7637 3.79421 16.7518C3.7902 16.7406 3.78587 16.7295 3.78239 16.718C3.77876 16.706 3.77609 16.6938 3.77307 16.6817C3.77018 16.6701 3.7669 16.6587 3.76455 16.6468C3.76173 16.6327 3.76002 16.6184 3.75803 16.6041C3.75664 16.5941 3.75471 16.5843 3.75372 16.5743C3.74884 16.5249 3.74884 16.4751 3.75372 16.4257C3.75471 16.4157 3.75665 16.4059 3.75803 16.3959C3.76002 16.3816 3.76173 16.3673 3.76455 16.3532C3.7669 16.3413 3.77018 16.3299 3.77307 16.3183C3.77609 16.3062 3.77876 16.294 3.78239 16.282C3.78587 16.2705 3.7902 16.2594 3.79421 16.2482C3.79844 16.2363 3.80237 16.2244 3.8072 16.2127C3.81152 16.2023 3.81661 16.1924 3.82138 16.1822C3.82702 16.1701 3.83239 16.158 3.83871 16.1462C3.84388 16.1366 3.84979 16.1274 3.85535 16.118C3.86225 16.1064 3.86885 16.0947 3.87643 16.0834C3.88331 16.0731 3.89099 16.0634 3.89836 16.0535C3.90558 16.0438 3.91235 16.0339 3.92011 16.0245C3.93403 16.0075 3.94886 15.9913 3.96419 15.9757C3.96609 15.9737 3.96768 15.9716 3.96961 15.9697L8.46961 11.4697C8.53925 11.4 8.62193 11.3448 8.71292 11.3071C8.80392 11.2694 8.90145 11.25 8.99994 11.25C9.09843 11.25 9.19596 11.2694 9.28696 11.3071C9.37796 11.3447 9.46064 11.4 9.53029 11.4696C9.59994 11.5393 9.65519 11.622 9.69288 11.713C9.73058 11.8039 9.74998 11.9015 9.74999 12C9.74999 12.0985 9.7306 12.196 9.69291 12.287C9.65522 12.378 9.59998 12.4607 9.53034 12.5303L6.31062 15.75H17.25V3C17.25 2.80109 17.329 2.61032 17.4696 2.46967C17.6103 2.32902 17.8011 2.25 18 2.25C18.1989 2.25 18.3896 2.32902 18.5303 2.46967C18.671 2.61032 18.75 2.80109 18.75 3Z" fill="#1D1F21" style="fill: var(--ui-icon-primary-color);"/>
</svg>
