<svg  viewBox="0 0 24 24" fill="none" xmlns="http://www.w3.org/2000/svg" id="__THIS_ID_NEEDS_FOR_UI_ICON_COMPONENT__">
<path d="M19.5002 8.25V16.5C19.5002 16.6989 19.4212 16.8897 19.2805 17.0303C19.1399 17.171 18.9491 17.25 18.7502 17.25C18.5513 17.25 18.3605 17.171 18.2199 17.0303C18.0792 16.8897 18.0002 16.6989 18.0002 16.5V8.25C18.0002 7.05653 17.5261 5.91193 16.6822 5.06802C15.8383 4.22411 14.6937 3.75 13.5002 3.75C12.3067 3.75 11.1621 4.22411 10.3182 5.06802C9.47431 5.91193 9.00021 7.05653 9.00021 8.25V19.1893L12.2198 15.9697C12.3605 15.829 12.5513 15.75 12.7502 15.75C12.9491 15.75 13.1399 15.829 13.2805 15.9696C13.4212 16.1103 13.5002 16.301 13.5002 16.5C13.5002 16.6989 13.4212 16.8897 13.2806 17.0303L8.78057 21.5303C8.77832 21.5326 8.77583 21.5344 8.77355 21.5367C8.75817 21.5516 8.74237 21.5662 8.72575 21.5798C8.71642 21.5875 8.7066 21.5942 8.697 21.6014C8.68698 21.6088 8.67721 21.6166 8.66681 21.6236C8.65566 21.631 8.6441 21.6375 8.63266 21.6443C8.62309 21.65 8.61375 21.656 8.60392 21.6613C8.5924 21.6675 8.58057 21.6727 8.56882 21.6782C8.55833 21.6832 8.54805 21.6884 8.53731 21.6928C8.52602 21.6975 8.51449 21.7013 8.50303 21.7054C8.49139 21.7095 8.47991 21.714 8.46802 21.7176C8.45655 21.7211 8.44489 21.7236 8.43329 21.7266C8.42116 21.7296 8.40919 21.733 8.39684 21.7354C8.3835 21.7381 8.37005 21.7397 8.35662 21.7416C8.34581 21.7431 8.33518 21.7452 8.32423 21.7462C8.29962 21.7487 8.27492 21.75 8.2502 21.75C8.22549 21.75 8.20079 21.7487 8.17618 21.7462C8.16523 21.7452 8.1546 21.7431 8.14379 21.7416C8.13036 21.7397 8.11691 21.7381 8.10357 21.7354C8.09122 21.733 8.07925 21.7296 8.06712 21.7266C8.05552 21.7236 8.04386 21.7211 8.03239 21.7176C8.02049 21.714 8.00902 21.7095 7.99738 21.7054C7.98592 21.7013 7.97439 21.6975 7.9631 21.6928C7.95236 21.6884 7.94207 21.6832 7.93159 21.6782C7.91984 21.6727 7.908 21.6675 7.89649 21.6613C7.88666 21.656 7.87732 21.65 7.86775 21.6443C7.85631 21.6375 7.84475 21.631 7.8336 21.6236C7.82319 21.6166 7.81342 21.6088 7.80341 21.6014C7.79381 21.5942 7.78399 21.5875 7.77466 21.5798C7.75804 21.5662 7.74224 21.5516 7.72686 21.5367C7.72458 21.5344 7.72209 21.5326 7.71984 21.5303L3.21984 17.0303C3.07919 16.8897 3.00017 16.6989 3.00018 16.5C3.00019 16.301 3.07922 16.1103 3.21988 15.9696C3.36054 15.829 3.55132 15.75 3.75023 15.75C3.94915 15.75 4.13992 15.829 4.28057 15.9697L7.50021 19.1893V8.25C7.50021 6.6587 8.13235 5.13258 9.25757 4.00736C10.3828 2.88214 11.9089 2.25 13.5002 2.25C15.0915 2.25 16.6176 2.88214 17.7428 4.00736C18.8681 5.13258 19.5002 6.6587 19.5002 8.25Z" fill="#1D1F21" style="fill: var(--ui-icon-primary-color);"/>
</svg>
