<svg  viewBox="0 0 24 24" fill="none" xmlns="http://www.w3.org/2000/svg" id="__THIS_ID_NEEDS_FOR_UI_ICON_COMPONENT__">
<path d="M20.7804 17.0303L16.2804 21.5303C16.2789 21.5318 16.2772 21.5331 16.2757 21.5346C16.2596 21.5504 16.2429 21.5656 16.2254 21.5799C16.2166 21.5872 16.2072 21.5935 16.1982 21.6004C16.1877 21.6082 16.1774 21.6163 16.1665 21.6237C16.1557 21.6308 16.1445 21.6371 16.1335 21.6437C16.1235 21.6496 16.1138 21.6559 16.1036 21.6614C16.0923 21.6674 16.0807 21.6725 16.0692 21.6779C16.0585 21.683 16.048 21.6883 16.037 21.6928C16.0259 21.6974 16.0146 21.7012 16.0034 21.7052C15.9915 21.7094 15.9798 21.714 15.9677 21.7177C15.9565 21.721 15.9451 21.7235 15.9337 21.7264C15.9214 21.7295 15.9092 21.733 15.8966 21.7355C15.8834 21.7381 15.87 21.7396 15.8567 21.7415C15.8458 21.7431 15.8351 21.7452 15.824 21.7462C15.7994 21.7487 15.7747 21.75 15.75 21.75C15.7253 21.75 15.7006 21.7487 15.676 21.7462C15.6649 21.7452 15.6542 21.7431 15.6432 21.7415C15.63 21.7396 15.6166 21.7381 15.6034 21.7355C15.5908 21.733 15.5786 21.7295 15.5663 21.7264C15.5549 21.7235 15.5435 21.721 15.5323 21.7177C15.5202 21.714 15.5085 21.7094 15.4966 21.7052C15.4854 21.7012 15.4741 21.6974 15.463 21.6928C15.452 21.6883 15.4415 21.683 15.4307 21.6779C15.4193 21.6725 15.4077 21.6674 15.3964 21.6614C15.3862 21.6559 15.3765 21.6496 15.3665 21.6437C15.3555 21.6371 15.3443 21.6308 15.3335 21.6237C15.3226 21.6163 15.3123 21.6082 15.3018 21.6004C15.2928 21.5935 15.2834 21.5872 15.2746 21.5799C15.2571 21.5656 15.2404 21.5504 15.2243 21.5346C15.2228 21.5331 15.2211 21.5318 15.2196 21.5303L10.7196 17.0303C10.579 16.8897 10.5 16.6989 10.5 16.5C10.5 16.3011 10.579 16.1103 10.7197 15.9696C10.8603 15.829 11.0511 15.75 11.25 15.75C11.4489 15.75 11.6397 15.829 11.7804 15.9697L15 19.1894V8.25C15 7.05653 14.5259 5.91193 13.682 5.06802C12.8381 4.22411 11.6935 3.75 10.5 3.75C9.30653 3.75 8.16193 4.22411 7.31802 5.06802C6.47411 5.91193 6 7.05653 6 8.25V16.5C6 16.6989 5.92098 16.8897 5.78033 17.0303C5.63968 17.171 5.44891 17.25 5.25 17.25C5.05109 17.25 4.86032 17.171 4.71967 17.0303C4.57902 16.8897 4.5 16.6989 4.5 16.5V8.25C4.5 6.6587 5.13214 5.13258 6.25736 4.00736C7.38258 2.88214 8.9087 2.25 10.5 2.25C12.0913 2.25 13.6174 2.88214 14.7426 4.00736C15.8679 5.13258 16.5 6.6587 16.5 8.25V19.1894L19.7196 15.9697C19.8603 15.829 20.0511 15.75 20.25 15.75C20.4489 15.75 20.6397 15.829 20.7803 15.9696C20.921 16.1103 21 16.3011 21 16.5C21 16.6989 20.921 16.8897 20.7804 17.0303Z" fill="#1D1F21" style="fill: var(--ui-icon-primary-color);"/>
</svg>
