<svg  viewBox="0 0 24 24" fill="none" xmlns="http://www.w3.org/2000/svg" id="__THIS_ID_NEEDS_FOR_UI_ICON_COMPONENT__">
<path d="M15.1821 18.568C15.3228 18.7087 15.4018 18.8994 15.4018 19.0983C15.4018 19.2973 15.3228 19.488 15.1821 19.6287L12.5305 22.2803C12.5262 22.2846 12.5214 22.2883 12.517 22.2925C12.5037 22.3052 12.4904 22.3177 12.4763 22.3294C12.4705 22.3342 12.4643 22.3382 12.4584 22.3428C12.4449 22.3532 12.4314 22.3638 12.4172 22.3733C12.4124 22.3765 12.4072 22.3792 12.4023 22.3823C12.3865 22.3924 12.3706 22.4023 12.354 22.4112C12.3506 22.4131 12.3468 22.4145 12.3432 22.4164C12.3251 22.4258 12.3066 22.4348 12.2876 22.4427C12.2854 22.4436 12.2831 22.4442 12.281 22.4451C12.2606 22.4534 12.2399 22.461 12.2187 22.4674C12.2161 22.4682 12.2133 22.4687 12.2107 22.4695C12.19 22.4755 12.1691 22.4811 12.1477 22.4853C12.1415 22.4865 12.135 22.4871 12.1287 22.4882C12.1109 22.4913 12.0932 22.4944 12.075 22.4962C12.0252 22.5013 11.975 22.5013 11.9252 22.4962C11.907 22.4944 11.8893 22.4913 11.8715 22.4882C11.8652 22.4871 11.8587 22.4865 11.8525 22.4853C11.8311 22.4811 11.8102 22.4755 11.7895 22.4695C11.7869 22.4687 11.7841 22.4682 11.7815 22.4674C11.7603 22.461 11.7396 22.4534 11.7192 22.4451C11.7171 22.4442 11.7148 22.4436 11.7126 22.4427C11.6936 22.4348 11.6751 22.4258 11.657 22.4164C11.6534 22.4145 11.6496 22.4131 11.6462 22.4112C11.6296 22.4023 11.6137 22.3924 11.5979 22.3823C11.593 22.3792 11.5878 22.3765 11.583 22.3733C11.5688 22.3638 11.5553 22.3532 11.5418 22.3428C11.5359 22.3382 11.5297 22.3342 11.5239 22.3294C11.5098 22.3177 11.4965 22.3052 11.4832 22.2925C11.4788 22.2883 11.474 22.2846 11.4697 22.2803L8.8181 19.6287C8.67744 19.488 8.59842 19.2972 8.59843 19.0983C8.59843 18.8994 8.67746 18.7086 8.81812 18.568C8.95878 18.4273 9.14956 18.3483 9.34848 18.3483C9.5474 18.3483 9.73817 18.4273 9.87883 18.568L11.2501 19.9393V15C11.2501 14.8011 11.3291 14.6103 11.4698 14.4697C11.6104 14.329 11.8012 14.25 12.0001 14.25C12.199 14.25 12.3898 14.329 12.5304 14.4697C12.6711 14.6103 12.7501 14.8011 12.7501 15V19.9393L14.1214 18.568C14.2621 18.4273 14.4528 18.3483 14.6518 18.3483C14.8507 18.3483 15.0414 18.4273 15.1821 18.568ZM9.87883 5.43201L11.2501 4.06069V9C11.2501 9.19891 11.3291 9.38968 11.4698 9.53033C11.6104 9.67098 11.8012 9.75 12.0001 9.75C12.199 9.75 12.3898 9.67098 12.5304 9.53033C12.6711 9.38968 12.7501 9.19891 12.7501 9V4.06069L14.1214 5.43201C14.262 5.57267 14.4528 5.6517 14.6517 5.6517C14.8507 5.6517 15.0414 5.57269 15.1821 5.43203C15.3228 5.29137 15.4018 5.1006 15.4018 4.90168C15.4018 4.70276 15.3228 4.51198 15.1821 4.37132L12.5305 1.71968C12.5266 1.71579 12.5222 1.71245 12.5183 1.70865C12.5047 1.69556 12.4909 1.6826 12.4763 1.67061C12.4705 1.66585 12.4643 1.66178 12.4584 1.6572C12.4449 1.64676 12.4314 1.63623 12.4172 1.62671C12.4124 1.62351 12.4072 1.6208 12.4023 1.61769C12.3865 1.60762 12.3706 1.59773 12.354 1.58881C12.3505 1.58693 12.3468 1.58542 12.3432 1.58359C12.325 1.5742 12.3066 1.56523 12.2876 1.55731C12.2852 1.55631 12.2827 1.55562 12.2803 1.55466C12.2601 1.54651 12.2397 1.53896 12.2187 1.53259C12.2161 1.53177 12.2133 1.53131 12.2107 1.53053C12.19 1.52449 12.1691 1.51895 12.1477 1.51469C12.1415 1.51346 12.135 1.51291 12.1287 1.51181C12.1109 1.5087 12.0932 1.50558 12.075 1.5038C12.0252 1.49873 11.975 1.49873 11.9252 1.5038C11.907 1.50558 11.8893 1.5087 11.8715 1.51181C11.8652 1.51291 11.8587 1.51346 11.8525 1.51469C11.8311 1.51895 11.8102 1.52449 11.7895 1.53053C11.7869 1.53131 11.7841 1.53177 11.7815 1.53259C11.7605 1.53896 11.7401 1.54651 11.7199 1.55466C11.7175 1.55562 11.715 1.55631 11.7126 1.55731C11.6936 1.56523 11.6752 1.5742 11.657 1.58359C11.6534 1.58542 11.6497 1.58693 11.6462 1.58881C11.6296 1.59773 11.6137 1.60762 11.5979 1.61769C11.593 1.62081 11.5878 1.62351 11.583 1.62671C11.5688 1.63623 11.5553 1.64676 11.5418 1.6572C11.5359 1.66178 11.5297 1.66585 11.5239 1.67061C11.5093 1.6826 11.4956 1.69556 11.4819 1.70865C11.478 1.71245 11.4736 1.71579 11.4697 1.71968L8.8181 4.37132C8.67744 4.51199 8.59842 4.70276 8.59843 4.90168C8.59843 5.00018 8.61783 5.09771 8.65553 5.18871C8.69322 5.27971 8.74847 5.36239 8.81812 5.43203C8.88777 5.50168 8.97045 5.55692 9.06145 5.59462C9.15245 5.63231 9.24998 5.6517 9.34848 5.6517C9.5474 5.6517 9.73817 5.57267 9.87883 5.43201V5.43201ZM4.06074 12.75H9.0001C9.19902 12.75 9.38978 12.671 9.53044 12.5303C9.67109 12.3897 9.7501 12.1989 9.7501 12C9.7501 11.8011 9.67109 11.6103 9.53044 11.4697C9.38978 11.329 9.19902 11.25 9.0001 11.25H4.06074L5.43211 9.87868C5.57225 9.73791 5.65083 9.5473 5.65061 9.34867C5.65039 9.15003 5.57138 8.9596 5.43092 8.81914C5.29046 8.67869 5.10003 8.59969 4.90139 8.59948C4.70276 8.59926 4.51215 8.67785 4.37139 8.81799L1.71974 11.4697C1.71686 11.4725 1.71448 11.4757 1.71168 11.4786C1.69736 11.4934 1.68335 11.5085 1.6703 11.5244C1.66224 11.5342 1.6552 11.5444 1.64773 11.5545C1.64068 11.5641 1.63327 11.5734 1.62663 11.5833C1.61885 11.5948 1.61212 11.6069 1.60507 11.6188C1.59967 11.6279 1.5939 11.6368 1.58891 11.6461C1.5825 11.6581 1.57705 11.6704 1.57133 11.6826C1.56662 11.6926 1.56163 11.7024 1.55737 11.7127C1.55247 11.7245 1.54853 11.7365 1.54423 11.7485C1.54029 11.7596 1.53599 11.7706 1.53251 11.782C1.5289 11.794 1.5262 11.8062 1.52317 11.8185C1.52029 11.83 1.51704 11.8414 1.51466 11.8532C1.51187 11.8674 1.51013 11.8817 1.50816 11.896C1.50674 11.906 1.50486 11.9157 1.50386 11.9257C1.49896 11.9751 1.49896 12.0249 1.50386 12.0742C1.50486 12.0843 1.50674 12.094 1.50816 12.104C1.51013 12.1183 1.51187 12.1326 1.51466 12.1468C1.51704 12.1586 1.52029 12.17 1.52317 12.1815C1.5262 12.1938 1.52889 12.206 1.53251 12.218C1.53599 12.2294 1.54029 12.2404 1.54423 12.2515C1.54853 12.2635 1.55247 12.2755 1.55737 12.2873C1.56163 12.2976 1.56662 12.3074 1.57133 12.3174C1.57705 12.3296 1.5825 12.3419 1.58891 12.3539C1.5939 12.3632 1.59967 12.3721 1.60507 12.3812C1.61212 12.3931 1.61885 12.4052 1.62663 12.4167C1.63327 12.4266 1.64068 12.4359 1.64773 12.4455C1.6552 12.4556 1.66224 12.4658 1.6703 12.4756C1.68312 12.4912 1.6969 12.5061 1.71091 12.5206C1.71397 12.5238 1.71662 12.5272 1.71974 12.5303L4.37139 15.182C4.51204 15.3227 4.70282 15.4017 4.90174 15.4017C5.10066 15.4017 5.29143 15.3227 5.4321 15.182C5.57276 15.0414 5.65178 14.8506 5.65179 14.6517C5.65179 14.4528 5.57277 14.262 5.43212 14.1213L4.06074 12.75ZM22.3299 12.4756C22.338 12.4658 22.345 12.4556 22.3525 12.4455C22.3595 12.4359 22.3669 12.4266 22.3736 12.4167C22.3814 12.4052 22.3881 12.3931 22.3951 12.3812C22.4005 12.3721 22.4063 12.3632 22.4113 12.3539C22.4177 12.342 22.4232 12.3296 22.4289 12.3174C22.4336 12.3074 22.4386 12.2976 22.4428 12.2873C22.4477 12.2755 22.4517 12.2635 22.456 12.2515C22.4599 12.2404 22.4642 12.2294 22.4677 12.218C22.4713 12.206 22.474 12.1938 22.477 12.1816C22.4799 12.17 22.4832 12.1586 22.4856 12.1468C22.4883 12.1326 22.4901 12.1183 22.4921 12.104C22.4935 12.094 22.4953 12.0843 22.4964 12.0743C22.5013 12.0249 22.5013 11.9751 22.4964 11.9258C22.4953 11.9157 22.4935 11.906 22.4921 11.896C22.4901 11.8817 22.4883 11.8674 22.4856 11.8532C22.4832 11.8414 22.4799 11.83 22.477 11.8185C22.474 11.8062 22.4713 11.794 22.4677 11.782C22.4642 11.7706 22.4599 11.7596 22.456 11.7485C22.4517 11.7365 22.4477 11.7245 22.4428 11.7127C22.4386 11.7024 22.4336 11.6926 22.4289 11.6826C22.4232 11.6704 22.4177 11.6581 22.4113 11.6461C22.4063 11.6368 22.4005 11.6279 22.3951 11.6188C22.3881 11.6069 22.3814 11.5948 22.3736 11.5833C22.3669 11.5734 22.3595 11.5641 22.3525 11.5545C22.345 11.5444 22.338 11.5342 22.3299 11.5244C22.3169 11.5085 22.3029 11.4934 22.2885 11.4786C22.2857 11.4757 22.2834 11.4725 22.2805 11.4697L19.6288 8.81799C19.5592 8.74835 19.4765 8.6931 19.3855 8.6554C19.2945 8.61771 19.197 8.59831 19.0985 8.5983C18.8996 8.5983 18.7088 8.67732 18.5681 8.81797C18.4275 8.95863 18.3484 9.1494 18.3484 9.34832C18.3484 9.54724 18.4274 9.73802 18.5681 9.87868L19.9395 11.25H15.0001C14.8012 11.25 14.6104 11.329 14.4698 11.4697C14.3291 11.6103 14.2501 11.8011 14.2501 12C14.2501 12.1989 14.3291 12.3897 14.4698 12.5303C14.6104 12.671 14.8012 12.75 15.0001 12.75H19.9395L18.5681 14.1213C18.4274 14.262 18.3484 14.4528 18.3484 14.6517C18.3484 14.8506 18.4275 15.0414 18.5681 15.182C18.7088 15.3227 18.8996 15.4017 19.0985 15.4017C19.2974 15.4017 19.4882 15.3227 19.6288 15.182L22.2805 12.5303C22.2836 12.5272 22.2862 12.5238 22.2893 12.5206C22.3033 12.5061 22.3171 12.4912 22.3299 12.4756Z" fill="#1D1F21" style="fill: var(--ui-icon-primary-color);"/>
</svg>
