<svg  viewBox="0 0 24 24" fill="none" xmlns="http://www.w3.org/2000/svg" id="__THIS_ID_NEEDS_FOR_UI_ICON_COMPONENT__">
<path d="M22.2804 9.53036L13.2804 18.5304C13.1397 18.671 12.9489 18.75 12.75 18.75C12.5511 18.75 12.3603 18.671 12.2196 18.5304L3 9.31073V14.25C3 14.4489 2.92098 14.6397 2.78033 14.7803C2.63968 14.921 2.44891 15 2.25 15C2.05109 15 1.86032 14.921 1.71967 14.7803C1.57902 14.6397 1.5 14.4489 1.5 14.25V7.5C1.50001 7.30109 1.57903 7.11033 1.71968 6.96968C1.86033 6.82903 2.05109 6.75001 2.25 6.75H9C9.19891 6.75 9.38968 6.82902 9.53033 6.96967C9.67098 7.11032 9.75 7.30109 9.75 7.5C9.75 7.69891 9.67098 7.88968 9.53033 8.03033C9.38968 8.17098 9.19891 8.25 9 8.25H4.06072L12.75 16.9394L21.2196 8.46964C21.3603 8.32897 21.5511 8.24995 21.75 8.24995C21.9489 8.24995 22.1397 8.32897 22.2804 8.46964C22.421 8.6103 22.5 8.80107 22.5 9C22.5 9.19893 22.421 9.3897 22.2804 9.53036Z" fill="#1D1F21" style="fill: var(--ui-icon-primary-color);"/>
</svg>
