<svg  viewBox="0 0 24 24" fill="none" xmlns="http://www.w3.org/2000/svg" id="__THIS_ID_NEEDS_FOR_UI_ICON_COMPONENT__">
<path d="M17.78 11.4697C17.9206 11.6103 17.9997 11.8011 17.9997 12C17.9997 12.1989 17.9206 12.3897 17.78 12.5303L11.03 19.2803C10.8893 19.421 10.6986 19.5 10.4997 19.5C10.3008 19.5 10.11 19.421 9.96934 19.2803C9.82868 19.1397 9.74966 18.9489 9.74965 18.75C9.74965 18.5511 9.82866 18.3603 9.96931 18.2197L15.439 12.75H2.24963C2.05072 12.75 1.85996 12.671 1.7193 12.5303C1.57865 12.3897 1.49963 12.1989 1.49963 12C1.49963 11.8011 1.57865 11.6103 1.7193 11.4697C1.85996 11.329 2.05072 11.25 2.24963 11.25H15.439L9.96932 5.78032C9.89967 5.71067 9.84443 5.62799 9.80674 5.537C9.76905 5.446 9.74965 5.34847 9.74966 5.24998C9.74966 5.05107 9.82868 4.86031 9.96934 4.71966C10.11 4.57901 10.3008 4.49999 10.4997 4.5C10.6986 4.5 10.8894 4.57902 11.03 4.71968L17.78 11.4697ZM20.2496 3.75C20.0507 3.75 19.86 3.82902 19.7193 3.96967C19.5787 4.11032 19.4996 4.30109 19.4996 4.5V19.5C19.4996 19.6989 19.5787 19.8897 19.7193 20.0303C19.86 20.171 20.0507 20.25 20.2496 20.25C20.4485 20.25 20.6393 20.171 20.78 20.0303C20.9206 19.8897 20.9996 19.6989 20.9996 19.5V4.5C20.9996 4.40151 20.9802 4.30398 20.9425 4.21298C20.9049 4.12199 20.8496 4.03931 20.78 3.96966C20.7103 3.90002 20.6276 3.84477 20.5366 3.80708C20.4457 3.76939 20.3481 3.75 20.2496 3.75Z" fill="#1D1F21" style="fill: var(--ui-icon-primary-color);"/>
</svg>
