<svg  viewBox="0 0 24 24" fill="none" xmlns="http://www.w3.org/2000/svg" id="__THIS_ID_NEEDS_FOR_UI_ICON_COMPONENT__">
<path d="M19.4998 7.5V15.75C19.4998 17.3413 18.8677 18.8674 17.7425 19.9926C16.6173 21.1179 15.0911 21.75 13.4998 21.75C11.9085 21.75 10.3824 21.1179 9.25719 19.9926C8.13197 18.8674 7.49983 17.3413 7.49983 15.75V4.81064L4.2802 8.03032C4.13955 8.17098 3.94878 8.25001 3.74987 8.25002C3.55095 8.25003 3.36018 8.17101 3.21952 8.03036C3.07885 7.88972 2.99983 7.69895 2.99982 7.50003C2.99981 7.30112 3.07882 7.11034 3.21947 6.96968L7.71947 2.46968C7.72098 2.46817 7.72265 2.46693 7.72417 2.46542C7.74026 2.44961 7.75694 2.43439 7.7744 2.42006C7.78321 2.41283 7.7925 2.40651 7.80155 2.39973C7.8121 2.39186 7.82242 2.38367 7.8334 2.37634C7.844 2.36925 7.85502 2.36309 7.86589 2.35659C7.87603 2.35053 7.88595 2.34416 7.89639 2.33858C7.90734 2.33272 7.9186 2.32777 7.92976 2.32251C7.9408 2.31727 7.95166 2.31178 7.963 2.30708C7.97365 2.30267 7.98454 2.29911 7.99534 2.29523C8.00762 2.29079 8.01977 2.28609 8.03235 2.2823C8.04302 2.27907 8.05387 2.27673 8.06465 2.27399C8.07756 2.27069 8.09033 2.26712 8.1035 2.26451C8.11572 2.26209 8.12808 2.26069 8.14039 2.25888C8.15228 2.25714 8.16401 2.2549 8.17608 2.25373C8.19785 2.25158 8.21969 2.25066 8.24154 2.25041C8.24433 2.25039 8.24704 2.25 8.24983 2.25C8.25263 2.25 8.25534 2.25039 8.25813 2.25041C8.27998 2.25066 8.30183 2.25158 8.32359 2.25373C8.33566 2.2549 8.34739 2.25714 8.35929 2.25888C8.37159 2.26069 8.38395 2.26209 8.39617 2.26451C8.40934 2.26712 8.42211 2.27069 8.43502 2.27399C8.4458 2.27673 8.45665 2.27907 8.46732 2.2823C8.4799 2.28609 8.49204 2.29079 8.50433 2.29523C8.51513 2.29912 8.52601 2.30267 8.53667 2.30708C8.54801 2.31178 8.55887 2.31727 8.56992 2.32251C8.58107 2.32777 8.59234 2.33272 8.60328 2.33858C8.61372 2.34416 8.62364 2.35053 8.63378 2.35659C8.64466 2.36309 8.65567 2.36925 8.66628 2.37634C8.67725 2.38367 8.68757 2.39186 8.69813 2.39973C8.70717 2.40651 8.71646 2.41283 8.72527 2.42006C8.74273 2.43439 8.75941 2.44961 8.7755 2.46542C8.77702 2.46693 8.77869 2.46817 8.7802 2.46968L13.2802 6.96968C13.4209 7.11034 13.4999 7.30112 13.4999 7.50003C13.4998 7.69895 13.4208 7.88972 13.2802 8.03036C13.1395 8.17101 12.9487 8.25003 12.7498 8.25002C12.5509 8.25001 12.3601 8.17098 12.2195 8.03032L8.99983 4.81064V15.75C8.99983 16.9435 9.47394 18.0881 10.3179 18.932C11.1618 19.7759 12.3064 20.25 13.4998 20.25C14.6933 20.25 15.8379 19.7759 16.6818 18.932C17.5257 18.0881 17.9998 16.9435 17.9998 15.75V7.5C17.9998 7.30109 18.0789 7.11032 18.2195 6.96967C18.3602 6.82902 18.5509 6.75 18.7498 6.75C18.9487 6.75 19.1395 6.82902 19.2802 6.96967C19.4208 7.11032 19.4998 7.30109 19.4998 7.5Z" fill="#1D1F21" style="fill: var(--ui-icon-primary-color);"/>
</svg>
