<svg  viewBox="0 0 24 24" fill="none" xmlns="http://www.w3.org/2000/svg" id="__THIS_ID_NEEDS_FOR_UI_ICON_COMPONENT__">
<path d="M19.2804 14.0304L12.5304 20.7804C12.3897 20.921 12.199 21 12.0001 21C11.8012 21 11.6104 20.921 11.4698 20.7804L4.71976 14.0304C4.5791 13.8897 4.50007 13.6989 4.50006 13.5C4.50005 13.3011 4.57906 13.1103 4.71971 12.9697C4.86036 12.829 5.05113 12.75 5.25005 12.75C5.44896 12.75 5.63974 12.829 5.7804 12.9696L11.2501 18.4394V3.75C11.2501 3.55109 11.3291 3.36032 11.4697 3.21967C11.6104 3.07902 11.8012 3 12.0001 3C12.199 3 12.3898 3.07902 12.5304 3.21967C12.6711 3.36032 12.7501 3.55109 12.7501 3.75V18.4394L18.2198 12.9696C18.3604 12.829 18.5512 12.75 18.7501 12.75C18.949 12.75 19.1398 12.829 19.2804 12.9697C19.4211 13.1103 19.5001 13.3011 19.5001 13.5C19.5001 13.6989 19.4211 13.8897 19.2804 14.0304Z" fill="#1D1F21" style="fill: var(--ui-icon-primary-color);"/>
</svg>
