<svg  viewBox="0 0 24 24" fill="none" xmlns="http://www.w3.org/2000/svg" id="__THIS_ID_NEEDS_FOR_UI_ICON_COMPONENT__">
<path d="M19.2804 11.0298C19.1397 11.1705 18.949 11.2495 18.7501 11.2495C18.5512 11.2495 18.3604 11.1705 18.2198 11.0298L12.7501 5.5601V20.2495C12.7501 20.4484 12.6711 20.6391 12.5304 20.7798C12.3898 20.9204 12.199 20.9995 12.0001 20.9995C11.8012 20.9995 11.6104 20.9204 11.4697 20.7798C11.3291 20.6391 11.2501 20.4484 11.2501 20.2495V5.5601L5.7804 11.0298C5.63974 11.1705 5.44896 11.2495 5.25005 11.2495C5.05113 11.2495 4.86036 11.1704 4.71971 11.0298C4.57906 10.8891 4.50005 10.6983 4.50006 10.4994C4.50007 10.3005 4.5791 10.1098 4.71976 9.9691L11.4698 3.2191C11.6104 3.0785 11.8012 2.99951 12.0001 2.99951C12.199 2.99951 12.3897 3.0785 12.5304 3.2191L19.2804 9.9691C19.35 10.0387 19.4053 10.1214 19.443 10.2124C19.4807 10.3034 19.5001 10.401 19.5001 10.4995C19.5001 10.598 19.4807 10.6955 19.443 10.7865C19.4053 10.8775 19.35 10.9602 19.2804 11.0298Z" fill="#1D1F21" style="fill: var(--ui-icon-primary-color);"/>
</svg>
