<svg  viewBox="0 0 24 24" fill="none" xmlns="http://www.w3.org/2000/svg" id="__THIS_ID_NEEDS_FOR_UI_ICON_COMPONENT__">
<path d="M6.96968 16.2803C6.90003 16.2107 6.84478 16.128 6.80709 16.037C6.76939 15.946 6.74999 15.8485 6.74999 15.75C6.74999 15.6515 6.76939 15.554 6.80709 15.463C6.84478 15.372 6.90003 15.2893 6.96968 15.2197L16.1894 6H9C8.80109 6 8.61032 5.92098 8.46967 5.78033C8.32902 5.63968 8.25 5.44891 8.25 5.25C8.25 5.05109 8.32902 4.86032 8.46967 4.71967C8.61032 4.57902 8.80109 4.5 9 4.5H18C18.0985 4.5 18.196 4.51939 18.287 4.55708C18.378 4.59477 18.4607 4.65002 18.5303 4.71966C18.6 4.78931 18.6552 4.87199 18.6929 4.96298C18.7306 5.05398 18.75 5.15151 18.75 5.25V14.25C18.75 14.4489 18.671 14.6397 18.5303 14.7803C18.3897 14.921 18.1989 15 18 15C17.8011 15 17.6103 14.921 17.4697 14.7803C17.329 14.6397 17.25 14.4489 17.25 14.25V7.06065L8.03032 16.2803C7.96068 16.35 7.878 16.4052 7.78701 16.4429C7.69602 16.4806 7.59849 16.5 7.5 16.5C7.40151 16.5 7.30398 16.4806 7.21299 16.4429C7.122 16.4052 7.03932 16.35 6.96968 16.2803ZM19.5 19.5H4.5C4.30109 19.5 4.11032 19.579 3.96967 19.7197C3.82902 19.8603 3.75 20.0511 3.75 20.25C3.75 20.4489 3.82902 20.6397 3.96967 20.7803C4.11032 20.921 4.30109 21 4.5 21H19.5C19.6989 21 19.8897 20.921 20.0303 20.7803C20.171 20.6397 20.25 20.4489 20.25 20.25C20.25 20.0511 20.171 19.8603 20.0303 19.7197C19.8897 19.579 19.6989 19.5 19.5 19.5Z" fill="#1D1F21" style="fill: var(--ui-icon-primary-color);"/>
</svg>
