<svg  viewBox="0 0 24 24" fill="none" xmlns="http://www.w3.org/2000/svg" id="__THIS_ID_NEEDS_FOR_UI_ICON_COMPONENT__">
<path d="M21.541 17.0189C21.5373 17.0227 21.5341 17.0269 21.5304 17.0307L18.5304 20.0307C18.3897 20.1713 18.1989 20.2503 18 20.2503C17.8011 20.2503 17.6103 20.1713 17.4696 20.0307C17.329 19.89 17.25 19.6992 17.25 19.5003C17.25 19.3014 17.329 19.1106 17.4696 18.9699L19.1894 17.2503H3C2.80109 17.2503 2.61032 17.1713 2.46967 17.0306C2.32902 16.89 2.25 16.6992 2.25 16.5003C2.25 16.3014 2.32902 16.1106 2.46967 15.97C2.61032 15.8293 2.80109 15.7503 3 15.7503H19.1894L17.4696 14.0307C17.329 13.89 17.25 13.6992 17.25 13.5003C17.25 13.3014 17.329 13.1106 17.4696 12.9699C17.6103 12.8293 17.8011 12.7502 18 12.7502C18.1989 12.7502 18.3897 12.8293 18.5304 12.9699L21.5304 15.9699C21.5339 15.9735 21.5368 15.9773 21.5403 15.9809C21.5539 15.9951 21.5673 16.0094 21.5798 16.0246C21.588 16.0346 21.5951 16.045 21.6027 16.0553C21.6096 16.0647 21.6169 16.0738 21.6234 16.0835C21.6313 16.0952 21.6381 16.1073 21.6452 16.1193C21.6505 16.1283 21.6562 16.1371 21.6612 16.1464C21.6676 16.1584 21.6731 16.1707 21.6789 16.183C21.6835 16.193 21.6885 16.2027 21.6927 16.213C21.6976 16.2248 21.7016 16.2369 21.7059 16.2489C21.7099 16.26 21.7141 16.2709 21.7175 16.2823C21.7212 16.2943 21.7239 16.3066 21.727 16.3188C21.7299 16.3304 21.7331 16.3417 21.7354 16.3534C21.7382 16.3677 21.74 16.3821 21.742 16.3964C21.7434 16.4063 21.7452 16.416 21.7463 16.426C21.7512 16.4754 21.7512 16.5252 21.7463 16.5745C21.7452 16.5846 21.7434 16.5943 21.742 16.6042C21.74 16.6185 21.7382 16.6329 21.7354 16.6471C21.7331 16.6589 21.7299 16.6702 21.727 16.6818C21.7239 16.694 21.7212 16.7062 21.7175 16.7183C21.7141 16.7297 21.7099 16.7406 21.7059 16.7517C21.7016 16.7637 21.6976 16.7758 21.6927 16.7876C21.6885 16.7978 21.6835 16.8076 21.6789 16.8176C21.6731 16.8298 21.6676 16.8422 21.6612 16.8542C21.6562 16.8635 21.6505 16.8723 21.6452 16.8813C21.6381 16.8933 21.6313 16.9054 21.6234 16.9171C21.6169 16.9268 21.6096 16.9359 21.6027 16.9452C21.5951 16.9555 21.588 16.966 21.5798 16.976C21.5675 16.9909 21.5544 17.005 21.541 17.0189ZM2.39726 7.05535C2.39035 7.06469 2.38307 7.07379 2.37657 7.0835C2.36874 7.09517 2.36192 7.10726 2.35483 7.11925C2.34947 7.12831 2.3438 7.1371 2.33881 7.1464C2.33235 7.15839 2.3269 7.17075 2.32114 7.18302C2.31647 7.19296 2.31152 7.20275 2.30726 7.21296C2.30236 7.22481 2.29838 7.2369 2.29412 7.24889C2.29014 7.26001 2.28588 7.27091 2.28245 7.28226C2.27879 7.29435 2.27609 7.30662 2.27302 7.31884C2.27014 7.33038 2.26689 7.34173 2.26455 7.35345C2.26176 7.36768 2.26002 7.38206 2.25801 7.39638C2.25663 7.40627 2.25476 7.41602 2.25375 7.42605C2.24885 7.47543 2.24885 7.52517 2.25375 7.57455C2.25476 7.58457 2.25663 7.59432 2.25801 7.60421C2.26002 7.61854 2.26176 7.63291 2.26455 7.64715C2.26689 7.65887 2.27014 7.67022 2.27302 7.68176C2.27609 7.69398 2.27879 7.70625 2.28245 7.71833C2.28588 7.72968 2.29014 7.74058 2.29412 7.7517C2.29838 7.7637 2.30236 7.77578 2.30726 7.78764C2.31152 7.79785 2.31646 7.80764 2.32114 7.81758C2.3269 7.82985 2.33235 7.8422 2.33881 7.8542C2.3438 7.86349 2.34947 7.87228 2.35483 7.88134C2.36192 7.89334 2.36874 7.90542 2.37657 7.91709C2.38307 7.9268 2.39035 7.93591 2.39726 7.94525C2.40486 7.95555 2.41205 7.96603 2.42024 7.97596C2.43246 7.99089 2.44565 8.00499 2.45901 8.0189C2.46268 8.02274 2.46588 8.02687 2.46963 8.03067L5.46963 11.0307C5.6103 11.1713 5.80107 11.2503 6 11.2503C6.19893 11.2503 6.3897 11.1713 6.53036 11.0307C6.67103 10.89 6.75005 10.6992 6.75005 10.5003C6.75005 10.3014 6.67103 10.1106 6.53036 9.96993L4.81064 8.25029H21C21.1989 8.25029 21.3897 8.17128 21.5303 8.03062C21.671 7.88997 21.75 7.69921 21.75 7.50029C21.75 7.30138 21.671 7.11062 21.5303 6.96996C21.3897 6.82931 21.1989 6.75029 21 6.75029H4.81064L6.53036 5.03066C6.67103 4.89 6.75005 4.69922 6.75005 4.50029C6.75005 4.30137 6.67103 4.11059 6.53036 3.96993C6.3897 3.82927 6.19893 3.75024 6 3.75024C5.80107 3.75024 5.6103 3.82927 5.46963 3.96993L2.46963 6.96993C2.46611 6.97345 2.46318 6.97734 2.45975 6.98091C2.44611 6.99506 2.43269 7.00943 2.42024 7.02463C2.41205 7.03457 2.40486 7.04504 2.39726 7.05535Z" fill="#1D1F21" style="fill: var(--ui-icon-primary-color);"/>
</svg>
