<svg  viewBox="0 0 24 24" fill="none" xmlns="http://www.w3.org/2000/svg" id="__THIS_ID_NEEDS_FOR_UI_ICON_COMPONENT__">
<path d="M11.0305 17.4696C11.1712 17.6103 11.2502 17.8011 11.2502 18C11.2502 18.1989 11.1712 18.3897 11.0305 18.5304L8.03052 21.5304C8.02695 21.5339 8.02306 21.5369 8.01944 21.5403C8.0053 21.5539 7.99097 21.5674 7.97577 21.5798C7.96612 21.5877 7.956 21.5947 7.94602 21.6021C7.93636 21.6092 7.92688 21.6168 7.91686 21.6235C7.90551 21.6311 7.89374 21.6377 7.88207 21.6446C7.87269 21.6502 7.86358 21.6561 7.85392 21.6613C7.84229 21.6675 7.83034 21.6728 7.81844 21.6784C7.8081 21.6832 7.79793 21.6884 7.78732 21.6928C7.77592 21.6975 7.76425 21.7013 7.75262 21.7055C7.74113 21.7096 7.72978 21.714 7.71806 21.7176C7.70648 21.7211 7.69471 21.7237 7.68299 21.7266C7.67096 21.7296 7.65905 21.733 7.64678 21.7354C7.63346 21.7381 7.62001 21.7397 7.60659 21.7416C7.59574 21.7431 7.58512 21.7452 7.57418 21.7462C7.5496 21.7487 7.52488 21.75 7.50016 21.75C7.47544 21.75 7.45073 21.7487 7.42614 21.7462C7.4152 21.7452 7.40458 21.7431 7.39373 21.7416C7.38032 21.7397 7.36686 21.7381 7.35354 21.7354C7.34127 21.733 7.32937 21.7296 7.31733 21.7266C7.30561 21.7237 7.29385 21.7211 7.28227 21.7176C7.27055 21.714 7.2592 21.7096 7.24771 21.7055C7.23608 21.7013 7.22441 21.6975 7.21301 21.6928C7.20239 21.6884 7.19223 21.6832 7.18189 21.6784C7.16998 21.6728 7.15804 21.6675 7.14641 21.6613C7.13675 21.6561 7.12764 21.6502 7.11826 21.6446C7.10658 21.6377 7.09482 21.6311 7.08347 21.6235C7.07344 21.6168 7.06397 21.6092 7.05431 21.6021C7.04433 21.5947 7.03421 21.5877 7.02456 21.5798C7.00936 21.5674 6.99503 21.5539 6.98089 21.5403C6.97727 21.5369 6.97338 21.5339 6.96981 21.5304L3.96981 18.5304C3.82914 18.3897 3.75012 18.1989 3.75012 18C3.75012 17.8011 3.82914 17.6103 3.96981 17.4696C4.11047 17.329 4.30125 17.25 4.50017 17.25C4.6991 17.25 4.88988 17.329 5.03054 17.4696L6.75016 19.1893V3C6.75016 2.80109 6.82917 2.61032 6.96983 2.46967C7.11048 2.32902 7.30124 2.25 7.50016 2.25C7.69907 2.25 7.88983 2.32902 8.03049 2.46967C8.17114 2.61032 8.25016 2.80109 8.25016 3V19.1893L9.96979 17.4696C10.1105 17.329 10.3012 17.25 10.5002 17.25C10.6991 17.25 10.8899 17.329 11.0305 17.4696ZM20.0305 5.46963L17.0305 2.46963C17.0272 2.46639 17.0237 2.46363 17.0203 2.46043C17.0059 2.44656 16.9912 2.43292 16.9758 2.4202C16.9662 2.41232 16.9561 2.40541 16.9462 2.39809C16.9364 2.39081 16.9269 2.38326 16.9168 2.37648C16.9056 2.36893 16.8939 2.36243 16.8824 2.35556C16.8729 2.34993 16.8636 2.34394 16.8539 2.33871C16.8424 2.33253 16.8306 2.32732 16.8188 2.32182C16.8083 2.31688 16.798 2.31162 16.7872 2.30717C16.776 2.30251 16.7645 2.29875 16.753 2.29468C16.7414 2.29047 16.7299 2.28598 16.718 2.28236C16.7065 2.27893 16.6949 2.27636 16.6834 2.27348C16.6712 2.27042 16.6591 2.26698 16.6467 2.26456C16.6336 2.2619 16.6202 2.26035 16.6069 2.25847C16.596 2.25691 16.5852 2.25481 16.5742 2.25375C16.525 2.2489 16.4754 2.2489 16.4261 2.25375C16.4151 2.25481 16.4044 2.25691 16.3935 2.25847C16.3801 2.26034 16.3668 2.2619 16.3536 2.26456C16.3412 2.26698 16.3291 2.27042 16.317 2.27348C16.3054 2.27637 16.2938 2.27893 16.2824 2.28236C16.2704 2.28598 16.2589 2.29047 16.2473 2.29468C16.2359 2.29875 16.2244 2.30251 16.2131 2.30717C16.2023 2.31162 16.192 2.31688 16.1815 2.32182C16.1698 2.32732 16.1579 2.33253 16.1465 2.33871C16.1367 2.34393 16.1275 2.34993 16.1179 2.35556C16.1064 2.36243 16.0948 2.36893 16.0835 2.37648C16.0734 2.38326 16.0639 2.39081 16.0541 2.39809C16.0442 2.40541 16.0342 2.41232 16.0245 2.4202C16.0091 2.43292 15.9944 2.44656 15.98 2.46043C15.9767 2.46364 15.9731 2.46639 15.9698 2.46963L12.9698 5.46963C12.9002 5.53928 12.8449 5.62197 12.8072 5.71297C12.7695 5.80397 12.7501 5.9015 12.7501 6C12.7501 6.0985 12.7695 6.19603 12.8072 6.28703C12.8449 6.37803 12.9002 6.46072 12.9698 6.53036C13.1105 6.67103 13.3012 6.75005 13.5002 6.75005C13.5987 6.75005 13.6962 6.73065 13.7872 6.69296C13.8782 6.65526 13.9609 6.60001 14.0305 6.53036L15.7502 4.81069V21C15.7502 21.1989 15.8292 21.3897 15.9698 21.5303C16.1105 21.671 16.3012 21.75 16.5002 21.75C16.6991 21.75 16.8898 21.671 17.0305 21.5303C17.1711 21.3897 17.2502 21.1989 17.2502 21V4.81069L18.9698 6.53037C19.0394 6.60002 19.1221 6.65527 19.2131 6.69296C19.3041 6.73065 19.4017 6.75005 19.5002 6.75005C19.5987 6.75005 19.6962 6.73065 19.7872 6.69296C19.8782 6.65527 19.9609 6.60002 20.0305 6.53037C20.1002 6.46072 20.1554 6.37804 20.1931 6.28704C20.2308 6.19604 20.2502 6.0985 20.2502 6C20.2502 5.90151 20.2308 5.80397 20.1931 5.71297C20.1554 5.62197 20.1002 5.53929 20.0305 5.46964V5.46963Z" fill="#1D1F21" style="fill: var(--ui-icon-primary-color);"/>
</svg>
