<svg  viewBox="0 0 24 24" fill="none" xmlns="http://www.w3.org/2000/svg" id="__THIS_ID_NEEDS_FOR_UI_ICON_COMPONENT__">
<path d="M13.7196 10.2803C13.579 10.1397 13.5 9.94891 13.5 9.75C13.5 9.55109 13.579 9.36033 13.7196 9.21968L17.6893 5.25H15.75C15.5511 5.25 15.3603 5.17098 15.2197 5.03033C15.079 4.88968 15 4.69891 15 4.5C15 4.30109 15.079 4.11032 15.2197 3.96967C15.3603 3.82902 15.5511 3.75 15.75 3.75H19.5C19.5247 3.75 19.5494 3.75133 19.574 3.75375C19.5852 3.75485 19.596 3.75691 19.607 3.75851C19.6202 3.76039 19.6334 3.76194 19.6465 3.76455C19.6591 3.76703 19.6713 3.7705 19.6837 3.77362C19.6951 3.77646 19.7065 3.77893 19.7177 3.78236C19.7298 3.78602 19.7414 3.79055 19.7532 3.79477C19.7645 3.79884 19.7759 3.80255 19.787 3.80713C19.7979 3.81166 19.8083 3.81697 19.819 3.82196C19.8306 3.8274 19.8423 3.83258 19.8537 3.83866C19.8636 3.84402 19.8731 3.85011 19.8827 3.85588C19.8941 3.86261 19.9055 3.86901 19.9166 3.87643C19.927 3.88339 19.9368 3.89122 19.9469 3.89872C19.9565 3.90582 19.9662 3.91251 19.9755 3.9201C19.9918 3.93347 20.0073 3.94779 20.0224 3.96244C20.025 3.96496 20.0278 3.96711 20.0304 3.96968C20.0333 3.97251 20.0356 3.97567 20.0384 3.9786C20.0528 3.99339 20.0668 4.00845 20.0798 4.02438C20.0878 4.03403 20.0947 4.04424 20.1021 4.05418C20.1093 4.06383 20.1168 4.07327 20.1235 4.08329C20.1312 4.09474 20.1379 4.10659 20.1448 4.11835C20.1503 4.1276 20.1562 4.13667 20.1612 4.14614C20.1676 4.15805 20.173 4.17027 20.1787 4.1824C20.1834 4.19247 20.1885 4.20236 20.1927 4.2127C20.1976 4.22442 20.2016 4.23646 20.2058 4.24841C20.2098 4.25958 20.2141 4.27056 20.2176 4.28201C20.2212 4.294 20.2239 4.30618 20.2269 4.31831C20.2298 4.32993 20.2331 4.34138 20.2354 4.35319C20.2382 4.36738 20.24 4.38171 20.2419 4.39599C20.2433 4.40593 20.2452 4.41568 20.2462 4.42574C20.2487 4.4506 20.25 4.47555 20.25 4.50045V8.25C20.25 8.44891 20.171 8.63968 20.0303 8.78033C19.8897 8.92098 19.6989 9 19.5 9C19.3011 9 19.1103 8.92098 18.9697 8.78033C18.829 8.63968 18.75 8.44891 18.75 8.25V6.31069L14.7804 10.2803C14.6397 10.421 14.4489 10.5 14.25 10.5C14.0511 10.5 13.8603 10.421 13.7196 10.2803L13.7196 10.2803ZM9.21964 13.7197L5.25 17.6893V15.75C5.25 15.5511 5.17098 15.3603 5.03033 15.2197C4.88968 15.079 4.69891 15 4.5 15C4.30109 15 4.11032 15.079 3.96967 15.2197C3.82902 15.3603 3.75 15.5511 3.75 15.75V19.4995C3.75 19.5244 3.75128 19.5494 3.75375 19.5742C3.75476 19.5843 3.75668 19.5941 3.75805 19.604C3.76002 19.6183 3.76176 19.6327 3.76455 19.6468C3.76693 19.6586 3.77018 19.6701 3.77307 19.6817C3.77609 19.6938 3.77879 19.706 3.78241 19.718C3.78588 19.7294 3.79019 19.7405 3.79417 19.7516C3.79843 19.7636 3.80236 19.7756 3.80722 19.7873C3.81152 19.7976 3.81656 19.8075 3.82132 19.8176C3.82699 19.8297 3.83239 19.8419 3.83875 19.8539C3.84383 19.8633 3.8496 19.8723 3.85505 19.8815C3.86205 19.8933 3.86878 19.9052 3.87652 19.9167C3.8832 19.9267 3.89062 19.9361 3.89776 19.9457C3.90517 19.9557 3.91218 19.9659 3.92019 19.9756C3.93324 19.9915 3.94724 20.0066 3.96157 20.0214C3.96436 20.0243 3.96674 20.0275 3.96963 20.0303C3.97219 20.0329 3.97503 20.035 3.9776 20.0376C3.9927 20.0522 4.00818 20.0665 4.02447 20.0799C4.03386 20.0876 4.04374 20.0944 4.05345 20.1016C4.06339 20.1089 4.07304 20.1167 4.08334 20.1235C4.09451 20.131 4.10609 20.1375 4.11753 20.1443C4.1271 20.15 4.13649 20.156 4.14633 20.1613C4.15782 20.1675 4.16967 20.1727 4.18139 20.1782C4.19187 20.1831 4.20213 20.1884 4.21284 20.1928C4.22428 20.1975 4.23591 20.2014 4.24754 20.2055C4.25903 20.2096 4.27038 20.214 4.2821 20.2176C4.29368 20.2211 4.30544 20.2237 4.31716 20.2266C4.3292 20.2296 4.3411 20.233 4.35337 20.2354C4.36669 20.2381 4.38015 20.2397 4.39356 20.2416C4.40441 20.2431 4.41503 20.2452 4.42597 20.2463C4.45055 20.2487 4.47527 20.25 4.49999 20.25H8.25C8.44891 20.25 8.63968 20.171 8.78033 20.0303C8.92098 19.8897 9 19.6989 9 19.5C9 19.3011 8.92098 19.1103 8.78033 18.9697C8.63968 18.829 8.44891 18.75 8.25 18.75H6.31069L10.2804 14.7803C10.35 14.7107 10.4053 14.628 10.4429 14.537C10.4806 14.446 10.5 14.3485 10.5 14.25C10.5 14.1515 10.4806 14.0539 10.4429 13.963C10.4052 13.872 10.35 13.7893 10.2803 13.7196C10.2107 13.65 10.128 13.5948 10.037 13.5571C9.94599 13.5194 9.84846 13.5 9.74997 13.5C9.65148 13.5 9.55395 13.5194 9.46295 13.5571C9.37196 13.5948 9.28928 13.65 9.21964 13.7197L9.21964 13.7197ZM20.1022 19.9457C20.1094 19.9361 20.1168 19.9267 20.1235 19.9167C20.1312 19.9052 20.1379 19.8933 20.1449 19.8815C20.1504 19.8723 20.1562 19.8633 20.1612 19.8539C20.1676 19.8419 20.173 19.8297 20.1787 19.8176C20.1834 19.8075 20.1885 19.7976 20.1928 19.7873C20.1976 19.7756 20.2016 19.7636 20.2058 19.7516C20.2098 19.7405 20.2141 19.7294 20.2176 19.718C20.2212 19.706 20.2239 19.6938 20.2269 19.6817C20.2298 19.6701 20.2331 19.6586 20.2354 19.6468C20.2382 19.6327 20.24 19.6183 20.2419 19.604C20.2433 19.5941 20.2452 19.5843 20.2462 19.5742C20.2487 19.5494 20.25 19.5244 20.25 19.4995V15.75C20.25 15.5511 20.171 15.3603 20.0303 15.2197C19.8897 15.079 19.6989 15 19.5 15C19.3011 15 19.1103 15.079 18.9697 15.2197C18.829 15.3603 18.75 15.5511 18.75 15.75V17.6893L14.7804 13.7197C14.6397 13.579 14.4489 13.5 14.25 13.5C14.0511 13.5 13.8603 13.579 13.7197 13.7196C13.579 13.8603 13.5 14.051 13.5 14.25C13.5 14.4489 13.579 14.6397 13.7196 14.7803L17.6893 18.75H15.75C15.5511 18.75 15.3603 18.829 15.2197 18.9697C15.079 19.1103 15 19.3011 15 19.5C15 19.6989 15.079 19.8897 15.2197 20.0303C15.3603 20.171 15.5511 20.25 15.75 20.25H19.5C19.5247 20.25 19.5494 20.2487 19.574 20.2463C19.585 20.2452 19.5956 20.2431 19.6064 20.2416C19.6198 20.2397 19.6333 20.2381 19.6466 20.2354C19.6589 20.233 19.6708 20.2296 19.6828 20.2266C19.6945 20.2237 19.7063 20.2211 19.7179 20.2176C19.7296 20.214 19.741 20.2096 19.7525 20.2055C19.7641 20.2014 19.7757 20.1975 19.7872 20.1928C19.7979 20.1884 19.8081 20.1831 19.8186 20.1782C19.8303 20.1727 19.8422 20.1675 19.8537 20.1613C19.8635 20.156 19.8729 20.15 19.8825 20.1443C19.8939 20.1375 19.9055 20.131 19.9167 20.1235C19.927 20.1167 19.9366 20.1089 19.9465 20.1016C19.9562 20.0944 19.9661 20.0876 19.9755 20.0799C19.9918 20.0665 20.0073 20.0522 20.0224 20.0376C20.025 20.035 20.0278 20.0329 20.0304 20.0303C20.0332 20.0275 20.0356 20.0243 20.0384 20.0214C20.0527 20.0066 20.0668 19.9915 20.0798 19.9756C20.0878 19.9659 20.0948 19.9557 20.1022 19.9457ZM6.31069 5.25H8.25C8.44891 5.25 8.63968 5.17098 8.78033 5.03033C8.92098 4.88968 9 4.69891 9 4.5C9 4.30109 8.92098 4.11032 8.78033 3.96967C8.63968 3.82902 8.44891 3.75 8.25 3.75H4.5C4.47528 3.75 4.45061 3.75133 4.42598 3.75375C4.41481 3.75485 4.40396 3.75691 4.39298 3.75851C4.3798 3.76039 4.36657 3.76194 4.35347 3.76455C4.34089 3.76703 4.32871 3.7705 4.31635 3.77362C4.30495 3.77646 4.29355 3.77893 4.28229 3.78236C4.27021 3.78602 4.25858 3.79055 4.24677 3.79477C4.23546 3.79884 4.22411 3.80255 4.21299 3.80713C4.20209 3.81166 4.19165 3.81697 4.18103 3.82196C4.16941 3.8274 4.15773 3.83258 4.14634 3.83866C4.1364 3.84402 4.12693 3.85011 4.11727 3.85588C4.10592 3.86261 4.09447 3.86901 4.08344 3.87643C4.073 3.88339 4.06316 3.89122 4.05309 3.89872C4.04353 3.90582 4.03378 3.91251 4.02448 3.9201C4.00818 3.93347 3.99271 3.94779 3.9776 3.96244C3.97504 3.96496 3.9722 3.96711 3.96963 3.96968C3.96675 3.97251 3.96437 3.97567 3.96158 3.9786C3.94725 3.99339 3.93324 4.00845 3.9202 4.02438C3.91223 4.03403 3.90527 4.04424 3.8979 4.05418C3.89072 4.06383 3.88321 4.07327 3.87648 4.08329C3.86884 4.09474 3.86215 4.10659 3.8552 4.11835C3.84971 4.1276 3.84385 4.13667 3.83877 4.14614C3.8324 4.15805 3.827 4.17027 3.82133 4.1824C3.81657 4.19247 3.81153 4.20236 3.80727 4.2127C3.80238 4.22442 3.79844 4.23646 3.79418 4.24841C3.7902 4.25958 3.7859 4.27056 3.78242 4.28201C3.7788 4.294 3.7761 4.30618 3.77308 4.31831C3.7702 4.32993 3.76695 4.34138 3.76457 4.35319C3.76177 4.36738 3.76003 4.38171 3.75807 4.39599C3.75669 4.40593 3.75477 4.41568 3.75376 4.42574C3.75129 4.4506 3.75001 4.47555 3.75001 4.50045V8.25C3.75001 8.44891 3.82903 8.63968 3.96968 8.78033C4.11033 8.92098 4.3011 9 4.50001 9C4.69892 9 4.88969 8.92098 5.03034 8.78033C5.17099 8.63968 5.25001 8.44891 5.25001 8.25V6.31069L9.21965 10.2803C9.3603 10.421 9.55106 10.5 9.74998 10.5C9.9489 10.5 10.1397 10.421 10.2803 10.2804C10.421 10.1397 10.5 9.94895 10.5 9.75004C10.5 9.55112 10.421 9.36035 10.2804 9.21968L6.31069 5.25Z" fill="#1D1F21" style="fill: var(--ui-icon-primary-color);"/>
</svg>
