<svg  viewBox="0 0 24 24" fill="none" xmlns="http://www.w3.org/2000/svg" id="__THIS_ID_NEEDS_FOR_UI_ICON_COMPONENT__">
<path d="M21.7498 18C21.7498 18.1989 21.6708 18.3897 21.5302 18.5303C21.3895 18.671 21.1987 18.75 20.9998 18.75H7.49983C7.30092 18.75 7.11016 18.671 6.96951 18.5303C6.82885 18.3897 6.74984 18.1989 6.74983 18V6.31065L3.5302 9.53032C3.38955 9.67098 3.19878 9.75001 2.99987 9.75002C2.80095 9.75003 2.61018 9.67101 2.46951 9.53036C2.32885 9.38972 2.24983 9.19895 2.24982 9.00003C2.24981 8.80112 2.32882 8.61034 2.46947 8.46968L6.96947 3.96968C6.97098 3.96817 6.97267 3.96693 6.97418 3.96543C6.99025 3.94961 7.00691 3.93438 7.0244 3.92005C7.03319 3.91281 7.04248 3.90652 7.05155 3.89975C7.06212 3.89185 7.07242 3.88367 7.08341 3.87633C7.09398 3.86924 7.10501 3.86309 7.11591 3.8566C7.12603 3.85054 7.13596 3.84417 7.1464 3.83858C7.15734 3.83273 7.1686 3.82777 7.17977 3.8225C7.1908 3.81727 7.20165 3.81178 7.213 3.80708C7.22367 3.80267 7.23452 3.79913 7.24532 3.79524C7.25764 3.7908 7.26977 3.7861 7.28235 3.78229C7.29302 3.77907 7.30387 3.77673 7.31462 3.77399C7.32753 3.77071 7.34035 3.76711 7.35349 3.76451C7.36571 3.76209 7.37807 3.76068 7.39039 3.75888C7.40229 3.75713 7.41401 3.75491 7.42609 3.75373C7.44783 3.75159 7.46967 3.75066 7.49155 3.75042C7.49434 3.75039 7.49704 3.75 7.49983 3.75C7.50263 3.75 7.50533 3.75039 7.50812 3.75042C7.53 3.75066 7.55184 3.75159 7.57358 3.75372C7.58567 3.7549 7.59738 3.75713 7.60929 3.75888C7.6216 3.76068 7.63396 3.76209 7.64618 3.7645C7.65932 3.7671 7.67214 3.7707 7.68505 3.77398C7.6958 3.77672 7.70665 3.77907 7.71732 3.78229C7.72991 3.7861 7.74204 3.79079 7.75435 3.79523C7.76515 3.79913 7.776 3.80267 7.78667 3.80707C7.79802 3.81177 7.80887 3.81727 7.8199 3.8225C7.83107 3.82777 7.84233 3.83273 7.85328 3.83857C7.86371 3.84417 7.87365 3.85053 7.88376 3.85659C7.89466 3.86309 7.90569 3.86923 7.91626 3.87633C7.92725 3.88367 7.93755 3.89184 7.94812 3.89974C7.95719 3.90652 7.96648 3.91281 7.97527 3.92004C7.99276 3.93438 8.00942 3.9496 8.02549 3.96543C8.027 3.96692 8.02869 3.96817 8.0302 3.96968L12.5302 8.46968C12.6709 8.61034 12.7499 8.80111 12.7499 9.00003C12.7498 9.19895 12.6708 9.38971 12.5302 9.53036C12.4605 9.6 12.3778 9.65525 12.2868 9.69293C12.1958 9.73062 12.0983 9.75002 11.9998 9.75001C11.8009 9.75 11.6101 9.67098 11.4695 9.53031L8.24983 6.31065V17.25H20.9998C21.1987 17.25 21.3895 17.329 21.5302 17.4697C21.6708 17.6103 21.7498 17.8011 21.7498 18Z" fill="#1D1F21" style="fill: var(--ui-icon-primary-color);"/>
</svg>
