<svg  viewBox="0 0 24 24" fill="none" xmlns="http://www.w3.org/2000/svg" id="__THIS_ID_NEEDS_FOR_UI_ICON_COMPONENT__">
<path d="M21.7499 10.5C21.7481 12.0908 21.1154 13.6158 19.9906 14.7407C18.8657 15.8655 17.3407 16.4982 15.7499 16.5H4.81057L8.03028 19.7197C8.17093 19.8603 8.24994 20.0511 8.24993 20.25C8.24992 20.4489 8.1709 20.6397 8.03024 20.7804C7.88957 20.921 7.6988 21 7.49988 21C7.30097 21 7.1102 20.921 6.96955 20.7803L2.46955 16.2803C2.46701 16.2778 2.46491 16.275 2.46241 16.2724C2.44773 16.2573 2.43344 16.2419 2.42007 16.2256C2.41218 16.216 2.40528 16.2058 2.39793 16.196C2.39071 16.1862 2.38317 16.1768 2.37641 16.1667C2.36873 16.1552 2.36204 16.1433 2.35505 16.1315C2.34958 16.1223 2.34378 16.1133 2.33869 16.1039C2.33233 16.092 2.3269 16.0797 2.32122 16.0676C2.31649 16.0575 2.31145 16.0476 2.30716 16.0373C2.30228 16.0255 2.29833 16.0135 2.29409 16.0016C2.2901 15.9904 2.28581 15.9794 2.28235 15.968C2.2787 15.956 2.27601 15.9437 2.27297 15.9316C2.27009 15.92 2.26683 15.9086 2.26449 15.8968C2.26167 15.8827 2.25995 15.8683 2.25796 15.854C2.25657 15.8441 2.25465 15.8343 2.25366 15.8243C2.24878 15.7749 2.24878 15.7251 2.25366 15.6758C2.25465 15.6657 2.25657 15.6559 2.25796 15.646C2.25995 15.6317 2.26167 15.6173 2.26449 15.6032C2.26683 15.5914 2.27009 15.58 2.27297 15.5685C2.276 15.5563 2.2787 15.544 2.28235 15.532C2.28581 15.5206 2.2901 15.5096 2.29409 15.4984C2.29833 15.4865 2.30229 15.4745 2.30716 15.4627C2.31144 15.4524 2.31649 15.4425 2.32122 15.4324C2.3269 15.4203 2.33233 15.4081 2.33869 15.3961C2.34378 15.3867 2.34958 15.3777 2.35505 15.3685C2.36204 15.3567 2.36873 15.3448 2.37641 15.3333C2.38316 15.3232 2.39071 15.3138 2.39793 15.304C2.40528 15.2942 2.41218 15.284 2.42007 15.2744C2.43369 15.2578 2.44824 15.2421 2.46321 15.2267C2.46543 15.2244 2.4673 15.2219 2.46955 15.2197L6.96955 10.7197C7.1102 10.579 7.30097 10.5 7.49988 10.5C7.59838 10.5 7.69591 10.5194 7.78691 10.5571C7.8779 10.5948 7.96059 10.65 8.03024 10.7196C8.09988 10.7893 8.15513 10.872 8.19283 10.963C8.23053 11.0539 8.24993 11.1515 8.24993 11.25C8.24994 11.3485 8.23054 11.446 8.19285 11.537C8.15517 11.628 8.09992 11.7107 8.03028 11.7803L4.81057 15H15.7499C16.9434 15 18.088 14.5259 18.9319 13.682C19.7758 12.8381 20.2499 11.6935 20.2499 10.5C20.2499 9.30653 19.7758 8.16193 18.9319 7.31802C18.088 6.47411 16.9434 6 15.7499 6H7.49992C7.301 6 7.11024 5.92098 6.96959 5.78033C6.82893 5.63968 6.74992 5.44891 6.74992 5.25C6.74992 5.05109 6.82893 4.86032 6.96959 4.71967C7.11024 4.57902 7.301 4.5 7.49992 4.5H15.7499C17.3407 4.50179 18.8657 5.1345 19.9906 6.25933C21.1154 7.38417 21.7481 8.90925 21.7499 10.5Z" fill="#1D1F21" style="fill: var(--ui-icon-primary-color);"/>
</svg>
