<svg  viewBox="0 0 24 24" fill="none" xmlns="http://www.w3.org/2000/svg" id="__THIS_ID_NEEDS_FOR_UI_ICON_COMPONENT__">
<path d="M21.7498 6C21.7498 6.19891 21.6708 6.38968 21.5302 6.53033C21.3895 6.67098 21.1987 6.75 20.9998 6.75H8.24984V17.6894L11.4695 14.4697C11.6101 14.329 11.8009 14.25 11.9998 14.25C12.1987 14.25 12.3895 14.329 12.5302 14.4696C12.6708 14.6103 12.7498 14.8011 12.7499 15C12.7499 15.1989 12.6709 15.3897 12.5302 15.5303L8.0302 20.0303C8.02869 20.0318 8.02702 20.0331 8.0255 20.0346C8.00941 20.0504 7.99273 20.0656 7.97527 20.08C7.96642 20.0872 7.95708 20.0935 7.94799 20.1004C7.93749 20.1082 7.92722 20.1163 7.9163 20.1237C7.90554 20.1309 7.89437 20.1371 7.88333 20.1437C7.87337 20.1496 7.86364 20.1559 7.85339 20.1614C7.84214 20.1674 7.83057 20.1725 7.81908 20.1779C7.80837 20.183 7.79784 20.1883 7.78686 20.1928C7.77578 20.1974 7.76446 20.2011 7.75321 20.2052C7.74135 20.2094 7.72965 20.214 7.71753 20.2177C7.7063 20.221 7.6949 20.2235 7.68356 20.2264C7.6712 20.2295 7.65899 20.233 7.6464 20.2355C7.6332 20.2381 7.61988 20.2396 7.60658 20.2415C7.59566 20.2431 7.58492 20.2452 7.57386 20.2463C7.54925 20.2487 7.52455 20.25 7.49984 20.25C7.47512 20.25 7.45042 20.2487 7.42581 20.2463C7.41475 20.2452 7.40401 20.2431 7.39309 20.2415C7.37979 20.2396 7.36647 20.2381 7.35327 20.2355C7.34068 20.233 7.32847 20.2295 7.31611 20.2264C7.30476 20.2235 7.29337 20.221 7.28214 20.2177C7.27002 20.214 7.25832 20.2094 7.24646 20.2052C7.23521 20.2011 7.22389 20.1974 7.21281 20.1929C7.20183 20.1883 7.1913 20.183 7.18059 20.1779C7.1691 20.1725 7.15753 20.1674 7.14628 20.1614C7.13604 20.1559 7.1263 20.1496 7.11635 20.1437C7.1053 20.1371 7.09413 20.1309 7.08337 20.1237C7.07245 20.1163 7.06218 20.1082 7.05168 20.1004C7.04259 20.0935 7.03325 20.0872 7.0244 20.08C7.00694 20.0656 6.99026 20.0504 6.97417 20.0346C6.97265 20.0331 6.97098 20.0318 6.96947 20.0303L2.46947 15.5303C2.32882 15.3897 2.24981 15.1989 2.24982 15C2.24983 14.8011 2.32885 14.6103 2.46951 14.4696C2.61018 14.329 2.80095 14.25 2.99987 14.25C3.19878 14.25 3.38955 14.329 3.5302 14.4697L6.74984 17.6894V6C6.74984 5.80109 6.82886 5.61032 6.96951 5.46967C7.11016 5.32902 7.30092 5.25 7.49984 5.25H20.9998C21.1987 5.25 21.3895 5.32902 21.5302 5.46967C21.6708 5.61032 21.7498 5.80109 21.7498 6Z" fill="#1D1F21" style="fill: var(--ui-icon-primary-color);"/>
</svg>
