<svg  viewBox="0 0 24 24" fill="none" xmlns="http://www.w3.org/2000/svg" id="__THIS_ID_NEEDS_FOR_UI_ICON_COMPONENT__">
<path d="M14.2499 6.75022H11.9999V3.00022C11.9999 2.85189 11.9559 2.70689 11.8735 2.58357C11.7911 2.46024 11.6739 2.36411 11.5369 2.30735C11.3999 2.25058 11.2491 2.23572 11.1036 2.26464C10.9581 2.29357 10.8245 2.36498 10.7196 2.46985L1.71957 11.4699C1.64992 11.5395 1.59467 11.6222 1.55697 11.7132C1.51928 11.8042 1.49988 11.9017 1.49988 12.0002C1.49988 12.0987 1.51928 12.1963 1.55697 12.2873C1.59467 12.3783 1.64992 12.4609 1.71957 12.5306L10.7196 21.5306C10.8245 21.6355 10.9581 21.7069 11.1036 21.7358C11.2491 21.7647 11.3999 21.7499 11.5369 21.6931C11.6739 21.6363 11.7911 21.5402 11.8735 21.4169C11.9559 21.2935 11.9999 21.1485 11.9999 21.0002V17.2502H14.2499C14.4488 17.2502 14.6396 17.1712 14.7802 17.0305C14.9209 16.8899 14.9999 16.6991 14.9999 16.5002V7.50022C14.9999 7.30131 14.9209 7.11054 14.7802 6.96989C14.6396 6.82924 14.4488 6.75022 14.2499 6.75022ZM13.4999 15.7502H11.2499C11.051 15.7502 10.8602 15.8292 10.7196 15.9699C10.5789 16.1105 10.4999 16.3013 10.4999 16.5002V19.1896L3.31058 12.0002L10.4999 4.81086V7.50022C10.4999 7.69913 10.5789 7.8899 10.7196 8.03055C10.8602 8.1712 11.051 8.25022 11.2499 8.25022H13.4999V15.7502ZM20.9999 7.50022V16.5002C20.9999 16.6991 20.9209 16.8899 20.7802 17.0305C20.6396 17.1712 20.4488 17.2502 20.2499 17.2502C20.051 17.2502 19.8602 17.1712 19.7196 17.0305C19.5789 16.8899 19.4999 16.6991 19.4999 16.5002V7.50022C19.4999 7.30131 19.5789 7.11054 19.7196 6.96989C19.8602 6.82924 20.051 6.75022 20.2499 6.75022C20.4488 6.75022 20.6396 6.82924 20.7802 6.96989C20.9209 7.11054 20.9999 7.30131 20.9999 7.50022ZM17.9999 7.50022V16.5002C17.9999 16.6991 17.9209 16.8899 17.7802 17.0305C17.6396 17.1712 17.4488 17.2502 17.2499 17.2502C17.051 17.2502 16.8602 17.1712 16.7196 17.0305C16.5789 16.8899 16.4999 16.6991 16.4999 16.5002V7.50022C16.4999 7.30131 16.5789 7.11054 16.7196 6.96989C16.8602 6.82924 17.051 6.75022 17.2499 6.75022C17.4488 6.75022 17.6396 6.82924 17.7802 6.96989C17.9209 7.11054 17.9999 7.30131 17.9999 7.50022Z" fill="#1D1F21" style="fill: var(--ui-icon-primary-color);"/>
</svg>
