<svg  viewBox="0 0 24 24" fill="none" xmlns="http://www.w3.org/2000/svg" id="__THIS_ID_NEEDS_FOR_UI_ICON_COMPONENT__">
<path d="M8.03036 13.7199C8.10001 13.7896 8.15525 13.8723 8.19295 13.9633C8.23064 14.0543 8.25004 14.1518 8.25004 14.2503C8.25004 14.3488 8.23064 14.4463 8.19295 14.5373C8.15525 14.6283 8.10001 14.711 8.03036 14.7807C7.96071 14.8503 7.87802 14.9056 7.78702 14.9432C7.69602 14.9809 7.59849 15.0003 7.49999 15.0003C7.40149 15.0003 7.30396 14.9809 7.21296 14.9432C7.12196 14.9056 7.03928 14.8503 6.96963 14.7807L2.46963 10.2807C2.32898 10.14 2.24997 9.94921 2.24997 9.75029C2.24997 9.55137 2.32898 9.3606 2.46963 9.21993L6.96963 4.71993C7.11029 4.57927 7.30107 4.50024 7.49999 4.50024C7.69892 4.50024 7.8897 4.57927 8.03036 4.71993C8.17102 4.86059 8.25004 5.05137 8.25004 5.25029C8.25004 5.44922 8.17102 5.64 8.03036 5.78066L4.06063 9.75029L8.03036 13.7199ZM12 9.00029H9.31065L12.5304 5.78066C12.671 5.64 12.75 5.44922 12.75 5.25029C12.75 5.05137 12.671 4.86059 12.5304 4.71993C12.3897 4.57927 12.1989 4.50024 12 4.50024C11.8011 4.50024 11.6103 4.57927 11.4696 4.71993L6.96963 9.21993C6.96434 9.22524 6.95986 9.23096 6.95476 9.23641C6.94301 9.24886 6.9312 9.26126 6.92033 9.27449C6.91178 9.28488 6.90428 9.29578 6.89638 9.30654C6.88978 9.31546 6.88282 9.32416 6.87661 9.33341C6.86866 9.34526 6.86171 9.35758 6.85451 9.3698C6.84928 9.37863 6.8437 9.38724 6.83883 9.39635C6.83234 9.40844 6.82682 9.42089 6.82104 9.43325C6.81642 9.44313 6.81147 9.45284 6.80726 9.46291C6.80235 9.47482 6.79836 9.4869 6.79407 9.49898C6.79012 9.51006 6.78586 9.52095 6.78243 9.53226C6.77877 9.54435 6.77606 9.55662 6.77302 9.56884C6.77015 9.58037 6.7669 9.59173 6.76457 9.60344C6.76175 9.61768 6.76003 9.63201 6.75803 9.64634C6.75665 9.65627 6.75473 9.66598 6.75374 9.67605C6.74886 9.72543 6.74886 9.77517 6.75374 9.82455C6.75473 9.83462 6.75665 9.84432 6.75803 9.85426C6.76003 9.86858 6.76175 9.88291 6.76457 9.89715C6.7669 9.90887 6.77015 9.92022 6.77302 9.93176C6.77606 9.94398 6.77877 9.95625 6.78243 9.96833C6.78586 9.97964 6.79012 9.99053 6.79407 10.0016C6.79835 10.0137 6.80235 10.0258 6.80726 10.0377C6.81147 10.0478 6.81642 10.0575 6.82104 10.0673C6.82682 10.0797 6.83234 10.0922 6.83883 10.1042C6.8437 10.1134 6.84928 10.122 6.85451 10.1308C6.86171 10.143 6.86866 10.1553 6.87661 10.1672C6.88282 10.1764 6.88978 10.1851 6.89638 10.1941C6.90428 10.2048 6.91178 10.2157 6.92033 10.2261C6.9312 10.2393 6.94301 10.2517 6.95476 10.2642C6.95986 10.2696 6.96434 10.2754 6.96963 10.2807L11.4696 14.7807C11.6103 14.9213 11.8011 15.0003 12 15.0003C12.1989 15.0003 12.3897 14.9213 12.5304 14.7807C12.671 14.64 12.75 14.4492 12.75 14.2503C12.75 14.0514 12.671 13.8606 12.5304 13.7199L9.31065 10.5003H12C14.1873 10.5028 16.2843 11.3728 17.8309 12.9194C19.3775 14.466 20.2475 16.563 20.25 18.7503C20.25 18.9492 20.329 19.14 20.4697 19.2806C20.6103 19.4213 20.8011 19.5003 21 19.5003C21.1989 19.5003 21.3897 19.4213 21.5303 19.2806C21.671 19.14 21.75 18.9492 21.75 18.7503C21.7471 16.1653 20.7189 13.6871 18.8911 11.8592C17.0632 10.0314 14.585 9.00322 12 9.00029Z" fill="#1D1F21" style="fill: var(--ui-icon-primary-color);"/>
</svg>
