<svg  viewBox="0 0 24 24" fill="none" xmlns="http://www.w3.org/2000/svg" id="__THIS_ID_NEEDS_FOR_UI_ICON_COMPONENT__">
<path d="M21.5452 10.2642C21.5401 10.2696 21.5357 10.2754 21.5304 10.2807L17.0304 14.7807C16.8897 14.9213 16.6989 15.0003 16.5 15.0003C16.3011 15.0003 16.1103 14.9213 15.9696 14.7807C15.829 14.64 15.75 14.4492 15.75 14.2503C15.75 14.0514 15.829 13.8606 15.9696 13.7199L19.1893 10.5003H12C9.81272 10.5028 7.71574 11.3728 6.1691 12.9194C4.62246 14.466 3.75247 16.563 3.75 18.7503C3.75 18.9492 3.67098 19.14 3.53033 19.2806C3.38968 19.4213 3.19891 19.5003 3 19.5003C2.80109 19.5003 2.61032 19.4213 2.46967 19.2806C2.32902 19.14 2.25 18.9492 2.25 18.7503C2.25293 16.1653 3.28109 13.6871 5.10894 11.8592C6.93679 10.0314 9.41504 9.00322 12 9.00029H19.1893L15.9696 5.78066C15.829 5.64 15.75 5.44922 15.75 5.25029C15.75 5.05137 15.829 4.86059 15.9696 4.71993C16.1103 4.57927 16.3011 4.50024 16.5 4.50024C16.6989 4.50024 16.8897 4.57927 17.0304 4.71993L21.5304 9.21993C21.5357 9.22522 21.5401 9.23098 21.5452 9.23639C21.557 9.24884 21.5688 9.26126 21.5797 9.27449C21.5882 9.28488 21.5957 9.29578 21.6036 9.30651C21.6102 9.31549 21.6172 9.32414 21.6234 9.33341C21.6313 9.34526 21.6383 9.35758 21.6455 9.3698C21.6507 9.37863 21.6563 9.38724 21.6612 9.39633C21.6676 9.40844 21.6732 9.4209 21.6789 9.43325C21.6836 9.44314 21.6885 9.45282 21.6927 9.46294C21.6976 9.47479 21.7016 9.4869 21.7059 9.49896C21.7099 9.51004 21.7141 9.52096 21.7176 9.53227C21.7212 9.54435 21.7239 9.55662 21.727 9.56884C21.7298 9.58038 21.7331 9.59173 21.7354 9.60347C21.7382 9.61766 21.74 9.63201 21.742 9.64631C21.7433 9.65625 21.7453 9.666 21.7463 9.67605C21.7511 9.72543 21.7511 9.77517 21.7463 9.82455C21.7453 9.83459 21.7433 9.84434 21.742 9.85428C21.74 9.86858 21.7382 9.88293 21.7354 9.89712C21.7331 9.90886 21.7298 9.92022 21.727 9.93175C21.7239 9.94397 21.7212 9.95624 21.7176 9.96833C21.7141 9.97963 21.7099 9.99055 21.7059 10.0016C21.7016 10.0137 21.6976 10.0258 21.6927 10.0377C21.6885 10.0478 21.6836 10.0575 21.6789 10.0673C21.6732 10.0797 21.6676 10.0922 21.6612 10.1043C21.6563 10.1133 21.6507 10.122 21.6455 10.1308C21.6383 10.143 21.6313 10.1553 21.6234 10.1672C21.6172 10.1765 21.6102 10.1851 21.6036 10.1941C21.5957 10.2048 21.5882 10.2157 21.5797 10.2261C21.5688 10.2393 21.557 10.2518 21.5452 10.2642Z" fill="#1D1F21" style="fill: var(--ui-icon-primary-color);"/>
</svg>
