<svg  viewBox="0 0 24 24" fill="none" xmlns="http://www.w3.org/2000/svg" id="__THIS_ID_NEEDS_FOR_UI_ICON_COMPONENT__">
<path d="M18.8944 5.10554C17.5311 3.74353 15.7946 2.81627 13.9044 2.44099C12.0142 2.0657 10.0552 2.25922 8.27501 2.9971C6.4948 3.73498 4.97331 4.98408 3.90287 6.58651C2.83244 8.18893 2.26111 10.0727 2.26111 11.9998C2.26111 13.9269 2.83244 15.8107 3.90287 17.4131C4.97331 19.0156 6.4948 20.2647 8.27501 21.0025C10.0552 21.7404 12.0142 21.9339 13.9044 21.5587C15.7946 21.1834 17.5311 20.2561 18.8944 18.8941C20.7201 17.0642 21.7455 14.5848 21.7455 11.9998C21.7455 9.41486 20.7201 6.93544 18.8944 5.10554ZM17.8337 17.8335C16.6802 18.9859 15.2108 19.7705 13.6115 20.0881C12.0121 20.4056 10.3544 20.2419 8.84812 19.6175C7.34179 18.9932 6.05438 17.9362 5.14862 16.5803C4.24287 15.2244 3.75944 13.6304 3.75944 11.9998C3.75944 10.3692 4.24287 8.77523 5.14862 7.41933C6.05438 6.06343 7.34179 5.00649 8.84812 4.38213C10.3544 3.75777 12.0121 3.59402 13.6115 3.91157C15.2108 4.22912 16.6802 5.01371 17.8337 6.16617C19.3786 7.71457 20.2462 9.81254 20.2462 11.9998C20.2462 14.1871 19.3786 16.2851 17.8337 17.8335ZM15.3751 10.1248V14.6248C15.3751 14.7233 15.3557 14.8208 15.318 14.9118C15.2803 15.0028 15.225 15.0855 15.1554 15.1552C15.0858 15.2248 15.0031 15.28 14.9121 15.3177C14.8211 15.3554 14.7236 15.3748 14.6251 15.3748H10.1251C9.92616 15.3748 9.73539 15.2958 9.59474 15.1552C9.45409 15.0145 9.37507 14.8237 9.37507 14.6248C9.37507 14.4259 9.45409 14.2351 9.59474 14.0945C9.73539 13.9538 9.92616 13.8748 10.1251 13.8748H12.8144L8.84475 9.90514C8.70425 9.76446 8.62535 9.57375 8.62542 9.37492C8.62548 9.17609 8.70449 8.98543 8.84508 8.84484C8.98567 8.70424 9.17634 8.62523 9.37517 8.62517C9.57399 8.62511 9.76471 8.704 9.90539 8.8445L13.8751 12.8142V10.1248C13.8751 9.92591 13.9541 9.73515 14.0947 9.59449C14.2354 9.45384 14.4262 9.37482 14.6251 9.37482C14.824 9.37482 15.0147 9.45384 15.1554 9.59449C15.2961 9.73515 15.3751 9.92591 15.3751 10.1248Z" fill="#1D1F21" style="fill: var(--ui-icon-primary-color);"/>
</svg>
