<svg  viewBox="0 0 24 24" fill="none" xmlns="http://www.w3.org/2000/svg" id="__THIS_ID_NEEDS_FOR_UI_ICON_COMPONENT__">
<path d="M19.2804 8.03037C19.1397 8.171 18.9489 8.25 18.75 8.25C18.5511 8.25 18.3603 8.171 18.2196 8.03037L15 4.81064V12C14.9971 14.585 13.9689 17.0632 12.1411 18.8911C10.3132 20.7189 7.83496 21.7471 5.25 21.75C5.05109 21.75 4.86032 21.671 4.71967 21.5303C4.57902 21.3897 4.5 21.1989 4.5 21C4.5 20.8011 4.57902 20.6103 4.71967 20.4697C4.86032 20.329 5.05109 20.25 5.25 20.25C7.43728 20.2475 9.53426 19.3775 11.0809 17.8309C12.6275 16.2843 13.4975 14.1873 13.5 12V4.81064L10.2804 8.03037C10.1397 8.17103 9.94893 8.25005 9.75 8.25005C9.55107 8.25005 9.3603 8.17103 9.21964 8.03037C9.07897 7.88971 8.99995 7.69893 8.99995 7.5C8.99995 7.30108 9.07897 7.1103 9.21964 6.96964L13.7196 2.46964C13.7246 2.46465 13.7301 2.46039 13.7352 2.45559C13.748 2.4435 13.7607 2.43142 13.7743 2.42024C13.7841 2.41223 13.7944 2.40518 13.8045 2.39772C13.8141 2.39058 13.8234 2.38316 13.8333 2.37648C13.8444 2.36906 13.8559 2.36261 13.8673 2.35584C13.877 2.35007 13.8865 2.34398 13.8964 2.33862C13.9075 2.33272 13.9189 2.32768 13.9302 2.32237C13.9412 2.3172 13.9519 2.31175 13.9632 2.30708C13.9737 2.30273 13.9845 2.29921 13.9952 2.29536C14.0076 2.29083 14.0199 2.28612 14.0326 2.28227C14.0429 2.27916 14.0533 2.27692 14.0637 2.27426C14.077 2.27087 14.0902 2.26717 14.1038 2.26447C14.1152 2.26222 14.1267 2.26094 14.1382 2.25925C14.1509 2.25732 14.1635 2.25499 14.1765 2.25371C14.1954 2.25188 14.2144 2.25124 14.2334 2.25082C14.239 2.25073 14.2444 2.25 14.25 2.25C14.2556 2.25 14.261 2.25073 14.2666 2.25082C14.2856 2.25124 14.3046 2.25188 14.3235 2.25371C14.3365 2.25499 14.349 2.25732 14.3618 2.25925C14.3733 2.26094 14.3848 2.26222 14.3961 2.26447C14.4098 2.26717 14.423 2.27087 14.4363 2.27426C14.4467 2.27692 14.4571 2.27916 14.4674 2.28227C14.4801 2.28612 14.4924 2.29083 14.5048 2.29536C14.5155 2.29921 14.5263 2.30273 14.5368 2.30708C14.5481 2.31175 14.5588 2.3172 14.5698 2.32237C14.5811 2.32768 14.5925 2.33272 14.6035 2.33862C14.6135 2.34398 14.623 2.35007 14.6327 2.35584C14.6441 2.36261 14.6556 2.36906 14.6667 2.37648C14.6766 2.38316 14.6859 2.39058 14.6955 2.39772C14.7056 2.40518 14.7159 2.41223 14.7257 2.42024C14.7393 2.43141 14.752 2.44349 14.7648 2.45559C14.7699 2.46039 14.7753 2.46465 14.7804 2.46964L19.2804 6.96964C19.421 7.11031 19.5 7.30108 19.5 7.5C19.5 7.69892 19.421 7.8897 19.2804 8.03037Z" fill="#1D1F21" style="fill: var(--ui-icon-primary-color);"/>
</svg>
