<svg  viewBox="0 0 24 24" fill="none" xmlns="http://www.w3.org/2000/svg" id="__THIS_ID_NEEDS_FOR_UI_ICON_COMPONENT__">
<path d="M18.7501 7.49977V20.9998C18.7501 21.1987 18.6711 21.3895 18.5304 21.5301C18.3898 21.6708 18.199 21.7498 18.0001 21.7498C17.8012 21.7498 17.6104 21.6708 17.4698 21.5301C17.3291 21.3895 17.2501 21.1987 17.2501 20.9998V8.24977H6.31074L9.53047 11.4695C9.67112 11.6101 9.75013 11.8009 9.75012 11.9998C9.75011 12.1987 9.67109 12.3895 9.53042 12.5301C9.38976 12.6708 9.19899 12.7498 9.00007 12.7498C8.80116 12.7498 8.61039 12.6708 8.46974 12.5301L3.96974 8.03009C3.96782 8.02817 3.96622 8.02604 3.96434 8.02409C3.949 8.00844 3.93417 7.99228 3.92026 7.97532C3.91247 7.96589 3.9057 7.95596 3.89851 7.94625C3.89114 7.93634 3.88345 7.92669 3.87654 7.9164C3.86899 7.9051 3.86239 7.89336 3.85548 7.88173C3.8499 7.87234 3.84404 7.86321 3.83887 7.85358C3.8325 7.84176 3.82715 7.82963 3.82152 7.81758C3.81676 7.80741 3.81163 7.79746 3.80733 7.78704C3.80252 7.77536 3.79858 7.76342 3.79433 7.75157C3.79034 7.74033 3.78599 7.72925 3.78251 7.71776C3.7789 7.70579 3.7762 7.69361 3.77322 7.68151C3.77029 7.66988 3.76704 7.65842 3.76466 7.64659C3.76187 7.63245 3.76017 7.61815 3.75816 7.60389C3.75679 7.59391 3.75486 7.58412 3.75386 7.57402C3.74896 7.52464 3.74896 7.4749 3.75386 7.42552C3.75486 7.41543 3.75679 7.40563 3.75816 7.39565C3.76017 7.38139 3.76187 7.3671 3.76466 7.35296C3.76704 7.34112 3.77029 7.32967 3.77322 7.31804C3.7762 7.30593 3.7789 7.29376 3.78251 7.28179C3.78599 7.2703 3.79034 7.25922 3.79433 7.24798C3.79858 7.23612 3.80252 7.22419 3.80733 7.2125C3.81163 7.20209 3.81676 7.19213 3.82152 7.18197C3.82715 7.16991 3.8325 7.15778 3.83887 7.14597C3.84404 7.13633 3.8499 7.1272 3.85548 7.11782C3.86239 7.10619 3.86899 7.09445 3.87654 7.08314C3.88345 7.07285 3.89114 7.06321 3.89851 7.0533C3.9057 7.04359 3.91247 7.03366 3.92026 7.02423C3.93417 7.00727 3.949 6.99111 3.96434 6.97545C3.96621 6.97351 3.96782 6.97138 3.96974 6.96945L8.46974 2.46945C8.61039 2.32879 8.80116 2.24976 9.00007 2.24976C9.19899 2.24975 9.38976 2.32876 9.53042 2.46941C9.67109 2.61006 9.75011 2.80082 9.75012 2.99974C9.75013 3.19866 9.67112 3.38943 9.53047 3.53009L6.31074 6.74977H18.0001C18.199 6.74978 18.3898 6.82879 18.5304 6.96945C18.6711 7.1101 18.7501 7.30086 18.7501 7.49977Z" fill="#1D1F21" style="fill: var(--ui-icon-primary-color);"/>
</svg>
