<svg  viewBox="0 0 24 24" fill="none" xmlns="http://www.w3.org/2000/svg" id="__THIS_ID_NEEDS_FOR_UI_ICON_COMPONENT__">
<path d="M19.5 3H4.5C4.10231 3.00045 3.72105 3.15864 3.43984 3.43984C3.15864 3.72105 3.00045 4.10231 3 4.5V19.5C3.00045 19.8977 3.15864 20.279 3.43984 20.5602C3.72105 20.8414 4.10231 20.9995 4.5 21H19.5C19.8977 20.9995 20.279 20.8414 20.5602 20.5602C20.8414 20.279 20.9995 19.8977 21 19.5V4.5C20.9995 4.10231 20.8414 3.72105 20.5602 3.43984C20.279 3.15864 19.8977 3.00045 19.5 3ZM19.5 19.5L4.50005 19.5009L4.5 19.5V4.5H19.5V19.5ZM7.71968 12.5304C7.65003 12.4607 7.59478 12.378 7.55708 12.287C7.51939 12.196 7.49999 12.0985 7.49999 12C7.49999 11.9015 7.51939 11.804 7.55708 11.713C7.59478 11.622 7.65003 11.5393 7.71968 11.4696L10.9016 8.28763C11.0423 8.14698 11.2331 8.06797 11.432 8.06798C11.6309 8.06798 11.8217 8.14701 11.9623 8.28767C12.103 8.42834 12.182 8.61911 12.182 8.81803C12.182 9.01694 12.1029 9.20771 11.9623 9.34836L10.0606 11.25H15.75C15.9489 11.25 16.1397 11.329 16.2803 11.4697C16.421 11.6103 16.5 11.8011 16.5 12C16.5 12.1989 16.421 12.3897 16.2803 12.5303C16.1397 12.671 15.9489 12.75 15.75 12.75H10.0606L11.9623 14.6516C12.1029 14.7923 12.182 14.9831 12.182 15.182C12.182 15.3809 12.103 15.5717 11.9623 15.7123C11.8217 15.853 11.6309 15.932 11.432 15.932C11.2331 15.932 11.0423 15.853 10.9016 15.7124L7.71968 12.5304Z" fill="#1D1F21" style="fill: var(--ui-icon-primary-color);"/>
</svg>
