<svg  viewBox="0 0 24 24" fill="none" xmlns="http://www.w3.org/2000/svg" id="__THIS_ID_NEEDS_FOR_UI_ICON_COMPONENT__">
<path d="M20.0358 17.0243C20.0339 17.0263 20.0323 17.0284 20.0304 17.0303L15.5304 21.5303C15.3897 21.671 15.199 21.75 15 21.75C14.8011 21.75 14.6103 21.671 14.4697 21.5304C14.329 21.3897 14.25 21.199 14.25 21C14.25 20.8011 14.329 20.6103 14.4696 20.4697L17.6894 17.25H6C5.80109 17.25 5.61032 17.171 5.46967 17.0303C5.32902 16.8897 5.25 16.6989 5.25 16.5V3C5.25 2.80109 5.32902 2.61032 5.46967 2.46967C5.61032 2.32902 5.80109 2.25 6 2.25C6.19891 2.25 6.38968 2.32902 6.53033 2.46967C6.67098 2.61032 6.75 2.80109 6.75 3V15.75H17.6894L14.4696 12.5303C14.4 12.4607 14.3448 12.378 14.3071 12.287C14.2694 12.196 14.25 12.0985 14.25 12C14.25 11.9015 14.2694 11.8039 14.3071 11.7129C14.3448 11.622 14.4 11.5393 14.4697 11.4696C14.5393 11.4 14.622 11.3447 14.713 11.3071C14.804 11.2694 14.9015 11.25 15 11.25C15.0985 11.25 15.1961 11.2694 15.2871 11.3071C15.378 11.3448 15.4607 11.4 15.5304 11.4697L20.0304 15.9697C20.0323 15.9716 20.0339 15.9737 20.0358 15.9757C20.0511 15.9913 20.0659 16.0075 20.0799 16.0245C20.0876 16.0339 20.0944 16.0438 20.1016 16.0535C20.109 16.0634 20.1167 16.0731 20.1235 16.0834C20.1311 16.0947 20.1377 16.1064 20.1446 16.118C20.1502 16.1274 20.1561 16.1366 20.1613 16.1462C20.1676 16.158 20.1729 16.1701 20.1786 16.1822C20.1834 16.1924 20.1885 16.2023 20.1928 16.2127C20.1976 16.2244 20.2015 16.2363 20.2058 16.2482C20.2098 16.2594 20.2141 16.2705 20.2176 16.282C20.2212 16.294 20.2239 16.3062 20.2269 16.3183C20.2298 16.3299 20.2331 16.3413 20.2354 16.3532C20.2382 16.3673 20.24 16.3816 20.2419 16.3959C20.2433 16.4059 20.2453 16.4157 20.2463 16.4257C20.2511 16.4751 20.2511 16.5249 20.2463 16.5742C20.2453 16.5843 20.2433 16.5941 20.2419 16.6041C20.24 16.6184 20.2382 16.6327 20.2354 16.6468C20.2331 16.6587 20.2298 16.6701 20.2269 16.6817C20.2239 16.6938 20.2212 16.706 20.2176 16.718C20.2141 16.7295 20.2098 16.7406 20.2058 16.7518C20.2015 16.7636 20.1976 16.7756 20.1928 16.7873C20.1885 16.7977 20.1834 16.8076 20.1786 16.8178C20.1729 16.8299 20.1676 16.842 20.1613 16.8538C20.1561 16.8634 20.1502 16.8726 20.1446 16.882C20.1377 16.8936 20.1311 16.9053 20.1235 16.9166C20.1167 16.9269 20.109 16.9366 20.1016 16.9465C20.0944 16.9562 20.0876 16.9661 20.0799 16.9755C20.0659 16.9925 20.0511 17.0087 20.0358 17.0243Z" fill="#1D1F21" style="fill: var(--ui-icon-primary-color);"/>
</svg>
