<svg  viewBox="0 0 24 24" fill="none" xmlns="http://www.w3.org/2000/svg" id="__THIS_ID_NEEDS_FOR_UI_ICON_COMPONENT__">
<path d="M18.5303 6.53014L7.81069 17.2498H15.75C15.9489 17.2498 16.1397 17.3288 16.2803 17.4694C16.421 17.6101 16.5 17.8009 16.5 17.9998C16.5 18.1987 16.421 18.3895 16.2803 18.5301C16.1397 18.6708 15.9489 18.7498 15.75 18.7498H6C5.80109 18.7498 5.61032 18.6708 5.46967 18.5301C5.32902 18.3894 5.25 18.1987 5.25 17.9998V8.24977C5.25 8.05086 5.32902 7.8601 5.46967 7.71944C5.61032 7.57879 5.80109 7.49977 6 7.49977C6.19891 7.49977 6.38968 7.57879 6.53033 7.71944C6.67098 7.8601 6.75 8.05086 6.75 8.24977V16.1891L17.4697 5.46941C17.6103 5.32876 17.8011 5.24975 18 5.24976C18.1989 5.24976 18.3897 5.32879 18.5304 5.46945C18.671 5.61012 18.75 5.80089 18.75 5.99981C18.75 6.19872 18.671 6.38949 18.5303 6.53014Z" fill="#1D1F21" style="fill: var(--ui-icon-primary-color);"/>
</svg>
