<svg  viewBox="0 0 24 24" fill="none" xmlns="http://www.w3.org/2000/svg" id="__THIS_ID_NEEDS_FOR_UI_ICON_COMPONENT__">
<path d="M21.5305 10.7191L12.5305 1.7191C12.3898 1.5785 12.199 1.49951 12.0001 1.49951C11.8012 1.49951 11.6105 1.5785 11.4698 1.7191L2.46981 10.7191C2.36492 10.824 2.29348 10.9576 2.26454 11.1031C2.23559 11.2486 2.25044 11.3994 2.30721 11.5365C2.36397 11.6735 2.4601 11.7906 2.58344 11.8731C2.70678 11.9555 2.85179 11.9995 3.00013 11.9995H6.75013V14.2495C6.75014 14.4484 6.82915 14.6391 6.96981 14.7798C7.11046 14.9204 7.30122 14.9995 7.50013 14.9995H16.5001C16.699 14.9995 16.8898 14.9204 17.0305 14.7798C17.1711 14.6391 17.2501 14.4484 17.2501 14.2495V11.9995H21.0001C21.1485 11.9995 21.2935 11.9555 21.4168 11.8731C21.5402 11.7906 21.6363 11.6735 21.6931 11.5365C21.7498 11.3994 21.7647 11.2486 21.7357 11.1031C21.7068 10.9576 21.6353 10.824 21.5305 10.7191ZM16.5001 10.4995C16.3012 10.4995 16.1105 10.5785 15.9698 10.7191C15.8292 10.8598 15.7501 11.0506 15.7501 11.2495V13.4995H8.25013V11.2495C8.25013 11.0506 8.17111 10.8598 8.03046 10.7191C7.88981 10.5785 7.69905 10.4995 7.50013 10.4995H4.81082L12.0001 3.3101L19.1894 10.4995H16.5001ZM17.2501 20.2495C17.2501 20.4484 17.1711 20.6391 17.0305 20.7798C16.8898 20.9204 16.699 20.9995 16.5001 20.9995H7.50013C7.30122 20.9995 7.11046 20.9204 6.9698 20.7798C6.82915 20.6391 6.75013 20.4484 6.75013 20.2495C6.75013 20.0506 6.82915 19.8598 6.9698 19.7191C7.11046 19.5785 7.30122 19.4995 7.50013 19.4995H16.5001C16.699 19.4995 16.8898 19.5785 17.0305 19.7191C17.1711 19.8598 17.2501 20.0506 17.2501 20.2495ZM17.2501 17.2495C17.2501 17.4484 17.1711 17.6391 17.0305 17.7798C16.8898 17.9204 16.699 17.9995 16.5001 17.9995H7.50013C7.30122 17.9995 7.11046 17.9204 6.9698 17.7798C6.82915 17.6391 6.75013 17.4484 6.75013 17.2495C6.75013 17.0506 6.82915 16.8598 6.9698 16.7191C7.11046 16.5785 7.30122 16.4995 7.50013 16.4995H16.5001C16.699 16.4995 16.8898 16.5785 17.0305 16.7191C17.1711 16.8598 17.2501 17.0506 17.2501 17.2495Z" fill="#1D1F21" style="fill: var(--ui-icon-primary-color);"/>
</svg>
