<svg  viewBox="0 0 24 24" fill="none" xmlns="http://www.w3.org/2000/svg" id="__THIS_ID_NEEDS_FOR_UI_ICON_COMPONENT__">
<path d="M22.5004 12C22.5004 12.1989 22.4213 12.3897 22.2807 12.5303C22.14 12.671 21.9493 12.75 21.7504 12.75H8.561L14.0307 18.2197C14.1713 18.3603 14.2503 18.5511 14.2503 18.75C14.2503 18.9489 14.1713 19.1397 14.0307 19.2803C13.89 19.421 13.6992 19.5 13.5003 19.5C13.3014 19.5 13.1106 19.421 12.97 19.2803L6.22 12.5303C6.07935 12.3897 6.00034 12.1989 6.00034 12C6.00034 11.8011 6.07935 11.6103 6.22 11.4697L12.97 4.71968C13.1106 4.57902 13.3014 4.5 13.5003 4.5C13.6992 4.49999 13.89 4.57901 14.0307 4.71966C14.1713 4.86031 14.2503 5.05107 14.2503 5.24998C14.2503 5.4489 14.1713 5.63966 14.0307 5.78032L8.561 11.25H21.7504C21.9493 11.25 22.14 11.329 22.2807 11.4697C22.4213 11.6103 22.5004 11.8011 22.5004 12ZM3.75037 3.75C3.65187 3.75 3.55435 3.76939 3.46335 3.80708C3.37235 3.84477 3.28967 3.90002 3.22003 3.96966C3.15039 4.03931 3.09514 4.12199 3.05745 4.21298C3.01976 4.30398 3.00036 4.40151 3.00037 4.5V19.5C3.00037 19.6989 3.07938 19.8897 3.22004 20.0303C3.36069 20.171 3.55145 20.25 3.75037 20.25C3.94928 20.25 4.14004 20.171 4.2807 20.0303C4.42135 19.8897 4.50037 19.6989 4.50037 19.5V4.5C4.50036 4.30109 4.42135 4.11032 4.28069 3.96967C4.14004 3.82902 3.94928 3.75 3.75037 3.75Z" fill="#1D1F21" style="fill: var(--ui-icon-primary-color);"/>
</svg>
