<svg  viewBox="0 0 24 24" fill="none" xmlns="http://www.w3.org/2000/svg" id="__THIS_ID_NEEDS_FOR_UI_ICON_COMPONENT__">
<path d="M11.9999 2.25C10.0716 2.25 8.18651 2.82183 6.58313 3.89317C4.97975 4.96451 3.73007 6.48726 2.99212 8.26884C2.25416 10.0504 2.06108 12.0108 2.43729 13.9021C2.81349 15.7934 3.74209 17.5307 5.10565 18.8943C6.46921 20.2579 8.2065 21.1865 10.0978 21.5627C11.9891 21.9389 13.9495 21.7458 15.7311 21.0078C17.5127 20.2699 19.0354 19.0202 20.1068 17.4168C21.1781 15.8134 21.7499 13.9284 21.7499 12C21.747 9.41504 20.7188 6.93679 18.891 5.10894C17.0632 3.28109 14.5849 2.25293 11.9999 2.25ZM11.9999 20.25C10.3682 20.25 8.77319 19.7661 7.41649 18.8596C6.05978 17.9531 5.00236 16.6646 4.37794 15.1571C3.75351 13.6496 3.59014 11.9908 3.90846 10.3905C4.22679 8.79016 5.01253 7.32015 6.16631 6.16637C7.3201 5.01259 8.7901 4.22685 10.3904 3.90852C11.9908 3.59019 13.6496 3.75357 15.1571 4.37799C16.6646 5.00242 17.953 6.05984 18.8596 7.41655C19.7661 8.77325 20.2499 10.3683 20.2499 12C20.2475 14.1873 19.3775 16.2843 17.8308 17.8309C16.2842 19.3775 14.1872 20.2475 11.9999 20.25ZM15.3749 9.375V13.875C15.3749 14.0739 15.2959 14.2647 15.1553 14.4053C15.0146 14.546 14.8239 14.625 14.6249 14.625C14.426 14.625 14.2353 14.546 14.0946 14.4053C13.954 14.2647 13.8749 14.0739 13.8749 13.875V11.1856L9.90526 15.1553C9.76458 15.2958 9.57387 15.3747 9.37504 15.3747C9.17621 15.3746 8.98555 15.2956 8.84496 15.155C8.70436 15.0144 8.62535 14.8237 8.62529 14.6249C8.62523 14.4261 8.70412 14.2354 8.84462 14.0947L12.8143 10.125H10.1249C9.92603 10.125 9.73527 10.046 9.59461 9.90533C9.45396 9.76468 9.37494 9.57391 9.37494 9.375C9.37494 9.17609 9.45396 8.98532 9.59461 8.84467C9.73527 8.70402 9.92603 8.625 10.1249 8.625H14.6249C14.7234 8.625 14.821 8.64439 14.912 8.68208C15.003 8.71977 15.0856 8.77502 15.1553 8.84466C15.2249 8.91431 15.2802 8.99699 15.3179 9.08798C15.3555 9.17898 15.3749 9.27651 15.3749 9.375Z" fill="#1D1F21" style="fill: var(--ui-icon-primary-color);"/>
</svg>
