<svg  viewBox="0 0 24 24" fill="none" xmlns="http://www.w3.org/2000/svg" id="__THIS_ID_NEEDS_FOR_UI_ICON_COMPONENT__">
<path d="M11.9999 2.25C10.0716 2.25 8.18651 2.82183 6.58313 3.89317C4.97975 4.96451 3.73007 6.48726 2.99212 8.26884C2.25416 10.0504 2.06108 12.0108 2.43729 13.9021C2.81349 15.7934 3.74209 17.5307 5.10565 18.8943C6.46921 20.2579 8.2065 21.1865 10.0978 21.5627C11.9891 21.9389 13.9495 21.7458 15.7311 21.0078C17.5127 20.2699 19.0354 19.0202 20.1068 17.4168C21.1781 15.8134 21.7499 13.9284 21.7499 12C21.747 9.41504 20.7188 6.93679 18.891 5.10894C17.0632 3.28109 14.5849 2.25293 11.9999 2.25ZM11.9999 20.25C10.3682 20.25 8.77319 19.7661 7.41649 18.8596C6.05978 17.9531 5.00236 16.6646 4.37794 15.1571C3.75351 13.6496 3.59014 11.9908 3.90846 10.3905C4.22679 8.79016 5.01253 7.32015 6.16631 6.16637C7.3201 5.01259 8.7901 4.22685 10.3904 3.90852C11.9908 3.59019 13.6496 3.75357 15.1571 4.37799C16.6646 5.00242 17.953 6.05984 18.8596 7.41655C19.7661 8.77325 20.2499 10.3683 20.2499 12C20.2475 14.1873 19.3775 16.2843 17.8308 17.8309C16.2842 19.3775 14.1872 20.2475 11.9999 20.25ZM15.7123 12.0377C15.8529 12.1783 15.9319 12.3691 15.9319 12.568C15.9319 12.7669 15.8529 12.9577 15.7123 13.0984L12.5303 16.2803C12.4606 16.35 12.3779 16.4052 12.287 16.4429C12.196 16.4806 12.0984 16.5 11.9999 16.5C11.9015 16.5 11.8039 16.4806 11.7129 16.4429C11.6219 16.4052 11.5393 16.35 11.4696 16.2803L8.28762 13.0984C8.21797 13.0287 8.16273 12.946 8.12503 12.855C8.08734 12.764 8.06794 12.6665 8.06794 12.568C8.06794 12.4695 8.08734 12.372 8.12503 12.281C8.16273 12.19 8.21797 12.1073 8.28762 12.0377C8.42827 11.897 8.61904 11.818 8.81796 11.818C8.91646 11.818 9.01398 11.8374 9.10498 11.8751C9.19598 11.9128 9.27866 11.968 9.3483 12.0377L11.2499 13.9394V8.25C11.2499 8.05109 11.329 7.86032 11.4696 7.71967C11.6103 7.57902 11.801 7.5 11.9999 7.5C12.1989 7.5 12.3896 7.57902 12.5303 7.71967C12.6709 7.86032 12.7499 8.05109 12.7499 8.25V13.9394L14.6516 12.0377C14.7922 11.897 14.983 11.818 15.1819 11.818C15.3808 11.818 15.5716 11.897 15.7123 12.0377Z" fill="#1D1F21" style="fill: var(--ui-icon-primary-color);"/>
</svg>
