<svg  viewBox="0 0 24 24" fill="none" xmlns="http://www.w3.org/2000/svg" id="__THIS_ID_NEEDS_FOR_UI_ICON_COMPONENT__">
<path d="M21.693 12.463C21.6363 12.3259 21.5402 12.2088 21.4168 12.1264C21.2935 12.044 21.1485 12 21.0002 12H17.2502V6.75C17.2502 6.55109 17.1711 6.36033 17.0305 6.21968C16.8898 6.07903 16.6991 6.00001 16.5002 6H7.50017C7.30126 6.00001 7.1105 6.07903 6.96985 6.21968C6.8292 6.36033 6.75018 6.55109 6.75017 6.75V12H3.00017C2.85183 12 2.70684 12.044 2.58351 12.1264C2.46017 12.2088 2.36405 12.326 2.30728 12.463C2.25052 12.6001 2.23566 12.7509 2.26459 12.8963C2.29351 13.0418 2.36493 13.1755 2.4698 13.2804L11.4698 22.2804C11.6105 22.421 11.8013 22.5 12.0002 22.5C12.1991 22.5 12.3899 22.421 12.5305 22.2804L21.5305 13.2804C21.6354 13.1755 21.7068 13.0418 21.7357 12.8963C21.7647 12.7508 21.7498 12.6 21.693 12.463ZM12.0002 20.6894L4.81081 13.5H7.50017C7.69908 13.5 7.88984 13.421 8.03049 13.2803C8.17114 13.1397 8.25016 12.9489 8.25017 12.75V7.5H15.7502V12.75C15.7502 12.9489 15.8292 13.1397 15.9698 13.2803C16.1105 13.421 16.3013 13.5 16.5002 13.5H19.1895L12.0002 20.6894ZM6.75017 3.75C6.75018 3.55109 6.8292 3.36033 6.96985 3.21968C7.1105 3.07903 7.30126 3.00001 7.50017 3H16.5002C16.6991 3 16.8898 3.07902 17.0305 3.21967C17.1712 3.36032 17.2502 3.55109 17.2502 3.75C17.2502 3.94891 17.1712 4.13968 17.0305 4.28033C16.8898 4.42098 16.6991 4.5 16.5002 4.5H7.50017C7.30126 4.49999 7.1105 4.42097 6.96985 4.28032C6.8292 4.13967 6.75018 3.94891 6.75017 3.75Z" fill="#1D1F21" style="fill: var(--ui-icon-primary-color);"/>
</svg>
