<svg  viewBox="0 0 24 24" fill="none" xmlns="http://www.w3.org/2000/svg" id="__THIS_ID_NEEDS_FOR_UI_ICON_COMPONENT__">
<path d="M17.0303 7.71964C17.1 7.78928 17.1552 7.87197 17.1929 7.96297C17.2306 8.05397 17.25 8.1515 17.25 8.25C17.25 8.3485 17.2306 8.44603 17.1929 8.53703C17.1552 8.62803 17.1 8.71072 17.0303 8.78036L7.81069 18H15C15.1989 18 15.3897 18.079 15.5303 18.2197C15.671 18.3603 15.75 18.5511 15.75 18.75C15.75 18.9489 15.671 19.1397 15.5303 19.2803C15.3897 19.421 15.1989 19.5 15 19.5H6C5.80109 19.5 5.61032 19.421 5.46967 19.2803C5.32902 19.1397 5.25 18.9489 5.25 18.75V9.75C5.25 9.55109 5.32902 9.36032 5.46967 9.21967C5.61032 9.07902 5.80109 9 6 9C6.19891 9 6.38968 9.07902 6.53033 9.21967C6.67098 9.36032 6.75 9.55109 6.75 9.75V16.9393L15.9697 7.71964C16.1104 7.57903 16.3011 7.50005 16.5 7.50005C16.6989 7.50005 16.8896 7.57903 17.0303 7.71964ZM19.5 3H4.5C4.30109 3 4.11032 3.07902 3.96967 3.21967C3.82902 3.36032 3.75 3.55109 3.75 3.75C3.75 3.94891 3.82902 4.13968 3.96967 4.28033C4.11032 4.42098 4.30109 4.5 4.5 4.5H19.5C19.6989 4.5 19.8897 4.42098 20.0303 4.28033C20.171 4.13968 20.25 3.94891 20.25 3.75C20.25 3.55109 20.171 3.36032 20.0303 3.21967C19.8897 3.07902 19.6989 3 19.5 3Z" fill="#1D1F21" style="fill: var(--ui-icon-primary-color);"/>
</svg>
