<svg  viewBox="0 0 24 24" fill="none" xmlns="http://www.w3.org/2000/svg" id="__THIS_ID_NEEDS_FOR_UI_ICON_COMPONENT__">
<path d="M21.75 17.2499C21.75 17.4488 21.671 17.6396 21.5304 17.7802C21.3897 17.9209 21.1989 17.9999 21 17.9999C20.8011 17.9999 20.6103 17.9209 20.4697 17.7802C20.329 17.6396 20.25 17.4488 20.25 17.2499C20.25 15.6182 19.7662 14.0232 18.8597 12.6664C17.9532 11.3097 16.6647 10.2523 15.1572 9.62789C13.6497 9.00347 11.9909 8.8401 10.3906 9.15845C8.79023 9.47679 7.32023 10.2625 6.16647 11.4164L4.44683 13.136H8.6361C8.83502 13.136 9.02578 13.215 9.16643 13.3557C9.30709 13.4963 9.3861 13.6871 9.3861 13.886C9.3861 14.0849 9.30709 14.2757 9.16643 14.4163C9.02578 14.557 8.83502 14.636 8.6361 14.636H2.6361C2.6305 14.636 2.62509 14.6353 2.61952 14.6352C2.60052 14.6348 2.58152 14.6341 2.56259 14.6323C2.54951 14.631 2.53679 14.6286 2.52392 14.6267C2.51261 14.625 2.50126 14.6237 2.49002 14.6215C2.47633 14.6188 2.46304 14.6151 2.44963 14.6117C2.43932 14.609 2.42894 14.6068 2.41874 14.6037C2.40602 14.5999 2.39374 14.5952 2.38133 14.5906C2.37062 14.5868 2.35983 14.5833 2.34927 14.5789C2.33805 14.5742 2.32728 14.5688 2.31634 14.5636C2.30504 14.5583 2.29364 14.5533 2.28255 14.5474C2.27252 14.542 2.26298 14.5358 2.25322 14.53C2.24192 14.5233 2.23049 14.5169 2.21948 14.5096C2.20945 14.5028 2.20004 14.4953 2.19036 14.4881C2.18035 14.4807 2.17013 14.4737 2.16041 14.4657C2.14683 14.4546 2.13407 14.4425 2.12131 14.4304C2.1162 14.4256 2.11075 14.4213 2.10574 14.4163C2.10045 14.411 2.09597 14.4053 2.09087 14.3999C2.07912 14.3874 2.06732 14.375 2.05644 14.3618C2.0479 14.3514 2.04039 14.3405 2.03249 14.3297C2.02589 14.3208 2.01893 14.3121 2.01272 14.3029C2.00477 14.291 1.99782 14.2787 1.99062 14.2665C1.98539 14.2576 1.97982 14.249 1.97494 14.2399C1.96846 14.2278 1.96293 14.2154 1.95716 14.203C1.95253 14.1931 1.94759 14.1834 1.94338 14.1734C1.93847 14.1615 1.93447 14.1494 1.93019 14.1373C1.92624 14.1262 1.92198 14.1153 1.91854 14.104C1.91488 14.0919 1.91217 14.0797 1.90914 14.0674C1.90626 14.0559 1.90301 14.0445 1.90068 14.0328C1.89786 14.0186 1.89614 14.0043 1.89414 13.9899C1.89277 13.98 1.89085 13.9703 1.88986 13.9602C1.8874 13.9354 1.88609 13.9104 1.88611 13.8855V7.88599C1.88611 7.68707 1.96513 7.49631 2.10578 7.35566C2.24643 7.215 2.4372 7.13599 2.63611 7.13599C2.83502 7.13599 3.02579 7.215 3.16644 7.35566C3.30709 7.49631 3.38611 7.68707 3.38611 7.88599V12.0753L5.10574 10.3556C6.46931 8.99206 8.20659 8.06347 10.0979 7.68727C11.9892 7.31106 13.9496 7.50414 15.7312 8.2421C17.5128 8.98005 19.0355 10.2297 20.1068 11.8331C21.1782 13.4365 21.75 15.3215 21.75 17.2499Z" fill="#1D1F21" style="fill: var(--ui-icon-primary-color);"/>
</svg>
