<svg  viewBox="0 0 24 24" fill="none" xmlns="http://www.w3.org/2000/svg" id="__THIS_ID_NEEDS_FOR_UI_ICON_COMPONENT__">
<path d="M21.5452 14.7639C21.5401 14.7693 21.5357 14.7751 21.5304 14.7804L17.0304 19.2804C16.8897 19.421 16.6989 19.5 16.5 19.5C16.3011 19.5 16.1103 19.421 15.9696 19.2804C15.829 19.1397 15.75 18.9489 15.75 18.75C15.75 18.5511 15.829 18.3603 15.9696 18.2196L19.1893 15H12C9.41504 14.9971 6.93679 13.9689 5.10894 12.1411C3.28109 10.3132 2.25293 7.83496 2.25 5.25C2.25 5.05109 2.32902 4.86032 2.46967 4.71967C2.61032 4.57902 2.80109 4.5 3 4.5C3.19891 4.5 3.38968 4.57902 3.53033 4.71967C3.67098 4.86032 3.75 5.05109 3.75 5.25C3.75247 7.43728 4.62246 9.53426 6.1691 11.0809C7.71574 12.6275 9.81272 13.4975 12 13.5H19.1893L15.9696 10.2804C15.829 10.1397 15.7499 9.94893 15.75 9.75C15.75 9.55107 15.829 9.3603 15.9696 9.21964C16.1103 9.07897 16.3011 8.99995 16.5 8.99995C16.6989 8.99995 16.8897 9.07897 17.0304 9.21964L21.5304 13.7196C21.5357 13.7249 21.5401 13.7307 21.5452 13.7361C21.557 13.7486 21.5688 13.761 21.5797 13.7742C21.5882 13.7846 21.5957 13.7955 21.6036 13.8062C21.6102 13.8152 21.6172 13.8239 21.6234 13.8331C21.6313 13.845 21.6383 13.8573 21.6455 13.8695C21.6507 13.8783 21.6563 13.8869 21.6612 13.8961C21.6676 13.9081 21.6732 13.9206 21.6789 13.933C21.6836 13.9428 21.6885 13.9525 21.6927 13.9626C21.6976 13.9745 21.7016 13.9866 21.7059 13.9987C21.7099 14.0098 21.7141 14.0207 21.7176 14.032C21.7212 14.0441 21.7239 14.0563 21.727 14.0685C21.7298 14.0801 21.7331 14.0914 21.7354 14.1032C21.7382 14.1174 21.74 14.1317 21.742 14.146C21.7433 14.156 21.7453 14.1657 21.7463 14.1758C21.7511 14.2251 21.7511 14.2749 21.7463 14.3243C21.7453 14.3343 21.7433 14.344 21.742 14.354C21.74 14.3683 21.7382 14.3826 21.7354 14.3969C21.7331 14.4086 21.7298 14.4199 21.727 14.4315C21.7239 14.4437 21.7212 14.456 21.7176 14.468C21.7141 14.4793 21.7099 14.4902 21.7059 14.5013C21.7016 14.5134 21.6976 14.5255 21.6927 14.5374C21.6885 14.5475 21.6836 14.5572 21.6789 14.5671C21.6732 14.5794 21.6676 14.5919 21.6612 14.6039C21.6563 14.6131 21.6507 14.6217 21.6455 14.6305C21.6383 14.6427 21.6313 14.655 21.6234 14.6669C21.6172 14.6761 21.6102 14.6848 21.6036 14.6938C21.5957 14.7045 21.5882 14.7154 21.5797 14.7258C21.5688 14.739 21.557 14.7514 21.5452 14.7639Z" fill="#1D1F21" style="fill: var(--ui-icon-primary-color);"/>
</svg>
