<svg  viewBox="0 0 24 24" fill="none" xmlns="http://www.w3.org/2000/svg" id="__THIS_ID_NEEDS_FOR_UI_ICON_COMPONENT__">
<path d="M21.5304 10.2807L17.0304 14.7807C16.8897 14.9213 16.6989 15.0003 16.5 15.0003C16.3011 15.0003 16.1103 14.9213 15.9696 14.7807C15.829 14.64 15.75 14.4492 15.75 14.2503C15.75 14.0514 15.829 13.8606 15.9696 13.7199L19.9394 9.7503L15.9696 5.78066C15.829 5.64 15.75 5.44923 15.75 5.2503C15.75 5.05137 15.829 4.8606 15.9696 4.71993C16.1103 4.57927 16.3011 4.50025 16.5 4.50025C16.6989 4.50025 16.8897 4.57927 17.0304 4.71993L21.5304 9.21993C21.671 9.3606 21.75 9.55138 21.75 9.7503C21.75 9.94922 21.671 10.14 21.5304 10.2807ZM17.0452 10.2642C17.057 10.2517 17.0688 10.2393 17.0797 10.2261C17.0882 10.2157 17.0957 10.2048 17.1036 10.1941C17.1102 10.1851 17.1172 10.1764 17.1234 10.1672C17.1313 10.1553 17.1383 10.143 17.1455 10.1308C17.1507 10.122 17.1563 10.1134 17.1612 10.1042C17.1676 10.0922 17.1732 10.0797 17.1789 10.0673C17.1836 10.0575 17.1885 10.0478 17.1927 10.0377C17.1976 10.0258 17.2016 10.0137 17.2059 10.0016C17.2099 9.99053 17.2141 9.97964 17.2176 9.96833C17.2212 9.95625 17.2239 9.94398 17.227 9.93176C17.2298 9.92022 17.2331 9.90887 17.2354 9.89715C17.2382 9.88291 17.24 9.86858 17.242 9.85426C17.2433 9.84432 17.2453 9.83462 17.2462 9.82455C17.2511 9.77517 17.2511 9.72543 17.2462 9.67605C17.2453 9.66598 17.2433 9.65627 17.242 9.64634C17.24 9.63201 17.2382 9.61768 17.2354 9.60344C17.2331 9.59173 17.2298 9.58037 17.227 9.56884C17.2239 9.55662 17.2212 9.54435 17.2176 9.53226C17.2141 9.52096 17.2099 9.51006 17.2059 9.49898C17.2016 9.4869 17.1976 9.47481 17.1927 9.46291C17.1885 9.45284 17.1836 9.44313 17.1789 9.43325C17.1732 9.42089 17.1676 9.40844 17.1612 9.39635C17.1563 9.38724 17.1507 9.37863 17.1455 9.3698C17.1383 9.35758 17.1313 9.34526 17.1234 9.33341C17.1172 9.32416 17.1102 9.31546 17.1036 9.30654C17.0957 9.29578 17.0882 9.28488 17.0797 9.27449C17.0688 9.26127 17.057 9.24886 17.0452 9.23641C17.0401 9.23096 17.0357 9.22524 17.0304 9.21993L12.5304 4.71993C12.3897 4.57927 12.1989 4.50024 12 4.50024C11.8011 4.50024 11.6103 4.57927 11.4696 4.71993C11.329 4.86059 11.25 5.05137 11.25 5.25029C11.2499 5.44922 11.329 5.64 11.4696 5.78066L14.6893 9.0003H12C9.41504 9.00323 6.93679 10.0314 5.10894 11.8592C3.28109 13.6871 2.25293 16.1653 2.25 18.7503C2.25 18.9492 2.32902 19.14 2.46967 19.2806C2.61032 19.4213 2.80109 19.5003 3 19.5003C3.19891 19.5003 3.38968 19.4213 3.53033 19.2806C3.67098 19.14 3.75 18.9492 3.75 18.7503C3.75247 16.563 4.62246 14.466 6.1691 12.9194C7.71574 11.3728 9.81272 10.5028 12 10.5003H14.6893L11.4696 13.7199C11.329 13.8606 11.2499 14.0514 11.25 14.2503C11.25 14.4492 11.329 14.64 11.4696 14.7807C11.6103 14.9213 11.8011 15.0003 12 15.0003C12.1989 15.0003 12.3897 14.9213 12.5304 14.7807L17.0304 10.2807C17.0357 10.2754 17.0401 10.2696 17.0452 10.2642Z" fill="#1D1F21" style="fill: var(--ui-icon-primary-color);"/>
</svg>
