<svg  viewBox="0 0 24 24" fill="none" xmlns="http://www.w3.org/2000/svg" id="__THIS_ID_NEEDS_FOR_UI_ICON_COMPONENT__">
<path d="M21.5303 10.7191L12.5303 1.7191C12.3896 1.5785 12.1988 1.49951 11.9999 1.49951C11.801 1.49951 11.6103 1.5785 11.4696 1.7191L2.46956 10.7191C2.36468 10.824 2.29327 10.9576 2.26434 11.1031C2.23541 11.2486 2.25027 11.3994 2.30704 11.5365C2.3638 11.6735 2.45993 11.7906 2.58326 11.873C2.70659 11.9555 2.85159 11.9995 2.99992 11.9995H6.74992V19.4995C6.75038 19.8972 6.90856 20.2784 7.18977 20.5596C7.47097 20.8408 7.85224 20.999 8.24992 20.9995H15.7499C16.1476 20.999 16.5289 20.8408 16.8101 20.5596C17.0913 20.2784 17.2495 19.8972 17.2499 19.4995V11.9995H20.9999C21.1483 11.9995 21.2933 11.9555 21.4166 11.873C21.5399 11.7906 21.636 11.6735 21.6928 11.5365C21.7496 11.3994 21.7644 11.2486 21.7355 11.1031C21.7066 10.9576 21.6352 10.824 21.5303 10.7191ZM16.4999 10.4995C16.301 10.4995 16.1103 10.5785 15.9696 10.7191C15.829 10.8598 15.7499 11.0506 15.7499 11.2495V19.4995H8.24992V11.2495C8.24991 11.0506 8.17089 10.8598 8.03024 10.7191C7.88959 10.5785 7.69883 10.4995 7.49992 10.4995H4.81056L11.9999 3.3101L19.1893 10.4995H16.4999Z" fill="#1D1F21" style="fill: var(--ui-icon-primary-color);"/>
</svg>
