<svg  viewBox="0 0 24 24" fill="none" xmlns="http://www.w3.org/2000/svg" id="__THIS_ID_NEEDS_FOR_UI_ICON_COMPONENT__">
<path d="M18.7501 8.24977V17.9998C18.7501 18.1987 18.671 18.3894 18.5304 18.5301C18.3897 18.6707 18.199 18.7498 18.0001 18.7498H8.25008C8.05117 18.7498 7.8604 18.6708 7.71975 18.5301C7.5791 18.3895 7.50008 18.1987 7.50008 17.9998C7.50008 17.8009 7.5791 17.6101 7.71975 17.4694C7.8604 17.3288 8.05117 17.2498 8.25008 17.2498H16.1894L5.46976 6.53014C5.3291 6.38949 5.25007 6.19872 5.25006 5.99981C5.25005 5.80089 5.32906 5.61012 5.46971 5.46945C5.61036 5.32879 5.80113 5.24976 6.00005 5.24976C6.19896 5.24975 6.38974 5.32876 6.5304 5.46941L17.2501 16.1891V8.24977C17.2501 8.05086 17.3291 7.8601 17.4697 7.71944C17.6104 7.57879 17.8012 7.49977 18.0001 7.49977C18.199 7.49977 18.3898 7.57879 18.5304 7.71944C18.6711 7.8601 18.7501 8.05086 18.7501 8.24977Z" fill="#1D1F21" style="fill: var(--ui-icon-primary-color);"/>
</svg>
