<svg  viewBox="0 0 24 24" fill="none" xmlns="http://www.w3.org/2000/svg" id="__THIS_ID_NEEDS_FOR_UI_ICON_COMPONENT__">
<path d="M21.5303 10.7191L12.5303 1.7191C12.3896 1.5785 12.1988 1.49951 11.9999 1.49951C11.801 1.49951 11.6103 1.5785 11.4696 1.7191L2.46956 10.7191C2.36468 10.824 2.29327 10.9576 2.26434 11.1031C2.23541 11.2486 2.25027 11.3994 2.30704 11.5365C2.3638 11.6735 2.45993 11.7906 2.58326 11.873C2.70659 11.9555 2.85159 11.9995 2.99992 11.9995H6.74992V17.2495C6.74993 17.4484 6.82895 17.6391 6.9696 17.7798C7.11025 17.9204 7.30101 17.9995 7.49992 17.9995H16.4999C16.6988 17.9995 16.8896 17.9204 17.0302 17.7798C17.1709 17.6391 17.2499 17.4484 17.2499 17.2495V11.9995H20.9999C21.1483 11.9995 21.2933 11.9555 21.4166 11.873C21.5399 11.7906 21.636 11.6735 21.6928 11.5365C21.7496 11.3994 21.7644 11.2486 21.7355 11.1031C21.7066 10.9576 21.6352 10.824 21.5303 10.7191ZM16.4999 10.4995C16.301 10.4995 16.1103 10.5785 15.9696 10.7191C15.829 10.8598 15.7499 11.0506 15.7499 11.2495V16.4995H8.24992V11.2495C8.24991 11.0506 8.17089 10.8598 8.03024 10.7191C7.88959 10.5785 7.69883 10.4995 7.49992 10.4995H4.81056L11.9999 3.3101L19.1893 10.4995H16.4999ZM17.2499 20.2495C17.2499 20.4484 17.1709 20.6391 17.0302 20.7798C16.8896 20.9204 16.6988 20.9995 16.4999 20.9995H7.49992C7.30101 20.9995 7.11025 20.9204 6.96959 20.7798C6.82894 20.6391 6.74992 20.4484 6.74992 20.2495C6.74992 20.0506 6.82894 19.8598 6.96959 19.7191C7.11025 19.5785 7.30101 19.4995 7.49992 19.4995H16.4999C16.6988 19.4995 16.8896 19.5785 17.0302 19.7191C17.1709 19.8598 17.2499 20.0506 17.2499 20.2495Z" fill="#1D1F21" style="fill: var(--ui-icon-primary-color);"/>
</svg>
