<svg  viewBox="0 0 24 24" fill="none" xmlns="http://www.w3.org/2000/svg" id="__THIS_ID_NEEDS_FOR_UI_ICON_COMPONENT__">
<path d="M21.6928 12.463C21.636 12.3259 21.5399 12.2088 21.4166 12.1264C21.2932 12.044 21.1483 12 20.9999 12H17.2499V4.5C17.2495 4.10231 17.0913 3.72105 16.8101 3.43984C16.5289 3.15864 16.1476 3.00045 15.7499 3H8.24992C7.85224 3.00045 7.47097 3.15864 7.18977 3.43984C6.90856 3.72105 6.75038 4.10231 6.74992 4.5V12H2.99992C2.85159 12 2.70659 12.044 2.58326 12.1264C2.45993 12.2088 2.3638 12.326 2.30704 12.463C2.25027 12.6001 2.23541 12.7509 2.26434 12.8963C2.29327 13.0418 2.36468 13.1755 2.46956 13.2804L11.4696 22.2804C11.6102 22.421 11.801 22.5 11.9999 22.5C12.1988 22.5 12.3896 22.421 12.5303 22.2804L21.5303 13.2804C21.6352 13.1755 21.7066 13.0418 21.7355 12.8963C21.7644 12.7508 21.7496 12.6 21.6928 12.463ZM11.9999 20.6894L4.81056 13.5H7.49992C7.69883 13.5 7.88959 13.421 8.03024 13.2803C8.17089 13.1397 8.24991 12.9489 8.24992 12.75V4.5H15.7499V12.75C15.7499 12.9489 15.829 13.1397 15.9696 13.2803C16.1103 13.421 16.301 13.5 16.4999 13.5H19.1893L11.9999 20.6894Z" fill="#1D1F21" style="fill: var(--ui-icon-primary-color);"/>
</svg>
