<svg  viewBox="0 0 24 24" fill="none" xmlns="http://www.w3.org/2000/svg" id="__THIS_ID_NEEDS_FOR_UI_ICON_COMPONENT__">
<path d="M19.5 3H4.5C4.10231 3.00045 3.72105 3.15864 3.43984 3.43984C3.15864 3.72105 3.00045 4.10231 3 4.5V19.5C3.00045 19.8977 3.15864 20.279 3.43984 20.5602C3.72105 20.8414 4.10231 20.9995 4.5 21H19.5C19.8977 20.9995 20.279 20.8414 20.5602 20.5602C20.8414 20.279 20.9995 19.8977 21 19.5V4.5C20.9995 4.10231 20.8414 3.72105 20.5602 3.43984C20.279 3.15864 19.8977 3.00045 19.5 3ZM19.5 19.5H4.5V4.5H19.5V19.5ZM8.84468 15.1554C8.77503 15.0857 8.71978 15.003 8.68208 14.912C8.64439 14.821 8.62499 14.7235 8.62499 14.625C8.62499 14.5265 8.64439 14.429 8.68208 14.338C8.71978 14.247 8.77503 14.1643 8.84468 14.0946L12.8143 10.125H10.125C9.92609 10.125 9.73532 10.046 9.59467 9.90533C9.45402 9.76468 9.375 9.57391 9.375 9.375C9.375 9.17609 9.45402 8.98532 9.59467 8.84467C9.73532 8.70402 9.92609 8.625 10.125 8.625H14.625C14.8239 8.625 15.0147 8.70402 15.1553 8.84467C15.296 8.98532 15.375 9.17609 15.375 9.375V13.875C15.375 14.0739 15.296 14.2647 15.1553 14.4053C15.0147 14.546 14.8239 14.625 14.625 14.625C14.4261 14.625 14.2353 14.546 14.0947 14.4053C13.954 14.2647 13.875 14.0739 13.875 13.875V11.1857L9.90532 15.1554C9.76466 15.296 9.5739 15.375 9.375 15.375C9.1761 15.375 8.98534 15.296 8.84468 15.1554V15.1554Z" fill="#1D1F21" style="fill: var(--ui-icon-primary-color);"/>
</svg>
