<svg  viewBox="0 0 24 24" fill="none" xmlns="http://www.w3.org/2000/svg" id="__THIS_ID_NEEDS_FOR_UI_ICON_COMPONENT__">
<path d="M19.5 3H4.5C4.10231 3.00045 3.72105 3.15864 3.43984 3.43984C3.15864 3.72105 3.00045 4.10231 3 4.5V19.5C3.00045 19.8977 3.15864 20.279 3.43984 20.5602C3.72105 20.8414 4.10231 20.9995 4.5 21H19.5C19.8977 20.9995 20.279 20.8414 20.5602 20.5602C20.8414 20.279 20.9995 19.8977 21 19.5V4.5C20.9995 4.10231 20.8414 3.72105 20.5602 3.43984C20.279 3.15864 19.8977 3.00045 19.5 3ZM19.5 19.5H4.5V4.5H19.5V19.5ZM8.625 14.625V10.125C8.625 9.92609 8.70402 9.73532 8.84467 9.59467C8.98532 9.45402 9.17609 9.375 9.375 9.375C9.57391 9.375 9.76468 9.45402 9.90533 9.59467C10.046 9.73532 10.125 9.92609 10.125 10.125V12.8143L14.0947 8.84463C14.1643 8.77499 14.247 8.71975 14.338 8.68206C14.429 8.64437 14.5265 8.62497 14.625 8.62498C14.7235 8.62498 14.8211 8.64439 14.912 8.68208C15.003 8.71978 15.0857 8.77503 15.1554 8.84468C15.225 8.91433 15.2803 8.99701 15.3179 9.08801C15.3556 9.17901 15.375 9.27654 15.375 9.37503C15.375 9.47352 15.3556 9.57105 15.3179 9.66205C15.2802 9.75304 15.225 9.83572 15.1553 9.90536L11.1857 13.875H13.875C14.0739 13.875 14.2647 13.954 14.4053 14.0947C14.546 14.2353 14.625 14.4261 14.625 14.625C14.625 14.8239 14.546 15.0147 14.4053 15.1553C14.2647 15.296 14.0739 15.375 13.875 15.375H9.375C9.17609 15.375 8.98532 15.296 8.84467 15.1553C8.70402 15.0147 8.625 14.8239 8.625 14.625Z" fill="#1D1F21" style="fill: var(--ui-icon-primary-color);"/>
</svg>
