<svg  viewBox="0 0 24 24" fill="none" xmlns="http://www.w3.org/2000/svg" id="__THIS_ID_NEEDS_FOR_UI_ICON_COMPONENT__">
<path d="M19.5 3H4.5C4.10231 3.00045 3.72105 3.15864 3.43984 3.43984C3.15864 3.72105 3.00045 4.10231 3 4.5V19.5C3.00045 19.8977 3.15864 20.279 3.43984 20.5602C3.72105 20.8414 4.10231 20.9995 4.5 21H19.5C19.8977 20.9995 20.279 20.8414 20.5602 20.5602C20.8414 20.279 20.9995 19.8977 21 19.5V4.5C20.9995 4.10231 20.8414 3.72105 20.5602 3.43984C20.279 3.15864 19.8977 3.00045 19.5 3ZM19.5 19.5H4.5V4.5H19.5V19.5ZM8.28772 11.9624C8.21807 11.8927 8.16282 11.81 8.12512 11.719C8.08743 11.628 8.06803 11.5305 8.06803 11.432C8.06803 11.3335 8.08743 11.236 8.12512 11.145C8.16282 11.054 8.21807 10.9713 8.28772 10.9016L11.4697 7.71964C11.6103 7.579 11.8011 7.5 12 7.5C12.1989 7.5 12.3897 7.579 12.5303 7.71964L15.7123 10.9016C15.7819 10.9713 15.8372 11.054 15.8749 11.145C15.9126 11.236 15.932 11.3335 15.932 11.432C15.932 11.5305 15.9126 11.628 15.8749 11.719C15.8372 11.81 15.782 11.8927 15.7123 11.9623C15.6427 12.032 15.56 12.0872 15.469 12.1249C15.378 12.1626 15.2805 12.182 15.182 12.182C15.0835 12.182 14.986 12.1626 14.895 12.1249C14.804 12.0873 14.7213 12.032 14.6516 11.9624L12.75 10.0607V15.75C12.75 15.9489 12.671 16.1397 12.5303 16.2803C12.3897 16.421 12.1989 16.5 12 16.5C11.8011 16.5 11.6103 16.421 11.4697 16.2803C11.329 16.1397 11.25 15.9489 11.25 15.75V10.0607L9.34836 11.9624C9.20768 12.103 9.01693 12.182 8.81804 12.182C8.61915 12.182 8.42839 12.103 8.28772 11.9624Z" fill="#1D1F21" style="fill: var(--ui-icon-primary-color);"/>
</svg>
