<svg  viewBox="0 0 24 24" fill="none" xmlns="http://www.w3.org/2000/svg" id="__THIS_ID_NEEDS_FOR_UI_ICON_COMPONENT__">
<path d="M22.2804 11.4699L13.2804 2.46986C13.1755 2.36499 13.0418 2.29357 12.8963 2.26465C12.7509 2.23572 12.6001 2.25058 12.463 2.30734C12.326 2.36411 12.2088 2.46024 12.1264 2.58357C12.044 2.7069 12 2.8519 12 3.00023V6.75023H4.5C4.10231 6.75068 3.72105 6.90886 3.43984 7.19007C3.15864 7.47128 3.00045 7.85254 3 8.25023V15.7502C3.00045 16.1479 3.15864 16.5292 3.43984 16.8104C3.72105 17.0916 4.10231 17.2498 4.5 17.2502H12V21.0002C12 21.1486 12.044 21.2936 12.1264 21.4169C12.2088 21.5402 12.326 21.6364 12.463 21.6931C12.6001 21.7499 12.7508 21.7648 12.8963 21.7358C13.0418 21.7069 13.1755 21.6355 13.2804 21.5306L22.2804 12.5306C22.421 12.3899 22.5 12.1991 22.5 12.0002C22.5 11.8013 22.421 11.6105 22.2804 11.4699ZM13.5 19.1896V16.5002C13.5 16.3013 13.421 16.1106 13.2803 15.9699C13.1397 15.8293 12.9489 15.7502 12.75 15.7502H4.5V8.25023H12.75C12.9489 8.25022 13.1397 8.1712 13.2803 8.03055C13.421 7.8899 13.5 7.69914 13.5 7.50023V4.81087L20.6894 12.0002L13.5 19.1896Z" fill="#1D1F21" style="fill: var(--ui-icon-primary-color);"/>
</svg>
