<svg  viewBox="0 0 24 24" fill="none" xmlns="http://www.w3.org/2000/svg" id="__THIS_ID_NEEDS_FOR_UI_ICON_COMPONENT__">
<path d="M20.0303 5.03066L16.0607 9.00029H18.75C18.9489 9.00029 19.1396 9.07931 19.2803 9.21996C19.4209 9.36062 19.5 9.55138 19.5 9.75029C19.5 9.94921 19.4209 10.14 19.2803 10.2806C19.1396 10.4213 18.9489 10.5003 18.75 10.5003H14.25C14.2252 10.5003 14.2005 10.499 14.1759 10.4966C14.1649 10.4955 14.1541 10.4934 14.1432 10.4918C14.1299 10.4899 14.1166 10.4884 14.1034 10.4858C14.0909 10.4833 14.0789 10.4799 14.0667 10.4768C14.0551 10.4739 14.0436 10.4714 14.0322 10.4679C14.0203 10.4643 14.0089 10.4599 13.9973 10.4557C13.9857 10.4516 13.9742 10.4478 13.9628 10.4431C13.9522 10.4387 13.942 10.4335 13.9317 10.4287C13.9198 10.4231 13.9078 10.4178 13.8962 10.4116C13.8866 10.4064 13.8775 10.4006 13.8682 10.395C13.8565 10.3881 13.8447 10.3814 13.8332 10.3738C13.8235 10.3673 13.8144 10.36 13.805 10.353C13.7947 10.3454 13.7842 10.3382 13.7743 10.33C13.7608 10.319 13.7481 10.3069 13.7354 10.295C13.7303 10.2901 13.7247 10.2858 13.7196 10.2807C13.7143 10.2754 13.7098 10.2696 13.7047 10.2642C13.693 10.2518 13.6812 10.2393 13.6703 10.2261C13.6617 10.2157 13.6542 10.2048 13.6464 10.1941C13.6398 10.1851 13.6328 10.1765 13.6266 10.1672C13.6186 10.1553 13.6117 10.143 13.6045 10.1308C13.5993 10.122 13.5937 10.1134 13.5888 10.1043C13.5823 10.0922 13.5768 10.0797 13.571 10.0673C13.5664 10.0575 13.5614 10.0478 13.5572 10.0377C13.5523 10.0258 13.5483 10.0137 13.544 10.0016C13.5401 9.99055 13.5358 9.97965 13.5324 9.96833C13.5288 9.95625 13.5261 9.94398 13.523 9.93176C13.5201 9.92022 13.5169 9.90887 13.5145 9.89713C13.5117 9.88293 13.51 9.86858 13.508 9.85428C13.5066 9.84434 13.5047 9.83459 13.5037 9.82455C13.5012 9.79969 13.5 9.77478 13.5 9.74982V5.25029C13.5 5.05138 13.579 4.86062 13.7196 4.71996C13.8603 4.57931 14.0511 4.50029 14.25 4.50029C14.4489 4.50029 14.6396 4.57931 14.7803 4.71996C14.9209 4.86062 15 5.05138 15 5.25029V7.93956L18.9696 3.96993C19.0392 3.90028 19.1219 3.84503 19.2129 3.80734C19.3039 3.76964 19.4015 3.75024 19.5 3.75024C19.5985 3.75024 19.696 3.76964 19.787 3.80734C19.878 3.84503 19.9607 3.90028 20.0303 3.96993C20.1 4.03958 20.1552 4.12226 20.1929 4.21326C20.2306 4.30426 20.25 4.4018 20.25 4.50029C20.25 4.59879 20.2306 4.69633 20.1929 4.78733C20.1552 4.87833 20.1 4.96101 20.0303 5.03066H20.0303ZM10.4962 14.176C10.4952 14.166 10.4933 14.1562 10.4919 14.1463C10.4899 14.132 10.4882 14.1177 10.4854 14.1035C10.4831 14.0917 10.4798 14.0804 10.4769 14.0688C10.4739 14.0566 10.4712 14.0443 10.4675 14.0323C10.4641 14.0209 10.4598 14.01 10.4559 13.999C10.4516 13.9869 10.4476 13.9748 10.4427 13.9629C10.4385 13.9528 10.4335 13.9431 10.4289 13.9332C10.4231 13.9209 10.4176 13.9084 10.4111 13.8963C10.4063 13.8872 10.4007 13.8786 10.3955 13.8698C10.3883 13.8576 10.3813 13.8453 10.3733 13.8334C10.3671 13.8241 10.3602 13.8155 10.3536 13.8065C10.3457 13.7958 10.3382 13.7849 10.3296 13.7745C10.3187 13.7613 10.307 13.7488 10.2952 13.7364C10.2901 13.731 10.2856 13.7252 10.2803 13.7199C10.2753 13.7149 10.2699 13.7107 10.2648 13.7059C10.252 13.6938 10.2392 13.6817 10.2257 13.6706C10.2159 13.6625 10.2056 13.6555 10.1955 13.648C10.1859 13.6409 10.1766 13.6334 10.1666 13.6268C10.1555 13.6194 10.1441 13.6129 10.1327 13.6062C10.1229 13.6004 10.1135 13.5943 10.1035 13.5889C10.0924 13.583 10.081 13.578 10.0697 13.5726C10.0588 13.5675 10.048 13.562 10.0368 13.5574C10.0263 13.553 10.0155 13.5495 10.0048 13.5456C9.9923 13.5411 9.98003 13.5364 9.96731 13.5326C9.95705 13.5295 9.94662 13.5272 9.93627 13.5246C9.92291 13.5212 9.90972 13.5175 9.89613 13.5148C9.88473 13.5125 9.87324 13.5112 9.86175 13.5095C9.84902 13.5076 9.83643 13.5053 9.82348 13.504C9.80453 13.5021 9.78553 13.5015 9.76653 13.5011C9.76099 13.501 9.75554 13.5003 9.74996 13.5003H5.24996C5.05105 13.5003 4.86028 13.5793 4.71963 13.72C4.57898 13.8606 4.49996 14.0514 4.49996 14.2503C4.49996 14.4492 4.57898 14.64 4.71963 14.7806C4.86028 14.9213 5.05105 15.0003 5.24996 15.0003H7.93923L3.96959 18.9699C3.89994 19.0396 3.8447 19.1223 3.807 19.2133C3.76931 19.3043 3.74991 19.4018 3.74991 19.5003C3.74991 19.5988 3.76931 19.6963 3.807 19.7873C3.8447 19.8783 3.89994 19.961 3.96959 20.0307C4.11025 20.1713 4.30103 20.2503 4.49996 20.2503C4.59846 20.2503 4.69599 20.2309 4.78699 20.1932C4.87799 20.1556 4.96068 20.1003 5.03032 20.0307L8.99996 16.061V18.7503C8.99996 18.9492 9.07898 19.14 9.21963 19.2806C9.36028 19.4213 9.55105 19.5003 9.74996 19.5003C9.94887 19.5003 10.1396 19.4213 10.2803 19.2806C10.4209 19.14 10.5 18.9492 10.5 18.7503V14.2508C10.5 14.2258 10.4987 14.2009 10.4962 14.176Z" fill="#1D1F21" style="fill: var(--ui-icon-primary-color);"/>
</svg>
