<svg  viewBox="0 0 24 24" fill="none" xmlns="http://www.w3.org/2000/svg" id="__THIS_ID_NEEDS_FOR_UI_ICON_COMPONENT__">
<path d="M22.2803 11.4699L13.2803 2.46985C13.1754 2.36498 13.0418 2.29357 12.8963 2.26464C12.7508 2.23572 12.6 2.25058 12.463 2.30735C12.326 2.36411 12.2088 2.46024 12.1264 2.58357C12.044 2.70689 12 2.85189 12 3.00022V6.75022H9.75C9.55109 6.75022 9.36032 6.82924 9.21967 6.96989C9.07902 7.11054 9 7.30131 9 7.50022V16.5002C9 16.6991 9.07902 16.8899 9.21967 17.0305C9.36032 17.1712 9.55109 17.2502 9.75 17.2502H12V21.0002C12 21.1486 12.044 21.2936 12.1264 21.4169C12.2088 21.5402 12.3259 21.6364 12.463 21.6931C12.6 21.7499 12.7508 21.7647 12.8963 21.7358C13.0418 21.7069 13.1754 21.6355 13.2803 21.5306L22.2803 12.5306C22.35 12.4609 22.4052 12.3783 22.4429 12.2873C22.4806 12.1963 22.5 12.0987 22.5 12.0002C22.5 11.9017 22.4806 11.8042 22.4429 11.7132C22.4052 11.6222 22.35 11.5395 22.2803 11.4699ZM13.5 19.1896V16.5002C13.5 16.3013 13.421 16.1105 13.2803 15.9699C13.1397 15.8292 12.9489 15.7502 12.75 15.7502H10.5V8.25022H12.75C12.9489 8.25022 13.1397 8.1712 13.2803 8.03055C13.421 7.8899 13.5 7.69913 13.5 7.50022V4.81086L20.6893 12.0002L13.5 19.1896ZM4.5 7.50022V16.5002C4.5 16.6991 4.42098 16.8899 4.28033 17.0306C4.13968 17.1712 3.94891 17.2502 3.75 17.2502C3.55109 17.2502 3.36032 17.1712 3.21967 17.0306C3.07902 16.8899 3 16.6991 3 16.5002V7.50022C3 7.30131 3.07902 7.11054 3.21967 6.96989C3.36032 6.82924 3.55109 6.75022 3.75 6.75022C3.94891 6.75022 4.13968 6.82924 4.28033 6.96989C4.42098 7.11054 4.5 7.30131 4.5 7.50022ZM7.5 7.50022V16.5002C7.5 16.6991 7.42098 16.8899 7.28033 17.0306C7.13968 17.1712 6.94891 17.2502 6.75 17.2502C6.55109 17.2502 6.36032 17.1712 6.21967 17.0306C6.07902 16.8899 6 16.6991 6 16.5002V7.50022C6 7.30131 6.07902 7.11054 6.21967 6.96989C6.36032 6.82924 6.55109 6.75022 6.75 6.75022C6.94891 6.75022 7.13968 6.82924 7.28033 6.96989C7.42098 7.11054 7.5 7.30131 7.5 7.50022Z" fill="#1D1F21" style="fill: var(--ui-icon-primary-color);"/>
</svg>
