<svg  viewBox="0 0 24 24" fill="none" xmlns="http://www.w3.org/2000/svg" id="__THIS_ID_NEEDS_FOR_UI_ICON_COMPONENT__">
<path d="M11.9999 2.25C10.0716 2.25 8.18651 2.82183 6.58313 3.89317C4.97975 4.96451 3.73007 6.48726 2.99212 8.26884C2.25416 10.0504 2.06108 12.0108 2.43729 13.9021C2.81349 15.7934 3.74209 17.5307 5.10565 18.8943C6.46921 20.2579 8.2065 21.1865 10.0978 21.5627C11.9891 21.9389 13.9495 21.7458 15.7311 21.0078C17.5127 20.2699 19.0354 19.0202 20.1068 17.4168C21.1781 15.8134 21.7499 13.9284 21.7499 12C21.747 9.41504 20.7188 6.93679 18.891 5.10894C17.0632 3.28109 14.5849 2.25293 11.9999 2.25ZM11.9999 20.25C10.3682 20.25 8.77319 19.7661 7.41649 18.8596C6.05978 17.9531 5.00236 16.6646 4.37794 15.1571C3.75351 13.6496 3.59014 11.9908 3.90846 10.3905C4.22679 8.79016 5.01253 7.32015 6.16631 6.16637C7.3201 5.01259 8.7901 4.22685 10.3904 3.90852C11.9908 3.59019 13.6496 3.75357 15.1571 4.37799C16.6646 5.00242 17.953 6.05984 18.8596 7.41655C19.7661 8.77325 20.2499 10.3683 20.2499 12C20.2475 14.1873 19.3775 16.2843 17.8308 17.8309C16.2842 19.3775 14.1872 20.2475 11.9999 20.25ZM15.7123 10.9016C15.8529 11.0423 15.9319 11.2331 15.9319 11.432C15.9319 11.6309 15.8529 11.8217 15.7123 11.9623C15.5716 12.103 15.3808 12.182 15.1819 12.182C14.983 12.182 14.7922 12.103 14.6516 11.9623L12.7499 10.0606V15.75C12.7499 15.9489 12.6709 16.1397 12.5303 16.2803C12.3896 16.421 12.1989 16.5 11.9999 16.5C11.801 16.5 11.6103 16.421 11.4696 16.2803C11.329 16.1397 11.2499 15.9489 11.2499 15.75V10.0606L9.3483 11.9623C9.20765 12.103 9.01688 12.182 8.81796 12.182C8.61904 12.182 8.42827 12.103 8.28761 11.9623C8.14696 11.8217 8.06794 11.6309 8.06794 11.432C8.06794 11.2331 8.14696 11.0423 8.28761 10.9016L11.4696 7.71968C11.5393 7.65003 11.6219 7.59478 11.7129 7.55709C11.8039 7.5194 11.9014 7.5 11.9999 7.5C12.0984 7.5 12.196 7.5194 12.2869 7.55709C12.3779 7.59478 12.4606 7.65003 12.5303 7.71968L15.7123 10.9016Z" fill="#1D1F21" style="fill: var(--ui-icon-primary-color);"/>
</svg>
