<svg  viewBox="0 0 24 24" fill="none" xmlns="http://www.w3.org/2000/svg" id="__THIS_ID_NEEDS_FOR_UI_ICON_COMPONENT__">
<path d="M19.5 3H4.5C4.10231 3.00045 3.72105 3.15864 3.43984 3.43984C3.15864 3.72105 3.00045 4.10231 3 4.5V19.5C3.00045 19.8977 3.15864 20.279 3.43984 20.5602C3.72105 20.8414 4.10231 20.9995 4.5 21H19.5C19.8977 20.9995 20.279 20.8414 20.5602 20.5602C20.8414 20.279 20.9995 19.8977 21 19.5V4.5C20.9995 4.10231 20.8414 3.72105 20.5602 3.43984C20.279 3.15864 19.8977 3.00045 19.5 3ZM19.5 19.5L4.50005 19.5009L4.5 19.5V4.5H19.5V19.5ZM8.84468 9.90536C8.70402 9.76472 8.62499 9.57395 8.62498 9.37503C8.62497 9.17612 8.70399 8.98534 8.84464 8.84468C8.98528 8.70402 9.17605 8.62499 9.37497 8.62498C9.57388 8.62497 9.76466 8.70399 9.90532 8.84464L13.875 12.8143V10.125C13.875 9.92609 13.954 9.73532 14.0947 9.59467C14.2353 9.45402 14.4261 9.375 14.625 9.375C14.8239 9.375 15.0147 9.45402 15.1553 9.59467C15.296 9.73532 15.375 9.92609 15.375 10.125V14.625C15.375 14.8239 15.296 15.0147 15.1553 15.1553C15.0147 15.296 14.8239 15.375 14.625 15.375H10.125C9.92609 15.375 9.73532 15.296 9.59467 15.1553C9.45402 15.0147 9.375 14.8239 9.375 14.625C9.375 14.4261 9.45402 14.2353 9.59467 14.0947C9.73532 13.954 9.92609 13.875 10.125 13.875H12.8143L8.84468 9.90536Z" fill="#1D1F21" style="fill: var(--ui-icon-primary-color);"/>
</svg>
