<svg  viewBox="0 0 24 24" fill="none" xmlns="http://www.w3.org/2000/svg" id="__THIS_ID_NEEDS_FOR_UI_ICON_COMPONENT__">
<path d="M21.75 13.5C21.7482 15.0908 21.1155 16.6159 19.9907 17.7407C18.8658 18.8655 17.3407 19.4982 15.75 19.5H7.5C7.30109 19.5 7.11032 19.421 6.96967 19.2804C6.82902 19.1397 6.75 18.949 6.75 18.75C6.75 18.5511 6.82902 18.3604 6.96967 18.2197C7.11032 18.0791 7.30109 18 7.5 18H15.75C16.9435 18 18.0881 17.5259 18.932 16.682C19.7759 15.8381 20.25 14.6935 20.25 13.5C20.25 12.3066 19.7759 11.162 18.932 10.3181C18.0881 9.47415 16.9435 9.00004 15.75 9.00004H4.81065L8.03036 12.2197C8.10001 12.2894 8.15525 12.3721 8.19294 12.4631C8.23063 12.5541 8.25002 12.6516 8.25002 12.7501C8.25001 12.8486 8.23061 12.9461 8.19291 13.0371C8.15522 13.1281 8.09997 13.2108 8.03032 13.2804C7.96067 13.3501 7.87799 13.4053 7.78699 13.443C7.69599 13.4807 7.59846 13.5001 7.49997 13.5001C7.40147 13.5001 7.30395 13.4807 7.21295 13.443C7.12196 13.4053 7.03928 13.35 6.96963 13.2804L2.46963 8.78036C2.4665 8.77725 2.46388 8.77382 2.46082 8.77061C2.44678 8.7561 2.43301 8.74127 2.42018 8.72566C2.41214 8.71587 2.40511 8.70561 2.39765 8.69554C2.39057 8.68598 2.38316 8.67668 2.37653 8.66679C2.36876 8.65521 2.362 8.64317 2.35495 8.63127C2.34955 8.62216 2.34381 8.61328 2.33879 8.60394C2.33239 8.59199 2.32693 8.57968 2.32123 8.56746C2.31653 8.55748 2.31152 8.54764 2.30726 8.53738C2.30238 8.52557 2.29841 8.51353 2.29416 8.50154C2.29018 8.49042 2.28589 8.47943 2.28244 8.46808C2.27879 8.45604 2.2761 8.44382 2.27306 8.43159C2.27018 8.42006 2.26692 8.40861 2.26458 8.39685C2.26176 8.38266 2.26003 8.36833 2.25804 8.35401C2.25666 8.34407 2.25475 8.33437 2.25376 8.3243C2.24887 8.27492 2.24887 8.22518 2.25376 8.1758C2.25475 8.16573 2.25666 8.15602 2.25804 8.14609C2.26003 8.13176 2.26176 8.11743 2.26458 8.10324C2.26692 8.09148 2.27018 8.08003 2.27306 8.0685C2.2761 8.05628 2.27879 8.04405 2.28244 8.03202C2.28589 8.02066 2.29018 8.00968 2.29416 7.99855C2.29841 7.98656 2.30238 7.97452 2.30726 7.96271C2.31152 7.95246 2.31654 7.94261 2.32123 7.93264C2.32693 7.92041 2.33238 7.9081 2.33879 7.89615C2.34381 7.88681 2.34955 7.87793 2.35495 7.86882C2.362 7.85692 2.36876 7.84488 2.37653 7.8333C2.38316 7.82341 2.39057 7.81412 2.39765 7.80455C2.40511 7.79448 2.41214 7.78423 2.42018 7.77443C2.43325 7.7585 2.44725 7.74344 2.46157 7.72866C2.46438 7.72573 2.46677 7.72257 2.46963 7.71973L6.96963 3.21973C7.11037 3.07948 7.301 3.00081 7.49969 3.00098C7.69837 3.00115 7.88887 3.08014 8.02937 3.22063C8.16987 3.36111 8.24888 3.5516 8.24907 3.75029C8.24926 3.94897 8.1706 4.13961 8.03036 4.28036L4.81065 7.50004H15.75C17.3407 7.50183 18.8658 8.13455 19.9907 9.25938C21.1155 10.3842 21.7482 11.9093 21.75 13.5Z" fill="#1D1F21" style="fill: var(--ui-icon-primary-color);"/>
</svg>
