<svg  viewBox="0 0 24 24" fill="none" xmlns="http://www.w3.org/2000/svg" id="__THIS_ID_NEEDS_FOR_UI_ICON_COMPONENT__">
<path d="M20.25 3.74951H6.42462C6.16573 3.75024 5.9114 3.81764 5.68612 3.9452C5.46084 4.07276 5.27221 4.25619 5.1384 4.47781L0.856842 11.6136C0.786929 11.7302 0.75 11.8636 0.75 11.9995C0.75 12.1354 0.786929 12.2688 0.856842 12.3854L5.1383 19.5211C5.27211 19.7428 5.46076 19.9262 5.68606 20.0538C5.91135 20.1814 6.16571 20.2488 6.42462 20.2495H20.25C20.6477 20.2491 21.029 20.0909 21.3102 19.8097C21.5914 19.5285 21.7495 19.1472 21.75 18.7495V5.24951C21.7495 4.85183 21.5914 4.47056 21.3102 4.18935C21.029 3.90815 20.6477 3.74997 20.25 3.74951ZM5.78156 19.1354L6.42462 18.7495L6.4248 18.7498L5.78156 19.1354ZM20.25 18.7495H6.42471L2.3746 11.9995L6.42462 5.24951H20.25V18.7495ZM9.96964 13.7191L11.6893 11.9995L9.96964 10.2799C9.82914 10.1392 9.75027 9.94846 9.75034 9.74963C9.75041 9.5508 9.82943 9.36013 9.97002 9.21953C10.1106 9.07894 10.3013 8.99992 10.5001 8.99985C10.6989 8.99978 10.8897 9.07866 11.0304 9.21915L12.75 10.9388L14.4696 9.21915C14.6103 9.07866 14.8011 8.99978 14.9999 8.99985C15.1987 8.99992 15.3894 9.07894 15.53 9.21953C15.6706 9.36013 15.7496 9.5508 15.7497 9.74963C15.7497 9.94846 15.6709 10.1392 15.5304 10.2799L13.8107 11.9995L15.5304 13.7191C15.6709 13.8598 15.7497 14.0506 15.7497 14.2494C15.7496 14.4482 15.6706 14.6389 15.53 14.7795C15.3894 14.9201 15.1987 14.9991 14.9999 14.9992C14.8011 14.9992 14.6103 14.9204 14.4696 14.7799L12.75 13.0602L11.0304 14.7799C10.9607 14.8496 10.878 14.9049 10.787 14.9427C10.696 14.9805 10.5984 14.9999 10.4999 14.9999C10.4013 15 10.3038 14.9806 10.2127 14.9429C10.1217 14.9052 10.0389 14.8499 9.96925 14.7803C9.89957 14.7106 9.8443 14.6279 9.8066 14.5368C9.76891 14.4458 9.74953 14.3482 9.74956 14.2496C9.7496 14.1511 9.76905 14.0535 9.80681 13.9625C9.84457 13.8715 9.8999 13.7888 9.96964 13.7191Z" fill="#1D1F21" style="fill: var(--ui-icon-primary-color);"/>
</svg>
