<svg  viewBox="0 0 24 24" fill="none" xmlns="http://www.w3.org/2000/svg" id="__THIS_ID_NEEDS_FOR_UI_ICON_COMPONENT__">
<path d="M10.875 12C10.875 11.7775 10.941 11.56 11.0646 11.375C11.1882 11.19 11.3639 11.0458 11.5695 10.9607C11.775 10.8755 12.0012 10.8532 12.2195 10.8966C12.4377 10.94 12.6381 11.0472 12.7955 11.2045C12.9528 11.3619 13.0599 11.5623 13.1034 11.7805C13.1468 11.9988 13.1245 12.225 13.0393 12.4305C12.9542 12.6361 12.81 12.8118 12.625 12.9354C12.44 13.059 12.2225 13.125 12 13.125C11.7016 13.125 11.4155 13.0065 11.2045 12.7955C10.9935 12.5845 10.875 12.2984 10.875 12ZM19.9016 14.5984C20.2498 14.9466 20.5261 15.36 20.7145 15.815C20.903 16.2699 21 16.7576 21 17.25C21 17.7425 20.903 18.2301 20.7145 18.6851C20.5261 19.1401 20.2498 19.5534 19.9016 19.9017C19.5534 20.2499 19.14 20.5261 18.685 20.7146C18.2301 20.903 17.7424 21 17.25 21C16.7575 21 16.2699 20.903 15.8149 20.7146C15.3599 20.5261 14.9466 20.2499 14.5983 19.9017L12 17.3033L9.40162 19.9017C9.05358 20.2507 8.64014 20.5278 8.18495 20.7169C7.72976 20.906 7.24174 21.0036 6.74881 21.004C6.25589 21.0043 5.76772 20.9075 5.31225 20.719C4.85678 20.5306 4.44293 20.2542 4.09438 19.9056C3.74583 19.557 3.46941 19.1432 3.28095 18.6877C3.09248 18.2322 2.99567 17.7441 2.99603 17.2512C2.9964 16.7582 3.09395 16.2702 3.28309 15.815C3.47223 15.3598 3.74926 14.9464 4.09833 14.5984L6.69669 12L4.09833 9.40167C3.75011 9.05345 3.47389 8.64005 3.28544 8.18508C3.09698 7.73011 2.99999 7.24248 2.99999 6.75002C2.99999 6.25757 3.09698 5.76994 3.28544 5.31497C3.47389 4.86 3.75011 4.4466 4.09833 4.09838C4.44655 3.75016 4.85995 3.47394 5.31492 3.28549C5.76989 3.09703 6.25752 3.00004 6.74997 3.00004C7.24243 3.00004 7.73006 3.09703 8.18503 3.28549C8.64 3.47394 9.0534 3.75016 9.40162 4.09838L12 6.69674L14.5983 4.09838C14.9464 3.74931 15.3598 3.47229 15.815 3.28314C16.2702 3.094 16.7582 2.99646 17.2511 2.99609C17.7441 2.99573 18.2322 3.09255 18.6877 3.28102C19.1432 3.46948 19.557 3.7459 19.9056 4.09445C20.2541 4.443 20.5305 4.85685 20.719 5.31233C20.9075 5.7678 21.0043 6.25596 21.0039 6.74889C21.0035 7.24182 20.906 7.72983 20.7169 8.18503C20.5277 8.64022 20.2507 9.05366 19.9016 9.40169L17.3033 12L19.9016 14.5984ZM13.0607 7.75743L16.2426 10.9393L18.8409 8.34103C19.05 8.13213 19.2158 7.8841 19.329 7.61109C19.4422 7.33808 19.5005 7.04545 19.5005 6.74991C19.5006 6.45437 19.4424 6.16171 19.3294 5.88865C19.2163 5.61559 19.0506 5.36748 18.8416 5.1585C18.6326 4.94951 18.3845 4.78375 18.1115 4.67067C17.8384 4.55759 17.5458 4.49941 17.2502 4.49946C16.9547 4.49951 16.662 4.55778 16.389 4.67095C16.116 4.78412 15.868 4.94997 15.6591 5.15902L13.0607 7.75743ZM12 8.81811L8.81806 12L12 15.1819L15.1819 12L12 8.81811ZM7.75738 10.9393L10.9393 7.75743L8.34089 5.15902C7.91893 4.73708 7.34664 4.50005 6.74992 4.50007C6.15319 4.50008 5.58092 4.73714 5.15898 5.1591C4.73705 5.58106 4.50001 6.15335 4.50003 6.75007C4.50004 7.34679 4.7371 7.91907 5.15906 8.341V8.34103L7.75738 10.9393ZM10.9393 16.2426L7.75738 13.0607L5.15906 15.659C4.95 15.8679 4.78413 16.1159 4.67095 16.389C4.55776 16.662 4.49947 16.9546 4.49941 17.2501C4.49934 17.5457 4.5575 17.8383 4.67057 18.1114C4.78363 18.3845 4.94939 18.6326 5.15836 18.8415C5.36733 19.0505 5.61543 19.2163 5.88848 19.3294C6.16153 19.4425 6.45419 19.5006 6.74973 19.5006C7.04527 19.5005 7.33791 19.4423 7.61092 19.3291C7.88394 19.2159 8.13198 19.0501 8.34089 18.841L10.9393 16.2426ZM19.5 17.25C19.5008 16.9544 19.4429 16.6616 19.3298 16.3885C19.2167 16.1154 19.0505 15.8675 18.8409 15.6591L16.2426 13.0607L13.0607 16.2426L15.6591 18.841C15.9737 19.1557 16.3746 19.3699 16.8111 19.4567C17.2475 19.5435 17.6999 19.499 18.111 19.3287C18.5222 19.1584 18.8735 18.87 19.1208 18.5C19.368 18.13 19.5 17.695 19.5 17.25Z" fill="#1D1F21" style="fill: var(--ui-icon-primary-color);"/>
</svg>
