<svg  viewBox="0 0 24 24" fill="none" xmlns="http://www.w3.org/2000/svg" id="__THIS_ID_NEEDS_FOR_UI_ICON_COMPONENT__">
<path d="M3.00024 15.7504C2.80133 15.7504 2.61057 15.8295 2.46991 15.9701C2.32926 16.1108 2.25024 16.3015 2.25024 16.5004C2.25024 16.6994 2.32926 16.8901 2.46991 17.0308C2.61057 17.1714 2.80133 17.2504 3.00024 17.2504H21.0002C21.1992 17.2504 21.3899 17.1714 21.5306 17.0308C21.6712 16.8901 21.7502 16.6994 21.7502 16.5004C21.7502 16.3015 21.6712 16.1108 21.5306 15.9701C21.3899 15.8295 21.1992 15.7504 21.0002 15.7504H19.5002V9.75044H21.0002C21.1612 9.75043 21.3179 9.69864 21.4472 9.60272C21.5764 9.50679 21.6714 9.37183 21.718 9.21778C21.7647 9.06372 21.7605 8.89875 21.7062 8.74723C21.6518 8.59572 21.5502 8.46571 21.4163 8.37642L12.4163 2.37642C12.2931 2.29431 12.1483 2.25049 12.0002 2.25049C11.8522 2.25049 11.7074 2.29431 11.5842 2.37642L2.58423 8.37642C2.4503 8.46571 2.34866 8.59572 2.29432 8.74723C2.23998 8.89875 2.23582 9.06372 2.28247 9.21778C2.32911 9.37183 2.42408 9.50679 2.55334 9.60272C2.68259 9.69864 2.83928 9.75043 3.00024 9.75044H4.50024V15.7504H3.00024ZM13.5002 9.75044V15.7504H10.5002V9.75044H13.5002ZM18.0002 15.7504H15.0002V9.75044H18.0002V15.7504ZM12.0002 3.90187L18.5232 8.25044H5.4773L12.0002 3.90187ZM6.00024 9.75044H9.00024V15.7504H6.00024V9.75044ZM23.2502 19.5004C23.2502 19.6994 23.1712 19.8901 23.0306 20.0308C22.8899 20.1714 22.6992 20.2504 22.5002 20.2504H1.50024C1.30133 20.2504 1.11057 20.1714 0.969914 20.0308C0.829262 19.8901 0.750244 19.6994 0.750244 19.5004C0.750244 19.3015 0.829262 19.1108 0.969914 18.9701C1.11057 18.8295 1.30133 18.7504 1.50024 18.7504H22.5002C22.6992 18.7505 22.8899 18.8295 23.0306 18.9701C23.1712 19.1108 23.2502 19.3015 23.2502 19.5004Z" fill="#1D1F21" style="fill: var(--ui-icon-primary-color);"/>
</svg>
