<svg  viewBox="0 0 24 24" fill="none" xmlns="http://www.w3.org/2000/svg" id="__THIS_ID_NEEDS_FOR_UI_ICON_COMPONENT__">
<path d="M8.25 1.5C8.25 1.30109 8.32902 1.11032 8.46967 0.969672C8.61032 0.82902 8.80109 0.750002 9 0.75H15C15.1989 0.75 15.3897 0.829018 15.5303 0.96967C15.671 1.11032 15.75 1.30109 15.75 1.5C15.75 1.69891 15.671 1.88968 15.5303 2.03033C15.3897 2.17098 15.1989 2.25 15 2.25H9C8.80109 2.25 8.61032 2.17098 8.46967 2.03033C8.32902 1.88968 8.25 1.69891 8.25 1.5ZM19.5 6V20.25C19.4993 20.8465 19.262 21.4184 18.8402 21.8402C18.4184 22.262 17.8465 22.4993 17.25 22.5H6.75C6.15347 22.4993 5.58157 22.262 5.15976 21.8402C4.73795 21.4184 4.50068 20.8465 4.5 20.25V6C4.50068 5.40347 4.73795 4.83157 5.15976 4.40976C5.58157 3.98795 6.15347 3.75068 6.75 3.75H17.25C17.8465 3.75068 18.4184 3.98795 18.8402 4.40976C19.2621 4.83157 19.4993 5.40347 19.5 6ZM18 6C17.9998 5.80116 17.9207 5.61052 17.7801 5.46992C17.6395 5.32932 17.4488 5.25023 17.25 5.25H6.75C6.55116 5.25023 6.36052 5.32932 6.21992 5.46992C6.07932 5.61052 6.00023 5.80116 6 6V20.25C6.00023 20.4488 6.07932 20.6395 6.21992 20.7801C6.36052 20.9207 6.55116 20.9998 6.75 21H17.25C17.4488 20.9998 17.6395 20.9207 17.7801 20.7801C17.9207 20.6395 17.9998 20.4488 18 20.25V6ZM13.5 12.375H11.6078L12.6964 9.65355C12.733 9.56208 12.7513 9.46428 12.7502 9.36574C12.7491 9.26719 12.7285 9.16984 12.6898 9.07924C12.651 8.98864 12.5947 8.90657 12.5242 8.83772C12.4537 8.76887 12.3703 8.71459 12.2788 8.67799C12.1873 8.64139 12.0895 8.62318 11.991 8.6244C11.8924 8.62563 11.7951 8.64626 11.7045 8.68512C11.6139 8.72399 11.5319 8.78032 11.4631 8.8509C11.3944 8.92147 11.3402 9.00492 11.3037 9.09645L9.80365 12.8465C9.75813 12.9602 9.74119 13.0835 9.75432 13.2053C9.76744 13.3272 9.81023 13.444 9.87895 13.5455C9.94766 13.647 10.0402 13.7301 10.1485 13.7875C10.2567 13.845 10.3774 13.875 10.5 13.875H12.3922L11.3037 16.5965C11.267 16.6879 11.2487 16.7857 11.2498 16.8843C11.2509 16.9828 11.2715 17.0802 11.3102 17.1708C11.349 17.2614 11.4053 17.3434 11.4758 17.4123C11.5463 17.4811 11.6297 17.5354 11.7212 17.572C11.8127 17.6086 11.9105 17.6268 12.009 17.6256C12.1076 17.6244 12.2049 17.6037 12.2955 17.5649C12.3861 17.526 12.4681 17.4697 12.5369 17.3991C12.6056 17.3285 12.6598 17.2451 12.6964 17.1535L14.1964 13.4035C14.2419 13.2898 14.2588 13.1665 14.2457 13.0447C14.2326 12.9228 14.1898 12.806 14.1211 12.7045C14.0523 12.603 13.9598 12.5199 13.8515 12.4625C13.7433 12.405 13.6226 12.375 13.5 12.375Z" fill="#1D1F21" style="fill: var(--ui-icon-primary-color);"/>
</svg>
