<svg  viewBox="0 0 24 24" fill="none" xmlns="http://www.w3.org/2000/svg" id="__THIS_ID_NEEDS_FOR_UI_ICON_COMPONENT__">
<path d="M10.125 12V8.25C10.125 8.05109 10.204 7.86032 10.3447 7.71967C10.4853 7.57902 10.6761 7.5 10.875 7.5C11.0739 7.5 11.2647 7.57902 11.4053 7.71967C11.546 7.86032 11.625 8.05109 11.625 8.25V12C11.625 12.1989 11.546 12.3897 11.4053 12.5303C11.2647 12.671 11.0739 12.75 10.875 12.75C10.6761 12.75 10.4853 12.671 10.3447 12.5303C10.204 12.3897 10.125 12.1989 10.125 12ZM22.5 8.25C22.4015 8.25 22.304 8.26939 22.213 8.30709C22.122 8.34477 22.0393 8.40002 21.9697 8.46966C21.9 8.53931 21.8448 8.62199 21.8071 8.71298C21.7694 8.80398 21.75 8.90151 21.75 9V15C21.75 15.1989 21.829 15.3897 21.9697 15.5303C22.1103 15.671 22.3011 15.75 22.5 15.75C22.6989 15.75 22.8897 15.671 23.0303 15.5303C23.171 15.3897 23.25 15.1989 23.25 15V9C23.25 8.90151 23.2306 8.80398 23.1929 8.71298C23.1552 8.62199 23.1 8.53931 23.0303 8.46966C22.9607 8.40002 22.878 8.34477 22.787 8.30709C22.696 8.26939 22.5985 8.25 22.5 8.25ZM20.25 6.75V17.25C20.2493 17.8465 20.012 18.4184 19.5902 18.8402C19.1684 19.262 18.5965 19.4993 18 19.5H3.75C3.15347 19.4993 2.58157 19.262 2.15976 18.8402C1.73795 18.4184 1.50068 17.8465 1.5 17.25V6.75C1.50068 6.15347 1.73795 5.58157 2.15976 5.15976C2.58157 4.73795 3.15347 4.50068 3.75 4.5H18C18.5965 4.50068 19.1684 4.73795 19.5902 5.15976C20.012 5.58157 20.2493 6.15347 20.25 6.75ZM18.75 6.75C18.7498 6.55116 18.6707 6.36052 18.5301 6.21992C18.3895 6.07932 18.1988 6.00023 18 6H3.75C3.55116 6.00023 3.36052 6.07932 3.21992 6.21992C3.07932 6.36052 3.00023 6.55116 3 6.75V17.25C3.00023 17.4488 3.07932 17.6395 3.21992 17.7801C3.36052 17.9207 3.55116 17.9998 3.75 18H18C18.1988 17.9998 18.3895 17.9207 18.5301 17.7801C18.6707 17.6395 18.7498 17.4488 18.75 17.25V6.75ZM10.875 14.25C10.6525 14.25 10.435 14.316 10.25 14.4396C10.065 14.5632 9.92078 14.7389 9.83564 14.9445C9.75049 15.15 9.72821 15.3762 9.77162 15.5945C9.81502 15.8127 9.92217 16.0132 10.0795 16.1705C10.2368 16.3278 10.4373 16.435 10.6555 16.4784C10.8738 16.5218 11.1 16.4995 11.3055 16.4144C11.5111 16.3292 11.6868 16.185 11.8104 16C11.934 15.815 12 15.5975 12 15.375C11.9997 15.0767 11.881 14.7908 11.6701 14.5799C11.4592 14.369 11.1733 14.2503 10.875 14.25Z" fill="#1D1F21" style="fill: var(--ui-icon-primary-color);"/>
</svg>
