<svg  viewBox="0 0 24 24" fill="none" xmlns="http://www.w3.org/2000/svg" id="__THIS_ID_NEEDS_FOR_UI_ICON_COMPONENT__">
<path d="M23.25 9V15C23.25 15.1989 23.171 15.3897 23.0303 15.5303C22.8897 15.671 22.6989 15.75 22.5 15.75C22.3011 15.75 22.1103 15.671 21.9697 15.5303C21.829 15.3897 21.75 15.1989 21.75 15V9C21.75 8.80109 21.829 8.61032 21.9697 8.46967C22.1103 8.32902 22.3011 8.25 22.5 8.25C22.6989 8.25 22.8897 8.32902 23.0303 8.46967C23.171 8.61032 23.25 8.80109 23.25 9ZM20.25 6.75V17.25C20.2493 17.8465 20.012 18.4184 19.5902 18.8402C19.1684 19.262 18.5965 19.4993 18 19.5H3.75C3.15347 19.4993 2.58157 19.262 2.15976 18.8402C1.73795 18.4184 1.50068 17.8465 1.5 17.25V6.75C1.50068 6.15347 1.73795 5.58157 2.15976 5.15976C2.58157 4.73795 3.15347 4.50068 3.75 4.5H18C18.5965 4.50068 19.1684 4.73795 19.5902 5.15976C20.012 5.58157 20.2493 6.15347 20.25 6.75ZM18.75 6.75C18.7498 6.55116 18.6707 6.36052 18.5301 6.21992C18.3895 6.07932 18.1988 6.00023 18 6H3.75C3.55116 6.00023 3.36052 6.07932 3.21992 6.21992C3.07932 6.36052 3.00023 6.55116 3 6.75V17.25C3.00023 17.4488 3.07932 17.6395 3.21992 17.7801C3.36052 17.9207 3.55116 17.9998 3.75 18H18C18.1988 17.9998 18.3895 17.9207 18.5301 17.7801C18.6707 17.6395 18.7498 17.4488 18.75 17.25V6.75ZM12.375 11.25H10.4828L11.5713 8.52855C11.608 8.43708 11.6263 8.33928 11.6252 8.24074C11.6241 8.14219 11.6035 8.04484 11.5648 7.95424C11.526 7.86364 11.4697 7.78157 11.3992 7.71272C11.3287 7.64387 11.2453 7.58959 11.1538 7.55299C11.0623 7.51639 10.9645 7.49818 10.866 7.4994C10.7674 7.50063 10.6701 7.52126 10.5795 7.56012C10.4889 7.59899 10.4069 7.65532 10.3381 7.7259C10.2694 7.79647 10.2152 7.87991 10.1787 7.97145L8.67865 11.7215C8.63312 11.8352 8.61618 11.9585 8.62931 12.0803C8.64243 12.2022 8.68522 12.319 8.75394 12.4205C8.82265 12.522 8.91519 12.6051 9.02346 12.6625C9.13173 12.72 9.25243 12.75 9.375 12.75H11.2672L10.1787 15.4715C10.142 15.5629 10.1237 15.6607 10.1248 15.7593C10.1259 15.8578 10.1465 15.9552 10.1852 16.0458C10.224 16.1364 10.2803 16.2184 10.3508 16.2873C10.4213 16.3561 10.5047 16.4104 10.5962 16.447C10.6877 16.4836 10.7855 16.5018 10.884 16.5006C10.9826 16.4994 11.0799 16.4787 11.1705 16.4399C11.2611 16.401 11.3431 16.3447 11.4119 16.2741C11.4806 16.2035 11.5348 16.1201 11.5713 16.0285L13.0714 12.2785C13.1169 12.1648 13.1338 12.0415 13.1207 11.9197C13.1076 11.7978 13.0648 11.681 12.9961 11.5795C12.9274 11.478 12.8348 11.3949 12.7265 11.3375C12.6183 11.28 12.4976 11.25 12.375 11.25Z" fill="#1D1F21" style="fill: var(--ui-icon-primary-color);"/>
</svg>
