<svg  viewBox="0 0 24 24" fill="none" xmlns="http://www.w3.org/2000/svg" id="__THIS_ID_NEEDS_FOR_UI_ICON_COMPONENT__">
<path d="M23.25 9V15C23.25 15.1989 23.171 15.3897 23.0303 15.5303C22.8897 15.671 22.6989 15.75 22.5 15.75C22.3011 15.75 22.1103 15.671 21.9697 15.5303C21.829 15.3897 21.75 15.1989 21.75 15V9C21.75 8.80109 21.829 8.61032 21.9697 8.46967C22.1103 8.32902 22.3011 8.25 22.5 8.25C22.6989 8.25 22.8897 8.32902 23.0303 8.46967C23.171 8.61032 23.25 8.80109 23.25 9ZM20.25 6.75V17.25C20.2493 17.8465 20.012 18.4184 19.5902 18.8402C19.1684 19.262 18.5965 19.4993 18 19.5H3.75C3.15347 19.4993 2.58157 19.262 2.15976 18.8402C1.73795 18.4184 1.50068 17.8465 1.5 17.25V6.75C1.50068 6.15347 1.73795 5.58157 2.15976 5.15976C2.58157 4.73795 3.15347 4.50068 3.75 4.5H18C18.5965 4.50068 19.1684 4.73795 19.5902 5.15976C20.012 5.58157 20.2493 6.15347 20.25 6.75ZM18.75 6.75C18.7498 6.55116 18.6707 6.36052 18.5301 6.21992C18.3895 6.07932 18.1988 6.00023 18 6H3.75C3.55116 6.00023 3.36052 6.07932 3.21992 6.21992C3.07932 6.36052 3.00023 6.55116 3 6.75V17.25C3.00023 17.4488 3.07932 17.6395 3.21992 17.7801C3.36052 17.9207 3.55116 17.9998 3.75 18H18C18.1988 17.9998 18.3895 17.9207 18.5301 17.7801C18.6707 17.6395 18.7498 17.4488 18.75 17.25V6.75ZM5.69998 7.50005C5.60149 7.50004 5.50396 7.51944 5.41297 7.55713C5.32197 7.59482 5.23929 7.65006 5.16964 7.71971C5.1 7.78935 5.04476 7.87203 5.00707 7.96303C4.96938 8.05403 4.94998 8.15155 4.94998 8.25005V15.75C4.94998 15.949 5.029 16.1397 5.16965 16.2804C5.3103 16.421 5.50107 16.5 5.69998 16.5C5.89889 16.5 6.08966 16.421 6.23031 16.2804C6.37096 16.1397 6.44998 15.949 6.44998 15.75V8.25005C6.44998 8.15155 6.43059 8.05403 6.3929 7.96303C6.35521 7.87203 6.29996 7.78935 6.23032 7.71971C6.16067 7.65006 6.07799 7.59482 5.987 7.55713C5.896 7.51944 5.79847 7.50004 5.69998 7.50005Z" fill="#1D1F21" style="fill: var(--ui-icon-primary-color);"/>
</svg>
