<svg  viewBox="0 0 24 24" fill="none" xmlns="http://www.w3.org/2000/svg" id="__THIS_ID_NEEDS_FOR_UI_ICON_COMPONENT__">
<path d="M20.7013 16.4946C20.145 15.5368 19.4817 13.7194 19.4817 10.5002V9.83493C19.4817 5.6832 16.151 2.28083 12.057 2.25043C12.0379 2.25034 12.0189 2.25024 11.9998 2.25024C10.0132 2.25283 8.10907 3.04445 6.70616 4.45096C5.30325 5.85748 4.51652 7.76368 4.51904 9.75024V10.5002C4.51904 13.7192 3.85537 15.5366 3.29873 16.4942C3.16577 16.722 3.09522 16.9808 3.09419 17.2445C3.09316 17.5082 3.16169 17.7676 3.29287 17.9964C3.42404 18.2252 3.61323 18.4153 3.84135 18.5477C4.06947 18.68 4.32845 18.7499 4.59219 18.7502H8.24999C8.24999 19.7448 8.64508 20.6986 9.34834 21.4019C10.0516 22.1052 11.0054 22.5002 12 22.5002C12.9946 22.5002 13.9484 22.1052 14.6516 21.4019C15.3549 20.6986 15.75 19.7448 15.75 18.7502H19.4078C19.6715 18.7499 19.9304 18.6801 20.1585 18.5477C20.3866 18.4154 20.5758 18.2253 20.707 17.9965C20.8382 17.7678 20.9067 17.5085 20.9057 17.2448C20.9047 16.9811 20.8342 16.7223 20.7013 16.4946ZM12 21.0002C11.4035 20.9996 10.8316 20.7623 10.4098 20.3405C9.98795 19.9187 9.75068 19.3468 9.74999 18.7502H14.25C14.2493 19.3468 14.012 19.9187 13.5902 20.3405C13.1684 20.7623 12.5965 20.9996 12 21.0002ZM4.59548 17.2481C5.24496 16.1309 6.01904 14.0534 6.01904 10.5002V9.75025C6.01655 8.16145 6.6453 6.63674 7.76698 5.51153C8.88866 4.38631 10.4114 3.75276 12.0002 3.75025C12.0154 3.75025 12.0307 3.75034 12.0459 3.75044C15.3189 3.7747 17.9817 6.50425 17.9817 9.83494V10.5003C17.9817 14.0534 18.7554 16.1309 19.4078 17.2503L4.59548 17.2481Z" fill="#1D1F21" style="fill: var(--ui-icon-primary-color);"/>
</svg>
