<svg  viewBox="0 0 24 24" fill="none" xmlns="http://www.w3.org/2000/svg" id="__THIS_ID_NEEDS_FOR_UI_ICON_COMPONENT__">
<path d="M15.75 21.0002C15.75 21.1992 15.671 21.3899 15.5303 21.5306C15.3897 21.6712 15.1989 21.7502 15 21.7502H9.00002C8.80111 21.7502 8.61034 21.6712 8.46969 21.5306C8.32904 21.3899 8.25002 21.1992 8.25002 21.0002C8.25002 20.8013 8.32904 20.6106 8.46969 20.4699C8.61034 20.3293 8.80111 20.2502 9.00002 20.2502H15C15.1989 20.2503 15.3897 20.3293 15.5303 20.4699C15.671 20.6106 15.75 20.8013 15.75 21.0002ZM20.705 18C20.575 18.2291 20.3863 18.4194 20.1583 18.5512C19.9303 18.6831 19.6712 18.7518 19.4078 18.7502H4.59222C4.32848 18.7499 4.0695 18.68 3.84138 18.5477C3.61326 18.4153 3.42407 18.2252 3.2929 17.9964C3.16172 17.7676 3.09319 17.5082 3.09422 17.2445C3.09525 16.9808 3.1658 16.722 3.29876 16.4942C3.8554 15.5366 4.51906 13.7192 4.51906 10.5002V9.75024C4.51655 7.76368 5.30328 5.85748 6.70619 4.45096C8.1091 3.04445 10.0133 2.25283 11.9998 2.25024C12.019 2.25024 12.0379 2.25034 12.0571 2.25043C16.151 2.28083 19.4817 5.6832 19.4817 9.83493V10.5002C19.4817 13.7194 20.145 15.5368 20.7014 16.4946C20.8358 16.7225 20.907 16.9822 20.9077 17.2468C20.9083 17.5114 20.8384 17.7714 20.705 18ZM19.4078 17.2502C18.7554 16.1309 17.9817 14.0534 17.9817 10.5002V9.83493C17.9817 6.50424 15.3189 3.77469 12.0459 3.75043C12.0307 3.75033 12.0154 3.75024 12.0002 3.75024C10.4114 3.75276 8.88869 4.38631 7.76701 5.51152C6.64533 6.63674 6.01658 8.16145 6.01906 9.75024V10.5002C6.01906 14.0534 5.24499 16.1309 4.59551 17.248L19.4078 17.2502Z" fill="#1D1F21" style="fill: var(--ui-icon-primary-color);"/>
</svg>
