<svg  viewBox="0 0 24 24" fill="none" xmlns="http://www.w3.org/2000/svg" id="__THIS_ID_NEEDS_FOR_UI_ICON_COMPONENT__">
<path d="M5.05501 3.24568C4.9212 3.09848 4.73439 3.01048 4.53569 3.00102C4.33699 2.99155 4.14267 3.06142 3.99547 3.19523C3.84828 3.32904 3.76027 3.51585 3.75081 3.71455C3.74135 3.91326 3.81121 4.10758 3.94503 4.25477L5.52486 5.99258C4.86372 7.13436 4.5167 8.43084 4.51906 9.75022V10.5002C4.51906 13.7192 3.8554 15.5365 3.29876 16.4942C3.1658 16.7219 3.09525 16.9807 3.09422 17.2445C3.09319 17.5082 3.16172 17.7676 3.2929 17.9964C3.42407 18.2251 3.61326 18.4153 3.84138 18.5477C4.0695 18.68 4.32848 18.7499 4.59221 18.7502H8.25002C8.25002 19.7448 8.64511 20.6986 9.34837 21.4019C10.0516 22.1051 11.0055 22.5002 12 22.5002C12.9946 22.5002 13.9484 22.1051 14.6517 21.4019C15.3549 20.6986 15.75 19.7448 15.75 18.7502H17.1227L18.945 20.7548C19.0113 20.8277 19.0912 20.8868 19.1804 20.9287C19.2695 20.9707 19.366 20.9947 19.4643 20.9994C19.5627 21.0041 19.6611 20.9894 19.7538 20.9561C19.8465 20.9227 19.9317 20.8715 20.0046 20.8052C20.0774 20.739 20.1366 20.659 20.1785 20.5699C20.2205 20.4808 20.2445 20.3843 20.2492 20.2859C20.2539 20.1875 20.2392 20.0892 20.2058 19.9965C20.1725 19.9038 20.1213 19.8186 20.055 19.7457L5.05501 3.24568ZM12 21.0002C11.4035 20.9995 10.8316 20.7623 10.4098 20.3405C9.98798 19.9186 9.7507 19.3468 9.75002 18.7502H14.25C14.2493 19.3468 14.0121 19.9186 13.5903 20.3405C13.1684 20.7623 12.5965 20.9995 12 21.0002ZM4.59551 17.248C5.24499 16.1309 6.01906 14.0534 6.01906 10.5002V9.75022C6.01776 8.85875 6.21551 7.97823 6.59789 7.17292L15.7588 17.2499L4.59551 17.248ZM8.02205 4.25303C7.9732 4.16751 7.94167 4.07321 7.92926 3.97551C7.91685 3.8778 7.92382 3.77861 7.94975 3.6836C7.97567 3.58858 8.02007 3.49961 8.08039 3.42175C8.1407 3.34389 8.21577 3.27868 8.30129 3.22984C9.44557 2.57943 10.7409 2.24164 12.0571 2.25041C16.151 2.28081 19.4817 5.68327 19.4817 9.83501V10.5002C19.4817 12.5487 19.7481 14.2641 20.2735 15.599C20.3463 15.7841 20.3426 15.9905 20.2633 16.1729C20.1839 16.3553 20.0353 16.4987 19.8502 16.5715C19.6651 16.6444 19.4587 16.6407 19.2763 16.5613C19.0939 16.482 18.9505 16.3334 18.8776 16.1483C18.2832 14.6378 17.9817 12.7375 17.9817 10.5002V9.835C17.9817 6.50422 15.3189 3.77467 12.0459 3.75041C10.9942 3.74186 9.95901 4.0116 9.04525 4.53227C8.95973 4.58112 8.86543 4.61265 8.76772 4.62506C8.67002 4.63747 8.57083 4.63051 8.47581 4.60458C8.3808 4.57865 8.29183 4.53425 8.21397 4.47394C8.13611 4.41362 8.0709 4.33855 8.02205 4.25303Z" fill="#1D1F21" style="fill: var(--ui-icon-primary-color);"/>
</svg>
