<svg  viewBox="0 0 24 24" fill="none" xmlns="http://www.w3.org/2000/svg" id="__THIS_ID_NEEDS_FOR_UI_ICON_COMPONENT__">
<path d="M5.0548 3.24574C4.92099 3.09854 4.73418 3.01054 4.53548 3.00108C4.33678 2.99162 4.14245 3.06148 3.99526 3.19529C3.84807 3.32911 3.76006 3.51591 3.7506 3.71461C3.74114 3.91332 3.811 4.10764 3.94482 4.25483L5.52397 5.99191C4.86323 7.13339 4.51644 8.42944 4.51885 9.74836V10.4984C4.51885 13.7174 3.85518 15.5347 3.29854 16.4923C3.16559 16.7201 3.09503 16.9789 3.09401 17.2426C3.09298 17.5064 3.16151 17.7657 3.29268 17.9945C3.42386 18.2233 3.61305 18.4135 3.84116 18.5458C4.06928 18.6782 4.32827 18.748 4.592 18.7484H17.1208L18.9448 20.7548C19.0111 20.8277 19.091 20.8868 19.1801 20.9288C19.2692 20.9708 19.3658 20.9948 19.4641 20.9995C19.5625 21.0042 19.6609 20.9894 19.7536 20.9561C19.8463 20.9228 19.9315 20.8715 20.0044 20.8053C20.0772 20.739 20.1364 20.6591 20.1783 20.5699C20.2203 20.4808 20.2443 20.3843 20.249 20.286C20.2537 20.1876 20.239 20.0892 20.2056 19.9965C20.1723 19.9038 20.1211 19.8186 20.0548 19.7457L5.0548 3.24574ZM4.5953 17.2462C5.24477 16.129 6.01885 14.0516 6.01885 10.4984V9.74836C6.01752 8.85735 6.21506 7.97727 6.59704 7.1723L15.7569 17.2481L4.5953 17.2462ZM15.7498 20.9984C15.7498 21.1973 15.6708 21.388 15.5301 21.5287C15.3895 21.6693 15.1987 21.7484 14.9998 21.7484H8.99981C8.8009 21.7484 8.61013 21.6693 8.46948 21.5287C8.32883 21.388 8.24981 21.1973 8.24981 20.9984C8.24981 20.7994 8.32883 20.6087 8.46948 20.468C8.61013 20.3274 8.8009 20.2484 8.99981 20.2484H14.9998C15.1987 20.2484 15.3895 20.3274 15.5301 20.468C15.6708 20.6087 15.7498 20.7995 15.7498 20.9984ZM8.02083 4.25199C7.97196 4.16649 7.94041 4.07219 7.92798 3.97449C7.91554 3.87679 7.92248 3.7776 7.94838 3.68258C7.97429 3.58756 8.01865 3.49857 8.07895 3.42069C8.13924 3.34282 8.21429 3.27758 8.2998 3.22871C9.44356 2.57581 10.7399 2.23761 12.0568 2.24855C16.1508 2.27894 19.4815 5.68132 19.4815 9.83305V10.4984C19.4815 12.5483 19.7483 14.2648 20.2745 15.6001C20.3106 15.6918 20.3284 15.7896 20.3267 15.8881C20.325 15.9866 20.3039 16.0838 20.2646 16.1742C20.2253 16.2645 20.1687 16.3462 20.0978 16.4146C20.027 16.4831 19.9433 16.5369 19.8517 16.573C19.76 16.6091 19.6622 16.6268 19.5637 16.6251C19.4652 16.6234 19.368 16.6023 19.2777 16.563C19.1873 16.5237 19.1056 16.467 19.0372 16.3962C18.9688 16.3253 18.915 16.2417 18.8789 16.15C18.2834 14.6388 17.9815 12.7373 17.9815 10.4984V9.83306C17.9815 6.50237 15.3187 3.77281 12.0457 3.74855C10.9936 3.73966 9.95797 4.00962 9.04412 4.53096C8.95862 4.57984 8.86432 4.6114 8.76662 4.62383C8.66891 4.63627 8.56972 4.62933 8.4747 4.60343C8.37967 4.57752 8.29068 4.53315 8.21281 4.47285C8.13494 4.41255 8.0697 4.3375 8.02083 4.25199Z" fill="#1D1F21" style="fill: var(--ui-icon-primary-color);"/>
</svg>
