<svg  viewBox="0 0 24 24" fill="none" xmlns="http://www.w3.org/2000/svg" id="__THIS_ID_NEEDS_FOR_UI_ICON_COMPONENT__">
<path d="M19.125 10.5C18.6208 10.4999 18.1202 10.5849 17.6443 10.7515L16.4852 8.644L16.4833 8.64072L15.4435 6.75H17.25C17.4489 6.75 17.6397 6.67098 17.7803 6.53033C17.921 6.38968 18 6.19891 18 6C18 5.80109 17.921 5.61032 17.7803 5.46967C17.6397 5.32902 17.4489 5.25 17.25 5.25H14.175C14.0447 5.24999 13.9166 5.28395 13.8034 5.34853C13.6901 5.4131 13.5957 5.50607 13.5294 5.61827C13.463 5.73046 13.4271 5.85801 13.4251 5.98833C13.423 6.11865 13.455 6.24725 13.5178 6.36145L14.5565 8.25H9.51845L8.08216 5.63855C8.01744 5.52088 7.92231 5.42275 7.80671 5.3544C7.69112 5.28606 7.55929 5.25 7.42499 5.25H4.87498C4.67606 5.25 4.4853 5.32902 4.34465 5.46967C4.20399 5.61032 4.12498 5.80109 4.12498 6C4.12498 6.19891 4.20399 6.38968 4.34465 6.53033C4.4853 6.67098 4.67606 6.75 4.87498 6.75H6.98151L8.19281 8.95237L6.80459 10.9355C5.78281 10.448 4.61516 10.3623 3.53311 10.6952C2.45106 11.0282 1.53361 11.7555 0.962632 12.7331C0.391656 13.7107 0.208841 14.8671 0.450428 15.9732C0.692014 17.0792 1.34037 18.0541 2.26695 18.7046C3.19354 19.3551 4.33071 19.6336 5.45304 19.4851C6.57537 19.3365 7.60091 18.7717 8.32637 17.9026C9.05183 17.0334 9.42423 15.9234 9.36976 14.7926C9.31529 13.6618 8.83792 12.5928 8.03228 11.7974L8.99844 10.4171L11.7178 15.3615C11.7653 15.4478 11.8293 15.5239 11.9062 15.5854C11.983 15.647 12.0713 15.6928 12.1659 15.7203C12.2605 15.7477 12.3595 15.7563 12.4574 15.7455C12.5553 15.7346 12.6501 15.7046 12.7364 15.6572C12.8227 15.6097 12.8988 15.5457 12.9604 15.4688C13.022 15.3919 13.0678 15.3037 13.0952 15.2091C13.1227 15.1145 13.1313 15.0154 13.1204 14.9175C13.1096 14.8197 13.0796 14.7248 13.0321 14.6385L10.3435 9.75H15.3815L16.331 11.4763C15.4993 12.1373 14.9285 13.0715 14.7198 14.1132C14.5112 15.1549 14.6781 16.2369 15.191 17.1672C15.7039 18.0976 16.5298 18.8163 17.522 19.1959C18.5143 19.5755 19.6089 19.5915 20.6119 19.241C21.6148 18.8906 22.4612 18.1963 23.0011 17.2813C23.541 16.3663 23.7395 15.2897 23.5613 14.2424C23.3831 13.195 22.8399 12.2446 22.0278 11.5595C21.2158 10.8745 20.1874 10.4991 19.125 10.5ZM7.87498 15C7.87522 15.6395 7.67119 16.2623 7.29264 16.7777C6.91409 17.2931 6.38081 17.6741 5.77055 17.8652C5.16028 18.0562 4.50495 18.0474 3.90007 17.8399C3.29519 17.6324 2.77241 17.2371 2.40793 16.7117C2.04345 16.1862 1.85633 15.5581 1.87385 14.9189C1.89138 14.2796 2.11263 13.6627 2.50535 13.158C2.89807 12.6534 3.44173 12.2873 4.05706 12.1133C4.6724 11.9392 5.32724 11.9663 5.92612 12.1905L4.26056 14.5699C4.2039 14.6506 4.1637 14.7416 4.14226 14.8379C4.12082 14.9341 4.11857 15.0336 4.13562 15.1307C4.15268 15.2278 4.18871 15.3206 4.24166 15.4037C4.29461 15.4869 4.36343 15.5588 4.4442 15.6154C4.52496 15.6719 4.61608 15.712 4.71234 15.7332C4.80861 15.7545 4.90812 15.7566 5.0052 15.7394C5.10227 15.7222 5.195 15.6861 5.27808 15.633C5.36117 15.5799 5.43297 15.511 5.48938 15.4301L7.15389 13.0522C7.61958 13.5943 7.87543 14.2854 7.87498 15ZM19.125 18C18.524 18.0004 17.9368 17.8202 17.4396 17.4828C16.9423 17.1454 16.5579 16.6663 16.3363 16.1077C16.1147 15.5491 16.066 14.9368 16.1967 14.3503C16.3274 13.7637 16.6313 13.2299 17.0691 12.8182L18.4678 15.3614C18.5153 15.4477 18.5793 15.5239 18.6562 15.5854C18.733 15.647 18.8213 15.6928 18.9159 15.7203C19.0105 15.7477 19.1095 15.7563 19.2074 15.7455C19.3053 15.7346 19.4001 15.7046 19.4864 15.6572C19.5727 15.6097 19.6488 15.5457 19.7104 15.4688C19.772 15.3919 19.8178 15.3037 19.8452 15.2091C19.8727 15.1145 19.8813 15.0154 19.8704 14.9175C19.8596 14.8197 19.8296 14.7248 19.7821 14.6385L18.3822 12.0932C18.7945 11.9878 19.2246 11.9714 19.6437 12.045C20.0629 12.1186 20.4616 12.2805 20.8134 12.5201C21.1652 12.7596 21.462 13.0712 21.6841 13.4342C21.9062 13.7972 22.0485 14.2033 22.1016 14.6256C22.1547 15.0478 22.1173 15.4766 21.992 15.8833C21.8667 16.29 21.6563 16.6654 21.3748 16.9845C21.0933 17.3037 20.747 17.5593 20.3591 17.7344C19.9713 17.9094 19.5506 18 19.125 18Z" fill="#1D1F21" style="fill: var(--ui-icon-primary-color);"/>
</svg>
