<svg  viewBox="0 0 24 24" fill="none" xmlns="http://www.w3.org/2000/svg" id="__THIS_ID_NEEDS_FOR_UI_ICON_COMPONENT__">
<path d="M17.6999 15.9L12.4999 12L14.6999 10.35C14.859 10.2306 14.9642 10.053 14.9924 9.85605C15.0205 9.65914 14.9693 9.45912 14.8499 9.3C14.7306 9.14087 14.5529 9.03567 14.356 9.00753C14.1591 8.9794 13.9591 9.03064 13.7999 9.14999L11.9999 10.5V4.49998L13.7999 5.84988C13.959 5.96901 14.1589 6.02009 14.3557 5.99189C14.5525 5.96369 14.73 5.85852 14.8493 5.69948C14.9686 5.54044 15.0198 5.34055 14.9918 5.14374C14.9638 4.94694 14.8587 4.76931 14.6998 4.64989L11.6999 2.39999C11.5885 2.31642 11.456 2.26554 11.3173 2.25303C11.1786 2.24052 11.0391 2.26689 10.9145 2.32918C10.7899 2.39147 10.6852 2.48721 10.6119 2.60569C10.5387 2.72417 10.4999 2.8607 10.4999 2.99998V10.5L5.6999 6.89999C5.54078 6.78064 5.34076 6.7294 5.14385 6.75753C4.94694 6.78567 4.76928 6.89087 4.64993 7.05C4.53059 7.20912 4.47935 7.40914 4.50748 7.60605C4.53561 7.80296 4.64081 7.98063 4.79994 8.09997L9.99995 12L4.79994 15.9C4.64081 16.0193 4.53561 16.197 4.50748 16.3939C4.47935 16.5908 4.53059 16.7908 4.64993 16.95C4.76928 17.1091 4.94694 17.2143 5.14385 17.2424C5.34076 17.2706 5.54078 17.2193 5.6999 17.1L10.4999 13.5V21C10.4999 21.1393 10.5387 21.2758 10.6119 21.3943C10.6851 21.5128 10.7899 21.6085 10.9145 21.6708C11.0391 21.7331 11.1785 21.7595 11.3173 21.7469C11.456 21.7344 11.5885 21.6835 11.6999 21.6L17.6999 17.1C17.7931 17.0301 17.8687 16.9395 17.9207 16.8354C17.9728 16.7312 17.9999 16.6164 17.9999 16.5C17.9999 16.3835 17.9728 16.2687 17.9207 16.1646C17.8687 16.0604 17.7931 15.9698 17.6999 15.9ZM11.9999 19.5V13.5L15.9999 16.5L11.9999 19.5ZM22.2802 9.21943C22.35 9.28906 22.4053 9.37174 22.443 9.46275C22.4808 9.55376 22.5002 9.65132 22.5002 9.74985C22.5003 9.84837 22.4809 9.94594 22.4432 10.037C22.4055 10.128 22.3502 10.2107 22.2806 10.2804C22.2109 10.3501 22.1282 10.4053 22.0372 10.443C21.9461 10.4807 21.8485 10.5001 21.75 10.5001C21.6515 10.5 21.5539 10.4806 21.4629 10.4428C21.3719 10.4051 21.2892 10.3498 21.2196 10.2801L19.4999 8.56039L17.7802 10.2801C17.6396 10.4206 17.4488 10.4995 17.25 10.4994C17.0512 10.4993 16.8605 10.4203 16.7199 10.2797C16.5793 10.1391 16.5003 9.94848 16.5003 9.74965C16.5002 9.55082 16.5791 9.36011 16.7196 9.21943L18.4393 7.49975L16.7196 5.78007C16.5791 5.63939 16.5002 5.44867 16.5003 5.24985C16.5003 5.05102 16.5793 4.86035 16.7199 4.71976C16.8605 4.57917 17.0512 4.50016 17.25 4.5001C17.4488 4.50003 17.6396 4.57893 17.7802 4.71943L19.4999 6.43911L21.2196 4.71943C21.3603 4.57893 21.551 4.50003 21.7498 4.5001C21.9487 4.50016 22.1393 4.57917 22.2799 4.71976C22.4205 4.86035 22.4995 5.05102 22.4996 5.24985C22.4996 5.44867 22.4207 5.63939 22.2802 5.78007L20.5606 7.49975L22.2802 9.21943Z" fill="#1D1F21" style="fill: var(--ui-icon-primary-color);"/>
</svg>
