<svg  viewBox="0 0 24 24" fill="none" xmlns="http://www.w3.org/2000/svg" id="__THIS_ID_NEEDS_FOR_UI_ICON_COMPONENT__">
<path d="M20.055 19.7452L17.1121 16.5081L17.1113 16.5071L14.1715 13.2734L14.1695 13.2712L5.055 3.24525C4.98875 3.17237 4.90879 3.11326 4.81969 3.07128C4.7306 3.02931 4.6341 3.00529 4.53572 3.00061C4.33704 2.99115 4.14273 3.061 3.99555 3.1948C3.92268 3.26105 3.86356 3.34101 3.82159 3.43011C3.77961 3.51921 3.75559 3.6157 3.75091 3.71408C3.74145 3.91276 3.81131 4.10707 3.94511 4.25425L10.5865 11.5598L4.79952 15.9C4.72073 15.9591 4.65435 16.0331 4.60417 16.1179C4.55399 16.2026 4.52099 16.2964 4.50706 16.3939C4.49313 16.4914 4.49854 16.5907 4.52299 16.6861C4.54743 16.7815 4.59042 16.8712 4.64951 16.95C4.70861 17.0288 4.78264 17.0951 4.86739 17.1453C4.95213 17.1955 5.04593 17.2285 5.14343 17.2424C5.24093 17.2563 5.34022 17.2509 5.43563 17.2265C5.53103 17.2021 5.62069 17.1591 5.69949 17.1L10.4995 13.5V21C10.4995 21.1393 10.5383 21.2758 10.6115 21.3943C10.6847 21.5128 10.7895 21.6085 10.9141 21.6708C11.0387 21.7331 11.1781 21.7595 11.3168 21.7469C11.4556 21.7344 11.5881 21.6835 11.6995 21.6L16.4648 18.0259L18.9451 20.7542C19.0789 20.9014 19.2657 20.9894 19.4644 20.9989C19.6631 21.0084 19.8574 20.9385 20.0046 20.8047C20.1517 20.6709 20.2397 20.4841 20.2492 20.2854C20.2587 20.0867 20.1888 19.8924 20.055 19.7452ZM11.9995 19.5V13.5L13.102 14.3269L15.4513 16.9111L11.9995 19.5ZM10.4995 6.71432V2.99998C10.4995 2.8607 10.5383 2.72417 10.6115 2.60569C10.6847 2.48721 10.7895 2.39147 10.9141 2.32918C11.0387 2.26689 11.1781 2.24052 11.3168 2.25303C11.4556 2.26554 11.5881 2.31642 11.6995 2.39999L17.6995 6.89999C17.7926 6.96984 17.8682 7.06043 17.9203 7.16457C17.9724 7.26871 17.9995 7.38354 17.9995 7.49998C17.9995 7.61641 17.9724 7.73125 17.9203 7.83539C17.8682 7.93953 17.7926 8.03011 17.6995 8.09997L14.5566 10.4571C14.3975 10.5765 14.1975 10.6277 14.0006 10.5996C13.8037 10.5715 13.626 10.4662 13.5066 10.3071C13.3873 10.148 13.3361 9.94798 13.3642 9.75107C13.3923 9.55416 13.4975 9.37649 13.6567 9.25715L15.9995 7.49998L11.9995 4.49998V6.71432C11.9995 6.91323 11.9205 7.104 11.7798 7.24465C11.6392 7.3853 11.4484 7.46432 11.2495 7.46432C11.0506 7.46432 10.8598 7.3853 10.7192 7.24465C10.5785 7.104 10.4995 6.91323 10.4995 6.71432H10.4995Z" fill="#1D1F21" style="fill: var(--ui-icon-primary-color);"/>
</svg>
