<svg  viewBox="0 0 24 24" fill="none" xmlns="http://www.w3.org/2000/svg" id="__THIS_ID_NEEDS_FOR_UI_ICON_COMPONENT__">
<path d="M17.6998 15.8999L12.4998 12L17.6998 8.09997C17.793 8.03011 17.8686 7.93953 17.9206 7.83539C17.9727 7.73125 17.9998 7.61641 17.9998 7.49998C17.9998 7.38354 17.9727 7.26871 17.9206 7.16457C17.8686 7.06043 17.793 6.96984 17.6998 6.89999L11.6998 2.39999C11.5884 2.31642 11.4559 2.26554 11.3172 2.25303C11.1785 2.24052 11.039 2.26689 10.9144 2.32918C10.7899 2.39147 10.6851 2.48721 10.6119 2.60569C10.5386 2.72417 10.4998 2.86069 10.4998 2.99997V10.5L5.69982 6.89998C5.54069 6.78064 5.34067 6.7294 5.14376 6.75753C4.94685 6.78566 4.76919 6.89087 4.64984 7.04999C4.5305 7.20912 4.47926 7.40914 4.50739 7.60605C4.53552 7.80296 4.64073 7.98062 4.79985 8.09996L9.99987 12L4.79985 15.8999C4.72106 15.959 4.65467 16.0331 4.60448 16.1178C4.5543 16.2026 4.52129 16.2964 4.50736 16.3939C4.49343 16.4914 4.49883 16.5907 4.52327 16.6861C4.54771 16.7815 4.59071 16.8712 4.6498 16.95C4.70889 17.0288 4.78292 17.0951 4.86767 17.1453C4.95242 17.1955 5.04623 17.2285 5.14373 17.2424C5.34065 17.2706 5.54068 17.2194 5.69982 17.1L10.4998 13.5V21C10.4998 21.1393 10.5386 21.2758 10.6119 21.3943C10.6851 21.5127 10.7898 21.6085 10.9144 21.6708C11.039 21.7331 11.1784 21.7594 11.3172 21.7469C11.4559 21.7344 11.5884 21.6836 11.6998 21.6L17.6998 17.1C17.793 17.0301 17.8686 16.9396 17.9207 16.8354C17.9727 16.7313 17.9998 16.6164 17.9998 16.5C17.9998 16.3835 17.9727 16.2687 17.9207 16.1645C17.8686 16.0604 17.793 15.9698 17.6998 15.8999ZM11.9998 4.49997L15.9998 7.49997L11.9998 10.5V4.49997ZM11.9998 19.5V13.5L15.9998 16.5L11.9998 19.5Z" fill="#1D1F21" style="fill: var(--ui-icon-primary-color);"/>
</svg>
