<svg  viewBox="0 0 24 24" fill="none" xmlns="http://www.w3.org/2000/svg" id="__THIS_ID_NEEDS_FOR_UI_ICON_COMPONENT__">
<path d="M15 5.25H6C5.60231 5.25045 5.22105 5.40864 4.93984 5.68984C4.65864 5.97105 4.50045 6.35231 4.5 6.75V21C4.5 21.1378 4.53798 21.2729 4.60974 21.3906C4.68151 21.5082 4.78431 21.6038 4.90684 21.6669C5.02938 21.7299 5.16691 21.758 5.30436 21.748C5.4418 21.738 5.57384 21.6904 5.68597 21.6103L10.4994 18.1717L15.3141 21.6103C15.4262 21.6904 15.5583 21.738 15.6957 21.748C15.8332 21.758 15.9707 21.7299 16.0932 21.6669C16.2157 21.6038 16.3185 21.5082 16.3903 21.3906C16.462 21.2729 16.5 21.1378 16.5 21V6.75C16.4995 6.35231 16.3414 5.97105 16.0602 5.68984C15.779 5.40864 15.3977 5.25045 15 5.25ZM15 19.5428L10.9352 16.6397C10.808 16.5488 10.6556 16.5 10.4993 16.5C10.3429 16.5 10.1905 16.5488 10.0633 16.6397L6 19.5425V6.75H15V19.5428ZM19.5 3.75V18C19.5 18.1989 19.421 18.3897 19.2803 18.5303C19.1397 18.671 18.9489 18.75 18.75 18.75C18.5511 18.75 18.3603 18.671 18.2197 18.5303C18.079 18.3897 18 18.1989 18 18V3.75H8.25C8.05109 3.75 7.86032 3.67098 7.71967 3.53033C7.57902 3.38968 7.5 3.19891 7.5 3C7.5 2.80109 7.57902 2.61032 7.71967 2.46967C7.86032 2.32902 8.05109 2.25 8.25 2.25H18C18.3977 2.25045 18.779 2.40864 19.0602 2.68984C19.3414 2.97105 19.4995 3.35231 19.5 3.75Z" fill="#1D1F21" style="fill: var(--ui-icon-primary-color);"/>
</svg>
