<svg  viewBox="0 0 24 24" fill="none" xmlns="http://www.w3.org/2000/svg" id="__THIS_ID_NEEDS_FOR_UI_ICON_COMPONENT__">
<path d="M19.4999 16.5048V3.75C19.4994 3.35231 19.3413 2.97105 19.06 2.68984C18.7788 2.40864 18.3976 2.25045 17.9999 2.25H5.99989C5.6022 2.25045 5.22094 2.40864 4.93973 2.68984C4.65852 2.97105 4.50034 3.35231 4.49989 3.75V16.505C4.49989 16.5066 4.49987 16.5081 4.49989 16.5097V21C4.49989 21.1306 4.53399 21.2589 4.59883 21.3723C4.66366 21.4857 4.75698 21.5802 4.86955 21.6464C4.98211 21.7126 5.11002 21.7483 5.24062 21.7499C5.37121 21.7516 5.49996 21.719 5.61413 21.6556L11.9992 18.1079L18.3857 21.6556C18.4999 21.719 18.6286 21.7515 18.7592 21.7499C18.8898 21.7483 19.0177 21.7126 19.1302 21.6464C19.2428 21.5801 19.3361 21.4857 19.4009 21.3723C19.4658 21.2589 19.4999 21.1306 19.4999 21V16.5097C19.4999 16.5081 19.4999 16.5064 19.4999 16.5048ZM17.9999 3.75V15.2255L12.3634 12.0944C12.252 12.0325 12.1266 12 11.9992 12C11.8717 12 11.7464 12.0325 11.635 12.0944L5.99989 15.2253V3.75H17.9999ZM12.3634 16.5944C12.252 16.5325 12.1266 16.5 11.9992 16.5C11.8717 16.5 11.7464 16.5325 11.635 16.5944L5.99989 19.7253V16.9413L11.9992 13.6079L17.9999 16.9413V19.7254L12.3634 16.5944Z" fill="#1D1F21" style="fill: var(--ui-icon-primary-color);"/>
</svg>
