<svg  viewBox="0 0 24 24" fill="none" xmlns="http://www.w3.org/2000/svg" id="__THIS_ID_NEEDS_FOR_UI_ICON_COMPONENT__">
<path d="M19.5 2.25H6.75C5.95463 2.2509 5.19209 2.56726 4.62968 3.12968C4.06726 3.69209 3.7509 4.45463 3.75 5.25V21.75C3.75 21.9489 3.82902 22.1397 3.96967 22.2803C4.11032 22.421 4.30109 22.5 4.5 22.5H18C18.1989 22.5 18.3897 22.421 18.5303 22.2803C18.671 22.1397 18.75 21.9489 18.75 21.75C18.75 21.5511 18.671 21.3603 18.5303 21.2197C18.3897 21.079 18.1989 21 18 21H5.25C5.25045 20.6023 5.40864 20.221 5.68984 19.9398C5.97105 19.6586 6.35231 19.5005 6.75 19.5H19.5C19.6989 19.5 19.8897 19.421 20.0303 19.2803C20.171 19.1397 20.25 18.9489 20.25 18.75V3C20.25 2.80109 20.171 2.61033 20.0303 2.46968C19.8897 2.32903 19.6989 2.25001 19.5 2.25ZM18.75 18H6.75C6.22321 17.9994 5.70565 18.1383 5.25 18.4026V5.25C5.25045 4.85231 5.40864 4.47105 5.68984 4.18984C5.97105 3.90864 6.35231 3.75045 6.75 3.75H18.75V18Z" fill="#1D1F21" style="fill: var(--ui-icon-primary-color);"/>
</svg>
