<svg  viewBox="0 0 24 24" fill="none" xmlns="http://www.w3.org/2000/svg" id="__THIS_ID_NEEDS_FOR_UI_ICON_COMPONENT__">
<path d="M5.25 21.75C5.15151 21.75 5.05398 21.7306 4.96298 21.6929C4.87198 21.6552 4.7893 21.6 4.71965 21.5303C4.65 21.4607 4.59476 21.378 4.55707 21.287C4.51938 21.196 4.49999 21.0985 4.5 21V3.75C4.50045 3.35231 4.65864 2.97105 4.93984 2.68984C5.22105 2.40864 5.60231 2.25045 6 2.25H18C18.3977 2.25045 18.779 2.40864 19.0602 2.68984C19.3414 2.97105 19.4995 3.35231 19.5 3.75V21C19.5 21.1306 19.4659 21.2589 19.4011 21.3723C19.3362 21.4857 19.2429 21.5801 19.1303 21.6464C19.0178 21.7126 18.8899 21.7483 18.7593 21.7499C18.6287 21.7515 18.5 21.719 18.3858 21.6556L11.9994 18.1079L5.61424 21.6556C5.50283 21.7175 5.37747 21.75 5.25 21.75ZM11.9993 16.5C12.1268 16.5 12.2521 16.5325 12.3635 16.5944L18 19.7254V3.75H6V19.7253L11.6351 16.5944C11.7465 16.5325 11.8719 16.5 11.9993 16.5Z" fill="#1D1F21" style="fill: var(--ui-icon-primary-color);"/>
</svg>
