<svg  viewBox="0 0 24 24" fill="none" xmlns="http://www.w3.org/2000/svg" id="__THIS_ID_NEEDS_FOR_UI_ICON_COMPONENT__">
<path d="M19.4999 2.25H6.74994C5.95457 2.25091 5.19204 2.56727 4.62962 3.12968C4.06721 3.6921 3.75085 4.45463 3.74994 5.25V21.75C3.74995 21.9489 3.82897 22.1397 3.96962 22.2803C4.11027 22.421 4.30103 22.5 4.49994 22.5H17.9999C18.1989 22.5 18.3896 22.421 18.5303 22.2803C18.6709 22.1397 18.7499 21.9489 18.7499 21.75C18.7499 21.5511 18.6709 21.3603 18.5303 21.2197C18.3896 21.079 18.1989 21 17.9999 21H5.24994C5.25039 20.6023 5.40857 20.221 5.68978 19.9398C5.97099 19.6586 6.35225 19.5005 6.74994 19.5H19.4999C19.6988 19.5 19.8896 19.421 20.0303 19.2803C20.1709 19.1397 20.2499 18.9489 20.2499 18.75V3C20.2499 2.80109 20.1709 2.61033 20.0303 2.46968C19.8896 2.32903 19.6988 2.25001 19.4999 2.25ZM11.2502 3.75H15.7502V10.5002L13.9494 9.14997C13.8196 9.0526 13.6616 8.99997 13.4994 8.99998C13.3371 9 13.1792 9.05266 13.0494 9.15006L11.2502 10.4998L11.2502 3.75ZM18.7499 18H6.74994C6.22315 17.9993 5.70559 18.1383 5.24994 18.4026V5.25C5.25039 4.85231 5.40857 4.47105 5.68978 4.18984C5.97099 3.90864 6.35225 3.75045 6.74994 3.75H9.75021V12C9.75022 12.1393 9.78902 12.2758 9.86226 12.3943C9.93549 12.5128 10.0403 12.6085 10.1649 12.6708C10.2894 12.7331 10.4289 12.7595 10.5676 12.7469C10.7064 12.7344 10.8389 12.6835 10.9503 12.5999L13.4996 10.6875L16.0503 12.6C16.1617 12.6836 16.2942 12.7345 16.433 12.747C16.5717 12.7595 16.7111 12.7331 16.8357 12.6708C16.9603 12.6085 17.065 12.5128 17.1382 12.3943C17.2114 12.2758 17.2502 12.1393 17.2502 12V3.75H18.7499V18Z" fill="#1D1F21" style="fill: var(--ui-icon-primary-color);"/>
</svg>
