<svg  viewBox="0 0 24 24" fill="none" xmlns="http://www.w3.org/2000/svg" id="__THIS_ID_NEEDS_FOR_UI_ICON_COMPONENT__">
<path d="M21 4.5H15C14.4176 4.50004 13.8432 4.63587 13.3224 4.8967C12.8016 5.15754 12.3488 5.5362 12 6.00261C11.6512 5.5362 11.1984 5.15754 10.6776 4.8967C10.1568 4.63587 9.58244 4.50004 9 4.5H3C2.60231 4.50045 2.22105 4.65864 1.93984 4.93984C1.65864 5.22105 1.50045 5.60231 1.5 6V18C1.50045 18.3977 1.65864 18.779 1.93984 19.0602C2.22105 19.3414 2.60231 19.4995 3 19.5H9C9.59653 19.5007 10.1684 19.738 10.5902 20.1598C11.012 20.5816 11.2493 21.1535 11.25 21.75C11.25 21.9489 11.329 22.1397 11.4697 22.2803C11.6103 22.421 11.8011 22.5 12 22.5C12.1989 22.5 12.3897 22.421 12.5303 22.2803C12.671 22.1397 12.75 21.9489 12.75 21.75C12.7507 21.1535 12.988 20.5816 13.4098 20.1598C13.8316 19.738 14.4035 19.5007 15 19.5H21C21.3977 19.4995 21.779 19.3414 22.0602 19.0602C22.3414 18.779 22.4995 18.3977 22.5 18V6C22.4995 5.60231 22.3414 5.22105 22.0602 4.93984C21.779 4.65864 21.3977 4.50045 21 4.5ZM9 18L3.00005 18.0009L3 18V6H9C9.59653 6.00068 10.1684 6.23795 10.5902 6.65976C11.012 7.08157 11.2493 7.65347 11.25 8.25V18.7517C10.6018 18.2631 9.81181 17.9991 9 18ZM21 18H15C14.1881 17.9992 13.3982 18.2632 12.75 18.7521V8.25C12.7507 7.65347 12.988 7.08157 13.4098 6.65976C13.8316 6.23795 14.4035 6.00068 15 6H21V18Z" fill="#1D1F21" style="fill: var(--ui-icon-primary-color);"/>
</svg>
