<svg  viewBox="0 0 24 24" fill="none" xmlns="http://www.w3.org/2000/svg" id="__THIS_ID_NEEDS_FOR_UI_ICON_COMPONENT__">
<path d="M20.2507 6H16.5V5.25C16.4993 4.65347 16.262 4.08157 15.8402 3.65976C15.4184 3.23795 14.8465 3.00068 14.25 3H9.75C9.15347 3.00068 8.58157 3.23795 8.15976 3.65976C7.73795 4.08157 7.50068 4.65347 7.5 5.25V6H3.75073C3.35305 6.00045 2.97178 6.15864 2.69057 6.43984C2.40937 6.72105 2.25119 7.10231 2.25073 7.5V19.5C2.25119 19.8977 2.40937 20.279 2.69057 20.5602C2.97178 20.8414 3.35305 20.9995 3.75073 21H20.2507C20.6484 20.9995 21.0297 20.8414 21.3109 20.5602C21.5921 20.279 21.7503 19.8977 21.7507 19.5V7.5C21.7503 7.10231 21.5921 6.72105 21.3109 6.43984C21.0297 6.15864 20.6484 6.00045 20.2507 6ZM9 5.25C9.00023 5.05116 9.07932 4.86052 9.21992 4.71992C9.36052 4.57932 9.55116 4.50023 9.75 4.5H14.25C14.4488 4.50023 14.6395 4.57932 14.7801 4.71992C14.9207 4.86052 14.9998 5.05116 15 5.25V6H9V5.25ZM20.2507 7.5L20.251 11.4006C17.7193 12.7788 14.8826 13.5006 12 13.5C9.11812 13.5006 6.28202 12.7791 3.75073 11.4015V7.5H20.2507ZM20.2507 19.5H3.75073V13.091C6.31917 14.3474 9.14073 15.0003 12 15C14.86 15.0003 17.6822 14.3471 20.2512 13.09L20.2516 19.5L20.2507 19.5ZM10.125 11.25C10.125 11.0511 10.204 10.8603 10.3447 10.7197C10.4853 10.579 10.6761 10.5 10.875 10.5H13.125C13.3239 10.5 13.5147 10.579 13.6553 10.7197C13.796 10.8603 13.875 11.0511 13.875 11.25C13.875 11.4489 13.796 11.6397 13.6553 11.7803C13.5147 11.921 13.3239 12 13.125 12H10.875C10.6761 12 10.4853 11.921 10.3447 11.7803C10.204 11.6397 10.125 11.4489 10.125 11.25Z" fill="#1D1F21" style="fill: var(--ui-icon-primary-color);"/>
</svg>
