<svg  viewBox="0 0 24 24" fill="none" xmlns="http://www.w3.org/2000/svg" id="__THIS_ID_NEEDS_FOR_UI_ICON_COMPONENT__">
<path d="M12 8.25031C11.2583 8.25031 10.5333 8.47024 9.91658 8.8823C9.29989 9.29435 8.81925 9.88002 8.53542 10.5652C8.25159 11.2505 8.17733 12.0045 8.32202 12.7319C8.46672 13.4593 8.82387 14.1275 9.34832 14.652C9.87276 15.1764 10.5409 15.5336 11.2684 15.6783C11.9958 15.8229 12.7498 15.7487 13.435 15.4649C14.1203 15.181 14.7059 14.7004 15.118 14.0837C15.53 13.467 15.75 12.742 15.75 12.0003C15.7488 11.0061 15.3534 10.0529 14.6504 9.3499C13.9474 8.64689 12.9942 8.25144 12 8.25031ZM12 14.2503C11.555 14.2503 11.1199 14.1183 10.7499 13.8711C10.3799 13.6239 10.0915 13.2725 9.92124 12.8613C9.75094 12.4502 9.70638 11.9978 9.7932 11.5614C9.88002 11.1249 10.0943 10.724 10.409 10.4093C10.7236 10.0946 11.1246 9.88036 11.561 9.79354C11.9975 9.70672 12.4499 9.75128 12.861 9.92158C13.2721 10.0919 13.6235 10.3803 13.8708 10.7503C14.118 11.1203 14.25 11.5553 14.25 12.0003C14.2493 12.5968 14.012 13.1687 13.5902 13.5905C13.1684 14.0124 12.5965 14.2496 12 14.2503ZM6.47119 9.66507C6.00597 10.7649 5.87986 11.9786 6.109 13.1506C6.33815 14.3225 6.91212 15.3994 7.75732 16.243C7.89797 16.3836 7.97698 16.5744 7.97697 16.7733C7.97696 16.9722 7.89794 17.163 7.75728 17.3036C7.61661 17.4443 7.42584 17.5233 7.22692 17.5233C7.02801 17.5233 6.83724 17.4443 6.69659 17.3036C5.99949 16.6075 5.44646 15.7809 5.06913 14.8709C4.6918 13.9609 4.49759 12.9854 4.49759 12.0003C4.49759 11.0152 4.6918 10.0397 5.06913 9.12975C5.44646 8.21976 5.99949 7.39309 6.69659 6.69702C6.76623 6.62738 6.84891 6.57213 6.93991 6.53443C7.0309 6.49673 7.12843 6.47733 7.22692 6.47733C7.32542 6.47732 7.42295 6.49672 7.51395 6.5344C7.60494 6.57209 7.68763 6.62734 7.75728 6.69698C7.82692 6.76662 7.88217 6.8493 7.91987 6.94029C7.95757 7.03129 7.97697 7.12882 7.97697 7.22731C7.97698 7.3258 7.95758 7.42333 7.9199 7.51433C7.88221 7.60533 7.82696 7.68801 7.75732 7.75766C7.20922 8.30425 6.77243 8.95203 6.47119 9.66507ZM18.9103 14.9199C18.5339 15.8109 17.9882 16.6205 17.3033 17.3036C17.2337 17.3732 17.151 17.4285 17.06 17.4662C16.969 17.5039 16.8715 17.5233 16.773 17.5233C16.6745 17.5233 16.577 17.5039 16.486 17.4662C16.395 17.4285 16.3123 17.3733 16.2427 17.3036C16.173 17.234 16.1178 17.1513 16.0801 17.0603C16.0424 16.9693 16.023 16.8718 16.023 16.7733C16.023 16.6748 16.0424 16.5773 16.08 16.4863C16.1177 16.3953 16.173 16.3126 16.2426 16.243C16.8004 15.6862 17.243 15.0249 17.545 14.2969C17.8469 13.5689 18.0023 12.7885 18.0023 12.0003C18.0023 11.2122 17.8469 10.4318 17.545 9.70375C17.243 8.97575 16.8004 8.31444 16.2426 7.75766C16.173 7.68801 16.1177 7.60533 16.08 7.51433C16.0424 7.42333 16.023 7.3258 16.023 7.22731C16.023 7.12882 16.0424 7.03129 16.0801 6.94029C16.1178 6.8493 16.173 6.76662 16.2427 6.69698C16.3123 6.62734 16.395 6.57209 16.486 6.5344C16.577 6.49672 16.6745 6.47732 16.773 6.47733C16.8715 6.47733 16.969 6.49673 17.06 6.53443C17.151 6.57213 17.2337 6.62738 17.3033 6.69702C18.3581 7.75271 19.0744 9.0988 19.3606 10.5634C19.6468 12.0281 19.49 13.5448 18.9103 14.9199ZM5.10569 18.8946C5.17533 18.9642 5.23057 19.0469 5.26826 19.1379C5.30595 19.2289 5.32534 19.3265 5.32534 19.425C5.32533 19.5234 5.30593 19.621 5.26823 19.712C5.23054 19.803 5.17529 19.8856 5.10564 19.9553C5.03599 20.0249 4.95331 20.0802 4.86231 20.1179C4.77131 20.1555 4.67378 20.1749 4.57529 20.1749C4.47679 20.1749 4.37927 20.1555 4.28827 20.1178C4.19728 20.0801 4.1146 20.0249 4.04496 19.9552C2.99925 18.9112 2.16966 17.6712 1.60364 16.3062C1.03762 14.9412 0.746277 13.478 0.746277 12.0003C0.746277 10.5226 1.03762 9.05943 1.60364 7.69444C2.16966 6.32945 2.99925 5.08945 4.04496 4.04538C4.18573 3.90533 4.3763 3.82681 4.57488 3.82706C4.77346 3.82731 4.96384 3.9063 5.10426 4.04671C5.24468 4.18712 5.32369 4.37749 5.32396 4.57607C5.32422 4.77465 5.24573 4.96523 5.10568 5.10602C4.19925 6.0108 3.48014 7.08544 2.98949 8.26844C2.49884 9.45145 2.24629 10.7196 2.24629 12.0003C2.24629 13.281 2.49884 14.5492 2.98949 15.7322C3.48014 16.9152 4.19925 17.9898 5.10568 18.8946L5.10569 18.8946ZM23.25 12.0003C23.2518 13.4779 22.9616 14.9414 22.3961 16.3065C21.8307 17.6717 21.0011 18.9116 19.955 19.9552C19.8853 20.0249 19.8027 20.0801 19.7117 20.1178C19.6207 20.1555 19.5231 20.1749 19.4247 20.1749C19.3262 20.1749 19.2286 20.1555 19.1376 20.1179C19.0466 20.0802 18.9639 20.0249 18.8943 19.9553C18.8247 19.8856 18.7694 19.803 18.7317 19.712C18.694 19.621 18.6746 19.5234 18.6746 19.4249C18.6746 19.3265 18.694 19.2289 18.7317 19.1379C18.7694 19.0469 18.8246 18.9642 18.8943 18.8946C19.8007 17.9898 20.5198 16.9152 21.0104 15.7322C21.5011 14.5492 21.7536 13.281 21.7536 12.0003C21.7536 10.7196 21.5011 9.45145 21.0104 8.26844C20.5198 7.08544 19.8007 6.0108 18.8943 5.10602C18.8246 5.03637 18.7694 4.95369 18.7317 4.86269C18.694 4.77169 18.6746 4.67416 18.6746 4.57567C18.6746 4.47717 18.694 4.37965 18.7317 4.28865C18.7694 4.19766 18.8247 4.11498 18.8943 4.04534C18.9639 3.97569 19.0466 3.92045 19.1376 3.88276C19.2286 3.84507 19.3262 3.82568 19.4247 3.82568C19.5231 3.82569 19.6207 3.84509 19.7117 3.88279C19.8027 3.92048 19.8853 3.97573 19.955 4.04538C21.0011 5.08897 21.8307 6.32896 22.3961 7.69411C22.9616 9.05926 23.2518 10.5227 23.25 12.0003Z" fill="#1D1F21" style="fill: var(--ui-icon-primary-color);"/>
</svg>
