<svg  viewBox="0 0 24 24" fill="none" xmlns="http://www.w3.org/2000/svg" id="__THIS_ID_NEEDS_FOR_UI_ICON_COMPONENT__">
<path d="M20.2507 3.75H3.75073C3.35305 3.75045 2.97178 3.90864 2.69057 4.18984C2.40937 4.47105 2.25119 4.85231 2.25073 5.25V8.98549C2.25064 8.99039 2.25 8.9951 2.25 9C2.25 9.0049 2.25064 9.00961 2.25073 9.01451V18.75C2.25119 19.1477 2.40937 19.529 2.69057 19.8102C2.97178 20.0914 3.35305 20.2495 3.75073 20.25H20.2507C20.6484 20.2495 21.0297 20.0914 21.3109 19.8102C21.5921 19.529 21.7503 19.1477 21.7507 18.75V5.25C21.7503 4.85231 21.5921 4.47105 21.3109 4.18984C21.0297 3.90864 20.6484 3.75045 20.2507 3.75ZM20.2507 5.25L20.251 8.25H3.75073V5.25H20.2507ZM20.2507 18.75H3.75073V9.75H20.2511L20.2517 18.75L20.2507 18.75Z" fill="#1D1F21" style="fill: var(--ui-icon-primary-color);"/>
</svg>
