<svg  viewBox="0 0 24 24" fill="none" xmlns="http://www.w3.org/2000/svg" id="__THIS_ID_NEEDS_FOR_UI_ICON_COMPONENT__">
<path d="M17.2507 6.75H3.75073C3.35305 6.75045 2.97178 6.90864 2.69057 7.18984C2.40937 7.47105 2.25119 7.85231 2.25073 8.25V18.75C2.25119 19.1477 2.40937 19.529 2.69057 19.8102C2.97178 20.0914 3.35305 20.2495 3.75073 20.25H17.2507C17.6484 20.2495 18.0297 20.0914 18.3109 19.8102C18.5921 19.529 18.7503 19.1477 18.7507 18.75V8.25C18.7503 7.85231 18.5921 7.47105 18.3109 7.18984C18.0297 6.90864 17.6484 6.75045 17.2507 6.75ZM17.2507 18.75H3.75073V8.25H17.2507L17.2517 18.75L17.2507 18.75ZM21.7507 5.25V16.5C21.7507 16.6989 21.6717 16.8897 21.5311 17.0303C21.3904 17.171 21.1996 17.25 21.0007 17.25C20.8018 17.25 20.6111 17.171 20.4704 17.0303C20.3298 16.8897 20.2507 16.6989 20.2507 16.5V5.25H6.00073C5.80182 5.25 5.61105 5.17098 5.4704 5.03033C5.32975 4.88968 5.25073 4.69891 5.25073 4.5C5.25073 4.30109 5.32975 4.11032 5.4704 3.96967C5.61105 3.82902 5.80182 3.75 6.00073 3.75H20.2507C20.6484 3.75045 21.0297 3.90864 21.3109 4.18984C21.5921 4.47105 21.7503 4.85231 21.7507 5.25Z" fill="#1D1F21" style="fill: var(--ui-icon-primary-color);"/>
</svg>
