<svg  viewBox="0 0 24 24" fill="none" xmlns="http://www.w3.org/2000/svg" id="__THIS_ID_NEEDS_FOR_UI_ICON_COMPONENT__">
<path d="M21.7495 9.74829V20.9983C21.7495 21.1972 21.6704 21.388 21.5298 21.5286C21.3891 21.6693 21.1984 21.7483 20.9995 21.7483C20.8005 21.7483 20.6098 21.6693 20.4691 21.5286C20.3285 21.388 20.2495 21.1972 20.2495 20.9983V9.74829H14.2495V20.9983C14.2495 21.1972 14.1704 21.388 14.0298 21.5286C13.8891 21.6693 13.6984 21.7483 13.4995 21.7483C13.3005 21.7483 13.1098 21.6693 12.9691 21.5286C12.8285 21.388 12.7495 21.1972 12.7495 20.9983V3.74829H3.74945V20.9983C3.74945 21.1972 3.67043 21.388 3.52978 21.5286C3.38913 21.6693 3.19836 21.7483 2.99945 21.7483C2.80054 21.7483 2.60977 21.6693 2.46912 21.5286C2.32847 21.388 2.24945 21.1972 2.24945 20.9983V3.74829C2.24991 3.35061 2.40809 2.96934 2.68929 2.68813C2.9705 2.40693 3.35177 2.24875 3.74945 2.24829H12.7495C13.1471 2.24875 13.5284 2.40693 13.8096 2.68813C14.0908 2.96934 14.249 3.35061 14.2495 3.74829V8.24829H20.2495C20.6471 8.24875 21.0284 8.40693 21.3096 8.68813C21.5908 8.96934 21.749 9.35061 21.7495 9.74829ZM5.99945 7.49829H8.99945C9.19836 7.49829 9.38913 7.41927 9.52978 7.27862C9.67043 7.13797 9.74945 6.9472 9.74945 6.74829C9.74945 6.54938 9.67043 6.35861 9.52978 6.21796C9.38913 6.07731 9.19836 5.99829 8.99945 5.99829H5.99945C5.80054 5.99829 5.60977 6.07731 5.46912 6.21796C5.32847 6.35861 5.24945 6.54938 5.24945 6.74829C5.24945 6.9472 5.32847 7.13797 5.46912 7.27862C5.60977 7.41927 5.80054 7.49829 5.99945 7.49829ZM10.4995 13.4983H7.49945C7.30054 13.4983 7.10977 13.5773 6.96912 13.718C6.82847 13.8586 6.74945 14.0494 6.74945 14.2483C6.74945 14.4472 6.82847 14.638 6.96912 14.7786C7.10977 14.9193 7.30054 14.9983 7.49945 14.9983H10.4995C10.6984 14.9983 10.8891 14.9193 11.0298 14.7786C11.1704 14.638 11.2495 14.4472 11.2495 14.2483C11.2495 14.0494 11.1704 13.8586 11.0298 13.718C10.8891 13.5773 10.6984 13.4983 10.4995 13.4983ZM8.99945 17.2483H5.99945C5.80054 17.2483 5.60977 17.3273 5.46912 17.468C5.32847 17.6086 5.24945 17.7994 5.24945 17.9983C5.24945 18.1972 5.32847 18.388 5.46912 18.5286C5.60977 18.6693 5.80054 18.7483 5.99945 18.7483H8.99945C9.19836 18.7483 9.38913 18.6693 9.52978 18.5286C9.67043 18.388 9.74945 18.1972 9.74945 17.9983C9.74945 17.7994 9.67043 17.6086 9.52978 17.468C9.38913 17.3273 9.19836 17.2483 8.99945 17.2483ZM17.9995 15.7483H16.4995C16.3005 15.7483 16.1098 15.8273 15.9691 15.968C15.8285 16.1086 15.7495 16.2994 15.7495 16.4983C15.7495 16.6972 15.8285 16.888 15.9691 17.0286C16.1098 17.1693 16.3005 17.2483 16.4995 17.2483H17.9995C18.1984 17.2483 18.3891 17.1693 18.5298 17.0286C18.6704 16.888 18.7495 16.6972 18.7495 16.4983C18.7495 16.2994 18.6704 16.1086 18.5298 15.968C18.3891 15.8273 18.1984 15.7483 17.9995 15.7483ZM17.9995 11.9983H16.4995C16.3005 11.9983 16.1098 12.0773 15.9691 12.218C15.8285 12.3586 15.7495 12.5494 15.7495 12.7483C15.7495 12.9472 15.8285 13.138 15.9691 13.2786C16.1098 13.4193 16.3005 13.4983 16.4995 13.4983H17.9995C18.1984 13.4983 18.3891 13.4193 18.5298 13.2786C18.6704 13.138 18.7495 12.9472 18.7495 12.7483C18.7495 12.5494 18.6704 12.3586 18.5298 12.218C18.3891 12.0773 18.1984 11.9983 17.9995 11.9983Z" fill="#1D1F21" style="fill: var(--ui-icon-primary-color);"/>
</svg>
