<svg  viewBox="0 0 24 24" fill="none" xmlns="http://www.w3.org/2000/svg" id="__THIS_ID_NEEDS_FOR_UI_ICON_COMPONENT__">
<path d="M17.8125 3H6.1875C5.39213 3.00091 4.6296 3.31727 4.06718 3.87968C3.50477 4.4421 3.18841 5.20463 3.1875 6V20.25C3.18795 20.6477 3.34614 21.029 3.62734 21.3102C3.90855 21.5914 4.28981 21.7495 4.6875 21.75H6.9375C7.33519 21.7495 7.71645 21.5914 7.99766 21.3102C8.27886 21.029 8.43705 20.6477 8.4375 20.25V18.75H15.5625V20.25C15.563 20.6477 15.7211 21.029 16.0023 21.3102C16.2835 21.5914 16.6648 21.7495 17.0625 21.75H19.3125C19.7102 21.7495 20.0915 21.5914 20.3727 21.3102C20.6539 21.029 20.812 20.6477 20.8125 20.25V6C20.8116 5.20463 20.4952 4.4421 19.9328 3.87968C19.3704 3.31727 18.6079 3.00091 17.8125 3ZM4.6875 17.25V12H19.3125V17.25H4.6875ZM4.6875 7.5H19.3125V10.5H4.6875V7.5ZM6.1875 4.5H17.8125C18.2102 4.50045 18.5915 4.65864 18.8727 4.93984C19.1539 5.22105 19.312 5.60231 19.3125 6H4.6875C4.68795 5.60231 4.84614 5.22105 5.12734 4.93984C5.40855 4.65864 5.78981 4.50045 6.1875 4.5ZM6.9375 20.25H4.6875V18.75H6.9375V20.25ZM17.0625 20.25V18.75H19.3125V20.25H17.0625ZM8.8125 14.625C8.8125 14.8475 8.74652 15.065 8.6229 15.25C8.49929 15.435 8.32359 15.5792 8.11802 15.6644C7.91245 15.7495 7.68625 15.7718 7.46802 15.7284C7.24979 15.685 7.04934 15.5778 6.892 15.4205C6.73467 15.2632 6.62752 15.0627 6.58412 14.8445C6.54071 14.6262 6.56299 14.4 6.64814 14.1945C6.73328 13.9889 6.87748 13.8132 7.06248 13.6896C7.24749 13.566 7.465 13.5 7.6875 13.5C7.98587 13.5 8.27202 13.6185 8.483 13.8295C8.69397 14.0405 8.8125 14.3266 8.8125 14.625ZM17.4375 14.625C17.4375 14.8475 17.3715 15.065 17.2479 15.25C17.1243 15.435 16.9486 15.5792 16.743 15.6644C16.5375 15.7495 16.3113 15.7718 16.093 15.7284C15.8748 15.685 15.6743 15.5778 15.517 15.4205C15.3597 15.2632 15.2525 15.0627 15.2091 14.8445C15.1657 14.6262 15.188 14.4 15.2731 14.1945C15.3583 13.9889 15.5025 13.8132 15.6875 13.6896C15.8725 13.566 16.09 13.5 16.3125 13.5C16.6109 13.5 16.897 13.6185 17.108 13.8295C17.319 14.0405 17.4375 14.3266 17.4375 14.625Z" fill="#1D1F21" style="fill: var(--ui-icon-primary-color);"/>
</svg>
