<svg  viewBox="0 0 24 24" fill="none" xmlns="http://www.w3.org/2000/svg" id="__THIS_ID_NEEDS_FOR_UI_ICON_COMPONENT__">
<path d="M7.5 11.25H16.5C16.5985 11.25 16.696 11.2306 16.787 11.1929C16.878 11.1552 16.9607 11.1 17.0303 11.0303C17.1 10.9607 17.1552 10.878 17.1929 10.787C17.2306 10.696 17.25 10.5985 17.25 10.5V6C17.25 5.90151 17.2306 5.80398 17.1929 5.71298C17.1552 5.62199 17.1 5.53931 17.0303 5.46966C16.9607 5.40002 16.878 5.34477 16.787 5.30708C16.696 5.26939 16.5985 5.25 16.5 5.25H7.5C7.40151 5.25 7.30398 5.26939 7.21298 5.30708C7.12199 5.34477 7.03931 5.40002 6.96966 5.46966C6.90002 5.53931 6.84477 5.62199 6.80708 5.71298C6.76939 5.80398 6.75 5.90151 6.75 6V10.5C6.75 10.5985 6.76939 10.696 6.80708 10.787C6.84477 10.878 6.90002 10.9607 6.96966 11.0303C7.03931 11.1 7.12199 11.1552 7.21298 11.1929C7.30398 11.2306 7.40151 11.25 7.5 11.25ZM8.25 6.75H15.75V9.75H8.25V6.75ZM18.75 2.25073H5.25C4.85231 2.25119 4.47105 2.40937 4.18984 2.69057C3.90864 2.97178 3.75045 3.35305 3.75 3.75073V20.2507C3.75045 20.6484 3.90864 21.0297 4.18984 21.3109C4.47105 21.5921 4.85231 21.7503 5.25 21.7507H18.75C19.1477 21.7503 19.529 21.5921 19.8102 21.3109C20.0914 21.0297 20.2495 20.6484 20.25 20.2507V3.75073C20.2495 3.35305 20.0914 2.97178 19.8102 2.69057C19.529 2.40937 19.1477 2.25119 18.75 2.25073ZM18.75 20.2507L5.25005 20.2517L5.25 20.2507V3.75073H18.75V20.2507ZM13.125 13.875C13.125 14.0975 13.059 14.315 12.9354 14.5C12.8118 14.685 12.6361 14.8292 12.4305 14.9144C12.225 14.9995 11.9988 15.0218 11.7805 14.9784C11.5623 14.935 11.3618 14.8278 11.2045 14.6705C11.0472 14.5132 10.94 14.3127 10.8966 14.0945C10.8532 13.8762 10.8755 13.65 10.9606 13.4445C11.0458 13.2389 11.19 13.0632 11.375 12.9396C11.56 12.816 11.7775 12.75 12 12.75C12.2983 12.7503 12.5842 12.869 12.7951 13.0799C13.006 13.2908 13.1247 13.5767 13.125 13.875ZM13.125 17.625C13.125 17.8475 13.059 18.065 12.9354 18.25C12.8118 18.435 12.6361 18.5792 12.4305 18.6644C12.225 18.7495 11.9988 18.7718 11.7805 18.7284C11.5623 18.685 11.3618 18.5778 11.2045 18.4205C11.0472 18.2632 10.94 18.0627 10.8966 17.8445C10.8532 17.6262 10.8755 17.4 10.9606 17.1945C11.0458 16.9889 11.19 16.8132 11.375 16.6896C11.56 16.566 11.7775 16.5 12 16.5C12.2983 16.5003 12.5842 16.619 12.7951 16.8299C13.006 17.0408 13.1247 17.3267 13.125 17.625ZM9.375 13.875C9.375 14.0975 9.30902 14.315 9.1854 14.5C9.06179 14.685 8.88609 14.8292 8.68052 14.9144C8.47495 14.9995 8.24875 15.0218 8.03052 14.9784C7.81229 14.935 7.61184 14.8278 7.4545 14.6705C7.29717 14.5132 7.19002 14.3127 7.14662 14.0945C7.10321 13.8762 7.12549 13.65 7.21064 13.4445C7.29578 13.2389 7.43998 13.0632 7.62498 12.9396C7.80999 12.816 8.0275 12.75 8.25 12.75C8.54826 12.7503 8.83421 12.869 9.04512 13.0799C9.25602 13.2908 9.37466 13.5767 9.375 13.875ZM9.375 17.625C9.375 17.8475 9.30902 18.065 9.1854 18.25C9.06179 18.435 8.88609 18.5792 8.68052 18.6644C8.47495 18.7495 8.24875 18.7718 8.03052 18.7284C7.81229 18.685 7.61184 18.5778 7.4545 18.4205C7.29717 18.2632 7.19002 18.0627 7.14662 17.8445C7.10321 17.6262 7.12549 17.4 7.21064 17.1945C7.29578 16.9889 7.43998 16.8132 7.62498 16.6896C7.80999 16.566 8.0275 16.5 8.25 16.5C8.54826 16.5003 8.83421 16.619 9.04512 16.8299C9.25602 17.0408 9.37466 17.3267 9.375 17.625ZM16.875 13.875C16.875 14.0975 16.809 14.315 16.6854 14.5C16.5618 14.685 16.3861 14.8292 16.1805 14.9144C15.975 14.9995 15.7488 15.0218 15.5305 14.9784C15.3123 14.935 15.1118 14.8278 14.9545 14.6705C14.7972 14.5132 14.69 14.3127 14.6466 14.0945C14.6032 13.8762 14.6255 13.65 14.7106 13.4445C14.7958 13.2389 14.94 13.0632 15.125 12.9396C15.31 12.816 15.5275 12.75 15.75 12.75C16.0483 12.7503 16.3342 12.869 16.5451 13.0799C16.756 13.2908 16.8747 13.5767 16.875 13.875ZM16.875 17.625C16.875 17.8475 16.809 18.065 16.6854 18.25C16.5618 18.435 16.3861 18.5792 16.1805 18.6644C15.975 18.7495 15.7488 18.7718 15.5305 18.7284C15.3123 18.685 15.1118 18.5778 14.9545 18.4205C14.7972 18.2632 14.69 18.0627 14.6466 17.8445C14.6032 17.6262 14.6255 17.4 14.7106 17.1945C14.7958 16.9889 14.94 16.8132 15.125 16.6896C15.31 16.566 15.5275 16.5 15.75 16.5C16.0483 16.5003 16.3342 16.619 16.5451 16.8299C16.756 17.0408 16.8747 17.3267 16.875 17.625Z" fill="#1D1F21" style="fill: var(--ui-icon-primary-color);"/>
</svg>
