<svg  viewBox="0 0 24 24" fill="none" xmlns="http://www.w3.org/2000/svg" id="__THIS_ID_NEEDS_FOR_UI_ICON_COMPONENT__">
<path d="M19.5 3H17.25V2.25C17.25 2.05109 17.171 1.86032 17.0303 1.71967C16.8897 1.57902 16.6989 1.5 16.5 1.5C16.3011 1.5 16.1103 1.57902 15.9697 1.71967C15.829 1.86032 15.75 2.05109 15.75 2.25V3H8.25V2.25C8.25 2.05109 8.17098 1.86032 8.03033 1.71967C7.88968 1.57902 7.69891 1.5 7.5 1.5C7.30109 1.5 7.11032 1.57902 6.96967 1.71967C6.82902 1.86032 6.75 2.05109 6.75 2.25V3H4.5C4.10231 3.00045 3.72105 3.15864 3.43984 3.43984C3.15864 3.72105 3.00045 4.10231 3 4.5V19.5C3.00045 19.8977 3.15864 20.279 3.43984 20.5602C3.72105 20.8414 4.10231 20.9995 4.5 21H19.5C19.8977 20.9995 20.279 20.8414 20.5602 20.5602C20.8414 20.279 20.9995 19.8977 21 19.5V4.5C20.9995 4.10231 20.8414 3.72105 20.5602 3.43984C20.279 3.15864 19.8977 3.00045 19.5 3ZM4.5 4.5H6.75V5.25C6.75 5.44891 6.82902 5.63968 6.96967 5.78033C7.11032 5.92098 7.30109 6 7.5 6C7.69891 6 7.88968 5.92098 8.03033 5.78033C8.17098 5.63968 8.25 5.44891 8.25 5.25V4.5H15.75V5.25C15.75 5.44891 15.829 5.63968 15.9697 5.78033C16.1103 5.92098 16.3011 6 16.5 6C16.6989 6 16.8897 5.92098 17.0303 5.78033C17.171 5.63968 17.25 5.44891 17.25 5.25V4.5H19.5L19.5002 7.5H4.5V4.5ZM19.5 19.5H4.5V9H19.5003L19.5009 19.5H19.5ZM12 15.3747C12 15.8196 11.8681 16.2545 11.621 16.6245C11.3739 16.9944 11.0226 17.2828 10.6117 17.4532C10.2007 17.6236 9.74841 17.6683 9.31203 17.5817C8.87564 17.4951 8.47473 17.281 8.15996 16.9666C8.01922 16.8261 7.94009 16.6354 7.93998 16.4364C7.93986 16.2375 8.01877 16.0467 8.15934 15.906C8.29991 15.7652 8.49063 15.6861 8.68954 15.686C8.88845 15.6859 9.07927 15.7648 9.22 15.9054C9.30725 15.9925 9.41465 16.0568 9.53267 16.0925C9.6507 16.1283 9.77572 16.1343 9.89666 16.1102C10.0176 16.0861 10.1307 16.0326 10.226 15.9543C10.3213 15.876 10.3958 15.7755 10.443 15.6615C10.4902 15.5476 10.5085 15.4238 10.4964 15.301C10.4843 15.1783 10.4421 15.0605 10.3735 14.9579C10.305 14.8554 10.2123 14.7714 10.1035 14.7133C9.99473 14.6551 9.87332 14.6247 9.75 14.6247C9.60873 14.6247 9.47033 14.5848 9.35073 14.5096C9.23114 14.4344 9.13522 14.327 9.07402 14.1996C9.01282 14.0723 8.98883 13.9303 9.00481 13.7899C9.02078 13.6496 9.07608 13.5166 9.16434 13.4062L9.68952 12.7497H8.625C8.42609 12.7497 8.23532 12.6707 8.09467 12.5301C7.95402 12.3894 7.875 12.1986 7.875 11.9997C7.875 11.8008 7.95402 11.61 8.09467 11.4694C8.23532 11.3287 8.42609 11.2497 8.625 11.2497H11.25C11.3913 11.2497 11.5297 11.2896 11.6493 11.3648C11.7689 11.44 11.8648 11.5475 11.926 11.6748C11.9872 11.8021 12.0112 11.9442 11.9952 12.0845C11.9792 12.2249 11.9239 12.3579 11.8357 12.4682L11.0042 13.5075C11.3106 13.7132 11.5617 13.9911 11.7354 14.3167C11.909 14.6423 11.9999 15.0057 12 15.3747ZM15.75 11.9997V16.8747C15.75 17.0736 15.671 17.2644 15.5303 17.4051C15.3897 17.5457 15.1989 17.6247 15 17.6247C14.8011 17.6247 14.6103 17.5457 14.4697 17.4051C14.329 17.2644 14.25 17.0736 14.25 16.8747V13.4997L13.95 13.7248C13.7908 13.8441 13.5908 13.8953 13.3939 13.8672C13.197 13.8391 13.0193 13.7338 12.9 13.5747C12.7806 13.4156 12.7294 13.2155 12.7575 13.0186C12.7857 12.8217 12.8909 12.644 13.05 12.5247L14.55 11.3997C14.6615 11.3161 14.7939 11.2653 14.9327 11.2528C15.0714 11.2403 15.2108 11.2666 15.3354 11.3289C15.46 11.3912 15.5648 11.487 15.638 11.6054C15.7112 11.7239 15.75 11.8604 15.75 11.9997Z" fill="#1D1F21" style="fill: var(--ui-icon-primary-color);"/>
</svg>
