<svg  viewBox="0 0 24 24" fill="none" xmlns="http://www.w3.org/2000/svg" id="__THIS_ID_NEEDS_FOR_UI_ICON_COMPONENT__">
<path d="M19.5 3H17.25V2.25C17.25 2.05109 17.171 1.86032 17.0303 1.71967C16.8897 1.57902 16.6989 1.5 16.5 1.5C16.3011 1.5 16.1103 1.57902 15.9697 1.71967C15.829 1.86032 15.75 2.05109 15.75 2.25V3H8.25V2.25C8.25 2.05109 8.17098 1.86032 8.03033 1.71967C7.88968 1.57902 7.69891 1.5 7.5 1.5C7.30109 1.5 7.11032 1.57902 6.96967 1.71967C6.82902 1.86032 6.75 2.05109 6.75 2.25V3H4.5C4.10231 3.00045 3.72105 3.15864 3.43984 3.43984C3.15864 3.72105 3.00045 4.10231 3 4.5V19.5C3.00045 19.8977 3.15864 20.279 3.43984 20.5602C3.72105 20.8414 4.10231 20.9995 4.5 21H19.5C19.8977 20.9995 20.279 20.8414 20.5602 20.5602C20.8414 20.279 20.9995 19.8977 21 19.5V4.5C20.9995 4.10231 20.8414 3.72105 20.5602 3.43984C20.279 3.15864 19.8977 3.00045 19.5 3ZM6.75 4.5V5.25C6.75 5.44891 6.82902 5.63968 6.96967 5.78033C7.11032 5.92098 7.30109 6 7.5 6C7.69891 6 7.88968 5.92098 8.03033 5.78033C8.17098 5.63968 8.25 5.44891 8.25 5.25V4.5H15.75V5.25C15.75 5.44891 15.829 5.63968 15.9697 5.78033C16.1103 5.92098 16.3011 6 16.5 6C16.6989 6 16.8897 5.92098 17.0303 5.78033C17.171 5.63968 17.25 5.44891 17.25 5.25V4.5H19.5L19.5002 7.5H4.5V4.5H6.75ZM19.5 19.5H4.5V9H19.5003L19.5009 19.5H19.5ZM14.7803 12.5304L13.0607 14.25L14.7803 15.9696C14.921 16.1103 15 16.3011 15 16.5C15 16.6989 14.921 16.8897 14.7804 17.0303C14.6397 17.171 14.449 17.25 14.25 17.25C14.0511 17.25 13.8603 17.171 13.7197 17.0304L12 15.3107L10.2803 17.0304C10.1397 17.171 9.94888 17.25 9.74997 17.25C9.55105 17.25 9.36028 17.171 9.21964 17.0303C9.07899 16.8897 8.99997 16.6989 8.99998 16.5C8.99999 16.3011 9.07902 16.1103 9.21968 15.9696L10.9393 14.25L9.21968 12.5304C9.15003 12.4607 9.09478 12.378 9.05709 12.287C9.01939 12.1961 8.99999 12.0985 8.99998 12C8.99997 11.8011 9.07899 11.6103 9.21964 11.4697C9.36028 11.329 9.55105 11.25 9.74997 11.25C9.94888 11.25 10.1397 11.329 10.2803 11.4696L12 13.1893L13.7197 11.4696C13.7893 11.4 13.872 11.3447 13.963 11.3071C14.054 11.2694 14.1515 11.25 14.25 11.25C14.3485 11.25 14.4461 11.2694 14.537 11.3071C14.628 11.3448 14.7107 11.4 14.7804 11.4697C14.85 11.5393 14.9053 11.622 14.9429 11.713C14.9806 11.804 15 11.9015 15 12C15 12.0985 14.9806 12.1961 14.9429 12.287C14.9052 12.378 14.85 12.4607 14.7803 12.5304Z" fill="#1D1F21" style="fill: var(--ui-icon-primary-color);"/>
</svg>
