<svg  viewBox="0 0 24 24" fill="none" xmlns="http://www.w3.org/2000/svg" id="__THIS_ID_NEEDS_FOR_UI_ICON_COMPONENT__">
<path d="M3.69135 1.74528C3.55754 1.59809 3.37075 1.51008 3.17206 1.50061C2.97336 1.49114 2.77904 1.56099 2.63185 1.69479C2.48466 1.82859 2.39665 2.01539 2.38718 2.21408C2.37771 2.41277 2.44756 2.60709 2.58136 2.75428L4.84999 5.24978H4.49994C3.90341 5.25046 3.33151 5.48774 2.9097 5.90955C2.48789 6.33135 2.25062 6.90325 2.24994 7.49978V17.9998C2.25062 18.5963 2.48789 19.1682 2.9097 19.59C3.33151 20.0118 3.90341 20.2491 4.49994 20.2498H18.4864L20.3086 22.2543C20.4424 22.4015 20.6292 22.4895 20.8279 22.499C21.0266 22.5084 21.2209 22.4386 21.3681 22.3048C21.5153 22.171 21.6033 21.9842 21.6128 21.7855C21.6223 21.5868 21.5524 21.3925 21.4186 21.2453L3.69135 1.74528ZM9.89784 10.8024L13.3661 14.6175C12.8452 14.9347 12.23 15.0607 11.6263 14.9737C11.0226 14.8868 10.4681 14.5924 10.0578 14.1411C9.64749 13.6898 9.40713 13.1097 9.37794 12.5005C9.34876 11.8912 9.53258 11.2909 9.89784 10.8024ZM4.49994 18.7498C4.3011 18.7496 4.11046 18.6705 3.96986 18.5299C3.82926 18.3893 3.75017 18.1986 3.74994 17.9998V7.49978C3.75017 7.30094 3.82926 7.11031 3.96986 6.9697C4.11046 6.8291 4.3011 6.75001 4.49994 6.74978H6.21362L8.87744 9.68002C8.36113 10.2781 8.02746 11.0118 7.9161 11.794C7.80475 12.5762 7.92041 13.374 8.24933 14.0923C8.57824 14.8107 9.10656 15.4195 9.77146 15.8463C10.4364 16.273 11.2099 16.4999 11.9999 16.4998C12.8545 16.498 13.6876 16.2321 14.3851 15.7384L17.1227 18.7498H4.49994ZM21.7499 7.49978V17.44C21.7499 17.6389 21.6709 17.8297 21.5303 17.9703C21.3896 18.111 21.1989 18.19 20.9999 18.19C20.801 18.19 20.6103 18.111 20.4696 17.9703C20.329 17.8297 20.2499 17.6389 20.2499 17.44V7.49978C20.2497 7.30094 20.1706 7.11031 20.03 6.9697C19.8894 6.8291 19.6988 6.75001 19.4999 6.74978H16.4994C16.3759 6.74978 16.2544 6.7193 16.1455 6.66104C16.0366 6.60277 15.9438 6.51853 15.8754 6.4158L14.598 4.49978H9.39764C9.27709 4.65099 9.1028 4.74979 8.91114 4.77556C8.71949 4.80133 8.52528 4.75207 8.36908 4.63808C8.21287 4.52409 8.10672 4.35416 8.07281 4.16378C8.03889 3.9734 8.07981 3.77727 8.18704 3.61634L8.37528 3.33386C8.44376 3.23109 8.53656 3.14683 8.64543 3.08855C8.75431 3.03027 8.8759 2.99978 8.99939 2.99978H14.9994C15.1229 2.99978 15.2444 3.03026 15.3533 3.08853C15.4621 3.14679 15.5549 3.23103 15.6234 3.33377L16.9008 5.24978H19.4999C20.0965 5.25046 20.6684 5.48774 21.0902 5.90955C21.512 6.33135 21.7493 6.90325 21.7499 7.49978Z" fill="#1D1F21" style="fill: var(--ui-icon-primary-color);"/>
</svg>
