<svg  viewBox="0 0 24 24" fill="none" xmlns="http://www.w3.org/2000/svg" id="__THIS_ID_NEEDS_FOR_UI_ICON_COMPONENT__">
<path d="M18.8943 5.10591C17.989 4.20013 16.9141 3.48156 15.7311 2.99124C14.5481 2.50092 13.28 2.24847 11.9994 2.24829C10.7188 2.24811 9.4507 2.50022 8.26753 2.99021C7.08437 3.4802 6.00932 4.19847 5.10378 5.104C4.19825 6.00953 3.47998 7.08458 2.98999 8.26775C2.50001 9.45091 2.2479 10.719 2.24808 11.9996C2.24825 13.2802 2.50071 14.5483 2.99103 15.7313C3.48134 16.9143 4.19991 17.9892 5.10569 18.8945C6.01097 19.8003 7.08582 20.5188 8.26886 21.0091C9.45189 21.4995 10.7199 21.7519 12.0005 21.7521C13.2812 21.7523 14.5493 21.5002 15.7324 21.0102C16.9156 20.5202 17.9906 19.8019 18.8962 18.8964C19.8017 17.9909 20.52 16.9158 21.01 15.7326C21.5 14.5495 21.7521 13.2814 21.7519 12.0008C21.7517 10.7201 21.4992 9.4521 21.0089 8.26907C20.5186 7.08604 19.8 6.01119 18.8943 5.10591ZM17.8336 17.8338C16.6801 18.9863 15.2107 19.7709 13.6114 20.0885C12.012 20.406 10.3543 20.2423 8.848 19.6179C7.34166 18.9935 6.05424 17.9366 5.14849 16.5807C4.24273 15.2248 3.7593 13.6308 3.7593 12.0002C3.7593 10.3696 4.24273 8.77559 5.14849 7.41968C6.05424 6.06377 7.34166 5.00684 8.848 4.38248C10.3543 3.75812 12.012 3.59437 13.6114 3.91192C15.2107 4.22947 16.6801 5.01407 17.8336 6.16654C19.3785 7.71495 20.2461 9.81292 20.2461 12.0002C20.2461 14.1875 19.3785 16.2854 17.8336 17.8338ZM11.7803 11.4699C11.8499 11.5395 11.9052 11.6222 11.9429 11.7132C11.9806 11.8042 12 11.9017 12 12.0002C12 12.0987 11.9806 12.1962 11.9429 12.2872C11.9052 12.3782 11.8499 12.4609 11.7803 12.5305L8.7803 15.5305C8.63962 15.671 8.4489 15.7499 8.25008 15.7498C8.05125 15.7498 7.86059 15.6708 7.71999 15.5302C7.5794 15.3896 7.50039 15.1989 7.50033 15.0001C7.50027 14.8013 7.57916 14.6106 7.71966 14.4699L10.1893 12.0002L7.71966 9.53051C7.57916 9.38983 7.50027 9.19912 7.50033 9.00029C7.50039 8.80146 7.5794 8.6108 7.71999 8.47021C7.86059 8.32962 8.05125 8.2506 8.25008 8.25054C8.4489 8.25048 8.63962 8.32937 8.7803 8.46987L11.7803 11.4699ZM17.0303 11.4699C17.0999 11.5395 17.1552 11.6222 17.1929 11.7132C17.2306 11.8042 17.25 11.9017 17.25 12.0002C17.25 12.0987 17.2306 12.1962 17.1929 12.2872C17.1552 12.3782 17.0999 12.4609 17.0303 12.5305L14.0303 15.5305C13.8896 15.671 13.6989 15.7499 13.5001 15.7498C13.3013 15.7498 13.1106 15.6708 12.97 15.5302C12.8294 15.3896 12.7504 15.1989 12.7503 15.0001C12.7503 14.8013 12.8292 14.6106 12.9697 14.4699L15.4393 12.0002L12.9697 9.53051C12.8292 9.38983 12.7503 9.19912 12.7503 9.00029C12.7504 8.80146 12.8294 8.6108 12.97 8.47021C13.1106 8.32962 13.3012 8.2506 13.5001 8.25054C13.6989 8.25048 13.8896 8.32937 14.0303 8.46987L17.0303 11.4699Z" fill="#1D1F21" style="fill: var(--ui-icon-primary-color);"/>
</svg>
