<svg  viewBox="0 0 24 24" fill="none" xmlns="http://www.w3.org/2000/svg" id="__THIS_ID_NEEDS_FOR_UI_ICON_COMPONENT__">
<path d="M11.9999 2.25C10.0716 2.25 8.18651 2.82183 6.58313 3.89317C4.97975 4.96451 3.73007 6.48726 2.99212 8.26884C2.25416 10.0504 2.06108 12.0108 2.43729 13.9021C2.81349 15.7934 3.74209 17.5307 5.10565 18.8943C6.46921 20.2579 8.2065 21.1865 10.0978 21.5627C11.9891 21.9389 13.9495 21.7458 15.7311 21.0078C17.5127 20.2699 19.0354 19.0202 20.1068 17.4168C21.1781 15.8134 21.7499 13.9284 21.7499 12C21.747 9.41504 20.7188 6.93679 18.891 5.10894C17.0632 3.28109 14.5849 2.25293 11.9999 2.25ZM11.9999 20.25C10.3682 20.25 8.77319 19.7661 7.41649 18.8596C6.05978 17.9531 5.00236 16.6646 4.37794 15.1571C3.75351 13.6496 3.59014 11.9908 3.90846 10.3905C4.22679 8.79016 5.01253 7.32015 6.16631 6.16637C7.3201 5.01259 8.7901 4.22685 10.3904 3.90852C11.9908 3.59019 13.6496 3.75357 15.1571 4.37799C16.6646 5.00242 17.953 6.05984 18.8596 7.41655C19.7661 8.77325 20.2499 10.3683 20.2499 12C20.2475 14.1873 19.3775 16.2843 17.8308 17.8309C16.2842 19.3775 14.1872 20.2475 11.9999 20.25ZM14.0017 9.18246L10.8711 12L14.0017 14.8175C14.075 14.8834 14.1346 14.9631 14.177 15.052C14.2195 15.1409 14.2441 15.2373 14.2493 15.3357C14.2545 15.4341 14.2403 15.5325 14.2075 15.6254C14.1746 15.7183 14.1238 15.8039 14.0579 15.8771C13.9919 15.9504 13.9122 16.0099 13.8233 16.0523C13.7344 16.0947 13.6379 16.1192 13.5395 16.1244C13.4411 16.1295 13.3427 16.1152 13.2498 16.0823C13.1569 16.0493 13.0714 15.9984 12.9982 15.9325L9.24824 12.5575C9.17009 12.4871 9.1076 12.4012 9.06482 12.3051C9.02205 12.2091 8.99995 12.1051 8.99995 12C8.99995 11.8949 9.02205 11.7909 9.06482 11.6949C9.1076 11.5988 9.17009 11.5129 9.24824 11.4425L12.9982 8.06754C13.1461 7.93466 13.3407 7.86594 13.5392 7.87647C13.7378 7.887 13.924 7.97592 14.057 8.12369C14.19 8.27146 14.2588 8.46599 14.2485 8.66453C14.2381 8.86306 14.1493 9.04935 14.0017 9.18246H14.0017Z" fill="#1D1F21" style="fill: var(--ui-icon-primary-color);"/>
</svg>
