<svg  viewBox="0 0 24 24" fill="none" xmlns="http://www.w3.org/2000/svg" id="__THIS_ID_NEEDS_FOR_UI_ICON_COMPONENT__">
<path d="M20.0304 18.9691C20.171 19.1098 20.2501 19.3005 20.2501 19.4994C20.2501 19.6983 20.1711 19.8891 20.0304 20.0298C19.8898 20.1704 19.699 20.2495 19.5001 20.2495C19.3012 20.2495 19.1104 20.1705 18.9697 20.0298L12 13.0601L5.03037 20.0298C4.88971 20.1705 4.69893 20.2495 4.50002 20.2495C4.3011 20.2495 4.11033 20.1704 3.96968 20.0298C3.82903 19.8891 3.75002 19.6983 3.75003 19.4994C3.75004 19.3005 3.82907 19.1098 3.96973 18.9691L11.4697 11.4691C11.6104 11.3285 11.8012 11.2495 12 11.2495C12.1989 11.2495 12.3897 11.3285 12.5304 11.4691L20.0304 18.9691ZM5.03037 12.5298L12 5.5601L18.9697 12.5298C19.1104 12.6705 19.3012 12.7495 19.5001 12.7495C19.699 12.7495 19.8898 12.6704 20.0304 12.5298C20.1711 12.3891 20.2501 12.1983 20.2501 11.9994C20.2501 11.8005 20.171 11.6098 20.0304 11.4691L12.5304 3.9691C12.3897 3.8285 12.1989 3.74951 12 3.74951C11.8012 3.74951 11.6104 3.8285 11.4697 3.9691L3.96973 11.4691C3.82907 11.6098 3.75004 11.8005 3.75003 11.9994C3.75002 12.1983 3.82903 12.3891 3.96968 12.5298C4.11033 12.6704 4.3011 12.7495 4.50002 12.7495C4.69893 12.7495 4.88971 12.6705 5.03037 12.5298Z" fill="#1D1F21" style="fill: var(--ui-icon-primary-color);"/>
</svg>
