<svg  viewBox="0 0 24 24" fill="none" xmlns="http://www.w3.org/2000/svg" id="__THIS_ID_NEEDS_FOR_UI_ICON_COMPONENT__">
<path d="M18.8943 5.10591C17.989 4.20013 16.9141 3.48156 15.7311 2.99124C14.5481 2.50092 13.28 2.24847 11.9994 2.24829C10.7188 2.24811 9.4507 2.50022 8.26753 2.99021C7.08437 3.4802 6.00932 4.19847 5.10378 5.104C4.19825 6.00953 3.47998 7.08458 2.98999 8.26775C2.50001 9.45091 2.2479 10.719 2.24808 11.9996C2.24825 13.2802 2.50071 14.5483 2.99103 15.7313C3.48134 16.9143 4.19991 17.9892 5.10569 18.8945C6.01097 19.8003 7.08582 20.5188 8.26886 21.0091C9.45189 21.4995 10.7199 21.7519 12.0005 21.7521C13.2812 21.7523 14.5493 21.5002 15.7324 21.0102C16.9156 20.5202 17.9906 19.8019 18.8962 18.8964C19.8017 17.9909 20.52 16.9158 21.01 15.7326C21.5 14.5495 21.7521 13.2814 21.7519 12.0008C21.7517 10.7201 21.4992 9.4521 21.0089 8.26907C20.5186 7.08604 19.8 6.01119 18.8943 5.10591ZM17.8336 17.8338C16.6801 18.9863 15.2107 19.7709 13.6114 20.0885C12.012 20.406 10.3543 20.2423 8.848 19.6179C7.34166 18.9935 6.05424 17.9366 5.14849 16.5807C4.24273 15.2248 3.7593 13.6308 3.7593 12.0002C3.7593 10.3696 4.24273 8.77559 5.14849 7.41968C6.05424 6.06377 7.34166 5.00684 8.848 4.38248C10.3543 3.75812 12.012 3.59437 13.6114 3.91192C15.2107 4.22947 16.6801 5.01407 17.8336 6.16654C19.3785 7.71495 20.2461 9.81292 20.2461 12.0002C20.2461 14.1875 19.3785 16.2854 17.8336 17.8338ZM15.5303 7.71987C15.5999 7.78951 15.6552 7.87219 15.6929 7.96318C15.7306 8.05417 15.75 8.1517 15.75 8.25019C15.75 8.34869 15.7306 8.44621 15.6929 8.53721C15.6552 8.6282 15.5999 8.71087 15.5303 8.78051L12.5303 11.7805C12.4607 11.8502 12.378 11.9054 12.287 11.9431C12.196 11.9808 12.0985 12.0002 12 12.0002C11.9015 12.0002 11.804 11.9808 11.713 11.9431C11.622 11.9054 11.5393 11.8502 11.4697 11.7805L8.46966 8.78051C8.32916 8.63983 8.25027 8.44912 8.25033 8.25029C8.25039 8.05146 8.3294 7.8608 8.46999 7.72021C8.61059 7.57962 8.80125 7.5006 9.00008 7.50054C9.1989 7.50048 9.38962 7.57937 9.5303 7.71987L12 10.1895L14.4697 7.71987C14.6103 7.57923 14.8011 7.50021 15 7.50021C15.1989 7.50021 15.3896 7.57923 15.5303 7.71987ZM15.5303 12.9699C15.5999 13.0395 15.6552 13.1222 15.6929 13.2132C15.7306 13.3042 15.75 13.4017 15.75 13.5002C15.75 13.5987 15.7306 13.6962 15.6929 13.7872C15.6552 13.8782 15.5999 13.9609 15.5303 14.0305L12.5303 17.0305C12.4607 17.1002 12.378 17.1554 12.287 17.1931C12.196 17.2308 12.0985 17.2502 12 17.2502C11.9015 17.2502 11.804 17.2308 11.713 17.1931C11.622 17.1554 11.5393 17.1002 11.4697 17.0305L8.46966 14.0305C8.32916 13.8898 8.25027 13.6991 8.25033 13.5003C8.25039 13.3015 8.3294 13.1108 8.46999 12.9702C8.61059 12.8296 8.80125 12.7506 9.00008 12.7505C9.1989 12.7505 9.38962 12.8294 9.5303 12.9699L12 15.4395L14.4697 12.9699C14.6103 12.8292 14.8011 12.7502 15 12.7502C15.1989 12.7502 15.3896 12.8292 15.5303 12.9699Z" fill="#1D1F21" style="fill: var(--ui-icon-primary-color);"/>
</svg>
