<svg  viewBox="0 0 24 24" fill="none" xmlns="http://www.w3.org/2000/svg" id="__THIS_ID_NEEDS_FOR_UI_ICON_COMPONENT__">
<path d="M20.0303 11.4696C20.1 11.5392 20.1552 11.6219 20.1929 11.7129C20.2306 11.8039 20.25 11.9014 20.25 11.9999C20.25 12.0984 20.2306 12.1959 20.1929 12.2869C20.1552 12.3779 20.1 12.4606 20.0303 12.5302L12.5303 20.0303C12.3897 20.1709 12.1989 20.2499 12 20.2499C11.8011 20.2499 11.6104 20.1709 11.4697 20.0303L3.96969 12.5302C3.89998 12.4606 3.84467 12.3779 3.80692 12.2869C3.76917 12.1959 3.74973 12.0983 3.74969 11.9998C3.74966 11.9013 3.76905 11.8037 3.80674 11.7127C3.84443 11.6216 3.89969 11.5389 3.96936 11.4692C4.03903 11.3996 4.12175 11.3443 4.21278 11.3066C4.30382 11.2689 4.40139 11.2495 4.49992 11.2496C4.59844 11.2496 4.696 11.2691 4.78701 11.3068C4.87802 11.3446 4.9607 11.3999 5.03033 11.4696L12 18.4393L18.9697 11.4696C19.1103 11.3289 19.3011 11.2499 19.5 11.2499C19.6989 11.2499 19.8897 11.3289 20.0303 11.4696ZM11.4697 12.5302C11.5393 12.5999 11.622 12.6551 11.713 12.6928C11.804 12.7305 11.9015 12.7499 12 12.7499C12.0985 12.7499 12.196 12.7305 12.287 12.6928C12.378 12.6551 12.4607 12.5999 12.5303 12.5302L20.0303 5.03022C20.1708 4.88954 20.2497 4.69882 20.2497 4.49999C20.2496 4.30117 20.1706 4.1105 20.03 3.96991C19.8894 3.82932 19.6987 3.75031 19.4999 3.75024C19.3011 3.75018 19.1104 3.82907 18.9697 3.96958L12 10.9392L5.03033 3.96958C4.88965 3.82907 4.69894 3.75018 4.50011 3.75024C4.30128 3.75031 4.11062 3.82932 3.97003 3.96991C3.82943 4.1105 3.75042 4.30117 3.75036 4.49999C3.7503 4.69882 3.82919 4.88954 3.96969 5.03022L11.4697 12.5302Z" fill="#1D1F21" style="fill: var(--ui-icon-primary-color);"/>
</svg>
