<svg  viewBox="0 0 24 24" fill="none" xmlns="http://www.w3.org/2000/svg" id="__THIS_ID_NEEDS_FOR_UI_ICON_COMPONENT__">
<path d="M18.8943 5.10591C17.989 4.20013 16.9141 3.48156 15.7311 2.99124C14.5481 2.50092 13.28 2.24847 11.9994 2.24829C10.7188 2.24811 9.4507 2.50022 8.26753 2.99021C7.08437 3.4802 6.00932 4.19847 5.10378 5.104C4.19825 6.00953 3.47998 7.08458 2.98999 8.26775C2.50001 9.45091 2.2479 10.719 2.24808 11.9996C2.24825 13.2802 2.50071 14.5483 2.99103 15.7313C3.48134 16.9143 4.19991 17.9892 5.10569 18.8945C6.01097 19.8003 7.08582 20.5188 8.26886 21.0091C9.45189 21.4995 10.7199 21.7519 12.0005 21.7521C13.2812 21.7523 14.5493 21.5002 15.7324 21.0102C16.9156 20.5202 17.9906 19.8019 18.8962 18.8964C19.8017 17.9909 20.52 16.9158 21.01 15.7326C21.5 14.5495 21.7521 13.2814 21.7519 12.0008C21.7517 10.7201 21.4992 9.4521 21.0089 8.26907C20.5186 7.08604 19.8 6.01119 18.8943 5.10591ZM17.8336 17.8338C16.6801 18.9863 15.2107 19.7709 13.6114 20.0885C12.012 20.406 10.3543 20.2423 8.848 19.6179C7.34166 18.9935 6.05424 17.9366 5.14849 16.5807C4.24273 15.2248 3.7593 13.6308 3.7593 12.0002C3.7593 10.3696 4.24273 8.77559 5.14849 7.41968C6.05424 6.06377 7.34166 5.00684 8.848 4.38248C10.3543 3.75812 12.012 3.59437 13.6114 3.91192C15.2107 4.22947 16.6801 5.01407 17.8336 6.16654C19.3785 7.71495 20.2461 9.81292 20.2461 12.0002C20.2461 14.1875 19.3785 16.2854 17.8336 17.8338ZM16.2803 9.53051L13.8107 12.0002L16.2803 14.4699C16.35 14.5395 16.4053 14.6222 16.4431 14.7132C16.4808 14.8042 16.5003 14.9018 16.5003 15.0003C16.5003 15.0988 16.4809 15.1964 16.4433 15.2874C16.4056 15.3785 16.3503 15.4612 16.2806 15.5308C16.211 15.6005 16.1282 15.6558 16.0372 15.6935C15.9462 15.7312 15.8486 15.7505 15.7501 15.7505C15.6516 15.7505 15.554 15.731 15.463 15.6933C15.372 15.6555 15.2893 15.6002 15.2197 15.5305L12.2197 12.5305C12.15 12.4609 12.0948 12.3782 12.0571 12.2872C12.0194 12.1962 12 12.0987 12 12.0002C12 11.9017 12.0194 11.8042 12.0571 11.7132C12.0948 11.6222 12.15 11.5395 12.2197 11.4699L15.2197 8.46987C15.3603 8.32937 15.5511 8.25048 15.7499 8.25054C15.9487 8.2506 16.1394 8.32962 16.28 8.47021C16.4206 8.6108 16.4996 8.80146 16.4996 9.00029C16.4997 9.19912 16.4208 9.38983 16.2803 9.53051H16.2803ZM11.0303 9.53051L8.56067 12.0002L11.0303 14.4699C11.1 14.5395 11.1553 14.6222 11.1931 14.7132C11.2308 14.8042 11.2503 14.9018 11.2503 15.0003C11.2503 15.0988 11.2309 15.1964 11.1933 15.2874C11.1556 15.3785 11.1003 15.4612 11.0306 15.5308C10.961 15.6005 10.8782 15.6558 10.7872 15.6935C10.6962 15.7312 10.5986 15.7505 10.5001 15.7505C10.4016 15.7505 10.304 15.731 10.213 15.6933C10.122 15.6555 10.0393 15.6002 9.96966 15.5305L6.96966 12.5305C6.90001 12.4609 6.84476 12.3782 6.80707 12.2872C6.76937 12.1962 6.74997 12.0987 6.74997 12.0002C6.74997 11.9017 6.76937 11.8042 6.80707 11.7132C6.84476 11.6222 6.90001 11.5395 6.96966 11.4699L9.96966 8.46987C10.1103 8.32937 10.3011 8.25048 10.4999 8.25054C10.6987 8.2506 10.8894 8.32962 11.03 8.47021C11.1706 8.6108 11.2496 8.80146 11.2496 9.00029C11.2497 9.19912 11.1708 9.38983 11.0303 9.53051H11.0303Z" fill="#1D1F21" style="fill: var(--ui-icon-primary-color);"/>
</svg>
