<svg  viewBox="0 0 24 24" fill="none" xmlns="http://www.w3.org/2000/svg" id="__THIS_ID_NEEDS_FOR_UI_ICON_COMPONENT__">
<path d="M11.9999 2.25C10.0716 2.25 8.18651 2.82183 6.58313 3.89317C4.97975 4.96451 3.73007 6.48726 2.99212 8.26884C2.25416 10.0504 2.06108 12.0108 2.43729 13.9021C2.81349 15.7934 3.74209 17.5307 5.10565 18.8943C6.46921 20.2579 8.2065 21.1865 10.0978 21.5627C11.9891 21.9389 13.9495 21.7458 15.7311 21.0078C17.5127 20.2699 19.0354 19.0202 20.1068 17.4168C21.1781 15.8134 21.7499 13.9284 21.7499 12C21.747 9.41504 20.7188 6.93679 18.891 5.10894C17.0632 3.28109 14.5849 2.25293 11.9999 2.25ZM11.9999 20.25C10.3682 20.25 8.77319 19.7661 7.41649 18.8596C6.05978 17.9531 5.00236 16.6646 4.37794 15.1571C3.75351 13.6496 3.59014 11.9908 3.90846 10.3905C4.22679 8.79016 5.01253 7.32015 6.16631 6.16637C7.3201 5.01259 8.7901 4.22685 10.3904 3.90852C11.9908 3.59019 13.6496 3.75357 15.1571 4.37799C16.6646 5.00242 17.953 6.05984 18.8596 7.41655C19.7661 8.77325 20.2499 10.3683 20.2499 12C20.2475 14.1873 19.3775 16.2843 17.8308 17.8309C16.2842 19.3775 14.1872 20.2475 11.9999 20.25ZM15.9324 11.3767L12.5574 15.1267C12.4871 15.2049 12.4011 15.2673 12.3051 15.3101C12.209 15.3529 12.1051 15.375 11.9999 15.375C11.8948 15.375 11.7909 15.3529 11.6948 15.3101C11.5988 15.2673 11.5128 15.2049 11.4425 15.1267L8.06748 11.3767C7.9346 11.2288 7.86588 11.0342 7.87641 10.8357C7.88694 10.6372 7.97586 10.451 8.12363 10.318C8.27141 10.185 8.46594 10.1161 8.66447 10.1265C8.863 10.1369 9.0493 10.2256 9.18241 10.3733L11.9999 13.5038L14.8175 10.3733C14.8833 10.3 14.963 10.2404 15.0519 10.1979C15.1408 10.1554 15.2372 10.1308 15.3356 10.1256C15.434 10.1204 15.5325 10.1346 15.6254 10.1675C15.7183 10.2003 15.8038 10.2512 15.8771 10.3171C15.9503 10.383 16.0098 10.4627 16.0523 10.5517C16.0947 10.6406 16.1192 10.737 16.1243 10.8354C16.1294 10.9338 16.1151 11.0323 16.0822 11.1252C16.0493 11.218 15.9984 11.3035 15.9324 11.3767V11.3767Z" fill="#1D1F21" style="fill: var(--ui-icon-primary-color);"/>
</svg>
