<svg  viewBox="0 0 24 24" fill="none" xmlns="http://www.w3.org/2000/svg" id="__THIS_ID_NEEDS_FOR_UI_ICON_COMPONENT__">
<path d="M11.9999 2.25C10.0716 2.25 8.18651 2.82183 6.58313 3.89317C4.97975 4.96451 3.73007 6.48726 2.99212 8.26884C2.25416 10.0504 2.06108 12.0108 2.43729 13.9021C2.81349 15.7934 3.74209 17.5307 5.10565 18.8943C6.46921 20.2579 8.2065 21.1865 10.0978 21.5627C11.9891 21.9389 13.9495 21.7458 15.7311 21.0078C17.5127 20.2699 19.0354 19.0202 20.1068 17.4168C21.1781 15.8134 21.7499 13.9284 21.7499 12C21.747 9.41504 20.7188 6.93679 18.891 5.10894C17.0632 3.28109 14.5849 2.25293 11.9999 2.25ZM11.9999 20.25C10.3682 20.25 8.77319 19.7661 7.41649 18.8596C6.05978 17.9531 5.00236 16.6646 4.37794 15.1571C3.75351 13.6496 3.59014 11.9908 3.90846 10.3905C4.22679 8.79016 5.01253 7.32015 6.16631 6.16637C7.3201 5.01259 8.7901 4.22685 10.3904 3.90852C11.9908 3.59019 13.6496 3.75357 15.1571 4.37799C16.6646 5.00242 17.953 6.05984 18.8596 7.41655C19.7661 8.77325 20.2499 10.3683 20.2499 12C20.2475 14.1873 19.3775 16.2843 17.8308 17.8309C16.2842 19.3775 14.1872 20.2475 11.9999 20.25ZM15.1267 11.4425C15.2048 11.5129 15.2673 11.5988 15.3101 11.6949C15.3528 11.7909 15.3749 11.8949 15.3749 12C15.3749 12.1051 15.3528 12.2091 15.3101 12.3051C15.2673 12.4012 15.2048 12.4871 15.1267 12.5575L11.3767 15.9325C11.2288 16.0653 11.0342 16.1341 10.8357 16.1235C10.6371 16.113 10.4509 16.0241 10.3179 15.8763C10.1849 15.7285 10.1161 15.534 10.1264 15.3355C10.1368 15.1369 10.2256 14.9506 10.3732 14.8175L13.5038 12L10.3732 9.18246C10.2999 9.1166 10.2403 9.03694 10.1978 8.94804C10.1553 8.85913 10.1308 8.76273 10.1256 8.66432C10.1203 8.56592 10.1346 8.46746 10.1674 8.37455C10.2003 8.28165 10.2511 8.19614 10.317 8.12289C10.383 8.04965 10.4627 7.99011 10.5516 7.94768C10.6405 7.90526 10.737 7.88077 10.8354 7.87563C10.9338 7.87049 11.0322 7.8848 11.1251 7.91772C11.218 7.95065 11.3035 8.00156 11.3767 8.06754L15.1267 11.4425Z" fill="#1D1F21" style="fill: var(--ui-icon-primary-color);"/>
</svg>
