<svg  viewBox="0 0 24 24" fill="none" xmlns="http://www.w3.org/2000/svg" id="__THIS_ID_NEEDS_FOR_UI_ICON_COMPONENT__">
<path d="M19.2803 18.9696C19.35 19.0392 19.4053 19.1219 19.443 19.2129C19.4808 19.3039 19.5002 19.4015 19.5003 19.5C19.5003 19.5985 19.4809 19.6961 19.4432 19.7871C19.4055 19.8782 19.3503 19.9609 19.2806 20.0305C19.2109 20.1002 19.1282 20.1555 19.0372 20.1932C18.9461 20.2309 18.8486 20.2502 18.75 20.2502C18.6515 20.2502 18.554 20.2307 18.4629 20.193C18.3719 20.1552 18.2893 20.0999 18.2196 20.0302L10.7196 12.5302C10.65 12.4606 10.5947 12.3779 10.557 12.2869C10.5193 12.1959 10.4999 12.0984 10.4999 11.9999C10.4999 11.9014 10.5193 11.8039 10.557 11.7129C10.5947 11.6219 10.65 11.5392 10.7196 11.4696L18.2196 3.96958C18.3603 3.82907 18.551 3.75018 18.7499 3.75024C18.9487 3.75031 19.1393 3.82932 19.2799 3.96991C19.4205 4.1105 19.4995 4.30117 19.4996 4.49999C19.4997 4.69882 19.4208 4.88954 19.2803 5.03022L12.3106 11.9999L19.2803 18.9696ZM4.81063 11.9999L11.7803 5.03022C11.9208 4.88954 11.9997 4.69882 11.9996 4.49999C11.9995 4.30117 11.9205 4.1105 11.7799 3.96991C11.6393 3.82932 11.4487 3.75031 11.2499 3.75024C11.051 3.75018 10.8603 3.82907 10.7196 3.96958L3.21963 11.4696C3.14998 11.5392 3.09473 11.6219 3.05704 11.7129C3.01934 11.8039 2.99994 11.9014 2.99994 11.9999C2.99994 12.0984 3.01934 12.1959 3.05704 12.2869C3.09473 12.3779 3.14998 12.4606 3.21963 12.5302L10.7196 20.0302C10.8603 20.1707 11.051 20.2496 11.2499 20.2495C11.4487 20.2495 11.6393 20.1705 11.7799 20.0299C11.9205 19.8893 11.9995 19.6986 11.9996 19.4998C11.9997 19.301 11.9208 19.1103 11.7803 18.9696L4.81063 11.9999Z" fill="#1D1F21" style="fill: var(--ui-icon-primary-color);"/>
</svg>
