<svg  viewBox="0 0 24 24" fill="none" xmlns="http://www.w3.org/2000/svg" id="__THIS_ID_NEEDS_FOR_UI_ICON_COMPONENT__">
<path d="M18.8942 5.10591C17.989 4.20013 16.9141 3.48156 15.7311 2.99124C14.548 2.50092 13.28 2.24847 11.9994 2.24829C10.7188 2.24811 9.45067 2.50022 8.2675 2.99021C7.08434 3.4802 6.00929 4.19847 5.10375 5.104C4.19822 6.00953 3.47995 7.08458 2.98996 8.26775C2.49997 9.45091 2.24787 10.719 2.24805 11.9996C2.24822 13.2802 2.50068 14.5483 2.991 15.7313C3.48131 16.9143 4.19988 17.9892 5.10566 18.8945C6.01094 19.8003 7.08579 20.5188 8.26883 21.0091C9.45186 21.4995 10.7199 21.7519 12.0005 21.7521C13.2811 21.7523 14.5492 21.5002 15.7324 21.0102C16.9156 20.5202 17.9906 19.8019 18.8961 18.8964C19.8017 17.9909 20.5199 16.9158 21.0099 15.7326C21.4999 14.5495 21.752 13.2814 21.7519 12.0008C21.7517 10.7201 21.4992 9.4521 21.0089 8.26907C20.5186 7.08604 19.8 6.01119 18.8942 5.10591ZM17.8336 17.8338C16.68 18.9863 15.2107 19.7709 13.6113 20.0885C12.0119 20.406 10.3543 20.2423 8.84797 19.6179C7.34163 18.9935 6.05421 17.9366 5.14846 16.5807C4.2427 15.2248 3.75927 13.6308 3.75927 12.0002C3.75927 10.3696 4.2427 8.77559 5.14846 7.41968C6.05421 6.06377 7.34163 5.00684 8.84797 4.38248C10.3543 3.75812 12.0119 3.59437 13.6113 3.91192C15.2107 4.22947 16.68 5.01407 17.8336 6.16654C19.3785 7.71495 20.2461 9.81292 20.2461 12.0002C20.2461 14.1875 19.3785 16.2854 17.8336 17.8338ZM15.5303 15.2199C15.6 15.2895 15.6553 15.3722 15.693 15.4632C15.7308 15.5542 15.7502 15.6518 15.7503 15.7503C15.7503 15.8488 15.7309 15.9464 15.6932 16.0374C15.6555 16.1285 15.6003 16.2112 15.5306 16.2808C15.4609 16.3505 15.3782 16.4058 15.2872 16.4435C15.1961 16.4812 15.0986 16.5005 15 16.5005C14.9015 16.5005 14.804 16.481 14.7129 16.4433C14.6219 16.4055 14.5393 16.3502 14.4696 16.2805L11.9999 13.8109L9.53027 16.2805C9.38959 16.421 9.19887 16.4999 9.00005 16.4999C8.80122 16.4998 8.61055 16.4208 8.46996 16.2802C8.32937 16.1396 8.25036 15.9489 8.2503 15.7501C8.25023 15.5513 8.32913 15.3606 8.46963 15.2199L11.4696 12.2199C11.6103 12.0792 11.801 12.0002 11.9999 12.0002C12.1989 12.0002 12.3896 12.0792 12.5303 12.2199L15.5303 15.2199ZM15.5303 9.96987C15.6 10.0395 15.6553 10.1222 15.693 10.2132C15.7308 10.3042 15.7502 10.4018 15.7503 10.5003C15.7503 10.5988 15.7309 10.6964 15.6932 10.7874C15.6555 10.8785 15.6003 10.9612 15.5306 11.0308C15.4609 11.1005 15.3782 11.1558 15.2872 11.1935C15.1961 11.2312 15.0986 11.2505 15 11.2505C14.9015 11.2505 14.804 11.231 14.7129 11.1933C14.6219 11.1555 14.5393 11.1002 14.4696 11.0305L11.9999 8.56088L9.53027 11.0305C9.38959 11.171 9.19887 11.2499 9.00005 11.2498C8.80122 11.2498 8.61055 11.1708 8.46996 11.0302C8.32937 10.8896 8.25036 10.6989 8.2503 10.5001C8.25023 10.3013 8.32913 10.1106 8.46963 9.96988L11.4696 6.96988C11.6103 6.82923 11.801 6.75022 11.9999 6.75022C12.1989 6.75022 12.3896 6.82923 12.5303 6.96988L15.5303 9.96987Z" fill="#1D1F21" style="fill: var(--ui-icon-primary-color);"/>
</svg>
