<svg  viewBox="0 0 24 24" fill="none" xmlns="http://www.w3.org/2000/svg" id="__THIS_ID_NEEDS_FOR_UI_ICON_COMPONENT__">
<path d="M9 20.25C8.85167 20.25 8.70666 20.206 8.58332 20.1236C8.45998 20.0412 8.36385 19.9241 8.30709 19.787C8.25032 19.65 8.23547 19.4992 8.26441 19.3537C8.29336 19.2082 8.36479 19.0745 8.46968 18.9697L15.4393 12L8.46968 5.03035C8.32903 4.8897 8.25001 4.69893 8.25 4.50002C8.25 4.30111 8.32901 4.11034 8.46966 3.96968C8.61031 3.82903 8.80107 3.75 8.99999 3.75C9.1989 3.75 9.38967 3.82901 9.53032 3.96966L17.0303 11.4697C17.1 11.5393 17.1552 11.622 17.1929 11.713C17.2306 11.804 17.25 11.9015 17.25 12C17.25 12.0985 17.2306 12.196 17.1929 12.287C17.1552 12.378 17.1 12.4607 17.0303 12.5303L9.53032 20.0303C9.46076 20.1001 9.37809 20.1554 9.28708 20.1931C9.19607 20.2308 9.09851 20.2501 9 20.25Z" fill="#1D1F21" style="fill: var(--ui-icon-primary-color);"/>
</svg>
