<svg  viewBox="0 0 24 24" fill="none" xmlns="http://www.w3.org/2000/svg" id="__THIS_ID_NEEDS_FOR_UI_ICON_COMPONENT__">
<path d="M18.8942 5.10551C17.0655 3.27787 14.5859 2.25135 12.0005 2.25171C9.41508 2.25207 6.93569 3.27927 5.10754 5.10742C3.27939 6.93556 2.25219 9.41496 2.25183 12.0004C2.25147 14.5857 3.27799 17.0654 5.10563 18.8941C6.93428 20.7217 9.41397 21.7482 11.9994 21.7479C14.5848 21.7475 17.0641 20.7203 18.8923 18.8922C20.7204 17.064 21.7476 14.5846 21.748 11.9992C21.7484 9.41384 20.7218 6.93416 18.8942 5.10551ZM17.8336 17.8334C16.6798 18.9872 15.2098 19.773 13.6094 20.0913C12.0091 20.4096 10.3503 20.2462 8.8428 19.6218C7.33532 18.9974 6.04685 17.9399 5.14033 16.5832C4.23381 15.2265 3.74995 13.6315 3.74995 11.9998C3.74995 10.3681 4.23381 8.77305 5.14033 7.41635C6.04685 6.05964 7.33532 5.00222 8.8428 4.37779C10.3503 3.75337 12.0091 3.58999 13.6094 3.90831C15.2098 4.22664 16.6798 5.01237 17.8336 6.16615C18.6029 6.93039 19.2135 7.83928 19.6302 8.84046C20.0468 9.84165 20.2613 10.9154 20.2613 11.9998C20.2613 13.0842 20.0468 14.1579 19.6302 15.1591C19.2135 16.1603 18.6029 17.0692 17.8336 17.8334ZM15.9324 12.9981C15.9984 13.0713 16.0493 13.1568 16.0822 13.2496C16.1151 13.3425 16.1294 13.441 16.1243 13.5394C16.1191 13.6378 16.0947 13.7342 16.0522 13.8231C16.0098 13.9121 15.9503 13.9918 15.877 14.0577C15.8038 14.1236 15.7183 14.1745 15.6254 14.2073C15.5325 14.2402 15.434 14.2544 15.3356 14.2492C15.2372 14.244 15.1408 14.2194 15.0519 14.1769C14.963 14.1344 14.8833 14.0748 14.8175 14.0015L11.9999 10.871L9.18238 14.0015C9.11652 14.0748 9.03686 14.1344 8.94796 14.1769C8.85905 14.2194 8.76264 14.244 8.66424 14.2492C8.56584 14.2544 8.46737 14.2402 8.37447 14.2073C8.28157 14.1745 8.19605 14.1236 8.12281 14.0577C8.04956 13.9918 7.99003 13.9121 7.9476 13.8231C7.90518 13.7342 7.88069 13.6378 7.87555 13.5394C7.87041 13.441 7.88471 13.3425 7.91764 13.2496C7.95057 13.1568 8.00147 13.0713 8.06745 12.9981L11.4425 9.24809C11.5128 9.16994 11.5987 9.10745 11.6948 9.06467C11.7908 9.0219 11.8948 8.99979 11.9999 8.99979C12.1051 8.99979 12.209 9.0219 12.305 9.06467C12.4011 9.10745 12.4871 9.16994 12.5574 9.24809L15.9324 12.9981Z" fill="#1D1F21" style="fill: var(--ui-icon-primary-color);"/>
</svg>
