<svg  viewBox="0 0 24 24" fill="none" xmlns="http://www.w3.org/2000/svg" id="__THIS_ID_NEEDS_FOR_UI_ICON_COMPONENT__">
<path d="M19.5 15.7502C19.4015 15.7503 19.3039 15.731 19.2129 15.6933C19.1219 15.6556 19.0393 15.6003 18.9697 15.5305L12 8.56091L5.03034 15.5305C4.88966 15.671 4.69894 15.7499 4.50012 15.7499C4.30129 15.7498 4.11062 15.6708 3.97003 15.5302C3.82944 15.3896 3.75043 15.1989 3.75037 15.0001C3.7503 14.8013 3.8292 14.6106 3.9697 14.4699L11.4697 6.9699C11.6104 6.82926 11.8011 6.75024 12 6.75024C12.1989 6.75024 12.3897 6.82926 12.5303 6.9699L20.0303 14.4699C20.1352 14.5748 20.2066 14.7084 20.2356 14.8539C20.2645 14.9994 20.2497 15.1502 20.1929 15.2872C20.1361 15.4243 20.04 15.5414 19.9167 15.6238C19.7934 15.7062 19.6483 15.7502 19.5 15.7502Z" fill="#1D1F21" style="fill: var(--ui-icon-primary-color);"/>
</svg>
