<svg  viewBox="0 0 24 24" fill="none" xmlns="http://www.w3.org/2000/svg" id="__THIS_ID_NEEDS_FOR_UI_ICON_COMPONENT__">
<path d="M15.0001 20.25C14.9016 20.2501 14.804 20.2308 14.713 20.1931C14.622 20.1554 14.5393 20.1001 14.4698 20.0303L6.96976 12.5303C6.9001 12.4607 6.84485 12.378 6.80716 12.287C6.76946 12.196 6.75006 12.0985 6.75006 12C6.75006 11.9015 6.76946 11.804 6.80716 11.713C6.84485 11.622 6.9001 11.5393 6.96976 11.4697L14.4698 3.96966C14.6104 3.82901 14.8012 3.75 15.0001 3.75C15.199 3.75 15.3898 3.82903 15.5304 3.96968C15.6711 4.11034 15.7501 4.30111 15.7501 4.50002C15.7501 4.69893 15.6711 4.8897 15.5304 5.03035L8.56076 12L15.5304 18.9697C15.6353 19.0745 15.7067 19.2082 15.7357 19.3537C15.7646 19.4992 15.7498 19.65 15.693 19.787C15.6362 19.9241 15.5401 20.0412 15.4168 20.1236C15.2934 20.206 15.1484 20.25 15.0001 20.25Z" fill="#1D1F21" style="fill: var(--ui-icon-primary-color);"/>
</svg>
