<svg  viewBox="0 0 24 24" fill="none" xmlns="http://www.w3.org/2000/svg" id="__THIS_ID_NEEDS_FOR_UI_ICON_COMPONENT__">
<path d="M12 17.25C11.9015 17.2501 11.8039 17.2308 11.7129 17.1931C11.6219 17.1554 11.5392 17.1001 11.4697 17.0303L3.96968 9.53034C3.90004 9.4607 3.84479 9.37802 3.8071 9.28703C3.7694 9.19604 3.75 9.09851 3.75 9.00002C3.75 8.80111 3.82901 8.61034 3.96966 8.46968C4.11031 8.32903 4.30107 8.25 4.49999 8.25C4.6989 8.25 4.88967 8.32901 5.03032 8.46966L12 15.4393L18.9697 8.46966C19.1103 8.32901 19.3011 8.25 19.5 8.25C19.6989 8.25 19.8897 8.32903 20.0303 8.46968C20.171 8.61034 20.25 8.80111 20.25 9.00002C20.25 9.19893 20.171 9.3897 20.0303 9.53035L12.5303 17.0303C12.4608 17.1001 12.3781 17.1554 12.2871 17.1931C12.1961 17.2308 12.0985 17.2501 12 17.25Z" fill="#1D1F21" style="fill: var(--ui-icon-primary-color);"/>
</svg>
