<svg viewBox="0 0 24 24" fill="none" xmlns="http://www.w3.org/2000/svg" id="__THIS_ID_NEEDS_FOR_UI_ICON_COMPONENT__">
<path d="M14.5833 6.99985C14.6657 6.99985 14.7463 7.02429 14.8148 7.07007C14.8833 7.11586 14.9367 7.18093 14.9683 7.25707C14.9998 7.33321 15.0081 7.41699 14.992 7.49781C14.9759 7.57864 14.9362 7.65288 14.878 7.71115L11.0059 11.5832L14.878 15.4552C14.9561 15.5333 15 15.6393 15 15.7498C15 15.8603 14.9561 15.9663 14.878 16.0445C14.7998 16.1226 14.6938 16.1665 14.5833 16.1665C14.4728 16.1665 14.3669 16.1226 14.2887 16.0445L10.1221 11.8778C10.0834 11.8391 10.0527 11.7932 10.0317 11.7426C10.0108 11.6921 10 11.6379 10 11.5832C10 11.5285 10.0108 11.4743 10.0317 11.4237C10.0527 11.3732 10.0834 11.3272 10.1221 11.2885L14.2887 7.12188C14.3274 7.08314 14.3733 7.05241 14.4238 7.03147C14.4744 7.01052 14.5286 6.99978 14.5833 6.99985V6.99985Z" fill="#1D1D21" style="fill: var(--ui-icon-primary-color);"/>
</svg>
