<svg  viewBox="0 0 24 24" fill="none" xmlns="http://www.w3.org/2000/svg" id="__THIS_ID_NEEDS_FOR_UI_ICON_COMPONENT__">
<path d="M18.0001 21.0001H2.56072C2.26404 21.0001 1.97402 20.9122 1.72734 20.7473C1.48066 20.5825 1.28841 20.3482 1.17488 20.0741C1.06136 19.8 1.03167 19.4984 1.08957 19.2075C1.14748 18.9165 1.29037 18.6492 1.50018 18.4395L16.9394 3.00014C17.1491 2.79036 17.4164 2.6475 17.7074 2.58962C17.9984 2.53174 18.3 2.56144 18.5741 2.67497C18.8482 2.7885 19.0824 2.98076 19.2473 3.22744C19.4121 3.47411 19.5001 3.76412 19.5001 4.0608V19.5001C19.4996 19.8978 19.3415 20.2791 19.0602 20.5603C18.779 20.8415 18.3978 20.9997 18.0001 21.0001ZM2.56127 19.4997L18.0001 19.5001V4.06142L2.56081 19.5001L2.56127 19.4997Z" fill="#1D1F21" style="fill: var(--ui-icon-primary-color);"/>
</svg>
