<svg  viewBox="0 0 24 24" fill="none" xmlns="http://www.w3.org/2000/svg" id="__THIS_ID_NEEDS_FOR_UI_ICON_COMPONENT__">
<path d="M18.5742 2.67479C18.3002 2.56067 17.9984 2.53065 17.7073 2.58855C17.4162 2.64645 17.1489 2.78966 16.9394 2.99994L6.96991 12.9695L6.96973 12.9697L1.50023 18.4393C1.29043 18.649 1.14754 18.9163 1.08963 19.2073C1.03173 19.4982 1.06142 19.7998 1.17494 20.0739C1.28847 20.348 1.48073 20.5823 1.7274 20.7471C1.97408 20.912 2.2641 20.9999 2.56078 20.9999H18.0001C18.3978 20.9995 18.7791 20.8413 19.0603 20.5601C19.3415 20.2789 19.4997 19.8976 19.5001 19.4999V4.06058C19.5007 3.76378 19.413 3.47352 19.2481 3.22674C19.0832 2.97996 18.8486 2.78783 18.5742 2.67479ZM6.75014 15.3108V19.4996L2.56133 19.4995L6.75014 15.3108ZM18.0001 19.4999L8.25014 19.4996V13.8109L18.0001 4.06122V19.4999Z" fill="#1D1F21" style="fill: var(--ui-icon-primary-color);"/>
</svg>
