<svg  viewBox="0 0 24 24" fill="none" xmlns="http://www.w3.org/2000/svg" id="__THIS_ID_NEEDS_FOR_UI_ICON_COMPONENT__">
<path d="M18.574 2.67456C18.3 2.56043 17.9982 2.5304 17.7071 2.58831C17.416 2.64621 17.1487 2.78942 16.9392 2.99971L1.50006 18.439C1.29025 18.6488 1.14736 18.9161 1.08945 19.207C1.03155 19.498 1.06124 19.7996 1.17476 20.0737C1.28828 20.3478 1.48054 20.5821 1.72723 20.7469C1.97391 20.9118 2.26393 20.9997 2.56061 20.9997H18C18.3977 20.9993 18.7789 20.8411 19.0601 20.5599C19.3413 20.2787 19.4995 19.8974 19.5 19.4997V4.06035C19.5006 3.76355 19.4128 3.47329 19.2479 3.22651C19.083 2.97973 18.8484 2.7876 18.574 2.67456ZM10.5 11.5607V19.4995L2.56114 19.4993L10.5 11.5607ZM18 19.4997L12 19.4995V10.0608L18 4.06099V19.4997Z" fill="#1D1F21" style="fill: var(--ui-icon-primary-color);"/>
</svg>
