<svg  viewBox="0 0 24 24" fill="none" xmlns="http://www.w3.org/2000/svg" id="__THIS_ID_NEEDS_FOR_UI_ICON_COMPONENT__">
<path d="M21.7499 19.5C21.7499 19.6989 21.6709 19.8897 21.5303 20.0303C21.3896 20.171 21.1988 20.25 20.9999 20.25H2.99994C2.80103 20.25 2.61027 20.171 2.46962 20.0303C2.32897 19.8897 2.24995 19.6989 2.24994 19.5V4.5C2.24994 4.30109 2.32896 4.11032 2.46961 3.96967C2.61026 3.82902 2.80103 3.75 2.99994 3.75C3.19885 3.75 3.38962 3.82902 3.53027 3.96967C3.67092 4.11032 3.74994 4.30109 3.74994 4.5V13.3475L8.50638 9.18558C8.63578 9.07234 8.80016 9.00702 8.97198 9.00054C9.14381 8.99407 9.31264 9.04684 9.4502 9.15001L14.9639 13.2852L20.5064 8.43558C20.5805 8.37058 20.6667 8.32083 20.76 8.28916C20.8533 8.2575 20.952 8.24455 21.0504 8.25105C21.1487 8.25754 21.2448 8.28337 21.3332 8.32703C21.4215 8.3707 21.5004 8.43136 21.5653 8.50554C21.6302 8.57972 21.6799 8.66597 21.7114 8.75935C21.743 8.85273 21.7558 8.95142 21.7492 9.04976C21.7426 9.1481 21.7166 9.24418 21.6728 9.33249C21.6291 9.4208 21.5683 9.49961 21.494 9.56442L15.494 14.8144C15.3646 14.9277 15.2003 14.993 15.0284 14.9995C14.8566 15.0059 14.6878 14.9532 14.5502 14.85L9.03656 10.7148L3.74994 15.3405V18.75H20.9999C21.1988 18.75 21.3896 18.829 21.5303 18.9697C21.6709 19.1103 21.7499 19.3011 21.7499 19.5Z" fill="#1D1F21" style="fill: var(--ui-icon-primary-color);"/>
</svg>
