<svg  viewBox="0 0 24 24" fill="none" xmlns="http://www.w3.org/2000/svg" id="__THIS_ID_NEEDS_FOR_UI_ICON_COMPONENT__">
<path d="M9.37464 10.9175C9.48865 10.8517 9.58333 10.757 9.64916 10.643C9.71498 10.529 9.74964 10.3996 9.74964 10.268V3.51217C9.74963 3.39219 9.72085 3.27397 9.66569 3.16742C9.61054 3.06087 9.53063 2.96911 9.43267 2.89983C9.33471 2.83056 9.22156 2.7858 9.10273 2.7693C8.98389 2.75281 8.86282 2.76506 8.7497 2.80504C6.56028 3.58165 4.71948 5.11345 3.55793 7.12529C2.39638 9.13714 1.9902 11.4972 2.41233 13.7816C2.43414 13.8997 2.48397 14.0108 2.55763 14.1056C2.6313 14.2004 2.72664 14.2761 2.83565 14.3264C2.94466 14.3767 3.06415 14.4001 3.18408 14.3946C3.30401 14.3891 3.42087 14.3549 3.52483 14.2949L9.37464 10.9175ZM8.24964 4.64905V9.83496L3.76067 12.4267C3.75344 12.2846 3.74981 12.1424 3.74978 12C3.75143 10.4794 4.17233 8.98875 4.96622 7.69187C5.7601 6.39499 6.89621 5.34213 8.24964 4.64905ZM20.4627 7.1624C20.4564 7.14993 20.4506 7.13727 20.4435 7.125C20.434 7.10843 20.4233 7.09289 20.4127 7.07735C19.5532 5.60887 18.3246 4.39074 16.8488 3.54392C15.3729 2.69709 13.7013 2.25102 11.9998 2.25C11.8009 2.25 11.6101 2.32902 11.4694 2.46967C11.3288 2.61032 11.2498 2.80109 11.2498 3V11.567L3.83053 15.8505C3.65827 15.9499 3.53257 16.1138 3.48109 16.3059C3.42961 16.498 3.45656 16.7027 3.55601 16.875C3.55916 16.8805 3.56312 16.8851 3.5664 16.8905C3.57468 16.9073 3.58292 16.9241 3.59258 16.9405C4.67703 18.7853 6.33821 20.2221 8.31998 21.0294C10.3018 21.8368 12.4941 21.9697 14.5589 21.4079C16.6237 20.8461 18.4464 19.6206 19.7459 17.9205C21.0454 16.2203 21.7495 14.1399 21.7498 12C21.7518 10.3026 21.308 8.63438 20.4627 7.1624ZM12.7498 3.78445C13.9386 3.89371 15.0896 4.25961 16.1234 4.8569C17.1571 5.45419 18.0489 6.26866 18.7373 7.24409L12.7498 10.701V3.78445ZM11.9998 20.25C10.6795 20.2463 9.37913 19.9275 8.2069 19.3199C7.03466 18.7124 6.02443 17.8338 5.26021 16.7571L19.4891 8.54209C20.0699 9.799 20.3249 11.1819 20.2307 12.5633C20.1364 13.9447 19.6959 15.2801 18.9498 16.4465C18.2037 17.6129 17.176 18.5726 15.9614 19.2374C14.7468 19.9021 13.3844 20.2503 11.9998 20.25Z" fill="#1D1F21" style="fill: var(--ui-icon-primary-color);"/>
</svg>
