<svg  viewBox="0 0 24 24" fill="none" xmlns="http://www.w3.org/2000/svg" id="__THIS_ID_NEEDS_FOR_UI_ICON_COMPONENT__">
<path d="M11.9999 21.7921C11.7406 21.7933 11.4856 21.7268 11.26 21.599C11.0344 21.4713 10.8461 21.2868 10.7137 21.0639L9.32526 18.7499L3.74999 18.7498C3.35231 18.7494 2.97105 18.5912 2.68984 18.31C2.40864 18.0288 2.25045 17.6475 2.25 17.2499V5.24999C2.25045 4.85231 2.40864 4.47105 2.68984 4.18984C2.97105 3.90864 3.35231 3.75045 3.74999 3.75H20.2499C20.6476 3.75045 21.0289 3.90864 21.3101 4.18984C21.5913 4.47105 21.7495 4.85231 21.7499 5.24999V17.2499C21.7495 17.6476 21.5913 18.0289 21.31 18.3101C21.0288 18.5913 20.6475 18.7495 20.2498 18.7499H14.6746L14.0314 18.364L14.6746 18.7499L13.2862 21.0639C13.1538 21.2869 12.9655 21.4713 12.7398 21.599C12.5142 21.7268 12.2591 21.7933 11.9999 21.7921ZM3.74999 5.24999V17.2499H9.32526C9.58414 17.2506 9.83848 17.318 10.0638 17.4455C10.289 17.5731 10.4777 17.7565 10.6115 17.9782L12 20.2921L13.3883 17.9782H13.3884C13.5222 17.7566 13.7108 17.5732 13.9361 17.4456C14.1614 17.3181 14.4157 17.2507 14.6746 17.2499H20.2498L20.2499 5.24999H3.74999Z" fill="#1D1F21" style="fill: var(--ui-icon-primary-color);"/>
</svg>
