<svg  viewBox="0 0 24 24" fill="none" xmlns="http://www.w3.org/2000/svg" id="__THIS_ID_NEEDS_FOR_UI_ICON_COMPONENT__">
<path d="M21.6131 17.7911C22.1885 16.7154 22.4929 15.5156 22.4999 14.2957C22.5068 13.0757 22.2161 11.8725 21.653 10.7903C21.0899 9.70813 20.2713 8.7796 19.2683 8.08523C18.2652 7.39085 17.108 6.9516 15.8968 6.80553C15.4989 5.87449 14.9166 5.03366 14.185 4.33371C13.4534 3.63377 12.5876 3.0892 11.6399 2.73283C10.6922 2.37647 9.68212 2.21569 8.67059 2.26017C7.65906 2.30466 6.66701 2.5535 5.75424 2.99169C4.84146 3.42988 4.02686 4.04835 3.35953 4.80982C2.6922 5.5713 2.18596 6.46 1.87132 7.42238C1.55669 8.38476 1.44016 9.40088 1.52878 10.4095C1.6174 11.4181 1.90932 12.3984 2.38696 13.2911L1.80715 15.3208C1.74282 15.5459 1.73984 15.784 1.79852 16.0106C1.85721 16.2372 1.97542 16.444 2.14092 16.6095C2.30642 16.775 2.51317 16.8933 2.73975 16.952C2.96633 17.0108 3.20449 17.0078 3.42956 16.9435L5.45947 16.3636C6.28089 16.8033 7.17718 17.0857 8.10227 17.1964C8.51124 18.1531 9.1147 19.0143 9.87433 19.7253C10.6339 20.4363 11.5331 20.9815 12.5148 21.3264C13.4964 21.6712 14.539 21.8082 15.5764 21.7285C16.6138 21.6488 17.6233 21.3543 18.5407 20.8635L20.5705 21.4435C20.7956 21.5078 21.0337 21.5108 21.2603 21.452C21.4869 21.3933 21.6936 21.2751 21.8591 21.1096C22.0246 20.9441 22.1428 20.7373 22.2016 20.5107C22.2603 20.2841 22.2573 20.046 22.193 19.8209L21.6131 17.7911ZM5.55487 14.8063C5.48517 14.8063 5.4158 14.816 5.34878 14.8351L3.34213 15.4085L3.91543 13.4017C3.94351 13.3035 3.9512 13.2005 3.93804 13.0991C3.92487 12.9978 3.89114 12.9002 3.83889 12.8124C3.09366 11.5557 2.83279 10.0702 3.10525 8.63485C3.37772 7.19948 4.16478 5.91293 5.31866 5.01677C6.47255 4.12061 7.91388 3.67648 9.37203 3.76778C10.8302 3.85908 12.2049 4.47952 13.2379 5.51261C14.271 6.54569 14.8915 7.92037 14.9828 9.37852C15.0741 10.8367 14.6299 12.278 13.7338 13.4319C12.8376 14.5858 11.5511 15.3728 10.1157 15.6453C8.68032 15.9178 7.19485 15.6569 5.9382 14.9117C5.82223 14.8427 5.6898 14.8063 5.55487 14.8063ZM20.1612 17.3123C20.1089 17.4001 20.0752 17.4977 20.062 17.5991C20.0489 17.7004 20.0566 17.8034 20.0847 17.9017L20.658 19.9085L18.6512 19.3352C18.5529 19.3071 18.45 19.2994 18.3486 19.3126C18.2473 19.3257 18.1497 19.3595 18.0619 19.4117C17.3755 19.8185 16.6149 20.0844 15.8245 20.1938C15.0342 20.3032 14.2299 20.254 13.4588 20.049C12.6877 19.844 11.9652 19.4873 11.3336 18.9998C10.7019 18.5123 10.1738 17.9038 9.78003 17.2099C10.8073 17.1036 11.8016 16.786 12.7003 16.277C13.599 15.7681 14.3828 15.0788 15.0023 14.2525C15.6219 13.4261 16.0639 12.4806 16.3006 11.4753C16.5373 10.47 16.5636 9.42656 16.3777 8.41061C17.2941 8.62707 18.1467 9.05608 18.8665 9.66296C19.5864 10.2699 20.1534 11.0376 20.5218 11.9041C20.8901 12.7707 21.0493 13.7117 20.9867 14.6512C20.9241 15.5907 20.6413 16.5023 20.1612 17.3123Z" fill="#1D1F21" style="fill: var(--ui-icon-primary-color);"/>
</svg>
