<svg  viewBox="0 0 24 24" fill="none" xmlns="http://www.w3.org/2000/svg" id="__THIS_ID_NEEDS_FOR_UI_ICON_COMPONENT__">
<path d="M11.9999 2.25C10.3064 2.25045 8.64222 2.69187 7.17115 3.5308C5.70007 4.36973 4.47279 5.57726 3.61012 7.03455C2.74745 8.49183 2.27911 10.1486 2.2512 11.8419C2.22329 13.5351 2.63678 15.2065 3.45096 16.6914L2.6496 19.496C2.57615 19.7532 2.5728 20.0253 2.63992 20.2843C2.70704 20.5432 2.84217 20.7795 3.03132 20.9686C3.22047 21.1578 3.45675 21.2929 3.71569 21.36C3.97463 21.4271 4.2468 21.4237 4.504 21.3503L7.30863 20.549C8.61196 21.2642 10.0616 21.6718 11.5466 21.7408C13.0317 21.8098 14.5128 21.5384 15.8769 20.9471C17.2409 20.3559 18.4517 19.4606 19.4167 18.3297C20.3817 17.1988 21.0752 15.8622 21.4444 14.4221C21.8136 12.982 21.8486 11.4766 21.5468 10.0209C21.2449 8.56522 20.6142 7.19782 19.7029 6.02327C18.7915 4.84872 17.6236 3.89811 16.2886 3.24413C14.9535 2.59014 13.4865 2.2501 11.9999 2.25ZM11.9999 20.25C10.5183 20.251 9.06386 19.8525 7.78974 19.0964C7.70191 19.0441 7.60432 19.0104 7.50298 18.9972C7.40163 18.9841 7.29867 18.9918 7.20041 19.0199L4.09193 19.908L4.97999 16.7996C5.00806 16.7013 5.01575 16.5984 5.00259 16.497C4.98943 16.3957 4.95569 16.2981 4.90345 16.2102C3.97426 14.6447 3.58893 12.8158 3.8075 11.0084C4.02607 9.201 4.83626 7.51666 6.11186 6.21773C7.38746 4.91879 9.05684 4.07821 10.86 3.82692C12.6631 3.57563 14.4987 3.92774 16.0808 4.8284C17.663 5.72906 18.9028 7.12771 19.6072 8.80645C20.3116 10.4852 20.4411 12.3498 19.9753 14.1097C19.5096 15.8697 18.4749 17.4262 17.0323 18.5368C15.5898 19.6474 13.8204 20.2498 11.9999 20.25ZM15.7499 10.5C15.7499 10.6989 15.6709 10.8897 15.5302 11.0303C15.3896 11.171 15.1988 11.25 14.9999 11.25H8.99988C8.80097 11.25 8.6102 11.171 8.46955 11.0303C8.3289 10.8897 8.24988 10.6989 8.24988 10.5C8.24988 10.3011 8.3289 10.1103 8.46955 9.96967C8.6102 9.82902 8.80097 9.75 8.99988 9.75H14.9999C15.1988 9.75001 15.3896 9.82903 15.5302 9.96968C15.6709 10.1103 15.7499 10.3011 15.7499 10.5ZM15.7499 13.5C15.7499 13.6989 15.6709 13.8897 15.5302 14.0303C15.3896 14.171 15.1988 14.25 14.9999 14.25H8.99988C8.80097 14.25 8.6102 14.171 8.46955 14.0303C8.3289 13.8897 8.24988 13.6989 8.24988 13.5C8.24988 13.3011 8.3289 13.1103 8.46955 12.9697C8.6102 12.829 8.80097 12.75 8.99988 12.75H14.9999C15.1988 12.75 15.3896 12.829 15.5302 12.9697C15.6709 13.1103 15.7499 13.3011 15.7499 13.5Z" fill="#1D1F21" style="fill: var(--ui-icon-primary-color);"/>
</svg>
