<svg  viewBox="0 0 24 24" fill="none" xmlns="http://www.w3.org/2000/svg" id="__THIS_ID_NEEDS_FOR_UI_ICON_COMPONENT__">
<path d="M12.375 20.9993H4.46878C4.07938 20.9988 3.70605 20.844 3.43069 20.5686C3.15534 20.2933 3.00045 19.9199 3 19.5305V11.6243C3 9.77007 3.54983 7.95751 4.57997 6.4158C5.61011 4.87409 7.07429 3.67247 8.78734 2.9629C10.5004 2.25333 12.3854 2.06767 14.204 2.42941C16.0225 2.79115 17.693 3.68403 19.0041 4.99515C20.3152 6.30626 21.2081 7.97673 21.5699 9.7953C21.9316 11.6139 21.7459 13.4989 21.0364 15.2119C20.3268 16.925 19.1252 18.3892 17.5835 19.4193C16.0418 20.4494 14.2292 20.9993 12.375 20.9993ZM4.5 19.4993H12.375C13.9325 19.4993 15.4551 19.0374 16.7501 18.1721C18.0452 17.3068 19.0545 16.0769 19.6506 14.6379C20.2466 13.1989 20.4025 11.6155 20.0987 10.0879C19.7948 8.56034 19.0448 7.15714 17.9435 6.05581C16.8421 4.95447 15.4389 4.20445 13.9113 3.90059C12.3837 3.59673 10.8003 3.75268 9.36137 4.34872C7.9224 4.94476 6.69249 5.95412 5.82718 7.24916C4.96186 8.54419 4.5 10.0667 4.5 11.6243V19.4993Z" fill="#1D1F21" style="fill: var(--ui-icon-primary-color);"/>
</svg>
