<svg  viewBox="0 0 24 24" fill="none" xmlns="http://www.w3.org/2000/svg" id="__THIS_ID_NEEDS_FOR_UI_ICON_COMPONENT__">
<path d="M20.2499 4.50049H3.74996C3.35227 4.50093 2.971 4.65911 2.6898 4.94032C2.40859 5.22153 2.25041 5.6028 2.24997 6.00048V20.8902C2.24825 21.1762 2.32911 21.4566 2.48285 21.6978C2.6366 21.939 2.85668 22.1307 3.11669 22.2499C3.31615 22.3434 3.53368 22.3921 3.75399 22.3925C4.10618 22.3918 4.44673 22.2663 4.7152 22.0384L7.73423 19.5004H20.2499C20.6476 19.5 21.0289 19.3418 21.3101 19.0606C21.5913 18.7794 21.7494 18.3981 21.7499 18.0004V6.00048C21.7494 5.6028 21.5913 5.22153 21.3101 4.94032C21.0289 4.65911 20.6476 4.50093 20.2499 4.50049ZM20.2499 18.0004H7.73423C7.38116 18.0006 7.03945 18.1252 6.76908 18.3522L3.74996 20.8902V6.00048H20.2499V18.0004ZM10.875 12.0005C10.875 11.778 10.941 11.5605 11.0646 11.3755C11.1882 11.1905 11.3639 11.0463 11.5695 10.9611C11.775 10.876 12.0012 10.8537 12.2195 10.8971C12.4377 10.9405 12.6381 11.0477 12.7955 11.205C12.9528 11.3623 13.0599 11.5628 13.1034 11.781C13.1468 11.9993 13.1245 12.2255 13.0393 12.431C12.9542 12.6366 12.81 12.8123 12.625 12.9359C12.44 13.0595 12.2225 13.1255 12 13.1255C11.7016 13.1255 11.4155 13.007 11.2045 12.796C10.9935 12.585 10.875 12.2989 10.875 12.0005ZM6.375 12.0005C6.375 11.778 6.44098 11.5605 6.56459 11.3755C6.68821 11.1905 6.86391 11.0463 7.06947 10.9611C7.27504 10.876 7.50124 10.8537 7.71947 10.8971C7.9377 10.9405 8.13815 11.0477 8.29548 11.205C8.45282 11.3623 8.55996 11.5628 8.60337 11.781C8.64678 11.9993 8.6245 12.2255 8.53935 12.431C8.4542 12.6366 8.31001 12.8123 8.12501 12.9359C7.94 13.0595 7.7225 13.1255 7.49999 13.1255C7.20162 13.1255 6.91548 13.007 6.7045 12.796C6.49352 12.585 6.375 12.2989 6.375 12.0005ZM15.375 12.0005C15.375 11.778 15.4409 11.5605 15.5646 11.3755C15.6882 11.1905 15.8639 11.0463 16.0694 10.9611C16.275 10.876 16.5012 10.8537 16.7194 10.8971C16.9377 10.9405 17.1381 11.0477 17.2955 11.205C17.4528 11.3623 17.5599 11.5628 17.6033 11.781C17.6467 11.9993 17.6245 12.2255 17.5393 12.431C17.4542 12.6366 17.31 12.8123 17.125 12.9359C16.94 13.0595 16.7225 13.1255 16.5 13.1255C16.2016 13.1255 15.9154 13.007 15.7045 12.796C15.4935 12.585 15.375 12.2989 15.375 12.0005Z" fill="#1D1F21" style="fill: var(--ui-icon-primary-color);"/>
</svg>
