<svg  viewBox="0 0 24 24" fill="none" xmlns="http://www.w3.org/2000/svg" id="__THIS_ID_NEEDS_FOR_UI_ICON_COMPONENT__">
<path d="M20.2501 3.75H3.75012C3.35243 3.75045 2.97117 3.90864 2.68996 4.18984C2.40876 4.47105 2.25058 4.85231 2.25012 5.24999V17.2499C2.25058 17.6475 2.40876 18.0288 2.68996 18.31C2.97117 18.5912 3.35243 18.7494 3.75012 18.7498L9.32538 18.7499L10.7139 21.0639C10.8471 21.286 11.0357 21.4698 11.2611 21.5975C11.4865 21.7251 11.7411 21.7921 12.0001 21.7921C12.2591 21.7921 12.5137 21.7251 12.7391 21.5975C12.9645 21.4698 13.153 21.286 13.2863 21.0639L14.6747 18.7499H20.25C20.6477 18.7495 21.0289 18.5913 21.3102 18.3101C21.5914 18.0289 21.7496 17.6476 21.75 17.2499V5.24999C21.7496 4.85231 21.5914 4.47105 21.3102 4.18984C21.029 3.90864 20.6477 3.75045 20.2501 3.75ZM20.25 17.2499H14.6747C14.4158 17.2507 14.1615 17.3181 13.9362 17.4456C13.7109 17.5732 13.5223 17.7566 13.3885 17.9782H13.3884L12.0001 20.2921L10.6116 17.9782C10.4778 17.7565 10.2892 17.5731 10.0639 17.4455C9.8386 17.318 9.58427 17.2506 9.32538 17.2499H3.75012V5.24999H20.2501L20.25 17.2499ZM10.875 11.25C10.875 11.0275 10.941 10.81 11.0646 10.625C11.1883 10.44 11.364 10.2958 11.5695 10.2107C11.7751 10.1255 12.0013 10.1032 12.2195 10.1466C12.4377 10.19 12.6382 10.2972 12.7955 10.4545C12.9529 10.6119 13.06 10.8123 13.1034 11.0305C13.1468 11.2488 13.1245 11.475 13.0394 11.6805C12.9542 11.8861 12.8101 12.0618 12.625 12.1854C12.44 12.309 12.2225 12.375 12 12.375C11.7017 12.375 11.4155 12.2565 11.2045 12.0455C10.9936 11.8345 10.875 11.5484 10.875 11.25ZM6.37506 11.25C6.37506 11.0275 6.44104 10.81 6.56465 10.625C6.68827 10.44 6.86397 10.2958 7.06954 10.2107C7.2751 10.1255 7.5013 10.1032 7.71953 10.1466C7.93776 10.19 8.13821 10.2972 8.29555 10.4545C8.45288 10.6119 8.56002 10.8123 8.60343 11.0305C8.64684 11.2488 8.62456 11.475 8.53941 11.6805C8.45427 11.8861 8.31007 12.0618 8.12507 12.1854C7.94006 12.309 7.72256 12.375 7.50005 12.375C7.20169 12.375 6.91554 12.2565 6.70456 12.0455C6.49358 11.8345 6.37506 11.5484 6.37506 11.25ZM15.375 11.25C15.375 11.0275 15.441 10.81 15.5646 10.625C15.6882 10.44 15.8639 10.2958 16.0695 10.2107C16.2751 10.1255 16.5013 10.1032 16.7195 10.1466C16.9377 10.19 17.1382 10.2972 17.2955 10.4545C17.4528 10.6119 17.56 10.8123 17.6034 11.0305C17.6468 11.2488 17.6245 11.475 17.5394 11.6805C17.4542 11.8861 17.31 12.0618 17.125 12.1854C16.94 12.309 16.7225 12.375 16.5 12.375C16.2017 12.375 15.9155 12.2565 15.7045 12.0455C15.4936 11.8345 15.375 11.5484 15.375 11.25Z" fill="#1D1F21" style="fill: var(--ui-icon-primary-color);"/>
</svg>
