<svg  viewBox="0 0 24 24" fill="none" xmlns="http://www.w3.org/2000/svg" id="__THIS_ID_NEEDS_FOR_UI_ICON_COMPONENT__">
<path d="M12.375 2.24927C9.88946 2.25207 7.50652 3.24069 5.74897 4.99824C3.99142 6.75578 3.0028 9.13872 3 11.6243V19.5305C3.00045 19.9199 3.15534 20.2933 3.43069 20.5686C3.70605 20.844 4.07938 20.9988 4.46878 20.9993H12.375C14.8614 20.9993 17.246 20.0115 19.0041 18.2534C20.7623 16.4952 21.75 14.1107 21.75 11.6243C21.75 9.13786 20.7623 6.75329 19.0041 4.99514C17.246 3.23699 14.8614 2.24927 12.375 2.24927ZM12.375 19.4993H4.5V11.6243C4.5 10.0667 4.96186 8.54419 5.82718 7.24915C6.69249 5.95411 7.9224 4.94476 9.36137 4.34872C10.8003 3.75268 12.3837 3.59673 13.9113 3.90058C15.4389 4.20444 16.8421 4.95446 17.9435 6.0558C19.0448 7.15714 19.7948 8.56033 20.0987 10.0879C20.4025 11.6155 20.2466 13.1989 19.6506 14.6379C19.0545 16.0769 18.0452 17.3068 16.7501 18.1721C15.4551 19.0374 13.9325 19.4993 12.375 19.4993ZM13.5 11.9994C13.5 12.2219 13.4341 12.4394 13.3104 12.6244C13.1868 12.8094 13.0111 12.9536 12.8056 13.0387C12.6 13.1239 12.3738 13.1462 12.1556 13.1027C11.9373 13.0593 11.7369 12.9522 11.5796 12.7949C11.4222 12.6375 11.3151 12.4371 11.2717 12.2188C11.2283 12.0006 11.2505 11.7744 11.3357 11.5688C11.4208 11.3633 11.565 11.1876 11.75 11.064C11.935 10.9403 12.1525 10.8744 12.375 10.8744C12.6734 10.8744 12.9596 10.9929 13.1705 11.2039C13.3815 11.4148 13.5 11.701 13.5 11.9994V11.9994ZM9.00005 11.9994C9.00005 12.2219 8.93407 12.4394 8.81045 12.6244C8.68683 12.8094 8.51113 12.9536 8.30556 13.0387C8.1 13.1239 7.8738 13.1462 7.65557 13.1027C7.43734 13.0593 7.23688 12.9522 7.07955 12.7949C6.92222 12.6375 6.81507 12.4371 6.77166 12.2188C6.72825 12.0006 6.75053 11.7744 6.83568 11.5688C6.92083 11.3633 7.06502 11.1876 7.25003 11.064C7.43503 10.9403 7.65254 10.8744 7.87505 10.8744C8.17341 10.8744 8.45956 10.9929 8.67054 11.2039C8.88152 11.4148 9.00004 11.701 9.00005 11.9994V11.9994ZM18 11.9994C18 12.2219 17.9341 12.4394 17.8104 12.6244C17.6868 12.8094 17.5111 12.9536 17.3056 13.0387C17.1 13.1239 16.8738 13.1462 16.6556 13.1027C16.4373 13.0593 16.2369 12.9522 16.0796 12.7949C15.9222 12.6375 15.8151 12.4371 15.7717 12.2188C15.7283 12.0006 15.7505 11.7744 15.8357 11.5688C15.9208 11.3633 16.065 11.1876 16.25 11.064C16.435 10.9403 16.6525 10.8744 16.875 10.8744C17.1734 10.8744 17.4596 10.9929 17.6705 11.2039C17.8815 11.4148 18 11.701 18 11.9994V11.9994Z" fill="#1D1F21" style="fill: var(--ui-icon-primary-color);"/>
</svg>
