<svg  viewBox="0 0 24 24" fill="none" xmlns="http://www.w3.org/2000/svg" id="__THIS_ID_NEEDS_FOR_UI_ICON_COMPONENT__">
<path d="M11.9999 2.25C10.3064 2.25045 8.64225 2.69187 7.17118 3.5308C5.7001 4.36973 4.47283 5.57726 3.61015 7.03455C2.74748 8.49183 2.27914 10.1486 2.25123 11.8419C2.22333 13.5351 2.63681 15.2065 3.45099 16.6914L2.64963 19.496C2.57618 19.7532 2.57284 20.0253 2.63995 20.2843C2.70707 20.5432 2.8422 20.7795 3.03135 20.9686C3.2205 21.1578 3.45678 21.2929 3.71572 21.36C3.97466 21.4271 4.24683 21.4237 4.50403 21.3503L7.30866 20.549C8.61199 21.2642 10.0616 21.6718 11.5467 21.7408C13.0317 21.8098 14.5129 21.5384 15.8769 20.9471C17.241 20.3559 18.4517 19.4606 19.4167 18.3297C20.3817 17.1988 21.0753 15.8622 21.4445 14.4221C21.8137 12.982 21.8487 11.4766 21.5468 10.0209C21.245 8.56522 20.6143 7.19782 19.7029 6.02327C18.7915 4.84872 17.6237 3.89811 16.2886 3.24413C14.9535 2.59014 13.4866 2.2501 11.9999 2.25ZM11.9999 20.25C10.5183 20.251 9.06389 19.8525 7.78977 19.0964C7.70194 19.0441 7.60435 19.0104 7.50301 18.9972C7.40167 18.9841 7.2987 18.9918 7.20044 19.0199L4.09196 19.908L4.98002 16.7996C5.00809 16.7013 5.01578 16.5984 5.00262 16.497C4.98946 16.3957 4.95572 16.2981 4.90348 16.2102C3.97429 14.6447 3.58897 12.8158 3.80753 11.0084C4.0261 9.201 4.83629 7.51666 6.11189 6.21773C7.38749 4.91879 9.05687 4.07821 10.86 3.82692C12.6631 3.57563 14.4987 3.92774 16.0809 4.8284C17.663 5.72906 18.9028 7.12771 19.6073 8.80645C20.3117 10.4852 20.4411 12.3498 19.9754 14.1097C19.5096 15.8697 18.4749 17.4262 17.0324 18.5368C15.5898 19.6474 13.8205 20.2498 11.9999 20.25ZM13.125 12C13.125 12.2225 13.059 12.44 12.9354 12.625C12.8117 12.81 12.636 12.9542 12.4305 13.0394C12.2249 13.1245 11.9987 13.1468 11.7805 13.1034C11.5623 13.06 11.3618 12.9528 11.2045 12.7955C11.0471 12.6382 10.94 12.4377 10.8966 12.2195C10.8532 12.0012 10.8754 11.775 10.9606 11.5695C11.0457 11.3639 11.1899 11.1882 11.3749 11.0646C11.5599 10.941 11.7775 10.875 12 10.875C12.2983 10.875 12.5845 10.9935 12.7955 11.2045C13.0064 11.4155 13.125 11.7016 13.125 12ZM8.62496 12C8.62496 12.2225 8.55898 12.44 8.43536 12.625C8.31175 12.81 8.13604 12.9542 7.93048 13.0394C7.72491 13.1245 7.49871 13.1468 7.28048 13.1034C7.06225 13.06 6.8618 12.9528 6.70446 12.7955C6.54713 12.6382 6.43998 12.4377 6.39657 12.2195C6.35317 12.0012 6.37544 11.775 6.46059 11.5695C6.54574 11.3639 6.68994 11.1882 6.87494 11.0646C7.05995 10.941 7.27745 10.875 7.49996 10.875C7.79833 10.875 8.08448 10.9935 8.29545 11.2045C8.50643 11.4155 8.62496 11.7016 8.62496 12ZM17.625 12C17.625 12.2225 17.559 12.44 17.4354 12.625C17.3117 12.81 17.136 12.9542 16.9305 13.0394C16.7249 13.1245 16.4987 13.1468 16.2805 13.1034C16.0623 13.06 15.8618 12.9528 15.7045 12.7955C15.5471 12.6382 15.44 12.4377 15.3966 12.2195C15.3532 12.0012 15.3754 11.775 15.4606 11.5695C15.5457 11.3639 15.6899 11.1882 15.8749 11.0646C16.0599 10.941 16.2775 10.875 16.5 10.875C16.7983 10.875 17.0845 10.9935 17.2955 11.2045C17.5064 11.4155 17.625 11.7016 17.625 12Z" fill="#1D1F21" style="fill: var(--ui-icon-primary-color);"/>
</svg>
