<svg  viewBox="0 0 24 24" fill="none" xmlns="http://www.w3.org/2000/svg" id="__THIS_ID_NEEDS_FOR_UI_ICON_COMPONENT__">
<path d="M3.75396 22.3925C3.53366 22.3921 3.31611 22.3435 3.11667 22.2499C2.85665 22.1307 2.63656 21.939 2.48281 21.6978C2.32907 21.4566 2.24821 21.1762 2.24994 20.8902V6.00048C2.25039 5.6028 2.40857 5.22153 2.68977 4.94033C2.97098 4.65912 3.35225 4.50094 3.74993 4.50049H20.2499C20.6476 4.50094 21.0288 4.65912 21.31 4.94033C21.5912 5.22153 21.7494 5.6028 21.7499 6.00048V18.0004C21.7494 18.3981 21.5912 18.7794 21.31 19.0606C21.0288 19.3418 20.6476 19.5 20.2499 19.5004H7.7342V19.5004L4.71517 22.0383C4.44671 22.2663 4.10616 22.3918 3.75396 22.3925ZM3.74993 6.00048V20.8902L6.76905 18.3523C7.03941 18.1252 7.38113 18.0006 7.7342 18.0004H20.2499V6.00048H3.74993Z" fill="#1D1F21" style="fill: var(--ui-icon-primary-color);"/>
</svg>
