<svg  viewBox="0 0 24 24" fill="none" xmlns="http://www.w3.org/2000/svg" id="__THIS_ID_NEEDS_FOR_UI_ICON_COMPONENT__">
<path d="M8.24998 9.74988C8.24999 9.55097 8.32901 9.36022 8.46966 9.21957C8.61031 9.07892 8.80106 8.9999 8.99997 8.99989H15C15.1989 8.99989 15.3896 9.0789 15.5303 9.21956C15.6709 9.36021 15.7499 9.55097 15.7499 9.74988C15.7499 9.94879 15.6709 10.1396 15.5303 10.2802C15.3896 10.4209 15.1989 10.4999 15 10.4999H8.99997C8.80106 10.4999 8.61031 10.4209 8.46966 10.2802C8.32901 10.1396 8.24999 9.94879 8.24998 9.74988ZM8.99997 13.4999H15C15.1989 13.4999 15.3896 13.4209 15.5303 13.2802C15.6709 13.1395 15.7499 12.9488 15.7499 12.7499C15.7499 12.551 15.6709 12.3602 15.5303 12.2195C15.3896 12.0789 15.1989 11.9999 15 11.9999H8.99997C8.80106 11.9999 8.6103 12.0789 8.46965 12.2195C8.32899 12.3602 8.24998 12.551 8.24998 12.7499C8.24998 12.9488 8.32899 13.1395 8.46965 13.2802C8.6103 13.4209 8.80106 13.4999 8.99997 13.4999ZM21.7499 5.24999V17.2499C21.7495 17.6476 21.5913 18.0289 21.31 18.3101C21.0288 18.5913 20.6475 18.7495 20.2498 18.7499H14.6746L13.2862 21.0639C13.1529 21.286 12.9644 21.4698 12.739 21.5975C12.5136 21.7251 12.259 21.7921 12 21.7921C11.7409 21.7921 11.4863 21.7251 11.2609 21.5975C11.0355 21.4698 10.847 21.286 10.7137 21.0639L9.32526 18.7499L3.74999 18.7498C3.35231 18.7494 2.97105 18.5912 2.68984 18.31C2.40864 18.0288 2.25045 17.6475 2.25 17.2499V5.24999C2.25045 4.85231 2.40864 4.47105 2.68984 4.18984C2.97105 3.90864 3.35231 3.75045 3.74999 3.75H20.2499C20.6476 3.75045 21.0289 3.90864 21.3101 4.18984C21.5913 4.47105 21.7495 4.85231 21.7499 5.24999ZM20.2499 5.24999H3.74999V17.2499H9.32526C9.58414 17.2506 9.83848 17.318 10.0638 17.4455C10.289 17.5731 10.4777 17.7565 10.6115 17.9782L12 20.2921L13.3883 17.9782H13.3884C13.5222 17.7566 13.7108 17.5732 13.9361 17.4456C14.1614 17.3181 14.4157 17.2507 14.6746 17.2499H20.2498L20.2499 5.24999Z" fill="#1D1F21" style="fill: var(--ui-icon-primary-color);"/>
</svg>
