<svg  viewBox="0 0 24 24" fill="none" xmlns="http://www.w3.org/2000/svg" id="__THIS_ID_NEEDS_FOR_UI_ICON_COMPONENT__">
<path d="M21.7499 9.00046C21.7495 8.60278 21.5913 8.22152 21.3101 7.94031C21.0289 7.65911 20.6476 7.50093 20.2499 7.50047H17.2499V4.50048C17.2495 4.1028 17.0913 3.72153 16.8101 3.44033C16.5289 3.15912 16.1476 3.00094 15.7499 3.00049H3.74999C3.35231 3.00094 2.97105 3.15912 2.68984 3.44033C2.40864 3.72153 2.25045 4.1028 2.25 4.50048V16.5004C2.25 16.642 2.29008 16.7807 2.36561 16.9005C2.44115 17.0203 2.54905 17.1162 2.67683 17.1772C2.80461 17.2383 2.94705 17.2618 3.08768 17.2453C3.22831 17.2287 3.36138 17.1727 3.47149 17.0837L6.74998 14.4332L6.75008 17.2504C6.75053 17.6481 6.90871 18.0294 7.18992 18.3106C7.47112 18.5918 7.85239 18.75 8.25007 18.7504H17.0239L20.5285 21.5837C20.6386 21.6727 20.7717 21.7287 20.9123 21.7453C21.053 21.7618 21.1954 21.7382 21.3232 21.6772C21.451 21.6162 21.5589 21.5203 21.6344 21.4005C21.7099 21.2807 21.75 21.142 21.75 21.0004L21.7499 9.00046ZM6.23939 12.9172L3.74999 14.9297V4.50048H15.7499V12.7505H6.71089C6.53927 12.7505 6.37285 12.8093 6.23939 12.9172ZM17.7606 17.4172C17.6272 17.3093 17.4607 17.2504 17.2891 17.2504H8.25007L8.24998 14.2504H15.7499C16.1476 14.25 16.5289 14.0918 16.8101 13.8106C17.0913 13.5294 17.2495 13.1481 17.2499 12.7505V9.00046H20.2499L20.25 19.4297L17.7606 17.4172Z" fill="#1D1F21" style="fill: var(--ui-icon-primary-color);"/>
</svg>
