<svg  viewBox="0 0 24 24" fill="none" xmlns="http://www.w3.org/2000/svg" id="__THIS_ID_NEEDS_FOR_UI_ICON_COMPONENT__">
<path d="M11.9999 21.7501C10.36 21.7508 8.74645 21.3378 7.30864 20.5491L4.50402 21.3504C4.24681 21.4238 3.97463 21.4272 3.71569 21.3601C3.45674 21.293 3.22045 21.1579 3.0313 20.9687C2.84214 20.7796 2.70701 20.5433 2.6399 20.2844C2.57279 20.0254 2.57614 19.7533 2.64961 19.496L3.45097 16.6915C2.42234 14.8177 2.03788 12.6579 2.35674 10.5443C2.67561 8.43071 3.68013 6.48044 5.21577 4.99356C6.7514 3.50667 8.73306 2.56556 10.8558 2.31503C12.9786 2.06449 15.1249 2.51841 16.9645 3.60694C18.8041 4.69547 20.2351 6.3583 21.0372 8.33959C21.8394 10.3209 21.9683 12.5109 21.4041 14.5726C20.84 16.6343 19.614 18.4536 17.9148 19.7504C16.2156 21.0472 14.1374 21.7498 11.9999 21.7501ZM7.40642 18.9911C7.54135 18.9911 7.67379 19.0275 7.78975 19.0965C9.5176 20.1211 11.5601 20.4798 13.5336 20.1051C15.5072 19.7305 17.2761 18.6483 18.5083 17.0617C19.7404 15.4752 20.3511 13.4934 20.2255 11.4885C20.0999 9.48361 19.2468 7.59351 17.8263 6.17309C16.4058 4.75268 14.5157 3.89965 12.5108 3.77419C10.5059 3.64872 8.52414 4.25944 6.93764 5.49167C5.35115 6.72391 4.26904 8.4929 3.89449 10.4665C3.51994 12.4401 3.87872 14.4825 4.90346 16.2103C4.9557 16.2982 4.98944 16.3958 5.0026 16.4971C5.01576 16.5984 5.00807 16.7014 4.98 16.7997L4.09194 19.908L7.20034 19.0199C7.26736 19.0008 7.33672 18.9911 7.40642 18.9911Z" fill="#1D1F21" style="fill: var(--ui-icon-primary-color);"/>
</svg>
