<svg  viewBox="0 0 24 24" fill="none" xmlns="http://www.w3.org/2000/svg" id="__THIS_ID_NEEDS_FOR_UI_ICON_COMPONENT__">
<path d="M16.6674 9.23213C16.7354 9.30338 16.7887 9.38732 16.8243 9.47917C16.8599 9.57102 16.877 9.66897 16.8747 9.76743C16.8724 9.8659 16.8507 9.96295 16.8109 10.053C16.7711 10.1431 16.714 10.2245 16.6427 10.2925L11.1428 15.5425C11.0033 15.6757 10.8178 15.75 10.625 15.75C10.4321 15.75 10.2466 15.6757 10.1071 15.5425L7.35706 12.9175C7.21317 12.7802 7.12973 12.5913 7.12509 12.3925C7.12046 12.1936 7.19501 12.0011 7.33234 11.8572C7.46968 11.7133 7.65855 11.6298 7.85741 11.6252C8.05626 11.6206 8.24882 11.6951 8.39271 11.8325L10.6249 13.9632L15.6071 9.2075C15.6783 9.13949 15.7622 9.08618 15.8541 9.05061C15.9459 9.01504 16.0439 8.99791 16.1423 9.0002C16.2408 9.00248 16.3379 9.02414 16.428 9.06394C16.518 9.10373 16.5994 9.16089 16.6674 9.23213ZM21.7499 12C21.7499 13.9284 21.1781 15.8134 20.1067 17.4168C19.0354 19.0202 17.5126 20.2699 15.731 21.0078C13.9495 21.7458 11.9891 21.9389 10.0978 21.5627C8.20644 21.1865 6.46915 20.2579 5.10559 18.8943C3.74203 17.5307 2.81343 15.7934 2.43723 13.9021C2.06102 12.0108 2.2541 10.0504 2.99206 8.26884C3.73001 6.48726 4.97969 4.96451 6.58307 3.89317C8.18645 2.82183 10.0715 2.25 11.9999 2.25C14.5848 2.25293 17.0631 3.28109 18.8909 5.10894C20.7188 6.93679 21.747 9.41504 21.7499 12ZM20.2499 12C20.2499 10.3683 19.766 8.77325 18.8595 7.41655C17.953 6.05984 16.6645 5.00242 15.157 4.37799C13.6495 3.75357 11.9907 3.59019 10.3904 3.90852C8.79004 4.22685 7.32003 5.01259 6.16625 6.16637C5.01247 7.32015 4.22673 8.79016 3.9084 10.3905C3.59008 11.9908 3.75345 13.6496 4.37788 15.1571C5.0023 16.6646 6.05972 17.9531 7.41643 18.8596C8.77313 19.7661 10.3682 20.25 11.9999 20.25C14.1872 20.2475 16.2841 19.3775 17.8308 17.8309C19.3774 16.2843 20.2474 14.1873 20.2499 12Z" fill="#1D1F21" style="fill: var(--ui-icon-primary-color);"/>
</svg>
