<svg  viewBox="0 0 24 24" fill="none" xmlns="http://www.w3.org/2000/svg" id="__THIS_ID_NEEDS_FOR_UI_ICON_COMPONENT__">
<path d="M14.4055 8.40542L6.15556 16.6554C6.01491 16.7961 5.82415 16.8751 5.62525 16.8751C5.42634 16.8751 5.23559 16.7961 5.09493 16.6554L0.969833 12.5306C0.829172 12.39 0.750139 12.1992 0.750122 12.0003C0.750105 11.8014 0.829105 11.6106 0.969742 11.47C1.11038 11.3293 1.30113 11.2503 1.50004 11.2503C1.69895 11.2502 1.88972 11.3292 2.03038 11.4699L5.6252 15.0644L13.3447 7.34468C13.4854 7.20402 13.6762 7.125 13.8751 7.125C14.074 7.125 14.2648 7.20402 14.4055 7.34468C14.5461 7.48535 14.6252 7.67612 14.6252 7.87505C14.6252 8.07398 14.5461 8.26475 14.4055 8.40542H14.4055ZM23.0305 7.34468C22.8898 7.20408 22.699 7.1251 22.5001 7.1251C22.3012 7.1251 22.1104 7.20408 21.9697 7.34468L14.2502 15.0644L12.5892 13.4036C12.4485 13.2629 12.2577 13.1839 12.0588 13.1839C11.8599 13.184 11.6692 13.263 11.5285 13.4036C11.3879 13.5443 11.3089 13.7351 11.3089 13.934C11.3089 14.1329 11.3879 14.3237 11.5286 14.4643L13.7199 16.6554C13.8606 16.7961 14.0513 16.8751 14.2502 16.8751C14.4491 16.8751 14.6399 16.7961 14.7806 16.6554L23.0305 8.40542C23.1711 8.26475 23.2501 8.07397 23.2501 7.87505C23.2501 7.67613 23.1711 7.48536 23.0305 7.34468Z" fill="#1D1F21" style="fill: var(--ui-icon-primary-color);"/>
</svg>
