<svg  viewBox="0 0 24 24" fill="none" xmlns="http://www.w3.org/2000/svg" id="__THIS_ID_NEEDS_FOR_UI_ICON_COMPONENT__">
<path d="M16.6675 9.23213C16.7355 9.30338 16.7888 9.38732 16.8244 9.47917C16.8599 9.57102 16.877 9.66897 16.8747 9.76743C16.8724 9.8659 16.8508 9.96295 16.811 10.053C16.7712 10.1431 16.714 10.2245 16.6428 10.2925L11.1428 15.5425C11.0033 15.6757 10.8179 15.75 10.625 15.75C10.4321 15.75 10.2467 15.6757 10.1072 15.5425L7.35712 12.9175C7.21323 12.7802 7.12978 12.5913 7.12515 12.3925C7.12051 12.1936 7.19506 12.0011 7.3324 11.8572C7.46974 11.7133 7.65861 11.6298 7.85746 11.6252C8.05632 11.6206 8.24888 11.6951 8.39277 11.8325L10.625 13.9632L15.6071 9.2075C15.751 9.07017 15.9435 8.99561 16.1424 9.00023C16.3413 9.00485 16.5301 9.08827 16.6675 9.23213ZM20.9999 4.5V19.5C20.9995 19.8977 20.8413 20.279 20.5601 20.5602C20.2789 20.8414 19.8976 20.9995 19.4999 21H4.49994C4.10225 20.9995 3.72099 20.8414 3.43978 20.5602C3.15857 20.279 3.00039 19.8977 2.99994 19.5V4.5C3.00039 4.10231 3.15858 3.72105 3.43978 3.43984C3.72099 3.15864 4.10225 3.00046 4.49994 3H19.4999C19.8976 3.00045 20.2789 3.15864 20.5601 3.43984C20.8413 3.72105 20.9995 4.10231 20.9999 4.5ZM19.5009 19.5L19.4999 4.5H4.49994V19.5H19.4999L19.5009 19.5Z" fill="#1D1F21" style="fill: var(--ui-icon-primary-color);"/>
</svg>
