<svg  viewBox="0 0 24 24" fill="none" xmlns="http://www.w3.org/2000/svg" id="__THIS_ID_NEEDS_FOR_UI_ICON_COMPONENT__">
<path d="M9.75011 17.9997C9.65161 17.9998 9.55405 17.9805 9.46305 17.9428C9.37205 17.9051 9.28939 17.8498 9.21983 17.7801L3.96983 12.5305C3.90018 12.4608 3.84493 12.3782 3.80724 12.2872C3.76954 12.1962 3.75013 12.0987 3.75012 12.0002C3.75011 11.9017 3.7695 11.8042 3.80719 11.7132C3.84487 11.6222 3.90011 11.5395 3.96974 11.4698C4.03938 11.4002 4.12205 11.3449 4.21304 11.3072C4.30403 11.2696 4.40155 11.2501 4.50004 11.2501C4.59853 11.2501 4.69606 11.2695 4.78705 11.3072C4.87805 11.3449 4.96073 11.4001 5.03038 11.4698L9.75011 16.1891L19.7197 6.2198C19.8604 6.07931 20.0511 6.00042 20.25 6.00049C20.4488 6.00055 20.6394 6.07956 20.78 6.22014C20.9206 6.36072 20.9997 6.55138 20.9997 6.7502C20.9998 6.94902 20.9209 7.13974 20.7805 7.28044L10.2805 17.7801C10.2109 17.8498 10.1282 17.9051 10.0372 17.9428C9.94618 17.9805 9.84862 17.9998 9.75011 17.9997Z" fill="#1D1F21" style="fill: var(--ui-icon-primary-color);"/>
</svg>
