<svg  viewBox="0 0 24 24" fill="none" xmlns="http://www.w3.org/2000/svg" id="__THIS_ID_NEEDS_FOR_UI_ICON_COMPONENT__">
<path d="M16.5 6.375C16.5 5.48499 16.2361 4.61496 15.7416 3.87494C15.2471 3.13491 14.5443 2.55814 13.7221 2.21754C12.8998 1.87695 11.995 1.78783 11.1221 1.96147C10.2492 2.1351 9.44736 2.56369 8.81802 3.19302C8.18869 3.82236 7.7601 4.62418 7.58647 5.4971C7.41284 6.37001 7.50195 7.27481 7.84254 8.09708C8.18314 8.91934 8.75991 9.62215 9.49994 10.1166C10.24 10.6111 11.11 10.875 12 10.875C13.1931 10.8737 14.3369 10.3991 15.1805 9.55549C16.0241 8.71187 16.4987 7.56806 16.5 6.375ZM12 9.375C11.4067 9.375 10.8266 9.19906 10.3333 8.86941C9.83994 8.53977 9.45543 8.07123 9.22836 7.52305C9.0013 6.97487 8.94189 6.37167 9.05765 5.78973C9.1734 5.20779 9.45912 4.67324 9.87868 4.25368C10.2982 3.83412 10.8328 3.5484 11.4147 3.43265C11.9967 3.31689 12.5999 3.3763 13.1481 3.60336C13.6962 3.83043 14.1648 4.21494 14.4944 4.70829C14.8241 5.20164 15 5.78166 15 6.375C14.9991 7.17038 14.6828 7.93292 14.1203 8.49534C13.5579 9.05775 12.7954 9.37411 12 9.375ZM17.625 11.625C16.735 11.625 15.865 11.8889 15.1249 12.3834C14.3849 12.8779 13.8081 13.5807 13.4675 14.4029C13.1269 15.2252 13.0378 16.13 13.2115 17.0029C13.3851 17.8758 13.8137 18.6776 14.443 19.307C15.0724 19.9363 15.8742 20.3649 16.7471 20.5385C17.62 20.7122 18.5248 20.6231 19.3471 20.2825C20.1693 19.9419 20.8721 19.3651 21.3666 18.6251C21.8611 17.885 22.125 17.015 22.125 16.125C22.1237 14.9319 21.6491 13.7881 20.8055 12.9445C19.9619 12.1009 18.8181 11.6264 17.625 11.625ZM17.625 19.125C17.0317 19.125 16.4516 18.9491 15.9583 18.6194C15.4649 18.2898 15.0804 17.8212 14.8534 17.2731C14.6263 16.7249 14.5669 16.1217 14.6826 15.5397C14.7984 14.9578 15.0841 14.4232 15.5037 14.0037C15.9232 13.5841 16.4578 13.2984 17.0397 13.1826C17.6217 13.0669 18.2249 13.1263 18.7731 13.3534C19.3212 13.5804 19.7898 13.9649 20.1194 14.4583C20.4491 14.9516 20.625 15.5317 20.625 16.125C20.6241 16.9204 20.3078 17.6829 19.7453 18.2453C19.1829 18.8078 18.4204 19.1241 17.625 19.125ZM6.375 11.625C5.48499 11.625 4.61496 11.8889 3.87494 12.3834C3.13491 12.8779 2.55814 13.5807 2.21754 14.4029C1.87695 15.2252 1.78783 16.13 1.96147 17.0029C2.1351 17.8758 2.56369 18.6776 3.19302 19.307C3.82236 19.9363 4.62418 20.3649 5.4971 20.5385C6.37001 20.7122 7.27481 20.6231 8.09708 20.2825C8.91934 19.9419 9.62215 19.3651 10.1166 18.6251C10.6111 17.885 10.875 17.015 10.875 16.125C10.8737 14.9319 10.3991 13.7881 9.55549 12.9445C8.71187 12.1009 7.56806 11.6264 6.375 11.625ZM6.375 19.125C5.78166 19.125 5.20164 18.9491 4.70829 18.6194C4.21494 18.2898 3.83043 17.8212 3.60336 17.2731C3.3763 16.7249 3.31689 16.1217 3.43265 15.5397C3.5484 14.9578 3.83412 14.4232 4.25368 14.0037C4.67324 13.5841 5.20779 13.2984 5.78973 13.1826C6.37167 13.0669 6.97487 13.1263 7.52305 13.3534C8.07123 13.5804 8.53977 13.9649 8.86941 14.4583C9.19906 14.9516 9.375 15.5317 9.375 16.125C9.37411 16.9204 9.05775 17.6829 8.49534 18.2453C7.93292 18.8078 7.17038 19.1241 6.375 19.125Z" fill="#1D1F21" style="fill: var(--ui-icon-primary-color);"/>
</svg>
