<svg  viewBox="0 0 24 24" fill="none" xmlns="http://www.w3.org/2000/svg" id="__THIS_ID_NEEDS_FOR_UI_ICON_COMPONENT__">
<path d="M7.125 3C6.30915 3 5.51163 3.24193 4.83327 3.69519C4.15492 4.14845 3.62621 4.79269 3.314 5.54643C3.00179 6.30018 2.9201 7.12958 3.07926 7.92975C3.23843 8.72992 3.63129 9.46493 4.20819 10.0418C4.78508 10.6187 5.52008 11.0116 6.32025 11.1707C7.12043 11.3299 7.94983 11.2482 8.70357 10.936C9.45732 10.6238 10.1016 10.0951 10.5548 9.41673C11.0081 8.73838 11.25 7.94085 11.25 7.125C11.2488 6.03136 10.8138 4.98287 10.0405 4.20955C9.26713 3.43623 8.21864 3.00124 7.125 3ZM7.125 9.75C6.60583 9.75 6.09831 9.59605 5.66663 9.30761C5.23495 9.01917 4.8985 8.6092 4.69982 8.12955C4.50114 7.64989 4.44915 7.12209 4.55044 6.61289C4.65173 6.10369 4.90173 5.63596 5.26885 5.26885C5.63596 4.90173 6.10369 4.65173 6.61289 4.55044C7.12209 4.44915 7.64989 4.50114 8.12955 4.69982C8.6092 4.8985 9.01917 5.23495 9.30761 5.66663C9.59605 6.09831 9.75 6.60583 9.75 7.125C9.74922 7.82096 9.47241 8.48818 8.9803 8.9803C8.48818 9.47241 7.82096 9.74922 7.125 9.75ZM16.875 11.25C17.6908 11.25 18.4884 11.0081 19.1667 10.5548C19.8451 10.1016 20.3738 9.45732 20.686 8.70357C20.9982 7.94983 21.0799 7.12043 20.9207 6.32025C20.7616 5.52008 20.3687 4.78508 19.7918 4.20819C19.2149 3.63129 18.4799 3.23843 17.6797 3.07926C16.8796 2.9201 16.0502 3.00179 15.2964 3.314C14.5427 3.62621 13.8985 4.15492 13.4452 4.83327C12.9919 5.51163 12.75 6.30915 12.75 7.125C12.7512 8.21864 13.1862 9.26713 13.9596 10.0405C14.7329 10.8138 15.7814 11.2488 16.875 11.25ZM16.875 4.5C17.3942 4.5 17.9017 4.65396 18.3334 4.94239C18.7651 5.23083 19.1015 5.6408 19.3002 6.12046C19.4989 6.60011 19.5508 7.12791 19.4496 7.63711C19.3483 8.14631 19.0983 8.61404 18.7312 8.98116C18.364 9.34827 17.8963 9.59828 17.3871 9.69956C16.8779 9.80085 16.3501 9.74887 15.8705 9.55019C15.3908 9.35151 14.9808 9.01505 14.6924 8.58337C14.404 8.15169 14.25 7.64418 14.25 7.125C14.2508 6.42905 14.5276 5.76182 15.0197 5.26971C15.5118 4.77759 16.179 4.50078 16.875 4.5ZM7.125 12.75C6.30915 12.75 5.51163 12.9919 4.83327 13.4452C4.15492 13.8985 3.62621 14.5427 3.314 15.2964C3.00179 16.0502 2.9201 16.8796 3.07926 17.6797C3.23843 18.4799 3.63129 19.2149 4.20819 19.7918C4.78508 20.3687 5.52008 20.7616 6.32025 20.9207C7.12043 21.0799 7.94983 20.9982 8.70357 20.686C9.45732 20.3738 10.1016 19.8451 10.5548 19.1667C11.0081 18.4884 11.25 17.6908 11.25 16.875C11.2488 15.7814 10.8138 14.7329 10.0405 13.9596C9.26713 13.1862 8.21864 12.7512 7.125 12.75ZM7.125 19.5C6.60583 19.5 6.09831 19.346 5.66663 19.0576C5.23495 18.7692 4.8985 18.3592 4.69982 17.8795C4.50114 17.3999 4.44915 16.8721 4.55044 16.3629C4.65173 15.8537 4.90173 15.386 5.26885 15.0188C5.63596 14.6517 6.10369 14.4017 6.61289 14.3004C7.12209 14.1992 7.64989 14.2511 8.12955 14.4498C8.6092 14.6485 9.01917 14.985 9.30761 15.4166C9.59605 15.8483 9.75 16.3558 9.75 16.875C9.74922 17.571 9.47241 18.2382 8.9803 18.7303C8.48818 19.2224 7.82096 19.4992 7.125 19.5ZM20.25 16.875C20.25 17.0739 20.171 17.2647 20.0303 17.4053C19.8897 17.546 19.6989 17.625 19.5 17.625H17.625V19.5C17.625 19.6989 17.546 19.8897 17.4053 20.0303C17.2647 20.171 17.0739 20.25 16.875 20.25C16.6761 20.25 16.4853 20.171 16.3447 20.0303C16.204 19.8897 16.125 19.6989 16.125 19.5V17.625H14.25C14.0511 17.625 13.8603 17.546 13.7197 17.4053C13.579 17.2647 13.5 17.0739 13.5 16.875C13.5 16.6761 13.579 16.4853 13.7197 16.3447C13.8603 16.204 14.0511 16.125 14.25 16.125H16.125V14.25C16.125 14.0511 16.204 13.8603 16.3447 13.7197C16.4853 13.579 16.6761 13.5 16.875 13.5C17.0739 13.5 17.2647 13.579 17.4053 13.7197C17.546 13.8603 17.625 14.0511 17.625 14.25V16.125H19.5C19.6989 16.125 19.8897 16.204 20.0303 16.3447C20.171 16.4853 20.25 16.6761 20.25 16.875Z" fill="#1D1F21" style="fill: var(--ui-icon-primary-color);"/>
</svg>
