<svg  viewBox="0 0 24 24" fill="none" xmlns="http://www.w3.org/2000/svg" id="__THIS_ID_NEEDS_FOR_UI_ICON_COMPONENT__">
<path d="M7.12497 3C6.30912 3 5.5116 3.24193 4.83324 3.69519C4.15489 4.14845 3.62618 4.79269 3.31397 5.54643C3.00176 6.30018 2.92007 7.12958 3.07923 7.92975C3.2384 8.72992 3.63126 9.46493 4.20816 10.0418C4.78505 10.6187 5.52005 11.0116 6.32022 11.1707C7.1204 11.3299 7.9498 11.2482 8.70354 10.936C9.45729 10.6238 10.1015 10.0951 10.5548 9.41673C11.008 8.73838 11.25 7.94085 11.25 7.125C11.2487 6.03136 10.8137 4.98287 10.0404 4.20955C9.2671 3.43623 8.21861 3.00124 7.12497 3ZM7.12497 9.75C6.6058 9.75 6.09828 9.59605 5.6666 9.30761C5.23492 9.01917 4.89847 8.6092 4.69979 8.12955C4.50111 7.64989 4.44912 7.12209 4.55041 6.61289C4.6517 6.10369 4.9017 5.63596 5.26882 5.26885C5.63593 4.90173 6.10366 4.65173 6.61286 4.55044C7.12206 4.44915 7.64986 4.50114 8.12952 4.69982C8.60917 4.8985 9.01914 5.23495 9.30758 5.66663C9.59602 6.09831 9.74997 6.60583 9.74997 7.125C9.74919 7.82096 9.47238 8.48818 8.98026 8.9803C8.48815 9.47241 7.82092 9.74922 7.12497 9.75ZM16.875 11.25C17.6908 11.25 18.4883 11.0081 19.1667 10.5548C19.8451 10.1016 20.3738 9.45732 20.686 8.70357C20.9982 7.94983 21.0799 7.12043 20.9207 6.32025C20.7615 5.52008 20.3687 4.78508 19.7918 4.20819C19.2149 3.63129 18.4799 3.23843 17.6797 3.07926C16.8795 2.9201 16.0501 3.00179 15.2964 3.314C14.5427 3.62621 13.8984 4.15492 13.4452 4.83327C12.9919 5.51163 12.75 6.30915 12.75 7.125C12.7512 8.21864 13.1862 9.26713 13.9595 10.0405C14.7328 10.8138 15.7813 11.2488 16.875 11.25ZM16.875 4.5C17.3941 4.5 17.9017 4.65396 18.3333 4.94239C18.765 5.23083 19.1015 5.6408 19.3002 6.12046C19.4988 6.60011 19.5508 7.12791 19.4495 7.63711C19.3482 8.14631 19.0982 8.61404 18.7311 8.98116C18.364 9.34827 17.8963 9.59828 17.3871 9.69956C16.8779 9.80085 16.3501 9.74887 15.8704 9.55019C15.3908 9.35151 14.9808 9.01505 14.6924 8.58337C14.4039 8.15169 14.25 7.64418 14.25 7.125C14.2508 6.42905 14.5276 5.76182 15.0197 5.26971C15.5118 4.77759 16.179 4.50078 16.875 4.5ZM7.12497 12.75C6.30912 12.75 5.5116 12.9919 4.83324 13.4452C4.15489 13.8985 3.62618 14.5427 3.31397 15.2964C3.00176 16.0502 2.92007 16.8796 3.07923 17.6797C3.2384 18.4799 3.63126 19.2149 4.20816 19.7918C4.78505 20.3687 5.52005 20.7616 6.32022 20.9207C7.1204 21.0799 7.9498 20.9982 8.70354 20.686C9.45729 20.3738 10.1015 19.8451 10.5548 19.1667C11.008 18.4884 11.25 17.6908 11.25 16.875C11.2487 15.7814 10.8137 14.7329 10.0404 13.9596C9.2671 13.1862 8.21861 12.7512 7.12497 12.75ZM7.12497 19.5C6.6058 19.5 6.09828 19.346 5.6666 19.0576C5.23492 18.7692 4.89847 18.3592 4.69979 17.8795C4.50111 17.3999 4.44912 16.8721 4.55041 16.3629C4.6517 15.8537 4.9017 15.386 5.26882 15.0188C5.63593 14.6517 6.10366 14.4017 6.61286 14.3004C7.12206 14.1992 7.64986 14.2511 8.12952 14.4498C8.60917 14.6485 9.01914 14.985 9.30758 15.4166C9.59602 15.8483 9.74997 16.3558 9.74997 16.875C9.74919 17.571 9.47238 18.2382 8.98026 18.7303C8.48815 19.2224 7.82092 19.4992 7.12497 19.5ZM16.875 12.75C16.0591 12.75 15.2616 12.9919 14.5832 13.4452C13.9049 13.8985 13.3762 14.5427 13.064 15.2964C12.7518 16.0502 12.6701 16.8796 12.8292 17.6797C12.9884 18.4799 13.3813 19.2149 13.9582 19.7918C14.535 20.3687 15.2701 20.7616 16.0702 20.9207C16.8704 21.0799 17.6998 20.9982 18.4535 20.686C19.2073 20.3738 19.8515 19.8451 20.3048 19.1667C20.758 18.4884 21 17.6908 21 16.875C20.9987 15.7814 20.5637 14.7329 19.7904 13.9596C19.0171 13.1862 17.9686 12.7512 16.875 12.75ZM16.875 19.5C16.3558 19.5 15.8483 19.346 15.4166 19.0576C14.9849 18.7692 14.6485 18.3592 14.4498 17.8795C14.2511 17.3999 14.1991 16.8721 14.3004 16.3629C14.4017 15.8537 14.6517 15.386 15.0188 15.0188C15.3859 14.6517 15.8537 14.4017 16.3629 14.3004C16.8721 14.1992 17.3999 14.2511 17.8795 14.4498C18.3592 14.6485 18.7691 14.985 19.0576 15.4166C19.346 15.8483 19.5 16.3558 19.5 16.875C19.4992 17.571 19.2224 18.2382 18.7303 18.7303C18.2382 19.2224 17.5709 19.4992 16.875 19.5Z" fill="#1D1F21" style="fill: var(--ui-icon-primary-color);"/>
</svg>
