<svg  viewBox="0 0 24 24" fill="none" xmlns="http://www.w3.org/2000/svg" id="__THIS_ID_NEEDS_FOR_UI_ICON_COMPONENT__">
<path d="M19.9594 17.6247C19.9919 17.5867 20.0204 17.5455 20.0446 17.5019C20.8596 16.3158 21.4003 14.9632 21.6275 13.5421C21.6294 13.5331 21.6306 13.524 21.6321 13.5149C21.9791 11.3212 21.5676 9.07468 20.4654 7.14644C19.3632 5.21821 17.6363 3.72357 15.5699 2.90939C13.5035 2.09522 11.2212 2.01019 9.09992 2.66836C6.97866 3.32654 5.14534 4.68854 3.90274 6.52942C2.66013 8.3703 2.08257 10.58 2.26545 12.7934C2.44833 15.0069 3.38071 17.0918 4.90859 18.7038C6.43648 20.3158 8.46848 21.3584 10.669 21.6595C12.8695 21.9606 15.1069 21.5022 17.0117 20.3599C17.0563 20.3383 17.0986 20.3123 17.138 20.2822C18.2456 19.5924 19.2047 18.689 19.9594 17.6247ZM16.7804 18.7198L12.75 14.6895V11.5609L18.3949 17.2057C17.9265 17.7801 17.3836 18.2893 16.7804 18.7198ZM19.248 15.9375L12.75 9.43948V6.31085L20.0849 13.6458C19.9219 14.4472 19.6398 15.2196 19.248 15.9375H19.248ZM12.75 16.8108L15.4376 19.4984C14.5892 19.8889 13.6802 20.1313 12.75 20.2152V16.8108ZM20.2433 11.6828L12.75 4.18948V3.78406C14.7442 3.96874 16.6035 4.87153 17.9819 6.3245C19.3602 7.77746 20.1639 9.68166 20.2433 11.6828ZM3.74999 11.9996C3.75256 9.94219 4.52278 7.95975 5.90992 6.44026C7.29707 4.92077 9.20131 3.97359 11.25 3.78406V20.2152C9.20131 20.0256 7.29707 19.0785 5.90992 17.559C4.52278 16.0395 3.75256 14.057 3.74999 11.9996Z" fill="#1D1F21" style="fill: var(--ui-icon-primary-color);"/>
</svg>
