<svg  viewBox="0 0 24 24" fill="none" xmlns="http://www.w3.org/2000/svg" id="__THIS_ID_NEEDS_FOR_UI_ICON_COMPONENT__">
<path d="M18.8945 5.10566C17.9892 4.19988 16.9143 3.48131 15.7313 2.991C14.5483 2.50068 13.2802 2.24822 11.9996 2.24805C10.719 2.24787 9.45091 2.49997 8.26775 2.98996C7.08458 3.47995 6.00953 4.19822 5.104 5.10375C4.19847 6.00929 3.4802 7.08434 2.99021 8.2675C2.50022 9.45067 2.24811 10.7188 2.24829 11.9994C2.24847 13.28 2.50092 14.548 2.99124 15.7311C3.48156 16.9141 4.20013 17.989 5.10591 18.8942C6.01119 19.8 7.08604 20.5186 8.26907 21.0089C9.4521 21.4992 10.7201 21.7517 12.0008 21.7519C13.2814 21.752 14.5495 21.4999 15.7326 21.0099C16.9158 20.5199 17.9909 19.8017 18.8964 18.8961C19.8019 17.9906 20.5202 16.9156 21.0102 15.7324C21.5002 14.5492 21.7523 13.2811 21.7521 12.0005C21.7519 10.7199 21.4995 9.45186 21.0091 8.26883C20.5188 7.08579 19.8003 6.01094 18.8945 5.10566ZM19.3794 15.6929L14.3736 10.6872L15.9377 9.12312L20.1426 13.3281C20.0104 14.1507 19.7531 14.9482 19.3794 15.6929ZM16.9984 8.06244L18.3395 6.72128C19.4204 8.01169 20.0764 9.60446 20.2177 11.2818L16.9984 8.06244ZM6.16664 6.1663C7.62299 4.71306 9.56937 3.85579 11.6246 3.76236C13.6799 3.66893 15.696 4.34607 17.2782 5.66118L10.1577 12.7818L10.1576 12.7819L10.1575 12.782L5.66089 17.2786C4.34361 15.6972 3.66515 13.6804 3.75872 11.6244C3.8523 9.56832 4.71116 7.62153 6.16664 6.1663ZM13.3243 20.1378L9.12366 15.9372L10.688 14.3729L15.6913 19.3762C14.9454 19.7485 14.1473 20.0053 13.3243 20.1378ZM8.06299 16.9979L11.2784 20.2133C9.60361 20.0695 8.01326 19.4152 6.72215 18.3387L8.06299 16.9979ZM16.998 18.5615L11.7487 13.3122L13.313 11.7479L18.5631 16.998C18.3387 17.2923 18.0951 17.5715 17.8337 17.8336C17.5717 18.0946 17.2925 18.3378 16.998 18.5615Z" fill="#1D1F21" style="fill: var(--ui-icon-primary-color);"/>
</svg>
