<svg  viewBox="0 0 24 24" fill="none" xmlns="http://www.w3.org/2000/svg" id="__THIS_ID_NEEDS_FOR_UI_ICON_COMPONENT__">
<path d="M18.75 3H16.5V2.25C16.5 2.05109 16.421 1.86033 16.2803 1.71968C16.1397 1.57903 15.9489 1.50001 15.75 1.5H8.25C8.05109 1.5 7.86032 1.57902 7.71967 1.71967C7.57902 1.86032 7.5 2.05109 7.5 2.25V3H5.25C4.85231 3.00045 4.47105 3.15864 4.18984 3.43984C3.90864 3.72105 3.75045 4.10231 3.75 4.5V20.25C3.75045 20.6477 3.90864 21.029 4.18984 21.3102C4.47105 21.5914 4.85231 21.7495 5.25 21.75H18.75C19.1477 21.7495 19.529 21.5914 19.8102 21.3102C20.0914 21.029 20.2495 20.6477 20.25 20.25V4.5C20.2495 4.10231 20.0914 3.72105 19.8102 3.43984C19.529 3.15864 19.1477 3.00045 18.75 3ZM9 3H15V5.25H9V3ZM18.75 20.25H5.25V4.5H7.5V6C7.5 6.19891 7.57902 6.38968 7.71967 6.53033C7.86032 6.67098 8.05109 6.75 8.25 6.75H15.75C15.9489 6.74999 16.1397 6.67097 16.2803 6.53032C16.421 6.38967 16.5 6.19891 16.5 6V4.5H18.75V20.25Z" fill="#1D1F21" style="fill: var(--ui-icon-primary-color);"/>
</svg>
