<svg  viewBox="0 0 24 24" fill="none" xmlns="http://www.w3.org/2000/svg" id="__THIS_ID_NEEDS_FOR_UI_ICON_COMPONENT__">
<path d="M12.7501 7.4997V11.5667L16.2723 13.6002C16.3576 13.6494 16.4323 13.715 16.4923 13.7931C16.5522 13.8713 16.5962 13.9605 16.6217 14.0556C16.6472 14.1507 16.6537 14.2499 16.6408 14.3476C16.628 14.4452 16.596 14.5394 16.5468 14.6247C16.4975 14.71 16.432 14.7848 16.3538 14.8447C16.2757 14.9047 16.1865 14.9487 16.0914 14.9741C15.9962 14.9996 15.897 15.0061 15.7994 14.9933C15.7017 14.9804 15.6076 14.9485 15.5223 14.8992L11.6251 12.6492C11.6192 12.6458 11.6138 12.6417 11.608 12.6381C11.5952 12.6303 11.5826 12.6224 11.5703 12.6138C11.5606 12.607 11.5514 12.5998 11.5421 12.5927C11.5325 12.5853 11.523 12.5779 11.5138 12.57C11.5034 12.5612 11.4935 12.552 11.4837 12.5426C11.4762 12.5355 11.4688 12.5284 11.4616 12.521C11.4516 12.5107 11.4421 12.5001 11.4328 12.4894C11.4263 12.4818 11.4199 12.4742 11.4137 12.4664C11.405 12.4556 11.3969 12.4445 11.3889 12.4333C11.3826 12.4244 11.3764 12.4155 11.3705 12.4063C11.3637 12.3958 11.3573 12.3852 11.3511 12.3744C11.3449 12.3636 11.3389 12.3528 11.3332 12.3417C11.3282 12.332 11.3236 12.3222 11.319 12.3123C11.3133 12.2998 11.3078 12.2871 11.3027 12.2743C11.2991 12.265 11.2957 12.2556 11.2924 12.2462C11.2878 12.2327 11.2833 12.2192 11.2794 12.2055C11.2766 12.1955 11.2741 12.1855 11.2717 12.1754C11.2685 12.1623 11.2655 12.1492 11.2631 12.1358C11.2608 12.1238 11.2592 12.1118 11.2576 12.0997C11.256 12.0882 11.2544 12.0767 11.2534 12.065C11.2521 12.0501 11.2516 12.0351 11.2511 12.0201C11.251 12.0132 11.2501 12.0066 11.2501 11.9997V7.4997C11.2501 7.30079 11.3292 7.11002 11.4698 6.96937C11.6105 6.82872 11.8012 6.7497 12.0001 6.7497C12.199 6.7497 12.3898 6.82872 12.5305 6.96937C12.6711 7.11002 12.7501 7.30079 12.7501 7.4997ZM21.6395 9.76439C21.6465 9.75397 21.6525 9.74316 21.6589 9.73248C21.665 9.72219 21.6715 9.7121 21.6772 9.70149C21.6831 9.69049 21.6881 9.67916 21.6934 9.66794C21.6985 9.65699 21.704 9.64621 21.7087 9.63498C21.7132 9.62404 21.7168 9.61286 21.7208 9.60176C21.7251 9.5898 21.7297 9.57798 21.7334 9.56574C21.7368 9.55459 21.7392 9.54327 21.7421 9.53199C21.7452 9.51954 21.7487 9.50725 21.7512 9.49456C21.7538 9.48153 21.7554 9.46837 21.7572 9.45525C21.7588 9.44418 21.7609 9.43328 21.762 9.42205C21.7644 9.39745 21.7657 9.37276 21.7657 9.34806V5.59806C21.7657 5.39914 21.6867 5.20838 21.5461 5.06773C21.4054 4.92707 21.2147 4.84806 21.0157 4.84806C20.8168 4.84806 20.6261 4.92707 20.4854 5.06773C20.3448 5.20838 20.2657 5.39914 20.2657 5.59806V7.5374L18.3641 5.63573C17.1057 4.37849 15.5028 3.52257 13.758 3.17615C12.0132 2.82972 10.2049 3.00836 8.56162 3.68948C6.91834 4.3706 5.51389 5.52362 4.52579 7.00278C3.5377 8.48195 3.01031 10.2209 3.01031 11.9997C3.01031 13.7785 3.5377 15.5175 4.52579 16.9966C5.51389 18.4758 6.91834 19.6288 8.56162 20.3099C10.2049 20.991 12.0132 21.1697 13.758 20.8233C15.5028 20.4768 17.1057 19.6209 18.3641 18.3637C18.4337 18.294 18.489 18.2113 18.5267 18.1203C18.5644 18.0294 18.5838 17.9318 18.5838 17.8333C18.5838 17.7348 18.5644 17.6373 18.5267 17.5463C18.489 17.4553 18.4337 17.3726 18.3641 17.303C18.2944 17.2334 18.2118 17.1781 18.1208 17.1404C18.0298 17.1027 17.9322 17.0833 17.8337 17.0833C17.7353 17.0834 17.6377 17.1028 17.5467 17.1404C17.4557 17.1781 17.3731 17.2334 17.3034 17.303C16.2545 18.3519 14.9181 19.0662 13.4633 19.3556C12.0084 19.645 10.5004 19.4965 9.12999 18.9288C7.75955 18.3611 6.58821 17.3998 5.7641 16.1665C4.93999 14.9331 4.50013 13.4831 4.50013 11.9997C4.50013 10.5163 4.93999 9.0663 5.7641 7.83293C6.58821 6.59956 7.75955 5.63826 9.12999 5.0706C10.5004 4.50294 12.0084 4.35441 13.4633 4.6438C14.9181 4.93318 16.2545 5.64748 17.3034 6.69637L19.2051 8.59806H17.2657C17.0668 8.59806 16.8761 8.67708 16.7354 8.81773C16.5948 8.95838 16.5157 9.14915 16.5157 9.34806C16.5157 9.54697 16.5948 9.73774 16.7354 9.87839C16.8761 10.019 17.0668 10.0981 17.2657 10.0981H21.0155C21.0403 10.0981 21.0651 10.0968 21.0899 10.0943C21.1006 10.0933 21.111 10.0912 21.1215 10.0898C21.1352 10.0878 21.1488 10.0862 21.1624 10.0835C21.1748 10.0811 21.1868 10.0776 21.1989 10.0746C21.2105 10.0717 21.2221 10.0692 21.2335 10.0657C21.2456 10.062 21.2572 10.0575 21.269 10.0533C21.2803 10.0492 21.2916 10.0455 21.3028 10.0409C21.3138 10.0363 21.3245 10.0309 21.3353 10.0258C21.3466 10.0205 21.3581 10.0154 21.3692 10.0095C21.3797 10.0039 21.3896 9.99749 21.3998 9.99142C21.4106 9.98495 21.4216 9.97884 21.4321 9.97177C21.4435 9.96419 21.4541 9.95575 21.465 9.94758C21.4737 9.94106 21.4826 9.93505 21.491 9.92811C21.5293 9.89671 21.5644 9.86162 21.5958 9.82335C21.6026 9.81501 21.6086 9.80621 21.615 9.79766C21.6233 9.78665 21.6318 9.77586 21.6395 9.76439Z" fill="#1D1F21" style="fill: var(--ui-icon-primary-color);"/>
</svg>
