<svg  viewBox="0 0 24 24" fill="none" xmlns="http://www.w3.org/2000/svg" id="__THIS_ID_NEEDS_FOR_UI_ICON_COMPONENT__">
<path d="M12.75 7.50017V11.5672L16.2721 13.6007C16.3574 13.6499 16.4322 13.7155 16.4921 13.7936C16.5521 13.8717 16.5961 13.9609 16.6216 14.0561C16.647 14.1512 16.6536 14.2504 16.6407 14.3481C16.6278 14.4457 16.5959 14.5399 16.5466 14.6252C16.4974 14.7105 16.4318 14.7852 16.3537 14.8452C16.2755 14.9051 16.1864 14.9491 16.0912 14.9746C15.9961 15.0001 15.8969 15.0066 15.7992 14.9938C15.7016 14.9809 15.6074 14.9489 15.5221 14.8997L11.625 12.6497C11.619 12.6462 11.6137 12.6422 11.6078 12.6386C11.595 12.6307 11.5824 12.6228 11.5701 12.6142C11.5604 12.6075 11.5512 12.6003 11.542 12.5932C11.5324 12.5858 11.5229 12.5783 11.5137 12.5705C11.5033 12.5616 11.4933 12.5524 11.4835 12.5431C11.4761 12.536 11.4686 12.5289 11.4615 12.5215C11.4515 12.5112 11.442 12.5006 11.4327 12.4898C11.4261 12.4823 11.4197 12.4747 11.4135 12.4669C11.4049 12.456 11.3967 12.445 11.3887 12.4338C11.3824 12.4249 11.3763 12.4159 11.3703 12.4068C11.3636 12.3963 11.3571 12.3857 11.351 12.3749C11.3447 12.3641 11.3387 12.3533 11.333 12.3422C11.3281 12.3325 11.3234 12.3227 11.3189 12.3128C11.3131 12.3002 11.3076 12.2876 11.3025 12.2747C11.2989 12.2654 11.2956 12.2561 11.2923 12.2466C11.2876 12.2332 11.2832 12.2197 11.2793 12.2059C11.2764 12.196 11.274 12.186 11.2715 12.1759C11.2684 12.1628 11.2654 12.1496 11.2629 12.1362C11.2607 12.1243 11.259 12.1123 11.2574 12.1002C11.2559 12.0887 11.2543 12.0772 11.2533 12.0654C11.252 12.0505 11.2515 12.0356 11.251 12.0206C11.2508 12.0137 11.25 12.0071 11.25 12.0002V7.50017C11.25 7.30126 11.329 7.11049 11.4697 6.96984C11.6103 6.82919 11.8011 6.75017 12 6.75017C12.1989 6.75017 12.3897 6.82919 12.5303 6.96984C12.671 7.11049 12.75 7.30126 12.75 7.50017ZM18.364 5.6362C16.6748 3.95088 14.3861 3.00439 12 3.00439C9.61386 3.00439 7.32517 3.95088 5.63602 5.6362L3.73438 7.53787V5.59853C3.73438 5.39962 3.65536 5.20885 3.5147 5.0682C3.37405 4.92755 3.18329 4.84853 2.98438 4.84853C2.78546 4.84853 2.5947 4.92755 2.45404 5.0682C2.31339 5.20885 2.23438 5.39962 2.23438 5.59853V9.34853C2.23438 9.37323 2.2357 9.39792 2.23813 9.42253C2.23922 9.43375 2.24133 9.44465 2.24289 9.45573C2.24476 9.46885 2.24632 9.482 2.24889 9.49503C2.2514 9.50772 2.25489 9.52001 2.25804 9.53247C2.26088 9.54374 2.26335 9.55506 2.26674 9.56622C2.27045 9.57845 2.27502 9.59027 2.27933 9.60224C2.28331 9.61334 2.28697 9.62451 2.29146 9.63545C2.29613 9.64664 2.30153 9.65737 2.3067 9.66827C2.31201 9.67956 2.31705 9.69095 2.32295 9.70202C2.32858 9.71254 2.33504 9.72254 2.34113 9.73276C2.34758 9.7435 2.35362 9.75438 2.36063 9.76486C2.36831 9.77632 2.37683 9.78712 2.38507 9.79813C2.39152 9.80668 2.39747 9.81549 2.4043 9.82382C2.4357 9.86212 2.47082 9.89723 2.50912 9.92864C2.51723 9.93527 2.52574 9.94102 2.53407 9.94727C2.54533 9.95576 2.55636 9.96447 2.56813 9.97232C2.57829 9.97912 2.58887 9.985 2.59925 9.99125C2.60983 9.99759 2.62017 10.0042 2.63107 10.01C2.64173 10.0157 2.65277 10.0206 2.66366 10.0257C2.67492 10.0311 2.68605 10.0367 2.69758 10.0415C2.70811 10.0458 2.71882 10.0493 2.72949 10.0532C2.74194 10.0577 2.75421 10.0624 2.76693 10.0663C2.77751 10.0694 2.78821 10.0717 2.79884 10.0745C2.81188 10.0778 2.82475 10.0814 2.83807 10.084C2.8502 10.0864 2.86251 10.0878 2.87474 10.0896C2.88668 10.0914 2.89849 10.0936 2.91062 10.0948C2.93237 10.0969 2.95416 10.0979 2.97599 10.0981C2.97879 10.0981 2.98153 10.0985 2.98437 10.0985H6.73437C6.93328 10.0985 7.12405 10.0195 7.2647 9.87886C7.40535 9.73821 7.48437 9.54744 7.48437 9.34853C7.48437 9.14962 7.40535 8.95885 7.2647 8.8182C7.12405 8.67755 6.93328 8.59853 6.73437 8.59853H4.79502L6.6967 6.69684C7.7456 5.64794 9.08197 4.93363 10.5368 4.64424C11.9917 4.35485 13.4997 4.50337 14.8702 5.07103C16.2406 5.63869 17.412 6.59998 18.2361 7.83336C19.0602 9.06673 19.5001 10.5168 19.5001 12.0001C19.5001 13.4835 19.0602 14.9336 18.2361 16.1669C17.412 17.4003 16.2406 18.3616 14.8702 18.9293C13.4997 19.4969 11.9917 19.6455 10.5368 19.3561C9.08197 19.0667 7.7456 18.3524 6.6967 17.3035C6.62705 17.2338 6.54437 17.1786 6.45337 17.1409C6.36237 17.1032 6.26484 17.0838 6.16634 17.0838C6.06785 17.0838 5.97032 17.1032 5.87932 17.1409C5.78832 17.1786 5.70564 17.2338 5.63599 17.3035C5.56635 17.3731 5.5111 17.4558 5.47341 17.5468C5.43572 17.6378 5.41632 17.7353 5.41632 17.8338C5.41632 17.9323 5.43573 18.0299 5.47342 18.1209C5.51112 18.2119 5.56636 18.2945 5.63601 18.3642C7.32385 20.052 9.61304 21.0002 12 21.0002C14.387 21.0002 16.6761 20.052 18.364 18.3642C20.0518 16.6763 21 14.3871 21 12.0002C21 9.61322 20.0518 7.32403 18.364 5.6362Z" fill="#1D1F21" style="fill: var(--ui-icon-primary-color);"/>
</svg>
