<svg  viewBox="0 0 24 24" fill="none" xmlns="http://www.w3.org/2000/svg" id="__THIS_ID_NEEDS_FOR_UI_ICON_COMPONENT__">
<path d="M11.9999 2.25C10.0716 2.25 8.18651 2.82183 6.58313 3.89317C4.97975 4.96451 3.73007 6.48726 2.99212 8.26884C2.25416 10.0504 2.06108 12.0108 2.43729 13.9021C2.81349 15.7934 3.74209 17.5307 5.10565 18.8943C6.46921 20.2579 8.2065 21.1865 10.0978 21.5627C11.9891 21.9389 13.9495 21.7458 15.7311 21.0078C17.5127 20.2699 19.0354 19.0202 20.1068 17.4168C21.1781 15.8134 21.7499 13.9284 21.7499 12C21.747 9.41504 20.7188 6.93679 18.891 5.10894C17.0632 3.28109 14.5849 2.25293 11.9999 2.25ZM11.9999 20.25C10.3682 20.25 8.77319 19.7661 7.41649 18.8596C6.05978 17.9531 5.00236 16.6646 4.37794 15.1571C3.75351 13.6496 3.59014 11.9908 3.90846 10.3905C4.22679 8.79016 5.01253 7.32015 6.16631 6.16637C7.3201 5.01259 8.7901 4.22685 10.3904 3.90852C11.9908 3.59019 13.6496 3.75357 15.1571 4.37799C16.6646 5.00242 17.953 6.05984 18.8596 7.41655C19.7661 8.77325 20.2499 10.3683 20.2499 12C20.2475 14.1873 19.3775 16.2843 17.8308 17.8309C16.2842 19.3775 14.1872 20.2475 11.9999 20.25ZM17.9999 12C17.9999 12.0985 17.9805 12.196 17.9429 12.287C17.9052 12.378 17.8499 12.4607 17.7803 12.5303C17.7106 12.6 17.628 12.6552 17.537 12.6929C17.446 12.7306 17.3484 12.75 17.2499 12.75H11.9999C11.9015 12.75 11.8039 12.7306 11.7129 12.6929C11.6219 12.6552 11.5393 12.6 11.4696 12.5303C11.4 12.4607 11.3447 12.378 11.307 12.287C11.2693 12.196 11.2499 12.0985 11.2499 12V6.75C11.2499 6.55109 11.329 6.36032 11.4696 6.21967C11.6103 6.07902 11.801 6 11.9999 6C12.1989 6 12.3896 6.07902 12.5303 6.21967C12.6709 6.36032 12.7499 6.55109 12.7499 6.75V11.25H17.2499C17.3484 11.25 17.446 11.2694 17.537 11.3071C17.628 11.3448 17.7106 11.4 17.7803 11.4697C17.8499 11.5393 17.9052 11.622 17.9429 11.713C17.9805 11.804 17.9999 11.9015 17.9999 12Z" fill="#1D1F21" style="fill: var(--ui-icon-primary-color);"/>
</svg>
