<svg  viewBox="0 0 24 24" fill="none" xmlns="http://www.w3.org/2000/svg" id="__THIS_ID_NEEDS_FOR_UI_ICON_COMPONENT__">
<path d="M11.9999 2.25C10.0716 2.25 8.18651 2.82183 6.58313 3.89317C4.97975 4.96451 3.73007 6.48726 2.99212 8.26884C2.25416 10.0504 2.06108 12.0108 2.43729 13.9021C2.81349 15.7934 3.74209 17.5307 5.10565 18.8943C6.46921 20.2579 8.2065 21.1865 10.0978 21.5627C11.9891 21.9389 13.9495 21.7458 15.7311 21.0078C17.5127 20.2699 19.0354 19.0202 20.1068 17.4168C21.1781 15.8134 21.7499 13.9284 21.7499 12C21.747 9.41504 20.7188 6.93679 18.891 5.10894C17.0632 3.28109 14.5849 2.25293 11.9999 2.25ZM11.9999 20.25C10.3682 20.25 8.77319 19.7661 7.41649 18.8596C6.05978 17.9531 5.00236 16.6646 4.37794 15.1571C3.75351 13.6496 3.59014 11.9908 3.90846 10.3905C4.22679 8.79016 5.01253 7.32015 6.16631 6.16637C7.3201 5.01259 8.7901 4.22685 10.3904 3.90852C11.9908 3.59019 13.6496 3.75357 15.1571 4.37799C16.6646 5.00242 17.953 6.05984 18.8596 7.41655C19.7661 8.77325 20.2499 10.3683 20.2499 12C20.2475 14.1873 19.3775 16.2843 17.8308 17.8309C16.2842 19.3775 14.1872 20.2475 11.9999 20.25ZM17.9999 12C17.9999 12.0985 17.9805 12.196 17.9429 12.287C17.9052 12.378 17.8499 12.4607 17.7803 12.5303C17.7106 12.6 17.628 12.6552 17.537 12.6929C17.446 12.7306 17.3484 12.75 17.2499 12.75H13.8106L16.2426 15.182C16.3122 15.2516 16.3675 15.3343 16.4052 15.4253C16.4429 15.5163 16.4623 15.6138 16.4623 15.7123C16.4623 15.8108 16.4429 15.9083 16.4052 15.9993C16.3675 16.0903 16.3123 16.173 16.2426 16.2426C16.173 16.3123 16.0903 16.3675 15.9993 16.4052C15.9083 16.4429 15.8108 16.4623 15.7123 16.4623C15.6138 16.4623 15.5163 16.4429 15.4253 16.4052C15.3343 16.3675 15.2516 16.3123 15.182 16.2426L11.4696 12.5303C11.4521 12.5129 11.4356 12.4945 11.4199 12.4753C11.4128 12.4667 11.4066 12.4575 11.3999 12.4486C11.3919 12.438 11.3837 12.4276 11.3763 12.4165C11.3691 12.4057 11.3629 12.3946 11.3563 12.3835C11.3503 12.3735 11.3441 12.3638 11.3386 12.3535C11.3326 12.3423 11.3275 12.3308 11.3221 12.3194C11.317 12.3086 11.3117 12.2981 11.3071 12.287C11.3025 12.2759 11.2987 12.2645 11.2947 12.2531C11.2905 12.2414 11.286 12.2298 11.2823 12.2178C11.2789 12.2064 11.2764 12.1948 11.2735 12.1833C11.2704 12.1711 11.267 12.159 11.2645 12.1466C11.2618 12.1334 11.2603 12.1201 11.2584 12.1068C11.2569 12.0959 11.2548 12.0851 11.2537 12.074C11.2512 12.0494 11.25 12.0247 11.2499 12V11.9999C11.2499 11.9752 11.2513 11.9506 11.2537 11.926C11.2548 11.9149 11.2569 11.9041 11.2584 11.8931C11.2603 11.8799 11.2619 11.8666 11.2645 11.8535C11.267 11.8409 11.2704 11.8287 11.2735 11.8164C11.2764 11.805 11.2789 11.7935 11.2823 11.7822C11.286 11.7702 11.2905 11.7585 11.2948 11.7467C11.2988 11.7354 11.3025 11.7241 11.3071 11.713C11.3116 11.7019 11.317 11.6913 11.3222 11.6805C11.3275 11.6691 11.3326 11.6576 11.3386 11.6465C11.3441 11.6362 11.3504 11.6263 11.3564 11.6163C11.3629 11.6053 11.3691 11.5942 11.3763 11.5836C11.3837 11.5724 11.392 11.562 11.4 11.5513C11.4067 11.5424 11.4128 11.5333 11.4199 11.5247C11.4513 11.4864 11.4864 11.4514 11.5246 11.42C11.5332 11.4129 11.5424 11.4066 11.5513 11.4C11.562 11.392 11.5724 11.3838 11.5835 11.3763C11.5942 11.3692 11.6054 11.3629 11.6164 11.3563C11.6264 11.3504 11.6361 11.3441 11.6464 11.3386C11.6576 11.3326 11.6692 11.3275 11.6807 11.3221C11.6914 11.317 11.7019 11.3117 11.7129 11.3071C11.7241 11.3025 11.7355 11.2988 11.7468 11.2947C11.7586 11.2905 11.7701 11.286 11.7821 11.2824C11.7936 11.2789 11.8052 11.2764 11.8168 11.2735C11.8289 11.2704 11.8409 11.267 11.8533 11.2646C11.8668 11.2619 11.8804 11.2603 11.8939 11.2583C11.9046 11.2568 11.9151 11.2548 11.9259 11.2538C11.9505 11.2513 11.9753 11.25 12 11.25H17.2499C17.3484 11.25 17.446 11.2694 17.537 11.3071C17.628 11.3448 17.7106 11.4 17.7803 11.4697C17.8499 11.5393 17.9052 11.622 17.9429 11.713C17.9805 11.804 17.9999 11.9015 17.9999 12Z" fill="#1D1F21" style="fill: var(--ui-icon-primary-color);"/>
</svg>
