<svg  viewBox="0 0 24 24" fill="none" xmlns="http://www.w3.org/2000/svg" id="__THIS_ID_NEEDS_FOR_UI_ICON_COMPONENT__">
<path d="M15.0877 19.161L12.6268 22.911C12.5177 23.0773 12.3469 23.1935 12.1522 23.2339C11.9574 23.2743 11.7546 23.2357 11.5883 23.1266C11.422 23.0175 11.3058 22.8467 11.2654 22.652C11.225 22.4572 11.2636 22.2544 11.3727 22.0881L13.8337 18.3381C13.9428 18.1717 14.1135 18.0556 14.3083 18.0152C14.4047 17.9952 14.5041 17.9943 14.6009 18.0128C14.6977 18.0312 14.7898 18.0685 14.8722 18.1225C14.9545 18.1765 15.0254 18.2463 15.0808 18.3277C15.1362 18.4091 15.175 18.5007 15.1951 18.5971C15.2151 18.6935 15.2159 18.793 15.1975 18.8897C15.1791 18.9865 15.1418 19.0787 15.0877 19.161ZM21.7498 8.62454C21.7476 10.5135 20.9963 12.3246 19.6605 13.6603C18.3248 14.996 16.5138 15.7474 14.6248 15.7495H12.6156L9.88462 19.911C9.83058 19.9934 9.76086 20.0643 9.67942 20.1197C9.59799 20.1751 9.50644 20.2139 9.41 20.2339C9.31356 20.2539 9.21413 20.2547 9.11737 20.2363C9.02062 20.2179 8.92843 20.1806 8.84609 20.1266C8.76374 20.0725 8.69285 20.0028 8.63745 19.9214C8.58205 19.8399 8.54324 19.7484 8.52322 19.652C8.5032 19.5555 8.50238 19.4561 8.52079 19.3593C8.5392 19.2626 8.57649 19.1704 8.63053 19.0881L10.8214 15.7495H7.12476C6.44909 15.7489 5.78092 15.6079 5.16266 15.3353C4.54439 15.0628 3.98953 14.6647 3.53329 14.1663C3.07705 13.668 2.7294 13.0802 2.51238 12.4403C2.29537 11.8004 2.21374 11.1224 2.27267 10.4493C2.3316 9.77624 2.52981 9.12274 2.85472 8.53032C3.17963 7.93789 3.62414 7.41948 4.16004 7.00797C4.69595 6.59646 5.31154 6.30084 5.96776 6.13989C6.62398 5.97893 7.3065 5.95614 7.97199 6.07296C8.56814 4.51877 9.68963 3.22235 11.1418 2.4087C12.594 1.59505 14.2853 1.31553 15.9221 1.61866C17.5588 1.92178 19.0378 2.78841 20.1023 4.06814C21.1669 5.34787 21.7497 6.95993 21.7498 8.62454ZM20.2498 8.62454C20.2498 7.13269 19.6571 5.70195 18.6022 4.64706C17.5473 3.59217 16.1166 2.99954 14.6248 2.99954C13.1329 2.99954 11.7022 3.59217 10.6473 4.64706C9.59239 5.70195 8.99976 7.13269 8.99976 8.62454C8.99976 8.82345 8.92074 9.01421 8.78009 9.15487C8.63944 9.29552 8.44868 9.37454 8.24976 9.37454C8.05085 9.37454 7.86009 9.29552 7.71943 9.15487C7.57878 9.01421 7.49976 8.82345 7.49976 8.62454C7.49965 8.25821 7.52769 7.89242 7.58363 7.53039C7.43154 7.5098 7.27824 7.4995 7.12476 7.49954C6.22966 7.49954 5.37121 7.85512 4.73828 8.48805C4.10534 9.12099 3.74976 9.97943 3.74976 10.8745C3.74976 11.7696 4.10534 12.6281 4.73828 13.261C5.37121 13.894 6.22966 14.2495 7.12476 14.2495H14.6248C16.1161 14.2478 17.5458 13.6547 18.6004 12.6001C19.6549 11.5456 20.2481 10.1159 20.2498 8.62454Z" fill="#1D1F21" style="fill: var(--ui-icon-primary-color);"/>
</svg>
