<svg  viewBox="0 0 24 24" fill="none" xmlns="http://www.w3.org/2000/svg" id="__THIS_ID_NEEDS_FOR_UI_ICON_COMPONENT__">
<path d="M14.6248 6.74928C14.2367 6.74938 13.8493 6.78111 13.4664 6.84416C13.3298 5.43624 12.7542 4.10686 11.8209 3.04388C10.8877 1.98091 9.64398 1.23808 8.26559 0.920396C8.14175 0.891955 8.01271 0.895444 7.89059 0.930536C7.76847 0.965628 7.65727 1.03117 7.56742 1.12102C7.47757 1.21086 7.41202 1.32206 7.37693 1.44418C7.34183 1.56629 7.33833 1.69533 7.36677 1.81917C7.45533 2.20629 7.49996 2.60216 7.49979 2.99928C7.49822 4.39119 6.9446 5.72563 5.96037 6.70986C4.97615 7.69409 3.6417 8.24771 2.24979 8.24928C1.85259 8.24945 1.45662 8.20486 1.0694 8.11634C0.945574 8.08796 0.816561 8.09149 0.694469 8.12661C0.572377 8.16173 0.461207 8.22729 0.371388 8.31713C0.281569 8.40698 0.216044 8.51817 0.18096 8.64027C0.145877 8.76237 0.142384 8.89139 0.17081 9.01521C0.372115 9.8841 0.743187 10.7046 1.26269 11.4296C1.78219 12.1546 2.43988 12.7698 3.19794 13.2397C2.66369 13.9656 2.34128 14.8254 2.26656 15.7236C2.19184 16.6218 2.36775 17.5231 2.77472 18.3273C3.18168 19.1315 3.80375 19.807 4.57174 20.2787C5.33972 20.7504 6.22351 20.9999 7.12479 20.9993H14.6248C16.5145 20.9993 18.3267 20.2486 19.6629 18.9124C20.9991 17.5762 21.7498 15.764 21.7498 13.8743C21.7498 11.9846 20.9991 10.1723 19.6629 8.83615C18.3267 7.49995 16.5145 6.74928 14.6248 6.74928ZM2.00306 9.7448C2.08523 9.74782 2.16747 9.74931 2.24979 9.74928C4.03939 9.74727 5.7551 9.03546 7.02054 7.77003C8.28597 6.50459 8.99778 4.78888 8.99979 2.99928C8.99979 2.9157 8.99825 2.83217 8.99517 2.7487C9.85911 3.15364 10.5955 3.78773 11.1241 4.58202C11.6528 5.3763 11.9535 6.30034 11.9935 7.25362C11.0797 7.61923 10.2509 8.16924 9.559 8.86933C8.86709 9.56942 8.32686 10.4046 7.97202 11.3227C7.69227 11.2737 7.4088 11.2492 7.12479 11.2493C6.11574 11.2485 5.1316 11.5627 4.30966 12.148C3.30135 11.6172 2.49211 10.774 2.00306 9.7448ZM14.6248 19.4993H7.12479C6.22969 19.4993 5.37124 19.1437 4.73831 18.5108C4.10537 17.8778 3.74979 17.0194 3.74979 16.1243C3.74979 15.2292 4.10537 14.3707 4.73831 13.7378C5.37124 13.1049 6.22969 12.7493 7.12479 12.7493C7.27827 12.7492 7.43157 12.7596 7.58366 12.7801C7.52772 13.1422 7.49968 13.508 7.49979 13.8743C7.49979 14.0732 7.57881 14.264 7.71946 14.4046C7.86012 14.5453 8.05088 14.6243 8.24979 14.6243C8.44871 14.6243 8.63947 14.5453 8.78012 14.4046C8.92078 14.264 8.99979 14.0732 8.99979 13.8743C8.99979 12.7618 9.32969 11.6742 9.94778 10.7492C10.5659 9.82417 11.4444 9.1032 12.4722 8.67746C13.5 8.25172 14.631 8.14032 15.7222 8.35737C16.8133 8.57441 17.8156 9.11014 18.6023 9.89681C19.3889 10.6835 19.9247 11.6858 20.1417 12.7769C20.3588 13.868 20.2474 14.999 19.8216 16.0269C19.3959 17.0547 18.6749 17.9332 17.7499 18.5513C16.8249 19.1694 15.7373 19.4993 14.6248 19.4993Z" fill="#1D1F21" style="fill: var(--ui-icon-primary-color);"/>
</svg>
