<svg  viewBox="0 0 24 24" fill="none" xmlns="http://www.w3.org/2000/svg" id="__THIS_ID_NEEDS_FOR_UI_ICON_COMPONENT__">
<path d="M14.6249 15.75C15.9232 15.7499 17.1967 15.3952 18.308 14.724C19.4193 14.0529 20.3261 13.0909 20.9305 11.9419C21.5349 10.7929 21.8138 9.50061 21.7372 8.20463C21.6606 6.90865 21.2314 5.65823 20.4959 4.58843C19.7604 3.51864 18.7466 2.67013 17.564 2.13455C16.3813 1.59898 15.0749 1.3967 13.7857 1.54957C12.4964 1.70244 11.2735 2.20464 10.2489 3.00193C9.22436 3.79922 8.43709 4.86129 7.97217 6.07343C7.30639 5.95599 6.62347 5.97831 5.96678 6.13895C5.31009 6.2996 4.69398 6.59507 4.15761 7.0066C3.62123 7.41812 3.1763 7.9367 2.85109 8.52939C2.52588 9.12209 2.32749 9.77594 2.26852 10.4494C2.20955 11.1229 2.2913 11.8013 2.50857 12.4415C2.72584 13.0817 3.07388 13.6697 3.53058 14.1681C3.98728 14.6666 4.54266 15.0647 5.16145 15.337C5.78023 15.6093 6.44889 15.75 7.12494 15.75H10.8216L9.1229 18.3385C9.04868 18.4516 9.00643 18.5827 9.00064 18.7179C8.99485 18.853 9.02572 18.9872 9.08999 19.1063C9.15426 19.2253 9.24953 19.3248 9.36571 19.3941C9.48189 19.4634 9.61466 19.5 9.74994 19.5H13.0716L11.3729 22.0885C11.2638 22.2548 11.2252 22.4577 11.2656 22.6524C11.306 22.8472 11.4222 23.0179 11.5885 23.127C11.7548 23.2362 11.9576 23.2748 12.1524 23.2344C12.3471 23.1939 12.5179 23.0778 12.627 22.9115L15.0879 19.1615C15.1621 19.0484 15.2044 18.9173 15.2102 18.7821C15.216 18.647 15.1851 18.5128 15.1208 18.3937C15.0566 18.2747 14.9613 18.1752 14.8451 18.1059C14.7289 18.0366 14.5962 18 14.4609 18H11.1392L12.6158 15.75H14.6249ZM3.74994 10.875C3.75095 9.98021 4.10685 9.12235 4.73957 8.48963C5.37229 7.85691 6.23015 7.50101 7.12494 7.5C7.27842 7.49996 7.43172 7.51027 7.58381 7.53086C7.52787 7.89289 7.49983 8.25868 7.49994 8.625C7.49994 8.82392 7.57896 9.01468 7.71961 9.15533C7.86027 9.29599 8.05103 9.375 8.24994 9.375C8.44886 9.375 8.63962 9.29599 8.78027 9.15533C8.92093 9.01468 8.99994 8.82392 8.99994 8.625C8.99994 7.51248 9.32984 6.42495 9.94793 5.49992C10.566 4.57489 11.4445 3.85392 12.4723 3.42818C13.5002 3.00244 14.6312 2.89104 15.7223 3.10809C16.8135 3.32513 17.8157 3.86086 18.6024 4.64753C19.3891 5.4342 19.9248 6.43648 20.1419 7.52762C20.3589 8.61876 20.2475 9.74976 19.8218 10.7776C19.396 11.8054 18.6751 12.6839 17.75 13.302C16.825 13.9201 15.7375 14.25 14.6249 14.25H7.12494C6.23015 14.249 5.37229 13.8931 4.73957 13.2604C4.10685 12.6277 3.75095 11.7698 3.74994 10.875Z" fill="#1D1F21" style="fill: var(--ui-icon-primary-color);"/>
</svg>
