<svg  viewBox="0 0 24 24" fill="none" xmlns="http://www.w3.org/2000/svg" id="__THIS_ID_NEEDS_FOR_UI_ICON_COMPONENT__">
<path d="M23.2499 11.9985C23.2551 13.7847 22.6756 15.5236 21.5998 16.9494C21.5406 17.0282 21.4665 17.0945 21.3817 17.1446C21.2969 17.1947 21.2031 17.2276 21.1056 17.2415C21.0081 17.2553 20.9088 17.2498 20.8134 17.2253C20.718 17.2008 20.6284 17.1577 20.5497 17.0986C20.4709 17.0394 20.4046 16.9653 20.3545 16.8805C20.3044 16.7958 20.2714 16.7019 20.2576 16.6044C20.2437 16.5069 20.2492 16.4076 20.2738 16.3122C20.2983 16.2168 20.3414 16.1272 20.4005 16.0485C21.0422 15.1928 21.4713 14.1969 21.6526 13.1428C21.8339 12.0887 21.7621 11.0066 21.4432 9.98575C21.1242 8.96486 20.5672 8.03437 19.8181 7.27096C19.069 6.50755 18.1492 5.93308 17.1346 5.59488C16.1199 5.25668 15.0394 5.16443 13.9821 5.32573C12.9247 5.48704 11.9209 5.89729 11.0532 6.52266C10.1855 7.14804 9.47889 7.97065 8.9915 8.9227C8.50412 9.87474 8.24993 10.929 8.24991 11.9985C8.24991 12.1974 8.17089 12.3882 8.03024 12.5289C7.88959 12.6695 7.69882 12.7485 7.49991 12.7485C7.30099 12.7485 7.11023 12.6695 6.96958 12.5289C6.82893 12.3882 6.74991 12.1974 6.74991 11.9985C6.74941 11.2416 6.85334 10.4882 7.05876 9.75971C6.95613 9.75275 6.85318 9.74854 6.74991 9.74854C5.55643 9.74854 4.41184 10.2226 3.56793 11.0666C2.72401 11.9105 2.24991 13.0551 2.24991 14.2485C2.24991 15.442 2.72401 16.5866 3.56793 17.4305C4.41184 18.2744 5.55643 18.7485 6.74991 18.7485H8.99991C9.19882 18.7485 9.38958 18.8276 9.53024 18.9682C9.67089 19.1089 9.74991 19.2996 9.74991 19.4985C9.74991 19.6974 9.67089 19.8882 9.53024 20.0289C9.38958 20.1695 9.19882 20.2485 8.99991 20.2485H6.74991C5.92516 20.2486 5.10925 20.0786 4.35313 19.7492C3.59702 19.4198 2.91693 18.9381 2.35535 18.334C1.79376 17.73 1.36273 17.0167 1.08917 16.2386C0.815612 15.4606 0.705402 14.6345 0.76542 13.8119C0.825439 12.9893 1.0544 12.188 1.438 11.4579C1.8216 10.7278 2.35161 10.0846 2.99492 9.56847C3.63824 9.05236 4.38105 8.67444 5.17697 8.45828C5.9729 8.24212 6.80484 8.19237 7.62084 8.31214C8.45126 6.64927 9.81892 5.31558 11.5022 4.52725C13.1854 3.73892 15.0855 3.54216 16.8946 3.96885C18.7036 4.39555 20.3155 5.4207 21.4691 6.87813C22.6226 8.33556 23.2501 10.1398 23.2499 11.9985ZM14.7806 11.4686C14.7629 11.4509 14.7444 11.4342 14.7251 11.4184C14.7172 11.4119 14.709 11.4064 14.7009 11.4003C14.6894 11.3916 14.6781 11.3827 14.6661 11.3747C14.6561 11.368 14.6456 11.3622 14.6353 11.356C14.6247 11.3496 14.6142 11.3429 14.6032 11.337C14.5926 11.3313 14.5816 11.3265 14.5708 11.3214C14.5595 11.316 14.5483 11.3104 14.5367 11.3056C14.5262 11.3012 14.5155 11.2978 14.5049 11.2939C14.4924 11.2894 14.4801 11.2847 14.4673 11.2808C14.4568 11.2776 14.4461 11.2753 14.4354 11.2726C14.4224 11.2693 14.4095 11.2657 14.3962 11.263C14.3841 11.2606 14.3718 11.2592 14.3595 11.2574C14.3476 11.2557 14.3358 11.2534 14.3237 11.2523C14.3019 11.2501 14.2801 11.2492 14.2582 11.2489C14.2554 11.2489 14.2527 11.2485 14.2499 11.2485C14.2471 11.2485 14.2444 11.2489 14.2416 11.2489C14.2197 11.2492 14.1979 11.2501 14.1762 11.2523C14.164 11.2534 14.1523 11.2557 14.1403 11.2574C14.1281 11.2592 14.1158 11.2606 14.1036 11.263C14.0903 11.2657 14.0775 11.2693 14.0644 11.2726C14.0538 11.2753 14.043 11.2776 14.0325 11.2808C14.0197 11.2847 14.0074 11.2894 13.995 11.2939C13.9843 11.2978 13.9736 11.3012 13.9632 11.3056C13.9515 11.3104 13.9404 11.316 13.9291 11.3214C13.9182 11.3265 13.9073 11.3313 13.8966 11.337C13.8856 11.3429 13.8752 11.3496 13.8645 11.356C13.8542 11.3622 13.8438 11.368 13.8337 11.3747C13.8217 11.3827 13.8104 11.3916 13.7989 11.4003C13.7909 11.4064 13.7826 11.4119 13.7747 11.4184C13.7554 11.4342 13.7369 11.4509 13.7192 11.4686L10.5376 14.6502C10.4676 14.7197 10.412 14.8024 10.374 14.8935C10.336 14.9846 10.3164 15.0823 10.3162 15.181C10.316 15.2797 10.3354 15.3775 10.3731 15.4687C10.4108 15.5599 10.4661 15.6428 10.5359 15.7126C10.6057 15.7824 10.6885 15.8377 10.7798 15.8754C10.871 15.9131 10.9687 15.9324 11.0674 15.9322C11.1661 15.9321 11.2638 15.9124 11.3549 15.8744C11.446 15.8364 11.5287 15.7808 11.5983 15.7108L13.4999 13.8092V19.4985C13.4999 19.6974 13.5789 19.8882 13.7196 20.0289C13.8602 20.1695 14.051 20.2485 14.2499 20.2485C14.4488 20.2485 14.6396 20.1695 14.7802 20.0289C14.9209 19.8882 14.9999 19.6974 14.9999 19.4985V13.8092L16.9015 15.7108C16.9712 15.7805 17.0539 15.8358 17.1449 15.8736C17.2359 15.9113 17.3334 15.9308 17.432 15.9308C17.5305 15.9308 17.6281 15.9115 17.7191 15.8738C17.8101 15.8361 17.8928 15.7808 17.9625 15.7111C18.0322 15.6415 18.0875 15.5588 18.1251 15.4677C18.1628 15.3767 18.1822 15.2791 18.1822 15.1806C18.1822 15.0821 18.1627 14.9845 18.125 14.8935C18.0872 14.8025 18.0319 14.7198 17.9622 14.6502L14.7806 11.4686Z" fill="#1D1F21" style="fill: var(--ui-icon-primary-color);"/>
</svg>
