<svg  viewBox="0 0 24 24" fill="none" xmlns="http://www.w3.org/2000/svg" id="__THIS_ID_NEEDS_FOR_UI_ICON_COMPONENT__">
<path d="M18.733 18.2914L18.7302 18.2883L9.09598 7.6907L9.0913 7.68552L5.05489 3.24549C4.98864 3.17261 4.90868 3.1135 4.81958 3.07153C4.73049 3.02955 4.63399 3.00553 4.53562 3.00085C4.33693 2.99139 4.14263 3.06124 3.99544 3.19505C3.92257 3.2613 3.86345 3.34126 3.82148 3.43035C3.7795 3.51945 3.75549 3.61594 3.7508 3.71432C3.74134 3.91301 3.8112 4.10731 3.945 4.25449L7.624 8.3014C7.62203 8.30531 7.62025 8.30931 7.6183 8.31323C6.80237 8.19388 5.97061 8.24401 5.17492 8.46046C4.37922 8.67692 3.63669 9.05508 2.99367 9.57132C2.35065 10.0876 1.82095 10.7308 1.43762 11.4609C1.0543 12.191 0.825582 12.9923 0.765753 13.8147C0.705924 14.6371 0.816266 15.4631 1.08989 16.241C1.36352 17.0188 1.79455 17.732 2.35609 18.3358C2.91762 18.9397 3.59761 19.4213 4.35359 19.7507C5.10958 20.08 5.92534 20.25 6.74995 20.25H14.9999C16.0196 20.252 17.0307 20.0635 17.9811 19.6942L18.945 20.7545C19.0788 20.9017 19.2656 20.9897 19.4643 20.9991C19.663 21.0086 19.8573 20.9387 20.0044 20.8049C20.1516 20.6711 20.2396 20.4843 20.2491 20.2857C20.2585 20.087 20.1887 19.8927 20.0549 19.7455L18.733 18.2914ZM14.9999 18.75H6.74995C5.55647 18.75 4.41188 18.2759 3.56797 17.432C2.72405 16.5881 2.24995 15.4435 2.24995 14.25C2.24995 13.0565 2.72405 11.9119 3.56797 11.068C4.41188 10.2241 5.55647 9.74999 6.74995 9.74999C6.85342 9.74999 6.95658 9.75423 7.05944 9.76121C6.85431 10.4898 6.75017 11.2431 6.74995 12C6.74995 12.1989 6.82896 12.3897 6.96962 12.5303C7.11027 12.671 7.30103 12.75 7.49995 12.75C7.69886 12.75 7.88962 12.671 8.03028 12.5303C8.17093 12.3897 8.24995 12.1989 8.24995 12C8.25 11.1482 8.41104 10.304 8.7246 9.51205L16.8808 18.4839C16.2696 18.6611 15.6363 18.7507 14.9999 18.75ZM23.2499 12C23.2512 14.0269 22.5051 15.9831 21.1543 17.4943C21.0217 17.6426 20.8357 17.7323 20.6371 17.7434C20.4385 17.7546 20.2436 17.6865 20.0953 17.554C19.947 17.4214 19.8574 17.2354 19.8462 17.0368C19.835 16.8382 19.9032 16.6433 20.0357 16.495C21.1466 15.2501 21.7572 13.6379 21.7495 11.9694C21.7419 10.3009 21.1165 8.69433 19.9942 7.45969C18.8719 6.22506 17.332 5.44983 15.6718 5.28358C14.0116 5.11733 12.3486 5.57185 11.0038 6.55943C10.8435 6.67732 10.6431 6.72675 10.4464 6.69683C10.2498 6.66691 10.0731 6.5601 9.95516 6.3999C9.83726 6.23969 9.78783 6.03921 9.81775 5.84256C9.84767 5.64591 9.95448 5.46919 10.1147 5.3513C11.3439 4.44832 12.7994 3.90374 14.3194 3.77805C15.8394 3.65237 17.3646 3.95048 18.7254 4.6393C20.0862 5.32811 21.2295 6.38066 22.0282 7.68004C22.8269 8.97942 23.2498 10.4748 23.2499 12Z" fill="#1D1F21" style="fill: var(--ui-icon-primary-color);"/>
</svg>
