<svg  viewBox="0 0 24 24" fill="none" xmlns="http://www.w3.org/2000/svg" id="__THIS_ID_NEEDS_FOR_UI_ICON_COMPONENT__">
<path d="M17.9623 15.7877C18.0319 15.8574 18.0872 15.94 18.1248 16.031C18.1625 16.122 18.1819 16.2195 18.1819 16.318C18.1819 16.4165 18.1625 16.5141 18.1248 16.6051C18.0872 16.696 18.0319 16.7787 17.9623 16.8484L14.7807 20.03C14.763 20.0476 14.7445 20.0644 14.7252 20.0801C14.7173 20.0866 14.709 20.0922 14.701 20.0982C14.6895 20.1069 14.6782 20.1158 14.6662 20.1238C14.6561 20.1306 14.6456 20.1364 14.6353 20.1426C14.6247 20.149 14.6142 20.1556 14.6033 20.1615C14.5925 20.1673 14.5814 20.1722 14.5704 20.1774C14.5592 20.1826 14.5483 20.1882 14.5368 20.1929C14.5261 20.1974 14.5151 20.2009 14.5042 20.2049C14.492 20.2093 14.48 20.2139 14.4676 20.2177C14.4566 20.221 14.4454 20.2234 14.4344 20.2262C14.4218 20.2294 14.4093 20.2329 14.3965 20.2355C14.3835 20.2381 14.3703 20.2396 14.3572 20.2415C14.3461 20.243 14.3352 20.2452 14.324 20.2463C14.2994 20.2487 14.2747 20.25 14.25 20.25C14.2253 20.25 14.2006 20.2487 14.176 20.2463C14.1647 20.2452 14.1539 20.243 14.1428 20.2415C14.1297 20.2396 14.1165 20.2381 14.1035 20.2355C14.0906 20.2329 14.0782 20.2294 14.0656 20.2262C14.0545 20.2234 14.0434 20.221 14.0324 20.2177C14.02 20.2139 14.0079 20.2093 13.9957 20.2049C13.9848 20.2009 13.9739 20.1974 13.9631 20.1929C13.9517 20.1882 13.9407 20.1826 13.9296 20.1774C13.9186 20.1722 13.9075 20.1673 13.8967 20.1615C13.8857 20.1556 13.8753 20.149 13.8647 20.1426C13.8544 20.1364 13.8439 20.1306 13.8338 20.1238C13.8218 20.1158 13.8105 20.1069 13.799 20.0982C13.7909 20.0922 13.7827 20.0866 13.7748 20.0801C13.7555 20.0644 13.737 20.0476 13.7193 20.03L10.5377 16.8484C10.468 16.7787 10.4127 16.696 10.3749 16.605C10.3372 16.514 10.3177 16.4165 10.3177 16.3179C10.3177 16.2194 10.3371 16.1218 10.3748 16.0308C10.4124 15.9398 10.4677 15.8571 10.5374 15.7874C10.607 15.7177 10.6898 15.6625 10.7808 15.6248C10.8718 15.5871 10.9694 15.5677 11.0679 15.5677C11.1665 15.5678 11.264 15.5872 11.355 15.6249C11.446 15.6627 11.5287 15.718 11.5984 15.7877L13.5 17.6894V12C13.5 11.8011 13.579 11.6103 13.7196 11.4697C13.8603 11.329 14.0511 11.25 14.25 11.25C14.4489 11.25 14.6397 11.329 14.7803 11.4697C14.921 11.6103 15 11.8011 15 12V17.6894L16.9016 15.7877C17.0423 15.6471 17.233 15.5681 17.4319 15.5681C17.6308 15.5681 17.8216 15.6471 17.9623 15.7877ZM15 3.75C13.4677 3.75132 11.9661 4.17885 10.6629 4.98479C9.35976 5.79073 8.30649 6.9433 7.62091 8.31361C6.80493 8.19389 5.97303 8.24368 5.17715 8.45986C4.38127 8.67605 3.6385 9.05399 2.99523 9.57009C2.35196 10.0862 1.82199 10.7294 1.43841 11.4595C1.05484 12.1895 0.825894 12.9909 0.765878 13.8134C0.705862 14.6359 0.816062 15.462 1.0896 16.24C1.36313 17.0181 1.79413 17.7314 2.35567 18.3354C2.91722 18.9394 3.59725 19.4211 4.35332 19.7506C5.10939 20.08 5.92525 20.25 6.74997 20.25H8.99997C9.19888 20.25 9.38965 20.171 9.5303 20.0303C9.67095 19.8897 9.74997 19.6989 9.74997 19.5C9.74997 19.3011 9.67095 19.1103 9.5303 18.9697C9.38965 18.829 9.19888 18.75 8.99997 18.75H6.74997C5.5565 18.75 4.41191 18.2759 3.56799 17.432C2.72408 16.5881 2.24997 15.4435 2.24997 14.25C2.24997 13.0565 2.72408 11.9119 3.56799 11.068C4.41191 10.2241 5.5565 9.75 6.74997 9.75C6.85324 9.75 6.9562 9.75421 7.05883 9.76117C6.85341 10.4897 6.74948 11.2431 6.74997 12C6.74997 12.1989 6.82899 12.3897 6.96964 12.5303C7.11029 12.671 7.30106 12.75 7.49997 12.75C7.69888 12.75 7.88965 12.671 8.0303 12.5303C8.17095 12.3897 8.24997 12.1989 8.24997 12C8.25009 10.9305 8.50433 9.87638 8.99174 8.92443C9.47915 7.97248 10.1858 7.14997 11.0534 6.52467C11.9211 5.89938 12.9248 5.48919 13.9821 5.32792C15.0393 5.16665 16.1198 5.2589 17.1344 5.59708C18.149 5.93526 19.0687 6.50968 19.8178 7.27301C20.5668 8.03635 21.1238 8.96675 21.4428 9.98756C21.7617 11.0084 21.8336 12.0903 21.6524 13.1444C21.4712 14.1984 21.0421 15.1942 20.4006 16.0499C20.2811 16.209 20.2297 16.4089 20.2577 16.6059C20.2856 16.8028 20.3907 16.9806 20.5497 17.1C20.7087 17.2195 20.9087 17.2709 21.1057 17.243C21.3026 17.215 21.4804 17.1099 21.5998 16.9509C22.5191 15.7252 23.079 14.2676 23.2166 12.7417C23.3542 11.2157 23.0642 9.6815 22.3791 8.31104C21.6939 6.94059 20.6407 5.78801 19.3374 4.98243C18.034 4.17685 16.5322 3.7501 15 3.75Z" fill="#1D1F21" style="fill: var(--ui-icon-primary-color);"/>
</svg>
