<svg  viewBox="0 0 24 24" fill="none" xmlns="http://www.w3.org/2000/svg" id="__THIS_ID_NEEDS_FOR_UI_ICON_COMPONENT__">
<path d="M14.625 1.5C13.184 1.50163 11.7773 1.93939 10.5898 2.7557C9.40237 3.57201 8.48982 4.72863 7.9722 6.07343C7.30642 5.95599 6.6235 5.9783 5.96681 6.13895C5.31012 6.2996 4.69401 6.59507 4.15764 7.00659C3.62126 7.41812 3.17633 7.9367 2.85112 8.52939C2.52591 9.12209 2.32752 9.77594 2.26855 10.4494C2.20958 11.1229 2.29133 11.8013 2.5086 12.4415C2.72587 13.0817 3.07391 13.6697 3.53061 14.1681C3.98731 14.6666 4.5427 15.0647 5.16148 15.337C5.78026 15.6093 6.44892 15.75 7.12497 15.75H14.625C16.5146 15.75 18.3269 14.9993 19.6631 13.6631C20.9993 12.3269 21.75 10.5147 21.75 8.625C21.75 6.73533 20.9993 4.92306 19.6631 3.58686C18.3269 2.25067 16.5146 1.5 14.625 1.5ZM14.625 14.25H7.12497C6.22987 14.25 5.37142 13.8944 4.73849 13.2615C4.10555 12.6285 3.74997 11.7701 3.74997 10.875C3.74997 9.97989 4.10555 9.12145 4.73849 8.48851C5.37142 7.85558 6.22987 7.5 7.12497 7.5C7.27845 7.49996 7.43175 7.51027 7.58384 7.53085C7.5279 7.89288 7.49986 8.25867 7.49997 8.625C7.49997 8.82391 7.57899 9.01468 7.71964 9.15533C7.8603 9.29598 8.05106 9.375 8.24997 9.375C8.44889 9.375 8.63965 9.29598 8.7803 9.15533C8.92096 9.01468 8.99997 8.82391 8.99997 8.625C8.99997 7.51248 9.32987 6.42494 9.94796 5.49992C10.566 4.57489 11.4445 3.85392 12.4724 3.42818C13.5002 3.00243 14.6312 2.89104 15.7224 3.10808C16.8135 3.32512 17.8158 3.86085 18.6024 4.64752C19.3891 5.43419 19.9249 6.43647 20.1419 7.52762C20.3589 8.61876 20.2475 9.74976 19.8218 10.7776C19.3961 11.8054 18.6751 12.6839 17.7501 13.302C16.825 13.9201 15.7375 14.25 14.625 14.25ZM16.5 18.375C16.5 18.5975 16.434 18.815 16.3104 19C16.1868 19.185 16.0111 19.3292 15.8055 19.4144C15.5999 19.4995 15.3737 19.5218 15.1555 19.4784C14.9373 19.435 14.7368 19.3278 14.5795 19.1705C14.4221 19.0132 14.315 18.8127 14.2716 18.5945C14.2282 18.3762 14.2505 18.15 14.3356 17.9445C14.4208 17.7389 14.565 17.5632 14.75 17.4396C14.935 17.316 15.1525 17.25 15.375 17.25C15.6732 17.2503 15.9592 17.369 16.1701 17.5799C16.381 17.7908 16.4996 18.0767 16.5 18.375ZM8.24997 18.375C8.24997 18.5975 8.18399 18.815 8.06038 19C7.93676 19.185 7.76106 19.3292 7.55549 19.4144C7.34993 19.4995 7.12372 19.5218 6.9055 19.4784C6.68727 19.435 6.48681 19.3278 6.32948 19.1705C6.17214 19.0132 6.065 18.8127 6.02159 18.5945C5.97818 18.3762 6.00046 18.15 6.08561 17.9445C6.17076 17.7389 6.31495 17.5632 6.49996 17.4396C6.68496 17.316 6.90247 17.25 7.12497 17.25C7.42324 17.2503 7.70919 17.369 7.92009 17.5799C8.131 17.7908 8.24963 18.0767 8.24997 18.375ZM12 19.875C12 20.0975 11.934 20.315 11.8104 20.5C11.6868 20.685 11.5111 20.8292 11.3055 20.9144C11.0999 20.9995 10.8737 21.0218 10.6555 20.9784C10.4373 20.935 10.2368 20.8278 10.0795 20.6705C9.92214 20.5132 9.815 20.3127 9.77159 20.0945C9.72818 19.8762 9.75046 19.65 9.83561 19.4445C9.92076 19.2389 10.065 19.0632 10.25 18.9396C10.435 18.816 10.6525 18.75 10.875 18.75C11.1732 18.7503 11.4592 18.869 11.6701 19.0799C11.881 19.2908 11.9996 19.5767 12 19.875ZM7.49997 22.125C7.49997 22.3475 7.43399 22.565 7.31038 22.75C7.18676 22.935 7.01106 23.0792 6.80549 23.1644C6.59993 23.2495 6.37372 23.2718 6.1555 23.2284C5.93727 23.185 5.73681 23.0778 5.57948 22.9205C5.42214 22.7632 5.315 22.5627 5.27159 22.3445C5.22818 22.1262 5.25046 21.9 5.33561 21.6945C5.42076 21.4889 5.56495 21.3132 5.74996 21.1896C5.93496 21.066 6.15247 21 6.37497 21C6.67324 21.0003 6.95919 21.119 7.17009 21.3299C7.381 21.5408 7.49963 21.8267 7.49997 22.125ZM15.75 22.125C15.75 22.3475 15.684 22.565 15.5604 22.75C15.4368 22.935 15.2611 23.0792 15.0555 23.1644C14.8499 23.2495 14.6237 23.2718 14.4055 23.2284C14.1873 23.185 13.9868 23.0778 13.8295 22.9205C13.6721 22.7632 13.565 22.5627 13.5216 22.3445C13.4782 22.1262 13.5005 21.9 13.5856 21.6945C13.6708 21.4889 13.815 21.3132 14 21.1896C14.185 21.066 14.4025 21 14.625 21C14.9232 21.0003 15.2092 21.119 15.4201 21.3299C15.631 21.5408 15.7496 21.8267 15.75 22.125Z" fill="#1D1F21" style="fill: var(--ui-icon-primary-color);"/>
</svg>
