<svg  viewBox="0 0 24 24" fill="none" xmlns="http://www.w3.org/2000/svg" id="__THIS_ID_NEEDS_FOR_UI_ICON_COMPONENT__">
<path d="M15 3.75C13.4678 3.75126 11.9662 4.17869 10.663 4.9845C9.35981 5.79031 8.30645 6.94272 7.6207 8.3129C6.8047 8.19327 5.97281 8.24314 5.17695 8.4594C4.38109 8.67566 3.63835 9.05366 2.99512 9.5698C2.35188 10.0859 1.82194 10.7291 1.4384 11.4593C1.05486 12.1894 0.825952 12.9907 0.765959 13.8132C0.705965 14.6358 0.816178 15.4618 1.08972 16.2399C1.36326 17.0179 1.79425 17.7312 2.35579 18.3352C2.91732 18.9392 3.59735 19.421 4.3534 19.7505C5.10946 20.0799 5.92532 20.25 6.75003 20.25H15C17.1881 20.25 19.2865 19.3808 20.8337 17.8336C22.3808 16.2865 23.25 14.188 23.25 12C23.25 9.81196 22.3808 7.71354 20.8337 6.16637C19.2865 4.61919 17.1881 3.75 15 3.75ZM15 18.75H6.75003C5.55656 18.75 4.41197 18.2759 3.56805 17.432C2.72414 16.5881 2.25003 15.4435 2.25003 14.25C2.25003 13.0565 2.72414 11.9119 3.56805 11.068C4.41197 10.2241 5.55656 9.75 6.75003 9.75C6.85326 9.75 6.95621 9.75348 7.05889 9.76044C6.85337 10.4892 6.74944 11.2428 6.75003 12C6.75003 12.1989 6.82905 12.3897 6.9697 12.5303C7.11036 12.671 7.30112 12.75 7.50003 12.75C7.69895 12.75 7.88971 12.671 8.03036 12.5303C8.17102 12.3897 8.25003 12.1989 8.25003 12C8.25003 10.665 8.64591 9.35993 9.38761 8.2499C10.1293 7.13987 11.1835 6.2747 12.4169 5.76381C13.6503 5.25292 15.0075 5.11925 16.3169 5.3797C17.6263 5.64015 18.829 6.28302 19.773 7.22703C20.717 8.17103 21.3599 9.37377 21.6203 10.6831C21.8808 11.9925 21.7471 13.3497 21.2362 14.5831C20.7253 15.8165 19.8602 16.8707 18.7501 17.6124C17.6401 18.3541 16.3351 18.75 15 18.75ZM18.5304 10.3447C18.6 10.4143 18.6553 10.497 18.6929 10.588C18.7306 10.679 18.75 10.7765 18.75 10.875C18.75 10.9735 18.7306 11.071 18.6929 11.162C18.6553 11.253 18.6 11.3357 18.5304 11.4053L14.0304 15.9053C13.9607 15.975 13.878 16.0302 13.787 16.0679C13.696 16.1056 13.5985 16.125 13.5 16.125C13.4015 16.125 13.304 16.1056 13.213 16.0679C13.122 16.0302 13.0394 15.975 12.9697 15.9053L10.7197 13.6553C10.5792 13.5146 10.5003 13.3239 10.5004 13.1251C10.5004 12.9263 10.5795 12.7356 10.72 12.595C10.8606 12.4544 11.0513 12.3754 11.2501 12.3753C11.449 12.3753 11.6397 12.4542 11.7804 12.5947L13.5 14.3144L17.4697 10.3447C17.6104 10.204 17.8011 10.125 18 10.125C18.1989 10.125 18.3897 10.204 18.5304 10.3447Z" fill="#1D1F21" style="fill: var(--ui-icon-primary-color);"/>
</svg>
