<svg  viewBox="0 0 24 24" fill="none" xmlns="http://www.w3.org/2000/svg" id="__THIS_ID_NEEDS_FOR_UI_ICON_COMPONENT__">
<path d="M11.25 18.7495H6.75001C6.5511 18.7495 6.36033 18.6705 6.21968 18.5299C6.07903 18.3892 6.00001 18.1985 6.00001 17.9995C6.00001 17.8006 6.07903 17.6099 6.21968 17.4692C6.36033 17.3286 6.5511 17.2495 6.75001 17.2495H11.25C11.4489 17.2495 11.6397 17.3286 11.7803 17.4692C11.921 17.6099 12 17.8006 12 17.9995C12 18.1985 11.921 18.3892 11.7803 18.5299C11.6397 18.6705 11.4489 18.7495 11.25 18.7495ZM17.25 17.2495H15C14.8011 17.2495 14.6103 17.3286 14.4697 17.4692C14.329 17.6099 14.25 17.8006 14.25 17.9995C14.25 18.1985 14.329 18.3892 14.4697 18.5299C14.6103 18.6705 14.8011 18.7495 15 18.7495H17.25C17.4489 18.7495 17.6397 18.6705 17.7803 18.5299C17.921 18.3892 18 18.1985 18 17.9995C18 17.8006 17.921 17.6099 17.7803 17.4692C17.6397 17.3286 17.4489 17.2495 17.25 17.2495ZM15 20.2495H9.75001C9.55109 20.2495 9.36033 20.3286 9.21968 20.4692C9.07902 20.6099 9.00001 20.8006 9.00001 20.9995C9.00001 21.1985 9.07902 21.3892 9.21968 21.5299C9.36033 21.6705 9.55109 21.7495 9.75001 21.7495H15C15.1989 21.7495 15.3897 21.6705 15.5303 21.5299C15.671 21.3892 15.75 21.1985 15.75 20.9995C15.75 20.8006 15.671 20.6099 15.5303 20.4692C15.3897 20.3286 15.1989 20.2495 15 20.2495ZM21.75 8.62454C21.7479 10.5135 20.9965 12.3246 19.6608 13.6603C18.325 14.996 16.514 15.7474 14.625 15.7495H7.12501C6.44934 15.7489 5.78117 15.6079 5.1629 15.3353C4.54464 15.0628 3.98978 14.6647 3.53354 14.1663C3.0773 13.668 2.72964 13.0802 2.51263 12.4403C2.29561 11.8004 2.21398 11.1224 2.27291 10.4493C2.33185 9.77624 2.53006 9.12274 2.85496 8.53032C3.17987 7.93789 3.62438 7.41948 4.16029 7.00797C4.69619 6.59646 5.31179 6.30085 5.96801 6.13989C6.62423 5.97893 7.30674 5.95614 7.97224 6.07296C8.56838 4.51877 9.68988 3.22235 11.1421 2.4087C12.5943 1.59505 14.2855 1.31553 15.9223 1.61866C17.5591 1.92178 19.0381 2.78841 20.1026 4.06814C21.1671 5.34787 21.75 6.95993 21.75 8.62454ZM20.25 8.62454C20.25 7.13269 19.6574 5.70195 18.6025 4.64706C17.5476 3.59217 16.1169 2.99954 14.625 2.99954C13.1332 2.99954 11.7024 3.59217 10.6475 4.64706C9.59264 5.70195 9.00001 7.13269 9.00001 8.62454C9.00001 8.82345 8.92099 9.01421 8.78034 9.15487C8.63968 9.29552 8.44892 9.37454 8.25001 9.37454C8.0511 9.37454 7.86033 9.29552 7.71968 9.15487C7.57903 9.01421 7.50001 8.82345 7.50001 8.62454C7.4999 8.25821 7.52793 7.89242 7.58387 7.53039C7.43178 7.50981 7.27848 7.4995 7.12501 7.49954C6.2299 7.49954 5.37146 7.85512 4.73852 8.48805C4.10559 9.12099 3.75001 9.97943 3.75001 10.8745C3.75001 11.7696 4.10559 12.6281 4.73852 13.261C5.37146 13.894 6.2299 14.2495 7.12501 14.2495H14.625C16.1163 14.2478 17.5461 13.6547 18.6006 12.6001C19.6551 11.5456 20.2483 10.1159 20.25 8.62454Z" fill="#1D1F21" style="fill: var(--ui-icon-primary-color);"/>
</svg>
