<svg  viewBox="0 0 24 24" fill="none" xmlns="http://www.w3.org/2000/svg" id="__THIS_ID_NEEDS_FOR_UI_ICON_COMPONENT__">
<path d="M14.9999 20.2493H6.7499C5.92555 20.2487 5.11016 20.0783 4.3546 19.7486C3.59904 19.4189 2.91952 18.9371 2.35844 18.3332C1.79735 17.7293 1.36673 17.0162 1.09344 16.2385C0.820145 15.4607 0.71005 14.635 0.770017 13.8129C0.829984 12.9907 1.05873 12.1897 1.44198 11.4599C1.82523 10.73 2.35476 10.087 2.99754 9.57085C3.64032 9.05472 4.38257 8.67659 5.17797 8.46004C5.97336 8.24349 6.80485 8.19317 7.62056 8.31221C8.27727 6.99795 9.27303 5.88292 10.5049 5.08235C11.7369 4.28177 13.1602 3.82471 14.6279 3.75841C16.0956 3.6921 17.5544 4.01895 18.8535 4.70518C20.1525 5.39141 21.2448 6.41211 22.0173 7.66179C22.7899 8.91148 23.2147 10.3448 23.2478 11.8136C23.2809 13.2824 22.9212 14.7335 22.2058 16.0167C21.4904 17.3 20.4453 18.3689 19.1785 19.113C17.9116 19.8571 16.4691 20.2494 14.9999 20.2493ZM6.7499 9.74932C5.55642 9.74932 4.41183 10.2234 3.56792 11.0673C2.724 11.9113 2.2499 13.0558 2.2499 14.2493C2.2499 15.4428 2.724 16.5874 3.56792 17.4313C4.41183 18.2752 5.55642 18.7493 6.7499 18.7493H14.9999C16.3349 18.7493 17.64 18.3534 18.75 17.6117C19.86 16.87 20.7252 15.8158 21.2361 14.5824C21.747 13.349 21.8806 11.9918 21.6202 10.6825C21.3597 9.37309 20.7169 8.17035 19.7729 7.22635C18.8289 6.28234 17.6261 5.63947 16.3168 5.37902C15.0074 5.11857 13.6502 5.25224 12.4168 5.76313C11.1834 6.27402 10.1292 7.13919 9.38748 8.24922C8.64578 9.35925 8.2499 10.6643 8.2499 11.9993C8.2499 12.1982 8.17088 12.389 8.03023 12.5296C7.88957 12.6703 7.69881 12.7493 7.4999 12.7493C7.30098 12.7493 7.11022 12.6703 6.96957 12.5296C6.82891 12.389 6.7499 12.1982 6.7499 11.9993C6.7493 11.2421 6.85324 10.4885 7.05875 9.75977C6.95612 9.75281 6.85317 9.74933 6.7499 9.74932Z" fill="#1D1F21" style="fill: var(--ui-icon-primary-color);"/>
</svg>
