<svg  viewBox="0 0 24 24" fill="none" xmlns="http://www.w3.org/2000/svg" id="__THIS_ID_NEEDS_FOR_UI_ICON_COMPONENT__">
<path d="M14.6249 6.75023C13.9839 6.74986 13.3457 6.83622 12.7278 7.00697C12.4837 6.60722 12.1869 6.2421 11.8455 5.92142L12.7347 4.65166C12.8483 4.4887 12.8926 4.28734 12.8579 4.09175C12.8232 3.89616 12.7123 3.72233 12.5496 3.60839C12.3869 3.49445 12.1856 3.44971 11.99 3.48399C11.7943 3.51827 11.6202 3.62877 11.506 3.79124L10.6168 5.06103C9.83333 4.66562 8.96308 4.47341 8.08596 4.50206L7.81628 2.97267C7.79928 2.87559 7.76331 2.78281 7.71043 2.69964C7.65755 2.61646 7.58879 2.54453 7.50809 2.48795C7.42739 2.43137 7.33633 2.39125 7.24011 2.36988C7.1439 2.34852 7.04441 2.34633 6.94735 2.36344C6.85029 2.38055 6.75755 2.41662 6.67443 2.46959C6.59132 2.52257 6.51946 2.5914 6.46297 2.67217C6.40648 2.75293 6.36646 2.84404 6.3452 2.94028C6.32394 3.03652 6.32186 3.136 6.33908 3.23305L6.60859 4.76152C5.77405 5.03336 5.02202 5.51226 4.42272 6.15351L3.15126 5.26323C2.98831 5.14914 2.78671 5.10446 2.59081 5.13902C2.39492 5.17357 2.22077 5.28453 2.10669 5.44748C1.9926 5.61043 1.94792 5.81203 1.98248 6.00792C2.01703 6.20382 2.12799 6.37796 2.29094 6.49205L3.56217 7.38217C3.16432 8.16449 2.97123 9.03488 3.00093 9.91205L1.47232 10.1815C1.28765 10.2141 1.12188 10.3147 1.00768 10.4634C0.893488 10.6122 0.839153 10.7983 0.855387 10.9851C0.871621 11.172 0.957246 11.3459 1.09539 11.4727C1.23352 11.5996 1.41416 11.67 1.60168 11.6703C1.64563 11.6702 1.6895 11.6664 1.73279 11.6588L3.26192 11.3892C3.39636 11.7987 3.58074 12.19 3.8109 12.5543C3.09221 13.2201 2.59095 14.0871 2.37254 15.0421C2.15413 15.9972 2.22871 16.9959 2.58656 17.9079C2.94441 18.8198 3.5689 19.6028 4.37851 20.1544C5.18812 20.7061 6.14523 21.0008 7.12492 21.0002H14.6249C16.5146 21.0002 18.3269 20.2496 19.6631 18.9134C20.9993 17.5772 21.7499 15.7649 21.7499 13.8752C21.7499 11.9856 20.9993 10.1733 19.6631 8.83709C18.3269 7.5009 16.5146 6.75023 14.6249 6.75023ZM4.55895 10.4153C4.55813 10.41 4.5579 10.4047 4.55696 10.3993C4.55593 10.3935 4.55419 10.388 4.55302 10.3822C4.38433 9.41361 4.60546 8.41762 5.16817 7.61142C5.17148 7.60688 5.17533 7.60299 5.17856 7.59837C5.18217 7.5932 5.18503 7.58775 5.18849 7.58253C5.75328 6.78012 6.6119 6.23301 7.57779 6.06008C7.58475 6.05905 7.59167 6.05857 7.59862 6.05736C7.60517 6.05621 7.61137 6.05426 7.61785 6.05296C8.57148 5.88887 9.55162 6.10015 10.353 6.64256C10.3681 6.65501 10.3832 6.66742 10.3995 6.67882C10.4114 6.68713 10.4241 6.69301 10.4363 6.70052C10.7722 6.94134 11.0658 7.23632 11.3049 7.5734C9.77845 8.3811 8.59495 9.71285 7.97216 11.3237C7.6924 11.2747 7.40893 11.2501 7.12492 11.2502C6.40937 11.2496 5.70258 11.4076 5.05533 11.7127C4.8106 11.3149 4.64225 10.8749 4.55895 10.4153ZM14.6249 19.5002H7.12492C6.22982 19.5002 5.37137 19.1446 4.73844 18.5117C4.1055 17.8788 3.74992 17.0203 3.74992 16.1252C3.74992 15.2301 4.1055 14.3717 4.73844 13.7387C5.37137 13.1058 6.22982 12.7502 7.12492 12.7502C7.2784 12.7502 7.4317 12.7605 7.58379 12.7811C7.52785 13.1431 7.49981 13.5089 7.49992 13.8752C7.49992 14.0741 7.57894 14.2649 7.71959 14.4056C7.86024 14.5462 8.05101 14.6252 8.24992 14.6252C8.44883 14.6252 8.6396 14.5462 8.78025 14.4056C8.92091 14.2649 8.99992 14.0741 8.99992 13.8752C8.99992 12.7627 9.32982 11.6752 9.94791 10.7501C10.566 9.82512 11.4445 9.10415 12.4723 8.67841C13.5002 8.25266 14.6312 8.14127 15.7223 8.35831C16.8134 8.57535 17.8157 9.11108 18.6024 9.89775C19.3891 10.6844 19.9248 11.6867 20.1418 12.7778C20.3589 13.869 20.2475 15 19.8217 16.0278C19.396 17.0557 18.675 17.9342 17.75 18.5522C16.825 19.1703 15.7374 19.5002 14.6249 19.5002Z" fill="#1D1F21" style="fill: var(--ui-icon-primary-color);"/>
</svg>
