<svg  viewBox="0 0 24 24" fill="none" xmlns="http://www.w3.org/2000/svg" id="__THIS_ID_NEEDS_FOR_UI_ICON_COMPONENT__">
<path d="M15 22.4996H9C8.88236 22.4996 8.76636 22.4719 8.66139 22.4188C8.55642 22.3656 8.46541 22.2886 8.39573 22.1938C8.32605 22.099 8.27964 21.9891 8.26026 21.8731C8.24087 21.7571 8.24906 21.6381 8.28415 21.5258L9.1632 18.7133C8.45263 19.0126 7.68485 19.1517 6.91444 19.1208C6.14403 19.0898 5.3899 18.8895 4.70563 18.5342C4.02135 18.1789 3.42375 17.6772 2.95527 17.0648C2.48679 16.4524 2.15894 15.7443 1.99502 14.9909C1.8311 14.2375 1.83513 13.4573 2.00683 12.7056C2.17853 11.9539 2.51368 11.2493 2.98846 10.6418C3.46324 10.0343 4.06601 9.53879 4.75391 9.19055C5.44182 8.8423 6.19799 8.64984 6.96868 8.62685C6.73516 7.84328 6.68789 7.016 6.83062 6.21093C6.97336 5.40586 7.30216 4.64525 7.79082 3.98972C8.27949 3.33419 8.91451 2.80185 9.64528 2.43513C10.3761 2.06841 11.1824 1.87744 12 1.87744C12.8176 1.87744 13.624 2.06841 14.3547 2.43513C15.0855 2.80185 15.7205 3.33419 16.2092 3.98972C16.6978 4.64525 17.0267 5.40586 17.1694 6.21093C17.3121 7.016 17.2648 7.84328 17.0313 8.62685C17.8019 8.65002 18.5579 8.84259 19.2456 9.19089C19.9333 9.5392 20.5359 10.0347 21.0106 10.6421C21.4852 11.2496 21.8202 11.9541 21.9918 12.7057C22.1635 13.4572 22.1675 14.2374 22.0036 14.9906C21.8397 15.7439 21.512 16.4519 21.0436 17.0642C20.5752 17.6765 19.9778 18.1781 19.2937 18.5335C18.6096 18.8889 17.8556 19.0892 17.0853 19.1203C16.3151 19.1514 15.5474 19.0125 14.8369 18.7134L15.7159 21.5258C15.751 21.6381 15.7591 21.7571 15.7398 21.8731C15.7204 21.9891 15.674 22.099 15.6043 22.1938C15.5346 22.2886 15.4436 22.3656 15.3386 22.4188C15.2336 22.4719 15.1176 22.4996 15 22.4996ZM10.0202 20.9996H13.9798L12.7358 17.0191C12.6842 16.8542 12.6912 16.6765 12.7555 16.5161C12.8199 16.3558 12.9376 16.2225 13.0889 16.1389C13.2401 16.0554 13.4156 16.0266 13.5856 16.0574C13.7556 16.0883 13.9098 16.1769 14.022 16.3083C14.4541 16.8136 15.0129 17.1949 15.6411 17.413C16.2692 17.6311 16.9441 17.6781 17.5964 17.5493C18.2487 17.4205 18.855 17.1204 19.3531 16.6799C19.8512 16.2394 20.2231 15.6744 20.4308 15.0427C20.6384 14.411 20.6742 13.7355 20.5346 13.0854C20.395 12.4353 20.0849 11.834 19.6362 11.3433C19.1875 10.8526 18.6163 10.4901 17.9813 10.293C17.3463 10.0959 16.6702 10.0713 16.0225 10.2217C15.8749 10.2623 15.7184 10.2568 15.5741 10.2059C15.4297 10.155 15.3043 10.0612 15.2148 9.93698C15.1253 9.81279 15.0759 9.66419 15.0733 9.51113C15.0707 9.35807 15.1149 9.20787 15.2001 9.08068C15.5476 8.51187 15.7372 7.86073 15.7494 7.19431C15.7615 6.52788 15.5959 5.87025 15.2694 5.28913C14.9429 4.70801 14.4675 4.22441 13.892 3.88811C13.3165 3.55181 12.6618 3.37498 11.9953 3.37582C11.3287 3.37666 10.6745 3.55514 10.0998 3.89289C9.52519 4.23063 9.05096 4.71543 8.72597 5.29737C8.40097 5.87931 8.23696 6.53736 8.25081 7.20375C8.26467 7.87015 8.45589 8.52081 8.80479 9.08874C8.88739 9.21563 8.92965 9.36454 8.92604 9.51591C8.92243 9.66727 8.8731 9.814 8.78454 9.9368C8.69598 10.0596 8.57234 10.1527 8.42986 10.204C8.28738 10.2552 8.13274 10.2621 7.98626 10.2238C7.33792 10.0708 6.66052 10.0933 6.02373 10.2888C5.38694 10.4844 4.81373 10.8461 4.36304 11.3366C3.91235 11.8272 3.60044 12.4289 3.4594 13.0799C3.31835 13.731 3.35325 14.4079 3.5605 15.0409C3.76776 15.674 4.1399 16.2405 4.63865 16.6821C5.1374 17.1237 5.74476 17.4245 6.39829 17.5535C7.05182 17.6826 7.72793 17.6352 8.3571 17.4164C8.98627 17.1975 9.54579 16.815 9.97814 16.3082C10.0904 16.1768 10.2445 16.0882 10.4145 16.0573C10.5845 16.0265 10.76 16.0553 10.9113 16.1389C11.0625 16.2224 11.1802 16.3557 11.2446 16.5161C11.3089 16.6764 11.3159 16.8541 11.2643 17.019L10.0202 20.9996Z" fill="#1D1F21" style="fill: var(--ui-icon-primary-color);"/>
</svg>
