<svg  viewBox="0 0 24 24" fill="none" xmlns="http://www.w3.org/2000/svg" id="__THIS_ID_NEEDS_FOR_UI_ICON_COMPONENT__">
<path d="M6.48015 8.82554L2.67155 11.9994L6.48015 15.1733C6.55599 15.2363 6.61866 15.3136 6.66459 15.4008C6.71051 15.4881 6.73878 15.5835 6.74779 15.6817C6.75679 15.7799 6.74635 15.8789 6.71705 15.973C6.68776 16.0671 6.64019 16.1546 6.57707 16.2303C6.51395 16.3061 6.43652 16.3686 6.3492 16.4144C6.26189 16.4602 6.1664 16.4883 6.0682 16.4971C5.97001 16.506 5.87103 16.4954 5.77694 16.4659C5.68285 16.4365 5.59549 16.3888 5.51985 16.3255L1.01985 12.5755C0.935391 12.5052 0.867438 12.4171 0.820805 12.3175C0.774172 12.2179 0.75 12.1093 0.75 11.9994C0.75 11.8895 0.774172 11.7809 0.820805 11.6813C0.867438 11.5817 0.935391 11.4936 1.01985 11.4233L5.51985 7.67326C5.59549 7.61002 5.68285 7.56231 5.77694 7.53286C5.87103 7.50342 5.97001 7.49281 6.0682 7.50166C6.1664 7.5105 6.26189 7.53862 6.3492 7.5844C6.43652 7.63018 6.51395 7.69273 6.57707 7.76847C6.64019 7.84421 6.68776 7.93165 6.71705 8.02579C6.74635 8.11993 6.75679 8.21892 6.74779 8.3171C6.73878 8.41528 6.71051 8.51073 6.66459 8.59797C6.61866 8.68521 6.55599 8.76254 6.48015 8.82554V8.82554ZM22.9801 11.4233L18.4801 7.67326C18.4045 7.61002 18.3171 7.56231 18.2231 7.53287C18.129 7.50342 18.03 7.49282 17.9318 7.50166C17.8336 7.5105 17.7381 7.53862 17.6508 7.5844C17.5635 7.63019 17.486 7.69274 17.4229 7.76847C17.3598 7.84421 17.3122 7.93165 17.2829 8.02579C17.2537 8.11993 17.2432 8.21893 17.2522 8.31711C17.2612 8.41529 17.2895 8.51073 17.3354 8.59797C17.3813 8.68521 17.444 8.76255 17.5198 8.82554L21.3284 11.9994L17.5198 15.1733C17.444 15.2363 17.3813 15.3136 17.3354 15.4008C17.2895 15.4881 17.2612 15.5835 17.2522 15.6817C17.2432 15.7799 17.2537 15.8789 17.2829 15.973C17.3122 16.0671 17.3598 16.1546 17.4229 16.2303C17.486 16.3061 17.5635 16.3686 17.6508 16.4144C17.7381 16.4602 17.8336 16.4883 17.9318 16.4971C18.03 16.506 18.129 16.4954 18.2231 16.4659C18.3171 16.4365 18.4045 16.3888 18.4801 16.3255L22.9801 12.5755C23.0646 12.5052 23.1326 12.4171 23.1792 12.3175C23.2258 12.2179 23.25 12.1093 23.25 11.9994C23.25 11.8895 23.2258 11.7809 23.1792 11.6813C23.1326 11.5817 23.0646 11.4936 22.9801 11.4233V11.4233ZM15.2563 3.04454C15.0694 2.97669 14.8631 2.98581 14.6829 3.06991C14.5027 3.15401 14.3632 3.3062 14.2951 3.49306L8.29514 19.9931C8.26138 20.0856 8.2462 20.184 8.25047 20.2824C8.25473 20.3809 8.27836 20.4775 8.31999 20.5668C8.36163 20.6562 8.42046 20.7364 8.49311 20.803C8.56577 20.8695 8.65084 20.9211 8.74345 20.9548C8.83606 20.9885 8.9344 21.0036 9.03285 20.9993C9.1313 20.9949 9.22793 20.9712 9.31721 20.9295C9.4065 20.8878 9.48669 20.8289 9.55321 20.7562C9.61972 20.6835 9.67125 20.5984 9.70486 20.5058L15.7049 4.00575C15.7728 3.81881 15.7638 3.61251 15.6796 3.43225C15.5955 3.25199 15.4432 3.11252 15.2563 3.04454V3.04454Z" fill="#1D1F21" style="fill: var(--ui-icon-primary-color);"/>
</svg>
