<svg  viewBox="0 0 24 24" fill="none" xmlns="http://www.w3.org/2000/svg" id="__THIS_ID_NEEDS_FOR_UI_ICON_COMPONENT__">
<path d="M8.74828 6.5606L2.62889 12L8.74828 17.4394C8.89695 17.5716 8.98704 17.7574 8.99872 17.956C9.01041 18.1545 8.94273 18.3496 8.81058 18.4983C8.67843 18.647 8.49263 18.7371 8.29406 18.7487C8.09548 18.7604 7.9004 18.6927 7.75173 18.5606L1.00173 12.5606C0.922565 12.4902 0.859207 12.4039 0.815819 12.3073C0.772432 12.2107 0.75 12.1059 0.75 12C0.75 11.8941 0.772432 11.7894 0.815819 11.6928C0.859207 11.5961 0.922565 11.5098 1.00173 11.4394L7.75173 5.43944C7.9004 5.30729 8.09548 5.23961 8.29406 5.2513C8.49263 5.26298 8.67843 5.35307 8.81058 5.50175C8.94273 5.65042 9.01041 5.8455 8.99872 6.04408C8.98704 6.24265 8.89695 6.42845 8.74828 6.5606V6.5606ZM22.9983 11.4394L16.2483 5.43944C16.0996 5.30729 15.9045 5.23961 15.7059 5.2513C15.5074 5.26298 15.3216 5.35307 15.1894 5.50174C15.0573 5.65042 14.9896 5.8455 15.0013 6.04407C15.013 6.24265 15.1031 6.42845 15.2517 6.5606L21.3711 12L15.2517 17.4394C15.1781 17.5049 15.1181 17.5842 15.0751 17.6728C15.0322 17.7614 15.0071 17.8576 15.0013 17.956C14.9955 18.0543 15.0091 18.1528 15.0414 18.2458C15.0737 18.3389 15.124 18.4247 15.1894 18.4983C15.2549 18.5719 15.3342 18.6319 15.4228 18.6749C15.5114 18.7179 15.6076 18.743 15.7059 18.7487C15.8043 18.7545 15.9028 18.7409 15.9958 18.7086C16.0889 18.6763 16.1747 18.626 16.2483 18.5606L22.9983 12.5606C23.0774 12.4902 23.1408 12.4039 23.1842 12.3073C23.2276 12.2107 23.25 12.1059 23.25 12C23.25 11.8941 23.2276 11.7894 23.1842 11.6928C23.1408 11.5961 23.0774 11.5098 22.9983 11.4394V11.4394Z" fill="#1D1F21" style="fill: var(--ui-icon-primary-color);"/>
</svg>
