<svg  viewBox="0 0 24 24" fill="none" xmlns="http://www.w3.org/2000/svg" id="__THIS_ID_NEEDS_FOR_UI_ICON_COMPONENT__">
<path d="M7.5 5.25V2.25C7.5 2.05109 7.57902 1.86032 7.71967 1.71967C7.86032 1.57902 8.05109 1.5 8.25 1.5C8.44891 1.5 8.63968 1.57902 8.78033 1.71967C8.92098 1.86032 9 2.05109 9 2.25V5.25C9 5.44891 8.92098 5.63968 8.78033 5.78033C8.63968 5.92098 8.44891 6 8.25 6C8.05109 6 7.86032 5.92098 7.71967 5.78033C7.57902 5.63968 7.5 5.44891 7.5 5.25ZM11.25 6C11.3485 6 11.446 5.98061 11.537 5.94292C11.628 5.90523 11.7107 5.84998 11.7803 5.78034C11.85 5.71069 11.9052 5.62801 11.9429 5.53702C11.9806 5.44602 12 5.34849 12 5.25V2.25C12 2.05109 11.921 1.86032 11.7803 1.71967C11.6397 1.57902 11.4489 1.5 11.25 1.5C11.0511 1.5 10.8603 1.57902 10.7197 1.71967C10.579 1.86032 10.5 2.05109 10.5 2.25V5.25C10.5 5.34849 10.5194 5.44602 10.5571 5.53702C10.5948 5.62801 10.65 5.71069 10.7197 5.78034C10.7893 5.84998 10.872 5.90523 10.963 5.94292C11.054 5.98061 11.1515 6 11.25 6ZM14.25 6C14.3485 6 14.446 5.98061 14.537 5.94292C14.628 5.90523 14.7107 5.84998 14.7803 5.78034C14.85 5.71069 14.9052 5.62801 14.9429 5.53702C14.9806 5.44602 15 5.34849 15 5.25V2.25C15 2.05109 14.921 1.86032 14.7803 1.71967C14.6397 1.57902 14.4489 1.5 14.25 1.5C14.0511 1.5 13.8603 1.57902 13.7197 1.71967C13.579 1.86032 13.5 2.05109 13.5 2.25V5.25C13.5 5.34849 13.5194 5.44602 13.5571 5.53702C13.5948 5.62801 13.65 5.71069 13.7197 5.78034C13.7893 5.84998 13.872 5.90523 13.963 5.94292C14.054 5.98061 14.1515 6 14.25 6ZM23.25 11.25V12C23.2488 12.9537 22.8847 13.8712 22.2316 14.5662C21.5785 15.2611 20.6854 15.6815 19.7336 15.742C19.221 17.1891 18.3491 18.4822 17.1997 19.5H19.5C19.6989 19.5 19.8897 19.579 20.0303 19.7197C20.171 19.8603 20.25 20.0511 20.25 20.25C20.25 20.4489 20.171 20.6397 20.0303 20.7803C19.8897 20.921 19.6989 21 19.5 21H14.702C14.6984 21 14.6949 21.0005 14.6914 21.0005C14.6887 21.0005 14.6861 21 14.6835 21H7.79617C7.79187 20.9999 7.78766 21.0001 7.7834 21H3C2.80109 21 2.61032 20.921 2.46967 20.7803C2.32902 20.6397 2.25 20.4489 2.25 20.25C2.25 20.0511 2.32902 19.8603 2.46967 19.7197C2.61032 19.579 2.80109 19.5 3 19.5H5.30026C4.34351 18.6545 3.57695 17.6157 3.05116 16.4522C2.52537 15.2886 2.25231 14.0268 2.25 12.75V8.25C2.25 8.15151 2.26939 8.05398 2.30708 7.96298C2.34477 7.87199 2.40002 7.78931 2.46966 7.71966C2.53931 7.65002 2.62199 7.59477 2.71298 7.55708C2.80398 7.51939 2.90151 7.5 3 7.5H19.5C20.4942 7.50112 21.4474 7.89657 22.1504 8.59959C22.8534 9.30261 23.2489 10.2558 23.25 11.25ZM18.75 9H3.75V12.75C3.75282 14.1581 4.15068 15.5372 4.89833 16.7305C5.64598 17.9237 6.71343 18.8833 7.97932 19.5H14.5207C15.4667 19.0389 16.3055 18.3847 16.9831 17.5795C17.6607 16.7743 18.162 15.836 18.4546 14.8251C18.4594 14.805 18.4648 14.785 18.4712 14.7656C18.6558 14.1096 18.7496 13.4314 18.75 12.75V9ZM21.75 11.25C21.7494 10.7849 21.6049 10.3314 21.3364 9.95161C21.0678 9.57187 20.6883 9.28453 20.25 9.129V12.75C20.2496 13.2214 20.2119 13.6921 20.1372 14.1575C20.6025 14.0195 21.0108 13.735 21.3014 13.3462C21.592 12.9575 21.7493 12.4853 21.75 12V11.25Z" fill="#1D1F21" style="fill: var(--ui-icon-primary-color);"/>
</svg>
