<svg  viewBox="0 0 24 24" fill="none" xmlns="http://www.w3.org/2000/svg" id="__THIS_ID_NEEDS_FOR_UI_ICON_COMPONENT__">
<path d="M16.875 13.5H15V10.5H16.875C17.5425 10.5 18.195 10.3021 18.7501 9.93121C19.3051 9.56036 19.7376 9.03326 19.9931 8.41656C20.2485 7.79986 20.3154 7.12126 20.1852 6.46657C20.0549 5.81189 19.7335 5.21052 19.2615 4.73852C18.7895 4.26651 18.1881 3.94508 17.5334 3.81485C16.8787 3.68463 16.2001 3.75146 15.5834 4.00691C14.9667 4.26235 14.4396 4.69494 14.0688 5.24995C13.6979 5.80497 13.5 6.45749 13.5 7.125V9H10.5V7.125C10.5 6.45749 10.3021 5.80497 9.93121 5.24995C9.56036 4.69494 9.03326 4.26235 8.41656 4.00691C7.79986 3.75146 7.12126 3.68463 6.46657 3.81485C5.81189 3.94508 5.21052 4.26651 4.73852 4.73852C4.26651 5.21052 3.94508 5.81189 3.81485 6.46657C3.68463 7.12126 3.75146 7.79986 4.00691 8.41656C4.26235 9.03326 4.69494 9.56036 5.24995 9.93121C5.80497 10.3021 6.45749 10.5 7.125 10.5H9V13.5H7.125C6.45749 13.5 5.80497 13.6979 5.24995 14.0688C4.69494 14.4396 4.26235 14.9667 4.00691 15.5834C3.75146 16.2001 3.68463 16.8787 3.81485 17.5334C3.94508 18.1881 4.26651 18.7895 4.73852 19.2615C5.21052 19.7335 5.81189 20.0549 6.46657 20.1852C7.12126 20.3154 7.79986 20.2485 8.41656 19.9931C9.03326 19.7376 9.56036 19.3051 9.93121 18.7501C10.3021 18.195 10.5 17.5425 10.5 16.875V15H13.5V16.875C13.5 17.5425 13.6979 18.195 14.0688 18.7501C14.4396 19.3051 14.9667 19.7376 15.5834 19.9931C16.2001 20.2485 16.8787 20.3154 17.5334 20.1852C18.1881 20.0549 18.7895 19.7335 19.2615 19.2615C19.7335 18.7895 20.0549 18.1881 20.1852 17.5334C20.3154 16.8787 20.2485 16.2001 19.9931 15.5834C19.7376 14.9667 19.3051 14.4396 18.7501 14.0688C18.195 13.6979 17.5425 13.5 16.875 13.5ZM15 7.125C15 6.75416 15.11 6.39165 15.316 6.08331C15.522 5.77497 15.8149 5.53464 16.1575 5.39273C16.5001 5.25081 16.8771 5.21368 17.2408 5.28603C17.6045 5.35838 17.9386 5.53695 18.2008 5.79918C18.4631 6.0614 18.6416 6.39549 18.714 6.75921C18.7863 7.12292 18.7492 7.49992 18.6073 7.84253C18.4654 8.18514 18.225 8.47798 17.9167 8.68401C17.6084 8.89004 17.2458 9 16.875 9H15V7.125ZM5.25 7.125C5.25 6.62772 5.44755 6.15081 5.79918 5.79918C6.15081 5.44755 6.62772 5.25 7.125 5.25C7.62228 5.25 8.0992 5.44755 8.45083 5.79918C8.80246 6.15081 9 6.62772 9 7.125V9H7.125C6.6279 8.99943 6.15131 8.80171 5.7998 8.4502C5.4483 8.09869 5.25057 7.62211 5.25 7.125ZM9 16.875C9 17.2458 8.89004 17.6084 8.68401 17.9167C8.47798 18.225 8.18514 18.4654 7.84253 18.6073C7.49992 18.7492 7.12292 18.7863 6.75921 18.714C6.39549 18.6416 6.0614 18.4631 5.79918 18.2008C5.53695 17.9386 5.35838 17.6045 5.28603 17.2408C5.21368 16.8771 5.25081 16.5001 5.39273 16.1575C5.53464 15.8149 5.77497 15.522 6.08331 15.316C6.39165 15.11 6.75416 15 7.125 15H9V16.875ZM10.5 10.5H13.5V13.5H10.5V10.5ZM16.875 18.75C16.3779 18.7494 15.9013 18.5517 15.5498 18.2002C15.1983 17.8487 15.0006 17.3721 15 16.875V15H16.875C17.3723 15 17.8492 15.1975 18.2008 15.5492C18.5525 15.9008 18.75 16.3777 18.75 16.875C18.75 17.3723 18.5525 17.8492 18.2008 18.2008C17.8492 18.5525 17.3723 18.75 16.875 18.75Z" fill="#1D1F21" style="fill: var(--ui-icon-primary-color);"/>
</svg>
