<svg  viewBox="0 0 24 24" fill="none" xmlns="http://www.w3.org/2000/svg" id="__THIS_ID_NEEDS_FOR_UI_ICON_COMPONENT__">
<path d="M12.0001 2.25C10.0718 2.25 8.1867 2.82183 6.58332 3.89317C4.97994 4.96451 3.73026 6.48726 2.9923 8.26884C2.25435 10.0504 2.06126 12.0108 2.43747 13.9021C2.81368 15.7934 3.74227 17.5307 5.10584 18.8943C6.4694 20.2579 8.20668 21.1865 10.098 21.5627C11.9893 21.9389 13.9497 21.7458 15.7313 21.0078C17.5129 20.2699 19.0356 19.0202 20.107 17.4168C21.1783 15.8134 21.7501 13.9284 21.7501 12C21.7472 9.41504 20.719 6.93679 18.8912 5.10894C17.0633 3.28109 14.5851 2.25293 12.0001 2.25ZM12.0001 20.25C10.3684 20.25 8.77338 19.7661 7.41667 18.8596C6.05997 17.9531 5.00254 16.6646 4.37812 15.1571C3.7537 13.6496 3.59032 11.9908 3.90865 10.3905C4.22698 8.79016 5.01271 7.32015 6.1665 6.16637C7.32028 5.01259 8.79029 4.22685 10.3906 3.90852C11.991 3.59019 13.6498 3.75357 15.1573 4.37799C16.6648 5.00242 17.9532 6.05984 18.8598 7.41655C19.7663 8.77325 20.2501 10.3683 20.2501 12C20.2477 14.1873 19.3777 16.2843 17.831 17.8309C16.2844 19.3775 14.1874 20.2475 12.0001 20.25ZM15.9141 7.08243L10.0982 9.72629C9.92803 9.80365 9.79286 9.94175 9.71918 10.1136L7.33277 15.6821C7.2737 15.8198 7.25728 15.9722 7.28562 16.1194C7.31397 16.2666 7.38577 16.4019 7.49177 16.5079C7.59778 16.6139 7.73311 16.6857 7.88031 16.714C8.02752 16.7423 8.17983 16.7259 8.3176 16.6668L13.886 14.2803C14.0584 14.2065 14.1968 14.0708 14.274 13.8999L16.9079 8.07413C16.9707 7.93512 16.9897 7.78027 16.9622 7.63021C16.9348 7.48016 16.8622 7.34204 16.7543 7.23429C16.6463 7.12654 16.508 7.05428 16.3579 7.02715C16.2078 7.00001 16.053 7.0193 15.9141 7.08243H15.9141ZM13.0273 13.0164L9.4501 14.5496L10.9834 10.9715L14.7196 9.2731L13.0273 13.0164Z" fill="#1D1F21" style="fill: var(--ui-icon-primary-color);"/>
</svg>
