<svg  viewBox="0 0 24 24" fill="none" xmlns="http://www.w3.org/2000/svg" id="__THIS_ID_NEEDS_FOR_UI_ICON_COMPONENT__">
<path d="M11.9999 2.25C10.0716 2.25 8.18651 2.82183 6.58313 3.89317C4.97975 4.96451 3.73007 6.48726 2.99212 8.26884C2.25416 10.0504 2.06108 12.0108 2.43729 13.9021C2.81349 15.7934 3.74209 17.5307 5.10565 18.8943C6.46921 20.2579 8.2065 21.1865 10.0978 21.5627C11.9891 21.9389 13.9495 21.7458 15.7311 21.0078C17.5127 20.2699 19.0354 19.0202 20.1068 17.4168C21.1781 15.8134 21.7499 13.9284 21.7499 12C21.747 9.41504 20.7188 6.93679 18.891 5.10894C17.0632 3.28109 14.5849 2.25293 11.9999 2.25ZM11.9999 20.25C10.3682 20.25 8.77319 19.7661 7.41649 18.8596C6.05978 17.9531 5.00236 16.6646 4.37794 15.1571C3.75351 13.6496 3.59014 11.9908 3.90846 10.3905C4.22679 8.79016 5.01253 7.32015 6.16631 6.16637C7.3201 5.01259 8.7901 4.22685 10.3904 3.90852C11.9908 3.59019 13.6496 3.75357 15.1571 4.37799C16.6646 5.00242 17.953 6.05984 18.8596 7.41655C19.7661 8.77325 20.2499 10.3683 20.2499 12C20.2475 14.1873 19.3775 16.2843 17.8308 17.8309C16.2842 19.3775 14.1872 20.2475 11.9999 20.25ZM9.00022 11.9995C9.00025 12.6292 9.1984 13.2429 9.56658 13.7537C9.93477 14.2645 10.4543 14.6465 11.0517 14.8456C11.649 15.0447 12.2939 15.0508 12.8949 14.8631C13.4959 14.6754 14.0226 14.3033 14.4005 13.7996C14.5202 13.6413 14.6978 13.537 14.8944 13.5095C15.0909 13.482 15.2903 13.5334 15.449 13.6527C15.6076 13.7719 15.7126 13.9491 15.7408 14.1455C15.769 14.342 15.7183 14.5416 15.5996 14.7007C15.0328 15.456 14.2427 16.0138 13.3412 16.2951C12.4398 16.5765 11.4726 16.5671 10.5768 16.2683C9.68096 15.9696 8.90182 15.3965 8.34972 14.6304C7.79761 13.8643 7.50052 12.9439 7.50052 11.9995C7.50052 11.0552 7.79761 10.1348 8.34972 9.36863C8.90182 8.6025 9.68096 8.02947 10.5768 7.7307C11.4726 7.43192 12.4398 7.42255 13.3412 7.70391C14.2427 7.98526 15.0328 8.54308 15.5996 9.29837C15.7182 9.45744 15.769 9.65705 15.7408 9.85347C15.7125 10.0499 15.6076 10.2271 15.4489 10.3463C15.2903 10.4655 15.0909 10.517 14.8944 10.4895C14.6978 10.462 14.5202 10.3577 14.4005 10.1995C14.0226 9.69577 13.4959 9.32371 12.8949 9.13598C12.2939 8.94825 11.649 8.95438 11.0517 9.15349C10.4543 9.35261 9.93476 9.73461 9.56658 10.2454C9.1984 10.7562 9.00026 11.3699 9.00022 11.9995Z" fill="#1D1F21" style="fill: var(--ui-icon-primary-color);"/>
</svg>
