<svg  viewBox="0 0 24 24" fill="none" xmlns="http://www.w3.org/2000/svg" id="__THIS_ID_NEEDS_FOR_UI_ICON_COMPONENT__">
<path d="M20.2505 3.00049H8.2502C8.05129 3.0005 7.86052 3.07952 7.71987 3.22017C7.57922 3.36083 7.50019 3.55159 7.50018 3.75051V7.5007H3.74999C3.55107 7.50071 3.36031 7.57973 3.21966 7.72039C3.079 7.86104 2.99998 8.05181 2.99997 8.25072V20.251C2.99998 20.45 3.079 20.6407 3.21966 20.7814C3.36031 20.922 3.55107 21.0011 3.74999 21.0011H15.7503C15.9492 21.0011 16.14 20.922 16.2806 20.7814C16.4213 20.6407 16.5003 20.45 16.5003 20.251V16.5008H20.2505C20.4494 16.5008 20.6402 16.4218 20.7809 16.2812C20.9215 16.1405 21.0005 15.9497 21.0005 15.7508V3.75051C21.0005 3.55159 20.9215 3.36083 20.7809 3.22017C20.6402 3.07952 20.4494 3.0005 20.2505 3.00049ZM15.0003 19.501H4.50001V9.00074H15.0003V19.501ZM19.5005 15.0008H16.5003V8.25072C16.5003 8.05181 16.4213 7.86104 16.2806 7.72039C16.14 7.57973 15.9492 7.50071 15.7503 7.5007H9.00022V4.50053H19.5005V15.0008Z" fill="#1D1F21" style="fill: var(--ui-icon-primary-color);"/>
</svg>
