<svg  viewBox="0 0 24 24" fill="none" xmlns="http://www.w3.org/2000/svg" id="__THIS_ID_NEEDS_FOR_UI_ICON_COMPONENT__">
<path d="M23.2508 18.7506C23.2508 18.9495 23.1718 19.1403 23.0312 19.2809C22.8905 19.4216 22.6997 19.5006 22.5008 19.5006H19.5007V22.5007C19.5007 22.6996 19.4217 22.8904 19.2811 23.031C19.1404 23.1717 18.9496 23.2507 18.7507 23.2507C18.5518 23.2507 18.361 23.1717 18.2204 23.031C18.0797 22.8904 18.0007 22.6996 18.0007 22.5007V19.5006H5.25036C5.05145 19.5006 4.86068 19.4216 4.72003 19.2809C4.57938 19.1403 4.50035 18.9495 4.50034 18.7506V6.00014H1.50026C1.30135 6.00014 1.11058 5.92112 0.96992 5.78046C0.829264 5.63981 0.750244 5.44904 0.750244 5.25012C0.750244 5.0512 0.829264 4.86043 0.96992 4.71978C1.11058 4.57912 1.30135 4.5001 1.50026 4.5001H4.50034V1.50002C4.50034 1.3011 4.57936 1.11033 4.72002 0.969676C4.86068 0.82902 5.05145 0.75 5.25036 0.75C5.44928 0.75 5.64005 0.82902 5.78071 0.969676C5.92136 1.11033 6.00038 1.3011 6.00038 1.50002V18.0006H22.5008C22.6997 18.0006 22.8905 18.0796 23.0312 18.2202C23.1718 18.3609 23.2508 18.5517 23.2508 18.7506ZM8.24962 6.00014H18.0007V15.7505C18.0007 15.9494 18.0797 16.1402 18.2204 16.2808C18.361 16.4215 18.5518 16.5005 18.7507 16.5005C18.9496 16.5005 19.1404 16.4215 19.2811 16.2808C19.4217 16.1402 19.5007 15.9494 19.5007 15.7505V5.25012C19.5007 5.0512 19.4217 4.86043 19.2811 4.71978C19.1404 4.57912 18.9496 4.5001 18.7507 4.5001H8.24962C8.0507 4.5001 7.85993 4.57912 7.71928 4.71978C7.57862 4.86043 7.4996 5.0512 7.4996 5.25012C7.4996 5.44904 7.57862 5.63981 7.71928 5.78046C7.85993 5.92112 8.0507 6.00014 8.24962 6.00014Z" fill="#1D1F21" style="fill: var(--ui-icon-primary-color);"/>
</svg>
