<svg  viewBox="0 0 24 24" fill="none" xmlns="http://www.w3.org/2000/svg" id="__THIS_ID_NEEDS_FOR_UI_ICON_COMPONENT__">
<path d="M22.125 11.25H20.9685C20.7884 9.13069 19.8646 7.14335 18.3606 5.63937C16.8567 4.13539 14.8693 3.21166 12.75 3.03152V1.875C12.75 1.67609 12.671 1.48532 12.5303 1.34467C12.3897 1.20402 12.1989 1.125 12 1.125C11.8011 1.125 11.6103 1.20402 11.4697 1.34467C11.329 1.48532 11.25 1.67609 11.25 1.875V3.03152C9.13069 3.21166 7.14335 4.13539 5.63936 5.63937C4.13538 7.14335 3.21165 9.13069 3.03149 11.25H1.875C1.67609 11.25 1.48532 11.329 1.34467 11.4697C1.20402 11.6103 1.125 11.8011 1.125 12C1.125 12.1989 1.20402 12.3897 1.34467 12.5303C1.48532 12.671 1.67609 12.75 1.875 12.75H3.03149C3.21165 14.8693 4.13538 16.8567 5.63936 18.3606C7.14335 19.8646 9.13069 20.7883 11.25 20.9685V22.125C11.25 22.3239 11.329 22.5147 11.4697 22.6553C11.6103 22.796 11.8011 22.875 12 22.875C12.1989 22.875 12.3897 22.796 12.5303 22.6553C12.671 22.5147 12.75 22.3239 12.75 22.125V20.9685C14.8693 20.7883 16.8567 19.8646 18.3606 18.3606C19.8646 16.8567 20.7884 14.8693 20.9685 12.75H22.125C22.3239 12.75 22.5147 12.671 22.6553 12.5303C22.796 12.3897 22.875 12.1989 22.875 12C22.875 11.8011 22.796 11.6103 22.6553 11.4697C22.5147 11.329 22.3239 11.25 22.125 11.25ZM12.75 19.4624V18.375C12.75 18.1761 12.671 17.9853 12.5303 17.8447C12.3897 17.704 12.1989 17.625 12 17.625C11.8011 17.625 11.6103 17.704 11.4697 17.8447C11.329 17.9853 11.25 18.1761 11.25 18.375V19.4624C9.52954 19.287 7.92227 18.5234 6.69942 17.3006C5.47656 16.0777 4.713 14.4705 4.53758 12.75H5.625C5.82391 12.75 6.01468 12.671 6.15533 12.5303C6.29598 12.3897 6.375 12.1989 6.375 12C6.375 11.8011 6.29598 11.6103 6.15533 11.4697C6.01468 11.329 5.82391 11.25 5.625 11.25H4.53758C4.713 9.52954 5.47656 7.92227 6.69942 6.69942C7.92227 5.47656 9.52954 4.713 11.25 4.53758V5.625C11.25 5.82391 11.329 6.01468 11.4697 6.15533C11.6103 6.29598 11.8011 6.375 12 6.375C12.1989 6.375 12.3897 6.29598 12.5303 6.15533C12.671 6.01468 12.75 5.82391 12.75 5.625V4.53758C14.4705 4.713 16.0777 5.47656 17.3006 6.69942C18.5234 7.92227 19.287 9.52954 19.4624 11.25H18.375C18.1761 11.25 17.9853 11.329 17.8447 11.4697C17.704 11.6103 17.625 11.8011 17.625 12C17.625 12.1989 17.704 12.3897 17.8447 12.5303C17.9853 12.671 18.1761 12.75 18.375 12.75H19.4624C19.287 14.4705 18.5234 16.0777 17.3006 17.3006C16.0777 18.5234 14.4705 19.287 12.75 19.4624ZM12 8.25C11.2583 8.25 10.5333 8.46993 9.91661 8.88199C9.29993 9.29404 8.81928 9.87971 8.53545 10.5649C8.25162 11.2502 8.17736 12.0042 8.32205 12.7316C8.46675 13.459 8.8239 14.1272 9.34835 14.6517C9.8728 15.1761 10.541 15.5333 11.2684 15.6779C11.9958 15.8226 12.7498 15.7484 13.4351 15.4645C14.1203 15.1807 14.706 14.7001 15.118 14.0834C15.5301 13.4667 15.75 12.7417 15.75 12C15.7489 11.0058 15.3534 10.0526 14.6504 9.3496C13.9474 8.64658 12.9942 8.25113 12 8.25ZM12 14.25C11.555 14.25 11.12 14.118 10.75 13.8708C10.38 13.6236 10.0916 13.2722 9.92127 12.861C9.75097 12.4499 9.70642 11.9975 9.79323 11.561C9.88005 11.1246 10.0943 10.7237 10.409 10.409C10.7237 10.0943 11.1246 9.88005 11.561 9.79323C11.9975 9.70642 12.4499 9.75097 12.861 9.92127C13.2722 10.0916 13.6236 10.38 13.8708 10.75C14.118 11.12 14.25 11.555 14.25 12C14.2493 12.5965 14.012 13.1684 13.5902 13.5902C13.1684 14.012 12.5965 14.2493 12 14.25Z" fill="#1D1F21" style="fill: var(--ui-icon-primary-color);"/>
</svg>
