<svg  viewBox="0 0 24 24" fill="none" xmlns="http://www.w3.org/2000/svg" id="__THIS_ID_NEEDS_FOR_UI_ICON_COMPONENT__">
<path d="M21.182 6.82917C21.179 6.82351 21.1766 6.81768 21.1734 6.81207C21.1706 6.80722 21.1673 6.80287 21.1644 6.79811C21.031 6.57282 20.8409 6.38638 20.6131 6.25735L12.7381 1.80626C12.5127 1.67974 12.2585 1.61328 12 1.61328C11.7415 1.61328 11.4873 1.67974 11.2619 1.80626L3.38686 6.25737C3.15477 6.38871 2.96192 6.57958 2.8282 6.81031C2.82673 6.8128 2.82504 6.81502 2.82367 6.81754C2.8212 6.82196 2.81936 6.82656 2.81698 6.831C2.69139 7.05462 2.62529 7.30673 2.625 7.56321V16.438C2.62524 16.7036 2.69589 16.9644 2.82973 17.1938C2.96357 17.4232 3.15582 17.613 3.38691 17.7439L11.2619 22.1949C11.4714 22.3127 11.7061 22.3783 11.9464 22.3863C11.9616 22.3874 11.9767 22.3889 11.9923 22.3891C11.9949 22.3891 11.9975 22.3891 12.0002 22.3891C12.0209 22.3891 12.0414 22.3877 12.0617 22.386C12.2991 22.3769 12.531 22.3114 12.7381 22.1949L20.6131 17.7438C20.8442 17.613 21.0364 17.4231 21.1703 17.1938C21.3041 16.9644 21.3748 16.7036 21.375 16.438V7.56321C21.3747 7.30602 21.3083 7.05323 21.182 6.82917ZM12 3.11213L19.1075 7.12941L12.0953 11.1391L4.90585 7.12186L12 3.11213ZM4.125 8.40383L11.345 12.4381L11.262 20.472L4.125 16.438V8.40383ZM12.7622 20.4583L12.845 12.4383L19.875 8.41843V16.438L12.7622 20.4583Z" fill="#1D1F21" style="fill: var(--ui-icon-primary-color);"/>
</svg>
