<svg  viewBox="0 0 24 24" fill="none" xmlns="http://www.w3.org/2000/svg" id="__THIS_ID_NEEDS_FOR_UI_ICON_COMPONENT__">
<path d="M18 19.5C18 19.6989 17.921 19.8897 17.7803 20.0303C17.6397 20.171 17.4489 20.25 17.25 20.25H5.25C5.05109 20.25 4.86032 20.171 4.71967 20.0303C4.57902 19.8897 4.5 19.6989 4.5 19.5C4.5 19.3011 4.57902 19.1103 4.71967 18.9697C4.86032 18.829 5.05109 18.75 5.25 18.75C5.94595 18.7492 6.61318 18.4724 7.10529 17.9803C7.59741 17.4882 7.87422 16.821 7.875 16.125V13.125H5.25C5.05109 13.125 4.86032 13.046 4.71967 12.9053C4.57902 12.7647 4.5 12.5739 4.5 12.375C4.5 12.1761 4.57902 11.9853 4.71967 11.8447C4.86032 11.704 5.05109 11.625 5.25 11.625H7.875V7.875C7.875 6.91081 8.16092 5.96828 8.69659 5.1666C9.23226 4.36491 9.99363 3.74007 10.8844 3.37109C11.7752 3.00211 12.7554 2.90557 13.7011 3.09367C14.6467 3.28178 15.5154 3.74607 16.1971 4.42785C16.3378 4.56852 16.4168 4.75929 16.4168 4.95821C16.4168 5.15712 16.3378 5.34789 16.1971 5.48854C16.0564 5.62919 15.8657 5.7082 15.6667 5.70819C15.4678 5.70819 15.2771 5.62916 15.1364 5.4885C14.6644 5.0165 14.063 4.69507 13.4084 4.56485C12.7537 4.43463 12.0751 4.50147 11.4584 4.75692C10.8417 5.01236 10.3146 5.44495 9.94377 5.99996C9.57293 6.55497 9.37499 7.20749 9.375 7.875V11.625H12.75C12.9489 11.625 13.1397 11.704 13.2803 11.8447C13.421 11.9853 13.5 12.1761 13.5 12.375C13.5 12.5739 13.421 12.7647 13.2803 12.9053C13.1397 13.046 12.9489 13.125 12.75 13.125H9.375V16.125C9.37592 17.0835 9.04146 18.0122 8.42958 18.75H17.25C17.4489 18.75 17.6397 18.829 17.7803 18.9697C17.921 19.1103 18 19.3011 18 19.5Z" fill="#1D1F21" style="fill: var(--ui-icon-primary-color);"/>
</svg>
