<svg  viewBox="0 0 24 24" fill="none" xmlns="http://www.w3.org/2000/svg" id="__THIS_ID_NEEDS_FOR_UI_ICON_COMPONENT__">
<path d="M19.5002 7.5C19.5002 7.69891 19.4212 7.88967 19.2805 8.03032C19.1399 8.17097 18.9491 8.24999 18.7502 8.25H15.7363C15.7445 8.3741 15.7502 8.49886 15.7502 8.625C15.7485 10.1163 15.1553 11.5461 14.1008 12.6006C13.0463 13.6551 11.6165 14.2483 10.1252 14.25H8.69012L15.5048 20.445C15.6519 20.5788 15.74 20.7656 15.7494 20.9643C15.7589 21.163 15.689 21.3574 15.5552 21.5045C15.4214 21.6517 15.2346 21.7397 15.0359 21.7492C14.8372 21.7587 14.6429 21.6888 14.4957 21.555L6.24566 14.055C6.13365 13.9532 6.05508 13.8198 6.02028 13.6725C5.98547 13.5252 5.99606 13.3708 6.05065 13.2296C6.10524 13.0884 6.20128 12.967 6.32613 12.8814C6.45099 12.7958 6.59883 12.75 6.75021 12.75H10.1252C11.2188 12.7488 12.2673 12.3138 13.0407 11.5405C13.814 10.7671 14.249 9.71864 14.2502 8.625C14.2502 8.49852 14.2436 8.3736 14.2324 8.25H6.75021C6.5513 8.25 6.36053 8.17098 6.21988 8.03033C6.07923 7.88968 6.00021 7.69891 6.00021 7.5C6.00021 7.30109 6.07923 7.11032 6.21988 6.96967C6.36053 6.82902 6.5513 6.75 6.75021 6.75H13.7976C13.4518 6.07331 12.926 5.50518 12.278 5.10818C11.6301 4.71119 10.8851 4.50073 10.1252 4.5H6.75021C6.5513 4.5 6.36053 4.42098 6.21988 4.28033C6.07923 4.13968 6.00021 3.94891 6.00021 3.75C6.00021 3.55109 6.07923 3.36032 6.21988 3.21967C6.36053 3.07902 6.5513 3 6.75021 3H18.7502C18.9491 3 19.1399 3.07902 19.2805 3.21967C19.4212 3.36032 19.5002 3.55109 19.5002 3.75C19.5002 3.94891 19.4212 4.13968 19.2805 4.28033C19.1399 4.42098 18.9491 4.5 18.7502 4.5H13.9441C14.6132 5.11909 15.1223 5.89113 15.4277 6.75H18.7502C18.9491 6.75001 19.1399 6.82903 19.2805 6.96968C19.4212 7.11033 19.5002 7.30109 19.5002 7.5Z" fill="#1D1F21" style="fill: var(--ui-icon-primary-color);"/>
</svg>
