<svg  viewBox="0 0 24 24" fill="none" xmlns="http://www.w3.org/2000/svg" id="__THIS_ID_NEEDS_FOR_UI_ICON_COMPONENT__">
<path d="M19.3305 4.9757L13.5827 12.0008H16.5C16.699 12.0008 16.8897 12.0798 17.0304 12.2204C17.171 12.3611 17.25 12.5519 17.25 12.7508C17.25 12.9497 17.171 13.1404 17.0304 13.2811C16.8897 13.4218 16.699 13.5008 16.5 13.5008H12.75V15.0008H16.5C16.699 15.0008 16.8897 15.0798 17.0304 15.2204C17.171 15.3611 17.25 15.5519 17.25 15.7508C17.25 15.9497 17.171 16.1404 17.0304 16.2811C16.8897 16.4218 16.699 16.5008 16.5 16.5008H12.75V20.2508C12.75 20.4497 12.671 20.6404 12.5304 20.7811C12.3897 20.9218 12.199 21.0008 12 21.0008C11.8011 21.0008 11.6104 20.9218 11.4697 20.7811C11.3291 20.6404 11.25 20.4497 11.25 20.2508V16.5008H7.50004C7.30113 16.5008 7.11037 16.4218 6.96971 16.2811C6.82906 16.1404 6.75004 15.9497 6.75004 15.7508C6.75004 15.5519 6.82906 15.3611 6.96971 15.2204C7.11037 15.0798 7.30113 15.0008 7.50004 15.0008H11.25V13.5008H7.50004C7.30113 13.5008 7.11037 13.4218 6.96971 13.2811C6.82906 13.1404 6.75004 12.9497 6.75004 12.7508C6.75004 12.5519 6.82906 12.3611 6.96971 12.2204C7.11037 12.0798 7.30113 12.0008 7.50004 12.0008H10.4174L4.6696 4.9757C4.60717 4.89948 4.56037 4.81171 4.53187 4.7174C4.50338 4.62309 4.49374 4.52409 4.50352 4.42605C4.51329 4.32802 4.54229 4.23287 4.58885 4.14604C4.63541 4.05922 4.69862 3.98242 4.77487 3.92003C4.85112 3.85764 4.93892 3.81088 5.03324 3.78243C5.12757 3.75399 5.22657 3.7444 5.3246 3.75423C5.42263 3.76405 5.51777 3.7931 5.60457 3.8397C5.69137 3.88631 5.76814 3.94956 5.83049 4.02584L12 11.5664L18.1696 4.02584C18.2319 3.94956 18.3087 3.88631 18.3955 3.8397C18.4823 3.7931 18.5775 3.76405 18.6755 3.75423C18.7735 3.7444 18.8725 3.75399 18.9668 3.78243C19.0612 3.81088 19.149 3.85764 19.2252 3.92003C19.3015 3.98242 19.3647 4.05922 19.4112 4.14604C19.4578 4.23287 19.4868 4.32802 19.4966 4.42605C19.5063 4.52409 19.4967 4.62309 19.4682 4.7174C19.4397 4.81171 19.3929 4.89948 19.3305 4.9757Z" fill="#1D1F21" style="fill: var(--ui-icon-primary-color);"/>
</svg>
