<svg  viewBox="0 0 24 24" fill="none" xmlns="http://www.w3.org/2000/svg" id="__THIS_ID_NEEDS_FOR_UI_ICON_COMPONENT__">
<path d="M13.875 14.25C15.3668 14.25 16.7976 13.6574 17.8525 12.6025C18.9074 11.5476 19.5 10.1168 19.5 8.625C19.5 7.13316 18.9074 5.70242 17.8525 4.64752C16.7976 3.59263 15.3668 3 13.875 3H8.25C8.05109 3.00001 7.86033 3.07903 7.71968 3.21968C7.57903 3.36033 7.50001 3.55109 7.5 3.75V12.75H5.25C5.05109 12.75 4.86032 12.829 4.71967 12.9697C4.57902 13.1103 4.5 13.3011 4.5 13.5C4.5 13.6989 4.57902 13.8897 4.71967 14.0303C4.86032 14.171 5.05109 14.25 5.25 14.25H7.5V15.75H5.25C5.05109 15.75 4.86032 15.829 4.71967 15.9697C4.57902 16.1103 4.5 16.3011 4.5 16.5C4.5 16.6989 4.57902 16.8897 4.71967 17.0303C4.86032 17.171 5.05109 17.25 5.25 17.25H7.5V20.25C7.5 20.4489 7.57902 20.6397 7.71967 20.7803C7.86032 20.921 8.05109 21 8.25 21C8.44891 21 8.63968 20.921 8.78033 20.7803C8.92098 20.6397 9 20.4489 9 20.25V17.25H13.5C13.6989 17.25 13.8897 17.171 14.0303 17.0303C14.171 16.8897 14.25 16.6989 14.25 16.5C14.25 16.3011 14.171 16.1103 14.0303 15.9697C13.8897 15.829 13.6989 15.75 13.5 15.75H9V14.25H13.875ZM9 4.5H13.875C14.969 4.5 16.0182 4.9346 16.7918 5.70818C17.5654 6.48177 18 7.53098 18 8.625C18 9.71902 17.5654 10.7682 16.7918 11.5418C16.0182 12.3154 14.969 12.75 13.875 12.75H9V4.5Z" fill="#1D1F21" style="fill: var(--ui-icon-primary-color);"/>
</svg>
