<svg  viewBox="0 0 24 24" fill="none" xmlns="http://www.w3.org/2000/svg" id="__THIS_ID_NEEDS_FOR_UI_ICON_COMPONENT__">
<path d="M11.9999 2.25C10.0716 2.25 8.18651 2.82183 6.58313 3.89317C4.97975 4.96451 3.73007 6.48726 2.99212 8.26884C2.25416 10.0504 2.06108 12.0108 2.43729 13.9021C2.81349 15.7934 3.74209 17.5307 5.10565 18.8943C6.46921 20.2579 8.2065 21.1865 10.0978 21.5627C11.9891 21.9389 13.9495 21.7458 15.7311 21.0078C17.5127 20.2699 19.0354 19.0202 20.1068 17.4168C21.1781 15.8134 21.7499 13.9284 21.7499 12C21.747 9.41504 20.7188 6.93679 18.891 5.10894C17.0632 3.28109 14.5849 2.25293 11.9999 2.25ZM11.9999 20.25C10.3682 20.25 8.77319 19.7661 7.41649 18.8596C6.05978 17.9531 5.00236 16.6646 4.37794 15.1571C3.75351 13.6496 3.59014 11.9908 3.90846 10.3905C4.22679 8.79016 5.01253 7.32015 6.16631 6.16637C7.3201 5.01259 8.7901 4.22685 10.3904 3.90852C11.9908 3.59019 13.6496 3.75357 15.1571 4.37799C16.6646 5.00242 17.953 6.05984 18.8596 7.41655C19.7661 8.77325 20.2499 10.3683 20.2499 12C20.2475 14.1873 19.3775 16.2843 17.8308 17.8309C16.2842 19.3775 14.1872 20.2475 11.9999 20.25ZM15.7499 13.875C15.7492 14.571 15.4724 15.2382 14.9802 15.7303C14.4881 16.2224 13.8209 16.4992 13.1249 16.5H12.7499V17.25C12.7499 17.4489 12.6709 17.6397 12.5303 17.7803C12.3896 17.921 12.1989 18 11.9999 18C11.801 18 11.6103 17.921 11.4696 17.7803C11.329 17.6397 11.2499 17.4489 11.2499 17.25V16.5H9.74994C9.55103 16.5 9.36027 16.421 9.21961 16.2803C9.07896 16.1397 8.99994 15.9489 8.99994 15.75C8.99994 15.5511 9.07896 15.3603 9.21961 15.2197C9.36027 15.079 9.55103 15 9.74994 15H13.1249C13.4233 15 13.7095 14.8815 13.9204 14.6705C14.1314 14.4595 14.2499 14.1734 14.2499 13.875C14.2499 13.5766 14.1314 13.2905 13.9204 13.0795C13.7095 12.8685 13.4233 12.75 13.1249 12.75H10.8749C10.1788 12.75 9.51107 12.4734 9.01879 11.9812C8.5265 11.4889 8.24994 10.8212 8.24994 10.125C8.24994 9.42881 8.5265 8.76113 9.01879 8.26884C9.51107 7.77656 10.1788 7.5 10.8749 7.5H11.2499V6.75C11.2499 6.55109 11.329 6.36032 11.4696 6.21967C11.6103 6.07902 11.801 6 11.9999 6C12.1989 6 12.3896 6.07902 12.5303 6.21967C12.6709 6.36032 12.7499 6.55109 12.7499 6.75V7.5H14.2499C14.4489 7.5 14.6396 7.57902 14.7803 7.71967C14.9209 7.86032 14.9999 8.05109 14.9999 8.25C14.9999 8.44891 14.9209 8.63968 14.7803 8.78033C14.6396 8.92098 14.4489 9 14.2499 9H10.8749C10.5766 9 10.2904 9.11853 10.0794 9.3295C9.86847 9.54048 9.74994 9.82663 9.74994 10.125C9.74994 10.4234 9.86847 10.7095 10.0794 10.9205C10.2904 11.1315 10.5766 11.25 10.8749 11.25H13.1249C13.8209 11.2508 14.4881 11.5276 14.9802 12.0197C15.4724 12.5118 15.7492 13.179 15.7499 13.875Z" fill="#1D1F21" style="fill: var(--ui-icon-primary-color);"/>
</svg>
