<svg  viewBox="0 0 24 24" fill="none" xmlns="http://www.w3.org/2000/svg" id="__THIS_ID_NEEDS_FOR_UI_ICON_COMPONENT__">
<path d="M19.5 3.75H4.5C3.90347 3.75068 3.33157 3.98795 2.90976 4.40976C2.48795 4.83157 2.25068 5.40347 2.25 6V16.5C2.25068 17.0965 2.48795 17.6684 2.90976 18.0902C3.33157 18.512 3.90347 18.7493 4.5 18.75H11.25V20.25H9C8.80109 20.25 8.61032 20.329 8.46967 20.4697C8.32902 20.6103 8.25 20.8011 8.25 21C8.25 21.1989 8.32902 21.3897 8.46967 21.5303C8.61032 21.671 8.80109 21.75 9 21.75H15C15.1989 21.75 15.3897 21.671 15.5303 21.5303C15.671 21.3897 15.75 21.1989 15.75 21C15.75 20.8011 15.671 20.6103 15.5303 20.4697C15.3897 20.329 15.1989 20.25 15 20.25H12.75V18.75H19.5C20.0965 18.7493 20.6684 18.512 21.0902 18.0902C21.512 17.6684 21.7493 17.0965 21.75 16.5V6C21.7493 5.40347 21.512 4.83157 21.0902 4.40976C20.6684 3.98795 20.0965 3.75068 19.5 3.75ZM4.5 5.25H19.5C19.6988 5.25023 19.8895 5.32932 20.0301 5.46992C20.1707 5.61052 20.2498 5.80116 20.25 6V13.5H3.75V6C3.75023 5.80116 3.82932 5.61052 3.96992 5.46992C4.11052 5.32932 4.30116 5.25023 4.5 5.25ZM19.5 17.25H4.5C4.30116 17.2498 4.11052 17.1707 3.96992 17.0301C3.82932 16.8895 3.75023 16.6988 3.75 16.5V15H20.25V16.5C20.2498 16.6988 20.1707 16.8895 20.0301 17.0301C19.8895 17.1707 19.6988 17.2498 19.5 17.25Z" fill="#1D1F21" style="fill: var(--ui-icon-primary-color);"/>
</svg>
