<svg  viewBox="0 0 24 24" fill="none" xmlns="http://www.w3.org/2000/svg" id="__THIS_ID_NEEDS_FOR_UI_ICON_COMPONENT__">
<path d="M2.25 9V15.75C2.25023 15.9488 2.32932 16.1395 2.46992 16.2801C2.61052 16.4207 2.80116 16.4998 3 16.5H10.5C10.6989 16.5 10.8897 16.579 11.0303 16.7197C11.171 16.8603 11.25 17.0511 11.25 17.25C11.25 17.4489 11.171 17.6397 11.0303 17.7803C10.8897 17.921 10.6989 18 10.5 18H9V19.5H10.5C10.6989 19.5 10.8897 19.579 11.0303 19.7197C11.171 19.8603 11.25 20.0511 11.25 20.25C11.25 20.4489 11.171 20.6397 11.0303 20.7803C10.8897 20.921 10.6989 21 10.5 21H6C5.80109 21 5.61032 20.921 5.46967 20.7803C5.32902 20.6397 5.25 20.4489 5.25 20.25C5.25 20.0511 5.32902 19.8603 5.46967 19.7197C5.61032 19.579 5.80109 19.5 6 19.5H7.5V18H3C2.40347 17.9993 1.83157 17.762 1.40976 17.3402C0.987954 16.9184 0.750682 16.3465 0.75 15.75V9C0.750682 8.40347 0.987954 7.83157 1.40976 7.40976C1.83157 6.98795 2.40347 6.75068 3 6.75H10.5C10.6989 6.75 10.8897 6.82902 11.0303 6.96967C11.171 7.11032 11.25 7.30109 11.25 7.5C11.25 7.69891 11.171 7.88968 11.0303 8.03033C10.8897 8.17098 10.6989 8.25 10.5 8.25H3C2.80116 8.25023 2.61052 8.32932 2.46992 8.46992C2.32932 8.61052 2.25023 8.80116 2.25 9ZM19.5 6H16.5C16.3011 6 16.1103 6.07902 15.9697 6.21967C15.829 6.36032 15.75 6.55109 15.75 6.75C15.75 6.94891 15.829 7.13968 15.9697 7.28033C16.1103 7.42098 16.3011 7.5 16.5 7.5H19.5C19.6989 7.5 19.8897 7.42098 20.0303 7.28033C20.171 7.13968 20.25 6.94891 20.25 6.75C20.25 6.55109 20.171 6.36032 20.0303 6.21967C19.8897 6.07902 19.6989 6 19.5 6ZM19.5 9H16.5C16.3011 9 16.1103 9.07902 15.9697 9.21967C15.829 9.36032 15.75 9.55109 15.75 9.75C15.75 9.94891 15.829 10.1397 15.9697 10.2803C16.1103 10.421 16.3011 10.5 16.5 10.5H19.5C19.6989 10.5 19.8897 10.421 20.0303 10.2803C20.171 10.1397 20.25 9.94891 20.25 9.75C20.25 9.55109 20.171 9.36032 20.0303 9.21967C19.8897 9.07902 19.6989 9 19.5 9ZM23.25 4.5V19.5C23.2495 19.8977 23.0914 20.279 22.8102 20.5602C22.529 20.8414 22.1477 20.9995 21.75 21H14.25C13.8523 20.9995 13.471 20.8414 13.1898 20.5602C12.9086 20.279 12.7505 19.8977 12.75 19.5V4.5C12.7505 4.10231 12.9086 3.72105 13.1898 3.43984C13.471 3.15864 13.8523 3.00045 14.25 3H21.75C22.1477 3.00045 22.529 3.15864 22.8102 3.43984C23.0914 3.72105 23.2495 4.10231 23.25 4.5ZM21.7509 19.5L21.75 4.5H14.25V19.5H21.75L21.7509 19.5ZM18 15.75C17.7775 15.75 17.56 15.816 17.375 15.9396C17.19 16.0632 17.0458 16.2389 16.9606 16.4445C16.8755 16.65 16.8532 16.8762 16.8966 17.0945C16.94 17.3127 17.0472 17.5132 17.2045 17.6705C17.3618 17.8278 17.5623 17.935 17.7805 17.9784C17.9988 18.0218 18.225 17.9995 18.4305 17.9144C18.6361 17.8292 18.8118 17.685 18.9354 17.5C19.059 17.315 19.125 17.0975 19.125 16.875C19.1247 16.5767 19.006 16.2908 18.7951 16.0799C18.5842 15.869 18.2983 15.7503 18 15.75Z" fill="#1D1F21" style="fill: var(--ui-icon-primary-color);"/>
</svg>
