<svg  viewBox="0 0 24 24" fill="none" xmlns="http://www.w3.org/2000/svg" id="__THIS_ID_NEEDS_FOR_UI_ICON_COMPONENT__">
<path d="M16.5 1.5H7.5C6.90347 1.50068 6.33157 1.73795 5.90976 2.15976C5.48795 2.58157 5.25068 3.15347 5.25 3.75V20.25C5.25068 20.8465 5.48795 21.4184 5.90976 21.8402C6.33157 22.262 6.90347 22.4993 7.5 22.5H16.5C17.0965 22.4993 17.6684 22.262 18.0902 21.8402C18.512 21.4184 18.7493 20.8465 18.75 20.25V3.75C18.7493 3.15347 18.512 2.58157 18.0902 2.15976C17.6684 1.73795 17.0965 1.50068 16.5 1.5ZM17.25 20.25C17.2498 20.4488 17.1707 20.6395 17.0301 20.7801C16.8895 20.9207 16.6988 20.9998 16.5 21H7.5C7.30116 20.9998 7.11052 20.9207 6.96992 20.7801C6.82932 20.6395 6.75023 20.4488 6.75 20.25V3.75C6.75023 3.55116 6.82932 3.36052 6.96992 3.21992C7.11052 3.07932 7.30116 3.00023 7.5 3H16.5C16.6988 3.00023 16.8895 3.07932 17.0301 3.21992C17.1707 3.36052 17.2498 3.55116 17.25 3.75V20.25ZM13.125 5.625C13.125 5.8475 13.059 6.06501 12.9354 6.25002C12.8118 6.43502 12.6361 6.57922 12.4305 6.66436C12.225 6.74951 11.9988 6.77179 11.7805 6.72838C11.5623 6.68498 11.3618 6.57783 11.2045 6.4205C11.0472 6.26316 10.94 6.06271 10.8966 5.84448C10.8532 5.62625 10.8755 5.40005 10.9606 5.19448C11.0458 4.98891 11.19 4.81321 11.375 4.6896C11.56 4.56598 11.7775 4.5 12 4.5C12.2983 4.50033 12.5842 4.61896 12.7951 4.82986C13.006 5.04077 13.1247 5.32673 13.125 5.625Z" fill="#1D1F21" style="fill: var(--ui-icon-primary-color);"/>
</svg>
