<svg  viewBox="0 0 24 24" fill="none" xmlns="http://www.w3.org/2000/svg" id="__THIS_ID_NEEDS_FOR_UI_ICON_COMPONENT__">
<path d="M18 2.25H6C5.40347 2.25068 4.83157 2.48795 4.40976 2.90976C3.98795 3.33157 3.75068 3.90347 3.75 4.5V19.5C3.75068 20.0965 3.98795 20.6684 4.40976 21.0902C4.83157 21.512 5.40347 21.7493 6 21.75H18C18.5965 21.7493 19.1684 21.512 19.5902 21.0902C20.012 20.6684 20.2493 20.0965 20.25 19.5V4.5C20.2493 3.90347 20.012 3.33157 19.5902 2.90976C19.1684 2.48795 18.5965 2.25068 18 2.25ZM18.75 19.5C18.7498 19.6988 18.6707 19.8895 18.5301 20.0301C18.3895 20.1707 18.1988 20.2498 18 20.25H6C5.80116 20.2498 5.61052 20.1707 5.46992 20.0301C5.32932 19.8895 5.25023 19.6988 5.25 19.5V4.5C5.25023 4.30116 5.32932 4.11052 5.46992 3.96992C5.61052 3.82932 5.80116 3.75023 6 3.75H18C18.1988 3.75023 18.3895 3.82932 18.5301 3.96992C18.6707 4.11052 18.7498 4.30116 18.75 4.5V19.5ZM13.125 6.375C13.125 6.5975 13.059 6.81501 12.9354 7.00002C12.8118 7.18502 12.6361 7.32922 12.4305 7.41436C12.225 7.49951 11.9988 7.52179 11.7805 7.47838C11.5623 7.43498 11.3618 7.32783 11.2045 7.1705C11.0472 7.01316 10.94 6.81271 10.8966 6.59448C10.8532 6.37625 10.8755 6.15005 10.9606 5.94448C11.0458 5.73891 11.19 5.56321 11.375 5.4396C11.56 5.31598 11.7775 5.25 12 5.25C12.2983 5.25033 12.5842 5.36896 12.7951 5.57986C13.006 5.79077 13.1247 6.07673 13.125 6.375Z" fill="#1D1F21" style="fill: var(--ui-icon-primary-color);"/>
</svg>
