<svg  viewBox="0 0 24 24" fill="none" xmlns="http://www.w3.org/2000/svg" id="__THIS_ID_NEEDS_FOR_UI_ICON_COMPONENT__">
<path d="M18 3H6C5.20463 3.0009 4.44209 3.31726 3.87968 3.87968C3.31726 4.44209 3.0009 5.20463 3 6V18C3.0009 18.7954 3.31726 19.5579 3.87968 20.1203C4.44209 20.6827 5.20463 20.9991 6 21H18C18.7954 20.9991 19.5579 20.6827 20.1203 20.1203C20.6827 19.5579 20.9991 18.7954 21 18V6C20.9991 5.20463 20.6827 4.44209 20.1203 3.87968C19.5579 3.31726 18.7954 3.0009 18 3ZM19.5 18C19.4995 18.3977 19.3414 18.779 19.0602 19.0602C18.779 19.3414 18.3977 19.4995 18 19.5H6C5.60231 19.4995 5.22105 19.3414 4.93984 19.0602C4.65864 18.779 4.50045 18.3977 4.5 18V6C4.50045 5.60231 4.65864 5.22105 4.93984 4.93984C5.22105 4.65864 5.60231 4.50045 6 4.5H18C18.3977 4.50045 18.779 4.65864 19.0602 4.93984C19.3414 5.22105 19.4995 5.60231 19.5 6V18ZM10.5 9.375C10.5 9.5975 10.434 9.81501 10.3104 10C10.1868 10.185 10.0111 10.3292 9.80552 10.4144C9.59995 10.4995 9.37375 10.5218 9.15552 10.4784C8.93729 10.435 8.73684 10.3278 8.5795 10.1705C8.42217 10.0132 8.31502 9.81271 8.27162 9.59448C8.22821 9.37625 8.25049 9.15005 8.33564 8.94448C8.42078 8.73891 8.56498 8.56321 8.74998 8.4396C8.93499 8.31598 9.1525 8.25 9.375 8.25C9.67327 8.25033 9.95922 8.36897 10.1701 8.57987C10.381 8.79078 10.4997 9.07673 10.5 9.375ZM15.75 9.375C15.75 9.5975 15.684 9.81501 15.5604 10C15.4368 10.185 15.2611 10.3292 15.0555 10.4144C14.85 10.4995 14.6238 10.5218 14.4055 10.4784C14.1873 10.435 13.9868 10.3278 13.8295 10.1705C13.6722 10.0132 13.565 9.81271 13.5216 9.59448C13.4782 9.37625 13.5005 9.15005 13.5856 8.94448C13.6708 8.73891 13.815 8.56321 14 8.4396C14.185 8.31598 14.4025 8.25 14.625 8.25C14.9233 8.25033 15.2092 8.36897 15.4201 8.57987C15.631 8.79078 15.7497 9.07673 15.75 9.375ZM10.5 14.625C10.5 14.8475 10.434 15.065 10.3104 15.25C10.1868 15.435 10.0111 15.5792 9.80552 15.6644C9.59995 15.7495 9.37375 15.7718 9.15552 15.7284C8.93729 15.685 8.73684 15.5778 8.5795 15.4205C8.42217 15.2632 8.31502 15.0627 8.27162 14.8445C8.22821 14.6262 8.25049 14.4 8.33564 14.1945C8.42078 13.9889 8.56498 13.8132 8.74998 13.6896C8.93499 13.566 9.1525 13.5 9.375 13.5C9.67327 13.5003 9.95922 13.619 10.1701 13.8299C10.381 14.0408 10.4997 14.3267 10.5 14.625ZM15.75 14.625C15.75 14.8475 15.684 15.065 15.5604 15.25C15.4368 15.435 15.2611 15.5792 15.0555 15.6644C14.85 15.7495 14.6238 15.7718 14.4055 15.7284C14.1873 15.685 13.9868 15.5778 13.8295 15.4205C13.6722 15.2632 13.565 15.0627 13.5216 14.8445C13.4782 14.6262 13.5005 14.4 13.5856 14.1945C13.6708 13.9889 13.815 13.8132 14 13.6896C14.185 13.566 14.4025 13.5 14.625 13.5C14.9233 13.5003 15.2092 13.619 15.4201 13.8299C15.631 14.0408 15.7497 14.3267 15.75 14.625Z" fill="#1D1F21" style="fill: var(--ui-icon-primary-color);"/>
</svg>
