<svg  viewBox="0 0 24 24" fill="none" xmlns="http://www.w3.org/2000/svg" id="__THIS_ID_NEEDS_FOR_UI_ICON_COMPONENT__">
<path d="M18 3H6C5.20463 3.0009 4.44209 3.31726 3.87968 3.87968C3.31726 4.44209 3.0009 5.20463 3 6V18C3.0009 18.7954 3.31726 19.5579 3.87968 20.1203C4.44209 20.6827 5.20463 20.9991 6 21H18C18.7954 20.9991 19.5579 20.6827 20.1203 20.1203C20.6827 19.5579 20.9991 18.7954 21 18V6C20.9991 5.20463 20.6827 4.44209 20.1203 3.87968C19.5579 3.31726 18.7954 3.0009 18 3ZM19.5 18C19.4995 18.3977 19.3414 18.779 19.0602 19.0602C18.779 19.3414 18.3977 19.4995 18 19.5H6C5.60231 19.4995 5.22105 19.3414 4.93984 19.0602C4.65864 18.779 4.50045 18.3977 4.5 18V6C4.50045 5.60231 4.65864 5.22105 4.93984 4.93984C5.22105 4.65864 5.60231 4.50045 6 4.5H18C18.3977 4.50045 18.779 4.65864 19.0602 4.93984C19.3414 5.22105 19.4995 5.60231 19.5 6V18ZM13.125 12C13.125 12.2225 13.059 12.44 12.9354 12.625C12.8118 12.81 12.6361 12.9542 12.4305 13.0394C12.225 13.1245 11.9988 13.1468 11.7805 13.1034C11.5623 13.06 11.3618 12.9528 11.2045 12.7955C11.0472 12.6382 10.94 12.4377 10.8966 12.2195C10.8532 12.0012 10.8755 11.775 10.9606 11.5695C11.0458 11.3639 11.19 11.1882 11.375 11.0646C11.56 10.941 11.7775 10.875 12 10.875C12.2983 10.8753 12.5842 10.994 12.7951 11.2049C13.006 11.4158 13.1247 11.7017 13.125 12Z" fill="#1D1F21" style="fill: var(--ui-icon-primary-color);"/>
</svg>
