<svg  viewBox="0 0 24 24" fill="none" xmlns="http://www.w3.org/2000/svg" id="__THIS_ID_NEEDS_FOR_UI_ICON_COMPONENT__">
<path d="M18 3H6C5.20463 3.0009 4.44209 3.31726 3.87968 3.87968C3.31726 4.44209 3.0009 5.20463 3 6V18C3.0009 18.7954 3.31726 19.5579 3.87968 20.1203C4.44209 20.6827 5.20463 20.9991 6 21H18C18.7954 20.9991 19.5579 20.6827 20.1203 20.1203C20.6827 19.5579 20.9991 18.7954 21 18V6C20.9991 5.20463 20.6827 4.44209 20.1203 3.87968C19.5579 3.31726 18.7954 3.0009 18 3ZM19.5 18C19.4995 18.3977 19.3414 18.779 19.0602 19.0602C18.779 19.3414 18.3977 19.4995 18 19.5H6C5.60231 19.4995 5.22105 19.3414 4.93984 19.0602C4.65864 18.779 4.50045 18.3977 4.5 18V6C4.50045 5.60231 4.65864 5.22105 4.93984 4.93984C5.22105 4.65864 5.60231 4.50045 6 4.5H18C18.3977 4.50045 18.779 4.65864 19.0602 4.93984C19.3414 5.22105 19.4995 5.60231 19.5 6V18ZM9.75 7.875C9.75 8.0975 9.68402 8.31501 9.5604 8.50002C9.43679 8.68502 9.26109 8.82922 9.05552 8.91436C8.84995 8.99951 8.62375 9.02179 8.40552 8.97838C8.18729 8.93498 7.98684 8.82783 7.8295 8.6705C7.67217 8.51316 7.56502 8.31271 7.52162 8.09448C7.47821 7.87625 7.50049 7.65005 7.58564 7.44448C7.67078 7.23891 7.81498 7.06321 7.99998 6.9396C8.18499 6.81598 8.4025 6.75 8.625 6.75C8.92327 6.75033 9.20922 6.86897 9.42013 7.07987C9.63103 7.29078 9.74967 7.57673 9.75 7.875ZM9.75 12C9.75 12.2225 9.68402 12.44 9.5604 12.625C9.43679 12.81 9.26109 12.9542 9.05552 13.0394C8.84995 13.1245 8.62375 13.1468 8.40552 13.1034C8.18729 13.06 7.98684 12.9528 7.8295 12.7955C7.67217 12.6382 7.56502 12.4377 7.52162 12.2195C7.47821 12.0012 7.50049 11.775 7.58564 11.5695C7.67078 11.3639 7.81498 11.1882 7.99998 11.0646C8.18499 10.941 8.4025 10.875 8.625 10.875C8.92327 10.8753 9.20922 10.994 9.42013 11.2049C9.63103 11.4158 9.74967 11.7017 9.75 12ZM9.75 16.125C9.75 16.3475 9.68402 16.565 9.5604 16.75C9.43679 16.935 9.26109 17.0792 9.05552 17.1644C8.84995 17.2495 8.62375 17.2718 8.40552 17.2284C8.18729 17.185 7.98684 17.0778 7.8295 16.9205C7.67217 16.7632 7.56502 16.5627 7.52162 16.3445C7.47821 16.1262 7.50049 15.9 7.58564 15.6945C7.67078 15.4889 7.81498 15.3132 7.99998 15.1896C8.18499 15.066 8.4025 15 8.625 15C8.92327 15.0003 9.20922 15.119 9.42013 15.3299C9.63103 15.5408 9.74967 15.8267 9.75 16.125ZM16.5 7.875C16.5 8.0975 16.434 8.31501 16.3104 8.50002C16.1868 8.68502 16.0111 8.82922 15.8055 8.91436C15.6 8.99951 15.3738 9.02179 15.1555 8.97838C14.9373 8.93498 14.7368 8.82783 14.5795 8.6705C14.4222 8.51316 14.315 8.31271 14.2716 8.09448C14.2282 7.87625 14.2505 7.65005 14.3356 7.44448C14.4208 7.23891 14.565 7.06321 14.75 6.9396C14.935 6.81598 15.1525 6.75 15.375 6.75C15.6733 6.75033 15.9592 6.86897 16.1701 7.07987C16.381 7.29078 16.4997 7.57673 16.5 7.875ZM16.5 12C16.5 12.2225 16.434 12.44 16.3104 12.625C16.1868 12.81 16.0111 12.9542 15.8055 13.0394C15.6 13.1245 15.3738 13.1468 15.1555 13.1034C14.9373 13.06 14.7368 12.9528 14.5795 12.7955C14.4222 12.6382 14.315 12.4377 14.2716 12.2195C14.2282 12.0012 14.2505 11.775 14.3356 11.5695C14.4208 11.3639 14.565 11.1882 14.75 11.0646C14.935 10.941 15.1525 10.875 15.375 10.875C15.6733 10.8753 15.9592 10.994 16.1701 11.2049C16.381 11.4158 16.4997 11.7017 16.5 12ZM16.5 16.125C16.5 16.3475 16.434 16.565 16.3104 16.75C16.1868 16.935 16.0111 17.0792 15.8055 17.1644C15.6 17.2495 15.3738 17.2718 15.1555 17.2284C14.9373 17.185 14.7368 17.0778 14.5795 16.9205C14.4222 16.7632 14.315 16.5627 14.2716 16.3445C14.2282 16.1262 14.2505 15.9 14.3356 15.6945C14.4208 15.4889 14.565 15.3132 14.75 15.1896C14.935 15.066 15.1525 15 15.375 15C15.6733 15.0003 15.9592 15.119 16.1701 15.3299C16.381 15.5408 16.4997 15.8267 16.5 16.125Z" fill="#1D1F21" style="fill: var(--ui-icon-primary-color);"/>
</svg>
