<svg  viewBox="0 0 24 24" fill="none" xmlns="http://www.w3.org/2000/svg" id="__THIS_ID_NEEDS_FOR_UI_ICON_COMPONENT__">
<path d="M18 3H6C5.20463 3.0009 4.44209 3.31726 3.87968 3.87968C3.31726 4.44209 3.0009 5.20463 3 6V18C3.0009 18.7954 3.31726 19.5579 3.87968 20.1203C4.44209 20.6827 5.20463 20.9991 6 21H18C18.7954 20.9991 19.5579 20.6827 20.1203 20.1203C20.6827 19.5579 20.9991 18.7954 21 18V6C20.9991 5.20463 20.6827 4.44209 20.1203 3.87968C19.5579 3.31726 18.7954 3.0009 18 3ZM19.5 18C19.4995 18.3977 19.3414 18.779 19.0602 19.0602C18.779 19.3414 18.3977 19.4995 18 19.5H6C5.60231 19.4995 5.22105 19.3414 4.93984 19.0602C4.65864 18.779 4.50045 18.3977 4.5 18V6C4.50045 5.60231 4.65864 5.22105 4.93984 4.93984C5.22105 4.65864 5.60231 4.50045 6 4.5H18C18.3977 4.50045 18.779 4.65864 19.0602 4.93984C19.3414 5.22105 19.4995 5.60231 19.5 6V18ZM9.75 8.625C9.75 8.8475 9.68402 9.06501 9.5604 9.25002C9.43679 9.43502 9.26109 9.57922 9.05552 9.66436C8.84995 9.74951 8.62375 9.77179 8.40552 9.72838C8.18729 9.68498 7.98684 9.57783 7.8295 9.4205C7.67217 9.26316 7.56502 9.06271 7.52162 8.84448C7.47821 8.62625 7.50049 8.40005 7.58564 8.19448C7.67078 7.98891 7.81498 7.81321 7.99998 7.6896C8.18499 7.56598 8.4025 7.5 8.625 7.5C8.92327 7.50033 9.20922 7.61897 9.42013 7.82987C9.63103 8.04078 9.74967 8.32673 9.75 8.625ZM13.125 12C13.125 12.2225 13.059 12.44 12.9354 12.625C12.8118 12.81 12.6361 12.9542 12.4305 13.0394C12.225 13.1245 11.9988 13.1468 11.7805 13.1034C11.5623 13.06 11.3618 12.9528 11.2045 12.7955C11.0472 12.6382 10.94 12.4377 10.8966 12.2195C10.8532 12.0012 10.8755 11.775 10.9606 11.5695C11.0458 11.3639 11.19 11.1882 11.375 11.0646C11.56 10.941 11.7775 10.875 12 10.875C12.2983 10.8753 12.5842 10.994 12.7951 11.2049C13.006 11.4158 13.1247 11.7017 13.125 12ZM16.5 15.375C16.5 15.5975 16.434 15.815 16.3104 16C16.1868 16.185 16.0111 16.3292 15.8055 16.4144C15.6 16.4995 15.3738 16.5218 15.1555 16.4784C14.9373 16.435 14.7368 16.3278 14.5795 16.1705C14.4222 16.0132 14.315 15.8127 14.2716 15.5945C14.2282 15.3762 14.2505 15.15 14.3356 14.9445C14.4208 14.7389 14.565 14.5632 14.75 14.4396C14.935 14.316 15.1525 14.25 15.375 14.25C15.6733 14.2503 15.9592 14.369 16.1701 14.5799C16.381 14.7908 16.4997 15.0767 16.5 15.375Z" fill="#1D1F21" style="fill: var(--ui-icon-primary-color);"/>
</svg>
