<svg  viewBox="0 0 24 24" fill="none" xmlns="http://www.w3.org/2000/svg" id="__THIS_ID_NEEDS_FOR_UI_ICON_COMPONENT__">
<path d="M18 3H6C5.20463 3.0009 4.44209 3.31726 3.87968 3.87968C3.31726 4.44209 3.0009 5.20463 3 6V18C3.0009 18.7954 3.31726 19.5579 3.87968 20.1203C4.44209 20.6827 5.20463 20.9991 6 21H18C18.7954 20.9991 19.5579 20.6827 20.1203 20.1203C20.6827 19.5579 20.9991 18.7954 21 18V6C20.9991 5.20463 20.6827 4.44209 20.1203 3.87968C19.5579 3.31726 18.7954 3.0009 18 3ZM19.5 18C19.4995 18.3977 19.3414 18.779 19.0602 19.0602C18.779 19.3414 18.3977 19.4995 18 19.5H6C5.60231 19.4995 5.22105 19.3414 4.93984 19.0602C4.65864 18.779 4.50045 18.3977 4.5 18V6C4.50045 5.60231 4.65864 5.22105 4.93984 4.93984C5.22105 4.65864 5.60231 4.50045 6 4.5H18C18.3977 4.50045 18.779 4.65864 19.0602 4.93984C19.3414 5.22105 19.4995 5.60231 19.5 6V18ZM11.25 10.125C11.25 10.3475 11.184 10.565 11.0604 10.75C10.9368 10.935 10.7611 11.0792 10.5555 11.1644C10.35 11.2495 10.1238 11.2718 9.90552 11.2284C9.68729 11.185 9.48684 11.0778 9.3295 10.9205C9.17217 10.7632 9.06502 10.5627 9.02162 10.3445C8.97821 10.1262 9.00049 9.90005 9.08564 9.69448C9.17078 9.48891 9.31498 9.31321 9.49998 9.1896C9.68499 9.06598 9.9025 9 10.125 9C10.4233 9.00033 10.7092 9.11897 10.9201 9.32987C11.131 9.54078 11.2497 9.82673 11.25 10.125ZM15 13.875C15 14.0975 14.934 14.315 14.8104 14.5C14.6868 14.685 14.5111 14.8292 14.3055 14.9144C14.1 14.9995 13.8738 15.0218 13.6555 14.9784C13.4373 14.935 13.2368 14.8278 13.0795 14.6705C12.9222 14.5132 12.815 14.3127 12.7716 14.0945C12.7282 13.8762 12.7505 13.65 12.8356 13.4445C12.9208 13.2389 13.065 13.0632 13.25 12.9396C13.435 12.816 13.6525 12.75 13.875 12.75C14.1733 12.7503 14.4592 12.869 14.6701 13.0799C14.881 13.2908 14.9997 13.5767 15 13.875Z" fill="#1D1F21" style="fill: var(--ui-icon-primary-color);"/>
</svg>
