<svg  viewBox="0 0 24 24" fill="none" xmlns="http://www.w3.org/2000/svg" id="__THIS_ID_NEEDS_FOR_UI_ICON_COMPONENT__">
<path d="M18.9525 5.17128C18.9164 5.12467 18.8746 5.08283 18.828 5.04679C16.9863 3.23817 14.5032 2.23265 11.9219 2.25023C9.34072 2.2678 6.87154 3.30704 5.05463 5.14058C3.23773 6.97411 2.22102 9.45265 2.22695 12.0339C2.23289 14.6152 3.26099 17.089 5.08631 18.9142C6.91163 20.7394 9.38557 21.7672 11.9668 21.7729C14.5481 21.7786 17.0266 20.7617 18.8599 18.9446C20.6933 17.1276 21.7323 14.6583 21.7497 12.0771C21.767 9.49584 20.7613 7.01283 18.9525 5.17128ZM15.6744 11.2493C15.5783 10.7794 15.3924 10.3324 15.127 9.93286L18.3369 6.72297C19.4091 8.00543 20.0645 9.58453 20.2154 11.2493H15.6744ZM14.2499 11.9993C14.2499 12.4443 14.1179 12.8794 13.8707 13.2494C13.6234 13.6194 13.272 13.9078 12.8609 14.0781C12.4498 14.2484 11.9974 14.2929 11.5609 14.2061C11.1245 14.1193 10.7236 13.905 10.4089 13.5903C10.0942 13.2757 9.87992 12.8747 9.79311 12.4383C9.70629 12.0018 9.75085 11.5494 9.92115 11.1383C10.0914 10.7272 10.3798 10.3758 10.7498 10.1285C11.1199 9.88129 11.5549 9.74933 11.9999 9.74933C12.5964 9.75001 13.1683 9.98729 13.5901 10.4091C14.0119 10.8309 14.2492 11.4028 14.2499 11.9993ZM11.9999 20.2493C10.6745 20.2503 9.36834 19.932 8.19205 19.3212C7.01576 18.7104 6.00393 17.8253 5.24222 16.7406C4.48052 15.6559 3.99136 14.4037 3.81615 13.0899C3.64094 11.7762 3.78484 10.4395 4.23566 9.19314C4.68649 7.94677 5.43098 6.82736 6.4061 5.92968C7.38122 5.032 8.55827 4.38247 9.8376 4.03607C11.1169 3.68968 12.4609 3.65662 13.7557 3.93969C15.0505 4.22276 16.2581 4.81363 17.2762 5.66228L14.0663 8.87219C13.3965 8.43009 12.6025 8.21463 11.8011 8.2575C10.9997 8.30036 10.2332 8.5993 9.61438 9.11033C8.99557 9.62135 8.55709 10.3175 8.36346 11.0963C8.16984 11.8752 8.23128 12.6956 8.53875 13.4369C8.84622 14.1782 9.38349 14.8013 10.0715 15.2144C10.7595 15.6276 11.562 15.809 12.3609 15.7321C13.1597 15.6551 13.9128 15.3238 14.5092 14.7868C15.1057 14.2499 15.5141 13.5357 15.6744 12.7493H20.2154C20.0259 14.798 19.0787 16.7023 17.5592 18.0894C16.0397 19.4765 14.0573 20.2468 11.9999 20.2493Z" fill="#1D1F21" style="fill: var(--ui-icon-primary-color);"/>
</svg>
