<svg  viewBox="0 0 24 24" fill="none" xmlns="http://www.w3.org/2000/svg" id="__THIS_ID_NEEDS_FOR_UI_ICON_COMPONENT__">
<path d="M7.125 12C7.125 12.2225 7.05902 12.44 6.9354 12.625C6.81179 12.81 6.63609 12.9542 6.43052 13.0394C6.22495 13.1245 5.99875 13.1468 5.78052 13.1034C5.5623 13.06 5.36184 12.9528 5.20451 12.7955C5.04717 12.6382 4.94003 12.4377 4.89662 12.2195C4.85321 12.0012 4.87549 11.775 4.96064 11.5695C5.04578 11.3639 5.18998 11.1882 5.37498 11.0646C5.55999 10.941 5.7775 10.875 6 10.875C6.29826 10.8753 6.58421 10.994 6.79512 11.2049C7.00602 11.4158 7.12466 11.7017 7.125 12ZM18 10.875C17.7775 10.875 17.56 10.941 17.375 11.0646C17.19 11.1882 17.0458 11.3639 16.9606 11.5695C16.8755 11.775 16.8532 12.0012 16.8966 12.2195C16.94 12.4377 17.0472 12.6382 17.2045 12.7955C17.3618 12.9528 17.5623 13.06 17.7805 13.1034C17.9988 13.1468 18.225 13.1245 18.4305 13.0394C18.6361 12.9542 18.8118 12.81 18.9354 12.625C19.059 12.44 19.125 12.2225 19.125 12C19.1247 11.7017 19.006 11.4158 18.7951 11.2049C18.5842 10.994 18.2983 10.8753 18 10.875ZM12 10.875C11.7775 10.875 11.56 10.941 11.375 11.0646C11.19 11.1882 11.0458 11.3639 10.9606 11.5695C10.8755 11.775 10.8532 12.0012 10.8966 12.2195C10.94 12.4377 11.0472 12.6382 11.2045 12.7955C11.3618 12.9528 11.5623 13.06 11.7805 13.1034C11.9988 13.1468 12.225 13.1245 12.4305 13.0394C12.6361 12.9542 12.8118 12.81 12.9354 12.625C13.059 12.44 13.125 12.2225 13.125 12C13.1247 11.7017 13.006 11.4158 12.7951 11.2049C12.5842 10.994 12.2983 10.8753 12 10.875Z" fill="#1D1F21" style="fill: var(--ui-icon-primary-color);"/>
</svg>
