<svg  viewBox="0 0 24 24" fill="none" xmlns="http://www.w3.org/2000/svg" id="__THIS_ID_NEEDS_FOR_UI_ICON_COMPONENT__">
<path d="M11.9999 2.25C10.0716 2.25 8.18651 2.82183 6.58313 3.89317C4.97975 4.96451 3.73007 6.48726 2.99212 8.26884C2.25416 10.0504 2.06108 12.0108 2.43729 13.9021C2.81349 15.7934 3.74209 17.5307 5.10565 18.8943C6.46921 20.2579 8.2065 21.1865 10.0978 21.5627C11.9891 21.9389 13.9495 21.7458 15.7311 21.0078C17.5127 20.2699 19.0354 19.0202 20.1068 17.4168C21.1781 15.8134 21.7499 13.9284 21.7499 12C21.747 9.41504 20.7188 6.93679 18.891 5.10894C17.0632 3.28109 14.5849 2.25293 11.9999 2.25ZM11.9999 20.25C10.3682 20.25 8.77319 19.7661 7.41649 18.8596C6.05978 17.9531 5.00236 16.6646 4.37794 15.1571C3.75351 13.6496 3.59014 11.9908 3.90846 10.3905C4.22679 8.79016 5.01253 7.32015 6.16631 6.16637C7.3201 5.01259 8.7901 4.22685 10.3904 3.90852C11.9908 3.59019 13.6496 3.75357 15.1571 4.37799C16.6646 5.00242 17.953 6.05984 18.8596 7.41655C19.7661 8.77325 20.2499 10.3683 20.2499 12C20.2475 14.1873 19.3775 16.2843 17.8308 17.8309C16.2842 19.3775 14.1872 20.2475 11.9999 20.25ZM13.1249 12C13.1249 12.2225 13.059 12.44 12.9353 12.625C12.8117 12.81 12.636 12.9542 12.4305 13.0394C12.2249 13.1245 11.9987 13.1468 11.7805 13.1034C11.5622 13.06 11.3618 12.9528 11.2044 12.7955C11.0471 12.6382 10.94 12.4377 10.8966 12.2195C10.8532 12.0012 10.8754 11.775 10.9606 11.5695C11.0457 11.3639 11.1899 11.1882 11.3749 11.0646C11.5599 10.941 11.7774 10.875 11.9999 10.875C12.2982 10.8753 12.5842 10.994 12.7951 11.2049C13.006 11.4158 13.1246 11.7017 13.1249 12ZM17.6249 12C17.6249 12.2225 17.559 12.44 17.4353 12.625C17.3117 12.81 17.136 12.9542 16.9305 13.0394C16.7249 13.1245 16.4987 13.1468 16.2805 13.1034C16.0622 13.06 15.8618 12.9528 15.7044 12.7955C15.5471 12.6382 15.44 12.4377 15.3966 12.2195C15.3532 12.0012 15.3754 11.775 15.4606 11.5695C15.5457 11.3639 15.6899 11.1882 15.8749 11.0646C16.0599 10.941 16.2774 10.875 16.4999 10.875C16.7982 10.8753 17.0842 10.994 17.2951 11.2049C17.506 11.4158 17.6246 11.7017 17.6249 12ZM8.62494 12C8.62494 12.2225 8.55896 12.44 8.43535 12.625C8.31173 12.81 8.13603 12.9542 7.93046 13.0394C7.7249 13.1245 7.49869 13.1468 7.28047 13.1034C7.06224 13.06 6.86178 12.9528 6.70445 12.7955C6.54711 12.6382 6.43997 12.4377 6.39656 12.2195C6.35315 12.0012 6.37543 11.775 6.46058 11.5695C6.54573 11.3639 6.68992 11.1882 6.87493 11.0646C7.05993 10.941 7.27744 10.875 7.49994 10.875C7.79821 10.8753 8.08416 10.994 8.29506 11.2049C8.50597 11.4158 8.6246 11.7017 8.62494 12Z" fill="#1D1F21" style="fill: var(--ui-icon-primary-color);"/>
</svg>
