<svg  viewBox="0 0 24 24" fill="none" xmlns="http://www.w3.org/2000/svg" id="__THIS_ID_NEEDS_FOR_UI_ICON_COMPONENT__">
<path d="M11.9999 2.25C10.0716 2.25 8.18651 2.82183 6.58313 3.89317C4.97975 4.96451 3.73007 6.48726 2.99212 8.26884C2.25416 10.0504 2.06108 12.0108 2.43729 13.9021C2.81349 15.7934 3.74209 17.5307 5.10565 18.8943C6.46921 20.2579 8.2065 21.1865 10.0978 21.5627C11.9891 21.9389 13.9495 21.7458 15.7311 21.0078C17.5127 20.2699 19.0354 19.0202 20.1068 17.4168C21.1781 15.8134 21.7499 13.9284 21.7499 12C21.747 9.41504 20.7188 6.93679 18.891 5.10894C17.0632 3.28109 14.5849 2.25293 11.9999 2.25ZM11.9999 20.25C10.3682 20.25 8.77319 19.7661 7.41649 18.8596C6.05978 17.9531 5.00236 16.6646 4.37794 15.1571C3.75351 13.6496 3.59014 11.9908 3.90846 10.3905C4.22679 8.79016 5.01253 7.32015 6.16631 6.16637C7.3201 5.01259 8.7901 4.22685 10.3904 3.90852C11.9908 3.59019 13.6496 3.75357 15.1571 4.37799C16.6646 5.00242 17.953 6.05984 18.8596 7.41655C19.7661 8.77325 20.2499 10.3683 20.2499 12C20.2475 14.1873 19.3775 16.2843 17.8308 17.8309C16.2842 19.3775 14.1872 20.2475 11.9999 20.25ZM13.1249 12C13.1249 12.2225 13.059 12.44 12.9353 12.625C12.8117 12.81 12.636 12.9542 12.4305 13.0394C12.2249 13.1245 11.9987 13.1468 11.7805 13.1034C11.5622 13.06 11.3618 12.9528 11.2044 12.7955C11.0471 12.6382 10.94 12.4377 10.8966 12.2195C10.8532 12.0012 10.8754 11.775 10.9606 11.5695C11.0457 11.3639 11.1899 11.1882 11.3749 11.0646C11.5599 10.941 11.7774 10.875 11.9999 10.875C12.2982 10.8753 12.5842 10.994 12.7951 11.2049C13.006 11.4158 13.1246 11.7017 13.1249 12ZM13.1249 16.5C13.1249 16.7225 13.059 16.94 12.9353 17.125C12.8117 17.31 12.636 17.4542 12.4305 17.5394C12.2249 17.6245 11.9987 17.6468 11.7805 17.6034C11.5622 17.56 11.3618 17.4528 11.2044 17.2955C11.0471 17.1382 10.94 16.9377 10.8966 16.7195C10.8532 16.5012 10.8754 16.275 10.9606 16.0695C11.0457 15.8639 11.1899 15.6882 11.3749 15.5646C11.5599 15.441 11.7774 15.375 11.9999 15.375C12.2982 15.3753 12.5842 15.494 12.7951 15.7049C13.006 15.9158 13.1246 16.2017 13.1249 16.5ZM13.1249 7.5C13.1249 7.7225 13.059 7.94001 12.9353 8.12502C12.8117 8.31002 12.636 8.45422 12.4305 8.53936C12.2249 8.62451 11.9987 8.64679 11.7805 8.60338C11.5622 8.55998 11.3618 8.45283 11.2044 8.2955C11.0471 8.13816 10.94 7.93771 10.8966 7.71948C10.8532 7.50125 10.8754 7.27505 10.9606 7.06948C11.0457 6.86391 11.1899 6.68821 11.3749 6.5646C11.5599 6.44098 11.7774 6.375 11.9999 6.375C12.2982 6.37534 12.5842 6.49398 12.7951 6.70488C13.006 6.91579 13.1246 7.20174 13.1249 7.5Z" fill="#1D1F21" style="fill: var(--ui-icon-primary-color);"/>
</svg>
