<svg  viewBox="0 0 24 24" fill="none" xmlns="http://www.w3.org/2000/svg" id="__THIS_ID_NEEDS_FOR_UI_ICON_COMPONENT__">
<path d="M13.1249 18C13.1249 18.2225 13.0589 18.44 12.9353 18.625C12.8117 18.81 12.636 18.9542 12.4304 19.0394C12.2248 19.1245 11.9986 19.1468 11.7804 19.1034C11.5622 19.06 11.3617 18.9528 11.2044 18.7955C11.047 18.6382 10.9399 18.4377 10.8965 18.2195C10.8531 18.0012 10.8754 17.775 10.9605 17.5695C11.0457 17.3639 11.1899 17.1882 11.3749 17.0646C11.5599 16.941 11.7774 16.875 11.9999 16.875C12.2981 16.8753 12.5841 16.994 12.795 17.2049C13.0059 17.4158 13.1245 17.7017 13.1249 18ZM11.9999 7.125C12.2224 7.125 12.4399 7.05902 12.6249 6.9354C12.8099 6.81179 12.9541 6.63609 13.0392 6.43052C13.1244 6.22495 13.1467 5.99875 13.1033 5.78052C13.0599 5.5623 12.9527 5.36184 12.7954 5.20451C12.638 5.04717 12.4376 4.94003 12.2194 4.89662C12.0011 4.85321 11.7749 4.87549 11.5694 4.96064C11.3638 5.04578 11.1881 5.18998 11.0645 5.37498C10.9409 5.55999 10.8749 5.7775 10.8749 6C10.8752 6.29826 10.9939 6.58421 11.2048 6.79512C11.4157 7.00602 11.7016 7.12466 11.9999 7.125ZM11.9999 10.875C11.7774 10.875 11.5599 10.941 11.3749 11.0646C11.1899 11.1882 11.0457 11.3639 10.9605 11.5695C10.8754 11.775 10.8531 12.0012 10.8965 12.2195C10.9399 12.4377 11.047 12.6382 11.2044 12.7955C11.3617 12.9528 11.5622 13.06 11.7804 13.1034C11.9986 13.1468 12.2248 13.1245 12.4304 13.0394C12.636 12.9542 12.8117 12.81 12.9353 12.625C13.0589 12.44 13.1249 12.2225 13.1249 12C13.1245 11.7017 13.0059 11.4158 12.795 11.2049C12.5841 10.994 12.2981 10.8753 11.9999 10.875Z" fill="#1D1F21" style="fill: var(--ui-icon-primary-color);"/>
</svg>
