<svg  viewBox="0 0 24 24" fill="none" xmlns="http://www.w3.org/2000/svg" id="__THIS_ID_NEEDS_FOR_UI_ICON_COMPONENT__">
<path d="M22.5 12.75V18.75C22.4995 19.1477 22.3414 19.529 22.0602 19.8102C21.779 20.0914 21.3977 20.2495 21 20.25H3C2.60231 20.2495 2.22105 20.0914 1.93984 19.8102C1.65864 19.529 1.50045 19.1477 1.5 18.75V12.75C1.50045 12.3523 1.65864 11.971 1.93984 11.6898C2.22105 11.4086 2.60231 11.2505 3 11.25H7.5C7.69891 11.25 7.88968 11.329 8.03033 11.4697C8.17098 11.6103 8.25 11.8011 8.25 12C8.25 12.1989 8.17098 12.3897 8.03033 12.5303C7.88968 12.671 7.69891 12.75 7.5 12.75H3V18.75H21V12.75H16.5C16.3011 12.75 16.1103 12.671 15.9697 12.5303C15.829 12.3897 15.75 12.1989 15.75 12C15.75 11.8011 15.829 11.6103 15.9697 11.4697C16.1103 11.329 16.3011 11.25 16.5 11.25H21C21.3977 11.2505 21.779 11.4086 22.0602 11.6898C22.3414 11.971 22.4995 12.3523 22.5 12.75ZM11.4697 12.5304C11.4724 12.5331 11.4754 12.5354 11.4782 12.5381C11.4932 12.5526 11.5084 12.5667 11.5245 12.5799C11.5337 12.5874 11.5434 12.594 11.5529 12.6011C11.563 12.6087 11.573 12.6166 11.5835 12.6236C11.5944 12.6309 11.6056 12.6372 11.6168 12.6439C11.6266 12.6497 11.6363 12.6559 11.6464 12.6614C11.6577 12.6674 11.6693 12.6725 11.6808 12.6779C11.6915 12.6829 11.702 12.6883 11.713 12.6929C11.7241 12.6974 11.7354 12.7011 11.7466 12.7051C11.7584 12.7094 11.7702 12.714 11.7823 12.7176C11.7935 12.721 11.8048 12.7235 11.8161 12.7263C11.8285 12.7295 11.8408 12.733 11.8535 12.7355C11.8666 12.7381 11.8797 12.7396 11.8929 12.7415C11.9039 12.743 11.9148 12.7452 11.926 12.7462C11.9506 12.7487 11.9753 12.75 12 12.75C12.0247 12.75 12.0494 12.7487 12.074 12.7462C12.0852 12.7452 12.0961 12.743 12.1071 12.7415C12.1203 12.7396 12.1334 12.7381 12.1465 12.7355C12.1592 12.733 12.1715 12.7295 12.1839 12.7263C12.1952 12.7235 12.2065 12.721 12.2177 12.7176C12.2298 12.714 12.2416 12.7094 12.2534 12.7051C12.2646 12.7011 12.2759 12.6975 12.287 12.6929C12.298 12.6883 12.3085 12.6829 12.3192 12.6779C12.3307 12.6725 12.3423 12.6674 12.3536 12.6614C12.3637 12.6559 12.3733 12.6498 12.3832 12.6439C12.3944 12.6372 12.4056 12.6309 12.4165 12.6236C12.427 12.6166 12.437 12.6087 12.4471 12.6011C12.4566 12.594 12.4663 12.5874 12.4755 12.5799C12.4916 12.5667 12.5068 12.5526 12.5218 12.5381C12.5245 12.5354 12.5276 12.5331 12.5303 12.5304L17.0303 8.03036C17.171 7.88972 17.25 7.69895 17.25 7.50003C17.25 7.30112 17.171 7.11034 17.0304 6.96968C16.8897 6.82902 16.6989 6.74999 16.5 6.74998C16.3011 6.74997 16.1103 6.82899 15.9697 6.96964L12.75 10.1894V2.25C12.75 2.05109 12.671 1.86032 12.5303 1.71967C12.3897 1.57902 12.1989 1.5 12 1.5C11.8011 1.5 11.6103 1.57902 11.4697 1.71967C11.329 1.86032 11.25 2.05109 11.25 2.25V10.1894L8.03032 6.96964C7.96067 6.89999 7.87799 6.84475 7.78699 6.80706C7.69599 6.76937 7.59846 6.74998 7.49997 6.74998C7.40147 6.74999 7.30395 6.76939 7.21295 6.80709C7.12196 6.84478 7.03928 6.90003 6.96964 6.96968C6.89999 7.03933 6.84475 7.12201 6.80706 7.21301C6.76937 7.30401 6.74998 7.40154 6.74998 7.50003C6.74999 7.59853 6.76939 7.69605 6.80709 7.78705C6.84478 7.87804 6.90003 7.96072 6.96968 8.03036L11.4697 12.5304ZM18.75 15.75C18.75 15.5275 18.684 15.31 18.5604 15.125C18.4368 14.94 18.2611 14.7958 18.0555 14.7106C17.85 14.6255 17.6238 14.6032 17.4055 14.6466C17.1873 14.69 16.9868 14.7972 16.8295 14.9545C16.6722 15.1118 16.565 15.3123 16.5216 15.5305C16.4782 15.7488 16.5005 15.975 16.5856 16.1805C16.6708 16.3861 16.815 16.5618 17 16.6854C17.185 16.809 17.4025 16.875 17.625 16.875C17.9233 16.8747 18.2092 16.756 18.4201 16.5451C18.631 16.3342 18.7497 16.0483 18.75 15.75Z" fill="#1D1F21" style="fill: var(--ui-icon-primary-color);"/>
</svg>
