<svg  viewBox="0 0 24 24" fill="none" xmlns="http://www.w3.org/2000/svg" id="__THIS_ID_NEEDS_FOR_UI_ICON_COMPONENT__">
<path d="M21.7482 12.0611C21.7483 12.0405 21.749 12.0201 21.749 11.9996C21.7492 10.5525 21.4267 9.12361 20.8052 7.81686C20.1836 6.51011 19.2785 5.35838 18.1557 4.44548C18.1385 4.42836 18.1203 4.41179 18.1011 4.39609C18.0798 4.37883 18.0576 4.36274 18.0346 4.34789C16.6037 3.21675 14.8838 2.5104 13.0709 2.30933C11.258 2.10826 9.4251 2.42058 7.7811 3.21067C7.73961 3.22684 7.69965 3.24668 7.66168 3.26995C6.33071 3.93376 5.16862 4.89229 4.26375 6.07268C3.35888 7.25307 2.73506 8.62424 2.43971 10.0819C2.43893 10.0857 2.43774 10.0893 2.43701 10.0931C2.43632 10.0966 2.43614 10.1002 2.43554 10.1038C2.07895 11.9043 2.23814 13.769 2.89477 15.483C3.55141 17.1971 4.67879 18.6908 6.1471 19.7923C6.18477 19.8273 6.22592 19.8584 6.26991 19.885C6.27335 19.8871 6.27696 19.8884 6.28035 19.8904C7.55211 20.8142 9.02865 21.4163 10.5838 21.6453C12.1389 21.8742 13.7263 21.7233 15.2104 21.2052C15.2486 21.195 15.2859 21.1818 15.3221 21.1658C17.1895 20.4861 18.8051 19.253 19.9533 17.631C21.1015 16.0091 21.7275 14.0754 21.7478 12.0883C21.7481 12.0792 21.7483 12.0701 21.7482 12.0611ZM20.2161 11.2663C19.9772 11.2555 19.7379 11.2494 19.4996 11.2494C18.1087 11.2497 16.7238 11.4338 15.381 11.7968C15.053 10.8253 14.6302 9.8885 14.1187 8.99983C15.452 8.19606 16.6588 7.19929 17.7001 6.04195C19.1447 7.42056 20.0389 9.27729 20.2161 11.2663ZM16.5255 5.10595C15.5873 6.13504 14.5035 7.0212 13.3086 7.73624C12.3084 6.32856 11.0851 5.09366 9.68696 4.08029C10.8331 3.74561 12.0382 3.66399 13.219 3.84108C14.3998 4.01818 15.528 4.44976 16.5255 5.10595ZM8.02912 4.7702C9.56269 5.73473 10.8997 6.98098 11.9695 8.44308C10.0978 9.30557 8.06112 9.75131 6.00026 9.74948C5.36452 9.74916 4.7295 9.70685 4.09935 9.62282C4.72659 7.55484 6.13668 5.8136 8.02912 4.7702ZM3.74981 11.9996C3.74994 11.6978 3.76652 11.3963 3.79948 11.0963C4.52865 11.1981 5.26401 11.2493 6.00026 11.2494C8.35287 11.2519 10.6761 10.7266 12.7987 9.71217C13.2667 10.5199 13.6534 11.372 13.9534 12.2559C13.1565 12.5549 12.3854 12.9186 11.6478 13.3433C9.58991 14.5317 7.8255 16.1675 6.48515 18.1299C5.62406 17.3576 4.93541 16.4125 4.4641 15.3563C3.9928 14.3 3.74941 13.1562 3.74981 11.9996ZM7.68736 19.0297C8.90466 17.2297 10.5149 15.7297 12.3967 14.643C13.0262 14.281 13.6828 13.9681 14.3606 13.7073C14.5929 14.7372 14.7103 15.7897 14.7108 16.8455C14.7111 17.8717 14.6012 18.8949 14.383 19.8976C13.2689 20.2339 12.0963 20.3304 10.9422 20.1808C9.78816 20.0312 8.67887 19.6389 7.68736 19.0297ZM16.0361 19.1918C16.1522 18.4151 16.2106 17.6308 16.2108 16.8455C16.2107 15.6312 16.0707 14.4209 15.7934 13.2386C17.0021 12.914 18.2481 12.7495 19.4996 12.7493C19.7369 12.7493 19.9753 12.7552 20.2131 12.767C20.0875 14.0956 19.6419 15.374 18.9145 16.4929C18.187 17.6118 17.1994 18.5378 16.0361 19.1918V19.1918Z" fill="#1D1F21" style="fill: var(--ui-icon-primary-color);"/>
</svg>
