<svg  viewBox="0 0 24 24" fill="none" xmlns="http://www.w3.org/2000/svg" id="__THIS_ID_NEEDS_FOR_UI_ICON_COMPONENT__">
<path d="M19.2089 18.2577C19.2341 18.2203 19.2559 18.1806 19.274 18.1391C19.9161 16.9436 20.2515 15.6074 20.25 14.2503V14.2497C20.2499 11.3063 18.8895 8.18626 16.3159 5.22665C15.1578 3.88931 13.8545 2.68488 12.4301 1.63559C12.429 1.63479 12.4277 1.63428 12.4265 1.63348C12.3979 1.61381 12.368 1.59615 12.337 1.58064C12.3314 1.57782 12.3258 1.57519 12.3201 1.57251C12.2577 1.54296 12.1914 1.52225 12.1233 1.51099C12.1161 1.5098 12.109 1.5087 12.1018 1.50771C12.0343 1.49743 11.9657 1.49743 11.8982 1.50771C11.891 1.5087 11.8839 1.5098 11.8767 1.51099C11.8086 1.52226 11.7423 1.54296 11.6799 1.57251C11.6742 1.57519 11.6686 1.57782 11.663 1.58064C11.632 1.59615 11.6021 1.61381 11.5735 1.63348C11.5723 1.63428 11.571 1.63479 11.5699 1.63559C10.1455 2.68488 8.84223 3.88931 7.68407 5.22666C5.11038 8.18637 3.75 11.3066 3.75 14.25C3.74918 15.7761 4.17188 17.2724 4.97104 18.5725C5.7702 19.8725 6.91447 20.9253 8.27648 21.6136C9.63849 22.3019 11.1648 22.5988 12.6855 22.4711C14.2062 22.3434 15.6616 21.7962 16.8898 20.8904C16.9313 20.8651 16.9702 20.8357 17.006 20.8028C17.9062 20.1136 18.6559 19.2475 19.2089 18.2577ZM18.3497 16.539L12.75 10.9393V8.56069L18.7423 14.553C18.7127 15.2311 18.5803 15.9007 18.3497 16.539V16.539ZM12.75 17.5607L15.3155 20.1262C14.5255 20.5743 13.6527 20.8571 12.75 20.9573V17.5607ZM12.75 15.4393V13.0607L17.6406 17.9513C17.3304 18.423 16.9627 18.8543 16.5459 19.2352L12.75 15.4393ZM18.5009 12.1903L12.75 6.43931V3.80653C14.4819 5.29516 17.6022 8.41315 18.5009 12.1902V12.1903ZM5.25 14.25C5.25 9.56651 9.21197 5.5583 11.25 3.80653V20.9573C9.60085 20.771 8.07791 19.9844 6.9714 18.7474C5.86489 17.5105 5.25217 15.9096 5.25 14.25Z" fill="#1D1F21" style="fill: var(--ui-icon-primary-color);"/>
</svg>
