<svg  viewBox="0 0 24 24" fill="none" xmlns="http://www.w3.org/2000/svg" id="__THIS_ID_NEEDS_FOR_UI_ICON_COMPONENT__">
<path d="M16.3159 5.22663C15.1578 3.8893 13.8545 2.6849 12.4301 1.63561C12.3041 1.54735 12.1539 1.5 12 1.5C11.8461 1.5 11.6959 1.54735 11.5699 1.63561C10.1455 2.6849 8.84224 3.8893 7.68407 5.22663C5.11038 8.18635 3.75 11.3066 3.75 14.25C3.75 16.4381 4.61919 18.5365 6.16637 20.0837C7.71354 21.6308 9.81196 22.5 12 22.5C14.188 22.5 16.2865 21.6308 17.8336 20.0837C19.3808 18.5365 20.25 16.4381 20.25 14.25C20.25 11.3066 18.8896 8.18635 16.3159 5.22663ZM12 21C10.2104 20.998 8.49469 20.2862 7.22926 19.0208C5.96382 17.7553 5.25202 16.0396 5.25 14.25C5.25 8.88444 10.4502 4.4049 12 3.18945C13.55 4.40508 18.75 8.88444 18.75 14.25C18.748 16.0396 18.0362 17.7553 16.7707 19.0208C15.5053 20.2862 13.7896 20.998 12 21ZM17.25 14.25C17.2484 15.6419 16.6948 16.9764 15.7106 17.9606C14.7263 18.9448 13.3919 19.4984 12 19.5C11.8011 19.5 11.6103 19.421 11.4697 19.2804C11.329 19.1397 11.25 18.9489 11.25 18.75C11.25 18.5511 11.329 18.3603 11.4697 18.2197C11.6103 18.079 11.8011 18 12 18C12.9942 17.9989 13.9474 17.6035 14.6504 16.9004C15.3534 16.1974 15.7489 15.2442 15.75 14.25C15.75 14.0511 15.829 13.8603 15.9697 13.7197C16.1103 13.579 16.3011 13.5 16.5 13.5C16.6989 13.5 16.8897 13.579 17.0303 13.7197C17.171 13.8603 17.25 14.0511 17.25 14.25Z" fill="#1D1F21" style="fill: var(--ui-icon-primary-color);"/>
</svg>
