<svg  viewBox="0 0 24 24" fill="none" xmlns="http://www.w3.org/2000/svg" id="__THIS_ID_NEEDS_FOR_UI_ICON_COMPONENT__">
<path d="M21.7491 5.23212C21.7488 5.21825 21.7481 5.20441 21.747 5.19058C21.7461 5.1793 21.745 5.16809 21.7436 5.15696C21.742 5.144 21.74 5.13112 21.7377 5.11826C21.7357 5.10661 21.7334 5.09505 21.7309 5.0836C21.7281 5.07143 21.7249 5.05936 21.7215 5.0473C21.7183 5.03572 21.7149 5.02421 21.7111 5.01286C21.7072 5.00109 21.7028 4.98949 21.6983 4.97791C21.694 4.96676 21.6895 4.9557 21.6847 4.94483C21.6796 4.93346 21.6741 4.92226 21.6684 4.91109C21.663 4.90038 21.6574 4.88979 21.6515 4.87939C21.6454 4.86877 21.639 4.85834 21.6324 4.84795C21.6257 4.83733 21.6187 4.82689 21.6114 4.81663C21.6047 4.80711 21.5977 4.79777 21.5904 4.78848C21.5821 4.77793 21.5736 4.76768 21.5648 4.75758C21.5607 4.75287 21.5571 4.74786 21.5529 4.74321C21.5493 4.7393 21.5453 4.73598 21.5417 4.73213C21.5325 4.72261 21.5231 4.71341 21.5135 4.70437C21.5047 4.69613 21.496 4.68798 21.4869 4.68022C21.4778 4.67239 21.4683 4.665 21.4588 4.65761C21.4487 4.64978 21.4386 4.642 21.4282 4.63474C21.4188 4.62822 21.4092 4.62218 21.3995 4.61607C21.3886 4.60918 21.3777 4.60226 21.3665 4.59599C21.3562 4.59022 21.3457 4.58505 21.3352 4.57976C21.3242 4.57427 21.3132 4.56873 21.3021 4.56381C21.2904 4.55871 21.2786 4.55424 21.2667 4.54971C21.2561 4.54568 21.2456 4.54156 21.2348 4.53804C21.2222 4.53387 21.2093 4.53037 21.1964 4.52687C21.1858 4.52401 21.1753 4.5211 21.1646 4.5187C21.1518 4.51584 21.1388 4.51357 21.1257 4.51135C21.1143 4.50943 21.103 4.50755 21.0916 4.50613C21.0792 4.50465 21.0668 4.50364 21.0543 4.50275C21.0417 4.50183 21.0291 4.5011 21.0165 4.50082C21.0109 4.50071 21.0055 4.5 21 4.5H3C2.99487 4.5 2.98993 4.50066 2.9848 4.50078C2.97116 4.50105 2.95761 4.50181 2.94402 4.50284C2.93243 4.50368 2.92094 4.5046 2.90955 4.50598C2.89709 4.50749 2.88478 4.50952 2.87242 4.51163C2.86029 4.51374 2.84821 4.51582 2.8363 4.51847C2.82472 4.52106 2.81332 4.52419 2.80188 4.52733C2.78979 4.53063 2.77771 4.5339 2.76585 4.53779C2.75436 4.54154 2.7431 4.54592 2.7318 4.55026C2.72063 4.55454 2.70941 4.55875 2.69852 4.56356C2.68675 4.56871 2.67527 4.57452 2.66373 4.58029C2.6537 4.58535 2.64367 4.59027 2.63388 4.59576C2.62235 4.60221 2.61108 4.60933 2.59982 4.61645C2.59044 4.62238 2.5811 4.62824 2.57203 4.63455C2.56141 4.64195 2.55111 4.64987 2.54086 4.65788C2.53152 4.66511 2.52223 4.67239 2.51326 4.68008C2.50406 4.68791 2.49518 4.69615 2.48634 4.7045C2.47677 4.7135 2.46744 4.72263 2.45837 4.7321C2.45471 4.73593 2.45073 4.73927 2.44711 4.74321C2.44285 4.74785 2.43933 4.75286 2.4352 4.75758C2.42642 4.76767 2.4179 4.77792 2.40961 4.78848C2.40233 4.79777 2.39533 4.80711 2.38855 4.81663C2.38128 4.82688 2.37432 4.83732 2.36759 4.84794C2.36095 4.85833 2.35454 4.86877 2.3485 4.87939C2.34255 4.88978 2.33701 4.90038 2.33156 4.91109C2.32589 4.92226 2.32039 4.93345 2.31531 4.94483C2.31046 4.9557 2.30602 4.96675 2.30167 4.9779C2.29714 4.98948 2.29279 5.00109 2.2889 5.01285C2.2851 5.0242 2.28171 5.03572 2.27846 5.0473C2.27512 5.05936 2.27192 5.07142 2.26912 5.0836C2.26656 5.09504 2.26432 5.1066 2.26226 5.11825C2.25997 5.13111 2.25795 5.144 2.25635 5.15696C2.25498 5.1681 2.25386 5.17931 2.25301 5.19058C2.25191 5.20443 2.25121 5.21827 2.2509 5.23212C2.25078 5.23812 2.25 5.24396 2.25 5.25V18C2.25045 18.3977 2.40864 18.779 2.68984 19.0602C2.97105 19.3414 3.35231 19.4995 3.75 19.5H20.25C20.6477 19.4995 21.029 19.3414 21.3102 19.0602C21.5914 18.779 21.7495 18.3977 21.75 18V5.25C21.75 5.24396 21.7492 5.23812 21.7491 5.23212ZM19.0719 6L12 12.4826L4.92815 6H19.0719ZM20.25 18H3.75V6.95499L11.4932 14.0529C11.6315 14.1797 11.8123 14.25 12 14.25C12.1877 14.25 12.3685 14.1797 12.5068 14.0529L20.2501 6.95485L20.2509 18L20.25 18Z" fill="#1D1F21" style="fill: var(--ui-icon-primary-color);"/>
</svg>
