<svg  viewBox="0 0 24 24" fill="none" xmlns="http://www.w3.org/2000/svg" id="__THIS_ID_NEEDS_FOR_UI_ICON_COMPONENT__">
<path d="M20.25 19.4836H12.2197L15.4756 16.2277L15.4771 16.2263L15.4785 16.2248L20.7804 10.923C21.2017 10.5007 21.4383 9.92849 21.4383 9.33197C21.4383 8.73546 21.2017 8.16329 20.7804 7.74098L16.5378 3.49835C16.1158 3.0764 15.5435 2.83936 14.9468 2.83936C14.35 2.83936 13.7777 3.0764 13.3558 3.49835L8.05337 8.80074L8.05241 8.80161L8.05154 8.80257L2.74914 14.105C2.3272 14.5269 2.09015 15.0992 2.09015 15.696C2.09015 16.2927 2.3272 16.865 2.74914 17.287L6.22621 20.7639C6.36689 20.9046 6.55766 20.9836 6.75657 20.9836H20.25C20.4489 20.9836 20.6397 20.9046 20.7804 20.7639C20.921 20.6233 21 20.4325 21 20.2336C21 20.0347 20.921 19.8439 20.7804 19.7032C20.6397 19.5626 20.4489 19.4836 20.25 19.4836V19.4836ZM14.4165 4.55908C14.4861 4.48942 14.5688 4.43416 14.6598 4.39646C14.7507 4.35875 14.8483 4.33935 14.9468 4.33935C15.0452 4.33935 15.1428 4.35875 15.2338 4.39646C15.3247 4.43416 15.4074 4.48942 15.477 4.55908L19.7197 8.8017C19.8601 8.94246 19.939 9.13318 19.939 9.33202C19.939 9.53086 19.8601 9.72158 19.7197 9.86234L14.9468 14.6352L9.64354 9.33202L14.4165 4.55908ZM7.06721 19.4836L3.80987 16.2262C3.74021 16.1566 3.68495 16.0739 3.64725 15.983C3.60955 15.892 3.59014 15.7945 3.59014 15.696C3.59014 15.5975 3.60955 15.5 3.64725 15.409C3.68495 15.318 3.74021 15.2353 3.80987 15.1657L8.58282 10.3927L13.886 15.696L10.0984 19.4836H7.06721Z" fill="#1D1F21" style="fill: var(--ui-icon-primary-color);"/>
</svg>
