<svg  viewBox="0 0 24 24" fill="none" xmlns="http://www.w3.org/2000/svg" id="__THIS_ID_NEEDS_FOR_UI_ICON_COMPONENT__">
<path d="M5.05497 3.24649C4.92116 3.09929 4.73435 3.01129 4.53565 3.00183C4.33695 2.99237 4.14263 3.06223 3.99543 3.19604C3.84824 3.32986 3.76023 3.51666 3.75077 3.71536C3.74131 3.91407 3.81117 4.10839 3.94499 4.25558L5.74839 6.23935C2.34365 8.32913 0.879738 11.5498 0.814612 11.6964C0.772011 11.7923 0.75 11.8961 0.75 12.001C0.75 12.106 0.772011 12.2097 0.814612 12.3056C0.847572 12.3798 1.64152 14.1405 3.4072 15.906C5.75883 18.2574 8.73017 19.5003 12 19.5003C13.6803 19.5101 15.3437 19.164 16.8806 18.4848L18.945 20.7556C19.0788 20.9028 19.2656 20.9908 19.4643 21.0002C19.663 21.0097 19.8573 20.9398 20.0045 20.806C20.1517 20.6722 20.2397 20.4854 20.2492 20.2867C20.2586 20.088 20.1888 19.8937 20.055 19.7465L5.05497 3.24649ZM9.49176 10.357L13.3987 14.6547C12.8105 14.9651 12.1358 15.0713 11.4807 14.9563C10.8256 14.8414 10.2273 14.512 9.77987 14.0198C9.33247 13.5277 9.06137 12.9008 9.00922 12.2377C8.95706 11.5746 9.12681 10.9131 9.49176 10.357ZM12 18.0003C9.11433 18.0003 6.59306 16.9517 4.50611 14.8835C3.64856 14.0325 2.91878 13.0617 2.33952 12.0015C2.78307 11.1762 4.19531 8.86494 6.77744 7.3713L8.46122 9.22342C7.80438 10.0597 7.46498 11.1015 7.50325 12.1642C7.54152 13.2269 7.95498 14.2416 8.67027 15.0285C9.38557 15.8153 10.3565 16.3233 11.4107 16.4624C12.4649 16.6015 13.5343 16.3626 14.4292 15.7882L15.8093 17.3063C14.5935 17.7719 13.3018 18.0072 12 18.0003ZM23.1853 12.3056C23.146 12.3943 22.1965 14.4969 20.0574 16.4127C19.9093 16.5454 19.7145 16.6138 19.5159 16.6028C19.3173 16.5919 19.1312 16.5025 18.9985 16.3544C18.8658 16.2062 18.7974 16.0114 18.8083 15.8128C18.8192 15.6142 18.9086 15.4281 19.0568 15.2954C20.1039 14.3515 20.9842 13.2377 21.6606 12.0008C21.0814 10.9402 20.3516 9.96915 19.4938 9.11785C17.4069 7.04922 14.8855 6.0003 12 6.0003C11.3918 5.99948 10.7846 6.04884 10.1845 6.14789C10.0873 6.1641 9.98796 6.16103 9.892 6.13884C9.79604 6.11665 9.7054 6.07577 9.62524 6.01855C9.54508 5.96133 9.47697 5.88887 9.42481 5.80533C9.37265 5.72179 9.33746 5.62879 9.32124 5.53164C9.30502 5.4345 9.30809 5.33511 9.33029 5.23915C9.35248 5.1432 9.39335 5.05255 9.45057 4.97239C9.5078 4.89223 9.58025 4.82413 9.66379 4.77197C9.74734 4.71981 9.84034 4.68461 9.93748 4.66839C10.6192 4.55574 11.309 4.49952 12 4.5003C15.2698 4.5003 18.2412 5.74349 20.5928 8.09539C22.3585 9.86117 23.1524 11.6224 23.1853 11.6964C23.2279 11.7923 23.25 11.8961 23.25 12.001C23.25 12.106 23.2279 12.2097 23.1853 12.3056ZM12.5653 9.05404C12.37 9.01675 12.1975 8.90341 12.0857 8.73895C11.9739 8.57449 11.932 8.37236 11.9692 8.17702C12.0065 7.98169 12.1197 7.80912 12.2841 7.69728C12.4486 7.58543 12.6507 7.54346 12.846 7.58059C13.8018 7.76618 14.672 8.25569 15.327 8.97614C15.9819 9.69659 16.3865 10.6094 16.4804 11.5785C16.4988 11.7766 16.4379 11.9739 16.3109 12.127C16.1839 12.2801 16.0013 12.3765 15.8033 12.395C15.7796 12.3972 15.756 12.3983 15.7327 12.3983C15.546 12.398 15.3661 12.3281 15.2281 12.2023C15.0902 12.0765 15.0042 11.9038 14.9868 11.7179C14.9242 11.0722 14.6547 10.464 14.2183 9.98392C13.782 9.50389 13.2021 9.17772 12.5653 9.05404Z" fill="#1D1F21" style="fill: var(--ui-icon-primary-color);"/>
</svg>
