<svg  viewBox="0 0 24 24" fill="none" xmlns="http://www.w3.org/2000/svg" id="__THIS_ID_NEEDS_FOR_UI_ICON_COMPONENT__">
<path d="M23.1854 11.6952C23.1524 11.6211 22.3586 9.85989 20.5929 8.09412C18.2412 5.74222 15.2698 4.49902 12 4.49902C8.7302 4.49902 5.75877 5.74222 3.40714 8.09412C1.64145 9.8599 0.847603 11.6211 0.814644 11.6952C0.772042 11.7911 0.750031 11.8948 0.750031 11.9998C0.750031 12.1047 0.772042 12.2085 0.814644 12.3044C0.847603 12.3785 1.64155 14.1393 3.40723 15.9048C5.75886 18.2561 8.7302 19.499 12 19.499C15.2698 19.499 18.2412 18.2561 20.5928 15.9048C22.3585 14.1393 23.1524 12.3785 23.1854 12.3044C23.228 12.2085 23.25 12.1047 23.25 11.9998C23.25 11.8948 23.228 11.7911 23.1854 11.6952ZM12 17.999C9.11436 17.999 6.59309 16.9504 4.50614 14.8822C3.64846 14.0311 2.91859 13.0602 2.33927 11.9998C2.91856 10.9391 3.64842 9.96797 4.50614 9.11658C6.59309 7.04794 9.11445 5.99902 12 5.99902C14.8856 5.99902 17.4069 7.04794 19.4939 9.11658C20.3517 9.96797 21.0816 10.9391 21.6608 11.9998C20.9846 13.2608 18.0405 17.999 12 17.999ZM12 7.49985C11.11 7.49985 10.24 7.76377 9.49994 8.25823C8.75992 8.7527 8.18315 9.4555 7.84255 10.2778C7.50196 11.1 7.41284 12.0048 7.58647 12.8778C7.76011 13.7507 8.18869 14.5525 8.81803 15.1818C9.44736 15.8112 10.2492 16.2397 11.1221 16.4134C11.995 16.587 12.8998 16.4979 13.7221 16.1573C14.5444 15.8167 15.2472 15.2399 15.7416 14.4999C16.2361 13.7599 16.5 12.8899 16.5 11.9998C16.4987 10.8068 16.0241 9.66296 15.1805 8.81934C14.3369 7.97571 13.1931 7.50118 12 7.49985ZM12 14.9998C11.4067 14.9998 10.8266 14.8239 10.3333 14.4943C9.83995 14.1646 9.45543 13.6961 9.22837 13.1479C9.00131 12.5997 8.9419 11.9965 9.05765 11.4146C9.17341 10.8326 9.45913 10.2981 9.87869 9.87853C10.2982 9.45897 10.8328 9.17325 11.4147 9.05749C11.9967 8.94174 12.5999 9.00115 13.1481 9.22821C13.6962 9.45527 14.1648 9.83979 14.4944 10.3331C14.8241 10.8265 15 11.4065 15 11.9998C14.9991 12.7952 14.6827 13.5578 14.1203 14.1202C13.5579 14.6826 12.7954 14.9989 12 14.9998Z" fill="#1D1F21" style="fill: var(--ui-icon-primary-color);"/>
</svg>
