<svg  viewBox="0 0 24 24" fill="none" xmlns="http://www.w3.org/2000/svg" id="__THIS_ID_NEEDS_FOR_UI_ICON_COMPONENT__">
<path d="M21.7499 11.9996C21.75 10.0713 21.1782 8.18632 20.107 6.58299C19.0357 4.97966 17.5131 3.72997 15.7317 2.99194C13.9503 2.2539 11.99 2.06067 10.0987 2.43668C8.20748 2.81268 6.47019 3.74103 5.10653 5.10435C3.74286 6.46767 2.81407 8.20473 2.43759 10.0959C2.0611 11.987 2.25384 13.9474 2.99142 15.729C3.729 17.5106 4.9783 19.0335 6.58136 20.1052C8.18442 21.1768 10.0693 21.749 11.9975 21.7495L11.9999 21.7497L12.0024 21.7495C14.5869 21.746 17.0645 20.7175 18.8919 18.8898C20.7192 17.062 21.747 14.5841 21.7499 11.9996ZM12.7499 20.2151V14.2497H14.9999C15.1989 14.2497 15.3896 14.1706 15.5303 14.03C15.6709 13.8893 15.7499 13.6986 15.7499 13.4997C15.7499 13.3007 15.6709 13.11 15.5303 12.9693C15.3896 12.8287 15.1989 12.7497 14.9999 12.7497H12.7499V10.4997C12.7504 10.102 12.9086 9.7207 13.1898 9.4395C13.471 9.15829 13.8523 9.00011 14.2499 8.99966H15.7499C15.9489 8.99966 16.1396 8.92064 16.2803 8.77999C16.4209 8.63933 16.4999 8.44857 16.4999 8.24966C16.4999 8.05074 16.4209 7.85998 16.2803 7.71933C16.1396 7.57867 15.9489 7.49966 15.7499 7.49966H14.2499C13.4546 7.50056 12.692 7.81692 12.1296 8.37933C11.5672 8.94175 11.2508 9.70428 11.2499 10.4997V12.7497H8.99994C8.80103 12.7497 8.61027 12.8287 8.46961 12.9693C8.32896 13.11 8.24994 13.3007 8.24994 13.4997C8.24994 13.6986 8.32896 13.8893 8.46961 14.03C8.61027 14.1706 8.80103 14.2497 8.99994 14.2497H11.2499V20.2151C9.13569 20.0221 7.17722 19.0214 5.78192 17.4213C4.38661 15.8212 3.66189 13.7447 3.75849 11.6239C3.85509 9.50302 4.76558 7.50105 6.30058 6.03438C7.83557 4.56771 9.8769 3.74926 11.9999 3.74926C14.123 3.74926 16.1643 4.56771 17.6993 6.03438C19.2343 7.50105 20.1448 9.50302 20.2414 11.6239C20.338 13.7447 19.6133 15.8212 18.218 17.4213C16.8227 19.0214 14.8642 20.0221 12.7499 20.2151V20.2151Z" fill="#1D1F21" style="fill: var(--ui-icon-primary-color);"/>
</svg>
