<svg  viewBox="0 0 24 24" fill="none" xmlns="http://www.w3.org/2000/svg" id="__THIS_ID_NEEDS_FOR_UI_ICON_COMPONENT__">
<path d="M12.7501 11.25V20.2499C12.7501 20.4488 12.6711 20.6396 12.5304 20.7803C12.3898 20.9209 12.199 20.9999 12.0001 20.9999C11.8012 20.9999 11.6104 20.9209 11.4698 20.7803C11.3291 20.6396 11.2501 20.4488 11.2501 20.2499V11.25C11.2501 11.0511 11.3291 10.8603 11.4698 10.7196C11.6104 10.579 11.8012 10.5 12.0001 10.5C12.199 10.5 12.3898 10.579 12.5304 10.7196C12.6711 10.8603 12.7501 11.0511 12.7501 11.25ZM18.75 17.9999C18.6515 17.9999 18.554 18.0193 18.463 18.057C18.372 18.0947 18.2893 18.15 18.2197 18.2196C18.1501 18.2893 18.0948 18.372 18.0571 18.463C18.0194 18.554 18.0001 18.6515 18.0001 18.75L18.0002 20.25C18.0002 20.4489 18.0792 20.6397 18.2199 20.7803C18.3605 20.9209 18.5513 20.9999 18.7502 20.9999C18.9491 20.9999 19.1399 20.9209 19.2805 20.7802C19.4212 20.6396 19.5002 20.4488 19.5001 20.2499L19.5001 18.7499C19.5 18.551 19.421 18.3602 19.2803 18.2196C19.1397 18.0789 18.9489 17.9999 18.75 17.9999H18.75ZM21 15H19.5001L19.5001 3.75C19.5001 3.55109 19.4211 3.36032 19.2805 3.21967C19.1398 3.07902 18.9491 3 18.7502 3C18.5512 3.00001 18.3605 3.07903 18.2198 3.21968C18.0792 3.36033 18.0002 3.55109 18.0002 3.75L18.0001 15H16.5001C16.3012 15 16.1104 15.079 15.9697 15.2196C15.8291 15.3603 15.7501 15.551 15.7501 15.75C15.7501 15.9489 15.8291 16.1396 15.9697 16.2803C16.1104 16.4209 16.3012 16.4999 16.5001 16.4999H21C21.199 16.4999 21.3897 16.4209 21.5304 16.2803C21.671 16.1396 21.75 15.9489 21.75 15.75C21.75 15.551 21.671 15.3603 21.5304 15.2196C21.3897 15.079 21.199 15 21 15ZM5.25011 15C5.0512 15 4.86044 15.079 4.71979 15.2196C4.57914 15.3603 4.50012 15.551 4.50011 15.75L4.50007 20.2499C4.50007 20.4488 4.57909 20.6396 4.71974 20.7803C4.86039 20.9209 5.05115 20.9999 5.25006 20.9999C5.44897 20.9999 5.63973 20.9209 5.78038 20.7803C5.92103 20.6396 6.00005 20.4488 6.00006 20.2499L6.00011 15.75C6.00011 15.551 5.92109 15.3603 5.78044 15.2196C5.63978 15.079 5.44902 15 5.25011 15ZM7.5001 12H6.00011L6.00006 3.75C6.00006 3.55109 5.92104 3.36032 5.78039 3.21967C5.63974 3.07902 5.44898 3 5.25006 3C5.05115 3 4.86039 3.07902 4.71974 3.21967C4.57908 3.36032 4.50007 3.55109 4.50007 3.75L4.50011 12H3.00012C2.80121 12 2.61044 12.079 2.46979 12.2196C2.32914 12.3603 2.25012 12.5511 2.25012 12.75C2.25012 12.9489 2.32914 13.1396 2.46979 13.2803C2.61044 13.4209 2.80121 13.5 3.00012 13.5H7.5001C7.69901 13.5 7.88978 13.4209 8.03043 13.2803C8.17108 13.1396 8.2501 12.9489 8.2501 12.75C8.2501 12.5511 8.17108 12.3603 8.03043 12.2196C7.88978 12.079 7.69901 12 7.5001 12ZM14.2501 7.49998H12.7501V3.75C12.7501 3.55109 12.6711 3.36032 12.5304 3.21967C12.3898 3.07902 12.199 3 12.0001 3C11.8012 3 11.6104 3.07902 11.4698 3.21967C11.3291 3.36032 11.2501 3.55109 11.2501 3.75V7.49998H9.75009C9.55118 7.49998 9.36042 7.579 9.21977 7.71965C9.07911 7.8603 9.0001 8.05107 9.0001 8.24998C9.0001 8.44889 9.07911 8.63966 9.21977 8.78031C9.36042 8.92096 9.55118 8.99998 9.75009 8.99998H14.2501C14.449 8.99998 14.6398 8.92096 14.7804 8.78031C14.9211 8.63966 15.0001 8.44889 15.0001 8.24998C15.0001 8.05107 14.9211 7.8603 14.7804 7.71965C14.6398 7.579 14.449 7.49998 14.2501 7.49998Z" fill="#1D1F21" style="fill: var(--ui-icon-primary-color);"/>
</svg>
