<svg  viewBox="0 0 24 24" fill="none" xmlns="http://www.w3.org/2000/svg" id="__THIS_ID_NEEDS_FOR_UI_ICON_COMPONENT__">
<path d="M13.4999 16.124C13.4999 16.3229 13.4209 16.5137 13.2802 16.6544C13.1396 16.795 12.9488 16.874 12.7499 16.874H3.74988C3.55097 16.874 3.3602 16.795 3.21955 16.6544C3.0789 16.5137 2.99988 16.3229 2.99988 16.124C2.99988 15.9251 3.0789 15.7343 3.21955 15.5937C3.3602 15.453 3.55097 15.374 3.74988 15.374H12.7499C12.9488 15.374 13.1396 15.453 13.2802 15.5937C13.4209 15.7343 13.4999 15.9251 13.4999 16.124ZM20.2499 15.374H16.4999V13.874C16.4999 13.6751 16.4209 13.4843 16.2802 13.3437C16.1396 13.203 15.9488 13.124 15.7499 13.124C15.551 13.124 15.3602 13.203 15.2195 13.3437C15.0789 13.4843 14.9999 13.6751 14.9999 13.874V18.374C14.9999 18.5729 15.0789 18.7637 15.2195 18.9044C15.3602 19.045 15.551 19.124 15.7499 19.124C15.9488 19.124 16.1396 19.045 16.2802 18.9044C16.4209 18.7637 16.4999 18.5729 16.4999 18.374V16.874H20.2499C20.4488 16.874 20.6396 16.795 20.7802 16.6544C20.9209 16.5137 20.9999 16.3229 20.9999 16.124C20.9999 15.9251 20.9209 15.7343 20.7802 15.5937C20.6396 15.453 20.4488 15.374 20.2499 15.374ZM3.74988 8.62393L6.74988 8.62402C6.94879 8.62402 7.13956 8.54501 7.28021 8.40435C7.42086 8.2637 7.49988 8.07294 7.49988 7.87402C7.49988 7.67511 7.42086 7.48435 7.28021 7.34369C7.13956 7.20304 6.94879 7.12402 6.74988 7.12402L3.74988 7.12393C3.55097 7.12393 3.3602 7.20295 3.21955 7.3436C3.0789 7.48425 2.99988 7.67502 2.99988 7.87393C2.99988 8.07284 3.0789 8.26361 3.21955 8.40426C3.3602 8.54491 3.55097 8.62393 3.74988 8.62393ZM9.74988 10.874C9.94879 10.874 10.1396 10.795 10.2802 10.6544C10.4209 10.5137 10.4999 10.3229 10.4999 10.124V8.62402L20.2499 8.62393C20.4488 8.62393 20.6396 8.54491 20.7802 8.40426C20.9209 8.26361 20.9999 8.07284 20.9999 7.87393C20.9999 7.67502 20.9209 7.48425 20.7802 7.3436C20.6396 7.20295 20.4488 7.12393 20.2499 7.12393L10.4999 7.12402V5.62402C10.4999 5.42511 10.4209 5.23435 10.2802 5.09369C10.1396 4.95304 9.94879 4.87402 9.74988 4.87402C9.55097 4.87402 9.3602 4.95304 9.21955 5.09369C9.0789 5.23435 8.99988 5.42511 8.99988 5.62402V10.124C8.99988 10.3229 9.0789 10.5137 9.21955 10.6544C9.3602 10.795 9.55097 10.874 9.74988 10.874Z" fill="#1D1F21" style="fill: var(--ui-icon-primary-color);"/>
</svg>
