<svg  viewBox="0 0 24 24" fill="none" xmlns="http://www.w3.org/2000/svg" id="__THIS_ID_NEEDS_FOR_UI_ICON_COMPONENT__">
<path d="M17.4952 8.81148C18.1695 8.32399 18.6719 7.63533 18.9304 6.84441C19.1888 6.05349 19.1899 5.20101 18.9335 4.40943C18.6771 3.61785 18.1765 2.92789 17.5034 2.43866C16.8304 1.94944 16.0196 1.68611 15.1875 1.68652H8.8125C7.98043 1.68611 7.16964 1.94944 6.49659 2.43866C5.82355 2.92789 5.32287 3.61785 5.06649 4.40943C4.8101 5.20101 4.8112 6.05349 5.06963 6.84441C5.32806 7.63533 5.83051 8.32399 6.50482 8.81148C6.00027 9.17586 5.58942 9.65482 5.30608 10.209C5.02274 10.7631 4.875 11.3766 4.875 11.999C4.875 12.6213 5.02276 13.2348 5.30611 13.789C5.58946 14.3431 6.00031 14.822 6.50487 15.1864C5.95908 15.5816 5.52387 16.1103 5.24091 16.7218C4.95795 17.3334 4.83671 18.0073 4.88881 18.6792C4.9409 19.351 5.16458 19.9982 5.53843 20.5588C5.91228 21.1195 6.42379 21.5747 7.02397 21.8811C7.62416 22.1874 8.29294 22.3345 8.96627 22.3084C9.63961 22.2822 10.295 22.0837 10.8696 21.7317C11.4442 21.3798 11.9189 20.8862 12.2481 20.2983C12.5774 19.7103 12.7502 19.0477 12.75 18.3739V15.0878C13.161 15.4126 13.6327 15.6521 14.1375 15.7922C14.6423 15.9324 15.17 15.9703 15.6896 15.9038C16.2092 15.8373 16.7103 15.6677 17.1635 15.4049C17.6167 15.1422 18.0129 14.7916 18.3289 14.3737C18.6448 13.9558 18.8741 13.4791 19.0034 12.9714C19.1326 12.4638 19.1592 11.9354 19.0815 11.4173C19.0039 10.8992 18.8236 10.4019 18.5512 9.95441C18.2788 9.50694 17.9197 9.11836 17.4952 8.81148ZM17.625 5.62402C17.6243 6.26994 17.3675 6.88922 16.9109 7.34612C16.4543 7.80302 15.8352 8.06027 15.1893 8.06148L15.1875 8.06143L15.1839 8.06152L12.75 8.06143V3.18652H15.1875C15.8337 3.18726 16.4533 3.4443 16.9103 3.90126C17.3672 4.35822 17.6243 4.97778 17.625 5.62402ZM6.375 5.62402C6.37573 4.97778 6.63277 4.35822 7.08974 3.90126C7.5467 3.4443 8.16626 3.18726 8.8125 3.18652H11.25V8.06143H8.8125L8.81072 8.06148C8.16479 8.06028 7.54569 7.80303 7.08912 7.34613C6.63254 6.88923 6.37574 6.26995 6.375 5.62402ZM6.375 11.9989C6.37574 11.353 6.63254 10.7337 7.08911 10.2768C7.54569 9.81991 8.16479 9.56267 8.81072 9.56148L8.8125 9.56152L11.25 9.56145V14.4363L8.8125 14.4364C8.16626 14.4357 7.5467 14.1787 7.08974 13.7217C6.63277 13.2647 6.37573 12.6452 6.375 11.9989ZM8.8125 20.8113C8.49223 20.8116 8.17504 20.7488 7.87907 20.6264C7.5831 20.504 7.31414 20.3245 7.08758 20.0982C6.86101 19.8718 6.68128 19.603 6.55865 19.3071C6.43603 19.0113 6.37291 18.6942 6.37291 18.3739C6.37291 18.0536 6.43603 17.7365 6.55865 17.4406C6.68128 17.1447 6.86101 16.876 7.08758 16.6496C7.31414 16.4232 7.5831 16.2437 7.87907 16.1214C8.17504 15.999 8.49223 15.9361 8.8125 15.9364L11.25 15.9364V18.3739C11.2493 19.0201 10.9922 19.6397 10.5353 20.0966C10.0783 20.5536 9.45873 20.8106 8.8125 20.8113ZM15.1875 14.4364C14.5415 14.4363 13.9219 14.1796 13.465 13.7229C13.0081 13.2662 12.7511 12.6468 12.7507 12.0008C12.7502 11.3547 13.0062 10.735 13.4624 10.2776C13.9187 9.82019 14.5379 9.56264 15.1839 9.56152H15.1875L15.1893 9.56148C15.8353 9.56237 16.4546 9.81968 16.911 10.2769C17.3674 10.7341 17.6236 11.3538 17.6234 11.9998C17.6232 12.6459 17.3665 13.2654 16.9097 13.7223C16.453 14.1791 15.8335 14.436 15.1875 14.4364Z" fill="#1D1F21" style="fill: var(--ui-icon-primary-color);"/>
</svg>
