<svg  viewBox="0 0 24 24" fill="none" xmlns="http://www.w3.org/2000/svg" id="__THIS_ID_NEEDS_FOR_UI_ICON_COMPONENT__">
<path d="M20.2507 8.25C20.2508 8.14959 20.2306 8.0502 20.1915 7.95776C20.1523 7.86532 20.0948 7.78173 20.0226 7.71197L14.7805 2.46985C14.7632 2.45249 14.745 2.43601 14.7259 2.42042C14.7215 2.41679 14.7167 2.4137 14.7123 2.41017C14.6975 2.39857 14.6825 2.3871 14.6669 2.37662C14.6628 2.37389 14.6585 2.37163 14.6543 2.36899C14.6379 2.35839 14.6212 2.34805 14.6038 2.33875C14.6008 2.33716 14.5977 2.3359 14.5947 2.33436C14.576 2.32465 14.557 2.31544 14.5375 2.30729C14.5354 2.30642 14.5332 2.30581 14.5311 2.30496C14.5106 2.29667 14.4898 2.28904 14.4685 2.28255C14.4662 2.28186 14.4638 2.28144 14.4615 2.28077C14.4405 2.27461 14.4193 2.26904 14.3976 2.2647C14.3916 2.26349 14.3854 2.26298 14.3794 2.26193C14.3614 2.25879 14.3433 2.25561 14.3249 2.25378C14.3001 2.2513 14.2752 2.25003 14.25 2.25H5.24927C4.85158 2.25045 4.47032 2.40864 4.18911 2.68984C3.9079 2.97105 3.74972 3.35231 3.74927 3.75V20.25C3.74972 20.6477 3.9079 21.029 4.18911 21.3102C4.47032 21.5914 4.85158 21.7495 5.24927 21.75H18.75C19.1477 21.7495 19.529 21.5914 19.8102 21.3102C20.0914 21.029 20.2495 20.6477 20.25 20.25V8.26495C20.2501 8.25994 20.2507 8.25505 20.2507 8.25ZM15 4.81066L17.6894 7.5H15V4.81066ZM18.75 20.25H5.24927V3.75H13.5V8.25C13.5 8.34849 13.5194 8.44602 13.5571 8.53702C13.5948 8.62801 13.65 8.71069 13.7197 8.78034C13.7893 8.84998 13.872 8.90523 13.963 8.94292C14.054 8.98061 14.1515 9 14.25 9H18.75L18.751 20.25L18.75 20.25Z" fill="#1D1F21" style="fill: var(--ui-icon-primary-color);"/>
</svg>
