<svg  viewBox="0 0 24 24" fill="none" xmlns="http://www.w3.org/2000/svg" id="__THIS_ID_NEEDS_FOR_UI_ICON_COMPONENT__">
<path d="M20.2507 8.25C20.2508 8.14959 20.2306 8.0502 20.1915 7.95776C20.1523 7.86532 20.0948 7.78173 20.0226 7.71197L14.7805 2.46985C14.7632 2.45249 14.745 2.43601 14.7259 2.42042C14.7215 2.41679 14.7167 2.4137 14.7123 2.41017C14.6975 2.39857 14.6825 2.3871 14.6669 2.37662C14.6628 2.37389 14.6585 2.37163 14.6543 2.36899C14.6379 2.35839 14.6212 2.34805 14.6038 2.33875C14.6008 2.33716 14.5977 2.3359 14.5947 2.33436C14.576 2.32465 14.557 2.31544 14.5375 2.30729C14.5354 2.30642 14.5332 2.30581 14.5311 2.30496C14.5106 2.29667 14.4898 2.28904 14.4685 2.28255C14.4662 2.28186 14.4638 2.28144 14.4615 2.28077C14.4405 2.27461 14.4193 2.26904 14.3976 2.2647C14.3916 2.26349 14.3854 2.26298 14.3794 2.26193C14.3614 2.25879 14.3433 2.25561 14.3249 2.25378C14.3001 2.2513 14.2752 2.25003 14.25 2.25H5.24927C4.85158 2.25045 4.47032 2.40864 4.18911 2.68984C3.9079 2.97105 3.74972 3.35231 3.74927 3.75V20.25C3.74972 20.6477 3.9079 21.029 4.18911 21.3102C4.47032 21.5914 4.85158 21.7495 5.24927 21.75H18.75C19.1477 21.7495 19.529 21.5914 19.8102 21.3102C20.0914 21.029 20.2495 20.6477 20.25 20.25V8.26495C20.2501 8.25993 20.2507 8.25505 20.2507 8.25ZM15 4.81066L17.6894 7.5H15V4.81066ZM18.75 20.25H5.24927V3.75H13.5V8.25C13.5 8.34849 13.5194 8.44602 13.5571 8.53702C13.5948 8.62801 13.65 8.71069 13.7197 8.78034C13.7893 8.84998 13.872 8.90523 13.963 8.94292C14.054 8.98061 14.1515 9 14.25 9H18.75L18.751 20.25L18.75 20.25ZM15.75 12.75C15.75 12.8485 15.7306 12.946 15.6929 13.037C15.6552 13.128 15.6 13.2107 15.5303 13.2803C15.4607 13.35 15.378 13.4052 15.287 13.4429C15.196 13.4806 15.0985 13.5 15 13.5H9C8.80109 13.5 8.61032 13.421 8.46967 13.2803C8.32902 13.1397 8.25 12.9489 8.25 12.75C8.25 12.5511 8.32902 12.3603 8.46967 12.2197C8.61032 12.079 8.80109 12 9 12H15C15.0985 12 15.196 12.0194 15.287 12.0571C15.378 12.0948 15.4607 12.15 15.5303 12.2197C15.6 12.2893 15.6552 12.372 15.6929 12.463C15.7306 12.554 15.75 12.6515 15.75 12.75ZM15.75 15.75C15.75 15.8485 15.7306 15.946 15.6929 16.037C15.6552 16.128 15.6 16.2107 15.5303 16.2803C15.4607 16.35 15.378 16.4052 15.287 16.4429C15.196 16.4806 15.0985 16.5 15 16.5H9C8.80109 16.5 8.61032 16.421 8.46967 16.2803C8.32902 16.1397 8.25 15.9489 8.25 15.75C8.25 15.5511 8.32902 15.3603 8.46967 15.2197C8.61032 15.079 8.80109 15 9 15H15C15.0985 15 15.196 15.0194 15.287 15.0571C15.378 15.0948 15.4607 15.15 15.5303 15.2197C15.6 15.2893 15.6552 15.372 15.6929 15.463C15.7306 15.554 15.75 15.6515 15.75 15.75Z" fill="#1D1F21" style="fill: var(--ui-icon-primary-color);"/>
</svg>
