<svg  viewBox="0 0 24 24" fill="none" xmlns="http://www.w3.org/2000/svg" id="__THIS_ID_NEEDS_FOR_UI_ICON_COMPONENT__">
<path d="M20.2507 8.25C20.2508 8.14959 20.2306 8.0502 20.1915 7.95776C20.1523 7.86532 20.0948 7.78173 20.0226 7.71197L14.7805 2.46985C14.7632 2.45249 14.745 2.43601 14.7259 2.42042C14.7215 2.41678 14.7167 2.4137 14.7123 2.41018C14.6975 2.39857 14.6825 2.3871 14.6669 2.37662C14.6628 2.3739 14.6585 2.37164 14.6543 2.36899C14.6379 2.3584 14.6212 2.34806 14.6038 2.33875C14.6008 2.33716 14.5977 2.33591 14.5947 2.33436C14.576 2.32465 14.557 2.31544 14.5375 2.3073C14.5354 2.30643 14.5332 2.30582 14.5311 2.30496C14.5106 2.29668 14.4898 2.28904 14.4685 2.28256C14.4662 2.28186 14.4638 2.28144 14.4615 2.28077C14.4405 2.2746 14.4193 2.26904 14.3976 2.2647C14.3916 2.26349 14.3854 2.26298 14.3794 2.26192C14.3614 2.25879 14.3433 2.25562 14.3249 2.25379C14.3 2.25127 14.275 2.25001 14.25 2.25H5.24927C4.85158 2.25045 4.47032 2.40864 4.18911 2.68984C3.9079 2.97105 3.74972 3.35231 3.74927 3.75V20.25C3.74972 20.6477 3.9079 21.029 4.18911 21.3102C4.47032 21.5914 4.85158 21.7495 5.24927 21.75H18.75C19.1477 21.7495 19.529 21.5914 19.8102 21.3102C20.0914 21.029 20.2495 20.6477 20.25 20.25V8.26495C20.2501 8.25993 20.2507 8.25505 20.2507 8.25ZM15 4.81066L17.6894 7.5H15V4.81066ZM18.75 20.25H5.24927V3.75H13.5V8.25C13.5 8.34849 13.5194 8.44602 13.5571 8.53702C13.5948 8.62801 13.65 8.71069 13.7197 8.78034C13.7893 8.84998 13.872 8.90523 13.963 8.94292C14.054 8.98061 14.1515 9 14.25 9H18.75L18.751 20.25L18.75 20.25ZM14.7803 12.5303L13.0606 14.25L14.7803 15.9697C14.85 16.0393 14.9053 16.122 14.9431 16.213C14.9808 16.304 15.0003 16.4016 15.0003 16.5001C15.0003 16.5986 14.981 16.6962 14.9433 16.7872C14.9056 16.8783 14.8503 16.961 14.7807 17.0307C14.711 17.1003 14.6283 17.1556 14.5372 17.1933C14.4462 17.231 14.3486 17.2503 14.2501 17.2503C14.1516 17.2503 14.054 17.2308 13.963 17.1931C13.872 17.1553 13.7893 17.1 13.7197 17.0303L12 15.3106L10.2803 17.0303C10.1396 17.1708 9.94892 17.2497 9.7501 17.2497C9.55127 17.2496 9.3606 17.1706 9.22001 17.03C9.07942 16.8894 9.00041 16.6987 9.00035 16.4999C9.00029 16.3011 9.07918 16.1104 9.21968 15.9697L10.9394 14.25L9.21968 12.5303C9.14997 12.4607 9.09465 12.378 9.05691 12.287C9.01916 12.196 8.99971 12.0984 8.99968 11.9999C8.99965 11.9014 9.01904 11.8038 9.05673 11.7128C9.09442 11.6217 9.14968 11.539 9.21935 11.4693C9.28902 11.3997 9.37173 11.3444 9.46277 11.3067C9.5538 11.269 9.65137 11.2497 9.7499 11.2497C9.84843 11.2497 9.94599 11.2692 10.037 11.3069C10.128 11.3447 10.2107 11.4 10.2803 11.4697L12 13.1894L13.7197 11.4697C13.7893 11.4 13.872 11.3447 13.963 11.3069C14.054 11.2692 14.1516 11.2497 14.2501 11.2497C14.3486 11.2497 14.4462 11.269 14.5372 11.3067C14.6283 11.3444 14.711 11.3997 14.7807 11.4693C14.8503 11.539 14.9056 11.6217 14.9433 11.7128C14.981 11.8038 15.0003 11.9014 15.0003 11.9999C15.0003 12.0984 14.9808 12.196 14.9431 12.287C14.9053 12.378 14.85 12.4607 14.7803 12.5303Z" fill="#1D1F21" style="fill: var(--ui-icon-primary-color);"/>
</svg>
