<svg  viewBox="0 0 24 24" fill="none" xmlns="http://www.w3.org/2000/svg" id="__THIS_ID_NEEDS_FOR_UI_ICON_COMPONENT__">
<path d="M20.2507 8.25C20.2508 8.14959 20.2306 8.0502 20.1915 7.95776C20.1523 7.86532 20.0948 7.78173 20.0226 7.71197L14.7805 2.46985C14.7632 2.45249 14.745 2.43601 14.7259 2.42042C14.7215 2.41678 14.7167 2.4137 14.7123 2.41018C14.6975 2.39857 14.6825 2.3871 14.6669 2.37662C14.6628 2.3739 14.6585 2.37164 14.6543 2.36899C14.6379 2.3584 14.6212 2.34806 14.6038 2.33875C14.6008 2.33716 14.5977 2.33591 14.5947 2.33436C14.576 2.32465 14.557 2.31544 14.5375 2.3073C14.5354 2.30643 14.5332 2.30582 14.5311 2.30496C14.5106 2.29668 14.4898 2.28904 14.4685 2.28256C14.4662 2.28186 14.4638 2.28144 14.4615 2.28077C14.4405 2.2746 14.4193 2.26904 14.3976 2.2647C14.3916 2.26349 14.3854 2.26298 14.3794 2.26192C14.3614 2.25879 14.3433 2.25562 14.3249 2.25379C14.3 2.25127 14.275 2.25001 14.25 2.25H5.24927C4.85158 2.25045 4.47032 2.40864 4.18911 2.68984C3.9079 2.97105 3.74972 3.35231 3.74927 3.75V20.25C3.74972 20.6477 3.9079 21.029 4.18911 21.3102C4.47032 21.5914 4.85158 21.7495 5.24927 21.75H18.75C19.1477 21.7495 19.529 21.5914 19.8102 21.3102C20.0914 21.029 20.2495 20.6477 20.25 20.25V8.26495C20.2501 8.25993 20.2507 8.25505 20.2507 8.25ZM15 4.81066L17.6894 7.5H15V4.81066ZM18.75 20.25H5.24927V3.75H13.5V8.25C13.5 8.34849 13.5194 8.44602 13.5571 8.53702C13.5948 8.62801 13.65 8.71069 13.7197 8.78034C13.7893 8.84998 13.872 8.90523 13.963 8.94292C14.054 8.98061 14.1515 9 14.25 9H18.75L18.751 20.25L18.75 20.25ZM14.4817 15.6716C14.9233 14.9693 15.0906 14.1289 14.9518 13.311C14.813 12.4931 14.3778 11.7549 13.7292 11.2376C13.0807 10.7203 12.2643 10.46 11.436 10.5064C10.6077 10.5529 9.8255 10.9029 9.23888 11.4895C8.65226 12.0761 8.3023 12.8583 8.25584 13.6866C8.20939 14.5149 8.46969 15.3313 8.98704 15.9799C9.50439 16.6284 10.2425 17.0636 11.0604 17.2024C11.8784 17.3412 12.7188 17.1739 13.4211 16.7323L14.4503 17.7615C14.5909 17.9021 14.7817 17.9811 14.9806 17.9811C15.1795 17.9811 15.3703 17.9021 15.5109 17.7615C15.6516 17.6208 15.7306 17.4301 15.7306 17.2312C15.7306 17.0322 15.6516 16.8415 15.511 16.7008L14.4817 15.6716ZM10.2986 15.2008C9.9919 14.8941 9.80101 14.4905 9.7585 14.0588C9.71598 13.6271 9.82447 13.194 10.0655 12.8333C10.3065 12.4727 10.6651 12.2067 11.0802 12.0808C11.4953 11.9549 11.9412 11.9768 12.342 12.1428C12.7427 12.3088 13.0736 12.6086 13.278 12.9912C13.4825 13.3737 13.548 13.8154 13.4634 14.2408C13.3788 14.6663 13.1492 15.0492 12.8139 15.3244C12.4786 15.5996 12.0582 15.75 11.6245 15.75C11.3781 15.7507 11.1341 15.7025 10.9065 15.6082C10.679 15.5139 10.4723 15.3755 10.2986 15.2008Z" fill="#1D1F21" style="fill: var(--ui-icon-primary-color);"/>
</svg>
