<svg  viewBox="0 0 24 24" fill="none" xmlns="http://www.w3.org/2000/svg" id="__THIS_ID_NEEDS_FOR_UI_ICON_COMPONENT__">
<path d="M6.75066 12.0016C6.75623 13.969 6.30186 15.9104 5.42379 17.6711C5.33504 17.8488 5.17937 17.9841 4.99097 18.0472C4.80256 18.1103 4.59682 18.0961 4.4189 18.0076C4.24099 17.9191 4.10545 17.7637 4.04204 17.5754C3.97864 17.3871 3.99254 17.1813 4.08071 17.0033C4.85509 15.45 5.25573 13.7372 5.25066 12.0016C5.24858 10.9894 5.4751 9.98981 5.91333 9.07743C6.35156 8.16504 6.99019 7.3634 7.78155 6.73233C7.93675 6.60792 8.13503 6.55025 8.33275 6.57202C8.53047 6.59379 8.71145 6.69322 8.83587 6.84842C8.96029 7.00363 9.01795 7.2019 8.99618 7.39962C8.97441 7.59735 8.87499 7.77833 8.71978 7.90274C8.10413 8.3936 7.60728 9.01716 7.26632 9.72688C6.92536 10.4366 6.74909 11.2142 6.75066 12.0016ZM12.0007 11.2516C11.8018 11.2516 11.611 11.3306 11.4703 11.4712C11.3297 11.6119 11.2507 11.8026 11.2507 12.0016C11.2513 14.9233 10.5103 17.7975 9.09707 20.3547C9.04922 20.4409 9.01882 20.5356 9.0076 20.6335C8.99638 20.7314 9.00456 20.8305 9.03166 20.9253C9.05877 21.02 9.10428 21.1084 9.16559 21.1856C9.2269 21.2627 9.30281 21.327 9.38898 21.3748C9.47514 21.4226 9.56988 21.4529 9.66778 21.4641C9.76568 21.4752 9.86482 21.467 9.95953 21.4398C10.0542 21.4127 10.1427 21.3671 10.2198 21.3057C10.2969 21.2444 10.3611 21.1684 10.4088 21.0822C11.9454 18.3023 12.7511 15.1779 12.7507 12.0016C12.7507 11.8027 12.6716 11.6119 12.531 11.4712C12.3903 11.3306 12.1996 11.2516 12.0007 11.2516ZM12.0007 8.25156C11.0064 8.2527 10.0533 8.64815 9.35027 9.35116C8.64725 10.0542 8.2518 11.0073 8.25066 12.0016C8.25066 12.2005 8.32968 12.3912 8.47033 12.5319C8.61099 12.6725 8.80175 12.7516 9.00066 12.7516C9.19957 12.7516 9.39034 12.6725 9.53099 12.5319C9.67165 12.3912 9.75066 12.2005 9.75066 12.0016C9.75066 11.4048 9.98772 10.8325 10.4097 10.4106C10.8316 9.98861 11.4039 9.75156 12.0007 9.75156C12.5974 9.75156 13.1697 9.98861 13.5917 10.4106C14.0136 10.8325 14.2507 11.4048 14.2507 12.0016C14.2583 14.9836 13.6015 17.9298 12.3278 20.6261C12.2858 20.7152 12.2617 20.8117 12.257 20.9101C12.2523 21.0084 12.2671 21.1068 12.3004 21.1995C12.3337 21.2922 12.3849 21.3774 12.4511 21.4503C12.5174 21.5232 12.5973 21.5823 12.6864 21.6243C12.7755 21.6663 12.872 21.6903 12.9704 21.695C13.0687 21.6997 13.1671 21.685 13.2598 21.6517C13.3525 21.6184 13.4377 21.5672 13.5106 21.501C13.5835 21.4347 13.6426 21.3548 13.6846 21.2657C15.0529 18.3695 15.7587 15.2047 15.7507 12.0016C15.7495 11.0073 15.3541 10.0542 14.6511 9.35116C13.948 8.64815 12.9949 8.2527 12.0007 8.25156ZM12.0007 2.25146C9.4157 2.25439 6.93745 3.28256 5.1096 5.11041C3.28176 6.93825 2.25359 9.4165 2.25066 12.0015C2.25192 12.9382 2.0932 13.8682 1.78136 14.7515C1.71527 14.939 1.72633 15.1451 1.81211 15.3244C1.89788 15.5038 2.05135 15.6418 2.23879 15.708C2.42624 15.7743 2.63232 15.7634 2.81174 15.6778C2.99117 15.5921 3.12926 15.4388 3.19567 15.2514C3.56426 14.2076 3.75196 13.1085 3.75066 12.0015C3.75066 9.81343 4.61986 7.71501 6.16703 6.16783C7.71421 4.62066 9.81263 3.75147 12.0007 3.75147C14.1887 3.75147 16.2871 4.62066 17.8343 6.16783C19.3815 7.71501 20.2507 9.81343 20.2507 12.0015C20.251 13.7152 20.0849 15.4249 19.7547 17.1064C19.7356 17.2031 19.7357 17.3026 19.7551 17.3992C19.7744 17.4958 19.8126 17.5876 19.8675 17.6695C19.9223 17.7513 19.9928 17.8216 20.0748 17.8762C20.1568 17.9308 20.2488 17.9687 20.3454 17.9878C20.4421 18.0068 20.5416 18.0066 20.6382 17.9872C20.7348 17.9678 20.8266 17.9296 20.9084 17.8746C20.9902 17.8197 21.0604 17.7492 21.1149 17.6672C21.1695 17.5852 21.2074 17.4932 21.2263 17.3965C21.5754 15.6194 21.751 13.8125 21.7507 12.0015C21.7477 9.4165 20.7196 6.93825 18.8917 5.11041C17.0639 3.28256 14.5856 2.25439 12.0007 2.25147V2.25146ZM8.84978 14.2665C8.65488 14.2272 8.45232 14.2667 8.28657 14.3766C8.12082 14.4864 8.00541 14.6575 7.96566 14.8523C7.66182 16.3501 7.11713 17.7887 6.35277 19.1121C6.30348 19.1974 6.27149 19.2916 6.25861 19.3893C6.24574 19.487 6.25224 19.5862 6.27774 19.6814C6.30324 19.7766 6.34725 19.8658 6.40725 19.944C6.46724 20.0221 6.54205 20.0877 6.62739 20.1369C6.71274 20.1862 6.80695 20.2181 6.90465 20.2309C7.00234 20.2438 7.10161 20.2372 7.19677 20.2116C7.29193 20.1861 7.38112 20.142 7.45924 20.082C7.53737 20.0219 7.6029 19.9471 7.65209 19.8617C8.4974 18.3981 9.09973 16.8071 9.43563 15.1506C9.47518 14.9557 9.43568 14.753 9.32581 14.5872C9.21594 14.4214 9.04471 14.306 8.84978 14.2665ZM12.0007 5.25156C11.7189 5.25157 11.4374 5.269 11.1577 5.30374C11.06 5.31595 10.9656 5.34728 10.88 5.39596C10.7944 5.44463 10.7192 5.5097 10.6587 5.58743C10.5982 5.66517 10.5536 5.75406 10.5275 5.84902C10.5014 5.94399 10.4942 6.04317 10.5064 6.1409C10.5311 6.33828 10.6331 6.51779 10.7901 6.63994C10.8679 6.70042 10.9567 6.74499 11.0517 6.77112C11.1467 6.79725 11.2459 6.80441 11.3436 6.79221C11.5616 6.7651 11.781 6.75153 12.0007 6.75156C13.3926 6.75312 14.727 7.30675 15.7112 8.29097C16.6955 9.2752 17.2491 10.6097 17.2507 12.0016C17.2507 12.9734 17.1906 13.9442 17.0708 14.9086C17.0461 15.106 17.1009 15.3051 17.2231 15.4621C17.3453 15.6191 17.5248 15.7211 17.7222 15.7457C17.9195 15.7703 18.1186 15.7155 18.2756 15.5934C18.4326 15.4712 18.5346 15.2917 18.5592 15.0943C18.6867 14.0683 18.7506 13.0354 18.7507 12.0016C18.7486 10.212 18.0368 8.49625 16.7714 7.23082C15.506 5.96538 13.7903 5.25357 12.0007 5.25156ZM17.4316 17.2752C17.3362 17.2506 17.2369 17.245 17.1394 17.2588C17.0418 17.2725 16.948 17.3054 16.8631 17.3555C16.7783 17.4056 16.7042 17.4719 16.645 17.5507C16.5859 17.6295 16.5428 17.7191 16.5183 17.8145C16.381 18.3478 16.2227 18.8824 16.0478 19.4034C16.0165 19.4968 16.0039 19.5954 16.0106 19.6937C16.0174 19.7919 16.0435 19.8879 16.0873 19.9761C16.1312 20.0643 16.192 20.143 16.2662 20.2076C16.3405 20.2723 16.4268 20.3218 16.5202 20.3531C16.6135 20.3844 16.7122 20.3971 16.8104 20.3903C16.9087 20.3835 17.0046 20.3575 17.0928 20.3136C17.181 20.2698 17.2597 20.209 17.3244 20.1347C17.3891 20.0604 17.4385 19.9741 17.4698 19.8808C17.6562 19.3258 17.8248 18.7564 17.9709 18.1884C17.9955 18.093 18.001 17.9938 17.9872 17.8962C17.9734 17.7987 17.9405 17.7049 17.8904 17.6201C17.8403 17.5353 17.774 17.4612 17.6953 17.402C17.6166 17.3428 17.527 17.2997 17.4316 17.2752V17.2752Z" fill="#1D1F21" style="fill: var(--ui-icon-primary-color);"/>
</svg>
