<svg  viewBox="0 0 24 24" fill="none" xmlns="http://www.w3.org/2000/svg" id="__THIS_ID_NEEDS_FOR_UI_ICON_COMPONENT__">
<path d="M15.75 9.00001H8.25C7.25578 9.00114 6.30261 9.39659 5.5996 10.0996C4.89658 10.8026 4.50113 11.7558 4.5 12.75V13.5C4.50113 14.4942 4.89658 15.4474 5.5996 16.1504C6.30261 16.8534 7.25578 17.2489 8.25 17.25H15.75C16.7442 17.2489 17.6974 16.8534 18.4004 16.1504C19.1034 15.4474 19.4989 14.4942 19.5 13.5V12.75C19.4989 11.7558 19.1034 10.8026 18.4004 10.0996C17.6974 9.39659 16.7442 9.00114 15.75 9.00001ZM18 13.5C17.9993 14.0965 17.762 14.6684 17.3402 15.0902C16.9184 15.5121 16.3465 15.7493 15.75 15.75H8.25C7.65347 15.7493 7.08157 15.5121 6.65976 15.0902C6.23795 14.6684 6.00068 14.0965 6 13.5V12.75C6.00068 12.1535 6.23795 11.5816 6.65976 11.1598C7.08157 10.738 7.65347 10.5007 8.25 10.5H15.75C16.3465 10.5007 16.9184 10.738 17.3402 11.1598C17.762 11.5816 17.9993 12.1535 18 12.75V13.5ZM16.5 13.125C16.5 13.3475 16.434 13.565 16.3104 13.75C16.1868 13.935 16.0111 14.0792 15.8055 14.1644C15.6 14.2495 15.3738 14.2718 15.1555 14.2284C14.9373 14.185 14.7368 14.0778 14.5795 13.9205C14.4222 13.7632 14.315 13.5627 14.2716 13.3445C14.2282 13.1263 14.2505 12.9001 14.3356 12.6945C14.4208 12.4889 14.565 12.3132 14.75 12.1896C14.935 12.066 15.1525 12 15.375 12C15.6733 12.0003 15.9592 12.119 16.1701 12.3299C16.381 12.5408 16.4997 12.8267 16.5 13.125ZM9.75 13.125C9.75 13.3475 9.68402 13.565 9.5604 13.75C9.43679 13.935 9.26109 14.0792 9.05552 14.1644C8.84995 14.2495 8.62375 14.2718 8.40552 14.2284C8.18729 14.185 7.98684 14.0778 7.8295 13.9205C7.67217 13.7632 7.56502 13.5627 7.52162 13.3445C7.47821 13.1263 7.50049 12.9001 7.58564 12.6945C7.67078 12.4889 7.81498 12.3132 7.99998 12.1896C8.18499 12.066 8.4025 12 8.625 12C8.92327 12.0003 9.20922 12.119 9.42013 12.3299C9.63103 12.5408 9.74967 12.8267 9.75 13.125ZM19.5 3.00001C18.8351 3.00086 18.1892 3.22218 17.6635 3.62932C17.1379 4.03646 16.762 4.60644 16.5949 5.25001H7.40511C7.22252 4.54301 6.78836 3.92686 6.184 3.51705C5.57964 3.10725 4.84657 2.93191 4.12219 3.02392C3.39781 3.11592 2.73185 3.46894 2.24912 4.01682C1.7664 4.56469 1.50005 5.26981 1.5 6.00001V13.5C1.50202 15.2896 2.21382 17.0053 3.47926 18.2708C4.74469 19.5362 6.46041 20.248 8.25 20.25H15.75C17.5396 20.248 19.2553 19.5362 20.5207 18.2708C21.7862 17.0053 22.498 15.2896 22.5 13.5V6.00001C22.4991 5.20464 22.1827 4.4421 21.6203 3.87968C21.0579 3.31727 20.2954 3.00091 19.5 3.00001ZM21 13.5C20.9984 14.8919 20.4448 16.2264 19.4606 17.2106C18.4764 18.1948 17.1419 18.7484 15.75 18.75H8.25C6.85809 18.7484 5.52365 18.1948 4.53942 17.2106C3.5552 16.2264 3.00157 14.8919 3 13.5V6.00001C3 5.60218 3.15804 5.22065 3.43934 4.93935C3.72064 4.65804 4.10218 4.50001 4.5 4.50001C4.89782 4.50001 5.27936 4.65804 5.56066 4.93935C5.84196 5.22065 6 5.60218 6 6.00001C6 6.19892 6.07902 6.38968 6.21967 6.53034C6.36032 6.67099 6.55109 6.75001 6.75 6.75001H17.25C17.4489 6.75 17.6397 6.67098 17.7803 6.53033C17.921 6.38968 18 6.19892 18 6.00001C18 5.60218 18.158 5.22065 18.4393 4.93935C18.7206 4.65804 19.1022 4.50001 19.5 4.50001C19.8978 4.50001 20.2794 4.65804 20.5607 4.93935C20.842 5.22065 21 5.60218 21 6.00001V13.5Z" fill="#1D1F21" style="fill: var(--ui-icon-primary-color);"/>
</svg>
