<svg  viewBox="0 0 24 24" fill="none" xmlns="http://www.w3.org/2000/svg" id="__THIS_ID_NEEDS_FOR_UI_ICON_COMPONENT__">
<path d="M12 22.5C9.81272 22.4975 7.71574 21.6275 6.1691 20.0809C4.62246 18.5343 3.75247 16.4373 3.75 14.25C3.75 12.0734 4.47029 9.83973 5.89082 7.61088C5.94678 7.52308 6.0204 7.4479 6.107 7.39011C6.1936 7.33233 6.29129 7.29321 6.39384 7.27524C6.49638 7.25728 6.60155 7.26086 6.70264 7.28577C6.80373 7.31067 6.89852 7.35635 6.98099 7.4199L9.39555 9.28016L12.0451 1.99366C12.0855 1.88254 12.1517 1.78255 12.2381 1.70185C12.3245 1.62115 12.4288 1.56202 12.5424 1.5293C12.656 1.49657 12.7758 1.49118 12.8919 1.51355C13.008 1.53592 13.1171 1.58543 13.2105 1.65803C13.4979 1.88151 20.25 7.21409 20.25 14.25C20.2475 16.4373 19.3775 18.5343 17.8309 20.0809C16.2843 21.6275 14.1873 22.4975 12 22.5ZM6.73228 9.12177C5.74823 10.8654 5.25 12.5873 5.25 14.25C5.25 16.0402 5.96116 17.7571 7.22703 19.023C8.4929 20.2888 10.2098 21 12 21C13.7902 21 15.5071 20.2888 16.773 19.023C18.0388 17.7571 18.75 16.0402 18.75 14.25C18.75 9.3079 14.8081 5.12559 13.0821 3.53148L10.4549 10.7564C10.4146 10.8672 10.3487 10.967 10.2626 11.0476C10.1765 11.1282 10.0725 11.1874 9.95928 11.2203C9.84602 11.2532 9.72659 11.2589 9.61069 11.237C9.4948 11.215 9.38571 11.1661 9.29228 11.0941L6.73228 9.12177Z" fill="#1D1F21" style="fill: var(--ui-icon-primary-color);"/>
</svg>
