<svg  viewBox="0 0 24 24" fill="none" xmlns="http://www.w3.org/2000/svg" id="__THIS_ID_NEEDS_FOR_UI_ICON_COMPONENT__">
<path d="M20.25 8.25H15.75V3.75C15.7495 3.35231 15.5914 2.97105 15.3102 2.68984C15.029 2.40864 14.6477 2.25045 14.25 2.25H9.75C9.35231 2.25045 8.97105 2.40864 8.68984 2.68984C8.40864 2.97105 8.25045 3.35231 8.25 3.75V8.25H3.75C3.35231 8.25045 2.97105 8.40864 2.68984 8.68984C2.40864 8.97105 2.25045 9.35231 2.25 9.75V14.25C2.25045 14.6477 2.40864 15.029 2.68984 15.3102C2.97105 15.5914 3.35231 15.7495 3.75 15.75H8.25V20.25C8.25045 20.6477 8.40864 21.029 8.68984 21.3102C8.97105 21.5914 9.35231 21.7495 9.75 21.75H14.25C14.6477 21.7495 15.029 21.5914 15.3102 21.3102C15.5914 21.029 15.7495 20.6477 15.75 20.25V15.75H20.25C20.6477 15.7495 21.029 15.5914 21.3102 15.3102C21.5914 15.029 21.7495 14.6477 21.75 14.25V9.75C21.7495 9.35231 21.5914 8.97105 21.3102 8.68984C21.029 8.40864 20.6477 8.25045 20.25 8.25ZM20.25 14.25H15C14.8011 14.25 14.6103 14.329 14.4697 14.4697C14.329 14.6103 14.25 14.8011 14.25 15V20.25H9.75V15C9.75 14.8011 9.67098 14.6103 9.53033 14.4697C9.38968 14.329 9.19891 14.25 9 14.25H3.75V9.75H9C9.19891 9.75 9.38968 9.67098 9.53033 9.53033C9.67098 9.38968 9.75 9.19891 9.75 9V3.75H14.25V9C14.25 9.19891 14.329 9.38968 14.4697 9.53033C14.6103 9.67098 14.8011 9.75 15 9.75H20.25V14.25Z" fill="#1D1F21" style="fill: var(--ui-icon-primary-color);"/>
</svg>
