<svg  viewBox="0 0 24 24" fill="none" xmlns="http://www.w3.org/2000/svg" id="__THIS_ID_NEEDS_FOR_UI_ICON_COMPONENT__">
<path d="M20.5854 3.83015C20.4608 3.76781 20.3214 3.74141 20.1826 3.75391C20.0439 3.76641 19.9114 3.81732 19.8 3.90092C17.1469 5.89082 14.8985 4.92723 12.2954 3.81157C9.64749 2.67677 6.64658 1.391 3.29996 3.90092C3.29552 3.90424 3.29167 3.90802 3.28737 3.9114C3.27698 3.91955 3.26695 3.92797 3.25702 3.93665C3.24773 3.94477 3.23853 3.95297 3.22974 3.96146C3.22155 3.96936 3.21367 3.97753 3.20584 3.98579C3.19646 3.99568 3.18721 4.00561 3.17847 4.01591C3.17183 4.02374 3.16556 4.03182 3.15924 4.0399C3.15055 4.05102 3.14194 4.06219 3.13397 4.07373C3.12802 4.08224 3.12258 4.09103 3.11699 4.0998C3.10976 4.11126 3.10253 4.12271 3.09593 4.13452C3.0903 4.14454 3.08518 4.15486 3.08 4.16519C3.07456 4.17613 3.06902 4.18702 3.06412 4.19817C3.0589 4.20998 3.05428 4.22209 3.04965 4.2342C3.04576 4.24443 3.04183 4.25463 3.03839 4.265C3.03414 4.27785 3.03052 4.29094 3.02695 4.3041C3.02411 4.31449 3.02127 4.32483 3.01889 4.33534C3.01605 4.34802 3.01372 4.36091 3.01152 4.37384C3.00951 4.38558 3.00759 4.3973 3.00612 4.40913C3.0047 4.42078 3.00369 4.4325 3.00278 4.44431C3.00177 4.45797 3.00104 4.47164 3.00072 4.48535C3.00062 4.49061 2.99994 4.49569 2.99994 4.50096V20.251C2.99994 20.4499 3.07896 20.6406 3.21961 20.7813C3.36026 20.9219 3.55103 21.001 3.74994 21.001C3.94885 21.001 4.13962 20.9219 4.28027 20.7813C4.42092 20.6406 4.49994 20.4499 4.49994 20.251V16.1385C7.02391 14.4358 9.20012 15.367 11.7045 16.4403C13.2292 17.0938 14.8709 17.7974 16.6285 17.7973C17.923 17.7973 19.2804 17.4156 20.6999 16.351C20.7931 16.2811 20.8687 16.1905 20.9207 16.0864C20.9728 15.9822 20.9999 15.8674 20.9999 15.751V4.50096C20.9999 4.36168 20.9612 4.22515 20.8879 4.10668C20.8147 3.9882 20.71 3.89245 20.5854 3.83015ZM19.4999 15.3647C16.9757 17.0676 14.7999 16.1349 12.2954 15.0616C9.96802 14.0641 7.36783 12.9505 4.49994 14.3998V4.88855C7.02391 3.1858 9.20012 4.11701 11.7045 5.19035C14.0318 6.18763 16.6318 7.30174 19.4999 5.85255V15.3647Z" fill="#1D1F21" style="fill: var(--ui-icon-primary-color);"/>
</svg>
