<svg  viewBox="0 0 24 24" fill="none" xmlns="http://www.w3.org/2000/svg" id="__THIS_ID_NEEDS_FOR_UI_ICON_COMPONENT__">
<path d="M17.2502 1.5H6.75024C6.35256 1.50045 5.97129 1.65864 5.69009 1.93984C5.40888 2.22105 5.2507 2.60231 5.25024 3V7.24997C5.25092 7.57443 5.35612 7.89005 5.55026 8.15002L7.50024 10.75V21C7.5007 21.3977 7.65888 21.779 7.94009 22.0602C8.22129 22.3414 8.60256 22.4995 9.00024 22.5H15.0002C15.3979 22.4995 15.7792 22.3414 16.0604 22.0602C16.3416 21.779 16.4998 21.3977 16.5002 21L16.5001 10.7499L18.4504 8.14993C18.6444 7.88994 18.7496 7.57438 18.7502 7.24997V3C18.7498 2.60232 18.5916 2.22105 18.3104 1.93984C18.0292 1.65864 17.6479 1.50046 17.2502 1.5ZM6.75024 3H17.2502L17.2503 5.25H6.74983L6.74933 3H6.75024ZM15.3001 9.85007C15.1061 10.1101 15.0009 10.4256 15.0002 10.75V21H9.00024V10.75C8.99957 10.4256 8.89437 10.11 8.70023 9.84998L6.75024 7.24997L6.75015 6.75H17.2503V7.25006L15.3001 9.85007ZM12.7502 11.25V14.25C12.7502 14.4489 12.6712 14.6397 12.5306 14.7803C12.3899 14.921 12.1992 15 12.0002 15C11.8013 15 11.6106 14.921 11.4699 14.7803C11.3293 14.6397 11.2502 14.4489 11.2502 14.25V11.25C11.2502 11.0511 11.3293 10.8603 11.4699 10.7197C11.6106 10.579 11.8013 10.5 12.0002 10.5C12.1992 10.5 12.3899 10.579 12.5306 10.7197C12.6712 10.8603 12.7502 11.0511 12.7502 11.25Z" fill="#1D1F21" style="fill: var(--ui-icon-primary-color);"/>
</svg>
