<svg  viewBox="0 0 24 24" fill="none" xmlns="http://www.w3.org/2000/svg" id="__THIS_ID_NEEDS_FOR_UI_ICON_COMPONENT__">
<path d="M20.5607 7.49952L16.5001 3.43906C16.3612 3.29927 16.1959 3.18843 16.0138 3.11298C15.8317 3.03753 15.6365 2.99897 15.4394 2.99952H4.5C4.10231 2.99997 3.72105 3.15815 3.43984 3.43936C3.15864 3.72057 3.00045 4.10183 3 4.49952V19.4995C3.00045 19.8972 3.15864 20.2785 3.43984 20.5597C3.72105 20.8409 4.10231 20.9991 4.5 20.9995H19.5C19.8977 20.9991 20.279 20.8409 20.5602 20.5597C20.8414 20.2785 20.9995 19.8972 21 19.4995V8.56025C21.0005 8.36318 20.962 8.16796 20.8866 7.98589C20.8112 7.80382 20.7004 7.6385 20.5607 7.49952ZM19.5 8.56025V19.4995H4.5V4.49952L8.25 4.49954V9.00043C8.25001 9.19934 8.32903 9.3901 8.46968 9.53075C8.61033 9.6714 8.80109 9.75042 9 9.75043H15C15.1989 9.75043 15.3897 9.67142 15.5303 9.53076C15.671 9.39011 15.75 9.19935 15.75 9.00043C15.75 8.80152 15.671 8.61076 15.5303 8.4701C15.3897 8.32945 15.1989 8.25043 15 8.25043H9.75V4.49956L15.4393 4.49961L19.5 8.56025V8.56015V8.56025ZM12.0005 11.2504C11.333 11.2504 10.6805 11.4484 10.1255 11.8192C9.57048 12.1901 9.1379 12.7172 8.88246 13.3339C8.62701 13.9506 8.56017 14.6292 8.6904 15.2839C8.82062 15.9385 9.14206 16.5399 9.61406 17.0119C10.0861 17.4839 10.6874 17.8054 11.3421 17.9356C11.9968 18.0658 12.6754 17.999 13.2921 17.7435C13.9088 17.4881 14.4359 17.0555 14.8068 16.5005C15.1776 15.9455 15.3755 15.2929 15.3755 14.6254C15.3745 13.7306 15.0186 12.8728 14.3859 12.2401C13.7532 11.6073 12.8953 11.2514 12.0005 11.2504ZM12.0005 16.5004C11.6297 16.5004 11.2672 16.3905 10.9589 16.1844C10.6505 15.9784 10.4102 15.6856 10.2683 15.343C10.1264 15.0004 10.0892 14.6234 10.1616 14.2596C10.2339 13.8959 10.4125 13.5618 10.6747 13.2996C10.9369 13.0374 11.271 12.8588 11.6348 12.7865C11.9985 12.7141 12.3755 12.7512 12.7181 12.8932C13.0607 13.0351 13.3535 13.2754 13.5596 13.5837C13.7656 13.8921 13.8755 14.2546 13.8755 14.6254C13.875 15.1225 13.6773 15.5991 13.3258 15.9506C12.9743 16.3022 12.4977 16.4999 12.0005 16.5004Z" fill="#1D1F21" style="fill: var(--ui-icon-primary-color);"/>
</svg>
