<svg  viewBox="0 0 24 24" fill="none" xmlns="http://www.w3.org/2000/svg" id="__THIS_ID_NEEDS_FOR_UI_ICON_COMPONENT__">
<path d="M20.25 6.75H12.25L9.64998 4.8C9.39003 4.60588 9.07445 4.50068 8.75002 4.5H3.75C3.35231 4.50045 2.97104 4.65863 2.68984 4.93984C2.40863 5.22104 2.25045 5.60231 2.25 6V18.75C2.25045 19.1477 2.40864 19.529 2.68984 19.8102C2.97105 20.0914 3.35231 20.2495 3.75 20.25H20.25C20.6477 20.2495 21.029 20.0914 21.3102 19.8102C21.5914 19.529 21.7495 19.1477 21.75 18.75V8.25C21.7495 7.85231 21.5914 7.47104 21.3102 7.18984C21.029 6.90863 20.6477 6.75045 20.25 6.75ZM8.75002 9H3.75V6H8.75002L10.75 7.5L8.75002 9ZM20.25 18.75H3.75V10.5H8.75002C9.07447 10.4993 9.39006 10.3941 9.65002 10.2L12.25 8.25H20.25V18.75Z" fill="#1D1F21" style="fill: var(--ui-icon-primary-color);"/>
</svg>
