<svg  viewBox="0 0 24 24" fill="none" xmlns="http://www.w3.org/2000/svg" id="__THIS_ID_NEEDS_FOR_UI_ICON_COMPONENT__">
<path d="M20.25 6.75H12.25L9.64998 4.80002C9.39004 4.60587 9.07445 4.50067 8.75002 4.5H3.75C3.35231 4.50045 2.97105 4.65864 2.68984 4.93984C2.40864 5.22105 2.25045 5.60231 2.25 6V18.75C2.25045 19.1477 2.40864 19.529 2.68984 19.8102C2.97105 20.0914 3.35231 20.2495 3.75 20.25H20.3333C20.7089 20.2496 21.069 20.1002 21.3346 19.8346C21.6002 19.569 21.7496 19.2089 21.75 18.8333V8.25C21.7495 7.85231 21.5914 7.47105 21.3102 7.18984C21.029 6.90864 20.6477 6.75045 20.25 6.75ZM20.25 18.75H3.75V6H8.75002L11.35 7.94998C11.61 8.14413 11.9255 8.24933 12.25 8.25L20.25 8.24904L20.25 8.25V18.75ZM15 13.5C15 13.5985 14.9806 13.696 14.9429 13.787C14.9052 13.878 14.85 13.9607 14.7803 14.0303C14.7107 14.1 14.628 14.1552 14.537 14.1929C14.446 14.2306 14.3485 14.25 14.25 14.25H12.75V15.75C12.75 15.9489 12.671 16.1397 12.5303 16.2803C12.3897 16.421 12.1989 16.5 12 16.5C11.8011 16.5 11.6103 16.421 11.4697 16.2803C11.329 16.1397 11.25 15.9489 11.25 15.75V14.25H9.75C9.55109 14.25 9.36032 14.171 9.21967 14.0303C9.07902 13.8897 9 13.6989 9 13.5C9 13.3011 9.07902 13.1103 9.21967 12.9697C9.36032 12.829 9.55109 12.75 9.75 12.75H11.25V11.25C11.25 11.0511 11.329 10.8603 11.4697 10.7197C11.6103 10.579 11.8011 10.5 12 10.5C12.1989 10.5 12.3897 10.579 12.5303 10.7197C12.671 10.8603 12.75 11.0511 12.75 11.25V12.75H14.25C14.3485 12.75 14.446 12.7694 14.537 12.8071C14.628 12.8448 14.7107 12.9 14.7803 12.9697C14.85 13.0393 14.9052 13.122 14.9429 13.213C14.9806 13.304 15 13.4015 15 13.5Z" fill="#1D1F21" style="fill: var(--ui-icon-primary-color);"/>
</svg>
