<svg  viewBox="0 0 24 24" fill="none" xmlns="http://www.w3.org/2000/svg" id="__THIS_ID_NEEDS_FOR_UI_ICON_COMPONENT__">
<path d="M15 13.5C15 13.5985 14.9806 13.696 14.9429 13.787C14.9052 13.878 14.85 13.9607 14.7803 14.0303C14.7107 14.1 14.628 14.1552 14.537 14.1929C14.446 14.2306 14.3485 14.25 14.25 14.25H9.75C9.55109 14.25 9.36032 14.171 9.21967 14.0303C9.07902 13.8897 9 13.6989 9 13.5C9 13.3011 9.07902 13.1103 9.21967 12.9697C9.36032 12.829 9.55109 12.75 9.75 12.75H14.25C14.3485 12.75 14.446 12.7694 14.537 12.8071C14.628 12.8448 14.7107 12.9 14.7803 12.9697C14.85 13.0393 14.9052 13.122 14.9429 13.213C14.9806 13.304 15 13.4015 15 13.5ZM21.75 8.25V18.8333C21.7496 19.2089 21.6002 19.569 21.3346 19.8346C21.069 20.1002 20.7089 20.2496 20.3333 20.25H3.75C3.35231 20.2495 2.97105 20.0914 2.68984 19.8102C2.40864 19.529 2.25045 19.1477 2.25 18.75V6C2.25045 5.60231 2.40864 5.22105 2.68984 4.93984C2.97105 4.65864 3.35231 4.50045 3.75 4.5H8.75002C9.07445 4.50067 9.39004 4.60587 9.64998 4.80002L12.25 6.75H20.25C20.6477 6.75045 21.029 6.90864 21.3102 7.18984C21.5914 7.47105 21.7495 7.85231 21.75 8.25ZM20.25 8.25L20.25 8.24904L12.25 8.25C11.9255 8.24933 11.61 8.14413 11.35 7.94998L8.75002 6H3.75V18.75H20.25V8.25Z" fill="#1D1F21" style="fill: var(--ui-icon-primary-color);"/>
</svg>
