<svg  viewBox="0 0 24 24" fill="none" xmlns="http://www.w3.org/2000/svg" id="__THIS_ID_NEEDS_FOR_UI_ICON_COMPONENT__">
<path d="M20.25 6.75001H12.3107L9.75005 4.18937C9.61108 4.04964 9.44578 3.93886 9.26371 3.86344C9.08165 3.78803 8.88643 3.74947 8.68936 3.75001H3.75C3.35231 3.75046 2.97105 3.90864 2.68984 4.18985C2.40864 4.47105 2.25045 4.85232 2.25 5.25001V18.8077C2.25043 19.1901 2.40252 19.5567 2.67292 19.8271C2.94331 20.0975 3.30993 20.2496 3.69232 20.25H20.3333C20.7089 20.2496 21.069 20.1002 21.3346 19.8346C21.6002 19.569 21.7496 19.2089 21.75 18.8333V8.25001C21.7495 7.85232 21.5914 7.47105 21.3102 7.18985C21.029 6.90864 20.6477 6.75046 20.25 6.75001ZM8.68936 5.25001L10.1893 6.75001H3.75V5.25001H8.68936ZM20.25 18.75H3.75V8.25001H20.25V18.75Z" fill="#1D1F21" style="fill: var(--ui-icon-primary-color);"/>
</svg>
