<svg  viewBox="0 0 24 24" fill="none" xmlns="http://www.w3.org/2000/svg" id="__THIS_ID_NEEDS_FOR_UI_ICON_COMPONENT__">
<path d="M20.25 6.75H12.25L9.64998 4.80002C9.39003 4.60589 9.07445 4.50069 8.75002 4.5H3.75C3.35231 4.50045 2.97105 4.65864 2.68984 4.93984C2.40864 5.22105 2.25045 5.60231 2.25 6V18.75C2.25045 19.1477 2.40864 19.529 2.68984 19.8102C2.97105 20.0914 3.35231 20.2495 3.75 20.25H20.25C20.6477 20.2495 21.029 20.0914 21.3102 19.8102C21.5914 19.529 21.7495 19.1477 21.75 18.75V8.25C21.7495 7.85231 21.5914 7.47105 21.3102 7.18984C21.029 6.90864 20.6477 6.75045 20.25 6.75ZM8.75002 9H3.75V6H8.75002L10.75 7.5L8.75002 9ZM20.25 18.75H3.75V10.5H8.75002C9.07446 10.4993 9.39006 10.3941 9.65002 10.2L12.25 8.25H20.25V18.75ZM12.7497 11.625V13.125H14.2497C14.4486 13.125 14.6394 13.204 14.7801 13.3447C14.9207 13.4853 14.9997 13.6761 14.9997 13.875C14.9997 14.0739 14.9207 14.2647 14.7801 14.4053C14.6394 14.546 14.4486 14.625 14.2497 14.625H12.7497V16.125C12.7497 16.3239 12.6707 16.5147 12.5301 16.6553C12.3894 16.796 12.1986 16.875 11.9997 16.875C11.8008 16.875 11.61 16.796 11.4694 16.6553C11.3287 16.5147 11.2497 16.3239 11.2497 16.125V14.625H9.74973C9.55081 14.625 9.36005 14.546 9.2194 14.4053C9.07874 14.2647 8.99973 14.0739 8.99973 13.875C8.99973 13.6761 9.07874 13.4853 9.2194 13.3447C9.36005 13.204 9.55081 13.125 9.74973 13.125H11.2497V11.625C11.2497 11.4261 11.3287 11.2353 11.4694 11.0947C11.61 10.954 11.8008 10.875 11.9997 10.875C12.1986 10.875 12.3894 10.954 12.5301 11.0947C12.6707 11.2353 12.7497 11.4261 12.7497 11.625Z" fill="#1D1F21" style="fill: var(--ui-icon-primary-color);"/>
</svg>
