<svg  viewBox="0 0 24 24" fill="none" xmlns="http://www.w3.org/2000/svg" id="__THIS_ID_NEEDS_FOR_UI_ICON_COMPONENT__">
<path d="M22.6763 10.3729C22.5371 10.1803 22.3543 10.0235 22.1427 9.91518C21.9312 9.8069 21.697 9.7503 21.4594 9.75H20.25V8.25C20.2495 7.85231 20.0914 7.47105 19.8102 7.18984C19.529 6.90864 19.1477 6.75045 18.75 6.75H12.25L9.64998 4.79997C9.39002 4.60588 9.07444 4.50069 8.75002 4.5H3.75C3.35231 4.50045 2.97105 4.65864 2.68984 4.93984C2.40864 5.22105 2.25045 5.60231 2.25 6V19.5C2.25 19.5048 2.25064 19.5094 2.25073 19.5142C2.25092 19.5247 2.25165 19.5352 2.25229 19.5457C2.25339 19.5636 2.25494 19.5813 2.25723 19.5988C2.25851 19.6083 2.25998 19.6177 2.26158 19.6272C2.26488 19.6465 2.26895 19.6653 2.27371 19.6841C2.27563 19.6918 2.27742 19.6995 2.27962 19.7071C2.28607 19.7296 2.29355 19.7516 2.30205 19.7731C2.30356 19.777 2.30475 19.781 2.30635 19.7848C2.31707 19.8111 2.3293 19.8367 2.34297 19.8615C2.34435 19.864 2.34599 19.8663 2.34741 19.8689C2.3595 19.8902 2.37259 19.9109 2.38669 19.9308C2.38848 19.9333 2.38981 19.9361 2.39159 19.9385C2.39484 19.9431 2.39873 19.947 2.40212 19.9514C2.41365 19.9667 2.42565 19.9815 2.43828 19.9958C2.44465 20.003 2.45096 20.0101 2.45756 20.017C2.47088 20.031 2.48484 20.0443 2.49921 20.0572C2.50521 20.0625 2.51088 20.0682 2.51702 20.0733C2.53786 20.0911 2.55965 20.1076 2.5823 20.1229L2.58372 20.1237C2.60609 20.1386 2.62926 20.1522 2.65311 20.1646C2.65911 20.1677 2.66529 20.1704 2.67133 20.1734C2.6901 20.1825 2.70919 20.191 2.72874 20.1986C2.73615 20.2015 2.74357 20.2041 2.75103 20.2068C2.76993 20.2134 2.78914 20.2193 2.80866 20.2244C2.81653 20.2265 2.82436 20.2287 2.83229 20.2305C2.85238 20.2351 2.8728 20.2386 2.89344 20.2416C2.90086 20.2426 2.90814 20.2441 2.9156 20.245C2.94362 20.2482 2.97179 20.2499 3 20.25H19.5C19.6574 20.25 19.8108 20.2005 19.9385 20.1084C20.0662 20.0164 20.1617 19.8865 20.2115 19.7372L22.8825 11.7243C22.9573 11.4988 22.9777 11.2588 22.9418 11.0238C22.906 10.7889 22.815 10.5659 22.6763 10.3729ZM8.75002 6L11.35 7.95003C11.61 8.14412 11.9256 8.24931 12.25 8.25H18.75V9.75H6.54057C6.22568 9.74971 5.91869 9.84865 5.66323 10.0328C5.40778 10.2169 5.21683 10.4768 5.11752 10.7757L3.75 14.8783V6H8.75002ZM18.9594 18.75H4.04059L6.54057 11.25H21.4594L18.9594 18.75Z" fill="#1D1F21" style="fill: var(--ui-icon-primary-color);"/>
</svg>
