<svg  viewBox="0 0 24 24" fill="none" xmlns="http://www.w3.org/2000/svg" id="__THIS_ID_NEEDS_FOR_UI_ICON_COMPONENT__">
<path d="M21 6H14.5L11.9 4.05002C11.64 3.85587 11.3245 3.75067 11 3.75H6.75C6.35231 3.75045 5.97105 3.90864 5.68984 4.18984C5.40864 4.47105 5.25045 4.85231 5.25 5.25V6.75H3.75C3.35231 6.75045 2.97105 6.90864 2.68984 7.18984C2.40864 7.47105 2.25045 7.85231 2.25 8.25V18.75C2.25045 19.1477 2.40864 19.529 2.68984 19.8102C2.97105 20.0914 3.35231 20.2495 3.75 20.25H18.0833C18.4589 20.2496 18.819 20.1002 19.0846 19.8346C19.3502 19.569 19.4996 19.2089 19.5 18.8333V17.25H21.0833C21.4589 17.2496 21.819 17.1002 22.0846 16.8346C22.3502 16.569 22.4996 16.2089 22.5 15.8333V7.5C22.4995 7.10231 22.3414 6.72105 22.0602 6.43984C21.779 6.15864 21.3977 6.00045 21 6ZM18 18.75H3.75V8.25H8.00002L10.6 10.2C10.86 10.3941 11.1755 10.4993 11.5 10.5L18 10.499L18 10.5V18.75ZM21 15.75H19.5V10.5C19.4995 10.1023 19.3414 9.72105 19.0602 9.43984C18.779 9.15864 18.3977 9.00045 18 9H11.5L8.89998 7.05002C8.64004 6.85587 8.32445 6.75067 8.00002 6.75H6.75V5.25H11L13.6 7.19998C13.86 7.39413 14.1755 7.49933 14.5 7.5H21V15.75Z" fill="#1D1F21" style="fill: var(--ui-icon-primary-color);"/>
</svg>
