<svg  viewBox="0 0 24 24" fill="none" xmlns="http://www.w3.org/2000/svg" id="__THIS_ID_NEEDS_FOR_UI_ICON_COMPONENT__">
<path d="M20.3333 20.25H3.75C3.35231 20.2495 2.97105 20.0914 2.68984 19.8102C2.40863 19.529 2.25045 19.1477 2.25 18.75V6C2.25045 5.60231 2.40863 5.22105 2.68984 4.93984C2.97105 4.65863 3.35231 4.50045 3.75 4.5H8.75C9.07445 4.50066 9.39004 4.60587 9.64999 4.80002L12.25 6.75H20.25C20.6477 6.75045 21.029 6.90863 21.3102 7.18984C21.5914 7.47105 21.7495 7.85231 21.75 8.25V18.8333C21.7496 19.2089 21.6002 19.569 21.3346 19.8346C21.069 20.1002 20.7089 20.2496 20.3333 20.25ZM3.75 6V18.75H20.25V8.25L20.25 8.24904L12.25 8.25C11.9256 8.24934 11.61 8.14413 11.35 7.94998L8.75 6H3.75Z" fill="#1D1F21" style="fill: var(--ui-icon-primary-color);"/>
</svg>
