<svg  viewBox="0 0 24 24" fill="none" xmlns="http://www.w3.org/2000/svg" id="__THIS_ID_NEEDS_FOR_UI_ICON_COMPONENT__">
<path d="M7.125 6.75048V3.00048C7.125 2.80157 7.20402 2.6108 7.34467 2.47015C7.48532 2.3295 7.67609 2.25048 7.875 2.25048C8.07391 2.25048 8.26468 2.3295 8.40533 2.47015C8.54598 2.6108 8.625 2.80157 8.625 3.00048V6.75048C8.625 6.94939 8.54598 7.14016 8.40533 7.28081C8.26468 7.42146 8.07391 7.50048 7.875 7.50048C7.67609 7.50048 7.48532 7.42146 7.34467 7.28081C7.20402 7.14016 7.125 6.94939 7.125 6.75048ZM11.2398 2.87716C11.2237 2.77996 11.1885 2.68689 11.1364 2.60327C11.0843 2.51965 11.0162 2.44712 10.936 2.38983C10.8559 2.33253 10.7652 2.2916 10.6692 2.26936C10.5732 2.24712 10.4738 2.24401 10.3766 2.26021C10.2794 2.27641 10.1864 2.3116 10.1028 2.36378C10.0192 2.41595 9.94671 2.48409 9.88947 2.56429C9.83222 2.64449 9.79135 2.73518 9.76917 2.83118C9.74699 2.92719 9.74394 3.02662 9.76021 3.1238L10.4994 7.55871C10.4841 8.24465 10.201 8.89737 9.71046 9.37711C9.21995 9.85685 8.56111 10.1255 7.875 10.1255C7.18889 10.1255 6.53005 9.85685 6.03954 9.37711C5.54904 8.89737 5.26586 8.24465 5.25064 7.55871L5.98979 3.1238C6.00606 3.02662 6.00301 2.92719 5.98083 2.83118C5.95866 2.73518 5.91778 2.64449 5.86053 2.56429C5.80329 2.48409 5.73081 2.41595 5.64722 2.36378C5.56364 2.3116 5.47059 2.27641 5.3734 2.26021C5.27621 2.24401 5.17678 2.24712 5.08079 2.26936C4.9848 2.2916 4.89413 2.33253 4.81397 2.38983C4.73381 2.44712 4.66572 2.51965 4.6136 2.60327C4.56148 2.68689 4.52635 2.77996 4.51021 2.87716L3.76021 7.37716C3.7534 7.41791 3.74999 7.45916 3.75 7.50048C3.75135 8.46394 4.08942 9.39663 4.70573 10.1372C5.32204 10.8777 6.17781 11.3796 7.125 11.5559V21.0005C7.125 21.1994 7.20402 21.3902 7.34467 21.5308C7.48532 21.6715 7.67609 21.7505 7.875 21.7505C8.07391 21.7505 8.26468 21.6715 8.40533 21.5308C8.54598 21.3902 8.625 21.1994 8.625 21.0005V11.5559C9.57219 11.3796 10.428 10.8777 11.0443 10.1372C11.6606 9.39663 11.9986 8.46394 12 7.50048C12 7.45916 11.9966 7.41791 11.9898 7.37716L11.2398 2.87716ZM19.875 3.00048V21.0005C19.875 21.1994 19.796 21.3902 19.6553 21.5308C19.5147 21.6715 19.3239 21.7505 19.125 21.7505C18.9261 21.7505 18.7353 21.6715 18.5947 21.5308C18.454 21.3902 18.375 21.1994 18.375 21.0005V15.7505H13.875C13.7698 15.7505 13.6657 15.7283 13.5696 15.6855C13.4735 15.6426 13.3875 15.58 13.3171 15.5017C13.2468 15.4235 13.1937 15.3313 13.1614 15.2311C13.129 15.131 13.1181 15.0252 13.1293 14.9206C13.3552 13.0413 13.7237 11.1819 14.2315 9.35854C15.3585 5.38103 16.9187 3.00474 18.8687 2.29562C18.982 2.25441 19.1035 2.24113 19.2231 2.25689C19.3426 2.27265 19.4565 2.31699 19.5553 2.38616C19.654 2.45532 19.7346 2.54727 19.7903 2.65421C19.846 2.76115 19.875 2.87993 19.875 3.00048ZM18.375 4.34653C17.3373 5.30797 16.4168 7.14837 15.6747 9.76742C15.2664 11.2405 14.9511 12.7378 14.7306 14.2505H18.375V4.34653Z" fill="#1D1F21" style="fill: var(--ui-icon-primary-color);"/>
</svg>
