<svg  viewBox="0 0 24 24" fill="none" xmlns="http://www.w3.org/2000/svg" id="__THIS_ID_NEEDS_FOR_UI_ICON_COMPONENT__">
<path d="M19.5 9.375V3C19.5 2.80109 19.421 2.61032 19.2803 2.46967C19.1397 2.32902 18.9489 2.25 18.75 2.25H5.25C5.09984 2.25 4.95314 2.29507 4.82889 2.37939C4.70463 2.4637 4.60855 2.58337 4.55307 2.7229C4.49759 2.86244 4.48527 3.01541 4.51771 3.16202C4.55015 3.30864 4.62585 3.44214 4.73502 3.54524L10.1136 8.625H5.25C5.15151 8.625 5.05398 8.64439 4.96298 8.68208C4.87199 8.71977 4.78931 8.77502 4.71966 8.84466C4.65002 8.91431 4.59477 8.99699 4.55708 9.08798C4.51939 9.17898 4.5 9.27651 4.5 9.375V15.75C4.5 15.8521 4.52084 15.9531 4.56125 16.0469C4.60166 16.1406 4.66079 16.2251 4.73502 16.2952L11.485 22.6702C11.5915 22.7709 11.7252 22.8381 11.8695 22.8636C12.0137 22.8891 12.1623 22.8718 12.2969 22.8138C12.4314 22.7558 12.546 22.6596 12.6266 22.5372C12.7071 22.4148 12.75 22.2715 12.75 22.125V16.5H18.75C18.9002 16.5 19.0469 16.4549 19.1711 16.3706C19.2954 16.2863 19.3915 16.1666 19.4469 16.0271C19.5024 15.8876 19.5147 15.7346 19.4823 15.588C19.4498 15.4414 19.3741 15.3079 19.265 15.2048L13.8864 10.125H18.75C18.9489 10.125 19.1397 10.046 19.2803 9.90533C19.421 9.76468 19.5 9.57391 19.5 9.375ZM16.8636 15H12C11.9015 15 11.804 15.0194 11.713 15.0571C11.622 15.0948 11.5393 15.15 11.4697 15.2197C11.4 15.2893 11.3448 15.372 11.3071 15.463C11.2694 15.554 11.25 15.6515 11.25 15.75V20.385L6 15.4267V10.125H11.7018L16.8636 15ZM18 8.625H12.2982L7.13644 3.75H18V8.625Z" fill="#1D1F21" style="fill: var(--ui-icon-primary-color);"/>
</svg>
