<svg  viewBox="0 0 24 24" fill="none" xmlns="http://www.w3.org/2000/svg" id="__THIS_ID_NEEDS_FOR_UI_ICON_COMPONENT__">
<path d="M10.5001 21.8491C10.1022 21.8488 9.72077 21.6906 9.43947 21.4093C9.15818 21.128 9.00008 20.7464 8.9999 20.3486V13.0399L2.83543 6.25909C2.63995 6.04407 2.51113 5.77689 2.46464 5.49003C2.41814 5.20317 2.45597 4.90898 2.57353 4.64322C2.69109 4.37746 2.88332 4.15156 3.12685 3.99299C3.37037 3.83442 3.65472 3.75001 3.94532 3.75H20.0545C20.3451 3.75 20.6294 3.83441 20.8729 3.99297C21.1165 4.15153 21.3087 4.37741 21.4262 4.64317C21.5438 4.90892 21.5817 5.20309 21.5352 5.48995C21.4887 5.7768 21.3599 6.04398 21.1644 6.259L14.9999 13.04V18.3486C15.0002 18.5956 14.9393 18.8389 14.8228 19.0567C14.7062 19.2744 14.5376 19.46 14.3319 19.5968L11.3319 21.5966C11.0857 21.7612 10.7962 21.849 10.5001 21.8491ZM3.94583 5.25L10.1098 12.0309C10.3611 12.3069 10.5002 12.6667 10.4999 13.0399V20.3486L13.4999 18.3486V13.0399C13.4996 12.6667 13.6388 12.3067 13.8902 12.0308L20.0541 5.25037L3.94583 5.25Z" fill="#1D1F21" style="fill: var(--ui-icon-primary-color);"/>
</svg>
