<svg  viewBox="0 0 24 24" fill="none" xmlns="http://www.w3.org/2000/svg" id="__THIS_ID_NEEDS_FOR_UI_ICON_COMPONENT__">
<path d="M17.2501 10.8749H14.2501C14.0512 10.8749 13.8604 10.7959 13.7197 10.6553C13.5791 10.5146 13.5001 10.3239 13.5001 10.1249C13.5001 9.92603 13.5791 9.73526 13.7197 9.59461C13.8604 9.45396 14.0512 9.37494 14.2501 9.37494H17.2501C17.449 9.37494 17.6398 9.45396 17.7804 9.59461C17.9211 9.73526 18.0001 9.92603 18.0001 10.1249C18.0001 10.3239 17.9211 10.5146 17.7804 10.6553C17.6398 10.7959 17.449 10.8749 17.2501 10.8749ZM9.75008 9.37494H9.00008V8.62494C9.00008 8.42603 8.92106 8.23526 8.78041 8.09461C8.63975 7.95396 8.44899 7.87494 8.25008 7.87494C8.05116 7.87494 7.8604 7.95396 7.71975 8.09461C7.57909 8.23526 7.50008 8.42603 7.50008 8.62494V9.37494H6.75008C6.55116 9.37494 6.3604 9.45396 6.21975 9.59461C6.07909 9.73526 6.00008 9.92603 6.00008 10.1249C6.00008 10.3239 6.07909 10.5146 6.21975 10.6553C6.3604 10.7959 6.55116 10.8749 6.75008 10.8749H7.50008V11.6249C7.50008 11.8239 7.57909 12.0146 7.71975 12.1553C7.8604 12.2959 8.05116 12.3749 8.25008 12.3749C8.44899 12.3749 8.63975 12.2959 8.78041 12.1553C8.92106 12.0146 9.00008 11.8239 9.00008 11.6249V10.8749H9.75008C9.94899 10.8749 10.1398 10.7959 10.2804 10.6553C10.4211 10.5146 10.5001 10.3239 10.5001 10.1249C10.5001 9.92603 10.4211 9.73526 10.2804 9.59461C10.1398 9.45396 9.94899 9.37494 9.75008 9.37494ZM20.4616 20.9483C19.9273 21.0423 19.3783 21.0062 18.8609 20.8432C18.3436 20.6801 17.8731 20.3949 17.4893 20.0115C17.4753 19.9975 17.4619 19.9831 17.4492 19.9682L13.6362 15.7355L10.3691 15.7486L6.55072 19.9696C6.53832 19.984 6.52532 19.998 6.51172 20.0115C6.00411 20.5189 5.34795 20.8513 4.63855 20.9604C3.92916 21.0695 3.20346 20.9496 2.56686 20.6181C1.93026 20.2866 1.41591 19.7608 1.0985 19.1171C0.781093 18.4733 0.677164 17.7452 0.801805 17.0384C0.802583 17.0341 0.803361 17.0298 0.804185 17.0255L2.33174 9.16931C2.33275 9.16254 2.33385 9.15567 2.33504 9.1489C2.56226 7.84517 3.24285 6.66367 4.25661 5.81303C5.27038 4.96238 6.55212 4.49731 7.87549 4.49994L16.1246 4.47559H16.1268C17.4434 4.47744 18.7178 4.94042 19.7285 5.78411C20.7393 6.6278 21.4226 7.79889 21.6598 9.09396C21.661 9.09982 21.6629 9.10541 21.6641 9.11136L23.1969 17.026C23.1977 17.0301 23.1985 17.0342 23.1992 17.0384C23.3536 17.9198 23.1521 18.8264 22.6389 19.5594C22.1256 20.2924 21.3426 20.7919 20.4616 20.9483ZM16.1238 14.2256C16.6655 14.2258 17.2019 14.1194 17.7025 13.9123C18.203 13.7052 18.6579 13.4016 19.0411 13.0187C19.4243 12.6358 19.7284 12.1812 19.9359 11.6809C20.1434 11.1805 20.2504 10.6441 20.2506 10.1024C20.2508 9.56074 20.1444 9.02429 19.9373 8.52373C19.7302 8.02317 19.4266 7.56829 19.0437 7.18508C18.6609 6.80187 18.2063 6.49782 17.7059 6.29029C17.2055 6.08277 16.6692 5.97583 16.1275 5.97558L7.87769 5.99994C6.91258 5.99745 5.9773 6.33419 5.23527 6.9513C4.49324 7.56841 3.99166 8.42665 3.81819 9.37604C3.81618 9.39114 3.81371 9.40634 3.81078 9.42163L2.27795 17.3049C2.2104 17.6956 2.26842 18.0976 2.44368 18.4532C2.61894 18.8089 2.90241 19.0998 3.25338 19.2843C3.60436 19.4687 4.00476 19.5372 4.39707 19.4798C4.78938 19.4224 5.1534 19.2421 5.43684 18.9649L9.47881 14.4968C9.54878 14.4194 9.63411 14.3575 9.72936 14.315C9.82461 14.2725 9.92767 14.2504 10.032 14.2499L16.1238 14.2256ZM21.723 17.3046L20.9025 13.0678C20.398 13.8802 19.6947 14.5506 18.8591 15.0156C18.0235 15.4807 17.0831 15.725 16.1268 15.7256L15.6479 15.7275L18.5646 18.9653C18.8481 19.2424 19.2121 19.4226 19.6044 19.4798C19.9967 19.5371 20.3971 19.4686 20.748 19.2841C21.0989 19.0996 21.3823 18.8086 21.5575 18.4529C21.7327 18.0973 21.7906 17.6952 21.723 17.3046H21.723Z" fill="#1D1F21" style="fill: var(--ui-icon-primary-color);"/>
</svg>
