<svg  viewBox="0 0 24 24" fill="none" xmlns="http://www.w3.org/2000/svg" id="__THIS_ID_NEEDS_FOR_UI_ICON_COMPONENT__">
<path d="M12.0001 6.00054C10.8134 6.00054 9.65336 6.35243 8.66667 7.01172C7.67998 7.671 6.91095 8.60807 6.45683 9.70443C6.0027 10.8008 5.88388 12.0072 6.11539 13.1711C6.3469 14.3349 6.91834 15.404 7.75746 16.2431C8.59657 17.0823 9.66566 17.6537 10.8295 17.8852C11.9934 18.1167 13.1998 17.9979 14.2962 17.5438C15.3925 17.0897 16.3296 16.3206 16.9889 15.3339C17.6482 14.3472 18.0001 13.1872 18.0001 12.0005C17.9983 10.4098 17.3655 8.88471 16.2407 7.75989C15.1159 6.63506 13.5908 6.00234 12.0001 6.00054ZM12.0001 16.5005C11.1101 16.5005 10.24 16.2366 9.50003 15.7421C8.76001 15.2477 8.18323 14.5449 7.84264 13.7226C7.50205 12.9003 7.41293 11.9955 7.58657 11.1226C7.7602 10.2497 8.18878 9.44788 8.81811 8.81855C9.44745 8.18922 10.2493 7.76063 11.1222 7.587C11.9951 7.41337 12.8999 7.50248 13.7222 7.84308C14.5444 8.18367 15.2472 8.76044 15.7417 9.50046C16.2361 10.2405 16.5001 11.1105 16.5001 12.0005C16.4987 13.1936 16.0242 14.3374 15.1806 15.181C14.3369 16.0246 13.1931 16.4992 12.0001 16.5005ZM22.2202 9.63C22.1687 9.41351 22.0699 9.21114 21.9307 9.03748C21.7916 8.86382 21.6157 8.7232 21.4156 8.62576L20.0558 7.9534L19.5329 7.04767L19.6305 5.5338C19.6462 5.31185 19.6124 5.08918 19.5316 4.88187C19.4508 4.67455 19.3249 4.48776 19.1632 4.33497C18.0002 3.23259 16.5933 2.42035 15.0571 1.96436C14.8439 1.90069 14.6193 1.88512 14.3993 1.91879C14.1794 1.95246 13.9696 2.03451 13.7852 2.15904L12.523 3.00046H11.4772L10.215 2.15909C10.0306 2.0345 9.82087 1.95239 9.6009 1.9187C9.38094 1.885 9.15623 1.90057 8.94301 1.96427C7.40684 2.42028 6.00002 3.23252 4.83702 4.33488C4.67526 4.48768 4.54943 4.67448 4.4686 4.8818C4.38778 5.08912 4.35398 5.31179 4.36965 5.53376L4.46724 7.04758L3.94429 7.95331L2.58447 8.62571C2.38441 8.72313 2.20848 8.86373 2.06935 9.03737C1.93021 9.21102 1.83136 9.41338 1.77991 9.62986C1.40674 11.1882 1.40674 12.8127 1.77991 14.371C1.83136 14.5875 1.93021 14.7899 2.06934 14.9636C2.20847 15.1372 2.38441 15.2778 2.58447 15.3753L3.94425 16.0476L4.46719 16.9534L4.3696 18.4672C4.35393 18.6892 4.38771 18.9118 4.46852 19.1192C4.54932 19.3265 4.67514 19.5133 4.83688 19.6661C5.99989 20.7684 7.40672 21.5807 8.94292 22.0367C9.15612 22.1004 9.38081 22.116 9.60077 22.0823C9.82073 22.0486 10.0305 21.9666 10.2149 21.842L11.477 21.0006H12.5229L13.7851 21.8419C14.0345 22.0095 14.3281 22.0993 14.6286 22.1001C14.7737 22.1001 14.9181 22.0788 15.0571 22.0368C16.5932 21.5807 18 20.7685 19.163 19.6662C19.3248 19.5134 19.4506 19.3266 19.5315 19.1192C19.6123 18.9119 19.6461 18.6892 19.6304 18.4673L19.5328 16.9535L20.0558 16.0477L21.4156 15.3753C21.6157 15.2779 21.7916 15.1373 21.9307 14.9637C22.0698 14.79 22.1687 14.5877 22.2202 14.3712C22.5933 12.8128 22.5933 11.1884 22.2202 9.63L22.2202 9.63ZM20.7624 14.0218C20.7592 14.0256 20.7553 14.0287 20.7508 14.0307L18.9838 14.9044L18.0067 16.5968L18.1335 18.5638C18.134 18.5705 18.1328 18.5754 18.135 18.5738C17.1425 19.5153 15.9419 20.2093 14.6307 20.5996C14.6258 20.5987 14.6212 20.5968 14.6172 20.5939L12.977 19.5006H11.0229L9.38287 20.5939C9.37724 20.5976 9.37225 20.5991 9.3749 20.6002C8.06331 20.2114 6.86193 19.5187 5.8684 18.5783C5.86665 18.5736 5.86599 18.5687 5.86648 18.5637L5.99328 16.5967L5.01623 14.9043L3.24937 14.0307C3.24651 14.0289 3.24352 14.0273 3.24044 14.0259C3.24003 14.0259 3.2398 14.0262 3.23989 14.0269C2.92081 12.6967 2.92006 11.3099 3.23769 9.97927C3.24084 9.97544 3.24481 9.97237 3.24932 9.9703L5.01628 9.09661L5.99333 7.40427L5.86653 5.43726C5.86612 5.43049 5.86735 5.42545 5.86502 5.42719C6.85755 4.48576 8.05817 3.79172 9.36932 3.40146C9.37423 3.40229 9.37888 3.40423 9.38292 3.40714L11.023 4.50045H12.9772L14.6172 3.40714C14.6228 3.40339 14.6278 3.40196 14.6252 3.40082C15.9368 3.78961 17.1381 4.48235 18.1317 5.42275C18.1334 5.42739 18.1341 5.43237 18.1336 5.43731L18.0068 7.40436L18.9838 9.0967L20.7507 9.97034C20.7568 9.97341 20.7605 9.97703 20.7602 9.97409C21.0793 11.3044 21.08 12.6911 20.7624 14.0218L20.7624 14.0218Z" fill="#1D1F21" style="fill: var(--ui-icon-primary-color);"/>
</svg>
