<svg  viewBox="0 0 24 24" fill="none" xmlns="http://www.w3.org/2000/svg" id="__THIS_ID_NEEDS_FOR_UI_ICON_COMPONENT__">
<path d="M17.6252 9.74969C16.7953 9.75077 15.9949 10.0571 15.3764 10.6104C14.758 11.1636 14.3647 11.9251 14.2715 12.7497H12.2326C11.6828 12.7504 11.1395 12.6298 10.6416 12.3966C10.1436 12.1634 9.70322 11.8232 9.35172 11.4004L7.73628 9.46188C8.46993 9.13825 9.06435 8.56394 9.41305 7.84186C9.76174 7.11979 9.8419 6.29714 9.63918 5.52133C9.43645 4.74552 8.96408 4.06726 8.30672 3.60807C7.64935 3.14889 6.84995 2.93881 6.05176 3.01546C5.25358 3.09211 4.50877 3.4505 3.95081 4.02639C3.39284 4.60229 3.05819 5.35806 3.00682 6.15827C2.95545 6.95848 3.19071 7.75084 3.67045 8.39335C4.15019 9.03587 4.84305 9.48655 5.62489 9.66465V14.3347C4.81587 14.5191 4.10313 14.9951 3.62282 15.6717C3.1425 16.3483 2.92827 17.1781 3.02105 18.0027C3.11383 18.8273 3.50711 19.5888 4.12577 20.1417C4.74444 20.6947 5.54512 21.0003 6.37489 21.0003C7.20465 21.0003 8.00533 20.6947 8.624 20.1417C9.24266 19.5888 9.63594 18.8273 9.72872 18.0027C9.8215 17.1781 9.60727 16.3483 9.12695 15.6717C8.64664 14.9951 7.9339 14.5191 7.12489 14.3347V11.0712L8.19944 12.3606C8.6915 12.9526 9.30804 13.4288 10.0052 13.7553C10.7023 14.0819 11.4628 14.2506 12.2326 14.2497H14.4437C14.65 14.833 15.0127 15.3484 15.4921 15.7395C15.9715 16.1306 16.5492 16.3823 17.162 16.4673C17.7749 16.5522 18.3993 16.4671 18.967 16.2211C19.5347 15.9752 20.0239 15.5779 20.381 15.0727C20.7382 14.5675 20.9496 13.9738 20.9922 13.3566C21.0347 12.7394 20.9068 12.1223 20.6223 11.5729C20.3379 11.0234 19.9078 10.5628 19.3793 10.2412C18.8507 9.91969 18.2439 9.74965 17.6252 9.74969H17.6252ZM4.49989 6.37469C4.49989 6.00385 4.60985 5.64133 4.81588 5.33299C5.02191 5.02465 5.31474 4.78433 5.65735 4.64241C5.99997 4.5005 6.37697 4.46337 6.74068 4.53571C7.10439 4.60806 7.43849 4.78664 7.70071 5.04886C7.96293 5.31108 8.14151 5.64518 8.21386 6.00889C8.28621 6.37261 8.24907 6.74961 8.10716 7.09222C7.96525 7.43483 7.72492 7.72766 7.41658 7.93369C7.10824 8.13972 6.74573 8.24969 6.37489 8.24969C5.87777 8.24913 5.40118 8.05141 5.04967 7.6999C4.69816 7.34839 4.50044 6.8718 4.49989 6.37469ZM8.24989 17.6247C8.24989 17.9955 8.13992 18.358 7.93389 18.6664C7.72786 18.9747 7.43503 19.215 7.09242 19.357C6.74981 19.4989 6.37281 19.536 6.00909 19.4637C5.64538 19.3913 5.31128 19.2127 5.04906 18.9505C4.78684 18.6883 4.60826 18.3542 4.53591 17.9905C4.46357 17.6268 4.5007 17.2498 4.64261 16.9072C4.78453 16.5645 5.02485 16.2717 5.33319 16.0657C5.64153 15.8597 6.00405 15.7497 6.37489 15.7497C6.872 15.7502 7.34859 15.948 7.7001 16.2995C8.05161 16.651 8.24933 17.1276 8.24989 17.6247ZM17.6252 14.9997C17.2543 14.9997 16.8918 14.8897 16.5835 14.6837C16.2751 14.4777 16.0348 14.1848 15.8929 13.8422C15.751 13.4996 15.7138 13.1226 15.7862 12.7589C15.8585 12.3952 16.0371 12.0611 16.2993 11.7989C16.5616 11.5366 16.8957 11.3581 17.2594 11.2857C17.6231 11.2134 18.0001 11.2505 18.3427 11.3924C18.6853 11.5343 18.9781 11.7746 19.1842 12.083C19.3902 12.3913 19.5002 12.7538 19.5002 13.1247C19.4996 13.6218 19.3019 14.0984 18.9504 14.4499C18.5989 14.8014 18.1223 14.9991 17.6252 14.9997Z" fill="#1D1F21" style="fill: var(--ui-icon-primary-color);"/>
</svg>
