<svg  viewBox="0 0 24 24" fill="none" xmlns="http://www.w3.org/2000/svg" id="__THIS_ID_NEEDS_FOR_UI_ICON_COMPONENT__">
<g clip-path="url(#clip0)">
<path d="M23.2502 11.25H17.5737C17.3925 9.90033 16.7276 8.66227 15.7026 7.76571C14.6776 6.86915 13.362 6.375 12.0002 6.375C10.6384 6.375 9.32292 6.86915 8.2979 7.76571C7.27287 8.66227 6.60801 9.90033 6.42674 11.25H0.750244C0.551332 11.25 0.360566 11.329 0.219914 11.4697C0.0792618 11.6103 0.000244141 11.8011 0.000244141 12C0.000244141 12.1989 0.0792618 12.3897 0.219914 12.5303C0.360566 12.671 0.551332 12.75 0.750244 12.75H6.42674C6.60801 14.0997 7.27287 15.3377 8.2979 16.2343C9.32292 17.1309 10.6384 17.625 12.0002 17.625C13.362 17.625 14.6776 17.1309 15.7026 16.2343C16.7276 15.3377 17.3925 14.0997 17.5737 12.75H23.2502C23.4492 12.75 23.6399 12.671 23.7806 12.5303C23.9212 12.3897 24.0002 12.1989 24.0002 12C24.0002 11.8011 23.9212 11.6103 23.7806 11.4697C23.6399 11.329 23.4492 11.25 23.2502 11.25ZM12.0002 16.125C11.1844 16.125 10.3869 15.8831 9.70852 15.4298C9.03016 14.9766 8.50145 14.3323 8.18924 13.5786C7.87703 12.8248 7.79534 11.9954 7.9545 11.1953C8.11367 10.3951 8.50654 9.66008 9.08343 9.08319C9.66032 8.50629 10.3953 8.11343 11.1955 7.95426C11.9957 7.7951 12.8251 7.87679 13.5788 8.189C14.3326 8.50121 14.9768 9.02992 15.4301 9.70828C15.8833 10.3866 16.1252 11.1842 16.1252 12C16.124 13.0936 15.689 14.1421 14.9157 14.9155C14.1424 15.6888 13.0939 16.1238 12.0002 16.125Z" fill="#1D1F21" style="fill: var(--ui-icon-primary-color);"/>
</g>
<defs>
<clipPath id="clip0">
<rect  fill="white" style="fill: var(--ui-icon-secondary-color);"/>
</clipPath>
</defs>
</svg>
