<svg  viewBox="0 0 24 24" fill="none" xmlns="http://www.w3.org/2000/svg" id="__THIS_ID_NEEDS_FOR_UI_ICON_COMPONENT__">
<path d="M9.74989 6.37565C9.75001 5.74029 9.57078 5.11779 9.23281 4.57977C8.89485 4.04174 8.41188 3.61005 7.83945 3.33433C7.26703 3.05862 6.6284 2.95009 5.99703 3.02122C5.36565 3.09236 4.76719 3.34027 4.27046 3.73644C3.77373 4.13261 3.39892 4.66095 3.18915 5.26069C2.97937 5.86043 2.94315 6.5072 3.08464 7.12661C3.22614 7.74602 3.5396 8.31291 3.98898 8.76207C4.43836 9.21123 5.00541 9.52442 5.62489 9.66561V14.3357C4.81587 14.5201 4.10313 14.996 3.62282 15.6727C3.1425 16.3493 2.92827 17.1791 3.02105 18.0037C3.11383 18.8282 3.50711 19.5897 4.12577 20.1427C4.74444 20.6956 5.54512 21.0013 6.37489 21.0013C7.20465 21.0013 8.00533 20.6956 8.624 20.1427C9.24266 19.5897 9.63594 18.8282 9.72872 18.0037C9.8215 17.1791 9.60727 16.3493 9.12695 15.6727C8.64664 14.996 7.9339 14.5201 7.12489 14.3357V9.66561C7.86997 9.49484 8.53517 9.07656 9.01192 8.47904C9.48866 7.88153 9.74881 7.14006 9.74989 6.37565ZM4.49989 6.37565C4.49989 6.00481 4.60985 5.6423 4.81588 5.33396C5.02191 5.02562 5.31474 4.78529 5.65735 4.64338C5.99997 4.50147 6.37697 4.46433 6.74068 4.53668C7.10439 4.60903 7.43849 4.78761 7.70071 5.04983C7.96293 5.31205 8.14151 5.64615 8.21386 6.00986C8.28621 6.37357 8.24907 6.75057 8.10716 7.09319C7.96525 7.4358 7.72492 7.72863 7.41658 7.93466C7.10824 8.14069 6.74573 8.25065 6.37489 8.25065C5.87778 8.25009 5.40119 8.05237 5.04968 7.70086C4.69817 7.34935 4.50045 6.87276 4.49989 6.37565ZM8.24989 17.6257C8.24989 17.9965 8.13992 18.359 7.93389 18.6673C7.72786 18.9757 7.43503 19.216 7.09242 19.3579C6.74981 19.4998 6.37281 19.537 6.00909 19.4646C5.64538 19.3923 5.31128 19.2137 5.04906 18.9515C4.78684 18.6893 4.60826 18.3552 4.53591 17.9914C4.46357 17.6277 4.5007 17.2507 4.64261 16.9081C4.78453 16.5655 5.02485 16.2727 5.33319 16.0666C5.64153 15.8606 6.00405 15.7507 6.37489 15.7507C6.87199 15.7512 7.34858 15.9489 7.70009 16.3004C8.0516 16.652 8.24933 17.1285 8.24989 17.6257ZM18.3751 14.3357L18.375 11.2395C18.3768 10.5498 18.2419 9.86664 17.978 9.22946C17.714 8.59227 17.3264 8.01375 16.8374 7.52739L14.5606 5.25065H16.4999C16.6988 5.25065 16.8896 5.17164 17.0302 5.03098C17.1709 4.89033 17.2499 4.69957 17.2499 4.50065C17.2499 4.30174 17.1709 4.11098 17.0302 3.97032C16.8896 3.82967 16.6988 3.75065 16.4999 3.75065H12.7499C12.7471 3.75065 12.7444 3.75104 12.7416 3.75107C12.7197 3.75131 12.6979 3.75224 12.6761 3.75438C12.6641 3.75556 12.6523 3.75778 12.6404 3.75953C12.6281 3.76134 12.6158 3.76274 12.6035 3.76515C12.5904 3.76776 12.5776 3.77135 12.5647 3.77464C12.5539 3.77738 12.5431 3.77972 12.5324 3.78294C12.5198 3.78675 12.5077 3.79145 12.4954 3.79589C12.4846 3.79978 12.4737 3.80332 12.463 3.80773C12.4517 3.81243 12.4408 3.81792 12.4298 3.82315C12.4186 3.82842 12.4074 3.83338 12.3964 3.83923C12.386 3.84482 12.3761 3.85119 12.366 3.85725C12.3551 3.86374 12.344 3.86989 12.3335 3.87698C12.3225 3.88432 12.3122 3.8925 12.3016 3.9004C12.2925 3.90717 12.2832 3.91346 12.2744 3.9207C12.257 3.93503 12.2403 3.95026 12.2242 3.96608C12.2227 3.96758 12.221 3.96882 12.2195 3.97033C12.2176 3.97225 12.216 3.97438 12.2141 3.97632C12.1988 3.99199 12.1839 4.00814 12.17 4.0251C12.1623 4.03453 12.1555 4.04446 12.1483 4.05417C12.1409 4.06408 12.1332 4.07373 12.1263 4.08401C12.1188 4.09533 12.1122 4.10706 12.1053 4.11869C12.0997 4.12807 12.0938 4.13721 12.0886 4.14685C12.0823 4.15865 12.0769 4.17079 12.0713 4.18285C12.0665 4.19301 12.0614 4.20297 12.0571 4.21338C12.0523 4.22507 12.0484 4.237 12.0441 4.24887C12.0401 4.2601 12.0358 4.27118 12.0323 4.28266C12.0287 4.29464 12.026 4.30681 12.023 4.31892C12.0201 4.33054 12.0168 4.342 12.0144 4.35384C12.0116 4.36798 12.0099 4.38227 12.0079 4.39653C12.0066 4.40651 12.0046 4.41631 12.0036 4.42641C12.0012 4.45125 11.9999 4.47616 11.9999 4.50113V8.25065C11.9999 8.44957 12.0789 8.64033 12.2196 8.78098C12.3602 8.92164 12.551 9.00065 12.7499 9.00065C12.9488 9.00065 13.1396 8.92164 13.2802 8.78098C13.4209 8.64033 13.4999 8.44957 13.4999 8.25065V6.31132L15.7766 8.58803C16.1259 8.93542 16.4028 9.34865 16.5914 9.80379C16.7799 10.2589 16.8763 10.7469 16.875 11.2396L16.8751 14.3357C16.0661 14.5201 15.3534 14.9961 14.8731 15.6727C14.3927 16.3493 14.1785 17.1792 14.2713 18.0037C14.3641 18.8283 14.7574 19.5898 15.3761 20.1427C15.9947 20.6957 16.7954 21.0013 17.6252 21.0013C18.455 21.0013 19.2556 20.6956 19.8743 20.1427C20.493 19.5897 20.8862 18.8282 20.979 18.0036C21.0718 17.1791 20.8575 16.3492 20.3772 15.6726C19.8969 14.996 19.1841 14.5201 18.3751 14.3357L18.3751 14.3357ZM17.6252 19.5007C17.2543 19.5007 16.8918 19.3907 16.5835 19.1847C16.2751 18.9786 16.0348 18.6858 15.8929 18.3432C15.751 18.0006 15.7138 17.6236 15.7862 17.2599C15.8585 16.8961 16.0371 16.5621 16.2993 16.2998C16.5616 16.0376 16.8957 15.859 17.2594 15.7867C17.6231 15.7143 18.0001 15.7515 18.3427 15.8934C18.6853 16.0353 18.9781 16.2756 19.1842 16.584C19.3902 16.8923 19.5002 17.2548 19.5002 17.6257C19.4996 18.1228 19.3019 18.5993 18.9504 18.9509C18.5989 19.3024 18.1223 19.5001 17.6252 19.5007Z" fill="#1D1F21" style="fill: var(--ui-icon-primary-color);"/>
</svg>
