<svg  viewBox="0 0 24 24" fill="none" xmlns="http://www.w3.org/2000/svg" id="__THIS_ID_NEEDS_FOR_UI_ICON_COMPONENT__">
<path d="M20.9999 6.37517C21 5.7398 20.8208 5.1173 20.4828 4.57928C20.1448 4.04126 19.6619 3.60956 19.0895 3.33384C18.517 3.05813 17.8784 2.9496 17.247 3.02073C16.6157 3.09187 16.0172 3.33978 15.5205 3.73595C15.0237 4.13212 14.6489 4.66046 14.4391 5.2602C14.2294 5.85994 14.1931 6.50671 14.3346 7.12612C14.4761 7.74553 14.7896 8.31242 15.239 8.76158C15.6884 9.21074 16.2554 9.52393 16.8749 9.66512V9.75021C16.8744 10.1479 16.7163 10.5291 16.4351 10.8103C16.1539 11.0915 15.7726 11.2497 15.375 11.2502L8.62498 11.2503C8.42799 11.2504 8.23292 11.2116 8.05093 11.1362C7.86893 11.0608 7.70356 10.9503 7.56426 10.811C7.42496 10.6718 7.31446 10.5064 7.23908 10.3244C7.16369 10.1424 7.12489 9.94734 7.12489 9.75035V9.66512C7.9339 9.48073 8.64664 9.00477 9.12695 8.32816C9.60727 7.65155 9.8215 6.82171 9.72872 5.99715C9.63594 5.17259 9.24266 4.4111 8.624 3.85814C8.00533 3.30519 7.20465 2.99951 6.37489 2.99951C5.54512 2.99951 4.74444 3.30519 4.12577 3.85814C3.50711 4.4111 3.11383 5.17259 3.02105 5.99715C2.92827 6.82171 3.1425 7.65155 3.62282 8.32816C4.10313 9.00477 4.81587 9.48073 5.62489 9.66512V9.75035C5.62488 10.1443 5.70248 10.5344 5.85325 10.8984C6.00402 11.2624 6.22501 11.5931 6.5036 11.8717C6.78218 12.1503 7.11291 12.3713 7.4769 12.522C7.84089 12.6728 8.23101 12.7504 8.62498 12.7503L11.2501 12.7503L11.2499 14.3354C10.4409 14.5198 9.72816 14.9957 9.24782 15.6724C8.76749 16.349 8.55324 17.1788 8.64601 18.0034C8.73877 18.8279 9.13204 19.5894 9.75069 20.1424C10.3694 20.6954 11.17 21.0011 11.9998 21.0011C12.8296 21.0011 13.6303 20.6954 14.2489 20.1425C14.8676 19.5895 15.2609 18.8281 15.3537 18.0035C15.4465 17.1789 15.2323 16.3491 14.752 15.6725C14.2717 14.9958 13.5589 14.5199 12.7499 14.3354L12.7501 12.7503L15.375 12.7502C16.1703 12.7493 16.9328 12.4329 17.4952 11.8705C18.0576 11.3081 18.374 10.5456 18.3749 9.75021V9.66512C19.12 9.49435 19.7852 9.07607 20.2619 8.47855C20.7387 7.88104 20.9988 7.13957 20.9999 6.37517ZM4.49989 6.37517C4.49989 6.00433 4.60985 5.64181 4.81588 5.33347C5.02191 5.02513 5.31474 4.78481 5.65735 4.64289C5.99997 4.50098 6.37697 4.46385 6.74068 4.53619C7.10439 4.60854 7.43849 4.78712 7.70071 5.04934C7.96293 5.31156 8.14151 5.64566 8.21386 6.00937C8.28621 6.37309 8.24907 6.75009 8.10716 7.0927C7.96525 7.43531 7.72492 7.72815 7.41658 7.93417C7.10824 8.1402 6.74573 8.25017 6.37489 8.25017C5.87778 8.24961 5.40119 8.05188 5.04968 7.70037C4.69817 7.34886 4.50045 6.87228 4.49989 6.37517ZM13.8749 17.6254C13.8749 17.9962 13.7649 18.3587 13.5589 18.6671C13.3529 18.9754 13.06 19.2158 12.7174 19.3577C12.3748 19.4996 11.9978 19.5367 11.6341 19.4644C11.2704 19.392 10.9363 19.2134 10.6741 18.9512C10.4118 18.689 10.2333 18.3549 10.1609 17.9912C10.0886 17.6275 10.1257 17.2505 10.2676 16.9079C10.4095 16.5653 10.6498 16.2724 10.9582 16.0664C11.2665 15.8604 11.629 15.7504 11.9999 15.7504C12.497 15.7509 12.9736 15.9487 13.3251 16.3002C13.6766 16.6517 13.8743 17.1283 13.8749 17.6254ZM17.6249 8.25017C17.254 8.25017 16.8915 8.1402 16.5832 7.93417C16.2748 7.72815 16.0345 7.43531 15.8926 7.0927C15.7507 6.75009 15.7136 6.37309 15.7859 6.00937C15.8583 5.64566 16.0368 5.31156 16.2991 5.04934C16.5613 4.78712 16.8954 4.60854 17.2591 4.53619C17.6228 4.46385 17.9998 4.50098 18.3424 4.64289C18.685 4.78481 18.9779 5.02513 19.1839 5.33347C19.3899 5.64181 19.4999 6.00433 19.4999 6.37517C19.4993 6.87228 19.3016 7.34886 18.9501 7.70037C18.5986 8.05188 18.122 8.24961 17.6249 8.25017Z" fill="#1D1F21" style="fill: var(--ui-icon-primary-color);"/>
</svg>
