<svg  viewBox="0 0 24 24" fill="none" xmlns="http://www.w3.org/2000/svg" id="__THIS_ID_NEEDS_FOR_UI_ICON_COMPONENT__">
<path d="M19.1251 14.3357L19.125 11.2395C19.1268 10.5498 18.9919 9.8666 18.728 9.22942C18.464 8.59224 18.0764 8.01373 17.5874 7.52738L15.3106 5.25064H17.2499C17.4488 5.25064 17.6396 5.17162 17.7802 5.03097C17.9209 4.89032 17.9999 4.69955 17.9999 4.50064C17.9999 4.30173 17.9209 4.11096 17.7802 3.97031C17.6396 3.82966 17.4488 3.75064 17.2499 3.75064H13.4999C13.4943 3.75064 13.4889 3.75135 13.4833 3.75148C13.4643 3.7519 13.4453 3.7525 13.4264 3.75435C13.4134 3.75561 13.4008 3.75797 13.3881 3.75988C13.3766 3.7616 13.3651 3.76287 13.3537 3.76512C13.3401 3.76781 13.3269 3.77151 13.3136 3.77493C13.3032 3.77757 13.2928 3.77982 13.2825 3.78292C13.2698 3.78676 13.2576 3.7915 13.2451 3.79599C13.2344 3.79985 13.2236 3.80336 13.2131 3.80773C13.2018 3.81237 13.1911 3.81782 13.1801 3.82299C13.1688 3.82833 13.1574 3.83336 13.1463 3.83929C13.1363 3.84462 13.1269 3.85071 13.1172 3.8565C13.1058 3.86325 13.0943 3.86971 13.0832 3.87713C13.0733 3.88378 13.064 3.89124 13.0543 3.89836C13.0443 3.90583 13.034 3.91286 13.0242 3.9209C13.0106 3.93206 12.9979 3.94414 12.9851 3.95622C12.98 3.96105 12.9745 3.96528 12.9695 3.97028C12.9642 3.97557 12.9597 3.98134 12.9546 3.98674C12.9429 3.99919 12.9311 4.01162 12.9202 4.02485C12.9117 4.03523 12.9042 4.04614 12.8963 4.05687C12.8897 4.06584 12.8827 4.07449 12.8765 4.08376C12.8685 4.09563 12.8616 4.10793 12.8544 4.12014C12.8492 4.12899 12.8436 4.13759 12.8387 4.14668C12.8322 4.15879 12.8267 4.17123 12.8209 4.1836C12.8163 4.19349 12.8114 4.20317 12.8071 4.21328C12.8022 4.22514 12.7982 4.23725 12.794 4.24931C12.79 4.26039 12.7858 4.2713 12.7823 4.28261C12.7787 4.2947 12.776 4.30697 12.7729 4.31919C12.77 4.33072 12.7668 4.34208 12.7644 4.35382C12.7616 4.36801 12.7599 4.38236 12.7579 4.39666C12.7566 4.4066 12.7546 4.41635 12.7536 4.42639C12.7512 4.45125 12.7499 4.47616 12.7499 4.50112V8.25064C12.7499 8.44955 12.8289 8.64032 12.9696 8.78097C13.1102 8.92162 13.301 9.00064 13.4999 9.00064C13.6988 9.00064 13.8896 8.92162 14.0302 8.78097C14.1709 8.64032 14.2499 8.44955 14.2499 8.25064V6.31137L16.5266 8.58811C16.8759 8.93546 17.1529 9.34865 17.3414 9.80376C17.5299 10.2589 17.6263 10.7469 17.625 11.2395L17.6251 14.3357C16.8161 14.5201 16.1034 14.9961 15.6231 15.6727C15.1428 16.3493 14.9286 17.1791 15.0213 18.0037C15.1141 18.8283 15.5074 19.5897 16.1261 20.1427C16.7448 20.6956 17.5455 21.0013 18.3752 21.0013C19.205 21.0013 20.0057 20.6956 20.6243 20.1426C21.243 19.5897 21.6362 18.8282 21.729 18.0036C21.8218 17.179 21.6075 16.3492 21.1272 15.6726C20.6469 14.996 19.9341 14.5201 19.1251 14.3357L19.1251 14.3357ZM18.3752 19.5006C18.0043 19.5006 17.6418 19.3907 17.3335 19.1846C17.0251 18.9786 16.7848 18.6858 16.6429 18.3432C16.501 18.0006 16.4638 17.6236 16.5362 17.2598C16.6085 16.8961 16.7871 16.562 17.0493 16.2998C17.3116 16.0376 17.6457 15.859 18.0094 15.7867C18.3731 15.7143 18.7501 15.7515 19.0927 15.8934C19.4353 16.0353 19.7281 16.2756 19.9342 16.5839C20.1402 16.8923 20.2502 17.2548 20.2502 17.6256C20.2496 18.1228 20.0519 18.5993 19.7004 18.9509C19.3489 19.3024 18.8723 19.5001 18.3752 19.5006ZM11.1038 19.9444C11.1104 19.9354 11.1173 19.9268 11.1235 19.9175C11.1315 19.9057 11.1385 19.8934 11.1457 19.8811C11.1509 19.8723 11.1565 19.8637 11.1613 19.8546C11.1678 19.8425 11.1733 19.8301 11.1791 19.8177C11.1837 19.8078 11.1887 19.7981 11.1929 19.788C11.1978 19.7761 11.2018 19.764 11.2061 19.752C11.21 19.7409 11.2143 19.73 11.2177 19.7187C11.2214 19.7066 11.2241 19.6943 11.2271 19.6821C11.23 19.6706 11.2333 19.6592 11.2356 19.6475C11.2384 19.6333 11.2401 19.6189 11.2421 19.6046C11.2435 19.5947 11.2454 19.5849 11.2464 19.5749C11.2489 19.55 11.2501 19.5251 11.2502 19.5002V15.7506C11.2502 15.5517 11.1711 15.361 11.0305 15.2203C10.8898 15.0797 10.6991 15.0006 10.5002 15.0006C10.3012 15.0006 10.1105 15.0797 9.96983 15.2203C9.82918 15.361 9.75016 15.5517 9.75016 15.7506V17.6899L7.47343 15.4132C7.12414 15.0658 6.84721 14.6526 6.65868 14.1975C6.47015 13.7424 6.37375 13.2544 6.37507 12.7618L6.37493 9.66559C7.18394 9.48118 7.89667 9.00521 8.37698 8.3286C8.85728 7.65198 9.0715 6.82213 8.9787 5.99758C8.88591 5.17302 8.49262 4.41154 7.87395 3.85859C7.25528 3.30565 6.45459 2.99999 5.62483 3C4.79507 3.00001 3.99439 3.3057 3.37573 3.85866C2.75708 4.41163 2.36381 5.17312 2.27104 5.99768C2.17828 6.82224 2.39252 7.65208 2.87285 8.32868C3.35317 9.00529 4.06591 9.48123 4.87493 9.66561L4.87507 12.7619C4.87324 13.4516 5.00819 14.1347 5.27212 14.7719C5.53606 15.4091 5.92372 15.9876 6.4127 16.4739L8.68943 18.7506H6.75016C6.55125 18.7506 6.36048 18.8297 6.21983 18.9703C6.07918 19.111 6.00016 19.3017 6.00016 19.5006C6.00016 19.6996 6.07918 19.8903 6.21983 20.031C6.36048 20.1716 6.55125 20.2506 6.75016 20.2506H10.5002C10.5249 20.2506 10.5496 20.2493 10.5742 20.2469C10.5853 20.2458 10.596 20.2437 10.6069 20.2422C10.6202 20.2403 10.6336 20.2387 10.6467 20.2361C10.6592 20.2336 10.6712 20.2302 10.6834 20.2271C10.695 20.2243 10.7066 20.2217 10.718 20.2183C10.7298 20.2147 10.7413 20.2102 10.7528 20.2061C10.7644 20.2019 10.776 20.1981 10.7873 20.1934C10.7979 20.189 10.8081 20.1839 10.8184 20.179C10.8303 20.1734 10.8423 20.1681 10.8539 20.1619C10.8635 20.1568 10.8726 20.1509 10.8819 20.1454C10.8937 20.1384 10.9055 20.1318 10.9169 20.1241C10.9266 20.1176 10.9357 20.1103 10.9451 20.1034C10.9554 20.0958 10.9659 20.0886 10.9759 20.0804C10.9894 20.0693 11.002 20.0573 11.0147 20.0453C11.0199 20.0404 11.0254 20.0361 11.0305 20.031C11.0358 20.0257 11.0403 20.02 11.0454 20.0145C11.0572 20.0021 11.0689 19.9897 11.0798 19.9764C11.0884 19.9661 11.0959 19.9551 11.1038 19.9444ZM3.74989 6.37564C3.74989 6.0048 3.85985 5.64229 4.06588 5.33395C4.27191 5.0256 4.56474 4.78528 4.90735 4.64337C5.24997 4.50145 5.62697 4.46432 5.99068 4.53667C6.35439 4.60902 6.68849 4.78759 6.95071 5.04982C7.21293 5.31204 7.39151 5.64613 7.46386 6.00985C7.53621 6.37356 7.49907 6.75056 7.35716 7.09317C7.21525 7.43578 6.97492 7.72862 6.66658 7.93465C6.35824 8.14068 5.99573 8.25064 5.62489 8.25064C5.12777 8.25009 4.65118 8.05237 4.29967 7.70086C3.94816 7.34935 3.75044 6.87275 3.74989 6.37564Z" fill="#1D1F21" style="fill: var(--ui-icon-primary-color);"/>
</svg>
