<svg  viewBox="0 0 24 24" fill="none" xmlns="http://www.w3.org/2000/svg" id="__THIS_ID_NEEDS_FOR_UI_ICON_COMPONENT__">
<path d="M20.9999 6.37517C21 5.7398 20.8208 5.1173 20.4828 4.57928C20.1448 4.04126 19.6619 3.60956 19.0895 3.33384C18.517 3.05813 17.8784 2.9496 17.247 3.02073C16.6157 3.09187 16.0172 3.33978 15.5205 3.73595C15.0237 4.13212 14.6489 4.66046 14.4391 5.2602C14.2294 5.85994 14.1931 6.50671 14.3346 7.12612C14.4761 7.74553 14.7896 8.31242 15.239 8.76158C15.6884 9.21074 16.2554 9.52393 16.8749 9.66513V9.75021C16.8744 10.1479 16.7163 10.5291 16.4351 10.8103C16.1539 11.0915 15.7726 11.2497 15.375 11.2502L8.62489 11.2504C8.09809 11.2497 7.58053 11.3886 7.12489 11.653V9.66512C7.9339 9.48073 8.64664 9.00477 9.12695 8.32816C9.60727 7.65155 9.8215 6.82171 9.72872 5.99715C9.63594 5.17259 9.24266 4.4111 8.624 3.85814C8.00533 3.30518 7.20465 2.99951 6.37489 2.99951C5.54512 2.99951 4.74444 3.30518 4.12577 3.85814C3.50711 4.4111 3.11383 5.17259 3.02105 5.99715C2.92827 6.82171 3.1425 7.65155 3.62282 8.32816C4.10313 9.00477 4.81587 9.48073 5.62489 9.66512V14.3354C4.81587 14.5198 4.10313 14.9958 3.62282 15.6724C3.1425 16.349 2.92827 17.1789 3.02105 18.0034C3.11383 18.828 3.50711 19.5895 4.12577 20.1424C4.74444 20.6954 5.54512 21.001 6.37489 21.001C7.20465 21.001 8.00533 20.6954 8.624 20.1424C9.24266 19.5895 9.63594 18.828 9.72872 18.0034C9.8215 17.1789 9.60727 16.349 9.12695 15.6724C8.64664 14.9958 7.9339 14.5198 7.12489 14.3354V14.2504C7.12535 13.8527 7.28353 13.4714 7.56474 13.1902C7.84594 12.909 8.2272 12.7508 8.62489 12.7504L15.375 12.7502C16.1703 12.7493 16.9328 12.4329 17.4952 11.8705C18.0576 11.3081 18.374 10.5456 18.3749 9.75021V9.66513C19.12 9.49435 19.7852 9.07607 20.2619 8.47855C20.7387 7.88104 20.9988 7.13957 20.9999 6.37517ZM4.49989 6.37517C4.49989 6.00433 4.60985 5.64181 4.81588 5.33347C5.02191 5.02513 5.31474 4.78481 5.65735 4.64289C5.99997 4.50098 6.37697 4.46385 6.74068 4.53619C7.10439 4.60854 7.43849 4.78712 7.70071 5.04934C7.96293 5.31157 8.14151 5.64566 8.21386 6.00937C8.28621 6.37309 8.24907 6.75009 8.10716 7.0927C7.96525 7.43531 7.72492 7.72815 7.41658 7.93417C7.10824 8.1402 6.74573 8.25017 6.37489 8.25017C5.87778 8.24961 5.40119 8.05188 5.04968 7.70037C4.69817 7.34886 4.50045 6.87228 4.49989 6.37517ZM8.24989 17.6254C8.24989 17.9962 8.13992 18.3587 7.93389 18.6671C7.72786 18.9754 7.43503 19.2158 7.09242 19.3577C6.74981 19.4996 6.37281 19.5367 6.00909 19.4644C5.64538 19.392 5.31128 19.2134 5.04906 18.9512C4.78684 18.689 4.60826 18.3549 4.53591 17.9912C4.46357 17.6275 4.5007 17.2505 4.64261 16.9079C4.78453 16.5653 5.02485 16.2724 5.33319 16.0664C5.64153 15.8604 6.00405 15.7504 6.37489 15.7504C6.87199 15.751 7.34858 15.9487 7.70009 16.3002C8.0516 16.6517 8.24932 17.1283 8.24989 17.6254ZM17.6249 8.25017C17.254 8.25017 16.8915 8.1402 16.5832 7.93417C16.2748 7.72815 16.0345 7.43531 15.8926 7.0927C15.7507 6.75009 15.7136 6.37309 15.7859 6.00937C15.8583 5.64566 16.0368 5.31157 16.2991 5.04934C16.5613 4.78712 16.8954 4.60854 17.2591 4.53619C17.6228 4.46385 17.9998 4.50098 18.3424 4.64289C18.685 4.78481 18.9779 5.02513 19.1839 5.33347C19.3899 5.64181 19.4999 6.00433 19.4999 6.37517C19.4993 6.87228 19.3016 7.34886 18.9501 7.70037C18.5986 8.05188 18.122 8.24961 17.6249 8.25017Z" fill="#1D1F21" style="fill: var(--ui-icon-primary-color);"/>
</svg>
