<svg  viewBox="0 0 24 24" fill="none" xmlns="http://www.w3.org/2000/svg" id="__THIS_ID_NEEDS_FOR_UI_ICON_COMPONENT__">
<path d="M20.25 19.5C19.8523 19.4996 19.471 19.3414 19.1898 19.0602C18.9086 18.779 18.7505 18.3977 18.75 18V17.25C18.7497 16.7464 18.6226 16.251 18.3804 15.8094C18.1383 15.3678 17.7888 14.9943 17.3643 14.7234C18.0263 14.236 18.5646 13.5999 18.9355 12.8662C19.3065 12.1326 19.4999 11.3221 19.5 10.5V9.75001C19.5018 8.8159 19.2528 7.89843 18.7791 7.09334C19.0083 6.3541 19.0818 5.57538 18.995 4.80631C18.9081 4.03724 18.6628 3.29452 18.2745 2.62501C18.2087 2.51099 18.114 2.41631 18 2.35048C17.886 2.28466 17.7567 2.25001 17.625 2.25001C16.7513 2.24806 15.8893 2.45051 15.1078 2.84119C14.3263 3.23187 13.6471 3.79995 13.1244 4.50001L10.8756 4.49992C10.3529 3.79989 9.67363 3.23184 8.89216 2.84118C8.11069 2.45052 7.24868 2.24807 6.375 2.25001C6.24335 2.25001 6.11401 2.28466 5.99999 2.35048C5.88598 2.41631 5.7913 2.51099 5.72548 2.62501C5.33719 3.29452 5.09188 4.03724 5.00503 4.80631C4.91818 5.57538 4.99168 6.3541 5.22089 7.09334C4.74718 7.89843 4.49822 8.8159 4.5 9.75001V10.5C4.50013 11.3221 4.69349 12.1326 5.06446 12.8662C5.43544 13.5999 5.97366 14.236 6.6357 14.7234C6.21119 14.9943 5.86173 15.3678 5.61956 15.8094C5.37739 16.251 5.2503 16.7464 5.25 17.25V18C5.24955 18.3977 5.09136 18.779 4.81016 19.0602C4.52895 19.3414 4.14769 19.4996 3.75 19.5C3.55109 19.5 3.36032 19.579 3.21967 19.7197C3.07902 19.8603 3 20.0511 3 20.25C3 20.4489 3.07902 20.6397 3.21967 20.7803C3.36032 20.921 3.55109 21 3.75 21C4.54537 20.9991 5.30791 20.6828 5.87032 20.1203C6.43274 19.5579 6.7491 18.7954 6.75 18V17.25C6.75045 16.8523 6.90864 16.4711 7.18984 16.1899C7.47105 15.9087 7.85231 15.7505 8.25 15.75H9.375V19.5C9.37455 19.8977 9.21636 20.279 8.93516 20.5602C8.65395 20.8414 8.27269 20.9996 7.875 21C7.67609 21 7.48532 21.079 7.34467 21.2197C7.20402 21.3603 7.125 21.5511 7.125 21.75C7.125 21.9489 7.20402 22.1397 7.34467 22.2803C7.48532 22.421 7.67609 22.5 7.875 22.5C8.67037 22.4991 9.43291 22.1828 9.99532 21.6203C10.5577 21.0579 10.8741 20.2954 10.875 19.5V15.75H13.125V19.5C13.1259 20.2954 13.4423 21.0579 14.0047 21.6203C14.5671 22.1828 15.3296 22.4991 16.125 22.5C16.3239 22.5 16.5147 22.421 16.6553 22.2803C16.796 22.1397 16.875 21.9489 16.875 21.75C16.875 21.5511 16.796 21.3603 16.6553 21.2197C16.5147 21.079 16.3239 21 16.125 21C15.7273 20.9996 15.346 20.8414 15.0648 20.5602C14.7836 20.279 14.6255 19.8977 14.625 19.5V15.75H15.75C16.1477 15.7505 16.529 15.9087 16.8102 16.1899C17.0914 16.4711 17.2495 16.8523 17.25 17.25V18C17.2509 18.7954 17.5673 19.5579 18.1297 20.1203C18.6921 20.6828 19.4546 20.9991 20.25 21C20.4489 21 20.6397 20.921 20.7803 20.7803C20.921 20.6397 21 20.4489 21 20.25C21 20.0511 20.921 19.8603 20.7803 19.7197C20.6397 19.579 20.4489 19.5 20.25 19.5ZM6 10.5V9.75001C5.99839 8.98813 6.23032 8.24406 6.66454 7.61803C6.73413 7.51754 6.77812 7.40157 6.79265 7.2802C6.80719 7.15883 6.79184 7.03576 6.74794 6.92168C6.55269 6.4179 6.45872 5.88057 6.47141 5.34043C6.4841 4.80029 6.60319 4.26796 6.82187 3.77391C7.43574 3.83967 8.02691 4.04287 8.55147 4.36842C9.07604 4.69397 9.52054 5.13351 9.85194 5.6544C9.91979 5.76037 10.0132 5.84757 10.1236 5.90797C10.234 5.96836 10.3578 6.00002 10.4836 6.00001L13.5165 5.99992C13.6423 5.99991 13.7661 5.96825 13.8765 5.90786C13.9868 5.84746 14.0802 5.76027 14.1481 5.65431C14.4795 5.13343 14.924 4.6939 15.4485 4.36837C15.9731 4.04283 16.5643 3.83965 17.1781 3.77391C17.3968 4.26796 17.5159 4.80029 17.5286 5.34043C17.5413 5.88057 17.4473 6.4179 17.2521 6.92168C17.2082 7.03576 17.1928 7.15884 17.2074 7.28021C17.2219 7.40158 17.2659 7.51755 17.3355 7.61803C17.7697 8.24408 18.0016 8.98814 18 9.75001V10.5C17.9989 11.4942 17.6034 12.4474 16.9004 13.1504C16.1974 13.8534 15.2442 14.2489 14.25 14.25H9.75C8.75578 14.2489 7.80261 13.8534 7.0996 13.1504C6.39658 12.4474 6.00113 11.4942 6 10.5Z" fill="#1D1F21" style="fill: var(--ui-icon-primary-color);"/>
</svg>
