<svg  viewBox="0 0 24 24" fill="none" xmlns="http://www.w3.org/2000/svg" id="__THIS_ID_NEEDS_FOR_UI_ICON_COMPONENT__">
<path d="M12.0001 16.4998C13.4834 16.4998 14.9335 16.0599 16.1668 15.2358C17.4002 14.4117 18.3615 13.2404 18.9292 11.8699C19.4968 10.4995 19.6453 8.99147 19.356 7.53661C19.0666 6.08175 18.3523 4.74538 17.3034 3.69649C16.2545 2.64759 14.9181 1.93329 13.4632 1.6439C12.0084 1.35451 10.5004 1.50304 9.12994 2.07069C7.7595 2.63835 6.58816 3.59964 5.76404 4.83301C4.93993 6.06638 4.50007 7.51643 4.50007 8.99979C4.50231 10.9882 5.29321 12.8946 6.69924 14.3006C8.10528 15.7067 10.0116 16.4975 12.0001 16.4998ZM12.0001 2.99979C13.1868 2.99979 14.3468 3.35168 15.3335 4.01097C16.3202 4.67026 17.0892 5.60733 17.5433 6.70369C17.9975 7.80005 18.1163 9.00645 17.8848 10.1703C17.6533 11.3342 17.0818 12.4033 16.2427 13.2424C15.4036 14.0815 14.3345 14.653 13.1706 14.8845C12.0067 15.116 10.8003 14.9972 9.70397 14.5431C8.60761 14.0889 7.67054 13.3199 7.01125 12.3332C6.35196 11.3465 6.00007 10.1865 6.00007 8.99979C6.00186 7.40904 6.63458 5.88396 7.75941 4.75913C8.88424 3.6343 10.4093 3.00159 12.0001 2.99979ZM12.7501 19.4732V20.9998H15.0001C15.199 20.9998 15.3897 21.0788 15.5304 21.2195C15.671 21.3601 15.7501 21.5509 15.7501 21.7498C15.7501 21.9487 15.671 22.1395 15.5304 22.2801C15.3897 22.4208 15.199 22.4998 15.0001 22.4998H9.00007C8.80115 22.4998 8.61039 22.4208 8.46974 22.2801C8.32908 22.1395 8.25007 21.9487 8.25007 21.7498C8.25007 21.5509 8.32908 21.3601 8.46974 21.2195C8.61039 21.0788 8.80115 20.9998 9.00007 20.9998H11.2501V19.4732C9.24239 19.3294 7.31836 18.6116 5.70711 17.4052C4.09587 16.1988 2.86531 14.5547 2.16199 12.6688C1.45867 10.7828 1.31224 8.73448 1.74012 6.76767C2.168 4.80085 3.15217 2.99845 4.57541 1.57514C4.64506 1.50549 4.72775 1.45025 4.81875 1.41256C4.90975 1.37487 5.00728 1.35547 5.10577 1.35547C5.20427 1.35547 5.3018 1.37487 5.3928 1.41257C5.4838 1.45026 5.56648 1.50551 5.63612 1.57516C5.70577 1.64481 5.76101 1.72749 5.79871 1.81849C5.8364 1.90949 5.85579 2.00702 5.85579 2.10552C5.85579 2.20401 5.83639 2.30154 5.79869 2.39254C5.761 2.48354 5.70575 2.56622 5.6361 2.63587C4.7999 3.47149 4.13651 4.46367 3.68383 5.55572C3.23115 6.64778 2.99805 7.81832 2.99785 9.00048C2.99764 10.1826 3.23034 11.3533 3.68264 12.4455C4.13494 13.5377 4.79799 14.5301 5.6339 15.366C6.46982 16.2019 7.46223 16.865 8.55444 17.3172C9.64666 17.7695 10.8173 18.0022 11.9994 18.002C13.1816 18.0018 14.3521 17.7687 15.4442 17.316C16.5362 16.8633 17.5284 16.1999 18.364 15.3637C18.4337 15.2941 18.5164 15.2388 18.6074 15.2011C18.6984 15.1635 18.7959 15.1441 18.8944 15.1441C18.9929 15.1441 19.0904 15.1635 19.1814 15.2012C19.2724 15.2389 19.3551 15.2941 19.4247 15.3638C19.4944 15.4334 19.5496 15.5161 19.5873 15.6071C19.625 15.6981 19.6444 15.7956 19.6444 15.8941C19.6444 15.9926 19.625 16.0901 19.5873 16.1811C19.5496 16.2721 19.4943 16.3548 19.4247 16.4244C17.643 18.2163 15.271 19.2998 12.7501 19.4732Z" fill="#1D1F21" style="fill: var(--ui-icon-primary-color);"/>
</svg>
