<svg  viewBox="0 0 24 24" fill="none" xmlns="http://www.w3.org/2000/svg" id="__THIS_ID_NEEDS_FOR_UI_ICON_COMPONENT__">
<path d="M20.9787 15.8001C20.995 15.7676 21.0089 15.7338 21.0203 15.6992C21.8588 13.6564 21.9785 11.3893 21.3596 9.2695C20.7407 7.14974 19.4199 5.30316 17.6138 4.03249C17.5748 3.99898 17.5323 3.96956 17.4872 3.94469C15.6052 2.66058 13.3326 2.07653 11.0646 2.29404C8.79665 2.51155 6.67657 3.51687 5.07286 5.13528C3.46916 6.75369 2.48323 8.88287 2.28643 11.1528C2.08964 13.4226 2.69441 15.6897 3.99565 17.56C3.99945 17.5668 4.00261 17.5738 4.00664 17.5805C4.02894 17.6167 4.05429 17.6509 4.0824 17.6828C4.87185 18.7849 5.88275 19.7101 7.05037 20.399C8.218 21.0878 9.51661 21.5253 10.8631 21.6833C12.2095 21.8414 13.5741 21.7165 14.8695 21.3167C16.1649 20.9169 17.3626 20.251 18.3858 19.3616C18.4179 19.3387 18.4482 19.3133 18.4763 19.2856C18.4834 19.2785 18.4896 19.2709 18.4963 19.2635C19.5679 18.3052 20.4154 17.1228 20.9787 15.8001ZM17.956 17.7026L17.1117 16.8567C16.9812 16.7251 16.8259 16.6207 16.6547 16.5497C16.4835 16.4787 16.2999 16.4424 16.1145 16.4429H15.1483L15.3493 15.0779L17.4892 13.9615L19.3932 15.6578C19.0202 16.4081 18.5357 17.0975 17.956 17.7026ZM12 3.74973C13.5767 3.74781 15.1206 4.20042 16.4466 5.05335L16.7596 6.75101L14.9604 7.60968C14.698 7.73515 14.4809 7.93867 14.3387 8.19237C14.1965 8.44607 14.1362 8.73754 14.1661 9.02683L12.992 8.26923C12.831 8.16534 12.6504 8.09539 12.4615 8.06367C12.2725 8.03195 12.079 8.03913 11.8929 8.08475C11.7068 8.13038 11.5319 8.2135 11.379 8.32903C11.2262 8.44456 11.0985 8.59007 11.0037 8.75666L10.6585 9.36393L10.5974 9.19757C10.4804 8.87829 10.2517 8.61215 9.95373 8.44831L9.27944 8.07752C9.03482 7.94215 8.75533 7.88292 8.47683 7.90744C8.19832 7.93195 7.93348 8.03909 7.71627 8.21512L6.18267 9.45191C6.03725 9.56895 5.91669 9.71388 5.82809 9.87818L4.82627 11.7306C4.67459 12.012 4.62275 12.3365 4.67919 12.6511L5.2736 15.9396L4.88633 16.1734C4.15022 14.9205 3.75827 13.4953 3.75015 12.0422C3.74204 10.5891 4.11806 9.15958 4.84013 7.89851C5.5622 6.63745 6.60468 5.58958 7.86201 4.86103C9.11934 4.13247 10.5469 3.7491 12 3.74973ZM5.76414 17.3957L6.10265 17.1913C6.34625 17.043 6.53942 16.8247 6.65687 16.5648C6.77432 16.3049 6.81058 16.0156 6.76092 15.7348L6.16097 12.4158L7.1388 10.6079L8.61015 9.42124L9.20094 9.74616L9.31799 10.0653C9.41046 10.3175 9.57313 10.5381 9.78682 10.7009C10.0005 10.8637 10.2563 10.962 10.524 10.9842C10.7918 11.0064 11.0603 10.9516 11.2979 10.8262C11.5355 10.7009 11.7323 10.5102 11.865 10.2766L12.26 9.58201L13.5301 10.4016C13.7634 10.5521 14.0361 10.6304 14.3137 10.6264C14.5914 10.6225 14.8617 10.5366 15.0907 10.3796C15.3196 10.2225 15.4971 10.0012 15.6007 9.74363C15.7044 9.48601 15.7296 9.2035 15.6731 8.93161L17.4689 8.07459C17.7351 7.947 17.9546 7.73911 18.0963 7.4802C18.2381 7.2213 18.2951 6.92444 18.2593 6.63144C19.1359 7.65147 19.7495 8.87057 20.0465 10.1823C20.3436 11.4941 20.315 12.8586 19.9634 14.1568L18.4399 12.7995C18.2259 12.6103 17.9596 12.4902 17.6761 12.455C17.3926 12.4198 17.105 12.4712 16.8513 12.6024L14.6143 13.7695C14.4171 13.8727 14.2471 14.0211 14.1181 14.2025C13.9891 14.3839 13.9048 14.5932 13.8721 14.8133L13.6489 16.3291C13.6194 16.5292 13.6334 16.7334 13.6899 16.9277C13.7464 17.122 13.8441 17.3018 13.9764 17.4549C14.1086 17.6081 14.2723 17.7309 14.4562 17.8151C14.6402 17.8993 14.8402 17.9429 15.0425 17.9429H16.0766L16.8219 18.6897C15.1511 19.8967 13.0885 20.4335 11.0413 20.1939C8.99407 19.9543 7.11108 18.9559 5.76414 17.3957V17.3957Z" fill="#1D1F21" style="fill: var(--ui-icon-primary-color);"/>
</svg>
