<svg  viewBox="0 0 24 24" fill="none" xmlns="http://www.w3.org/2000/svg" id="__THIS_ID_NEEDS_FOR_UI_ICON_COMPONENT__">
<path d="M21.75 11.9995C21.7471 9.41521 20.7195 6.93756 18.8925 5.10983C17.0655 3.28211 14.5882 2.25349 12.004 2.24953L12 2.24609L11.9961 2.24953C9.41129 2.25112 6.9329 3.27904 5.10573 5.10733C3.27856 6.93562 2.25215 9.41463 2.25214 11.9994C2.25212 14.5842 3.27851 17.0633 5.10566 18.8916C6.93282 20.7199 9.4112 21.7478 11.996 21.7494L12 21.753L12.0041 21.7494C14.5883 21.7454 17.0655 20.7168 18.8925 18.8891C20.7195 17.0614 21.7471 14.5837 21.75 11.9995ZM20.2156 11.2495H16.4793C16.3301 8.47101 15.3532 5.90408 13.7133 3.92888C15.4355 4.29747 16.995 5.20637 18.1646 6.52316C19.3342 7.83995 20.0528 9.49581 20.2156 11.2495ZM9.02429 12.7495H14.9758C14.8061 15.4453 13.7294 17.9716 12 19.7284C10.2706 17.9716 9.19394 15.4453 9.02429 12.7495ZM9.02429 11.2495C9.19394 8.55353 10.2706 6.02727 12 4.2706C13.7294 6.02727 14.8061 8.55353 14.9758 11.2495L9.02429 11.2495ZM10.2868 3.92888C8.64682 5.90408 7.66995 8.47101 7.52072 11.2495H3.7845C3.94731 9.49581 4.66585 7.83995 5.83544 6.52316C7.00503 5.20637 8.56455 4.29747 10.2868 3.92888ZM3.7845 12.7495H7.52072C7.66999 15.5279 8.64682 18.0948 10.2868 20.0701C8.56458 19.7015 7.00506 18.7926 5.83546 17.4758C4.66586 16.159 3.94731 14.5032 3.7845 12.7495ZM13.7133 20.0701C15.3532 18.0948 16.3301 15.5279 16.4793 12.7495H20.2156C20.0527 14.5032 19.3342 16.159 18.1646 17.4758C16.995 18.7926 15.4355 19.7015 13.7133 20.0701Z" fill="#1D1F21" style="fill: var(--ui-icon-primary-color);"/>
</svg>
