<svg  viewBox="0 0 24 24" fill="none" xmlns="http://www.w3.org/2000/svg" id="__THIS_ID_NEEDS_FOR_UI_ICON_COMPONENT__">
<path d="M20.7747 16.248C21.4009 14.9553 21.7337 13.5403 21.7494 12.104C21.765 10.6678 21.463 9.24585 20.8651 7.93991C20.2671 6.63396 19.388 5.47629 18.2905 4.5497C17.193 3.62311 15.9043 2.95049 14.5166 2.57996C14.4997 2.57469 14.4827 2.57016 14.4655 2.56609C12.9428 2.16846 11.3465 2.14564 9.81317 2.49958C8.2798 2.85351 6.855 3.57367 5.66069 4.59842C5.61556 4.62981 5.57406 4.66612 5.53696 4.70668C4.05532 6.01783 3.00786 7.74888 2.53381 9.66972C2.05976 11.5906 2.18159 13.6102 2.8831 15.4601C3.58461 17.31 4.83257 18.9026 6.46107 20.0262C8.08957 21.1497 10.0215 21.751 11.9999 21.75C12.0689 21.75 12.1376 21.7488 12.2063 21.7474C12.208 21.7474 12.2097 21.7476 12.2113 21.7476C12.2146 21.7476 12.2178 21.7473 12.221 21.7472C13.9917 21.7054 15.7177 21.1827 17.2141 20.235C18.7104 19.2873 19.9207 17.9503 20.7153 16.3674L20.7167 16.3653C20.7394 16.328 20.7588 16.2887 20.7747 16.248ZM20.2499 12C20.2508 12.9829 20.0752 13.9579 19.7314 14.8787L15.3813 12.2033C15.203 12.0933 15.0036 12.0222 14.796 11.9945L12.6568 11.7061C12.3818 11.6705 12.1023 11.7113 11.8489 11.824C11.5956 11.9366 11.3781 12.1169 11.2204 12.345H10.4195L10.0627 11.608C9.96397 11.4023 9.8193 11.222 9.63986 11.081C9.46042 10.9401 9.25101 10.8422 9.02777 10.795L8.41208 10.6626L8.84137 9.64353H10.8425C11.0961 9.6434 11.3456 9.57909 11.5676 9.45658L12.7155 8.82276C12.8164 8.76691 12.9107 8.69967 12.9963 8.62235L15.5192 6.34067C15.7367 6.14548 15.892 5.89069 15.9659 5.60797C16.0398 5.32525 16.029 5.02704 15.9348 4.7504C17.2394 5.45922 18.3288 6.50668 19.0882 7.7825C19.8476 9.05831 20.2489 10.5153 20.2499 12ZM13.7984 3.94803L14.5131 5.22812L11.9902 7.5098L10.8425 8.14353H8.84137C8.54614 8.14314 8.25738 8.23005 8.01142 8.39335C7.76545 8.55664 7.57326 8.78902 7.45902 9.06125L6.96784 10.2274L5.94144 7.48801L6.70751 5.67659C7.6773 4.86323 8.82143 4.28421 10.0511 3.98444C11.2809 3.68467 12.5631 3.67221 13.7984 3.94803L13.7984 3.94803ZM3.74994 12C3.74848 10.7079 4.05239 9.43374 4.63691 8.28141L5.61409 10.8895C5.70179 11.1253 5.84763 11.3351 6.03809 11.4994C6.22855 11.6638 6.45744 11.7774 6.70353 11.8296L7.22039 11.9407L7.22455 11.9416L8.7126 12.2615L9.06934 12.9985C9.19294 13.2515 9.38491 13.465 9.62353 13.6146C9.86215 13.7642 10.1379 13.844 10.4195 13.845H10.5235L9.80204 15.4638C9.68239 15.7318 9.64407 16.029 9.69183 16.3186C9.73959 16.6082 9.87133 16.8773 10.0707 17.0927L11.8332 18.999L11.5932 20.2399C9.47901 20.133 7.48655 19.2186 6.02706 17.6853C4.56757 16.152 3.75245 14.1169 3.74994 12ZM13.1342 20.1717L13.3059 19.2839C13.3502 19.0528 13.3396 18.8145 13.2751 18.5882C13.2107 18.3619 13.094 18.1539 12.9346 17.9808L11.1721 16.0745L12.3695 13.3876L12.37 13.3866L12.4564 13.1927L14.5956 13.481L19.0762 16.2369C18.442 17.2944 17.5792 18.1967 16.5511 18.8776C15.5229 19.5584 14.3554 20.0006 13.1342 20.1717Z" fill="#1D1F21" style="fill: var(--ui-icon-primary-color);"/>
</svg>
