<svg  viewBox="0 0 24 24" fill="none" xmlns="http://www.w3.org/2000/svg" id="__THIS_ID_NEEDS_FOR_UI_ICON_COMPONENT__">
<path d="M21.1744 15.3003C21.1884 15.2681 21.2001 15.235 21.2094 15.2012C21.9305 13.1267 21.9302 10.8695 21.2084 8.79516C21.1994 8.76295 21.1883 8.73138 21.1751 8.70066C20.4941 6.81361 19.2484 5.18206 17.6075 4.02783C15.9666 2.87361 14.0101 2.2527 12.0039 2.24953L12 2.24609L11.9961 2.24953C9.99007 2.2527 8.03371 2.87349 6.39291 4.02751C4.75211 5.18153 3.50646 6.81281 2.82527 8.6996C2.81165 8.7311 2.80023 8.76351 2.79108 8.79659C2.0692 10.8722 2.06965 13.1308 2.79236 15.2061C2.80105 15.2369 2.81172 15.2672 2.82431 15.2966C3.5051 17.1841 4.75069 18.816 6.3917 19.9706C8.03271 21.1251 9.9895 21.7462 11.996 21.7494L12 21.753L12.004 21.7494C14.0098 21.7462 15.966 21.1255 17.6067 19.9717C19.2474 18.8179 20.4931 17.1868 21.1744 15.3003ZM9.60731 15.7495H14.3927C13.9067 17.2398 13.0886 18.6004 12 19.7284C10.9114 18.6004 10.0933 17.2398 9.60731 15.7495ZM9.21464 14.2495C8.92845 12.7631 8.92845 11.2358 9.21464 9.74948H14.7854C15.0715 11.2358 15.0715 12.7631 14.7854 14.2495H9.21464ZM3.75 11.9995C3.74946 11.2387 3.85442 10.4815 4.06187 9.74948H7.68484C7.43838 11.2394 7.43838 12.7596 7.68484 14.2495H4.06187C3.85442 13.5175 3.74946 12.7603 3.75 11.9995ZM14.3927 8.24948H9.60727C10.0933 6.75911 10.9114 5.3986 12 4.2706C13.0886 5.3986 13.9067 6.75911 14.3927 8.24948ZM16.3152 9.74948H19.9381C20.354 11.2207 20.354 12.7783 19.9381 14.2495H16.3152C16.5616 12.7596 16.5616 11.2394 16.3152 9.74948ZM19.3474 8.24948H15.9757C15.5267 6.66904 14.7565 5.1982 13.7133 3.92889C14.914 4.18619 16.0425 4.70735 17.0169 5.45463C17.9914 6.2019 18.7874 7.15657 19.3474 8.24948ZM10.2867 3.92889C9.24352 5.1982 8.47332 6.66904 8.02428 8.24948H4.65262C5.21256 7.15657 6.0086 6.2019 6.98305 5.45463C7.95751 4.70735 9.08599 4.18619 10.2867 3.92889H10.2867ZM4.65262 15.7495H8.02432C8.47338 17.3299 9.24358 18.8008 10.2868 20.0701C9.08602 19.8128 7.95754 19.2916 6.98307 18.5444C6.00861 17.7971 5.21257 16.8424 4.65262 15.7495ZM13.7132 20.0701C14.7564 18.8008 15.5266 17.3299 15.9757 15.7495H19.3474C18.7874 16.8424 17.9914 17.7971 17.0169 18.5443C16.0425 19.2916 14.914 19.8128 13.7132 20.0701Z" fill="#1D1F21" style="fill: var(--ui-icon-primary-color);"/>
</svg>
