<svg  viewBox="0 0 24 24" fill="none" xmlns="http://www.w3.org/2000/svg" id="__THIS_ID_NEEDS_FOR_UI_ICON_COMPONENT__">
<path d="M12 21C10.5199 21 9.06273 20.635 7.75743 19.9373C6.45214 19.2396 5.33905 18.2308 4.51678 17.0001C3.6945 15.7695 3.18841 14.3551 3.04334 12.8822C2.89827 11.4092 3.11869 9.92325 3.68508 8.55585C4.25148 7.18846 5.14636 5.98185 6.29046 5.04291C7.43456 4.10397 8.79256 3.46168 10.2442 3.17293C11.6958 2.88419 13.1962 2.9579 14.6126 3.38754C16.0289 3.81717 17.3174 4.58947 18.364 5.63603C18.4336 5.70567 18.4889 5.78835 18.5266 5.87935C18.5643 5.97035 18.5837 6.06789 18.5838 6.1664C18.5838 6.26491 18.5644 6.36245 18.5267 6.45346C18.489 6.54447 18.4337 6.62716 18.3641 6.69682C18.2944 6.76647 18.2117 6.82172 18.1207 6.85941C18.0297 6.8971 17.9322 6.91649 17.8337 6.91648C17.7352 6.91646 17.6376 6.89705 17.5466 6.85933C17.4556 6.82162 17.3729 6.76634 17.3033 6.69667C16.0991 5.49266 14.521 4.73431 12.8285 4.54632C11.1361 4.35834 9.43003 4.75192 7.99097 5.66233C6.55191 6.57274 5.46552 7.94578 4.91045 9.55564C4.35539 11.1655 4.36472 12.9163 4.93689 14.5202C5.50906 16.1241 6.61001 17.4855 8.05868 18.3805C9.50736 19.2755 11.2175 19.6509 12.9079 19.4449C14.5982 19.2389 16.1681 18.4638 17.3595 17.2471C18.5508 16.0303 19.2926 14.4443 19.4628 12.75H12C11.8011 12.75 11.6103 12.671 11.4697 12.5303C11.329 12.3897 11.25 12.1989 11.25 12C11.25 11.8011 11.329 11.6103 11.4697 11.4697C11.6103 11.329 11.8011 11.25 12 11.25H20.25C20.3485 11.25 20.446 11.2694 20.537 11.3071C20.628 11.3448 20.7107 11.4 20.7803 11.4697C20.85 11.5393 20.9052 11.622 20.9429 11.713C20.9806 11.804 21 11.9015 21 12C20.9973 14.3861 20.0482 16.6737 18.361 18.361C16.6737 20.0482 14.3861 20.9973 12 21Z" fill="#1D1F21" style="fill: var(--ui-icon-primary-color);"/>
</svg>
