<svg  viewBox="0 0 24 24" fill="none" xmlns="http://www.w3.org/2000/svg" id="__THIS_ID_NEEDS_FOR_UI_ICON_COMPONENT__">
<path d="M20.9657 10.7041L5.23605 1.70038C5.00632 1.56712 4.7453 1.4973 4.47971 1.49805C4.21412 1.49881 3.9535 1.57012 3.72452 1.70469C3.4984 1.83339 3.31054 2.01986 3.18016 2.24502C3.04978 2.47017 2.98156 2.72592 2.98249 2.9861V21.013C2.98156 21.2732 3.04978 21.529 3.18016 21.7541C3.31054 21.9793 3.4984 22.1657 3.72452 22.2944C3.9535 22.429 4.21412 22.5003 4.47971 22.5011C4.7453 22.5018 5.00632 22.432 5.23606 22.2987L20.9657 13.295C21.1979 13.1676 21.3915 12.9801 21.5264 12.7522C21.6613 12.5243 21.7325 12.2644 21.7325 11.9996C21.7325 11.7347 21.6613 11.4748 21.5264 11.2469C21.3915 11.019 21.1979 10.8315 20.9657 10.7041L20.9657 10.7041ZM4.48248 19.9564V4.04276L12.4393 11.9996L4.48248 19.9564ZM13.5 13.0602L15.2678 14.828L6.99996 19.5603L13.5 13.0602ZM6.99886 4.43776L15.2679 9.17099L13.5 10.9389L6.99886 4.43776ZM16.6169 14.0558L14.5606 11.9996L16.617 9.94324L20.2094 11.9996L16.6169 14.0558Z" fill="#1D1F21" style="fill: var(--ui-icon-primary-color);"/>
</svg>
