<svg  viewBox="0 0 24 24" fill="none" xmlns="http://www.w3.org/2000/svg" id="__THIS_ID_NEEDS_FOR_UI_ICON_COMPONENT__">
<path d="M23.5615 10.0518L21.2559 5.63652C21.0726 5.2892 20.7609 5.02718 20.3873 4.90627C20.0136 4.78535 19.6075 4.81509 19.2555 4.98915L17.0729 6.08036H15.5367L12.4432 4.68061C12.117 4.53317 11.7488 4.50715 11.4051 4.60724L6.84211 5.93749L4.74446 4.88867C4.39238 4.71472 3.98632 4.68504 3.6127 4.80594C3.23907 4.92683 2.92737 5.18877 2.74394 5.53599L0.438364 9.95135C0.346184 10.1279 0.290093 10.3211 0.273366 10.5196C0.256638 10.7181 0.279608 10.9179 0.340935 11.1074C0.402262 11.2969 0.500718 11.4723 0.630558 11.6234C0.760399 11.7745 0.919024 11.8982 1.09718 11.9873L3.34718 13.1123L8.41233 17.073C8.5777 17.2027 8.76861 17.2959 8.97254 17.3466L14.406 18.7049C14.5239 18.7344 14.6449 18.7493 14.7665 18.7493C15.1652 18.7493 15.5477 18.5916 15.8306 18.3105L19.2803 14.8607C19.2839 14.857 19.2872 14.853 19.2908 14.8493C19.2955 14.8444 19.3001 14.8393 19.3047 14.8343C19.3098 14.8287 19.3151 14.8234 19.32 14.8177L20.7213 13.1784L22.9027 12.0877C23.0808 11.9986 23.2394 11.8749 23.3693 11.7239C23.4991 11.5728 23.5976 11.3974 23.6589 11.2079C23.7202 11.0184 23.7432 10.8185 23.7265 10.62C23.7097 10.4215 23.6537 10.2284 23.5615 10.0518V10.0518ZM18.6303 13.316L15.066 10.7238C14.9363 10.6295 14.7798 10.5792 14.6194 10.5804C14.459 10.5815 14.3032 10.6341 14.1749 10.7304L12.975 11.6304C12.5847 11.9207 12.1113 12.0775 11.6249 12.0775C11.1385 12.0775 10.6651 11.9207 10.2749 11.6304L9.76677 11.2492L13.4356 7.58036H15.371C15.3721 7.58037 15.3733 7.58055 15.3745 7.58055L15.377 7.58036H16.7954L19.3505 12.4735L18.6303 13.316ZM4.07365 6.23028L5.73176 7.05934L3.42619 11.4747L1.76808 10.6456L4.07365 6.23028ZM14.7698 17.2498L9.33638 15.8914L4.70376 12.2689L7.25712 7.37893L11.825 6.04727L12.5468 6.3739C12.486 6.41818 12.4285 6.46693 12.3749 6.51973L8.70603 10.1886C8.55408 10.3406 8.43656 10.5234 8.36142 10.7248C8.28628 10.9261 8.25528 11.1412 8.27051 11.3556C8.28575 11.5699 8.34687 11.7785 8.44973 11.9672C8.55259 12.1559 8.69479 12.3203 8.86671 12.4492L9.37492 12.8304C10.0253 13.3142 10.8143 13.5756 11.6249 13.5756C12.4355 13.5756 13.2246 13.3142 13.8749 12.8304L14.6318 12.2627L17.599 14.4207L14.7698 17.2498ZM22.2318 10.7461L20.5736 11.5752L18.2681 7.15982L19.9262 6.33081L22.2327 10.7456L22.2318 10.7461ZM11.2275 20.1373C11.2037 20.2329 11.1613 20.3229 11.1027 20.4021C11.0441 20.4813 10.9705 20.5481 10.886 20.5988C10.8015 20.6495 10.7078 20.683 10.6104 20.6975C10.5129 20.7119 10.4136 20.707 10.318 20.6829L7.49241 19.9766C7.26317 19.9189 7.05067 19.8082 6.87205 19.6534L4.75792 17.8157C4.60779 17.6852 4.51564 17.5004 4.50175 17.302C4.48786 17.1036 4.55336 16.9077 4.68385 16.7576C4.81434 16.6075 4.99912 16.5153 5.19755 16.5014C5.39598 16.4876 5.5918 16.5531 5.74193 16.6835L7.85625 18.5214L10.6818 19.2278C10.7774 19.2517 10.8673 19.2941 10.9464 19.3528C11.0256 19.4114 11.0924 19.4851 11.1431 19.5695C11.1937 19.654 11.2273 19.7476 11.2418 19.845C11.2562 19.9424 11.2514 20.0417 11.2275 20.1373Z" fill="#1D1F21" style="fill: var(--ui-icon-primary-color);"/>
</svg>
