<svg  viewBox="0 0 24 24" fill="none" xmlns="http://www.w3.org/2000/svg" id="__THIS_ID_NEEDS_FOR_UI_ICON_COMPONENT__">
<path d="M17.625 3.75001C17.2358 3.74962 16.8514 3.83634 16.5 4.00379V3.37501C16.5001 2.74958 16.2768 2.1447 15.8704 1.66929C15.464 1.19389 14.9013 0.879212 14.2835 0.781944C13.6656 0.684676 13.0334 0.811207 12.5006 1.13875C11.9678 1.46629 11.5695 1.97331 11.3773 2.5685C10.9776 2.35125 10.5282 2.24167 10.0733 2.25051C9.61843 2.25934 9.17366 2.38629 8.78264 2.6189C8.39162 2.85151 8.06779 3.18178 7.84293 3.57731C7.61807 3.97284 7.49991 4.42003 7.50004 4.87501V11.9447L6.84389 10.8081C6.49721 10.2077 5.92704 9.76872 5.25787 9.58717C4.58869 9.40561 3.87487 9.49619 3.27224 9.83911C2.66961 10.182 2.22714 10.7495 2.04142 11.4175C1.8557 12.0855 1.94183 12.7999 2.28099 13.4047C5.32301 19.8187 7.34944 22.5 12 22.5C14.1873 22.4975 16.2843 21.6275 17.8309 20.0809C19.3776 18.5343 20.2476 16.4373 20.25 14.25V6.37501C20.2493 5.67905 19.9724 5.01183 19.4803 4.51971C18.9882 4.0276 18.321 3.75079 17.625 3.75001ZM18.75 14.25C18.748 16.0396 18.0362 17.7553 16.7708 19.0208C15.5054 20.2862 13.7896 20.998 12 21C10.1083 21 8.7913 20.4886 7.59617 19.2902C6.42439 18.1151 5.27376 16.2165 3.62452 12.7369C3.61583 12.7186 3.6064 12.7007 3.59624 12.6831C3.44706 12.4247 3.40664 12.1176 3.48387 11.8294C3.5611 11.5412 3.74966 11.2955 4.00806 11.1463C4.26646 10.9971 4.57354 10.9567 4.86174 11.0339C5.14995 11.1112 5.39566 11.2997 5.54484 11.5581L7.60057 15.1187C7.68312 15.2617 7.81053 15.3734 7.96306 15.4366C8.1156 15.4998 8.28471 15.5109 8.44418 15.4681C8.60366 15.4254 8.74457 15.3313 8.84507 15.2003C8.94558 15.0693 9.00005 14.9088 9.00004 14.7437V4.87501C9.00004 4.57664 9.11857 4.29049 9.32955 4.07951C9.54053 3.86853 9.82667 3.75001 10.125 3.75001C10.4234 3.75001 10.7096 3.86853 10.9205 4.07951C11.1315 4.29049 11.25 4.57664 11.25 4.87501V11.25C11.25 11.4489 11.3291 11.6397 11.4697 11.7803C11.6104 11.921 11.8011 12 12 12C12.199 12 12.3897 11.921 12.5304 11.7803C12.671 11.6397 12.75 11.4489 12.75 11.25V3.37501C12.75 3.07664 12.8686 2.79049 13.0795 2.57951C13.2905 2.36853 13.5767 2.25001 13.875 2.25001C14.1734 2.25001 14.4596 2.36853 14.6705 2.57951C14.8815 2.79049 15 3.07664 15 3.37501V11.25C15 11.4489 15.0791 11.6397 15.2197 11.7803C15.3604 11.921 15.5511 12 15.75 12C15.949 12 16.1397 11.921 16.2804 11.7803C16.421 11.6397 16.5 11.4489 16.5 11.25V6.37501C16.5 6.07664 16.6186 5.79049 16.8295 5.57951C17.0405 5.36853 17.3267 5.25001 17.625 5.25001C17.9234 5.25001 18.2096 5.36853 18.4205 5.57951C18.6315 5.79049 18.75 6.07664 18.75 6.37501V14.25Z" fill="#1D1F21" style="fill: var(--ui-icon-primary-color);"/>
</svg>
