<svg  viewBox="0 0 24 24" fill="none" xmlns="http://www.w3.org/2000/svg" id="__THIS_ID_NEEDS_FOR_UI_ICON_COMPONENT__">
<path d="M17.625 7.5C17.1875 7.49947 16.7568 7.60899 16.3727 7.81849C16.2341 7.38832 15.9868 7.00126 15.6546 6.69484C15.3224 6.38843 14.9166 6.17306 14.4767 6.06962C14.0367 5.96618 13.5775 5.97818 13.1436 6.10447C12.7097 6.23075 12.3157 6.46702 12 6.79038C11.6355 6.4172 11.1681 6.16116 10.6574 6.05495C10.1467 5.94875 9.61595 5.9972 9.13293 6.19413C8.64991 6.39105 8.23656 6.72751 7.9457 7.1605C7.65483 7.5935 7.49966 8.10338 7.5 8.625V10.125H6.375C5.67905 10.1258 5.01182 10.4026 4.51971 10.8947C4.02759 11.3868 3.75078 12.054 3.75 12.75V14.25C3.75 16.438 4.61919 18.5365 6.16637 20.0836C7.71354 21.6308 9.81196 22.5 12 22.5C14.188 22.5 16.2865 21.6308 17.8336 20.0836C19.3808 18.5365 20.25 16.438 20.25 14.25V10.125C20.2492 9.42905 19.9724 8.76182 19.4803 8.26971C18.9882 7.77759 18.321 7.50078 17.625 7.5ZM18.75 14.25C18.75 16.0402 18.0388 17.7571 16.773 19.023C15.5071 20.2888 13.7902 21 12 21C10.2098 21 8.4929 20.2888 7.22703 19.023C5.96116 17.7571 5.25 16.0402 5.25 14.25V12.75C5.25033 12.4517 5.36897 12.1658 5.57987 11.9549C5.79078 11.744 6.07673 11.6253 6.375 11.625H7.5V13.875C7.5 14.0739 7.57902 14.2647 7.71967 14.4053C7.86032 14.546 8.05109 14.625 8.25 14.625C8.44891 14.625 8.63968 14.546 8.78033 14.4053C8.92098 14.2647 9 14.0739 9 13.875V8.625C9 8.32663 9.11853 8.04048 9.3295 7.82951C9.54048 7.61853 9.82663 7.5 10.125 7.5C10.4234 7.5 10.7095 7.61853 10.9205 7.82951C11.1315 8.04048 11.25 8.32663 11.25 8.625V11.625C11.25 11.8239 11.329 12.0147 11.4697 12.1553C11.6103 12.296 11.8011 12.375 12 12.375C12.1989 12.375 12.3897 12.296 12.5303 12.1553C12.671 12.0147 12.75 11.8239 12.75 11.625V8.625C12.75 8.32663 12.8685 8.04048 13.0795 7.82951C13.2905 7.61853 13.5766 7.5 13.875 7.5C14.1734 7.5 14.4595 7.61853 14.6705 7.82951C14.8815 8.04048 15 8.32663 15 8.625V11.625C15 11.8239 15.079 12.0147 15.2197 12.1553C15.3603 12.296 15.5511 12.375 15.75 12.375C15.9489 12.375 16.1397 12.296 16.2803 12.1553C16.421 12.0147 16.5 11.8239 16.5 11.625V10.125C16.5 9.82663 16.6185 9.54048 16.8295 9.32951C17.0405 9.11853 17.3266 9 17.625 9C17.9234 9 18.2095 9.11853 18.4205 9.32951C18.6315 9.54048 18.75 9.82663 18.75 10.125V14.25Z" fill="#1D1F21" style="fill: var(--ui-icon-primary-color);"/>
</svg>
