<svg  viewBox="0 0 24 24" fill="none" xmlns="http://www.w3.org/2000/svg" id="__THIS_ID_NEEDS_FOR_UI_ICON_COMPONENT__">
<path d="M18.75 7.5H17.25V6C17.2504 5.39043 17.065 4.79522 16.7184 4.29373C16.3719 3.79223 15.8807 3.40829 15.3104 3.19307C14.7401 2.97786 14.1177 2.9416 13.5263 3.08914C12.9348 3.23668 12.4024 3.561 12 4.01887C11.6165 3.5825 11.1145 3.26696 10.5551 3.11061C9.99559 2.95426 9.40274 2.96385 8.84861 3.1382C8.29448 3.31255 7.80294 3.64415 7.43378 4.09268C7.06463 4.54122 6.83375 5.08735 6.76923 5.66467C6.31373 5.39642 5.7954 5.25339 5.2668 5.25006C4.7382 5.24674 4.21811 5.38324 3.75928 5.64573C3.30044 5.90822 2.91917 6.28736 2.65411 6.74472C2.38905 7.20208 2.24964 7.72139 2.25 8.25V12C2.25 14.5859 3.27723 17.0658 5.10571 18.8943C6.93419 20.7228 9.41414 21.75 12 21.75C14.5859 21.75 17.0658 20.7228 18.8943 18.8943C20.7228 17.0658 21.75 14.5859 21.75 12V10.5C21.7491 9.70463 21.4327 8.94209 20.8703 8.37968C20.3079 7.81726 19.5454 7.5009 18.75 7.5ZM14.25 4.5C14.6477 4.50046 15.029 4.65864 15.3102 4.93984C15.5914 5.22105 15.7495 5.60232 15.75 6V7.5H12.75V6C12.7505 5.60232 12.9086 5.22105 13.1898 4.93984C13.471 4.65864 13.8523 4.50046 14.25 4.5ZM8.25 6C8.25 5.60218 8.40804 5.22064 8.68934 4.93934C8.97065 4.65804 9.35218 4.5 9.75 4.5C10.1478 4.5 10.5294 4.65804 10.8107 4.93934C11.092 5.22064 11.25 5.60218 11.25 6V9.75C11.25 10.1478 11.092 10.5294 10.8107 10.8107C10.5294 11.092 10.1478 11.25 9.75 11.25C9.35218 11.25 8.97065 11.092 8.68934 10.8107C8.40804 10.5294 8.25 10.1478 8.25 9.75V6ZM3.75 8.25C3.75 7.85218 3.90804 7.47065 4.18934 7.18934C4.47064 6.90804 4.85218 6.75 5.25 6.75C5.64783 6.75 6.02936 6.90804 6.31066 7.18934C6.59197 7.47065 6.75 7.85218 6.75 8.25V9.75C6.75 10.1478 6.59197 10.5294 6.31066 10.8107C6.02936 11.092 5.64783 11.25 5.25 11.25C4.85218 11.25 4.47064 11.092 4.18934 10.8107C3.90804 10.5294 3.75 10.1478 3.75 9.75V8.25ZM20.25 12C20.25 14.1576 19.4048 16.2293 17.8955 17.7711C16.3862 19.3129 14.3329 20.2021 12.1758 20.2481C10.0187 20.2941 7.92946 19.4932 6.35582 18.0172C4.78217 16.5411 3.84939 14.5073 3.75742 12.3517C4.35695 12.6963 5.05729 12.8228 5.73951 12.7097C6.42173 12.5966 7.04377 12.2508 7.5 11.7311C8.01689 12.3202 8.74418 12.683 9.52565 12.7416C10.3071 12.8003 11.0804 12.5501 11.6794 12.0448C11.9492 12.4919 12.3301 12.8614 12.7852 13.1174C12.3028 13.5391 11.9163 14.0592 11.6515 14.6426C11.3867 15.226 11.2498 15.8593 11.25 16.5C11.25 16.6989 11.329 16.8897 11.4697 17.0303C11.6103 17.171 11.8011 17.25 12 17.25C12.1989 17.25 12.3897 17.171 12.5303 17.0303C12.671 16.8897 12.75 16.6989 12.75 16.5C12.7509 15.7046 13.0673 14.9421 13.6297 14.3797C14.1921 13.8173 14.9546 13.5009 15.75 13.5C15.9489 13.5 16.1397 13.421 16.2803 13.2803C16.421 13.1397 16.5 12.9489 16.5 12.75C16.5 12.5511 16.421 12.3603 16.2803 12.2197C16.1397 12.079 15.9489 12 15.75 12H14.25C13.8523 11.9995 13.471 11.8414 13.1898 11.5602C12.9086 11.279 12.7505 10.8977 12.75 10.5V9H18.75C19.1477 9.00046 19.529 9.15864 19.8102 9.43984C20.0914 9.72105 20.2495 10.1023 20.25 10.5V12Z" fill="#1D1F21" style="fill: var(--ui-icon-primary-color);"/>
</svg>
