<svg  viewBox="0 0 24 24" fill="none" xmlns="http://www.w3.org/2000/svg" id="__THIS_ID_NEEDS_FOR_UI_ICON_COMPONENT__">
<path d="M19.5 12.75H4.5C4.10231 12.7505 3.72105 12.9086 3.43984 13.1898C3.15864 13.471 3.00045 13.8523 3 14.25V18.75C3.00045 19.1477 3.15864 19.529 3.43984 19.8102C3.72105 20.0914 4.10231 20.2495 4.5 20.25H19.5C19.8977 20.2495 20.279 20.0914 20.5602 19.8102C20.8414 19.529 20.9995 19.1477 21 18.75V14.25C20.9995 13.8523 20.8414 13.471 20.5602 13.1898C20.279 12.9086 19.8977 12.7505 19.5 12.75ZM19.5 18.75H4.5V14.25H19.5L19.501 18.75L19.5 18.75ZM19.5 3.75H4.5C4.10231 3.75045 3.72105 3.90864 3.43984 4.18984C3.15864 4.47105 3.00045 4.85231 3 5.25V9.75C3.00045 10.1477 3.15864 10.529 3.43984 10.8102C3.72105 11.0914 4.10231 11.2495 4.5 11.25H19.5C19.8977 11.2495 20.279 11.0914 20.5602 10.8102C20.8414 10.529 20.9995 10.1477 21 9.75V5.25C20.9995 4.85231 20.8414 4.47105 20.5602 4.18984C20.279 3.90864 19.8977 3.75045 19.5 3.75ZM19.5 9.75H4.5V5.25H19.5L19.501 9.74995L19.5 9.75ZM18 7.5C18 7.7225 17.934 7.94001 17.8104 8.12502C17.6868 8.31002 17.5111 8.45422 17.3055 8.53936C17.1 8.62451 16.8738 8.64679 16.6555 8.60338C16.4373 8.55998 16.2368 8.45283 16.0795 8.2955C15.9222 8.13816 15.815 7.93771 15.7716 7.71948C15.7282 7.50125 15.7505 7.27505 15.8356 7.06948C15.9208 6.86391 16.065 6.68821 16.25 6.5646C16.435 6.44098 16.6525 6.375 16.875 6.375C17.1733 6.37534 17.4592 6.49398 17.6701 6.70488C17.881 6.91579 17.9997 7.20174 18 7.5ZM18 16.5C18 16.7225 17.934 16.94 17.8104 17.125C17.6868 17.31 17.5111 17.4542 17.3055 17.5394C17.1 17.6245 16.8738 17.6468 16.6555 17.6034C16.4373 17.56 16.2368 17.4528 16.0795 17.2955C15.9222 17.1382 15.815 16.9377 15.7716 16.7195C15.7282 16.5012 15.7505 16.275 15.8356 16.0695C15.9208 15.8639 16.065 15.6882 16.25 15.5646C16.435 15.441 16.6525 15.375 16.875 15.375C17.1733 15.3753 17.4592 15.494 17.6701 15.7049C17.881 15.9158 17.9997 16.2017 18 16.5Z" fill="#1D1F21" style="fill: var(--ui-icon-primary-color);"/>
</svg>
