<svg  viewBox="0 0 24 24" fill="none" xmlns="http://www.w3.org/2000/svg" id="__THIS_ID_NEEDS_FOR_UI_ICON_COMPONENT__">
<path d="M21 6H3C2.60231 6.00045 2.22105 6.15864 1.93984 6.43984C1.65864 6.72105 1.50045 7.10231 1.5 7.5V16.5C1.50045 16.8977 1.65864 17.279 1.93984 17.5602C2.22105 17.8414 2.60231 17.9995 3 18H21C21.3977 17.9995 21.779 17.8414 22.0602 17.5602C22.3414 17.279 22.4995 16.8977 22.5 16.5V7.5C22.4995 7.10231 22.3414 6.72105 22.0602 6.43984C21.779 6.15864 21.3977 6.00045 21 6ZM21 16.5H3V7.5H21L21.001 16.5L21 16.5ZM18.75 12C18.75 12.2225 18.684 12.44 18.5604 12.625C18.4368 12.81 18.2611 12.9542 18.0555 13.0394C17.85 13.1245 17.6238 13.1468 17.4055 13.1034C17.1873 13.06 16.9868 12.9528 16.8295 12.7955C16.6722 12.6382 16.565 12.4377 16.5216 12.2195C16.4782 12.0012 16.5005 11.775 16.5856 11.5695C16.6708 11.3639 16.815 11.1882 17 11.0646C17.185 10.941 17.4025 10.875 17.625 10.875C17.9233 10.8753 18.2092 10.994 18.4201 11.2049C18.631 11.4158 18.7497 11.7017 18.75 12Z" fill="#1D1F21" style="fill: var(--ui-icon-primary-color);"/>
</svg>
