<svg  viewBox="0 0 24 24" fill="none" xmlns="http://www.w3.org/2000/svg" id="__THIS_ID_NEEDS_FOR_UI_ICON_COMPONENT__">
<path d="M20.25 14.25H15.75V9.75H20.25C20.4489 9.75 20.6397 9.67098 20.7803 9.53033C20.921 9.38968 21 9.19891 21 9C21 8.80109 20.921 8.61032 20.7803 8.46967C20.6397 8.32902 20.4489 8.25 20.25 8.25H15.75V3.75C15.75 3.55109 15.671 3.36032 15.5303 3.21967C15.3897 3.07902 15.1989 3 15 3C14.8011 3 14.6103 3.07902 14.4697 3.21967C14.329 3.36032 14.25 3.55109 14.25 3.75V8.25H9.75V3.75C9.75 3.55109 9.67098 3.36032 9.53033 3.21967C9.38968 3.07902 9.19891 3 9 3C8.80109 3 8.61032 3.07902 8.46967 3.21967C8.32902 3.36032 8.25 3.55109 8.25 3.75V8.25H3.75C3.55109 8.25 3.36032 8.32902 3.21967 8.46967C3.07902 8.61032 3 8.80109 3 9C3 9.19891 3.07902 9.38968 3.21967 9.53033C3.36032 9.67098 3.55109 9.75 3.75 9.75H8.25V14.25H3.75C3.55109 14.25 3.36032 14.329 3.21967 14.4697C3.07902 14.6103 3 14.8011 3 15C3 15.1989 3.07902 15.3897 3.21967 15.5303C3.36032 15.671 3.55109 15.75 3.75 15.75H8.25V20.25C8.25 20.4489 8.32902 20.6397 8.46967 20.7803C8.61032 20.921 8.80109 21 9 21C9.19891 21 9.38968 20.921 9.53033 20.7803C9.67098 20.6397 9.75 20.4489 9.75 20.25V15.75H14.25V20.25C14.25 20.4489 14.329 20.6397 14.4697 20.7803C14.6103 20.921 14.8011 21 15 21C15.1989 21 15.3897 20.921 15.5303 20.7803C15.671 20.6397 15.75 20.4489 15.75 20.25V15.75H20.25C20.4489 15.75 20.6397 15.671 20.7803 15.5303C20.921 15.3897 21 15.1989 21 15C21 14.8011 20.921 14.6103 20.7803 14.4697C20.6397 14.329 20.4489 14.25 20.25 14.25ZM9.75 14.25V9.75H14.25V14.25H9.75Z" fill="#1D1F21" style="fill: var(--ui-icon-primary-color);"/>
</svg>
