<svg  viewBox="0 0 24 24" fill="none" xmlns="http://www.w3.org/2000/svg" id="__THIS_ID_NEEDS_FOR_UI_ICON_COMPONENT__">
<path d="M21 8.25H16.4441L17.2379 3.88413C17.2555 3.78722 17.2539 3.6878 17.2331 3.59153C17.2123 3.49526 17.1727 3.40404 17.1166 3.32306C17.0606 3.24208 16.9891 3.17294 16.9063 3.11959C16.8235 3.06623 16.731 3.0297 16.6341 3.01209C16.5372 2.99448 16.4378 2.99612 16.3415 3.01693C16.2453 3.03774 16.154 3.07731 16.0731 3.13338C15.9921 3.18945 15.9229 3.26091 15.8696 3.3437C15.8162 3.42649 15.7797 3.51898 15.7621 3.61588L14.9195 8.25H10.4441L11.2379 3.88413C11.2555 3.78723 11.2539 3.6878 11.2331 3.59153C11.2123 3.49526 11.1727 3.40404 11.1166 3.32306C11.0606 3.24208 10.9891 3.17294 10.9063 3.11959C10.8235 3.06623 10.731 3.0297 10.6341 3.01209C10.5372 2.99448 10.4378 2.99612 10.3415 3.01693C10.2453 3.03774 10.154 3.07731 10.0731 3.13338C9.99208 3.18945 9.92294 3.26091 9.86958 3.3437C9.81623 3.42649 9.7797 3.51898 9.76208 3.61588L8.91953 8.25H4.09094C3.89203 8.25 3.70126 8.32902 3.56061 8.46968C3.41996 8.61033 3.34094 8.80109 3.34094 9C3.34094 9.19892 3.41996 9.38968 3.56061 9.53033C3.70126 9.67099 3.89203 9.75 4.09094 9.75H8.64679L7.82858 14.25H3C2.80109 14.25 2.61032 14.329 2.46967 14.4697C2.32902 14.6103 2.25 14.8011 2.25 15C2.25 15.1989 2.32902 15.3897 2.46967 15.5303C2.61032 15.671 2.80109 15.75 3 15.75H7.55589L6.76208 20.1159C6.74447 20.2128 6.74612 20.3122 6.76693 20.4085C6.78774 20.5047 6.82731 20.596 6.88338 20.6769C6.99661 20.8405 7.17017 20.9523 7.36588 20.9879C7.56158 21.0235 7.7634 20.9799 7.92694 20.8666C8.09048 20.7534 8.20234 20.5798 8.23792 20.3841L9.08047 15.75H13.5559L12.7621 20.1159C12.7445 20.2128 12.7461 20.3122 12.7669 20.4085C12.7877 20.5047 12.8273 20.596 12.8834 20.6769C12.9394 20.7579 13.0109 20.8271 13.0937 20.8804C13.1765 20.9338 13.269 20.9703 13.3659 20.9879C13.4628 21.0055 13.5622 21.0039 13.6585 20.9831C13.7547 20.9623 13.846 20.9227 13.9269 20.8666C14.0079 20.8106 14.0771 20.7391 14.1304 20.6563C14.1838 20.5735 14.2203 20.481 14.2379 20.3841L15.0805 15.75H19.9091C20.108 15.75 20.2987 15.671 20.4394 15.5303C20.58 15.3897 20.6591 15.1989 20.6591 15C20.6591 14.8011 20.58 14.6103 20.4394 14.4697C20.2987 14.329 20.108 14.25 19.9091 14.25H15.3532L16.1714 9.75H21C21.1989 9.75 21.3897 9.67099 21.5303 9.53033C21.671 9.38968 21.75 9.19892 21.75 9C21.75 8.80109 21.671 8.61033 21.5303 8.46968C21.3897 8.32902 21.1989 8.25 21 8.25ZM13.8286 14.25H9.35321L10.1714 9.75H14.6468L13.8286 14.25Z" fill="#1D1F21" style="fill: var(--ui-icon-primary-color);"/>
</svg>
