<svg  viewBox="0 0 24 24" fill="none" xmlns="http://www.w3.org/2000/svg" id="__THIS_ID_NEEDS_FOR_UI_ICON_COMPONENT__">
<path d="M19.0051 5.82936C18.0948 4.92043 17.0125 4.20204 15.8215 3.71615C14.6304 3.23027 13.3545 2.98664 12.0682 2.99951C12.0452 2.99937 12.0222 2.99929 11.9993 2.99928C9.41353 2.99947 6.93377 4.02679 5.10545 5.85525C3.27713 7.68371 2.25 10.1635 2.25 12.7493V17.9993C2.25068 18.5958 2.48795 19.1677 2.90976 19.5895C3.33157 20.0113 3.90347 20.2486 4.5 20.2493H6C6.59653 20.2486 7.16843 20.0113 7.59024 19.5895C8.01205 19.1677 8.24932 18.5958 8.25 17.9993V14.2493C8.24932 13.6528 8.01205 13.0809 7.59024 12.659C7.16843 12.2372 6.59653 12 6 11.9993H3.78333C3.97183 9.93885 4.92749 8.02443 6.46092 6.63537C7.99435 5.24632 9.99365 4.48401 12.0626 4.49951C12.0665 4.49955 12.0699 4.49955 12.0738 4.49951C14.1428 4.48395 16.1421 5.24623 17.6756 6.6353C19.2091 8.02436 20.1647 9.93882 20.3532 11.9993H18.1365C17.54 12 16.9681 12.2372 16.5463 12.659C16.1245 13.0809 15.8872 13.6528 15.8865 14.2493V17.9993C15.8872 18.5958 16.1245 19.1677 16.5463 19.5895C16.9681 20.0113 17.54 20.2486 18.1365 20.2493H19.6365C20.233 20.2486 20.8049 20.0113 21.2267 19.5895C21.6486 19.1677 21.8858 18.5958 21.8865 17.9993V12.7493C21.8902 11.4622 21.6373 10.1873 21.1426 8.99918C20.6478 7.81101 19.9212 6.7334 19.0051 5.82936ZM6 13.4993C6.19884 13.4995 6.38948 13.5786 6.53008 13.7192C6.67068 13.8598 6.74977 14.0504 6.75 14.2493V17.9993C6.74977 18.1981 6.67068 18.3888 6.53008 18.5294C6.38948 18.67 6.19884 18.7491 6 18.7493H4.5C4.30116 18.7491 4.11052 18.67 3.96992 18.5294C3.82932 18.3888 3.75023 18.1981 3.75 17.9993V13.4993H6ZM20.3865 17.9993C20.3863 18.1981 20.3072 18.3888 20.1666 18.5294C20.026 18.67 19.8353 18.7491 19.6365 18.7493H18.1365C17.9377 18.7491 17.747 18.67 17.6064 18.5294C17.4658 18.3888 17.3867 18.1981 17.3865 17.9993V14.2493C17.3867 14.0504 17.4658 13.8598 17.6064 13.7192C17.747 13.5786 17.9377 13.4995 18.1365 13.4993H20.3865V17.9993Z" fill="#1D1F21" style="fill: var(--ui-icon-primary-color);"/>
</svg>
