<svg  viewBox="0 0 24 24" fill="none" xmlns="http://www.w3.org/2000/svg" id="__THIS_ID_NEEDS_FOR_UI_ICON_COMPONENT__">
<path d="M19.0051 5.07981C18.0945 4.17129 17.0122 3.45317 15.8212 2.96731C14.6302 2.48146 13.3544 2.2376 12.0682 2.24996C12.0452 2.24982 12.0222 2.24975 11.9993 2.24973C9.41353 2.24993 6.93377 3.27724 5.10545 5.1057C3.27713 6.93416 2.25 9.414 2.25 11.9997V17.2497C2.25068 17.8463 2.48795 18.4182 2.90976 18.84C3.33157 19.2618 3.90347 19.499 4.5 19.4997H6C6.59653 19.499 7.16843 19.2618 7.59024 18.84C8.01205 18.4182 8.24932 17.8463 8.25 17.2497V13.4997C8.24932 12.9032 8.01205 12.3313 7.59024 11.9095C7.16843 11.4877 6.59653 11.2504 6 11.2497H3.78333C3.97183 9.18931 4.92749 7.27488 6.46092 5.88582C7.99435 4.49677 9.99365 3.73446 12.0626 3.74996C12.0665 3.75001 12.0699 3.75001 12.0738 3.74996C14.1428 3.7344 16.1421 4.49668 17.6756 5.88575C19.2091 7.27481 20.1647 9.18927 20.3532 11.2497H18.1365C17.54 11.2504 16.9681 11.4877 16.5463 11.9095C16.1245 12.3313 15.8872 12.9032 15.8865 13.4997V17.2497C15.8872 17.8463 16.1245 18.4182 16.5463 18.84C16.9681 19.2618 17.54 19.499 18.1365 19.4997H19.6365C19.892 19.4998 20.1457 19.4562 20.3865 19.3707V19.4997C20.3858 20.0963 20.1486 20.6682 19.7267 21.09C19.3049 21.5118 18.733 21.749 18.1365 21.7497H12.75C12.5511 21.7497 12.3603 21.8287 12.2197 21.9694C12.079 22.1101 12 22.3008 12 22.4997C12 22.6986 12.079 22.8894 12.2197 23.0301C12.3603 23.1707 12.5511 23.2497 12.75 23.2497H18.1365C19.1307 23.2486 20.0839 22.8532 20.7869 22.1501C21.4899 21.4471 21.8854 20.4939 21.8865 19.4997V11.9997C21.8902 10.7127 21.6373 9.4378 21.1426 8.24963C20.6478 7.06146 19.9212 5.98386 19.0051 5.07981ZM6 12.7497C6.19884 12.75 6.38948 12.829 6.53008 12.9697C6.67068 13.1103 6.74977 13.3009 6.75 13.4997V17.2497C6.74977 17.4486 6.67068 17.6392 6.53008 17.7798C6.38948 17.9204 6.19884 17.9995 6 17.9997H4.5C4.30116 17.9995 4.11052 17.9204 3.96992 17.7798C3.82932 17.6392 3.75023 17.4486 3.75 17.2497V12.7497H6ZM19.6365 17.9997H18.1365C17.9377 17.9995 17.747 17.9204 17.6064 17.7798C17.4658 17.6392 17.3867 17.4486 17.3865 17.2497V13.4997C17.3867 13.3009 17.4658 13.1103 17.6064 12.9697C17.747 12.829 17.9377 12.75 18.1365 12.7497H20.3865V17.2497C20.3863 17.4486 20.3072 17.6392 20.1666 17.7798C20.026 17.9204 19.8353 17.9995 19.6365 17.9997Z" fill="#1D1F21" style="fill: var(--ui-icon-primary-color);"/>
</svg>
