<svg  viewBox="0 0 24 24" fill="none" xmlns="http://www.w3.org/2000/svg" id="__THIS_ID_NEEDS_FOR_UI_ICON_COMPONENT__">
<path d="M6.75 12.75H3C2.80109 12.75 2.61032 12.671 2.46967 12.5303C2.32902 12.3897 2.25 12.1989 2.25 12C2.25 11.8011 2.32902 11.6103 2.46967 11.4697C2.61032 11.329 2.80109 11.25 3 11.25H6.34863L7.62598 9.33399C7.69446 9.23126 7.78725 9.14702 7.89611 9.08875C8.00497 9.03049 8.12653 9.00001 8.25 9.00001C8.37347 9.00001 8.49503 9.03049 8.60389 9.08875C8.71275 9.14702 8.80554 9.23126 8.87402 9.33399L11.25 12.8979L12.126 11.584C12.1945 11.4813 12.2873 11.397 12.3961 11.3388C12.505 11.2805 12.6265 11.25 12.75 11.25H15C15.1989 11.25 15.3897 11.329 15.5303 11.4697C15.671 11.6103 15.75 11.8011 15.75 12C15.75 12.1989 15.671 12.3897 15.5303 12.5303C15.3897 12.671 15.1989 12.75 15 12.75H13.1514L11.874 14.666C11.8055 14.7688 11.7127 14.853 11.6039 14.9113C11.495 14.9695 11.3735 15 11.25 15C11.1265 15 11.005 14.9695 10.8961 14.9113C10.7873 14.853 10.6945 14.7688 10.626 14.666L8.25 11.1021L7.37402 12.416C7.30554 12.5188 7.21275 12.603 7.10389 12.6613C6.99503 12.7195 6.87347 12.75 6.75 12.75ZM16.5 3.00001C15.6269 2.99852 14.7655 3.20079 13.9843 3.59073C13.2031 3.98067 12.5236 4.54753 12 5.24621C11.2908 4.30266 10.3029 3.606 9.17603 3.25482C8.04915 2.90365 6.84036 2.91573 5.72072 3.28936C4.60107 3.663 3.62728 4.37926 2.93712 5.3368C2.24697 6.29434 1.8754 7.44467 1.875 8.62501C1.875 8.76307 1.87903 8.90342 1.88695 9.04212C1.89256 9.14045 1.91748 9.23671 1.9603 9.32541C2.00311 9.41411 2.06297 9.4935 2.13647 9.55906C2.20997 9.62462 2.29566 9.67507 2.38865 9.70751C2.48164 9.73995 2.58011 9.75377 2.67844 9.74815C2.77677 9.74254 2.87303 9.71762 2.96173 9.6748C3.05043 9.63199 3.12982 9.57213 3.19538 9.49863C3.26094 9.42513 3.31139 9.33944 3.34383 9.24645C3.37628 9.15346 3.39009 9.05499 3.38448 8.95666C3.3782 8.84629 3.375 8.73469 3.375 8.62501C3.37518 7.67158 3.70557 6.74763 4.31 6.01027C4.91443 5.27291 5.75558 4.76764 6.69044 4.58037C7.6253 4.39311 8.59616 4.5354 9.43797 4.98307C10.2798 5.43073 10.9405 6.15613 11.308 7.03593C11.365 7.17242 11.4611 7.28899 11.5843 7.37098C11.7074 7.45297 11.852 7.49671 12 7.49671C12.1479 7.49671 12.2925 7.45297 12.4157 7.37098C12.5388 7.28899 12.6349 7.17242 12.692 7.03593C13.0594 6.15613 13.7202 5.43073 14.562 4.98307C15.4038 4.5354 16.3747 4.39311 17.3095 4.58037C18.2444 4.76764 19.0856 5.2729 19.69 6.01027C20.2944 6.74763 20.6248 7.67157 20.625 8.62501C20.625 13.7968 13.6874 18.348 11.9997 19.3782C11.0078 18.7738 8.2056 16.9567 6.06381 14.5065C5.99899 14.4323 5.9202 14.3717 5.83193 14.328C5.74367 14.2843 5.64766 14.2584 5.54939 14.2518C5.45112 14.2452 5.35251 14.258 5.2592 14.2895C5.16588 14.321 5.07969 14.3706 5.00553 14.4354C4.93138 14.5002 4.87072 14.579 4.82701 14.6673C4.78331 14.7556 4.75742 14.8516 4.75082 14.9498C4.74422 15.0481 4.75704 15.1467 4.78855 15.24C4.82006 15.3334 4.86964 15.4196 4.93446 15.4937C7.74344 18.7071 11.476 20.8162 11.6336 20.9044C11.7455 20.9671 11.8717 21 12 21C12.1283 21 12.2545 20.9671 12.3664 20.9044C14.088 19.8962 15.7037 18.7173 17.1892 17.3856C20.4644 14.438 22.125 11.4905 22.125 8.62501C22.1233 7.13368 21.5301 5.70393 20.4756 4.6494C19.4211 3.59487 17.9913 3.0017 16.5 3.00001Z" fill="#1D1F21" style="fill: var(--ui-icon-primary-color);"/>
</svg>
