<svg  viewBox="0 0 24 24" fill="none" xmlns="http://www.w3.org/2000/svg" id="__THIS_ID_NEEDS_FOR_UI_ICON_COMPONENT__">
<path d="M12 21C11.8717 21 11.7455 20.9671 11.6335 20.9044C11.2351 20.6812 1.875 15.3621 1.875 8.625C1.8754 7.44466 2.24697 6.29434 2.93712 5.3368C3.62728 4.37926 4.60107 3.66299 5.72071 3.28936C6.84035 2.91572 8.04914 2.90364 9.17603 3.25481C10.3029 3.60599 11.2908 4.30263 12 5.24618C12.7092 4.30263 13.6971 3.60599 14.824 3.25481C15.9509 2.90364 17.1596 2.91572 18.2793 3.28936C19.3989 3.66299 20.3727 4.37926 21.0629 5.3368C21.753 6.29434 22.1246 7.44466 22.125 8.625C22.125 11.4905 20.4643 14.438 17.1892 17.3856C15.7037 18.7173 14.088 19.8961 12.3665 20.9044C12.2545 20.9671 12.1283 21 12 21ZM7.5 4.5C6.40636 4.50124 5.35787 4.93623 4.58455 5.70955C3.81123 6.48287 3.37624 7.53136 3.375 8.625C3.375 13.8042 10.3107 18.3486 11.9997 19.3782C13.6882 18.3474 20.625 13.7965 20.625 8.625C20.6248 7.67157 20.2944 6.74763 19.69 6.01027C19.0856 5.2729 18.2444 4.76764 17.3096 4.58037C16.3747 4.3931 15.4038 4.53539 14.562 4.98305C13.7202 5.43071 13.0595 6.1561 12.692 7.0359C12.635 7.1724 12.5389 7.28898 12.4157 7.37098C12.2926 7.45298 12.1479 7.49673 12 7.49673C11.8521 7.49673 11.7074 7.45298 11.5843 7.37098C11.4611 7.28898 11.365 7.1724 11.308 7.0359C10.9952 6.28396 10.4665 5.64167 9.78868 5.19027C9.11085 4.73887 8.31437 4.49865 7.5 4.5Z" fill="#1D1F21" style="fill: var(--ui-icon-primary-color);"/>
</svg>
