<svg  viewBox="0 0 24 24" fill="none" xmlns="http://www.w3.org/2000/svg" id="__THIS_ID_NEEDS_FOR_UI_ICON_COMPONENT__">
<path d="M12 20.8329C11.8031 20.8332 11.608 20.7947 11.4259 20.7194C11.2439 20.6442 11.0786 20.5337 10.9394 20.3944L3.14751 12.6025C2.60725 12.0622 2.18271 11.4175 1.89981 10.7077C1.6169 9.99798 1.48155 9.23802 1.50202 8.47423C1.52248 7.71044 1.69834 6.95882 2.01885 6.26522C2.33936 5.57163 2.79781 4.9506 3.36623 4.44002C3.9125 3.95262 4.5515 3.58045 5.24498 3.34579C5.93846 3.11113 6.67215 3.0188 7.40215 3.07434C8.87222 3.1713 10.2568 3.79981 11.2975 4.84258L12 5.54506L12.8975 4.64753C13.4378 4.10726 14.0825 3.68272 14.7923 3.39981C15.502 3.1169 16.262 2.98155 17.0258 3.00202C17.7896 3.02248 18.5412 3.19834 19.2348 3.51885C19.9284 3.83936 20.5495 4.29781 21.0601 4.86624C21.5476 5.41247 21.9198 6.05146 22.1544 6.74495C22.3891 7.43845 22.4813 8.17217 22.4257 8.90216C22.3287 10.3722 21.7003 11.7568 20.6575 12.7975L13.0607 20.3943L13.0607 20.3944C12.9214 20.5337 12.7561 20.6442 12.5741 20.7194C12.3921 20.7947 12.197 20.8332 12 20.8329ZM7.03017 4.56784C6.05179 4.55572 5.10377 4.90741 4.37001 5.5547C3.95286 5.92903 3.61636 6.38445 3.38106 6.89315C3.14577 7.40186 3.01661 7.95318 3.00147 8.51346C2.98633 9.07374 3.08553 9.63123 3.29301 10.1519C3.50049 10.6726 3.81191 11.1455 4.20824 11.5418L12.5304 19.864L12 19.3336L19.5968 11.7369C21.2307 10.1029 21.3871 7.47106 19.9453 5.86998C19.571 5.45285 19.1156 5.11637 18.6069 4.88109C18.0982 4.64581 17.5469 4.51665 16.9866 4.50151C16.4263 4.48637 15.8688 4.58556 15.3482 4.79303C14.8275 5.0005 14.3546 5.31189 13.9582 5.7082L12.5304 7.13604C12.3897 7.27669 12.1989 7.35571 12 7.35571C11.8011 7.35572 11.6103 7.2767 11.4697 7.13605L10.2368 5.90325C9.38622 5.05212 8.23346 4.57205 7.03017 4.56784Z" fill="#1D1F21" style="fill: var(--ui-icon-primary-color);"/>
</svg>
