<svg  viewBox="0 0 24 24" fill="none" xmlns="http://www.w3.org/2000/svg" id="__THIS_ID_NEEDS_FOR_UI_ICON_COMPONENT__">
<path d="M12 22.388C11.7415 22.3883 11.4872 22.3218 11.2619 22.195L3.38691 17.7439C3.15583 17.613 2.96357 17.4232 2.82973 17.1938C2.69589 16.9644 2.62524 16.7036 2.625 16.438V7.5632C2.62524 7.29763 2.69588 7.03686 2.82971 6.80747C2.96355 6.57808 3.1558 6.38827 3.38687 6.25737L11.2619 1.80625C11.4873 1.67973 11.7415 1.61328 12 1.61328C12.2585 1.61328 12.5127 1.67973 12.7381 1.80625L20.6131 6.25734C20.8442 6.38824 21.0364 6.57805 21.1703 6.80745C21.3041 7.03684 21.3748 7.29762 21.375 7.5632V16.438C21.3748 16.7036 21.3041 16.9644 21.1703 17.1937C21.0364 17.4231 20.8442 17.613 20.6131 17.7439L12.7381 22.195C12.5128 22.3218 12.2585 22.3883 12 22.388ZM12 3.11212L4.125 7.5632V16.438L12 20.8891L19.875 16.438V7.5632L12 3.11212Z" fill="#1D1F21" style="fill: var(--ui-icon-primary-color);"/>
</svg>
