<svg  viewBox="0 0 24 24" fill="none" xmlns="http://www.w3.org/2000/svg" id="__THIS_ID_NEEDS_FOR_UI_ICON_COMPONENT__">
<path d="M12.7498 9.375C12.7498 9.5975 12.6838 9.81501 12.5602 10C12.4366 10.185 12.2609 10.3292 12.0553 10.4144C11.8498 10.4995 11.6236 10.5218 11.4053 10.4784C11.1871 10.435 10.9867 10.3278 10.8293 10.1705C10.672 10.0132 10.5648 9.81271 10.5214 9.59448C10.478 9.37625 10.5003 9.15005 10.5855 8.94448C10.6706 8.73891 10.8148 8.56321 10.9998 8.4396C11.1848 8.31598 11.4023 8.25 11.6248 8.25C11.9232 8.25 12.2093 8.36853 12.4203 8.5795C12.6313 8.79048 12.7498 9.07663 12.7498 9.375ZM21.7488 12.1386C21.706 14.664 20.6877 17.0748 18.9071 18.8661C17.1265 20.6574 14.7218 21.6902 12.1968 21.7481C12.1315 21.7494 12.0663 21.75 12.001 21.75C9.6017 21.7533 7.28595 20.8689 5.4996 19.2671C5.35139 19.1345 5.26195 18.9483 5.25096 18.7497C5.23997 18.5511 5.30834 18.3563 5.44101 18.2081C5.57368 18.0598 5.7598 17.9704 5.95842 17.9594C6.15703 17.9484 6.35188 18.0168 6.50009 18.1495C7.08194 18.6707 7.73492 19.1067 8.43945 19.4442L10.89 16.0134C8.74002 15.0363 6.40177 15.2164 5.12204 15.433C4.56883 15.5293 3.99968 15.4676 3.47998 15.255C2.96029 15.0423 2.51112 14.6873 2.18411 14.2309L0.891571 12.4387C0.831257 12.3551 0.788836 12.2599 0.766957 12.1592C0.745078 12.0584 0.744211 11.9542 0.764409 11.8531C0.784608 11.752 0.82544 11.6561 0.884353 11.5715C0.943266 11.4868 1.019 11.4153 1.10681 11.3612L10.4998 5.58092V3C10.4998 2.80109 10.5789 2.61032 10.7195 2.46967C10.8602 2.32902 11.0509 2.25 11.2498 2.25H11.9998C13.2919 2.24999 14.5711 2.50678 15.763 3.00546C16.955 3.50415 18.0359 4.23477 18.943 5.15486C19.8501 6.07495 20.5653 7.16617 21.047 8.36508C21.5286 9.56399 21.7672 10.8467 21.7488 12.1386ZM20.249 12.1177C20.2646 11.0245 20.0628 9.93913 19.6552 8.92462C19.2477 7.91012 18.6425 6.98673 17.875 6.20815C17.1074 5.42956 16.1928 4.8113 15.1842 4.38931C14.1756 3.96731 13.0932 3.75 11.9998 3.75V6C11.9998 6.12809 11.967 6.25405 11.9046 6.36587C11.8421 6.47769 11.752 6.57164 11.6429 6.63876L2.58017 12.2158L3.40067 13.3534C3.56453 13.5818 3.7895 13.7593 4.04972 13.8656C4.30994 13.9718 4.59486 14.0025 4.87174 13.9541C6.46271 13.6848 9.49643 13.4726 12.1919 14.9951C13.1516 14.9448 14.0554 14.5284 14.7173 13.8316C15.3792 13.1349 15.7487 12.211 15.7498 11.25C15.7498 11.0511 15.8289 10.8603 15.9695 10.7197C16.1102 10.579 16.3009 10.5 16.4998 10.5C16.6988 10.5 16.8895 10.579 17.0302 10.7197C17.1708 10.8603 17.2498 11.0511 17.2498 11.25C17.2481 12.5729 16.7476 13.8464 15.8482 14.8165C14.9488 15.7866 13.7166 16.3818 12.3976 16.4834L9.90018 19.9798C10.6398 20.1735 11.4027 20.2638 12.1671 20.2484C14.3032 20.1981 16.3371 19.3239 17.8434 17.8085C19.3496 16.2932 20.2116 14.2541 20.249 12.1177H20.249Z" fill="#1D1F21" style="fill: var(--ui-icon-primary-color);"/>
</svg>
