<svg  viewBox="0 0 24 24" fill="none" xmlns="http://www.w3.org/2000/svg" id="__THIS_ID_NEEDS_FOR_UI_ICON_COMPONENT__">
<path d="M13.0608 11.9999L17.78 7.28062L17.7806 7.28004L19.5 5.56064C19.7098 5.35086 19.8526 5.08359 19.9105 4.79262C19.9684 4.50166 19.9387 4.20006 19.8251 3.92597C19.7116 3.65189 19.5194 3.41762 19.2727 3.2528C19.026 3.08798 18.736 3 18.4393 3H5.56063C5.26396 3.00001 4.97396 3.08799 4.72729 3.25281C4.48063 3.41763 4.28838 3.6519 4.17485 3.92598C4.06132 4.20006 4.03162 4.50166 4.08949 4.79262C4.14736 5.08359 4.29022 5.35086 4.49999 5.56064L10.9392 12.0001L4.49999 18.4394C4.29022 18.6491 4.14736 18.9164 4.08949 19.2074C4.03162 19.4983 4.06132 19.7999 4.17485 20.074C4.28838 20.3481 4.48063 20.5824 4.72729 20.7472C4.97396 20.912 5.26396 21 5.56063 21H18.4393C18.736 21 19.026 20.912 19.2727 20.7472C19.5194 20.5824 19.7116 20.3481 19.8251 20.074C19.9387 19.7999 19.9684 19.4983 19.9105 19.2074C19.8526 18.9164 19.7098 18.6491 19.5 18.4394L13.0608 11.9999ZM18.4388 4.50046L16.9393 6H7.06122L5.56131 4.5L18.4388 4.50046ZM8.56118 7.5H15.4393L12.0002 10.9392L8.56118 7.5ZM5.56113 19.4995L11.9998 13.0608L18.4387 19.5L5.56113 19.4995Z" fill="#1D1F21" style="fill: var(--ui-icon-primary-color);"/>
</svg>
