<svg  viewBox="0 0 24 24" fill="none" xmlns="http://www.w3.org/2000/svg" id="__THIS_ID_NEEDS_FOR_UI_ICON_COMPONENT__">
<path d="M18.4394 21H5.56072C5.26405 21 4.97405 20.912 4.72737 20.7472C4.4807 20.5824 4.28844 20.3481 4.17491 20.074C4.06138 19.7999 4.03168 19.4983 4.08956 19.2074C4.14743 18.9164 4.29029 18.6491 4.50007 18.4394L10.9393 12.0001L4.50006 5.56064C4.29029 5.35086 4.14743 5.08359 4.08955 4.79262C4.03168 4.50165 4.06138 4.20005 4.17491 3.92597C4.28844 3.65188 4.4807 3.41761 4.72737 3.25279C4.97405 3.08797 5.26405 3 5.56072 3H18.4394C18.7361 3 19.0261 3.08797 19.2728 3.25279C19.5194 3.41761 19.7117 3.65187 19.8252 3.92596C19.9388 4.20005 19.9685 4.50165 19.9106 4.79262C19.8527 5.08359 19.7098 5.35086 19.5 5.56064L13.0609 11.9999L19.5001 18.4394C19.7098 18.6491 19.8527 18.9164 19.9106 19.2074C19.9685 19.4984 19.9388 19.8 19.8252 20.074C19.7117 20.3481 19.5194 20.5824 19.2728 20.7472C19.0261 20.912 18.7361 21 18.4394 21ZM5.56119 19.4995L18.4387 19.5L11.9999 13.0608L5.56119 19.4995ZM5.56138 4.5L12.0002 10.9392L18.4389 4.50046L5.56138 4.5Z" fill="#1D1F21" style="fill: var(--ui-icon-primary-color);"/>
</svg>
