<svg  viewBox="0 0 24 24" fill="none" xmlns="http://www.w3.org/2000/svg" id="__THIS_ID_NEEDS_FOR_UI_ICON_COMPONENT__">
<path d="M18.75 7.09135V3.75C18.7495 3.35231 18.5914 2.97105 18.3102 2.68984C18.029 2.40864 17.6477 2.25045 17.25 2.25H6.75C6.35231 2.25045 5.97105 2.40864 5.68984 2.68984C5.40864 2.97105 5.25045 3.35231 5.25 3.75V7.125C5.25054 7.35777 5.305 7.58725 5.4091 7.79544C5.51319 8.00363 5.6641 8.18489 5.84999 8.32498L10.75 12L5.85004 15.675C5.66414 15.8151 5.51321 15.9964 5.40911 16.2045C5.305 16.4127 5.25054 16.6422 5.25 16.875V20.25C5.25045 20.6477 5.40864 21.029 5.68984 21.3102C5.97105 21.5914 6.35231 21.7495 6.75 21.75H17.25C17.6477 21.7495 18.029 21.5914 18.3102 21.3102C18.5914 21.029 18.7495 20.6477 18.75 20.25V16.9086C18.7494 16.6768 18.6954 16.4483 18.5921 16.2408C18.4888 16.0332 18.3391 15.8523 18.1545 15.712L13.2437 12L18.1545 8.28795C18.3391 8.14768 18.4888 7.96676 18.5921 7.75923C18.6954 7.5517 18.7494 7.32316 18.75 7.09135ZM6.75 3.75H17.25V7.0914L16.71 7.49959H7.24947L6.75 7.125V3.75ZM11.9982 11.0612L9.24943 8.99959H14.7256L11.9982 11.0612ZM17.25 20.25H6.75V16.875L11.25 13.5V15.7496C11.25 15.9485 11.329 16.1393 11.4697 16.2799C11.6103 16.4206 11.8011 16.4996 12 16.4996C12.1989 16.4996 12.3897 16.4206 12.5303 16.2799C12.671 16.1393 12.75 15.9485 12.75 15.7496V13.5071L17.25 16.9086V20.25Z" fill="#1D1F21" style="fill: var(--ui-icon-primary-color);"/>
</svg>
