<svg  viewBox="0 0 24 24" fill="none" xmlns="http://www.w3.org/2000/svg" id="__THIS_ID_NEEDS_FOR_UI_ICON_COMPONENT__">
<path d="M18.75 7.09135V3.75C18.7495 3.35231 18.5914 2.97105 18.3102 2.68984C18.029 2.40864 17.6477 2.25045 17.25 2.25H6.75C6.35231 2.25045 5.97105 2.40864 5.68984 2.68984C5.40864 2.97105 5.25045 3.35231 5.25 3.75V7.125C5.25055 7.35777 5.30501 7.58724 5.4091 7.79544C5.5132 8.00363 5.66411 8.18488 5.84999 8.32498L10.75 12L5.85004 15.675C5.67596 15.8066 5.53259 15.9746 5.42985 16.1671C5.32711 16.3597 5.26746 16.5723 5.25504 16.7902C5.25185 16.8177 5.25017 16.8453 5.25 16.8729L5.25005 16.874L5.25 16.875V20.25C5.25045 20.6477 5.40864 21.029 5.68984 21.3102C5.97105 21.5914 6.35231 21.7495 6.75 21.75H17.25C17.6477 21.7495 18.029 21.5914 18.3102 21.3102C18.5914 21.029 18.7495 20.6477 18.75 20.25V16.9086C18.75 16.9057 18.7495 16.9028 18.7495 16.8999C18.7492 16.8749 18.7478 16.8501 18.7451 16.8257C18.7329 16.6085 18.6738 16.3964 18.5719 16.2042C18.4699 16.0119 18.3276 15.844 18.1545 15.7121L13.2437 12L18.1545 8.28795C18.3391 8.14768 18.4888 7.96675 18.5921 7.75923C18.6954 7.5517 18.7494 7.32316 18.75 7.09135ZM16.2513 16.1537L7.74348 16.1299L11.9982 12.9388L16.2513 16.1537ZM6.75 20.25V17.6271L17.25 17.6565V20.25H6.75ZM17.25 7.09138L11.9982 11.0612L6.75 7.125V3.75H17.25V7.09138Z" fill="#1D1F21" style="fill: var(--ui-icon-primary-color);"/>
</svg>
