<svg  viewBox="0 0 24 24" fill="none" xmlns="http://www.w3.org/2000/svg" id="__THIS_ID_NEEDS_FOR_UI_ICON_COMPONENT__">
<path d="M22.5 19.5H21V10.8318C20.9998 10.6228 20.956 10.4162 20.8715 10.2251C20.787 10.034 20.6636 9.86259 20.5091 9.72186L13.0085 2.90294C12.733 2.65065 12.3729 2.51072 11.9994 2.51074C11.6258 2.51076 11.2658 2.65072 10.9904 2.90303L3.49091 9.72186C3.33643 9.86258 3.213 10.034 3.12847 10.2251C3.04395 10.4162 3.00019 10.6228 3 10.8317V19.5H1.5C1.30109 19.5 1.11032 19.579 0.96967 19.7197C0.829018 19.8603 0.75 20.0511 0.75 20.25C0.75 20.4489 0.829018 20.6397 0.96967 20.7803C1.11032 20.921 1.30109 21 1.5 21H22.5C22.6989 21 22.8897 20.921 23.0303 20.7803C23.171 20.6397 23.25 20.4489 23.25 20.25C23.25 20.0511 23.171 19.8603 23.0303 19.7197C22.8897 19.579 22.6989 19.5 22.5 19.5ZM4.5 10.8317L11.9995 4.01284L19.5 10.8318V19.5H14.9995V14.2492C14.9994 14.0503 14.9204 13.8595 14.7798 13.7189C14.6391 13.5782 14.4484 13.4992 14.2495 13.4992H9.74945C9.55054 13.4992 9.35978 13.5782 9.21913 13.7189C9.07848 13.8595 8.99946 14.0503 8.99945 14.2492V19.5H4.5V10.8317ZM13.4995 19.5H10.4995V14.9992H13.4995V19.5Z" fill="#1D1F21" style="fill: var(--ui-icon-primary-color);"/>
</svg>
