<svg  viewBox="0 0 24 24" fill="none" xmlns="http://www.w3.org/2000/svg" id="__THIS_ID_NEEDS_FOR_UI_ICON_COMPONENT__">
<path d="M19.5 20.9999H19.4998L14.9993 20.9993C14.6016 20.9988 14.2204 20.8406 13.9392 20.5594C13.6581 20.2782 13.4999 19.897 13.4995 19.4993V14.9992H10.4995V19.4993C10.499 19.897 10.3408 20.2782 10.0597 20.5594C9.7785 20.8406 9.39729 20.9988 8.99963 20.9993L4.50019 20.9999C4.30319 20.9999 4.10811 20.9611 3.9261 20.8858C3.74409 20.8104 3.57871 20.6999 3.4394 20.5606C3.3001 20.4213 3.18959 20.256 3.1142 20.074C3.0388 19.892 3 19.6969 3 19.4999V10.8317C3.00018 10.6228 3.04394 10.4161 3.12848 10.225C3.21302 10.0339 3.33649 9.86254 3.491 9.72184L10.9904 2.90304C11.2658 2.65073 11.6258 2.51077 11.9994 2.51074C12.3729 2.51072 12.7329 2.65063 13.0085 2.9029L20.5091 9.72189C20.6636 9.86261 20.787 10.034 20.8715 10.2251C20.956 10.4162 20.9998 10.6228 21 10.8318V19.4999C21 19.6969 20.9612 19.8919 20.8858 20.0739C20.8104 20.2559 20.6999 20.4213 20.5607 20.5606C20.4214 20.6999 20.256 20.8103 20.074 20.8857C19.892 20.9611 19.697 20.9999 19.5 20.9999V20.9999ZM10.4995 13.4992H13.4995C13.8971 13.4997 14.2784 13.6579 14.5596 13.9391C14.8408 14.2203 14.999 14.6015 14.9995 14.9992V19.5003L19.5 19.4999V10.8318L11.9995 4.01284L4.5 10.8317V19.4999L8.99945 19.4993V14.9992C8.99991 14.6015 9.15809 14.2203 9.43929 13.9391C9.7205 13.6579 10.1018 13.4997 10.4995 13.4992Z" fill="#1D1F21" style="fill: var(--ui-icon-primary-color);"/>
</svg>
