<svg  viewBox="0 0 24 24" fill="none" xmlns="http://www.w3.org/2000/svg" id="__THIS_ID_NEEDS_FOR_UI_ICON_COMPONENT__">
<path d="M19.5 21H4.5C4.10231 20.9995 3.72104 20.8414 3.43984 20.5602C3.15863 20.279 3.00045 19.8977 3 19.5V10.8317C3.00019 10.6228 3.04395 10.4162 3.12847 10.2251C3.21299 10.034 3.33643 9.86259 3.49091 9.72187L10.9904 2.90305C11.2658 2.65073 11.6258 2.51076 11.9994 2.51074C12.3729 2.51072 12.733 2.65065 13.0085 2.90293L20.5091 9.72187L20.5092 9.72201C20.6636 9.86272 20.787 10.0341 20.8715 10.2252C20.9561 10.4162 20.9998 10.6228 21 10.8318V19.5C20.9995 19.8977 20.8414 20.279 20.5602 20.5602C20.279 20.8414 19.8977 20.9995 19.5 21ZM11.9995 4.01284L4.5 10.8317V19.5H19.5V10.8318L11.9995 4.01284Z" fill="#1D1F21" style="fill: var(--ui-icon-primary-color);"/>
</svg>
