<svg  viewBox="0 0 24 24" fill="none" xmlns="http://www.w3.org/2000/svg" id="__THIS_ID_NEEDS_FOR_UI_ICON_COMPONENT__">
<path d="M18.75 10.5C18.75 10.5985 18.7306 10.696 18.6929 10.787C18.6552 10.878 18.6 10.9607 18.5303 11.0303C18.4607 11.1 18.378 11.1552 18.287 11.1929C18.196 11.2306 18.0985 11.25 18 11.25H14.25C14.0511 11.25 13.8603 11.171 13.7197 11.0303C13.579 10.8897 13.5 10.6989 13.5 10.5C13.5 10.3011 13.579 10.1103 13.7197 9.96967C13.8603 9.82902 14.0511 9.75 14.25 9.75H18C18.0985 9.75 18.196 9.76939 18.287 9.80708C18.378 9.84477 18.4607 9.90002 18.5303 9.96966C18.6 10.0393 18.6552 10.122 18.6929 10.213C18.7306 10.304 18.75 10.4015 18.75 10.5ZM18 12.75H14.25C14.0511 12.75 13.8603 12.829 13.7197 12.9697C13.579 13.1103 13.5 13.3011 13.5 13.5C13.5 13.6989 13.579 13.8897 13.7197 14.0303C13.8603 14.171 14.0511 14.25 14.25 14.25H18C18.1989 14.25 18.3897 14.171 18.5303 14.0303C18.671 13.8897 18.75 13.6989 18.75 13.5C18.75 13.3011 18.671 13.1103 18.5303 12.9697C18.3897 12.829 18.1989 12.75 18 12.75ZM12.2662 15.5628C12.2907 15.6582 12.2963 15.7574 12.2825 15.855C12.2686 15.9525 12.2358 16.0463 12.1857 16.1311C12.1356 16.216 12.0693 16.2901 11.9906 16.3493C11.9118 16.4084 11.8222 16.4515 11.7269 16.4761C11.6315 16.5007 11.5322 16.5062 11.4347 16.4924C11.3371 16.4786 11.2433 16.4457 11.1585 16.3956C11.0737 16.3455 10.9996 16.2792 10.9404 16.2005C10.8812 16.1218 10.8381 16.0322 10.8135 15.9368C10.6885 15.4539 10.4067 15.0262 10.0122 14.7209C9.6178 14.4156 9.13314 14.25 8.63435 14.25C8.13557 14.25 7.65092 14.4157 7.25651 14.721C6.8621 15.0264 6.58028 15.454 6.45529 15.9369C6.43074 16.0323 6.38764 16.1219 6.32846 16.2006C6.26928 16.2794 6.19517 16.3457 6.11036 16.3957C6.02555 16.4458 5.93171 16.4787 5.83419 16.4925C5.73668 16.5064 5.63739 16.5008 5.54201 16.4763C5.44662 16.4517 5.35701 16.4086 5.27828 16.3495C5.19955 16.2903 5.13326 16.2162 5.08317 16.1314C5.03308 16.0465 5.00019 15.9527 4.98637 15.8552C4.97255 15.7577 4.97807 15.6584 5.00262 15.563C5.23072 14.6758 5.77649 13.9032 6.53641 13.3916C6.1103 12.9747 5.81805 12.4403 5.69697 11.8566C5.57588 11.2729 5.63144 10.6663 5.85656 10.1143C6.08168 9.56235 6.46615 9.08994 6.96091 8.75739C7.45568 8.42484 8.03829 8.24724 8.63443 8.24724C9.23057 8.24724 9.81318 8.42484 10.3079 8.75739C10.8027 9.08994 11.1872 9.56235 11.4123 10.1143C11.6374 10.6663 11.693 11.2729 11.5719 11.8566C11.4508 12.4403 11.1586 12.9747 10.7325 13.3916C11.4923 13.9031 12.038 14.6757 12.2662 15.5628ZM8.63443 12.75C8.9311 12.75 9.22111 12.662 9.46779 12.4972C9.71446 12.3324 9.90672 12.0981 10.0202 11.824C10.1338 11.5499 10.1635 11.2483 10.1056 10.9574C10.0477 10.6664 9.90487 10.3991 9.69509 10.1893C9.48531 9.97956 9.21804 9.8367 8.92707 9.77882C8.63609 9.72094 8.33449 9.75065 8.0604 9.86418C7.78632 9.97771 7.55205 10.17 7.38723 10.4166C7.2224 10.6633 7.13443 10.9533 7.13443 11.25C7.13489 11.6477 7.29307 12.029 7.57427 12.3102C7.85548 12.5914 8.23675 12.7495 8.63443 12.75ZM21.75 5.25V18.75C21.7495 19.1477 21.5914 19.529 21.3102 19.8102C21.029 20.0914 20.6477 20.2495 20.25 20.25H3.75C3.35231 20.2495 2.97105 20.0914 2.68984 19.8102C2.40864 19.529 2.25045 19.1477 2.25 18.75V5.25C2.25045 4.85231 2.40864 4.47105 2.68984 4.18984C2.97105 3.90864 3.35231 3.75045 3.75 3.75H20.25C20.6477 3.75045 21.029 3.90864 21.3102 4.18984C21.5914 4.47105 21.7495 4.85231 21.75 5.25ZM20.251 18.75L20.25 5.25H3.75V18.75H20.25L20.251 18.75Z" fill="#1D1F21" style="fill: var(--ui-icon-primary-color);"/>
</svg>
