<svg  viewBox="0 0 24 24" fill="none" xmlns="http://www.w3.org/2000/svg" id="__THIS_ID_NEEDS_FOR_UI_ICON_COMPONENT__">
<path d="M21.7499 17.2495V5.25C21.7495 4.85231 21.5913 4.47105 21.3101 4.18984C21.0289 3.90864 20.6476 3.75045 20.2499 3.75H3.74994C3.35225 3.75046 2.97099 3.90864 2.68978 4.18984C2.40858 4.47105 2.25039 4.85231 2.24994 5.25V18.75C2.25039 19.1476 2.40858 19.5289 2.68978 19.8101C2.97099 20.0913 3.35225 20.2495 3.74994 20.25H20.2499C20.6476 20.2495 21.0289 20.0913 21.3101 19.8101C21.5913 19.5289 21.7495 19.1476 21.7499 18.75V17.2495ZM20.2499 5.25L20.2507 15.44L17.5607 12.75C17.2791 12.4691 16.8977 12.3114 16.5 12.3114C16.1023 12.3114 15.7208 12.4691 15.4393 12.75L13.5 14.6894L9.31067 10.5C9.02913 10.2191 8.64768 10.0614 8.24999 10.0614C7.8523 10.0614 7.47084 10.2191 7.1893 10.5L3.74994 13.9393V5.25H20.2499ZM20.2499 18.75H3.74994V16.0607L8.24994 11.5606L12.4393 15.75C12.7206 16.0313 13.1022 16.1893 13.5 16.1893C13.8978 16.1893 14.2793 16.0313 14.5607 15.75L16.4999 13.8106L20.2509 17.5616L20.2509 18.75H20.2499ZM13.8294 10.1705C13.6986 10.0396 13.6021 9.87856 13.5484 9.70152C13.4947 9.52447 13.4855 9.33692 13.5216 9.15547C13.5577 8.97402 13.638 8.80428 13.7554 8.66127C13.8728 8.51827 14.0236 8.40642 14.1945 8.33563C14.3654 8.26483 14.5512 8.23728 14.7353 8.25542C14.9194 8.27356 15.0962 8.33682 15.25 8.43961C15.4039 8.54239 15.53 8.68153 15.6172 8.84469C15.7044 9.00785 15.75 9.19 15.75 9.375V9.37532C15.75 9.59781 15.6839 9.81528 15.5603 10.0002C15.4366 10.1852 15.2609 10.3293 15.0553 10.4144C14.8498 10.4995 14.6236 10.5218 14.4054 10.4784C14.1872 10.4349 13.9868 10.3278 13.8294 10.1705Z" fill="#1D1F21" style="fill: var(--ui-icon-primary-color);"/>
</svg>
