<svg  viewBox="0 0 24 24" fill="none" xmlns="http://www.w3.org/2000/svg" id="__THIS_ID_NEEDS_FOR_UI_ICON_COMPONENT__">
<path d="M20.9999 14.999V4.49951C20.9995 4.10183 20.8413 3.72056 20.5601 3.43935C20.2789 3.15815 19.8976 2.99997 19.4999 2.99951H4.49994C4.10225 2.99997 3.72099 3.15815 3.43978 3.43935C3.15858 3.72056 3.00039 4.10183 2.99994 4.49951V19.4995C3.00039 19.8972 3.15857 20.2785 3.43978 20.5597C3.72099 20.8409 4.10225 20.9991 4.49994 20.9995H19.4999C19.8976 20.9991 20.2789 20.8409 20.5601 20.5597C20.8413 20.2785 20.9995 19.8972 20.9999 19.4995V14.999ZM19.4999 4.49951L19.5005 13.1894L16.8107 10.4995C16.5291 10.2186 16.1477 10.0609 15.75 10.0609C15.3523 10.0609 14.9708 10.2186 14.6893 10.4995L10.5 14.6889L8.56067 12.7495C8.2791 12.4687 7.89766 12.311 7.49999 12.311C7.10232 12.311 6.72087 12.4687 6.4393 12.7495L4.49994 14.6888V4.49951H19.4999ZM19.4999 19.4995H4.49994V16.8102L7.49994 13.8102L9.4393 15.7496C9.72083 16.0305 10.1023 16.1882 10.5 16.1882C10.8977 16.1882 11.2791 16.0305 11.5607 15.7496L15.7499 11.5602L19.5007 15.311L19.5009 19.4995H19.4999ZM8.57944 9.42001C8.44862 9.28919 8.35209 9.12812 8.2984 8.95107C8.2447 8.77403 8.23549 8.58647 8.27159 8.40502C8.30769 8.22357 8.38799 8.05382 8.50536 7.91081C8.62273 7.7678 8.77356 7.65594 8.94449 7.58514C9.11541 7.51435 9.30116 7.4868 9.48528 7.50493C9.66939 7.52307 9.8462 7.58633 10 7.68911C10.1539 7.7919 10.28 7.93103 10.3672 8.09419C10.4544 8.25735 10.5 8.43951 10.5 8.62451V8.62488C10.4999 8.84736 10.4339 9.06482 10.3102 9.24976C10.1866 9.43471 10.0109 9.57885 9.80532 9.66395C9.59976 9.74905 9.37359 9.7713 9.15539 9.72788C8.93719 9.68446 8.73676 9.57732 8.57944 9.42001Z" fill="#1D1F21" style="fill: var(--ui-icon-primary-color);"/>
</svg>
