<svg  viewBox="0 0 24 24" fill="none" xmlns="http://www.w3.org/2000/svg" id="__THIS_ID_NEEDS_FOR_UI_ICON_COMPONENT__">
<path d="M11.9999 2.24951C10.0715 2.24951 8.18645 2.82134 6.58307 3.89268C4.97969 4.96403 3.73001 6.48677 2.99206 8.26835C2.2541 10.0499 2.06102 12.0103 2.43723 13.9016C2.81343 15.793 3.74203 17.5302 5.10559 18.8938C6.46915 20.2574 8.20644 21.186 10.0978 21.5622C11.9891 21.9384 13.9495 21.7453 15.731 21.0073C17.5126 20.2694 19.0354 19.0197 20.1067 17.4163C21.1781 15.8129 21.7499 13.9279 21.7499 11.9995C21.747 9.41455 20.7188 6.9363 18.8909 5.10845C17.0631 3.28061 14.5848 2.25244 11.9999 2.24951ZM11.9999 20.2495C10.3682 20.2495 8.77313 19.7657 7.41643 18.8591C6.05972 17.9526 5.0023 16.6641 4.37788 15.1566C3.75345 13.6492 3.59008 11.9904 3.9084 10.39C4.22673 8.78967 5.01247 7.31966 6.16625 6.16588C7.32003 5.0121 8.79004 4.22636 10.3904 3.90803C11.9907 3.58971 13.6495 3.75308 15.157 4.37751C16.6645 5.00193 17.953 6.05935 18.8595 7.41606C19.766 8.77276 20.2499 10.3678 20.2499 11.9995C20.2474 14.1868 19.3774 16.2838 17.8308 17.8304C16.2841 19.3771 14.1872 20.247 11.9999 20.2495ZM13.4999 16.4995C13.4999 16.6984 13.4209 16.8892 13.2802 17.0298C13.1396 17.1705 12.9488 17.2495 12.7499 17.2495H11.9999C11.801 17.2495 11.6102 17.1705 11.4696 17.0298C11.3289 16.8892 11.2499 16.6984 11.2499 16.4995V11.9995C11.051 11.9995 10.8602 11.9205 10.7196 11.7798C10.5789 11.6392 10.4999 11.4484 10.4999 11.2495C10.4999 11.0506 10.5789 10.8598 10.7196 10.7192C10.8602 10.5785 11.051 10.4995 11.2499 10.4995H11.9999C12.1988 10.4995 12.3896 10.5785 12.5302 10.7192C12.6709 10.8598 12.7499 11.0506 12.7499 11.2495V15.7495C12.9488 15.7495 13.1396 15.8285 13.2802 15.9692C13.4209 16.1098 13.4999 16.3006 13.4999 16.4995ZM11.2044 8.67001C11.0736 8.53919 10.977 8.37812 10.9233 8.20107C10.8696 8.02403 10.8604 7.83647 10.8965 7.65502C10.9326 7.47357 11.0129 7.30382 11.1303 7.16081C11.2477 7.0178 11.3985 6.90594 11.5694 6.83514C11.7404 6.76435 11.9261 6.7368 12.1102 6.75493C12.2943 6.77307 12.4711 6.83633 12.625 6.93911C12.7788 7.0419 12.9049 7.18103 12.9921 7.34419C13.0793 7.50735 13.125 7.68951 13.125 7.87451V7.87488C13.1249 8.09736 13.0588 8.31482 12.9352 8.49976C12.8115 8.68471 12.6358 8.82885 12.4303 8.91395C12.2247 8.99905 11.9985 9.0213 11.7803 8.97788C11.5621 8.93446 11.3617 8.82732 11.2044 8.67001Z" fill="#1D1F21" style="fill: var(--ui-icon-primary-color);"/>
</svg>
