<svg  viewBox="0 0 24 24" fill="none" xmlns="http://www.w3.org/2000/svg" id="__THIS_ID_NEEDS_FOR_UI_ICON_COMPONENT__">
<path d="M16.3719 7.62796C16.1222 6.28504 15.5104 5.03584 14.6026 4.0152C13.6947 2.99457 12.5254 2.24127 11.2208 1.83662C9.91613 1.43197 8.52575 1.39133 7.1997 1.7191C5.87366 2.04687 4.66233 2.73059 3.69645 3.69647C2.73058 4.66234 2.04686 5.87368 1.7191 7.19972C1.39133 8.52577 1.43197 9.91615 1.83662 11.2208C2.24128 12.5254 2.99458 13.6948 4.01522 14.6026C5.03586 15.5104 6.28506 16.1222 7.62798 16.3719C7.87774 17.7149 8.48955 18.9641 9.39737 19.9847C10.3052 21.0053 11.4745 21.7586 12.7792 22.1633C14.0838 22.5679 15.4742 22.6086 16.8002 22.2808C18.1263 21.953 19.3376 21.2693 20.3035 20.3034C21.2693 19.3376 21.9531 18.1262 22.2808 16.8002C22.6086 15.4741 22.568 14.0838 22.1633 12.7791C21.7586 11.4745 21.0053 10.3052 19.9847 9.39734C18.9641 8.48953 17.7149 7.87772 16.3719 7.62796ZM12.6041 13.7934L10.2065 11.3958C10.5456 10.9459 10.9459 10.5457 11.3958 10.2065L13.7934 12.6041C13.4543 13.054 13.054 13.4543 12.6041 13.7934ZM9.43932 12.75L11.2499 14.5606C10.5354 14.8511 9.77131 15.0003 8.99997 14.9999C8.99959 14.2286 9.1488 13.4645 9.43932 12.75ZM14.5606 11.2499L12.75 9.43932C13.4645 9.14879 14.2286 8.99958 15 8.99996C15.0003 9.7713 14.8511 10.5354 14.5606 11.2499V11.2499ZM3 8.99996C3.00008 7.53915 3.53308 6.12854 4.49903 5.03267C5.46498 3.9368 6.79752 3.23096 8.24677 3.0475C9.69602 2.86404 11.1624 3.21557 12.371 4.03617C13.5795 4.85677 14.4472 6.09006 14.8113 7.50478C13.5221 7.53515 12.2628 7.89967 11.1567 8.56266C11.1125 8.5843 11.0706 8.61026 11.0315 8.64016C10.0648 9.24589 9.24776 10.0626 8.64171 11.0291C8.61065 11.0694 8.58381 11.1128 8.56162 11.1585C7.89931 12.2642 7.53516 13.5228 7.50477 14.8113C6.21655 14.4779 5.07537 13.7265 4.26014 12.6748C3.4449 11.6231 3.00169 10.3306 3 8.99996ZM15 20.9999C13.6693 20.9982 12.3768 20.555 11.3251 19.7398C10.2734 18.9245 9.52199 17.7834 9.18861 16.4951C10.4777 16.4648 11.7369 16.1003 12.843 15.4374C12.8874 15.4157 12.9295 15.3896 12.9687 15.3596C13.9352 14.7539 14.7521 13.9373 15.3581 12.971C15.3892 12.9306 15.4161 12.8871 15.4384 12.8413C16.1006 11.7356 16.4648 10.4771 16.4952 9.18861C17.9099 9.55271 19.1432 10.4204 19.9638 11.629C20.7844 12.8375 21.1359 14.3039 20.9524 15.7532C20.769 17.2024 20.0631 18.5349 18.9672 19.5009C17.8714 20.4668 16.4608 20.9998 15 20.9999Z" fill="#1D1F21" style="fill: var(--ui-icon-primary-color);"/>
</svg>
