<svg  viewBox="0 0 24 24" fill="none" xmlns="http://www.w3.org/2000/svg" id="__THIS_ID_NEEDS_FOR_UI_ICON_COMPONENT__">
<path d="M22.5 8.25H21.2755L20.7094 4.28769C20.6569 3.93092 20.4781 3.60482 20.2057 3.36855C19.9333 3.13229 19.5851 3.00153 19.2245 3H4.77548C4.41483 3.00155 4.06669 3.13234 3.79423 3.36863C3.52177 3.60493 3.34305 3.93107 3.2905 4.28787L2.7245 8.25H1.5C1.30109 8.25 1.11032 8.32902 0.96967 8.46967C0.829018 8.61032 0.75 8.80109 0.75 9C0.75 9.19891 0.829018 9.38968 0.96967 9.53033C1.11032 9.67098 1.30109 9.75 1.5 9.75H2.625V19.5C2.62545 19.8977 2.78364 20.279 3.06484 20.5602C3.34605 20.8414 3.72731 20.9995 4.125 21H6.375C6.77269 20.9995 7.15395 20.8414 7.43516 20.5602C7.71636 20.279 7.87455 19.8977 7.875 19.5V17.25H16.125V19.5C16.1255 19.8977 16.2836 20.279 16.5648 20.5602C16.846 20.8414 17.2273 20.9995 17.625 21H19.875C20.2727 20.9995 20.654 20.8414 20.9352 20.5602C21.2164 20.279 21.3745 19.8977 21.375 19.5V9.75H22.5C22.6989 9.75 22.8897 9.67098 23.0303 9.53033C23.171 9.38968 23.25 9.19891 23.25 9C23.25 8.80109 23.171 8.61032 23.0303 8.46967C22.8897 8.32902 22.6989 8.25 22.5 8.25ZM4.77548 4.5L19.2245 4.49991L19.7602 8.25H4.23976L4.77548 4.5ZM6.375 19.5H4.125V17.25H6.375V19.5ZM17.625 19.5V17.25H19.875V19.5H17.625ZM19.875 15.75H14.25V12C14.25 11.8011 14.171 11.6103 14.0303 11.4697C13.8897 11.329 13.6989 11.25 13.5 11.25C13.3011 11.25 13.1103 11.329 12.9697 11.4697C12.829 11.6103 12.75 11.8011 12.75 12V15.75H11.25V12C11.25 11.8011 11.171 11.6103 11.0303 11.4697C10.8897 11.329 10.6989 11.25 10.5 11.25C10.3011 11.25 10.1103 11.329 9.96967 11.4697C9.82902 11.6103 9.75 11.8011 9.75 12V15.75H4.125V9.75H19.875V15.75ZM5.625 12.375C5.625 12.1525 5.69098 11.935 5.8146 11.75C5.93821 11.565 6.11391 11.4208 6.31948 11.3356C6.52505 11.2505 6.75125 11.2282 6.96948 11.2716C7.18771 11.315 7.38816 11.4222 7.5455 11.5795C7.70283 11.7368 7.80998 11.9373 7.85338 12.1555C7.89679 12.3738 7.87451 12.6 7.78936 12.8055C7.70422 13.0111 7.56002 13.1868 7.37502 13.3104C7.19001 13.434 6.9725 13.5 6.75 13.5C6.45163 13.5 6.16548 13.3815 5.9545 13.1705C5.74353 12.9595 5.625 12.6734 5.625 12.375ZM16.125 12.375C16.125 12.1525 16.191 11.935 16.3146 11.75C16.4382 11.565 16.6139 11.4208 16.8195 11.3356C17.025 11.2505 17.2512 11.2282 17.4695 11.2716C17.6877 11.315 17.8882 11.4222 18.0455 11.5795C18.2028 11.7368 18.31 11.9373 18.3534 12.1555C18.3968 12.3738 18.3745 12.6 18.2894 12.8055C18.2042 13.0111 18.06 13.1868 17.875 13.3104C17.69 13.434 17.4725 13.5 17.25 13.5C16.9516 13.5 16.6655 13.3815 16.4545 13.1705C16.2435 12.9595 16.125 12.6734 16.125 12.375Z" fill="#1D1F21" style="fill: var(--ui-icon-primary-color);"/>
</svg>
