<svg  viewBox="0 0 24 24" fill="none" xmlns="http://www.w3.org/2000/svg" id="__THIS_ID_NEEDS_FOR_UI_ICON_COMPONENT__">
<path d="M15 1.5C13.8162 1.50086 12.6494 1.78172 11.5949 2.31965C10.5404 2.85758 9.62806 3.63732 8.93245 4.59518C8.23684 5.55304 7.77767 6.66186 7.59244 7.83107C7.40722 9.00029 7.50118 10.1967 7.86667 11.3227L2.46963 16.7196C2.32901 16.8603 2.25001 17.0511 2.25 17.25V21C2.25001 21.1989 2.32903 21.3897 2.46968 21.5303C2.61033 21.671 2.80109 21.75 3 21.75H6.75C6.94891 21.75 7.13967 21.671 7.28032 21.5303C7.42097 21.3897 7.49999 21.1989 7.5 21V19.5H9C9.19891 19.5 9.38967 19.421 9.53032 19.2803C9.67097 19.1397 9.74999 18.9489 9.75 18.75V17.25H11.25C11.4489 17.25 11.6397 17.171 11.7804 17.0304L12.6773 16.1333C13.7085 16.469 14.8001 16.5771 15.8771 16.4502C16.954 16.3233 17.9906 15.9643 18.9155 15.3981C19.8404 14.8319 20.6314 14.072 21.2343 13.1705C21.8371 12.2691 22.2373 11.2477 22.4073 10.1767C22.5773 9.10573 22.513 8.01061 22.2189 6.96684C21.9249 5.92307 21.408 4.95547 20.7039 4.13072C19.9998 3.30598 19.1253 2.6437 18.1406 2.18954C17.1559 1.73538 16.0844 1.50013 15 1.5ZM15 15C14.2407 15.0013 13.4881 14.8578 12.7826 14.5772C12.6446 14.5175 12.4918 14.5006 12.3441 14.5288C12.1964 14.5569 12.0605 14.6288 11.9541 14.7351L10.9394 15.75H9C8.80109 15.75 8.61033 15.829 8.46968 15.9697C8.32903 16.1103 8.25001 16.3011 8.25 16.5V18H6.75C6.55109 18 6.36033 18.079 6.21968 18.2197C6.07903 18.3603 6.00001 18.5511 6 18.75V20.25H3.75V17.5606L9.26486 12.0459C9.37117 11.9395 9.44307 11.8037 9.47125 11.656C9.49943 11.5083 9.48258 11.3555 9.42288 11.2175C8.94825 10.0246 8.86867 8.71102 9.19582 7.46958C9.52297 6.22815 10.2396 5.12435 11.2405 4.32033C12.2413 3.51631 13.4737 3.05445 14.7564 3.0026C16.0392 2.95074 17.3048 3.31162 18.3673 4.03223C19.4298 4.75283 20.2332 5.79518 20.6595 7.00615C21.0858 8.21713 21.1125 9.53289 20.7357 10.7602C20.3589 11.9874 19.5985 13.0615 18.5661 13.8247C17.5337 14.5878 16.2838 14.9998 15 15ZM17.9997 7.125C17.9997 7.3475 17.9337 7.56501 17.8101 7.75002C17.6865 7.93502 17.5108 8.07922 17.3052 8.16436C17.0997 8.24951 16.8735 8.27179 16.6552 8.22838C16.437 8.18498 16.2366 8.07783 16.0792 7.9205C15.9219 7.76316 15.8147 7.56271 15.7713 7.34448C15.7279 7.12625 15.7502 6.90005 15.8354 6.69448C15.9205 6.48891 16.0647 6.31321 16.2497 6.1896C16.4347 6.06598 16.6522 6 16.8747 6C17.173 6.00033 17.459 6.11896 17.6699 6.32986C17.8808 6.54077 17.9994 6.82673 17.9997 7.125Z" fill="#1D1F21" style="fill: var(--ui-icon-primary-color);"/>
</svg>
