<svg  viewBox="0 0 24 24" fill="none" xmlns="http://www.w3.org/2000/svg" id="__THIS_ID_NEEDS_FOR_UI_ICON_COMPONENT__">
<path d="M21.75 15.75H21V6.75C20.9993 6.15347 20.762 5.58157 20.3402 5.15976C19.9184 4.73795 19.3465 4.50068 18.75 4.5H5.25C4.65347 4.50068 4.08157 4.73795 3.65976 5.15976C3.23795 5.58157 3.00068 6.15347 3 6.75V15.75H2.25C2.05109 15.75 1.86032 15.829 1.71967 15.9697C1.57902 16.1103 1.5 16.3011 1.5 16.5V18C1.50068 18.5965 1.73795 19.1684 2.15976 19.5902C2.58157 20.012 3.15347 20.2493 3.75 20.25H20.25C20.8465 20.2493 21.4184 20.012 21.8402 19.5902C22.262 19.1684 22.4993 18.5965 22.5 18V16.5C22.5 16.3011 22.421 16.1103 22.2803 15.9697C22.1397 15.829 21.9489 15.75 21.75 15.75ZM4.5 6.75C4.50023 6.55116 4.57932 6.36052 4.71992 6.21992C4.86052 6.07932 5.05116 6.00023 5.25 6H18.75C18.9488 6.00023 19.1395 6.07932 19.2801 6.21992C19.4207 6.36052 19.4998 6.55116 19.5 6.75V15.75H4.5V6.75ZM21 18C20.9998 18.1988 20.9207 18.3895 20.7801 18.5301C20.6395 18.6707 20.4488 18.7498 20.25 18.75H3.75C3.55116 18.7498 3.36052 18.6707 3.21992 18.5301C3.07932 18.3895 3.00023 18.1988 3 18V17.25H21V18ZM14.25 8.25C14.25 8.44891 14.171 8.63968 14.0303 8.78033C13.8897 8.92098 13.6989 9 13.5 9H10.5C10.3011 9 10.1103 8.92098 9.96967 8.78033C9.82902 8.63968 9.75 8.44891 9.75 8.25C9.75 8.05109 9.82902 7.86032 9.96967 7.71967C10.1103 7.57902 10.3011 7.5 10.5 7.5H13.5C13.6989 7.5 13.8897 7.57902 14.0303 7.71967C14.171 7.86032 14.25 8.05109 14.25 8.25Z" fill="#1D1F21" style="fill: var(--ui-icon-primary-color);"/>
</svg>
