<svg  viewBox="0 0 24 24" fill="none" xmlns="http://www.w3.org/2000/svg" id="__THIS_ID_NEEDS_FOR_UI_ICON_COMPONENT__">
<path d="M20.3242 4.14455C20.2872 4.03573 20.2257 3.93687 20.1445 3.8556C20.0632 3.77433 19.9643 3.71283 19.8555 3.67585C18.5334 3.22691 17.1463 2.99858 15.75 3.00001C8.71967 3.00001 3.00005 8.71963 3.00005 15.75C2.99907 16.9882 3.17857 18.22 3.53288 19.4065L1.71973 21.2196C1.57907 21.3603 1.50004 21.5511 1.50003 21.75C1.50002 21.9489 1.57903 22.1397 1.71968 22.2803C1.86033 22.421 2.0511 22.5 2.25002 22.5C2.44893 22.5 2.63971 22.421 2.78037 22.2804L4.59362 20.4671C5.78006 20.8214 7.01182 21.001 8.25005 21C15.2804 21 21 15.2803 21 8.25001C21.0015 6.85372 20.7731 5.4667 20.3242 4.14455ZM8.25005 19.5C7.43414 19.5003 6.62061 19.4121 5.82372 19.237L15.5304 9.53033C15.6709 9.38965 15.7498 9.19893 15.7497 9.0001C15.7496 8.80128 15.6706 8.61061 15.53 8.47002C15.3894 8.32943 15.1988 8.25042 15 8.25035C14.8011 8.25029 14.6104 8.32918 14.4697 8.46969L4.76303 18.1764C4.34139 16.2587 4.42857 14.2642 5.01591 12.3907C5.60325 10.5172 6.67033 8.82982 8.11126 7.49611C9.55218 6.1624 11.3168 5.22871 13.2301 4.78769C15.1433 4.34667 17.1387 4.41367 19.018 4.98203C19.5265 6.66336 19.6345 8.44034 19.3334 10.1709C19.0324 11.9014 18.3306 13.5375 17.2842 14.9483C16.2378 16.3592 14.8758 17.5056 13.3071 18.2959C11.7384 19.0863 10.0066 19.4986 8.25005 19.5Z" fill="#1D1F21" style="fill: var(--ui-icon-primary-color);"/>
</svg>
