<svg  viewBox="0 0 24 24" fill="none" xmlns="http://www.w3.org/2000/svg" id="__THIS_ID_NEEDS_FOR_UI_ICON_COMPONENT__">
<path d="M15.7502 18.75C15.7502 18.9489 15.6712 19.1397 15.5306 19.2803C15.3899 19.421 15.1992 19.5 15.0002 19.5H9.00024C8.80133 19.5 8.61057 19.421 8.46991 19.2803C8.32926 19.1397 8.25024 18.9489 8.25024 18.75C8.25024 18.5511 8.32926 18.3603 8.46991 18.2197C8.61057 18.079 8.80133 18 9.00024 18H15.0002C15.1992 18 15.3899 18.079 15.5306 18.2197C15.6712 18.3603 15.7502 18.5511 15.7502 18.75ZM14.2502 21H9.75024C9.55133 21 9.36057 21.079 9.21991 21.2197C9.07926 21.3603 9.00024 21.5511 9.00024 21.75C9.00024 21.9489 9.07926 22.1397 9.21991 22.2803C9.36057 22.421 9.55133 22.5 9.75024 22.5H14.2502C14.4492 22.5 14.6399 22.421 14.7806 22.2803C14.9212 22.1397 15.0002 21.9489 15.0002 21.75C15.0002 21.5511 14.9212 21.3603 14.7806 21.2197C14.6399 21.079 14.4492 21 14.2502 21ZM12.0002 1.5C10.2688 1.50009 8.58127 2.0449 7.17664 3.05727C5.77201 4.06965 4.72148 5.49827 4.17383 7.14082C3.62617 8.78337 3.60915 10.5566 4.12518 12.2093C4.64121 13.8621 5.66413 15.3106 7.04907 16.3498C7.12782 16.4089 7.21745 16.452 7.31285 16.4765C7.40825 16.501 7.50754 16.5065 7.60506 16.4927C7.70258 16.4788 7.79642 16.4459 7.88122 16.3958C7.96601 16.3457 8.04011 16.2794 8.09928 16.2006C8.15844 16.1219 8.20151 16.0322 8.22604 15.9368C8.25056 15.8414 8.25606 15.7422 8.24221 15.6446C8.22836 15.5471 8.19544 15.4533 8.14532 15.3685C8.09521 15.2837 8.02888 15.2096 7.95013 15.1504C6.8168 14.3004 5.97964 13.1153 5.55725 11.763C5.13485 10.4108 5.14864 8.95989 5.59665 7.6159C6.04467 6.27191 6.90419 5.10295 8.05348 4.2746C9.20276 3.44625 10.5835 3.0005 12.0002 3.0005C13.4169 3.0005 14.7977 3.44625 15.947 4.2746C17.0963 5.10295 17.9558 6.27191 18.4038 7.6159C18.8518 8.95989 18.8656 10.4108 18.4432 11.763C18.0208 13.1153 17.1837 14.3004 16.0504 15.1504C15.8913 15.2699 15.7862 15.4477 15.7583 15.6446C15.7303 15.8416 15.7817 16.0416 15.9012 16.2006C16.0207 16.3597 16.1985 16.4647 16.3954 16.4927C16.5924 16.5207 16.7924 16.4693 16.9514 16.3498C18.3364 15.3106 19.3593 13.8621 19.8753 12.2093C20.3913 10.5566 20.3743 8.78337 19.8267 7.14082C19.279 5.49827 18.2285 4.06965 16.8238 3.05727C15.4192 2.0449 13.7317 1.50009 12.0002 1.5Z" fill="#1D1F21" style="fill: var(--ui-icon-primary-color);"/>
</svg>
