<svg  viewBox="0 0 24 24" fill="none" xmlns="http://www.w3.org/2000/svg" id="__THIS_ID_NEEDS_FOR_UI_ICON_COMPONENT__">
<path d="M19.5 3H4.5C4.10231 3.00045 3.72104 3.15863 3.43984 3.43984C3.15863 3.72104 3.00045 4.10231 3 4.5V19.5C3.00045 19.8977 3.15864 20.279 3.43984 20.5602C3.72105 20.8414 4.10231 20.9995 4.5 21H19.5C19.8977 20.9995 20.279 20.8414 20.5602 20.5602C20.8414 20.279 20.9995 19.8977 21 19.5V4.5C20.9995 4.10231 20.8414 3.72104 20.5602 3.43984C20.279 3.15863 19.8977 3.00045 19.5 3ZM19.5 19.5H4.5V4.5H19.5L19.501 19.5L19.5 19.5ZM9 10.5001V16.5001C9 16.699 8.92098 16.8898 8.78033 17.0304C8.63968 17.1711 8.44891 17.2501 8.25 17.2501C8.05109 17.2501 7.86032 17.1711 7.71967 17.0304C7.57902 16.8898 7.5 16.699 7.5 16.5001V10.5001C7.5 10.3012 7.57902 10.1104 7.71967 9.96976C7.86032 9.82911 8.05109 9.75009 8.25 9.75009C8.44891 9.75009 8.63968 9.82911 8.78033 9.96976C8.92098 10.1104 9 10.3012 9 10.5001ZM9.375 7.50009C9.375 7.7226 9.30902 7.9401 9.1854 8.12511C9.06179 8.31012 8.88609 8.45431 8.68052 8.53946C8.47495 8.62461 8.24875 8.64689 8.03052 8.60348C7.81229 8.56007 7.61184 8.45292 7.4545 8.29559C7.29717 8.13826 7.19002 7.9378 7.14662 7.71957C7.10321 7.50134 7.12549 7.27514 7.21064 7.06957C7.29578 6.86401 7.43998 6.68831 7.62498 6.56469C7.80999 6.44107 8.0275 6.37509 8.25 6.37509C8.54837 6.37509 8.83452 6.49362 9.0455 6.7046C9.25647 6.91558 9.375 7.20173 9.375 7.50009ZM17.25 13.1251V16.5001C17.25 16.699 17.171 16.8898 17.0303 17.0304C16.8897 17.1711 16.6989 17.2501 16.5 17.2501C16.3011 17.2501 16.1103 17.1711 15.9697 17.0304C15.829 16.8898 15.75 16.699 15.75 16.5001V13.1251C15.75 12.6278 15.5525 12.1509 15.2008 11.7993C14.8492 11.4476 14.3723 11.2501 13.875 11.2501C13.3777 11.2501 12.9008 11.4476 12.5492 11.7993C12.1975 12.1509 12 12.6278 12 13.1251V16.5001C12 16.699 11.921 16.8898 11.7803 17.0304C11.6397 17.1711 11.4489 17.2501 11.25 17.2501C11.0511 17.2501 10.8603 17.1711 10.7197 17.0304C10.579 16.8898 10.5 16.699 10.5 16.5001V10.5001C10.4999 10.3157 10.5678 10.1378 10.6906 10.0003C10.8135 9.86283 10.9827 9.77543 11.1659 9.7548C11.3491 9.73417 11.5335 9.78177 11.6838 9.8885C11.8341 9.99524 11.9398 10.1536 11.9808 10.3334C12.488 9.98868 13.0796 9.78878 13.6919 9.75517C14.3042 9.72155 14.9141 9.8555 15.456 10.1426C15.9979 10.4297 16.4513 10.8591 16.7674 11.3846C17.0835 11.9101 17.2503 12.5118 17.25 13.1251Z" fill="#1D1F21" style="fill: var(--ui-icon-primary-color);"/>
</svg>
