<svg  viewBox="0 0 24 24" fill="none" xmlns="http://www.w3.org/2000/svg" id="__THIS_ID_NEEDS_FOR_UI_ICON_COMPONENT__">
<path d="M21.1177 7.75787C21.1195 8.39832 20.9942 9.03276 20.7491 9.62446C20.504 10.2162 20.144 10.7534 19.6899 11.205L17.0383 13.8568C16.1233 14.7696 14.8836 15.2822 13.5911 15.2822C12.2986 15.2822 11.0589 14.7696 10.1439 13.8568C10.0034 13.7161 9.92455 13.5253 9.92462 13.3265C9.92469 13.1277 10.0037 12.937 10.1443 12.7964C10.2849 12.6558 10.4756 12.5768 10.6744 12.5767C10.8732 12.5767 11.0639 12.6555 11.2046 12.796C11.8381 13.428 12.6963 13.783 13.5912 13.783C14.486 13.783 15.3442 13.428 15.9777 12.796L18.6292 10.1443C19.2621 9.51136 19.6177 8.65293 19.6177 7.75784C19.6177 6.86275 19.2621 6.00433 18.6292 5.37141C18.3158 5.05802 17.9437 4.80943 17.5342 4.63983C17.1248 4.47023 16.6859 4.38294 16.2427 4.38294C15.3476 4.38295 14.4892 4.73853 13.8563 5.37146L12.0001 7.2276C11.8595 7.36826 11.6687 7.44729 11.4698 7.44729C11.2709 7.44729 11.0801 7.36826 10.9394 7.2276C10.7987 7.08694 10.7197 6.89616 10.7197 6.69724C10.7197 6.49831 10.7987 6.30753 10.9394 6.16687L12.7955 4.31073C13.4773 3.62893 14.346 3.16461 15.2916 2.9765C16.2373 2.78838 17.2175 2.88492 18.1083 3.2539C18.9991 3.62288 19.7605 4.24773 20.2961 5.04943C20.8318 5.85114 21.1177 6.79368 21.1177 7.75787H21.1177ZM12.0001 16.7734L10.1439 18.6296C9.83052 18.943 9.45847 19.1916 9.04901 19.3612C8.63955 19.5308 8.20068 19.6181 7.75748 19.6181C7.31428 19.6181 6.87542 19.5308 6.46595 19.3612C6.05648 19.1916 5.68443 18.943 5.37104 18.6296C5.05764 18.3162 4.80904 17.9442 4.63943 17.5347C4.46982 17.1253 4.38252 16.6864 4.38252 16.2432C4.38252 15.8 4.46981 15.3611 4.63941 14.9517C4.80901 14.5422 5.0576 14.1701 5.37099 13.8568L8.02254 11.205C8.65594 10.5729 9.51422 10.218 10.409 10.218C11.3039 10.218 12.1622 10.5729 12.7956 11.205C12.8652 11.2748 12.9479 11.3301 13.0389 11.3678C13.1299 11.4056 13.2275 11.4251 13.326 11.4251C13.4246 11.4251 13.5222 11.4057 13.6132 11.368C13.7043 11.3304 13.787 11.2751 13.8567 11.2054C13.9264 11.1357 13.9816 11.053 14.0193 10.9619C14.057 10.8709 14.0764 10.7733 14.0764 10.6748C14.0763 10.5762 14.0569 10.4787 14.0191 10.3876C13.9813 10.2966 13.926 10.2139 13.8563 10.1443C12.9413 9.23146 11.7016 8.71881 10.4091 8.71881C9.11662 8.71881 7.87691 9.23146 6.96191 10.1443L4.31026 12.796C3.39694 13.7105 2.88412 14.9502 2.88452 16.2426C2.88492 17.535 3.39852 18.7744 4.31241 19.6883C5.22629 20.6021 6.46567 21.1157 7.7581 21.1161C9.05052 21.1165 10.2902 20.6036 11.2046 19.6903L13.0608 17.8342C13.2013 17.6935 13.2802 17.5027 13.2801 17.3039C13.28 17.1051 13.201 16.9144 13.0604 16.7738C12.9198 16.6332 12.7291 16.5542 12.5303 16.5541C12.3315 16.5541 12.1408 16.6329 12.0001 16.7734L12.0001 16.7734Z" fill="#1D1F21" style="fill: var(--ui-icon-primary-color);"/>
</svg>
