<svg  viewBox="0 0 24 24" fill="none" xmlns="http://www.w3.org/2000/svg" id="__THIS_ID_NEEDS_FOR_UI_ICON_COMPONENT__">
<path d="M15.7118 8.28586C15.8524 8.42653 15.9314 8.6173 15.9314 8.81622C15.9314 9.01514 15.8524 9.20592 15.7118 9.34659L9.34785 15.7105C9.27825 15.7804 9.19556 15.8359 9.10449 15.8738C9.01342 15.9117 8.91577 15.9313 8.81714 15.9314C8.7185 15.9315 8.62081 15.9121 8.52966 15.8744C8.4385 15.8367 8.35568 15.7814 8.28594 15.7117C8.21619 15.6419 8.16088 15.5591 8.12319 15.468C8.08549 15.3768 8.06614 15.2791 8.06625 15.1805C8.06636 15.0819 8.08593 14.9842 8.12383 14.8931C8.16173 14.8021 8.21722 14.7194 8.28712 14.6498L14.651 8.28586C14.7917 8.14525 14.9825 8.06627 15.1814 8.06627C15.3803 8.06627 15.5711 8.14525 15.7118 8.28586ZM13.0599 16.2415L10.4082 18.8932C9.70489 19.596 8.7512 19.9908 7.75687 19.9906C6.76253 19.9905 5.80896 19.5954 5.10586 18.8923C4.40276 18.1892 4.00769 17.2357 4.00754 16.2413C4.00738 15.247 4.40214 14.2933 5.10502 13.59L7.75666 10.9383C7.89733 10.7977 7.97635 10.6069 7.97635 10.408C7.97635 10.209 7.89733 10.0183 7.75666 9.87759C7.616 9.73693 7.42523 9.65791 7.2263 9.65791C7.02737 9.65791 6.8366 9.73693 6.69593 9.87759L4.04429 12.5292C3.05972 13.5138 2.50659 14.8492 2.50659 16.2416C2.50659 17.634 3.05972 18.9693 4.04429 19.9539C5.02886 20.9385 6.36422 21.4916 7.75661 21.4916C9.14901 21.4916 10.4844 20.9385 11.4689 19.9539L14.1206 17.3022C14.1902 17.2326 14.2455 17.1499 14.2832 17.0589C14.3209 16.9679 14.3403 16.8704 14.3403 16.7719C14.3403 16.6734 14.3209 16.5758 14.2832 16.4848C14.2455 16.3938 14.1902 16.3112 14.1206 16.2415C14.0509 16.1719 13.9682 16.1166 13.8772 16.0789C13.7862 16.0412 13.6887 16.0218 13.5902 16.0218C13.4917 16.0218 13.3942 16.0412 13.3032 16.0789C13.2122 16.1166 13.1295 16.1719 13.0599 16.2415ZM19.9547 4.04349C18.9701 3.05896 17.6347 2.50586 16.2424 2.50586C14.85 2.50586 13.5146 3.05896 12.53 4.04349L9.87839 6.69513C9.80854 6.76473 9.7531 6.84743 9.71524 6.93848C9.67738 7.02953 9.65785 7.12716 9.65776 7.22577C9.65767 7.32438 9.67703 7.42204 9.71473 7.51316C9.75242 7.60428 9.80772 7.68708 9.87744 7.7568C9.94717 7.82653 10.03 7.88183 10.1211 7.91952C10.2122 7.95722 10.3099 7.97658 10.4085 7.97649C10.5071 7.9764 10.6047 7.95687 10.6958 7.91901C10.7868 7.88115 10.8695 7.82571 10.9391 7.75586L13.5908 5.10422C14.294 4.40097 15.2478 4.00589 16.2424 4.00589C17.2369 4.00589 18.1907 4.40097 18.894 5.10422C19.5972 5.80746 19.9923 6.76127 19.9923 7.75581C19.9923 8.75035 19.5972 9.70416 18.894 10.4074L16.2423 13.0591C16.1017 13.1997 16.0226 13.3905 16.0226 13.5894C16.0226 13.7883 16.1017 13.9791 16.2423 14.1198C16.383 14.2604 16.5738 14.3395 16.7727 14.3395C16.9716 14.3395 17.1624 14.2604 17.303 14.1198L19.9547 11.4681C20.9378 10.4828 21.4899 9.14772 21.4899 7.75581C21.4899 6.36391 20.9378 5.02884 19.9547 4.04349Z" fill="#1D1F21" style="fill: var(--ui-icon-primary-color);"/>
</svg>
