<svg  viewBox="0 0 24 24" fill="none" xmlns="http://www.w3.org/2000/svg" id="__THIS_ID_NEEDS_FOR_UI_ICON_COMPONENT__">
<path d="M14.1208 16.2415C14.2614 16.3822 14.3404 16.573 14.3404 16.7719C14.3404 16.9708 14.2614 17.1616 14.1208 17.3022L11.4691 19.9539C10.4846 20.9385 9.14919 21.4916 7.7568 21.4916C6.3644 21.4916 5.02904 20.9385 4.04447 19.9539C3.0599 18.9693 2.50677 17.634 2.50677 16.2416C2.50677 14.8492 3.0599 13.5138 4.04447 12.5292L6.69611 9.87759C6.83677 9.73693 7.02755 9.65791 7.22648 9.65791C7.4254 9.65791 7.61618 9.73693 7.75684 9.87759C7.89751 10.0183 7.97653 10.209 7.97653 10.408C7.97653 10.6069 7.89751 10.7977 7.75684 10.9383L5.1052 13.59C4.40195 14.2932 4.00687 15.247 4.00688 16.2416C4.00688 17.2361 4.40196 18.1899 5.1052 18.8932C5.80845 19.5964 6.76226 19.9915 7.7568 19.9915C8.75134 19.9915 9.70515 19.5964 10.4084 18.8932L13.06 16.2415C13.2007 16.1009 13.3915 16.0219 13.5904 16.0219C13.7893 16.0219 13.9801 16.1009 14.1208 16.2415ZM19.9549 4.04349C18.9703 3.05896 17.6349 2.50586 16.2425 2.50586C14.8502 2.50586 13.5148 3.05896 12.5302 4.04349L9.87858 6.69513C9.80872 6.76473 9.75328 6.84743 9.71542 6.93848C9.67757 7.02953 9.65803 7.12716 9.65794 7.22577C9.65786 7.32438 9.67721 7.42204 9.71491 7.51316C9.75261 7.60428 9.8079 7.68708 9.87763 7.7568C9.94736 7.82653 10.0301 7.88183 10.1213 7.91952C10.2124 7.95722 10.3101 7.97658 10.4087 7.97649C10.5073 7.9764 10.6049 7.95687 10.696 7.91901C10.787 7.88115 10.8697 7.82571 10.9393 7.75586L13.5909 5.10422C14.2942 4.40097 15.248 4.00589 16.2425 4.00589C17.2371 4.00589 18.1909 4.40097 18.8941 5.10422C19.5974 5.80746 19.9925 6.76127 19.9925 7.75581C19.9925 8.75035 19.5974 9.70416 18.8941 10.4074L16.2425 13.0591C16.1018 13.1997 16.0228 13.3905 16.0228 13.5894C16.0228 13.7883 16.1018 13.9791 16.2425 14.1198C16.3832 14.2604 16.5739 14.3395 16.7729 14.3395C16.9718 14.3395 17.1626 14.2604 17.3032 14.1198L19.9549 11.4681C20.938 10.4828 21.4901 9.14772 21.4901 7.75581C21.4901 6.36391 20.938 5.02884 19.9549 4.04349Z" fill="#1D1F21" style="fill: var(--ui-icon-primary-color);"/>
</svg>
