<svg  viewBox="0 0 24 24" fill="none" xmlns="http://www.w3.org/2000/svg" id="__THIS_ID_NEEDS_FOR_UI_ICON_COMPONENT__">
<path d="M7.49997 11.2491H16.5C16.6989 11.2491 16.8896 11.3282 17.0303 11.4688C17.171 11.6095 17.25 11.8002 17.25 11.9991C17.25 12.1981 17.171 12.3888 17.0303 12.5295C16.8896 12.6701 16.6989 12.7491 16.5 12.7491H7.49997C7.30106 12.7491 7.11029 12.6701 6.96964 12.5295C6.82899 12.3888 6.74997 12.1981 6.74997 11.9991C6.74997 11.8002 6.82899 11.6095 6.96964 11.4688C7.11029 11.3282 7.30106 11.2491 7.49997 11.2491ZM9.74933 15.7495H5.99933C5.00477 15.7495 4.05094 15.3544 3.34768 14.6512C2.64442 13.9479 2.24933 12.9941 2.24933 11.9995C2.24933 11.005 2.64442 10.0511 3.34768 9.34786C4.05094 8.6446 5.00477 8.24951 5.99933 8.24951H9.74933C9.94824 8.24951 10.139 8.17049 10.2797 8.02984C10.4203 7.88919 10.4993 7.69842 10.4993 7.49951C10.4993 7.3006 10.4203 7.10983 10.2797 6.96918C10.139 6.82853 9.94824 6.74951 9.74933 6.74951H5.99933C4.60694 6.74951 3.27158 7.30263 2.28702 8.2872C1.30245 9.27177 0.749329 10.6071 0.749329 11.9995C0.749329 13.3919 1.30245 14.7273 2.28702 15.7118C3.27158 16.6964 4.60694 17.2495 5.99933 17.2495H9.74933C9.94824 17.2495 10.139 17.1705 10.2797 17.0298C10.4203 16.8892 10.4993 16.6984 10.4993 16.4995C10.4993 16.3006 10.4203 16.1098 10.2797 15.9692C10.139 15.8285 9.94824 15.7495 9.74933 15.7495ZM18 6.74951H14.25C14.0511 6.74951 13.8603 6.82853 13.7196 6.96918C13.579 7.10983 13.5 7.3006 13.5 7.49951C13.5 7.69842 13.579 7.88919 13.7196 8.02984C13.8603 8.17049 14.0511 8.24951 14.25 8.24951H18C18.9945 8.24951 19.9484 8.6446 20.6516 9.34786C21.3549 10.0511 21.75 11.005 21.75 11.9995C21.75 12.9941 21.3549 13.9479 20.6516 14.6512C19.9484 15.3544 18.9945 15.7495 18 15.7495H14.25C14.0511 15.7495 13.8603 15.8285 13.7196 15.9692C13.579 16.1098 13.5 16.3006 13.5 16.4995C13.5 16.6984 13.579 16.8892 13.7196 17.0298C13.8603 17.1705 14.0511 17.2495 14.25 17.2495H18C19.3924 17.2495 20.7277 16.6964 21.7123 15.7118C22.6968 14.7273 23.25 13.3919 23.25 11.9995C23.25 10.6071 22.6968 9.27177 21.7123 8.2872C20.7277 7.30263 19.3924 6.74951 18 6.74951Z" fill="#1D1F21" style="fill: var(--ui-icon-primary-color);"/>
</svg>
