<svg  viewBox="0 0 24 24" fill="none" xmlns="http://www.w3.org/2000/svg" id="__THIS_ID_NEEDS_FOR_UI_ICON_COMPONENT__">
<path d="M3 5.99951C3 5.90102 3.01939 5.80349 3.05708 5.7125C3.09477 5.6215 3.15002 5.53882 3.21966 5.46918C3.28931 5.39953 3.37199 5.34429 3.46298 5.3066C3.55398 5.26891 3.65151 5.24951 3.75 5.24951H20.25C20.4489 5.24951 20.6397 5.32853 20.7803 5.46918C20.921 5.60983 21 5.8006 21 5.99951C21 6.19842 20.921 6.38919 20.7803 6.52984C20.6397 6.67049 20.4489 6.74951 20.25 6.74951H3.75C3.65151 6.74951 3.55398 6.73012 3.46298 6.69243C3.37199 6.65474 3.28931 6.59949 3.21966 6.52985C3.15002 6.4602 3.09477 6.37752 3.05708 6.28653C3.01939 6.19553 3 6.098 3 5.99951ZM20.25 11.2495H3.7506C3.55168 11.2495 3.36092 11.3285 3.22027 11.4692C3.07961 11.6098 3.0006 11.8006 3.0006 11.9995C3.0006 12.1984 3.07961 12.3892 3.22027 12.5298C3.36092 12.6705 3.55168 12.7495 3.7506 12.7495H20.25C20.4489 12.7495 20.6397 12.6705 20.7803 12.5298C20.921 12.3892 21 12.1984 21 11.9995C21 11.8006 20.921 11.6098 20.7803 11.4692C20.6397 11.3285 20.4489 11.2495 20.25 11.2495ZM13.5 17.2495H3.7506C3.55168 17.2495 3.36092 17.3285 3.22027 17.4692C3.07961 17.6098 3.0006 17.8006 3.0006 17.9995C3.0006 18.1984 3.07961 18.3892 3.22027 18.5298C3.36092 18.6705 3.55168 18.7495 3.7506 18.7495H13.5C13.6989 18.7495 13.8897 18.6705 14.0303 18.5298C14.171 18.3892 14.25 18.1984 14.25 17.9995C14.25 17.8006 14.171 17.6098 14.0303 17.4692C13.8897 17.3285 13.6989 17.2495 13.5 17.2495ZM21.75 17.2501H20.25V15.7501C20.25 15.5511 20.171 15.3604 20.0303 15.2197C19.8897 15.0791 19.6989 15.0001 19.5 15.0001C19.3011 15.0001 19.1103 15.0791 18.9697 15.2197C18.829 15.3604 18.75 15.5511 18.75 15.7501V17.2501H17.25C17.0511 17.2501 16.8603 17.3291 16.7197 17.4697C16.579 17.6104 16.5 17.8011 16.5 18.0001C16.5 18.199 16.579 18.3897 16.7197 18.5304C16.8603 18.671 17.0511 18.7501 17.25 18.7501H18.75V20.2501C18.75 20.449 18.829 20.6397 18.9697 20.7804C19.1103 20.921 19.3011 21.0001 19.5 21.0001C19.6989 21.0001 19.8897 20.921 20.0303 20.7804C20.171 20.6397 20.25 20.449 20.25 20.2501V18.7501H21.75C21.9489 18.7501 22.1397 18.671 22.2803 18.5304C22.421 18.3897 22.5 18.199 22.5 18.0001C22.5 17.8011 22.421 17.6104 22.2803 17.4697C22.1397 17.3291 21.9489 17.2501 21.75 17.2501Z" fill="#1D1F21" style="fill: var(--ui-icon-primary-color);"/>
</svg>
