<svg  viewBox="0 0 24 24" fill="none" xmlns="http://www.w3.org/2000/svg" id="__THIS_ID_NEEDS_FOR_UI_ICON_COMPONENT__">
<path d="M21 12.0005C21 12.1994 20.921 12.3902 20.7803 12.5308C20.6397 12.6715 20.4489 12.7505 20.25 12.7505H3.75C3.55109 12.7505 3.36032 12.6715 3.21967 12.5308C3.07902 12.3902 3 12.1994 3 12.0005C3 11.8016 3.07902 11.6108 3.21967 11.4702C3.36032 11.3295 3.55109 11.2505 3.75 11.2505H20.25C20.4489 11.2505 20.6397 11.3295 20.7803 11.4702C20.921 11.6108 21 11.8016 21 12.0005ZM3.75 6.75049H20.25C20.4489 6.75049 20.6397 6.67147 20.7803 6.53082C20.921 6.39017 21 6.1994 21 6.00049C21 5.80158 20.921 5.61081 20.7803 5.47016C20.6397 5.32951 20.4489 5.25049 20.25 5.25049H3.75C3.55109 5.25049 3.36032 5.32951 3.21967 5.47016C3.07902 5.61081 3 5.80158 3 6.00049C3 6.1994 3.07902 6.39017 3.21967 6.53082C3.36032 6.67147 3.55109 6.75049 3.75 6.75049ZM20.25 17.2505H3.75C3.55109 17.2505 3.36032 17.3295 3.21967 17.4702C3.07902 17.6108 3 17.8016 3 18.0005C3 18.1994 3.07902 18.3902 3.21967 18.5308C3.36032 18.6715 3.55109 18.7505 3.75 18.7505H20.25C20.4489 18.7505 20.6397 18.6715 20.7803 18.5308C20.921 18.3902 21 18.1994 21 18.0005C21 17.8016 20.921 17.6108 20.7803 17.4702C20.6397 17.3295 20.4489 17.2505 20.25 17.2505Z" fill="#1D1F21" style="fill: var(--ui-icon-primary-color);"/>
</svg>
