<svg  viewBox="0 0 24 24" fill="none" xmlns="http://www.w3.org/2000/svg" id="__THIS_ID_NEEDS_FOR_UI_ICON_COMPONENT__">
<path d="M19.4994 7.5H16.1244V4.875C16.1244 3.78098 15.6898 2.73177 14.9162 1.95818C14.1426 1.1846 13.0934 0.75 11.9994 0.75C10.9054 0.75 9.85616 1.1846 9.08257 1.95818C8.30899 2.73177 7.87439 3.78098 7.87439 4.875V7.5H4.49939C4.1017 7.50045 3.72044 7.65864 3.43923 7.93984C3.15803 8.22105 2.99984 8.60231 2.99939 9V19.5C2.99984 19.8977 3.15803 20.279 3.43923 20.5602C3.72044 20.8414 4.1017 20.9995 4.49939 21H19.4994C19.8971 20.9995 20.2783 20.8414 20.5595 20.5602C20.8408 20.279 20.9989 19.8977 20.9994 19.5V9C20.9989 8.60231 20.8408 8.22105 20.5595 7.93984C20.2783 7.65864 19.8971 7.50045 19.4994 7.5ZM9.37439 4.875C9.37439 4.17881 9.65095 3.51113 10.1432 3.01884C10.6355 2.52656 11.3032 2.25 11.9994 2.25C12.6956 2.25 13.3633 2.52656 13.8555 3.01884C14.3478 3.51113 14.6244 4.17881 14.6244 4.875V7.5H9.37439V4.875ZM19.4994 19.5H4.49939V9H19.4994L19.5004 19.5H19.4994Z" fill="#1D1F21" style="fill: var(--ui-icon-primary-color);"/>
</svg>
