<svg  viewBox="0 0 24 24" fill="none" xmlns="http://www.w3.org/2000/svg" id="__THIS_ID_NEEDS_FOR_UI_ICON_COMPONENT__">
<path d="M11.9995 10.5C11.3689 10.5 10.7595 10.7269 10.2825 11.1393C9.80555 11.5516 9.49298 12.1219 9.40194 12.7458C9.31091 13.3698 9.4475 14.0056 9.78675 14.5371C10.126 15.0685 10.6452 15.4601 11.2495 15.6403V17.25C11.2495 17.4489 11.3285 17.6397 11.4691 17.7803C11.6098 17.921 11.8005 18 11.9995 18C12.1984 18 12.3891 17.921 12.5298 17.7803C12.6704 17.6397 12.7495 17.4489 12.7495 17.25V15.6403C13.3537 15.4601 13.8729 15.0685 14.2122 14.5371C14.5514 14.0056 14.688 13.3698 14.597 12.7458C14.5059 12.1219 14.1933 11.5516 13.7164 11.1393C13.2394 10.7269 12.63 10.5 11.9995 10.5ZM11.9995 14.25C11.7769 14.25 11.5594 14.184 11.3744 14.0604C11.1894 13.9368 11.0452 13.7611 10.9601 13.5555C10.8749 13.35 10.8527 13.1238 10.8961 12.9055C10.9395 12.6873 11.0466 12.4868 11.204 12.3295C11.3613 12.1722 11.5617 12.065 11.78 12.0216C11.9982 11.9782 12.2244 12.0005 12.43 12.0856C12.6355 12.1708 12.8112 12.315 12.9349 12.5C13.0585 12.685 13.1245 12.9025 13.1245 13.125C13.1241 13.4233 13.0055 13.7092 12.7946 13.9201C12.5837 14.131 12.2977 14.2497 11.9995 14.25ZM19.4995 7.5H9.37445V4.875C9.37445 4.17881 9.65101 3.51113 10.1433 3.01884C10.6356 2.52656 11.3033 2.25 11.9995 2.25C12.6956 2.25 13.3633 2.52656 13.8556 3.01884C14.3479 3.51113 14.6245 4.17881 14.6245 4.875C14.6245 5.07391 14.7035 5.26468 14.8441 5.40533C14.9848 5.54598 15.1755 5.625 15.3745 5.625C15.5734 5.625 15.7641 5.54598 15.9048 5.40533C16.0454 5.26468 16.1245 5.07391 16.1245 4.875C16.1245 3.78098 15.6899 2.73177 14.9163 1.95818C14.1427 1.1846 13.0935 0.75 11.9995 0.75C10.9054 0.75 9.85622 1.1846 9.08263 1.95818C8.30905 2.73177 7.87445 3.78098 7.87445 4.875V7.5H4.49945C4.10177 7.50045 3.7205 7.65864 3.43929 7.93984C3.15809 8.22105 2.99991 8.60231 2.99945 9V19.5C2.99991 19.8977 3.15809 20.279 3.43929 20.5602C3.7205 20.8414 4.10177 20.9995 4.49945 21H19.4995C19.8971 20.9995 20.2784 20.8414 20.5596 20.5602C20.8408 20.279 20.999 19.8977 20.9995 19.5V9C20.999 8.60231 20.8408 8.22105 20.5596 7.93984C20.2784 7.65864 19.8971 7.50045 19.4995 7.5ZM19.4995 19.5H4.49945V9H19.4995L19.5004 19.5L19.4995 19.5Z" fill="#1D1F21" style="fill: var(--ui-icon-primary-color);"/>
</svg>
