<svg  viewBox="0 0 24 24" fill="none" xmlns="http://www.w3.org/2000/svg" id="__THIS_ID_NEEDS_FOR_UI_ICON_COMPONENT__">
<path d="M19.4995 7.5H16.1245V4.875C16.1245 3.78098 15.6899 2.73177 14.9163 1.95818C14.1427 1.1846 13.0935 0.75 11.9995 0.75C10.9054 0.75 9.85622 1.1846 9.08263 1.95818C8.30905 2.73177 7.87445 3.78098 7.87445 4.875V7.5H4.49945C4.10177 7.50045 3.7205 7.65864 3.43929 7.93984C3.15809 8.22105 2.99991 8.60231 2.99945 9V19.5C2.99991 19.8977 3.15809 20.279 3.43929 20.5602C3.7205 20.8414 4.10177 20.9995 4.49945 21H19.4995C19.8971 20.9995 20.2784 20.8414 20.5596 20.5602C20.8408 20.279 20.999 19.8977 20.9995 19.5V9C20.999 8.60231 20.8408 8.22105 20.5596 7.93984C20.2784 7.65864 19.8971 7.50045 19.4995 7.5ZM4.49945 12H19.4997L19.4999 13.5H4.49945V12ZM4.49945 15H19.5L19.5001 16.5H4.49945V15ZM9.37445 4.875C9.37445 4.17881 9.65101 3.51113 10.1433 3.01884C10.6356 2.52656 11.3033 2.25 11.9995 2.25C12.6956 2.25 13.3633 2.52656 13.8556 3.01884C14.3479 3.51113 14.6245 4.17881 14.6245 4.875V7.5H9.37445V4.875ZM19.4995 9L19.4996 10.5H4.49945V9H19.4995ZM19.4995 19.5H4.49945V18H19.5003L19.5004 19.5L19.4995 19.5Z" fill="#1D1F21" style="fill: var(--ui-icon-primary-color);"/>
</svg>
