<svg  viewBox="0 0 24 24" fill="none" xmlns="http://www.w3.org/2000/svg" id="__THIS_ID_NEEDS_FOR_UI_ICON_COMPONENT__">
<path d="M14.6248 10.8747C14.6248 11.0736 14.5458 11.2643 14.4051 11.405C14.2645 11.5456 14.0737 11.6246 13.8748 11.6247H11.6248V13.8746C11.6248 14.0736 11.5458 14.2643 11.4052 14.405C11.2645 14.5456 11.0737 14.6246 10.8748 14.6246C10.6759 14.6246 10.4851 14.5456 10.3445 14.405C10.2038 14.2643 10.1248 14.0736 10.1248 13.8746V11.6247H7.87484C7.67592 11.6247 7.48516 11.5456 7.34451 11.405C7.20386 11.2643 7.12484 11.0736 7.12484 10.8747C7.12484 10.6757 7.20386 10.485 7.34451 10.3443C7.48516 10.2037 7.67592 10.1247 7.87484 10.1247H10.1248V7.87466C10.1248 7.67575 10.2038 7.48499 10.3445 7.34434C10.4851 7.20369 10.6759 7.12467 10.8748 7.12467C11.0737 7.12467 11.2645 7.20369 11.4052 7.34434C11.5458 7.48499 11.6248 7.67575 11.6248 7.87466V10.1247H13.8748C14.0737 10.1247 14.2645 10.2037 14.4051 10.3443C14.5458 10.485 14.6248 10.6757 14.6248 10.8747ZM21.5296 21.5297C21.3889 21.6703 21.1982 21.7493 20.9992 21.7493C20.8003 21.7493 20.6095 21.6703 20.4689 21.5297L16.4167 17.4775C14.7124 18.9084 12.5215 19.6261 10.3009 19.4809C8.08033 19.3358 6.00149 18.339 4.4979 16.6985C2.99432 15.058 2.18208 12.9003 2.23057 10.6755C2.27905 8.45073 3.18451 6.33052 4.75814 4.75705C6.33176 3.18359 8.45205 2.27833 10.6769 2.23006C12.9017 2.18179 15.0592 2.99424 16.6996 4.49798C18.34 6.00172 19.3365 8.08066 19.4815 10.3013C19.6264 12.5219 18.9085 14.7127 17.4775 16.4169L21.5296 20.469C21.6702 20.6097 21.7493 20.8004 21.7493 20.9993C21.7493 21.1982 21.6702 21.389 21.5296 21.5297ZM10.8748 17.9993C12.284 17.9993 13.6616 17.5814 14.8332 16.7985C16.0049 16.0156 16.9182 14.9028 17.4574 13.6009C17.9967 12.299 18.1378 10.8664 17.8629 9.48427C17.588 8.10216 16.9094 6.83262 15.9129 5.83617C14.9165 4.83973 13.6469 4.16114 12.2648 3.88622C10.8827 3.6113 9.45013 3.7524 8.14822 4.29167C6.8463 4.83094 5.73353 5.74417 4.95063 6.91586C4.16772 8.08756 3.74985 9.4651 3.74985 10.8743C3.75199 12.7633 4.50334 14.5743 5.83907 15.91C7.1748 17.2458 8.98582 17.9971 10.8748 17.9993Z" fill="#1D1F21" style="fill: var(--ui-icon-primary-color);"/>
</svg>
