<svg  viewBox="0 0 24 24" fill="none" xmlns="http://www.w3.org/2000/svg" id="__THIS_ID_NEEDS_FOR_UI_ICON_COMPONENT__">
<path d="M21.5299 20.4692L17.4777 16.417C18.9087 14.7129 19.6266 12.5221 19.4817 10.3015C19.3367 8.08098 18.3402 6.0021 16.6998 4.4984C15.0595 2.9947 12.902 2.18228 10.6772 2.23055C8.45249 2.27882 6.33225 3.18406 4.75867 4.75749C3.18509 6.33092 2.27966 8.45108 2.23118 10.6758C2.1827 12.9006 2.99492 15.0581 4.49846 16.6986C6.00201 18.3391 8.0808 19.3359 10.3013 19.481C12.5219 19.6261 14.7127 18.9085 16.417 17.4777L20.4691 21.5298C20.6098 21.6704 20.8006 21.7495 20.9995 21.7495C21.1984 21.7495 21.3892 21.6705 21.5298 21.5298C21.6705 21.3892 21.7495 21.1984 21.7495 20.9995C21.7495 20.8006 21.6705 20.6098 21.5299 20.4692ZM3.75012 10.8744C3.75012 9.46523 4.16799 8.08769 4.95089 6.91599C5.7338 5.7443 6.84657 4.83107 8.14848 4.2918C9.4504 3.75252 10.883 3.61143 12.2651 3.88635C13.6472 4.16126 14.9168 4.83985 15.9132 5.8363C16.9097 6.83274 17.5882 8.10229 17.8632 9.4844C18.1381 10.8665 17.997 12.2991 17.4577 13.601C16.9184 14.9029 16.0052 16.0157 14.8335 16.7986C13.6618 17.5815 12.2843 17.9994 10.8751 17.9994C8.98609 17.9972 7.17507 17.2459 5.83934 15.9102C4.50361 14.5744 3.75226 12.7634 3.75012 10.8744Z" fill="#1D1F21" style="fill: var(--ui-icon-primary-color);"/>
</svg>
