<svg  viewBox="0 0 24 24" fill="none" xmlns="http://www.w3.org/2000/svg" id="__THIS_ID_NEEDS_FOR_UI_ICON_COMPONENT__">
<path d="M21.4615 4.65823C21.3717 4.58809 21.267 4.53935 21.1555 4.5157C21.044 4.49206 20.9286 4.49413 20.8181 4.52177L15.0872 5.95448L9.33542 3.07856C9.33376 3.07773 9.332 3.07723 9.33034 3.07643C9.30416 3.06353 9.27724 3.05217 9.24972 3.04242C9.24482 3.04068 9.23983 3.03944 9.23491 3.03781C9.21205 3.03024 9.18883 3.02378 9.16524 3.01845C9.15748 3.01669 9.14975 3.01513 9.14196 3.01362C9.11965 3.00932 9.09709 3.00605 9.07431 3.00383C9.06775 3.00316 9.06125 3.0022 9.05469 3.00172C9.02537 2.99946 8.99594 2.99894 8.96657 3.00014L8.96444 3.00035C8.93665 3.0018 8.90896 3.00479 8.8815 3.00932C8.87213 3.01083 8.86291 3.01294 8.85359 3.01479C8.84174 3.01715 8.82991 3.01882 8.81806 3.02177L2.81806 4.52177C2.65579 4.56234 2.51174 4.65598 2.40881 4.78782C2.30587 4.91966 2.24996 5.08212 2.24997 5.24939V18.7494C2.24998 18.8634 2.27596 18.9758 2.32594 19.0783C2.37592 19.1807 2.44859 19.2704 2.53843 19.3405C2.62826 19.4107 2.7329 19.4594 2.8444 19.4831C2.95589 19.5067 3.07131 19.5046 3.18188 19.477L8.91272 18.0443L14.6645 20.9202C14.6679 20.9219 14.6715 20.923 14.6749 20.9247C14.6953 20.9345 14.716 20.9433 14.7371 20.9513C14.741 20.9528 14.7449 20.9545 14.7488 20.9559C14.7739 20.9648 14.7994 20.9724 14.8252 20.9785C14.8292 20.9795 14.8333 20.9802 14.8373 20.9811C14.8598 20.9861 14.8826 20.9901 14.9056 20.993C14.9104 20.9936 14.9151 20.9943 14.9199 20.9948C14.9789 21.0018 15.0385 21.0011 15.0973 20.9927C15.1078 20.9913 15.1181 20.9887 15.1285 20.9869C15.1463 20.9838 15.1641 20.9814 15.1819 20.977L21.1819 19.477C21.3442 19.4364 21.4882 19.3428 21.5911 19.2109C21.6941 19.0791 21.75 18.9166 21.75 18.7494V5.24939C21.75 5.1354 21.724 5.02292 21.674 4.92049C21.624 4.81805 21.5513 4.72836 21.4615 4.65823ZM3.74997 5.83496L8.24997 4.70998V16.6638L3.74997 17.7888V5.83496ZM14.25 19.0359L9.74997 16.7859V4.96292L14.25 7.21292V19.0359ZM20.25 18.1638L15.75 19.2888V7.33498L20.25 6.20996V18.1638Z" fill="#1D1F21" style="fill: var(--ui-icon-primary-color);"/>
</svg>
