<svg  viewBox="0 0 24 24" fill="none" xmlns="http://www.w3.org/2000/svg" id="__THIS_ID_NEEDS_FOR_UI_ICON_COMPONENT__">
<path d="M18.7502 21H14.1133C14.8934 20.3046 15.6292 19.5609 16.3162 18.7734C18.8898 15.8136 20.2502 12.6934 20.2502 9.75C20.2502 7.56196 19.381 5.46354 17.8338 3.91637C16.2866 2.36919 14.1882 1.5 12.0002 1.5C9.81215 1.5 7.71373 2.36919 6.16655 3.91637C4.61938 5.46354 3.75018 7.56196 3.75018 9.75C3.75018 12.6934 5.11057 15.8136 7.6842 18.7734C8.3712 19.5609 9.10693 20.3046 9.88707 21H5.25018C5.05127 21 4.86051 21.079 4.71985 21.2197C4.5792 21.3603 4.50018 21.5511 4.50018 21.75C4.50018 21.9489 4.5792 22.1397 4.71985 22.2803C4.86051 22.421 5.05127 22.5 5.25018 22.5H18.7502C18.9491 22.5 19.1399 22.421 19.2805 22.2803C19.4212 22.1397 19.5002 21.9489 19.5002 21.75C19.5002 21.5511 19.4212 21.3603 19.2805 21.2197C19.1399 21.079 18.9491 21 18.7502 21ZM5.25018 9.75C5.25018 7.95979 5.96134 6.2429 7.22721 4.97703C8.49308 3.71116 10.21 3 12.0002 3C13.7904 3 15.5073 3.71116 16.7732 4.97703C18.039 6.2429 18.7502 7.95979 18.7502 9.75C18.7502 15.1156 13.5499 19.5951 12.0002 20.8106C10.4502 19.5949 5.25018 15.1156 5.25018 9.75ZM15.7502 9.75C15.7502 9.00832 15.5302 8.2833 15.1182 7.66661C14.7061 7.04993 14.1205 6.56928 13.4352 6.28545C12.75 6.00162 11.996 5.92736 11.2686 6.07205C10.5412 6.21675 9.87298 6.5739 9.34853 7.09835C8.82409 7.6228 8.46693 8.29098 8.32224 9.01841C8.17754 9.74584 8.25181 10.4998 8.53563 11.1851C8.81946 11.8703 9.30011 12.456 9.91679 12.868C10.5335 13.2801 11.2585 13.5 12.0002 13.5C12.9944 13.4989 13.9476 13.1034 14.6506 12.4004C15.3536 11.6974 15.7491 10.7442 15.7502 9.75ZM9.75018 9.75C9.75018 9.30499 9.88214 8.86998 10.1294 8.49997C10.3766 8.12996 10.728 7.84157 11.1391 7.67127C11.5503 7.50097 12.0027 7.45642 12.4391 7.54323C12.8756 7.63005 13.2765 7.84434 13.5912 8.15901C13.9058 8.47368 14.1201 8.87459 14.2069 9.31105C14.2938 9.7475 14.2492 10.1999 14.0789 10.611C13.9086 11.0222 13.6202 11.3736 13.2502 11.6208C12.8802 11.868 12.4452 12 12.0002 12C11.4037 11.9993 10.8318 11.762 10.4099 11.3402C9.98814 10.9184 9.75087 10.3465 9.75018 9.75Z" fill="#1D1F21" style="fill: var(--ui-icon-primary-color);"/>
</svg>
