<svg  viewBox="0 0 24 24" fill="none" xmlns="http://www.w3.org/2000/svg" id="__THIS_ID_NEEDS_FOR_UI_ICON_COMPONENT__">
<path d="M22.2803 4.28032C22.3852 4.17543 22.4566 4.0418 22.4856 3.89631C22.5145 3.75083 22.4997 3.60002 22.4429 3.46298C22.3861 3.32593 22.29 3.2088 22.1667 3.12639C22.0433 3.04398 21.8983 3 21.75 3H2.24997C2.10164 3 1.95663 3.04398 1.83329 3.12639C1.70995 3.2088 1.61382 3.32593 1.55706 3.46298C1.50029 3.60002 1.48544 3.75083 1.51438 3.89631C1.54333 4.0418 1.61476 4.17543 1.71965 4.28032L11.25 13.8106V19.5H8.24997C8.05106 19.5 7.8603 19.579 7.71964 19.7197C7.57899 19.8603 7.49997 20.0511 7.49997 20.25C7.49997 20.4489 7.57899 20.6397 7.71964 20.7803C7.8603 20.921 8.05106 21 8.24997 21H15.75C15.9489 21 16.1397 20.921 16.2803 20.7803C16.421 20.6397 16.5 20.4489 16.5 20.25C16.5 20.0511 16.421 19.8603 16.2803 19.7197C16.1397 19.579 15.9489 19.5 15.75 19.5H12.75V13.8106L22.2803 4.28032ZM7.06061 7.5H16.9393L12 12.4394L7.06061 7.5ZM19.9393 4.5L18.4393 6H5.56061L4.06061 4.5H19.9393Z" fill="#1D1F21" style="fill: var(--ui-icon-primary-color);"/>
</svg>
