<svg  viewBox="0 0 24 24" fill="none" xmlns="http://www.w3.org/2000/svg" id="__THIS_ID_NEEDS_FOR_UI_ICON_COMPONENT__">
<path d="M20.2495 8.99929C20.2502 7.60896 19.8996 6.24098 19.2302 5.02241C18.5608 3.80385 17.5943 2.77423 16.4204 2.02918C15.2466 1.28414 13.9035 0.847838 12.5159 0.760809C11.1283 0.673781 9.74117 0.938846 8.48343 1.53138C7.22568 2.12392 6.13809 3.02471 5.32166 4.15009C4.50524 5.27546 3.98646 6.58892 3.81352 7.96845C3.64059 9.34798 3.8191 10.7488 4.33247 12.0409C4.84585 13.333 5.67744 14.4744 6.75 15.359V22.4993C6.74999 22.6271 6.78266 22.7529 6.84491 22.8645C6.90717 22.9762 6.99694 23.0701 7.1057 23.1373C7.21446 23.2045 7.33859 23.2428 7.46631 23.2486C7.59404 23.2543 7.72111 23.2273 7.83545 23.1701L11.9994 21.0878L16.1646 23.1701C16.279 23.2273 16.406 23.2543 16.5338 23.2485C16.6615 23.2428 16.7856 23.2045 16.8943 23.1373C17.0031 23.0701 17.0928 22.9762 17.1551 22.8645C17.2173 22.7528 17.25 22.6271 17.25 22.4993V15.3581C18.1882 14.5852 18.9437 13.6142 19.4623 12.5148C19.9808 11.4154 20.2497 10.2149 20.2495 8.99929ZM5.24945 8.99929C5.24945 7.66426 5.64533 6.35922 6.38703 5.24919C7.12873 4.13916 8.18294 3.27399 9.41634 2.7631C10.6497 2.25221 12.0069 2.11854 13.3163 2.37899C14.6257 2.63944 15.8284 3.28231 16.7724 4.22632C17.7164 5.17032 18.3593 6.37306 18.6198 7.68243C18.8802 8.9918 18.7465 10.349 18.2356 11.5824C17.7247 12.8158 16.8596 13.87 15.7496 14.6117C14.6395 15.3534 13.3345 15.7493 11.9995 15.7493C10.2099 15.7473 8.49414 15.0355 7.22871 13.77C5.96327 12.5046 5.25147 10.7889 5.24945 8.99929ZM15.75 21.2858L12.3346 19.5784C12.2305 19.5264 12.1156 19.4993 11.9992 19.4993C11.8828 19.4993 11.768 19.5264 11.6638 19.5785L8.25 21.2857V16.3469C9.41105 16.9401 10.6963 17.2494 12.0001 17.2493C13.3039 17.2492 14.589 16.9398 15.75 16.3464V21.2858ZM11.9995 14.2493C13.0378 14.2493 14.0528 13.9414 14.9162 13.3645C15.7796 12.7876 16.4525 11.9677 16.8498 11.0084C17.2472 10.0491 17.3511 8.99346 17.1486 7.97506C16.946 6.95666 16.446 6.0212 15.7118 5.28698C14.9775 4.55275 14.0421 4.05274 13.0237 3.85016C12.0053 3.64759 10.9497 3.75156 9.99036 4.14892C9.03105 4.54628 8.21111 5.21919 7.63424 6.08254C7.05736 6.9459 6.74945 7.96094 6.74945 8.99929C6.75102 10.3912 7.30465 11.7256 8.28887 12.7099C9.2731 13.6941 10.6075 14.2477 11.9995 14.2493ZM11.9995 5.24929C12.7411 5.24929 13.4662 5.46922 14.0828 5.88128C14.6995 6.29333 15.1802 6.879 15.464 7.56422C15.7478 8.24945 15.8221 9.00345 15.6774 9.73088C15.5327 10.4583 15.1756 11.1265 14.6511 11.6509C14.1267 12.1754 13.4585 12.5325 12.731 12.6772C12.0036 12.8219 11.2496 12.7477 10.5644 12.4638C9.87917 12.18 9.2935 11.6994 8.88144 11.0827C8.46939 10.466 8.24945 9.74097 8.24945 8.99929C8.25058 8.00507 8.64603 7.0519 9.34905 6.34888C10.0521 5.64587 11.0052 5.25042 11.9995 5.24929Z" fill="#1D1F21" style="fill: var(--ui-icon-primary-color);"/>
</svg>
