<svg  viewBox="0 0 24 24" fill="none" xmlns="http://www.w3.org/2000/svg" id="__THIS_ID_NEEDS_FOR_UI_ICON_COMPONENT__">
<path d="M22.5 11.2503C22.4986 10.0572 22.0241 8.91343 21.1804 8.06982C20.3368 7.2262 19.193 6.75165 18 6.75029H14.2515C14.2029 6.75011 9.34091 6.68565 4.71475 2.80565C4.49612 2.62195 4.22959 2.50448 3.9465 2.46705C3.66341 2.42961 3.37551 2.47377 3.11664 2.59432C2.85778 2.71488 2.63871 2.90683 2.48519 3.1476C2.33166 3.38838 2.25006 3.66798 2.24997 3.95354V18.547C2.24822 18.8327 2.32892 19.1129 2.4824 19.3538C2.63587 19.5948 2.8556 19.7864 3.11523 19.9056C3.31491 19.9994 3.53274 20.0482 3.75335 20.0486C4.10547 20.0479 4.44599 19.9226 4.71465 19.695C8.26566 16.7167 11.9553 15.9866 13.5 15.808V19.0989C13.4997 19.3459 13.5606 19.5891 13.6771 19.8069C13.7937 20.0247 13.9623 20.2102 14.1679 20.347L15.1985 21.034C15.3985 21.1673 15.6276 21.2506 15.8665 21.2769C16.1054 21.3031 16.3471 21.2716 16.5713 21.1849C16.7955 21.0983 16.9956 20.959 17.1547 20.7788C17.3138 20.5987 17.4273 20.3829 17.4856 20.1498L18.5957 15.7096C19.6757 15.5641 20.6663 15.0322 21.3842 14.2123C22.1021 13.3923 22.4985 12.3401 22.5 11.2503ZM3.74997 18.5403L3.75033 3.95482L3.7507 3.95491H3.75079C7.7527 7.31133 11.8495 8.04521 13.5 8.20548V14.2951C11.85 14.4553 7.75453 15.1884 3.74997 18.5403ZM16.0305 19.7859L15 19.0989V15.7503H17.0394L16.0305 19.7859ZM18 14.2503H15V8.25029H18C18.7956 8.25029 19.5587 8.56636 20.1213 9.12897C20.6839 9.69158 21 10.4546 21 11.2503C21 12.0459 20.6839 12.809 20.1213 13.3716C19.5587 13.9342 18.7956 14.2503 18 14.2503Z" fill="#1D1F21" style="fill: var(--ui-icon-primary-color);"/>
</svg>
