<svg  viewBox="0 0 24 24" fill="none" xmlns="http://www.w3.org/2000/svg" id="__THIS_ID_NEEDS_FOR_UI_ICON_COMPONENT__">
<path d="M20.0549 19.7455L5.05487 3.24545C4.98861 3.17257 4.90864 3.11345 4.81954 3.07147C4.73043 3.02949 4.63393 3.00548 4.53554 3.00079C4.43716 2.99611 4.33881 3.01085 4.24612 3.04417C4.15343 3.0775 4.06821 3.12875 3.99533 3.19501C3.92244 3.26127 3.86332 3.34123 3.82135 3.43034C3.77937 3.51944 3.75535 3.61594 3.75067 3.71433C3.74598 3.81272 3.76072 3.91107 3.79405 4.00376C3.82737 4.09645 3.87862 4.18167 3.94488 4.25455L7.49987 8.16504V12C7.49971 12.8078 7.71702 13.6007 8.12899 14.2955C8.54097 14.9903 9.13241 15.5614 9.84122 15.9488C10.55 16.3362 11.3501 16.5256 12.1573 16.4972C12.9646 16.4688 13.7493 16.2235 14.4291 15.7872L15.4487 16.9087C14.5964 17.5078 13.6028 17.8746 12.5657 17.9731C11.5286 18.0716 10.4838 17.8983 9.53398 17.4704C8.58419 17.0424 7.76221 16.3745 7.14895 15.5323C6.53569 14.6902 6.15229 13.7029 6.03649 12.6676C6.01456 12.47 5.91503 12.2891 5.75981 12.1649C5.60458 12.0406 5.40635 11.9831 5.20871 12.0049C5.01107 12.0268 4.8302 12.1262 4.70586 12.2814C4.58152 12.4365 4.52389 12.6347 4.54565 12.8324C4.73341 14.5387 5.502 16.1286 6.72258 17.3357C7.94317 18.5427 9.54157 19.2935 11.2499 19.4622V21.75C11.2499 21.9489 11.3289 22.1397 11.4695 22.2803C11.6102 22.421 11.801 22.5 11.9999 22.5C12.1988 22.5 12.3896 22.421 12.5302 22.2803C12.6709 22.1397 12.7499 21.9489 12.7499 21.75V19.4616C14.0951 19.3278 15.3788 18.8316 16.4643 18.0259L18.9449 20.7545C19.0787 20.9017 19.2655 20.9897 19.4642 20.9992C19.6629 21.0087 19.8572 20.9388 20.0044 20.805C20.1516 20.6712 20.2396 20.4844 20.2491 20.2857C20.2585 20.087 20.1887 19.8926 20.0549 19.7455H20.0549ZM11.9999 15C11.2045 14.9991 10.442 14.6827 9.87956 14.1203C9.31715 13.5579 9.00078 12.7954 8.99987 12V9.81504L13.3986 14.6536C12.9675 14.8812 12.4874 15.0001 11.9999 15ZM8.17068 3.63519C8.6853 2.80214 9.45759 2.15965 10.3704 1.8052C11.2832 1.45075 12.2867 1.40367 13.2286 1.67111C14.1706 1.93855 14.9996 2.50592 15.59 3.28714C16.1803 4.06836 16.4998 5.02081 16.4999 6V11.6652C16.4999 11.8641 16.4209 12.0549 16.2802 12.1955C16.1396 12.3362 15.9488 12.4152 15.7499 12.4152C15.551 12.4152 15.3602 12.3362 15.2195 12.1955C15.0789 12.0549 14.9999 11.8641 14.9999 11.6652V6C14.9998 5.34711 14.7867 4.71205 14.3931 4.1912C13.9994 3.67035 13.4465 3.29213 12.8184 3.11393C12.1903 2.93572 11.5212 2.96726 10.9127 3.20376C10.3041 3.44026 9.78932 3.8688 9.44638 4.42438C9.34172 4.59355 9.17416 4.71421 8.98054 4.75983C8.78691 4.80545 8.5831 4.77229 8.41393 4.66763C8.24477 4.56298 8.1241 4.39541 8.07848 4.20179C8.03286 4.00817 8.06603 3.80436 8.17068 3.63519V3.63519ZM17.5901 14.1844C17.7804 13.6974 17.9058 13.1874 17.9633 12.6676C17.9851 12.4699 18.0846 12.289 18.2398 12.1646C18.3951 12.0403 18.5934 11.9827 18.7911 12.0046C18.9888 12.0264 19.1697 12.1259 19.294 12.2812C19.4184 12.4364 19.476 12.6347 19.4541 12.8324C19.3823 13.483 19.2253 14.1212 18.987 14.7308C18.9511 14.8226 18.8975 14.9063 18.8293 14.9773C18.761 15.0483 18.6795 15.1052 18.5892 15.1447C18.499 15.1842 18.4019 15.2055 18.3034 15.2075C18.205 15.2094 18.1071 15.192 18.0153 15.1561C17.9236 15.1202 17.8399 15.0666 17.7689 14.9984C17.6978 14.9301 17.641 14.8486 17.6015 14.7583C17.5217 14.5761 17.5176 14.3697 17.5901 14.1844Z" fill="#1D1F21" style="fill: var(--ui-icon-primary-color);"/>
</svg>
