<svg  viewBox="0 0 24 24" fill="none" xmlns="http://www.w3.org/2000/svg" id="__THIS_ID_NEEDS_FOR_UI_ICON_COMPONENT__">
<path d="M21.75 5.25H2.25C1.85231 5.25045 1.47105 5.40864 1.18984 5.68984C0.908636 5.97105 0.750455 6.35231 0.75 6.75V17.25C0.750455 17.6477 0.908636 18.029 1.18984 18.3102C1.47105 18.5914 1.85231 18.7495 2.25 18.75H21.75C22.1477 18.7495 22.529 18.5914 22.8102 18.3102C23.0914 18.029 23.2495 17.6477 23.25 17.25V6.75C23.2495 6.35231 23.0914 5.97105 22.8102 5.68984C22.529 5.40864 22.1477 5.25045 21.75 5.25ZM7.78175 17.25L2.25 12.4097V11.5903L7.78175 6.75H16.2182L21.7504 11.5906L21.7505 12.4093L16.2182 17.25H7.78175ZM21.7502 9.59744L18.496 6.75H21.75L21.7502 9.59744ZM5.50397 6.75L2.25 9.59722V6.75H5.50397ZM2.25 14.4028L5.50397 17.25H2.25V14.4028ZM21.75 17.25H18.496L21.7507 14.4022L21.7509 17.25H21.75ZM12 8.25C11.2583 8.25 10.5333 8.46993 9.91661 8.88199C9.29993 9.29404 8.81928 9.87971 8.53545 10.5649C8.25162 11.2502 8.17736 12.0042 8.32205 12.7316C8.46675 13.459 8.8239 14.1272 9.34835 14.6517C9.8728 15.1761 10.541 15.5333 11.2684 15.6779C11.9958 15.8226 12.7498 15.7484 13.4351 15.4645C14.1203 15.1807 14.706 14.7001 15.118 14.0834C15.5301 13.4667 15.75 12.7417 15.75 12C15.7489 11.0058 15.3534 10.0526 14.6504 9.34961C13.9474 8.64659 12.9942 8.25114 12 8.25ZM12 14.25C11.555 14.25 11.12 14.118 10.75 13.8708C10.38 13.6236 10.0916 13.2722 9.92127 12.861C9.75097 12.4499 9.70642 11.9975 9.79323 11.561C9.88005 11.1246 10.0943 10.7237 10.409 10.409C10.7237 10.0943 11.1246 9.88005 11.561 9.79323C11.9975 9.70642 12.4499 9.75097 12.861 9.92127C13.2722 10.0916 13.6236 10.38 13.8708 10.75C14.118 11.12 14.25 11.555 14.25 12C14.2493 12.5965 14.012 13.1684 13.5902 13.5902C13.1684 14.012 12.5965 14.2493 12 14.25Z" fill="#1D1F21" style="fill: var(--ui-icon-primary-color);"/>
</svg>
