<svg  viewBox="0 0 24 24" fill="none" xmlns="http://www.w3.org/2000/svg" id="__THIS_ID_NEEDS_FOR_UI_ICON_COMPONENT__">
<path d="M19.5 3.64795H4.5C3.90347 3.64863 3.33157 3.8859 2.90976 4.30771C2.48795 4.72952 2.25068 5.30142 2.25 5.89795V16.3979C2.25068 16.9945 2.48795 17.5664 2.90976 17.9882C3.33157 18.41 3.90347 18.6473 4.5 18.6479H19.5C20.0965 18.6473 20.6684 18.41 21.0902 17.9882C21.512 17.5664 21.7493 16.9945 21.75 16.3979V5.89795C21.7493 5.30142 21.512 4.72952 21.0902 4.30771C20.6684 3.8859 20.0965 3.64863 19.5 3.64795ZM20.25 16.3979C20.2498 16.5968 20.1707 16.7874 20.0301 16.928C19.8895 17.0686 19.6988 17.1477 19.5 17.1479H4.5C4.30116 17.1477 4.11052 17.0686 3.96992 16.928C3.82932 16.7874 3.75023 16.5968 3.75 16.3979V5.89795C3.75023 5.69911 3.82932 5.50847 3.96992 5.36787C4.11052 5.22727 4.30116 5.14818 4.5 5.14795H19.5C19.6988 5.14818 19.8895 5.22727 20.0301 5.36787C20.1707 5.50847 20.2498 5.69911 20.25 5.89795V16.3979ZM15.75 20.8979C15.75 21.0969 15.671 21.2876 15.5303 21.4283C15.3897 21.5689 15.1989 21.6479 15 21.6479H9C8.80109 21.6479 8.61032 21.5689 8.46967 21.4283C8.32902 21.2876 8.25 21.0969 8.25 20.8979C8.25 20.699 8.32902 20.5083 8.46967 20.3676C8.61032 20.227 8.80109 20.1479 9 20.1479H15C15.1989 20.148 15.3897 20.227 15.5303 20.3676C15.671 20.5083 15.75 20.699 15.75 20.8979Z" fill="#1D1F21" style="fill: var(--ui-icon-primary-color);"/>
</svg>
