<svg  viewBox="0 0 24 24" fill="none" xmlns="http://www.w3.org/2000/svg" id="__THIS_ID_NEEDS_FOR_UI_ICON_COMPONENT__">
<path d="M21.3023 13.4911C21.2125 13.4013 21.1013 13.3357 20.9792 13.3006C20.8571 13.2655 20.7281 13.262 20.6042 13.2904C19.2409 13.6031 17.8205 13.5643 16.4762 13.1778C15.132 12.7912 13.9079 12.0696 12.9189 11.0805C11.9298 10.0915 11.2082 8.86744 10.8217 7.52319C10.4352 6.17893 10.3964 4.75853 10.709 3.39519C10.7374 3.27136 10.7339 3.14235 10.6988 3.02025C10.6637 2.89815 10.5981 2.78697 10.5083 2.69715C10.4184 2.60732 10.3073 2.54179 10.1851 2.50671C10.063 2.47162 9.93402 2.46813 9.8102 2.49656C8.11415 2.88781 6.55374 3.72593 5.291 4.92391C4.02826 6.12189 3.10921 7.63605 2.6293 9.30918C2.14938 10.9823 2.12608 12.7534 2.56182 14.4386C2.99756 16.1237 3.87646 17.6616 5.10725 18.8923C6.33804 20.1231 7.87586 21.002 9.56103 21.4377C11.2462 21.8735 13.0173 21.8502 14.6904 21.3702C16.3636 20.8903 17.8777 19.9712 19.0757 18.7085C20.2736 17.4457 21.1118 15.8853 21.503 14.1893C21.5314 14.0654 21.5279 13.9364 21.4928 13.8143C21.4577 13.6922 21.3922 13.581 21.3023 13.4911ZM17.1744 18.4255C15.7119 19.6126 13.8837 20.2571 12.0001 20.2495C9.81282 20.247 7.71583 19.377 6.16919 17.8304C4.62255 16.2837 3.75257 14.1867 3.7501 11.9995C3.74247 10.1158 4.38694 8.28759 5.5741 6.82513C6.48956 5.69171 7.68708 4.81905 9.04642 4.29475C9.01561 4.61147 9.0001 4.9303 9.0001 5.24946C9.00302 7.83442 10.0312 10.3127 11.859 12.1405C13.6869 13.9684 16.1651 14.9965 18.7501 14.9995C19.0693 14.9995 19.3875 14.984 19.7049 14.9531C19.1805 16.3125 18.3079 17.51 17.1744 18.4255Z" fill="#1D1F21" style="fill: var(--ui-icon-primary-color);"/>
</svg>
