<svg  viewBox="0 0 24 24" fill="none" xmlns="http://www.w3.org/2000/svg" id="__THIS_ID_NEEDS_FOR_UI_ICON_COMPONENT__">
<path d="M19.7157 5.28163L12.2157 3.03163C12.1037 2.99804 11.9854 2.99108 11.8702 3.01134C11.7551 3.03159 11.6463 3.07848 11.5525 3.14828C11.4587 3.21807 11.3825 3.30883 11.33 3.4133C11.2775 3.51778 11.2502 3.63308 11.2502 3.75V8.23316C11.2499 8.2446 11.2499 8.25603 11.2502 8.26744V13.8995C10.4824 13.2131 9.50233 12.811 8.47374 12.7604C7.44514 12.7098 6.43033 13.0137 5.59887 13.6214C4.76742 14.229 4.16969 15.1036 3.90556 16.099C3.64144 17.0944 3.72692 18.1503 4.14773 19.0902C4.56853 20.0302 5.29917 20.7972 6.21755 21.2632C7.13593 21.7292 8.18641 21.8659 9.19347 21.6505C10.2005 21.4351 11.1031 20.8806 11.7505 20.0796C12.3979 19.2787 12.7507 18.2798 12.7502 17.25V9.258L19.2847 11.2184C19.3966 11.252 19.5149 11.2589 19.6301 11.2387C19.7452 11.2184 19.8541 11.1715 19.9479 11.1017C20.0417 11.0319 20.1179 10.9412 20.1703 10.8367C20.2228 10.7322 20.2502 10.6169 20.2502 10.5V6C20.2502 5.83871 20.1982 5.68171 20.1019 5.5523C20.0056 5.4229 19.8702 5.32798 19.7157 5.28163ZM8.25017 20.25C7.65682 20.25 7.0768 20.0741 6.58346 19.7444C6.09011 19.4148 5.70559 18.9462 5.47853 18.3981C5.25146 17.8499 5.19205 17.2467 5.30781 16.6647C5.42357 16.0828 5.70929 15.5482 6.12885 15.1287C6.5484 14.7091 7.08295 14.4234 7.6649 14.3076C8.24684 14.1919 8.85004 14.2513 9.39822 14.4784C9.94639 14.7054 10.4149 15.0899 10.7446 15.5833C11.0742 16.0766 11.2502 16.6567 11.2502 17.25C11.2493 18.0454 10.9329 18.8079 10.3705 19.3703C9.80807 19.9327 9.04554 20.2491 8.25017 20.25ZM18.7502 9.49201L12.7502 7.69199V4.758L18.7502 6.55802V9.49201Z" fill="#1D1F21" style="fill: var(--ui-icon-primary-color);"/>
</svg>
