<svg  viewBox="0 0 24 24" fill="none" xmlns="http://www.w3.org/2000/svg" id="__THIS_ID_NEEDS_FOR_UI_ICON_COMPONENT__">
<path d="M19.9614 2.40886C19.8715 2.33871 19.7669 2.28996 19.6554 2.26632C19.5439 2.24267 19.4285 2.24475 19.3179 2.2724L7.31793 5.2724C7.15566 5.31296 7.01161 5.40661 6.90868 5.53845C6.80575 5.67029 6.74984 5.83275 6.74985 6.00001V16.3203C6.12434 15.9026 5.37716 15.7058 4.62701 15.7613C3.87686 15.8167 3.16676 16.1213 2.60952 16.6266C2.05228 17.1318 1.67987 17.8088 1.55144 18.55C1.42301 19.2911 1.54593 20.0539 1.90068 20.7172C2.25542 21.3805 2.82164 21.9063 3.50939 22.2109C4.19714 22.5156 4.96697 22.5816 5.69657 22.3987C6.42618 22.2157 7.07373 21.7942 7.53633 21.201C7.99894 20.6079 8.25008 19.8772 8.24985 19.125V11.0856L18.7498 8.46058V13.3203C18.1243 12.9026 17.3772 12.7058 16.627 12.7613C15.8769 12.8167 15.1668 13.1213 14.6095 13.6266C14.0523 14.1318 13.6799 14.8088 13.5514 15.55C13.423 16.2911 13.5459 17.0539 13.9007 17.7172C14.2554 18.3805 14.8216 18.9063 15.5094 19.2109C16.1971 19.5156 16.967 19.5816 17.6966 19.3987C18.4262 19.2157 19.0737 18.7942 19.5363 18.201C19.9989 17.6079 20.2501 16.8772 20.2498 16.125V3.00001C20.2499 2.88603 20.2239 2.77355 20.1739 2.67112C20.1239 2.56868 20.0512 2.47899 19.9614 2.40886ZM4.87485 21C4.50401 21 4.1415 20.89 3.83315 20.684C3.52481 20.478 3.28449 20.1852 3.14257 19.8425C3.00066 19.4999 2.96353 19.1229 3.03588 18.7592C3.10822 18.3955 3.2868 18.0614 3.54902 17.7992C3.81125 17.537 4.14534 17.3584 4.50906 17.286C4.87277 17.2137 5.24977 17.2508 5.59238 17.3927C5.93499 17.5347 6.22783 17.775 6.43386 18.0833C6.63988 18.3917 6.74985 18.7542 6.74985 19.125C6.7493 19.6221 6.55157 20.0987 6.20006 20.4502C5.84855 20.8017 5.37196 20.9995 4.87485 21ZM8.24985 9.53944V6.58558L18.7498 3.96058V6.91444L8.24985 9.53944ZM16.8748 18C16.504 18 16.1415 17.89 15.8332 17.684C15.5248 17.478 15.2845 17.1852 15.1426 16.8425C15.0007 16.4999 14.9635 16.1229 15.0359 15.7592C15.1082 15.3955 15.2868 15.0614 15.549 14.7992C15.8112 14.537 16.1453 14.3584 16.5091 14.286C16.8728 14.2137 17.2498 14.2508 17.5924 14.3927C17.935 14.5347 18.2278 14.775 18.4339 15.0833C18.6399 15.3917 18.7498 15.7542 18.7498 16.125C18.7493 16.6221 18.5516 17.0987 18.2001 17.4502C17.8486 17.8017 17.372 17.9995 16.8748 18Z" fill="#1D1F21" style="fill: var(--ui-icon-primary-color);"/>
</svg>
