<svg  viewBox="0 0 24 24" fill="none" xmlns="http://www.w3.org/2000/svg" id="__THIS_ID_NEEDS_FOR_UI_ICON_COMPONENT__">
<path d="M19.7154 5.28163L12.2154 3.03163C12.1034 2.99804 11.9852 2.99108 11.87 3.01134C11.7548 3.03159 11.646 3.07848 11.5522 3.14828C11.4584 3.21807 11.3822 3.30883 11.3297 3.4133C11.2773 3.51778 11.2499 3.63308 11.2499 3.75V13.8995C10.4822 13.2131 9.50209 12.811 8.47349 12.7604C7.4449 12.7098 6.43009 13.0137 5.59863 13.6214C4.76717 14.229 4.16944 15.1036 3.90532 16.099C3.64119 17.0944 3.72668 18.1503 4.14748 19.0902C4.56829 20.0302 5.29893 20.7972 6.2173 21.2632C7.13568 21.7292 8.18617 21.8659 9.19322 21.6505C10.2003 21.4351 11.1029 20.8806 11.7503 20.0796C12.3976 19.2787 12.7505 18.2798 12.7499 17.25V4.75804L19.2844 6.71837C19.4749 6.77553 19.6804 6.75466 19.8555 6.66036C20.0306 6.56606 20.1611 6.40604 20.2183 6.21552C20.2754 6.025 20.2546 5.81957 20.1603 5.64443C20.066 5.46929 19.906 5.33879 19.7154 5.28163ZM8.24992 20.25C7.65658 20.25 7.07656 20.0741 6.58321 19.7444C6.08986 19.4148 5.70535 18.9462 5.47828 18.3981C5.25122 17.8499 5.19181 17.2467 5.30757 16.6647C5.42332 16.0828 5.70904 15.5482 6.1286 15.1287C6.54816 14.7091 7.08271 14.4234 7.66465 14.3076C8.24659 14.1919 8.84979 14.2513 9.39797 14.4784C9.94615 14.7054 10.4147 15.0899 10.7443 15.5833C11.074 16.0766 11.2499 16.6567 11.2499 17.25C11.249 18.0454 10.9327 18.8079 10.3702 19.3703C9.80783 19.9327 9.04529 20.2491 8.24992 20.25Z" fill="#1D1F21" style="fill: var(--ui-icon-primary-color);"/>
</svg>
