<svg  viewBox="0 0 24 24" fill="none" xmlns="http://www.w3.org/2000/svg" id="__THIS_ID_NEEDS_FOR_UI_ICON_COMPONENT__">
<path d="M9.70629 21.5865C9.39393 21.5896 9.08865 21.4936 8.8343 21.3122C8.57995 21.1309 8.38964 20.8736 8.29071 20.5773L2.79654 4.70504C2.70444 4.43903 2.68906 4.15247 2.75215 3.87813C2.81524 3.60379 2.95426 3.35274 3.15332 3.15368C3.35237 2.95463 3.60342 2.81561 3.87776 2.75252C4.15211 2.68942 4.43867 2.7048 4.70468 2.7969L20.5768 8.29116C20.8757 8.39464 21.1343 8.58997 21.3155 8.84922C21.4967 9.10847 21.5914 9.41838 21.5859 9.73466C21.5804 10.0509 21.4751 10.3574 21.285 10.6102C21.0949 10.863 20.8297 11.0492 20.5274 11.1423L13.3502 13.3506L11.1418 20.5276C11.0519 20.8318 10.8664 21.0989 10.613 21.2895C10.3595 21.4802 10.0514 21.5842 9.73422 21.5863C9.72497 21.5865 9.71554 21.5865 9.70629 21.5865ZM4.21396 4.21432L9.70813 20.0865L11.9165 12.9095C11.9883 12.6755 12.1164 12.4627 12.2894 12.2897C12.4625 12.1167 12.6753 11.9887 12.9093 11.9169L20.0862 9.70858L4.21396 4.21432Z" fill="#1D1F21" style="fill: var(--ui-icon-primary-color);"/>
</svg>
