<svg  viewBox="0 0 24 24" fill="none" xmlns="http://www.w3.org/2000/svg" id="__THIS_ID_NEEDS_FOR_UI_ICON_COMPONENT__">
<path d="M7.5 9C7.50001 8.80109 7.57903 8.61033 7.71968 8.46968C7.86033 8.32903 8.05109 8.25001 8.25 8.25H18C18.1989 8.25 18.3897 8.32902 18.5303 8.46967C18.671 8.61032 18.75 8.80109 18.75 9C18.75 9.19891 18.671 9.38968 18.5303 9.53033C18.3897 9.67098 18.1989 9.75 18 9.75H8.25C8.05109 9.74999 7.86033 9.67097 7.71968 9.53032C7.57903 9.38967 7.50001 9.19891 7.5 9ZM8.25 12.75H18C18.1989 12.75 18.3897 12.671 18.5303 12.5303C18.671 12.3897 18.75 12.1989 18.75 12C18.75 11.8011 18.671 11.6103 18.5303 11.4697C18.3897 11.329 18.1989 11.25 18 11.25H8.25C8.05109 11.25 7.86032 11.329 7.71967 11.4697C7.57902 11.6103 7.5 11.8011 7.5 12C7.5 12.1989 7.57902 12.3897 7.71967 12.5303C7.86032 12.671 8.05109 12.75 8.25 12.75ZM8.25 15.75H18C18.1989 15.75 18.3897 15.671 18.5303 15.5303C18.671 15.3897 18.75 15.1989 18.75 15C18.75 14.8011 18.671 14.6103 18.5303 14.4697C18.3897 14.329 18.1989 14.25 18 14.25H8.25C8.05109 14.25 7.86032 14.329 7.71967 14.4697C7.57902 14.6103 7.5 14.8011 7.5 15C7.5 15.1989 7.57902 15.3897 7.71967 15.5303C7.86032 15.671 8.05109 15.75 8.25 15.75ZM22.5 5.25V18C22.4993 18.5965 22.262 19.1684 21.8402 19.5902C21.4184 20.012 20.8465 20.2493 20.25 20.25H3C2.40519 20.2493 1.83479 20.0134 1.41326 19.5938C0.991738 19.1741 0.753307 18.6048 0.75 18.01V7.5C0.75 7.30109 0.829018 7.11032 0.96967 6.96967C1.11032 6.82902 1.30109 6.75 1.5 6.75C1.69891 6.75 1.88968 6.82902 2.03033 6.96967C2.17098 7.11032 2.25 7.30109 2.25 7.5V18C2.25 18.1989 2.32902 18.3897 2.46967 18.5303C2.61032 18.671 2.80109 18.75 3 18.75C3.19891 18.75 3.38968 18.671 3.53033 18.5303C3.67098 18.3897 3.75 18.1989 3.75 18V5.25C3.75045 4.85231 3.90864 4.47105 4.18984 4.18984C4.47105 3.90864 4.85231 3.75045 5.25 3.75H21C21.3977 3.75045 21.779 3.90864 22.0602 4.18984C22.3414 4.47105 22.4995 4.85231 22.5 5.25ZM21 5.25H5.25V18C5.25025 18.2555 5.20677 18.5092 5.12146 18.75H20.25C20.4488 18.7498 20.6395 18.6707 20.7801 18.5301C20.9207 18.3895 20.9998 18.1988 21 18V5.25Z" fill="#1D1F21" style="fill: var(--ui-icon-primary-color);"/>
</svg>
