<svg  viewBox="0 0 24 24" fill="none" xmlns="http://www.w3.org/2000/svg" id="__THIS_ID_NEEDS_FOR_UI_ICON_COMPONENT__">
<path d="M21 14.6894V4.5C20.9995 4.10231 20.8414 3.72105 20.5602 3.43984C20.279 3.15864 19.8977 3.00045 19.5 3H4.5C4.10231 3.00045 3.72105 3.15864 3.43984 3.43984C3.15864 3.72105 3.00045 4.10231 3 4.5V19.5C3.00045 19.8977 3.15864 20.279 3.43984 20.5602C3.72105 20.8414 4.10231 20.9995 4.5 21H14.6894C14.8864 21.0005 15.0816 20.962 15.2637 20.8866C15.4458 20.8112 15.611 20.7004 15.75 20.5606L20.5606 15.75C20.6884 15.6219 20.7919 15.4718 20.8661 15.3069C20.8687 15.3012 20.8717 15.2957 20.8741 15.2899C20.9572 15.1006 21 14.8961 21 14.6894ZM4.5 4.5H19.5V14.2493H15C14.9015 14.2493 14.804 14.2687 14.713 14.3064C14.622 14.344 14.5393 14.3993 14.4697 14.4689C14.4 14.5386 14.3448 14.6213 14.3071 14.7123C14.2694 14.8032 14.25 14.9008 14.25 14.9993V19.5H4.5V4.5ZM18.4401 15.7493L15.75 18.4394V15.7493H18.4401Z" fill="#1D1F21" style="fill: var(--ui-icon-primary-color);"/>
</svg>
