<svg  viewBox="0 0 24 24" fill="none" xmlns="http://www.w3.org/2000/svg" id="__THIS_ID_NEEDS_FOR_UI_ICON_COMPONENT__">
<path d="M21.5304 5.46969L18.5304 2.46969C18.4607 2.40004 18.378 2.34479 18.287 2.3071C18.196 2.2694 18.0985 2.25 18 2.25C17.9015 2.25 17.804 2.2694 17.713 2.3071C17.622 2.34479 17.5393 2.40004 17.4696 2.46969L8.46964 11.4697C8.329 11.6103 8.25 11.8011 8.25 12V15C8.25 15.1989 8.32902 15.3897 8.46967 15.5303C8.61032 15.671 8.80109 15.75 9 15.75H12C12.1989 15.75 12.3897 15.671 12.5304 15.5303L21.5304 6.53033C21.671 6.38968 21.75 6.19892 21.75 6.00001C21.75 5.8011 21.671 5.61034 21.5304 5.46969ZM11.6894 14.25H9.75V12.3107L15.75 6.3107L17.6893 8.25004L11.6894 14.25ZM18.75 7.18935L16.8107 5.25001L18 4.06067L19.9394 6.00001L18.75 7.18935ZM21 11.25V19.5C20.9995 19.8977 20.8414 20.279 20.5602 20.5602C20.279 20.8414 19.8977 20.9996 19.5 21H4.5C4.10231 20.9996 3.72105 20.8414 3.43984 20.5602C3.15864 20.279 3.00045 19.8977 3 19.5V4.50001C3.00045 4.10232 3.15863 3.72106 3.43984 3.43985C3.72104 3.15864 4.10231 3.00046 4.5 3.00001H12.75C12.9489 3.00001 13.1397 3.07903 13.2803 3.21968C13.421 3.36033 13.5 3.5511 13.5 3.75001C13.5 3.94892 13.421 4.13969 13.2803 4.28034C13.1397 4.42099 12.9489 4.50001 12.75 4.50001H4.5V19.5H19.5V11.25C19.5 11.0511 19.579 10.8603 19.7197 10.7197C19.8603 10.579 20.0511 10.5 20.25 10.5C20.4489 10.5 20.6397 10.579 20.7803 10.7197C20.921 10.8603 21 11.0511 21 11.25Z" fill="#1D1F21" style="fill: var(--ui-icon-primary-color);"/>
</svg>
