<svg  viewBox="0 0 24 24" fill="none" xmlns="http://www.w3.org/2000/svg" id="__THIS_ID_NEEDS_FOR_UI_ICON_COMPONENT__">
<path d="M8.25 9C8.25 8.90151 8.26939 8.80398 8.30708 8.71298C8.34477 8.62199 8.40002 8.53931 8.46966 8.46966C8.53931 8.40002 8.62199 8.34477 8.71298 8.30708C8.80398 8.26939 8.90151 8.25 9 8.25H15C15.1989 8.25 15.3897 8.32902 15.5303 8.46967C15.671 8.61032 15.75 8.80109 15.75 9C15.75 9.19891 15.671 9.38968 15.5303 9.53033C15.3897 9.67098 15.1989 9.75 15 9.75H9C8.90151 9.75 8.80398 9.73061 8.71298 9.69292C8.62199 9.65523 8.53931 9.59998 8.46966 9.53034C8.40002 9.46069 8.34477 9.37801 8.30708 9.28702C8.26939 9.19602 8.25 9.09849 8.25 9ZM9 12.75H15C15.1989 12.75 15.3897 12.671 15.5303 12.5303C15.671 12.3897 15.75 12.1989 15.75 12C15.75 11.8011 15.671 11.6103 15.5303 11.4697C15.3897 11.329 15.1989 11.25 15 11.25H9C8.80109 11.25 8.61032 11.329 8.46967 11.4697C8.32902 11.6103 8.25 11.8011 8.25 12C8.25 12.1989 8.32902 12.3897 8.46967 12.5303C8.61032 12.671 8.80109 12.75 9 12.75ZM12 14.25H9C8.80109 14.25 8.61032 14.329 8.46967 14.4697C8.32902 14.6103 8.25 14.8011 8.25 15C8.25 15.1989 8.32902 15.3897 8.46967 15.5303C8.61032 15.671 8.80109 15.75 9 15.75H12C12.1989 15.75 12.3897 15.671 12.5303 15.5303C12.671 15.3897 12.75 15.1989 12.75 15C12.75 14.8011 12.671 14.6103 12.5303 14.4697C12.3897 14.329 12.1989 14.25 12 14.25ZM21 4.5V14.6894C21.0005 14.8864 20.962 15.0816 20.8866 15.2637C20.8112 15.4458 20.7004 15.611 20.5606 15.75L15.75 20.5606C15.611 20.7004 15.4458 20.8112 15.2637 20.8866C15.0816 20.962 14.8864 21.0005 14.6894 21H4.5C4.10231 20.9995 3.72105 20.8414 3.43984 20.5602C3.15864 20.279 3.00045 19.8977 3 19.5V4.5C3.00045 4.10231 3.15864 3.72105 3.43984 3.43984C3.72105 3.15864 4.10231 3.00045 4.5 3H19.5C19.8977 3.00045 20.279 3.15864 20.5602 3.43984C20.8414 3.72105 20.9995 4.10231 21 4.5ZM4.5 19.5H14.25V14.9993C14.25 14.9008 14.2694 14.8032 14.3071 14.7123C14.3448 14.6213 14.4 14.5386 14.4697 14.4689C14.5393 14.3993 14.622 14.344 14.713 14.3064C14.804 14.2687 14.9015 14.2493 15 14.2493H19.5V4.5H4.5V19.5ZM15.75 15.7493V18.4394L18.4401 15.7493H15.75Z" fill="#1D1F21" style="fill: var(--ui-icon-primary-color);"/>
</svg>
