<svg  viewBox="0 0 24 24" fill="none" xmlns="http://www.w3.org/2000/svg" id="__THIS_ID_NEEDS_FOR_UI_ICON_COMPONENT__">
<path d="M14.8585 7.43646C14.9279 7.53289 14.9735 7.64444 14.9914 7.76192C15.0093 7.8794 14.9991 7.99946 14.9615 8.11221L11.9615 17.1122C11.9305 17.2057 11.8813 17.2922 11.8167 17.3667C11.7522 17.4412 11.6736 17.5023 11.5855 17.5464C11.4974 17.5905 11.4014 17.6168 11.3031 17.6239C11.2048 17.6309 11.1061 17.6184 11.0126 17.5873C10.9191 17.5561 10.8326 17.5068 10.7582 17.4422C10.6837 17.3776 10.6228 17.299 10.5787 17.2108C10.5347 17.1226 10.5085 17.0266 10.5016 16.9283C10.4947 16.83 10.5072 16.7313 10.5385 16.6378L13.2094 8.625H9.75C9.55109 8.625 9.36032 8.54598 9.21967 8.40533C9.07902 8.26468 9 8.07391 9 7.875C9 7.67609 9.07902 7.48532 9.21967 7.34467C9.36032 7.20402 9.55109 7.125 9.75 7.125H14.25C14.3688 7.12501 14.486 7.15325 14.5918 7.2074C14.6976 7.26155 14.789 7.34006 14.8585 7.43646ZM21 4.5V19.5C20.9995 19.8977 20.8414 20.279 20.5602 20.5602C20.279 20.8414 19.8977 20.9995 19.5 21H4.5C4.10231 20.9995 3.72105 20.8414 3.43984 20.5602C3.15864 20.279 3.00045 19.8977 3 19.5V4.5C3.00045 4.10231 3.15864 3.72105 3.43984 3.43984C3.72105 3.15864 4.10231 3.00045 4.5 3H19.5C19.8977 3.00045 20.279 3.15864 20.5602 3.43984C20.8414 3.72105 20.9995 4.10231 21 4.5ZM19.5009 19.5L19.5 4.5H4.5V19.5H19.5009Z" fill="#1D1F21" style="fill: var(--ui-icon-primary-color);"/>
</svg>
