<svg  viewBox="0 0 24 24" fill="none" xmlns="http://www.w3.org/2000/svg" id="__THIS_ID_NEEDS_FOR_UI_ICON_COMPONENT__">
<path d="M11.9999 2.25C10.0716 2.25 8.18651 2.82183 6.58313 3.89317C4.97975 4.96451 3.73007 6.48726 2.99212 8.26884C2.25416 10.0504 2.06108 12.0108 2.43729 13.9021C2.81349 15.7934 3.74209 17.5307 5.10565 18.8943C6.46921 20.2579 8.2065 21.1865 10.0978 21.5627C11.9891 21.9389 13.9495 21.7458 15.7311 21.0078C17.5127 20.2699 19.0354 19.0202 20.1068 17.4168C21.1781 15.8134 21.7499 13.9284 21.7499 12C21.747 9.41504 20.7188 6.93679 18.891 5.10894C17.0632 3.28109 14.5849 2.25293 11.9999 2.25ZM11.9999 20.25C10.3682 20.25 8.77319 19.7661 7.41649 18.8596C6.05978 17.9531 5.00236 16.6646 4.37794 15.1571C3.75351 13.6496 3.59014 11.9908 3.90846 10.3905C4.22679 8.79016 5.01253 7.32015 6.16631 6.16637C7.3201 5.01259 8.7901 4.22685 10.3904 3.90852C11.9908 3.59019 13.6496 3.75357 15.1571 4.37799C16.6646 5.00242 17.953 6.05984 18.8596 7.41655C19.7661 8.77325 20.2499 10.3683 20.2499 12C20.2475 14.1873 19.3775 16.2843 17.8308 17.8309C16.2842 19.3775 14.1872 20.2475 11.9999 20.25ZM11.1224 8.625L10.7383 10.9885C11.024 10.913 11.3183 10.8749 11.6139 10.8752C12.1685 10.8765 12.7142 11.0144 13.2029 11.2768C13.6915 11.5392 14.1079 11.918 14.4153 12.3796C14.7227 12.8413 14.9115 13.3716 14.9652 13.9236C15.0189 14.4756 14.9356 15.0323 14.7229 15.5445C14.5102 16.0568 14.1745 16.5086 13.7456 16.8602C13.3166 17.2118 12.8076 17.4523 12.2637 17.5603C11.7197 17.6684 11.1574 17.6407 10.6267 17.4798C10.0959 17.3188 9.61302 17.0295 9.22068 16.6375C9.1508 16.568 9.0953 16.4855 9.05735 16.3945C9.0194 16.3036 8.99975 16.206 8.99951 16.1075C8.99927 16.009 9.01846 15.9113 9.05597 15.8202C9.09348 15.7291 9.14858 15.6462 9.21812 15.5764C9.28766 15.5066 9.37028 15.4512 9.46126 15.4133C9.55223 15.3754 9.64978 15.3559 9.74832 15.3557C9.84686 15.3556 9.94447 15.3748 10.0356 15.4124C10.1267 15.45 10.2094 15.5052 10.2792 15.5748C10.634 15.9272 11.1139 16.125 11.614 16.125C12.1141 16.125 12.5939 15.9271 12.9487 15.5747C13.1234 15.4011 13.262 15.1947 13.3566 14.9674C13.4513 14.74 13.4999 14.4962 13.4999 14.25C13.4999 14.0037 13.4512 13.7599 13.3566 13.5326C13.262 13.3052 13.1233 13.0989 12.9486 12.9253C12.5938 12.5729 12.1139 12.3752 11.6138 12.3752C11.1137 12.3752 10.6339 12.573 10.2791 12.9254C10.1668 13.0373 10.0219 13.1107 9.86531 13.1351C9.70869 13.1594 9.54837 13.1336 9.40736 13.0612C9.26635 12.9888 9.1519 12.8736 9.08045 12.7321C9.00899 12.5906 8.98421 12.4301 9.00965 12.2737L9.74418 7.7547C9.77275 7.57895 9.86292 7.4191 9.99854 7.30373C10.1342 7.18837 10.3064 7.12501 10.4845 7.125H14.2499C14.4489 7.125 14.6396 7.20402 14.7803 7.34467C14.9209 7.48532 14.9999 7.67609 14.9999 7.875C14.9999 8.07391 14.9209 8.26468 14.7803 8.40533C14.6396 8.54598 14.4489 8.625 14.2499 8.625H11.1224Z" fill="#1D1F21" style="fill: var(--ui-icon-primary-color);"/>
</svg>
