<svg  viewBox="0 0 24 24" fill="none" xmlns="http://www.w3.org/2000/svg" id="__THIS_ID_NEEDS_FOR_UI_ICON_COMPONENT__">
<path d="M13.9769 11.5626C13.9808 11.5587 13.9849 11.5551 13.9888 11.5512C14.3821 11.1579 14.65 10.6567 14.7585 10.1111C14.867 9.56557 14.8113 9.00007 14.5984 8.48616C14.3855 7.97226 14.025 7.53301 13.5625 7.22399C13.1 6.91496 12.5562 6.75002 11.9999 6.75003C11.4437 6.75005 10.8999 6.91501 10.4374 7.22406C9.9749 7.53311 9.61443 7.97237 9.40157 8.48629C9.18871 9.00021 9.13302 9.56571 9.24155 10.1113C9.35008 10.6568 9.61795 11.158 10.0113 11.5513C10.0152 11.5552 10.0192 11.5587 10.0231 11.5626C9.92616 11.6392 9.83365 11.7213 9.74606 11.8086C9.30029 12.2543 8.99672 12.8223 8.87374 13.4406C8.75076 14.0589 8.81389 14.6998 9.05514 15.2823C9.2964 15.8647 9.70495 16.3625 10.2291 16.7127C10.7533 17.063 11.3696 17.2499 12 17.2499C12.6304 17.2499 13.2467 17.063 13.7709 16.7127C14.295 16.3625 14.7036 15.8647 14.9449 15.2823C15.1861 14.6998 15.2492 14.0589 15.1263 13.4406C15.0033 12.8223 14.6997 12.2543 14.2539 11.8086C14.1664 11.7213 14.0738 11.6392 13.9769 11.5626ZM11.0719 10.4907C10.8571 10.2759 10.7235 9.99339 10.6937 9.69115C10.6638 9.38891 10.7398 9.08569 10.9085 8.83314C11.0772 8.5806 11.3282 8.39437 11.6188 8.30618C11.9095 8.218 12.2217 8.23331 12.5023 8.34951C12.7829 8.46571 13.0145 8.67562 13.1577 8.94345C13.3008 9.21129 13.3467 9.52049 13.2875 9.81836C13.2282 10.1162 13.0675 10.3843 12.8328 10.577C12.598 10.7697 12.3037 10.875 12 10.875C11.8276 10.8755 11.6568 10.8417 11.4975 10.7758C11.3382 10.7098 11.1935 10.6129 11.0719 10.4907ZM13.1932 15.2557C12.9172 15.5317 12.5539 15.7035 12.1655 15.7417C11.777 15.78 11.3872 15.6823 11.0627 15.4654C10.7381 15.2485 10.4988 14.9258 10.3855 14.5522C10.2722 14.1787 10.2919 13.7774 10.4413 13.4167C10.5907 13.0561 10.8605 12.7584 11.2048 12.5744C11.5491 12.3904 11.9465 12.3314 12.3294 12.4076C12.7122 12.4838 13.0569 12.6903 13.3045 12.9921C13.5521 13.2938 13.6875 13.6721 13.6875 14.0625C13.6881 14.2842 13.6447 14.5038 13.5599 14.7086C13.475 14.9134 13.3504 15.0994 13.1932 15.2557H13.1932ZM19.5 3H4.5C4.10231 3.00045 3.72105 3.15864 3.43984 3.43984C3.15864 3.72105 3.00045 4.10231 3 4.5V19.5C3.00045 19.8977 3.15864 20.279 3.43984 20.5602C3.72105 20.8414 4.10231 20.9995 4.5 21H19.5C19.8977 20.9995 20.279 20.8414 20.5602 20.5602C20.8414 20.279 20.9995 19.8977 21 19.5V4.5C20.9995 4.10231 20.8414 3.72105 20.5602 3.43984C20.279 3.15864 19.8977 3.00045 19.5 3ZM19.5 19.5H4.5V4.5H19.5L19.5009 19.5H19.5Z" fill="#1D1F21" style="fill: var(--ui-icon-primary-color);"/>
</svg>
