<svg  viewBox="0 0 24 24" fill="none" xmlns="http://www.w3.org/2000/svg" id="__THIS_ID_NEEDS_FOR_UI_ICON_COMPONENT__">
<path d="M11.9999 6.75C10.7853 6.75 9.74784 7.38153 9.07886 8.52823C8.54429 9.4444 8.24994 10.6774 8.24994 12C8.24994 13.3225 8.54429 14.5554 9.07886 15.4717C9.74793 16.6185 10.7853 17.25 11.9999 17.25C13.2146 17.25 14.252 16.6185 14.921 15.4717C15.4556 14.5554 15.7499 13.3225 15.7499 12C15.7499 10.6774 15.4556 9.4444 14.921 8.52823C14.252 7.38153 13.2146 6.75 11.9999 6.75ZM11.9999 15.75C11.1643 15.75 9.74994 14.9602 9.74994 12C9.74994 9.03982 11.1643 8.25 11.9999 8.25C12.8356 8.25 14.2499 9.03982 14.2499 12C14.2499 14.9602 12.8356 15.75 11.9999 15.75ZM11.9999 2.25C10.0716 2.25 8.18651 2.82183 6.58313 3.89317C4.97975 4.96451 3.73007 6.48726 2.99212 8.26884C2.25416 10.0504 2.06108 12.0108 2.43729 13.9021C2.81349 15.7934 3.74209 17.5307 5.10565 18.8943C6.46921 20.2579 8.2065 21.1865 10.0978 21.5627C11.9891 21.9389 13.9495 21.7458 15.7311 21.0078C17.5127 20.2699 19.0354 19.0202 20.1068 17.4168C21.1781 15.8134 21.7499 13.9284 21.7499 12C21.747 9.41504 20.7188 6.93679 18.891 5.10894C17.0632 3.28109 14.5849 2.25293 11.9999 2.25ZM11.9999 20.25C10.3682 20.25 8.77319 19.7661 7.41649 18.8596C6.05978 17.9531 5.00236 16.6646 4.37794 15.1571C3.75351 13.6496 3.59014 11.9908 3.90846 10.3905C4.22679 8.79016 5.01253 7.32015 6.16631 6.16637C7.3201 5.01259 8.7901 4.22685 10.3904 3.90852C11.9908 3.59019 13.6496 3.75357 15.1571 4.37799C16.6646 5.00242 17.953 6.05984 18.8596 7.41655C19.7661 8.77325 20.2499 10.3683 20.2499 12C20.2475 14.1873 19.3775 16.2843 17.8308 17.8309C16.2842 19.3775 14.1872 20.2475 11.9999 20.25Z" fill="#1D1F21" style="fill: var(--ui-icon-primary-color);"/>
</svg>
