<svg  viewBox="0 0 24 24" fill="none" xmlns="http://www.w3.org/2000/svg" id="__THIS_ID_NEEDS_FOR_UI_ICON_COMPONENT__">
<path d="M12 9.74957C11.3798 9.74933 10.7633 9.84564 10.1727 10.035L14.144 3.38406C14.246 3.21327 14.2759 3.00896 14.2273 2.81608C14.1786 2.6232 14.0553 2.45755 13.8845 2.35557C13.7137 2.25359 13.5094 2.22364 13.3165 2.2723C13.1236 2.32096 12.958 2.44425 12.856 2.61504L6.81015 12.7405C6.80035 12.7569 6.79197 12.7738 6.78356 12.7906C6.13362 13.9376 5.8797 15.2669 6.06107 16.5727C6.24244 17.8785 6.84899 19.0882 7.78693 20.0147C8.72487 20.9412 9.94193 21.5329 11.2499 21.6982C12.5579 21.8635 13.8839 21.5933 15.0228 20.9293C16.1618 20.2653 17.0503 19.2446 17.5508 18.0249C18.0514 16.8053 18.1362 15.4547 17.7921 14.182C17.448 12.9093 16.6941 11.7855 15.6471 10.9843C14.6002 10.1831 13.3184 9.74912 12 9.74957ZM12 20.2496C11.2038 20.25 10.4217 20.039 9.73372 19.6382C9.04573 19.2374 8.47646 18.6611 8.08408 17.9683C7.69169 17.2755 7.49026 16.4909 7.50036 15.6948C7.51046 14.8986 7.73172 14.1194 8.14155 13.4367L8.1582 13.4089C8.56684 12.7382 9.14389 12.1862 9.832 11.8077C10.5201 11.4292 11.2953 11.2374 12.0805 11.2514C12.8657 11.2653 13.6336 11.4846 14.3078 11.8873C14.982 12.29 15.5391 12.8621 15.9237 13.5469C16.3082 14.2316 16.5068 15.0051 16.4998 15.7904C16.4928 16.5757 16.2803 17.3454 15.8836 18.0232C15.4869 18.7009 14.9196 19.263 14.2383 19.6536C13.557 20.0442 12.7853 20.2497 12 20.2496Z" fill="#1D1F21" style="fill: var(--ui-icon-primary-color);"/>
</svg>
