<svg  viewBox="0 0 24 24" fill="none" xmlns="http://www.w3.org/2000/svg" id="__THIS_ID_NEEDS_FOR_UI_ICON_COMPONENT__">
<path d="M11.9999 2.25C10.0716 2.25 8.18651 2.82183 6.58313 3.89317C4.97975 4.96451 3.73007 6.48726 2.99212 8.26884C2.25416 10.0504 2.06108 12.0108 2.43729 13.9021C2.81349 15.7934 3.74209 17.5307 5.10565 18.8943C6.46921 20.2579 8.2065 21.1865 10.0978 21.5627C11.9891 21.9389 13.9495 21.7458 15.7311 21.0078C17.5127 20.2699 19.0354 19.0202 20.1068 17.4168C21.1781 15.8134 21.7499 13.9284 21.7499 12C21.747 9.41504 20.7188 6.93679 18.891 5.10894C17.0632 3.28109 14.5849 2.25293 11.9999 2.25ZM11.9999 20.25C10.3682 20.25 8.77319 19.7661 7.41649 18.8596C6.05978 17.9531 5.00236 16.6646 4.37794 15.1571C3.75351 13.6496 3.59014 11.9908 3.90846 10.3905C4.22679 8.79016 5.01253 7.32015 6.16631 6.16637C7.3201 5.01259 8.7901 4.22685 10.3904 3.90852C11.9908 3.59019 13.6496 3.75357 15.1571 4.37799C16.6646 5.00242 17.953 6.05984 18.8596 7.41655C19.7661 8.77325 20.2499 10.3683 20.2499 12C20.2475 14.1873 19.3775 16.2843 17.8308 17.8309C16.2842 19.3775 14.1872 20.2475 11.9999 20.25ZM14.0117 11.8636C14.6443 12.4966 14.9996 13.3549 14.9995 14.2499C14.9993 15.1448 14.6437 16.003 14.0109 16.6358C13.3781 17.2686 12.5199 17.6242 11.625 17.6243C10.73 17.6244 9.87171 17.2691 9.23872 16.6365C9.09805 16.4958 9.01903 16.3051 9.01903 16.1061C9.01903 15.9072 9.09805 15.7164 9.23872 15.5758C9.37938 15.4351 9.57015 15.3561 9.76908 15.3561C9.96801 15.3561 10.1588 15.4351 10.2994 15.5758C10.5175 15.7938 10.7859 15.9547 11.081 16.0442C11.376 16.1337 11.6886 16.149 11.991 16.0889C12.2934 16.0287 12.5764 15.8949 12.8147 15.6993C13.0531 15.5037 13.2395 15.2523 13.3575 14.9675C13.4755 14.6826 13.5214 14.373 13.4912 14.0662C13.4609 13.7593 13.3555 13.4647 13.1842 13.2083C13.0129 12.9519 12.781 12.7417 12.5091 12.5964C12.2371 12.451 11.9336 12.375 11.6252 12.375C11.488 12.375 11.3535 12.3374 11.2362 12.2662C11.1189 12.1951 11.0233 12.0931 10.96 11.9714C10.8966 11.8497 10.8678 11.713 10.8768 11.5761C10.8857 11.4392 10.9321 11.3074 11.0107 11.195L12.8095 8.62427H9.74967C9.55076 8.62427 9.35999 8.54525 9.21934 8.4046C9.07869 8.26395 8.99967 8.07318 8.99967 7.87427C8.99967 7.67536 9.07869 7.48459 9.21934 7.34394C9.35999 7.20329 9.55076 7.12427 9.74967 7.12427H14.2497C14.3869 7.12426 14.5214 7.16189 14.6387 7.23305C14.756 7.30421 14.8515 7.40618 14.9149 7.52786C14.9783 7.64954 15.007 7.78627 14.9981 7.92317C14.9892 8.06007 14.9428 8.19189 14.8642 8.30429L12.8937 11.1205C13.3125 11.2906 13.6927 11.5434 14.0117 11.8636Z" fill="#1D1F21" style="fill: var(--ui-icon-primary-color);"/>
</svg>
