<svg  viewBox="0 0 24 24" fill="none" xmlns="http://www.w3.org/2000/svg" id="__THIS_ID_NEEDS_FOR_UI_ICON_COMPONENT__">
<path d="M16.8748 9.00023V21.0002C16.8748 21.1991 16.7958 21.3899 16.6551 21.5306C16.5145 21.6712 16.3237 21.7502 16.1248 21.7502C15.9259 21.7502 15.7351 21.6712 15.5945 21.5306C15.4538 21.3899 15.3748 21.1991 15.3748 21.0002V15.7502H7.12479C7.00485 15.7502 6.88666 15.7214 6.78013 15.6663C6.67361 15.6112 6.58186 15.5313 6.51258 15.4334C6.4433 15.3355 6.39851 15.2224 6.38198 15.1036C6.36544 14.9848 6.37764 14.8638 6.41755 14.7507L10.9173 2.00066C10.9836 1.81328 11.1216 1.6599 11.301 1.57423C11.4803 1.48855 11.6864 1.47757 11.8738 1.54372C12.0613 1.60987 12.2148 1.74772 12.3007 1.92699C12.3865 2.10626 12.3977 2.31229 12.3318 2.49981L8.18479 14.2502H15.3748V9.00023C15.3748 8.80132 15.4538 8.61056 15.5945 8.4699C15.7351 8.32925 15.9259 8.25023 16.1248 8.25023C16.3237 8.25023 16.5145 8.32925 16.6551 8.4699C16.7958 8.61056 16.8748 8.80132 16.8748 9.00023Z" fill="#1D1F21" style="fill: var(--ui-icon-primary-color);"/>
</svg>
