<svg  viewBox="0 0 24 24" fill="none" xmlns="http://www.w3.org/2000/svg" id="__THIS_ID_NEEDS_FOR_UI_ICON_COMPONENT__">
<path d="M13.1251 3.00046V21.0005C13.1251 21.1994 13.0461 21.3901 12.9054 21.5308C12.7648 21.6714 12.574 21.7505 12.3751 21.7505C12.1762 21.7505 11.9854 21.6714 11.8447 21.5308C11.7041 21.3901 11.6251 21.1994 11.6251 21.0005V4.4015L8.291 6.62325C8.12547 6.73314 7.9231 6.77287 7.72831 6.7337C7.53352 6.69453 7.36224 6.57967 7.25206 6.41433C7.14187 6.24899 7.1018 6.04669 7.14062 5.85184C7.17945 5.65698 7.29401 5.48549 7.45916 5.37502L11.9592 2.37635C12.0721 2.30109 12.2034 2.25789 12.339 2.25136C12.4745 2.24483 12.6093 2.27521 12.729 2.33927C12.8487 2.40333 12.9487 2.49866 13.0185 2.6151C13.0882 2.73154 13.1251 2.86473 13.1251 3.00046Z" fill="#1D1F21" style="fill: var(--ui-icon-primary-color);"/>
</svg>
