<svg  viewBox="0 0 24 24" fill="none" xmlns="http://www.w3.org/2000/svg" id="__THIS_ID_NEEDS_FOR_UI_ICON_COMPONENT__">
<path d="M17.2115 3.98717L11.2115 21.9872C11.1486 22.1759 11.0134 22.3319 10.8354 22.4208C10.6575 22.5098 10.4515 22.5244 10.2628 22.4615C10.0741 22.3986 9.91812 22.2634 9.82915 22.0854C9.74019 21.9075 9.72555 21.7015 9.78845 21.5128L15.4594 4.5H7.5C7.30109 4.5 7.11032 4.42098 6.96967 4.28033C6.82902 4.13968 6.75 3.94891 6.75 3.75C6.75 3.55109 6.82902 3.36032 6.96967 3.21967C7.11032 3.07902 7.30109 3 7.5 3H16.5C16.6188 2.99999 16.736 3.02823 16.8418 3.08238C16.9476 3.13653 17.039 3.21504 17.1084 3.31145C17.1779 3.40786 17.2235 3.5194 17.2414 3.63688C17.2594 3.75436 17.2491 3.87442 17.2115 3.98717Z" fill="#1D1F21" style="fill: var(--ui-icon-primary-color);"/>
</svg>
