<svg  viewBox="0 0 24 24" fill="none" xmlns="http://www.w3.org/2000/svg" id="__THIS_ID_NEEDS_FOR_UI_ICON_COMPONENT__">
<path d="M19.5 3H4.5C4.10231 3.00045 3.72105 3.15864 3.43984 3.43984C3.15864 3.72105 3.00045 4.10231 3 4.5V19.5C3.00045 19.8977 3.15864 20.279 3.43984 20.5602C3.72105 20.8414 4.10231 20.9995 4.5 21H19.5C19.8977 20.9995 20.279 20.8414 20.5602 20.5602C20.8414 20.279 20.9995 19.8977 21 19.5V4.5C20.9995 4.10231 20.8414 3.72105 20.5602 3.43984C20.279 3.15864 19.8977 3.00045 19.5 3ZM19.5 19.5H4.5V4.5H19.5L19.5009 19.5H19.5ZM12 10.5C11.9428 10.5 11.886 10.5014 11.8295 10.5043L13.394 7.88388C13.4957 7.7131 13.5254 7.50893 13.4767 7.31623C13.4279 7.12353 13.3047 6.95806 13.134 6.85618C12.9633 6.75429 12.7592 6.72433 12.5664 6.77286C12.3737 6.82139 12.2081 6.94446 12.106 7.11502L9.08304 12.1783C9.07727 12.1879 9.07269 12.1979 9.0674 12.2077C8.70111 12.8527 8.55758 13.6004 8.65899 14.3352C8.76041 15.0699 9.10113 15.7508 9.62844 16.2724C10.1557 16.794 10.8403 17.1274 11.5761 17.2208C12.3119 17.3143 13.058 17.1626 13.6989 16.7894C14.3399 16.4161 14.84 15.8421 15.1219 15.156C15.4038 14.4699 15.4517 13.7101 15.2583 12.994C15.0648 12.278 14.6408 11.6456 14.0518 11.1948C13.4629 10.7439 12.7417 10.4997 12 10.5ZM12 15.75C11.6292 15.75 11.2666 15.64 10.9583 15.434C10.65 15.228 10.4096 14.9351 10.2677 14.5925C10.1258 14.2499 10.0887 13.8729 10.161 13.5092C10.2334 13.1455 10.412 12.8114 10.6742 12.5492C10.9364 12.287 11.2705 12.1084 11.6342 12.036C11.9979 11.9637 12.3749 12.0008 12.7175 12.1427C13.0601 12.2846 13.353 12.525 13.559 12.8333C13.765 13.1416 13.875 13.5042 13.875 13.875C13.8744 14.3721 13.6767 14.8487 13.3252 15.2002C12.9737 15.5517 12.4971 15.7494 12 15.75Z" fill="#1D1F21" style="fill: var(--ui-icon-primary-color);"/>
</svg>
