<svg  viewBox="0 0 24 24" fill="none" xmlns="http://www.w3.org/2000/svg" id="__THIS_ID_NEEDS_FOR_UI_ICON_COMPONENT__">
<path d="M11.9999 2.25C10.0716 2.25 8.18651 2.82183 6.58313 3.89317C4.97975 4.96451 3.73007 6.48726 2.99212 8.26884C2.25416 10.0504 2.06108 12.0108 2.43729 13.9021C2.81349 15.7934 3.74209 17.5307 5.10565 18.8943C6.46921 20.2579 8.2065 21.1865 10.0978 21.5627C11.9891 21.9389 13.9495 21.7458 15.7311 21.0078C17.5127 20.2699 19.0354 19.0202 20.1068 17.4168C21.1781 15.8134 21.7499 13.9284 21.7499 12C21.747 9.41504 20.7188 6.93679 18.891 5.10894C17.0632 3.28109 14.5849 2.25293 11.9999 2.25ZM11.9999 20.25C10.3682 20.25 8.77319 19.7661 7.41649 18.8596C6.05978 17.9531 5.00236 16.6646 4.37794 15.1571C3.75351 13.6496 3.59014 11.9908 3.90846 10.3905C4.22679 8.79016 5.01253 7.32015 6.16631 6.16637C7.3201 5.01259 8.7901 4.22685 10.3904 3.90852C11.9908 3.59019 13.6496 3.75357 15.1571 4.37799C16.6646 5.00242 17.953 6.05984 18.8596 7.41655C19.7661 8.77325 20.2499 10.3683 20.2499 12C20.2475 14.1873 19.3775 16.2843 17.8308 17.8309C16.2842 19.3775 14.1872 20.2475 11.9999 20.25ZM11.9999 10.125C11.9426 10.125 11.8856 10.1264 11.829 10.1293L13.3938 7.50961C13.4443 7.42506 13.4777 7.33138 13.492 7.23393C13.5063 7.13648 13.5013 7.03717 13.4772 6.94166C13.4531 6.84616 13.4105 6.75633 13.3517 6.67731C13.2929 6.59829 13.2191 6.53162 13.1346 6.48111C13.05 6.4306 12.9563 6.39724 12.8589 6.38294C12.7614 6.36863 12.6621 6.37366 12.5666 6.39774C12.4711 6.42181 12.3813 6.46447 12.3023 6.52326C12.2232 6.58205 12.1566 6.65583 12.1061 6.74039L9.08271 11.8019C9.07226 11.8194 9.06324 11.8373 9.05436 11.8553C8.69354 12.5021 8.55557 13.2497 8.66174 13.9827C8.76792 14.7157 9.11233 15.3934 9.64184 15.9112C10.1714 16.4291 10.8566 16.7583 11.5917 16.8481C12.3269 16.938 13.0712 16.7834 13.7099 16.4082C14.3485 16.0331 14.8459 15.4583 15.1254 14.7724C15.405 14.0865 15.451 13.3277 15.2565 12.613C15.0621 11.8984 14.6378 11.2676 14.0493 10.8179C13.4607 10.3683 12.7406 10.1248 11.9999 10.125ZM11.9999 15.375C11.6291 15.375 11.2666 15.265 10.9582 15.059C10.6499 14.853 10.4096 14.5601 10.2677 14.2175C10.1258 13.8749 10.0886 13.4979 10.161 13.1342C10.2333 12.7705 10.4119 12.4364 10.6741 12.1742C10.9363 11.912 11.2704 11.7334 11.6341 11.661C11.9979 11.5887 12.3749 11.6258 12.7175 11.7677C13.0601 11.9096 13.3529 12.15 13.5589 12.4583C13.765 12.7666 13.8749 13.1292 13.8749 13.5C13.8744 13.9971 13.6767 14.4737 13.3252 14.8252C12.9736 15.1767 12.4971 15.3744 11.9999 15.375Z" fill="#1D1F21" style="fill: var(--ui-icon-primary-color);"/>
</svg>
