<svg  viewBox="0 0 24 24" fill="none" xmlns="http://www.w3.org/2000/svg" id="__THIS_ID_NEEDS_FOR_UI_ICON_COMPONENT__">
<path d="M17.25 20.9995C17.25 21.1984 17.171 21.3892 17.0303 21.5298C16.8897 21.6705 16.6989 21.7495 16.5 21.7495H7.54083C7.52719 21.7503 7.51355 21.7506 7.49991 21.7506C7.35889 21.7506 7.22076 21.7107 7.10133 21.6358C6.98191 21.5608 6.88603 21.4536 6.82469 21.3267C6.76336 21.1997 6.73905 21.058 6.75455 20.9178C6.77004 20.7777 6.82473 20.6447 6.91232 20.5342L15.1198 9.58217C15.4096 9.14765 15.6054 8.6574 15.6947 8.14282C15.7841 7.62824 15.7649 7.10068 15.6386 6.59392C15.5122 6.08717 15.2814 5.61238 14.961 5.19997C14.6405 4.78757 14.2375 4.44663 13.7777 4.199C13.3178 3.95137 12.8113 3.8025 12.2906 3.76192C11.7699 3.72135 11.2465 3.78997 10.7539 3.96338C10.2612 4.1368 9.81024 4.41119 9.42977 4.76898C9.04931 5.12677 8.74776 5.56007 8.54443 6.04114C8.46695 6.22434 8.31987 6.36926 8.13554 6.44402C7.9512 6.51878 7.74473 6.51724 7.56152 6.43976C7.37832 6.36228 7.2334 6.2152 7.15865 6.03087C7.08389 5.84653 7.08542 5.64006 7.1629 5.45685C7.448 4.78238 7.87103 4.175 8.4048 3.67372C8.93857 3.17244 9.57129 2.78835 10.2623 2.54611C10.9533 2.30388 11.6874 2.20886 12.4173 2.26716C13.1473 2.32545 13.8569 2.53578 14.5007 2.88463C15.1446 3.23348 15.7083 3.71313 16.1557 4.29278C16.6032 4.87242 16.9244 5.53925 17.0988 6.25043C17.2733 6.9616 17.297 7.7014 17.1686 8.42229C17.0401 9.14319 16.7623 9.82925 16.353 10.4364C16.3461 10.4466 16.3391 10.4565 16.3316 10.4663L9.00009 20.2495H16.5C16.6989 20.2495 16.8897 20.3285 17.0303 20.4692C17.171 20.6098 17.25 20.8006 17.25 20.9995Z" fill="#1D1F21" style="fill: var(--ui-icon-primary-color);"/>
</svg>
