<svg  viewBox="0 0 24 24" fill="none" xmlns="http://www.w3.org/2000/svg" id="__THIS_ID_NEEDS_FOR_UI_ICON_COMPONENT__">
<path d="M11.9999 2.25C10.0716 2.25 8.18651 2.82183 6.58313 3.89317C4.97975 4.96451 3.73007 6.48726 2.99212 8.26884C2.25416 10.0504 2.06108 12.0108 2.43729 13.9021C2.81349 15.7934 3.74209 17.5307 5.10565 18.8943C6.46921 20.2579 8.2065 21.1865 10.0978 21.5627C11.9891 21.9389 13.9495 21.7458 15.7311 21.0078C17.5127 20.2699 19.0354 19.0202 20.1068 17.4168C21.1781 15.8134 21.7499 13.9284 21.7499 12C21.747 9.41504 20.7188 6.93679 18.891 5.10894C17.0632 3.28109 14.5849 2.25293 11.9999 2.25ZM11.9999 20.25C10.3682 20.25 8.77319 19.7661 7.41649 18.8596C6.05978 17.9531 5.00236 16.6646 4.37794 15.1571C3.75351 13.6496 3.59014 11.9908 3.90846 10.3905C4.22679 8.79016 5.01253 7.32015 6.16631 6.16637C7.3201 5.01259 8.7901 4.22685 10.3904 3.90852C11.9908 3.59019 13.6496 3.75357 15.1571 4.37799C16.6646 5.00242 17.953 6.05984 18.8596 7.41655C19.7661 8.77325 20.2499 10.3683 20.2499 12C20.2475 14.1873 19.3775 16.2843 17.8308 17.8309C16.2842 19.3775 14.1872 20.2475 11.9999 20.25ZM14.6249 10.5V16.5C14.6249 16.6989 14.5459 16.8897 14.4053 17.0303C14.2646 17.171 14.0739 17.25 13.8749 17.25C13.676 17.25 13.4853 17.171 13.3446 17.0303C13.204 16.8897 13.1249 16.6989 13.1249 16.5V14.25H9.37494C9.255 14.25 9.1368 14.2212 9.03027 14.1661C8.92374 14.111 8.83199 14.0311 8.76271 13.9332C8.69343 13.8353 8.64864 13.7222 8.63211 13.6034C8.61558 13.4846 8.62778 13.3635 8.6677 13.2504L10.9175 6.87543C10.9503 6.78255 11.001 6.69704 11.0669 6.62377C11.1327 6.55051 11.2123 6.49092 11.3011 6.44843C11.39 6.40593 11.4863 6.38134 11.5847 6.37608C11.683 6.37082 11.7815 6.38498 11.8743 6.41775C11.9672 6.45053 12.0527 6.50127 12.126 6.5671C12.1993 6.63292 12.2588 6.71253 12.3013 6.80137C12.3438 6.89022 12.3684 6.98657 12.3737 7.08492C12.3789 7.18327 12.3648 7.2817 12.332 7.37457L10.4349 12.75H13.1249V10.5C13.1249 10.3011 13.204 10.1103 13.3446 9.96967C13.4853 9.82902 13.676 9.75 13.8749 9.75C14.0739 9.75 14.2646 9.82902 14.4053 9.96967C14.5459 10.1103 14.6249 10.3011 14.6249 10.5Z" fill="#1D1F21" style="fill: var(--ui-icon-primary-color);"/>
</svg>
