<svg  viewBox="0 0 24 24" fill="none" xmlns="http://www.w3.org/2000/svg" id="__THIS_ID_NEEDS_FOR_UI_ICON_COMPONENT__">
<path d="M13.125 7.875V16.5C13.125 16.6989 13.046 16.8897 12.9053 17.0303C12.7647 17.171 12.5739 17.25 12.375 17.25C12.1761 17.25 11.9853 17.171 11.8447 17.0303C11.704 16.8897 11.625 16.6989 11.625 16.5V9.27608L10.5409 9.99847C10.3754 10.1085 10.173 10.1483 9.97811 10.1092C9.78325 10.07 9.6119 9.95514 9.50168 9.78975C9.39146 9.62437 9.3514 9.42199 9.39028 9.22708C9.42917 9.03218 9.54383 8.86067 9.70908 8.75024L11.9591 7.25089C12.072 7.17561 12.2033 7.1324 12.3389 7.12586C12.4745 7.11933 12.6093 7.14971 12.729 7.21377C12.8486 7.27783 12.9487 7.37317 13.0184 7.48962C13.0882 7.60607 13.125 7.73926 13.125 7.875ZM21 4.5V19.5C20.9995 19.8977 20.8414 20.279 20.5602 20.5602C20.279 20.8414 19.8977 20.9995 19.5 21H4.5C4.10231 20.9995 3.72105 20.8414 3.43984 20.5602C3.15864 20.279 3.00045 19.8977 3 19.5V4.5C3.00045 4.10231 3.15864 3.72105 3.43984 3.43984C3.72105 3.15864 4.10231 3.00045 4.5 3H19.5C19.8977 3.00045 20.279 3.15864 20.5602 3.43984C20.8414 3.72105 20.9995 4.10231 21 4.5ZM19.5009 19.5L19.5 4.5H4.5V19.5H19.5L19.5009 19.5Z" fill="#1D1F21" style="fill: var(--ui-icon-primary-color);"/>
</svg>
