<svg  viewBox="0 0 24 24" fill="none" xmlns="http://www.w3.org/2000/svg" id="__THIS_ID_NEEDS_FOR_UI_ICON_COMPONENT__">
<path d="M11.9999 2.25C10.0716 2.25 8.18651 2.82183 6.58313 3.89317C4.97975 4.96451 3.73007 6.48726 2.99212 8.26884C2.25416 10.0504 2.06108 12.0108 2.43729 13.9021C2.81349 15.7934 3.74209 17.5307 5.10565 18.8943C6.46921 20.2579 8.2065 21.1865 10.0978 21.5627C11.9891 21.9389 13.9495 21.7458 15.7311 21.0078C17.5127 20.2699 19.0354 19.0202 20.1068 17.4168C21.1781 15.8134 21.7499 13.9284 21.7499 12C21.747 9.41504 20.7188 6.93679 18.891 5.10894C17.0632 3.28109 14.5849 2.25293 11.9999 2.25ZM11.9999 20.25C10.3682 20.25 8.77319 19.7661 7.41649 18.8596C6.05978 17.9531 5.00236 16.6646 4.37794 15.1571C3.75351 13.6496 3.59014 11.9908 3.90846 10.3905C4.22679 8.79016 5.01253 7.32015 6.16631 6.16637C7.3201 5.01259 8.7901 4.22685 10.3904 3.90852C11.9908 3.59019 13.6496 3.75357 15.1571 4.37799C16.6646 5.00242 17.953 6.05984 18.8596 7.41655C19.7661 8.77325 20.2499 10.3683 20.2499 12C20.2475 14.1873 19.3775 16.2843 17.8308 17.8309C16.2842 19.3775 14.1872 20.2475 11.9999 20.25ZM13.9768 11.5626C13.9807 11.5587 13.9848 11.5551 13.9887 11.5512C14.3821 11.1579 14.6499 10.6567 14.7584 10.1111C14.8669 9.56557 14.8112 9.00008 14.5983 8.48617C14.3854 7.97226 14.0249 7.53302 13.5624 7.22399C13.0999 6.91496 12.5561 6.75002 11.9999 6.75004C11.4436 6.75005 10.8999 6.91501 10.4374 7.22406C9.97485 7.53311 9.61437 7.97237 9.40151 8.48629C9.18865 9.00021 9.13296 9.56571 9.24149 10.1113C9.35002 10.6568 9.6179 11.158 10.0112 11.5513C10.0151 11.5551 10.0192 11.5587 10.0231 11.5626C9.92612 11.6392 9.83361 11.7214 9.74601 11.8086C9.30024 12.2543 8.99667 12.8223 8.87368 13.4406C8.7507 14.0589 8.81383 14.6998 9.05509 15.2823C9.29634 15.8647 9.7049 16.3625 10.2291 16.7127C10.7533 17.063 11.3695 17.2499 11.9999 17.2499C12.6304 17.2499 13.2466 17.063 13.7708 16.7127C14.295 16.3625 14.7035 15.8647 14.9448 15.2823C15.1861 14.6998 15.2492 14.0589 15.1262 13.4406C15.0032 12.8223 14.6997 12.2543 14.2539 11.8086C14.1663 11.7214 14.0738 11.6392 13.9768 11.5626ZM11.0719 10.4907C10.8571 10.2759 10.7234 9.99339 10.6936 9.69115C10.6638 9.38891 10.7397 9.08569 10.9084 8.83315C11.0771 8.58061 11.3282 8.39437 11.6188 8.30618C11.9094 8.218 12.2216 8.23331 12.5022 8.34951C12.7828 8.46571 13.0144 8.67561 13.1576 8.94345C13.3008 9.21129 13.3467 9.52048 13.2874 9.81836C13.2282 10.1162 13.0675 10.3843 12.8327 10.577C12.598 10.7697 12.3036 10.875 11.9999 10.875C11.8275 10.8755 11.6567 10.8417 11.4974 10.7758C11.3381 10.7098 11.1935 10.6129 11.0719 10.4907V10.4907ZM13.1932 15.2557C12.9171 15.5317 12.5539 15.7035 12.1654 15.7417C11.7769 15.78 11.3872 15.6823 11.0626 15.4654C10.738 15.2485 10.4987 14.9258 10.3854 14.5522C10.2721 14.1787 10.2919 13.7774 10.4412 13.4167C10.5906 13.0561 10.8605 12.7584 11.2048 12.5744C11.549 12.3904 11.9465 12.3314 12.3293 12.4076C12.7122 12.4838 13.0568 12.6903 13.3044 12.9921C13.5521 13.2938 13.6874 13.6721 13.6874 14.0625C13.6881 14.2842 13.6447 14.5038 13.5598 14.7086C13.475 14.9134 13.3504 15.0994 13.1931 15.2557L13.1932 15.2557Z" fill="#1D1F21" style="fill: var(--ui-icon-primary-color);"/>
</svg>
