<svg  viewBox="0 0 24 24" fill="none" xmlns="http://www.w3.org/2000/svg" id="__THIS_ID_NEEDS_FOR_UI_ICON_COMPONENT__">
<path d="M15.485 11.5064C16.6056 12.6365 17.2324 14.1649 17.2278 15.7564C17.2232 17.3479 16.5877 18.8726 15.4605 19.9962C14.3334 21.1197 12.8066 21.7505 11.2151 21.75C9.62364 21.7496 8.09727 21.118 6.97075 19.9938C6.90095 19.9243 6.84551 19.8417 6.80761 19.7508C6.76972 19.6599 6.7501 19.5624 6.74988 19.4639C6.74966 19.3654 6.76885 19.2679 6.80634 19.1768C6.84384 19.0857 6.89891 19.0029 6.96841 18.9331C7.03791 18.8633 7.12047 18.8079 7.21139 18.77C7.30231 18.7321 7.39981 18.7125 7.4983 18.7123C7.5968 18.7121 7.69437 18.7313 7.78545 18.7688C7.87652 18.8063 7.95932 18.8614 8.0291 18.9309C8.6583 19.5605 9.4601 19.9894 10.3331 20.1633C11.2061 20.3372 12.111 20.2483 12.9334 19.9078C13.7559 19.5673 14.4588 18.9905 14.9534 18.2505C15.448 17.5104 15.712 16.6403 15.712 15.7501C15.712 14.86 15.448 13.9899 14.9534 13.2498C14.4588 12.5097 13.7559 11.933 12.9334 11.5925C12.111 11.252 11.2061 11.1631 10.3331 11.3369C9.4601 11.5108 8.6583 11.9397 8.0291 12.5694C7.91679 12.6812 7.77192 12.7546 7.6153 12.779C7.45868 12.8034 7.29836 12.7775 7.15735 12.7051C7.01634 12.6327 6.90189 12.5175 6.83044 12.376C6.75898 12.2345 6.7342 12.0741 6.75964 11.9176L8.22869 2.8797C8.25726 2.70395 8.34743 2.5441 8.48306 2.42873C8.61868 2.31337 8.79093 2.25001 8.96898 2.25H16.4999C16.6988 2.25 16.8896 2.32902 17.0303 2.46967C17.1709 2.61032 17.2499 2.80109 17.2499 3C17.2499 3.19891 17.1709 3.38968 17.0303 3.53033C16.8896 3.67098 16.6988 3.75 16.4999 3.75H9.60692L8.52871 10.3833C9.66024 9.82051 10.9396 9.62618 12.1872 9.82762C13.4348 10.0291 14.5881 10.6161 15.485 11.5064L15.485 11.5064Z" fill="#1D1F21" style="fill: var(--ui-icon-primary-color);"/>
</svg>
