<svg  viewBox="0 0 24 24" fill="none" xmlns="http://www.w3.org/2000/svg" id="__THIS_ID_NEEDS_FOR_UI_ICON_COMPONENT__">
<path d="M17.1892 11.2598C17.199 11.2435 17.2074 11.2266 17.2158 11.2099C17.9042 9.99469 18.1466 8.57732 17.9013 7.20247C17.6559 5.82761 16.9382 4.58157 15.8721 3.67948C14.8059 2.7774 13.4583 2.27589 12.0618 2.26155C10.6653 2.24721 9.3076 2.72094 8.22316 3.60094C7.13872 4.48094 6.39559 5.71199 6.12207 7.08151C5.84856 8.45104 6.06183 9.87309 6.72506 11.1021C7.3883 12.3312 8.45986 13.2901 9.75474 13.8132C11.0496 14.3364 12.4865 14.391 13.8174 13.9676L9.8334 20.6141C9.78265 20.6986 9.74904 20.7923 9.7345 20.8897C9.71996 20.9872 9.72478 21.0866 9.74867 21.1822C9.77256 21.2778 9.81507 21.3678 9.87375 21.4469C9.93244 21.5261 10.0061 21.593 10.0907 21.6436C10.1752 21.6943 10.2689 21.7278 10.3664 21.7422C10.4639 21.7567 10.5632 21.7518 10.6588 21.7278C10.7544 21.7038 10.8443 21.6612 10.9235 21.6024C11.0026 21.5436 11.0693 21.4699 11.1199 21.3853L17.1272 11.3634C17.1298 11.3589 17.1325 11.3545 17.1351 11.35L17.1892 11.2598ZM12.0001 12.7497C11.0054 12.7506 10.0383 12.4222 9.24983 11.8158C8.46135 11.2093 7.89581 10.3589 7.64146 9.39725C7.3871 8.43559 7.45824 7.41677 7.84378 6.49979C8.22932 5.58282 8.90756 4.81925 9.77267 4.32826C10.6378 3.83727 11.6411 3.64647 12.626 3.78563C13.611 3.92479 14.5222 4.38609 15.2174 5.09754C15.9126 5.80899 16.3528 6.73057 16.4692 7.71846C16.5856 8.70636 16.3717 9.705 15.8608 10.5586L15.8395 10.5942C15.4377 11.2522 14.8736 11.796 14.2013 12.1734C13.5291 12.5509 12.7711 12.7493 12.0001 12.7497Z" fill="#1D1F21" style="fill: var(--ui-icon-primary-color);"/>
</svg>
