<svg  viewBox="0 0 24 24" fill="none" xmlns="http://www.w3.org/2000/svg" id="__THIS_ID_NEEDS_FOR_UI_ICON_COMPONENT__">
<path d="M11.9999 2.25C10.0716 2.25 8.18651 2.82183 6.58313 3.89317C4.97975 4.96451 3.73007 6.48726 2.99212 8.26884C2.25416 10.0504 2.06108 12.0108 2.43729 13.9021C2.81349 15.7934 3.74209 17.5307 5.10565 18.8943C6.46921 20.2579 8.2065 21.1865 10.0978 21.5627C11.9891 21.9389 13.9495 21.7458 15.7311 21.0078C17.5127 20.2699 19.0354 19.0202 20.1068 17.4168C21.1781 15.8134 21.7499 13.9284 21.7499 12C21.747 9.41504 20.7188 6.93679 18.891 5.10894C17.0632 3.28109 14.5849 2.25293 11.9999 2.25ZM11.9999 20.25C10.3682 20.25 8.77319 19.7661 7.41649 18.8596C6.05978 17.9531 5.00236 16.6646 4.37794 15.1571C3.75351 13.6496 3.59014 11.9908 3.90846 10.3905C4.22679 8.79016 5.01253 7.32015 6.16631 6.16637C7.3201 5.01259 8.7901 4.22685 10.3904 3.90852C11.9908 3.59019 13.6496 3.75357 15.1571 4.37799C16.6646 5.00242 17.953 6.05984 18.8596 7.41655C19.7661 8.77325 20.2499 10.3683 20.2499 12C20.2475 14.1873 19.3775 16.2843 17.8308 17.8309C16.2842 19.3775 14.1872 20.2475 11.9999 20.25ZM11.9999 7.125C11.1048 7.125 10.2464 7.48058 9.61346 8.11351C8.98052 8.74645 8.62494 9.60489 8.62494 10.5C8.62494 11.3951 8.98052 12.2535 9.61346 12.8865C10.2464 13.5194 11.1048 13.875 11.9999 13.875C12.0572 13.875 12.1141 13.8736 12.1707 13.8707L10.6061 16.4904C10.5555 16.5749 10.5222 16.6686 10.5079 16.7661C10.4936 16.8635 10.4986 16.9628 10.5227 17.0583C10.5468 17.1538 10.5894 17.2437 10.6482 17.3227C10.707 17.4017 10.7808 17.4684 10.8653 17.5189C10.9499 17.5694 11.0436 17.6028 11.141 17.6171C11.2385 17.6314 11.3378 17.6263 11.4333 17.6023C11.5288 17.5782 11.6186 17.5355 11.6976 17.4767C11.7767 17.4179 11.8433 17.3442 11.8938 17.2596L14.9172 12.1976C14.9262 12.1824 14.9339 12.1668 14.9417 12.1513C15.2305 11.6379 15.3799 11.0579 15.3748 10.4688C15.3698 9.87984 15.2106 9.30241 14.913 8.79405C14.6155 8.28569 14.19 7.86411 13.6789 7.57129C13.1678 7.27846 12.589 7.12459 11.9999 7.125ZM10.1249 10.5C10.1249 10.1292 10.2349 9.76665 10.4409 9.45831C10.647 9.14996 10.9398 8.90964 11.2824 8.76773C11.625 8.62581 12.002 8.58868 12.3657 8.66103C12.7295 8.73337 13.0635 8.91195 13.3258 9.17417C13.588 9.4364 13.7666 9.77049 13.8389 10.1342C13.9113 10.4979 13.8741 10.8749 13.7322 11.2175C13.5903 11.5601 13.35 11.853 13.0416 12.059C12.7333 12.265 12.3708 12.375 11.9999 12.375C11.5028 12.3744 11.0262 12.1767 10.6747 11.8252C10.3232 11.4737 10.1255 10.9971 10.1249 10.5Z" fill="#1D1F21" style="fill: var(--ui-icon-primary-color);"/>
</svg>
