<svg  viewBox="0 0 24 24" fill="none" xmlns="http://www.w3.org/2000/svg" id="__THIS_ID_NEEDS_FOR_UI_ICON_COMPONENT__">
<path d="M11.9999 2.25C10.0716 2.25 8.18651 2.82183 6.58313 3.89317C4.97975 4.96451 3.73007 6.48726 2.99212 8.26884C2.25416 10.0504 2.06108 12.0108 2.43729 13.9021C2.81349 15.7934 3.74209 17.5307 5.10565 18.8943C6.46921 20.2579 8.2065 21.1865 10.0978 21.5627C11.9891 21.9389 13.9495 21.7458 15.7311 21.0078C17.5127 20.2699 19.0354 19.0202 20.1068 17.4168C21.1781 15.8134 21.7499 13.9284 21.7499 12C21.747 9.41504 20.7188 6.93679 18.891 5.10894C17.0632 3.28109 14.5849 2.25293 11.9999 2.25ZM11.9999 20.25C10.3682 20.25 8.77319 19.7661 7.41649 18.8596C6.05978 17.9531 5.00236 16.6646 4.37794 15.1571C3.75351 13.6496 3.59014 11.9908 3.90846 10.3905C4.22679 8.79016 5.01253 7.32015 6.16631 6.16637C7.3201 5.01259 8.7901 4.22685 10.3904 3.90852C11.9908 3.59019 13.6496 3.75357 15.1571 4.37799C16.6646 5.00242 17.953 6.05984 18.8596 7.41655C19.7661 8.77325 20.2499 10.3683 20.2499 12C20.2475 14.1873 19.3775 16.2843 17.8308 17.8309C16.2842 19.3775 14.1872 20.2475 11.9999 20.25ZM13.1249 7.875V16.5C13.1249 16.6989 13.0459 16.8897 12.9053 17.0303C12.7646 17.171 12.5739 17.25 12.3749 17.25C12.176 17.25 11.9853 17.171 11.8446 17.0303C11.704 16.8897 11.6249 16.6989 11.6249 16.5V9.27603L10.5409 9.99847C10.4589 10.0532 10.367 10.0913 10.2703 10.1105C10.1736 10.1297 10.0741 10.1297 9.97741 10.1104C9.88074 10.0911 9.78882 10.053 9.70691 9.99812C9.625 9.94328 9.5547 9.87284 9.50004 9.79081C9.44537 9.70878 9.40741 9.61678 9.38833 9.52008C9.36925 9.42337 9.36942 9.32385 9.38883 9.22721C9.40824 9.13056 9.44651 9.03869 9.50145 8.95685C9.55639 8.87501 9.62693 8.8048 9.70902 8.75024L11.959 7.25089C12.072 7.17562 12.2032 7.13242 12.3388 7.12589C12.4744 7.11936 12.6092 7.14975 12.7289 7.2138C12.8485 7.27786 12.9486 7.37319 13.0183 7.48964C13.0881 7.60608 13.1249 7.73927 13.1249 7.875Z" fill="#1D1F21" style="fill: var(--ui-icon-primary-color);"/>
</svg>
