<svg  viewBox="0 0 24 24" fill="none" xmlns="http://www.w3.org/2000/svg" id="__THIS_ID_NEEDS_FOR_UI_ICON_COMPONENT__">
<path d="M15.4172 21.75H8.58268C8.38561 21.7505 8.19039 21.712 8.00832 21.6366C7.82625 21.5611 7.66095 21.4504 7.52199 21.3106L2.68928 16.4779C2.54956 16.339 2.43878 16.1737 2.36337 15.9916C2.28796 15.8095 2.2494 15.6143 2.24994 15.4173V8.58275C2.2494 8.38569 2.28796 8.19047 2.36337 8.0084C2.43879 7.82633 2.54956 7.66103 2.68929 7.52207L7.52202 2.68937C7.66098 2.54963 7.82627 2.43885 8.00834 2.36344C8.1904 2.28802 8.38562 2.24947 8.58268 2.25001H15.4172C15.6143 2.24946 15.8095 2.28802 15.9916 2.36343C16.1736 2.43885 16.3389 2.54963 16.4779 2.68937L21.3106 7.52207C21.4503 7.66104 21.5611 7.82634 21.6365 8.00841C21.7119 8.19047 21.7505 8.38569 21.7499 8.58275V15.4173C21.7505 15.6143 21.7119 15.8095 21.6365 15.9916C21.5611 16.1737 21.4503 16.339 21.3106 16.4779L16.4779 21.3106C16.3389 21.4504 16.1736 21.5612 15.9916 21.6366C15.8095 21.712 15.6143 21.7505 15.4172 21.75ZM8.58268 3.75001L3.74994 8.58273V15.4173L8.58268 20.25L15.4172 20.25L20.2499 15.4173V8.58275L15.4172 3.75001H8.58268Z" fill="#1D1F21" style="fill: var(--ui-icon-primary-color);"/>
</svg>
