<svg  viewBox="0 0 24 24" fill="none" xmlns="http://www.w3.org/2000/svg" id="__THIS_ID_NEEDS_FOR_UI_ICON_COMPONENT__">
<g clip-path="url(#clip0)">
<path d="M20.6894 11.6246C20.6899 11.4275 20.6513 11.2323 20.5759 11.0503C20.5005 10.8682 20.3897 10.7029 20.25 10.564L12.3106 2.62451C12.0291 2.3437 11.6476 2.18602 11.2499 2.18604C10.8523 2.18605 10.4708 2.34377 10.1893 2.62461L7.49969 5.3142L5.2045 3.01901C5.06385 2.87835 4.87308 2.79933 4.67416 2.79932C4.47525 2.79931 4.28447 2.87832 4.14381 3.01897C4.00315 3.15962 3.92412 3.35039 3.92411 3.5493C3.92411 3.74822 4.00312 3.93899 4.14377 4.07966L6.43901 6.37491L1.50009 11.3139C1.36078 11.4532 1.25027 11.6185 1.17486 11.8005C1.09946 11.9825 1.06065 12.1776 1.06064 12.3745C1.06063 12.5715 1.09943 12.7666 1.17481 12.9486C1.2502 13.1306 1.3607 13.296 1.5 13.4352L9.43927 21.3746L9.43936 21.3747C9.72094 21.6555 10.1024 21.8132 10.5001 21.8132C10.8977 21.8132 11.2792 21.6555 11.5607 21.3746L20.2499 12.6853C20.3897 12.5464 20.5005 12.3811 20.5759 12.199C20.6513 12.0169 20.6899 11.8217 20.6894 11.6246ZM10.5006 20.3146L10.5 20.314L2.56073 12.3746L7.4997 7.43559L9.69108 9.62697C9.39119 10.1816 9.30097 10.8257 9.43692 11.4415C9.57287 12.0572 9.92591 12.6034 10.4315 12.9802C10.937 13.357 11.5614 13.5393 12.1903 13.4937C12.8192 13.448 13.4106 13.1776 13.8565 12.7317C14.3023 12.2858 14.5728 11.6944 14.6185 11.0655C14.6641 10.4366 14.4818 9.81224 14.105 9.30668C13.7282 8.80111 13.182 8.44808 12.5662 8.31212C11.9505 8.17617 11.3064 8.26639 10.7518 8.56629L8.56037 6.37488L11.25 3.68525L19.1893 11.6246L10.5006 20.3146ZM12 9.75066C12.2602 9.75083 12.5122 9.84119 12.7132 10.0064C12.9142 10.1715 13.0517 10.4013 13.1023 10.6565C13.1529 10.9116 13.1135 11.1765 12.9907 11.4058C12.868 11.6352 12.6695 11.8149 12.429 11.9143C12.1886 12.0138 11.9212 12.0268 11.6723 11.9511C11.4234 11.8755 11.2084 11.7158 11.064 11.4995C10.9195 11.2831 10.8546 11.0233 10.8802 10.7644C10.9059 10.5055 11.0205 10.2635 11.2045 10.0797C11.3089 9.97513 11.4329 9.89226 11.5694 9.8358C11.7059 9.77934 11.8523 9.75041 12 9.75066ZM21.9054 14.0943C21.8357 14.0247 21.753 13.9694 21.662 13.9317C21.571 13.894 21.4735 13.8746 21.375 13.8746C21.2765 13.8746 21.179 13.894 21.088 13.9317C20.997 13.9694 20.9143 14.0247 20.8446 14.0943C20.759 14.1799 18.75 16.2144 18.75 18.3746C18.75 19.0708 19.0266 19.7385 19.5188 20.2308C20.0111 20.723 20.6788 20.9996 21.375 20.9996C22.0712 20.9996 22.7389 20.723 23.2312 20.2308C23.7234 19.7385 24 19.0708 24 18.3746C24 16.2144 21.991 14.1799 21.9054 14.0943ZM21.375 19.4996C21.0767 19.4993 20.7908 19.3806 20.5799 19.1697C20.369 18.9588 20.2503 18.6729 20.25 18.3746C20.25 17.4643 20.8599 16.4478 21.3761 15.7727C21.8918 16.4458 22.5 17.4594 22.5 18.3746C22.4997 18.6729 22.381 18.9588 22.1701 19.1697C21.9592 19.3806 21.6733 19.4993 21.375 19.4996Z" fill="#1D1F21" style="fill: var(--ui-icon-primary-color);"/>
</g>
<defs>
<clipPath id="clip0">
<rect  fill="white" style="fill: var(--ui-icon-secondary-color);"/>
</clipPath>
</defs>
</svg>
