<svg  viewBox="0 0 24 24" fill="none" xmlns="http://www.w3.org/2000/svg" id="__THIS_ID_NEEDS_FOR_UI_ICON_COMPONENT__">
<path d="M19.5 2.25H6.75C5.75578 2.25113 4.80261 2.64658 4.0996 3.3496C3.39658 4.05261 3.00113 5.00578 3 6V13.5C3.00045 13.8977 3.15864 14.279 3.43984 14.5602C3.72105 14.8414 4.10231 14.9995 4.5 15H9.63524L9.00755 19.3939C9.00252 19.429 9 19.4645 9 19.5C9 20.2956 9.31607 21.0587 9.87868 21.6213C10.4413 22.1839 11.2044 22.5 12 22.5C12.7956 22.5 13.5587 22.1839 14.1213 21.6213C14.6839 21.0587 15 20.2956 15 19.5C15 19.4645 14.9975 19.429 14.9924 19.3939L14.3648 15H19.5C19.8977 14.9995 20.279 14.8414 20.5602 14.5602C20.8414 14.279 20.9995 13.8977 21 13.5V3.75C20.9995 3.35231 20.8414 2.97105 20.5602 2.68984C20.279 2.40864 19.8977 2.25045 19.5 2.25ZM6.75 3.75H15V6.75C15 6.94891 15.079 7.13968 15.2197 7.28033C15.3603 7.42098 15.5511 7.5 15.75 7.5C15.9489 7.5 16.1397 7.42098 16.2803 7.28033C16.421 7.13968 16.5 6.94891 16.5 6.75V3.75H19.5L19.5006 9.75H4.5V6C4.50068 5.40347 4.73795 4.83157 5.15976 4.40976C5.58157 3.98795 6.15347 3.75068 6.75 3.75ZM13.4992 19.548C13.4868 19.9373 13.3234 20.3065 13.0436 20.5775C12.7638 20.8485 12.3895 21 12 21C11.6105 21 11.2362 20.8485 10.9564 20.5775C10.6766 20.3065 10.5132 19.9373 10.5008 19.548L11.1505 15H12.8495L13.4992 19.548ZM19.5 13.5H4.5V11.25H19.5007L19.501 13.5H19.5Z" fill="#1D1F21" style="fill: var(--ui-icon-primary-color);"/>
</svg>
