<svg  viewBox="0 0 24 24" fill="none" xmlns="http://www.w3.org/2000/svg" id="__THIS_ID_NEEDS_FOR_UI_ICON_COMPONENT__">
<path d="M19.6551 11.4702C19.7956 11.6109 19.8745 11.8018 19.8744 12.0007C19.8742 12.1996 19.7951 12.3903 19.6544 12.5308L11.9619 20.2133C11.4743 20.7008 10.8956 21.0875 10.2586 21.3513C9.62162 21.6151 8.93893 21.7508 8.24949 21.7508C6.8571 21.7507 5.52177 21.1975 4.53725 20.2129C3.55274 19.2283 2.99968 17.8929 2.99976 16.5005C2.99983 15.1081 3.55302 13.7728 4.53764 12.7883L13.8441 3.35232C14.1919 3.0034 14.6052 2.72646 15.0601 2.53732C15.5151 2.34818 16.0028 2.25054 16.4955 2.25C16.9882 2.24946 17.4762 2.34602 17.9316 2.53416C18.387 2.7223 18.8008 2.99833 19.1494 3.34648C19.4981 3.69463 19.7747 4.10808 19.9635 4.56318C20.1522 5.01829 20.2495 5.50613 20.2496 5.99884C20.2498 6.49154 20.1528 6.97944 19.9643 7.43466C19.7758 7.88988 19.4994 8.30349 19.151 8.65185L9.84455 18.0879C9.63591 18.2973 9.38806 18.4635 9.11515 18.5771C8.84224 18.6907 8.54963 18.7494 8.25404 18.7498C7.95845 18.7502 7.66566 18.6924 7.39242 18.5797C7.11918 18.4669 6.87083 18.3014 6.66158 18.0926C6.45232 17.8839 6.28625 17.6359 6.17286 17.3629C6.05947 17.0899 6.00099 16.7973 6.00075 16.5017C6.0005 16.2061 6.05851 15.9133 6.17145 15.6402C6.28439 15.367 6.45005 15.1188 6.65896 14.9097L14.4647 6.97423C14.6042 6.83243 14.7943 6.75185 14.9932 6.75022C15.1921 6.74859 15.3835 6.82604 15.5253 6.96554C15.6671 7.10503 15.7477 7.29515 15.7494 7.49405C15.751 7.69296 15.6735 7.88437 15.534 8.02617L7.72395 15.966C7.65346 16.0352 7.59734 16.1177 7.55882 16.2087C7.52029 16.2997 7.50013 16.3974 7.49947 16.4962C7.49882 16.595 7.5177 16.6929 7.55502 16.7844C7.59234 16.8759 7.64736 16.9591 7.71694 17.0292C7.78651 17.0994 7.86926 17.1551 7.96043 17.1932C8.0516 17.2312 8.14939 17.2509 8.24819 17.2511C8.34699 17.2513 8.44485 17.2319 8.53615 17.1941C8.62745 17.1564 8.71039 17.1009 8.7802 17.031L18.0867 7.59487C18.2963 7.38627 18.4627 7.1384 18.5764 6.86545C18.6901 6.59249 18.7489 6.2998 18.7494 6.00411C18.7499 5.70842 18.6921 5.41553 18.5794 5.14218C18.4666 4.86884 18.3011 4.6204 18.0922 4.41107C17.8834 4.20175 17.6353 4.03564 17.3622 3.92225C17.0891 3.80886 16.7964 3.75042 16.5007 3.75025C16.205 3.75008 15.9122 3.80821 15.639 3.92129C15.3657 4.03437 15.1175 4.2002 14.9084 4.40929L5.60194 13.8453C5.25302 14.1931 4.97607 14.6064 4.78693 15.0613C4.59778 15.5163 4.50015 16.0041 4.49961 16.4968C4.49907 16.9895 4.59563 17.4775 4.78377 17.9329C4.97192 18.3882 5.24796 18.8021 5.59611 19.1507C5.94427 19.4994 6.35772 19.776 6.81283 19.9648C7.26794 20.1535 7.7558 20.2508 8.24851 20.2509C8.74122 20.2511 9.22913 20.1541 9.68436 19.9656C10.1396 19.7771 10.5532 19.5007 10.9016 19.1523L18.5944 11.4696C18.6641 11.3999 18.7468 11.3447 18.8378 11.3071C18.9288 11.2694 19.0264 11.2501 19.1248 11.2502C19.2233 11.2502 19.3209 11.2697 19.4118 11.3074C19.5028 11.3452 19.5855 11.4005 19.6551 11.4702Z" fill="#1D1F21" style="fill: var(--ui-icon-primary-color);"/>
</svg>
