<svg  viewBox="0 0 24 24" fill="none" xmlns="http://www.w3.org/2000/svg" id="__THIS_ID_NEEDS_FOR_UI_ICON_COMPONENT__">
<path d="M18.75 15.75C18.0851 15.7509 17.4392 15.9722 16.9136 16.3793C16.3879 16.7865 16.0121 17.3564 15.8449 18H6.75C5.95435 18 5.19129 17.6839 4.62868 17.1213C4.06607 16.5587 3.75 15.7956 3.75 15C3.75 14.2044 4.06607 13.4413 4.62868 12.8787C5.19129 12.3161 5.95435 12 6.75 12H15.75C16.7446 12 17.6984 11.6049 18.4016 10.9017C19.1049 10.1984 19.5 9.24456 19.5 8.25C19.5 7.25544 19.1049 6.30161 18.4016 5.59835C17.6984 4.89509 16.7446 4.5 15.75 4.5H6.75C6.55109 4.5 6.36032 4.57902 6.21967 4.71967C6.07902 4.86032 6 5.05109 6 5.25C6 5.44891 6.07902 5.63968 6.21967 5.78033C6.36032 5.92098 6.55109 6 6.75 6H15.75C16.3467 6 16.919 6.23705 17.341 6.65901C17.7629 7.08097 18 7.65326 18 8.25C18 8.84674 17.7629 9.41903 17.341 9.84099C16.919 10.2629 16.3467 10.5 15.75 10.5H6.75C5.55653 10.5 4.41193 10.9741 3.56802 11.818C2.72411 12.6619 2.25 13.8065 2.25 15C2.25 16.1935 2.72411 17.3381 3.56802 18.182C4.41193 19.0259 5.55653 19.5 6.75 19.5H15.8449C15.9852 20.0433 16.275 20.5364 16.6815 20.9233C17.0879 21.3101 17.5947 21.5753 18.1443 21.6885C18.6939 21.8018 19.2642 21.7587 19.7905 21.564C20.3168 21.3694 20.7779 21.0311 21.1216 20.5875C21.4652 20.1439 21.6776 19.6128 21.7345 19.0546C21.7915 18.4963 21.6907 17.9333 21.4437 17.4295C21.1967 16.9256 20.8133 16.5012 20.3372 16.2043C19.861 15.9074 19.3111 15.75 18.75 15.75ZM18.75 20.25C18.4533 20.25 18.1633 20.162 17.9166 19.9972C17.67 19.8324 17.4777 19.5981 17.3642 19.324C17.2506 19.0499 17.2209 18.7483 17.2788 18.4574C17.3367 18.1664 17.4796 17.8991 17.6893 17.6893C17.8991 17.4796 18.1664 17.3367 18.4574 17.2788C18.7483 17.2209 19.0499 17.2506 19.324 17.3642C19.5981 17.4777 19.8324 17.67 19.9972 17.9166C20.162 18.1633 20.25 18.4533 20.25 18.75C20.2495 19.1477 20.0914 19.529 19.8102 19.8102C19.529 20.0914 19.1477 20.2495 18.75 20.25Z" fill="#1D1F21" style="fill: var(--ui-icon-primary-color);"/>
</svg>
