<svg  viewBox="0 0 24 24" fill="none" xmlns="http://www.w3.org/2000/svg" id="__THIS_ID_NEEDS_FOR_UI_ICON_COMPONENT__">
<path d="M11.9999 2.25C10.0716 2.25 8.18651 2.82183 6.58313 3.89317C4.97975 4.96451 3.73007 6.48726 2.99212 8.26884C2.25416 10.0504 2.06108 12.0108 2.43729 13.9021C2.81349 15.7934 3.74209 17.5307 5.10565 18.8943C6.46921 20.2579 8.2065 21.1865 10.0978 21.5627C11.9891 21.9389 13.9495 21.7458 15.7311 21.0078C17.5127 20.2699 19.0354 19.0202 20.1068 17.4168C21.1781 15.8134 21.7499 13.9284 21.7499 12C21.747 9.41504 20.7188 6.93679 18.891 5.10894C17.0632 3.28109 14.5849 2.25293 11.9999 2.25ZM11.9999 20.25C10.3682 20.25 8.77319 19.7661 7.41649 18.8596C6.05978 17.9531 5.00236 16.6646 4.37794 15.1571C3.75351 13.6496 3.59014 11.9908 3.90846 10.3905C4.22679 8.79016 5.01253 7.32015 6.16631 6.16637C7.3201 5.01259 8.7901 4.22685 10.3904 3.90852C11.9908 3.59019 13.6496 3.75357 15.1571 4.37799C16.6646 5.00242 17.953 6.05984 18.8596 7.41655C19.7661 8.77325 20.2499 10.3683 20.2499 12C20.2475 14.1873 19.3775 16.2843 17.8308 17.8309C16.2842 19.3775 14.1872 20.2475 11.9999 20.25ZM10.4999 9V15C10.4999 15.1989 10.4209 15.3897 10.2803 15.5303C10.1396 15.671 9.94886 15.75 9.74994 15.75C9.55103 15.75 9.36027 15.671 9.21961 15.5303C9.07896 15.3897 8.99994 15.1989 8.99994 15V9C8.99994 8.80109 9.07896 8.61032 9.21961 8.46967C9.36027 8.32902 9.55103 8.25 9.74994 8.25C9.94886 8.25 10.1396 8.32902 10.2803 8.46967C10.4209 8.61032 10.4999 8.80109 10.4999 9ZM14.9999 9V15C14.9999 15.1989 14.9209 15.3897 14.7803 15.5303C14.6396 15.671 14.4489 15.75 14.2499 15.75C14.051 15.75 13.8603 15.671 13.7196 15.5303C13.579 15.3897 13.4999 15.1989 13.4999 15V9C13.4999 8.80109 13.579 8.61032 13.7196 8.46967C13.8603 8.32902 14.051 8.25 14.2499 8.25C14.4489 8.25 14.6396 8.32902 14.7803 8.46967C14.9209 8.61032 14.9999 8.80109 14.9999 9Z" fill="#1D1F21" style="fill: var(--ui-icon-primary-color);"/>
</svg>
