<svg  viewBox="0 0 24 24" fill="none" xmlns="http://www.w3.org/2000/svg" id="__THIS_ID_NEEDS_FOR_UI_ICON_COMPONENT__">
<path d="M20.0285 17.5258C21.037 16.0622 21.6263 14.3508 21.7325 12.5765C21.8388 10.8022 21.458 9.03266 20.6313 7.45914C19.8047 5.88562 18.5636 4.56801 17.0423 3.64877C15.5211 2.72954 13.7774 2.24365 12 2.24365C10.2225 2.24365 8.47889 2.72954 6.9576 3.64877C5.43631 4.56801 4.19525 5.88562 3.36859 7.45914C2.54194 9.03266 2.16116 10.8022 2.26741 12.5765C2.37366 14.3508 2.96291 16.0622 3.97144 17.5258C3.98418 17.5489 3.99812 17.5712 4.01319 17.5928C4.02445 17.6089 4.03713 17.6233 4.0494 17.6382C4.94943 18.9093 6.14108 19.946 7.52445 20.6615C8.90782 21.377 10.4426 21.7504 12 21.7504C13.5575 21.7504 15.0922 21.377 16.4756 20.6615C17.8589 19.9459 19.0506 18.9092 19.9506 17.6381C19.9629 17.6232 19.9755 17.6088 19.9868 17.5928C20.0018 17.5712 20.0158 17.5489 20.0285 17.5258ZM20.25 12.0004C20.2517 13.4381 19.8754 14.8511 19.1588 16.0975L12.75 11.61V3.78485C14.7987 3.97437 16.7029 4.92156 18.09 6.44105C19.4772 7.96054 20.2474 9.94297 20.25 12.0004ZM11.25 3.78485V11.61L4.84114 16.0975C4.15416 14.8984 3.77953 13.5459 3.75165 12.1642C3.72377 10.7826 4.04355 9.41603 4.68161 8.1902C5.31966 6.96437 6.25553 5.91854 7.40325 5.14878C8.55096 4.37901 9.87371 3.91001 11.25 3.78485ZM5.70357 17.3248L11.25 13.4412V20.216C9.09307 20.0186 7.10059 18.9799 5.70357 17.3248V17.3248ZM12.75 20.216V13.4412L18.2964 17.3248C16.8994 18.9799 14.9069 20.0186 12.75 20.216Z" fill="#1D1F21" style="fill: var(--ui-icon-primary-color);"/>
</svg>
