<svg  viewBox="0 0 24 24" fill="none" xmlns="http://www.w3.org/2000/svg" id="__THIS_ID_NEEDS_FOR_UI_ICON_COMPONENT__">
<path d="M15.3644 4.125C15.3644 3.45749 15.1665 2.80497 14.7956 2.24995C14.4248 1.69494 13.8977 1.26235 13.281 1.00691C12.6643 0.751462 11.9857 0.684626 11.331 0.814851C10.6763 0.945076 10.0749 1.26651 9.60293 1.73852C9.13093 2.21052 8.80949 2.81189 8.67926 3.46657C8.54904 4.12126 8.61588 4.79986 8.87132 5.41656C9.12677 6.03326 9.55935 6.56036 10.1144 6.93121C10.6694 7.30206 11.3219 7.5 11.9894 7.5C12.8842 7.49899 13.7421 7.14309 14.3748 6.51037C15.0075 5.87766 15.3634 5.0198 15.3644 4.125ZM11.9894 6C11.6186 6 11.2561 5.89003 10.9477 5.68401C10.6394 5.47798 10.3991 5.18514 10.2571 4.84253C10.1152 4.49992 10.0781 4.12292 10.1504 3.75921C10.2228 3.39549 10.4014 3.0614 10.6636 2.79918C10.9258 2.53695 11.2599 2.35838 11.6236 2.28603C11.9873 2.21368 12.3643 2.25081 12.7069 2.39273C13.0496 2.53464 13.3424 2.77497 13.5484 3.08331C13.7544 3.39165 13.8644 3.75416 13.8644 4.125C13.8639 4.62211 13.6661 5.0987 13.3146 5.45021C12.9631 5.80172 12.4865 5.99944 11.9894 6ZM19.8445 13.0794L16.1573 8.33872C16.1382 8.31417 16.1176 8.29084 16.0956 8.26886C15.8524 8.02434 15.5632 7.83048 15.2445 7.69851C14.9259 7.56653 14.5843 7.49906 14.2394 7.5H9.73941C9.39454 7.49906 9.05291 7.56653 8.73429 7.69851C8.41567 7.83048 8.12638 8.02434 7.88318 8.26886C7.8612 8.29084 7.84063 8.31417 7.82157 8.33872L4.13428 13.0795C3.7989 13.4342 3.6151 13.9058 3.62195 14.3939C3.6288 14.8821 3.82577 15.3483 4.17098 15.6935C4.51619 16.0387 4.98242 16.2356 5.47056 16.2425C5.9587 16.2493 6.43027 16.0655 6.78501 15.7301L8.10685 14.7019L6.2476 20.5744C6.05444 21.0224 6.04346 21.5279 6.21698 21.9838C6.3905 22.4397 6.73486 22.8101 7.17696 23.0162C7.61907 23.2224 8.12411 23.2481 8.58488 23.088C9.04566 22.9278 9.42588 22.5944 9.64484 22.1585L11.9894 18.4686L14.334 22.1585C14.5529 22.5944 14.9332 22.9278 15.394 23.088C15.8547 23.2481 16.3598 23.2224 16.8019 23.0163C17.244 22.8101 17.5884 22.4398 17.7619 21.9839C17.9354 21.5279 17.9244 21.0224 17.7312 20.5744L15.872 14.7019L17.1938 15.7301C17.5486 16.0655 18.0201 16.2493 18.5083 16.2425C18.9964 16.2357 19.4627 16.0387 19.8079 15.6935C20.1531 15.3483 20.3501 14.882 20.3569 14.3939C20.3637 13.9057 20.1799 13.4341 19.8445 13.0794H19.8445ZM18.7473 14.6328C18.6769 14.703 18.5815 14.7424 18.4821 14.7424C18.3826 14.7424 18.2872 14.703 18.2168 14.6328C18.1948 14.6108 18.1715 14.5902 18.147 14.5711L14.8895 12.0375C14.7632 11.9393 14.6088 11.884 14.4489 11.8798C14.289 11.8756 14.1319 11.9226 14.0006 12.014C13.8693 12.1054 13.7706 12.2364 13.7191 12.3879C13.6675 12.5394 13.6658 12.7034 13.7141 12.8559L16.3141 21.0678C16.3239 21.0988 16.3357 21.129 16.3494 21.1584C16.3915 21.2486 16.396 21.3517 16.3619 21.4452C16.3279 21.5387 16.2582 21.6148 16.168 21.6568C16.0779 21.6988 15.9747 21.7033 15.8813 21.6693C15.7878 21.6353 15.7117 21.5655 15.6697 21.4754C15.6559 21.446 15.6403 21.4175 15.6229 21.3901L12.6224 16.6678C12.5547 16.5613 12.4612 16.4735 12.3505 16.4127C12.2399 16.3519 12.1157 16.3201 11.9894 16.3201C11.8632 16.3201 11.739 16.3519 11.6283 16.4127C11.5176 16.4735 11.4241 16.5613 11.3564 16.6678L8.35596 21.3901C8.33856 21.4175 8.32293 21.446 8.30918 21.4754C8.26715 21.5655 8.19103 21.6353 8.09757 21.6693C8.00411 21.7033 7.90096 21.6988 7.81081 21.6568C7.72067 21.6148 7.65091 21.5387 7.61689 21.4452C7.58287 21.3517 7.58737 21.2486 7.6294 21.1584C7.64314 21.129 7.65494 21.0988 7.66474 21.0678L10.2647 12.8559C10.313 12.7034 10.3113 12.5394 10.2597 12.3879C10.2082 12.2364 10.1096 12.1054 9.97828 12.014C9.84697 11.9226 9.68987 11.8756 9.52993 11.8798C9.36999 11.884 9.2156 11.9393 9.0893 12.0375L5.83186 14.5711C5.80732 14.5902 5.78399 14.6108 5.762 14.6328C5.69168 14.7031 5.59629 14.7426 5.49683 14.7426C5.39738 14.7426 5.30199 14.7031 5.23166 14.6328C5.16133 14.5625 5.12181 14.4671 5.12181 14.3676C5.12181 14.2682 5.16131 14.1728 5.23164 14.1025C5.25361 14.0805 5.27419 14.0572 5.29325 14.0326L8.9733 9.30112C9.18104 9.10689 9.45503 8.9992 9.73941 9H14.2394C14.5238 8.9992 14.7978 9.10689 15.0055 9.30112L18.6856 14.0326C18.7046 14.0572 18.7252 14.0805 18.7472 14.1025C18.8175 14.1728 18.857 14.2682 18.8571 14.3676C18.8571 14.4671 18.8176 14.5624 18.7473 14.6328L18.7473 14.6328Z" fill="#1D1F21" style="fill: var(--ui-icon-primary-color);"/>
</svg>
