<svg  viewBox="0 0 24 24" fill="none" xmlns="http://www.w3.org/2000/svg" id="__THIS_ID_NEEDS_FOR_UI_ICON_COMPONENT__">
<path d="M20.5718 9.59811C18.9155 7.80029 17.9973 5.44448 18 3C18 2.80109 17.921 2.61033 17.7804 2.46968C17.6397 2.32903 17.449 2.25001 17.25 2.25H6.75005C6.55114 2.25001 6.36038 2.32903 6.21973 2.46968C6.07908 2.61033 6.00006 2.80109 6.00005 3C6.00284 5.44451 5.08463 7.80035 3.42833 9.59821C3.3158 9.72057 3.24712 9.87685 3.23306 10.0425C3.21901 10.2081 3.26039 10.3738 3.35069 10.5133L11.3704 22.9074C11.3713 22.9089 11.3725 22.9102 11.3735 22.9117C11.3892 22.9356 11.4062 22.9586 11.4245 22.9806C11.4284 22.9852 11.4326 22.9893 11.4365 22.9938C11.4513 23.0106 11.4667 23.0268 11.4829 23.0423C11.4896 23.0487 11.4965 23.0549 11.5035 23.061C11.5186 23.0744 11.5344 23.0872 11.5506 23.0993C11.5571 23.1043 11.5635 23.1094 11.5702 23.114C11.617 23.1468 11.6673 23.1742 11.7202 23.1955C11.7261 23.1978 11.732 23.1997 11.7379 23.2019C11.7588 23.2098 11.7802 23.2167 11.8019 23.2227C11.8098 23.2248 11.8177 23.2269 11.8256 23.2288C11.8465 23.2337 11.8677 23.2377 11.8892 23.2409C11.897 23.2421 11.9047 23.2435 11.9126 23.2445C11.9707 23.2518 12.0294 23.2518 12.0875 23.2445C12.0954 23.2435 12.1031 23.2421 12.1109 23.2409C12.1324 23.2377 12.1536 23.2337 12.1745 23.2288C12.1824 23.2269 12.1903 23.2248 12.1982 23.2227C12.2199 23.2167 12.2413 23.2098 12.2622 23.2019C12.2681 23.1997 12.2741 23.1978 12.2799 23.1955C12.3328 23.1742 12.3831 23.1468 12.4299 23.114C12.4366 23.1094 12.443 23.1043 12.4495 23.0993C12.4657 23.0872 12.4815 23.0744 12.4966 23.061C12.5036 23.0549 12.5105 23.0487 12.5172 23.0423C12.5334 23.0268 12.5489 23.0107 12.5636 22.9938C12.5675 22.9893 12.5717 22.9852 12.5756 22.9806C12.5939 22.9586 12.6109 22.9356 12.6266 22.9117C12.6276 22.9102 12.6288 22.9089 12.6298 22.9074L20.6494 10.5133C20.7397 10.3737 20.7811 10.2081 20.767 10.0424C20.753 9.87677 20.6843 9.72048 20.5718 9.59811ZM12 12.75C11.7034 12.75 11.4134 12.662 11.1667 12.4972C10.92 12.3324 10.7278 12.0981 10.6142 11.824C10.5007 11.5499 10.471 11.2483 10.5289 10.9574C10.5867 10.6664 10.7296 10.3991 10.9394 10.1893C11.1492 9.97956 11.4164 9.8367 11.7074 9.77882C11.9984 9.72094 12.3 9.75065 12.5741 9.86418C12.8482 9.97771 13.0824 10.17 13.2473 10.4166C13.4121 10.6633 13.5 10.9533 13.5 11.25C13.4996 11.6477 13.3414 12.029 13.0602 12.3102C12.779 12.5914 12.3977 12.7495 12 12.75ZM12.75 19.9603V14.1551C13.457 13.9725 14.0732 13.5384 14.483 12.9341C14.8928 12.3297 15.0681 11.5967 14.9761 10.8723C14.8841 10.1479 14.5311 9.48201 13.9832 8.99932C13.4353 8.51663 12.7302 8.25032 12 8.25032C11.2699 8.25032 10.5648 8.51663 10.0169 8.99932C9.46899 9.48201 9.11596 10.1479 9.02396 10.8723C8.93195 11.5967 9.10729 12.3297 9.5171 12.9341C9.92691 13.5384 10.5431 13.9725 11.25 14.1551V19.9603L4.91716 10.173C6.42541 8.35505 7.32071 6.10707 7.47524 3.75H16.5249C16.6794 6.10707 17.5747 8.35505 19.0829 10.173L12.75 19.9603Z" fill="#1D1F21" style="fill: var(--ui-icon-primary-color);"/>
</svg>
