<svg  viewBox="0 0 24 24" fill="none" xmlns="http://www.w3.org/2000/svg" id="__THIS_ID_NEEDS_FOR_UI_ICON_COMPONENT__">
<path d="M18.8942 5.10517C17.989 4.19939 16.9141 3.48082 15.7311 2.99051C14.548 2.50019 13.28 2.24774 11.9994 2.24756C10.7188 2.24738 9.45067 2.49949 8.2675 2.98947C7.08434 3.47946 6.00929 4.19773 5.10375 5.10327C4.19822 6.0088 3.47995 7.08385 2.98996 8.26701C2.49997 9.45018 2.24787 10.7183 2.24805 11.9989C2.24822 13.2795 2.50068 14.5476 2.991 15.7306C3.48131 16.9136 4.19988 17.9885 5.10566 18.8937C6.01094 19.7995 7.08579 20.5181 8.26883 21.0084C9.45186 21.4987 10.7199 21.7512 12.0005 21.7514C13.2811 21.7515 14.5492 21.4994 15.7324 21.0094C16.9156 20.5195 17.9906 19.8012 18.8961 18.8957C19.8017 17.9901 20.5199 16.9151 21.0099 15.7319C21.4999 14.5487 21.752 13.2806 21.7519 12C21.7517 10.7194 21.4992 9.45137 21.0089 8.26834C20.5186 7.08531 19.8 6.01046 18.8942 5.10517ZM10.4029 11.9995H13.597L14.9818 14.9999C14.4343 15.0039 13.9071 15.2082 13.4999 15.5742C13.088 15.2042 12.5537 14.9995 11.9999 14.9995C11.4462 14.9995 10.9119 15.2042 10.4999 15.5742C10.0928 15.2082 9.56562 15.0039 9.01808 14.9999L10.4029 11.9995ZM11.0952 10.4995L11.9999 8.53923L12.9047 10.4995H11.0952ZM14.2499 17.2495C14.2499 17.0505 14.329 16.8598 14.4696 16.7191C14.6103 16.5785 14.801 16.4995 14.9999 16.4995C15.1989 16.4995 15.3896 16.5785 15.5303 16.7191C15.6709 16.8598 15.7499 17.0505 15.7499 17.2495V19.35C15.2706 19.5952 14.7682 19.7922 14.2499 19.9381V17.2495ZM8.24995 17.2495C8.24995 17.0505 8.32897 16.8598 8.46962 16.7191C8.61027 16.5785 8.80104 16.4995 8.99995 16.4995C9.19886 16.4995 9.38963 16.5785 9.53028 16.7191C9.67093 16.8598 9.74995 17.0505 9.74995 17.2495V19.9381C9.23172 19.7922 8.72926 19.5952 8.24995 19.35V17.2495ZM11.2499 20.2146V17.2495C11.2499 17.0505 11.329 16.8598 11.4696 16.7191C11.6103 16.5785 11.801 16.4995 11.9999 16.4995C12.1989 16.4995 12.3896 16.5785 12.5303 16.7191C12.6709 16.8598 12.7499 17.0505 12.7499 17.2495V20.2146C12.502 20.2368 12.2519 20.2495 11.9999 20.2495C11.7479 20.2495 11.4979 20.2368 11.2499 20.2146ZM17.8336 17.833C17.6464 18.0202 17.4518 18.1971 17.2499 18.3635V16.4995C17.2499 16.3909 17.2264 16.2837 17.1809 16.1852L12.6809 6.43516C12.6209 6.30508 12.5248 6.19492 12.4042 6.1177C12.2835 6.04049 12.1432 5.99946 11.9999 5.99945C11.8567 5.99946 11.7164 6.04049 11.5957 6.1177C11.4751 6.19492 11.379 6.30508 11.319 6.43516L6.81898 16.1852C6.77351 16.2837 6.74996 16.3909 6.74995 16.4995V18.3635C6.54856 18.1968 6.35401 18.0199 6.1663 17.833C5.01254 16.6792 4.22682 15.2092 3.9085 13.6089C3.59018 12.0086 3.75357 10.3498 4.37799 8.84231C5.00242 7.33483 6.05983 6.04637 7.41653 5.13986C8.77323 4.23335 10.3683 3.7495 11.9999 3.7495C13.6316 3.7495 15.2267 4.23335 16.5834 5.13986C17.9401 6.04637 18.9975 7.33483 19.6219 8.84231C20.2463 10.3498 20.4097 12.0086 20.0914 13.6089C19.7731 15.2092 18.9874 16.6792 17.8336 17.833Z" fill="#1D1F21" style="fill: var(--ui-icon-primary-color);"/>
</svg>
