<svg  viewBox="0 0 24 24" fill="none" xmlns="http://www.w3.org/2000/svg" id="__THIS_ID_NEEDS_FOR_UI_ICON_COMPONENT__">
<path d="M20.9999 7.18829L16.8106 2.99893C16.6713 2.85964 16.506 2.74914 16.324 2.67376C16.142 2.59837 15.947 2.55957 15.75 2.55957C15.553 2.55957 15.3579 2.59837 15.1759 2.67376C14.9939 2.74914 14.8286 2.85964 14.6893 2.99893L12.2198 5.46848L12.2196 5.46861L12.2195 5.46875L3.43935 14.2489C3.29359 14.3946 3.17951 14.5688 3.10429 14.7607C3.09685 14.7787 3.09064 14.7971 3.08467 14.8155C3.0289 14.9743 3.00026 15.1413 2.99994 15.3096V19.4989C3.00039 19.8966 3.15857 20.2779 3.43978 20.5591C3.72099 20.8403 4.10225 20.9985 4.49994 20.9989H8.6893C8.87212 20.9987 9.05336 20.9651 9.22406 20.8996C9.22768 20.8982 9.23139 20.8972 9.23498 20.8958C9.42807 20.8206 9.60343 20.7061 9.74994 20.5596L21 9.30957C21.2809 9.02804 21.4386 8.6466 21.4386 8.24892C21.4386 7.85125 21.2808 7.46981 20.9999 7.18829ZM4.49994 16.8096L7.1893 19.4989H4.49994V16.8096ZM8.99994 19.1883L4.8106 14.9989L12.7499 7.05957L16.9393 11.2489L8.99994 19.1883ZM17.9999 10.1883L13.8106 5.99893L15.7499 4.05957L19.9393 8.24893L17.9999 10.1883Z" fill="#1D1F21" style="fill: var(--ui-icon-primary-color);"/>
</svg>
