<svg  viewBox="0 0 24 24" fill="none" xmlns="http://www.w3.org/2000/svg" id="__THIS_ID_NEEDS_FOR_UI_ICON_COMPONENT__">
<path d="M19.2801 5.78067L5.78012 19.2807C5.63944 19.4212 5.44873 19.5001 5.2499 19.5C5.05108 19.4999 4.86041 19.4209 4.71982 19.2803C4.57923 19.1397 4.50021 18.9491 4.50015 18.7502C4.50009 18.5514 4.57898 18.3607 4.71949 18.22L18.2195 4.72003C18.3602 4.57952 18.5509 4.50063 18.7497 4.5007C18.9485 4.50076 19.1392 4.57977 19.2798 4.72036C19.4204 4.86095 19.4994 5.05162 19.4995 5.25044C19.4995 5.44927 19.4206 5.63999 19.2801 5.78067ZM4.73835 9.51183C4.18486 8.95959 3.84004 8.23249 3.76263 7.45447C3.68523 6.67645 3.88005 5.89567 4.31389 5.24521C4.74772 4.59475 5.39371 4.11488 6.14174 3.88739C6.88978 3.6599 7.69356 3.69888 8.41607 3.99768C9.13858 4.29648 9.73511 4.83661 10.104 5.526C10.4728 6.21538 10.5912 7.01135 10.4389 7.77823C10.2865 8.54511 9.87297 9.23543 9.26865 9.73153C8.66433 10.2276 7.90667 10.4988 7.1248 10.4988C6.68153 10.5002 6.24237 10.4137 5.83274 10.2443C5.42311 10.0749 5.05114 9.82593 4.73835 9.51183ZM5.2498 7.12535C5.2498 7.43369 5.32585 7.73728 5.4712 8.00922C5.61655 8.28116 5.82673 8.51305 6.08311 8.68436C6.33949 8.85567 6.63416 8.9611 6.94102 8.99133C7.24788 9.02155 7.55746 8.97563 7.84233 8.85763C8.12721 8.73963 8.37859 8.5532 8.5742 8.31484C8.76981 8.07649 8.90362 7.79357 8.96378 7.49115C9.02393 7.18873 9.00858 6.87614 8.91907 6.58107C8.82956 6.286 8.66866 6.01756 8.45063 5.79953V5.7995C8.1884 5.53728 7.85431 5.35871 7.49059 5.28636C7.12688 5.21401 6.74988 5.25115 6.40726 5.39306C6.06465 5.53498 5.77182 5.77531 5.56579 6.08365C5.35977 6.39199 5.2498 6.75451 5.2498 7.12535ZM20.2498 16.8753C20.2498 17.6562 19.9791 18.4128 19.4837 19.0164C18.9884 19.62 18.2991 20.0332 17.5333 20.1855C16.7674 20.3379 15.9725 20.22 15.2839 19.8519C14.5952 19.4838 14.0555 18.8884 13.7567 18.167C13.4579 17.4456 13.4184 16.6429 13.6451 15.8957C13.8718 15.1485 14.3505 14.503 14.9997 14.0692C15.6489 13.6354 16.4285 13.4401 17.2056 13.5166C17.9826 13.5931 18.7091 13.9367 19.2613 14.4889C19.5757 14.8015 19.8249 15.1734 19.9946 15.5831C20.1643 15.9927 20.251 16.432 20.2498 16.8753ZM18.7498 16.8753C18.7498 16.4416 18.5994 16.0212 18.3242 15.6858C18.049 15.3505 17.6661 15.121 17.2406 15.0363C16.8151 14.9517 16.3735 15.0172 15.9909 15.2217C15.6083 15.4262 15.3085 15.757 15.1425 16.1578C14.9765 16.5586 14.9546 17.0045 15.0805 17.4196C15.2064 17.8347 15.4724 18.1933 15.8331 18.4343C16.1938 18.6754 16.6269 18.7838 17.0586 18.7413C17.4903 18.6988 17.8939 18.5079 18.2006 18.2012C18.3753 18.0275 18.5138 17.8209 18.608 17.5933C18.7023 17.3657 18.7505 17.1217 18.7498 16.8753Z" fill="#1D1F21" style="fill: var(--ui-icon-primary-color);"/>
</svg>
