<svg  viewBox="0 0 24 24" fill="none" xmlns="http://www.w3.org/2000/svg" id="__THIS_ID_NEEDS_FOR_UI_ICON_COMPONENT__">
<path d="M14.2208 3.55529C14.2462 3.46012 14.2901 3.37087 14.35 3.29267C14.4099 3.21447 14.4846 3.14883 14.5698 3.09953C14.6551 3.05022 14.7493 3.0182 14.8469 3.00531C14.9446 2.99241 15.0438 2.99889 15.139 3.02438C16.5377 3.40049 17.813 4.13755 18.8372 5.16172C19.8614 6.1859 20.5984 7.46123 20.9745 8.85995C21.0002 8.95517 21.0068 9.05453 20.9941 9.15232C20.9813 9.25011 20.9493 9.34442 20.9001 9.42984C20.8508 9.51527 20.7851 9.59014 20.7069 9.65017C20.6286 9.7102 20.5393 9.7542 20.444 9.77967C20.3488 9.80513 20.2494 9.81155 20.1516 9.79856C20.0539 9.78557 19.9596 9.75343 19.8743 9.70397C19.789 9.65452 19.7143 9.58872 19.6544 9.51034C19.5945 9.43196 19.5507 9.34255 19.5255 9.24722C19.2178 8.103 18.6148 7.05972 17.777 6.2219C16.9392 5.38408 15.8959 4.78114 14.7517 4.47348C14.6566 4.44805 14.5674 4.40413 14.4892 4.34423C14.411 4.28432 14.3454 4.20961 14.2961 4.12435C14.2468 4.03908 14.2148 3.94495 14.2018 3.84731C14.1889 3.74967 14.1954 3.65044 14.2208 3.55529ZM13.9751 7.37194C14.6107 7.54287 15.1903 7.87782 15.6557 8.34325C16.1211 8.80868 16.4561 9.38823 16.627 10.0239C16.6787 10.2156 16.8043 10.3791 16.9764 10.4783C17.1485 10.5776 17.3529 10.6045 17.5448 10.5532C17.7367 10.502 17.9004 10.3766 18 10.2048C18.0996 10.0329 18.127 9.8286 18.0761 9.63659C17.8367 8.74644 17.3677 7.93482 16.7159 7.28303C16.0641 6.63125 15.2525 6.16219 14.3623 5.92285C14.1703 5.87197 13.966 5.89934 13.7941 5.99895C13.6223 6.09856 13.497 6.26227 13.4457 6.45417C13.3944 6.64607 13.4213 6.85047 13.5206 7.02253C13.6198 7.19459 13.7833 7.32025 13.9751 7.37194L13.9751 7.37194ZM21.7083 16.4126C21.5455 17.6793 20.9271 18.8434 19.9686 19.6874C19.0101 20.5314 17.7771 20.9976 16.5 20.9989C9.05603 20.9989 3 14.9429 3 7.49893C3.00129 6.22181 3.46749 4.98885 4.31148 4.03037C5.15548 3.07189 6.31956 2.45345 7.58624 2.29058C7.90857 2.25175 8.23481 2.31827 8.51621 2.4802C8.7976 2.64214 9.01903 2.89079 9.1474 3.18899L11.031 7.5838C11.1287 7.81113 11.1685 8.05913 11.1469 8.30562C11.1253 8.55211 11.043 8.7894 10.9072 8.99627L9.34772 11.3792L9.34754 11.3794C10.0518 12.8112 11.2131 13.9674 12.648 14.6653L14.9958 13.1003C15.2032 12.9615 15.4421 12.8768 15.6907 12.8539C15.9392 12.8311 16.1895 12.8709 16.4188 12.9696L20.8098 14.8514C21.1081 14.9797 21.3568 15.2011 21.5188 15.4825C21.6808 15.764 21.7473 16.0902 21.7083 16.4126ZM20.2202 16.2246L15.828 14.3484L13.481 15.9134C13.2652 16.0575 13.0158 16.1431 12.757 16.1619C12.4983 16.1806 12.2391 16.1319 12.0048 16.0204C10.2604 15.175 8.84904 13.7701 7.99576 12.0295C7.88369 11.7967 7.83371 11.5388 7.85067 11.2809C7.86762 11.0231 7.95094 10.774 8.09253 10.5578L9.65213 8.17476L7.76871 3.77996C6.86519 3.89725 6.03522 4.33931 5.43374 5.02365C4.83225 5.70799 4.50035 6.58783 4.5 7.49893C4.50361 10.6804 5.76905 13.7306 8.0187 15.9802C10.2684 18.2299 13.3185 19.4953 16.5 19.4989C17.412 19.4982 18.2926 19.1655 18.9772 18.5629C19.6618 17.9604 20.1037 17.1292 20.2202 16.2246H20.2202Z" fill="#1D1F21" style="fill: var(--ui-icon-primary-color);"/>
</svg>
