<svg  viewBox="0 0 24 24" fill="none" xmlns="http://www.w3.org/2000/svg" id="__THIS_ID_NEEDS_FOR_UI_ICON_COMPONENT__">
<path d="M20.8098 14.8534L16.4188 12.9715C16.1895 12.8728 15.9392 12.8331 15.6907 12.8559C15.4421 12.8787 15.2032 12.9634 14.9958 13.1023L12.648 14.6673C11.2131 13.9694 10.0518 12.8132 9.34753 11.3814L9.34771 11.3812L10.9072 8.99824C11.043 8.79137 11.1253 8.55408 11.1469 8.30759C11.1685 8.0611 11.1287 7.8131 11.031 7.58577L9.1474 3.19096C9.01906 2.89274 8.79764 2.64406 8.51623 2.48213C8.23483 2.32019 7.90858 2.25368 7.58624 2.29256C6.31956 2.45542 5.15548 3.07386 4.31148 4.03234C3.46749 4.99082 3.00129 6.22379 3 7.5009C3 14.9449 9.05603 21.0009 16.5 21.0009C17.7771 20.9996 19.0101 20.5334 19.9686 19.6894C20.9271 18.8454 21.5455 17.6813 21.7083 16.4146C21.7473 16.0922 21.6808 15.7659 21.5188 15.4845C21.3568 15.2031 21.1081 14.9817 20.8098 14.8534ZM16.5 19.5009C13.3185 19.4973 10.2684 18.2319 8.0187 15.9822C5.76905 13.7325 4.50361 10.6824 4.5 7.5009C4.50035 6.5898 4.83225 5.70996 5.43374 5.02563C6.03522 4.34129 6.86519 3.89922 7.76871 3.78194L9.65213 8.17674L8.09253 10.5598C7.95094 10.7759 7.86763 11.0251 7.85067 11.2829C7.83372 11.5408 7.88369 11.7986 7.99576 12.0315C8.84904 13.7721 10.2604 15.177 12.0049 16.0224C12.2391 16.1338 12.4983 16.1826 12.757 16.1639C13.0158 16.1451 13.2652 16.0595 13.481 15.9154L15.828 14.3503L20.2202 16.2266C20.1037 17.1312 19.6618 17.9623 18.9772 18.5649C18.2926 19.1675 17.412 19.5002 16.5 19.5009ZM14.25 9.00044V5.2509C14.25 5.05199 14.329 4.86122 14.4697 4.72057C14.6103 4.57992 14.8011 4.5009 15 4.5009C15.1989 4.5009 15.3897 4.57992 15.5303 4.72057C15.671 4.86122 15.75 5.05199 15.75 5.2509V7.19017L18.9696 3.97054C19.1103 3.82987 19.3011 3.75085 19.5 3.75085C19.6989 3.75085 19.8897 3.82987 20.0304 3.97054C20.171 4.1112 20.25 4.30198 20.25 4.5009C20.25 4.69983 20.171 4.8906 20.0304 5.03127L16.8107 8.2509H18.75C18.9489 8.2509 19.1397 8.32992 19.2803 8.47057C19.421 8.61122 19.5 8.80199 19.5 9.0009C19.5 9.19981 19.421 9.39058 19.2803 9.53123C19.1397 9.67188 18.9489 9.7509 18.75 9.7509H15C14.9753 9.7509 14.9506 9.74957 14.926 9.74715C14.9149 9.74605 14.9042 9.74399 14.8932 9.74244C14.88 9.74056 14.8666 9.739 14.8534 9.73635C14.841 9.73388 14.8289 9.73049 14.8167 9.72742C14.8052 9.72449 14.7936 9.72197 14.7822 9.71854C14.7703 9.71492 14.7589 9.71048 14.7473 9.70632C14.7358 9.7022 14.7242 9.6984 14.7128 9.69368C14.7022 9.68929 14.6921 9.68412 14.6817 9.67926C14.6698 9.67368 14.6579 9.66842 14.6462 9.66214C14.6367 9.65702 14.6276 9.65116 14.6183 9.64562C14.6065 9.63866 14.5947 9.63202 14.5833 9.62438C14.5736 9.61788 14.5644 9.6106 14.5551 9.60364C14.5448 9.59604 14.5343 9.58886 14.5243 9.58062C14.5108 9.56954 14.4982 9.55754 14.4855 9.5456C14.4803 9.5407 14.4747 9.53635 14.4696 9.53127C14.4643 9.52596 14.4598 9.52024 14.4548 9.51479C14.443 9.50234 14.4312 9.48993 14.4203 9.4767C14.4118 9.46631 14.4043 9.45542 14.3964 9.44466C14.3898 9.43573 14.3828 9.42704 14.3766 9.41779C14.3687 9.40593 14.3617 9.39362 14.3545 9.3814C14.3493 9.37256 14.3437 9.36396 14.3389 9.35485C14.3324 9.34276 14.3268 9.33031 14.321 9.31795C14.3164 9.30806 14.3115 9.29836 14.3073 9.28829C14.3024 9.27638 14.2983 9.2643 14.2941 9.25222C14.2901 9.24114 14.2859 9.23024 14.2825 9.21894C14.2788 9.20685 14.2761 9.19458 14.273 9.18236C14.2701 9.17082 14.2669 9.15947 14.2646 9.14775C14.2618 9.13352 14.26 9.11919 14.2581 9.10486C14.2567 9.09492 14.2548 9.08522 14.2538 9.07515C14.2513 9.05029 14.25 9.02534 14.25 9.00044Z" fill="#1D1F21" style="fill: var(--ui-icon-primary-color);"/>
</svg>
