<svg  viewBox="0 0 24 24" fill="none" xmlns="http://www.w3.org/2000/svg" id="__THIS_ID_NEEDS_FOR_UI_ICON_COMPONENT__">
<path d="M20.8098 14.8525L16.4188 12.9706C16.1895 12.8719 15.9392 12.8322 15.6907 12.855C15.4421 12.8779 15.2032 12.9625 14.9958 13.1014L12.648 14.6664C11.2131 13.9685 10.0518 12.8122 9.34753 11.3804L9.34771 11.3803L10.9072 8.99733C11.043 8.79045 11.1253 8.55316 11.1469 8.30667C11.1685 8.06018 11.1287 7.81218 11.031 7.58485L9.1474 3.19005C9.01916 2.89175 8.79775 2.64301 8.51632 2.48105C8.2349 2.3191 7.90859 2.25265 7.58624 2.29164C6.31956 2.4545 5.15548 3.07294 4.31148 4.03142C3.46749 4.98991 3.00129 6.22287 3 7.49998C3 14.944 9.05603 21 16.5 21C17.7771 20.9987 19.0101 20.5325 19.9686 19.6885C20.9271 18.8444 21.5455 17.6804 21.7083 16.4136C21.7473 16.0913 21.6808 15.765 21.5188 15.4836C21.3568 15.2022 21.1081 14.9808 20.8098 14.8525ZM16.5 19.5C13.3185 19.4964 10.2684 18.2309 8.0187 15.9813C5.76905 13.7316 4.50361 10.6815 4.5 7.49998C4.50035 6.58888 4.83225 5.70905 5.43374 5.02471C6.03522 4.34037 6.86519 3.8983 7.76871 3.78102L9.65213 8.17583L8.09253 10.5589C7.95094 10.775 7.86763 11.0241 7.85067 11.282C7.83372 11.5399 7.88369 11.7977 7.99576 12.0306C8.84904 13.7712 10.2604 15.1761 12.0049 16.0214C12.2391 16.1329 12.4983 16.1816 12.757 16.1629C13.0158 16.1442 13.2652 16.0586 13.481 15.9145L15.828 14.3494L20.2202 16.2257C20.1037 17.1302 19.6618 17.9614 18.9772 18.564C18.2926 19.1665 17.412 19.4993 16.5 19.5ZM14.4696 9.53035C14.329 9.38968 14.25 9.1989 14.25 8.99998C14.25 8.80106 14.329 8.61029 14.4696 8.46962L17.6893 5.24998H15.75C15.5511 5.24998 15.3603 5.17097 15.2197 5.03031C15.079 4.88966 15 4.6989 15 4.49998C15 4.30107 15.079 4.11031 15.2197 3.96965C15.3603 3.829 15.5511 3.74998 15.75 3.74998H19.5C19.5056 3.74998 19.511 3.75072 19.5166 3.75081C19.5356 3.75122 19.5546 3.75186 19.5735 3.75369C19.5865 3.75497 19.5991 3.75731 19.6118 3.75923C19.6233 3.76092 19.6348 3.76221 19.6462 3.76445C19.6598 3.76715 19.6729 3.77086 19.6863 3.77424C19.6967 3.7769 19.7071 3.77914 19.7173 3.78226C19.7301 3.7861 19.7423 3.79082 19.7548 3.79535C19.7655 3.79919 19.7763 3.80272 19.7868 3.80707C19.798 3.81174 19.8088 3.81718 19.8197 3.82236C19.8311 3.82767 19.8425 3.8327 19.8536 3.83861C19.8636 3.84396 19.873 3.85005 19.8827 3.85582C19.8941 3.86259 19.9056 3.86905 19.9167 3.87646C19.9266 3.88315 19.9359 3.89056 19.9455 3.8977C19.9556 3.90516 19.9659 3.91221 19.9757 3.92023C19.9893 3.9314 20.002 3.94348 20.0148 3.95557C20.0199 3.96038 20.0254 3.96463 20.0304 3.96962C20.0357 3.97493 20.0402 3.98066 20.0452 3.9861C20.057 3.99855 20.0688 4.01096 20.0797 4.02419C20.0882 4.03458 20.0957 4.04547 20.1036 4.05623C20.1102 4.06516 20.1172 4.07386 20.1234 4.0831C20.1313 4.09496 20.1383 4.10727 20.1455 4.1195C20.1507 4.12833 20.1563 4.13693 20.1611 4.14604C20.1676 4.15813 20.1732 4.17058 20.179 4.18294C20.1836 4.19283 20.1885 4.20253 20.1927 4.2126C20.1976 4.22451 20.2017 4.23659 20.2059 4.24868C20.2099 4.25975 20.2141 4.27065 20.2175 4.28196C20.2212 4.29404 20.2239 4.30631 20.227 4.31853C20.2299 4.33006 20.2331 4.34142 20.2354 4.35314C20.2382 4.36738 20.24 4.3817 20.2419 4.39603C20.2433 4.40597 20.2452 4.41567 20.2462 4.42574C20.2487 4.4506 20.25 4.47555 20.25 4.50045V8.24998C20.25 8.4489 20.171 8.63966 20.0303 8.78031C19.8897 8.92097 19.6989 8.99998 19.5 8.99998C19.3011 8.99998 19.1103 8.92097 18.9697 8.78031C18.829 8.63966 18.75 8.4489 18.75 8.24998V6.31071L15.5304 9.53035C15.3897 9.67098 15.1989 9.74998 15 9.74998C14.8011 9.74998 14.6103 9.67098 14.4696 9.53035H14.4696Z" fill="#1D1F21" style="fill: var(--ui-icon-primary-color);"/>
</svg>
