<svg  viewBox="0 0 24 24" fill="none" xmlns="http://www.w3.org/2000/svg" id="__THIS_ID_NEEDS_FOR_UI_ICON_COMPONENT__">
<path d="M16.5 21.0004C9.05603 21.0004 3 14.9444 3 7.50042C3.00129 6.22331 3.46749 4.99035 4.31148 4.03186C5.15548 3.07338 6.31956 2.45494 7.58624 2.29208C7.90858 2.25318 8.23485 2.31968 8.51625 2.48162C8.79765 2.64356 9.01908 2.89225 9.1474 3.19049L11.031 7.58529C11.1287 7.81262 11.1685 8.06062 11.1469 8.30711C11.1253 8.5536 11.043 8.79089 10.9072 8.99777L9.34772 11.3807L9.34754 11.3809C10.0518 12.8127 11.2131 13.9689 12.648 14.6668L14.9958 13.1018C15.2032 12.963 15.4421 12.8783 15.6907 12.8555C15.9392 12.8326 16.1895 12.8724 16.4188 12.9711L20.8098 14.8529C21.1081 14.9812 21.3569 15.2026 21.5188 15.484C21.6808 15.7654 21.7473 16.0917 21.7083 16.4141C21.5455 17.6808 20.9271 18.8449 19.9686 19.6889C19.0101 20.5329 17.7771 20.9991 16.5 21.0004ZM7.76871 3.78146C6.86519 3.89874 6.03522 4.34081 5.43374 5.02515C4.83225 5.70949 4.50035 6.58932 4.5 7.50042C4.50361 10.6819 5.76905 13.7321 8.0187 15.9817C10.2684 18.2314 13.3185 19.4968 16.5 19.5004C17.412 19.4997 18.2926 19.167 18.9772 18.5644C19.6618 17.9619 20.1037 17.1307 20.2202 16.2261L15.828 14.3498L13.481 15.9149C13.2652 16.059 13.0158 16.1447 12.757 16.1634C12.4983 16.1822 12.2391 16.1334 12.0048 16.0219C10.2604 15.1765 8.84904 13.7716 7.99576 12.031C7.88369 11.7981 7.83371 11.5403 7.85067 11.2824C7.86762 11.0246 7.95094 10.7755 8.09253 10.5593L9.65213 8.17626L7.76871 3.78146Z" fill="#1D1F21" style="fill: var(--ui-icon-primary-color);"/>
</svg>
