<svg  viewBox="0 0 24 24" fill="none" xmlns="http://www.w3.org/2000/svg" id="__THIS_ID_NEEDS_FOR_UI_ICON_COMPONENT__">
<path d="M21.546 8.45452C16.2824 3.19106 7.71778 3.19079 2.45396 8.45461C1.55184 9.35863 1.00967 10.5602 0.928752 11.8347C0.847829 13.1093 1.23368 14.3697 2.01423 15.3806C2.21463 15.636 2.49236 15.8197 2.80585 15.9042C3.11935 15.9886 3.45177 15.9693 3.75336 15.8491L8.1891 14.0748C8.42099 13.9824 8.62608 13.8336 8.78567 13.6417C8.94527 13.4498 9.05429 13.221 9.10279 12.9761L9.65641 10.2094C11.1645 9.68812 12.8033 9.68451 14.3136 10.1991V10.1993L14.8959 12.9873C14.9462 13.2295 15.0557 13.4555 15.2148 13.6451C15.3738 13.8346 15.5774 13.9817 15.8072 14.0733L20.2465 15.8491C20.5481 15.9693 20.8806 15.9886 21.1941 15.9041C21.5076 15.8197 21.7854 15.636 21.9858 15.3805C22.7663 14.3696 23.1521 13.1092 23.0712 11.8346C22.9903 10.5601 22.4481 9.35854 21.546 8.45452ZM20.8036 14.4564L16.3642 12.6806L15.7819 9.89272C15.7293 9.63971 15.6121 9.40462 15.4418 9.21027C15.2714 9.01592 15.0537 8.86893 14.8098 8.78357C12.9757 8.1561 10.9843 8.16061 9.15296 8.79638C8.90848 8.88318 8.69072 9.03197 8.521 9.2282C8.35129 9.42442 8.23544 9.66135 8.18479 9.91579L7.6319 12.6822L3.19938 14.4611C2.64215 13.7391 2.36683 12.8389 2.42486 11.9288C2.48288 11.0186 2.87029 10.1606 3.51469 9.51525C5.76689 7.26814 8.81847 6.00614 12 6.00612C15.1815 6.00611 18.2331 7.26807 20.4853 9.51516C21.1293 10.1597 21.5168 11.0165 21.5753 11.9258C21.6339 12.835 21.3596 13.7345 20.8036 14.4564ZM21 18.7505C21 18.9495 20.9209 19.1402 20.7803 19.2809C20.6396 19.4215 20.4489 19.5005 20.25 19.5005H3.74998C3.55107 19.5005 3.3603 19.4215 3.21965 19.2809C3.079 19.1402 2.99998 18.9495 2.99998 18.7505C2.99998 18.5516 3.079 18.3609 3.21965 18.2202C3.3603 18.0796 3.55107 18.0005 3.74998 18.0005H20.25C20.4489 18.0006 20.6396 18.0796 20.7803 18.2202C20.9209 18.3609 21 18.5516 21 18.7505Z" fill="#1D1F21" style="fill: var(--ui-icon-primary-color);"/>
</svg>
