<svg  viewBox="0 0 24 24" fill="none" xmlns="http://www.w3.org/2000/svg" id="__THIS_ID_NEEDS_FOR_UI_ICON_COMPONENT__">
<path d="M11.3329 10.1507L11.3294 10.1469L8.41535 6.94137L8.41036 6.93592L5.055 3.24502C4.92119 3.09783 4.73438 3.00982 4.53568 3.00036C4.33698 2.9909 4.14265 3.06076 3.99546 3.19458C3.84827 3.32839 3.76026 3.5152 3.7508 3.7139C3.74134 3.9126 3.8112 4.10692 3.94502 4.25412L6.56612 7.13734C5.03116 7.81034 3.63626 8.76567 2.45399 9.95364C1.55187 10.8577 1.0097 12.0592 0.928782 13.3337C0.84786 14.6083 1.23371 15.8688 2.01426 16.8796C2.21466 17.1351 2.49239 17.3187 2.80589 17.4032C3.11938 17.4876 3.4518 17.4683 3.7534 17.3481L8.18913 15.5738C8.42102 15.4815 8.62611 15.3326 8.7857 15.1407C8.9453 14.9488 9.05432 14.72 9.10282 14.4752L9.65644 11.7084C9.93487 11.6123 10.219 11.5335 10.5071 11.4725L18.945 20.7541C19.0788 20.9013 19.2656 20.9893 19.4643 20.9988C19.663 21.0082 19.8574 20.9384 20.0046 20.8046C20.1517 20.6707 20.2398 20.4839 20.2492 20.2852C20.2587 20.0865 20.1888 19.8922 20.055 19.745L11.3329 10.1507ZM9.15299 10.2954C8.90851 10.3822 8.69076 10.531 8.52105 10.7272C8.35134 10.9235 8.23549 11.1604 8.18482 11.4148L7.63194 14.1812L3.19941 15.9601C2.64219 15.2381 2.36687 14.338 2.42488 13.4278C2.48289 12.5176 2.87026 11.6597 3.51463 11.0143C4.68594 9.83708 6.09097 8.91846 7.63912 8.31764L9.37254 10.2244C9.29925 10.2478 9.2255 10.2701 9.15299 10.2954L9.15299 10.2954ZM21.9858 16.8795C21.7854 17.135 21.5077 17.3187 21.1941 17.4032C20.8806 17.4876 20.5482 17.4683 20.2465 17.3481L19.8669 17.1962C19.7754 17.1597 19.692 17.1054 19.6215 17.0366C19.5509 16.9679 19.4946 16.8858 19.4558 16.7953C19.417 16.7047 19.3964 16.6074 19.3952 16.5089C19.3939 16.4104 19.4122 16.3126 19.4488 16.2211C19.4854 16.1296 19.5396 16.0462 19.6085 15.9757C19.6773 15.9052 19.7593 15.849 19.8499 15.8102C19.9405 15.7714 20.0378 15.7509 20.1364 15.7497C20.2349 15.7486 20.3327 15.7668 20.4241 15.8035L20.8037 15.9554C21.3597 15.2335 21.634 14.334 21.5754 13.4248C21.5168 12.5156 21.1293 11.6587 20.4853 11.0142C19.2916 9.8223 17.8605 8.89499 16.2849 8.29257C14.7093 7.69015 13.0245 7.42611 11.3402 7.51761C11.1416 7.52848 10.9468 7.46 10.7986 7.32724C10.6505 7.19447 10.5612 7.0083 10.5503 6.80968C10.5394 6.61106 10.6079 6.41626 10.7407 6.26813C10.8735 6.12 11.0596 6.03068 11.2582 6.01981C13.1531 5.91674 15.0484 6.21373 16.8209 6.89148C18.5934 7.56923 20.2034 8.61255 21.546 9.95356C22.4481 10.8576 22.9903 12.0591 23.0712 13.3336C23.1522 14.6082 22.7664 15.8686 21.9858 16.8795L21.9858 16.8795Z" fill="#1D1F21" style="fill: var(--ui-icon-primary-color);"/>
</svg>
