<svg  viewBox="0 0 24 24" fill="none" xmlns="http://www.w3.org/2000/svg" id="__THIS_ID_NEEDS_FOR_UI_ICON_COMPONENT__">
<path d="M20.8098 14.853L16.4188 12.9711C16.1895 12.8724 15.9392 12.8326 15.6907 12.8555C15.4421 12.8783 15.2032 12.963 14.9958 13.1018L12.648 14.6668C11.2131 13.9689 10.0518 12.8127 9.34753 11.3809L9.34771 11.3807L10.9072 8.99779C11.043 8.79092 11.1253 8.55363 11.1469 8.30714C11.1685 8.06065 11.1287 7.81265 11.031 7.58532L9.1474 3.19051C9.01912 2.89224 8.79771 2.64352 8.51629 2.48157C8.23488 2.31962 7.90859 2.25315 7.58624 2.29211C6.31956 2.45497 5.15548 3.07341 4.31148 4.03189C3.46749 4.99037 3.00129 6.22334 3 7.50045C3 14.9444 9.05603 21.0005 16.5 21.0005C17.7771 20.9992 19.0101 20.5329 19.9686 19.6889C20.9271 18.8449 21.5455 17.6808 21.7083 16.4141C21.7473 16.0918 21.6808 15.7655 21.5188 15.4841C21.3568 15.2027 21.1081 14.9812 20.8098 14.853ZM16.5 19.5005C13.3185 19.4968 10.2684 18.2314 8.0187 15.9817C5.76905 13.7321 4.50361 10.6819 4.5 7.50045C4.50035 6.58935 4.83225 5.70951 5.43374 5.02518C6.03522 4.34084 6.86519 3.89877 7.76871 3.78149L9.65213 8.1763L8.09253 10.5593C7.95094 10.7755 7.86763 11.0246 7.85067 11.2825C7.83372 11.5403 7.88369 11.7982 7.99576 12.031C8.84904 13.7716 10.2604 15.1766 12.0049 16.0219C12.2391 16.1334 12.4983 16.1821 12.757 16.1634C13.0158 16.1447 13.2652 16.0591 13.481 15.915L15.828 14.3499L20.2202 16.2262C20.1037 17.1307 19.6618 17.9619 18.9772 18.5644C18.2926 19.167 17.412 19.4997 16.5 19.5005ZM14.4696 8.47009L16.1893 6.75045L14.4696 5.03082C14.329 4.89016 14.25 4.69938 14.25 4.50045C14.25 4.30153 14.329 4.11075 14.4696 3.97009C14.6103 3.82942 14.8011 3.7504 15 3.7504C15.1989 3.7504 15.3897 3.82942 15.5304 3.97009L17.25 5.68972L18.9696 3.97009C19.0393 3.90044 19.122 3.84519 19.213 3.8075C19.304 3.7698 19.4015 3.7504 19.5 3.7504C19.5985 3.7504 19.696 3.7698 19.787 3.8075C19.878 3.84519 19.9607 3.90044 20.0304 3.97009C20.1 4.03973 20.1553 4.12242 20.193 4.21342C20.2306 4.30442 20.25 4.40195 20.25 4.50045C20.25 4.59895 20.2306 4.69648 20.193 4.78748C20.1553 4.87848 20.1 4.96117 20.0304 5.03082L18.3107 6.75045L20.0304 8.47009C20.171 8.61075 20.25 8.80153 20.25 9.00045C20.25 9.19938 20.171 9.39015 20.0304 9.53082C19.8897 9.67148 19.6989 9.7505 19.5 9.7505C19.3011 9.7505 19.1103 9.67148 18.9696 9.53082L17.25 7.81118L15.5304 9.53082C15.3897 9.67148 15.1989 9.7505 15 9.7505C14.8011 9.7505 14.6103 9.67148 14.4696 9.53082C14.329 9.39015 14.25 9.19938 14.25 9.00045C14.2499 8.80153 14.329 8.61075 14.4696 8.47009Z" fill="#1D1F21" style="fill: var(--ui-icon-primary-color);"/>
</svg>
