<svg  viewBox="0 0 24 24" fill="none" xmlns="http://www.w3.org/2000/svg" id="__THIS_ID_NEEDS_FOR_UI_ICON_COMPONENT__">
<path d="M11.9999 2.25C10.0716 2.25 8.18651 2.82183 6.58313 3.89317C4.97975 4.96451 3.73007 6.48726 2.99212 8.26884C2.25416 10.0504 2.06108 12.0108 2.43729 13.9021C2.81349 15.7934 3.74209 17.5307 5.10565 18.8943C6.46921 20.2579 8.2065 21.1865 10.0978 21.5627C11.9891 21.9389 13.9495 21.7458 15.7311 21.0078C17.5127 20.2699 19.0354 19.0202 20.1068 17.4168C21.1781 15.8134 21.7499 13.9284 21.7499 12C21.747 9.41504 20.7188 6.93679 18.891 5.10894C17.0632 3.28109 14.5849 2.25293 11.9999 2.25ZM11.9999 20.25C10.3682 20.25 8.77319 19.7661 7.41649 18.8596C6.05978 17.9531 5.00236 16.6646 4.37794 15.1571C3.75351 13.6496 3.59014 11.9908 3.90846 10.3905C4.22679 8.79016 5.01253 7.32015 6.16631 6.16637C7.3201 5.01259 8.7901 4.22685 10.3904 3.90852C11.9908 3.59019 13.6496 3.75357 15.1571 4.37799C16.6646 5.00242 17.953 6.05984 18.8596 7.41655C19.7661 8.77325 20.2499 10.3683 20.2499 12C20.2475 14.1873 19.3775 16.2843 17.8308 17.8309C16.2842 19.3775 14.1872 20.2475 11.9999 20.25ZM15.416 11.376L10.916 8.37598C10.803 8.30067 10.6717 8.25744 10.5361 8.25088C10.4006 8.24432 10.2657 8.27469 10.146 8.33874C10.0264 8.40279 9.9263 8.49813 9.85654 8.61459C9.78678 8.73104 9.74994 8.86425 9.74994 9V15C9.74994 15.1357 9.78678 15.269 9.85654 15.3854C9.9263 15.5019 10.0264 15.5972 10.146 15.6613C10.2657 15.7253 10.4006 15.7557 10.5361 15.7491C10.6717 15.7426 10.803 15.6993 10.916 15.624L15.416 12.624C15.5187 12.5555 15.6029 12.4627 15.6612 12.3539C15.7195 12.245 15.7499 12.1235 15.7499 12C15.7499 11.8765 15.7195 11.755 15.6612 11.6461C15.6029 11.5373 15.5187 11.4445 15.416 11.376ZM11.2499 13.5986V10.4014L13.6479 12L11.2499 13.5986Z" fill="#1D1F21" style="fill: var(--ui-icon-primary-color);"/>
</svg>
