<svg  viewBox="0 0 24 24" fill="none" xmlns="http://www.w3.org/2000/svg" id="__THIS_ID_NEEDS_FOR_UI_ICON_COMPONENT__">
<path d="M7.49991 21.7481C7.30293 21.7482 7.10787 21.7094 6.92588 21.6341C6.74388 21.5587 6.57852 21.4483 6.43923 21.309C6.29994 21.1697 6.18945 21.0044 6.11409 20.8224C6.03872 20.6404 5.99996 20.4453 6 20.2484V3.75048C6.00001 3.484 6.071 3.22233 6.20569 2.99239C6.34037 2.76245 6.53387 2.57254 6.7663 2.44219C6.99873 2.31184 7.26168 2.24576 7.52811 2.25075C7.79455 2.25574 8.05484 2.33162 8.28223 2.47057L21.78 10.7195C21.9993 10.8535 22.1804 11.0416 22.3061 11.2657C22.4318 11.4898 22.4978 11.7425 22.4978 11.9994C22.4978 12.2564 22.4318 12.509 22.3061 12.7331C22.1804 12.9573 21.9993 13.1453 21.78 13.2793L8.28223 21.5283C8.04665 21.6722 7.77594 21.7482 7.49991 21.7481ZM7.5 3.75048V20.2484L20.9978 11.9994L7.5 3.75048Z" fill="#1D1F21" style="fill: var(--ui-icon-primary-color);"/>
</svg>
