<svg  viewBox="0 0 24 24" fill="none" xmlns="http://www.w3.org/2000/svg" id="__THIS_ID_NEEDS_FOR_UI_ICON_COMPONENT__">
<path d="M21 12C21 12.0985 20.9806 12.196 20.9429 12.287C20.9052 12.378 20.85 12.4607 20.7803 12.5303C20.7107 12.6 20.628 12.6552 20.537 12.6929C20.446 12.7306 20.3485 12.75 20.25 12.75H12.75V20.25C12.75 20.4489 12.671 20.6397 12.5303 20.7803C12.3897 20.921 12.1989 21 12 21C11.8011 21 11.6103 20.921 11.4697 20.7803C11.329 20.6397 11.25 20.4489 11.25 20.25V12.75H3.75C3.55109 12.75 3.36032 12.671 3.21967 12.5303C3.07902 12.3897 3 12.1989 3 12C3 11.8011 3.07902 11.6103 3.21967 11.4697C3.36032 11.329 3.55109 11.25 3.75 11.25H11.25V3.75C11.25 3.55109 11.329 3.36032 11.4697 3.21967C11.6103 3.07902 11.8011 3 12 3C12.1989 3 12.3897 3.07902 12.5303 3.21967C12.671 3.36032 12.75 3.55109 12.75 3.75V11.25H20.25C20.3485 11.25 20.446 11.2694 20.537 11.3071C20.628 11.3448 20.7107 11.4 20.7803 11.4697C20.85 11.5393 20.9052 11.622 20.9429 11.713C20.9806 11.804 21 11.9015 21 12Z" fill="#1D1F21" style="fill: var(--ui-icon-primary-color);"/>
</svg>
