<svg  viewBox="0 0 24 24" fill="none" xmlns="http://www.w3.org/2000/svg" id="__THIS_ID_NEEDS_FOR_UI_ICON_COMPONENT__">
<path d="M19.2803 5.78032L5.78032 19.2803C5.63964 19.4208 5.44892 19.4997 5.2501 19.4997C5.05127 19.4996 4.8606 19.4206 4.72001 19.28C4.57942 19.1394 4.50041 18.9487 4.50035 18.7499C4.50029 18.5511 4.57918 18.3604 4.71968 18.2197L18.2197 4.71968C18.3604 4.57918 18.5511 4.50029 18.7499 4.50035C18.9487 4.50041 19.1394 4.57942 19.28 4.72001C19.4206 4.8606 19.4996 5.05127 19.4997 5.2501C19.4997 5.44892 19.4208 5.63964 19.2803 5.78032ZM6 10.5C6 10.6989 6.07902 10.8897 6.21967 11.0303C6.36032 11.171 6.55109 11.25 6.75 11.25C6.94891 11.25 7.13968 11.171 7.28033 11.0303C7.42098 10.8897 7.5 10.6989 7.5 10.5V7.5H10.5C10.6989 7.5 10.8897 7.42098 11.0303 7.28033C11.171 7.13968 11.25 6.94891 11.25 6.75C11.25 6.55109 11.171 6.36032 11.0303 6.21967C10.8897 6.07902 10.6989 6 10.5 6H7.5V3C7.5 2.80109 7.42098 2.61032 7.28033 2.46967C7.13968 2.32902 6.94891 2.25 6.75 2.25C6.55109 2.25 6.36032 2.32902 6.21967 2.46967C6.07902 2.61032 6 2.80109 6 3V6H3C2.80109 6 2.61032 6.07902 2.46967 6.21967C2.32902 6.36032 2.25 6.55109 2.25 6.75C2.25 6.94891 2.32902 7.13968 2.46967 7.28033C2.61032 7.42098 2.80109 7.5 3 7.5H6V10.5ZM21 16.5H13.5C13.3011 16.5 13.1103 16.579 12.9697 16.7197C12.829 16.8603 12.75 17.0511 12.75 17.25C12.75 17.4489 12.829 17.6397 12.9697 17.7803C13.1103 17.921 13.3011 18 13.5 18H21C21.1989 18 21.3897 17.921 21.5303 17.7803C21.671 17.6397 21.75 17.4489 21.75 17.25C21.75 17.0511 21.671 16.8603 21.5303 16.7197C21.3897 16.579 21.1989 16.5 21 16.5Z" fill="#1D1F21" style="fill: var(--ui-icon-primary-color);"/>
</svg>
