<svg  viewBox="0 0 24 24" fill="none" xmlns="http://www.w3.org/2000/svg" id="__THIS_ID_NEEDS_FOR_UI_ICON_COMPONENT__">
<path d="M18.9526 18.8281C20.7452 17.0075 21.75 14.555 21.75 12C21.75 9.44499 20.7452 6.99247 18.9526 5.17191C18.9165 5.12534 18.8748 5.08354 18.8282 5.04753C17.0076 3.25482 14.555 2.25 12 2.25C9.44494 2.25 6.99238 3.25482 5.17181 5.04753C5.12524 5.08354 5.08345 5.12534 5.04744 5.17191C3.25479 6.99247 2.25 9.44499 2.25 12C2.25 14.555 3.25479 17.0075 5.04744 18.8281C5.08346 18.8747 5.12527 18.9165 5.17186 18.9525C6.99242 20.7452 9.44496 21.75 12 21.75C14.555 21.75 17.0076 20.7452 18.8281 18.9525C18.8747 18.9165 18.9165 18.8747 18.9526 18.8281ZM3.78447 12.75H6.04852C6.18243 13.817 6.60209 14.828 7.26315 15.6761L5.66295 17.2763C4.59076 15.9939 3.93541 14.4148 3.78447 12.75ZM5.66295 6.72368L7.26315 8.32386C6.60209 9.17203 6.18243 10.183 6.04852 11.25H3.78447C3.93541 9.58522 4.59076 8.00613 5.66295 6.72368ZM20.2155 11.25H17.9515C17.8176 10.183 17.3979 9.17203 16.7368 8.32386L18.337 6.72368C19.4092 8.00613 20.0646 9.58522 20.2155 11.25ZM12 16.5C11.11 16.5 10.24 16.2361 9.49993 15.7416C8.75991 15.2471 8.18314 14.5443 7.84254 13.7221C7.50195 12.8998 7.41283 11.995 7.58646 11.1221C7.7601 10.2492 8.18868 9.44736 8.81802 8.81802C9.44735 8.18868 10.2492 7.7601 11.1221 7.58647C11.995 7.41283 12.8998 7.50195 13.7221 7.84254C14.5443 8.18314 15.2471 8.75991 15.7416 9.49993C16.2361 10.24 16.5 11.11 16.5 12C16.4987 13.1931 16.0241 14.3369 15.1805 15.1805C14.3369 16.0241 13.1931 16.4987 12 16.5ZM15.6761 7.26313C14.828 6.60208 13.817 6.18243 12.75 6.04855V3.78445C14.4148 3.93541 15.9939 4.59076 17.2763 5.66295L15.6761 7.26313ZM11.25 6.04855C10.183 6.18243 9.17204 6.60208 8.32388 7.26313L6.72368 5.66295C8.00613 4.59076 9.58522 3.93541 11.25 3.78445V6.04855ZM8.32388 16.7369C9.17204 17.3979 10.183 17.8176 11.25 17.9515V20.2156C9.58522 20.0646 8.00613 19.4092 6.72368 18.3371L8.32388 16.7369ZM12.75 17.9515C13.817 17.8176 14.828 17.3979 15.6761 16.7369L17.2763 18.3371C15.9939 19.4092 14.4148 20.0646 12.75 20.2156V17.9515ZM16.7368 15.6761C17.3979 14.828 17.8176 13.817 17.9515 12.75H20.2155C20.0646 14.4148 19.4092 15.9939 18.337 17.2763L16.7368 15.6761Z" fill="#1D1F21" style="fill: var(--ui-icon-primary-color);"/>
</svg>
