<svg  viewBox="0 0 24 24" fill="none" xmlns="http://www.w3.org/2000/svg" id="__THIS_ID_NEEDS_FOR_UI_ICON_COMPONENT__">
<path d="M11.2492 11.626V4.50098C11.2492 4.30206 11.3282 4.1113 11.4689 3.97065C11.6096 3.82999 11.8003 3.75098 11.9992 3.75098C12.1981 3.75098 12.3889 3.82999 12.5296 3.97065C12.6702 4.1113 12.7492 4.30206 12.7492 4.50098V11.626C12.7492 11.8249 12.6702 12.0157 12.5296 12.1563C12.3889 12.297 12.1981 12.376 11.9992 12.376C11.8003 12.376 11.6096 12.297 11.4689 12.1563C11.3282 12.0157 11.2492 11.8249 11.2492 11.626ZM16.9098 4.4568C16.7432 4.34874 16.5405 4.31117 16.3462 4.35233C16.1519 4.3935 15.9819 4.51004 15.8735 4.67639C15.765 4.84274 15.7269 5.04533 15.7676 5.23971C15.8083 5.43409 15.9244 5.60439 16.0905 5.71328C17.4457 6.5951 18.4796 7.89125 19.0382 9.40852C19.5967 10.9258 19.65 12.5829 19.1901 14.133C18.7302 15.683 17.7817 17.0429 16.486 18.01C15.1903 18.9771 13.6167 19.4995 11.9999 19.4995C10.3831 19.4995 8.80956 18.977 7.51386 18.0099C6.21816 17.0428 5.26967 15.6829 4.80977 14.1329C4.34988 12.5829 4.40319 10.9257 4.96177 9.40844C5.52036 7.89117 6.5543 6.59504 7.90948 5.71323C7.99233 5.65959 8.06379 5.59013 8.11974 5.50882C8.17569 5.42751 8.21505 5.33596 8.23555 5.23942C8.25605 5.14287 8.25729 5.04322 8.2392 4.9462C8.22111 4.84917 8.18405 4.75666 8.13014 4.67399C8.07623 4.59131 8.00653 4.52009 7.92504 4.4644C7.84355 4.40872 7.75187 4.36967 7.65525 4.34949C7.55864 4.32931 7.45899 4.32839 7.36202 4.3468C7.26505 4.36521 7.17267 4.40258 7.09017 4.45676C5.46422 5.51513 4.22378 7.07056 3.55374 8.89126C2.8837 10.7119 2.81992 12.7004 3.37192 14.5603C3.92391 16.4202 5.06212 18.0519 6.61691 19.2123C8.17171 20.3727 10.0598 20.9996 11.9999 20.9996C13.94 20.9996 15.8281 20.3727 17.3829 19.2123C18.9377 18.052 20.076 16.4203 20.628 14.5604C21.18 12.7005 21.1162 10.712 20.4462 8.89133C19.7762 7.07064 18.5357 5.51519 16.9098 4.45681V4.4568Z" fill="#1D1F21" style="fill: var(--ui-icon-primary-color);"/>
</svg>
