<svg  viewBox="0 0 24 24" fill="none" xmlns="http://www.w3.org/2000/svg" id="__THIS_ID_NEEDS_FOR_UI_ICON_COMPONENT__">
<path d="M19.75 6.75H18.75V3.75C18.75 3.55109 18.671 3.36032 18.5303 3.21967C18.3897 3.07902 18.1989 3 18 3H6C5.80109 3 5.61032 3.07902 5.46967 3.21967C5.32902 3.36032 5.25 3.55109 5.25 3.75V6.75H4.25002C2.94045 6.75 1.875 7.75937 1.875 9V16.5C1.875 16.6989 1.95402 16.8897 2.09467 17.0303C2.23532 17.171 2.42609 17.25 2.625 17.25H5.25V20.625C5.25 20.8239 5.32902 21.0147 5.46967 21.1553C5.61032 21.296 5.80109 21.375 6 21.375H18C18.1989 21.375 18.3897 21.296 18.5303 21.1553C18.671 21.0147 18.75 20.8239 18.75 20.625V17.25H21.375C21.5739 17.25 21.7647 17.171 21.9053 17.0303C22.046 16.8897 22.125 16.6989 22.125 16.5V9C22.125 7.75937 21.0596 6.75 19.75 6.75ZM6.75 4.5H17.25V6.75H6.75V4.5ZM17.25 19.875H6.75V15H17.25V19.875ZM20.625 15.75H18.75V14.25C18.75 14.0511 18.671 13.8603 18.5303 13.7197C18.3897 13.579 18.1989 13.5 18 13.5H6C5.80109 13.5 5.61032 13.579 5.46967 13.7197C5.32902 13.8603 5.25 14.0511 5.25 14.25V15.75H3.375V9C3.375 8.58646 3.76753 8.25 4.25002 8.25H19.75C20.2325 8.25 20.625 8.58646 20.625 9V15.75ZM18.7505 10.875C18.7505 11.0975 18.6846 11.315 18.561 11.5C18.4373 11.685 18.2616 11.8292 18.0561 11.9144C17.8505 11.9995 17.6243 12.0218 17.4061 11.9784C17.1878 11.935 16.9874 11.8278 16.8301 11.6705C16.6727 11.5132 16.5656 11.3127 16.5222 11.0945C16.4788 10.8762 16.501 10.65 16.5862 10.4445C16.6713 10.2389 16.8155 10.0632 17.0005 9.9396C17.1855 9.81598 17.403 9.75 17.6255 9.75C17.9238 9.75033 18.2098 9.86897 18.4207 10.0799C18.6316 10.2908 18.7502 10.5767 18.7505 10.875Z" fill="#1D1F21" style="fill: var(--ui-icon-primary-color);"/>
</svg>
