<svg  viewBox="0 0 24 24" fill="none" xmlns="http://www.w3.org/2000/svg" id="__THIS_ID_NEEDS_FOR_UI_ICON_COMPONENT__">
<path d="M12.0001 2.25098C10.0717 2.25098 8.18664 2.8228 6.58326 3.89415C4.97988 4.96549 3.73019 6.48823 2.99224 8.26981C2.25429 10.0514 2.0612 12.0118 2.43741 13.9031C2.81361 15.7944 3.74221 17.5317 5.10577 18.8953C6.46934 20.2588 8.20662 21.1874 10.0979 21.5636C11.9893 21.9398 13.9496 21.7468 15.7312 21.0088C17.5128 20.2708 19.0356 19.0212 20.1069 17.4178C21.1782 15.8144 21.7501 13.9293 21.7501 12.001C21.7471 9.41601 20.719 6.93776 18.8911 5.10992C17.0633 3.28207 14.585 2.2539 12.0001 2.25098ZM12.0001 20.251C10.3684 20.251 8.77332 19.7671 7.41661 18.8606C6.05991 17.9541 5.00248 16.6656 4.37806 15.1581C3.75364 13.6506 3.59026 11.9918 3.90859 10.3915C4.22691 8.79114 5.01265 7.32113 6.16643 6.16735C7.32022 5.01356 8.79023 4.22783 10.3906 3.9095C11.9909 3.59117 13.6497 3.75455 15.1572 4.37897C16.6647 5.00339 17.9532 6.06082 18.8597 7.41752C19.7662 8.77423 20.2501 10.3693 20.2501 12.001C20.2476 14.1883 19.3776 16.2852 17.831 17.8319C16.2843 19.3785 14.1873 20.2485 12.0001 20.251ZM15.1821 14.1223C15.3227 14.2629 15.4018 14.4537 15.4018 14.6526C15.4018 14.8515 15.3227 15.0423 15.1821 15.183C15.0414 15.3236 14.8506 15.4027 14.6517 15.4027C14.4528 15.4027 14.262 15.3236 14.1213 15.183L8.81796 9.8797C8.67747 9.739 8.5986 9.54828 8.59867 9.34945C8.59874 9.15062 8.67776 8.95995 8.81835 8.81936C8.95895 8.67876 9.14961 8.59974 9.34844 8.59967C9.54727 8.5996 9.738 8.67848 9.87869 8.81897L15.1821 14.1223Z" fill="#1D1F21" style="fill: var(--ui-icon-primary-color);"/>
</svg>
