<svg  viewBox="0 0 24 24" fill="none" xmlns="http://www.w3.org/2000/svg" id="__THIS_ID_NEEDS_FOR_UI_ICON_COMPONENT__">
<path d="M7.12258 3C7.12257 2.90151 7.14197 2.80398 7.17966 2.71299C7.21735 2.62199 7.27259 2.53931 7.34224 2.46967C7.41188 2.40002 7.49456 2.34478 7.58556 2.30709C7.67656 2.2694 7.77408 2.25 7.87258 2.25H16.1963C16.5685 2.24894 16.9278 2.38679 17.2039 2.63658C17.4799 2.88638 17.6528 3.23015 17.6888 3.60068L18.7308 14.0185C18.7406 14.1165 18.731 14.2154 18.7026 14.3097C18.6741 14.404 18.6274 14.4918 18.565 14.568C18.5027 14.6443 18.4259 14.7075 18.3391 14.754C18.2523 14.8006 18.1572 14.8296 18.0592 14.8394C18.0339 14.8419 18.0086 14.8432 17.9837 14.8432C17.7978 14.8429 17.6187 14.7737 17.481 14.6489C17.3433 14.5242 17.2568 14.3527 17.2383 14.1678L16.1963 3.75H7.87258C7.77408 3.75 7.67656 3.73061 7.58556 3.69292C7.49456 3.65523 7.41188 3.59998 7.34224 3.53034C7.27259 3.46069 7.21735 3.37801 7.17966 3.28702C7.14197 3.19602 7.12257 3.09849 7.12258 3ZM21.3637 22.3051C21.2908 22.3713 21.2056 22.4225 21.1129 22.4558C21.0202 22.4891 20.9219 22.5039 20.8235 22.4991C20.7251 22.4944 20.6286 22.4704 20.5396 22.4284C20.4505 22.3864 20.3705 22.3273 20.3043 22.2544L17.12 18.75H12.75V22.5C12.75 22.6989 12.671 22.8897 12.5303 23.0303C12.3897 23.171 12.1989 23.25 12 23.25C11.8011 23.25 11.6103 23.171 11.4697 23.0303C11.329 22.8897 11.25 22.6989 11.25 22.5V18.75H4.5754C4.35224 18.7496 4.13197 18.6995 3.93059 18.6034C3.72921 18.5072 3.55178 18.3674 3.41118 18.1941C3.27058 18.0208 3.17034 17.8184 3.11774 17.6015C3.06515 17.3847 3.06152 17.1588 3.10712 16.9404C3.38047 15.5989 4.16977 14.4184 5.30502 13.6533C5.3057 13.6511 5.30614 13.649 5.30635 13.6468L6.01799 6.53188L2.58554 2.75437C2.45178 2.60715 2.38197 2.41282 2.39148 2.21414C2.401 2.01545 2.48905 1.82868 2.63626 1.69492C2.78348 1.56115 2.97781 1.49135 3.17649 1.50086C3.37518 1.51037 3.56195 1.59842 3.69571 1.74564L17.9765 17.462C17.9991 17.484 18.0204 17.5074 18.0401 17.532L21.4145 21.2456C21.4807 21.3185 21.5319 21.4038 21.5652 21.4965C21.5985 21.5891 21.6132 21.6875 21.6085 21.7859C21.6038 21.8842 21.5798 21.9807 21.5378 22.0698C21.4958 22.1589 21.4366 22.2389 21.3637 22.3051ZM15.7573 17.2503L7.37599 8.02639L6.79889 13.796C6.77831 14.0149 6.7097 14.2264 6.59797 14.4157C6.48624 14.605 6.33413 14.7672 6.15248 14.891C5.33872 15.4371 4.77261 16.2816 4.57655 17.2418C4.57585 17.2435 4.57566 17.2453 4.57599 17.2471C4.57633 17.2489 4.57717 17.2506 4.57842 17.2519L11.9838 17.2508C11.9892 17.2507 11.9946 17.25 12 17.25C12.0054 17.25 12.0107 17.2507 12.0161 17.2508L15.7573 17.2503Z" fill="#1D1F21" style="fill: var(--ui-icon-primary-color);"/>
</svg>
