<svg  viewBox="0 0 24 24" fill="none" xmlns="http://www.w3.org/2000/svg" id="__THIS_ID_NEEDS_FOR_UI_ICON_COMPONENT__">
<path d="M20.6509 14.8636C20.5439 14.7959 20.4216 14.7565 20.2953 14.7489C20.1689 14.7413 20.0427 14.7658 19.9284 14.8201C19.6426 14.9554 19.3272 15.0162 19.0115 14.9969C18.6959 14.9776 18.3902 14.8788 18.123 14.7097C17.8558 14.5405 17.6357 14.3066 17.4832 14.0295C17.3307 13.7525 17.2507 13.4414 17.2507 13.1251C17.2507 12.8089 17.3307 12.4978 17.4832 12.2208C17.6358 11.9437 17.8559 11.7098 18.1231 11.5406C18.3903 11.3715 18.6959 11.2727 19.0116 11.2534C19.3272 11.2341 19.6426 11.2949 19.9285 11.4303C20.0428 11.4845 20.169 11.509 20.2953 11.5014C20.4216 11.4937 20.5439 11.4543 20.6509 11.3867C20.7579 11.319 20.846 11.2255 20.9071 11.1146C20.9681 11.0038 21.0002 10.8793 21.0002 10.7528L21.0001 6.75016C20.9997 6.35248 20.8415 5.97121 20.5603 5.69C20.279 5.4088 19.8978 5.25062 19.5001 5.25017L16.1048 5.25026C16.1184 5.12569 16.1252 5.00047 16.1251 4.87517C16.1244 4.41418 16.0295 3.95819 15.8464 3.53512C15.6633 3.11205 15.3958 2.73079 15.0603 2.41469C14.5955 1.97823 14.0166 1.68236 13.3906 1.56135C12.7646 1.44033 12.1171 1.49912 11.5231 1.7309C10.9291 1.96268 10.413 2.35797 10.0344 2.871C9.65578 3.38403 9.43026 3.99381 9.38392 4.62972C9.36919 4.83651 9.37335 5.04422 9.39633 5.25026L6.00018 5.25017C5.60235 5.25017 5.22082 5.4082 4.93952 5.68951C4.65821 5.97081 4.50018 6.35234 4.50018 6.75016V9.77058C3.97893 9.71306 3.45144 9.77748 2.95934 9.95875C2.46725 10.14 2.02403 10.4332 1.66465 10.8151C1.22823 11.2799 0.932389 11.8588 0.811393 12.4848C0.690397 13.1108 0.749195 13.7583 0.980977 14.3522C1.21276 14.9462 1.60804 15.4623 2.12106 15.8409C2.63408 16.2195 3.24383 16.445 3.87973 16.4914C4.08649 16.5061 4.29417 16.502 4.50018 16.479V19.5002C4.50018 19.898 4.65821 20.2795 4.93952 20.5608C5.22082 20.8421 5.60235 21.0002 6.00018 21.0002H19.5001C19.8978 20.9997 20.2791 20.8415 20.5603 20.5603C20.8415 20.2791 20.9997 19.8978 21.0001 19.5002L21.0002 15.4976C21.0002 15.371 20.9681 15.2465 20.9071 15.1357C20.846 15.0248 20.7579 14.9312 20.6509 14.8636ZM19.5001 19.5002H6.00018L6.00023 15.4976C6.00022 15.371 5.96818 15.2465 5.90711 15.1357C5.84604 15.0248 5.75792 14.9312 5.65095 14.8636C5.54397 14.796 5.42163 14.7566 5.29531 14.7489C5.16898 14.7413 5.04278 14.7658 4.92846 14.8201C4.64268 14.9553 4.32735 15.016 4.0118 14.9966C3.69624 14.9773 3.39071 14.8784 3.1236 14.7093C2.8565 14.5402 2.6365 14.3063 2.48405 14.0293C2.3316 13.7523 2.25166 13.4413 2.25166 13.1252C2.25166 12.809 2.3316 12.498 2.48405 12.221C2.6365 11.9441 2.8565 11.7102 3.1236 11.541C3.39071 11.3719 3.69624 11.2731 4.0118 11.2537C4.32735 11.2343 4.64268 11.2951 4.92846 11.4302C5.04278 11.4845 5.16898 11.509 5.29531 11.5014C5.42165 11.4938 5.544 11.4544 5.65098 11.3867C5.75795 11.3191 5.84608 11.2255 5.90715 11.1147C5.96821 11.0038 6.00023 10.8793 6.00023 10.7528L6.00018 6.75016L10.3778 6.75026C10.5043 6.75026 10.6288 6.71824 10.7397 6.65717C10.8506 6.5961 10.9441 6.50797 11.0118 6.40099C11.0794 6.294 11.1188 6.17165 11.1265 6.04531C11.1341 5.91898 11.1096 5.79277 11.0553 5.67845C10.9201 5.39267 10.8593 5.07735 10.8787 4.7618C10.8981 4.44624 10.9969 4.14071 11.166 3.87361C11.3352 3.60651 11.5691 3.38651 11.846 3.23406C12.123 3.08161 12.434 3.00168 12.7502 3.00168C13.0663 3.00168 13.3773 3.08161 13.6543 3.23406C13.9312 3.38651 14.1652 3.60651 14.3343 3.87361C14.5034 4.14071 14.6022 4.44624 14.6216 4.7618C14.641 5.07735 14.5802 5.39267 14.445 5.67845C14.3907 5.79277 14.3663 5.91898 14.3739 6.04531C14.3815 6.17165 14.4209 6.294 14.4885 6.40099C14.5562 6.50797 14.6498 6.5961 14.7606 6.65717C14.8715 6.71824 14.996 6.75026 15.1225 6.75026L19.5001 6.75016L19.5002 9.77131C19.0464 9.72025 18.5869 9.76188 18.1496 9.89368C17.7124 10.0255 17.3064 10.2447 16.9564 10.538C16.6064 10.8314 16.3196 11.1928 16.1135 11.6003C15.9073 12.0078 15.786 12.4529 15.757 12.9086C15.7257 13.3696 15.7902 13.8321 15.9464 14.2669C16.1026 14.7017 16.3471 15.0995 16.6646 15.4352C17.024 15.8171 17.4672 16.1103 17.9593 16.2916C18.4514 16.4729 18.9789 16.5373 19.5002 16.4797L19.5001 19.5002Z" fill="#1D1F21" style="fill: var(--ui-icon-primary-color);"/>
</svg>
