<svg  viewBox="0 0 24 24" fill="none" xmlns="http://www.w3.org/2000/svg" id="__THIS_ID_NEEDS_FOR_UI_ICON_COMPONENT__">
<path d="M11.9999 2.24951C10.0715 2.24951 8.18648 2.82134 6.5831 3.89268C4.97972 4.96403 3.73004 6.48677 2.99209 8.26835C2.25413 10.0499 2.06105 12.0103 2.43726 13.9016C2.81346 15.793 3.74206 17.5302 5.10562 18.8938C6.46918 20.2574 8.20647 21.186 10.0978 21.5622C11.9891 21.9384 13.9495 21.7453 15.7311 21.0073C17.5127 20.2694 19.0354 19.0197 20.1067 17.4163C21.1781 15.8129 21.7499 13.9279 21.7499 11.9995C21.747 9.41455 20.7188 6.9363 18.891 5.10845C17.0631 3.28061 14.5849 2.25244 11.9999 2.24951ZM11.9999 20.2495C10.3682 20.2495 8.77316 19.7657 7.41646 18.8591C6.05975 17.9526 5.00233 16.6641 4.37791 15.1566C3.75348 13.6492 3.59011 11.9904 3.90843 10.39C4.22676 8.78967 5.0125 7.31966 6.16628 6.16588C7.32007 5.0121 8.79007 4.22636 10.3904 3.90803C11.9908 3.58971 13.6496 3.75308 15.1571 4.37751C16.6645 5.00193 17.953 6.05935 18.8595 7.41606C19.7661 8.77276 20.2499 10.3678 20.2499 11.9995C20.2474 14.1868 19.3775 16.2838 17.8308 17.8304C16.2842 19.3771 14.1872 20.247 11.9999 20.2495ZM14.6516 7.84787C15.1305 8.32712 15.4706 8.9271 15.636 9.58411C15.8013 10.2411 15.7856 10.9306 15.5906 11.5794C15.3956 12.2283 15.0285 12.8122 14.5284 13.2691C14.0282 13.7261 13.4136 14.0392 12.7499 14.175V14.2495C12.7499 14.4484 12.6709 14.6392 12.5302 14.7798C12.3896 14.9205 12.1988 14.9995 11.9999 14.9995C11.801 14.9995 11.6102 14.9205 11.4696 14.7798C11.3289 14.6392 11.2499 14.4484 11.2499 14.2495V13.4995C11.2499 13.3006 11.3289 13.1098 11.4696 12.9692C11.6102 12.8285 11.801 12.7495 11.9999 12.7495C12.4449 12.7495 12.8799 12.6175 13.2498 12.3703C13.6198 12.1231 13.9082 11.7717 14.0784 11.3606C14.2487 10.9495 14.2933 10.4971 14.2065 10.0607C14.1196 9.62424 13.9054 9.22336 13.5907 8.90871C13.2761 8.59407 12.8752 8.37979 12.4388 8.29297C12.0023 8.20615 11.55 8.2507 11.1389 8.42098C10.7277 8.59125 10.3764 8.87961 10.1291 9.24958C9.8819 9.61956 9.74993 10.0545 9.74991 10.4995C9.74991 10.6984 9.6709 10.8892 9.53024 11.0298C9.38959 11.1705 9.19882 11.2495 8.99991 11.2495C8.801 11.2495 8.61024 11.1705 8.46958 11.0298C8.32893 10.8892 8.24991 10.6984 8.24991 10.4995C8.24992 9.75783 8.46987 9.0328 8.88193 8.41612C9.29399 7.79943 9.87967 7.31879 10.5649 7.03496C11.2501 6.75113 12.0041 6.67687 12.7316 6.82157C13.459 6.96627 14.1272 7.32342 14.6516 7.84787ZM13.125 17.2495V17.2499C13.125 17.5483 13.0064 17.8344 12.7953 18.0454C12.5843 18.2564 12.2981 18.3749 11.9997 18.3749C11.7013 18.3749 11.4152 18.2563 11.2042 18.0453C10.9932 17.8343 10.8746 17.5481 10.8746 17.2497C10.8746 16.9513 10.9932 16.6651 11.2042 16.4541C11.4152 16.2431 11.7013 16.1245 11.9997 16.1245C12.2981 16.1245 12.5843 16.243 12.7953 16.454C13.0064 16.6649 13.125 16.9511 13.125 17.2495Z" fill="#1D1F21" style="fill: var(--ui-icon-primary-color);"/>
</svg>
