<svg  viewBox="0 0 24 24" fill="none" xmlns="http://www.w3.org/2000/svg" id="__THIS_ID_NEEDS_FOR_UI_ICON_COMPONENT__">
<path d="M6.74989 19.5C6.59721 19.5 6.44817 19.4534 6.32269 19.3665C6.1972 19.2795 6.10124 19.1563 6.04763 19.0134L1.54763 7.01336C1.47779 6.82711 1.48479 6.62075 1.5671 6.43966C1.64941 6.25857 1.80029 6.1176 1.98654 6.04776C2.17279 5.97791 2.37915 5.98491 2.56024 6.06722C2.74133 6.14953 2.8823 6.30041 2.95214 6.48666L6.74989 16.614L10.5476 6.48666C10.6012 6.3437 10.6972 6.22052 10.8227 6.13355C10.9482 6.04659 11.0972 6 11.2499 6.00001H21.7499C21.8484 6.00001 21.9459 6.01941 22.0369 6.0571C22.1279 6.09479 22.2106 6.15003 22.2802 6.21967C22.3499 6.28932 22.4051 6.372 22.4428 6.463C22.4805 6.55399 22.4999 6.65152 22.4999 6.75001V9.00001C22.4999 9.19892 22.4209 9.38969 22.2802 9.53034C22.1396 9.67099 21.9488 9.75001 21.7499 9.75001C21.551 9.75001 21.3602 9.67099 21.2196 9.53034C21.0789 9.38969 20.9999 9.19892 20.9999 9.00001V7.50001H11.7696L7.45214 19.0134C7.39854 19.1563 7.30258 19.2795 7.17709 19.3665C7.0516 19.4534 6.90256 19.5 6.74989 19.5Z" fill="#1D1F21" style="fill: var(--ui-icon-primary-color);"/>
</svg>
