<svg  viewBox="0 0 24 24" fill="none" xmlns="http://www.w3.org/2000/svg" id="__THIS_ID_NEEDS_FOR_UI_ICON_COMPONENT__">
<path d="M18.75 10.5C17.8472 10.5023 16.9658 10.775 16.2195 11.283C15.4731 11.791 14.8961 12.5109 14.5627 13.3499C14.4588 13.3388 14.3545 13.3333 14.25 13.3334C12.5958 13.3334 11.25 14.7166 11.25 16.4167C11.25 18.1168 12.5958 19.5 14.25 19.5H18.75C19.9435 19.5 21.0881 19.0259 21.932 18.182C22.7759 17.3381 23.25 16.1935 23.25 15C23.25 13.8065 22.7759 12.6619 21.932 11.818C21.0881 10.9741 19.9435 10.5 18.75 10.5ZM18.75 18H14.25C13.4229 18 12.75 17.2897 12.75 16.4167C12.75 15.5436 13.4229 14.8334 14.25 14.8334C14.4357 14.833 14.6197 14.8691 14.7915 14.9396C14.8936 14.9814 15.0037 15.0002 15.1139 14.9946C15.224 14.989 15.3316 14.9592 15.429 14.9072C15.5263 14.8553 15.611 14.7825 15.677 14.6941C15.743 14.6057 15.7887 14.5038 15.8107 14.3957C15.925 13.8398 16.1946 13.3277 16.5882 12.9188C16.9818 12.51 17.4833 12.2211 18.0344 12.0858C18.5856 11.9505 19.1638 11.9743 19.702 12.1545C20.2402 12.3346 20.7162 12.6637 21.0749 13.1035C21.4335 13.5433 21.6601 14.0759 21.7283 14.6393C21.7964 15.2027 21.7034 15.7739 21.46 16.2865C21.2166 16.7992 20.8328 17.2323 20.3531 17.5356C19.8734 17.8389 19.3175 17.9999 18.75 18ZM2.25 15V16.5C2.25 16.6989 2.17098 16.8897 2.03033 17.0303C1.88968 17.171 1.69891 17.25 1.5 17.25C1.30109 17.25 1.11032 17.171 0.96967 17.0303C0.829018 16.8897 0.75 16.6989 0.75 16.5V15C0.750002 13.0832 1.31497 11.209 2.37428 9.61158C3.4336 8.01414 4.94026 6.76437 6.70594 6.0185C8.47161 5.27262 10.418 5.06372 12.3017 5.41792C14.1855 5.77212 15.923 6.67369 17.2972 8.00995C17.4398 8.14864 17.5215 8.33829 17.5242 8.53719C17.527 8.73609 17.4507 8.92794 17.312 9.07055C17.1733 9.21315 16.9836 9.29482 16.7847 9.2976C16.5858 9.30037 16.394 9.22401 16.2514 9.08533C15.0886 7.95465 13.6184 7.19179 12.0245 6.89208C10.4305 6.59238 8.78361 6.76914 7.28958 7.40027C5.79556 8.0314 4.5207 9.0889 3.62436 10.4406C2.72803 11.7923 2.24999 13.3781 2.25 15ZM5.25 15V16.5C5.25 16.6989 5.17098 16.8897 5.03033 17.0303C4.88968 17.171 4.69891 17.25 4.5 17.25C4.30109 17.25 4.11032 17.171 3.96967 17.0303C3.82902 16.8897 3.75 16.6989 3.75 16.5V15C3.75008 13.7524 4.09592 12.5292 4.74912 11.4662C5.40232 10.4032 6.33732 9.54209 7.45033 8.97837C8.56334 8.41465 9.8108 8.1704 11.0542 8.27276C12.2976 8.37511 13.4884 8.82006 14.4942 9.5582C14.5737 9.6165 14.6409 9.68988 14.6919 9.77415C14.743 9.85843 14.777 9.95195 14.7919 10.0494C14.8068 10.1468 14.8024 10.2462 14.7789 10.3419C14.7553 10.4376 14.7132 10.5277 14.6548 10.6071C14.5965 10.6865 14.523 10.7536 14.4387 10.8046C14.3544 10.8556 14.2608 10.8895 14.1634 10.9043C14.066 10.9191 13.9666 10.9146 13.8709 10.891C13.7752 10.8674 13.6851 10.8251 13.6058 10.7667C12.8234 10.1929 11.8973 9.84704 10.9303 9.76762C9.96325 9.6882 8.99314 9.8783 8.1276 10.3168C7.26207 10.7553 6.53497 11.4251 6.02701 12.2518C5.51905 13.0785 5.2501 14.0297 5.25 15ZM11.0225 12.8108C10.6919 12.7324 10.3478 12.7298 10.016 12.8032C9.68426 12.8766 9.37338 13.0241 9.10669 13.2347C8.84 13.4453 8.62441 13.7135 8.47605 14.0192C8.32769 14.3249 8.25041 14.6602 8.25 15V16.5C8.25 16.6989 8.17098 16.8897 8.03033 17.0303C7.88968 17.171 7.69891 17.25 7.5 17.25C7.30109 17.25 7.11032 17.171 6.96967 17.0303C6.82902 16.8897 6.75 16.6989 6.75 16.5V15C6.75036 14.4337 6.87887 13.8749 7.12591 13.3654C7.37294 12.8558 7.73209 12.4088 8.17645 12.0578C8.6208 11.7068 9.13883 11.4609 9.69172 11.3386C10.2446 11.2163 10.818 11.2207 11.369 11.3514C11.4649 11.3741 11.5554 11.4155 11.6353 11.4731C11.7152 11.5308 11.7829 11.6036 11.8347 11.6875C11.8864 11.7714 11.9211 11.8646 11.9368 11.9619C11.9525 12.0592 11.9488 12.1586 11.9261 12.2545C11.9033 12.3504 11.8619 12.4408 11.8041 12.5207C11.7464 12.6005 11.6735 12.6682 11.5896 12.7199C11.5057 12.7716 11.4124 12.8062 11.3151 12.8218C11.2178 12.8374 11.1184 12.8336 11.0225 12.8108L11.0225 12.8108Z" fill="#1D1F21" style="fill: var(--ui-icon-primary-color);"/>
</svg>
