<svg  viewBox="0 0 24 24" fill="none" xmlns="http://www.w3.org/2000/svg" id="__THIS_ID_NEEDS_FOR_UI_ICON_COMPONENT__">
<path d="M6.375 9.75C6.375 9.55109 6.45402 9.36032 6.59467 9.21967C6.73532 9.07902 6.92609 9 7.125 9H16.875C17.0739 9 17.2647 9.07902 17.4053 9.21967C17.546 9.36032 17.625 9.55109 17.625 9.75C17.625 9.94891 17.546 10.1397 17.4053 10.2803C17.2647 10.421 17.0739 10.5 16.875 10.5H7.125C6.92609 10.5 6.73532 10.421 6.59467 10.2803C6.45402 10.1397 6.375 9.94891 6.375 9.75ZM7.125 13.5H16.875C17.0739 13.5 17.2647 13.421 17.4053 13.2803C17.546 13.1397 17.625 12.9489 17.625 12.75C17.625 12.5511 17.546 12.3603 17.4053 12.2197C17.2647 12.079 17.0739 12 16.875 12H7.125C6.92609 12 6.73532 12.079 6.59467 12.2197C6.45402 12.3603 6.375 12.5511 6.375 12.75C6.375 12.9489 6.45402 13.1397 6.59467 13.2803C6.73532 13.421 6.92609 13.5 7.125 13.5ZM21.75 5.25V19.5C21.75 19.6278 21.7173 19.7536 21.6551 19.8652C21.5928 19.9769 21.503 20.0708 21.3943 20.138C21.2855 20.2052 21.1614 20.2435 21.0337 20.2492C20.906 20.255 20.7789 20.228 20.6646 20.1708L18 18.8385L15.3354 20.1708C15.2313 20.2229 15.1164 20.25 15 20.25C14.8836 20.25 14.7687 20.2229 14.6646 20.1708L12 18.8385L9.33545 20.1708C9.23129 20.2229 9.11645 20.25 9 20.25C8.88355 20.25 8.76871 20.2229 8.66455 20.1708L6 18.8385L3.33545 20.1708C3.2211 20.228 3.09404 20.255 2.96632 20.2492C2.8386 20.2435 2.71447 20.2052 2.60572 20.138C2.49696 20.0708 2.40719 19.9769 2.34494 19.8652C2.28268 19.7536 2.25 19.6278 2.25 19.5V5.25C2.25045 4.85231 2.40864 4.47105 2.68984 4.18984C2.97105 3.90864 3.35231 3.75045 3.75 3.75H20.25C20.6477 3.75045 21.029 3.90864 21.3102 4.18984C21.5914 4.47105 21.7495 4.85231 21.75 5.25ZM20.25 5.25H3.75V18.2865L5.66455 17.3292C5.76871 17.2771 5.88355 17.25 6 17.25C6.11645 17.25 6.23129 17.2771 6.33545 17.3292L9 18.6615L11.6646 17.3292C11.7687 17.2771 11.8836 17.25 12 17.25C12.1164 17.25 12.2313 17.2771 12.3354 17.3292L15 18.6615L17.6646 17.3292C17.7687 17.2771 17.8836 17.25 18 17.25C18.1164 17.25 18.2313 17.2771 18.3354 17.3292L20.25 18.2865V5.25Z" fill="#1D1F21" style="fill: var(--ui-icon-primary-color);"/>
</svg>
