<svg  viewBox="0 0 24 24" fill="none" xmlns="http://www.w3.org/2000/svg" id="__THIS_ID_NEEDS_FOR_UI_ICON_COMPONENT__">
<path d="M11.9999 2.25C10.0716 2.25 8.18651 2.82183 6.58313 3.89317C4.97975 4.96451 3.73007 6.48726 2.99212 8.26884C2.25416 10.0504 2.06108 12.0108 2.43729 13.9021C2.81349 15.7934 3.74209 17.5307 5.10565 18.8943C6.46921 20.2579 8.2065 21.1865 10.0978 21.5627C11.9891 21.9389 13.9495 21.7458 15.7311 21.0078C17.5127 20.2699 19.0354 19.0202 20.1068 17.4168C21.1781 15.8134 21.7499 13.9284 21.7499 12C21.747 9.41504 20.7188 6.93679 18.891 5.10894C17.0632 3.28109 14.5849 2.25293 11.9999 2.25ZM11.9999 20.25C10.3682 20.25 8.77319 19.7661 7.41649 18.8596C6.05978 17.9531 5.00236 16.6646 4.37794 15.1571C3.75351 13.6496 3.59014 11.9908 3.90846 10.3905C4.22679 8.79016 5.01253 7.32015 6.16631 6.16637C7.3201 5.01259 8.7901 4.22685 10.3904 3.90852C11.9908 3.59019 13.6496 3.75357 15.1571 4.37799C16.6646 5.00242 17.953 6.05984 18.8596 7.41655C19.7661 8.77325 20.2499 10.3683 20.2499 12C20.2475 14.1873 19.3775 16.2843 17.8308 17.8309C16.2842 19.3775 14.1872 20.2475 11.9999 20.25ZM11.9999 5.25C10.6649 5.25 9.35988 5.64588 8.24984 6.38758C7.13981 7.12928 6.27465 8.18349 5.76376 9.41689C5.25287 10.6503 5.11919 12.0075 5.37964 13.3169C5.64009 14.6262 6.28297 15.829 7.22697 16.773C8.17098 17.717 9.37371 18.3599 10.6831 18.6203C11.9925 18.8808 13.3497 18.7471 14.5831 18.2362C15.8165 17.7253 16.8707 16.8601 17.6124 15.7501C18.3541 14.6401 18.7499 13.335 18.7499 12C18.7479 10.2104 18.0361 8.49469 16.7707 7.22926C15.5053 5.96382 13.7895 5.25202 11.9999 5.25ZM11.9999 17.25C10.9616 17.25 9.94656 16.9421 9.0832 16.3652C8.21984 15.7883 7.54694 14.9684 7.14958 14.0091C6.75222 13.0498 6.64825 11.9942 6.85082 10.9758C7.05339 9.95738 7.55341 9.02192 8.28763 8.28769C9.02186 7.55346 9.95732 7.05345 10.9757 6.85088C11.9941 6.6483 13.0497 6.75227 14.009 7.14963C14.9683 7.54699 15.7883 8.2199 16.3652 9.08326C16.942 9.94661 17.2499 10.9616 17.2499 12C17.2484 13.3919 16.6948 14.7264 15.7105 15.7106C14.7263 16.6948 13.3919 17.2484 11.9999 17.25Z" fill="#1D1F21" style="fill: var(--ui-icon-primary-color);"/>
</svg>
