<svg  viewBox="0 0 24 24" fill="none" xmlns="http://www.w3.org/2000/svg" id="__THIS_ID_NEEDS_FOR_UI_ICON_COMPONENT__">
<path d="M20.2507 20.25H3.75073C3.35305 20.2495 2.97178 20.0914 2.69057 19.8102C2.40936 19.529 2.25118 19.1477 2.25073 18.75V5.25C2.25118 4.85231 2.40936 4.47104 2.69057 4.18984C2.97178 3.90863 3.35305 3.75045 3.75073 3.75H20.2507C20.6484 3.75045 21.0297 3.90863 21.3109 4.18984C21.5921 4.47104 21.7503 4.85231 21.7507 5.25V18.75C21.7503 19.1477 21.5921 19.529 21.3109 19.8102C21.0297 20.0914 20.6484 20.2495 20.2507 20.25ZM3.75073 5.25V18.75H20.2507L20.2517 18.75L20.2507 5.25H3.75073Z" fill="#1D1F21" style="fill: var(--ui-icon-primary-color);"/>
</svg>
