<svg  viewBox="0 0 24 24" fill="none" xmlns="http://www.w3.org/2000/svg" id="__THIS_ID_NEEDS_FOR_UI_ICON_COMPONENT__">
<path d="M8.24978 13.8749C7.95311 13.8749 7.6631 13.787 7.41642 13.6221C7.16975 13.4573 6.97749 13.223 6.86396 12.949C6.75043 12.6749 6.72072 12.3733 6.7786 12.0823C6.83648 11.7913 6.97934 11.5241 7.18912 11.3143C7.3989 11.1045 7.66617 10.9616 7.95714 10.9038C8.24811 10.8459 8.54971 10.8756 8.8238 10.9891C9.09789 11.1026 9.33216 11.2949 9.49698 11.5416C9.66181 11.7883 9.74978 12.0783 9.74978 12.3749C9.74932 12.7726 9.59114 13.1539 9.30994 13.4351C9.02873 13.7163 8.64746 13.8745 8.24978 13.8749ZM15.7498 10.8749C15.4531 10.8749 15.1631 10.9629 14.9164 11.1277C14.6698 11.2926 14.4775 11.5268 14.364 11.8009C14.2504 12.075 14.2207 12.3766 14.2786 12.6676C14.3365 12.9585 14.4793 13.2258 14.6891 13.4356C14.8989 13.6454 15.1662 13.7882 15.4571 13.8461C15.7481 13.904 16.0497 13.8743 16.3238 13.7608C16.5979 13.6472 16.8322 13.455 16.997 13.2083C17.1618 12.9616 17.2498 12.6716 17.2498 12.3749C17.2493 11.9772 17.0911 11.596 16.8099 11.3148C16.5287 11.0336 16.1475 10.8754 15.7498 10.8749ZM14.7519 15.8336C13.9008 16.2721 12.9572 16.5009 11.9998 16.5009C11.0424 16.5009 10.0988 16.2721 9.24771 15.8336C9.07103 15.743 8.86566 15.7262 8.6766 15.7868C8.48754 15.8474 8.33023 15.9805 8.23915 16.1569C8.14806 16.3334 8.13064 16.5387 8.1907 16.7279C8.25076 16.9171 8.38341 17.0748 8.55955 17.1664C9.62347 17.7146 10.803 18.0006 11.9998 18.0006C13.1966 18.0006 14.3761 17.7146 15.4401 17.1664C15.5279 17.1214 15.6059 17.0595 15.6698 16.9843C15.7336 16.9091 15.782 16.822 15.8121 16.728C15.8422 16.634 15.8535 16.535 15.8453 16.4367C15.8371 16.3384 15.8096 16.2426 15.7643 16.155C15.7191 16.0673 15.6569 15.9894 15.5815 15.9258C15.5061 15.8621 15.4189 15.814 15.3248 15.7842C15.2308 15.7543 15.1317 15.7433 15.0334 15.7518C14.9351 15.7603 14.8395 15.7881 14.7519 15.8336ZM22.2799 11.9577C22.4255 12.4589 22.4996 12.9781 22.4998 13.4999C22.4998 15.5563 21.3708 17.4704 19.321 18.8896C17.3552 20.2505 14.7552 20.9999 11.9998 20.9999C9.24436 20.9999 6.64431 20.2505 4.67858 18.8896C2.62872 17.4704 1.49978 15.5563 1.49978 13.4999C1.50001 12.9781 1.57403 12.4589 1.71964 11.9577C1.13955 11.4247 0.792487 10.6848 0.753445 9.89791C0.714402 9.11106 0.986517 8.34044 1.51099 7.75257C2.03546 7.1647 2.77017 6.80679 3.55637 6.75618C4.34256 6.70556 5.1171 6.96631 5.71262 7.48208C7.34817 6.6132 9.31445 6.10346 11.3619 6.01518L12.01 2.12661C12.0424 1.93203 12.1503 1.75806 12.3101 1.64239C12.4699 1.52672 12.6688 1.47867 12.8638 1.50863L15.6428 1.93614C15.8938 1.46856 16.302 1.10477 16.7953 0.90906C17.2885 0.71335 17.8351 0.698322 18.3384 0.866632C18.8417 1.03494 19.2693 1.37575 19.5456 1.82883C19.822 2.28191 19.9292 2.81808 19.8484 3.34259C19.7677 3.8671 19.5041 4.34617 19.1043 4.69514C18.7045 5.04411 18.1941 5.2405 17.6635 5.2496C17.1329 5.25871 16.6162 5.07995 16.2046 4.74491C15.7931 4.40987 15.5132 3.94013 15.4145 3.4187L13.3678 3.10385L12.8807 6.02658C14.8405 6.14342 16.7162 6.6476 18.2869 7.48208C18.8825 6.96631 19.657 6.70556 20.4432 6.75617C21.2294 6.80679 21.9641 7.1647 22.4886 7.75257C23.013 8.34044 23.2852 9.11106 23.2461 9.89791C23.2071 10.6848 22.86 11.4247 22.2799 11.9577H22.2799ZM16.8748 2.99993C16.8748 3.14827 16.9188 3.29327 17.0012 3.41661C17.0836 3.53995 17.2007 3.63608 17.3378 3.69284C17.4748 3.74961 17.6256 3.76446 17.7711 3.73552C17.9166 3.70658 18.0502 3.63515 18.1551 3.53026C18.26 3.42537 18.3314 3.29174 18.3604 3.14625C18.3893 3.00077 18.3745 2.84997 18.3177 2.71292C18.2609 2.57588 18.1648 2.45874 18.0415 2.37633C17.9181 2.29392 17.7731 2.24993 17.6248 2.24993C17.4259 2.25016 17.2353 2.32925 17.0947 2.46985C16.9541 2.61046 16.875 2.80109 16.8748 2.99993ZM21.7498 9.74993C21.7498 9.43319 21.6495 9.12459 21.4633 8.86833C21.2771 8.61208 21.0146 8.42133 20.7134 8.32341C20.4122 8.2255 20.0877 8.22544 19.7864 8.32325C19.4852 8.42106 19.2226 8.61172 19.0363 8.86791C18.9282 9.01636 18.7693 9.11996 18.5898 9.15906C18.4103 9.19816 18.2227 9.17004 18.0626 9.08004C18.0491 9.07244 18.0359 9.06448 18.023 9.05615C16.3639 8.05278 14.2266 7.50035 12.002 7.49998L12.0007 7.50003L11.9988 7.49996C9.77372 7.50012 7.63606 8.05259 5.97662 9.05615C5.96554 9.06329 5.95428 9.07016 5.94274 9.07675C5.78244 9.1688 5.59379 9.19839 5.413 9.15985C5.23222 9.12131 5.07204 9.01734 4.96322 8.86792C4.83215 8.68769 4.66258 8.53893 4.46683 8.43244C4.27107 8.32596 4.05405 8.26442 3.83154 8.2523C3.60903 8.24018 3.38661 8.27778 3.18045 8.36238C2.97429 8.44698 2.78956 8.57645 2.6397 8.74137C2.48983 8.90629 2.37859 9.10253 2.31406 9.31583C2.24953 9.52912 2.23333 9.75412 2.26663 9.97446C2.29993 10.1948 2.38191 10.405 2.5066 10.5896C2.63128 10.7743 2.79555 10.9289 2.98746 11.0422C3.14432 11.135 3.262 11.2818 3.31851 11.4551C3.37502 11.6284 3.36649 11.8164 3.29453 11.9838C3.10099 12.4659 3.00096 12.9804 2.99978 13.4999C2.99978 15.0496 3.89919 16.5256 5.5324 17.6562C7.2497 18.8452 9.54653 19.4999 11.9998 19.4999C14.453 19.4999 16.7499 18.8451 18.4672 17.6562C20.1004 16.5256 20.9998 15.0496 20.9998 13.4999C20.9986 12.979 20.898 12.4631 20.7035 11.9799C20.6327 11.8127 20.625 11.6255 20.6818 11.4531C20.7385 11.2807 20.8559 11.1347 21.0121 11.0422C21.2363 10.9089 21.4221 10.7198 21.5514 10.4934C21.6807 10.2669 21.749 10.0107 21.7498 9.74993Z" fill="#1D1F21" style="fill: var(--ui-icon-primary-color);"/>
</svg>
