<svg  viewBox="0 0 24 24" fill="none" xmlns="http://www.w3.org/2000/svg" id="__THIS_ID_NEEDS_FOR_UI_ICON_COMPONENT__">
<path d="M11.9999 2.25C10.0716 2.25 8.18651 2.82183 6.58313 3.89317C4.97975 4.96451 3.73007 6.48726 2.99212 8.26884C2.25416 10.0504 2.06108 12.0108 2.43729 13.9021C2.81349 15.7934 3.74209 17.5307 5.10565 18.8943C6.46921 20.2579 8.2065 21.1865 10.0978 21.5627C11.9891 21.9389 13.9495 21.7458 15.7311 21.0078C17.5127 20.2699 19.0354 19.0202 20.1068 17.4168C21.1781 15.8134 21.7499 13.9284 21.7499 12C21.747 9.41504 20.7188 6.93679 18.891 5.10894C17.0632 3.28109 14.5849 2.25293 11.9999 2.25ZM11.9999 20.25C10.3682 20.25 8.77319 19.7661 7.41649 18.8596C6.05978 17.9531 5.00236 16.6646 4.37794 15.1571C3.75351 13.6496 3.59014 11.9908 3.90846 10.3905C4.22679 8.79016 5.01253 7.32015 6.16631 6.16637C7.3201 5.01259 8.7901 4.22685 10.3904 3.90852C11.9908 3.59019 13.6496 3.75357 15.1571 4.37799C16.6646 5.00242 17.953 6.05984 18.8596 7.41655C19.7661 8.77325 20.2499 10.3683 20.2499 12C20.2475 14.1873 19.3775 16.2843 17.8308 17.8309C16.2842 19.3775 14.1872 20.2475 11.9999 20.25ZM16.8538 8.33876C16.7341 8.27468 16.5993 8.2443 16.4637 8.25085C16.3281 8.25741 16.1969 8.30065 16.0839 8.37598L11.5839 11.376C11.4812 11.4445 11.397 11.5373 11.3387 11.6461C11.2804 11.755 11.2499 11.8765 11.2499 12C11.2499 12.1235 11.2804 12.245 11.3387 12.3539C11.397 12.4628 11.4812 12.5555 11.5839 12.624L16.0839 15.624C16.1969 15.6993 16.3281 15.7425 16.4637 15.7491C16.5993 15.7556 16.7341 15.7253 16.8538 15.6612C16.9735 15.5972 17.0736 15.5018 17.1433 15.3854C17.2131 15.2689 17.2499 15.1357 17.2499 15V9C17.2499 8.86425 17.2131 8.73104 17.1433 8.61459C17.0736 8.49814 16.9735 8.40281 16.8538 8.33876ZM15.7499 13.5986L13.352 12L15.7499 10.4014V13.5986ZM10.8538 8.33876C10.7341 8.27468 10.5993 8.24429 10.4637 8.25085C10.3281 8.2574 10.1969 8.30065 10.0839 8.37598L5.58393 11.376C5.48119 11.4445 5.39695 11.5373 5.33869 11.6461C5.28043 11.755 5.24994 11.8765 5.24994 12C5.24994 12.1235 5.28043 12.245 5.33869 12.3539C5.39695 12.4627 5.48119 12.5555 5.58393 12.624L10.0839 15.624C10.1969 15.6993 10.3281 15.7425 10.4637 15.7491C10.5993 15.7556 10.7341 15.7253 10.8538 15.6612C10.9735 15.5972 11.0736 15.5018 11.1433 15.3854C11.2131 15.2689 11.2499 15.1357 11.2499 15V9C11.2499 8.86425 11.2131 8.73104 11.1433 8.61459C11.0736 8.49814 10.9735 8.40281 10.8538 8.33876V8.33876ZM9.74994 13.5986L7.35199 12L9.74994 10.4014V13.5986Z" fill="#1D1F21" style="fill: var(--ui-icon-primary-color);"/>
</svg>
