<svg  viewBox="0 0 24 24" fill="none" xmlns="http://www.w3.org/2000/svg" id="__THIS_ID_NEEDS_FOR_UI_ICON_COMPONENT__">
<path d="M14.25 20.9994C14.25 21.1983 14.1709 21.389 14.0303 21.5297C13.8896 21.6704 13.6989 21.7494 13.5 21.7494H10.5C10.301 21.7494 10.1103 21.6704 9.96963 21.5297C9.82897 21.3891 9.74996 21.1983 9.74996 20.9994C9.74996 20.8005 9.82897 20.6097 9.96963 20.469C10.1103 20.3284 10.301 20.2494 10.5 20.2494H13.5C13.6989 20.2494 13.8896 20.3284 14.0303 20.469C14.1709 20.6097 14.25 20.8005 14.25 20.9994ZM12 10.1244C12.2225 10.1244 12.44 10.0584 12.625 9.93478C12.81 9.81116 12.9542 9.63546 13.0393 9.42989C13.1245 9.22433 13.1467 8.99813 13.1033 8.7799C13.0599 8.56167 12.9528 8.36121 12.7955 8.20388C12.6381 8.04655 12.4377 7.9394 12.2194 7.89599C12.0012 7.85258 11.775 7.87486 11.5694 7.96001C11.3639 8.04516 11.1882 8.18935 11.0646 8.37436C10.9409 8.55936 10.875 8.77687 10.875 8.99938C10.875 9.29774 10.9935 9.58389 11.2045 9.79487C11.4154 10.0058 11.7016 10.1244 12 10.1244ZM20.9022 14.7719L19.7431 19.9874C19.6886 20.2364 19.5713 20.4673 19.4022 20.658C19.2331 20.8487 19.0179 20.9929 18.7772 21.0768C18.6162 21.1337 18.4467 21.1629 18.276 21.163C17.9361 21.1627 17.6065 21.0464 17.3418 20.8333L14.7369 18.7494H9.26299L6.65804 20.8333C6.45914 20.9924 6.223 21.0983 5.97186 21.1409C5.72073 21.1835 5.46288 21.1614 5.22263 21.0768C4.98238 20.9922 4.76765 20.8478 4.59867 20.6572C4.42969 20.4665 4.31203 20.2361 4.25679 19.9874L3.09774 14.7718C3.04871 14.5479 3.05132 14.3157 3.10538 14.093C3.15944 13.8702 3.26353 13.6627 3.40975 13.4861L6.18549 10.1552C6.26962 9.00714 6.5255 7.87821 6.9446 6.80609C8.0447 3.97331 9.99495 2.11964 11.0595 1.26678C11.3274 1.05407 11.6597 0.93881 12.0018 0.93995C12.3439 0.94109 12.6754 1.05856 12.9419 1.27305C13.9927 2.12678 15.9182 3.98182 17.0073 6.81419C17.4129 7.86259 17.6648 8.96406 17.7555 10.0845L20.5902 13.4861C20.7364 13.6627 20.8405 13.8702 20.8945 14.093C20.9486 14.3158 20.9512 14.548 20.9022 14.7719ZM9.43859 17.2494H14.5546C15.8844 14.7191 18.5863 7.79244 11.9968 2.43788C10.2399 3.8456 4.93785 9.02538 9.43859 17.2494ZM8.03705 17.8093C7.05515 15.9786 6.45701 14.1854 6.24263 12.4296L4.56203 14.4464L5.72109 19.662L8.03705 17.8093ZM19.4379 14.4464L17.7157 12.3798C17.5158 14.1467 16.9301 15.9553 15.9585 17.8058L18.2788 19.662L19.4379 14.4464Z" fill="#1D1F21" style="fill: var(--ui-icon-primary-color);"/>
</svg>
