<svg  viewBox="0 0 24 24" fill="none" xmlns="http://www.w3.org/2000/svg" id="__THIS_ID_NEEDS_FOR_UI_ICON_COMPONENT__">
<path d="M20.2505 18.75C20.2505 18.9489 20.1715 19.1397 20.0309 19.2803C19.8902 19.421 19.6995 19.5 19.5005 19.5C19.3016 19.5 19.1109 19.421 18.9702 19.2803C18.8296 19.1397 18.7505 18.9489 18.7505 18.75C18.7505 11.306 12.6945 5.25 5.25055 5.25C5.05164 5.25 4.86087 5.17098 4.72022 5.03033C4.57957 4.88968 4.50055 4.69891 4.50055 4.5C4.50055 4.30109 4.57957 4.11032 4.72022 3.96967C4.86087 3.82902 5.05164 3.75 5.25055 3.75C13.5216 3.75 20.2505 10.4789 20.2505 18.75ZM5.25055 10.5C5.05164 10.5 4.86087 10.579 4.72022 10.7197C4.57957 10.8603 4.50055 11.0511 4.50055 11.25C4.50055 11.4489 4.57957 11.6397 4.72022 11.7803C4.86087 11.921 5.05164 12 5.25055 12C7.04014 12.002 8.75586 12.7138 10.0213 13.9793C11.2867 15.2447 11.9985 16.9604 12.0006 18.75C12.0006 18.9489 12.0796 19.1397 12.2202 19.2803C12.3609 19.421 12.5516 19.5 12.7506 19.5C12.9495 19.5 13.1402 19.421 13.2809 19.2803C13.4215 19.1397 13.5006 18.9489 13.5006 18.75C13.4981 16.5627 12.6281 14.4657 11.0815 12.9191C9.53481 11.3725 7.43783 10.5025 5.25055 10.5ZM5.25055 17.625C5.02805 17.625 4.81054 17.691 4.62553 17.8146C4.44053 17.9382 4.29633 18.1139 4.21119 18.3195C4.12604 18.525 4.10376 18.7512 4.14717 18.9695C4.19057 19.1877 4.29772 19.3882 4.45505 19.5455C4.61239 19.7028 4.81284 19.81 5.03107 19.8534C5.2493 19.8968 5.4755 19.8745 5.68107 19.7894C5.88664 19.7042 6.06234 19.56 6.18595 19.375C6.30957 19.19 6.37555 18.9725 6.37555 18.75C6.37522 18.4517 6.25658 18.1658 6.04568 17.9549C5.83477 17.744 5.54882 17.6253 5.25055 17.625Z" fill="#1D1F21" style="fill: var(--ui-icon-primary-color);"/>
</svg>
