<svg  viewBox="0 0 24 24" fill="none" xmlns="http://www.w3.org/2000/svg" id="__THIS_ID_NEEDS_FOR_UI_ICON_COMPONENT__">
<path d="M9.27351 14.7266C9.90227 15.3519 10.4008 16.0957 10.7401 16.915C11.0795 17.7343 11.253 18.6128 11.2506 19.4996C11.2506 19.6985 11.1715 19.8892 11.0309 20.0299C10.8902 20.1706 10.6995 20.2496 10.5006 20.2496C10.3016 20.2496 10.1109 20.1706 9.97022 20.0299C9.82957 19.8892 9.75055 19.6985 9.75055 19.4996C9.75054 18.1072 9.19742 16.7718 8.21285 15.7873C7.22829 14.8027 5.89293 14.2496 4.50055 14.2496C4.30164 14.2496 4.11087 14.1706 3.97022 14.0299C3.82957 13.8892 3.75055 13.6985 3.75055 13.4996C3.75055 13.3007 3.82957 13.1099 3.97022 12.9692C4.11087 12.8286 4.30164 12.7496 4.50055 12.7496C5.38732 12.7472 6.26577 12.9206 7.08505 13.26C7.90433 13.5993 8.64817 14.0978 9.27351 14.7266ZM4.50055 8.24957C4.30164 8.24957 4.11087 8.32859 3.97022 8.46924C3.82957 8.60989 3.75055 8.80066 3.75055 8.99957C3.75055 9.19848 3.82957 9.38925 3.97022 9.5299C4.11087 9.67055 4.30164 9.74957 4.50055 9.74957C7.0864 9.74961 9.56632 10.7769 11.3948 12.6053C13.2233 14.4338 14.2505 16.9137 14.2506 19.4996C14.2506 19.6985 14.3296 19.8892 14.4702 20.0299C14.6109 20.1706 14.8016 20.2496 15.0006 20.2496C15.1995 20.2496 15.3902 20.1706 15.5309 20.0299C15.6715 19.8892 15.7505 19.6985 15.7505 19.4996C15.7505 16.5159 14.5653 13.6544 12.4555 11.5446C10.3457 9.43486 7.48423 8.24959 4.50055 8.24957ZM15.6375 8.36264C14.1783 6.89555 12.4427 5.73243 10.5311 4.9406C8.61942 4.14877 6.5697 3.74395 4.50055 3.74957C4.30164 3.74957 4.11087 3.82859 3.97022 3.96924C3.82957 4.10989 3.75055 4.30066 3.75055 4.49957C3.75055 4.69848 3.82957 4.88925 3.97022 5.0299C4.11087 5.17055 4.30164 5.24957 4.50055 5.24957C6.37265 5.24446 8.22717 5.61073 9.95677 6.32716C11.6864 7.04359 13.2567 8.09597 14.5768 9.42337C15.9042 10.7435 16.9566 12.3138 17.673 14.0434C18.3894 15.773 18.7557 17.6275 18.7505 19.4996C18.7505 19.6985 18.8296 19.8892 18.9702 20.0299C19.1109 20.1706 19.3016 20.2496 19.5005 20.2496C19.6995 20.2496 19.8902 20.1706 20.0309 20.0299C20.1715 19.8892 20.2505 19.6985 20.2505 19.4996C20.2562 17.4304 19.8514 15.3807 19.0595 13.469C18.2677 11.5574 17.1046 9.82176 15.6375 8.36264ZM4.87555 17.9996C4.65305 17.9996 4.43554 18.0655 4.25053 18.1892C4.06553 18.3128 3.92133 18.4885 3.83619 18.6941C3.75104 18.8996 3.72876 19.1258 3.77217 19.344C3.81557 19.5623 3.92272 19.7627 4.08005 19.9201C4.23739 20.0774 4.43784 20.1845 4.65607 20.228C4.8743 20.2714 5.1005 20.2491 5.30607 20.1639C5.51164 20.0788 5.68734 19.9346 5.81095 19.7496C5.93457 19.5646 6.00055 19.3471 6.00055 19.1246C6.00022 18.8263 5.88158 18.5403 5.67068 18.3294C5.45977 18.1185 5.17382 17.9999 4.87555 17.9996Z" fill="#1D1F21" style="fill: var(--ui-icon-primary-color);"/>
</svg>
