<svg  viewBox="0 0 24 24" fill="none" xmlns="http://www.w3.org/2000/svg" id="__THIS_ID_NEEDS_FOR_UI_ICON_COMPONENT__">
<path d="M14.7874 10.6064C14.6751 10.4423 14.6325 10.2402 14.6692 10.0447C14.7059 9.84918 14.8187 9.67624 14.9828 9.56391L21.3265 5.22349C21.4906 5.11116 21.6927 5.06865 21.8882 5.10531C22.0837 5.14197 22.2567 5.25479 22.369 5.41896C22.4813 5.58312 22.5238 5.78519 22.4872 5.98069C22.4505 6.1762 22.3377 6.34914 22.1735 6.46147L15.8299 10.8019C15.7486 10.8575 15.6572 10.8966 15.5608 10.9169C15.4644 10.9372 15.3649 10.9383 15.2681 10.9202C15.1713 10.902 15.079 10.8649 14.9965 10.8111C14.914 10.7573 14.843 10.6877 14.7874 10.6064V10.6064ZM22.369 18.5819C22.3134 18.6632 22.2423 18.7327 22.1598 18.7866C22.0773 18.8404 21.985 18.8774 21.8882 18.8956C21.7914 18.9137 21.692 18.9126 21.5956 18.8923C21.4992 18.8721 21.4078 18.833 21.3265 18.7773L12.75 12.9092L8.76508 15.6357C9.0711 16.4079 9.08192 17.2658 8.79547 18.0454C8.50902 18.8251 7.94537 19.4719 7.21221 19.8622C6.47905 20.2526 5.62777 20.3592 4.821 20.1616C4.01423 19.964 3.30852 19.4762 2.8387 18.7912C2.36888 18.1062 2.16787 17.2722 2.27408 16.4484C2.38029 15.6246 2.78627 14.8688 3.41447 14.3254C4.04266 13.782 4.84903 13.4891 5.67953 13.5026C6.51003 13.5162 7.30644 13.8352 7.91661 14.3987L11.4218 12.0004L7.91657 9.60212C7.30915 10.1618 6.5169 10.4782 5.69105 10.4909C4.86521 10.5036 4.06361 10.2117 3.43927 9.67097C2.81493 9.13024 2.41158 8.37853 2.30622 7.55934C2.20086 6.74014 2.40086 5.91083 2.86806 5.22972C3.33525 4.54861 4.03691 4.0634 4.83909 3.86671C5.64127 3.67002 6.48779 3.77563 7.21706 4.16337C7.94633 4.55112 8.50727 5.19385 8.7928 5.96887C9.07833 6.74389 9.06845 7.59692 8.76505 8.36512L22.1735 17.5393C22.3377 17.6517 22.4505 17.8246 22.4872 18.0201C22.5238 18.2156 22.4813 18.4177 22.369 18.5819ZM7.5 16.8754C7.50001 16.4416 7.34961 16.0212 7.07443 15.6859C6.79924 15.3506 6.41629 15.121 5.99084 15.0364C5.56538 14.9517 5.12374 15.0172 4.74116 15.2217C4.35859 15.4262 4.05875 15.757 3.89274 16.1578C3.72673 16.5586 3.70481 17.0045 3.83073 17.4196C3.95665 17.8347 4.22261 18.1933 4.58329 18.4343C4.94397 18.6754 5.37707 18.7838 5.80877 18.7413C6.24048 18.6988 6.64408 18.5079 6.95082 18.2012C7.12548 18.0275 7.26395 17.8209 7.35822 17.5933C7.45249 17.3657 7.50068 17.1217 7.5 16.8754ZM6.95082 8.45118C7.21305 8.18896 7.39162 7.85486 7.46397 7.49115C7.53632 7.12743 7.49919 6.75043 7.35728 6.40782C7.21536 6.06521 6.97504 5.77237 6.6667 5.56635C6.35835 5.36032 5.99584 5.25035 5.625 5.25035C5.25416 5.25035 4.89165 5.36032 4.5833 5.56635C4.27496 5.77237 4.03464 6.06521 3.89273 6.40782C3.75081 6.75043 3.71368 7.12743 3.78603 7.49115C3.85838 7.85486 4.03695 8.18896 4.29918 8.45118C4.47244 8.62679 4.67887 8.76623 4.90647 8.8614C5.13407 8.95657 5.3783 9.00558 5.625 9.00558C5.8717 9.00558 6.11593 8.95657 6.34353 8.8614C6.57113 8.76623 6.77756 8.62679 6.95082 8.45118Z" fill="#1D1F21" style="fill: var(--ui-icon-primary-color);"/>
</svg>
