<svg  viewBox="0 0 24 24" fill="none" xmlns="http://www.w3.org/2000/svg" id="__THIS_ID_NEEDS_FOR_UI_ICON_COMPONENT__">
<path d="M21.75 5.25V18.75C21.7495 19.1477 21.5914 19.529 21.3102 19.8102C21.029 20.0914 20.6477 20.2495 20.25 20.25H13.5C13.3011 20.25 13.1103 20.171 12.9697 20.0303C12.829 19.8897 12.75 19.6989 12.75 19.5C12.75 19.3011 12.829 19.1103 12.9697 18.9697C13.1103 18.829 13.3011 18.75 13.5 18.75H20.25V5.25H3.75V9C3.75 9.19891 3.67098 9.38968 3.53033 9.53033C3.38968 9.67098 3.19891 9.75 3 9.75C2.80109 9.75 2.61032 9.67098 2.46967 9.53033C2.32902 9.38968 2.25 9.19891 2.25 9V5.25C2.25045 4.85231 2.40864 4.47105 2.68984 4.18984C2.97105 3.90864 3.35231 3.75045 3.75 3.75H20.25C20.6477 3.75045 21.029 3.90864 21.3102 4.18984C21.5914 4.47105 21.7495 4.85231 21.75 5.25ZM3 17.25C2.80109 17.25 2.61032 17.329 2.46967 17.4697C2.32902 17.6103 2.25 17.8011 2.25 18C2.25 18.1989 2.32902 18.3897 2.46967 18.5303C2.61032 18.671 2.80109 18.75 3 18.75C3.19884 18.7502 3.38948 18.8293 3.53008 18.9699C3.67068 19.1105 3.74977 19.3012 3.75 19.5C3.75 19.6989 3.82902 19.8897 3.96967 20.0303C4.11032 20.171 4.30109 20.25 4.5 20.25C4.69891 20.25 4.88968 20.171 5.03033 20.0303C5.17098 19.8897 5.25 19.6989 5.25 19.5C5.24933 18.9035 5.01206 18.3316 4.59025 17.9098C4.16843 17.4879 3.59653 17.2507 3 17.25ZM3 14.25C2.80109 14.25 2.61032 14.329 2.46967 14.4697C2.32902 14.6103 2.25 14.8011 2.25 15C2.25 15.1989 2.32902 15.3897 2.46967 15.5303C2.61032 15.671 2.80109 15.75 3 15.75C3.99422 15.7511 4.94739 16.1466 5.6504 16.8496C6.35342 17.5526 6.74887 18.5058 6.75 19.5C6.75 19.6989 6.82902 19.8897 6.96967 20.0303C7.11032 20.171 7.30109 20.25 7.5 20.25C7.69891 20.25 7.88968 20.171 8.03033 20.0303C8.17098 19.8897 8.25 19.6989 8.25 19.5C8.24843 18.1081 7.6948 16.7736 6.71058 15.7894C5.72635 14.8052 4.39191 14.2516 3 14.25ZM3 11.25C2.80109 11.25 2.61032 11.329 2.46967 11.4697C2.32902 11.6103 2.25 11.8011 2.25 12C2.25 12.1989 2.32902 12.3897 2.46967 12.5303C2.61032 12.671 2.80109 12.75 3 12.75C4.78959 12.752 6.50531 13.4638 7.77074 14.7293C9.03618 15.9947 9.74798 17.7104 9.75 19.5C9.75 19.6989 9.82902 19.8897 9.96967 20.0303C10.1103 20.171 10.3011 20.25 10.5 20.25C10.6989 20.25 10.8897 20.171 11.0303 20.0303C11.171 19.8897 11.25 19.6989 11.25 19.5C11.2475 17.3127 10.3775 15.2157 8.8309 13.6691C7.28426 12.1225 5.18728 11.2525 3 11.25Z" fill="#1D1F21" style="fill: var(--ui-icon-primary-color);"/>
</svg>
