<svg  viewBox="0 0 24 24" fill="none" xmlns="http://www.w3.org/2000/svg" id="__THIS_ID_NEEDS_FOR_UI_ICON_COMPONENT__">
<path d="M16.4999 15C15.9996 14.9998 15.5043 15.1001 15.0435 15.2948C14.5826 15.4896 14.1656 15.7748 13.817 16.1337L9.49534 13.3555C9.83476 12.4837 9.83476 11.5163 9.49534 10.6445L13.817 7.8663C14.4657 8.52994 15.3378 8.92907 16.2641 8.98634C17.1903 9.04361 18.1049 8.75493 18.8305 8.17627C19.556 7.5976 20.0409 6.77017 20.1911 5.85435C20.3413 4.93853 20.1461 3.99957 19.6434 3.21946C19.1407 2.43935 18.3662 1.87368 17.4702 1.63207C16.5741 1.39047 15.6203 1.49016 14.7936 1.91181C13.9668 2.33346 13.3261 3.04703 12.9955 3.91422C12.665 4.78141 12.6682 5.74044 13.0045 6.60542L8.68277 9.38365C8.16235 8.84929 7.49441 8.48226 6.76431 8.32949C6.03422 8.17673 5.27516 8.24516 4.58416 8.52604C3.89316 8.80692 3.30162 9.28749 2.88517 9.90631C2.46872 10.5251 2.24628 11.2541 2.24628 12C2.24628 12.7459 2.46872 13.4749 2.88517 14.0937C3.30162 14.7125 3.89316 15.1931 4.58416 15.474C5.27516 15.7548 6.03422 15.8233 6.76431 15.6705C7.49441 15.5177 8.16235 15.1507 8.68277 14.6163L13.0045 17.3946C12.7151 18.1412 12.6724 18.9608 12.8826 19.7335C13.0928 20.5061 13.5447 21.1912 14.1724 21.6884C14.8 22.1856 15.5704 22.4688 16.3706 22.4965C17.1709 22.5243 17.959 22.2951 18.6195 21.8426C19.2801 21.39 19.7785 20.7379 20.0416 19.9817C20.3048 19.2254 20.3189 18.4048 20.082 17.6399C19.8451 16.8751 19.3695 16.2062 18.7249 15.7311C18.0803 15.2561 17.3006 14.9999 16.4999 15ZM16.4999 3C16.9449 3 17.3799 3.13196 17.7499 3.37919C18.1199 3.62643 18.4083 3.97783 18.5786 4.38896C18.7489 4.8001 18.7935 5.2525 18.7067 5.68895C18.6199 6.12541 18.4056 6.52632 18.0909 6.84099C17.7762 7.15566 17.3753 7.36995 16.9389 7.45677C16.5024 7.54358 16.05 7.49903 15.6389 7.32873C15.2277 7.15843 14.8763 6.87004 14.6291 6.50003C14.3819 6.13002 14.2499 5.69501 14.2499 5.25C14.2506 4.65347 14.4879 4.08157 14.9097 3.65976C15.3315 3.23795 15.9034 3.00068 16.4999 3ZM5.9999 14.25C5.5549 14.25 5.11988 14.118 4.74987 13.8708C4.37986 13.6236 4.09147 13.2722 3.92118 12.861C3.75088 12.4499 3.70632 11.9975 3.79314 11.561C3.87995 11.1246 4.09425 10.7237 4.40891 10.409C4.72358 10.0943 5.12449 9.88005 5.56095 9.79323C5.99741 9.70642 6.44981 9.75097 6.86094 9.92127C7.27208 10.0916 7.62348 10.38 7.87071 10.75C8.11794 11.12 8.2499 11.555 8.2499 12C8.24922 12.5965 8.01195 13.1684 7.59014 13.5902C7.16833 14.012 6.59643 14.2493 5.9999 14.25ZM16.4999 21C16.0549 21 15.6199 20.868 15.2499 20.6208C14.8799 20.3736 14.5915 20.0222 14.4212 19.611C14.2509 19.1999 14.2063 18.7475 14.2931 18.311C14.38 17.8746 14.5942 17.4737 14.9089 17.159C15.2236 16.8443 15.6245 16.6301 16.061 16.5432C16.4974 16.4564 16.9498 16.501 17.3609 16.6713C17.7721 16.8416 18.1235 17.13 18.3707 17.5C18.6179 17.87 18.7499 18.305 18.7499 18.75C18.7492 19.3465 18.5119 19.9184 18.0901 20.3402C17.6683 20.762 17.0964 20.9993 16.4999 21Z" fill="#1D1F21" style="fill: var(--ui-icon-primary-color);"/>
</svg>
