<svg  viewBox="0 0 24 24" fill="none" xmlns="http://www.w3.org/2000/svg" id="__THIS_ID_NEEDS_FOR_UI_ICON_COMPONENT__">
<path d="M12 21.7173C11.8414 21.7169 11.684 21.6909 11.5337 21.6404C10.1086 21.1679 2.99994 18.3862 2.99994 9.99999V4.5C3.00039 4.10231 3.15857 3.72105 3.43978 3.43984C3.72098 3.15863 4.10225 3.00045 4.49994 3H19.4999C19.8976 3.00045 20.2789 3.15863 20.5601 3.43984C20.8413 3.72104 20.9995 4.10231 20.9999 4.5V9.99999C20.9999 18.3862 13.8913 21.1679 12.4663 21.6404C12.316 21.6909 12.1586 21.7169 12 21.7173ZM4.49994 4.5V9.99999C4.49994 17.3438 10.7326 19.7933 11.9998 20.2146C13.279 19.7887 19.4999 17.337 19.4999 9.99999V4.5H4.49994Z" fill="#1D1F21" style="fill: var(--ui-icon-primary-color);"/>
</svg>
