<svg  viewBox="0 0 24 24" fill="none" xmlns="http://www.w3.org/2000/svg" id="__THIS_ID_NEEDS_FOR_UI_ICON_COMPONENT__">
<path d="M21.4144 21.2456L17.8235 17.2937C17.8038 17.269 17.7826 17.2454 17.7599 17.2234L17.7582 17.2219L3.69565 1.74564C3.56188 1.59842 3.37512 1.51037 3.17643 1.50086C2.97775 1.49135 2.78342 1.56115 2.6362 1.69492C2.48898 1.82868 2.40093 2.01545 2.39142 2.21414C2.38191 2.41282 2.45172 2.60715 2.58548 2.75437L3.32587 3.56919C3.11482 3.83352 2.99989 4.16175 2.99994 4.5V10C2.99994 18.3861 10.1086 21.1679 11.5337 21.6404C11.8361 21.743 12.1639 21.743 12.4663 21.6404C14.2164 21.0331 15.8274 20.082 17.2046 18.8432L20.3042 22.2544C20.3705 22.3273 20.4504 22.3864 20.5395 22.4284C20.6286 22.4704 20.7251 22.4944 20.8235 22.4991C20.9218 22.5039 21.0202 22.4891 21.1129 22.4558C21.2056 22.4225 21.2908 22.3713 21.3637 22.3051C21.4366 22.2389 21.4957 22.1589 21.5377 22.0698C21.5797 21.9807 21.6038 21.8842 21.6085 21.7859C21.6132 21.6875 21.5985 21.5891 21.5652 21.4965C21.5319 21.4038 21.4806 21.3185 21.4144 21.2456V21.2456ZM11.9998 20.2147C10.7326 19.7932 4.49995 17.3437 4.49995 10V4.86129L16.1961 17.7332C14.9767 18.8318 13.55 19.6755 11.9998 20.2147ZM7.80435 3.75C7.80436 3.55109 7.88339 3.36033 8.02403 3.21968C8.16469 3.07903 8.35544 3.00001 8.55435 3H19.4999C19.8976 3.00046 20.2789 3.15864 20.5601 3.43984C20.8413 3.72105 20.9995 4.10232 20.9999 4.5V10C20.9999 12.0608 20.562 13.9516 19.6981 15.6202C19.6528 15.7076 19.5907 15.7853 19.5154 15.8488C19.4401 15.9123 19.353 15.9603 19.2591 15.9901C19.1652 16.02 19.0664 16.031 18.9683 16.0226C18.8701 16.0143 18.7746 15.9866 18.6871 15.9413C18.5997 15.8961 18.522 15.834 18.4585 15.7587C18.395 15.6834 18.347 15.5963 18.3172 15.5024C18.2874 15.4085 18.2763 15.3097 18.2847 15.2116C18.2931 15.1134 18.3207 15.0179 18.366 14.9304C19.1184 13.4772 19.4999 11.8184 19.4999 10V4.5H8.55435C8.35544 4.49999 8.16469 4.42097 8.02403 4.28032C7.88339 4.13967 7.80436 3.94891 7.80435 3.75Z" fill="#1D1F21" style="fill: var(--ui-icon-primary-color);"/>
</svg>
