<svg  viewBox="0 0 24 24" fill="none" xmlns="http://www.w3.org/2000/svg" id="__THIS_ID_NEEDS_FOR_UI_ICON_COMPONENT__">
<path d="M19.4999 3H4.49994C4.10225 3.00045 3.72099 3.15864 3.43978 3.43984C3.15857 3.72105 3.00039 4.10231 2.99994 4.5V10C2.99994 18.3861 10.1086 21.1679 11.5337 21.6404C11.8361 21.743 12.1639 21.743 12.4663 21.6404C13.8913 21.1679 20.9999 18.3861 20.9999 10V4.5C20.9995 4.10231 20.8413 3.72105 20.5601 3.43984C20.2789 3.15864 19.8976 3.00045 19.4999 3ZM19.4999 10C19.4999 17.337 13.2789 19.7888 11.9998 20.2147C10.7326 19.7932 4.49994 17.3437 4.49994 10V4.5H19.4999L19.4999 10ZM11.25 12V8.25C11.25 8.05109 11.329 7.86032 11.4697 7.71967C11.6104 7.57902 11.8011 7.5 12 7.5C12.1989 7.5 12.3897 7.57902 12.5304 7.71967C12.671 7.86032 12.75 8.05109 12.75 8.25V12C12.75 12.1989 12.671 12.3897 12.5304 12.5303C12.3897 12.671 12.1989 12.75 12 12.75C11.8011 12.75 11.6104 12.671 11.4697 12.5303C11.329 12.3897 11.25 12.1989 11.25 12ZM11.2044 16.1704C11.0736 16.0396 10.9771 15.8785 10.9234 15.7015C10.8698 15.5244 10.8606 15.3369 10.8967 15.1554C10.9328 14.974 11.0131 14.8043 11.1304 14.6613C11.2478 14.5183 11.3986 14.4064 11.5696 14.3356C11.7405 14.2648 11.9262 14.2373 12.1103 14.2554C12.2945 14.2736 12.4712 14.3368 12.6251 14.4396C12.7789 14.5424 12.905 14.6815 12.9922 14.8447C13.0794 15.0079 13.125 15.19 13.125 15.375V15.3754C13.125 15.5978 13.0589 15.8153 12.9353 16.0003C12.8116 16.1852 12.6359 16.3294 12.4303 16.4145C12.2248 16.4996 11.9986 16.5218 11.7804 16.4783C11.5622 16.4349 11.3617 16.3277 11.2044 16.1704Z" fill="#1D1F21" style="fill: var(--ui-icon-primary-color);"/>
</svg>
