<svg  viewBox="0 0 24 24" fill="none" xmlns="http://www.w3.org/2000/svg" id="__THIS_ID_NEEDS_FOR_UI_ICON_COMPONENT__">
<g clip-path="url(#clip0)">
<path d="M20.3499 13.7683L21.5772 7.0183C21.6164 6.80213 21.6078 6.57998 21.5517 6.36754C21.4957 6.1551 21.3937 5.95756 21.2529 5.78889C21.1121 5.62021 20.936 5.48452 20.737 5.3914C20.538 5.29828 20.321 5.25001 20.1013 5.25H4.37595L3.91809 2.7317C3.8554 2.38601 3.67329 2.07331 3.40356 1.8482C3.13382 1.62308 2.79359 1.49984 2.44226 1.5H0.75C0.551088 1.5 0.360322 1.57902 0.21967 1.71967C0.0790176 1.86032 0 2.05109 0 2.25C0 2.44891 0.0790176 2.63968 0.21967 2.78033C0.360322 2.92098 0.551088 3 0.75 3H2.44226L4.94559 16.7683C4.96797 16.8901 5.00535 17.0086 5.05687 17.1213C4.6824 17.4376 4.40404 17.8526 4.25333 18.3191C4.10262 18.7856 4.08559 19.285 4.20416 19.7607C4.32274 20.2364 4.57219 20.6693 4.92424 21.0105C5.27628 21.3517 5.71685 21.5874 6.19602 21.691C6.67519 21.7946 7.1738 21.7619 7.63534 21.5967C8.09688 21.4314 8.50291 21.1401 8.8074 20.7559C9.1119 20.3717 9.30269 19.9099 9.35815 19.4228C9.41362 18.9357 9.33154 18.4428 9.12122 18H15.6288C15.3851 18.5139 15.3149 19.093 15.4287 19.6502C15.5426 20.2074 15.8344 20.7126 16.2602 21.0896C16.6859 21.4667 17.2227 21.6953 17.7895 21.7409C18.3564 21.7866 18.9228 21.6469 19.4035 21.3428C19.8841 21.0388 20.253 20.5869 20.4546 20.0551C20.6562 19.5233 20.6796 18.9404 20.5213 18.3941C20.363 17.8479 20.0315 17.3678 19.5768 17.0262C19.1221 16.6846 18.5687 16.4999 18 16.5H6.42142L6.14868 15H18.8741C19.2254 15.0002 19.5656 14.8769 19.8353 14.6518C20.1051 14.4267 20.2872 14.114 20.3499 13.7683ZM7.875 19.125C7.875 19.3475 7.80902 19.565 7.6854 19.75C7.56179 19.935 7.38609 20.0792 7.18052 20.1644C6.97495 20.2495 6.74875 20.2718 6.53052 20.2284C6.31229 20.185 6.11184 20.0778 5.9545 19.9205C5.79717 19.7632 5.69003 19.5627 5.64662 19.3445C5.60321 19.1262 5.62549 18.9 5.71064 18.6945C5.79578 18.4889 5.93998 18.3132 6.12498 18.1896C6.30999 18.066 6.5275 18 6.75 18C7.04827 18.0003 7.33422 18.119 7.54513 18.3299C7.75603 18.5408 7.87467 18.8267 7.875 19.125ZM19.125 19.125C19.125 19.3475 19.059 19.565 18.9354 19.75C18.8118 19.935 18.6361 20.0792 18.4305 20.1644C18.225 20.2495 17.9988 20.2718 17.7805 20.2284C17.5623 20.185 17.3618 20.0778 17.2045 19.9205C17.0472 19.7632 16.94 19.5627 16.8966 19.3445C16.8532 19.1262 16.8755 18.9 16.9606 18.6945C17.0458 18.4889 17.19 18.3132 17.375 18.1896C17.56 18.066 17.7775 18 18 18C18.2983 18.0003 18.5842 18.119 18.7951 18.3299C19.006 18.5408 19.1247 18.8267 19.125 19.125ZM4.64868 6.75H20.1013L18.8741 13.5H5.87595L4.64868 6.75Z" fill="#1D1F21" style="fill: var(--ui-icon-primary-color);"/>
</g>
<defs>
<clipPath id="clip0">
<rect  fill="white" style="fill: var(--ui-icon-secondary-color);"/>
</clipPath>
</defs>
</svg>
