<svg  viewBox="0 0 24 24" fill="none" xmlns="http://www.w3.org/2000/svg" id="__THIS_ID_NEEDS_FOR_UI_ICON_COMPONENT__">
<path d="M8.25 20.25C8.25 20.5467 8.16203 20.8367 7.9972 21.0834C7.83238 21.33 7.59811 21.5223 7.32403 21.6358C7.04994 21.7493 6.74834 21.7791 6.45737 21.7212C6.16639 21.6633 5.89912 21.5204 5.68934 21.3107C5.47956 21.1009 5.3367 20.8336 5.27882 20.5426C5.22094 20.2517 5.25065 19.9501 5.36418 19.676C5.47771 19.4019 5.66997 19.1676 5.91665 19.0028C6.16332 18.838 6.45333 18.75 6.75 18.75C7.14782 18.75 7.52935 18.908 7.81066 19.1893C8.09196 19.4706 8.25 19.8522 8.25 20.25ZM18 18.75C17.7033 18.75 17.4133 18.838 17.1666 19.0028C16.92 19.1676 16.7277 19.4019 16.6142 19.676C16.5007 19.9501 16.4709 20.2517 16.5288 20.5426C16.5867 20.8336 16.7296 21.1009 16.9393 21.3107C17.1491 21.5204 17.4164 21.6633 17.7074 21.7212C17.9983 21.7791 18.2999 21.7493 18.574 21.6358C18.8481 21.5223 19.0824 21.33 19.2472 21.0834C19.412 20.8367 19.5 20.5467 19.5 20.25C19.5 19.8522 19.342 19.4706 19.0607 19.1893C18.7794 18.908 18.3978 18.75 18 18.75ZM21.5772 7.0182L19.9418 16.0182C19.8792 16.3639 19.6971 16.6766 19.4273 16.9017C19.1576 17.1269 18.8174 17.2501 18.466 17.25H6.29233C5.94115 17.2501 5.60108 17.1269 5.3314 16.902C5.06173 16.677 4.87957 16.3646 4.81668 16.0191L3.02444 6.19057C3.0149 6.15408 3.00811 6.11693 3.00412 6.07942L2.44263 3H0.75C0.551088 3 0.360322 2.92098 0.21967 2.78033C0.0790176 2.63968 0 2.44891 0 2.25C0 2.05109 0.0790176 1.86032 0.21967 1.71967C0.360322 1.57902 0.551088 1.5 0.75 1.5H2.44254C2.79372 1.49989 3.13381 1.62305 3.4035 1.848C3.67319 2.07295 3.85537 2.38542 3.91827 2.73093L4.37769 5.25H20.1014C20.3211 5.25 20.5381 5.29825 20.7371 5.39136C20.9361 5.48447 21.1122 5.62016 21.253 5.78882C21.3938 5.95749 21.4958 6.15503 21.5518 6.36746C21.6078 6.5799 21.6165 6.80205 21.5772 7.0182H21.5772ZM20.1014 6.75H4.65115L6.29233 15.75H18.466L20.1014 6.75Z" fill="#1D1F21" style="fill: var(--ui-icon-primary-color);"/>
</svg>
