<svg  viewBox="0 0 24 24" fill="none" xmlns="http://www.w3.org/2000/svg" id="__THIS_ID_NEEDS_FOR_UI_ICON_COMPONENT__">
<path d="M20.0799 19.9756C20.0668 19.9916 20.0528 20.0066 20.0385 20.0214C20.0357 20.0243 20.0333 20.0275 20.0304 20.0303C20.0278 20.0329 20.025 20.0351 20.0224 20.0376C20.0073 20.0522 19.9919 20.0665 19.9756 20.0799C19.9662 20.0876 19.9563 20.0944 19.9466 20.1016C19.9367 20.1089 19.927 20.1167 19.9167 20.1235C19.9055 20.131 19.894 20.1375 19.8825 20.1443C19.8729 20.15 19.8636 20.156 19.8537 20.1614C19.8422 20.1675 19.8304 20.1727 19.8187 20.1782C19.8082 20.1831 19.7979 20.1884 19.7872 20.1928C19.7758 20.1976 19.7641 20.2014 19.7525 20.2055C19.741 20.2097 19.7297 20.214 19.7179 20.2176C19.7063 20.2211 19.6946 20.2237 19.6829 20.2266C19.6708 20.2297 19.6589 20.233 19.6467 20.2355C19.6333 20.2381 19.6199 20.2397 19.6065 20.2416C19.5956 20.2432 19.585 20.2452 19.5741 20.2463C19.5495 20.2487 19.5248 20.25 19.5 20.25H15.75C15.5511 20.25 15.3604 20.171 15.2197 20.0303C15.0791 19.8897 15 19.6989 15 19.5C15 19.3011 15.0791 19.1103 15.2197 18.9697C15.3604 18.829 15.5511 18.75 15.75 18.75H17.6894L3.96968 5.03034C3.82903 4.88967 3.75002 4.6989 3.75003 4.49998C3.75004 4.30107 3.82907 4.1103 3.96973 3.96965C4.11039 3.829 4.30116 3.74999 4.50008 3.75C4.699 3.75001 4.88976 3.82904 5.03041 3.9697L18.75 17.6893V15.75C18.75 15.5511 18.8291 15.3603 18.9697 15.2197C19.1104 15.079 19.3011 15 19.5 15C19.699 15 19.8897 15.079 20.0304 15.2197C20.171 15.3603 20.25 15.5511 20.25 15.75V19.4996C20.2501 19.5245 20.2488 19.5494 20.2463 19.5743C20.2453 19.5843 20.2434 19.5941 20.242 19.6041C20.24 19.6184 20.2383 19.6327 20.2355 19.6468C20.2331 19.6586 20.2299 19.6701 20.227 19.6817C20.2239 19.6938 20.2213 19.706 20.2176 19.718C20.2142 19.7294 20.2098 19.7405 20.2059 19.7516C20.2016 19.7636 20.1977 19.7756 20.1928 19.7873C20.1885 19.7977 20.1835 19.8075 20.1787 19.8176C20.1731 19.8297 20.1676 19.842 20.1613 19.8539C20.1562 19.8633 20.1504 19.8723 20.145 19.8815C20.138 19.8933 20.1312 19.9052 20.1235 19.9168C20.1169 19.9267 20.1094 19.9361 20.1023 19.9457C20.0948 19.9557 20.0879 19.9659 20.0799 19.9756ZM14.1213 10.6287C14.2198 10.6289 14.3174 10.6095 14.4084 10.5718C14.4994 10.5341 14.5821 10.4788 14.6517 10.4091L18.75 6.3107V8.25002C18.75 8.44893 18.8291 8.63969 18.9697 8.78035C19.1104 8.921 19.3011 9.00002 19.5 9.00002C19.699 9.00002 19.8897 8.921 20.0304 8.78035C20.171 8.63969 20.25 8.44893 20.25 8.25002V4.50047C20.2501 4.47557 20.2488 4.45062 20.2463 4.42577C20.2453 4.4157 20.2434 4.4059 20.242 4.39597C20.24 4.38169 20.2383 4.36736 20.2355 4.35321C20.2331 4.3414 20.2299 4.32996 20.227 4.31833C20.2239 4.3062 20.2213 4.29402 20.2176 4.28203C20.2142 4.27059 20.2098 4.25955 20.2058 4.24834C20.2016 4.23643 20.1977 4.22444 20.1928 4.21273C20.1885 4.20238 20.1835 4.19249 20.1787 4.18238C20.173 4.17024 20.1676 4.15807 20.1613 4.14617C20.1562 4.13669 20.1504 4.12763 20.1449 4.11838C20.1379 4.10661 20.1312 4.09475 20.1236 4.08332C20.1168 4.07329 20.1093 4.06386 20.1022 4.0542C20.0948 4.04427 20.0878 4.03406 20.0799 4.0244C20.0668 4.00847 20.0528 3.99341 20.0385 3.97863C20.0357 3.9757 20.0333 3.97254 20.0304 3.9697C20.0278 3.96709 20.025 3.96494 20.0223 3.96238C20.0073 3.94773 19.9918 3.93349 19.9756 3.92017C19.9661 3.91234 19.9561 3.90557 19.9464 3.89829C19.9365 3.89096 19.9269 3.88337 19.9167 3.8765C19.9055 3.86899 19.8938 3.86245 19.8823 3.85558C19.8728 3.8499 19.8635 3.84395 19.8538 3.83873C19.8423 3.83255 19.8304 3.82734 19.8187 3.8218C19.8082 3.8169 19.7979 3.81163 19.7872 3.80719C19.7759 3.80252 19.7643 3.79872 19.7528 3.79465C19.7412 3.79049 19.7297 3.786 19.7179 3.78243C19.7065 3.77895 19.695 3.77643 19.6835 3.77355C19.6712 3.77048 19.6591 3.76705 19.6466 3.76458C19.6336 3.76197 19.6204 3.76046 19.6073 3.75858C19.5962 3.75697 19.5853 3.75487 19.574 3.75377C19.5497 3.75134 19.5254 3.75011 19.501 3.75006L19.5 3.75002H15.75C15.5511 3.75002 15.3604 3.82903 15.2197 3.96969C15.0791 4.11034 15 4.3011 15 4.50002C15 4.69893 15.0791 4.88969 15.2197 5.03035C15.3604 5.171 15.5511 5.25002 15.75 5.25002H17.6893L13.591 9.34838C13.4861 9.45327 13.4146 9.58691 13.3857 9.7324C13.3568 9.87789 13.3716 10.0287 13.4284 10.1657C13.4852 10.3028 13.5813 10.4199 13.7046 10.5023C13.828 10.5848 13.973 10.6287 14.1213 10.6287H14.1213ZM9.34841 13.591L3.96969 18.9697C3.82904 19.1104 3.75003 19.3011 3.75004 19.5C3.75004 19.699 3.82907 19.8897 3.96973 20.0304C4.11039 20.171 4.30117 20.25 4.50008 20.25C4.699 20.25 4.88977 20.171 5.03042 20.0303L10.4091 14.6517C10.4788 14.582 10.534 14.4993 10.5717 14.4083C10.6094 14.3173 10.6288 14.2198 10.6288 14.1213C10.6288 14.0228 10.6094 13.9253 10.5717 13.8343C10.534 13.7433 10.4788 13.6606 10.4091 13.5909C10.3395 13.5213 10.2568 13.4661 10.1658 13.4284C10.0748 13.3907 9.97725 13.3713 9.87876 13.3713C9.78026 13.3713 9.68273 13.3907 9.59173 13.4284C9.50073 13.4661 9.41805 13.5213 9.34841 13.591L9.34841 13.591Z" fill="#1D1F21" style="fill: var(--ui-icon-primary-color);"/>
</svg>
