<svg  viewBox="0 0 24 24" fill="none" xmlns="http://www.w3.org/2000/svg" id="__THIS_ID_NEEDS_FOR_UI_ICON_COMPONENT__">
<path d="M22.3297 17.7254C22.3188 17.7386 22.307 17.751 22.2952 17.7635C22.2902 17.7689 22.2857 17.7746 22.2804 17.7799L20.0304 20.0299C19.8897 20.1706 19.6989 20.2496 19.5 20.2496C19.3011 20.2496 19.1103 20.1706 18.9696 20.0299C18.829 19.8893 18.75 19.6985 18.75 19.4996C18.75 19.3006 18.829 19.1099 18.9696 18.9692L19.9393 17.9996H16.136C15.8973 17.9993 15.662 17.9422 15.4498 17.833C15.2375 17.7238 15.0543 17.5655 14.9154 17.3714L7.86401 7.49946L3 7.49956C2.80109 7.49956 2.61032 7.42054 2.46967 7.27989C2.32902 7.13924 2.25 6.94847 2.25 6.74956C2.25 6.55065 2.32902 6.35988 2.46967 6.21923C2.61032 6.07858 2.80109 5.99956 3 5.99956H7.86401C8.10273 5.99979 8.33796 6.05689 8.55021 6.16612C8.76247 6.27536 8.94566 6.43358 9.08459 6.6277L16.136 16.4997L19.9394 16.4996L18.9696 15.5299C18.829 15.3893 18.75 15.1985 18.75 14.9996C18.75 14.8006 18.829 14.6099 18.9696 14.4692C19.1103 14.3285 19.3011 14.2495 19.5 14.2495C19.6989 14.2495 19.8897 14.3285 20.0304 14.4692L22.2804 16.7192C22.2857 16.7245 22.2902 16.7303 22.2952 16.7357C22.307 16.7481 22.3188 16.7605 22.3297 16.7738C22.3382 16.7841 22.3457 16.7951 22.3536 16.8058C22.3602 16.8148 22.3672 16.8234 22.3734 16.8327C22.3814 16.8445 22.3883 16.8568 22.3955 16.8691C22.4007 16.8779 22.4063 16.8865 22.4111 16.8956C22.4176 16.9077 22.4232 16.9201 22.429 16.9325C22.4336 16.9424 22.4385 16.9521 22.4427 16.9622C22.4476 16.9741 22.4517 16.9862 22.4559 16.9982C22.4599 17.0093 22.4641 17.0202 22.4675 17.0315C22.4712 17.0436 22.4739 17.0559 22.477 17.0681C22.4799 17.0796 22.4831 17.091 22.4854 17.1027C22.4882 17.1169 22.49 17.1313 22.4919 17.1456C22.4933 17.1555 22.4952 17.1653 22.4962 17.1753C22.5011 17.2247 22.5011 17.2744 22.4962 17.3238C22.4952 17.3339 22.4933 17.3436 22.4919 17.3535C22.49 17.3678 22.4882 17.3822 22.4854 17.3964C22.4831 17.4081 22.4799 17.4195 22.477 17.431C22.4739 17.4432 22.4712 17.4555 22.4675 17.4676C22.4641 17.4789 22.4599 17.4898 22.4559 17.5009C22.4517 17.513 22.4476 17.5251 22.4427 17.5369C22.4385 17.547 22.4336 17.5567 22.429 17.5666C22.4232 17.579 22.4176 17.5914 22.4111 17.6035C22.4063 17.6126 22.4007 17.6212 22.3955 17.6301C22.3883 17.6423 22.3813 17.6546 22.3734 17.6664C22.3672 17.6757 22.3602 17.6844 22.3536 17.6933C22.3457 17.7041 22.3382 17.715 22.3297 17.7254ZM13.4073 10.0292C13.4875 10.0864 13.5781 10.1274 13.6741 10.1496C13.77 10.1718 13.8694 10.175 13.9666 10.1588C14.0638 10.1426 14.1568 10.1074 14.2403 10.0553C14.3239 10.0031 14.3964 9.93501 14.4536 9.85484L16.136 7.49956H19.9393L18.9696 8.46919C18.829 8.60985 18.75 8.80063 18.75 8.99956C18.75 9.19848 18.829 9.38926 18.9696 9.52992C19.1103 9.67058 19.3011 9.74961 19.5 9.74961C19.6989 9.74961 19.8897 9.67058 20.0304 9.52992L22.2804 7.27992C22.2857 7.27464 22.2902 7.26887 22.2952 7.26347C22.307 7.25102 22.3188 7.23859 22.3297 7.22536C22.3382 7.21498 22.3457 7.20406 22.3536 7.19334C22.3602 7.18437 22.3672 7.17571 22.3734 7.16644C22.3814 7.15458 22.3883 7.14227 22.3955 7.13006C22.4007 7.12122 22.4063 7.11261 22.4111 7.10352C22.4176 7.09142 22.4232 7.07898 22.429 7.06661C22.4336 7.05672 22.4385 7.04704 22.4427 7.03692C22.4476 7.02506 22.4517 7.01295 22.4559 7.00089C22.4599 6.98981 22.4641 6.97891 22.4675 6.96759C22.4712 6.95551 22.4739 6.94324 22.477 6.93102C22.4799 6.91948 22.4831 6.90813 22.4854 6.89639C22.4882 6.88219 22.49 6.86784 22.4919 6.85354C22.4933 6.8436 22.4952 6.83385 22.4962 6.82381C22.5011 6.77443 22.5011 6.72469 22.4962 6.67531C22.4952 6.66526 22.4933 6.65551 22.4919 6.64558C22.49 6.63127 22.4882 6.61692 22.4854 6.60273C22.4831 6.59099 22.4799 6.57964 22.477 6.5681C22.4739 6.55588 22.4712 6.54361 22.4675 6.53153C22.4641 6.52021 22.4599 6.5093 22.4559 6.49823C22.4517 6.48616 22.4476 6.47406 22.4427 6.4622C22.4385 6.45208 22.4336 6.4424 22.429 6.43251C22.4232 6.42014 22.4176 6.4077 22.4111 6.3956C22.4063 6.38651 22.4007 6.3779 22.3955 6.36906C22.3883 6.35685 22.3813 6.34454 22.3734 6.33268C22.3672 6.32341 22.3602 6.31475 22.3536 6.30578C22.3457 6.29506 22.3382 6.28414 22.3297 6.27376C22.3188 6.26053 22.307 6.2481 22.2952 6.23565C22.2902 6.23025 22.2857 6.22448 22.2804 6.2192L20.0304 3.9692C19.8897 3.82853 19.6989 3.74951 19.5 3.74951C19.3011 3.74951 19.1103 3.82853 18.9696 3.9692C18.829 4.10986 18.75 4.30064 18.75 4.49956C18.75 4.69849 18.829 4.88927 18.9696 5.02993L19.9393 5.99956H16.136C15.8973 5.99979 15.6621 6.05688 15.4498 6.1661C15.2376 6.27532 15.0544 6.43352 14.9154 6.62761L13.233 8.9829C13.1174 9.14476 13.0708 9.34592 13.1035 9.54213C13.1362 9.73834 13.2455 9.91353 13.4073 10.0292ZM10.5927 13.97C10.5125 13.9127 10.4219 13.8718 10.3259 13.8495C10.23 13.8273 10.1306 13.8242 10.0334 13.8404C9.93625 13.8566 9.84324 13.8917 9.75967 13.9439C9.67611 13.996 9.60363 14.0641 9.54639 14.1443L7.86401 16.4996H3C2.80109 16.4996 2.61032 16.5786 2.46967 16.7192C2.32902 16.8599 2.25 17.0506 2.25 17.2496C2.25 17.4485 2.32902 17.6392 2.46967 17.7799C2.61032 17.9205 2.80109 17.9996 3 17.9996H7.86401C8.10272 17.9993 8.33794 17.9422 8.55019 17.833C8.76245 17.7238 8.94564 17.5656 9.08459 17.3715L10.767 15.0162C10.8826 14.8544 10.9292 14.6532 10.8965 14.457C10.8638 14.2608 10.7545 14.0856 10.5927 13.97Z" fill="#1D1F21" style="fill: var(--ui-icon-primary-color);"/>
</svg>
