<svg  viewBox="0 0 24 24" fill="none" xmlns="http://www.w3.org/2000/svg" id="__THIS_ID_NEEDS_FOR_UI_ICON_COMPONENT__">
<path d="M18.7338 3.77902C18.5013 3.64883 18.2384 3.58284 17.9719 3.58782C17.7055 3.59279 17.4452 3.66857 17.2178 3.80736L6 10.6627V3.75C6 3.55109 5.92098 3.36032 5.78033 3.21967C5.63968 3.07902 5.44891 3 5.25 3C5.05109 3 4.86032 3.07902 4.71967 3.21967C4.57902 3.36032 4.5 3.55109 4.5 3.75V20.25C4.5 20.4489 4.57902 20.6397 4.71967 20.7803C4.86032 20.921 5.05109 21 5.25 21C5.44891 21 5.63968 20.921 5.78033 20.7803C5.92098 20.6397 6 20.4489 6 20.25V13.3373L17.2179 20.1927C17.4453 20.3316 17.7055 20.4075 17.972 20.4125C18.2384 20.4174 18.5014 20.3513 18.7338 20.221C18.9662 20.0906 19.1597 19.9007 19.2943 19.6708C19.429 19.4408 19.5 19.1792 19.5 18.9127V5.08731C19.4998 4.82087 19.4288 4.55928 19.2941 4.32937C19.1595 4.09946 18.9661 3.90952 18.7338 3.77902ZM18 18.9127L6.68536 12.002C6.68626 12.0013 6.68721 12.0006 6.6882 12L6.68829 12L18 5.08731V18.9127Z" fill="#1D1F21" style="fill: var(--ui-icon-primary-color);"/>
</svg>
