<svg  viewBox="0 0 24 24" fill="none" xmlns="http://www.w3.org/2000/svg" id="__THIS_ID_NEEDS_FOR_UI_ICON_COMPONENT__">
<path d="M18.75 3C18.5511 3 18.3603 3.07902 18.2197 3.21967C18.079 3.36032 18 3.55109 18 3.75V10.6627L6.78214 3.80731C6.55475 3.66837 6.29445 3.59251 6.02802 3.58754C5.76159 3.58256 5.49865 3.64865 5.26623 3.77901C5.03382 3.90936 4.84032 4.09928 4.70565 4.32922C4.57098 4.55917 4.5 4.82083 4.5 5.08731V18.9127C4.50011 19.1791 4.57117 19.4407 4.70587 19.6706C4.84057 19.9005 5.03407 20.0904 5.26645 20.2207C5.49884 20.351 5.76175 20.4171 6.02815 20.4122C6.29454 20.4073 6.55482 20.3315 6.78223 20.1926L18 13.3373V20.25C18 20.4489 18.079 20.6397 18.2197 20.7803C18.3603 20.921 18.5511 21 18.75 21C18.9489 21 19.1397 20.921 19.2803 20.7803C19.421 20.6397 19.5 20.4489 19.5 20.25V3.75C19.5 3.55109 19.421 3.36032 19.2803 3.21967C19.1397 3.07902 18.9489 3 18.75 3ZM6 18.9127V5.08727L17.3117 12L6 18.9127Z" fill="#1D1F21" style="fill: var(--ui-icon-primary-color);"/>
</svg>
