<svg  viewBox="0 0 24 24" fill="none" xmlns="http://www.w3.org/2000/svg" id="__THIS_ID_NEEDS_FOR_UI_ICON_COMPONENT__">
<path d="M11.9999 2.25C10.0716 2.25 8.18651 2.82183 6.58313 3.89317C4.97975 4.96451 3.73007 6.48726 2.99212 8.26884C2.25416 10.0504 2.06108 12.0108 2.43729 13.9021C2.81349 15.7934 3.74209 17.5307 5.10565 18.8943C6.46921 20.2579 8.2065 21.1865 10.0978 21.5627C11.9891 21.9389 13.9495 21.7458 15.7311 21.0078C17.5127 20.2699 19.0354 19.0202 20.1068 17.4168C21.1781 15.8134 21.7499 13.9284 21.7499 12C21.747 9.41504 20.7188 6.93679 18.891 5.10894C17.0632 3.28109 14.5849 2.25293 11.9999 2.25ZM11.9999 20.25C10.3682 20.25 8.77319 19.7661 7.41649 18.8596C6.05978 17.9531 5.00236 16.6646 4.37794 15.1571C3.75351 13.6496 3.59014 11.9908 3.90846 10.3905C4.22679 8.79016 5.01253 7.32015 6.16631 6.16637C7.3201 5.01259 8.7901 4.22685 10.3904 3.90852C11.9908 3.59019 13.6496 3.75357 15.1571 4.37799C16.6646 5.00242 17.953 6.05984 18.8596 7.41655C19.7661 8.77325 20.2499 10.3683 20.2499 12C20.2475 14.1873 19.3775 16.2843 17.8308 17.8309C16.2842 19.3775 14.1872 20.2475 11.9999 20.25ZM14.6249 8.25C14.426 8.25 14.2353 8.32902 14.0946 8.46967C13.954 8.61032 13.8749 8.80109 13.8749 9V11.0986L9.79096 8.37598C9.67801 8.30068 9.54674 8.25746 9.41115 8.25091C9.27557 8.24436 9.14075 8.27473 9.02106 8.33878C8.90138 8.40283 8.80132 8.49816 8.73156 8.61461C8.6618 8.73106 8.62495 8.86425 8.62494 9V15C8.62494 15.1357 8.66178 15.269 8.73154 15.3854C8.8013 15.5019 8.90135 15.5972 9.02104 15.6613C9.14073 15.7253 9.27556 15.7557 9.41115 15.7491C9.54674 15.7426 9.67801 15.6993 9.79096 15.624L13.8749 12.9014V15C13.8749 15.1989 13.954 15.3897 14.0946 15.5303C14.2353 15.671 14.426 15.75 14.6249 15.75C14.8239 15.75 15.0146 15.671 15.1553 15.5303C15.2959 15.3897 15.3749 15.1989 15.3749 15V9C15.3749 8.80109 15.2959 8.61032 15.1553 8.46967C15.0146 8.32902 14.8239 8.25 14.6249 8.25ZM10.1249 13.5986V10.4014L12.5229 12L10.1249 13.5986Z" fill="#1D1F21" style="fill: var(--ui-icon-primary-color);"/>
</svg>
