<svg  viewBox="0 0 24 24" fill="none" xmlns="http://www.w3.org/2000/svg" id="__THIS_ID_NEEDS_FOR_UI_ICON_COMPONENT__">
<path d="M20.7311 11.9993C21.2903 11.508 21.6467 10.8263 21.731 10.0868C21.8153 9.34723 21.6214 8.60279 21.1872 7.99826C20.753 7.39373 20.1094 6.97235 19.3817 6.8161C18.6539 6.65985 17.8941 6.77991 17.25 7.15291V5.24929C17.2504 4.63972 17.065 4.04451 16.7184 3.54302C16.3719 3.04153 15.8807 2.65758 15.3104 2.44237C14.7401 2.22715 14.1177 2.1909 13.5263 2.33844C12.9348 2.48597 12.4024 2.81029 12 3.26816C11.5087 2.70901 10.827 2.35262 10.0875 2.26832C9.34793 2.18402 8.60348 2.37784 7.99896 2.81207C7.39443 3.2463 6.97305 3.88988 6.8168 4.61761C6.66055 5.34535 6.78061 6.10518 7.15361 6.74929H5.25C4.64043 6.7489 4.04522 6.93433 3.54372 7.28086C3.04223 7.62739 2.65828 8.11855 2.44307 8.68887C2.22785 9.25919 2.1916 9.88156 2.33915 10.473C2.48669 11.0645 2.81102 11.5969 3.26889 11.9993C2.70974 12.4906 2.35333 13.1723 2.26903 13.9118C2.18472 14.6514 2.37853 15.3958 2.81276 16.0003C3.24699 16.6049 3.89058 17.0263 4.61831 17.1825C5.34605 17.3388 6.10589 17.2187 6.75 16.8457V18.7493C6.74961 19.3589 6.93504 19.9541 7.28157 20.4556C7.6281 20.9571 8.11926 21.341 8.68958 21.5562C9.2599 21.7714 9.88227 21.8077 10.4737 21.6602C11.0652 21.5126 11.5976 21.1883 12 20.7304C12.4913 21.2896 13.173 21.646 13.9125 21.7303C14.6521 21.8146 15.3965 21.6208 16.001 21.1865C16.6056 20.7523 17.027 20.1087 17.1832 19.381C17.3395 18.6532 17.2194 17.8934 16.8464 17.2493H18.75C19.3596 17.2497 19.9548 17.0643 20.4563 16.7177C20.9578 16.3712 21.3417 15.88 21.5569 15.3097C21.7721 14.7394 21.8084 14.117 21.6609 13.5256C21.5133 12.9341 21.189 12.4017 20.7311 11.9993ZM18.75 8.24929C19.1478 8.24929 19.5294 8.40733 19.8107 8.68863C20.092 8.96994 20.25 9.35147 20.25 9.74929C20.25 10.1471 20.092 10.5286 19.8107 10.81C19.5294 11.0913 19.1478 11.2493 18.75 11.2493H17.25V9.74929C17.2505 9.35161 17.4086 8.97034 17.6898 8.68913C17.971 8.40793 18.3523 8.24975 18.75 8.24929ZM14.25 3.74929C14.6477 3.74975 15.029 3.90793 15.3102 4.18914C15.5914 4.47034 15.7495 4.85161 15.75 5.24929V9.74929C15.7495 10.147 15.5914 10.5282 15.3102 10.8094C15.029 11.0907 14.6477 11.2488 14.25 11.2493H12.75V5.24929C12.7505 4.85161 12.9086 4.47034 13.1898 4.18914C13.471 3.90793 13.8523 3.74975 14.25 3.74929ZM8.25 5.24929C8.25 4.85147 8.40804 4.46994 8.68934 4.18863C8.97064 3.90733 9.35218 3.74929 9.75 3.74929C10.1478 3.74929 10.5294 3.90733 10.8107 4.18863C11.092 4.46994 11.25 4.85147 11.25 5.24929V6.74929H9.75C9.35231 6.74884 8.97105 6.59066 8.68984 6.30945C8.40864 6.02824 8.25046 5.64698 8.25 5.24929ZM3.75 9.74929C3.75046 9.35161 3.90864 8.97034 4.18984 8.68913C4.47105 8.40793 4.85232 8.24975 5.25 8.24929H9.75C10.1477 8.24975 10.529 8.40793 10.8102 8.68913C11.0914 8.97034 11.2495 9.35161 11.25 9.74929V11.2493H5.25C4.85232 11.2488 4.47105 11.0907 4.18984 10.8094C3.90864 10.5282 3.75046 10.147 3.75 9.74929ZM5.25 15.7493C4.85218 15.7493 4.47064 15.5913 4.18934 15.31C3.90804 15.0286 3.75 14.6471 3.75 14.2493C3.75 13.8515 3.90804 13.4699 4.18934 13.1886C4.47064 12.9073 4.85218 12.7493 5.25 12.7493H6.75V14.2493C6.74955 14.647 6.59136 15.0282 6.31016 15.3094C6.02895 15.5907 5.64769 15.7488 5.25 15.7493ZM9.75 20.2493C9.35231 20.2488 8.97105 20.0907 8.68984 19.8094C8.40864 19.5282 8.25046 19.147 8.25 18.7493V14.2493C8.25046 13.8516 8.40864 13.4703 8.68984 13.1891C8.97105 12.9079 9.35231 12.7497 9.75 12.7493H11.25V18.7493C11.2495 19.147 11.0914 19.5282 10.8102 19.8094C10.529 20.0907 10.1477 20.2488 9.75 20.2493ZM15.75 18.7493C15.75 19.1471 15.592 19.5286 15.3107 19.81C15.0294 20.0913 14.6478 20.2493 14.25 20.2493C13.8522 20.2493 13.4706 20.0913 13.1893 19.81C12.908 19.5286 12.75 19.1471 12.75 18.7493V17.2493H14.25C14.6477 17.2497 15.029 17.4079 15.3102 17.6891C15.5914 17.9703 15.7495 18.3516 15.75 18.7493ZM18.75 15.7493H14.25C13.8523 15.7488 13.471 15.5907 13.1898 15.3094C12.9086 15.0282 12.7505 14.647 12.75 14.2493V12.7493H18.75C19.1478 12.7493 19.5294 12.9073 19.8107 13.1886C20.092 13.4699 20.25 13.8515 20.25 14.2493C20.25 14.6471 20.092 15.0286 19.8107 15.31C19.5294 15.5913 19.1478 15.7493 18.75 15.7493Z" fill="#1D1F21" style="fill: var(--ui-icon-primary-color);"/>
</svg>
