<svg  viewBox="0 0 24 24" fill="none" xmlns="http://www.w3.org/2000/svg" id="__THIS_ID_NEEDS_FOR_UI_ICON_COMPONENT__">
<path d="M20.2499 15.374H18.2652C18.1038 14.8323 17.7718 14.3572 17.3186 14.0194C16.8654 13.6815 16.3152 13.499 15.7499 13.499C15.1847 13.499 14.6345 13.6815 14.1813 14.0194C13.7281 14.3572 13.3961 14.8323 13.2347 15.374H3.74994C3.55103 15.374 3.36026 15.453 3.21961 15.5937C3.07896 15.7343 2.99994 15.9251 2.99994 16.124C2.99994 16.3229 3.07896 16.5137 3.21961 16.6544C3.36026 16.795 3.55103 16.874 3.74994 16.874H13.2347C13.3961 17.4157 13.7281 17.8909 14.1813 18.2287C14.6345 18.5665 15.1847 18.749 15.7499 18.749C16.3152 18.749 16.8654 18.5665 17.3186 18.2287C17.7718 17.8909 18.1038 17.4157 18.2652 16.874H20.2499C20.4489 16.874 20.6396 16.795 20.7803 16.6544C20.9209 16.5137 20.9999 16.3229 20.9999 16.124C20.9999 15.9251 20.9209 15.7343 20.7803 15.5937C20.6396 15.453 20.4489 15.374 20.2499 15.374ZM15.7499 17.249C15.5274 17.249 15.3099 17.183 15.1249 17.0594C14.9399 16.9358 14.7957 16.7601 14.7106 16.5545C14.6254 16.349 14.6031 16.1228 14.6466 15.9045C14.69 15.6863 14.7971 15.4859 14.9544 15.3285C15.1118 15.1712 15.3122 15.064 15.5305 15.0206C15.7487 14.9772 15.9749 14.9995 16.1805 15.0847C16.386 15.1698 16.5617 15.314 16.6853 15.499C16.809 15.684 16.8749 15.9015 16.8749 16.124C16.8746 16.4223 16.756 16.7082 16.5451 16.9192C16.3342 17.1301 16.0482 17.2487 15.7499 17.249ZM3.74994 8.62393L7.23466 8.62402C7.39611 9.16574 7.72812 9.64086 8.18132 9.9787C8.63452 10.3165 9.18468 10.499 9.74994 10.499C10.3152 10.499 10.8654 10.3165 11.3186 9.9787C11.7718 9.64086 12.1038 9.16574 12.2652 8.62402L20.2499 8.62393C20.4489 8.62393 20.6396 8.54491 20.7803 8.40426C20.9209 8.26361 20.9999 8.07284 20.9999 7.87393C20.9999 7.67502 20.9209 7.48425 20.7803 7.3436C20.6396 7.20295 20.4489 7.12393 20.2499 7.12393L12.2652 7.12402C12.1038 6.58231 11.7718 6.10719 11.3186 5.76935C10.8654 5.43152 10.3152 5.24902 9.74994 5.24902C9.18468 5.24902 8.63452 5.43152 8.18132 5.76935C7.72812 6.10719 7.39611 6.58231 7.23466 7.12402L3.74994 7.12393C3.55103 7.12393 3.36026 7.20295 3.21961 7.3436C3.07896 7.48425 2.99994 7.67502 2.99994 7.87393C2.99994 8.07284 3.07896 8.26361 3.21961 8.40426C3.36026 8.54491 3.55103 8.62393 3.74994 8.62393ZM9.74994 6.74902C9.97244 6.74902 10.1899 6.815 10.375 6.93862C10.56 7.06224 10.7042 7.23794 10.7893 7.44351C10.8745 7.64907 10.8967 7.87527 10.8533 8.0935C10.8099 8.31173 10.7028 8.51219 10.5454 8.66952C10.3881 8.82685 10.1876 8.934 9.96942 8.97741C9.75119 9.02082 9.52499 8.99854 9.31942 8.91339C9.11385 8.82824 8.93815 8.68405 8.81454 8.49904C8.69092 8.31404 8.62494 8.09653 8.62494 7.87402C8.62527 7.57576 8.74391 7.2898 8.95481 7.0789C9.16572 6.86799 9.45167 6.74936 9.74994 6.74902Z" fill="#1D1F21" style="fill: var(--ui-icon-primary-color);"/>
</svg>
