<svg  viewBox="0 0 24 24" fill="none" xmlns="http://www.w3.org/2000/svg" id="__THIS_ID_NEEDS_FOR_UI_ICON_COMPONENT__">
<path d="M12.7501 5.73474V3.75C12.7501 3.55109 12.671 3.36032 12.5304 3.21967C12.3897 3.07902 12.199 3 12.0001 3C11.8011 3 11.6104 3.07902 11.4697 3.21967C11.3291 3.36032 11.2501 3.55109 11.2501 3.75V5.73474C10.7083 5.89617 10.2332 6.22819 9.89539 6.68138C9.55756 7.13457 9.37507 7.68472 9.37507 8.24998C9.37507 8.81524 9.55756 9.36539 9.89539 9.81858C10.2332 10.2718 10.7083 10.6038 11.2501 10.7652V20.2499C11.2501 20.4488 11.3291 20.6396 11.4697 20.7803C11.6104 20.9209 11.8011 20.9999 12.0001 20.9999C12.199 20.9999 12.3897 20.9209 12.5304 20.7803C12.671 20.6396 12.7501 20.4488 12.7501 20.2499V10.7652C13.2918 10.6038 13.7669 10.2718 14.1047 9.81858C14.4426 9.36539 14.625 8.81524 14.625 8.24998C14.625 7.68472 14.4426 7.13457 14.1047 6.68138C13.7669 6.22819 13.2918 5.89617 12.7501 5.73474ZM12.0001 9.37498C11.7776 9.37498 11.56 9.309 11.375 9.18538C11.19 9.06176 11.0458 8.88606 10.9607 8.6805C10.8755 8.47493 10.8533 8.24873 10.8967 8.0305C10.9401 7.81228 11.0472 7.61182 11.2046 7.45449C11.3619 7.29715 11.5624 7.19001 11.7806 7.1466C11.9988 7.10319 12.225 7.12547 12.4306 7.21062C12.6361 7.29577 12.8118 7.43996 12.9355 7.62497C13.0591 7.80997 13.1251 8.02748 13.1251 8.24998C13.1247 8.54824 13.0061 8.83419 12.7952 9.0451C12.5843 9.256 12.2983 9.37463 12.0001 9.37498ZM21.375 15.75C21.3743 15.1849 21.1915 14.6351 20.8538 14.182C20.516 13.729 20.0413 13.3968 19.5 13.2347L19.5001 3.75C19.5001 3.55109 19.4211 3.36033 19.2804 3.21968C19.1398 3.07903 18.949 3.00001 18.7501 3C18.5512 3.00001 18.3605 3.07903 18.2198 3.21968C18.0792 3.36033 18.0001 3.55109 18.0001 3.75L18 13.2347C17.4583 13.3961 16.9832 13.7282 16.6454 14.1813C16.3075 14.6345 16.125 15.1847 16.125 15.75C16.125 16.3152 16.3075 16.8654 16.6454 17.3186C16.9832 17.7717 17.4583 18.1038 18 18.2652L18.0001 20.25C18.0001 20.4489 18.0792 20.6397 18.2198 20.7803C18.3605 20.9209 18.5513 20.9999 18.7502 20.9999C18.9491 20.9999 19.1398 20.9209 19.2805 20.7802C19.4211 20.6396 19.5001 20.4488 19.5001 20.2499L19.5 18.2652C20.0413 18.1031 20.516 17.7709 20.8538 17.3179C21.1915 16.8648 21.3743 16.315 21.375 15.75ZM18.75 16.8749C18.5275 16.8749 18.31 16.809 18.125 16.6854C17.94 16.5617 17.7958 16.386 17.7107 16.1805C17.6255 15.9749 17.6032 15.7487 17.6467 15.5305C17.6901 15.3122 17.7972 15.1118 17.9545 14.9545C18.1119 14.7971 18.3123 14.69 18.5306 14.6466C18.7488 14.6032 18.975 14.6254 19.1805 14.7106C19.3861 14.7957 19.5618 14.9399 19.6854 15.1249C19.809 15.3099 19.875 15.5274 19.875 15.75C19.8747 16.0482 19.7561 16.3342 19.5451 16.5451C19.3342 16.756 19.0483 16.8746 18.75 16.8749ZM6.00008 10.2347L6.00003 3.75C6.00003 3.55109 5.92102 3.36032 5.78036 3.21967C5.63971 3.07902 5.44895 3 5.25004 3C5.05113 3 4.86036 3.07902 4.71971 3.21967C4.57906 3.36032 4.50004 3.55109 4.50004 3.75L4.50009 10.2347C3.95837 10.3962 3.48325 10.7282 3.14542 11.1814C2.80758 11.6346 2.62509 12.1847 2.62509 12.75C2.62509 13.3152 2.80758 13.8654 3.14542 14.3186C3.48325 14.7718 3.95837 15.1038 4.50009 15.2652L4.50004 20.2499C4.50004 20.4488 4.57906 20.6396 4.71971 20.7803C4.86036 20.9209 5.05113 20.9999 5.25004 20.9999C5.44895 20.9999 5.6397 20.9209 5.78035 20.7803C5.921 20.6396 6.00002 20.4488 6.00003 20.2499L6.00008 15.2652C6.54179 15.1038 7.01691 14.7718 7.35475 14.3186C7.69258 13.8654 7.87507 13.3152 7.87507 12.75C7.87507 12.1847 7.69258 11.6346 7.35475 11.1814C7.01691 10.7282 6.54179 10.3962 6.00008 10.2347ZM5.25008 13.875C5.02758 13.875 4.81007 13.809 4.62507 13.6854C4.44006 13.5617 4.29587 13.386 4.21072 13.1805C4.12557 12.9749 4.10329 12.7487 4.1467 12.5305C4.19011 12.3123 4.29726 12.1118 4.45459 11.9545C4.61192 11.7971 4.81238 11.69 5.03061 11.6466C5.24883 11.6032 5.47503 11.6255 5.6806 11.7106C5.88617 11.7958 6.06187 11.9399 6.18548 12.1249C6.3091 12.31 6.37508 12.5275 6.37508 12.75C6.37474 13.0482 6.2561 13.3342 6.0452 13.5451C5.83429 13.756 5.54835 13.8746 5.25008 13.875Z" fill="#1D1F21" style="fill: var(--ui-icon-primary-color);"/>
</svg>
