<svg  viewBox="0 0 24 24" fill="none" xmlns="http://www.w3.org/2000/svg" id="__THIS_ID_NEEDS_FOR_UI_ICON_COMPONENT__">
<path d="M7.49994 10.125C7.49994 9.9025 7.56592 9.68499 7.68954 9.49998C7.81316 9.31498 7.98886 9.17078 8.19442 9.08564C8.39999 9.00049 8.62619 8.97821 8.84442 9.02162C9.06265 9.06502 9.2631 9.17217 9.42044 9.3295C9.57777 9.48684 9.68492 9.68729 9.72833 9.90552C9.77174 10.1238 9.74946 10.35 9.66431 10.5555C9.57916 10.7611 9.43496 10.9368 9.24996 11.0604C9.06495 11.184 8.84745 11.25 8.62494 11.25C8.32657 11.25 8.04043 11.1315 7.82945 10.9205C7.61847 10.7095 7.49994 10.4234 7.49994 10.125ZM15.3749 11.25C15.5974 11.25 15.815 11.184 16 11.0604C16.185 10.9368 16.3292 10.7611 16.4143 10.5555C16.4995 10.35 16.5217 10.1238 16.4783 9.90552C16.4349 9.68729 16.3278 9.48684 16.1704 9.3295C16.0131 9.17217 15.8126 9.06502 15.5944 9.02162C15.3762 8.97821 15.15 9.00049 14.9444 9.08564C14.7389 9.17078 14.5632 9.31498 14.4395 9.49998C14.3159 9.68499 14.2499 9.9025 14.2499 10.125C14.2499 10.4234 14.3685 10.7095 14.5794 10.9205C14.7904 11.1315 15.0766 11.25 15.3749 11.25ZM21.7499 12C21.7499 13.9284 21.1781 15.8134 20.1068 17.4168C19.0354 19.0202 17.5127 20.2699 15.7311 21.0078C13.9495 21.7458 11.9891 21.9389 10.0978 21.5627C8.2065 21.1865 6.46921 20.2579 5.10565 18.8943C3.74209 17.5307 2.81349 15.7934 2.43729 13.9021C2.06108 12.0108 2.25416 10.0504 2.99212 8.26884C3.73007 6.48726 4.97975 4.96451 6.58313 3.89317C8.18651 2.82183 10.0716 2.25 11.9999 2.25C14.5849 2.25293 17.0632 3.28109 18.891 5.10894C20.7188 6.93679 21.747 9.41504 21.7499 12ZM20.2499 12C20.2499 10.3683 19.7661 8.77325 18.8596 7.41655C17.953 6.05984 16.6646 5.00242 15.1571 4.37799C13.6496 3.75357 11.9908 3.59019 10.3904 3.90852C8.7901 4.22685 7.3201 5.01259 6.16631 6.16637C5.01253 7.32015 4.22679 8.79016 3.90846 10.3905C3.59014 11.9908 3.75351 13.6496 4.37794 15.1571C5.00236 16.6646 6.05978 17.9531 7.41649 18.8596C8.77319 19.7661 10.3682 20.25 11.9999 20.25C14.1872 20.2475 16.2842 19.3775 17.8308 17.8309C19.3775 16.2843 20.2475 14.1873 20.2499 12ZM15.7122 15.0376C15.1426 14.4686 14.4498 14.0381 13.6873 13.7794C12.9248 13.5208 12.1131 13.4409 11.3148 13.5459C10.5165 13.6509 9.75306 13.9381 9.08342 14.3852C8.41379 14.8322 7.85589 15.4272 7.45284 16.1243C7.40352 16.2095 7.37147 16.3036 7.35852 16.4013C7.34558 16.4989 7.35199 16.5982 7.37739 16.6933C7.4028 16.7885 7.4467 16.8777 7.50658 16.9559C7.56647 17.0341 7.64117 17.0997 7.72642 17.149C7.81167 17.1984 7.9058 17.2304 8.00344 17.2434C8.10108 17.2563 8.20031 17.2499 8.29547 17.2245C8.39063 17.1991 8.47985 17.1552 8.55804 17.0953C8.63624 17.0354 8.70187 16.9607 8.75119 16.8755C9.16048 16.1684 9.78845 15.6135 10.5405 15.2943C11.2279 15.0036 11.9864 14.9248 12.7189 15.068C13.4514 15.2112 14.1244 15.57 14.6516 16.0983C14.8836 16.3302 15.0843 16.5915 15.2487 16.8755C15.3483 17.0476 15.5122 17.1732 15.7044 17.2245C15.8966 17.2759 16.1013 17.2487 16.2735 17.1491C16.4456 17.0495 16.5712 16.8856 16.6225 16.6934C16.6739 16.5012 16.6467 16.2965 16.5471 16.1244C16.3173 15.7273 16.0366 15.362 15.7122 15.0376Z" fill="#1D1F21" style="fill: var(--ui-icon-primary-color);"/>
</svg>
