<svg  viewBox="0 0 24 24" fill="none" xmlns="http://www.w3.org/2000/svg" id="__THIS_ID_NEEDS_FOR_UI_ICON_COMPONENT__">
<path d="M7.49994 10.125C7.49994 9.9025 7.56592 9.68499 7.68954 9.49998C7.81316 9.31498 7.98886 9.17078 8.19442 9.08564C8.39999 9.00049 8.62619 8.97821 8.84442 9.02162C9.06265 9.06502 9.2631 9.17217 9.42044 9.3295C9.57777 9.48684 9.68492 9.68729 9.72833 9.90552C9.77174 10.1238 9.74946 10.35 9.66431 10.5555C9.57916 10.7611 9.43496 10.9368 9.24996 11.0604C9.06495 11.184 8.84745 11.25 8.62494 11.25C8.32657 11.25 8.04043 11.1315 7.82945 10.9205C7.61847 10.7095 7.49994 10.4234 7.49994 10.125ZM15.3749 11.25C15.5974 11.25 15.815 11.184 16 11.0604C16.185 10.9368 16.3292 10.7611 16.4143 10.5555C16.4995 10.35 16.5217 10.1238 16.4783 9.90552C16.4349 9.68729 16.3278 9.48684 16.1704 9.3295C16.0131 9.17217 15.8126 9.06502 15.5944 9.02162C15.3762 8.97821 15.15 9.00049 14.9444 9.08564C14.7389 9.17078 14.5632 9.31498 14.4395 9.49998C14.3159 9.68499 14.2499 9.9025 14.2499 10.125C14.2499 10.4234 14.3685 10.7095 14.5794 10.9205C14.7904 11.1315 15.0766 11.25 15.3749 11.25ZM21.7499 12C21.7499 13.9284 21.1781 15.8134 20.1068 17.4168C19.0354 19.0202 17.5127 20.2699 15.7311 21.0078C13.9495 21.7458 11.9891 21.9389 10.0978 21.5627C8.2065 21.1865 6.46921 20.2579 5.10565 18.8943C3.74209 17.5307 2.81349 15.7934 2.43729 13.9021C2.06108 12.0108 2.25416 10.0504 2.99212 8.26884C3.73007 6.48726 4.97975 4.96451 6.58313 3.89317C8.18651 2.82183 10.0716 2.25 11.9999 2.25C14.5849 2.25293 17.0632 3.28109 18.891 5.10894C20.7188 6.93679 21.747 9.41504 21.7499 12ZM20.2499 12C20.2499 10.3683 19.7661 8.77325 18.8596 7.41655C17.953 6.05984 16.6646 5.00242 15.1571 4.37799C13.6496 3.75357 11.9908 3.59019 10.3904 3.90852C8.7901 4.22685 7.3201 5.01259 6.16631 6.16637C5.01253 7.32015 4.22679 8.79016 3.90846 10.3905C3.59014 11.9908 3.75351 13.6496 4.37794 15.1571C5.00236 16.6646 6.05978 17.9531 7.41649 18.8596C8.77319 19.7661 10.3682 20.25 11.9999 20.25C14.1872 20.2475 16.2842 19.3775 17.8308 17.8309C19.3775 16.2843 20.2475 14.1873 20.2499 12ZM15.5856 13.7815C15.5153 13.6936 15.4262 13.6227 15.3248 13.574C15.2235 13.5253 15.1124 13.5 14.9999 13.5C14.8875 13.5 14.7764 13.5253 14.675 13.574C14.5737 13.6227 14.4845 13.6936 14.4143 13.7815L13.4999 14.9244L12.5856 13.7815C12.5153 13.6936 12.4262 13.6227 12.3248 13.574C12.2235 13.5253 12.1124 13.5 11.9999 13.5C11.8875 13.5 11.7764 13.5253 11.675 13.574C11.5737 13.6227 11.4845 13.6936 11.4143 13.7815L10.4999 14.9244L9.58561 13.7815C9.51534 13.6936 9.42622 13.6227 9.32484 13.574C9.22346 13.5253 9.11242 13.5 8.99994 13.5C8.88746 13.5 8.77643 13.5253 8.67505 13.574C8.57367 13.6227 8.48455 13.6936 8.41428 13.7815L6.91428 15.6565C6.79002 15.8118 6.73255 16.0101 6.75452 16.2078C6.77649 16.4055 6.87609 16.5864 7.03142 16.7107C7.18675 16.8349 7.38508 16.8924 7.58278 16.8704C7.78047 16.8485 7.96135 16.7488 8.08561 16.5935L8.99994 15.4506L9.91428 16.5935C9.98455 16.6814 10.0737 16.7523 10.175 16.801C10.2764 16.8497 10.3875 16.875 10.4999 16.875C10.6124 16.875 10.7235 16.8497 10.8248 16.801C10.9262 16.7523 11.0153 16.6814 11.0856 16.5935L11.9999 15.4506L12.9143 16.5935C12.9845 16.6814 13.0737 16.7523 13.175 16.801C13.2764 16.8497 13.3875 16.875 13.4999 16.875C13.6124 16.875 13.7235 16.8497 13.8248 16.801C13.9262 16.7523 14.0153 16.6814 14.0856 16.5935L14.9999 15.4506L15.9143 16.5935C16.0385 16.7488 16.2194 16.8485 16.4171 16.8704C16.6148 16.8924 16.8131 16.8349 16.9685 16.7107C17.1238 16.5864 17.2234 16.4055 17.2454 16.2078C17.2673 16.0101 17.2099 15.8118 17.0856 15.6565L15.5856 13.7815Z" fill="#1D1F21" style="fill: var(--ui-icon-primary-color);"/>
</svg>
