<svg  viewBox="0 0 24 24" fill="none" xmlns="http://www.w3.org/2000/svg" id="__THIS_ID_NEEDS_FOR_UI_ICON_COMPONENT__">
<path d="M7.50018 10.125C7.50018 9.9025 7.56616 9.68499 7.68978 9.49999C7.81339 9.31498 7.9891 9.17079 8.19466 9.08564C8.40023 9.00049 8.62643 8.97821 8.84466 9.02162C9.06289 9.06503 9.26334 9.17217 9.42068 9.32951C9.57801 9.48684 9.68516 9.6873 9.72856 9.90552C9.77197 10.1238 9.74969 10.35 9.66455 10.5555C9.5794 10.7611 9.4352 10.9368 9.2502 11.0604C9.06519 11.184 8.84768 11.25 8.62518 11.25C8.32681 11.25 8.04066 11.1315 7.82969 10.9205C7.61871 10.7095 7.50018 10.4234 7.50018 10.125ZM15.3752 11.25C15.5977 11.25 15.8152 11.184 16.0002 11.0604C16.1852 10.9368 16.3294 10.7611 16.4145 10.5555C16.4997 10.35 16.522 10.1238 16.4786 9.90552C16.4352 9.6873 16.328 9.48684 16.1707 9.32951C16.0133 9.17217 15.8129 9.06503 15.5947 9.02162C15.3764 8.97821 15.1502 9.00049 14.9447 9.08564C14.7391 9.17079 14.5634 9.31498 14.4398 9.49999C14.3162 9.68499 14.2502 9.9025 14.2502 10.125C14.2502 10.4234 14.3687 10.7095 14.5797 10.9205C14.7907 11.1315 15.0768 11.25 15.3752 11.25ZM16.2737 13.6005C16.1884 13.5511 16.0943 13.5191 15.9967 13.5061C15.899 13.4932 15.7998 13.4996 15.7046 13.525C15.6095 13.5504 15.5202 13.5943 15.4421 13.6542C15.3639 13.7141 15.2982 13.7888 15.2489 13.8741C14.8397 14.5812 14.2117 15.1361 13.4596 15.4553C12.7722 15.746 12.0137 15.8249 11.2812 15.6816C10.5487 15.5384 9.87568 15.1796 9.34849 14.6513C9.11647 14.4193 8.91575 14.1581 8.75143 13.8742C8.65182 13.702 8.4879 13.5764 8.29572 13.5251C8.10353 13.4738 7.89884 13.5009 7.72666 13.6005C7.55448 13.7001 7.42892 13.8641 7.37761 14.0562C7.32629 14.2484 7.35342 14.4531 7.45303 14.6253C7.91428 15.423 8.57725 16.0853 9.3754 16.5457C10.1735 17.0062 11.0788 17.2486 12.0002 17.2486C12.9216 17.2486 13.8269 17.0062 14.625 16.5457C15.4231 16.0852 16.0861 15.4229 16.5473 14.6252C16.5967 14.54 16.6287 14.4458 16.6416 14.3482C16.6546 14.2506 16.6482 14.1513 16.6227 14.0562C16.5973 13.961 16.5534 13.8718 16.4935 13.7936C16.4336 13.7154 16.3589 13.6498 16.2737 13.6005ZM21.7502 12C21.7509 12.971 21.6067 13.9367 21.3222 14.8651C21.2863 14.9822 21.2222 15.0887 21.1356 15.1753L15.1759 21.1353C15.0893 21.2219 14.9828 21.286 14.8657 21.3219C12.9037 21.9254 10.8014 21.8944 8.85805 21.2333C6.91475 20.5721 5.22963 19.3146 4.04273 17.6399C2.85583 15.9652 2.22769 13.9586 2.24778 11.906C2.26787 9.85341 2.93517 7.85951 4.15462 6.20832C5.37408 4.55713 7.08349 3.33286 9.03936 2.70991C10.9952 2.08695 13.0978 2.09709 15.0476 2.73887C16.9973 3.38065 18.6949 4.62134 19.8984 6.28421C21.1018 7.94708 21.7499 9.94732 21.7502 12ZM20.2502 12C20.2481 10.2739 19.7041 8.59204 18.6949 7.19174C17.6856 5.79144 16.2622 4.74341 14.6253 4.19556C12.9885 3.64771 11.2209 3.6277 9.5721 4.13836C7.92328 4.64901 6.47644 5.66454 5.43576 7.04164C4.39509 8.41873 3.81313 10.0879 3.77201 11.8135C3.7309 13.5391 4.2327 15.234 5.2066 16.6591C6.1805 18.0842 7.57733 19.1675 9.19997 19.7561C10.8226 20.3447 12.5891 20.4089 14.2502 19.9396L19.9399 14.2496C20.1464 13.5176 20.2508 12.7606 20.2502 12Z" fill="#1D1F21" style="fill: var(--ui-icon-primary-color);"/>
</svg>
