<svg  viewBox="0 0 24 24" fill="none" xmlns="http://www.w3.org/2000/svg" id="__THIS_ID_NEEDS_FOR_UI_ICON_COMPONENT__">
<path d="M11.9999 2.25C10.0716 2.25 8.18651 2.82183 6.58313 3.89317C4.97975 4.96451 3.73007 6.48726 2.99212 8.26884C2.25416 10.0504 2.06108 12.0108 2.43729 13.9021C2.81349 15.7934 3.74209 17.5307 5.10565 18.8943C6.46921 20.2579 8.2065 21.1865 10.0978 21.5627C11.9891 21.9389 13.9495 21.7458 15.7311 21.0078C17.5127 20.2699 19.0354 19.0202 20.1068 17.4168C21.1781 15.8134 21.7499 13.9284 21.7499 12C21.747 9.41504 20.7188 6.93679 18.891 5.10894C17.0632 3.28109 14.5849 2.25293 11.9999 2.25ZM11.9999 20.25C10.3682 20.25 8.77319 19.7661 7.41649 18.8596C6.05978 17.9531 5.00236 16.6646 4.37794 15.1571C3.75351 13.6496 3.59014 11.9908 3.90846 10.3905C4.22679 8.79016 5.01253 7.32015 6.16631 6.16637C7.3201 5.01259 8.7901 4.22685 10.3904 3.90852C11.9908 3.59019 13.6496 3.75357 15.1571 4.37799C16.6646 5.00242 17.953 6.05984 18.8596 7.41655C19.7661 8.77325 20.2499 10.3683 20.2499 12C20.2475 14.1873 19.3775 16.2843 17.8308 17.8309C16.2842 19.3775 14.1872 20.2475 11.9999 20.25ZM13.1249 16.875C13.1249 17.0975 13.059 17.315 12.9353 17.5C12.8117 17.685 12.636 17.8292 12.4305 17.9144C12.2249 17.9995 11.9987 18.0218 11.7805 17.9784C11.5622 17.935 11.3618 17.8278 11.2044 17.6705C11.0471 17.5132 10.94 17.3127 10.8966 17.0945C10.8532 16.8762 10.8754 16.65 10.9606 16.4445C11.0457 16.2389 11.1899 16.0632 11.3749 15.9396C11.5599 15.816 11.7774 15.75 11.9999 15.75C12.2983 15.75 12.5845 15.8685 12.7954 16.0795C13.0064 16.2905 13.1249 16.5766 13.1249 16.875ZM17.7803 11.4697C17.85 11.5393 17.9053 11.622 17.943 11.713C17.9808 11.804 18.0002 11.9016 18.0003 12.0001C18.0003 12.0986 17.9809 12.1962 17.9432 12.2872C17.9055 12.3783 17.8503 12.461 17.7806 12.5307C17.7109 12.6003 17.6282 12.6556 17.5372 12.6933C17.4461 12.731 17.3486 12.7503 17.25 12.7503C17.1515 12.7503 17.054 12.7308 16.9629 12.6931C16.8719 12.6553 16.7893 12.6 16.7196 12.5303L15.7499 11.5606L14.7803 12.5303C14.6396 12.6708 14.4489 12.7497 14.25 12.7497C14.0512 12.7496 13.8605 12.6706 13.72 12.53C13.5794 12.3894 13.5004 12.1987 13.5003 11.9999C13.5002 11.8011 13.5791 11.6104 13.7196 11.4697L14.6893 10.5L13.7196 9.53032C13.5791 9.38964 13.5002 9.19892 13.5003 9.0001C13.5004 8.80127 13.5794 8.61061 13.72 8.47001C13.8605 8.32942 14.0512 8.25041 14.25 8.25035C14.4489 8.25029 14.6396 8.32918 14.7803 8.46968L15.7499 9.43936L16.7196 8.46968C16.8603 8.32918 17.051 8.25029 17.2498 8.25035C17.4487 8.25041 17.6393 8.32942 17.7799 8.47001C17.9205 8.61061 17.9995 8.80127 17.9996 9.0001C17.9997 9.19892 17.9208 9.38964 17.7803 9.53032L16.8106 10.5L17.7803 11.4697ZM10.2803 9.53032L9.31058 10.5L10.2803 11.4697C10.35 11.5393 10.4053 11.622 10.443 11.713C10.4808 11.804 10.5002 11.9016 10.5003 12.0001C10.5003 12.0986 10.4809 12.1962 10.4432 12.2872C10.4055 12.3783 10.3503 12.461 10.2806 12.5307C10.2109 12.6003 10.1282 12.6556 10.0372 12.6933C9.94614 12.731 9.84857 12.7503 9.75004 12.7503C9.65151 12.7503 9.55395 12.7308 9.46294 12.6931C9.37193 12.6553 9.28925 12.6 9.21962 12.5303L8.24994 11.5606L7.28026 12.5303C7.13958 12.6708 6.94887 12.7497 6.75004 12.7497C6.55121 12.7496 6.36055 12.6706 6.21996 12.53C6.07936 12.3894 6.00035 12.1987 6.00029 11.9999C6.00023 11.8011 6.07912 11.6104 6.21962 11.4697L7.1893 10.5L6.21962 9.53032C6.07912 9.38964 6.00023 9.19892 6.00029 9.0001C6.00035 8.80127 6.07936 8.61061 6.21996 8.47001C6.36055 8.32942 6.55121 8.25041 6.75004 8.25035C6.94887 8.25029 7.13958 8.32918 7.28026 8.46968L8.24994 9.43936L9.21962 8.46968C9.3603 8.32918 9.55102 8.25029 9.74985 8.25035C9.94867 8.25041 10.1393 8.32942 10.2799 8.47001C10.4205 8.61061 10.4995 8.80127 10.4996 9.0001C10.4997 9.19892 10.4208 9.38964 10.2803 9.53032Z" fill="#1D1F21" style="fill: var(--ui-icon-primary-color);"/>
</svg>
