<svg  viewBox="0 0 24 24" fill="none" xmlns="http://www.w3.org/2000/svg" id="__THIS_ID_NEEDS_FOR_UI_ICON_COMPONENT__">
<path d="M9.74994 10.125C9.74994 10.3475 9.68396 10.565 9.56035 10.75C9.43673 10.935 9.26103 11.0792 9.05546 11.1644C8.8499 11.2495 8.62369 11.2718 8.40547 11.2284C8.18724 11.185 7.98678 11.0778 7.82945 10.9205C7.67211 10.7632 7.56497 10.5627 7.52156 10.3445C7.47815 10.1262 7.50043 9.90005 7.58558 9.69448C7.67073 9.48891 7.81492 9.31321 7.99993 9.1896C8.18493 9.06598 8.40244 9 8.62494 9C8.92331 9 9.20946 9.11853 9.42044 9.3295C9.63142 9.54048 9.74994 9.82663 9.74994 10.125ZM15.3749 9C15.1524 9 14.9349 9.06598 14.7499 9.1896C14.5649 9.31321 14.4207 9.48891 14.3356 9.69448C14.2504 9.90005 14.2282 10.1262 14.2716 10.3445C14.315 10.5627 14.4221 10.7632 14.5794 10.9205C14.7368 11.0778 14.9372 11.185 15.1555 11.2284C15.3737 11.2718 15.5999 11.2495 15.8055 11.1644C16.011 11.0792 16.1867 10.935 16.3103 10.75C16.434 10.565 16.4999 10.3475 16.4999 10.125C16.4999 9.82663 16.3814 9.54048 16.1704 9.3295C15.9595 9.11853 15.6733 9 15.3749 9ZM21.7499 12C21.7499 13.9284 21.1781 15.8134 20.1068 17.4168C19.0354 19.0202 17.5127 20.2699 15.7311 21.0078C13.9495 21.7458 11.9891 21.9389 10.0978 21.5627C8.2065 21.1865 6.46921 20.2579 5.10565 18.8943C3.74209 17.5307 2.81349 15.7934 2.43729 13.9021C2.06108 12.0108 2.25416 10.0504 2.99212 8.26884C3.73007 6.48726 4.97975 4.96451 6.58313 3.89317C8.18651 2.82183 10.0716 2.25 11.9999 2.25C14.5849 2.25293 17.0632 3.28109 18.891 5.10894C20.7188 6.93679 21.747 9.41504 21.7499 12ZM20.2499 12C20.2499 10.3683 19.7661 8.77325 18.8596 7.41655C17.953 6.05984 16.6646 5.00242 15.1571 4.37799C13.6496 3.75357 11.9908 3.59019 10.3904 3.90852C8.7901 4.22685 7.3201 5.01259 6.16631 6.16637C5.01253 7.32015 4.22679 8.79016 3.90846 10.3905C3.59014 11.9908 3.75351 13.6496 4.37794 15.1571C5.00236 16.6646 6.05978 17.9531 7.41649 18.8596C8.77319 19.7661 10.3682 20.25 11.9999 20.25C14.1872 20.2475 16.2842 19.3775 17.8308 17.8309C19.3775 16.2843 20.2475 14.1873 20.2499 12Z" fill="#1D1F21" style="fill: var(--ui-icon-primary-color);"/>
</svg>
