<svg  viewBox="0 0 24 24" fill="none" xmlns="http://www.w3.org/2000/svg" id="__THIS_ID_NEEDS_FOR_UI_ICON_COMPONENT__">
<path d="M7.49994 10.125C7.49994 9.9025 7.56592 9.68499 7.68954 9.49998C7.81316 9.31498 7.98886 9.17078 8.19442 9.08564C8.39999 9.00049 8.62619 8.97821 8.84442 9.02162C9.06265 9.06502 9.2631 9.17217 9.42044 9.3295C9.57777 9.48684 9.68492 9.68729 9.72833 9.90552C9.77174 10.1238 9.74946 10.35 9.66431 10.5555C9.57916 10.7611 9.43496 10.9368 9.24996 11.0604C9.06495 11.184 8.84745 11.25 8.62494 11.25C8.32657 11.25 8.04043 11.1315 7.82945 10.9205C7.61847 10.7095 7.49994 10.4234 7.49994 10.125ZM15.3749 11.25C15.5974 11.25 15.815 11.184 16 11.0604C16.185 10.9368 16.3292 10.7611 16.4143 10.5555C16.4995 10.35 16.5217 10.1238 16.4783 9.90552C16.4349 9.68729 16.3278 9.48684 16.1704 9.3295C16.0131 9.17217 15.8126 9.06502 15.5944 9.02162C15.3762 8.97821 15.15 9.00049 14.9444 9.08564C14.7389 9.17078 14.5632 9.31498 14.4395 9.49998C14.3159 9.68499 14.2499 9.9025 14.2499 10.125C14.2499 10.4234 14.3685 10.7095 14.5794 10.9205C14.7904 11.1315 15.0766 11.25 15.3749 11.25ZM21.7499 12C21.7499 13.9284 21.1781 15.8134 20.1068 17.4168C19.0354 19.0202 17.5127 20.2699 15.7311 21.0078C13.9495 21.7458 11.9891 21.9389 10.0978 21.5627C8.2065 21.1865 6.46921 20.2579 5.10565 18.8943C3.74209 17.5307 2.81349 15.7934 2.43729 13.9021C2.06108 12.0108 2.25416 10.0504 2.99212 8.26884C3.73007 6.48726 4.97975 4.96451 6.58313 3.89317C8.18651 2.82183 10.0716 2.25 11.9999 2.25C14.5849 2.25293 17.0632 3.28109 18.891 5.10894C20.7188 6.93679 21.747 9.41504 21.7499 12ZM20.2499 12C20.2499 10.3683 19.7661 8.77325 18.8596 7.41655C17.953 6.05984 16.6646 5.00242 15.1571 4.37799C13.6496 3.75357 11.9908 3.59019 10.3904 3.90852C8.7901 4.22685 7.3201 5.01259 6.16631 6.16637C5.01253 7.32015 4.22679 8.79016 3.90846 10.3905C3.59014 11.9908 3.75351 13.6496 4.37794 15.1571C5.00236 16.6646 6.05978 17.9531 7.41649 18.8596C8.77319 19.7661 10.3682 20.25 11.9999 20.25C14.1872 20.2475 16.2842 19.3775 17.8308 17.8309C19.3775 16.2843 20.2475 14.1873 20.2499 12ZM16.2734 13.6004C16.1013 13.5008 15.8966 13.4737 15.7044 13.525C15.5122 13.5764 15.3483 13.7019 15.2487 13.8741C14.8394 14.5812 14.2114 15.1361 13.4593 15.4552C12.772 15.746 12.0134 15.8248 11.2809 15.6816C10.5485 15.5383 9.87546 15.1796 9.34826 14.6513C9.11626 14.4193 8.91554 14.1581 8.75119 13.8742C8.65142 13.7023 8.48753 13.5771 8.29552 13.526C8.1035 13.4749 7.89904 13.5021 7.72704 13.6016C7.55504 13.7011 7.42955 13.8647 7.37814 14.0567C7.32672 14.2486 7.35357 14.4531 7.45279 14.6253C7.91405 15.423 8.57702 16.0853 9.37517 16.5457C10.1733 17.0062 11.0785 17.2485 12 17.2485C12.9214 17.2485 13.8266 17.0061 14.6248 16.5457C15.4229 16.0852 16.0859 15.4229 16.5471 14.6252C16.6467 14.453 16.6738 14.2483 16.6225 14.0561C16.5712 13.864 16.4456 13.7 16.2734 13.6004Z" fill="#1D1F21" style="fill: var(--ui-icon-primary-color);"/>
</svg>
