<svg  viewBox="0 0 24 24" fill="none" xmlns="http://www.w3.org/2000/svg" id="__THIS_ID_NEEDS_FOR_UI_ICON_COMPONENT__">
<path d="M7.49994 10.125C7.49994 9.9025 7.56592 9.68499 7.68954 9.49998C7.81316 9.31498 7.98886 9.17078 8.19442 9.08564C8.39999 9.00049 8.62619 8.97821 8.84442 9.02162C9.06265 9.06502 9.2631 9.17217 9.42044 9.3295C9.57777 9.48684 9.68492 9.68729 9.72833 9.90552C9.77174 10.1238 9.74946 10.35 9.66431 10.5555C9.57916 10.7611 9.43496 10.9368 9.24996 11.0604C9.06495 11.184 8.84745 11.25 8.62494 11.25C8.32657 11.25 8.04043 11.1315 7.82945 10.9205C7.61847 10.7095 7.49994 10.4234 7.49994 10.125ZM15.3749 9C15.1524 9 14.9349 9.06598 14.7499 9.1896C14.5649 9.31321 14.4207 9.48891 14.3356 9.69448C14.2504 9.90005 14.2282 10.1262 14.2716 10.3445C14.315 10.5627 14.4221 10.7632 14.5794 10.9205C14.7368 11.0778 14.9372 11.185 15.1555 11.2284C15.3737 11.2718 15.5999 11.2495 15.8055 11.1644C16.011 11.0792 16.1867 10.935 16.3103 10.75C16.434 10.565 16.4999 10.3475 16.4999 10.125C16.4999 9.82663 16.3814 9.54048 16.1704 9.3295C15.9595 9.11853 15.6733 9 15.3749 9ZM21.7499 12C21.7499 13.9284 21.1781 15.8134 20.1068 17.4168C19.0354 19.0202 17.5127 20.2699 15.7311 21.0078C13.9495 21.7458 11.9891 21.9389 10.0978 21.5627C8.2065 21.1865 6.46921 20.2579 5.10565 18.8943C3.74209 17.5307 2.81349 15.7934 2.43729 13.9021C2.06108 12.0108 2.25416 10.0504 2.99212 8.26884C3.73007 6.48726 4.97975 4.96451 6.58313 3.89317C8.18651 2.82183 10.0716 2.25 11.9999 2.25C14.5849 2.25293 17.0632 3.28109 18.891 5.10894C20.7188 6.93679 21.747 9.41504 21.7499 12ZM20.2499 12C20.2499 10.3683 19.7661 8.77325 18.8596 7.41655C17.953 6.05984 16.6646 5.00242 15.1571 4.37799C13.6496 3.75357 11.9908 3.59019 10.3904 3.90852C8.7901 4.22685 7.3201 5.01259 6.16631 6.16637C5.01253 7.32015 4.22679 8.79016 3.90846 10.3905C3.59014 11.9908 3.75351 13.6496 4.37794 15.1571C5.00236 16.6646 6.05978 17.9531 7.41649 18.8596C8.77319 19.7661 10.3682 20.25 11.9999 20.25C14.1872 20.2475 16.2842 19.3775 17.8308 17.8309C19.3775 16.2843 20.2475 14.1873 20.2499 12ZM15.7499 14.25H8.24994C8.05103 14.25 7.86027 14.329 7.71961 14.4697C7.57896 14.6103 7.49994 14.8011 7.49994 15C7.49994 15.1989 7.57896 15.3897 7.71961 15.5303C7.86027 15.671 8.05103 15.75 8.24994 15.75H15.7499C15.9489 15.75 16.1396 15.671 16.2803 15.5303C16.4209 15.3897 16.4999 15.1989 16.4999 15C16.4999 14.8011 16.4209 14.6103 16.2803 14.4697C16.1396 14.329 15.9489 14.25 15.7499 14.25Z" fill="#1D1F21" style="fill: var(--ui-icon-primary-color);"/>
</svg>
