<svg  viewBox="0 0 24 24" fill="none" xmlns="http://www.w3.org/2000/svg" id="__THIS_ID_NEEDS_FOR_UI_ICON_COMPONENT__">
<path d="M20.9943 13.9824C21.0198 14.0775 21.0263 14.1768 21.0134 14.2744C21.0006 14.3721 20.9686 14.4662 20.9194 14.5515C20.8701 14.6368 20.8046 14.7116 20.7264 14.7715C20.6483 14.8315 20.5591 14.8755 20.4639 14.901L18.1148 15.5304L18.7443 17.8794C18.7699 17.9746 18.7765 18.0739 18.7637 18.1716C18.7509 18.2693 18.719 18.3636 18.6697 18.449C18.6205 18.5343 18.5549 18.6092 18.4767 18.6692C18.3986 18.7292 18.3093 18.7732 18.2141 18.7987C18.1189 18.8242 18.0197 18.8307 17.9219 18.8178C17.8242 18.8049 17.73 18.7729 17.6447 18.7236C17.5594 18.6743 17.4846 18.6086 17.4247 18.5304C17.3647 18.4521 17.3208 18.3628 17.2954 18.2676L16.5522 15.4942L12.7501 13.299V17.6893L14.7804 19.7196C14.9211 19.8603 15.0001 20.0511 15.0001 20.25C15.0002 20.4489 14.9211 20.6397 14.7805 20.7803C14.6398 20.921 14.4491 21 14.2502 21C14.0512 21 13.8605 20.921 13.7198 20.7804L12.0001 19.0607L10.2804 20.7804C10.1398 20.921 9.94901 21 9.75009 21C9.55118 21 9.36041 20.921 9.21976 20.7803C9.07911 20.6397 9.0001 20.4489 9.00011 20.25C9.00012 20.0511 9.07914 19.8603 9.21981 19.7197L11.2501 17.6893V13.299L7.44801 15.4942L6.70485 18.2676C6.65338 18.4598 6.52768 18.6236 6.35542 18.723C6.18316 18.8225 5.97844 18.8495 5.7863 18.798C5.59417 18.7465 5.43035 18.6208 5.33088 18.4486C5.23142 18.2763 5.20446 18.0716 5.25594 17.8794L5.88541 15.5304L3.5363 14.901C3.44108 14.8755 3.3518 14.8316 3.27357 14.7717C3.19533 14.7117 3.12968 14.637 3.08035 14.5517C3.03103 14.4663 2.99901 14.3721 2.98612 14.2744C2.97323 14.1767 2.97972 14.0774 3.00522 13.9822C3.03073 13.887 3.07475 13.7978 3.13476 13.7196C3.19477 13.6414 3.2696 13.5758 3.35498 13.5266C3.44035 13.4774 3.53459 13.4454 3.63231 13.4326C3.73003 13.4199 3.82932 13.4264 3.92449 13.452L6.69806 14.1952L10.5002 12L6.69806 9.80486L3.92449 10.548C3.82932 10.5736 3.73003 10.5802 3.63231 10.5674C3.53459 10.5546 3.44035 10.5227 3.35498 10.4734C3.2696 10.4242 3.19477 10.3586 3.13476 10.2804C3.07475 10.2023 3.03073 10.113 3.00523 10.0178C2.97972 9.92262 2.97323 9.82333 2.98612 9.72563C2.99901 9.62792 3.03103 9.53371 3.08036 9.44838C3.12968 9.36306 3.19533 9.28829 3.27357 9.22836C3.3518 9.16842 3.44108 9.12449 3.5363 9.09908L5.88541 8.46966L5.25594 6.12059C5.23034 6.02542 5.22375 5.92614 5.23655 5.82842C5.24934 5.7307 5.28127 5.63645 5.33051 5.55108C5.37975 5.46571 5.44533 5.39088 5.5235 5.33086C5.60168 5.27085 5.69092 5.22683 5.78611 5.20133C5.88131 5.17583 5.9806 5.16933 6.07831 5.18222C6.17602 5.19512 6.27022 5.22714 6.35555 5.27646C6.44087 5.32578 6.51564 5.39144 6.57558 5.46967C6.63551 5.54791 6.67944 5.63719 6.70485 5.73241L7.44801 8.50588L11.2501 10.701V6.31071L9.21981 4.28038C9.07914 4.13973 9.00012 3.94897 9.00011 3.75005C9.0001 3.55113 9.07911 3.36036 9.21976 3.2197C9.36041 3.07904 9.55118 3.00001 9.75009 3C9.94901 2.99999 10.1398 3.079 10.2804 3.21965L12.0001 4.93938L13.7198 3.21965C13.7895 3.15001 13.8721 3.09477 13.9631 3.05708C14.0541 3.01939 14.1517 3 14.2502 3C14.3487 3 14.4462 3.01941 14.5372 3.0571C14.6282 3.0948 14.7108 3.15005 14.7805 3.2197C14.8501 3.28935 14.9054 3.37203 14.9431 3.46303C14.9808 3.55403 15.0001 3.65156 15.0001 3.75005C15.0001 3.84854 14.9807 3.94607 14.943 4.03707C14.9053 4.12806 14.8501 4.21074 14.7804 4.28038L12.7501 6.31071V10.701L16.5522 8.50588L17.2954 5.73241C17.3209 5.63727 17.3649 5.54808 17.4248 5.46994C17.4848 5.3918 17.5595 5.32623 17.6448 5.27698C17.7301 5.22774 17.8243 5.19577 17.9219 5.18291C18.0196 5.17005 18.1188 5.17655 18.214 5.20204C18.3091 5.22753 18.3983 5.27151 18.4764 5.33146C18.5546 5.39142 18.6201 5.46618 18.6694 5.55147C18.7186 5.63677 18.7506 5.73093 18.7634 5.82858C18.7763 5.92623 18.7698 6.02546 18.7443 6.12059L18.1148 8.46965L20.4639 9.09908C20.5592 9.12449 20.6485 9.16842 20.7267 9.22835C20.8049 9.28829 20.8706 9.36306 20.9199 9.44838C20.9692 9.5337 21.0012 9.62791 21.0141 9.72562C21.027 9.82333 21.0205 9.92262 20.995 10.0178C20.9695 10.113 20.9255 10.2023 20.8655 10.2804C20.8055 10.3586 20.7306 10.4242 20.6453 10.4734C20.5599 10.5227 20.4657 10.5546 20.3679 10.5674C20.2702 10.5802 20.1709 10.5736 20.0758 10.548L17.3022 9.80486L13.5001 12L17.3022 14.1952L20.0758 13.452C20.1709 13.4265 20.2701 13.42 20.3678 13.4329C20.4654 13.4458 20.5596 13.4777 20.6449 13.527C20.7302 13.5762 20.8049 13.6418 20.8649 13.7199C20.9248 13.7981 20.9688 13.8873 20.9943 13.9824Z" fill="#1D1F21" style="fill: var(--ui-icon-primary-color);"/>
</svg>
