<svg  viewBox="0 0 24 24" fill="none" xmlns="http://www.w3.org/2000/svg" id="__THIS_ID_NEEDS_FOR_UI_ICON_COMPONENT__">
<path d="M21.5303 8.77866C21.4606 8.84833 21.378 8.90359 21.287 8.9413C21.196 8.97901 21.0985 8.99843 21 8.99844C20.9015 8.99844 20.8039 8.97905 20.713 8.94135C20.622 8.90366 20.5393 8.84841 20.4696 8.77875L18 6.30952V13.499C18 13.6979 17.921 13.8887 17.7803 14.0294C17.6397 14.17 17.4489 14.249 17.25 14.249C17.0511 14.249 16.8603 14.17 16.7197 14.0294C16.579 13.8887 16.5 13.6979 16.5 13.499V6.30971L14.0303 8.77939C13.8897 8.92004 13.6989 8.99905 13.5 8.99904C13.3011 8.99903 13.1103 8.92 12.9696 8.77934C12.829 8.63868 12.75 8.44791 12.75 8.24899C12.75 8.05007 12.829 7.85931 12.9697 7.71866L16.7197 3.96866C16.7224 3.96591 16.7254 3.96362 16.7282 3.96092C16.7432 3.94646 16.7584 3.93233 16.7745 3.91915C16.7836 3.9116 16.7933 3.90503 16.8028 3.89798C16.813 3.89038 16.8229 3.88248 16.8335 3.87541C16.8442 3.8682 16.8554 3.86195 16.8664 3.85536C16.8765 3.84941 16.8862 3.84314 16.8965 3.83762C16.9075 3.83176 16.9187 3.8268 16.9299 3.82153C16.941 3.81629 16.9518 3.8108 16.9632 3.80611C16.9737 3.80174 16.9845 3.79823 16.9952 3.79436C17.0076 3.78988 17.0199 3.78514 17.0326 3.7813C17.0429 3.77818 17.0534 3.77594 17.0638 3.77328C17.0771 3.76987 17.0902 3.76619 17.1038 3.76349C17.1153 3.76125 17.1269 3.75994 17.1384 3.75822C17.1511 3.75632 17.1636 3.75399 17.1764 3.75273C17.1955 3.75088 17.2147 3.75026 17.2338 3.74985C17.2392 3.74973 17.2446 3.74902 17.25 3.74902C17.2558 3.74902 17.2613 3.74976 17.267 3.74989C17.2858 3.75031 17.3047 3.7509 17.3235 3.75273C17.3367 3.75401 17.3494 3.75639 17.3624 3.75836C17.3736 3.76006 17.3849 3.76129 17.396 3.76349C17.41 3.76624 17.4235 3.77001 17.4371 3.77351C17.4472 3.77608 17.4573 3.77825 17.4672 3.78125C17.4804 3.78521 17.493 3.79009 17.5058 3.79475C17.5161 3.79846 17.5265 3.80182 17.5366 3.80601C17.5484 3.81091 17.5598 3.81663 17.5713 3.8221C17.582 3.82716 17.5928 3.8319 17.6032 3.83751C17.6141 3.84332 17.6245 3.84993 17.635 3.85627C17.6455 3.86255 17.6561 3.86843 17.6663 3.87527C17.6777 3.88292 17.6885 3.89143 17.6995 3.89967C17.7081 3.90612 17.7169 3.9121 17.7253 3.91896C17.7435 3.93389 17.7609 3.9497 17.7776 3.96623C17.7785 3.9671 17.7795 3.96779 17.7803 3.96865L21.5302 7.71801C21.5998 7.78765 21.6551 7.87032 21.6928 7.96131C21.7305 8.0523 21.7499 8.14983 21.7499 8.24832C21.7499 8.34681 21.7305 8.44434 21.6928 8.53534C21.6552 8.62633 21.5999 8.70901 21.5303 8.77866ZM4.5 12.749H11.2499C11.4488 12.749 11.6396 12.67 11.7802 12.5294C11.9209 12.3887 11.9999 12.1979 11.9999 11.999C11.9999 11.8001 11.9209 11.6093 11.7802 11.4687C11.6396 11.328 11.4488 11.249 11.2499 11.249H4.5C4.30109 11.249 4.11032 11.328 3.96967 11.4687C3.82902 11.6093 3.75 11.8001 3.75 11.999C3.75 12.1979 3.82902 12.3887 3.96967 12.5294C4.11032 12.67 4.30109 12.749 4.5 12.749ZM4.5 6.74902H9.74991C9.94882 6.74902 10.1396 6.67001 10.2802 6.52935C10.4209 6.3887 10.4999 6.19794 10.4999 5.99902C10.4999 5.80011 10.4209 5.60935 10.2802 5.46869C10.1396 5.32804 9.94882 5.24902 9.74991 5.24902H4.5C4.30109 5.24902 4.11032 5.32804 3.96967 5.46869C3.82902 5.60935 3.75 5.80011 3.75 5.99902C3.75 6.19794 3.82902 6.3887 3.96967 6.52935C4.11032 6.67001 4.30109 6.74902 4.5 6.74902ZM17.2499 17.249H4.5C4.30109 17.249 4.11032 17.328 3.96967 17.4687C3.82902 17.6093 3.75 17.8001 3.75 17.999C3.75 18.1979 3.82902 18.3887 3.96967 18.5294C4.11032 18.67 4.30109 18.749 4.5 18.749H17.2499C17.4488 18.749 17.6396 18.67 17.7802 18.5294C17.9209 18.3887 17.9999 18.1979 17.9999 17.999C17.9999 17.8001 17.9209 17.6093 17.7802 17.4687C17.6396 17.328 17.4488 17.249 17.2499 17.249Z" fill="#1D1F21" style="fill: var(--ui-icon-primary-color);"/>
</svg>
