<svg  viewBox="0 0 24 24" fill="none" xmlns="http://www.w3.org/2000/svg" id="__THIS_ID_NEEDS_FOR_UI_ICON_COMPONENT__">
<path d="M15 22.5004H9C8.88116 22.5004 8.76402 22.4722 8.65823 22.418C8.55244 22.3639 8.46104 22.2854 8.39155 22.189C8.32207 22.0925 8.27649 21.981 8.25857 21.8635C8.24065 21.746 8.25091 21.626 8.28849 21.5132L9.30923 18.4512C8.46276 18.7389 7.55988 18.8207 6.67547 18.6898C5.79105 18.5589 4.9506 18.219 4.2238 17.6983C3.497 17.1777 2.90481 16.4913 2.49632 15.696C2.08784 14.9007 1.87485 14.0195 1.875 13.1254C1.875 10.882 3.53563 8.24999 6.81077 5.30235C8.31324 3.95878 9.91254 2.72758 11.5957 1.61873C11.7164 1.54152 11.8567 1.50049 12 1.50049C12.1433 1.50049 12.2836 1.54152 12.4043 1.61873C14.0875 2.72758 15.6868 3.95877 17.1892 5.30235C20.4644 8.24999 22.125 10.882 22.125 13.1254C22.1252 14.0195 21.9122 14.9007 21.5037 15.696C21.0952 16.4913 20.503 17.1777 19.7762 17.6983C19.0494 18.219 18.2089 18.5589 17.3245 18.6898C16.4401 18.8207 15.5372 18.7389 14.6908 18.4512L15.7115 21.5132C15.7491 21.626 15.7594 21.746 15.7414 21.8635C15.7235 21.981 15.6779 22.0926 15.6084 22.189C15.539 22.2854 15.4476 22.3639 15.3418 22.418C15.236 22.4722 15.1188 22.5004 15 22.5004ZM10.0406 21.0004H13.9594L12.6596 17.1012C12.608 16.9463 12.6083 16.7788 12.6605 16.624C12.7128 16.4693 12.8141 16.3359 12.9491 16.244C13.0841 16.1521 13.2454 16.1068 13.4085 16.115C13.5716 16.1231 13.7276 16.1843 13.8528 16.2891C14.4546 16.7927 15.1876 17.1141 15.9657 17.2157C16.7439 17.3173 17.5348 17.1949 18.2458 16.8627C18.9568 16.5306 19.5583 16.0026 19.9797 15.3406C20.4011 14.6786 20.625 13.9102 20.625 13.1254C20.625 9.64937 14.741 4.98384 12 3.14739C9.25899 4.98384 3.375 9.64937 3.375 13.1254C3.37503 13.9102 3.59889 14.6786 4.02031 15.3406C4.44173 16.0026 5.04322 16.5306 5.75419 16.8627C6.46517 17.1949 7.25613 17.3173 8.03425 17.2157C8.81238 17.1141 9.54538 16.7927 10.1472 16.2891C10.2724 16.1843 10.4284 16.1231 10.5915 16.115C10.7546 16.1068 10.9159 16.1521 11.0509 16.244C11.1859 16.3359 11.2872 16.4693 11.3395 16.624C11.3917 16.7788 11.392 16.9463 11.3404 17.1012L10.0406 21.0004Z" fill="#1D1F21" style="fill: var(--ui-icon-primary-color);"/>
</svg>
