<svg  viewBox="0 0 24 24" fill="none" xmlns="http://www.w3.org/2000/svg" id="__THIS_ID_NEEDS_FOR_UI_ICON_COMPONENT__">
<path d="M14.5795 2.32584C14.4534 2.26411 14.3125 2.23904 14.1728 2.25349C14.0332 2.26795 13.9004 2.32134 13.7896 2.4076L7.24265 7.49958H3C2.60231 7.50003 2.22105 7.65821 1.93984 7.93942C1.65864 8.22062 1.50045 8.60189 1.5 8.99958V14.9996C1.50045 15.3973 1.65864 15.7785 1.93984 16.0597C2.22105 16.3409 2.60231 16.4991 3 16.4996H7.24265L13.7896 21.5916C13.9004 21.6778 14.0332 21.7311 14.1728 21.7456C14.3125 21.76 14.4534 21.735 14.5795 21.6733C14.7057 21.6116 14.8119 21.5158 14.8863 21.3967C14.9606 21.2776 15 21.14 15 20.9996V2.99958C15 2.85917 14.9606 2.72159 14.8862 2.60248C14.8119 2.48337 14.7056 2.38752 14.5795 2.32584ZM13.5 19.4661L7.96042 15.1576C7.8288 15.0552 7.66678 14.9996 7.5 14.9996H3V8.99958H7.5C7.66678 8.99959 7.8288 8.94399 7.96042 8.84156L13.5 4.53308V19.4661ZM18.7473 9.74958V14.2496C18.7473 14.4485 18.6682 14.6393 18.5276 14.7799C18.3869 14.9206 18.1962 14.9996 17.9973 14.9996C17.7983 14.9996 17.6076 14.9206 17.4669 14.7799C17.3263 14.6393 17.2473 14.4485 17.2473 14.2496V9.74958C17.2473 9.55066 17.3263 9.3599 17.4669 9.21925C17.6076 9.07859 17.7983 8.99958 17.9973 8.99958C18.1962 8.99958 18.3869 9.07859 18.5276 9.21925C18.6682 9.3599 18.7473 9.55066 18.7473 9.74958Z" fill="#1D1F21" style="fill: var(--ui-icon-primary-color);"/>
</svg>
