<svg  viewBox="0 0 24 24" fill="none" xmlns="http://www.w3.org/2000/svg" id="__THIS_ID_NEEDS_FOR_UI_ICON_COMPONENT__">
<path d="M14.5795 2.32581C14.4534 2.2641 14.3125 2.23904 14.1728 2.2535C14.0332 2.26795 13.9004 2.32133 13.7896 2.40756L7.24265 7.49954H3C2.60231 7.5 2.22105 7.65818 1.93984 7.93939C1.65864 8.22059 1.50045 8.60186 1.5 8.99954V14.9995C1.50045 15.3972 1.65864 15.7785 1.93984 16.0597C2.22105 16.3409 2.60231 16.4991 3 16.4995H7.24265L13.7896 21.5915C13.9004 21.6777 14.0332 21.7311 14.1728 21.7455C14.3125 21.76 14.4534 21.7349 14.5795 21.6733C14.7057 21.6116 14.8119 21.5157 14.8863 21.3966C14.9606 21.2775 15 21.1399 15 20.9995V2.99954C15 2.85914 14.9606 2.72155 14.8862 2.60245C14.8119 2.48334 14.7056 2.38749 14.5795 2.32581ZM13.5 19.466L7.96042 15.1576C7.8288 15.0551 7.66678 14.9995 7.5 14.9995H3V8.99954H7.5C7.66678 8.99956 7.8288 8.94395 7.96042 8.84152L13.5 4.53305V19.466ZM18.7473 9.74954V14.2495C18.7473 14.4485 18.6682 14.6392 18.5276 14.7799C18.3869 14.9205 18.1962 14.9995 17.9973 14.9995C17.7983 14.9995 17.6076 14.9205 17.4669 14.7799C17.3263 14.6392 17.2473 14.4485 17.2473 14.2495V9.74954C17.2473 9.55063 17.3263 9.35987 17.4669 9.21921C17.6076 9.07856 17.7983 8.99954 17.9973 8.99954C18.1962 8.99954 18.3869 9.07856 18.5276 9.21921C18.6682 9.35987 18.7473 9.55063 18.7473 9.74954ZM21.7473 8.24954V15.7495C21.7473 15.9485 21.6682 16.1392 21.5276 16.2799C21.3869 16.4205 21.1962 16.4995 20.9973 16.4995C20.7983 16.4995 20.6076 16.4205 20.4669 16.2799C20.3263 16.1392 20.2473 15.9485 20.2473 15.7495V8.24954C20.2473 8.05063 20.3263 7.85987 20.4669 7.71921C20.6076 7.57856 20.7983 7.49954 20.9973 7.49954C21.1962 7.49954 21.3869 7.57856 21.5276 7.71921C21.6682 7.85987 21.7473 8.05063 21.7473 8.24954Z" fill="#1D1F21" style="fill: var(--ui-icon-primary-color);"/>
</svg>
