<svg  viewBox="0 0 24 24" fill="none" xmlns="http://www.w3.org/2000/svg" id="__THIS_ID_NEEDS_FOR_UI_ICON_COMPONENT__">
<path d="M17.2478 14.25V9.74998C17.2478 9.55107 17.3268 9.3603 17.4675 9.21965C17.6081 9.079 17.7989 8.99998 17.9978 8.99998C18.1967 8.99998 18.3875 9.079 18.5281 9.21965C18.6688 9.3603 18.7478 9.55107 18.7478 9.74998V14.25C18.7478 14.4489 18.6688 14.6397 18.5281 14.7803C18.3875 14.921 18.1967 15 17.9978 15C17.7989 15 17.6081 14.921 17.4675 14.7803C17.3268 14.6397 17.2478 14.4489 17.2478 14.25ZM20.9978 7.49998C20.7989 7.49999 20.6081 7.57901 20.4675 7.71966C20.3268 7.86031 20.2478 8.05107 20.2478 8.24998V15.75C20.2478 15.9489 20.3268 16.1397 20.4675 16.2803C20.6081 16.421 20.7989 16.5 20.9978 16.5C21.1967 16.5 21.3875 16.421 21.5281 16.2803C21.6688 16.1397 21.7478 15.9489 21.7478 15.75V8.24998C21.7478 8.05107 21.6688 7.86031 21.5281 7.71966C21.3875 7.57901 21.1967 7.49999 20.9978 7.49998ZM20.055 19.7454C20.1888 19.8926 20.2587 20.0869 20.2492 20.2856C20.2397 20.4843 20.1517 20.6712 20.0045 20.805C19.8574 20.9388 19.663 21.0086 19.4643 20.9992C19.2656 20.9897 19.0788 20.9017 18.945 20.7545L15 16.415V21C15 21.1404 14.9606 21.278 14.8863 21.3971C14.8119 21.5162 14.7057 21.612 14.5795 21.6737C14.4534 21.7354 14.3125 21.7605 14.1728 21.746C14.0332 21.7315 13.9004 21.6782 13.7896 21.592L7.24265 16.5H3C2.60231 16.4995 2.22105 16.3413 1.93984 16.0601C1.65864 15.7789 1.50045 15.3977 1.5 15V8.99998C1.50045 8.60229 1.65864 8.22103 1.93984 7.93982C2.22105 7.65862 2.60231 7.50043 3 7.49998H6.89543L3.94501 4.25452C3.81119 4.10733 3.74133 3.91301 3.75079 3.71431C3.76025 3.5156 3.84826 3.3288 3.99545 3.19498C4.14265 3.06117 4.33697 2.99131 4.53567 3.00077C4.73437 3.01023 4.92118 3.09824 5.05499 3.24543L20.055 19.7454ZM13.5 14.765L8.25906 8.99998H3V15H7.5C7.66678 15 7.8288 15.0556 7.96042 15.158L13.5 19.4665V14.765ZM10.9745 6.49766L13.5 4.53348V10.0152C13.5 10.2141 13.579 10.4049 13.7197 10.5455C13.8603 10.6862 14.0511 10.7652 14.25 10.7652C14.4489 10.7652 14.6397 10.6862 14.7803 10.5455C14.921 10.4049 15 10.2141 15 10.0152V2.99998C15 2.85958 14.9606 2.722 14.8863 2.60289C14.8119 2.48379 14.7057 2.38794 14.5795 2.32626C14.4534 2.26457 14.3125 2.23953 14.1728 2.25398C14.0332 2.26843 13.9004 2.3218 13.7896 2.408L10.0537 5.3137C9.89668 5.43581 9.79461 5.61529 9.76994 5.81265C9.74527 6.01001 9.80001 6.20909 9.92212 6.3661C10.0442 6.5231 10.2237 6.62516 10.4211 6.64984C10.6184 6.67451 10.8175 6.61977 10.9745 6.49766Z" fill="#1D1F21" style="fill: var(--ui-icon-primary-color);"/>
</svg>
