<svg  viewBox="0 0 24 24" fill="none" xmlns="http://www.w3.org/2000/svg" id="__THIS_ID_NEEDS_FOR_UI_ICON_COMPONENT__">
<path d="M23.2478 12.0014C23.2505 12.9868 23.0577 13.9628 22.6807 14.8731C22.3036 15.7835 21.7497 16.6099 21.051 17.3047C20.9103 17.4454 20.7196 17.5244 20.5207 17.5243C20.3218 17.5243 20.131 17.4453 19.9904 17.3046C19.8497 17.164 19.7707 16.9732 19.7707 16.7743C19.7708 16.5754 19.8498 16.3846 19.9905 16.244C20.5476 15.6868 20.9896 15.0254 21.2911 14.2975C21.5926 13.5695 21.7478 12.7893 21.7478 12.0014C21.7478 11.2135 21.5926 10.4333 21.2911 9.70531C20.9896 8.97737 20.5476 8.31594 19.9905 7.75879C19.9206 7.6892 19.8652 7.60651 19.8274 7.51548C19.7895 7.42445 19.77 7.32684 19.7699 7.22826C19.7699 7.12967 19.7892 7.03204 19.8269 6.94094C19.8646 6.84984 19.9199 6.76707 19.9896 6.69735C20.0593 6.62764 20.142 6.57235 20.2331 6.53465C20.3242 6.49695 20.4218 6.47758 20.5204 6.47764C20.619 6.47771 20.7166 6.49721 20.8077 6.53503C20.8987 6.57286 20.9814 6.62826 21.051 6.69807C21.7497 7.39287 22.3036 8.21936 22.6807 9.12969C23.0578 10.04 23.2505 11.0161 23.2478 12.0014ZM17.9978 12.0014C17.9986 12.297 17.9408 12.5898 17.8277 12.8629C17.7146 13.136 17.5484 13.3839 17.3388 13.5924C17.2691 13.662 17.2138 13.7447 17.176 13.8357C17.1383 13.9267 17.1188 14.0242 17.1188 14.1228C17.1187 14.2213 17.1381 14.3189 17.1758 14.4099C17.2135 14.5009 17.2687 14.5836 17.3384 14.6533C17.408 14.723 17.4908 14.7783 17.5818 14.816C17.6728 14.8537 17.7704 14.8731 17.8689 14.873C17.9674 14.873 18.065 14.8536 18.156 14.8158C18.247 14.7781 18.3297 14.7228 18.3994 14.6531C18.7476 14.3049 19.0238 13.8915 19.2123 13.4365C19.4008 12.9815 19.4978 12.4939 19.4978 12.0014C19.4978 11.509 19.4008 11.0213 19.2124 10.5663C19.0239 10.1113 18.7477 9.69794 18.3994 9.34971C18.2588 9.20905 18.068 9.13003 17.8691 9.13003C17.6702 9.13003 17.4794 9.20905 17.3387 9.34971C17.1981 9.49037 17.119 9.68115 17.119 9.88008C17.119 10.079 17.1981 10.2698 17.3387 10.4104C17.5483 10.6189 17.7145 10.8668 17.8276 11.1399C17.9408 11.413 17.9986 11.7058 17.9978 12.0014ZM20.055 19.7458C20.1888 19.893 20.2587 20.0873 20.2492 20.286C20.2397 20.4847 20.1517 20.6715 20.0045 20.8053C19.8574 20.9392 19.663 21.009 19.4643 20.9996C19.2656 20.9901 19.0788 20.9021 18.945 20.7549L15 16.4154V21.0014C15 21.1418 14.9606 21.2794 14.8863 21.3985C14.8119 21.5177 14.7057 21.6135 14.5795 21.6752C14.4534 21.7369 14.3125 21.7619 14.1728 21.7475C14.0332 21.733 13.9004 21.6796 13.7896 21.5934L7.24264 16.5014H3C2.60231 16.501 2.22105 16.3428 1.93984 16.0616C1.65864 15.7804 1.50045 15.3991 1.5 15.0014V9.00145C1.50045 8.60376 1.65864 8.2225 1.93984 7.94129C2.22105 7.66008 2.60231 7.5019 3 7.50145H6.89639L3.94501 4.25489C3.81119 4.1077 3.74133 3.91338 3.75079 3.71467C3.76025 3.51597 3.84826 3.32917 3.99545 3.19535C4.14265 3.06154 4.33697 2.99168 4.53567 3.00114C4.73437 3.0106 4.92118 3.0986 5.05499 3.2458L20.055 19.7458ZM3 15.0014H6.74945V9.00144H3V15.0014ZM13.5 14.7654L8.24945 8.98977V15.3843L13.5 19.4679V14.7654ZM10.9751 6.49867L13.5 4.53495V10.0156C13.5 10.2145 13.579 10.4053 13.7197 10.5459C13.8603 10.6866 14.0511 10.7656 14.25 10.7656C14.4489 10.7656 14.6397 10.6866 14.7803 10.5459C14.921 10.4053 15 10.2145 15 10.0156V3.00144C15 2.86105 14.9606 2.72346 14.8863 2.60436C14.8119 2.48525 14.7057 2.3894 14.5795 2.32772C14.4534 2.26604 14.3125 2.241 14.1728 2.25545C14.0332 2.2699 13.9004 2.32326 13.7896 2.40946L10.0542 5.31471C9.89723 5.43682 9.79516 5.6163 9.77049 5.81366C9.74582 6.01102 9.80056 6.2101 9.92267 6.3671C10.0448 6.52411 10.2243 6.62617 10.4216 6.65084C10.619 6.67552 10.8181 6.62078 10.9751 6.49867Z" fill="#1D1F21" style="fill: var(--ui-icon-primary-color);"/>
</svg>
