<svg  viewBox="0 0 24 24" fill="none" xmlns="http://www.w3.org/2000/svg" id="__THIS_ID_NEEDS_FOR_UI_ICON_COMPONENT__">
<path d="M14.5795 2.32581C14.4534 2.2641 14.3125 2.23904 14.1728 2.2535C14.0332 2.26795 13.9004 2.32133 13.7896 2.40756L7.24265 7.49954H3C2.60231 7.5 2.22105 7.65818 1.93984 7.93939C1.65864 8.22059 1.50045 8.60186 1.5 8.99954V14.9995C1.50045 15.3972 1.65864 15.7785 1.93984 16.0597C2.22105 16.3409 2.60231 16.4991 3 16.4995H7.24265L13.7896 21.5915C13.9004 21.6777 14.0332 21.7311 14.1728 21.7455C14.3125 21.76 14.4534 21.7349 14.5795 21.6733C14.7057 21.6116 14.8119 21.5157 14.8863 21.3966C14.9606 21.2775 15 21.1399 15 20.9995V2.99954C15 2.85914 14.9606 2.72155 14.8863 2.60245C14.8119 2.48334 14.7056 2.38749 14.5795 2.32581ZM3 8.99954H6.75V14.9995H3V8.99954ZM13.5 19.466L8.25 15.3828V8.6163L13.5 4.53305V19.466ZM19.4973 11.9995C19.4986 12.4922 19.4022 12.9802 19.2137 13.4354C19.0251 13.8906 18.7482 14.3038 18.3988 14.6512C18.2581 14.7918 18.0674 14.8708 17.8685 14.8708C17.6696 14.8708 17.4788 14.7918 17.3382 14.6511C17.1975 14.5104 17.1185 14.3197 17.1185 14.1208C17.1186 13.9218 17.1976 13.7311 17.3383 13.5905C17.5472 13.3815 17.7129 13.1335 17.826 12.8605C17.9391 12.5876 17.9973 12.295 17.9973 11.9995C17.9973 11.7041 17.9391 11.4115 17.826 11.1385C17.7129 10.8656 17.5472 10.6175 17.3383 10.4086C17.1976 10.268 17.1186 10.0772 17.1185 9.87833C17.1185 9.67942 17.1975 9.48865 17.3382 9.34799C17.4788 9.20733 17.6696 9.1283 17.8685 9.12828C18.0674 9.12826 18.2581 9.20726 18.3988 9.3479C18.7482 9.69529 19.0251 10.1085 19.2137 10.5637C19.4022 11.0188 19.4986 11.5069 19.4973 11.9995Z" fill="#1D1F21" style="fill: var(--ui-icon-primary-color);"/>
</svg>
