<svg  viewBox="0 0 24 24" fill="none" xmlns="http://www.w3.org/2000/svg" id="__THIS_ID_NEEDS_FOR_UI_ICON_COMPONENT__">
<path d="M14.5795 2.32581C14.4534 2.2641 14.3125 2.23904 14.1728 2.2535C14.0332 2.26795 13.9004 2.32133 13.7896 2.40756L7.24265 7.49954H3C2.60231 7.5 2.22105 7.65818 1.93984 7.93939C1.65864 8.22059 1.50045 8.60186 1.5 8.99954V14.9995C1.50045 15.3972 1.65864 15.7785 1.93984 16.0597C2.22105 16.3409 2.60231 16.4991 3 16.4995H7.24265L13.7896 21.5915C13.9004 21.6777 14.0332 21.7311 14.1728 21.7455C14.3125 21.76 14.4534 21.7349 14.5795 21.6733C14.7057 21.6116 14.8119 21.5157 14.8863 21.3966C14.9606 21.2775 15 21.1399 15 20.9995V2.99954C15 2.85914 14.9606 2.72155 14.8862 2.60245C14.8119 2.48334 14.7056 2.38749 14.5795 2.32581ZM13.5 19.466L7.96042 15.1576C7.8288 15.0551 7.66678 14.9995 7.5 14.9995H3V8.99954H7.5C7.66678 8.99956 7.8288 8.94395 7.96042 8.84152L13.5 4.53305V19.466ZM23.0304 13.7192C23.1 13.7888 23.1553 13.8715 23.193 13.9625C23.2306 14.0535 23.25 14.151 23.25 14.2495C23.25 14.348 23.2306 14.4456 23.193 14.5366C23.1553 14.6276 23.1 14.7103 23.0304 14.7799C22.9607 14.8496 22.878 14.9048 22.787 14.9425C22.696 14.9802 22.5985 14.9996 22.5 14.9996C22.4015 14.9996 22.304 14.9802 22.213 14.9425C22.122 14.9048 22.0393 14.8496 21.9696 14.7799L20.25 13.0603L18.5304 14.7799C18.3897 14.9206 18.1989 14.9996 18 14.9996C17.8011 14.9996 17.6103 14.9206 17.4696 14.7799C17.329 14.6392 17.25 14.4485 17.25 14.2495C17.25 14.0506 17.329 13.8598 17.4696 13.7192L19.1893 11.9995L17.4696 10.2799C17.329 10.1392 17.2499 9.94847 17.25 9.74954C17.25 9.55062 17.329 9.35984 17.4696 9.21918C17.6103 9.07852 17.8011 8.99949 18 8.99949C18.1989 8.99949 18.3897 9.07852 18.5304 9.21918L20.25 10.9388L21.9696 9.21918C22.1103 9.07852 22.3011 8.99949 22.5 8.99949C22.6989 8.99949 22.8897 9.07852 23.0304 9.21918C23.171 9.35984 23.25 9.55062 23.25 9.74954C23.25 9.94847 23.171 10.1392 23.0304 10.2799L21.3107 11.9995L23.0304 13.7192Z" fill="#1D1F21" style="fill: var(--ui-icon-primary-color);"/>
</svg>
