<svg  viewBox="0 0 24 24" fill="none" xmlns="http://www.w3.org/2000/svg" id="__THIS_ID_NEEDS_FOR_UI_ICON_COMPONENT__">
<path d="M14.2501 21.75C14.0833 21.75 13.9212 21.6944 13.7896 21.592L7.24265 16.5H3C2.60231 16.4995 2.22105 16.3413 1.93984 16.0601C1.65864 15.7789 1.50045 15.3977 1.5 15V8.99998C1.50045 8.60229 1.65864 8.22103 1.93984 7.93982C2.22105 7.65861 2.60231 7.50043 3 7.49998H7.24265L13.7896 2.408C13.9004 2.3218 14.0332 2.26843 14.1728 2.25398C14.3125 2.23953 14.4534 2.26457 14.5795 2.32626C14.7057 2.38794 14.8119 2.48379 14.8863 2.60289C14.9606 2.722 15 2.85958 15 2.99998V21C15 21.1989 14.921 21.3896 14.7804 21.5303C14.6397 21.6709 14.449 21.7499 14.2501 21.75ZM3 8.99998V15H7.5C7.66678 15 7.8288 15.0556 7.96042 15.158L13.5 19.4665V4.53349L7.96042 8.84196C7.8288 8.94439 7.66678 8.99999 7.5 8.99998H3Z" fill="#1D1F21" style="fill: var(--ui-icon-primary-color);"/>
</svg>
