<svg  viewBox="0 0 24 24" fill="none" xmlns="http://www.w3.org/2000/svg" id="__THIS_ID_NEEDS_FOR_UI_ICON_COMPONENT__">
<path d="M14.5795 2.32581C14.4534 2.2641 14.3125 2.23904 14.1728 2.2535C14.0332 2.26795 13.9004 2.32133 13.7896 2.40756L7.24265 7.49954H3C2.60231 7.5 2.22105 7.65818 1.93984 7.93939C1.65864 8.22059 1.50045 8.60186 1.5 8.99954V14.9995C1.50045 15.3972 1.65864 15.7785 1.93984 16.0597C2.22105 16.3409 2.60231 16.4991 3 16.4995H7.24265L13.7896 21.5915C13.9004 21.6777 14.0332 21.7311 14.1728 21.7455C14.3125 21.76 14.4534 21.7349 14.5795 21.6733C14.7057 21.6116 14.8119 21.5157 14.8863 21.3966C14.9606 21.2775 15 21.1399 15 20.9995V2.99954C15 2.85914 14.9606 2.72155 14.8862 2.60245C14.8119 2.48334 14.7056 2.38749 14.5795 2.32581ZM3 8.99954H6.75V14.9995H3V8.99954ZM13.5 19.466L8.25 15.3828V8.6163L13.5 4.53305V19.466Z" fill="#1D1F21" style="fill: var(--ui-icon-primary-color);"/>
</svg>
