<svg  viewBox="0 0 24 24" fill="none" xmlns="http://www.w3.org/2000/svg" id="__THIS_ID_NEEDS_FOR_UI_ICON_COMPONENT__">
<path d="M10.5 3.75H4.5C4.40151 3.75 4.30398 3.7694 4.21299 3.80709C4.12199 3.84478 4.03931 3.90002 3.96967 3.96967C3.90002 4.03931 3.84478 4.12199 3.80709 4.21299C3.7694 4.30398 3.75 4.40151 3.75 4.5V10.5C3.75 10.5985 3.7694 10.696 3.80709 10.787C3.84478 10.878 3.90002 10.9607 3.96967 11.0303C4.03931 11.1 4.12199 11.1552 4.21299 11.1929C4.30398 11.2306 4.40151 11.25 4.5 11.25H10.5C10.5985 11.25 10.696 11.2306 10.787 11.1929C10.878 11.1552 10.9607 11.1 11.0303 11.0303C11.1 10.9607 11.1552 10.878 11.1929 10.787C11.2306 10.696 11.25 10.5985 11.25 10.5V4.5C11.25 4.40151 11.2306 4.30398 11.1929 4.21299C11.1552 4.12199 11.1 4.03931 11.0303 3.96967C10.9607 3.90002 10.878 3.84478 10.787 3.80709C10.696 3.7694 10.5985 3.75 10.5 3.75ZM9.75 9.75H5.25V5.25H9.75V9.75ZM19.5 3.75H13.5C13.4015 3.75 13.304 3.7694 13.213 3.80709C13.122 3.84478 13.0393 3.90002 12.9697 3.96967C12.9 4.03931 12.8448 4.12199 12.8071 4.21299C12.7694 4.30398 12.75 4.40151 12.75 4.5V10.5C12.75 10.5985 12.7694 10.696 12.8071 10.787C12.8448 10.878 12.9 10.9607 12.9697 11.0303C13.0393 11.1 13.122 11.1552 13.213 11.1929C13.304 11.2306 13.4015 11.25 13.5 11.25H19.5C19.5985 11.25 19.696 11.2306 19.787 11.1929C19.878 11.1552 19.9607 11.1 20.0303 11.0303C20.1 10.9607 20.1552 10.878 20.1929 10.787C20.2306 10.696 20.25 10.5985 20.25 10.5V4.5C20.25 4.40151 20.2306 4.30398 20.1929 4.21299C20.1552 4.12199 20.1 4.03931 20.0303 3.96967C19.9607 3.90002 19.878 3.84478 19.787 3.80709C19.696 3.7694 19.5985 3.75 19.5 3.75ZM18.75 9.75H14.25V5.25H18.75V9.75ZM10.5 12.75H4.5C4.40151 12.75 4.30398 12.7694 4.21299 12.8071C4.12199 12.8448 4.03931 12.9 3.96967 12.9697C3.90002 13.0393 3.84478 13.122 3.80709 13.213C3.7694 13.304 3.75 13.4015 3.75 13.5V19.5C3.75 19.5985 3.76939 19.696 3.80708 19.787C3.84477 19.878 3.90002 19.9607 3.96966 20.0303C4.03931 20.1 4.12199 20.1552 4.21298 20.1929C4.30398 20.2306 4.40151 20.25 4.5 20.25H10.5C10.5985 20.25 10.696 20.2306 10.787 20.1929C10.878 20.1552 10.9607 20.1 11.0303 20.0303C11.1 19.9607 11.1552 19.878 11.1929 19.787C11.2306 19.696 11.25 19.5985 11.25 19.5V13.5C11.25 13.4015 11.2306 13.304 11.1929 13.213C11.1552 13.122 11.1 13.0393 11.0303 12.9697C10.9607 12.9 10.878 12.8448 10.787 12.8071C10.696 12.7694 10.5985 12.75 10.5 12.75ZM9.75 18.75H5.25V14.25H9.75V18.75ZM19.5 12.75H13.5C13.4015 12.75 13.304 12.7694 13.213 12.8071C13.122 12.8448 13.0393 12.9 12.9697 12.9697C12.9 13.0393 12.8448 13.122 12.8071 13.213C12.7694 13.304 12.75 13.4015 12.75 13.5V19.5C12.75 19.5985 12.7694 19.696 12.8071 19.787C12.8448 19.878 12.9 19.9607 12.9697 20.0303C13.0393 20.1 13.122 20.1552 13.213 20.1929C13.304 20.2306 13.4015 20.25 13.5 20.25H19.5C19.5985 20.25 19.696 20.2306 19.787 20.1929C19.878 20.1552 19.9607 20.1 20.0303 20.0303C20.1 19.9607 20.1552 19.878 20.1929 19.787C20.2306 19.696 20.25 19.5985 20.25 19.5V13.5C20.25 13.4015 20.2306 13.304 20.1929 13.213C20.1552 13.122 20.1 13.0393 20.0303 12.9697C19.9607 12.9 19.878 12.8448 19.787 12.8071C19.696 12.7694 19.5985 12.75 19.5 12.75ZM18.75 18.75H14.25V14.25H18.75V18.75Z" fill="#1D1F21" style="fill: var(--ui-icon-primary-color);"/>
</svg>
