<svg  viewBox="0 0 24 24" fill="none" xmlns="http://www.w3.org/2000/svg" id="__THIS_ID_NEEDS_FOR_UI_ICON_COMPONENT__">
<path d="M19.125 3.375H4.875C4.47731 3.37545 4.09605 3.53364 3.81484 3.81484C3.53364 4.09605 3.37545 4.47731 3.375 4.875V19.125C3.37545 19.5227 3.53364 19.904 3.81484 20.1852C4.09605 20.4664 4.47731 20.6245 4.875 20.625H19.125C19.5227 20.6245 19.904 20.4664 20.1852 20.1852C20.4664 19.904 20.6245 19.5227 20.625 19.125V4.875C20.6245 4.47731 20.4664 4.09605 20.1852 3.81484C19.904 3.53364 19.5227 3.37545 19.125 3.375ZM12.75 15.3112L16.5638 19.125H12.75V15.3112ZM12.75 4.875H12.8138L19.1254 11.1866L19.1256 14.3155L12.75 7.9399V4.875ZM19.1253 9.06518L14.9351 4.875H19.125L19.1253 9.06518ZM4.875 4.875H11.25V19.125H4.875V4.875ZM19.125 19.125H18.6851L12.75 13.1899V10.0612L19.1258 16.437L19.126 19.125L19.125 19.125Z" fill="#1D1F21" style="fill: var(--ui-icon-primary-color);"/>
</svg>
