<svg  viewBox="0 0 24 24" fill="none" xmlns="http://www.w3.org/2000/svg" id="__THIS_ID_NEEDS_FOR_UI_ICON_COMPONENT__">
<path d="M21.6478 16.1221C21.6975 16.2072 21.7299 16.3012 21.7431 16.3988C21.7564 16.4964 21.7504 16.5956 21.7253 16.6909C21.7003 16.7861 21.6567 16.8755 21.5971 16.9539C21.5375 17.0323 21.463 17.0982 21.3779 17.1478L12.3779 22.3978C12.2632 22.4647 12.1328 22.5 12 22.5C11.8672 22.5 11.7368 22.4647 11.6221 22.3978L2.62212 17.1478C2.53704 17.0982 2.46258 17.0323 2.40297 16.9539C2.34336 16.8755 2.29978 16.7861 2.27471 16.6909C2.24965 16.5956 2.24358 16.4964 2.25688 16.3988C2.27017 16.3012 2.30255 16.2072 2.35217 16.1221C2.4018 16.037 2.46769 15.9626 2.5461 15.903C2.6245 15.8434 2.71387 15.7998 2.80912 15.7747C2.90437 15.7496 3.00362 15.7436 3.10121 15.7569C3.19879 15.7702 3.29281 15.8025 3.37788 15.8522L12 20.8817L20.6221 15.8522C20.7071 15.8025 20.8012 15.7702 20.8988 15.7569C20.9964 15.7436 21.0956 15.7496 21.1909 15.7747C21.2861 15.7998 21.3755 15.8433 21.4539 15.903C21.5323 15.9626 21.5982 16.037 21.6478 16.1221ZM20.6221 11.3522L12 16.3817L3.37788 11.3522C3.29281 11.3025 3.19879 11.2702 3.10121 11.2569C3.00362 11.2436 2.90437 11.2496 2.80912 11.2747C2.71387 11.2998 2.6245 11.3434 2.5461 11.403C2.46769 11.4626 2.4018 11.537 2.35217 11.6221C2.30255 11.7072 2.27017 11.8012 2.25688 11.8988C2.24358 11.9964 2.24965 12.0956 2.27471 12.1909C2.29978 12.2861 2.34336 12.3755 2.40297 12.4539C2.46258 12.5323 2.53704 12.5982 2.62212 12.6478L11.6221 17.8978C11.7368 17.9647 11.8672 18 12 18C12.1328 18 12.2632 17.9647 12.3779 17.8978L21.3779 12.6478C21.5497 12.5476 21.6747 12.3832 21.7253 12.1908C21.7759 11.9985 21.7481 11.7939 21.6478 11.6221C21.5476 11.4503 21.3832 11.3253 21.1908 11.2747C20.9985 11.2241 20.7939 11.2519 20.6221 11.3522ZM2.25 7.5C2.25 7.36892 2.28436 7.24012 2.34965 7.12645C2.41494 7.01278 2.50888 6.91822 2.62212 6.85217L11.6221 1.60217C11.7368 1.53526 11.8672 1.5 12 1.5C12.1328 1.5 12.2632 1.53526 12.3779 1.60217L21.3779 6.85217C21.4911 6.91823 21.5851 7.0128 21.6504 7.12646C21.7156 7.24013 21.75 7.36892 21.75 7.5C21.75 7.63108 21.7156 7.75987 21.6504 7.87354C21.5851 7.9872 21.4911 8.08177 21.3779 8.14783L12.3779 13.3978C12.2632 13.4647 12.1328 13.5 12 13.5C11.8672 13.5 11.7368 13.4647 11.6221 13.3978L2.62212 8.14783C2.50888 8.08178 2.41494 7.98722 2.34965 7.87355C2.28436 7.75988 2.25 7.63108 2.25 7.5ZM4.48847 7.5L12 11.8817L19.5115 7.5L12 3.11829L4.48847 7.5Z" fill="#1D1F21" style="fill: var(--ui-icon-primary-color);"/>
</svg>
