<svg  viewBox="0 0 24 24" fill="none" xmlns="http://www.w3.org/2000/svg" id="__THIS_ID_NEEDS_FOR_UI_ICON_COMPONENT__">
<path d="M1.12798 10.4017L11.628 16.4017C11.7413 16.4664 11.8696 16.5004 12.0001 16.5004C12.1306 16.5004 12.2589 16.4664 12.3722 16.4017L22.8722 10.4017C22.987 10.336 23.0824 10.2413 23.1488 10.1269C23.2151 10.0125 23.2501 9.88266 23.2501 9.75044C23.2501 9.61822 23.2151 9.48835 23.1488 9.37399C23.0824 9.25962 22.987 9.16484 22.8722 9.09923L12.3722 3.09923C12.2589 3.03452 12.1306 3.00049 12.0001 3.00049C11.8696 3.00049 11.7413 3.03452 11.628 3.09923L1.12798 9.09923C1.01318 9.16484 0.917772 9.25962 0.85141 9.37399C0.785048 9.48835 0.750097 9.61822 0.750097 9.75044C0.750097 9.88266 0.785048 10.0125 0.85141 10.1269C0.917772 10.2413 1.01318 10.336 1.12798 10.4017ZM12.0001 4.61424L20.9884 9.75044L12.0001 14.8866L3.01177 9.75044L12.0001 4.61424ZM23.1513 13.1284C23.2499 13.3011 23.276 13.5059 23.2237 13.6978C23.1713 13.8897 23.0449 14.053 22.8722 14.1517L12.3722 20.1517C12.2589 20.2164 12.1306 20.2504 12.0001 20.2504C11.8696 20.2504 11.7413 20.2164 11.628 20.1517L1.12798 14.1517C0.955268 14.053 0.828834 13.8897 0.776493 13.6978C0.724152 13.5059 0.750191 13.301 0.848882 13.1283C0.947574 12.9556 1.11083 12.8292 1.30274 12.7768C1.49466 12.7245 1.6995 12.7505 1.87221 12.8492L12.0001 18.6366L22.128 12.8492C22.3007 12.7506 22.5055 12.7246 22.6974 12.7769C22.8893 12.8292 23.0526 12.9557 23.1513 13.1284Z" fill="#1D1F21" style="fill: var(--ui-icon-primary-color);"/>
</svg>
