<svg  viewBox="0 0 24 24" fill="none" xmlns="http://www.w3.org/2000/svg" id="__THIS_ID_NEEDS_FOR_UI_ICON_COMPONENT__">
<path d="M17.556 21.7484C17.2671 21.7481 16.9843 21.6656 16.7406 21.5104L12.0123 18.5147V18.5148C12.0088 18.5121 12.0045 18.5107 12.0001 18.5107C11.9958 18.5107 11.9915 18.5121 11.988 18.5148L7.59389 21.2986C7.31063 21.4794 6.97937 21.5705 6.64349 21.56C6.3076 21.5494 5.98272 21.4377 5.71138 21.2394C5.43049 21.036 5.21757 20.7525 5.10049 20.426C4.98342 20.0995 4.96764 19.7453 5.05522 19.4098L6.32213 14.426C6.32557 14.4136 6.32562 14.4005 6.32229 14.388C6.31896 14.3755 6.31236 14.3642 6.30318 14.3552L2.063 10.8261C1.82135 10.6253 1.64587 10.3563 1.5595 10.0542C1.47313 9.75217 1.47988 9.43108 1.57887 9.13291C1.67222 8.83881 1.85209 8.57971 2.095 8.38944C2.33791 8.19917 2.63255 8.08658 2.94044 8.06639L8.47774 7.70702C8.48508 7.70522 8.49181 7.7015 8.49724 7.69625C8.50268 7.691 8.50663 7.6844 8.50868 7.67713L10.5739 2.47642C10.6855 2.18886 10.8814 1.94174 11.1359 1.76749C11.3904 1.59324 11.6917 1.5 12.0001 1.5C12.3086 1.5 12.6098 1.59325 12.8644 1.76751C13.1189 1.94176 13.3148 2.18889 13.4263 2.47646L15.4916 7.67702C15.4936 7.6843 15.4976 7.69091 15.503 7.69618C15.5084 7.70145 15.5151 7.70519 15.5224 7.70702L21.0598 8.06638C21.3677 8.08658 21.6624 8.19917 21.9053 8.38944C22.1482 8.57971 22.3281 8.83881 22.4214 9.13291C22.5204 9.43107 22.5271 9.75217 22.4408 10.0542C22.3544 10.3563 22.1789 10.6253 21.9373 10.826L17.6972 14.3551C17.688 14.3642 17.6813 14.3755 17.678 14.388C17.6747 14.4005 17.6748 14.4136 17.6782 14.426L19.0443 19.8C19.1235 20.1039 19.1092 20.4246 19.0031 20.7202C18.897 21.0158 18.7041 21.2725 18.4498 21.4567C18.1902 21.6459 17.8773 21.7481 17.556 21.7484ZM12.0001 17.0124C12.2886 17.012 12.5712 17.0936 12.815 17.2476V17.2476L17.5434 20.2433C17.5476 20.2463 17.5522 20.2486 17.557 20.2502C17.5685 20.2444 17.5784 20.2358 17.5857 20.2252C17.5909 20.217 17.5941 20.2077 17.595 20.198C17.5958 20.1883 17.5943 20.1785 17.5906 20.1695L16.2245 14.7956C16.1517 14.5086 16.1613 14.2069 16.252 13.9251C16.3428 13.6433 16.5111 13.3928 16.7376 13.2022L20.9776 9.67314C20.989 9.66458 20.9971 9.65225 21.0003 9.63835C21.0035 9.62444 21.0016 9.60985 20.9951 9.59716C20.9845 9.56465 20.9734 9.56393 20.9626 9.56323L15.4253 9.20386C15.1348 9.18311 14.856 9.08075 14.6211 8.90855C14.3862 8.73636 14.2047 8.50133 14.0974 8.23052L12.0322 3.03004C12.0203 3 12.0127 3 12.0001 3C11.9876 3 11.98 3 11.9681 3.03001L9.90285 8.23064C9.79558 8.50143 9.61403 8.73644 9.3791 8.90861C9.14417 9.08078 8.86541 9.18313 8.57488 9.20387L3.03768 9.56323C3.02687 9.56393 3.0158 9.56465 3.00518 9.59716C2.99865 9.60986 2.99683 9.62445 3.00003 9.63836C3.00323 9.65226 3.01125 9.66459 3.02266 9.67315L7.26274 13.2022C7.48926 13.3928 7.65753 13.6433 7.74828 13.9251C7.83903 14.2069 7.8486 14.5085 7.7759 14.7955L6.5089 19.7793C6.49471 19.8238 6.49512 19.8717 6.51008 19.9159C6.52504 19.9601 6.55375 19.9984 6.59203 20.0252C6.61966 20.0484 6.65433 20.0617 6.69043 20.0629C6.72654 20.064 6.76199 20.053 6.79106 20.0316L11.1852 17.2476C11.4291 17.0936 11.7117 17.012 12.0001 17.0124Z" fill="#1D1F21" style="fill: var(--ui-icon-primary-color);"/>
</svg>
