<svg  viewBox="0 0 24 24" fill="none" xmlns="http://www.w3.org/2000/svg" id="__THIS_ID_NEEDS_FOR_UI_ICON_COMPONENT__">
<path d="M20.9912 12.8587C20.9968 12.8227 20.9997 12.7864 21 12.75V8.25C20.9984 6.85809 20.4448 5.52364 19.4606 4.53941C18.4764 3.55519 17.1419 3.00156 15.75 3H8.25C6.85809 3.00156 5.52364 3.55519 4.53941 4.53941C3.55519 5.52364 3.00156 6.85809 3 8.25V15.75C3.00156 17.1419 3.55519 18.4764 4.53941 19.4606C5.52364 20.4448 6.85809 20.9984 8.25 21H12.75C12.7864 20.9997 12.8227 20.9968 12.8587 20.9913C12.8655 20.9902 12.8722 20.9893 12.879 20.9881C12.9144 20.9821 12.9492 20.9735 12.9834 20.9625C12.9846 20.9621 12.9859 20.962 12.9872 20.9615C15.4465 20.1417 20.1417 15.4465 20.9615 12.9872C20.962 12.9859 20.9621 12.9846 20.9625 12.9834C20.9735 12.9492 20.9821 12.9144 20.9881 12.879C20.9893 12.8722 20.9902 12.8655 20.9912 12.8587ZM4.5 15.75V8.25C4.50114 7.25579 4.89659 6.30262 5.59961 5.59961C6.30262 4.89659 7.25579 4.50114 8.25 4.5H15.75C16.7442 4.50114 17.6974 4.89659 18.4004 5.59961C19.1034 6.30262 19.4989 7.25579 19.5 8.25V12H17.25C15.8581 12.0016 14.5236 12.5552 13.5394 13.5394C12.5552 14.5236 12.0016 15.8581 12 17.25V19.5H8.25C7.25579 19.4989 6.30262 19.1034 5.59961 18.4004C4.89659 17.6974 4.50114 16.7442 4.5 15.75ZM13.5 19.0442V17.25C13.5011 16.2558 13.8966 15.3026 14.5996 14.5996C15.3026 13.8966 16.2558 13.5011 17.25 13.5H19.0442C17.9038 15.3285 15.3285 17.9038 13.5 19.0442Z" fill="#1D1F21" style="fill: var(--ui-icon-primary-color);"/>
</svg>
