<svg  viewBox="0 0 24 24" fill="none" xmlns="http://www.w3.org/2000/svg" id="__THIS_ID_NEEDS_FOR_UI_ICON_COMPONENT__">
<path d="M11.9999 2.25C10.0716 2.25 8.18651 2.82183 6.58313 3.89317C4.97975 4.96451 3.73007 6.48726 2.99212 8.26884C2.25416 10.0504 2.06108 12.0108 2.43729 13.9021C2.81349 15.7934 3.74209 17.5307 5.10565 18.8943C6.46921 20.2579 8.2065 21.1865 10.0978 21.5627C11.9891 21.9389 13.9495 21.7458 15.7311 21.0078C17.5127 20.2699 19.0354 19.0202 20.1068 17.4168C21.1781 15.8134 21.7499 13.9284 21.7499 12C21.747 9.41504 20.7188 6.93679 18.891 5.10894C17.0632 3.28109 14.5849 2.25293 11.9999 2.25ZM11.9999 20.25C10.3682 20.25 8.77319 19.7661 7.41649 18.8596C6.05978 17.9531 5.00236 16.6646 4.37794 15.1571C3.75351 13.6496 3.59014 11.9908 3.90846 10.3905C4.22679 8.79016 5.01253 7.32015 6.16631 6.16637C7.3201 5.01259 8.7901 4.22685 10.3904 3.90852C11.9908 3.59019 13.6496 3.75357 15.1571 4.37799C16.6646 5.00242 17.953 6.05984 18.8596 7.41655C19.7661 8.77325 20.2499 10.3683 20.2499 12C20.2475 14.1873 19.3775 16.2843 17.8308 17.8309C16.2842 19.3775 14.1872 20.2475 11.9999 20.25ZM14.2499 9H9.74994C9.55103 9 9.36027 9.07902 9.21962 9.21967C9.07896 9.36032 8.99995 9.55109 8.99994 9.75V14.25C8.99995 14.4489 9.07896 14.6397 9.21962 14.7803C9.36027 14.921 9.55103 15 9.74994 15H14.2499C14.4489 15 14.6396 14.921 14.7803 14.7803C14.9209 14.6397 14.9999 14.4489 14.9999 14.25V9.75C14.9999 9.55109 14.9209 9.36032 14.7803 9.21967C14.6396 9.07902 14.4489 9 14.2499 9ZM13.4999 13.5H10.4999V10.5H13.4999V13.5Z" fill="#1D1F21" style="fill: var(--ui-icon-primary-color);"/>
</svg>
