<svg  viewBox="0 0 24 24" fill="none" xmlns="http://www.w3.org/2000/svg" id="__THIS_ID_NEEDS_FOR_UI_ICON_COMPONENT__">
<path d="M12 5.625C10.7391 5.625 9.5066 5.99889 8.45824 6.69938C7.40988 7.39988 6.59278 8.39551 6.11027 9.56039C5.62776 10.7253 5.50151 12.0071 5.74749 13.2437C5.99347 14.4803 6.60063 15.6162 7.49219 16.5078C8.38375 17.3994 9.51967 18.0065 10.7563 18.2525C11.9929 18.4985 13.2747 18.3722 14.4396 17.8897C15.6045 17.4072 16.6001 16.5901 17.3006 15.5418C18.0011 14.4934 18.375 13.2609 18.375 12C18.3731 10.3098 17.7008 8.68944 16.5057 7.49431C15.3106 6.29918 13.6902 5.62691 12 5.625ZM12 16.875C11.0358 16.875 10.0933 16.5891 9.2916 16.0534C8.48991 15.5177 7.86506 14.7564 7.49609 13.8656C7.12711 12.9748 7.03057 11.9946 7.21867 11.0489C7.40677 10.1033 7.87107 9.23464 8.55285 8.55285C9.23464 7.87107 10.1033 7.40677 11.0489 7.21867C11.9946 7.03057 12.9748 7.12711 13.8656 7.49609C14.7564 7.86506 15.5177 8.48991 16.0534 9.2916C16.5891 10.0933 16.875 11.0358 16.875 12C16.8735 13.2925 16.3595 14.5316 15.4455 15.4455C14.5316 16.3595 13.2925 16.8735 12 16.875ZM11.25 3.375V2.625C11.25 2.42609 11.329 2.23532 11.4697 2.09467C11.6103 1.95402 11.8011 1.875 12 1.875C12.1989 1.875 12.3897 1.95402 12.5303 2.09467C12.671 2.23532 12.75 2.42609 12.75 2.625V3.375C12.75 3.57391 12.671 3.76468 12.5303 3.90533C12.3897 4.04598 12.1989 4.125 12 4.125C11.8011 4.125 11.6103 4.04598 11.4697 3.90533C11.329 3.76468 11.25 3.57391 11.25 3.375ZM4.84058 5.90119C4.77076 5.83158 4.71535 5.7489 4.67752 5.65786C4.63969 5.56682 4.62018 5.46922 4.62011 5.37063C4.62003 5.27205 4.63939 5.17441 4.67709 5.08332C4.71478 4.99222 4.77006 4.90945 4.83977 4.83974C4.90948 4.77003 4.99225 4.71475 5.08335 4.67706C5.17444 4.63937 5.27208 4.62 5.37066 4.62008C5.46925 4.62016 5.56685 4.63967 5.65789 4.6775C5.74892 4.71533 5.83161 4.77074 5.90121 4.84055L6.43153 5.3709C6.5719 5.51161 6.65067 5.70229 6.65054 5.90104C6.65041 6.09979 6.5714 6.29037 6.43086 6.43091C6.29032 6.57144 6.09974 6.65045 5.90098 6.65056C5.70223 6.65068 5.51156 6.5719 5.37085 6.43153L4.84058 5.90119ZM4.125 12C4.125 12.0985 4.1056 12.196 4.06791 12.287C4.03022 12.378 3.97498 12.4607 3.90533 12.5303C3.83569 12.6 3.75301 12.6552 3.66201 12.6929C3.57102 12.7306 3.47349 12.75 3.375 12.75H2.625C2.42609 12.75 2.23532 12.671 2.09467 12.5303C1.95402 12.3897 1.875 12.1989 1.875 12C1.875 11.8011 1.95402 11.6103 2.09467 11.4697C2.23532 11.329 2.42609 11.25 2.625 11.25H3.375C3.47349 11.25 3.57102 11.2694 3.66201 11.3071C3.75301 11.3448 3.83569 11.4 3.90533 11.4697C3.97498 11.5393 4.03022 11.622 4.06791 11.713C4.1056 11.804 4.125 11.9015 4.125 12ZM6.43153 17.5685C6.50118 17.6381 6.55643 17.7208 6.59413 17.8118C6.63182 17.9028 6.65122 18.0003 6.65122 18.0988C6.65122 18.1973 6.63182 18.2948 6.59413 18.3858C6.55643 18.4768 6.50118 18.5595 6.43153 18.6291L5.90121 19.1594C5.76053 19.2999 5.56982 19.3788 5.37099 19.3788C5.17216 19.3787 4.9815 19.2997 4.84091 19.1591C4.70031 19.0185 4.6213 18.8278 4.62124 18.629C4.62118 18.4302 4.70007 18.2395 4.84057 18.0988L5.37089 17.5685C5.51154 17.4278 5.7023 17.3488 5.90121 17.3488C6.10012 17.3488 6.29088 17.4278 6.43153 17.5685ZM12.75 20.625V21.375C12.75 21.5739 12.671 21.7647 12.5303 21.9053C12.3897 22.046 12.1989 22.125 12 22.125C11.8011 22.125 11.6103 22.046 11.4697 21.9053C11.329 21.7647 11.25 21.5739 11.25 21.375V20.625C11.25 20.4261 11.329 20.2353 11.4697 20.0947C11.6103 19.954 11.8011 19.875 12 19.875C12.1989 19.875 12.3897 19.954 12.5303 20.0947C12.671 20.2353 12.75 20.4261 12.75 20.625ZM19.1594 18.0988C19.2291 18.1684 19.2844 18.2511 19.3222 18.3421C19.3599 18.4331 19.3794 18.5307 19.3794 18.6292C19.3795 18.7277 19.3601 18.8253 19.3224 18.9163C19.2847 19.0074 19.2294 19.0901 19.1598 19.1598C19.0901 19.2294 19.0074 19.2847 18.9163 19.3224C18.8253 19.3601 18.7277 19.3795 18.6292 19.3794C18.5307 19.3794 18.4331 19.3599 18.3421 19.3222C18.2511 19.2844 18.1684 19.2291 18.0988 19.1594L17.5685 18.6291C17.4282 18.4884 17.3496 18.2977 17.3497 18.0991C17.3499 17.9004 17.4289 17.7099 17.5694 17.5694C17.7099 17.4289 17.9004 17.3499 18.0991 17.3497C18.2977 17.3496 18.4884 17.4282 18.6291 17.5685L19.1594 18.0988ZM22.125 12C22.125 12.0985 22.1056 12.196 22.0679 12.287C22.0302 12.378 21.975 12.4607 21.9053 12.5303C21.8357 12.6 21.753 12.6552 21.662 12.6929C21.571 12.7306 21.4735 12.75 21.375 12.75H20.625C20.4261 12.75 20.2353 12.671 20.0947 12.5303C19.954 12.3897 19.875 12.1989 19.875 12C19.875 11.8011 19.954 11.6103 20.0947 11.4697C20.2353 11.329 20.4261 11.25 20.625 11.25H21.375C21.4735 11.25 21.571 11.2694 21.662 11.3071C21.753 11.3448 21.8357 11.4 21.9053 11.4697C21.975 11.5393 22.0302 11.622 22.0679 11.713C22.1056 11.804 22.125 11.9015 22.125 12ZM17.5685 6.43156C17.4988 6.36191 17.4436 6.27923 17.4059 6.18824C17.3682 6.09725 17.3488 5.99972 17.3488 5.90123C17.3488 5.80273 17.3682 5.70521 17.4059 5.61421C17.4436 5.52322 17.4988 5.44054 17.5685 5.3709L18.0988 4.84055C18.1684 4.7707 18.2511 4.71527 18.3421 4.67741C18.4332 4.63956 18.5308 4.62003 18.6294 4.61994C18.728 4.61985 18.8256 4.63921 18.9167 4.6769C19.0079 4.71459 19.0907 4.76988 19.1604 4.8396C19.2301 4.90932 19.2854 4.99211 19.3231 5.08322C19.3608 5.17434 19.3801 5.27199 19.38 5.37059C19.38 5.46919 19.3604 5.56681 19.3226 5.65786C19.2847 5.7489 19.2293 5.83159 19.1594 5.90119L18.6292 6.43153C18.4885 6.57219 18.2977 6.65121 18.0988 6.65121C17.8999 6.65122 17.7091 6.5722 17.5685 6.43155L17.5685 6.43156Z" fill="#1D1F21" style="fill: var(--ui-icon-primary-color);"/>
</svg>
