<svg  viewBox="0 0 24 24" fill="none" xmlns="http://www.w3.org/2000/svg" id="__THIS_ID_NEEDS_FOR_UI_ICON_COMPONENT__">
<path d="M12 5.625C10.7391 5.625 9.5066 5.99889 8.45824 6.69938C7.40988 7.39988 6.59278 8.39551 6.11027 9.56039C5.62776 10.7253 5.50151 12.0071 5.74749 13.2437C5.99347 14.4803 6.60063 15.6162 7.49219 16.5078C8.38375 17.3994 9.51967 18.0065 10.7563 18.2525C11.9929 18.4985 13.2747 18.3722 14.4396 17.8897C15.6045 17.4072 16.6001 16.5901 17.3006 15.5418C18.0011 14.4934 18.375 13.2609 18.375 12C18.3731 10.3098 17.7008 8.68944 16.5057 7.49431C15.3106 6.29918 13.6902 5.62692 12 5.625ZM12 16.875C11.0358 16.875 10.0933 16.5891 9.2916 16.0534C8.48991 15.5177 7.86506 14.7564 7.49609 13.8656C7.12711 12.9748 7.03057 11.9946 7.21867 11.0489C7.40677 10.1033 7.87107 9.23464 8.55285 8.55285C9.23464 7.87107 10.1033 7.40677 11.0489 7.21867C11.9946 7.03057 12.9748 7.12711 13.8656 7.49609C14.7564 7.86506 15.5177 8.48991 16.0534 9.2916C16.5891 10.0933 16.875 11.0358 16.875 12C16.8735 13.2925 16.3595 14.5316 15.4455 15.4455C14.5316 16.3595 13.2925 16.8735 12 16.875ZM11.25 3.375V1.5C11.25 1.30109 11.329 1.11032 11.4697 0.96967C11.6103 0.829018 11.8011 0.75 12 0.75C12.1989 0.75 12.3897 0.829018 12.5303 0.96967C12.671 1.11032 12.75 1.30109 12.75 1.5V3.375C12.75 3.57391 12.671 3.76468 12.5303 3.90533C12.3897 4.04598 12.1989 4.125 12 4.125C11.8011 4.125 11.6103 4.04598 11.4697 3.90533C11.329 3.76468 11.25 3.57391 11.25 3.375ZM4.04507 5.10571C3.97536 5.03609 3.92005 4.95341 3.8823 4.86239C3.84455 4.77138 3.82511 4.67383 3.82508 4.5753C3.82505 4.47677 3.84443 4.3792 3.88212 4.28816C3.91981 4.19713 3.97507 4.11441 4.04474 4.04474C4.11441 3.97507 4.19713 3.91981 4.28816 3.88212C4.3792 3.84443 4.47677 3.82505 4.5753 3.82508C4.67383 3.82511 4.77138 3.84455 4.86239 3.8823C4.95341 3.92005 5.03609 3.97536 5.10571 4.04507L6.43153 5.3709C6.50145 5.44048 6.55695 5.52317 6.59486 5.61423C6.63277 5.7053 6.65235 5.80294 6.65246 5.90158C6.65258 6.00022 6.63324 6.09792 6.59555 6.18907C6.55785 6.28023 6.50255 6.36305 6.4328 6.4328C6.36305 6.50255 6.28023 6.55785 6.18907 6.59555C6.09792 6.63324 6.00022 6.65258 5.90158 6.65246C5.80294 6.65235 5.7053 6.63277 5.61423 6.59486C5.52317 6.55695 5.44048 6.50145 5.3709 6.43153L4.04507 5.10571ZM3.375 12.75H1.5C1.30109 12.75 1.11032 12.671 0.96967 12.5303C0.829018 12.3897 0.75 12.1989 0.75 12C0.75 11.8011 0.829018 11.6103 0.96967 11.4697C1.11032 11.329 1.30109 11.25 1.5 11.25H3.375C3.57391 11.25 3.76468 11.329 3.90533 11.4697C4.04598 11.6103 4.125 11.8011 4.125 12C4.125 12.1989 4.04598 12.3897 3.90533 12.5303C3.76468 12.671 3.57391 12.75 3.375 12.75ZM6.43153 17.5684C6.50118 17.6381 6.55643 17.7207 6.59413 17.8117C6.63182 17.9027 6.65122 18.0003 6.65122 18.0988C6.65122 18.1973 6.63182 18.2948 6.59413 18.3858C6.55643 18.4768 6.50118 18.5595 6.43153 18.6291L5.10571 19.9549C5.03609 20.0246 4.95341 20.08 4.86239 20.1177C4.77138 20.1554 4.67383 20.1749 4.5753 20.1749C4.47677 20.175 4.3792 20.1556 4.28816 20.1179C4.19713 20.0802 4.11441 20.0249 4.04474 19.9553C3.97507 19.8856 3.91981 19.8029 3.88212 19.7118C3.84443 19.6208 3.82505 19.5232 3.82508 19.4247C3.82511 19.3262 3.84455 19.2286 3.8823 19.1376C3.92005 19.0466 3.97536 18.9639 4.04507 18.8943L5.3709 17.5685C5.44053 17.4988 5.52321 17.4436 5.6142 17.4059C5.70519 17.3682 5.80271 17.3488 5.9012 17.3488C5.99969 17.3488 6.09722 17.3682 6.18821 17.4058C6.27921 17.4435 6.36189 17.4988 6.43153 17.5684ZM12.75 20.625V22.5C12.75 22.6989 12.671 22.8897 12.5303 23.0303C12.3897 23.171 12.1989 23.25 12 23.25C11.8011 23.25 11.6103 23.171 11.4697 23.0303C11.329 22.8897 11.25 22.6989 11.25 22.5V20.625C11.25 20.4261 11.329 20.2353 11.4697 20.0947C11.6103 19.954 11.8011 19.875 12 19.875C12.1989 19.875 12.3897 19.954 12.5303 20.0947C12.671 20.2353 12.75 20.4261 12.75 20.625ZM19.9549 18.8943C20.0246 18.9639 20.08 19.0466 20.1177 19.1376C20.1554 19.2286 20.1749 19.3262 20.1749 19.4247C20.175 19.5232 20.1556 19.6208 20.1179 19.7118C20.0802 19.8029 20.0249 19.8856 19.9553 19.9553C19.8856 20.0249 19.8029 20.0802 19.7118 20.1179C19.6208 20.1556 19.5232 20.175 19.4247 20.1749C19.3262 20.1749 19.2286 20.1554 19.1376 20.1177C19.0466 20.08 18.9639 20.0246 18.8943 19.9549L17.5685 18.6291C17.4986 18.5595 17.4431 18.4768 17.4051 18.3858C17.3672 18.2947 17.3477 18.1971 17.3475 18.0984C17.3474 17.9998 17.3668 17.9021 17.4045 17.8109C17.4421 17.7198 17.4975 17.637 17.5672 17.5672C17.637 17.4975 17.7198 17.4421 17.8109 17.4045C17.9021 17.3668 17.9998 17.3474 18.0984 17.3475C18.1971 17.3477 18.2947 17.3672 18.3858 17.4051C18.4768 17.4431 18.5595 17.4986 18.6291 17.5685L19.9549 18.8943ZM23.25 12C23.25 12.1989 23.171 12.3897 23.0303 12.5303C22.8897 12.671 22.6989 12.75 22.5 12.75H20.625C20.4261 12.75 20.2353 12.671 20.0947 12.5303C19.954 12.3897 19.875 12.1989 19.875 12C19.875 11.8011 19.954 11.6103 20.0947 11.4697C20.2353 11.329 20.4261 11.25 20.625 11.25H22.5C22.6989 11.25 22.8897 11.329 23.0303 11.4697C23.171 11.6103 23.25 11.8011 23.25 12ZM17.5685 6.43158C17.4988 6.36194 17.4436 6.27926 17.4059 6.18826C17.3682 6.09726 17.3488 5.99973 17.3488 5.90124C17.3488 5.80274 17.3682 5.70521 17.4059 5.61421C17.4436 5.52322 17.4988 5.44054 17.5685 5.37089L18.8943 4.04507C18.9639 3.97536 19.0466 3.92005 19.1376 3.8823C19.2286 3.84455 19.3262 3.8251 19.4247 3.82507C19.5232 3.82504 19.6208 3.84443 19.7118 3.88212C19.8029 3.91981 19.8856 3.97507 19.9553 4.04474C20.0249 4.11441 20.0802 4.19713 20.1179 4.28816C20.1556 4.37919 20.175 4.47676 20.1749 4.57529C20.1749 4.67382 20.1555 4.77138 20.1177 4.86239C20.08 4.9534 20.0246 5.03608 19.9549 5.10571L18.6291 6.43153C18.4885 6.57218 18.2977 6.6512 18.0988 6.65121C17.8999 6.65122 17.7091 6.57222 17.5685 6.43158L17.5685 6.43158Z" fill="#1D1F21" style="fill: var(--ui-icon-primary-color);"/>
</svg>
