<svg  viewBox="0 0 24 24" fill="none" xmlns="http://www.w3.org/2000/svg" id="__THIS_ID_NEEDS_FOR_UI_ICON_COMPONENT__">
<path d="M6.74992 17.9995C6.52741 17.9995 6.3099 17.9336 6.1249 17.8099C5.93989 17.6863 5.7957 17.5106 5.71055 17.3051C5.6254 17.0995 5.60312 16.8733 5.64653 16.6551C5.68994 16.4368 5.79709 16.2364 5.95442 16.079C6.11175 15.9217 6.31221 15.8146 6.53044 15.7712C6.74867 15.7277 6.97487 15.75 7.18043 15.8352C7.386 15.9203 7.5617 16.0645 7.68532 16.2495C7.80894 16.4345 7.87492 16.652 7.87492 16.8745C7.87458 17.1728 7.75595 17.4588 7.54504 17.6697C7.33414 17.8806 7.04818 17.9992 6.74992 17.9995ZM21.3749 15.4006V19.4995C21.3745 19.8972 21.2163 20.2785 20.9351 20.5597C20.6539 20.8409 20.2726 20.9991 19.8749 20.9995H6.74992C6.74804 20.9995 6.74621 20.9993 6.74433 20.9993H6.74401C6.0934 20.9994 5.45229 20.8432 4.87469 20.5437C4.2971 20.2442 3.79995 19.8103 3.42513 19.2785C3.09969 18.8218 2.86798 18.305 2.74338 17.7582C2.61877 17.2114 2.60375 16.6453 2.69916 16.0926L4.9667 3.23263C5.0009 3.03863 5.07298 2.85328 5.17883 2.68714C5.28467 2.521 5.42221 2.37735 5.58358 2.26437C5.74495 2.15139 5.92699 2.07131 6.11931 2.02869C6.31164 1.98607 6.51047 1.98175 6.70446 2.01598L11.8746 2.92748C12.2664 2.99658 12.6147 3.21848 12.8429 3.54437C13.0711 3.87027 13.1605 4.27346 13.0914 4.66525L12.0529 10.5547L17.6725 8.50927C18.0464 8.37364 18.4588 8.39188 18.8192 8.55996C19.1797 8.72805 19.4587 9.03226 19.5951 9.40585L21.3907 14.3392C21.5157 14.6829 21.5101 15.0607 21.3749 15.4006ZM11.7521 12.2604L10.8122 17.5908C10.7723 17.8163 10.7133 18.038 10.6361 18.2535L19.9812 14.8522L18.1855 9.91882L11.7521 12.2604ZM6.34484 19.4681C7.02342 19.5707 7.71527 19.4048 8.27355 19.0057C8.83183 18.6065 9.2126 18.0056 9.33504 17.3303L11.6142 4.40469L6.44395 3.49319L4.17637 16.3531C4.1151 16.7094 4.12501 17.0743 4.20555 17.4268C4.28608 17.7792 4.43564 18.1122 4.64558 18.4065C4.84325 18.6883 5.09554 18.9274 5.38744 19.1098C5.67935 19.2922 6.00493 19.414 6.34484 19.4681ZM19.8749 19.4995V16.4872L11.5985 19.4995H19.8749Z" fill="#1D1F21" style="fill: var(--ui-icon-primary-color);"/>
</svg>
