<svg  viewBox="0 0 24 24" fill="none" xmlns="http://www.w3.org/2000/svg" id="__THIS_ID_NEEDS_FOR_UI_ICON_COMPONENT__">
<path d="M20.7804 3.21968C20.6397 3.07904 20.4489 3.00002 20.25 3H20.2476L14.2665 3.01886C14.1564 3.01921 14.0477 3.04379 13.9482 3.09085C13.8487 3.13792 13.7607 3.20631 13.6906 3.29119L7.09097 11.2803L6.31065 10.4999C6.02907 10.2191 5.64762 10.0614 5.24995 10.0614C4.85228 10.0614 4.47084 10.2192 4.18929 10.5L3.00011 11.6893C2.86079 11.8285 2.75028 11.9939 2.67488 12.1759C2.59948 12.3579 2.56066 12.5529 2.56065 12.7499C2.56065 12.9469 2.59944 13.142 2.67483 13.324C2.75021 13.506 2.86071 13.6714 3.00001 13.8106L4.95814 15.7689L2.15114 18.5759C1.87027 18.8574 1.71254 19.2388 1.71255 19.6365C1.71257 20.0342 1.87033 20.4156 2.15123 20.6971L3.30287 21.8488C3.44216 21.9881 3.60752 22.0986 3.78952 22.174C3.97151 22.2493 4.16657 22.2881 4.36356 22.2881C4.56055 22.2881 4.75561 22.2493 4.9376 22.174C5.11959 22.0986 5.28495 21.9881 5.42424 21.8488L8.23116 19.0418L10.1894 21.0001C10.471 21.2809 10.8524 21.4386 11.2501 21.4385C11.6477 21.4385 12.0292 21.2808 12.3107 21L13.4999 19.8107C13.6392 19.6715 13.7497 19.5061 13.8252 19.3241C13.9006 19.1421 13.9394 18.9471 13.9394 18.7501C13.9394 18.5531 13.9006 18.358 13.8252 18.176C13.7498 17.994 13.6393 17.8286 13.5 17.6894L12.7197 16.9091L20.7088 10.3094C20.7937 10.2393 20.8621 10.1513 20.9091 10.0518C20.9562 9.95228 20.9808 9.84361 20.9812 9.73352L21 3.75238C21.0003 3.65349 20.9811 3.55552 20.9434 3.4641C20.9057 3.37268 20.8503 3.28961 20.7804 3.21968ZM11.25 19.9394L9.29189 17.9811C9.1526 17.8418 8.98723 17.7313 8.80524 17.656C8.62325 17.5806 8.42819 17.5418 8.2312 17.5418C8.03421 17.5418 7.83915 17.5806 7.65716 17.656C7.47517 17.7313 7.30981 17.8418 7.17052 17.9811L4.36351 20.7881L3.21187 19.6365L6.01887 16.8295C6.29974 16.548 6.45747 16.1665 6.45747 15.7689C6.45747 15.3712 6.29974 14.9898 6.01887 14.7082L4.06074 12.75L5.25001 11.5606L6.60954 12.9202L6.60965 12.9203L8.84443 15.1551L8.84465 15.1554L8.84489 15.1555L12.4393 18.75L11.25 19.9394ZM19.4823 9.37702L11.6543 15.8436L10.4357 14.625L15.5304 9.53036C15.671 9.3897 15.7501 9.19893 15.7501 9C15.7501 8.80107 15.671 8.6103 15.5304 8.46964C15.3897 8.32897 15.1989 8.24995 15 8.24995C14.8011 8.24995 14.6103 8.32897 14.4696 8.46964L9.37501 13.5643L8.15645 12.3457L14.623 4.51772L19.4976 4.50238L19.4823 9.37702Z" fill="#1D1F21" style="fill: var(--ui-icon-primary-color);"/>
</svg>
