<svg  viewBox="0 0 24 24" fill="none" xmlns="http://www.w3.org/2000/svg" id="__THIS_ID_NEEDS_FOR_UI_ICON_COMPONENT__">
<path d="M21 4.5H3C2.90151 4.5 2.80398 4.51939 2.71298 4.55708C2.62199 4.59477 2.53931 4.65002 2.46966 4.71966C2.40002 4.78931 2.34477 4.87199 2.30708 4.96298C2.26939 5.05398 2.25 5.15151 2.25 5.25V18C2.25045 18.3977 2.40864 18.779 2.68984 19.0602C2.97105 19.3414 3.35231 19.4995 3.75 19.5H20.25C20.6477 19.4995 21.029 19.3414 21.3102 19.0602C21.5914 18.779 21.7495 18.3977 21.75 18V5.25C21.75 5.15151 21.7306 5.05398 21.6929 4.96298C21.6552 4.87199 21.6 4.78931 21.5303 4.71966C21.4607 4.65002 21.378 4.59477 21.287 4.55708C21.196 4.51939 21.0985 4.5 21 4.5ZM3.75 10.5H7.5V13.5H3.75V10.5ZM9 10.5H20.2504L20.2506 13.5H9V10.5ZM20.25 6L20.2503 9H3.75V6H20.25ZM3.75 15H7.5V18H3.75V15ZM20.25 18H9V15H20.2507L20.251 18L20.25 18Z" fill="#1D1F21" style="fill: var(--ui-icon-primary-color);"/>
</svg>
