<svg  viewBox="0 0 24 24" fill="none" xmlns="http://www.w3.org/2000/svg" id="__THIS_ID_NEEDS_FOR_UI_ICON_COMPONENT__">
<path d="M22.4999 11.8928L12.7075 2.10036C12.5331 1.92544 12.3181 1.79643 12.0817 1.72484C11.8453 1.65326 11.5948 1.64133 11.3526 1.69011L3.79121 3.20238C3.64604 3.23145 3.51272 3.30283 3.40803 3.40752C3.30334 3.51221 3.23196 3.64553 3.20289 3.7907L1.69063 11.3521C1.64194 11.5943 1.65392 11.8447 1.7255 12.0811C1.79708 12.3175 1.92604 12.5325 2.10088 12.707L11.8932 22.4993C12.0325 22.6386 12.1978 22.7491 12.3798 22.8245C12.5618 22.8999 12.7569 22.9388 12.9539 22.9388C13.1509 22.9388 13.346 22.9 13.528 22.8246C13.71 22.7492 13.8753 22.6387 14.0146 22.4994L22.4998 14.0142C22.6391 13.8749 22.7497 13.7096 22.8251 13.5276C22.9005 13.3456 22.9393 13.1505 22.9393 12.9535C22.9393 12.7565 22.9005 12.5614 22.8251 12.3794C22.7497 12.1974 22.6392 12.032 22.4999 11.8928ZM12.954 21.4387L3.16151 11.6464L4.57573 4.57522L11.6469 3.161L11.6468 3.16109L21.4392 12.9534L12.954 21.4387ZM8.99992 7.87441C8.99992 8.09691 8.93394 8.31442 8.81033 8.49943C8.68671 8.68443 8.51101 8.82863 8.30544 8.91378C8.09988 8.99892 7.87367 9.0212 7.65545 8.97779C7.43722 8.93439 7.23676 8.82724 7.07943 8.66991C6.92209 8.51257 6.81495 8.31212 6.77154 8.09389C6.72813 7.87566 6.75041 7.64946 6.83556 7.44389C6.92071 7.23833 7.0649 7.06262 7.24991 6.93901C7.43491 6.81539 7.65242 6.74941 7.87492 6.74941C8.17319 6.74974 8.45915 6.86837 8.67006 7.07928C8.88097 7.29018 8.9996 7.57614 8.99992 7.87441Z" fill="#1D1F21" style="fill: var(--ui-icon-primary-color);"/>
</svg>
