<svg  viewBox="0 0 24 24" fill="none" xmlns="http://www.w3.org/2000/svg" id="__THIS_ID_NEEDS_FOR_UI_ICON_COMPONENT__">
<path d="M10.9983 12.5606L4.24829 18.5606C4.09962 18.6927 3.90454 18.7604 3.70596 18.7487C3.50739 18.7371 3.32159 18.647 3.18944 18.4983C3.05729 18.3496 2.98961 18.1545 3.0013 17.956C3.01298 17.7574 3.10307 17.5716 3.25174 17.4394L9.37113 12L3.25174 6.5606C3.10307 6.42845 3.01298 6.24265 3.0013 6.04407C2.98961 5.8455 3.05729 5.65042 3.18944 5.50174C3.32159 5.35307 3.50739 5.26298 3.70596 5.2513C3.90454 5.23961 4.09962 5.30729 4.24829 5.43944L10.9983 11.4394C11.0775 11.5098 11.1408 11.5961 11.1842 11.6928C11.2276 11.7894 11.25 11.8941 11.25 12C11.25 12.1059 11.2276 12.2107 11.1842 12.3073C11.1408 12.4039 11.0775 12.4902 10.9983 12.5606ZM20.2495 17.25H11.2495C11.0506 17.25 10.8598 17.329 10.7191 17.4697C10.5785 17.6103 10.4995 17.8011 10.4995 18C10.4995 18.1989 10.5785 18.3897 10.7191 18.5304C10.8598 18.671 11.0506 18.75 11.2495 18.75H20.2495C20.4484 18.75 20.6391 18.671 20.7798 18.5304C20.9205 18.3897 20.9995 18.1989 20.9995 18C20.9995 17.8011 20.9205 17.6103 20.7798 17.4697C20.6391 17.329 20.4484 17.25 20.2495 17.25Z" fill="#1D1F21" style="fill: var(--ui-icon-primary-color);"/>
</svg>
