<svg  viewBox="0 0 24 24" fill="none" xmlns="http://www.w3.org/2000/svg" id="__THIS_ID_NEEDS_FOR_UI_ICON_COMPONENT__">
<path d="M3 6.375C3 6.17609 3.07902 5.98532 3.21967 5.84467C3.36032 5.70402 3.55109 5.625 3.75 5.625H20.25C20.4489 5.625 20.6397 5.70402 20.7803 5.84467C20.921 5.98532 21 6.17609 21 6.375C21 6.57391 20.921 6.76468 20.7803 6.90533C20.6397 7.04598 20.4489 7.125 20.25 7.125H3.75C3.55109 7.125 3.36032 7.04598 3.21967 6.90533C3.07902 6.76468 3 6.57391 3 6.375ZM3.75 10.875H15.75C15.9489 10.875 16.1397 10.796 16.2803 10.6553C16.421 10.5147 16.5 10.3239 16.5 10.125C16.5 9.92609 16.421 9.73532 16.2803 9.59467C16.1397 9.45402 15.9489 9.375 15.75 9.375H3.75C3.55109 9.375 3.36032 9.45402 3.21967 9.59467C3.07902 9.73532 3 9.92609 3 10.125C3 10.3239 3.07902 10.5147 3.21967 10.6553C3.36032 10.796 3.55109 10.875 3.75 10.875ZM20.25 13.125H3.75055C3.55164 13.125 3.36087 13.204 3.22022 13.3447C3.07957 13.4853 3.00055 13.6761 3.00055 13.875C3.00055 14.0739 3.07957 14.2647 3.22022 14.4053C3.36087 14.546 3.55164 14.625 3.75055 14.625H20.25C20.4489 14.625 20.6397 14.546 20.7803 14.4053C20.921 14.2647 21 14.0739 21 13.875C21 13.6761 20.921 13.4853 20.7803 13.3447C20.6397 13.204 20.4489 13.125 20.25 13.125ZM15.75 16.875H3.75055C3.55164 16.875 3.36087 16.954 3.22022 17.0947C3.07957 17.2353 3.00055 17.4261 3.00055 17.625C3.00055 17.8239 3.07957 18.0147 3.22022 18.1553C3.36087 18.296 3.55164 18.375 3.75055 18.375H15.75C15.9489 18.375 16.1397 18.296 16.2803 18.1553C16.421 18.0147 16.5 17.8239 16.5 17.625C16.5 17.4261 16.421 17.2353 16.2803 17.0947C16.1397 16.954 15.9489 16.875 15.75 16.875Z" fill="#1D1F21" style="fill: var(--ui-icon-primary-color);"/>
</svg>
