<svg  viewBox="0 0 24 24" fill="none" xmlns="http://www.w3.org/2000/svg" id="__THIS_ID_NEEDS_FOR_UI_ICON_COMPONENT__">
<path d="M18.7495 5.24854C18.7494 5.44745 18.6704 5.63821 18.5298 5.77886C18.3891 5.91951 18.1984 5.99853 17.9995 5.99854H14.79L10.79 17.9985H13.4994C13.6984 17.9985 13.8891 18.0776 14.0298 18.2182C14.1704 18.3589 14.2494 18.5496 14.2494 18.7485C14.2494 18.9474 14.1704 19.1382 14.0298 19.2789C13.8891 19.4195 13.6984 19.4985 13.4994 19.4985H9.75216L9.74955 19.4987L9.74698 19.4985H5.99945C5.80054 19.4985 5.60977 19.4195 5.46912 19.2789C5.32847 19.1382 5.24945 18.9474 5.24945 18.7485C5.24945 18.5496 5.32847 18.3589 5.46912 18.2182C5.60977 18.0776 5.80054 17.9985 5.99945 17.9985H9.2089L13.2089 5.99854H10.4995C10.3005 5.99854 10.1098 5.91952 9.96912 5.77887C9.82847 5.63821 9.74945 5.44745 9.74945 5.24854C9.74945 5.04962 9.82847 4.85886 9.96912 4.7182C10.1098 4.57755 10.3005 4.49854 10.4995 4.49854H17.9995C18.1984 4.49854 18.3891 4.57756 18.5298 4.71821C18.6704 4.85886 18.7494 5.04962 18.7495 5.24854Z" fill="#1D1F21" style="fill: var(--ui-icon-primary-color);"/>
</svg>
