<svg  viewBox="0 0 24 24" fill="none" xmlns="http://www.w3.org/2000/svg" id="__THIS_ID_NEEDS_FOR_UI_ICON_COMPONENT__">
<path d="M21 12C21 12.0985 20.9806 12.196 20.9429 12.287C20.9052 12.378 20.85 12.4607 20.7803 12.5303C20.7107 12.6 20.628 12.6552 20.537 12.6929C20.446 12.7306 20.3485 12.75 20.25 12.75H16.902C17.6317 13.4913 18 14.3685 18 15.375C18 18.2453 15.5327 20.25 12 20.25C9.35069 20.25 6.98291 18.8124 6.24193 16.754C6.17462 16.5669 6.1844 16.3607 6.26912 16.1807C6.35383 16.0008 6.50655 15.8619 6.69367 15.7945C6.8808 15.7271 7.08702 15.7369 7.26698 15.8215C7.44693 15.9062 7.5859 16.0589 7.6533 16.246C8.18399 17.7203 9.97142 18.75 12 18.75C14.2399 18.75 16.5 17.7064 16.5 15.375C16.5 14.6765 16.2562 13.6514 14.1927 12.75H3.75C3.55109 12.75 3.36032 12.671 3.21967 12.5303C3.07902 12.3897 3 12.1989 3 12C3 11.8011 3.07902 11.6103 3.21967 11.4697C3.36032 11.329 3.55109 11.25 3.75 11.25H14.3398C14.3433 11.25 14.3468 11.25 14.3503 11.25H20.25C20.3485 11.25 20.446 11.2694 20.537 11.3071C20.628 11.3448 20.7107 11.4 20.7803 11.4697C20.85 11.5393 20.9052 11.622 20.9429 11.713C20.9806 11.804 21 11.9015 21 12ZM8.06323 9.75041C8.18546 9.75028 8.30581 9.7203 8.41381 9.66307C8.52181 9.60584 8.6142 9.5231 8.68294 9.42203C8.75168 9.32097 8.7947 9.20464 8.80825 9.08317C8.8218 8.96169 8.80547 8.83875 8.76068 8.72502C8.66251 8.45271 8.61648 8.16434 8.625 7.875C8.625 6.42755 10.139 5.25 12 5.25C13.7041 5.25 15.1785 6.28244 15.3566 7.60043C15.3698 7.69804 15.4021 7.79208 15.4516 7.87721C15.5011 7.96233 15.567 8.03687 15.6453 8.09656C15.7236 8.15625 15.813 8.19992 15.9082 8.22508C16.0034 8.25025 16.1027 8.25641 16.2003 8.24323C16.2979 8.23004 16.3919 8.19775 16.477 8.14822C16.5622 8.09868 16.6367 8.03286 16.6964 7.95452C16.7561 7.87618 16.7997 7.78685 16.8249 7.69163C16.8501 7.59641 16.8562 7.49717 16.843 7.39957C16.5619 5.31899 14.4799 3.75 12 3.75C9.31192 3.75 7.125 5.60046 7.125 7.875C7.11541 8.35284 7.19698 8.82813 7.36533 9.27544C7.42056 9.4155 7.51666 9.5357 7.64113 9.62041C7.76559 9.70512 7.91267 9.75042 8.06323 9.75041Z" fill="#1D1F21" style="fill: var(--ui-icon-primary-color);"/>
</svg>
