<svg  viewBox="0 0 24 24" fill="none" xmlns="http://www.w3.org/2000/svg" id="__THIS_ID_NEEDS_FOR_UI_ICON_COMPONENT__">
<path d="M3 6.375C3 6.17609 3.07902 5.98532 3.21967 5.84467C3.36032 5.70402 3.55109 5.625 3.75 5.625H20.25C20.4489 5.625 20.6397 5.70402 20.7803 5.84467C20.921 5.98532 21 6.17609 21 6.375C21 6.57391 20.921 6.76468 20.7803 6.90533C20.6397 7.04598 20.4489 7.125 20.25 7.125H3.75C3.55109 7.125 3.36032 7.04598 3.21967 6.90533C3.07902 6.76468 3 6.57391 3 6.375ZM6 9.375C5.80109 9.375 5.61032 9.45402 5.46967 9.59467C5.32902 9.73532 5.25 9.92609 5.25 10.125C5.25 10.3239 5.32902 10.5147 5.46967 10.6553C5.61032 10.796 5.80109 10.875 6 10.875H18C18.1989 10.875 18.3897 10.796 18.5303 10.6553C18.671 10.5147 18.75 10.3239 18.75 10.125C18.75 9.92609 18.671 9.73532 18.5303 9.59467C18.3897 9.45402 18.1989 9.375 18 9.375H6ZM20.2497 13.125H3.75027C3.55136 13.125 3.3606 13.204 3.21994 13.3447C3.07929 13.4853 3.00027 13.6761 3.00027 13.875C3.00027 14.0739 3.07929 14.2647 3.21994 14.4053C3.3606 14.546 3.55136 14.625 3.75027 14.625H20.2497C20.4486 14.625 20.6394 14.546 20.7801 14.4053C20.9207 14.2647 20.9997 14.0739 20.9997 13.875C20.9997 13.6761 20.9207 13.4853 20.7801 13.3447C20.6394 13.204 20.4486 13.125 20.2497 13.125ZM17.9997 16.875H6.00027C5.80136 16.875 5.6106 16.954 5.46994 17.0947C5.32929 17.2353 5.25027 17.4261 5.25027 17.625C5.25027 17.8239 5.32929 18.0147 5.46994 18.1553C5.6106 18.296 5.80136 18.375 6.00027 18.375H17.9997C18.1986 18.375 18.3894 18.296 18.5301 18.1553C18.6707 18.0147 18.7497 17.8239 18.7497 17.625C18.7497 17.4261 18.6707 17.2353 18.5301 17.0947C18.3894 16.954 18.1986 16.875 17.9997 16.875Z" fill="#1D1F21" style="fill: var(--ui-icon-primary-color);"/>
</svg>
