<svg  viewBox="0 0 24 24" fill="none" xmlns="http://www.w3.org/2000/svg" id="__THIS_ID_NEEDS_FOR_UI_ICON_COMPONENT__">
<path d="M12 15.1098V4.5C12 4.30109 11.921 4.11032 11.7803 3.96967C11.6397 3.82902 11.4489 3.75 11.25 3.75C11.0511 3.75 10.8603 3.82902 10.7197 3.96967C10.579 4.11032 10.5 4.30109 10.5 4.5V15.1098C9.89575 15.2899 9.37654 15.6816 9.0373 16.2131C8.69806 16.7445 8.56147 17.3804 8.6525 18.0043C8.74353 18.6282 9.0561 19.1986 9.53305 19.611C10.01 20.0234 10.6195 20.2503 11.25 20.2503C11.8805 20.2503 12.49 20.0234 12.9669 19.611C13.4439 19.1986 13.7565 18.6282 13.8475 18.0043C13.9385 17.3804 13.8019 16.7445 13.4627 16.2131C13.1235 15.6816 12.6042 15.2899 12 15.1098ZM11.25 18.75C11.0275 18.75 10.81 18.684 10.625 18.5604C10.44 18.4368 10.2958 18.2611 10.2106 18.0555C10.1255 17.85 10.1032 17.6238 10.1466 17.4055C10.19 17.1873 10.2972 16.9868 10.4545 16.8295C10.6118 16.6722 10.8123 16.565 11.0305 16.5216C11.2488 16.4782 11.475 16.5005 11.6805 16.5856C11.8861 16.6708 12.0618 16.815 12.1854 17C12.309 17.185 12.375 17.4025 12.375 17.625C12.3747 17.9233 12.256 18.2092 12.0451 18.4201C11.8342 18.631 11.5483 18.7497 11.25 18.75ZM16.693 8.03036C16.6234 7.96072 16.5681 7.87803 16.5304 7.78703C16.4927 7.69603 16.4733 7.5985 16.4733 7.5C16.4733 7.4015 16.4927 7.30397 16.5304 7.21297C16.5681 7.12197 16.6234 7.03928 16.693 6.96964C16.9368 6.72588 17.2262 6.53252 17.5446 6.4006C17.8631 6.26867 18.2045 6.20078 18.5492 6.20078C18.8939 6.20078 19.2352 6.26867 19.5537 6.4006C19.8722 6.53252 20.1616 6.72588 20.4053 6.96964C20.6164 7.18034 20.9025 7.29868 21.2008 7.29868C21.4991 7.29868 21.7852 7.18034 21.9963 6.96964C22.137 6.82899 22.3278 6.74997 22.5267 6.74998C22.7256 6.74999 22.9164 6.82902 23.057 6.96968C23.1977 7.11034 23.2767 7.30112 23.2767 7.50003C23.2767 7.69895 23.1976 7.88972 23.057 8.03036C22.8132 8.27412 22.5238 8.46748 22.2054 8.5994C21.8869 8.73133 21.5455 8.79922 21.2008 8.79922C20.8561 8.79922 20.5148 8.73133 20.1963 8.5994C19.8778 8.46748 19.5884 8.27412 19.3447 8.03036C19.1336 7.81966 18.8475 7.70132 18.5492 7.70132C18.2509 7.70132 17.9648 7.81966 17.7537 8.03036C17.613 8.17097 17.4223 8.24995 17.2234 8.24995C17.0245 8.24995 16.8337 8.17097 16.693 8.03036ZM23.057 10.7196C23.1266 10.7893 23.1819 10.872 23.2196 10.963C23.2573 11.054 23.2767 11.1515 23.2767 11.25C23.2767 11.3485 23.2573 11.446 23.2196 11.537C23.1819 11.628 23.1266 11.7107 23.057 11.7804C22.8132 12.0241 22.5238 12.2175 22.2054 12.3494C21.8869 12.4813 21.5455 12.5492 21.2008 12.5492C20.8561 12.5492 20.5148 12.4813 20.1963 12.3494C19.8778 12.2175 19.5884 12.0241 19.3447 11.7804C19.1336 11.5697 18.8475 11.4513 18.5492 11.4513C18.2509 11.4513 17.9648 11.5697 17.7537 11.7804C17.613 11.921 17.4222 12 17.2233 12C17.0244 12 16.8336 11.921 16.693 11.7803C16.5523 11.6397 16.4733 11.4489 16.4733 11.25C16.4734 11.0511 16.5524 10.8603 16.693 10.7196C16.9368 10.4759 17.2262 10.2825 17.5446 10.1506C17.8631 10.0187 18.2045 9.95078 18.5492 9.95078C18.8939 9.95078 19.2352 10.0187 19.5537 10.1506C19.8722 10.2825 20.1616 10.4759 20.4053 10.7196C20.6164 10.9303 20.9025 11.0487 21.2008 11.0487C21.4991 11.0487 21.7852 10.9303 21.9963 10.7196C22.137 10.579 22.3277 10.5 22.5266 10.5C22.7255 10.5 22.9163 10.579 23.057 10.7196ZM15 13.432V4.5C15 3.50544 14.6049 2.55161 13.9017 1.84835C13.1984 1.14509 12.2446 0.75 11.25 0.75C10.2554 0.75 9.30161 1.14509 8.59835 1.84835C7.89509 2.55161 7.5 3.50544 7.5 4.5V13.432C6.65089 14.1914 6.05239 15.1908 5.7837 16.2979C5.51501 17.405 5.58879 18.5675 5.99528 19.6317C6.40177 20.6959 7.12182 21.6116 8.06013 22.2577C8.99844 22.9037 10.1108 23.2496 11.25 23.2496C12.3892 23.2496 13.5016 22.9037 14.4399 22.2577C15.3782 21.6116 16.0982 20.6959 16.5047 19.6317C16.9112 18.5675 16.985 17.405 16.7163 16.2979C16.4476 15.1908 15.8491 14.1914 15 13.432ZM11.25 21.75C10.3944 21.75 9.56005 21.4839 8.86238 20.9887C8.16471 20.4935 7.63828 19.7936 7.356 18.9859C7.07371 18.1783 7.04954 17.3028 7.28682 16.4808C7.52411 15.6588 8.01111 14.9309 8.68039 14.3979C8.7791 14.3288 8.85968 14.2368 8.91531 14.1299C8.97095 14.0229 9 13.9042 9 13.7836V4.5C9 3.90326 9.23705 3.33097 9.65901 2.90901C10.081 2.48705 10.6533 2.25 11.25 2.25C11.8467 2.25 12.419 2.48705 12.841 2.90901C13.2629 3.33097 13.5 3.90326 13.5 4.5V13.7836C13.5 13.9026 13.5284 14.0198 13.5827 14.1256C13.637 14.2315 13.7157 14.3228 13.8124 14.3922C14.4835 14.9241 14.9724 15.6518 15.2112 16.4741C15.4501 17.2965 15.4272 18.1728 15.1455 18.9815C14.8639 19.7903 14.3375 20.4913 13.6395 20.9874C12.9415 21.4834 12.1064 21.75 11.25 21.75Z" fill="#1D1F21" style="fill: var(--ui-icon-primary-color);"/>
</svg>
