<svg  viewBox="0 0 24 24" fill="none" xmlns="http://www.w3.org/2000/svg" id="__THIS_ID_NEEDS_FOR_UI_ICON_COMPONENT__">
<path d="M15.75 13.432V4.5C15.75 3.50544 15.3549 2.55161 14.6516 1.84835C13.9484 1.14509 12.9946 0.75 12 0.75C11.0054 0.75 10.0516 1.14509 9.34835 1.84835C8.64509 2.55161 8.25 3.50544 8.25 4.5V13.432C7.40089 14.1914 6.80239 15.1908 6.5337 16.2979C6.26501 17.405 6.33879 18.5675 6.74528 19.6317C7.15177 20.6959 7.87182 21.6116 8.81013 22.2577C9.74844 22.9037 10.8608 23.2496 12 23.2496C13.1392 23.2496 14.2516 22.9037 15.1899 22.2577C16.1282 21.6116 16.8482 20.6959 17.2547 19.6317C17.6612 18.5675 17.735 17.405 17.4663 16.2979C17.1976 15.1908 16.5991 14.1914 15.75 13.432ZM12 21.75C11.1444 21.75 10.31 21.4839 9.61237 20.9887C8.9147 20.4935 8.38828 19.7936 8.10599 18.9859C7.82371 18.1783 7.79954 17.3028 8.03682 16.4808C8.27411 15.6588 8.76111 14.9309 9.43039 14.3979C9.5291 14.3288 9.60968 14.2368 9.66531 14.1299C9.72095 14.0229 9.75 13.9042 9.75 13.7836V4.5C9.75 3.90326 9.98705 3.33097 10.409 2.90901C10.831 2.48705 11.4033 2.25 12 2.25C12.5967 2.25 13.169 2.48705 13.591 2.90901C14.0129 3.33097 14.25 3.90326 14.25 4.5V13.7836C14.25 13.9026 14.2784 14.0198 14.3327 14.1256C14.387 14.2315 14.4657 14.3228 14.5624 14.3922C15.2335 14.9241 15.7224 15.6518 15.9612 16.4741C16.2001 17.2965 16.1772 18.1728 15.8955 18.9815C15.6139 19.7903 15.0875 20.4913 14.3895 20.9874C13.6915 21.4834 12.8564 21.75 12 21.75ZM12.75 15.1098V8.25C12.75 8.05109 12.671 7.86032 12.5303 7.71967C12.3897 7.57902 12.1989 7.5 12 7.5C11.8011 7.5 11.6103 7.57902 11.4697 7.71967C11.329 7.86032 11.25 8.05109 11.25 8.25V15.1098C10.6458 15.2899 10.1265 15.6816 9.7873 16.2131C9.44806 16.7445 9.31147 17.3804 9.4025 18.0043C9.49353 18.6282 9.8061 19.1986 10.283 19.611C10.76 20.0234 11.3695 20.2503 12 20.2503C12.6305 20.2503 13.24 20.0234 13.7169 19.611C14.1939 19.1986 14.5065 18.6282 14.5975 18.0043C14.6885 17.3804 14.5519 16.7445 14.2127 16.2131C13.8735 15.6816 13.3542 15.2899 12.75 15.1098ZM12 18.75C11.7775 18.75 11.56 18.684 11.375 18.5604C11.19 18.4368 11.0458 18.2611 10.9606 18.0555C10.8755 17.85 10.8532 17.6238 10.8966 17.4055C10.94 17.1873 11.0472 16.9868 11.2045 16.8295C11.3618 16.6722 11.5623 16.565 11.7805 16.5216C11.9987 16.4782 12.2249 16.5005 12.4305 16.5856C12.6361 16.6708 12.8118 16.815 12.9354 17C13.059 17.185 13.125 17.4025 13.125 17.625C13.1247 17.9233 13.006 18.2092 12.7951 18.4201C12.5842 18.631 12.2983 18.7497 12 18.75Z" fill="#1D1F21" style="fill: var(--ui-icon-primary-color);"/>
</svg>
