<svg  viewBox="0 0 24 24" fill="none" xmlns="http://www.w3.org/2000/svg" id="__THIS_ID_NEEDS_FOR_UI_ICON_COMPONENT__">
<path d="M12 15.1098V11.25C12 11.0511 11.921 10.8603 11.7803 10.7197C11.6397 10.579 11.4489 10.5 11.25 10.5C11.0511 10.5 10.8603 10.579 10.7197 10.7197C10.579 10.8603 10.5 11.0511 10.5 11.25V15.1098C9.89575 15.2899 9.37654 15.6816 9.0373 16.2131C8.69806 16.7445 8.56147 17.3804 8.6525 18.0043C8.74353 18.6282 9.0561 19.1986 9.53305 19.611C10.01 20.0234 10.6195 20.2503 11.25 20.2503C11.8805 20.2503 12.49 20.0234 12.9669 19.611C13.4439 19.1986 13.7565 18.6282 13.8475 18.0043C13.9385 17.3804 13.8019 16.7445 13.4627 16.2131C13.1235 15.6816 12.6042 15.2899 12 15.1098ZM11.25 18.75C11.0275 18.75 10.81 18.684 10.625 18.5604C10.44 18.4368 10.2958 18.2611 10.2106 18.0555C10.1255 17.85 10.1032 17.6238 10.1466 17.4055C10.19 17.1873 10.2972 16.9868 10.4545 16.8295C10.6118 16.6722 10.8123 16.565 11.0305 16.5216C11.2488 16.4782 11.475 16.5005 11.6805 16.5856C11.8861 16.6708 12.0618 16.815 12.1854 17C12.309 17.185 12.375 17.4025 12.375 17.625C12.3747 17.9233 12.256 18.2092 12.0451 18.4201C11.8342 18.631 11.5483 18.7497 11.25 18.75ZM22.9599 7.28622L21.0885 7.89432L22.2451 9.48624C22.3034 9.56589 22.3454 9.65628 22.3687 9.7522C22.392 9.84813 22.3962 9.94771 22.3809 10.0452C22.3656 10.1428 22.3312 10.2363 22.2797 10.3205C22.2282 10.4047 22.1606 10.478 22.0807 10.536C22.0009 10.594 21.9103 10.6357 21.8143 10.6586C21.7183 10.6816 21.6187 10.6854 21.5213 10.6698C21.4238 10.6541 21.3304 10.6194 21.2463 10.5676C21.1623 10.5158 21.0893 10.448 21.0316 10.3679L19.875 8.77597L18.7184 10.3679C18.6015 10.5288 18.4254 10.6367 18.229 10.6678C18.0325 10.6989 17.8318 10.6507 17.6709 10.5338C17.51 10.4169 17.4021 10.2408 17.3709 10.0444C17.3398 9.84793 17.388 9.64716 17.5049 9.48624L18.6615 7.89432L16.7901 7.28622C16.6961 7.25603 16.6091 7.20758 16.5339 7.14366C16.4587 7.07975 16.3968 7.00162 16.3519 6.91375C16.3069 6.82589 16.2798 6.73002 16.2719 6.63163C16.2641 6.53325 16.2758 6.43429 16.3063 6.34043C16.3368 6.24657 16.3855 6.15965 16.4497 6.08466C16.5138 6.00966 16.5921 5.94807 16.6802 5.9034C16.7682 5.85874 16.8641 5.83188 16.9625 5.82437C17.0609 5.81686 17.1599 5.82885 17.2536 5.85965L19.125 6.4677V4.5C19.125 4.30109 19.204 4.11032 19.3447 3.96967C19.4853 3.82902 19.6761 3.75 19.875 3.75C20.0739 3.75 20.2647 3.82902 20.4053 3.96967C20.546 4.11032 20.625 4.30109 20.625 4.5V6.4677L22.4964 5.85965C22.5901 5.82885 22.6891 5.81686 22.7875 5.82437C22.8859 5.83188 22.9818 5.85874 23.0698 5.9034C23.1579 5.94807 23.2362 6.00966 23.3003 6.08466C23.3645 6.15965 23.4132 6.24657 23.4437 6.34043C23.4742 6.43429 23.4859 6.53325 23.4781 6.63163C23.4702 6.73002 23.4431 6.82589 23.3981 6.91375C23.3532 7.00162 23.2913 7.07975 23.2161 7.14366C23.1409 7.20758 23.0539 7.25603 22.9599 7.28622ZM15 13.432V4.5C15 3.50544 14.6049 2.55161 13.9017 1.84835C13.1984 1.14509 12.2446 0.75 11.25 0.75C10.2554 0.75 9.30161 1.14509 8.59835 1.84835C7.89509 2.55161 7.5 3.50544 7.5 4.5V13.432C6.65089 14.1914 6.05239 15.1908 5.7837 16.2979C5.51501 17.405 5.58879 18.5675 5.99528 19.6317C6.40177 20.6959 7.12182 21.6116 8.06013 22.2577C8.99844 22.9037 10.1108 23.2496 11.25 23.2496C12.3892 23.2496 13.5016 22.9037 14.4399 22.2577C15.3782 21.6116 16.0982 20.6959 16.5047 19.6317C16.9112 18.5675 16.985 17.405 16.7163 16.2979C16.4476 15.1908 15.8491 14.1914 15 13.432ZM11.25 21.75C10.3944 21.75 9.56004 21.4839 8.86238 20.9887C8.16471 20.4935 7.63828 19.7936 7.356 18.9859C7.07371 18.1783 7.04954 17.3028 7.28682 16.4808C7.52411 15.6588 8.01111 14.9309 8.68039 14.3979C8.7791 14.3288 8.85968 14.2368 8.91531 14.1299C8.97095 14.0229 9 13.9042 9 13.7836V4.5C9 3.90326 9.23705 3.33097 9.65901 2.90901C10.081 2.48705 10.6533 2.25 11.25 2.25C11.8467 2.25 12.419 2.48705 12.841 2.90901C13.2629 3.33097 13.5 3.90326 13.5 4.5V13.7836C13.5 13.9026 13.5284 14.0198 13.5827 14.1256C13.637 14.2315 13.7157 14.3228 13.8124 14.3922C14.4835 14.9241 14.9724 15.6518 15.2112 16.4741C15.4501 17.2965 15.4272 18.1728 15.1455 18.9815C14.8639 19.7903 14.3375 20.4913 13.6395 20.9874C12.9415 21.4834 12.1064 21.75 11.25 21.75Z" fill="#1D1F21" style="fill: var(--ui-icon-primary-color);"/>
</svg>
