<svg  viewBox="0 0 24 24" fill="none" xmlns="http://www.w3.org/2000/svg" id="__THIS_ID_NEEDS_FOR_UI_ICON_COMPONENT__">
<path d="M19.875 4.875C19.3558 4.875 18.8483 5.02895 18.4166 5.31739C17.985 5.60583 17.6485 6.0158 17.4498 6.49546C17.2511 6.97511 17.1992 7.50291 17.3004 8.01211C17.4017 8.52131 17.6517 8.98904 18.0188 9.35616C18.386 9.72327 18.8537 9.97328 19.3629 10.0746C19.8721 10.1758 20.3999 10.1239 20.8795 9.92518C21.3592 9.7265 21.7692 9.39005 22.0576 8.95837C22.346 8.52669 22.5 8.01918 22.5 7.5C22.4992 6.80405 22.2224 6.13682 21.7303 5.64471C21.2382 5.15259 20.571 4.87578 19.875 4.875ZM19.875 8.625C19.6525 8.625 19.435 8.55902 19.25 8.4354C19.065 8.31179 18.9208 8.13609 18.8356 7.93052C18.7505 7.72495 18.7282 7.49875 18.7716 7.28052C18.815 7.06229 18.9222 6.86184 19.0795 6.7045C19.2368 6.54717 19.4373 6.44002 19.6555 6.39662C19.8738 6.35321 20.1 6.37549 20.3055 6.46064C20.5111 6.54578 20.6868 6.68998 20.8104 6.87498C20.934 7.05999 21 7.2775 21 7.5C20.9997 7.79827 20.881 8.08422 20.6701 8.29513C20.4592 8.50603 20.1733 8.62467 19.875 8.625ZM15 13.432V4.5C15 3.50544 14.6049 2.55161 13.9017 1.84835C13.1984 1.14509 12.2446 0.75 11.25 0.75C10.2554 0.75 9.30161 1.14509 8.59835 1.84835C7.89509 2.55161 7.5 3.50544 7.5 4.5V13.432C6.65089 14.1914 6.05239 15.1908 5.7837 16.2979C5.51501 17.405 5.58879 18.5675 5.99528 19.6317C6.40177 20.6959 7.12182 21.6116 8.06013 22.2577C8.99844 22.9037 10.1108 23.2496 11.25 23.2496C12.3892 23.2496 13.5016 22.9037 14.4399 22.2577C15.3782 21.6116 16.0982 20.6959 16.5047 19.6317C16.9112 18.5675 16.985 17.405 16.7163 16.2979C16.4476 15.1908 15.8491 14.1914 15 13.432ZM11.25 21.75C10.3944 21.75 9.56005 21.4839 8.86238 20.9887C8.16471 20.4935 7.63828 19.7936 7.356 18.9859C7.07371 18.1783 7.04954 17.3028 7.28682 16.4808C7.52411 15.6588 8.01111 14.9309 8.68039 14.3979C8.7791 14.3288 8.85968 14.2368 8.91531 14.1299C8.97095 14.0229 9 13.9042 9 13.7836V4.5C9 3.90326 9.23705 3.33097 9.65901 2.90901C10.081 2.48705 10.6533 2.25 11.25 2.25C11.8467 2.25 12.419 2.48705 12.841 2.90901C13.2629 3.33097 13.5 3.90326 13.5 4.5V13.7836C13.5 13.9026 13.5284 14.0198 13.5827 14.1256C13.637 14.2315 13.7157 14.3228 13.8124 14.3922C14.4835 14.9241 14.9724 15.6518 15.2112 16.4741C15.4501 17.2965 15.4272 18.1728 15.1455 18.9815C14.8639 19.7903 14.3375 20.4913 13.6395 20.9874C12.9415 21.4834 12.1064 21.75 11.25 21.75ZM12 15.1098V8.25C12 8.05109 11.921 7.86032 11.7803 7.71967C11.6397 7.57902 11.4489 7.5 11.25 7.5C11.0511 7.5 10.8603 7.57902 10.7197 7.71967C10.579 7.86032 10.5 8.05109 10.5 8.25V15.1098C9.89575 15.2899 9.37654 15.6816 9.0373 16.2131C8.69806 16.7445 8.56147 17.3804 8.6525 18.0043C8.74353 18.6282 9.0561 19.1986 9.53305 19.611C10.01 20.0234 10.6195 20.2503 11.25 20.2503C11.8805 20.2503 12.49 20.0234 12.9669 19.611C13.4439 19.1986 13.7565 18.6282 13.8475 18.0043C13.9385 17.3804 13.8019 16.7445 13.4627 16.2131C13.1235 15.6816 12.6042 15.2899 12 15.1098ZM11.25 18.75C11.0275 18.75 10.81 18.684 10.625 18.5604C10.44 18.4368 10.2958 18.2611 10.2106 18.0555C10.1255 17.85 10.1032 17.6238 10.1466 17.4055C10.19 17.1873 10.2972 16.9868 10.4545 16.8295C10.6118 16.6722 10.8123 16.565 11.0305 16.5216C11.2488 16.4782 11.475 16.5005 11.6805 16.5856C11.8861 16.6708 12.0618 16.815 12.1854 17C12.309 17.185 12.375 17.4025 12.375 17.625C12.3747 17.9233 12.256 18.2092 12.0451 18.4201C11.8342 18.631 11.5483 18.7497 11.25 18.75Z" fill="#1D1F21" style="fill: var(--ui-icon-primary-color);"/>
</svg>
