<svg  viewBox="0 0 24 24" fill="none" xmlns="http://www.w3.org/2000/svg" id="__THIS_ID_NEEDS_FOR_UI_ICON_COMPONENT__">
<path d="M22.2829 14.7209L21.1579 5.7209C21.0891 5.17704 20.8245 4.6769 20.4135 4.31412C20.0025 3.95133 19.4734 3.75078 18.9252 3.75H2.99945C2.60177 3.75045 2.2205 3.90864 1.93929 4.18984C1.65809 4.47105 1.49991 4.85231 1.49945 5.25V13.5C1.49991 13.8977 1.65809 14.279 1.93929 14.5602C2.2205 14.8414 2.60177 14.9995 2.99945 15H7.03592L10.5786 22.0854C10.6409 22.21 10.7367 22.3148 10.8551 22.388C10.9736 22.4612 11.1102 22.5 11.2495 22.5C12.2437 22.4989 13.1968 22.1034 13.8999 21.4004C14.6029 20.6974 14.9983 19.7442 14.9995 18.75V17.25H20.0502C20.3693 17.25 20.6847 17.1822 20.9755 17.051C21.2663 16.9198 21.5259 16.7282 21.737 16.4891C21.9482 16.2499 22.106 15.9686 22.2002 15.6637C22.2943 15.3589 22.3225 15.0375 22.2829 14.7209ZM6.74945 13.5H2.99945V5.25H6.74945V13.5ZM20.6125 15.4964C20.5425 15.5766 20.4561 15.6407 20.359 15.6845C20.262 15.7283 20.1567 15.7506 20.0502 15.75H14.2495C14.0505 15.75 13.8598 15.829 13.7191 15.9697C13.5785 16.1103 13.4995 16.3011 13.4995 16.5V18.75C13.4988 19.2699 13.3184 19.7736 12.9888 20.1757C12.6593 20.5778 12.2008 20.8537 11.6912 20.9565L8.24945 14.073V5.25H18.9252C19.108 5.25024 19.2843 5.31709 19.4213 5.43803C19.5583 5.55896 19.6466 5.72569 19.6695 5.90698L20.7945 14.9069C20.8083 15.0125 20.7992 15.1198 20.7678 15.2215C20.7364 15.3232 20.6835 15.417 20.6125 15.4964H20.6125Z" fill="#1D1F21" style="fill: var(--ui-icon-primary-color);"/>
</svg>
