<svg  viewBox="0 0 24 24" fill="none" xmlns="http://www.w3.org/2000/svg" id="__THIS_ID_NEEDS_FOR_UI_ICON_COMPONENT__">
<path d="M21.737 7.51089C21.5258 7.27179 21.2662 7.08029 20.9754 6.94911C20.6846 6.81794 20.3692 6.75006 20.0502 6.75H14.9994V5.25C14.9983 4.25578 14.6029 3.30261 13.8999 2.5996C13.1968 1.89658 12.2437 1.50113 11.2494 1.5C11.1102 1.49999 10.9736 1.53877 10.8551 1.612C10.7367 1.68523 10.6409 1.79001 10.5786 1.9146L7.03592 9H2.99945C2.60177 9.00045 2.2205 9.15864 1.93929 9.43984C1.65809 9.72105 1.49991 10.1023 1.49945 10.5V18.75C1.49991 19.1477 1.65809 19.529 1.93929 19.8102C2.2205 20.0914 2.60177 20.2495 2.99945 20.25H18.9252C19.4734 20.2492 20.0025 20.0487 20.4135 19.6859C20.8245 19.3231 21.0891 18.8229 21.1579 18.2791L22.2829 9.27905C22.3224 8.96247 22.2941 8.64112 22.2 8.33629C22.1059 8.03146 21.9481 7.75011 21.737 7.51089ZM2.99945 10.5H6.74945V18.75H2.99945V10.5ZM20.7945 9.09302L19.6695 18.093C19.6466 18.2743 19.5583 18.441 19.4213 18.562C19.2843 18.6829 19.108 18.7498 18.9252 18.75H8.24945V9.92702L11.6912 3.04353C12.2008 3.14633 12.6593 3.42215 12.9888 3.82428C13.3184 4.2264 13.4988 4.73009 13.4994 5.25V7.5C13.4995 7.69891 13.5785 7.88967 13.7191 8.03032C13.8598 8.17097 14.0505 8.24999 14.2494 8.25H20.0502C20.1566 8.24999 20.2617 8.2726 20.3587 8.31632C20.4556 8.36005 20.5421 8.42389 20.6125 8.50362C20.6829 8.58334 20.7355 8.67713 20.7669 8.77875C20.7983 8.88036 20.8077 8.98749 20.7945 9.09302Z" fill="#1D1F21" style="fill: var(--ui-icon-primary-color);"/>
</svg>
