<svg  viewBox="0 0 24 24" fill="none" xmlns="http://www.w3.org/2000/svg" id="__THIS_ID_NEEDS_FOR_UI_ICON_COMPONENT__">
<path d="M21.2992 9.795C21.6377 9.72538 21.9419 9.5413 22.1605 9.27374C22.3792 9.00618 22.4991 8.67146 22.5 8.3259V6C22.4995 5.60231 22.3414 5.22105 22.0602 4.93984C21.779 4.65864 21.3977 4.50045 21 4.5H3C2.60231 4.50045 2.22105 4.65864 1.93984 4.93984C1.65864 5.22105 1.50045 5.60231 1.5 6V8.3259C1.50088 8.67146 1.62076 9.00618 1.83945 9.27374C2.05815 9.5413 2.36232 9.72538 2.70081 9.795C3.2088 9.89904 3.6653 10.1753 3.99312 10.5771C4.32095 10.9788 4.49999 11.4815 4.49999 12C4.49999 12.5185 4.32095 13.0212 3.99312 13.4229C3.6653 13.8247 3.2088 14.101 2.70081 14.205C2.36232 14.2746 2.05815 14.4587 1.83945 14.7263C1.62076 14.9938 1.50088 15.3285 1.5 15.6741V18C1.50045 18.3977 1.65864 18.779 1.93984 19.0602C2.22105 19.3414 2.60231 19.4995 3 19.5H21C21.3977 19.4995 21.779 19.3414 22.0602 19.0602C22.3414 18.779 22.4995 18.3977 22.5 18V15.6741C22.4991 15.3285 22.3792 14.9938 22.1605 14.7263C21.9419 14.4587 21.6377 14.2746 21.2992 14.205C20.7912 14.101 20.3347 13.8247 20.0069 13.4229C19.6791 13.0212 19.5 12.5185 19.5 12C19.5 11.4815 19.6791 10.9788 20.0069 10.5771C20.3347 10.1753 20.7912 9.89904 21.2992 9.795ZM3 15.6748C3.84691 15.5019 4.60808 15.0417 5.15475 14.3722C5.70141 13.7026 6 12.8647 6 12.0004C6 11.136 5.70141 10.2981 5.15475 9.62857C4.60808 8.959 3.84691 8.49883 3 8.3259V6H8.25V18H3V15.6748ZM21 15.6741V18H9.75V6H21L21.0009 8.32498C20.1539 8.49771 19.3925 8.95776 18.8457 9.62729C18.2988 10.2968 18.0001 11.1347 18 11.9992C17.9999 12.8636 18.2984 13.7016 18.8451 14.3713C19.3918 15.0409 20.153 15.5012 21 15.6741Z" fill="#1D1F21" style="fill: var(--ui-icon-primary-color);"/>
</svg>
