<svg  viewBox="0 0 24 24" fill="none" xmlns="http://www.w3.org/2000/svg" id="__THIS_ID_NEEDS_FOR_UI_ICON_COMPONENT__">
<g clip-path="url(#clip0)">
<path d="M11.9999 3C10.2199 3 8.47985 3.52784 6.99981 4.51677C5.51977 5.50571 4.36622 6.91131 3.68503 8.55585C3.00384 10.2004 2.82561 12.01 3.17288 13.7558C3.52014 15.5016 4.37731 17.1053 5.63598 18.364C6.89465 19.6226 8.4983 20.4798 10.2441 20.8271C11.99 21.1743 13.7996 20.9961 15.4441 20.3149C17.0886 19.6337 18.4942 18.4802 19.4832 17.0001C20.4721 15.5201 20.9999 13.78 20.9999 12C20.9972 9.61388 20.0482 7.32626 18.3609 5.63902C16.6737 3.95178 14.3861 3.0027 11.9999 3ZM11.9999 19.5C10.5166 19.5 9.06654 19.0601 7.83317 18.236C6.5998 17.4119 5.6385 16.2406 5.07085 14.8701C4.50319 13.4997 4.35466 11.9917 4.64405 10.5368C4.93344 9.08197 5.64775 7.74559 6.69664 6.6967C7.74554 5.64781 9.08191 4.9335 10.5368 4.64411C11.9916 4.35472 13.4996 4.50325 14.8701 5.0709C16.2405 5.63856 17.4119 6.59986 18.236 7.83322C19.0601 9.06659 19.4999 10.5166 19.4999 12C19.4977 13.9884 18.7068 15.8948 17.3008 17.3008C15.8947 18.7069 13.9884 19.4978 11.9999 19.5ZM16.2426 7.75736C16.3832 7.89801 16.4622 8.08877 16.4622 8.28767C16.4622 8.48658 16.3832 8.67734 16.2426 8.81799L12.5303 12.5303C12.3896 12.6708 12.1989 12.7497 12 12.7497C11.8012 12.7496 11.6105 12.6706 11.47 12.53C11.3294 12.3894 11.2504 12.1987 11.2503 11.9999C11.2502 11.8011 11.3291 11.6104 11.4696 11.4697L15.1819 7.75736C15.3226 7.61671 15.5134 7.5377 15.7123 7.5377C15.9112 7.5377 16.1019 7.61671 16.2426 7.75736ZM8.99994 0.75C8.99994 0.651508 9.01934 0.55398 9.05703 0.462984C9.09472 0.371989 9.14996 0.289308 9.21961 0.219664C9.28925 0.150019 9.37193 0.0947746 9.46293 0.0570846C9.55392 0.0193946 9.65145 -2.83146e-06 9.74994 3.10007e-10L14.2499 3.10007e-10C14.4489 3.10008e-10 14.6396 0.0790176 14.7803 0.21967C14.9209 0.360322 14.9999 0.551088 14.9999 0.75C14.9999 0.948912 14.9209 1.13968 14.7803 1.28033C14.6396 1.42098 14.4489 1.5 14.2499 1.5H9.74994C9.65145 1.5 9.55392 1.48061 9.46293 1.44292C9.37193 1.40523 9.28925 1.34998 9.21961 1.28034C9.14996 1.21069 9.09472 1.12801 9.05703 1.03702C9.01934 0.946021 8.99994 0.848492 8.99994 0.75Z" fill="#1D1F21" style="fill: var(--ui-icon-primary-color);"/>
</g>
<defs>
<clipPath id="clip0">
<rect  fill="white" style="fill: var(--ui-icon-secondary-color);"/>
</clipPath>
</defs>
</svg>
