<svg  viewBox="0 0 24 24" fill="none" xmlns="http://www.w3.org/2000/svg" id="__THIS_ID_NEEDS_FOR_UI_ICON_COMPONENT__">
<path d="M22.0298 6.4996C21.889 6.3425 21.7168 6.21682 21.5242 6.13074C21.3316 6.04466 21.1231 6.00011 20.9121 6H16.4364C16.2594 4.95148 15.7167 3.99956 14.9046 3.3131C14.0925 2.62664 13.0635 2.25 12.0001 2.25C10.9367 2.25 9.90775 2.62664 9.09565 3.3131C8.28355 3.99956 7.74084 4.95148 7.56378 6H3.08809C2.87713 6 2.66855 6.0445 2.47596 6.13059C2.28336 6.21668 2.1111 6.34242 1.9704 6.49961C1.82971 6.6568 1.72375 6.84189 1.65945 7.04281C1.59515 7.24373 1.57395 7.45595 1.59724 7.66562L2.93052 19.6657C2.97097 20.0327 3.1455 20.3718 3.42063 20.6181C3.69577 20.8643 4.05213 21.0003 4.42137 21H19.5788C19.9481 21.0003 20.3045 20.8643 20.5796 20.6181C20.8547 20.3718 21.0292 20.0326 21.0697 19.6656L22.403 7.66562C22.4261 7.45595 22.4049 7.24376 22.3406 7.04286C22.2763 6.84195 22.1704 6.65685 22.0298 6.4996ZM12.0001 3.75C12.665 3.75085 13.3109 3.97218 13.8365 4.37932C14.3622 4.78647 14.738 5.35644 14.9052 6H9.09504C9.26217 5.35644 9.63799 4.78647 10.1637 4.37932C10.6893 3.97218 11.3352 3.75085 12.0001 3.75ZM19.5795 19.5H4.42137L3.08809 7.5H20.9121L19.5795 19.5Z" fill="#1D1F21" style="fill: var(--ui-icon-primary-color);"/>
</svg>
