<svg  viewBox="0 0 24 24" fill="none" xmlns="http://www.w3.org/2000/svg" id="__THIS_ID_NEEDS_FOR_UI_ICON_COMPONENT__">
<path d="M20.9934 11.3481C20.9974 11.3174 20.9994 11.2864 20.9995 11.2554C20.9996 11.2491 20.9991 11.2429 20.999 11.2366C20.9986 11.2129 20.997 11.1891 20.9943 11.1652C20.9932 11.156 20.9921 11.147 20.9907 11.1379C20.9896 11.1305 20.9892 11.1232 20.9878 11.1158C20.9848 11.0989 20.9804 11.0827 20.9762 11.0663C20.9751 11.0618 20.9747 11.0571 20.9735 11.0527L20.9703 11.0412L20.9703 11.041L18.8742 3.35531C18.7871 3.03813 18.5984 2.75825 18.337 2.5586C18.0756 2.35895 17.756 2.25054 17.4271 2.25H6.57277C6.24386 2.25054 5.9242 2.35895 5.66281 2.5586C5.40143 2.75825 5.21274 3.03813 5.12569 3.35531L3.02959 11.0409L3.02946 11.0414L3.02638 11.0527C3.02517 11.0571 3.02478 11.0617 3.02365 11.0661C3.01951 11.0826 3.01509 11.0989 3.01201 11.1158C3.01067 11.1232 3.01025 11.1305 3.00914 11.1379C3.00776 11.147 3.00663 11.156 3.00559 11.1652C3.00284 11.1891 3.00126 11.2129 3.00084 11.2366C3.00073 11.2429 3.00026 11.2491 3.00031 11.2554C3.00043 11.2864 3.00249 11.3174 3.00648 11.3481C3.00673 11.35 3.00719 11.3519 3.00745 11.3538C3.0115 11.382 3.01717 11.4101 3.02443 11.4377C3.02526 11.4409 3.02551 11.4442 3.02638 11.4473L5.12569 19.1446C5.21273 19.4618 5.40141 19.7417 5.6628 19.9414C5.92418 20.141 6.24385 20.2494 6.57277 20.25H7.4999L6.14989 22.05C6.03055 22.2092 5.97931 22.4092 6.00745 22.6061C6.03559 22.803 6.1408 22.9807 6.29994 23.1C6.45908 23.2194 6.65911 23.2706 6.85603 23.2425C7.05295 23.2143 7.23062 23.1091 7.34996 22.95L9.37495 20.25H14.6249L16.6499 22.95C16.7692 23.1091 16.9469 23.2143 17.1438 23.2425C17.3407 23.2706 17.5408 23.2194 17.6999 23.1C17.859 22.9807 17.9643 22.803 17.9924 22.6061C18.0205 22.4092 17.9693 22.2092 17.85 22.05L16.4999 20.25H17.4271C17.756 20.2494 18.0757 20.141 18.3371 19.9414C18.5984 19.7417 18.7871 19.4618 18.8742 19.1446L20.9735 11.4473C20.9743 11.4442 20.9746 11.4409 20.9754 11.4377C20.9827 11.4101 20.9883 11.382 20.9924 11.3538C20.9927 11.3519 20.9931 11.35 20.9934 11.3481ZM6.5724 3.75H17.4271L19.3112 10.6584L11.9999 11.9877L4.68863 10.6584L6.5724 3.75ZM4.78661 12.2008L11.2499 13.3759V18.7499L6.57277 18.7499L4.78661 12.2008ZM17.4271 18.75L12.7499 18.75V13.3759L19.2132 12.2008L17.4271 18.75ZM8.24993 8.25C8.24993 8.05109 8.32895 7.86032 8.4696 7.71967C8.61025 7.57902 8.80101 7.5 8.99993 7.5H14.9999C15.1988 7.5 15.3896 7.57902 15.5303 7.71967C15.6709 7.86032 15.7499 8.05109 15.7499 8.25C15.7499 8.44891 15.6709 8.63968 15.5303 8.78033C15.3896 8.92098 15.1988 9 14.9999 9H8.99993C8.80101 9 8.61025 8.92098 8.4696 8.78033C8.32895 8.63968 8.24993 8.44891 8.24993 8.25Z" fill="#1D1F21" style="fill: var(--ui-icon-primary-color);"/>
</svg>
