<svg  viewBox="0 0 24 24" fill="none" xmlns="http://www.w3.org/2000/svg" id="__THIS_ID_NEEDS_FOR_UI_ICON_COMPONENT__">
<path d="M22.4208 19.9146L17.1708 9.41455C17.1085 9.28998 17.0128 9.18522 16.8943 9.112C16.7758 9.03878 16.6393 9 16.5 9C16.3607 9 16.2242 9.03878 16.1057 9.112C15.9872 9.18522 15.8915 9.28998 15.8292 9.41455L13.7951 13.4828C12.1992 13.394 10.6635 12.8436 9.37452 11.8985C10.886 10.285 11.8021 8.20435 11.9714 6H14.25C14.4489 6 14.6397 5.92098 14.7803 5.78033C14.921 5.63968 15 5.44891 15 5.25C15 5.05109 14.921 4.86032 14.7803 4.71967C14.6397 4.57902 14.4489 4.5 14.25 4.5H9V3C9 2.80109 8.92098 2.61032 8.78033 2.46967C8.63968 2.32902 8.44891 2.25 8.25 2.25C8.05109 2.25 7.86032 2.32902 7.71967 2.46967C7.57902 2.61032 7.5 2.80109 7.5 3V4.5H2.25C2.05109 4.5 1.86032 4.57902 1.71967 4.71967C1.57902 4.86032 1.5 5.05109 1.5 5.25C1.5 5.44891 1.57902 5.63968 1.71967 5.78033C1.86032 5.92098 2.05109 6 2.25 6H10.4656C10.2984 7.83802 9.51776 9.56638 8.24927 10.907C7.45937 10.073 6.85313 9.08266 6.46971 7.99988C6.43685 7.90703 6.38603 7.82156 6.32014 7.74836C6.25425 7.67515 6.17459 7.61564 6.0857 7.57323C5.99682 7.53081 5.90044 7.50631 5.80209 7.50114C5.70374 7.49597 5.60533 7.51021 5.51248 7.54307C5.41964 7.57593 5.33417 7.62676 5.26096 7.69264C5.18776 7.75853 5.12825 7.83819 5.08583 7.92708C5.04341 8.01597 5.01892 8.11234 5.01375 8.21069C5.00857 8.30905 5.02282 8.40746 5.05568 8.5003C5.50347 9.76455 6.20834 10.9223 7.12584 11.9006C5.71334 12.9413 4.00448 13.5018 2.25 13.5C2.05109 13.5 1.86032 13.579 1.71967 13.7197C1.57902 13.8603 1.5 14.0511 1.5 14.25C1.5 14.4489 1.57902 14.6397 1.71967 14.7803C1.86032 14.921 2.05109 15 2.25 15C4.42606 15.0022 6.53969 14.2728 8.25124 12.929C9.64784 14.0197 11.315 14.7098 13.0739 14.9252L10.5792 19.9145C10.4902 20.0925 10.4756 20.2984 10.5385 20.4871C10.6014 20.6758 10.7366 20.8318 10.9146 20.9208C11.0925 21.0098 11.2984 21.0244 11.4871 20.9615C11.6758 20.8986 11.8318 20.7634 11.9208 20.5854L13.2135 18H19.7865L21.0792 20.5854C21.1682 20.7634 21.3242 20.8986 21.5129 20.9615C21.7016 21.0244 21.9075 21.0098 22.0854 20.9208C22.2634 20.8318 22.3986 20.6758 22.4615 20.4871C22.5244 20.2984 22.5098 20.0925 22.4208 19.9146ZM13.9635 16.5L16.5 11.4271L19.0365 16.5H13.9635Z" fill="#1D1F21" style="fill: var(--ui-icon-primary-color);"/>
</svg>
