<svg  viewBox="0 0 24 24" fill="none" xmlns="http://www.w3.org/2000/svg" id="__THIS_ID_NEEDS_FOR_UI_ICON_COMPONENT__">
<path d="M20.2496 4.5H16.5V3.75C16.4993 3.15347 16.2621 2.58157 15.8402 2.15975C15.4184 1.73794 14.8465 1.50067 14.25 1.5H9.75C9.15347 1.50067 8.58157 1.73794 8.15976 2.15975C7.73794 2.58157 7.50067 3.15347 7.5 3.75V4.5H3.74963C3.55072 4.5 3.35996 4.57902 3.2193 4.71967C3.07865 4.86032 2.99963 5.05109 2.99963 5.25C2.99963 5.44891 3.07865 5.63968 3.2193 5.78033C3.35996 5.92098 3.55072 6 3.74963 6H4.49963V19.5C4.50009 19.8977 4.65827 20.279 4.93948 20.5602C5.22068 20.8414 5.60195 20.9995 5.99963 21H17.9996C18.3973 20.9995 18.7786 20.8414 19.0598 20.5602C19.341 20.279 19.4992 19.8977 19.4996 19.5V6H20.2496C20.4485 6 20.6393 5.92098 20.78 5.78033C20.9206 5.63968 20.9996 5.44891 20.9996 5.25C20.9996 5.05109 20.9206 4.86032 20.78 4.71967C20.6393 4.57902 20.4485 4.5 20.2496 4.5ZM9 3.75C9.00023 3.55116 9.07932 3.36052 9.21992 3.21992C9.36052 3.07932 9.55116 3.00023 9.75 3H14.25C14.4488 3.00023 14.6395 3.07932 14.7801 3.21992C14.9207 3.36052 14.9998 3.55116 15 3.75V4.5H9V3.75ZM17.9996 19.5H5.99963V6H17.9996V19.5ZM10.5 9.75V15.75C10.5 15.9489 10.421 16.1397 10.2803 16.2803C10.1397 16.421 9.94891 16.5 9.75 16.5C9.55109 16.5 9.36032 16.421 9.21967 16.2803C9.07902 16.1397 9 15.9489 9 15.75V9.75C9 9.55109 9.07902 9.36032 9.21967 9.21967C9.36032 9.07902 9.55109 9 9.75 9C9.94891 9 10.1397 9.07902 10.2803 9.21967C10.421 9.36032 10.5 9.55109 10.5 9.75ZM15 9.75V15.75C15 15.9489 14.921 16.1397 14.7803 16.2803C14.6397 16.421 14.4489 16.5 14.25 16.5C14.0511 16.5 13.8603 16.421 13.7197 16.2803C13.579 16.1397 13.5 15.9489 13.5 15.75V9.75C13.5 9.55109 13.579 9.36032 13.7197 9.21967C13.8603 9.07902 14.0511 9 14.25 9C14.4489 9 14.6397 9.07902 14.7803 9.21967C14.921 9.36032 15 9.55109 15 9.75Z" fill="#1D1F21" style="fill: var(--ui-icon-primary-color);"/>
</svg>
