<svg  viewBox="0 0 24 24" fill="none" xmlns="http://www.w3.org/2000/svg" id="__THIS_ID_NEEDS_FOR_UI_ICON_COMPONENT__">
<path d="M19.5 3H4.5C4.10231 3.00045 3.72105 3.15864 3.43984 3.43984C3.15864 3.72105 3.00045 4.10231 3 4.5V14.9891C2.99995 14.9928 2.99945 14.9963 2.99945 15C2.99945 15.0037 2.99995 15.0072 3 15.0109V19.5C3.00045 19.8977 3.15864 20.279 3.43984 20.5602C3.72105 20.8414 4.10231 20.9995 4.5 21H19.5C19.8977 20.9995 20.279 20.8414 20.5602 20.5602C20.8414 20.279 20.9995 19.8977 21 19.5V4.5C20.9995 4.10231 20.8414 3.72105 20.5602 3.43984C20.279 3.15864 19.8977 3.00045 19.5 3ZM19.5 4.5L19.5006 14.25H16.8101C16.613 14.2495 16.4178 14.288 16.2358 14.3634C16.0537 14.4389 15.8884 14.5496 15.7495 14.6894L13.9388 16.5L10.0601 16.5001L8.2494 14.6893C8.11044 14.5496 7.94515 14.4388 7.7631 14.3634C7.58105 14.288 7.38586 14.2495 7.18881 14.25H4.5V4.5H19.5ZM19.5 19.5H4.5V15.75L7.18877 15.7499L8.9995 17.5607C9.13846 17.7004 9.30375 17.8112 9.4858 17.8866C9.66785 17.962 9.86304 18.0005 10.0601 18H13.9388C14.1359 18.0005 14.3311 17.962 14.5131 17.8866C14.6952 17.8111 14.8605 17.7004 14.9994 17.5606L16.8101 15.75H19.5007L19.5009 19.5H19.5Z" fill="#1D1F21" style="fill: var(--ui-icon-primary-color);"/>
</svg>
