<svg  viewBox="0 0 24 24" fill="none" xmlns="http://www.w3.org/2000/svg" id="__THIS_ID_NEEDS_FOR_UI_ICON_COMPONENT__">
<path d="M21.857 19.4915C21.8461 19.4931 21.8354 19.4952 21.8243 19.4963C21.7997 19.4987 21.775 19.5 21.7503 19.5H15.7503C15.5514 19.5 15.3606 19.421 15.2199 19.2803C15.0793 19.1397 15.0003 18.9489 15.0003 18.75C15.0003 18.5511 15.0793 18.3603 15.2199 18.2197C15.3606 18.079 15.5514 18 15.7503 18H19.9396L12.7503 10.8107L9.53063 14.0303C9.38996 14.171 9.19918 14.25 9.00026 14.25C8.80134 14.25 8.61057 14.171 8.4699 14.0303L1.7199 7.28034C1.57925 7.13968 1.50024 6.9489 1.50024 6.74999C1.50025 6.65149 1.51965 6.55397 1.55735 6.46297C1.59504 6.37198 1.65029 6.2893 1.71994 6.21965C1.78959 6.15001 1.87227 6.09477 1.96327 6.05708C2.05427 6.01939 2.1518 6 2.25029 6C2.44921 6.00001 2.63998 6.07904 2.78063 6.2197L9.00026 12.4393L12.2199 9.21969C12.3606 9.07905 12.5513 9.00004 12.7503 9.00004C12.9492 9.00004 13.14 9.07905 13.2806 9.21969L21.0003 16.9393V12.75C21.0003 12.5511 21.0793 12.3603 21.2199 12.2197C21.3606 12.079 21.5513 12 21.7503 12C21.9492 12 22.1399 12.079 22.2806 12.2197C22.4212 12.3603 22.5003 12.5511 22.5003 12.75V18.7495C22.5003 18.7745 22.499 18.7994 22.4965 18.8243C22.4955 18.8344 22.4936 18.8442 22.4922 18.8541C22.4902 18.8684 22.4885 18.8827 22.4857 18.8968C22.4833 18.9087 22.4801 18.9201 22.4771 18.9317C22.4742 18.9439 22.4715 18.956 22.4679 18.968C22.4644 18.9795 22.46 18.9906 22.456 19.0018C22.4518 19.0137 22.4479 19.0256 22.443 19.0373C22.4387 19.0477 22.4336 19.0577 22.4289 19.0678C22.4232 19.0799 22.4179 19.092 22.4115 19.1038C22.4063 19.1135 22.4005 19.1226 22.3949 19.132C22.388 19.1436 22.3814 19.1553 22.3738 19.1666C22.3669 19.1769 22.3592 19.1866 22.3519 19.1965C22.3447 19.2062 22.3379 19.2161 22.3301 19.2256C22.3162 19.2425 22.3014 19.2587 22.286 19.2743C22.2842 19.2763 22.2826 19.2784 22.2806 19.2803C22.2791 19.2818 22.2774 19.2831 22.2759 19.2846C22.2598 19.3004 22.2432 19.3156 22.2257 19.33C22.2169 19.3372 22.2075 19.3436 22.1984 19.3504C22.1879 19.3582 22.1776 19.3664 22.1667 19.3737C22.156 19.3809 22.1448 19.3871 22.1338 19.3937C22.1238 19.3997 22.1141 19.4059 22.1038 19.4114C22.0926 19.4174 22.081 19.4225 22.0695 19.4279C22.0588 19.433 22.0483 19.4383 22.0373 19.4429C22.0262 19.4475 22.0149 19.4512 22.0036 19.4552C21.9918 19.4595 21.9801 19.464 21.968 19.4677C21.9567 19.4711 21.9453 19.4735 21.934 19.4764C21.9217 19.4795 21.9094 19.483 21.8968 19.4855C21.8837 19.4881 21.8703 19.4896 21.857 19.4915Z" fill="#1D1F21" style="fill: var(--ui-icon-primary-color);"/>
</svg>
