<svg  viewBox="0 0 24 24" fill="none" xmlns="http://www.w3.org/2000/svg" id="__THIS_ID_NEEDS_FOR_UI_ICON_COMPONENT__">
<path d="M23.2497 11.2445C23.2496 11.2366 23.2488 11.2287 23.2485 11.2208C23.2477 11.2 23.2463 11.1793 23.2439 11.1589C23.2428 11.1501 23.2412 11.1413 23.2398 11.1325C23.2366 11.1122 23.2327 11.0923 23.2279 11.0725C23.226 11.0646 23.224 11.0567 23.2218 11.0488C23.2155 11.0262 23.2082 11.0041 23.1999 10.9824C23.1985 10.9788 23.1977 10.9751 23.1963 10.9714L23.1916 10.9599L23.1906 10.9573L21.8849 7.6929C21.7744 7.41399 21.5824 7.17485 21.334 7.00666C21.0855 6.83847 20.7922 6.74903 20.4922 6.75H17.2499V6C17.2499 5.80109 17.1709 5.61033 17.0303 5.46968C16.8896 5.32903 16.6988 5.25001 16.4999 5.25H2.24994C1.85225 5.25045 1.47099 5.40864 1.18978 5.68984C0.908575 5.97105 0.750394 6.35231 0.749939 6.75V17.25C0.750394 17.6477 0.908575 18.029 1.18978 18.3102C1.47099 18.5914 1.85225 18.7495 2.24994 18.75H3.46988C3.63623 19.394 4.01185 19.9644 4.53769 20.3717C5.06354 20.779 5.70982 21 6.37494 21C7.04006 21 7.68634 20.779 8.21218 20.3717C8.73803 19.9644 9.11365 19.394 9.28 18.75H14.7199C14.8862 19.394 15.2618 19.9644 15.7877 20.3717C16.3135 20.779 16.9598 21 17.6249 21C18.2901 21 18.9363 20.779 19.4622 20.3717C19.988 19.9644 20.3636 19.394 20.53 18.75H21.7499C22.1476 18.7495 22.5289 18.5914 22.8101 18.3102C23.0913 18.029 23.2495 17.6477 23.2499 17.25V11.25C23.2499 11.2481 23.2497 11.2463 23.2497 11.2445ZM20.4922 8.25L21.3922 10.5H17.2499V8.25H20.4922ZM15.7499 6.75V12.75H2.24994V6.75H15.7499ZM2.24994 14.25H15.7499V15.6606C15.2443 16.0656 14.883 16.6231 14.7199 17.25H9.28C9.11365 16.606 8.73803 16.0356 8.21218 15.6283C7.68634 15.221 7.04006 15 6.37494 15C5.70982 15 5.06354 15.221 4.5377 15.6283C4.01185 16.0356 3.63623 16.606 3.46988 17.25H2.24994L2.24994 14.25ZM6.37494 19.5C6.07827 19.5 5.78826 19.412 5.54158 19.2472C5.29491 19.0824 5.10265 18.8481 4.98912 18.574C4.87559 18.2999 4.84588 17.9983 4.90376 17.7074C4.96164 17.4164 5.1045 17.1491 5.31428 16.9393C5.52406 16.7296 5.79133 16.5867 6.0823 16.5288C6.37327 16.4709 6.67487 16.5006 6.94896 16.6142C7.22305 16.7277 7.45732 16.92 7.62214 17.1666C7.78697 17.4133 7.87494 17.7033 7.87494 18C7.87448 18.3977 7.7163 18.779 7.4351 19.0602C7.15389 19.3414 6.77262 19.4995 6.37494 19.5H6.37494ZM17.6249 19.5C17.3283 19.5 17.0383 19.412 16.7916 19.2472C16.5449 19.0824 16.3527 18.8481 16.2391 18.574C16.1256 18.2999 16.0959 17.9983 16.1538 17.7074C16.2116 17.4164 16.3545 17.1491 16.5643 16.9393C16.7741 16.7296 17.0413 16.5867 17.3323 16.5288C17.6233 16.4709 17.9249 16.5006 18.199 16.6142C18.4731 16.7277 18.7073 16.92 18.8721 17.1666C19.037 17.4133 19.1249 17.7033 19.1249 18C19.1245 18.3977 18.9663 18.779 18.6851 19.0602C18.4039 19.3414 18.0226 19.4995 17.6249 19.5H17.6249ZM21.7499 17.25H20.53C20.3487 16.5429 19.9152 15.9263 19.3112 15.5164C18.7071 15.1065 17.974 14.9315 17.2499 15.0243V12H21.7499L21.7499 17.25Z" fill="#1D1F21" style="fill: var(--ui-icon-primary-color);"/>
</svg>
