<svg  viewBox="0 0 24 24" fill="none" xmlns="http://www.w3.org/2000/svg" id="__THIS_ID_NEEDS_FOR_UI_ICON_COMPONENT__">
<path d="M6.74987 23.25C6.65138 23.25 6.55387 23.2306 6.46288 23.1929C6.37189 23.1552 6.28923 23.1 6.21959 23.0303C6.14996 22.9607 6.09473 22.878 6.05705 22.787C6.01937 22.696 5.99999 22.5985 6 22.5V19.5H4.5C4.10231 19.4995 3.72105 19.3414 3.43984 19.0602C3.15863 18.779 3.00045 18.3977 3 18V4.5C3.00045 4.10231 3.15863 3.72105 3.43984 3.43984C3.72105 3.15863 4.10231 3.00045 4.5 3H19.5C19.8977 3.00045 20.279 3.15863 20.5602 3.43984C20.8414 3.72105 20.9995 4.10231 21 4.5V14.6487C21.0003 14.8687 20.9521 15.086 20.8588 15.2852C20.7654 15.4844 20.6294 15.6605 20.4602 15.8011L16.4387 19.1523C16.1691 19.3767 15.8293 19.4998 15.4785 19.5H11.5215L7.23013 23.0761C7.09532 23.1885 6.92537 23.25 6.74987 23.25ZM4.5 4.5V18H6.75C6.94891 18 7.13967 18.079 7.28032 18.2197C7.42098 18.3603 7.5 18.5511 7.5 18.75V20.8987L10.5613 18.3477C10.8309 18.1233 11.1707 18.0002 11.5215 18H15.4785L19.5 14.6487V4.5H4.5Z" fill="#1D1F21" style="fill: var(--ui-icon-primary-color);"/>
<path d="M15.75 13.5C15.5511 13.5 15.3603 13.421 15.2197 13.2803C15.079 13.1397 15 12.9489 15 12.75V8.25C15 8.05109 15.079 7.86032 15.2197 7.71967C15.3603 7.57902 15.5511 7.5 15.75 7.5C15.9489 7.5 16.1397 7.57902 16.2803 7.71967C16.421 7.86032 16.5 8.05109 16.5 8.25V12.75C16.5 12.9489 16.421 13.1397 16.2803 13.2803C16.1397 13.421 15.9489 13.5 15.75 13.5Z" fill="#1D1F21" style="fill: var(--ui-icon-primary-color);"/>
<path d="M11.25 13.5C11.0511 13.5 10.8603 13.421 10.7197 13.2803C10.579 13.1397 10.5 12.9489 10.5 12.75V8.25C10.5 8.05109 10.579 7.86032 10.7197 7.71967C10.8603 7.57902 11.0511 7.5 11.25 7.5C11.4489 7.5 11.6397 7.57902 11.7803 7.71967C11.921 7.86032 12 8.05109 12 8.25V12.75C12 12.9489 11.921 13.1397 11.7803 13.2803C11.6397 13.421 11.4489 13.5 11.25 13.5Z" fill="#1D1F21" style="fill: var(--ui-icon-primary-color);"/>
</svg>
