<svg  viewBox="0 0 24 24" fill="none" xmlns="http://www.w3.org/2000/svg" id="__THIS_ID_NEEDS_FOR_UI_ICON_COMPONENT__">
<path d="M7.49985 20.9999C5.33855 21.0001 3.21258 20.4515 1.32133 19.4053C1.1769 19.325 1.06301 19.1992 0.997347 19.0475C0.931679 18.8958 0.917899 18.7267 0.958142 18.5664C0.998385 18.4061 1.0904 18.2636 1.21992 18.1609C1.34944 18.0582 1.50923 18.0011 1.67449 17.9985C3.50954 17.9729 5.31018 17.4967 6.91797 16.6118C5.00721 15.0435 3.59272 12.9543 2.84615 10.5978C2.09958 8.24127 2.05304 5.71872 2.71216 3.33626C2.75073 3.19713 2.82864 3.07209 2.93654 2.97615C3.04443 2.88021 3.17772 2.81745 3.32041 2.79541C3.4631 2.77337 3.60912 2.79298 3.74093 2.85189C3.87274 2.9108 3.98475 3.00651 4.06351 3.12752C4.87514 4.38096 5.92881 5.45979 7.16275 6.30077C8.3967 7.14176 9.78609 7.72798 11.2495 8.02509C11.2748 7.08128 11.5964 6.16934 12.1686 5.41835C12.7408 4.66736 13.5348 4.11537 14.438 3.8405C15.3413 3.56563 16.3081 3.58181 17.2016 3.88675C18.0952 4.19169 18.8702 4.76994 19.417 5.53966C20.3854 5.47467 21.3415 5.28515 22.2615 4.97579C22.4112 4.9255 22.5729 4.92374 22.7236 4.97075C22.8744 5.01777 23.0064 5.11116 23.101 5.23762C23.1955 5.36408 23.2478 5.51715 23.2502 5.67504C23.2527 5.83292 23.2053 5.98755 23.1147 6.1169C22.3193 7.256 21.3425 8.25702 20.2232 9.08014C20.0122 12.3111 18.5799 15.3407 16.2171 17.5543C13.8542 19.768 10.7377 20.9998 7.49985 20.9999ZM4.59882 19.1204C5.54529 19.3721 6.52048 19.4997 7.49985 19.4999C10.4136 19.4998 13.2137 18.3693 15.3107 16.3463C17.4077 14.3233 18.6381 11.5656 18.7427 8.65373C18.7469 8.53687 18.7782 8.42259 18.8344 8.32002C18.8905 8.21745 18.9699 8.12943 19.0661 8.06299C19.5543 7.72596 20.0149 7.35053 20.4434 6.94028C19.9783 7.00569 19.51 7.04544 19.0405 7.05934C18.9012 7.06347 18.7634 7.02867 18.6427 6.95884C18.522 6.889 18.4232 6.78691 18.3573 6.66402C18.0043 6.04401 17.4419 5.57006 16.771 5.32715C16.1002 5.08424 15.3647 5.08827 14.6966 5.33851C14.0284 5.58875 13.4713 6.06884 13.125 6.69267C12.7788 7.31651 12.6661 8.04328 12.8072 8.74267C12.8354 8.86154 12.8342 8.9855 12.8036 9.10378C12.7731 9.22206 12.7141 9.3311 12.6318 9.42142C12.5496 9.51173 12.4465 9.5806 12.3316 9.62204C12.2166 9.66348 12.0933 9.67624 11.9723 9.65921C8.81394 9.2838 5.91153 7.73644 3.83949 5.32332C3.77972 5.79648 3.74978 6.27293 3.74985 6.74985C3.74984 8.58432 4.19834 10.391 5.05628 12.0125C5.91423 13.634 7.1556 15.0211 8.67228 16.0531C8.77324 16.1219 8.85585 16.2143 8.91295 16.3223C8.97005 16.4303 8.99989 16.5507 8.99989 16.6728C8.99989 16.795 8.97005 16.9153 8.91295 17.0234C8.85585 17.1314 8.77324 17.2238 8.67228 17.2926C7.43325 18.138 6.05405 18.7568 4.59882 19.1204Z" fill="#1D1F21" style="fill: var(--ui-icon-primary-color);"/>
</svg>
