<svg  viewBox="0 0 24 24" fill="none" xmlns="http://www.w3.org/2000/svg" id="__THIS_ID_NEEDS_FOR_UI_ICON_COMPONENT__">
<path d="M7.53218 8.21538C7.46253 8.14573 7.40728 8.06305 7.36958 7.97205C7.33189 7.88105 7.31249 7.78351 7.31249 7.68501C7.31249 7.58651 7.33189 7.48898 7.36958 7.39798C7.40728 7.30698 7.46253 7.2243 7.53218 7.15465L11.4697 3.21715C11.6104 3.07654 11.8011 2.99756 12 2.99756C12.1989 2.99756 12.3896 3.07654 12.5303 3.21715L16.4678 7.15465C16.6085 7.2953 16.6875 7.48606 16.6875 7.68498C16.6875 7.8839 16.6085 8.07467 16.4679 8.21533C16.3272 8.35599 16.1364 8.43502 15.9375 8.43503C15.7386 8.43504 15.5478 8.35603 15.4072 8.21538L12.75 5.55816V14.2503C12.75 14.4492 12.671 14.6399 12.5303 14.7806C12.3897 14.9212 12.1989 15.0003 12 15.0003C11.8011 15.0003 11.6103 14.9212 11.4697 14.7806C11.329 14.6399 11.25 14.4492 11.25 14.2503V5.55816L8.59282 8.21538C8.45215 8.35598 8.26139 8.43497 8.0625 8.43497C7.86361 8.43497 7.67285 8.35598 7.53218 8.21538ZM21 12.0003C20.8011 12.0003 20.6103 12.0793 20.4697 12.2199C20.329 12.3606 20.25 12.5513 20.25 12.7503V19.5003H3.75V12.7503C3.75 12.5513 3.67098 12.3606 3.53033 12.2199C3.38968 12.0793 3.19891 12.0003 3 12.0003C2.80109 12.0003 2.61032 12.0793 2.46967 12.2199C2.32902 12.3606 2.25 12.5513 2.25 12.7503V19.5003C2.25045 19.8979 2.40864 20.2792 2.68984 20.5604C2.97105 20.8416 3.35231 20.9998 3.75 21.0003H20.25C20.6477 20.9998 21.029 20.8416 21.3102 20.5604C21.5914 20.2792 21.7495 19.8979 21.75 19.5003V12.7503C21.75 12.5513 21.671 12.3606 21.5303 12.2199C21.3897 12.0793 21.1989 12.0003 21 12.0003Z" fill="#1D1F21" style="fill: var(--ui-icon-primary-color);"/>
</svg>
