<svg  viewBox="0 0 24 24" fill="none" xmlns="http://www.w3.org/2000/svg" id="__THIS_ID_NEEDS_FOR_UI_ICON_COMPONENT__">
<path d="M21.3983 5.91298L20.9617 5.66091C21.0127 5.38935 21.0127 5.11065 20.9617 4.83909L21.3983 4.58702C21.4836 4.53777 21.5583 4.47221 21.6183 4.39407C21.6782 4.31593 21.7222 4.22675 21.7477 4.13162C21.7732 4.03648 21.7797 3.93725 21.7669 3.83961C21.754 3.74196 21.722 3.6478 21.6728 3.5625C21.6235 3.4772 21.558 3.40244 21.4798 3.34248C21.4017 3.28253 21.3125 3.23855 21.2174 3.21305C21.1223 3.18756 21.023 3.18106 20.9254 3.19391C20.8277 3.20677 20.7336 3.23873 20.6483 3.28798L20.2106 3.54066C20.001 3.36101 19.7601 3.22147 19.5 3.129V2.625C19.5 2.42609 19.421 2.23532 19.2803 2.09467C19.1397 1.95402 18.9489 1.875 18.75 1.875C18.5511 1.875 18.3603 1.95402 18.2196 2.09467C18.079 2.23532 18 2.42609 18 2.625V3.129C17.7398 3.22147 17.4989 3.36101 17.2893 3.54067L16.8517 3.28798C16.7664 3.23874 16.6722 3.20677 16.5746 3.19392C16.4769 3.18106 16.3777 3.18756 16.2826 3.21306C16.0904 3.26454 15.9266 3.39024 15.8272 3.5625C15.7277 3.73477 15.7007 3.93948 15.7522 4.13162C15.8037 4.32375 15.9294 4.48757 16.1017 4.58702L16.5382 4.83909C16.4872 5.11066 16.4872 5.38935 16.5382 5.66091L16.1017 5.91298C15.9294 6.01244 15.8037 6.17625 15.7522 6.36839C15.7007 6.56052 15.7277 6.76524 15.8272 6.9375C15.9266 7.10977 16.0904 7.23547 16.2826 7.28695C16.4747 7.33843 16.6794 7.31148 16.8517 7.21202L17.2893 6.95934C17.4989 7.13899 17.7398 7.27853 18 7.371V7.875C18 8.07391 18.079 8.26468 18.2196 8.40533C18.3603 8.54598 18.5511 8.625 18.75 8.625C18.9489 8.625 19.1397 8.54598 19.2803 8.40533C19.421 8.26468 19.5 8.07391 19.5 7.875V7.371C19.7601 7.27853 20.001 7.13899 20.2106 6.95933L20.6483 7.21202C20.7336 7.26126 20.8277 7.29323 20.9254 7.30608C21.023 7.31894 21.1223 7.31244 21.2174 7.28694C21.3125 7.26145 21.4017 7.21747 21.4798 7.15751C21.558 7.09756 21.6235 7.02279 21.6728 6.9375C21.722 6.8522 21.754 6.75804 21.7669 6.66039C21.7797 6.56274 21.7732 6.46352 21.7477 6.36838C21.7222 6.27325 21.6782 6.18406 21.6183 6.10593C21.5583 6.02779 21.4836 5.96222 21.3983 5.91298V5.91298ZM18 5.25C18 5.10166 18.044 4.95666 18.1264 4.83332C18.2088 4.70999 18.3259 4.61386 18.463 4.55709C18.6 4.50032 18.7508 4.48547 18.8963 4.51441C19.0418 4.54335 19.1754 4.61478 19.2803 4.71967C19.3852 4.82456 19.4566 4.9582 19.4856 5.10368C19.5145 5.24917 19.4996 5.39997 19.4429 5.53701C19.3861 5.67406 19.29 5.79119 19.1667 5.8736C19.0433 5.95601 18.8983 6 18.75 6C18.5511 5.99977 18.3605 5.92068 18.2199 5.78008C18.0793 5.63948 18.0002 5.44884 18 5.25ZM20.8472 10.1772C20.7494 10.1888 20.6548 10.2197 20.5689 10.2679C20.4831 10.3161 20.4075 10.3807 20.3466 10.4582C20.2857 10.5356 20.2407 10.6242 20.214 10.719C20.1874 10.8139 20.1797 10.913 20.1914 11.0108C20.2304 11.3391 20.25 11.6694 20.25 12C20.2515 14.0196 19.5092 15.969 18.1648 17.476C17.3288 16.2637 16.1526 15.326 14.7845 14.7811C15.5193 14.2023 16.0555 13.4089 16.3185 12.5112C16.5815 11.6136 16.5582 10.6563 16.2519 9.77252C15.9456 8.88872 15.3716 8.12233 14.6095 7.57991C13.8475 7.0375 12.9354 6.74602 12 6.74602C11.0646 6.74601 10.1525 7.03748 9.39048 7.57989C8.62844 8.1223 8.05436 8.88869 7.74807 9.77249C7.44178 10.6563 7.41851 11.6136 7.68148 12.5112C7.94446 13.4088 8.48062 14.2022 9.2154 14.781C7.84731 15.3259 6.67114 16.2636 5.83513 17.476C4.77809 16.2879 4.08718 14.8195 3.84564 13.2477C3.6041 11.6759 3.82224 10.0678 4.47378 8.61711C5.12532 7.16646 6.18245 5.93518 7.5178 5.07162C8.85315 4.20807 10.4097 3.74909 12 3.75C12.2556 3.75 12.5134 3.76181 12.7664 3.78509C12.9644 3.80316 13.1614 3.74188 13.3143 3.61472C13.4671 3.48756 13.5632 3.30492 13.5814 3.10694C13.5996 2.90896 13.5385 2.71184 13.4115 2.55892C13.2844 2.40599 13.1018 2.30976 12.9039 2.29138C12.6055 2.26392 12.3013 2.25 12 2.25C10.0348 2.24908 8.11533 2.84227 6.49335 3.95175C4.87137 5.06122 3.62269 6.63512 2.91118 8.46693C2.19967 10.2987 2.05857 12.3028 2.5064 14.2163C2.95422 16.1297 3.97005 17.863 5.42058 19.1888C5.45768 19.2305 5.49937 19.2679 5.54484 19.3003C7.32478 20.8786 9.62124 21.75 12.0001 21.75C14.379 21.75 16.6754 20.8784 18.4553 19.3001C18.5006 19.2679 18.5421 19.2306 18.579 19.1892C19.5785 18.2773 20.3768 17.1669 20.9228 15.929C21.4688 14.6911 21.7505 13.353 21.75 12C21.75 11.61 21.7268 11.2203 21.6808 10.833C21.6572 10.6355 21.5561 10.4554 21.3998 10.3324C21.2434 10.2095 21.0447 10.1536 20.8472 10.1772ZM8.99997 11.25C8.99997 10.6567 9.17592 10.0766 9.50557 9.58329C9.83521 9.08994 10.3037 8.70542 10.8519 8.47836C11.4001 8.2513 12.0033 8.19189 12.5852 8.30764C13.1672 8.4234 13.7017 8.70912 14.1213 9.12868C14.5409 9.54824 14.8266 10.0828 14.9423 10.6647C15.0581 11.2467 14.9987 11.8499 14.7716 12.3981C14.5445 12.9462 14.16 13.4148 13.6667 13.7444C13.1733 14.0741 12.5933 14.25 12 14.25C11.2046 14.2491 10.4421 13.9327 9.87965 13.3703C9.31723 12.8079 9.00087 12.0454 8.99997 11.25ZM6.94528 18.5155C7.48823 17.6676 8.23578 16.9698 9.11909 16.4866C10.0024 16.0033 10.9931 15.75 12 15.75C13.0068 15.75 13.9975 16.0033 14.8808 16.4866C15.7642 16.9699 16.5117 17.6676 17.0546 18.5155C15.6095 19.6397 13.8309 20.25 12 20.25C10.1691 20.25 8.39042 19.6397 6.94528 18.5155Z" fill="#1D1F21" style="fill: var(--ui-icon-primary-color);"/>
</svg>
