<svg  viewBox="0 0 24 24" fill="none" xmlns="http://www.w3.org/2000/svg" id="__THIS_ID_NEEDS_FOR_UI_ICON_COMPONENT__">
<path d="M15.75 5.25C15.75 5.05109 15.829 4.86032 15.9697 4.71967C16.1103 4.57902 16.3011 4.5 16.5 4.5H21C21.1989 4.5 21.3897 4.57902 21.5303 4.71967C21.671 4.86032 21.75 5.05109 21.75 5.25C21.75 5.44891 21.671 5.63968 21.5303 5.78033C21.3897 5.92098 21.1989 6 21 6H16.5C16.3011 6 16.1103 5.92098 15.9697 5.78033C15.829 5.63968 15.75 5.44891 15.75 5.25ZM21.195 8.75006C21.8314 10.5548 21.9227 12.507 21.4575 14.3633C20.9923 16.2196 19.9912 17.898 18.5789 19.1893C18.542 19.2307 18.5006 19.2679 18.4555 19.3C16.6756 20.8784 14.3791 21.7499 12.0002 21.75C9.62133 21.75 7.32485 20.8786 5.54489 19.3003C5.4994 19.2679 5.45769 19.2305 5.42056 19.1888C3.97005 17.863 2.95423 16.1297 2.50642 14.2162C2.0586 12.3028 2.19971 10.2987 2.91122 8.46691C3.62273 6.63511 4.87141 5.06121 6.49339 3.95174C8.11537 2.84228 10.0349 2.24908 12 2.25C12.5146 2.24998 13.0284 2.29028 13.5367 2.37053C13.7331 2.40174 13.9091 2.50966 14.0259 2.67057C14.1427 2.83148 14.1909 3.0322 14.1598 3.2286C14.1286 3.425 14.0208 3.60101 13.8599 3.71791C13.6991 3.83482 13.4984 3.88307 13.302 3.85204C12.8713 3.78408 12.436 3.74996 12 3.75C10.4098 3.74909 8.85318 4.20807 7.51783 5.07162C6.18248 5.93518 5.12535 7.16646 4.47381 8.61711C3.82227 10.0678 3.60412 11.6759 3.84566 13.2477C4.0872 14.8195 4.77812 16.2879 5.83516 17.476C6.67118 16.2637 7.84735 15.3259 9.21542 14.781C8.48066 14.2022 7.94452 13.4088 7.68155 12.5112C7.41859 11.6136 7.44187 10.6563 7.74816 9.77251C8.05445 8.88873 8.62853 8.12235 9.39057 7.57995C10.1526 7.03756 11.0647 6.7461 12.0001 6.7461C12.9354 6.74611 13.8475 7.03759 14.6096 7.58C15.3716 8.12241 15.9456 8.88879 16.2519 9.77258C16.5582 10.6564 16.5815 11.6136 16.3185 12.5113C16.0555 13.4089 15.5194 14.2023 14.7846 14.7811C16.1527 15.326 17.3288 16.2637 18.1648 17.476C19.1445 16.3742 19.8111 15.0301 20.0953 13.5834C20.3794 12.1368 20.2708 10.6404 19.7807 9.24994C19.7145 9.0624 19.7254 8.8562 19.8111 8.67672C19.8969 8.49723 20.0504 8.35916 20.2379 8.29287C20.4255 8.22658 20.6317 8.23751 20.8112 8.32325C20.9906 8.40899 21.1287 8.56252 21.195 8.75006ZM12 14.25C12.5933 14.25 13.1734 14.0741 13.6667 13.7444C14.1601 13.4148 14.5446 12.9462 14.7716 12.398C14.9987 11.8499 15.0581 11.2467 14.9424 10.6647C14.8266 10.0828 14.5409 9.54824 14.1213 9.12868C13.7018 8.70912 13.1672 8.4234 12.5853 8.30764C12.0033 8.19189 11.4001 8.2513 10.8519 8.47836C10.3038 8.70542 9.83524 9.08994 9.50559 9.58329C9.17595 10.0766 9 10.6567 9 11.25C9.0009 12.0454 9.31726 12.8079 9.87968 13.3703C10.4421 13.9327 11.2046 14.2491 12 14.25ZM12 20.25C13.8312 20.2518 15.6104 19.6413 17.0547 18.5155C16.5117 17.6676 15.7642 16.9699 14.8809 16.4866C13.9976 16.0033 13.0069 15.75 12 15.75C10.9931 15.75 10.0024 16.0033 9.11912 16.4866C8.2358 16.9698 7.48826 17.6676 6.94531 18.5155C8.38956 19.6413 10.1688 20.2518 12 20.25Z" fill="#1D1F21" style="fill: var(--ui-icon-primary-color);"/>
</svg>
