<svg  viewBox="0 0 24 24" fill="none" xmlns="http://www.w3.org/2000/svg" id="__THIS_ID_NEEDS_FOR_UI_ICON_COMPONENT__">
<path d="M11.3624 14.8076C12.3687 14.1391 13.133 13.1645 13.5423 12.0279C13.9516 10.8913 13.9841 9.65308 13.635 8.49655C13.2859 7.34002 12.5737 6.32662 11.6039 5.60631C10.6341 4.886 9.45809 4.49707 8.25002 4.49707C7.04195 4.49707 5.86598 4.886 4.89614 5.60631C3.92629 6.32662 3.21412 7.34002 2.86501 8.49655C2.5159 9.65308 2.54841 10.8913 2.95771 12.0279C3.36702 13.1645 4.13139 14.1391 5.13768 14.8076C3.42224 15.4404 1.93962 16.5796 0.88634 18.0742C0.829518 18.1547 0.789126 18.2456 0.767472 18.3418C0.745817 18.4379 0.743326 18.5374 0.760141 18.6345C0.776956 18.7316 0.812746 18.8245 0.865467 18.9078C0.918187 18.991 0.986803 19.0631 1.06739 19.1198C1.14798 19.1766 1.23896 19.2169 1.33514 19.2384C1.43131 19.26 1.53079 19.2624 1.62788 19.2454C1.72498 19.2285 1.81779 19.1926 1.90101 19.1398C1.98422 19.087 2.05622 19.0183 2.11287 18.9377C2.80503 17.953 3.72396 17.1493 4.79207 16.5945C5.86018 16.0397 7.04611 15.75 8.24972 15.75C9.45333 15.75 10.6393 16.0395 11.7074 16.5943C12.7756 17.149 13.6946 17.9526 14.3868 18.9372C14.4434 19.0181 14.5154 19.0869 14.5986 19.1399C14.6818 19.1929 14.7747 19.2289 14.8719 19.2459C14.9691 19.2629 15.0687 19.2606 15.165 19.239C15.2613 19.2175 15.3524 19.1772 15.433 19.1203C15.5137 19.0635 15.5824 18.9914 15.6351 18.908C15.6878 18.8246 15.7236 18.7316 15.7403 18.6344C15.7571 18.5371 15.7545 18.4376 15.7327 18.3413C15.7109 18.2451 15.6703 18.1541 15.6132 18.0736C14.56 16.5793 13.0775 15.4403 11.3624 14.8076ZM4.12502 10.125C4.12502 9.30915 4.36695 8.51163 4.82021 7.83327C5.27347 7.15492 5.91771 6.62621 6.67145 6.314C7.4252 6.00179 8.25459 5.9201 9.05477 6.07926C9.85494 6.23843 10.5899 6.63129 11.1668 7.20818C11.7437 7.78508 12.1366 8.52008 12.2958 9.32025C12.4549 10.1204 12.3732 10.9498 12.061 11.7036C11.7488 12.4573 11.2201 13.1016 10.5417 13.5548C9.86339 14.0081 9.06587 14.25 8.25002 14.25C7.15638 14.2488 6.10789 13.8138 5.33457 13.0405C4.56125 12.2671 4.12625 11.2186 4.12502 10.125ZM23.0745 19.1186C22.994 19.1754 22.9031 19.2157 22.807 19.2372C22.7109 19.2588 22.6115 19.2613 22.5144 19.2444C22.4174 19.2276 22.3246 19.1918 22.2414 19.1391C22.1582 19.0864 22.0862 19.0178 22.0295 18.9372C21.3364 17.9535 20.4173 17.1505 19.3494 16.5959C18.2815 16.0413 17.096 15.7512 15.8927 15.75C15.6937 15.75 15.503 15.671 15.3623 15.5303C15.2217 15.3897 15.1427 15.1989 15.1427 15C15.1427 14.8011 15.2217 14.6103 15.3623 14.4697C15.503 14.329 15.6937 14.25 15.8927 14.25C16.4817 14.2493 17.0638 14.1225 17.5998 13.8781C18.1357 13.6337 18.6131 13.2773 18.9998 12.833C19.3865 12.3886 19.6735 11.8666 19.8416 11.302C20.0097 10.7375 20.0549 10.1434 19.9742 9.55994C19.8935 8.97644 19.6888 8.41698 19.3738 7.91922C19.0588 7.42146 18.6409 6.99693 18.1481 6.6742C17.6553 6.35147 17.0991 6.13802 16.517 6.04822C15.9348 5.95842 15.3401 5.99434 14.773 6.15358C14.5816 6.20733 14.3766 6.18285 14.2032 6.08553C14.0298 5.98821 13.9022 5.82601 13.8483 5.6346C13.7945 5.44318 13.8188 5.23822 13.9161 5.06476C14.0133 4.89131 14.1754 4.76356 14.3668 4.70961C15.6569 4.34572 17.0347 4.4546 18.2516 5.01664C19.4686 5.57869 20.4448 6.55692 21.0043 7.77506C21.5638 8.99319 21.6699 10.3711 21.3033 11.6605C20.9367 12.9499 20.1217 14.066 19.005 14.8076C20.7202 15.4403 22.2027 16.5793 23.2559 18.0736C23.3126 18.1541 23.3529 18.245 23.3745 18.3411C23.3961 18.4372 23.3985 18.5367 23.3817 18.6337C23.3648 18.7307 23.329 18.8235 23.2763 18.9067C23.2236 18.9899 23.155 19.0619 23.0745 19.1186Z" fill="#1D1F21" style="fill: var(--ui-icon-primary-color);"/>
</svg>
