<svg  viewBox="0 0 24 24" fill="none" xmlns="http://www.w3.org/2000/svg" id="__THIS_ID_NEEDS_FOR_UI_ICON_COMPONENT__">
<path d="M15.8272 6.9375C15.8764 7.02283 15.9419 7.09763 16.02 7.15761C16.0982 7.2176 16.1874 7.2616 16.2825 7.28709C16.3777 7.31259 16.4769 7.31908 16.5746 7.3062C16.6722 7.29332 16.7664 7.26132 16.8517 7.21202L17.2893 6.95935C17.4989 7.139 17.7398 7.27854 18 7.37099V7.875C18 8.07391 18.079 8.26468 18.2196 8.40533C18.3603 8.54598 18.5511 8.625 18.75 8.625C18.9489 8.625 19.1397 8.54598 19.2803 8.40533C19.421 8.26468 19.5 8.07391 19.5 7.875V7.37099C19.7601 7.27854 20.001 7.139 20.2106 6.95935L20.6483 7.21202C20.8205 7.31148 21.0253 7.33843 21.2174 7.28695C21.4095 7.23546 21.5733 7.10976 21.6728 6.9375C21.7723 6.76524 21.7992 6.56052 21.7477 6.36838C21.6962 6.17625 21.5705 6.01244 21.3983 5.91298L20.9617 5.66092C21.0127 5.38935 21.0127 5.11065 20.9617 4.83908L21.3983 4.58702C21.4836 4.53777 21.5583 4.47221 21.6183 4.39407C21.6782 4.31593 21.7222 4.22675 21.7477 4.13162C21.7732 4.03648 21.7797 3.93725 21.7669 3.83961C21.754 3.74196 21.722 3.6478 21.6728 3.5625C21.6236 3.4772 21.558 3.40244 21.4798 3.34248C21.4017 3.28253 21.3125 3.23855 21.2174 3.21305C21.1223 3.18756 21.023 3.18106 20.9254 3.19391C20.8277 3.20677 20.7336 3.23873 20.6483 3.28798L20.2106 3.54066C20.001 3.361 19.7601 3.22146 19.5 3.12901V2.625C19.5 2.42609 19.421 2.23532 19.2803 2.09467C19.1397 1.95402 18.9489 1.875 18.75 1.875C18.5511 1.875 18.3603 1.95402 18.2196 2.09467C18.079 2.23532 18 2.42609 18 2.625V3.12901C17.7398 3.22146 17.4989 3.361 17.2893 3.54065L16.8517 3.28798C16.6794 3.18852 16.4747 3.16157 16.2826 3.21305C16.0904 3.26454 15.9266 3.39024 15.8272 3.5625C15.7277 3.73476 15.7007 3.93948 15.7522 4.13162C15.8037 4.32375 15.9294 4.48756 16.1017 4.58702L16.5382 4.83908C16.4872 5.11065 16.4872 5.38935 16.5382 5.66092L16.1017 5.91298C15.9294 6.01244 15.8037 6.17625 15.7522 6.36839C15.7008 6.56052 15.7277 6.76523 15.8272 6.9375ZM19.5 5.25C19.5 5.39834 19.456 5.54334 19.3736 5.66668C19.2912 5.79001 19.174 5.88614 19.037 5.94291C18.8999 5.99968 18.7491 6.01453 18.6037 5.98559C18.4582 5.95665 18.3245 5.88522 18.2196 5.78033C18.1148 5.67544 18.0433 5.5418 18.0144 5.39632C17.9854 5.25083 18.0003 5.10003 18.0571 4.96299C18.1138 4.82594 18.21 4.70881 18.3333 4.6264C18.4566 4.54399 18.6016 4.5 18.75 4.5C18.9488 4.50023 19.1395 4.57932 19.2801 4.71992C19.4207 4.86052 19.4997 5.05116 19.5 5.25ZM21.4705 20.8985C21.3852 20.9478 21.2911 20.9799 21.1934 20.9928C21.0958 21.0058 20.9966 20.9994 20.9014 20.974C20.8062 20.9486 20.717 20.9046 20.6388 20.8447C20.5606 20.7848 20.495 20.7101 20.4457 20.6248C19.5895 19.1426 18.3583 17.9119 16.8758 17.0562C15.3934 16.2005 13.7118 15.75 12.0001 15.75C10.2884 15.75 8.60678 16.2005 7.12429 17.0561C5.64179 17.9118 4.41059 19.1425 3.55437 20.6247C3.50504 20.71 3.4394 20.7847 3.36121 20.8446C3.28301 20.9044 3.19378 20.9483 3.09862 20.9737C3.00346 20.9991 2.90423 21.0055 2.80659 20.9926C2.70895 20.9796 2.61482 20.9476 2.52958 20.8982C2.44433 20.8489 2.36963 20.7833 2.30975 20.7051C2.24987 20.6269 2.20598 20.5376 2.18058 20.4425C2.15518 20.3473 2.14877 20.2481 2.16173 20.1505C2.17468 20.0528 2.20673 19.9587 2.25606 19.8734C3.65553 17.4632 5.89663 15.6555 8.54841 14.7978C7.27801 14.0422 6.29085 12.8903 5.73861 11.5192C5.18637 10.1481 5.09961 8.63359 5.49164 7.20837C5.88368 5.78316 6.73283 4.52609 7.90863 3.63031C9.08443 2.73453 10.5218 2.24959 12 2.25C12.3123 2.24998 12.6242 2.27141 12.9335 2.31413C13.0311 2.32766 13.125 2.36027 13.21 2.4101C13.295 2.45993 13.3693 2.526 13.4287 2.60455C13.4881 2.6831 13.5315 2.77259 13.5563 2.8679C13.5811 2.96321 13.587 3.06247 13.5734 3.16003C13.5599 3.25759 13.5273 3.35153 13.4775 3.43649C13.4276 3.52145 13.3616 3.59576 13.283 3.65518C13.2045 3.7146 13.115 3.75797 13.0197 3.78281C12.9244 3.80764 12.8251 3.81347 12.7275 3.79994C12.4865 3.76666 12.2434 3.74997 12 3.75C11.0539 3.7503 10.1255 4.00623 9.31297 4.49074C8.5004 4.97524 7.83385 5.6703 7.38379 6.50244C6.93373 7.33457 6.71689 8.27286 6.75619 9.21809C6.79549 10.1633 7.08947 11.0804 7.60706 11.8723C8.12464 12.6642 8.84659 13.3015 9.69657 13.7169C10.5466 14.1323 11.493 14.3103 12.4358 14.232C13.3786 14.1538 14.2828 13.8223 15.0526 13.2725C15.8225 12.7227 16.4296 11.9751 16.8096 11.1087C16.8895 10.9266 17.0386 10.7837 17.2239 10.7115C17.4093 10.6392 17.6157 10.6436 17.7978 10.7236C17.9799 10.8036 18.1228 10.9526 18.1951 11.1379C18.2673 11.3233 18.2629 11.5297 18.1829 11.7118C17.6173 13.0001 16.6632 14.0793 15.454 14.7986C18.1048 15.6567 20.345 17.4642 21.744 19.8737C21.7934 19.959 21.8254 20.0531 21.8383 20.1507C21.8513 20.2484 21.8449 20.3476 21.8195 20.4428C21.7941 20.5379 21.7502 20.6271 21.6903 20.7053C21.6304 20.7835 21.5557 20.8491 21.4705 20.8985Z" fill="#1D1F21" style="fill: var(--ui-icon-primary-color);"/>
</svg>
