<svg  viewBox="0 0 24 24" fill="none" xmlns="http://www.w3.org/2000/svg" id="__THIS_ID_NEEDS_FOR_UI_ICON_COMPONENT__">
<path d="M20.25 3.75H3.75C3.35231 3.75045 2.97105 3.90864 2.68984 4.18984C2.40864 4.47105 2.25045 4.85231 2.25 5.25V18.75C2.25045 19.1477 2.40864 19.529 2.68984 19.8102C2.97105 20.0914 3.35231 20.2495 3.75 20.25H20.25C20.6477 20.2495 21.029 20.0914 21.3102 19.8102C21.5914 19.529 21.7495 19.1477 21.75 18.75V5.25C21.7495 4.85231 21.5914 4.47105 21.3102 4.18984C21.029 3.90864 20.6477 3.75045 20.25 3.75ZM9 11.25C9 10.6567 9.17595 10.0766 9.50559 9.58329C9.83524 9.08994 10.3038 8.70542 10.8519 8.47836C11.4001 8.2513 12.0033 8.19189 12.5853 8.30764C13.1672 8.4234 13.7018 8.70912 14.1213 9.12868C14.5409 9.54824 14.8266 10.0828 14.9424 10.6647C15.0581 11.2467 14.9987 11.8499 14.7716 12.3981C14.5446 12.9462 14.1601 13.4148 13.6667 13.7444C13.1734 14.0741 12.5933 14.25 12 14.25C11.2046 14.2491 10.4421 13.9327 9.87967 13.3703C9.31725 12.8079 9.00089 12.0454 9 11.25ZM6.80322 18.75C7.32996 17.8379 8.08751 17.0804 8.99973 16.5538C9.91194 16.0272 10.9467 15.75 12 15.75C13.0533 15.75 14.0881 16.0272 15.0003 16.5538C15.9125 17.0804 16.67 17.8379 17.1968 18.75H6.80322ZM20.25 18.75H18.8749C18.083 16.9419 16.6116 15.5179 14.7784 14.7859C15.5147 14.208 16.0525 13.4148 16.3168 12.5169C16.5812 11.6189 16.5589 10.6609 16.2532 9.77623C15.9475 8.89153 15.3734 8.1242 14.6111 7.58107C13.8488 7.03794 12.936 6.74605 12 6.74605C11.064 6.74605 10.1512 7.03794 9.38889 7.58107C8.62654 8.1242 8.05254 8.89153 7.74681 9.77623C7.44107 10.6609 7.41883 11.6189 7.68317 12.5169C7.9475 13.4148 8.48527 14.208 9.22158 14.7859C7.38844 15.5179 5.91695 16.9419 5.12512 18.75H3.75V5.25H20.25L20.251 18.75L20.25 18.75Z" fill="#1D1F21" style="fill: var(--ui-icon-primary-color);"/>
</svg>
