<svg  viewBox="0 0 24 24" fill="none" xmlns="http://www.w3.org/2000/svg" id="__THIS_ID_NEEDS_FOR_UI_ICON_COMPONENT__">
<path d="M21.7442 19.8733C20.3448 17.4629 18.1036 15.6551 15.4517 14.7974C16.7222 14.0415 17.7093 12.8894 18.2615 11.5181C18.8138 10.1468 18.9006 8.63214 18.5086 7.20674C18.1166 5.78135 17.2675 4.52405 16.0917 3.62797C14.9159 2.73189 13.4785 2.24658 12.0002 2.24658C10.5219 2.24658 9.08445 2.73189 7.90868 3.62797C6.7329 4.52405 5.88381 5.78135 5.49182 7.20674C5.09983 8.63214 5.18661 10.1468 5.73885 11.5181C6.29108 12.8894 7.27823 14.0415 8.54866 14.7974C5.89685 15.6551 3.65574 17.4628 2.25628 19.8731C2.20696 19.9583 2.17491 20.0525 2.16196 20.1501C2.14902 20.2477 2.15543 20.3469 2.18083 20.4421C2.20623 20.5373 2.25013 20.6265 2.31001 20.7047C2.3699 20.7829 2.4446 20.8485 2.52984 20.8978C2.61509 20.9471 2.70922 20.9792 2.80685 20.9921C2.90449 21.0051 3.00372 20.9987 3.09887 20.9733C3.19403 20.9479 3.28325 20.904 3.36145 20.8441C3.43964 20.7842 3.50527 20.7095 3.55459 20.6243C4.41081 19.1421 5.64202 17.9113 7.12452 17.0556C8.60702 16.2 10.2886 15.7495 12.0003 15.7495C13.712 15.7496 15.3936 16.2 16.8761 17.0558C18.3586 17.9115 19.5898 19.1422 20.4459 20.6244C20.4952 20.7098 20.5608 20.7845 20.639 20.8445C20.7172 20.9044 20.8065 20.9483 20.9017 20.9738C20.9968 20.9992 21.0961 21.0057 21.1938 20.9927C21.2915 20.9798 21.3856 20.9477 21.4709 20.8984C21.5562 20.849 21.6309 20.7834 21.6908 20.7051C21.7507 20.6269 21.7946 20.5377 21.82 20.4425C21.8454 20.3473 21.8517 20.248 21.8387 20.1503C21.8257 20.0527 21.7936 19.9585 21.7442 19.8733ZM6.7502 8.99954C6.7502 7.96119 7.0581 6.94615 7.63498 6.0828C8.21186 5.21944 9.0318 4.54653 9.99111 4.14917C10.9504 3.75181 12.006 3.64784 13.0244 3.85042C14.0428 4.05299 14.9783 4.553 15.7125 5.28723C16.4467 6.02145 16.9467 6.95691 17.1493 7.97531C17.3519 8.99371 17.2479 10.0493 16.8506 11.0086C16.4532 11.9679 15.7803 12.7879 14.9169 13.3648C14.0536 13.9416 13.0385 14.2495 12.0002 14.2495C10.6083 14.248 9.27385 13.6943 8.28963 12.7101C7.3054 11.7259 6.75177 10.3914 6.7502 8.99954Z" fill="#1D1F21" style="fill: var(--ui-icon-primary-color);"/>
</svg>
