<svg  viewBox="0 0 24 24" fill="none" xmlns="http://www.w3.org/2000/svg" id="__THIS_ID_NEEDS_FOR_UI_ICON_COMPONENT__">
<path d="M15.75 5.25015C15.75 5.15166 15.7694 5.05413 15.8071 4.96314C15.8448 4.87214 15.9001 4.78946 15.9697 4.71982C16.0394 4.65017 16.122 4.59493 16.213 4.55724C16.304 4.51955 16.4016 4.50015 16.5 4.50015H18V3.00015C18 2.80124 18.0791 2.61047 18.2197 2.46982C18.3604 2.32917 18.5511 2.25015 18.75 2.25015C18.949 2.25015 19.1397 2.32917 19.2804 2.46982C19.421 2.61047 19.5 2.80124 19.5 3.00015V4.50015H21C21.199 4.50015 21.3897 4.57917 21.5304 4.71982C21.671 4.86047 21.75 5.05124 21.75 5.25015C21.75 5.44906 21.671 5.63983 21.5304 5.78048C21.3897 5.92113 21.199 6.00015 21 6.00015H19.5V7.50015C19.5 7.69906 19.421 7.88983 19.2804 8.03048C19.1397 8.17113 18.949 8.25015 18.75 8.25015C18.5511 8.25015 18.3604 8.17113 18.2197 8.03048C18.0791 7.88983 18 7.69906 18 7.50015V6.00015H16.5C16.4016 6.00015 16.304 5.98076 16.213 5.94307C16.122 5.90538 16.0394 5.85013 15.9697 5.78049C15.9001 5.71084 15.8448 5.62816 15.8071 5.53717C15.7694 5.44617 15.75 5.34864 15.75 5.25015ZM21.7441 19.8739C20.344 17.4625 18.1015 15.6541 15.4481 14.7969C16.7769 14.0084 17.7953 12.7882 18.3333 11.3397C18.4022 11.1532 18.3942 10.9469 18.311 10.7662C18.2278 10.5856 18.0763 10.4454 17.8898 10.3764C17.7032 10.3075 17.4969 10.3155 17.3162 10.3986C17.1356 10.4818 16.9953 10.6333 16.9264 10.8198C16.5754 11.7672 15.9583 12.5932 15.1493 13.1984C14.3403 13.8036 13.3738 14.1624 12.3658 14.2317C11.3578 14.3009 10.3513 14.0777 9.46714 13.5888C8.58297 13.0998 7.85876 12.366 7.38152 11.4755C6.90427 10.585 6.69429 9.57561 6.77679 8.56863C6.85929 7.56166 7.23077 6.59993 7.8466 5.79896C8.46242 4.99799 9.29641 4.39185 10.2484 4.05336C11.2003 3.71488 12.2298 3.65844 13.213 3.89082C13.3089 3.91348 13.4082 3.91704 13.5055 3.9013C13.6027 3.88555 13.6959 3.85081 13.7797 3.79906C13.8635 3.74731 13.9363 3.67956 13.9939 3.59967C14.0515 3.51979 14.0928 3.42934 14.1155 3.3335C14.1381 3.23765 14.1417 3.13827 14.1259 3.04105C14.1102 2.94382 14.0755 2.85065 14.0237 2.76685C13.9719 2.68305 13.9042 2.61027 13.8243 2.55265C13.7444 2.49504 13.654 2.45372 13.5581 2.43106C11.9886 2.05845 10.3376 2.26032 8.90407 3.00009C7.47056 3.73986 6.34944 4.96861 5.74379 6.46373C5.13814 7.95885 5.08804 9.62145 5.60255 11.1503C6.11706 12.6792 7.16216 13.9732 8.54851 14.798C5.8967 15.6557 3.6556 17.4635 2.25614 19.8737C2.20674 19.9589 2.17463 20.0531 2.16164 20.1508C2.14865 20.2484 2.15502 20.3477 2.18041 20.4429C2.20579 20.5381 2.24969 20.6273 2.30958 20.7056C2.36948 20.7838 2.4442 20.8495 2.52948 20.8988C2.61476 20.9482 2.70892 20.9802 2.8066 20.9931C2.90427 21.0061 3.00353 20.9997 3.09872 20.9742C3.1939 20.9488 3.28314 20.9048 3.36134 20.8449C3.43953 20.7849 3.50515 20.7102 3.55445 20.6249C4.41066 19.1427 5.64187 17.9119 7.12437 17.0563C8.60687 16.2006 10.2885 15.7501 12.0002 15.7502C13.7119 15.7502 15.3935 16.2007 16.8759 17.0564C18.3584 17.9121 19.5896 19.1429 20.4458 20.6251C20.4951 20.7104 20.5607 20.7851 20.6389 20.8451C20.7171 20.905 20.8063 20.949 20.9015 20.9744C20.9967 20.9998 21.096 21.0063 21.1936 20.9933C21.2913 20.9804 21.3855 20.9483 21.4708 20.899C21.556 20.8497 21.6308 20.784 21.6907 20.7058C21.7505 20.6275 21.7944 20.5383 21.8198 20.4431C21.8452 20.3479 21.8516 20.2486 21.8386 20.1509C21.8256 20.0533 21.7935 19.9591 21.7441 19.8739H21.7441Z" fill="#1D1F21" style="fill: var(--ui-icon-primary-color);"/>
</svg>
