<svg  viewBox="0 0 24 24" fill="none" xmlns="http://www.w3.org/2000/svg" id="__THIS_ID_NEEDS_FOR_UI_ICON_COMPONENT__">
<path d="M15.7501 5.25015C15.7501 5.15166 15.7695 5.05413 15.8072 4.96314C15.8449 4.87214 15.9001 4.78946 15.9698 4.71982C16.0394 4.65017 16.1221 4.59493 16.2131 4.55724C16.3041 4.51955 16.4016 4.50015 16.5001 4.50015H21.0001C21.199 4.50015 21.3898 4.57917 21.5304 4.71982C21.6711 4.86047 21.7501 5.05124 21.7501 5.25015C21.7501 5.44906 21.6711 5.63983 21.5304 5.78048C21.3898 5.92113 21.199 6.00015 21.0001 6.00015H16.5001C16.4016 6.00015 16.3041 5.98076 16.2131 5.94307C16.1221 5.90538 16.0394 5.85013 15.9698 5.78049C15.9001 5.71084 15.8449 5.62816 15.8072 5.53717C15.7695 5.44617 15.7501 5.34864 15.7501 5.25015ZM21.7442 19.8739C20.3447 17.4635 18.1035 15.6557 15.4516 14.798C16.4564 14.1999 17.2886 13.3511 17.8668 12.3348C18.445 11.3185 18.7494 10.1694 18.7501 9.00015C18.7501 8.80124 18.6711 8.61047 18.5304 8.46982C18.3898 8.32917 18.199 8.25015 18.0001 8.25015C17.8012 8.25015 17.6104 8.32917 17.4698 8.46982C17.3291 8.61047 17.2501 8.80124 17.2501 9.00015C17.2487 10.0888 16.9086 11.1501 16.2767 12.0366C15.6449 12.9232 14.7528 13.5911 13.7242 13.9478C12.6956 14.3044 11.5815 14.332 10.5365 14.0267C9.4915 13.7215 8.56742 13.0985 7.89249 12.2443C7.21755 11.3901 6.82524 10.347 6.76998 9.25973C6.71472 8.17247 6.99926 7.09496 7.58411 6.17673C8.16896 5.25849 9.02513 4.54507 10.0338 4.13546C11.0425 3.72584 12.1536 3.64034 13.2131 3.89082C13.3089 3.91348 13.4083 3.91704 13.5055 3.9013C13.6028 3.88555 13.6959 3.85081 13.7797 3.79906C13.8635 3.74731 13.9363 3.67956 13.9939 3.59967C14.0515 3.51979 14.0929 3.42934 14.1155 3.3335C14.1382 3.23765 14.1417 3.13827 14.126 3.04105C14.1103 2.94382 14.0755 2.85065 14.0238 2.76685C13.972 2.68305 13.9043 2.61027 13.8244 2.55265C13.7445 2.49504 13.654 2.45372 13.5582 2.43106C11.9887 2.05845 10.3376 2.26032 8.90413 3.00009C7.47063 3.73986 6.3495 4.96861 5.74385 6.46373C5.13821 7.95885 5.0881 9.62145 5.60261 11.1503C6.11712 12.6792 7.16222 13.9732 8.54857 14.798C5.89677 15.6557 3.65566 17.4635 2.2562 19.8737C2.20681 19.9589 2.1747 20.0531 2.1617 20.1508C2.14871 20.2484 2.15509 20.3477 2.18047 20.4429C2.20585 20.5381 2.24975 20.6273 2.30964 20.7056C2.36954 20.7838 2.44426 20.8495 2.52954 20.8988C2.61482 20.9482 2.70899 20.9802 2.80666 20.9931C2.90433 21.0061 3.00359 20.9997 3.09878 20.9742C3.19396 20.9488 3.2832 20.9048 3.3614 20.8449C3.43959 20.7849 3.50521 20.7102 3.55451 20.6249C4.41072 19.1427 5.64193 17.9119 7.12443 17.0563C8.60693 16.2006 10.2885 15.7501 12.0002 15.7502C13.7119 15.7502 15.3935 16.2007 16.876 17.0564C18.3585 17.9121 19.5897 19.1429 20.4459 20.6251C20.4951 20.7104 20.5608 20.7851 20.639 20.8451C20.7172 20.905 20.8064 20.949 20.9016 20.9744C20.9968 20.9998 21.096 21.0063 21.1937 20.9933C21.2914 20.9804 21.3855 20.9483 21.4708 20.899C21.5561 20.8497 21.6308 20.784 21.6907 20.7058C21.7506 20.6275 21.7945 20.5383 21.8199 20.4431C21.8453 20.3479 21.8516 20.2486 21.8387 20.1509C21.8257 20.0533 21.7935 19.9591 21.7442 19.8739H21.7442Z" fill="#1D1F21" style="fill: var(--ui-icon-primary-color);"/>
</svg>
