<svg  viewBox="0 0 24 24" fill="none" xmlns="http://www.w3.org/2000/svg" id="__THIS_ID_NEEDS_FOR_UI_ICON_COMPONENT__">
<path d="M14.9999 3H8.99994C8.40341 3.00068 7.83151 3.23795 7.4097 3.65976C6.98789 4.08157 6.75062 4.65347 6.74994 5.25V18.75C6.75062 19.3465 6.98789 19.9184 7.4097 20.3402C7.83151 20.762 8.40341 20.9993 8.99994 21H14.9999C15.5965 20.9993 16.1684 20.762 16.5902 20.3402C17.012 19.9184 17.2493 19.3465 17.2499 18.75V5.25C17.2493 4.65347 17.012 4.08157 16.5902 3.65976C16.1684 3.23795 15.5965 3.00068 14.9999 3ZM15.7499 18.75C15.7497 18.9488 15.6706 19.1395 15.53 19.2801C15.3894 19.4207 15.1988 19.4998 14.9999 19.5H8.99994C8.8011 19.4998 8.61046 19.4207 8.46986 19.2801C8.32926 19.1395 8.25017 18.9488 8.24994 18.75V5.25C8.25017 5.05116 8.32926 4.86052 8.46986 4.71992C8.61046 4.57932 8.8011 4.50023 8.99994 4.5H14.9999C15.1988 4.50023 15.3894 4.57932 15.53 4.71992C15.6706 4.86052 15.7497 5.05116 15.7499 5.25V18.75ZM20.2502 8.25V15.75C20.2502 15.9489 20.1712 16.1397 20.0305 16.2803C19.8899 16.421 19.6991 16.5 19.5002 16.5C19.3013 16.5 19.1105 16.421 18.9699 16.2803C18.8292 16.1397 18.7502 15.9489 18.7502 15.75V8.25C18.7502 8.05109 18.8292 7.86032 18.9699 7.71967C19.1105 7.57902 19.3013 7.5 19.5002 7.5C19.6991 7.5 19.8899 7.57902 20.0305 7.71967C20.1712 7.86032 20.2502 8.05109 20.2502 8.25ZM23.2502 9.75V14.25C23.2502 14.4489 23.1712 14.6397 23.0305 14.7803C22.8899 14.921 22.6991 15 22.5002 15C22.3013 15 22.1105 14.921 21.9699 14.7803C21.8292 14.6397 21.7502 14.4489 21.7502 14.25V9.75C21.7502 9.55109 21.8292 9.36032 21.9699 9.21967C22.1105 9.07902 22.3013 9 22.5002 9C22.6991 9 22.8899 9.07902 23.0305 9.21967C23.1712 9.36032 23.2502 9.55109 23.2502 9.75ZM5.24994 8.25V15.75C5.24994 15.9489 5.17092 16.1397 5.03027 16.2803C4.88962 16.421 4.69885 16.5 4.49994 16.5C4.30103 16.5 4.11026 16.421 3.96961 16.2803C3.82896 16.1397 3.74994 15.9489 3.74994 15.75V8.25C3.74994 8.05109 3.82896 7.86032 3.96961 7.71967C4.11026 7.57902 4.30103 7.5 4.49994 7.5C4.69885 7.5 4.88962 7.57902 5.03027 7.71967C5.17092 7.86032 5.24994 8.05109 5.24994 8.25ZM2.24994 9.75V14.25C2.24994 14.4489 2.17092 14.6397 2.03027 14.7803C1.88962 14.921 1.69885 15 1.49994 15C1.30103 15 1.11026 14.921 0.969609 14.7803C0.828957 14.6397 0.749939 14.4489 0.749939 14.25V9.75C0.749939 9.55109 0.828957 9.36032 0.969609 9.21967C1.11026 9.07902 1.30103 9 1.49994 9C1.69885 9 1.88962 9.07902 2.03027 9.21967C2.17092 9.36032 2.24994 9.55109 2.24994 9.75Z" fill="#1D1F21" style="fill: var(--ui-icon-primary-color);"/>
</svg>
