<svg  viewBox="0 0 24 24" fill="none" xmlns="http://www.w3.org/2000/svg" id="__THIS_ID_NEEDS_FOR_UI_ICON_COMPONENT__">
<path d="M22.8765 6.85135C22.7628 6.78541 22.6339 6.75047 22.5025 6.75002C22.3712 6.74957 22.242 6.78363 22.1279 6.84879L18 9.2076V8.625C17.9989 7.63079 17.6034 6.67762 16.9004 5.97461C16.1974 5.27159 15.2442 4.87614 14.25 4.875H2.25C1.85231 4.87545 1.47105 5.03364 1.18984 5.31484C0.908636 5.59605 0.750455 5.97731 0.75 6.375V15.375C0.751137 16.3692 1.14659 17.3224 1.84961 18.0254C2.55262 18.7284 3.50579 19.1239 4.5 19.125H16.5C16.8977 19.1245 17.279 18.9664 17.5602 18.6852C17.8414 18.404 17.9995 18.0227 18 17.625V14.7924L22.1279 17.1512C22.242 17.2164 22.3712 17.2504 22.5025 17.25C22.6339 17.2495 22.7628 17.2146 22.8765 17.1487C22.9901 17.0827 23.0844 16.9881 23.1499 16.8743C23.2155 16.7604 23.25 16.6314 23.25 16.5V7.5C23.25 7.36863 23.2155 7.23957 23.15 7.12573C23.0844 7.01189 22.9901 6.91727 22.8765 6.85135ZM16.5 17.625H4.5C3.90347 17.6243 3.33157 17.387 2.90976 16.9652C2.48795 16.5434 2.25068 15.9715 2.25 15.375V6.375H14.25C14.8465 6.37568 15.4184 6.61295 15.8402 7.03476C16.262 7.45657 16.4993 8.02847 16.5 8.625L16.5002 10.5111C16.5002 10.5137 16.5001 10.5163 16.5002 10.519L16.5005 13.4768C16.5003 13.4846 16.5005 13.4924 16.5005 13.5002L16.5009 17.625H16.5ZM21.75 15.2076L18 13.0647V10.9353L21.75 8.79236V15.2076Z" fill="#1D1F21" style="fill: var(--ui-icon-primary-color);"/>
</svg>
