<svg  viewBox="0 0 24 24" fill="none" xmlns="http://www.w3.org/2000/svg" id="__THIS_ID_NEEDS_FOR_UI_ICON_COMPONENT__">
<path d="M22.8765 6.85092C22.7628 6.78498 22.6339 6.75004 22.5025 6.74959C22.3712 6.74914 22.242 6.7832 22.1279 6.84835L18 9.20716V8.62457C17.9989 7.63036 17.6034 6.67719 16.9004 5.97417C16.1974 5.27116 15.2442 4.87571 14.25 4.87457H10.3953C10.1964 4.87457 10.0056 4.95359 9.86493 5.09424C9.72428 5.23489 9.64526 5.42566 9.64526 5.62457C9.64526 5.82348 9.72428 6.01425 9.86493 6.1549C10.0056 6.29555 10.1964 6.37457 10.3953 6.37457H14.25C14.8465 6.37525 15.4184 6.61252 15.8402 7.03433C16.262 7.45614 16.4993 8.02804 16.5 8.62457V13.4996C16.5002 13.53 16.5022 13.5604 16.5061 13.5907C16.5071 13.5987 16.5085 13.6065 16.5097 13.6145C16.5133 13.6377 16.5179 13.6606 16.5235 13.683C16.5254 13.6902 16.527 13.6974 16.5291 13.7045C16.5454 13.762 16.5685 13.8174 16.598 13.8693C16.6015 13.8756 16.6054 13.8816 16.6092 13.8877C16.621 13.9073 16.6337 13.9262 16.6472 13.9445C16.6522 13.9512 16.6569 13.9578 16.6621 13.9644C16.6801 13.9873 16.6993 14.0093 16.7198 14.03C16.7209 14.0311 16.7222 14.0321 16.7233 14.0332C16.7433 14.0528 16.7645 14.0712 16.7866 14.0885C16.7931 14.0937 16.7998 14.0985 16.8066 14.1034C16.8261 14.1178 16.8462 14.1312 16.8671 14.1436C16.8708 14.1458 16.8741 14.1486 16.8779 14.1508L22.1279 17.1508C22.242 17.2159 22.3712 17.25 22.5025 17.2496C22.6339 17.2491 22.7628 17.2142 22.8765 17.1482C22.9901 17.0823 23.0844 16.9877 23.1499 16.8738C23.2155 16.76 23.25 16.6309 23.25 16.4996V7.49957C23.25 7.3682 23.2155 7.23914 23.15 7.1253C23.0844 7.01146 22.9901 6.91684 22.8765 6.85092ZM21.75 15.2072L18 13.0643V10.9348L21.75 8.79193V15.2072ZM3.82773 1.74502C3.69391 1.59783 3.50711 1.50982 3.30841 1.50036C3.1097 1.4909 2.91538 1.56076 2.76819 1.69458C2.62099 1.82839 2.53299 2.0152 2.52353 2.2139C2.51407 2.4126 2.58393 2.60692 2.71774 2.75412L4.64543 4.87457H2.25C1.85231 4.87502 1.47105 5.0332 1.18984 5.31441C0.908636 5.59562 0.750455 5.97688 0.75 6.37457V15.3746C0.751137 16.3688 1.14659 17.3219 1.84961 18.025C2.55262 18.728 3.50579 19.1234 4.5 19.1246H16.5C16.8059 19.1247 17.1045 19.0307 17.3551 18.8553L20.445 22.2541C20.5113 22.327 20.5912 22.3861 20.6803 22.4281C20.7694 22.4701 20.8659 22.4941 20.9643 22.4988C21.0627 22.5035 21.1611 22.4887 21.2538 22.4554C21.3464 22.4221 21.4317 22.3708 21.5045 22.3046C21.5774 22.2383 21.6365 22.1583 21.6785 22.0692C21.7205 21.9801 21.7445 21.8836 21.7492 21.7852C21.7539 21.6868 21.7392 21.5885 21.7058 21.4958C21.6725 21.4031 21.6213 21.3179 21.555 21.245L3.82773 1.74502ZM4.5 17.6246C3.90347 17.6239 3.33157 17.3866 2.90976 16.9648C2.48795 16.543 2.25068 15.9711 2.25 15.3746V6.37457H6.00906L16.2363 17.6246H4.5Z" fill="#1D1F21" style="fill: var(--ui-icon-primary-color);"/>
</svg>
