<svg  viewBox="0 0 24 24" fill="none" xmlns="http://www.w3.org/2000/svg" id="__THIS_ID_NEEDS_FOR_UI_ICON_COMPONENT__">
<g clip-path="url(#clip0)">
<path d="M18.7499 6.75C17.7066 6.74932 16.6869 7.05967 15.8209 7.64139C14.9549 8.22312 14.282 9.04981 13.8881 10.0159C13.4943 10.9819 13.3974 12.0434 13.6098 13.0648C13.8222 14.0862 14.3343 15.0211 15.0806 15.75H8.91914C9.78761 14.8986 10.3333 13.7719 10.4629 12.5627C10.5925 11.3534 10.298 10.1367 9.62972 9.12059C8.96142 8.10448 7.96087 7.35211 6.79917 6.99215C5.63748 6.63218 4.38681 6.687 3.26106 7.14721C2.13531 7.60741 1.20442 8.44443 0.627573 9.51511C0.0507292 10.5858 -0.136225 11.8236 0.0986831 13.0169C0.333591 14.2102 0.975769 15.2848 1.91539 16.0569C2.85501 16.8291 4.0337 17.2508 5.24989 17.25H18.7499C20.1423 17.25 21.4776 16.6969 22.4622 15.7123C23.4468 14.7277 23.9999 13.3924 23.9999 12C23.9999 10.6076 23.4468 9.27226 22.4622 8.28769C21.4776 7.30312 20.1423 6.75 18.7499 6.75ZM1.49989 12C1.49989 11.2583 1.71982 10.5333 2.13188 9.91661C2.54393 9.29993 3.1296 8.81928 3.81483 8.53545C4.50005 8.25162 5.25405 8.17736 5.98148 8.32206C6.70891 8.46675 7.37709 8.8239 7.90154 9.34835C8.42599 9.8728 8.78314 10.541 8.92783 11.2684C9.07253 11.9958 8.99827 12.7498 8.71444 13.4351C8.43061 14.1203 7.94996 14.706 7.33328 15.118C6.71659 15.5301 5.99157 15.75 5.24989 15.75C4.25568 15.7489 3.30251 15.3534 2.59949 14.6504C1.89648 13.9474 1.50103 12.9942 1.49989 12ZM18.7499 15.75C18.0082 15.75 17.2832 15.5301 16.6665 15.118C16.0498 14.706 15.5692 14.1203 15.2853 13.4351C15.0015 12.7498 14.9272 11.9958 15.0719 11.2684C15.2166 10.541 15.5738 9.8728 16.0982 9.34835C16.6227 8.8239 17.2909 8.46675 18.0183 8.32206C18.7457 8.17736 19.4997 8.25162 20.185 8.53545C20.8702 8.81928 21.4558 9.29993 21.8679 9.91661C22.28 10.5333 22.4999 11.2583 22.4999 12C22.4988 12.9942 22.1033 13.9474 21.4003 14.6504C20.6973 15.3534 19.7441 15.7489 18.7499 15.75Z" fill="#1D1F21" style="fill: var(--ui-icon-primary-color);"/>
</g>
<defs>
<clipPath id="clip0">
<rect  fill="white" style="fill: var(--ui-icon-secondary-color);"/>
</clipPath>
</defs>
</svg>
