<svg  viewBox="0 0 24 24" fill="none" xmlns="http://www.w3.org/2000/svg" id="__THIS_ID_NEEDS_FOR_UI_ICON_COMPONENT__">
<path fill-rule="evenodd" clip-rule="evenodd" d="M20.75 10.9863L20.75 7.78639C20.75 7.43156 20.47 7.14357 20.125 7.14357H19.5V5.21511C19.5 4.86027 19.22 4.57229 18.875 4.57229H16.7612L15.6837 2.35584C15.5287 2.037 15.1538 1.90972 14.845 2.06786L13.405 2.80967L13.1837 2.35584C13.0287 2.03829 12.6538 1.90972 12.345 2.06914L7.4775 4.57229H3.875C2.84125 4.57229 2 5.43753 2 6.50075V18.0715C2 19.1348 2.84125 20 3.875 20H20.125C20.47 20 20.75 19.712 20.75 19.3572L20.75 16.1576C21.8472 16.1576 22.675 15.2529 22.675 14.2148V12.9291C22.675 11.891 21.8472 10.9863 20.75 10.9863ZM19.5 10.9863V8.42922H3.875C3.665 8.42922 3.455 8.38165 3.25 8.30579V18.0715C3.25 18.4264 3.53 18.7144 3.875 18.7144H19.5V16.1576H17C15.5591 16.1576 14.45 14.9636 14.45 13.572C14.45 12.1803 15.5591 10.9863 17 10.9863H19.5ZM18.25 7.14357H18.0112L17.3862 5.85793H18.25V7.14357ZM14.845 3.50649L16.6138 7.14357H15.5112L13.9637 3.95904L14.845 3.50649ZM12.345 3.50649L14.1138 7.14357H5.2725L12.345 3.50649ZM3.875 5.85793H4.9775L3.3 6.7206C3.275 6.64989 3.25 6.57789 3.25 6.50075C3.25 6.14591 3.53 5.85793 3.875 5.85793ZM20.75 14.8576H17C16.3113 14.8576 15.75 14.2804 15.75 13.572C15.75 12.8636 16.3113 12.2863 17 12.2863H20.75C21.095 12.2863 21.375 12.5743 21.375 12.9291V14.2148C21.375 14.5696 21.095 14.8576 20.75 14.8576Z" fill="#1D1D21" style="fill: var(--ui-icon-primary-color);"/>
</svg>
