<svg  viewBox="0 0 24 24" fill="none" xmlns="http://www.w3.org/2000/svg" id="__THIS_ID_NEEDS_FOR_UI_ICON_COMPONENT__">
<path d="M11.2499 12.75V7.5C11.2499 7.30109 11.329 7.11032 11.4696 6.96967C11.6103 6.82902 11.801 6.75 11.9999 6.75C12.1989 6.75 12.3896 6.82902 12.5303 6.96967C12.6709 7.11032 12.7499 7.30109 12.7499 7.5V12.75C12.7499 12.9489 12.6709 13.1397 12.5303 13.2803C12.3896 13.421 12.1989 13.5 11.9999 13.5C11.801 13.5 11.6103 13.421 11.4696 13.2803C11.329 13.1397 11.2499 12.9489 11.2499 12.75ZM21.7499 8.58275V15.4172C21.7505 15.6143 21.7119 15.8095 21.6365 15.9915C21.5611 16.1736 21.4504 16.3389 21.3107 16.4778L16.4779 21.3106C16.3389 21.4504 16.1736 21.5611 15.9916 21.6366C15.8095 21.712 15.6143 21.7505 15.4172 21.75H8.58265C8.38558 21.7505 8.19037 21.712 8.00831 21.6366C7.82625 21.5611 7.66096 21.4503 7.52201 21.3106L2.68921 16.4779C2.54951 16.3389 2.43876 16.1736 2.36336 15.9916C2.28796 15.8095 2.24941 15.6143 2.24994 15.4172V8.58275C2.24941 8.38569 2.28796 8.19049 2.36336 8.00844C2.43876 7.82638 2.54951 7.66109 2.68921 7.52211L7.52201 2.68932C7.66097 2.5496 7.82627 2.43884 8.00833 2.36343C8.19039 2.28802 8.38559 2.24947 8.58265 2.25001H15.4172C15.6143 2.24947 15.8095 2.28803 15.9916 2.36344C16.1736 2.43886 16.3389 2.54964 16.4779 2.68937L21.3107 7.52207C21.4504 7.66105 21.5611 7.82636 21.6365 8.00842C21.7119 8.19048 21.7505 8.38569 21.7499 8.58275ZM20.2499 8.58275L15.4172 3.75H8.58265L3.74994 8.58275V15.4172L8.58274 20.25H15.4172L20.2499 15.4172V8.58275ZM11.9999 15C11.7774 15 11.5599 15.066 11.3749 15.1896C11.1899 15.3132 11.0457 15.4889 10.9606 15.6945C10.8754 15.9 10.8532 16.1262 10.8966 16.3445C10.94 16.5627 11.0471 16.7632 11.2044 16.9205C11.3618 17.0778 11.5622 17.185 11.7805 17.2284C11.9987 17.2718 12.2249 17.2495 12.4305 17.1644C12.636 17.0792 12.8117 16.935 12.9353 16.75C13.059 16.565 13.1249 16.3475 13.1249 16.125C13.1246 15.8267 13.006 15.5408 12.7951 15.3299C12.5842 15.119 12.2982 15.0003 11.9999 15Z" fill="#1D1F21" style="fill: var(--ui-icon-primary-color);"/>
</svg>
