<svg  viewBox="0 0 24 24" fill="none" xmlns="http://www.w3.org/2000/svg" id="__THIS_ID_NEEDS_FOR_UI_ICON_COMPONENT__">
<path d="M11.2501 13.5V9C11.2501 8.80109 11.3291 8.61033 11.4698 8.46967C11.6104 8.32902 11.8012 8.25 12.0001 8.25C12.199 8.25 12.3898 8.32902 12.5304 8.46967C12.6711 8.61033 12.7501 8.80109 12.7501 9V13.5C12.7501 13.6989 12.6711 13.8897 12.5304 14.0303C12.3898 14.171 12.199 14.25 12.0001 14.25C11.8012 14.25 11.6104 14.171 11.4698 14.0303C11.3291 13.8897 11.2501 13.6989 11.2501 13.5ZM22.1971 19.8732C22.0015 20.2171 21.7178 20.5027 21.3752 20.7007C21.0327 20.8986 20.6435 21.0016 20.2479 20.9993H3.75231C3.35714 20.9993 2.96895 20.8952 2.62678 20.6975C2.28462 20.4998 2.00054 20.2155 1.80315 19.8732C1.60575 19.5309 1.502 19.1426 1.50232 18.7474C1.50264 18.3523 1.60703 17.9642 1.80499 17.6222L10.0528 3.37285C10.2504 3.03139 10.5344 2.7479 10.8762 2.55082C11.218 2.35374 11.6056 2.25 12.0001 2.25C12.3947 2.25 12.7823 2.35374 13.124 2.55082C13.4658 2.7479 13.7498 3.03139 13.9474 3.37285L22.1952 17.6221C22.3955 17.9633 22.5012 18.3518 22.5015 18.7474C22.5019 19.1431 22.3968 19.5317 22.1971 19.8732ZM20.897 18.3735L12.6492 4.12427C12.5833 4.01045 12.4887 3.91596 12.3748 3.85027C12.2608 3.78458 12.1316 3.75 12.0001 3.75C11.8686 3.75 11.7394 3.78458 11.6255 3.85027C11.5115 3.91596 11.4169 4.01045 11.351 4.12427L3.1032 18.3735C3.03723 18.4875 3.00245 18.6169 3.00235 18.7486C3.00225 18.8803 3.03684 19.0098 3.10263 19.1239C3.16843 19.238 3.26311 19.3327 3.37716 19.3986C3.4912 19.4645 3.62059 19.4993 3.75231 19.4993H20.2479C20.3796 19.4993 20.509 19.4645 20.6231 19.3986C20.7371 19.3327 20.8318 19.238 20.8976 19.1239C20.9634 19.0098 20.998 18.8803 20.9979 18.7486C20.9978 18.6169 20.963 18.4875 20.897 18.3735V18.3735ZM12.0001 15.75C11.7776 15.75 11.5601 15.816 11.3751 15.9396C11.1901 16.0632 11.0459 16.2389 10.9607 16.4445C10.8756 16.6501 10.8533 16.8763 10.8967 17.0945C10.9401 17.3127 11.0473 17.5132 11.2046 17.6705C11.3619 17.8278 11.5624 17.935 11.7806 17.9784C11.9989 18.0218 12.2251 17.9995 12.4306 17.9144C12.6362 17.8292 12.8119 17.685 12.9355 17.5C13.0591 17.315 13.1251 17.0975 13.1251 16.875C13.1248 16.5767 13.0061 16.2908 12.7952 16.0799C12.5843 15.869 12.2984 15.7503 12.0001 15.75Z" fill="#1D1F21" style="fill: var(--ui-icon-primary-color);"/>
</svg>
