<svg  viewBox="0 0 24 24" fill="none" xmlns="http://www.w3.org/2000/svg" id="__THIS_ID_NEEDS_FOR_UI_ICON_COMPONENT__">
<path d="M11.9999 2.25C10.0716 2.25 8.18651 2.82183 6.58313 3.89317C4.97975 4.96451 3.73007 6.48726 2.99212 8.26884C2.25416 10.0504 2.06108 12.0108 2.43729 13.9021C2.81349 15.7934 3.74209 17.5307 5.10565 18.8943C6.46921 20.2579 8.2065 21.1865 10.0978 21.5627C11.9891 21.9389 13.9495 21.7458 15.7311 21.0078C17.5127 20.2699 19.0354 19.0202 20.1068 17.4168C21.1781 15.8134 21.7499 13.9284 21.7499 12C21.747 9.41503 20.7189 6.93678 18.891 5.10893C17.0632 3.28108 14.5849 2.25292 11.9999 2.25ZM11.9999 20.25C10.3682 20.25 8.77319 19.7661 7.41649 18.8596C6.05978 17.9531 5.00236 16.6646 4.37794 15.1571C3.75351 13.6496 3.59014 11.9908 3.90846 10.3905C4.22679 8.79016 5.01253 7.32015 6.16631 6.16637C7.3201 5.01259 8.7901 4.22685 10.3904 3.90852C11.9908 3.59019 13.6496 3.75357 15.1571 4.37799C16.6646 5.00242 17.953 6.05984 18.8596 7.41655C19.7661 8.77325 20.2499 10.3683 20.2499 12C20.2475 14.1873 19.3775 16.2843 17.8308 17.8309C16.2842 19.3775 14.1872 20.2475 11.9999 20.25ZM11.2499 12.75V7.5C11.2499 7.30109 11.329 7.11032 11.4696 6.96967C11.6103 6.82902 11.801 6.75 11.9999 6.75C12.1989 6.75 12.3896 6.82902 12.5303 6.96967C12.6709 7.11032 12.7499 7.30109 12.7499 7.5V12.75C12.7499 12.9489 12.6709 13.1397 12.5303 13.2803C12.3896 13.421 12.1989 13.5 11.9999 13.5C11.801 13.5 11.6103 13.421 11.4696 13.2803C11.329 13.1397 11.2499 12.9489 11.2499 12.75ZM13.1249 16.125C13.1249 16.3475 13.059 16.565 12.9353 16.75C12.8117 16.935 12.636 17.0792 12.4305 17.1644C12.2249 17.2495 11.9987 17.2718 11.7805 17.2284C11.5622 17.185 11.3618 17.0778 11.2044 16.9205C11.0471 16.7632 10.94 16.5627 10.8966 16.3445C10.8532 16.1262 10.8754 15.9 10.9606 15.6945C11.0457 15.4889 11.1899 15.3132 11.3749 15.1896C11.5599 15.066 11.7774 15 11.9999 15C12.2982 15.0003 12.5842 15.119 12.7951 15.3299C13.006 15.5408 13.1246 15.8267 13.1249 16.125Z" fill="#1D1F21" style="fill: var(--ui-icon-primary-color);"/>
</svg>
