<svg  viewBox="0 0 24 24" fill="none" xmlns="http://www.w3.org/2000/svg" id="__THIS_ID_NEEDS_FOR_UI_ICON_COMPONENT__">
<path d="M12 2.25C10.3065 2.25046 8.64236 2.69187 7.17129 3.5308C5.70021 4.36973 4.47294 5.57726 3.61027 7.03453C2.74759 8.4918 2.27925 10.1486 2.25133 11.8418C2.22341 13.5351 2.63687 15.2064 3.45103 16.6913L2.64972 19.4959C2.57622 19.7531 2.57284 20.0253 2.63994 20.2842C2.70703 20.5432 2.84216 20.7795 3.03131 20.9687C3.22047 21.1578 3.45677 21.2929 3.71572 21.36C3.97468 21.4271 4.24687 21.4238 4.50408 21.3503L7.30871 20.549C8.61204 21.2642 10.0617 21.6718 11.5467 21.7409C13.0318 21.8099 14.5129 21.5384 15.877 20.9472C17.241 20.356 18.4518 19.4607 19.4168 18.3297C20.3818 17.1988 21.0754 15.8622 21.4445 14.4221C21.8137 12.9821 21.8488 11.4766 21.5469 10.0209C21.2451 8.56524 20.6143 7.19784 19.703 6.02329C18.7916 4.84873 17.6238 3.89812 16.2887 3.24414C14.9536 2.59015 13.4867 2.2501 12 2.25ZM12 20.25C10.5184 20.2511 9.06398 19.8525 7.7899 19.0963C7.70205 19.0441 7.60444 19.0104 7.50308 18.9972C7.40171 18.9841 7.29873 18.9917 7.20044 19.0198L4.09204 19.908L4.98006 16.7996C5.00814 16.7013 5.01584 16.5983 5.00268 16.497C4.98953 16.3957 4.9558 16.2981 4.90357 16.2102C3.97438 14.6447 3.58905 12.8158 3.80762 11.0084C4.02619 9.201 4.83637 7.51666 6.11197 6.21773C7.38757 4.91879 9.05695 4.07821 10.8601 3.82692C12.6632 3.57563 14.4988 3.92774 16.0809 4.8284C17.6631 5.72906 18.9029 7.1277 19.6073 8.80645C20.3118 10.4852 20.4412 12.3498 19.9754 14.1097C19.5097 15.8697 18.475 17.4262 17.0324 18.5368C15.5899 19.6474 13.8205 20.2498 12 20.25ZM16.9215 13.4128L15.0034 12.3167C14.772 12.1846 14.5096 12.1165 14.2432 12.1194C13.9768 12.1222 13.716 12.1959 13.4875 12.3329L12.3764 12.9996C11.8048 12.6699 11.3302 12.1953 11.0005 11.6236L11.6671 10.5125C11.804 10.2839 11.8777 10.0231 11.8805 9.75672C11.8834 9.49034 11.8153 9.228 11.6832 8.99662L10.5872 7.07841C10.4648 6.86492 10.2883 6.68748 10.0755 6.56399C9.86265 6.44049 9.62102 6.3753 9.37496 6.375C8.48197 6.37535 7.62549 6.72945 6.99297 7.3598C6.36044 7.99014 6.00339 8.8454 5.99996 9.73837C5.99842 10.8228 6.21068 11.8968 6.62459 12.8991C7.0385 13.9013 7.64594 14.8122 8.41216 15.5795C9.17839 16.3468 10.0884 16.9556 11.0901 17.3709C12.0917 17.7862 13.1655 18 14.2499 18C14.2538 18 14.2597 18.0022 14.2617 18C15.1546 17.9965 16.0099 17.6395 16.6402 17.007C17.2705 16.3744 17.6246 15.518 17.625 14.625C17.6247 14.3789 17.5595 14.1373 17.436 13.9244C17.3124 13.7116 17.135 13.5351 16.9215 13.4128V13.4128ZM14.2596 16.5C13.3715 16.5013 12.492 16.3273 11.6713 15.988C10.8506 15.6488 10.1049 15.1509 9.47697 14.523C8.84903 13.895 8.35117 13.1494 8.01192 12.3287C7.67266 11.508 7.49869 10.6284 7.49996 9.74039C7.50222 9.25504 7.69268 8.78949 8.03127 8.44173C8.36985 8.09398 8.83015 7.89114 9.31526 7.87592L10.3808 9.74076L9.50066 11.2078C9.43841 11.3115 9.40218 11.4288 9.39505 11.5495C9.38793 11.6703 9.41012 11.791 9.45973 11.9013C9.98674 13.0743 10.9257 14.0132 12.0987 14.5402C12.209 14.5899 12.3297 14.6121 12.4505 14.6049C12.5712 14.5978 12.6885 14.5616 12.7922 14.4993L14.2592 13.6191L16.124 14.6847C16.1088 15.1698 15.906 15.6301 15.5582 15.9687C15.2105 16.3073 14.7449 16.4977 14.2596 16.5Z" fill="#1D1F21" style="fill: var(--ui-icon-primary-color);"/>
</svg>
