<svg  viewBox="0 0 24 24" fill="none" xmlns="http://www.w3.org/2000/svg" id="__THIS_ID_NEEDS_FOR_UI_ICON_COMPONENT__">
<path d="M23.2009 17.3882C23.1698 17.2947 23.1205 17.2083 23.056 17.1338C22.9915 17.0594 22.9129 16.9984 22.8248 16.9544C22.7367 16.9103 22.6408 16.8841 22.5425 16.8771C22.4442 16.8702 22.3456 16.8826 22.2521 16.9138L20.6193 17.4581L17.9102 12.0399C17.8479 11.9153 17.7521 11.8106 17.6336 11.7373C17.5152 11.6641 17.3786 11.6253 17.2394 11.6253H9.73935V9.75032H14.9894C15.1883 9.75032 15.379 9.67131 15.5197 9.53065C15.6603 9.39 15.7394 9.19924 15.7394 9.00032C15.7394 8.80141 15.6603 8.61065 15.5197 8.46999C15.379 8.32934 15.1883 8.25032 14.9894 8.25032H9.73935V6.26558C10.3436 6.08542 10.8628 5.69379 11.202 5.1623C11.5413 4.6308 11.6779 3.99496 11.5869 3.37103C11.4958 2.7471 11.1833 2.17679 10.7063 1.76437C10.2293 1.35196 9.61988 1.125 8.98935 1.125C8.35882 1.125 7.74935 1.35196 7.2724 1.76437C6.79545 2.17679 6.48288 2.7471 6.39185 3.37103C6.30082 3.99496 6.43741 4.6308 6.77665 5.1623C7.11589 5.69379 7.6351 6.08542 8.23935 6.26558V8.42041C7.01805 8.69892 5.89836 9.31182 5.00558 10.1905C4.1128 11.0692 3.48217 12.179 3.18425 13.3957C2.88634 14.6124 2.93291 15.888 3.31874 17.0798C3.70457 18.2715 4.41445 19.3324 5.36891 20.1437C6.32338 20.9549 7.48479 21.4846 8.72314 21.6733C9.9615 21.862 11.2279 21.7024 12.3807 21.2123C13.5335 20.7222 14.5272 19.9209 15.2505 18.8982C15.9739 17.8755 16.3983 16.6717 16.4763 15.4215C16.4886 15.2229 16.4215 15.0277 16.2897 14.8787C16.158 14.7296 15.9725 14.639 15.774 14.6268C15.5754 14.6146 15.3802 14.6817 15.2311 14.8134C15.0821 14.9451 14.9915 15.1307 14.9793 15.3292C14.9193 16.287 14.5979 17.2101 14.05 17.9981C13.5022 18.7861 12.7488 19.4088 11.8718 19.7986C10.9948 20.1884 10.0277 20.3304 9.07565 20.209C8.12362 20.0877 7.22307 19.7077 6.47187 19.1104C5.72068 18.513 5.14759 17.7212 4.8149 16.821C4.4822 15.9208 4.40263 14.9466 4.58484 14.0043C4.76704 13.062 5.20405 12.1877 5.84836 11.4764C6.49267 10.7651 7.31963 10.2441 8.23935 9.96983V12.3753C8.23935 12.5742 8.31837 12.765 8.45902 12.9057C8.59967 13.0463 8.79044 13.1253 8.98935 13.1253H16.7758L19.5685 18.7107C19.6492 18.8723 19.7855 18.9993 19.9523 19.0684C20.1191 19.1375 20.3053 19.1441 20.4766 19.0868L22.7266 18.3368C22.9153 18.2739 23.0712 18.1386 23.1602 17.9607C23.2491 17.7828 23.2638 17.5769 23.2009 17.3882ZM7.86435 3.75032C7.86435 3.52782 7.93033 3.31031 8.05395 3.12531C8.17756 2.9403 8.35326 2.79611 8.55883 2.71096C8.7644 2.62581 8.9906 2.60353 9.20883 2.64694C9.42706 2.69035 9.62751 2.7975 9.78485 2.95483C9.94218 3.11216 10.0493 3.31262 10.0927 3.53085C10.1361 3.74908 10.1139 3.97528 10.0287 4.18084C9.94357 4.38641 9.79937 4.56211 9.61437 4.68573C9.42936 4.80934 9.21185 4.87532 8.98935 4.87532C8.69108 4.87499 8.40513 4.75636 8.19422 4.54545C7.98332 4.33455 7.86468 4.04859 7.86435 3.75032Z" fill="#1D1F21" style="fill: var(--ui-icon-primary-color);"/>
</svg>
