<svg  viewBox="0 0 24 24" fill="none" xmlns="http://www.w3.org/2000/svg" id="__THIS_ID_NEEDS_FOR_UI_ICON_COMPONENT__">
<path d="M15.8089 15.0293C15.9516 15.1677 16.0335 15.3571 16.0366 15.5558C16.0398 15.7546 15.9639 15.9464 15.8257 16.0892C15.6874 16.2321 15.4982 16.3142 15.2994 16.3176C15.1007 16.321 14.9088 16.2453 14.7658 16.1073C14.02 15.3967 13.0294 15.0003 11.9993 15.0003C10.9692 15.0003 9.97862 15.3967 9.23286 16.1073C9.08992 16.2456 8.89788 16.3215 8.69899 16.3182C8.5001 16.3149 8.31065 16.2328 8.17231 16.0899C8.03398 15.9469 7.9581 15.7549 7.96136 15.556C7.96463 15.3571 8.04676 15.1676 8.18971 15.0293C9.21525 14.048 10.5799 13.5003 11.9993 13.5003C13.4187 13.5003 14.7834 14.048 15.8089 15.0293H15.8089ZM19.8107 7.50002L21.5304 5.78038C21.6 5.71074 21.6553 5.62806 21.693 5.53707C21.7307 5.44607 21.7501 5.34854 21.7501 5.25005C21.7501 5.15156 21.7307 5.05403 21.693 4.96303C21.6553 4.87203 21.6001 4.78935 21.5304 4.7197C21.4608 4.65005 21.3781 4.5948 21.2871 4.5571C21.1961 4.51941 21.0986 4.5 21.0001 4.5C20.9016 4.5 20.8041 4.51939 20.7131 4.55708C20.6221 4.59477 20.5394 4.65001 20.4697 4.71965L18.75 6.43933L17.0304 4.71965C16.8897 4.579 16.6989 4.49999 16.5 4.5C16.3011 4.50001 16.1103 4.57904 15.9697 4.7197C15.829 4.86036 15.75 5.05113 15.75 5.25005C15.75 5.44897 15.8291 5.63973 15.9697 5.78038L17.6894 7.50002L15.9697 9.21965C15.8291 9.3603 15.75 9.55107 15.75 9.74999C15.75 9.9489 15.829 10.1397 15.9697 10.2803C16.1103 10.421 16.3011 10.5 16.5 10.5C16.6989 10.5 16.8897 10.421 17.0304 10.2804L18.75 8.56071L20.4697 10.2804C20.6104 10.421 20.8012 10.5 21.0001 10.5C21.199 10.5 21.3898 10.421 21.5304 10.2803C21.6711 10.1397 21.7501 9.94891 21.7501 9.74999C21.7501 9.55107 21.671 9.36031 21.5304 9.21966L19.8107 7.50002ZM13.42 6.07665C13.518 6.08733 13.6171 6.0786 13.7117 6.05096C13.8062 6.02332 13.8944 5.97731 13.9712 5.91557C14.048 5.85383 14.1119 5.77756 14.1592 5.69112C14.2065 5.60468 14.2363 5.50977 14.2469 5.41181C14.2575 5.31384 14.2487 5.21475 14.221 5.1202C14.1933 5.02564 14.1472 4.93747 14.0854 4.86072C14.0236 4.78398 13.9473 4.72017 13.8608 4.67293C13.7743 4.6257 13.6794 4.59596 13.5814 4.58544C13.056 4.52874 12.5278 4.50032 11.9993 4.50029C8.18826 4.48682 4.52778 5.98701 1.82231 8.67116C1.68107 8.81109 1.60117 9.00138 1.60017 9.2002C1.59917 9.39902 1.67715 9.59011 1.81698 9.73145C1.95681 9.8728 2.14704 9.95284 2.34586 9.95399C2.54468 9.95513 2.73582 9.87729 2.87727 9.73757C5.30244 7.33203 8.58348 5.98779 11.9993 6.00029C12.4739 6.00032 12.9482 6.02581 13.42 6.07665ZM13.3818 10.6113C13.479 10.6271 13.5784 10.6236 13.6743 10.601C13.7701 10.5784 13.8606 10.5372 13.9405 10.4796C14.0204 10.422 14.0882 10.3493 14.14 10.2655C14.1918 10.1817 14.2266 10.0886 14.2424 9.99135C14.2582 9.89413 14.2547 9.79475 14.2321 9.69889C14.2095 9.60303 14.1682 9.51256 14.1106 9.43264C14.0531 9.35273 13.9803 9.28494 13.8965 9.23314C13.8128 9.18134 13.7196 9.14655 13.6224 9.13075C13.0857 9.04384 12.543 9.00021 11.9993 9.00029C9.38237 8.99005 6.86754 10.015 5.00335 11.8517C4.93314 11.9208 4.87722 12.003 4.83878 12.0937C4.80034 12.1843 4.78014 12.2817 4.77933 12.3802C4.77851 12.4787 4.79711 12.5763 4.83405 12.6676C4.87099 12.7589 4.92554 12.8421 4.99461 12.9123C5.06368 12.9825 5.14589 13.0384 5.23657 13.0769C5.32725 13.1153 5.42461 13.1355 5.5231 13.1363C5.62158 13.1371 5.71926 13.1185 5.81056 13.0816C5.90186 13.0447 5.98499 12.9901 6.0552 12.921C7.63937 11.3611 9.77608 10.491 11.9993 10.5003C12.4624 10.5002 12.9247 10.5373 13.3818 10.6113ZM12 17.625C11.7775 17.625 11.56 17.691 11.375 17.8146C11.19 17.9382 11.0458 18.1139 10.9607 18.3195C10.8755 18.5251 10.8533 18.7513 10.8967 18.9695C10.9401 19.1877 11.0472 19.3882 11.2045 19.5455C11.3619 19.7028 11.5623 19.81 11.7806 19.8534C11.9988 19.8968 12.225 19.8745 12.4306 19.7894C12.6361 19.7042 12.8118 19.56 12.9354 19.375C13.0591 19.19 13.125 18.9725 13.125 18.75C13.1247 18.4518 13.0061 18.1658 12.7952 17.9549C12.5843 17.744 12.2983 17.6253 12 17.625Z" fill="#1D1F21" style="fill: var(--ui-icon-primary-color);"/>
</svg>
