<svg  viewBox="0 0 24 24" fill="none" xmlns="http://www.w3.org/2000/svg" id="__THIS_ID_NEEDS_FOR_UI_ICON_COMPONENT__">
<path d="M15.809 15.0285C15.9517 15.1669 16.0336 15.3563 16.0367 15.555C16.0398 15.7538 15.964 15.9456 15.8257 16.0885C15.6875 16.2313 15.4983 16.3134 15.2995 16.3168C15.1008 16.3202 14.9088 16.2445 14.7658 16.1065C14.0201 15.3959 13.0295 14.9995 11.9994 14.9995C10.9693 14.9995 9.9787 15.3959 9.23294 16.1065C9.08999 16.2448 8.89795 16.3207 8.69906 16.3174C8.50017 16.3142 8.31072 16.232 8.17239 16.0891C8.03406 15.9461 7.95818 15.7541 7.96144 15.5552C7.9647 15.3563 8.04684 15.1669 8.18978 15.0285C9.21533 14.0472 10.58 13.4995 11.9994 13.4995C13.4188 13.4995 14.7834 14.0472 15.809 15.0285H15.809ZM11.9994 8.99951C9.38246 8.98927 6.86764 10.0142 5.00343 11.8508C4.86161 11.9903 4.78102 12.1804 4.77937 12.3793C4.77772 12.5782 4.85516 12.7697 4.99464 12.9115C5.13412 13.0533 5.32423 13.1339 5.52314 13.1355C5.72205 13.1372 5.91346 13.0597 6.05528 12.9203C7.64466 11.3683 9.77798 10.4995 11.9994 10.4995C14.2208 10.4995 16.3541 11.3683 17.9435 12.9203C18.0853 13.0597 18.2767 13.137 18.4756 13.1354C18.6744 13.1337 18.8645 13.0531 19.004 12.9113C19.1434 12.7695 19.2208 12.5781 19.2192 12.3793C19.2176 12.1804 19.1371 11.9903 18.9953 11.8508C17.1311 10.0142 14.6163 8.98927 11.9994 8.99951ZM22.1764 8.67043C19.4634 5.99769 15.8078 4.49951 11.9994 4.49951C8.19097 4.49951 4.53541 5.99769 1.82238 8.67043C1.68098 8.81032 1.60093 9.00066 1.59986 9.19958C1.5988 9.39849 1.67679 9.58968 1.81669 9.73109C1.95658 9.87249 2.14692 9.95254 2.34584 9.95361C2.54475 9.95468 2.73594 9.87668 2.87735 9.73679C5.30954 7.34187 8.586 5.99951 11.9994 5.99951C15.4128 5.99951 18.6892 7.34187 21.1214 9.73679C21.1914 9.80606 21.2744 9.86086 21.3656 9.89806C21.4568 9.93526 21.5544 9.95414 21.6529 9.95361C21.7514 9.95308 21.8489 9.93315 21.9396 9.89497C22.0304 9.85679 22.1128 9.80111 22.1821 9.73109C22.2514 9.66107 22.3062 9.57809 22.3434 9.4869C22.3806 9.3957 22.3994 9.29807 22.3989 9.19958C22.3984 9.10108 22.3785 9.00366 22.3403 8.91287C22.3021 8.82208 22.2464 8.7397 22.1764 8.67043ZM12.0001 17.6242C11.7776 17.6242 11.5601 17.6902 11.3751 17.8138C11.1901 17.9375 11.0459 18.1132 10.9608 18.3187C10.8756 18.5243 10.8533 18.7505 10.8967 18.9687C10.9401 19.1869 11.0473 19.3874 11.2046 19.5447C11.362 19.7021 11.5624 19.8092 11.7806 19.8526C11.9989 19.896 12.2251 19.8737 12.4306 19.7886C12.6362 19.7035 12.8119 19.5593 12.9355 19.3743C13.0591 19.1892 13.1251 18.9717 13.1251 18.7492C13.1248 18.451 13.0062 18.165 12.7952 17.9541C12.5843 17.7432 12.2984 17.6246 12.0001 17.6242Z" fill="#1D1F21" style="fill: var(--ui-icon-primary-color);"/>
</svg>
