<svg  viewBox="0 0 24 24" fill="none" xmlns="http://www.w3.org/2000/svg" id="__THIS_ID_NEEDS_FOR_UI_ICON_COMPONENT__">
<path d="M20.055 19.7455C20.1888 19.8927 20.2587 20.087 20.2492 20.2857C20.2398 20.4844 20.1518 20.6712 20.0046 20.805C19.8574 20.9388 19.6631 21.0086 19.4644 20.9992C19.2657 20.9897 19.0789 20.9018 18.9451 20.7546L14.5302 15.8982C13.7728 15.2831 12.8172 14.9649 11.8421 15.0034C10.8671 15.0419 9.93948 15.4343 9.23286 16.1073C9.16208 16.1758 9.07851 16.2296 8.9869 16.2658C8.8953 16.302 8.79747 16.3198 8.69898 16.3182C8.6005 16.3166 8.50331 16.2956 8.41294 16.2564C8.32257 16.2172 8.24081 16.1606 8.17231 16.0899C8.10382 16.0191 8.04993 15.9355 8.01374 15.8439C7.97754 15.7523 7.95975 15.6545 7.96136 15.556C7.96298 15.4575 7.98397 15.3603 8.02315 15.2699C8.06233 15.1796 8.11893 15.0978 8.18971 15.0293C9.21145 14.0421 10.5786 13.4934 11.9993 13.5003C12.1208 13.5003 12.2417 13.5056 12.3623 13.5135L9.86764 10.7694C8.42905 11.1372 7.11361 11.8796 6.0552 12.921C5.98504 12.9904 5.9019 13.0452 5.81053 13.0823C5.71916 13.1195 5.62136 13.1382 5.52273 13.1375C5.4241 13.1368 5.32657 13.1167 5.23574 13.0782C5.14491 13.0398 5.06255 12.9838 4.99339 12.9135C4.92422 12.8432 4.8696 12.7599 4.83266 12.6685C4.79572 12.577 4.77718 12.4792 4.77811 12.3805C4.77903 12.2819 4.79941 12.1844 4.83806 12.0937C4.87671 12.0029 4.93288 11.9207 5.00335 11.8517C6.06256 10.8094 7.34291 10.019 8.74937 9.53927L6.59601 7.17057C5.21453 7.79987 3.95549 8.66897 2.87727 9.73757C2.73582 9.87729 2.54468 9.95514 2.34586 9.95399C2.14704 9.95284 1.95681 9.8728 1.81698 9.73146C1.67715 9.59011 1.59917 9.39903 1.60017 9.20021C1.60117 9.00139 1.68107 8.8111 1.82231 8.67116C2.91179 7.59114 4.16745 6.69286 5.54146 6.01055L3.9451 4.25457C3.87884 4.18169 3.82758 4.09648 3.79426 4.00379C3.76093 3.91111 3.74619 3.81277 3.75087 3.71438C3.75555 3.616 3.77956 3.5195 3.82153 3.4304C3.86351 3.3413 3.92262 3.26133 3.9955 3.19508C4.06837 3.12882 4.15359 3.07756 4.24627 3.04424C4.33896 3.01091 4.4373 2.99617 4.53568 3.00085C4.63406 3.00553 4.73056 3.02954 4.81966 3.07151C4.90877 3.11349 4.98873 3.1726 5.05499 3.24548L20.055 19.7455ZM22.1763 8.67116C19.4708 5.98701 15.8104 4.48683 11.9993 4.5003C11.3097 4.50031 10.6209 4.54877 9.93809 4.64532C9.74131 4.67345 9.56375 4.77855 9.44442 4.93753C9.32508 5.09651 9.27374 5.29636 9.30167 5.49317C9.3296 5.68998 9.43451 5.86765 9.59336 5.98715C9.75221 6.10665 9.95201 6.15821 10.1488 6.13049C10.7619 6.04377 11.3802 6.00027 11.9993 6.0003C15.4151 5.9878 18.6962 7.33203 21.1214 9.73757C21.2628 9.87747 21.454 9.95546 21.6529 9.95438C21.8518 9.95331 22.0421 9.87326 22.182 9.73185C22.3219 9.59043 22.3999 9.39924 22.3989 9.20032C22.3978 9.0014 22.3177 8.81106 22.1763 8.67116L22.1763 8.67116ZM17.9434 12.921C18.0136 12.9901 18.0967 13.0447 18.188 13.0816C18.2793 13.1186 18.377 13.1372 18.4755 13.1364C18.574 13.1355 18.6713 13.1153 18.762 13.0769C18.8527 13.0385 18.9349 12.9826 19.004 12.9123C19.0731 12.8421 19.1276 12.759 19.1646 12.6677C19.2015 12.5764 19.2201 12.4787 19.2193 12.3802C19.2185 12.2817 19.1983 12.1844 19.1599 12.0937C19.1214 12.003 19.0655 11.9208 18.9953 11.8517C17.7325 10.6105 16.1609 9.7295 14.4432 9.29985C14.2503 9.25159 14.046 9.28196 13.8755 9.38429C13.7049 9.48661 13.5819 9.6525 13.5337 9.84546C13.4854 10.0384 13.5158 10.2427 13.6181 10.4132C13.7204 10.5838 13.8863 10.7067 14.0793 10.755C15.5374 11.1196 16.8715 11.8675 17.9434 12.921V12.921ZM11.9995 17.625C11.777 17.625 11.5595 17.691 11.3745 17.8146C11.1895 17.9382 11.0453 18.1139 10.9601 18.3195C10.875 18.5251 10.8527 18.7513 10.8961 18.9695C10.9395 19.1877 11.0467 19.3882 11.204 19.5455C11.3613 19.7029 11.5618 19.81 11.78 19.8534C11.9982 19.8968 12.2244 19.8745 12.43 19.7894C12.6356 19.7042 12.8113 19.56 12.9349 19.375C13.0585 19.19 13.1245 18.9725 13.1245 18.75C13.1242 18.4518 13.0055 18.1658 12.7946 17.9549C12.5837 17.744 12.2978 17.6254 11.9995 17.625Z" fill="#1D1F21" style="fill: var(--ui-icon-primary-color);"/>
</svg>
