<svg  viewBox="0 0 24 24" fill="none" xmlns="http://www.w3.org/2000/svg" id="__THIS_ID_NEEDS_FOR_UI_ICON_COMPONENT__">
<path d="M15.8263 16.0891C15.7578 16.1599 15.6761 16.2165 15.5857 16.2557C15.4953 16.2948 15.3982 16.3158 15.2997 16.3175C15.2012 16.3191 15.1034 16.3013 15.0118 16.2651C14.9202 16.2289 14.8366 16.175 14.7658 16.1065C14.0201 15.3959 13.0295 14.9995 11.9994 14.9995C10.9693 14.9995 9.97869 15.3959 9.23293 16.1065C9.16216 16.175 9.07859 16.2289 8.98699 16.2651C8.89539 16.3013 8.79756 16.3191 8.69909 16.3174C8.60061 16.3158 8.50342 16.2948 8.41305 16.2557C8.32269 16.2165 8.24092 16.1599 8.17243 16.0891C8.10393 16.0184 8.05005 15.9348 8.01385 15.8432C7.97766 15.7516 7.95985 15.6538 7.96147 15.5553C7.96308 15.4568 7.98407 15.3596 8.02324 15.2693C8.06241 15.1789 8.119 15.0971 8.18978 15.0286C9.21529 14.0473 10.58 13.4995 11.9994 13.4995C13.4188 13.4995 14.7835 14.0473 15.809 15.0286C15.8798 15.0971 15.9363 15.1789 15.9755 15.2692C16.0147 15.3596 16.0357 15.4568 16.0373 15.5553C16.0389 15.6538 16.0211 15.7516 15.9849 15.8432C15.9487 15.9348 15.8948 16.0184 15.8263 16.0891ZM12.0001 17.6242C11.7776 17.6242 11.5601 17.6902 11.3751 17.8138C11.1901 17.9375 11.0459 18.1132 10.9607 18.3187C10.8756 18.5243 10.8533 18.7505 10.8967 18.9687C10.9401 19.1869 11.0473 19.3874 11.2046 19.5447C11.362 19.7021 11.5624 19.8092 11.7806 19.8526C11.9989 19.896 12.2251 19.8738 12.4306 19.7886C12.6362 19.7035 12.8119 19.5593 12.9355 19.3743C13.0591 19.1893 13.1251 18.9717 13.1251 18.7492C13.1248 18.451 13.0061 18.165 12.7952 17.9541C12.5843 17.7432 12.2984 17.6246 12.0001 17.6242Z" fill="#1D1F21" style="fill: var(--ui-icon-primary-color);"/>
</svg>
