<svg  viewBox="0 0 24 24" fill="none" xmlns="http://www.w3.org/2000/svg" id="__THIS_ID_NEEDS_FOR_UI_ICON_COMPONENT__">
<path d="M15.8088 15.0286C15.8797 15.0971 15.9364 15.1789 15.9757 15.2693C16.015 15.3597 16.0361 15.4569 16.0378 15.5555C16.0395 15.654 16.0217 15.752 15.9855 15.8437C15.9493 15.9354 15.8954 16.019 15.8269 16.0898C15.7583 16.1607 15.6765 16.2173 15.586 16.2565C15.4955 16.2957 15.3982 16.3166 15.2997 16.3182C15.2011 16.3197 15.1032 16.3018 15.0116 16.2655C14.9199 16.2292 14.8363 16.1751 14.7656 16.1065C14.0198 15.3959 13.0293 14.9995 11.9992 14.9995C10.9691 14.9995 9.97847 15.3959 9.23271 16.1065C9.16194 16.175 9.07837 16.2289 8.98677 16.2651C8.89517 16.3012 8.79734 16.3191 8.69886 16.3174C8.60039 16.3158 8.50319 16.2948 8.41283 16.2557C8.32246 16.2165 8.2407 16.1599 8.17221 16.0891C8.10371 16.0184 8.04983 15.9348 8.01363 15.8432C7.97743 15.7516 7.95963 15.6538 7.96124 15.5553C7.96285 15.4568 7.98384 15.3596 8.02302 15.2692C8.06219 15.1789 8.11878 15.0971 8.18955 15.0286C9.21507 14.0473 10.5797 13.4995 11.9992 13.4995C13.4186 13.4995 14.7832 14.0473 15.8088 15.0286H15.8088ZM18.9951 11.8508C17.1252 10.0229 14.6141 8.99951 11.9992 8.99951C9.38422 8.99951 6.87314 10.0229 5.0032 11.8508C4.86138 11.9903 4.78079 12.1804 4.77914 12.3793C4.77749 12.5782 4.85493 12.7697 4.99441 12.9115C5.13389 13.0533 5.324 13.1339 5.52291 13.1355C5.72182 13.1372 5.91323 13.0597 6.05505 12.9203C7.64443 11.3683 9.77774 10.4995 11.9992 10.4995C14.2206 10.4995 16.3539 11.3683 17.9433 12.9203C18.0851 13.0597 18.2765 13.137 18.4754 13.1354C18.6742 13.1337 18.8643 13.0531 19.0037 12.9113C19.1432 12.7695 19.2206 12.5781 19.219 12.3793C19.2174 12.1804 19.1369 11.9903 18.9951 11.8508ZM11.9999 17.6242C11.7774 17.6242 11.5599 17.6902 11.3749 17.8138C11.1899 17.9375 11.0457 18.1132 10.9605 18.3187C10.8754 18.5243 10.8531 18.7505 10.8965 18.9687C10.9399 19.1869 11.0471 19.3874 11.2044 19.5447C11.3617 19.7021 11.5622 19.8092 11.7804 19.8526C11.9986 19.896 12.2248 19.8737 12.4304 19.7886C12.636 19.7035 12.8117 19.5593 12.9353 19.3743C13.0589 19.1892 13.1249 18.9717 13.1249 18.7492C13.1245 18.451 13.0059 18.165 12.795 17.9541C12.5841 17.7432 12.2982 17.6246 11.9999 17.6242Z" fill="#1D1F21" style="fill: var(--ui-icon-primary-color);"/>
</svg>
