<svg  viewBox="0 0 24 24" fill="none" xmlns="http://www.w3.org/2000/svg" id="__THIS_ID_NEEDS_FOR_UI_ICON_COMPONENT__">
<path d="M21.2159 6.36363C21.1679 6.25056 21.0929 6.15099 20.9974 6.07368C20.9019 5.99636 20.789 5.94367 20.6684 5.92021C20.5478 5.89675 20.4233 5.90325 20.3058 5.93914C20.1884 5.97503 20.0815 6.03922 19.9946 6.12605L16.3445 9.77617L14.5767 9.42259L14.2232 7.6548L17.8732 4.00477C17.9602 3.91793 18.0244 3.81106 18.0603 3.69356C18.0963 3.57607 18.1028 3.45154 18.0794 3.33093C18.0559 3.21032 18.0032 3.09732 17.9258 3.00186C17.8485 2.9064 17.7488 2.8314 17.6357 2.78346C16.391 2.25613 15.0166 2.11456 13.6905 2.37708C12.3644 2.6396 11.1476 3.29412 10.1976 4.25593C9.24766 5.21773 8.60827 6.44253 8.3622 7.77179C8.11613 9.10105 8.27472 10.4736 8.81743 11.7117L3.16872 16.5907C3.15494 16.6027 3.14153 16.6152 3.12862 16.6281C2.56649 17.1908 2.25083 17.9537 2.25104 18.7491C2.25125 19.5445 2.56731 20.3072 3.12973 20.8696C3.69216 21.4321 4.45491 21.7481 5.2503 21.7483C6.04569 21.7485 6.8086 21.4329 7.37131 20.8707C7.38422 20.8578 7.39664 20.8444 7.40857 20.8306L12.2876 15.182C13.5257 15.7247 14.8982 15.8833 16.2275 15.6372C17.5567 15.3911 18.7816 14.7517 19.7434 13.8018C20.7052 12.8518 21.3597 11.635 21.6222 10.3089C21.8848 8.98278 21.7432 7.60839 21.2159 6.36363L21.2159 6.36363ZM18.7123 12.7116C17.9078 13.5112 16.867 14.0302 15.7443 14.1914C14.6215 14.3527 13.4767 14.1476 12.4797 13.6067C12.3284 13.5176 12.1506 13.4844 11.9773 13.5129C11.8041 13.5414 11.6463 13.6298 11.5315 13.7626L6.29308 19.8273C6.01026 20.1009 5.63122 20.2525 5.23769 20.2493C4.84416 20.246 4.46766 20.0883 4.18937 19.81C3.91109 19.5317 3.75331 19.1552 3.75006 18.7617C3.74681 18.3682 3.89834 17.9891 4.17199 17.7063L10.2364 12.4679C10.3667 12.3554 10.4543 12.2016 10.4845 12.0322C10.5148 11.8628 10.4858 11.6881 10.4026 11.5376C9.92357 10.6685 9.70044 9.68166 9.759 8.69111C9.81756 7.70056 10.1554 6.74685 10.7335 5.94034C11.3116 5.13383 12.1062 4.5075 13.0254 4.13384C13.9447 3.76017 14.9509 3.65445 15.9277 3.8289L12.8787 6.87797C12.7914 6.96529 12.7269 7.07282 12.6912 7.191C12.6554 7.30919 12.6493 7.43438 12.6735 7.55546L13.2039 10.2071C13.233 10.3523 13.3043 10.4856 13.409 10.5903C13.5137 10.695 13.6471 10.7664 13.7923 10.7954L16.4439 11.3258C16.565 11.35 16.6902 11.344 16.8083 11.3082C16.9265 11.2724 17.034 11.208 17.1213 11.1207L20.1704 8.07155C20.3216 8.90524 20.2678 9.76317 20.0138 10.5715C19.7598 11.3798 19.3132 12.1143 18.7123 12.7116Z" fill="#1D1F21" style="fill: var(--ui-icon-primary-color);"/>
</svg>
