<svg  viewBox="0 0 24 24" fill="none" xmlns="http://www.w3.org/2000/svg" id="__THIS_ID_NEEDS_FOR_UI_ICON_COMPONENT__">
<path d="M12 2.25C10.0716 2.25 8.18657 2.82183 6.58319 3.89317C4.97982 4.96451 3.73013 6.48726 2.99218 8.26884C2.25422 10.0504 2.06114 12.0108 2.43735 13.9021C2.81355 15.7934 3.74215 17.5307 5.10571 18.8943C6.46927 20.2579 8.20656 21.1865 10.0979 21.5627C11.9892 21.9389 13.9496 21.7458 15.7312 21.0078C17.5127 20.2699 19.0355 19.0202 20.1068 17.4168C21.1782 15.8134 21.75 13.9284 21.75 12C21.7471 9.41504 20.7189 6.93679 18.8911 5.10894C17.0632 3.28109 14.585 2.25293 12 2.25ZM12 20.25C10.3683 20.25 8.77326 19.7661 7.41655 18.8596C6.05984 17.9531 5.00242 16.6646 4.378 15.1571C3.75358 13.6496 3.5902 11.9908 3.90853 10.3905C4.22685 8.79016 5.01259 7.32015 6.16637 6.16637C7.32016 5.01259 8.79017 4.22685 10.3905 3.90852C11.9909 3.59019 13.6497 3.75357 15.1571 4.37799C16.6646 5.00242 17.9531 6.05984 18.8596 7.41655C19.7661 8.77325 20.25 10.3683 20.25 12C20.2475 14.1873 19.3775 16.2843 17.8309 17.8309C16.2843 19.3775 14.1873 20.2475 12 20.25ZM15.5304 14.4697C15.671 14.6103 15.75 14.8011 15.75 15C15.75 15.1989 15.671 15.3897 15.5303 15.5304C15.3897 15.671 15.1989 15.75 15 15.75C14.8011 15.75 14.6103 15.671 14.4696 15.5303L12 13.0607L9.53037 15.5303C9.46073 15.6 9.37805 15.6552 9.28705 15.6929C9.19606 15.7306 9.09853 15.75 9.00004 15.75C8.90154 15.75 8.80401 15.7306 8.71301 15.6929C8.62202 15.6552 8.53933 15.6 8.46968 15.5304C8.40004 15.4607 8.34479 15.378 8.30709 15.287C8.2694 15.1961 8.24999 15.0985 8.24999 15C8.24998 14.9015 8.26938 14.804 8.30707 14.713C8.34475 14.622 8.4 14.5393 8.46964 14.4697L10.9393 12L8.46964 9.53032C8.32899 9.38966 8.24998 9.19889 8.24999 8.99997C8.24999 8.90148 8.2694 8.80395 8.30709 8.71295C8.34479 8.62196 8.40004 8.53928 8.46968 8.46964C8.53933 8.39999 8.62202 8.34475 8.71301 8.30706C8.80401 8.26938 8.90154 8.24998 9.00004 8.24998C9.19895 8.24999 9.38972 8.32902 9.53037 8.46968L12 10.9393L14.4695 8.46968C14.6102 8.32902 14.801 8.24999 14.9999 8.24998C15.1988 8.24997 15.3896 8.32899 15.5302 8.46964C15.6709 8.61028 15.7499 8.80105 15.7499 8.99997C15.7499 9.19888 15.6709 9.38966 15.5303 9.53032L13.0606 12L15.5304 14.4697Z" fill="#1D1F21" style="fill: var(--ui-icon-primary-color);"/>
</svg>
