<svg  viewBox="0 0 24 24" fill="none" xmlns="http://www.w3.org/2000/svg" id="__THIS_ID_NEEDS_FOR_UI_ICON_COMPONENT__">
<path d="M21.6256 6.25811C21.4413 5.09772 20.3805 4.08369 19.2063 3.9491C14.4149 3.42697 9.58092 3.42712 4.78953 3.94956C3.61976 4.08359 2.55884 5.09759 2.37363 6.26232C1.79124 10.0672 1.79147 13.9386 2.37432 17.7434C2.5588 18.9039 3.61976 19.9179 4.79355 20.0523C7.18681 20.3133 9.59249 20.444 11.9999 20.4439C14.4074 20.444 16.8131 20.3133 19.2063 20.0523L19.2102 20.0519C20.3802 19.918 21.4412 18.904 21.6263 17.7391C22.2086 13.9342 22.2084 10.0629 21.6256 6.25811ZM20.1442 17.508C20.0671 17.9929 19.5315 18.5043 19.0414 18.5614C14.3615 19.0713 9.64013 19.0714 4.96027 18.5616C4.46969 18.5054 3.93287 17.9934 3.85642 17.5123C3.29724 13.8607 3.29701 10.1452 3.85573 6.49349C3.93291 6.00808 4.46973 5.49602 4.95633 5.44022C9.63686 4.93006 14.359 4.9299 19.0395 5.43976C19.5302 5.49602 20.0671 6.00803 20.1435 6.48909C20.7026 10.1408 20.7029 13.8563 20.1442 17.508V17.508ZM15.416 11.3767L10.916 8.37668C10.803 8.30139 10.6717 8.25816 10.5362 8.2516C10.4006 8.24505 10.2657 8.27542 10.1461 8.33947C10.0264 8.40352 9.92631 8.49886 9.85655 8.61531C9.78679 8.73176 9.74995 8.86496 9.74994 9.00071V15.0007C9.74994 15.1365 9.78678 15.2697 9.85654 15.3861C9.9263 15.5026 10.0264 15.5979 10.146 15.662C10.2657 15.726 10.4006 15.7564 10.5362 15.7498C10.6717 15.7433 10.803 15.7 10.916 15.6247L15.416 12.6247C15.5187 12.5562 15.6029 12.4635 15.6612 12.3546C15.7195 12.2457 15.7499 12.1242 15.7499 12.0007C15.7499 11.8772 15.7195 11.7557 15.6612 11.6468C15.6029 11.538 15.5187 11.4452 15.416 11.3767ZM11.2499 13.5993V10.4021L13.6478 12.0007L11.2499 13.5993Z" fill="#1D1F21" style="fill: var(--ui-icon-primary-color);"/>
</svg>
