<svg  viewBox="0 0 24 24" fill="none" xmlns="http://www.w3.org/2000/svg" id="__THIS_ID_NEEDS_FOR_UI_ICON_COMPONENT__">
<path d="M15.0004 20.25C14.9879 20.25 14.9754 20.2497 14.9629 20.2491C14.8174 20.2418 14.6772 20.1924 14.5594 20.1068C14.4416 20.0212 14.3512 19.9031 14.2994 19.767L8.93925 5.69667L5.93303 12.3103C5.87342 12.4414 5.77735 12.5526 5.65627 12.6306C5.53519 12.7085 5.39423 12.75 5.25023 12.75H2.25023C2.05132 12.75 1.86055 12.671 1.7199 12.5303C1.57925 12.3897 1.50023 12.1989 1.50023 12C1.50023 11.8011 1.57925 11.6103 1.7199 11.4697C1.86055 11.329 2.05132 11.25 2.25023 11.25H4.76729L8.31743 3.43966C8.37867 3.30492 8.47841 3.19131 8.60408 3.11314C8.72976 3.03497 8.87576 2.99573 9.02369 3.00037C9.17162 3.005 9.31488 3.0533 9.43541 3.13919C9.55595 3.22507 9.64838 3.3447 9.70107 3.48301L15.0932 17.6371L18.0794 11.6646C18.1417 11.54 18.2375 11.4352 18.3559 11.362C18.4744 11.2888 18.6109 11.25 18.7502 11.25H21.7502C21.9491 11.25 22.1399 11.329 22.2806 11.4697C22.4212 11.6103 22.5002 11.8011 22.5002 12C22.5002 12.1989 22.4212 12.3897 22.2806 12.5303C22.1399 12.671 21.9491 12.75 21.7502 12.75H19.2138L15.671 19.8354C15.6088 19.96 15.513 20.0647 15.3946 20.1379C15.2762 20.2112 15.1397 20.25 15.0004 20.25Z" fill="#1D1F21" style="fill: var(--ui-icon-primary-color);"/>
</svg>
