<svg  viewBox="0 0 24 24" fill="none" xmlns="http://www.w3.org/2000/svg" id="__THIS_ID_NEEDS_FOR_UI_ICON_COMPONENT__">
<path d="M16.5 20.2498C16.5 20.4487 16.421 20.6395 16.2804 20.7801C16.1397 20.9208 15.9489 20.9998 15.75 20.9998H2.25004C2.05113 20.9998 1.86036 20.9208 1.71971 20.7801C1.57906 20.6395 1.50004 20.4487 1.50004 20.2498C1.50004 20.0509 1.57906 19.8601 1.71971 19.7195C1.86036 19.5788 2.05113 19.4998 2.25004 19.4998H15.75C15.9489 19.4998 16.1397 19.5788 16.2804 19.7195C16.421 19.8601 16.5 20.0509 16.5 20.2498ZM23.1653 8.38731L21.4178 6.25161C20.91 5.62524 20.1937 5.20255 19.3998 5.06082C18.606 4.91909 17.7877 5.06779 17.0945 5.47973L13.0818 7.8401L7.6186 6.01903C7.53148 5.99008 7.43678 5.99402 7.35236 6.03011L5.80549 6.69299C5.63192 6.76741 5.47987 6.88431 5.36336 7.03294C5.24685 7.18157 5.16962 7.35713 5.13881 7.54345C5.10799 7.72977 5.12457 7.92085 5.18701 8.09907C5.24946 8.2773 5.35577 8.43694 5.49613 8.56328L7.98865 10.8066L5.97614 11.9565L3.52271 10.9051C3.47604 10.8851 3.4258 10.8748 3.37504 10.8748C3.32427 10.8748 3.27403 10.8851 3.22736 10.9051L1.65678 11.5782C1.48497 11.6518 1.33422 11.7671 1.21814 11.9136C1.10205 12.0601 1.0243 12.2332 0.991909 12.4173C0.959514 12.6014 0.973497 12.7907 1.03259 12.968C1.09169 13.1453 1.19404 13.3051 1.33039 13.433H1.33048L4.86442 16.746C5.39246 17.2456 6.06847 17.5601 6.79072 17.6423C7.51297 17.7245 8.24237 17.5698 8.86912 17.2016L23.0635 8.94899C23.1105 8.9217 23.1509 8.88455 23.182 8.84012C23.2132 8.79569 23.2343 8.74502 23.244 8.69162C23.2537 8.63822 23.2516 8.58336 23.238 8.53082C23.2245 8.47828 23.1996 8.42932 23.1653 8.38731L23.1653 8.38731Z" fill="#1D1F21" style="fill: var(--ui-icon-primary-color);"/>
</svg>
