<svg  viewBox="0 0 24 24" fill="none" xmlns="http://www.w3.org/2000/svg" id="__THIS_ID_NEEDS_FOR_UI_ICON_COMPONENT__">
<path d="M21 20.25C21 20.4489 20.921 20.6397 20.7803 20.7803C20.6397 20.921 20.4489 21 20.25 21H6.75001C6.5511 21 6.36033 20.921 6.21968 20.7803C6.07903 20.6397 6.00001 20.4489 6.00001 20.25C6.00001 20.0511 6.07903 19.8603 6.21968 19.7197C6.36033 19.579 6.5511 19.5 6.75001 19.5H20.25C20.4489 19.5 20.6397 19.579 20.7803 19.7197C20.921 19.8603 21 20.0511 21 20.25ZM19.5 9.375H14.415L10.4014 4.99658C10.3663 4.95826 10.3236 4.92767 10.276 4.90673C10.2284 4.8858 10.177 4.875 10.125 4.875H8.5406C8.36234 4.87499 8.18662 4.91735 8.02794 4.99858C7.86926 5.0798 7.73215 5.19758 7.62791 5.34219C7.52368 5.4868 7.4553 5.65412 7.42841 5.83034C7.40153 6.00657 7.41691 6.18666 7.47328 6.35577L8.47972 9.375H6.17561L4.41313 7.25995C4.37793 7.21771 4.33388 7.18373 4.28409 7.16041C4.2343 7.13709 4.17999 7.125 4.12501 7.125H2.50801C2.33264 7.12501 2.15969 7.16602 2.00299 7.24475C1.84628 7.32349 1.71015 7.43777 1.60547 7.57848C1.50079 7.71918 1.43045 7.88241 1.40007 8.05514C1.3697 8.22786 1.38013 8.4053 1.43052 8.57327L2.74943 12.9698C2.95501 13.6668 3.38136 14.2781 3.96435 14.7119C4.54734 15.1457 5.25542 15.3784 5.98207 15.375H22.5C22.5995 15.375 22.6948 15.3355 22.7652 15.2652C22.8355 15.1948 22.875 15.0995 22.875 15V12.75C22.874 11.8552 22.5181 10.9973 21.8854 10.3646C21.2527 9.73191 20.3948 9.37601 19.5 9.375Z" fill="#1D1F21" style="fill: var(--ui-icon-primary-color);"/>
</svg>
