<svg  viewBox="0 0 24 24" fill="none" xmlns="http://www.w3.org/2000/svg" id="__THIS_ID_NEEDS_FOR_UI_ICON_COMPONENT__">
<path d="M22.5211 13.4998V15.7498C22.5211 15.8607 22.4965 15.9703 22.4491 16.0706C22.4016 16.1709 22.3324 16.2595 22.2466 16.3298C22.1608 16.4002 22.0605 16.4506 21.9528 16.4775C21.8451 16.5043 21.7328 16.507 21.624 16.4852L15.0211 15.1646V17.6923L16.2841 18.9732C16.4225 19.1136 16.5 19.3027 16.5 19.4998V21.7498C16.5 21.8607 16.4754 21.9703 16.4279 22.0706C16.3804 22.1709 16.3113 22.2594 16.2255 22.3298C16.1396 22.4001 16.0393 22.4506 15.9316 22.4774C15.824 22.5043 15.7117 22.507 15.6029 22.4852L12 21.7646L8.39713 22.4852C8.28831 22.507 8.17603 22.5043 8.06836 22.4775C7.9607 22.4506 7.86034 22.4002 7.77452 22.3298C7.6887 22.2595 7.61957 22.1709 7.57209 22.0706C7.52462 21.9703 7.5 21.8607 7.5 21.7498V19.4998C7.5 19.3009 7.579 19.1101 7.71964 18.9695L9 17.6891V15.1646L2.39713 16.4852C2.28831 16.507 2.17603 16.5043 2.06836 16.4775C1.9607 16.4506 1.86034 16.4002 1.77452 16.3298C1.6887 16.2595 1.61957 16.1709 1.5721 16.0706C1.52462 15.9703 1.5 15.8607 1.5 15.7498V13.4998C1.5 13.3605 1.53878 13.224 1.61199 13.1055C1.68521 12.987 1.78998 12.8913 1.91455 12.829L9.00092 9.28579L9.01053 4.49827C9.01073 3.70262 9.32699 2.93964 9.88974 2.37717C10.4525 1.8147 11.2156 1.49882 12.0113 1.49902C12.8069 1.49922 13.5699 1.81549 14.1324 2.37824C14.6948 2.94099 15.0107 3.70413 15.0105 4.49978L15.0202 9.28579L22.1066 12.829C22.2312 12.8913 22.3359 12.987 22.4092 13.1055C22.4824 13.224 22.5212 13.3605 22.5211 13.4998Z" fill="#1D1F21" style="fill: var(--ui-icon-primary-color);"/>
</svg>
