<svg  viewBox="0 0 24 24" fill="none" xmlns="http://www.w3.org/2000/svg" id="__THIS_ID_NEEDS_FOR_UI_ICON_COMPONENT__">
<path d="M21.7505 12C21.7505 12.0985 21.7311 12.196 21.6934 12.287C21.6557 12.378 21.6004 12.4607 21.5308 12.5303C21.4611 12.6 21.3785 12.6552 21.2875 12.6929C21.1965 12.7306 21.0989 12.75 21.0005 12.75H19.5V17.25C19.4995 17.6477 19.3414 18.029 19.0602 18.3102C18.779 18.5914 18.3977 18.7495 18 18.75H14.25C13.8523 18.7495 13.471 18.5914 13.1898 18.3102C12.9086 18.029 12.7505 17.6477 12.75 17.25V12.75H11.25V19.5C11.2495 19.8977 11.0914 20.279 10.8102 20.5602C10.529 20.8414 10.1477 20.9995 9.75 21H6C5.60231 20.9995 5.22105 20.8414 4.93984 20.5602C4.65864 20.279 4.50045 19.8977 4.5 19.5V12.75H3.00046C2.80155 12.75 2.61078 12.671 2.47013 12.5303C2.32948 12.3897 2.25046 12.1989 2.25046 12C2.25046 11.8011 2.32948 11.6103 2.47013 11.4697C2.61078 11.329 2.80155 11.25 3.00046 11.25H4.5V4.5C4.50045 4.10231 4.65864 3.72105 4.93984 3.43984C5.22105 3.15864 5.60231 3.00045 6 3H9.75C10.1477 3.00045 10.529 3.15864 10.8102 3.43984C11.0914 3.72105 11.2495 4.10231 11.25 4.5V11.25H12.75V6.75C12.7505 6.35231 12.9086 5.97105 13.1898 5.68984C13.471 5.40864 13.8523 5.25045 14.25 5.25H18C18.3977 5.25045 18.779 5.40864 19.0602 5.68984C19.3414 5.97105 19.4995 6.35231 19.5 6.75V11.25H21.0005C21.0989 11.25 21.1965 11.2694 21.2875 11.3071C21.3785 11.3448 21.4611 11.4 21.5308 11.4697C21.6004 11.5393 21.6557 11.622 21.6934 11.713C21.7311 11.804 21.7505 11.9015 21.7505 12Z" fill="#1D1F21" style="fill: var(--ui-icon-primary-color);"/>
</svg>
