<svg  viewBox="0 0 24 24" fill="none" xmlns="http://www.w3.org/2000/svg" id="__THIS_ID_NEEDS_FOR_UI_ICON_COMPONENT__">
<path d="M21.0005 20.2505C21.0005 20.4495 20.9214 20.6402 20.7808 20.7809C20.6401 20.9215 20.4494 21.0005 20.2505 21.0005H3.75046C3.55155 21.0005 3.36078 20.9215 3.22013 20.7809C3.07948 20.6402 3.00046 20.4495 3.00046 20.2505C3.00046 20.0516 3.07948 19.8609 3.22013 19.7202C3.36078 19.5796 3.55155 19.5005 3.75046 19.5005H20.2505C20.4494 19.5006 20.6401 19.5796 20.7808 19.7202C20.9214 19.8609 21.0005 20.0516 21.0005 20.2505ZM14.25 18H18C18.3977 17.9995 18.779 17.8414 19.0602 17.5602C19.3414 17.279 19.4995 16.8977 19.5 16.5V7.5C19.4995 7.10231 19.3414 6.72105 19.0602 6.43984C18.779 6.15864 18.3977 6.00045 18 6H14.25C13.8523 6.00045 13.471 6.15864 13.1898 6.43984C12.9086 6.72105 12.7505 7.10231 12.75 7.5V16.5C12.7505 16.8977 12.9086 17.279 13.1898 17.5602C13.471 17.8414 13.8523 17.9995 14.25 18ZM6 18H9.75C10.1477 17.9995 10.529 17.8414 10.8102 17.5602C11.0914 17.279 11.2495 16.8977 11.25 16.5V3.75C11.2495 3.35231 11.0914 2.97105 10.8102 2.68984C10.529 2.40864 10.1477 2.25045 9.75 2.25H6C5.60232 2.25045 5.22105 2.40864 4.93984 2.68984C4.65864 2.97105 4.50046 3.35231 4.5 3.75V16.5C4.50046 16.8977 4.65864 17.279 4.93984 17.5602C5.22105 17.8414 5.60232 17.9995 6 18Z" fill="#1D1F21" style="fill: var(--ui-icon-primary-color);"/>
</svg>
