<svg  viewBox="0 0 24 24" fill="none" xmlns="http://www.w3.org/2000/svg" id="__THIS_ID_NEEDS_FOR_UI_ICON_COMPONENT__">
<path d="M4.49945 3.74951V20.2495C4.49945 20.4484 4.42043 20.6392 4.27978 20.7798C4.13913 20.9205 3.94836 20.9995 3.74945 20.9995C3.55054 20.9995 3.35977 20.9205 3.21912 20.7798C3.07847 20.6392 2.99945 20.4484 2.99945 20.2495V3.74951C2.99945 3.5506 3.07847 3.35983 3.21912 3.21918C3.35977 3.07853 3.55054 2.99951 3.74945 2.99951C3.94836 2.99951 4.13913 3.07853 4.27978 3.21918C4.42043 3.35983 4.49945 3.5506 4.49945 3.74951ZM7.5 11.25H16.5C16.8977 11.2495 17.279 11.0913 17.5602 10.8101C17.8414 10.5289 17.9995 10.1477 18 9.74997V5.99997C17.9995 5.60228 17.8414 5.22102 17.5602 4.93981C17.279 4.65861 16.8977 4.50042 16.5 4.49997H7.5C7.10231 4.50042 6.72105 4.65861 6.43984 4.93981C6.15864 5.22102 6.00045 5.60228 6 5.99997V9.74997C6.00045 10.1477 6.15864 10.5289 6.43984 10.8101C6.72105 11.0913 7.10231 11.2495 7.5 11.25ZM20.25 12.75H7.5C7.10231 12.7504 6.72105 12.9086 6.43984 13.1898C6.15864 13.471 6.00045 13.8523 6 14.25V18C6.00045 18.3977 6.15864 18.7789 6.43984 19.0601C6.72105 19.3413 7.10231 19.4995 7.5 19.5H20.25C20.6477 19.4995 21.029 19.3413 21.3102 19.0601C21.5914 18.7789 21.7495 18.3977 21.75 18V14.25C21.7495 13.8523 21.5914 13.471 21.3102 13.1898C21.029 12.9086 20.6477 12.7504 20.25 12.75Z" fill="#1D1F21" style="fill: var(--ui-icon-primary-color);"/>
</svg>
