<svg  viewBox="0 0 24 24" fill="none" xmlns="http://www.w3.org/2000/svg" id="__THIS_ID_NEEDS_FOR_UI_ICON_COMPONENT__">
<path d="M21.0005 3.74951C21.0005 3.848 20.9811 3.94553 20.9434 4.03653C20.9057 4.12752 20.8504 4.2102 20.7808 4.27985C20.7111 4.34949 20.6285 4.40474 20.5375 4.44243C20.4465 4.48012 20.3489 4.49951 20.2505 4.49951H3.75045C3.55154 4.49951 3.36078 4.42049 3.22012 4.27984C3.07947 4.13919 3.00045 3.94842 3.00045 3.74951C3.00045 3.5506 3.07947 3.35983 3.22012 3.21918C3.36078 3.07853 3.55154 2.99951 3.75045 2.99951H20.2505C20.3489 2.99951 20.4465 3.01891 20.5375 3.0566C20.6285 3.09429 20.7111 3.14953 20.7808 3.21918C20.8504 3.28882 20.9057 3.3715 20.9434 3.4625C20.9811 3.55349 21.0005 3.65102 21.0005 3.74951ZM18 6.00006H14.25C13.8523 6.00052 13.471 6.1587 13.1898 6.4399C12.9086 6.72111 12.7505 7.10238 12.75 7.50006V16.5001C12.7505 16.8977 12.9086 17.279 13.1898 17.5602C13.471 17.8414 13.8523 17.9996 14.25 18.0001H18C18.3977 17.9996 18.7789 17.8414 19.0602 17.5602C19.3414 17.279 19.4995 16.8977 19.5 16.5001V7.50006C19.4995 7.10238 19.3414 6.72111 19.0602 6.4399C18.7789 6.1587 18.3977 6.00052 18 6.00006ZM9.75 6.00006H6C5.60231 6.00052 5.22104 6.1587 4.93984 6.4399C4.65863 6.72111 4.50045 7.10238 4.5 7.50006V20.2501C4.50045 20.6477 4.65863 21.029 4.93984 21.3102C5.22104 21.5914 5.60231 21.7496 6 21.7501H9.75C10.1477 21.7496 10.5289 21.5914 10.8102 21.3102C11.0914 21.029 11.2495 20.6477 11.25 20.2501V7.50006C11.2495 7.10238 11.0914 6.72111 10.8102 6.4399C10.5289 6.1587 10.1477 6.00052 9.75 6.00006Z" fill="#1D1F21" style="fill: var(--ui-icon-primary-color);"/>
</svg>
