<svg  viewBox="0 0 24 24" fill="none" xmlns="http://www.w3.org/2000/svg" id="__THIS_ID_NEEDS_FOR_UI_ICON_COMPONENT__">
<path d="M8.24339 7.875C8.24339 7.6525 8.30938 7.43499 8.43299 7.24998C8.55661 7.06498 8.73231 6.92078 8.93788 6.83564C9.14344 6.75049 9.36964 6.72821 9.58787 6.77162C9.8061 6.81502 10.0066 6.92217 10.1639 7.0795C10.3212 7.23684 10.4284 7.43729 10.4718 7.65552C10.5152 7.87375 10.4929 8.09995 10.4078 8.30552C10.3226 8.51109 10.1784 8.68679 9.99341 8.8104C9.80841 8.93402 9.5909 9 9.36839 9C9.07003 9 8.78388 8.88147 8.5729 8.6705C8.36192 8.45952 8.24339 8.17337 8.24339 7.875ZM14.6184 9C14.8409 9 15.0584 8.93402 15.2434 8.8104C15.4284 8.68679 15.5726 8.51109 15.6578 8.30552C15.7429 8.09995 15.7652 7.87375 15.7218 7.65552C15.6784 7.43729 15.5712 7.23684 15.4139 7.0795C15.2566 6.92217 15.0561 6.81502 14.8379 6.77162C14.6196 6.72821 14.3934 6.75049 14.1879 6.83564C13.9823 6.92078 13.8066 7.06498 13.683 7.24998C13.5594 7.43499 13.4934 7.6525 13.4934 7.875C13.4934 8.17337 13.6119 8.45952 13.8229 8.6705C14.0339 8.88147 14.32 9 14.6184 9ZM20.2434 9.75V14.25C20.2434 16.438 19.3742 18.5365 17.827 20.0836C16.2799 21.6308 14.1814 22.5 11.9934 22.5C9.80536 22.5 7.70694 21.6308 6.15976 20.0836C4.61259 18.5365 3.74339 16.438 3.74339 14.25V9.75C3.74204 7.60647 4.57789 5.54717 6.07282 4.01097L4.7404 2.80632C4.66735 2.74027 4.60801 2.66047 4.5658 2.57149C4.52358 2.4825 4.4993 2.38608 4.49435 2.28771C4.4894 2.18934 4.50387 2.09097 4.53694 1.99819C4.57 1.90542 4.62102 1.82007 4.68707 1.74701C4.75313 1.67395 4.83292 1.61462 4.92191 1.5724C5.01089 1.53018 5.10732 1.50591 5.20568 1.50095C5.30405 1.496 5.40243 1.51047 5.4952 1.54354C5.58798 1.57661 5.67333 1.62763 5.74639 1.69368L7.2192 3.02522C8.61346 2.0331 10.2822 1.49999 11.9934 1.5C13.7046 1.50001 15.3733 2.03313 16.7676 3.02527L18.2404 1.69368C18.388 1.56028 18.5825 1.49095 18.7811 1.50095C18.9798 1.51096 19.1663 1.59946 19.2997 1.74701C19.4331 1.89455 19.5024 2.08905 19.4924 2.28771C19.4824 2.48637 19.3939 2.67292 19.2464 2.80632L17.914 4.01097C19.4089 5.5472 20.2447 7.60648 20.2434 9.75ZM5.24339 9.75V10.5H18.7434V9.75C18.7434 7.95979 18.0322 6.2429 16.7664 4.97703C15.5005 3.71116 13.7836 3 11.9934 3C10.2032 3 8.4863 3.71116 7.22042 4.97703C5.95455 6.2429 5.24339 7.95979 5.24339 9.75Z" fill="#1D1F21" style="fill: var(--ui-icon-primary-color);"/>
</svg>
