<svg  viewBox="0 0 24 24" fill="none" xmlns="http://www.w3.org/2000/svg" id="__THIS_ID_NEEDS_FOR_UI_ICON_COMPONENT__">
<path d="M21.75 12C21.75 10.0716 21.1781 8.18657 20.1068 6.58319C19.0354 4.97981 17.5127 3.73013 15.7311 2.99218C13.9495 2.25422 11.9891 2.06114 10.0978 2.43735C8.20652 2.81356 6.46924 3.74215 5.10567 5.10572C3.74228 6.4691 2.81373 8.20613 2.43743 10.0972C2.06114 11.9882 2.25398 13.9484 2.99159 15.7299C3.72919 17.5113 4.97844 19.0341 6.58139 20.1056C8.18435 21.1772 10.069 21.7494 11.9971 21.75C11.9981 21.75 11.999 21.7502 12 21.7502C12.002 21.7502 12.004 21.75 12.006 21.7499C14.5908 21.7483 17.0692 20.7204 18.8964 18.8921C20.7236 17.0638 21.75 14.5848 21.75 12ZM4.61017 8.33625L9.4117 9.21286L4.37347 15.144C3.92852 14.0572 3.71953 12.8883 3.76034 11.7147C3.80114 10.5411 4.09081 9.3895 4.61017 8.33625ZM19.6265 8.85599C20.0714 9.94277 20.2804 11.1117 20.2396 12.2853C20.1988 13.4589 19.9091 14.6105 19.3898 15.6638L14.5882 14.7871L19.6265 8.85599ZM18.8691 7.43061L15.7078 11.1521L13.0903 3.82315C14.2549 3.97824 15.3729 4.38031 16.3695 5.00246C17.3661 5.6246 18.2183 6.45245 18.8691 7.43061ZM11.4779 3.76813L13.1196 8.36495L5.4652 6.96753C5.68149 6.68575 5.91567 6.41817 6.16631 6.16645C7.58277 4.7426 9.47316 3.88905 11.4779 3.76813ZM5.13087 16.5694L8.29212 12.8479L10.9096 20.1769C9.74504 20.0218 8.62704 19.6197 7.63044 18.9976C6.63383 18.3754 5.78163 17.5476 5.13086 16.5694L5.13087 16.5694ZM12.522 20.2319L10.8803 15.6351L13.0442 16.0301L13.0485 16.0309L18.5347 17.0325C18.3184 17.3143 18.0843 17.5818 17.8336 17.8336C16.4172 19.2574 14.5268 20.111 12.522 20.2319H12.522Z" fill="#1D1F21" style="fill: var(--ui-icon-primary-color);"/>
</svg>
