<svg  viewBox="0 0 24 24" fill="none" xmlns="http://www.w3.org/2000/svg" id="__THIS_ID_NEEDS_FOR_UI_ICON_COMPONENT__">
<path d="M12.2494 2.77794C12.5244 2.07241 13.0053 1.46594 13.6297 1.0374C14.254 0.60885 14.9928 0.378048 15.75 0.375C15.9489 0.375 16.1397 0.454018 16.2803 0.59467C16.421 0.735322 16.5 0.926088 16.5 1.125C16.5 1.32391 16.421 1.51468 16.2803 1.65533C16.1397 1.79598 15.9489 1.875 15.75 1.875C15.2956 1.87681 14.8522 2.01529 14.4776 2.27245C14.1029 2.5296 13.8143 2.89353 13.6492 3.31691C13.5776 3.50235 13.4353 3.65178 13.2536 3.73236C13.0719 3.81294 12.8656 3.81809 12.6801 3.74666C12.4946 3.67523 12.345 3.53308 12.2642 3.35144C12.1835 3.1698 12.1781 2.96352 12.2494 2.77794V2.77794ZM20.8167 14.6021C20.2176 14.301 19.7102 13.8448 19.3472 13.281C18.9842 12.7172 18.779 12.0664 18.7529 11.3964C18.7267 10.7264 18.8806 10.0616 19.1985 9.47128C19.5165 8.88092 19.9868 8.38657 20.5606 8.03966C20.6515 7.98463 20.7296 7.91092 20.7898 7.82343C20.8501 7.73594 20.891 7.63665 20.91 7.53215C20.929 7.42764 20.9255 7.32029 20.8999 7.21721C20.8743 7.11413 20.8271 7.01766 20.7614 6.93421C19.7417 5.63783 18.2593 4.78701 16.6256 4.56045C14.9919 4.33388 13.334 4.74919 12 5.71916C11.0489 5.02755 9.92507 4.61247 8.75276 4.51982C7.58046 4.42717 6.40536 4.66056 5.35744 5.19418C4.30952 5.7278 3.42961 6.54086 2.81501 7.54343C2.20041 8.54601 1.87508 9.69904 1.875 10.875C1.875 13.2659 2.65649 15.7938 4.01916 17.8105C5.36861 19.8077 7.09039 21 8.625 21H15.375C17.4811 21 19.868 18.7626 21.1796 15.5592C21.2515 15.3834 21.254 15.1868 21.1867 15.0092C21.1193 14.8316 20.9871 14.6861 20.8167 14.6021Z" fill="#1D1F21" style="fill: var(--ui-icon-primary-color);"/>
</svg>
