<svg  viewBox="0 0 24 24" fill="none" xmlns="http://www.w3.org/2000/svg" id="__THIS_ID_NEEDS_FOR_UI_ICON_COMPONENT__">
<path d="M19.5 3H4.5C4.10231 3.00045 3.72105 3.15864 3.43984 3.43984C3.15864 3.72105 3.00045 4.10231 3 4.5V14.9891C2.99995 14.9928 2.99945 14.9963 2.99945 15C2.99945 15.0037 2.99995 15.0072 3 15.0109V19.5C3.00045 19.8977 3.15864 20.279 3.43984 20.5602C3.72105 20.8414 4.10231 20.9995 4.5 21H19.5C19.8977 20.9995 20.279 20.8414 20.5602 20.5602C20.8414 20.279 20.9995 19.8977 21 19.5V4.5C20.9995 4.10231 20.8414 3.72105 20.5602 3.43984C20.279 3.15864 19.8977 3.00045 19.5 3ZM8.28772 10.5376C8.42839 10.397 8.61915 10.318 8.81804 10.318C9.01693 10.318 9.20768 10.397 9.34836 10.5376L11.25 12.4393V6.75C11.25 6.55109 11.329 6.36032 11.4697 6.21967C11.6103 6.07902 11.8011 6 12 6C12.1989 6 12.3897 6.07902 12.5303 6.21967C12.671 6.36032 12.75 6.55109 12.75 6.75V12.4393L14.6516 10.5376C14.7213 10.468 14.804 10.4127 14.895 10.375C14.986 10.3374 15.0835 10.318 15.182 10.318C15.2805 10.318 15.378 10.3374 15.469 10.3751C15.56 10.4127 15.6427 10.468 15.7124 10.5376C15.782 10.6073 15.8372 10.69 15.8749 10.781C15.9126 10.872 15.932 10.9695 15.932 11.068C15.932 11.1665 15.9126 11.264 15.8749 11.355C15.8372 11.446 15.782 11.5287 15.7123 11.5984L12.5304 14.7804C12.5253 14.7854 12.5197 14.7898 12.5145 14.7947C12.502 14.8065 12.4895 14.8184 12.4762 14.8293C12.4699 14.8345 12.4632 14.839 12.4568 14.8439C12.4438 14.8539 12.4309 14.864 12.4172 14.8732C12.4119 14.8768 12.4063 14.8797 12.4009 14.8831C12.3856 14.8928 12.3702 14.9025 12.3541 14.9111C12.3501 14.9133 12.3459 14.9149 12.3419 14.917C12.3241 14.9261 12.3062 14.9349 12.2876 14.9426C12.2849 14.9438 12.2821 14.9446 12.2794 14.9457C12.2595 14.9537 12.2393 14.9611 12.2186 14.9674C12.2158 14.9683 12.213 14.9688 12.2103 14.9696C12.1897 14.9756 12.1689 14.981 12.1476 14.9853C12.1415 14.9865 12.1352 14.987 12.129 14.9881C12.1111 14.9913 12.0932 14.9944 12.0749 14.9962C12.0251 15.0013 11.9749 15.0013 11.9251 14.9962C11.9068 14.9944 11.8889 14.9913 11.871 14.9881C11.8648 14.987 11.8585 14.9865 11.8524 14.9853C11.8311 14.9811 11.8104 14.9756 11.7898 14.9696C11.787 14.9688 11.7842 14.9683 11.7814 14.9674C11.7606 14.9611 11.7404 14.9536 11.7204 14.9456C11.7178 14.9445 11.715 14.9437 11.7124 14.9426C11.6938 14.9349 11.6759 14.9261 11.658 14.917C11.6541 14.9149 11.6499 14.9133 11.6459 14.9111C11.6298 14.9025 11.6144 14.8928 11.5991 14.8831C11.5937 14.8797 11.5881 14.8768 11.5828 14.8732C11.5691 14.864 11.5562 14.8539 11.5432 14.8439C11.5368 14.839 11.5301 14.8345 11.5238 14.8293C11.5108 14.8187 11.4987 14.8071 11.4865 14.7957C11.481 14.7904 11.475 14.7858 11.4696 14.7804L8.28767 11.5984C8.14702 11.4577 8.06801 11.2669 8.06802 11.068C8.06803 10.8691 8.14706 10.6783 8.28772 10.5376ZM19.5 19.5H4.5V15.75L7.18881 15.7499L8.99954 17.5608C9.13851 17.7005 9.3038 17.8112 9.48584 17.8866C9.66788 17.962 9.86306 18.0005 10.0601 18H13.9388C14.1359 18.0005 14.3311 17.962 14.5131 17.8866C14.6952 17.8111 14.8605 17.7004 14.9994 17.5606L16.8101 15.75H19.5007L19.5009 19.5H19.5Z" fill="#1D1F21" style="fill: var(--ui-icon-primary-color);"/>
</svg>
