<svg  viewBox="0 0 24 24" fill="none" xmlns="http://www.w3.org/2000/svg" id="__THIS_ID_NEEDS_FOR_UI_ICON_COMPONENT__">
<path d="M20.25 3.75H3.75C3.35231 3.75045 2.97105 3.90864 2.68984 4.18984C2.40864 4.47105 2.25045 4.85231 2.25 5.25V8.25C2.25045 8.64769 2.40864 9.02895 2.68984 9.31016C2.97105 9.59136 3.35231 9.74955 3.75 9.75V18.75C3.75045 19.1477 3.90864 19.529 4.18984 19.8102C4.47105 20.0914 4.85231 20.2495 5.25 20.25H18.75C19.1477 20.2495 19.529 20.0914 19.8102 19.8102C20.0914 19.529 20.2495 19.1477 20.25 18.75V9.75C20.6477 9.74955 21.029 9.59136 21.3102 9.31016C21.5914 9.02895 21.7495 8.64769 21.75 8.25V5.25C21.7495 4.85231 21.5914 4.47105 21.3102 4.18984C21.029 3.90864 20.6477 3.75045 20.25 3.75ZM14.25 13.5H9.75C9.55109 13.5 9.36032 13.421 9.21967 13.2803C9.07902 13.1397 9 12.9489 9 12.75C9 12.5511 9.07902 12.3603 9.21967 12.2197C9.36032 12.079 9.55109 12 9.75 12H14.25C14.4489 12 14.6397 12.079 14.7803 12.2197C14.921 12.3603 15 12.5511 15 12.75C15 12.9489 14.921 13.1397 14.7803 13.2803C14.6397 13.421 14.4489 13.5 14.25 13.5ZM20.25 8.25H3.75V5.25H20.25L20.2509 8.25H20.25Z" fill="#1D1F21" style="fill: var(--ui-icon-primary-color);"/>
</svg>
