<svg  viewBox="0 0 24 24" fill="none" xmlns="http://www.w3.org/2000/svg" id="__THIS_ID_NEEDS_FOR_UI_ICON_COMPONENT__">
<path d="M8.03036 13.7197C8.10001 13.7893 8.15526 13.872 8.19296 13.963C8.23065 14.054 8.25005 14.1516 8.25005 14.25C8.25005 14.3485 8.23065 14.4461 8.19296 14.5371C8.15526 14.6281 8.10001 14.7108 8.03036 14.7804C7.96072 14.8501 7.87803 14.9053 7.78703 14.943C7.69603 14.9807 7.5985 15.0001 7.5 15.0001C7.4015 15.0001 7.30397 14.9807 7.21297 14.943C7.12197 14.9053 7.03928 14.8501 6.96964 14.7804L2.46963 10.2804C2.32899 10.1397 2.24998 9.94897 2.24998 9.75005C2.24998 9.55113 2.32899 9.36035 2.46963 9.21968L6.96964 4.71968C7.1103 4.57902 7.30107 4.5 7.5 4.5C7.69893 4.5 7.8897 4.57902 8.03036 4.71968C8.17103 4.86035 8.25005 5.05112 8.25005 5.25005C8.25005 5.44898 8.17103 5.63975 8.03036 5.78042L4.06064 9.75005L8.03036 13.7197ZM12 9.00005H9.31066L12.5304 5.78042C12.671 5.63975 12.7501 5.44898 12.75 5.25005C12.75 5.05112 12.671 4.86035 12.5304 4.71968C12.3897 4.57902 12.1989 4.5 12 4.5C11.8011 4.5 11.6103 4.57902 11.4696 4.71968L6.96964 9.21968C6.96435 9.22499 6.95986 9.23072 6.95476 9.23616C6.94302 9.24862 6.93121 9.26102 6.92033 9.27425C6.9118 9.28464 6.90429 9.29554 6.89639 9.30629C6.88978 9.31522 6.88282 9.32392 6.87662 9.33316C6.86865 9.34502 6.86172 9.35733 6.85451 9.36956C6.84929 9.37839 6.8437 9.38699 6.83883 9.39611C6.83235 9.40819 6.82681 9.42064 6.82104 9.433C6.81642 9.44289 6.81148 9.4526 6.80726 9.46267C6.80236 9.47457 6.79836 9.48665 6.79408 9.49874C6.79014 9.50982 6.78586 9.52071 6.78243 9.53202C6.77877 9.5441 6.77607 9.55637 6.77302 9.56859C6.77016 9.58013 6.76691 9.59148 6.76458 9.6032C6.76176 9.61744 6.76002 9.63177 6.75803 9.64609C6.75666 9.65603 6.75473 9.66573 6.75375 9.6758C6.74885 9.72518 6.74885 9.77492 6.75375 9.8243C6.75473 9.83437 6.75666 9.84408 6.75803 9.85401C6.76002 9.86834 6.76176 9.88267 6.76458 9.8969C6.76691 9.90862 6.77016 9.91998 6.77302 9.93151C6.77607 9.94373 6.77877 9.956 6.78243 9.96809C6.78586 9.97939 6.79014 9.99029 6.79408 10.0014C6.79836 10.0135 6.80236 10.0255 6.80726 10.0374C6.81147 10.0475 6.81642 10.0572 6.82104 10.0671C6.82681 10.0795 6.83235 10.0919 6.83883 10.104C6.8437 10.1131 6.84929 10.1217 6.85451 10.1305C6.86172 10.1428 6.86865 10.1551 6.87662 10.1669C6.88282 10.1762 6.88978 10.1849 6.89639 10.1938C6.90429 10.2046 6.9118 10.2155 6.92033 10.2259C6.93121 10.2391 6.94302 10.2515 6.95476 10.2639C6.95986 10.2694 6.96435 10.2751 6.96964 10.2804L11.4696 14.7804C11.6103 14.9211 11.8011 15.0001 12 15.0001C12.1989 15.0001 12.3897 14.9211 12.5304 14.7804C12.671 14.6398 12.75 14.449 12.75 14.2501C12.7501 14.0511 12.671 13.8604 12.5304 13.7197L9.31066 10.5001H12C14.1873 10.5025 16.2843 11.3725 17.8309 12.9191C19.3775 14.4658 20.2475 16.5628 20.25 18.75C20.25 18.949 20.329 19.1397 20.4697 19.2804C20.6103 19.421 20.8011 19.5 21 19.5C21.1989 19.5 21.3897 19.421 21.5303 19.2804C21.671 19.1397 21.75 18.949 21.75 18.75C21.7471 16.1651 20.7189 13.6868 18.8911 11.859C17.0632 10.0311 14.585 9.00298 12 9.00005Z" fill="#1D1F21" style="fill: var(--ui-icon-primary-color);"/>
</svg>
