<svg  viewBox="0 0 24 24" fill="none" xmlns="http://www.w3.org/2000/svg" id="__THIS_ID_NEEDS_FOR_UI_ICON_COMPONENT__">
<path d="M22.2804 9.53036L13.2804 18.5304C13.1397 18.671 12.9489 18.75 12.75 18.75C12.5511 18.75 12.3603 18.671 12.2196 18.5304L3 9.31073V14.25C3 14.4489 2.92098 14.6397 2.78033 14.7803C2.63968 14.921 2.44891 15 2.25 15C2.05109 15 1.86032 14.921 1.71967 14.7803C1.57902 14.6397 1.5 14.4489 1.5 14.25V7.50048C1.5 7.47552 1.50125 7.45058 1.50375 7.42575C1.50473 7.4157 1.50666 7.40595 1.50803 7.39602C1.51002 7.38171 1.51176 7.36736 1.51458 7.35318C1.51691 7.34143 1.52016 7.33008 1.52302 7.31855C1.52607 7.30632 1.52877 7.29405 1.53243 7.28197C1.53586 7.27065 1.54014 7.25975 1.54408 7.24867C1.54836 7.23661 1.55236 7.2245 1.55726 7.21264C1.56147 7.20252 1.56642 7.19284 1.57104 7.18296C1.57681 7.17058 1.58235 7.15815 1.58883 7.14604C1.5937 7.13695 1.59929 7.12834 1.60451 7.1195C1.61172 7.10729 1.61865 7.09499 1.62662 7.08312C1.63282 7.07385 1.63978 7.0652 1.64639 7.05622C1.65429 7.0455 1.6618 7.03458 1.67033 7.0242C1.68121 7.01097 1.69302 6.99855 1.70476 6.98609C1.70986 6.98069 1.71435 6.97492 1.71963 6.96964C1.72465 6.96464 1.73009 6.9604 1.7352 6.95558C1.74797 6.9435 1.76072 6.93142 1.77429 6.92026C1.78409 6.91221 1.79436 6.90519 1.80446 6.89771C1.81405 6.89059 1.82338 6.88315 1.83334 6.87648C1.84442 6.86907 1.85591 6.86261 1.86728 6.85586C1.87699 6.85007 1.88646 6.84398 1.89644 6.83865C1.90752 6.83272 1.91892 6.82768 1.93022 6.82235C1.94116 6.81718 1.95194 6.81173 1.96316 6.80709C1.97371 6.80271 1.98449 6.79921 1.9952 6.79534C2.00763 6.79086 2.01992 6.78612 2.03263 6.78227C2.0429 6.77917 2.05334 6.77693 2.06368 6.77429C2.07703 6.77086 2.09023 6.76717 2.10385 6.76448C2.11523 6.76222 2.12674 6.76095 2.13819 6.75924C2.15094 6.75733 2.16352 6.75497 2.17648 6.75371C2.19541 6.75185 2.2144 6.75126 2.2334 6.75083C2.23899 6.75071 2.24439 6.75 2.25 6.75H9C9.19891 6.75 9.38968 6.82902 9.53033 6.96967C9.67098 7.11032 9.75 7.30109 9.75 7.5C9.75 7.69891 9.67098 7.88968 9.53033 8.03033C9.38968 8.17098 9.19891 8.25 9 8.25H4.06073L12.75 16.9394L21.2196 8.46964C21.3603 8.32897 21.5511 8.24995 21.75 8.24995C21.9489 8.24995 22.1397 8.32897 22.2804 8.46964C22.421 8.6103 22.5 8.80107 22.5 9C22.5 9.19893 22.421 9.3897 22.2804 9.53036Z" fill="#1D1F21" style="fill: var(--ui-icon-primary-color);"/>
</svg>
