<svg  viewBox="0 0 24 24" fill="none" xmlns="http://www.w3.org/2000/svg" id="__THIS_ID_NEEDS_FOR_UI_ICON_COMPONENT__">
<path d="M19.5 7.5V15.75C19.5 17.3413 18.8679 18.8674 17.7427 19.9926C16.6175 21.1179 15.0913 21.75 13.5 21.75C11.9087 21.75 10.3826 21.1179 9.25741 19.9926C8.13219 18.8674 7.50005 17.3413 7.50005 15.75V4.81064L4.28041 8.03032C4.13976 8.17098 3.949 8.25001 3.75008 8.25002C3.55116 8.25003 3.36039 8.17101 3.21973 8.03036C3.07907 7.88972 3.00004 7.69895 3.00003 7.50003C3.00002 7.30112 3.07903 7.11034 3.21968 6.96968L7.71968 2.46968C7.72119 2.46817 7.72286 2.46693 7.72437 2.46542C7.74046 2.44961 7.75715 2.43439 7.77461 2.42006C7.78342 2.41283 7.79271 2.40651 7.80175 2.39973C7.81231 2.39186 7.82263 2.38367 7.83362 2.37634C7.84421 2.36925 7.85522 2.36309 7.86609 2.35659C7.87623 2.35053 7.88617 2.34416 7.8966 2.33858C7.90754 2.33272 7.91881 2.32777 7.92998 2.32251C7.94101 2.31727 7.95188 2.31178 7.96321 2.30708C7.97388 2.30267 7.98475 2.29911 7.99556 2.29523C8.00785 2.29079 8.01998 2.28609 8.03257 2.2823C8.04323 2.27907 8.05408 2.27673 8.06486 2.27399C8.07777 2.27069 8.09054 2.26712 8.1037 2.26451C8.11593 2.26209 8.12828 2.26069 8.1406 2.25888C8.1525 2.25714 8.16422 2.2549 8.1763 2.25373C8.19805 2.25158 8.21991 2.25066 8.24176 2.25041C8.24455 2.25039 8.24726 2.25 8.25005 2.25C8.25284 2.25 8.25554 2.25039 8.25833 2.25041C8.28019 2.25066 8.30205 2.25158 8.32379 2.25373C8.33588 2.2549 8.3476 2.25714 8.3595 2.25888C8.37181 2.26069 8.38417 2.26209 8.39639 2.26451C8.40956 2.26712 8.42233 2.27069 8.43524 2.27399C8.44602 2.27673 8.45686 2.27907 8.46753 2.2823C8.48012 2.28609 8.49225 2.29079 8.50454 2.29523C8.51534 2.29912 8.52622 2.30267 8.53689 2.30708C8.54822 2.31178 8.55909 2.31727 8.57012 2.32251C8.58129 2.32777 8.59255 2.33272 8.60349 2.33858C8.61393 2.34416 8.62386 2.35053 8.634 2.35659C8.64488 2.36309 8.65589 2.36925 8.66648 2.37634C8.67747 2.38367 8.68779 2.39186 8.69834 2.39973C8.70738 2.40651 8.71668 2.41283 8.72549 2.42006C8.74295 2.43439 8.75964 2.44961 8.77573 2.46542C8.77724 2.46693 8.77891 2.46817 8.78042 2.46968L13.2804 6.96968C13.3501 7.03933 13.4053 7.12201 13.443 7.21301C13.4807 7.30401 13.5001 7.40154 13.5001 7.50003C13.5001 7.59853 13.4807 7.69605 13.443 7.78705C13.4053 7.87804 13.35 7.96072 13.2804 8.03036C13.2107 8.10001 13.128 8.15525 13.037 8.19294C12.946 8.23063 12.8485 8.25002 12.75 8.25002C12.6515 8.25001 12.554 8.23061 12.463 8.19291C12.372 8.15522 12.2893 8.09997 12.2197 8.03032L9.00005 4.81064V15.75C9.00005 16.9435 9.47415 18.0881 10.3181 18.932C11.162 19.7759 12.3066 20.25 13.5 20.25C14.6935 20.25 15.8381 19.7759 16.682 18.932C17.5259 18.0881 18 16.9435 18 15.75V7.5C18 7.30109 18.0791 7.11032 18.2197 6.96967C18.3604 6.82902 18.5511 6.75 18.75 6.75C18.949 6.75 19.1397 6.82902 19.2804 6.96967C19.421 7.11032 19.5 7.30109 19.5 7.5Z" fill="#1D1F21" style="fill: var(--ui-icon-primary-color);"/>
</svg>
