<svg  viewBox="0 0 24 24" fill="none" xmlns="http://www.w3.org/2000/svg" id="__THIS_ID_NEEDS_FOR_UI_ICON_COMPONENT__">
<path d="M7.5 7.49977V16.4998C7.5 16.6987 7.42098 16.8894 7.28033 17.0301C7.13968 17.1708 6.94891 17.2498 6.75 17.2498C6.55109 17.2498 6.36032 17.1708 6.21967 17.0301C6.07902 16.8894 6 16.6987 6 16.4998V7.49977C6 7.30086 6.07902 7.11009 6.21967 6.96944C6.36032 6.82879 6.55109 6.74977 6.75 6.74977C6.94891 6.74977 7.13968 6.82879 7.28033 6.96944C7.42098 7.11009 7.5 7.30086 7.5 7.49977ZM3.75 6.74977C3.55109 6.74977 3.36032 6.82879 3.21967 6.96944C3.07902 7.11009 3 7.30086 3 7.49977V16.4998C3 16.6987 3.07902 16.8894 3.21967 17.0301C3.36032 17.1708 3.55109 17.2498 3.75 17.2498C3.94891 17.2498 4.13968 17.1708 4.28033 17.0301C4.42098 16.8894 4.5 16.6987 4.5 16.4998V7.49977C4.5 7.30086 4.42098 7.11009 4.28033 6.96944C4.13968 6.82879 3.94891 6.74977 3.75 6.74977ZM22.2804 11.4694L13.2804 2.46945C13.1755 2.36455 13.0418 2.29311 12.8963 2.26417C12.7509 2.23523 12.6001 2.25008 12.463 2.30684C12.326 2.36361 12.2088 2.45974 12.1264 2.58308C12.044 2.70642 12 2.85143 12 2.99977V6.74977H9.75C9.55109 6.74977 9.36032 6.82879 9.21967 6.96944C9.07902 7.11009 9 7.30086 9 7.49977V16.4998C9 16.6987 9.07902 16.8894 9.21967 17.0301C9.36032 17.1707 9.55109 17.2498 9.75 17.2498H12V20.9998C12 21.1481 12.044 21.2931 12.1264 21.4165C12.2088 21.5398 12.326 21.6359 12.463 21.6927C12.6001 21.7495 12.7509 21.7643 12.8963 21.7354C13.0418 21.7064 13.1755 21.635 13.2804 21.5301L22.2804 12.5301C22.421 12.3894 22.5 12.1987 22.5 11.9998C22.5 11.8009 22.421 11.6101 22.2804 11.4694Z" fill="#1D1F21" style="fill: var(--ui-icon-primary-color);"/>
</svg>
