<svg  viewBox="0 0 24 24" fill="none" xmlns="http://www.w3.org/2000/svg" id="__THIS_ID_NEEDS_FOR_UI_ICON_COMPONENT__">
<path d="M17.25 20.25C17.25 20.4489 17.171 20.6396 17.0303 20.7803C16.8897 20.9209 16.6989 21 16.5 21H7.5C7.30108 21 7.11032 20.9209 6.96967 20.7803C6.82901 20.6396 6.75 20.4489 6.75 20.25C6.75 20.051 6.82901 19.8603 6.96967 19.7196C7.11032 19.579 7.30108 19.5 7.5 19.5H16.5C16.6989 19.5 16.8897 19.579 17.0303 19.7196C17.171 19.8603 17.25 20.051 17.25 20.25ZM16.5 16.5H7.5C7.30108 16.5 7.11032 16.579 6.96967 16.7196C6.82901 16.8603 6.75 17.051 6.75 17.25C6.75 17.4489 6.82901 17.6396 6.96967 17.7803C7.11032 17.9209 7.30108 18 7.5 18H16.5C16.6989 18 16.8897 17.9209 17.0303 17.7803C17.171 17.6396 17.25 17.4489 17.25 17.25C17.25 17.051 17.171 16.8603 17.0303 16.7196C16.8897 16.579 16.6989 16.5 16.5 16.5ZM21.5303 10.7196L12.5303 1.71959C12.3896 1.57898 12.1989 1.5 12 1.5C11.8011 1.5 11.6104 1.57898 11.4697 1.71959L2.46968 10.7196C2.36478 10.8245 2.29334 10.9581 2.2644 11.1036C2.23546 11.2491 2.25031 11.3999 2.30707 11.5369C2.36384 11.674 2.45997 11.7911 2.58331 11.8736C2.70665 11.956 2.85166 12 3 12H6.75V14.25C6.75 14.4489 6.82902 14.6396 6.96967 14.7803C7.11032 14.9209 7.30108 15 7.5 15H16.5C16.6989 15 16.8897 14.9209 17.0303 14.7803C17.171 14.6396 17.25 14.4489 17.25 14.25V12H21C21.1483 12 21.2933 11.956 21.4167 11.8736C21.54 11.7911 21.6362 11.674 21.6929 11.5369C21.7497 11.3999 21.7645 11.2491 21.7356 11.1036C21.7066 10.9581 21.6352 10.8245 21.5303 10.7196Z" fill="#1D1F21" style="fill: var(--ui-icon-primary-color);"/>
</svg>
