<svg  viewBox="0 0 24 24" fill="none" xmlns="http://www.w3.org/2000/svg" id="__THIS_ID_NEEDS_FOR_UI_ICON_COMPONENT__">
<path d="M21.5392 16.2706C21.5361 16.2738 21.5335 16.2772 21.5304 16.2803L17.0304 20.7803C16.9607 20.85 16.878 20.9052 16.787 20.9429C16.6961 20.9806 16.5985 21 16.5 21C16.4015 21 16.304 20.9806 16.213 20.9429C16.122 20.9052 16.0393 20.85 15.9697 20.7804C15.9 20.7107 15.8448 20.628 15.8071 20.537C15.7694 20.4461 15.75 20.3485 15.75 20.25C15.75 20.1515 15.7694 20.054 15.8071 19.963C15.8447 19.872 15.9 19.7893 15.9696 19.7197L19.1894 16.5H8.25C6.6587 16.5 5.13258 15.8679 4.00736 14.7426C2.88214 13.6174 2.25 12.0913 2.25 10.5C2.25 8.9087 2.88214 7.38258 4.00736 6.25736C5.13258 5.13214 6.6587 4.5 8.25 4.5H16.5C16.6989 4.5 16.8897 4.57902 17.0303 4.71967C17.171 4.86032 17.25 5.05109 17.25 5.25C17.25 5.44891 17.171 5.63968 17.0303 5.78033C16.8897 5.92098 16.6989 6 16.5 6H8.25C7.05653 6 5.91193 6.47411 5.06802 7.31802C4.22411 8.16193 3.75 9.30653 3.75 10.5C3.75 11.6935 4.22411 12.8381 5.06802 13.682C5.91193 14.5259 7.05653 15 8.25 15H19.1894L15.9696 11.7803C15.9 11.7107 15.8447 11.628 15.8071 11.537C15.7694 11.446 15.75 11.3485 15.75 11.25C15.75 11.1515 15.7694 11.0539 15.8071 10.963C15.8448 10.872 15.9 10.7893 15.9697 10.7196C16.0393 10.65 16.122 10.5947 16.213 10.5571C16.304 10.5194 16.4015 10.5 16.5 10.5C16.5985 10.5 16.6961 10.5194 16.787 10.5571C16.878 10.5948 16.9607 10.65 17.0304 10.7197L21.5304 15.2197C21.5332 15.2225 21.5356 15.2257 21.5384 15.2286C21.5527 15.2434 21.5668 15.2585 21.5798 15.2744C21.5879 15.2842 21.5949 15.2944 21.6023 15.3045C21.6094 15.3141 21.6168 15.3234 21.6235 15.3333C21.6312 15.3448 21.638 15.3569 21.6451 15.3688C21.6505 15.3779 21.6562 15.3868 21.6612 15.3961C21.6676 15.4081 21.6731 15.4204 21.6788 15.4326C21.6835 15.4426 21.6885 15.4524 21.6927 15.4627C21.6976 15.4745 21.7016 15.4865 21.7058 15.4985C21.7098 15.5096 21.7141 15.5206 21.7176 15.532C21.7212 15.544 21.7239 15.5562 21.7269 15.5685C21.7298 15.58 21.7331 15.5914 21.7354 15.6032C21.7382 15.6174 21.74 15.6317 21.742 15.646C21.7433 15.656 21.7453 15.6657 21.7462 15.6757C21.7511 15.7251 21.7511 15.7749 21.7462 15.8242C21.7453 15.8343 21.7433 15.844 21.742 15.854C21.74 15.8683 21.7382 15.8826 21.7354 15.8968C21.7331 15.9086 21.7298 15.92 21.7269 15.9315C21.7239 15.9438 21.7212 15.956 21.7176 15.968C21.7141 15.9794 21.7098 15.9904 21.7058 16.0015C21.7016 16.0135 21.6976 16.0255 21.6927 16.0373C21.6885 16.0476 21.6835 16.0574 21.6788 16.0674C21.6731 16.0796 21.6676 16.0919 21.6612 16.1039C21.6562 16.1132 21.6505 16.1221 21.6451 16.1312C21.638 16.1431 21.6312 16.1552 21.6235 16.1667C21.6168 16.1766 21.6094 16.1859 21.6023 16.1955C21.5949 16.2056 21.5879 16.2158 21.5798 16.2256C21.567 16.2412 21.5532 16.2561 21.5392 16.2706Z" fill="#1D1F21" style="fill: var(--ui-icon-primary-color);"/>
</svg>
