<svg  viewBox="0 0 24 24" fill="none" xmlns="http://www.w3.org/2000/svg" id="__THIS_ID_NEEDS_FOR_UI_ICON_COMPONENT__">
<path d="M18.58 18.4753C18.566 18.4923 18.5511 18.5085 18.5357 18.5242C18.5339 18.5262 18.5323 18.5282 18.5304 18.5301C18.5282 18.5323 18.5258 18.5341 18.5236 18.5362C18.5082 18.5513 18.4923 18.5659 18.4756 18.5797C18.4664 18.5872 18.4567 18.5938 18.4473 18.6008C18.4371 18.6084 18.4271 18.6163 18.4166 18.6234C18.4057 18.6307 18.3943 18.637 18.3831 18.6437C18.3733 18.6496 18.3637 18.6557 18.3536 18.6611C18.3424 18.6671 18.3307 18.6723 18.3193 18.6777C18.3085 18.6828 18.298 18.6881 18.2871 18.6926C18.276 18.6972 18.2646 18.7009 18.2534 18.705C18.2416 18.7092 18.2298 18.7137 18.2178 18.7174C18.2066 18.7208 18.1952 18.7233 18.1838 18.7262C18.1714 18.7293 18.1592 18.7327 18.1466 18.7353C18.1335 18.7378 18.1203 18.7394 18.1072 18.7413C18.0961 18.7429 18.0852 18.7449 18.0741 18.746C18.0494 18.7485 18.0248 18.7498 18.0001 18.7498H8.25006C8.05114 18.7498 7.86038 18.6708 7.71973 18.5301C7.57907 18.3895 7.50006 18.1987 7.50006 17.9998C7.50006 17.8009 7.57907 17.6101 7.71973 17.4694C7.86038 17.3288 8.05114 17.2498 8.25006 17.2498H16.1894L5.46974 6.53014C5.32907 6.38949 5.25005 6.19872 5.25004 5.99981C5.25003 5.80089 5.32904 5.61012 5.46969 5.46945C5.61034 5.32879 5.80111 5.24976 6.00002 5.24976C6.19894 5.24975 6.38971 5.32876 6.53037 5.46941L17.2501 16.1891V8.24977C17.2501 8.05086 17.3291 7.8601 17.4697 7.71944C17.6104 7.57879 17.8011 7.49977 18.0001 7.49977C18.199 7.49977 18.3897 7.57879 18.5304 7.71944C18.671 7.8601 18.7501 8.05086 18.7501 8.24977V17.9998L18.75 18.0018C18.7499 18.0258 18.7487 18.0498 18.7463 18.0737C18.7452 18.085 18.7431 18.096 18.7415 18.1072C18.7396 18.1203 18.7381 18.1333 18.7355 18.1463C18.733 18.159 18.7295 18.1713 18.7264 18.1837C18.7235 18.195 18.7211 18.2063 18.7177 18.2174C18.714 18.2297 18.7094 18.2414 18.7051 18.2534C18.7012 18.2645 18.6975 18.2758 18.6929 18.2868C18.6883 18.2978 18.683 18.3083 18.6779 18.3191C18.6725 18.3306 18.6674 18.3421 18.6614 18.3534C18.656 18.3635 18.6498 18.373 18.6439 18.3829C18.6373 18.3941 18.6309 18.4054 18.6237 18.4163C18.6165 18.4269 18.6086 18.4369 18.601 18.4472C18.594 18.4565 18.5875 18.4661 18.58 18.4753Z" fill="#1D1F21" style="fill: var(--ui-icon-primary-color);"/>
</svg>
