<svg  viewBox="0 0 24 24" fill="none" xmlns="http://www.w3.org/2000/svg" id="__THIS_ID_NEEDS_FOR_UI_ICON_COMPONENT__">
<path d="M20.0358 8.0241C20.0339 8.02604 20.0323 8.02817 20.0304 8.0301L15.5304 12.5301C15.3897 12.6708 15.1989 12.7498 15 12.7498C14.8011 12.7498 14.6103 12.6708 14.4697 12.5301C14.329 12.3895 14.25 12.1987 14.25 11.9998C14.25 11.8009 14.329 11.6101 14.4696 11.4695L17.6894 8.24977H6.75V20.9998C6.75 21.1987 6.67098 21.3895 6.53033 21.5301C6.38968 21.6708 6.19891 21.7498 6 21.7498C5.80109 21.7498 5.61032 21.6708 5.46967 21.5301C5.32902 21.3895 5.25 21.1987 5.25 20.9998V7.49977C5.25 7.30086 5.32902 7.1101 5.46967 6.96945C5.61032 6.82879 5.80109 6.74978 6 6.74977H17.6894L14.4696 3.53009C14.4 3.46044 14.3447 3.37776 14.3071 3.28676C14.2694 3.19576 14.25 3.09823 14.25 2.99974C14.25 2.90125 14.2694 2.80372 14.3071 2.71272C14.3448 2.62173 14.4 2.53905 14.4697 2.46941C14.5393 2.39977 14.622 2.34452 14.713 2.30684C14.804 2.26915 14.9015 2.24975 15 2.24976C15.0985 2.24976 15.1961 2.26916 15.287 2.30686C15.378 2.34456 15.4607 2.39981 15.5304 2.46945L20.0304 6.96945C20.0323 6.97138 20.0339 6.9735 20.0358 6.97545C20.0511 6.99111 20.0659 7.00727 20.0798 7.02423C20.0876 7.03366 20.0944 7.04359 20.1016 7.0533C20.109 7.06321 20.1167 7.07285 20.1236 7.08314C20.1311 7.09445 20.1377 7.10619 20.1446 7.11782C20.1502 7.1272 20.1561 7.13633 20.1612 7.14597C20.1676 7.15778 20.173 7.16991 20.1786 7.18197C20.1833 7.19213 20.1885 7.20209 20.1928 7.2125C20.1976 7.22419 20.2015 7.23613 20.2058 7.24798C20.2098 7.25922 20.2141 7.27029 20.2176 7.28179C20.2212 7.29376 20.2239 7.30593 20.2269 7.31804C20.2298 7.32966 20.2331 7.34112 20.2354 7.35296C20.2382 7.3671 20.2399 7.38139 20.2419 7.39565C20.2433 7.40563 20.2452 7.41543 20.2462 7.42552C20.2511 7.4749 20.2511 7.52464 20.2462 7.57402C20.2452 7.58412 20.2433 7.59391 20.2419 7.60389C20.2399 7.61815 20.2382 7.63245 20.2354 7.64659C20.2331 7.65842 20.2298 7.66988 20.2269 7.68151C20.2239 7.69361 20.2212 7.70579 20.2176 7.71776C20.2141 7.72925 20.2098 7.74033 20.2058 7.75157C20.2015 7.76342 20.1976 7.77536 20.1928 7.78704C20.1885 7.79746 20.1833 7.80741 20.1786 7.81758C20.173 7.82964 20.1676 7.84177 20.1612 7.85358C20.1561 7.86321 20.1502 7.87234 20.1446 7.88173C20.1377 7.89335 20.1311 7.9051 20.1236 7.9164C20.1167 7.92669 20.109 7.93634 20.1016 7.94625C20.0944 7.95596 20.0876 7.96589 20.0798 7.97532C20.0659 7.99228 20.0511 8.00844 20.0358 8.0241Z" fill="#1D1F21" style="fill: var(--ui-icon-primary-color);"/>
</svg>
