<svg  viewBox="0 0 24 24" fill="none" xmlns="http://www.w3.org/2000/svg" id="__THIS_ID_NEEDS_FOR_UI_ICON_COMPONENT__">
<path d="M12 2.25C10.0716 2.25 8.18653 2.82183 6.58315 3.89317C4.97977 4.96451 3.73009 6.48726 2.99213 8.26884C2.25418 10.0504 2.0611 12.0108 2.4373 13.9021C2.81351 15.7934 3.74211 17.5307 5.10567 18.8943C6.46923 20.2579 8.20651 21.1865 10.0978 21.5627C11.9891 21.9389 13.9495 21.7458 15.7311 21.0078C17.5127 20.2699 19.0354 19.0202 20.1068 17.4168C21.1781 15.8134 21.75 13.9284 21.75 12C21.747 9.41506 20.7188 6.93684 18.8909 5.10901C17.0631 3.28118 14.5849 2.25299 12 2.25ZM15.1552 15.1553C15.0856 15.2249 15.0029 15.2802 14.912 15.3179C14.821 15.3556 14.7234 15.375 14.625 15.375C14.5265 15.375 14.4289 15.3556 14.338 15.3179C14.247 15.2802 14.1643 15.2249 14.0947 15.1553L10.125 11.1855V13.875C10.125 14.0739 10.0459 14.2647 9.90529 14.4053C9.76464 14.546 9.57387 14.625 9.37496 14.625C9.17605 14.625 8.98528 14.546 8.84463 14.4053C8.70398 14.2647 8.62496 14.0739 8.62496 13.875V9.375C8.62564 9.1763 8.70487 8.98593 8.84538 8.84542C8.98588 8.70492 9.17626 8.62568 9.37496 8.625H13.875C14.0739 8.625 14.2646 8.70402 14.4053 8.84467C14.5459 8.98532 14.625 9.17609 14.625 9.375C14.625 9.57391 14.5459 9.76468 14.4053 9.90533C14.2646 10.046 14.0739 10.125 13.875 10.125H11.1855L15.1552 14.0947C15.2249 14.1644 15.2802 14.247 15.3179 14.338C15.3556 14.429 15.375 14.5265 15.375 14.625C15.375 14.7235 15.3556 14.821 15.3179 14.912C15.2802 15.003 15.2249 15.0856 15.1552 15.1553Z" fill="#1D1F21" style="fill: var(--ui-icon-primary-color);"/>
</svg>
