<svg  viewBox="0 0 24 24" fill="none" xmlns="http://www.w3.org/2000/svg" id="__THIS_ID_NEEDS_FOR_UI_ICON_COMPONENT__">
<path d="M18.8944 5.10547C17.5308 3.74191 15.7935 2.81331 13.9022 2.4371C12.0109 2.0609 10.0505 2.25398 8.26893 2.99193C6.48735 3.72989 4.96461 4.97957 3.89326 6.58295C2.82192 8.18633 2.25009 10.0714 2.25009 11.9998C2.25009 13.9281 2.82192 15.8132 3.89326 17.4166C4.96461 19.0199 6.48735 20.2696 8.26893 21.0076C10.0505 21.7455 12.0109 21.9386 13.9022 21.5624C15.7935 21.1862 17.5308 20.2576 18.8944 18.894C20.7204 17.0642 21.7459 14.5848 21.7459 11.9998C21.7459 9.41473 20.7204 6.93527 18.8944 5.10547ZM15.3744 13.8748C15.3744 14.0737 15.2954 14.2644 15.1547 14.4051C15.014 14.5457 14.8233 14.6248 14.6244 14.6248C14.4255 14.6248 14.2347 14.5457 14.094 14.4051C13.9534 14.2644 13.8744 14.0737 13.8744 13.8748V11.1853L9.90464 15.155C9.76395 15.2954 9.57329 15.3742 9.37453 15.3741C9.17578 15.374 8.9852 15.295 8.84466 15.1545C8.70412 15.0139 8.62512 14.8233 8.62501 14.6246C8.62491 14.4258 8.7037 14.2352 8.84409 14.0945L12.8138 10.1248H10.1244C9.92546 10.1248 9.73469 10.0457 9.59404 9.90509C9.45339 9.76444 9.37437 9.57368 9.37437 9.37476C9.37437 9.17585 9.45339 8.98509 9.59404 8.84443C9.73469 8.70378 9.92546 8.62476 10.1244 8.62476H14.6244C14.8231 8.62544 15.0134 8.70468 15.1539 8.84518C15.2944 8.98569 15.3737 9.17606 15.3744 9.37476V13.8748Z" fill="#1D1F21" style="fill: var(--ui-icon-primary-color);"/>
</svg>
