<svg  viewBox="0 0 24 24" fill="none" xmlns="http://www.w3.org/2000/svg" id="__THIS_ID_NEEDS_FOR_UI_ICON_COMPONENT__">
<path d="M20.25 4.50048V9C20.25 9.19891 20.171 9.38968 20.0303 9.53033C19.8897 9.67098 19.6989 9.75 19.5 9.75C19.3011 9.75 19.1103 9.67098 18.9697 9.53033C18.829 9.38968 18.75 9.19891 18.75 9V6.31069L14.7804 10.2803C14.6397 10.421 14.4489 10.5 14.25 10.5C14.0511 10.5 13.8603 10.421 13.7197 10.2804C13.579 10.1397 13.5 9.94895 13.5 9.75004C13.5 9.55112 13.579 9.36035 13.7196 9.21968L17.6893 5.25H15C14.8011 5.25 14.6103 5.17098 14.4697 5.03033C14.329 4.88968 14.25 4.69891 14.25 4.5C14.25 4.30109 14.329 4.11032 14.4697 3.96967C14.6103 3.82902 14.8011 3.75 15 3.75H19.5C19.5028 3.75 19.5055 3.75039 19.5083 3.75041C19.5302 3.75066 19.552 3.75158 19.5737 3.75373C19.5858 3.7549 19.5975 3.75714 19.6095 3.75888C19.6218 3.76069 19.6341 3.76209 19.6463 3.76451C19.6595 3.76712 19.6723 3.77069 19.6852 3.77399C19.696 3.77673 19.7068 3.77907 19.7175 3.78229C19.7301 3.78609 19.7422 3.79079 19.7545 3.79523C19.7653 3.79912 19.7762 3.80267 19.7868 3.80708C19.7982 3.81177 19.809 3.81727 19.8201 3.82251C19.8312 3.82777 19.8425 3.83272 19.8534 3.83858C19.8639 3.84416 19.8738 3.85053 19.8839 3.85659C19.8948 3.86309 19.9059 3.86925 19.9164 3.87634C19.9274 3.88367 19.9377 3.89186 19.9483 3.89973C19.9574 3.90651 19.9666 3.91283 19.9754 3.92006C19.9929 3.93439 20.0096 3.94961 20.0257 3.96542C20.0272 3.96693 20.0289 3.96817 20.0304 3.96968C20.0323 3.9716 20.0339 3.97373 20.0358 3.97568C20.0511 3.99134 20.0659 4.00749 20.0799 4.02446C20.0876 4.03389 20.0944 4.04382 20.1016 4.05352C20.109 4.06343 20.1167 4.07309 20.1236 4.08337C20.1311 4.09468 20.1377 4.10642 20.1446 4.11804C20.1502 4.12743 20.1561 4.13656 20.1612 4.1462C20.1676 4.15801 20.173 4.17014 20.1786 4.1822C20.1834 4.19236 20.1885 4.20232 20.1928 4.21273C20.1976 4.22443 20.2015 4.23635 20.2058 4.24821C20.2098 4.25944 20.2141 4.27052 20.2176 4.28201C20.2212 4.29398 20.2239 4.30616 20.2269 4.31827C20.2298 4.32989 20.2331 4.34134 20.2354 4.35319C20.2382 4.36734 20.2399 4.38162 20.2419 4.39588C20.2433 4.40586 20.2452 4.41566 20.2463 4.42575C20.2487 4.45061 20.25 4.47552 20.25 4.50048ZM9.21964 13.7197L5.25 17.6893V15C5.25 14.8011 5.17098 14.6103 5.03033 14.4697C4.88968 14.329 4.69891 14.25 4.5 14.25C4.30109 14.25 4.11032 14.329 3.96967 14.4697C3.82902 14.6103 3.75 14.8011 3.75 15V19.4995C3.75 19.5245 3.75125 19.5494 3.75375 19.5742C3.75476 19.5843 3.75668 19.5941 3.75805 19.6041C3.76007 19.6184 3.76176 19.6327 3.76455 19.6468C3.76693 19.6587 3.77018 19.6701 3.77311 19.6817C3.77609 19.6938 3.77879 19.706 3.78241 19.718C3.78588 19.7295 3.79023 19.7406 3.79422 19.7518C3.79848 19.7636 3.80241 19.7756 3.80722 19.7873C3.81152 19.7977 3.81665 19.8076 3.82141 19.8178C3.82704 19.8299 3.8324 19.842 3.83876 19.8538C3.84393 19.8634 3.84979 19.8726 3.85538 19.882C3.86229 19.8936 3.86888 19.9053 3.87643 19.9166C3.88334 19.9269 3.89103 19.9366 3.89841 19.9465C3.90559 19.9562 3.91237 19.9661 3.92015 19.9755C3.93406 19.9925 3.9489 20.0087 3.96423 20.0243C3.96611 20.0263 3.96771 20.0284 3.96963 20.0303C3.97114 20.0318 3.97284 20.0331 3.97435 20.0346C3.99042 20.0504 4.00708 20.0656 4.02456 20.0799C4.0334 20.0872 4.04274 20.0935 4.05185 20.1004C4.06233 20.1082 4.07263 20.1163 4.08352 20.1237C4.09428 20.1308 4.10545 20.1371 4.11648 20.1437C4.12646 20.1496 4.13621 20.1559 4.14642 20.1614C4.15768 20.1674 4.16926 20.1725 4.18075 20.1779C4.19146 20.183 4.20199 20.1883 4.21298 20.1928C4.22406 20.1974 4.23536 20.2012 4.24662 20.2052C4.25848 20.2094 4.2702 20.214 4.28228 20.2177C4.29354 20.221 4.30494 20.2235 4.31625 20.2264C4.32861 20.2295 4.34083 20.233 4.35342 20.2355C4.3666 20.2381 4.37997 20.2396 4.39325 20.2415C4.40419 20.2431 4.4149 20.2452 4.42598 20.2462C4.45056 20.2487 4.47528 20.25 4.5 20.25H9C9.19891 20.25 9.38968 20.171 9.53033 20.0303C9.67098 19.8897 9.75 19.6989 9.75 19.5C9.75 19.3011 9.67098 19.1103 9.53033 18.9697C9.38968 18.829 9.19891 18.75 9 18.75H6.31069L10.2804 14.7803C10.35 14.7107 10.4053 14.628 10.4429 14.537C10.4806 14.446 10.5 14.3485 10.5 14.25C10.5 14.1515 10.4806 14.0539 10.4429 13.9629C10.4052 13.8719 10.35 13.7893 10.2803 13.7196C10.2107 13.65 10.128 13.5947 10.037 13.5571C9.94599 13.5194 9.84846 13.5 9.74997 13.5C9.65148 13.5 9.55395 13.5194 9.46295 13.5571C9.37196 13.5948 9.28928 13.65 9.21964 13.7197L9.21964 13.7197Z" fill="#1D1F21" style="fill: var(--ui-icon-primary-color);"/>
</svg>
