<svg  viewBox="0 0 24 24" fill="none" xmlns="http://www.w3.org/2000/svg" id="__THIS_ID_NEEDS_FOR_UI_ICON_COMPONENT__">
<path d="M18.75 9.75V18.75C18.75 18.7747 18.7487 18.7994 18.7463 18.824C18.7452 18.8351 18.7431 18.8458 18.7415 18.8567C18.7397 18.87 18.7381 18.8834 18.7354 18.8966C18.733 18.909 18.7296 18.921 18.7265 18.9332C18.7236 18.9448 18.7211 18.9564 18.7176 18.9678C18.714 18.9797 18.7095 18.9912 18.7053 19.0029C18.7013 19.0143 18.6975 19.0258 18.6928 19.0371C18.6884 19.0478 18.6831 19.0582 18.6782 19.0687C18.6727 19.0804 18.6675 19.0922 18.6613 19.1037C18.6561 19.1135 18.6501 19.1227 18.6444 19.1322C18.6376 19.1438 18.6311 19.1554 18.6235 19.1667C18.6167 19.1768 18.6092 19.1863 18.6019 19.196C18.5946 19.2059 18.5877 19.216 18.5798 19.2256C18.5671 19.2411 18.5534 19.2558 18.5396 19.2702C18.5364 19.2735 18.5336 19.2771 18.5304 19.2804C18.527 19.2837 18.5234 19.2865 18.52 19.2897C18.5056 19.3036 18.491 19.3172 18.4756 19.3298C18.4662 19.3376 18.4563 19.3443 18.4466 19.3515C18.4366 19.3589 18.4269 19.3667 18.4166 19.3736C18.4055 19.381 18.3941 19.3874 18.3828 19.3941C18.3731 19.3999 18.3636 19.406 18.3536 19.4113C18.3423 19.4174 18.3307 19.4226 18.3191 19.428C18.3084 19.433 18.298 19.4383 18.287 19.4429C18.2759 19.4475 18.2645 19.4512 18.2533 19.4552C18.2415 19.4595 18.2298 19.464 18.2177 19.4676C18.2065 19.471 18.1951 19.4735 18.1838 19.4764C18.1714 19.4795 18.1591 19.483 18.1465 19.4855C18.1334 19.4881 18.1203 19.4896 18.1071 19.4915C18.096 19.4931 18.0852 19.4952 18.074 19.4963C18.0494 19.4987 18.0247 19.5 18 19.5H9C8.80109 19.5 8.61032 19.421 8.46967 19.2803C8.32902 19.1397 8.25 18.9489 8.25 18.75C8.25 18.5511 8.32902 18.3603 8.46967 18.2197C8.61032 18.079 8.80109 18 9 18H16.1893L6.96964 8.78032C6.89999 8.71067 6.84475 8.62799 6.80706 8.53699C6.76937 8.44599 6.74998 8.34846 6.74998 8.24997C6.74999 8.15147 6.76939 8.05395 6.80709 7.96295C6.84478 7.87196 6.90003 7.78928 6.96968 7.71964C7.11034 7.57899 7.30112 7.49997 7.50003 7.49998C7.59853 7.49999 7.69605 7.51939 7.78705 7.55709C7.87804 7.59478 7.96072 7.65003 8.03036 7.71968L17.25 16.9393V9.75C17.25 9.55109 17.329 9.36032 17.4697 9.21967C17.6103 9.07902 17.8011 9 18 9C18.1989 9 18.3897 9.07902 18.5303 9.21967C18.671 9.36032 18.75 9.55109 18.75 9.75ZM19.5 3H4.5C4.30109 3 4.11032 3.07902 3.96967 3.21967C3.82902 3.36032 3.75 3.55109 3.75 3.75C3.75 3.94891 3.82902 4.13968 3.96967 4.28033C4.11032 4.42098 4.30109 4.5 4.5 4.5H19.5C19.6989 4.5 19.8897 4.42098 20.0303 4.28033C20.171 4.13968 20.25 3.94891 20.25 3.75C20.25 3.55109 20.171 3.36032 20.0303 3.21967C19.8897 3.07902 19.6989 3 19.5 3Z" fill="#1D1F21" style="fill: var(--ui-icon-primary-color);"/>
</svg>
