<svg  viewBox="0 0 24 24" fill="none" xmlns="http://www.w3.org/2000/svg" id="__THIS_ID_NEEDS_FOR_UI_ICON_COMPONENT__">
<path d="M21.5452 10.264C21.5401 10.2694 21.5357 10.2751 21.5304 10.2804L17.0304 14.7804C16.8897 14.9211 16.6989 15.0001 16.5 15.0001C16.3011 15.0001 16.1103 14.9211 15.9696 14.7804C15.829 14.6398 15.75 14.449 15.75 14.25C15.75 14.0511 15.829 13.8603 15.9696 13.7197L19.1893 10.5001H12C9.81272 10.5025 7.71574 11.3725 6.1691 12.9191C4.62246 14.4658 3.75247 16.5628 3.75 18.75C3.75 18.949 3.67098 19.1397 3.53033 19.2804C3.38968 19.421 3.19891 19.5 3 19.5C2.80109 19.5 2.61032 19.421 2.46967 19.2804C2.32902 19.1397 2.25 18.949 2.25 18.75C2.25293 16.1651 3.28109 13.6868 5.10894 11.859C6.93679 10.0311 9.41504 9.00298 12 9.00005H19.1893L15.9696 5.78042C15.829 5.63975 15.75 5.44898 15.75 5.25005C15.75 5.05112 15.829 4.86035 15.9696 4.71968C16.1103 4.57902 16.3011 4.5 16.5 4.5C16.6989 4.5 16.8897 4.57902 17.0304 4.71968L21.5304 9.21968C21.5357 9.22497 21.5401 9.23074 21.5452 9.23614C21.557 9.24859 21.5688 9.26102 21.5797 9.27425C21.5882 9.28464 21.5957 9.29554 21.6036 9.30627C21.6102 9.31524 21.6172 9.3239 21.6234 9.33316C21.6314 9.34502 21.6383 9.35733 21.6455 9.36956C21.6507 9.37839 21.6563 9.38699 21.6612 9.39609C21.6677 9.4082 21.6732 9.42065 21.679 9.43301C21.6836 9.44289 21.6885 9.45258 21.6927 9.46269C21.6976 9.47455 21.7016 9.48666 21.7059 9.49872C21.7099 9.5098 21.7141 9.52071 21.7176 9.53202C21.7212 9.54411 21.7239 9.55637 21.727 9.5686C21.7298 9.58013 21.7331 9.59148 21.7354 9.60323C21.7382 9.61742 21.74 9.63177 21.742 9.64607C21.7433 9.65601 21.7453 9.66576 21.7463 9.6758C21.7512 9.72518 21.7512 9.77492 21.7463 9.8243C21.7453 9.83435 21.7433 9.8441 21.742 9.85403C21.74 9.86834 21.7382 9.88269 21.7354 9.89688C21.7331 9.90862 21.7298 9.91997 21.727 9.93151C21.7239 9.94373 21.7212 9.956 21.7176 9.96808C21.7141 9.97939 21.7099 9.99031 21.7059 10.0014C21.7016 10.0134 21.6976 10.0256 21.6927 10.0374C21.6885 10.0475 21.6836 10.0572 21.679 10.0671C21.6732 10.0795 21.6677 10.0919 21.6612 10.104C21.6563 10.1131 21.6507 10.1217 21.6455 10.1305C21.6383 10.1428 21.6313 10.1551 21.6234 10.1669C21.6172 10.1762 21.6102 10.1849 21.6036 10.1938C21.5957 10.2046 21.5882 10.2155 21.5797 10.2259C21.5688 10.2391 21.557 10.2515 21.5452 10.264Z" fill="#1D1F21" style="fill: var(--ui-icon-primary-color);"/>
</svg>
