<svg  viewBox="0 0 24 24" fill="none" xmlns="http://www.w3.org/2000/svg" id="__THIS_ID_NEEDS_FOR_UI_ICON_COMPONENT__">
<path d="M21 8.25023V15.7502C20.9995 16.1479 20.8414 16.5292 20.5602 16.8104C20.279 17.0916 19.8977 17.2498 19.5 17.2502H12V21.0002C12 21.1486 11.956 21.2936 11.8736 21.4169C11.7912 21.5402 11.674 21.6363 11.537 21.6931C11.3999 21.7499 11.2491 21.7647 11.1037 21.7358C10.9582 21.7069 10.8245 21.6355 10.7196 21.5306L1.71963 12.5306C1.57903 12.3899 1.50005 12.1991 1.50005 12.0002C1.50005 11.8013 1.57903 11.6106 1.71963 11.4699L10.7196 2.46986C10.8245 2.36499 10.9582 2.29357 11.1037 2.26465C11.2491 2.23572 11.3999 2.25058 11.537 2.30734C11.674 2.36411 11.7912 2.46024 11.8736 2.58357C11.956 2.7069 12 2.8519 12 3.00023V6.75023H19.5C19.8977 6.75068 20.279 6.90887 20.5602 7.19007C20.8414 7.47128 20.9995 7.85254 21 8.25023Z" fill="#1D1F21" style="fill: var(--ui-icon-primary-color);"/>
</svg>
