<svg  viewBox="0 0 24 24" fill="none" xmlns="http://www.w3.org/2000/svg" id="__THIS_ID_NEEDS_FOR_UI_ICON_COMPONENT__">
<path d="M21.5304 10.2802L17.0304 14.7802C16.8897 14.9208 16.6989 14.9999 16.5 14.9999C16.3011 14.9999 16.1103 14.9208 15.9696 14.7802C15.829 14.6395 15.75 14.4487 15.75 14.2498C15.75 14.0509 15.829 13.8601 15.9696 13.7194L19.9394 9.74981L15.9696 5.78018C15.829 5.63952 15.75 5.44874 15.75 5.24981C15.75 5.05089 15.829 4.86011 15.9696 4.71945C16.1103 4.57878 16.3011 4.49976 16.5 4.49976C16.6989 4.49976 16.8897 4.57878 17.0304 4.71945L21.5304 9.21945C21.671 9.36012 21.75 9.55089 21.75 9.74981C21.75 9.94873 21.671 10.1395 21.5304 10.2802ZM17.0452 10.2637C17.057 10.2512 17.0688 10.2388 17.0797 10.2256C17.0882 10.2152 17.0957 10.2043 17.1036 10.1936C17.1102 10.1846 17.1172 10.1759 17.1234 10.1667C17.1314 10.1548 17.1383 10.1425 17.1455 10.1303C17.1507 10.1215 17.1563 10.1129 17.1612 10.1038C17.1676 10.0917 17.1732 10.0792 17.179 10.0669C17.1836 10.057 17.1885 10.0473 17.1927 10.0372C17.1976 10.0253 17.2016 10.0132 17.2059 10.0011C17.2099 9.99005 17.2141 9.97915 17.2176 9.96784C17.2212 9.95576 17.2239 9.94349 17.227 9.93127C17.2298 9.91973 17.2331 9.90838 17.2354 9.89666C17.2382 9.88242 17.24 9.8681 17.242 9.85377C17.2433 9.84383 17.2453 9.83413 17.2462 9.82406C17.2511 9.77468 17.2511 9.72494 17.2462 9.67556C17.2453 9.66549 17.2433 9.65578 17.242 9.64585C17.24 9.63152 17.2382 9.61719 17.2354 9.60296C17.2331 9.59124 17.2298 9.57989 17.227 9.56835C17.2239 9.55613 17.2212 9.54386 17.2176 9.53177C17.2141 9.52047 17.2099 9.50957 17.2059 9.49849C17.2016 9.48641 17.1976 9.47432 17.1927 9.46242C17.1885 9.45235 17.1836 9.44265 17.179 9.43276C17.1732 9.4204 17.1676 9.40795 17.1612 9.39586C17.1563 9.38675 17.1507 9.37814 17.1455 9.36931C17.1383 9.35709 17.1313 9.34478 17.1234 9.33292C17.1172 9.32367 17.1102 9.31498 17.1036 9.30605C17.0957 9.29529 17.0882 9.28439 17.0797 9.27401C17.0688 9.26078 17.057 9.24837 17.0452 9.23592C17.0401 9.23047 17.0357 9.22475 17.0304 9.21944L12.5304 4.71944C12.3897 4.57878 12.1989 4.49976 12 4.49976C11.8011 4.49976 11.6103 4.57878 11.4696 4.71944C11.329 4.8601 11.25 5.05088 11.25 5.24981C11.2499 5.44873 11.329 5.63951 11.4696 5.78017L14.6893 8.99981H12C9.41504 9.00274 6.93679 10.0309 5.10894 11.8588C3.28109 13.6866 2.25293 16.1648 2.25 18.7498C2.25 18.9487 2.32902 19.1395 2.46967 19.2801C2.61032 19.4208 2.80109 19.4998 3 19.4998C3.19891 19.4998 3.38968 19.4208 3.53033 19.2801C3.67098 19.1395 3.75 18.9487 3.75 18.7498C3.75247 16.5625 4.62246 14.4655 6.1691 12.9189C7.71574 11.3723 9.81272 10.5023 12 10.4998H14.6893L11.4696 13.7194C11.329 13.8601 11.2499 14.0509 11.25 14.2498C11.25 14.4487 11.329 14.6395 11.4696 14.7802C11.6103 14.9208 11.8011 14.9999 12 14.9999C12.1989 14.9999 12.3897 14.9208 12.5304 14.7802L17.0304 10.2802C17.0357 10.2749 17.0401 10.2691 17.0452 10.2637Z" fill="#1D1F21" style="fill: var(--ui-icon-primary-color);"/>
</svg>
