<svg  viewBox="0 0 24 24" fill="none" xmlns="http://www.w3.org/2000/svg" id="__THIS_ID_NEEDS_FOR_UI_ICON_COMPONENT__">
<path d="M19.4999 8.25V16.5C19.4999 16.6989 19.4209 16.8897 19.2802 17.0303C19.1396 17.171 18.9488 17.25 18.7499 17.25C18.551 17.25 18.3602 17.171 18.2196 17.0303C18.0789 16.8897 17.9999 16.6989 17.9999 16.5V8.25C17.9999 7.05653 17.5258 5.91193 16.6819 5.06802C15.838 4.22411 14.6934 3.75 13.4999 3.75C12.3064 3.75 11.1618 4.22411 10.3179 5.06802C9.47401 5.91193 8.99991 7.05653 8.99991 8.25V19.1893L12.2195 15.9697C12.3602 15.829 12.551 15.75 12.7499 15.75C12.9488 15.75 13.1396 15.829 13.2802 15.9696C13.4209 16.1103 13.4999 16.301 13.4999 16.5C13.4999 16.6989 13.4209 16.8897 13.2803 17.0303L8.78027 21.5303C8.77803 21.5326 8.77554 21.5344 8.77324 21.5367C8.75786 21.5516 8.74207 21.5662 8.72545 21.5798C8.71611 21.5875 8.70629 21.5942 8.6967 21.6014C8.68668 21.6088 8.67691 21.6166 8.66652 21.6236C8.65535 21.631 8.64381 21.6375 8.63237 21.6443C8.62281 21.65 8.61346 21.656 8.60362 21.6613C8.59211 21.6675 8.58028 21.6727 8.56851 21.6782C8.55803 21.6832 8.54775 21.6884 8.53702 21.6928C8.52571 21.6975 8.5142 21.7013 8.50273 21.7054C8.4911 21.7095 8.47961 21.714 8.46771 21.7176C8.45624 21.7211 8.44459 21.7236 8.43299 21.7266C8.42086 21.7296 8.40889 21.733 8.39653 21.7354C8.38321 21.7381 8.36975 21.7397 8.35631 21.7416C8.34551 21.7431 8.33488 21.7452 8.32392 21.7462C8.29932 21.7487 8.27462 21.75 8.2499 21.75C8.22518 21.75 8.20049 21.7487 8.17588 21.7462C8.16492 21.7452 8.1543 21.7431 8.14349 21.7416C8.13006 21.7397 8.1166 21.7381 8.10328 21.7354C8.09092 21.733 8.07895 21.7296 8.06681 21.7266C8.05521 21.7236 8.04356 21.7211 8.03209 21.7176C8.02019 21.714 8.0087 21.7095 7.99707 21.7054C7.98561 21.7013 7.9741 21.6975 7.96279 21.6928C7.95205 21.6884 7.94178 21.6832 7.93129 21.6782C7.91953 21.6727 7.9077 21.6675 7.89618 21.6613C7.88634 21.656 7.877 21.65 7.86744 21.6443C7.85599 21.6375 7.84446 21.631 7.83329 21.6236C7.8229 21.6166 7.81312 21.6088 7.8031 21.6014C7.79351 21.5942 7.78369 21.5875 7.77435 21.5798C7.75773 21.5662 7.74194 21.5516 7.72656 21.5367C7.72427 21.5344 7.72178 21.5326 7.71953 21.5303L3.21953 17.0303C3.07888 16.8897 2.99987 16.6989 2.99988 16.5C2.99989 16.301 3.07891 16.1103 3.21958 15.9696C3.36024 15.829 3.55101 15.75 3.74993 15.75C3.94884 15.75 4.13961 15.829 4.28026 15.9697L7.49991 19.1893V8.25C7.49991 6.6587 8.13205 5.13258 9.25727 4.00736C10.3825 2.88214 11.9086 2.25 13.4999 2.25C15.0912 2.25 16.6173 2.88214 17.7425 4.00736C18.8678 5.13258 19.4999 6.6587 19.4999 8.25Z" fill="#1D1F21" style="fill: var(--ui-icon-primary-color);"/>
</svg>
