<svg  viewBox="0 0 24 24" fill="none" xmlns="http://www.w3.org/2000/svg" id="__THIS_ID_NEEDS_FOR_UI_ICON_COMPONENT__">
<path d="M19.2804 11.0304C19.1397 11.171 18.9489 11.25 18.7501 11.25C18.5512 11.25 18.3604 11.171 18.2197 11.0304L12.7501 5.56064V20.25C12.7501 20.4489 12.671 20.6397 12.5304 20.7803C12.3897 20.921 12.199 21 12.0001 21C11.8011 21 11.6104 20.921 11.4697 20.7803C11.3291 20.6397 11.2501 20.4489 11.2501 20.25V5.56064L5.78037 11.0304C5.63971 11.171 5.44894 11.25 5.25002 11.25C5.05111 11.25 4.86034 11.171 4.71969 11.0303C4.57904 10.8897 4.50003 10.6989 4.50004 10.5C4.50005 10.3011 4.57907 10.1103 4.71974 9.96964L11.4697 3.21963C11.4722 3.21719 11.4749 3.21517 11.4773 3.21277C11.4925 3.19796 11.5081 3.18359 11.5245 3.1701C11.5337 3.16257 11.5434 3.15601 11.5528 3.14898C11.563 3.14139 11.573 3.13348 11.5835 3.12639C11.5944 3.11908 11.6058 3.11274 11.617 3.10606C11.6268 3.10022 11.6364 3.09407 11.6465 3.08864C11.6577 3.08262 11.6694 3.0775 11.6809 3.07207C11.6916 3.06701 11.7021 3.06168 11.713 3.05713C11.7241 3.05255 11.7355 3.04884 11.7467 3.04481C11.7585 3.04056 11.7703 3.03602 11.7823 3.03236C11.7936 3.02897 11.805 3.02648 11.8163 3.02362C11.8287 3.0205 11.8409 3.01703 11.8535 3.01453C11.8666 3.01194 11.8798 3.01039 11.8929 3.00851C11.904 3.00693 11.9149 3.00483 11.926 3.00373C11.9507 3.00131 11.9753 3 12.0001 3C12.0248 3 12.0494 3.00131 12.0741 3.00373C12.0852 3.00483 12.0961 3.00693 12.1072 3.00851C12.1203 3.01039 12.1335 3.01194 12.1466 3.01453C12.1592 3.01703 12.1714 3.0205 12.1838 3.02362C12.1952 3.02648 12.2066 3.02897 12.2178 3.03236C12.2299 3.03602 12.2416 3.04056 12.2534 3.04481C12.2646 3.04884 12.276 3.05255 12.2871 3.05713C12.298 3.06168 12.3085 3.06701 12.3193 3.07207C12.3307 3.0775 12.3424 3.08262 12.3536 3.08864C12.3637 3.09407 12.3733 3.10022 12.3831 3.10606C12.3943 3.11274 12.4057 3.11908 12.4166 3.12639C12.4271 3.13348 12.4371 3.14138 12.4473 3.14898C12.4567 3.15601 12.4664 3.16257 12.4756 3.1701C12.4923 3.18381 12.5082 3.19844 12.5236 3.21355C12.5258 3.21568 12.5282 3.21746 12.5304 3.21963L19.2804 9.96964C19.35 10.0393 19.4053 10.122 19.443 10.213C19.4807 10.304 19.5001 10.4015 19.5001 10.5C19.5001 10.5985 19.4807 10.696 19.443 10.787C19.4053 10.878 19.35 10.9607 19.2804 11.0304Z" fill="#1D1F21" style="fill: var(--ui-icon-primary-color);"/>
</svg>
