<svg  viewBox="0 0 24 24" fill="none" xmlns="http://www.w3.org/2000/svg" id="__THIS_ID_NEEDS_FOR_UI_ICON_COMPONENT__">
<path d="M22.2804 12.5306L13.2804 21.5306C13.1755 21.6355 13.0418 21.7069 12.8963 21.7358C12.7509 21.7647 12.6001 21.7499 12.463 21.6931C12.326 21.6363 12.2088 21.5402 12.1264 21.4169C12.044 21.2936 12 21.1486 12 21.0002V17.2502H6.75C6.55109 17.2502 6.36033 17.1712 6.21968 17.0305C6.07903 16.8899 6.00001 16.6991 6 16.5002V7.50023C6.00001 7.30132 6.07903 7.11056 6.21968 6.96991C6.36033 6.82926 6.55109 6.75024 6.75 6.75023H12V3.00023C12 2.8519 12.044 2.7069 12.1264 2.58357C12.2088 2.46024 12.326 2.36411 12.463 2.30734C12.6001 2.25058 12.7509 2.23572 12.8963 2.26465C13.0418 2.29357 13.1755 2.36499 13.2804 2.46986L22.2804 11.4699C22.421 11.6106 22.5 11.8013 22.5 12.0002C22.5 12.1991 22.421 12.3899 22.2804 12.5306ZM3.75 6.75023C3.55109 6.75024 3.36033 6.82926 3.21968 6.96991C3.07903 7.11056 3.00001 7.30132 3 7.50023V16.5002C3 16.6991 3.07902 16.8899 3.21967 17.0306C3.36032 17.1712 3.55109 17.2502 3.75 17.2502C3.94891 17.2502 4.13968 17.1712 4.28033 17.0306C4.42098 16.8899 4.5 16.6991 4.5 16.5002V7.50023C4.49999 7.30132 4.42097 7.11056 4.28032 6.96991C4.13967 6.82926 3.94891 6.75024 3.75 6.75023Z" fill="#1D1F21" style="fill: var(--ui-icon-primary-color);"/>
</svg>
