<svg  viewBox="0 0 24 24" fill="none" xmlns="http://www.w3.org/2000/svg" id="__THIS_ID_NEEDS_FOR_UI_ICON_COMPONENT__">
<path d="M20.0303 5.03041L16.0607 9.00005H18.75C18.9489 9.00005 19.1396 9.07907 19.2803 9.21972C19.4209 9.36037 19.5 9.55114 19.5 9.75005C19.5 9.94896 19.4209 10.1397 19.2803 10.2804C19.1396 10.421 18.9489 10.5 18.75 10.5H14.25C14.2252 10.5 14.2005 10.4987 14.1759 10.4963C14.1649 10.4952 14.1542 10.4931 14.1432 10.4916C14.1299 10.4897 14.1166 10.4881 14.1034 10.4855C14.0909 10.483 14.0789 10.4796 14.0667 10.4765C14.0551 10.4737 14.0436 10.4711 14.0322 10.4677C14.0203 10.4641 14.0089 10.4596 13.9973 10.4555C13.9857 10.4514 13.9742 10.4475 13.9628 10.4429C13.9522 10.4384 13.942 10.4333 13.9317 10.4284C13.9198 10.4228 13.9078 10.4175 13.8962 10.4113C13.8866 10.4062 13.8775 10.4003 13.8682 10.3948C13.8565 10.3878 13.8447 10.3812 13.8332 10.3735C13.8235 10.367 13.8144 10.3597 13.805 10.3528C13.7947 10.3452 13.7842 10.338 13.7743 10.3298C13.7608 10.3187 13.7481 10.3067 13.7354 10.2947C13.7303 10.2898 13.7247 10.2855 13.7196 10.2804C13.7143 10.2751 13.7098 10.2694 13.7047 10.264C13.693 10.2515 13.6812 10.2391 13.6703 10.2259C13.6617 10.2155 13.6542 10.2046 13.6464 10.1938C13.6398 10.1849 13.6328 10.1762 13.6266 10.1669C13.6186 10.1551 13.6117 10.1428 13.6045 10.1306C13.5993 10.1217 13.5937 10.1131 13.5888 10.104C13.5823 10.0919 13.5768 10.0795 13.571 10.0671C13.5664 10.0572 13.5614 10.0475 13.5572 10.0374C13.5523 10.0256 13.5483 10.0135 13.544 10.0014C13.5401 9.99031 13.5359 9.9794 13.5324 9.96809C13.5288 9.956 13.5261 9.94373 13.523 9.93151C13.5201 9.91998 13.5169 9.90862 13.5145 9.89688C13.5117 9.88269 13.51 9.86834 13.508 9.85404C13.5066 9.8441 13.5047 9.83435 13.5037 9.82431C13.5012 9.79945 13.5 9.77454 13.5 9.74958V5.25005C13.5 5.05114 13.579 4.86037 13.7196 4.71972C13.8603 4.57907 14.0511 4.50005 14.25 4.50005C14.4489 4.50005 14.6396 4.57907 14.7803 4.71972C14.921 4.86037 15 5.05114 15 5.25005V7.93932L18.9696 3.96968C19.0393 3.90004 19.1219 3.84479 19.2129 3.80709C19.3039 3.7694 19.4015 3.75 19.5 3.75C19.5985 3.75 19.696 3.7694 19.787 3.80709C19.878 3.84479 19.9607 3.90004 20.0303 3.96968C20.1 4.03933 20.1552 4.12202 20.1929 4.21302C20.2306 4.30402 20.25 4.40155 20.25 4.50005C20.25 4.59855 20.2306 4.69608 20.1929 4.78708C20.1552 4.87808 20.1 4.96077 20.0303 5.03041H20.0303ZM10.4962 14.1758C10.4952 14.1658 10.4933 14.156 10.4919 14.1461C10.4899 14.1318 10.4882 14.1174 10.4854 14.1032C10.4831 14.0915 10.4798 14.0801 10.4769 14.0686C10.4739 14.0564 10.4712 14.0441 10.4675 14.032C10.4641 14.0207 10.4598 14.0098 10.4559 13.9987C10.4516 13.9867 10.4476 13.9745 10.4427 13.9627C10.4385 13.9526 10.4335 13.9429 10.4289 13.933C10.4232 13.9206 10.4176 13.9082 10.4111 13.8961C10.4063 13.887 10.4007 13.8784 10.3955 13.8695C10.3883 13.8573 10.3813 13.845 10.3733 13.8332C10.3671 13.8239 10.3602 13.8152 10.3536 13.8063C10.3457 13.7955 10.3382 13.7846 10.3296 13.7743C10.3187 13.761 10.307 13.7486 10.2952 13.7361C10.2901 13.7307 10.2856 13.725 10.2803 13.7197C10.2753 13.7147 10.2699 13.7105 10.2648 13.7056C10.252 13.6936 10.2392 13.6815 10.2257 13.6703C10.2159 13.6623 10.2056 13.6552 10.1955 13.6478C10.1859 13.6406 10.1766 13.6332 10.1666 13.6265C10.1555 13.6191 10.1441 13.6127 10.1327 13.6059C10.123 13.6001 10.1135 13.594 10.1035 13.5887C10.0924 13.5828 10.081 13.5777 10.0697 13.5724C10.0588 13.5672 10.048 13.5618 10.0368 13.5571C10.0263 13.5528 10.0155 13.5493 10.0048 13.5454C9.99231 13.5409 9.98004 13.5362 9.96731 13.5323C9.95706 13.5292 9.94662 13.527 9.93628 13.5243C9.92291 13.5209 9.90973 13.5172 9.89613 13.5145C9.88473 13.5123 9.87324 13.511 9.86175 13.5093C9.84903 13.5074 9.83644 13.505 9.82348 13.5038C9.80453 13.5019 9.78553 13.5013 9.76654 13.5009C9.761 13.5008 9.75555 13.5 9.74996 13.5H5.24996C5.05105 13.5 4.86028 13.5791 4.71963 13.7197C4.57898 13.8604 4.49996 14.0511 4.49996 14.25C4.49996 14.449 4.57898 14.6397 4.71963 14.7804C4.86028 14.921 5.05105 15 5.24996 15H7.93923L3.9696 18.9697C3.89995 19.0393 3.8447 19.122 3.80701 19.213C3.76931 19.304 3.74991 19.4016 3.74991 19.5C3.74991 19.5985 3.76931 19.6961 3.80701 19.7871C3.8447 19.8781 3.89995 19.9608 3.9696 20.0304C4.11026 20.1711 4.30104 20.2501 4.49996 20.2501C4.59846 20.2501 4.69599 20.2307 4.78699 20.193C4.87799 20.1553 4.96068 20.1001 5.03033 20.0304L8.99996 16.0608V18.75C8.99996 18.949 9.07898 19.1397 9.21963 19.2804C9.36028 19.421 9.55105 19.5 9.74996 19.5C9.94888 19.5 10.1396 19.421 10.2803 19.2804C10.4209 19.1397 10.5 18.949 10.5 18.75V14.2505C10.5 14.2256 10.4987 14.2007 10.4962 14.1758Z" fill="#1D1F21" style="fill: var(--ui-icon-primary-color);"/>
</svg>
