<svg  viewBox="0 0 24 24" fill="none" xmlns="http://www.w3.org/2000/svg" id="__THIS_ID_NEEDS_FOR_UI_ICON_COMPONENT__">
<path d="M18.7501 6V15.75C18.7501 15.9489 18.671 16.1397 18.5304 16.2803C18.3897 16.421 18.199 16.5 18.0001 16.5C17.8011 16.5 17.6104 16.421 17.4697 16.2803C17.3291 16.1397 17.2501 15.9489 17.2501 15.75V7.81069L6.53037 18.5304C6.38971 18.671 6.19894 18.75 6.00002 18.75C5.80111 18.75 5.61034 18.671 5.46969 18.5303C5.32904 18.3897 5.25003 18.1989 5.25004 18C5.25005 17.8011 5.32907 17.6103 5.46974 17.4696L16.1894 6.75H8.25006C8.05114 6.75 7.86038 6.67098 7.71973 6.53033C7.57907 6.38968 7.50006 6.19891 7.50006 6C7.50006 5.80109 7.57907 5.61032 7.71973 5.46967C7.86038 5.32902 8.05114 5.25 8.25006 5.25H18.0001C18.0056 5.25 18.0111 5.25073 18.0166 5.25082C18.0356 5.25124 18.0546 5.25188 18.0736 5.25371C18.0865 5.25499 18.0992 5.25732 18.1119 5.25925C18.1233 5.26094 18.1348 5.26222 18.1462 5.26447C18.1599 5.26717 18.1731 5.27087 18.1865 5.27431C18.1968 5.27696 18.2072 5.27916 18.2174 5.28228C18.2302 5.28612 18.2426 5.29093 18.2551 5.29546C18.2657 5.29926 18.2764 5.30274 18.2868 5.30704C18.2982 5.3118 18.3092 5.31734 18.3204 5.32261C18.3314 5.32787 18.3426 5.33277 18.3535 5.33858C18.3639 5.34412 18.3737 5.35044 18.3838 5.35648C18.3947 5.36303 18.4059 5.36921 18.4165 5.37635C18.4273 5.38358 18.4374 5.39159 18.4477 5.39933C18.457 5.40624 18.4665 5.41269 18.4755 5.42006C18.4923 5.43384 18.5083 5.44854 18.5237 5.46364C18.5259 5.46575 18.5282 5.46753 18.5304 5.46964C18.5322 5.47157 18.5339 5.47363 18.5357 5.47555C18.5511 5.49125 18.566 5.5075 18.58 5.52449C18.5875 5.53364 18.594 5.54326 18.601 5.55264C18.6086 5.56285 18.6165 5.57287 18.6237 5.58349C18.6309 5.59439 18.6373 5.60574 18.6439 5.61691C18.6498 5.62675 18.656 5.63632 18.6614 5.64644C18.6674 5.65765 18.6725 5.66924 18.6779 5.68073C18.683 5.69148 18.6883 5.70201 18.6929 5.71304C18.6975 5.72403 18.7012 5.73525 18.7051 5.74642C18.7094 5.75837 18.714 5.77013 18.7177 5.78235C18.7211 5.79352 18.7235 5.80483 18.7264 5.81609C18.7295 5.82854 18.733 5.84081 18.7355 5.85349C18.7381 5.86645 18.7396 5.87954 18.7415 5.89263C18.7431 5.9038 18.7452 5.91479 18.7463 5.92609C18.7487 5.94999 18.7499 5.97394 18.75 5.99796L18.7501 6Z" fill="#1D1F21" style="fill: var(--ui-icon-primary-color);"/>
</svg>
