<svg  viewBox="0 0 24 24" fill="none" xmlns="http://www.w3.org/2000/svg" id="__THIS_ID_NEEDS_FOR_UI_ICON_COMPONENT__">
<path d="M15.182 18.568C15.3226 18.7087 15.4016 18.8994 15.4016 19.0983C15.4016 19.2973 15.3226 19.488 15.182 19.6287L12.5303 22.2803C12.526 22.2846 12.5213 22.2883 12.5169 22.2925C12.5036 22.3052 12.4903 22.3177 12.4761 22.3294C12.4704 22.3342 12.4642 22.3382 12.4583 22.3428C12.4447 22.3532 12.4312 22.3638 12.4171 22.3733C12.4122 22.3765 12.4071 22.3792 12.4022 22.3823C12.3864 22.3924 12.3705 22.4023 12.3539 22.4112C12.3504 22.4131 12.3467 22.4145 12.3431 22.4164C12.3249 22.4258 12.3065 22.4348 12.2875 22.4427C12.2853 22.4436 12.283 22.4442 12.2809 22.4451C12.2605 22.4534 12.2398 22.461 12.2186 22.4674C12.216 22.4682 12.2132 22.4687 12.2106 22.4695C12.1899 22.4755 12.169 22.4811 12.1476 22.4853C12.1413 22.4865 12.1349 22.4871 12.1286 22.4882C12.1108 22.4913 12.093 22.4944 12.0749 22.4962C12.0251 22.5013 11.9749 22.5013 11.925 22.4962C11.9069 22.4944 11.8892 22.4913 11.8714 22.4882C11.8651 22.4871 11.8586 22.4865 11.8524 22.4853C11.831 22.4811 11.8101 22.4755 11.7894 22.4695C11.7868 22.4687 11.784 22.4682 11.7814 22.4674C11.7602 22.461 11.7395 22.4534 11.7191 22.4451C11.7169 22.4442 11.7147 22.4436 11.7125 22.4427C11.6935 22.4348 11.675 22.4258 11.6568 22.4164C11.6533 22.4145 11.6495 22.4131 11.646 22.4112C11.6295 22.4023 11.6135 22.3924 11.5977 22.3823C11.5928 22.3792 11.5877 22.3765 11.5829 22.3733C11.5687 22.3638 11.5552 22.3532 11.5417 22.3428C11.5358 22.3382 11.5296 22.3342 11.5238 22.3294C11.5097 22.3177 11.4963 22.3052 11.4831 22.2925C11.4787 22.2883 11.4739 22.2846 11.4696 22.2803L8.81798 19.6287C8.67732 19.488 8.5983 19.2972 8.59831 19.0983C8.59831 18.8994 8.67734 18.7086 8.818 18.568C8.95866 18.4273 9.14943 18.3483 9.34836 18.3483C9.54728 18.3483 9.73805 18.4273 9.87871 18.568L11.25 19.9393V15C11.25 14.8011 11.329 14.6103 11.4697 14.4697C11.6103 14.329 11.8011 14.25 12 14.25C12.1989 14.25 12.3897 14.329 12.5303 14.4697C12.671 14.6103 12.75 14.8011 12.75 15V19.9393L14.1213 18.568C14.2619 18.4273 14.4527 18.3483 14.6516 18.3483C14.8505 18.3483 15.0413 18.4273 15.182 18.568ZM9.87871 5.43201L11.25 4.06069V9C11.25 9.19891 11.329 9.38968 11.4697 9.53033C11.6103 9.67098 11.8011 9.75 12 9.75C12.1989 9.75 12.3897 9.67098 12.5303 9.53033C12.671 9.38968 12.75 9.19891 12.75 9V4.06069L14.1213 5.43201C14.2619 5.57267 14.4527 5.6517 14.6516 5.6517C14.8505 5.6517 15.0413 5.57269 15.182 5.43203C15.3226 5.29137 15.4017 5.1006 15.4017 4.90168C15.4017 4.70276 15.3227 4.51198 15.182 4.37132L12.5303 1.71968C12.5265 1.71579 12.5221 1.71245 12.5182 1.70865C12.5045 1.69556 12.4908 1.6826 12.4761 1.67061C12.4704 1.66585 12.4642 1.66178 12.4583 1.6572C12.4447 1.64676 12.4312 1.63623 12.4171 1.62671C12.4122 1.62351 12.4071 1.6208 12.4022 1.61769C12.3864 1.60762 12.3705 1.59773 12.3539 1.58881C12.3504 1.58693 12.3466 1.58542 12.343 1.58359C12.3249 1.5742 12.3065 1.56523 12.2875 1.55731C12.2851 1.55631 12.2826 1.55562 12.2802 1.55466C12.26 1.54651 12.2395 1.53896 12.2186 1.53259C12.216 1.53177 12.2132 1.53131 12.2106 1.53053C12.1899 1.52449 12.169 1.51895 12.1476 1.51469C12.1413 1.51346 12.1349 1.51291 12.1286 1.51181C12.1108 1.5087 12.093 1.50558 12.0749 1.5038C12.0251 1.49873 11.9749 1.49873 11.925 1.5038C11.9069 1.50558 11.8892 1.5087 11.8714 1.51181C11.8651 1.51291 11.8586 1.51346 11.8524 1.51469C11.831 1.51895 11.8101 1.52449 11.7894 1.53053C11.7868 1.53131 11.784 1.53177 11.7814 1.53259C11.7604 1.53896 11.74 1.54651 11.7198 1.55466C11.7174 1.55562 11.7149 1.55631 11.7125 1.55731C11.6935 1.56523 11.6751 1.5742 11.6569 1.58359C11.6533 1.58542 11.6496 1.58693 11.646 1.58881C11.6295 1.59773 11.6135 1.60762 11.5977 1.61769C11.5928 1.62081 11.5877 1.62351 11.5829 1.62671C11.5687 1.63623 11.5552 1.64676 11.5417 1.6572C11.5358 1.66178 11.5296 1.66585 11.5238 1.67061C11.5092 1.6826 11.4954 1.69556 11.4818 1.70865C11.4778 1.71245 11.4735 1.71579 11.4696 1.71968L8.81798 4.37132C8.67732 4.51199 8.5983 4.70276 8.59831 4.90168C8.59831 5.00018 8.61771 5.09771 8.65541 5.18871C8.6931 5.27971 8.74835 5.36239 8.818 5.43203C8.88765 5.50168 8.97033 5.55692 9.06133 5.59462C9.15233 5.63231 9.24986 5.6517 9.34836 5.6517C9.54728 5.6517 9.73805 5.57267 9.87871 5.43201V5.43201ZM4.06062 12.75H8.99998C9.1989 12.75 9.38966 12.671 9.53031 12.5303C9.67097 12.3897 9.74998 12.1989 9.74998 12C9.74998 11.8011 9.67097 11.6103 9.53031 11.4697C9.38966 11.329 9.1989 11.25 8.99998 11.25H4.06062L5.43199 9.87868C5.57213 9.73791 5.65071 9.5473 5.65049 9.34867C5.65027 9.15003 5.57126 8.9596 5.4308 8.81914C5.29034 8.67869 5.0999 8.59969 4.90127 8.59948C4.70264 8.59926 4.51203 8.67785 4.37126 8.81799L1.71962 11.4697C1.71673 11.4725 1.71435 11.4757 1.71156 11.4786C1.69723 11.4934 1.68323 11.5085 1.67018 11.5244C1.66212 11.5342 1.65507 11.5444 1.64761 11.5545C1.64056 11.5641 1.63315 11.5734 1.62651 11.5833C1.61873 11.5948 1.612 11.6069 1.60495 11.6188C1.59954 11.6279 1.59378 11.6368 1.58879 11.6461C1.58238 11.6581 1.57693 11.6704 1.57121 11.6826C1.56649 11.6926 1.5615 11.7024 1.55725 11.7127C1.55235 11.7245 1.54841 11.7365 1.54411 11.7485C1.54017 11.7596 1.53587 11.7706 1.53239 11.782C1.52877 11.794 1.52607 11.8062 1.52305 11.8185C1.52017 11.83 1.51692 11.8414 1.51454 11.8532C1.51175 11.8674 1.51001 11.8817 1.50804 11.896C1.50662 11.906 1.50474 11.9157 1.50373 11.9257C1.49884 11.9751 1.49884 12.0249 1.50373 12.0742C1.50474 12.0843 1.50662 12.094 1.50804 12.104C1.51001 12.1183 1.51175 12.1326 1.51454 12.1468C1.51692 12.1586 1.52017 12.17 1.52305 12.1815C1.52607 12.1938 1.52877 12.206 1.53239 12.218C1.53587 12.2294 1.54017 12.2404 1.54411 12.2515C1.54841 12.2635 1.55235 12.2755 1.55725 12.2873C1.5615 12.2976 1.56649 12.3074 1.57121 12.3174C1.57693 12.3296 1.58238 12.3419 1.58879 12.3539C1.59378 12.3632 1.59954 12.3721 1.60495 12.3812C1.612 12.3931 1.61873 12.4052 1.62651 12.4167C1.63315 12.4266 1.64056 12.4359 1.64761 12.4455C1.65507 12.4556 1.66212 12.4658 1.67018 12.4756C1.683 12.4912 1.69678 12.5061 1.71078 12.5206C1.71385 12.5238 1.7165 12.5272 1.71962 12.5303L4.37126 15.182C4.51192 15.3227 4.70269 15.4017 4.90161 15.4017C5.10054 15.4017 5.29131 15.3227 5.43197 15.182C5.57264 15.0414 5.65166 14.8506 5.65166 14.6517C5.65167 14.4528 5.57265 14.262 5.43199 14.1213L4.06062 12.75ZM22.3298 12.4756C22.3378 12.4658 22.3449 12.4556 22.3524 12.4455C22.3594 12.4359 22.3668 12.4266 22.3735 12.4167C22.3812 12.4052 22.388 12.3931 22.395 12.3812C22.4004 12.3721 22.4062 12.3632 22.4112 12.3539C22.4176 12.342 22.423 12.3296 22.4288 12.3174C22.4335 12.3074 22.4385 12.2976 22.4427 12.2873C22.4476 12.2755 22.4516 12.2635 22.4559 12.2515C22.4598 12.2404 22.4641 12.2294 22.4676 12.218C22.4712 12.206 22.4739 12.1938 22.4769 12.1816C22.4798 12.17 22.483 12.1586 22.4854 12.1468C22.4882 12.1326 22.49 12.1183 22.4919 12.104C22.4933 12.094 22.4952 12.0843 22.4962 12.0743C22.5011 12.0249 22.5011 11.9751 22.4962 11.9258C22.4952 11.9157 22.4933 11.906 22.4919 11.896C22.49 11.8817 22.4882 11.8674 22.4854 11.8532C22.483 11.8414 22.4798 11.83 22.4769 11.8185C22.4739 11.8062 22.4712 11.794 22.4676 11.782C22.4641 11.7706 22.4598 11.7596 22.4559 11.7485C22.4516 11.7365 22.4476 11.7245 22.4427 11.7127C22.4385 11.7024 22.4335 11.6926 22.4288 11.6826C22.423 11.6704 22.4176 11.6581 22.4112 11.6461C22.4062 11.6368 22.4004 11.6279 22.395 11.6188C22.388 11.6069 22.3812 11.5948 22.3735 11.5833C22.3668 11.5734 22.3594 11.5641 22.3524 11.5545C22.3449 11.5444 22.3378 11.5342 22.3298 11.5244C22.3167 11.5085 22.3027 11.4934 22.2884 11.4786C22.2856 11.4757 22.2832 11.4725 22.2803 11.4697L19.6287 8.81799C19.5591 8.74835 19.4764 8.6931 19.3854 8.6554C19.2944 8.61771 19.1969 8.59831 19.0984 8.5983C18.8994 8.5983 18.7087 8.67732 18.568 8.81797C18.4273 8.95863 18.3483 9.1494 18.3483 9.34832C18.3483 9.54724 18.4273 9.73802 18.568 9.87868L19.9393 11.25H15C14.8011 11.25 14.6103 11.329 14.4697 11.4697C14.329 11.6103 14.25 11.8011 14.25 12C14.25 12.1989 14.329 12.3897 14.4697 12.5303C14.6103 12.671 14.8011 12.75 15 12.75H19.9393L18.568 14.1213C18.4273 14.262 18.3483 14.4528 18.3483 14.6517C18.3483 14.8506 18.4273 15.0414 18.568 15.182C18.7087 15.3227 18.8994 15.4017 19.0984 15.4017C19.2973 15.4017 19.4881 15.3227 19.6287 15.182L22.2803 12.5303C22.2835 12.5272 22.2861 12.5238 22.2892 12.5206C22.3032 12.5061 22.317 12.4912 22.3298 12.4756Z" fill="#1D1F21" style="fill: var(--ui-icon-primary-color);"/>
</svg>
