<svg  viewBox="0 0 24 24" fill="none" xmlns="http://www.w3.org/2000/svg" id="__THIS_ID_NEEDS_FOR_UI_ICON_COMPONENT__">
<path d="M21.5304 13.2804L12.5304 22.2804C12.3897 22.421 12.1989 22.5 12 22.5C11.8011 22.5 11.6104 22.421 11.4697 22.2804L2.46967 13.2804C2.3648 13.1755 2.29338 13.0418 2.26446 12.8963C2.23553 12.7509 2.25039 12.6001 2.30715 12.463C2.36392 12.326 2.46004 12.2088 2.58338 12.1264C2.70671 12.044 2.8517 12 3.00004 12H6.75004V4.5C6.75049 4.10231 6.90867 3.72105 7.18988 3.43984C7.47109 3.15864 7.85235 3.00045 8.25004 3H15.75C16.1477 3.00045 16.529 3.15864 16.8102 3.43984C17.0914 3.72105 17.2496 4.10231 17.25 4.5V12H21C21.1484 12 21.2934 12.044 21.4167 12.1264C21.54 12.2088 21.6362 12.326 21.6929 12.463C21.7497 12.6001 21.7645 12.7509 21.7356 12.8963C21.7067 13.0418 21.6353 13.1755 21.5304 13.2804Z" fill="#1D1F21" style="fill: var(--ui-icon-primary-color);"/>
</svg>
