<svg  viewBox="0 0 24 24" fill="none" xmlns="http://www.w3.org/2000/svg" id="__THIS_ID_NEEDS_FOR_UI_ICON_COMPONENT__">
<path d="M15.9696 12.2195L19.1894 8.99977H8.25C7.05653 8.99977 5.91193 9.47388 5.06802 10.3178C4.22411 11.1617 3.75 12.3063 3.75 13.4998C3.75 14.6932 4.22411 15.8378 5.06802 16.6818C5.91193 17.5257 7.05653 17.9998 8.25 17.9998H16.5C16.6989 17.9998 16.8897 18.0788 17.0303 18.2194C17.171 18.3601 17.25 18.5509 17.25 18.7498C17.25 18.9487 17.171 19.1395 17.0303 19.2801C16.8897 19.4208 16.6989 19.4998 16.5 19.4998H8.25C6.6587 19.4998 5.13258 18.8676 4.00736 17.7424C2.88214 16.6172 2.25 15.0911 2.25 13.4998C2.25 11.9085 2.88214 10.3824 4.00736 9.25713C5.13258 8.13191 6.6587 7.49977 8.25 7.49977H19.1894L15.9696 4.28009C15.9 4.21044 15.8447 4.12776 15.8071 4.03676C15.7694 3.94576 15.75 3.84823 15.75 3.74974C15.75 3.65125 15.7694 3.55372 15.8071 3.46272C15.8448 3.37173 15.9 3.28905 15.9697 3.21941C16.0393 3.14977 16.122 3.09452 16.213 3.05684C16.304 3.01915 16.4015 2.99975 16.5 2.99976C16.5985 2.99976 16.6961 3.01916 16.787 3.05686C16.878 3.09456 16.9607 3.14981 17.0304 3.21945L21.5304 7.71945C21.5332 7.72229 21.5356 7.72545 21.5384 7.72838C21.5527 7.74317 21.5668 7.75823 21.5798 7.77416C21.5879 7.78395 21.5949 7.79421 21.6023 7.80428C21.6094 7.81384 21.6168 7.82314 21.6235 7.83303C21.6312 7.84461 21.638 7.85665 21.6451 7.86855C21.6505 7.87766 21.6562 7.88654 21.6612 7.89588C21.6676 7.90782 21.6731 7.92014 21.6788 7.93236C21.6835 7.94234 21.6885 7.95218 21.6927 7.96244C21.6976 7.97425 21.7016 7.98628 21.7058 7.99828C21.7098 8.0094 21.7141 8.02039 21.7176 8.03174C21.7212 8.04378 21.7239 8.056 21.7269 8.06822C21.7298 8.07976 21.7331 8.0912 21.7354 8.10297C21.7382 8.11716 21.74 8.13149 21.742 8.14581C21.7433 8.15575 21.7453 8.16545 21.7462 8.17552C21.7511 8.2249 21.7511 8.27464 21.7462 8.32402C21.7453 8.33409 21.7433 8.3438 21.742 8.35373C21.74 8.36806 21.7382 8.38239 21.7354 8.39657C21.7331 8.40834 21.7298 8.41978 21.7269 8.43132C21.7239 8.44354 21.7212 8.45576 21.7176 8.4678C21.7141 8.47916 21.7098 8.49014 21.7058 8.50127C21.7016 8.51326 21.6976 8.5253 21.6927 8.53711C21.6885 8.54736 21.6835 8.5572 21.6788 8.56718C21.6731 8.5794 21.6676 8.59172 21.6612 8.60367C21.6562 8.613 21.6505 8.62189 21.6451 8.631C21.638 8.6429 21.6312 8.65494 21.6235 8.66652C21.6168 8.6764 21.6094 8.6857 21.6023 8.69526C21.5949 8.70534 21.5879 8.71559 21.5798 8.72539C21.567 8.741 21.5532 8.75583 21.5392 8.77034C21.5361 8.77354 21.5335 8.77698 21.5304 8.78009L17.0304 13.2801C16.9607 13.3497 16.878 13.405 16.787 13.4427C16.6961 13.4804 16.5985 13.4998 16.5 13.4998C16.4015 13.4998 16.304 13.4804 16.213 13.4427C16.122 13.405 16.0393 13.3498 15.9697 13.2801C15.9 13.2105 15.8448 13.1278 15.8071 13.0368C15.7694 12.9458 15.75 12.8483 15.75 12.7498C15.75 12.6513 15.7694 12.5538 15.8071 12.4628C15.8447 12.3718 15.9 12.2891 15.9696 12.2194L15.9696 12.2195Z" fill="#1D1F21" style="fill: var(--ui-icon-primary-color);"/>
</svg>
