<svg  viewBox="0 0 24 24" fill="none" xmlns="http://www.w3.org/2000/svg" id="__THIS_ID_NEEDS_FOR_UI_ICON_COMPONENT__">
<path d="M12.9696 19.2801C12.829 19.1394 12.75 18.9487 12.75 18.7498C12.75 18.5509 12.829 18.3601 12.9696 18.2195L18.4394 12.7498H3.75C3.55109 12.7498 3.36032 12.6708 3.21967 12.5301C3.07902 12.3895 3 12.1987 3 11.9998C3 11.8009 3.07902 11.6101 3.21967 11.4694C3.36032 11.3288 3.55109 11.2498 3.75 11.2498H18.4394L12.9696 5.78009C12.9 5.71044 12.8447 5.62776 12.8071 5.53676C12.7694 5.44576 12.75 5.34823 12.75 5.24974C12.75 5.15125 12.7694 5.05372 12.8071 4.96272C12.8448 4.87173 12.9 4.78905 12.9697 4.71941C13.0393 4.64977 13.122 4.59452 13.213 4.55684C13.304 4.51915 13.4015 4.49975 13.5 4.49976C13.5985 4.49976 13.6961 4.51916 13.787 4.55686C13.878 4.59456 13.9607 4.64981 14.0304 4.71945L20.7804 11.4695C20.7828 11.4719 20.7848 11.4746 20.7872 11.4771C20.802 11.4923 20.8164 11.5079 20.8299 11.5242C20.8374 11.5334 20.844 11.5431 20.851 11.5525C20.8586 11.5627 20.8665 11.5727 20.8736 11.5833C20.8809 11.5941 20.8873 11.6055 20.8939 11.6167C20.8998 11.6265 20.9059 11.6361 20.9114 11.6462C20.9174 11.6575 20.9225 11.6691 20.9279 11.6806C20.933 11.6913 20.9383 11.7018 20.9429 11.7128C20.9475 11.7238 20.9512 11.7352 20.9552 11.7464C20.9594 11.7583 20.964 11.77 20.9676 11.7821C20.971 11.7933 20.9735 11.8047 20.9764 11.816C20.9795 11.8284 20.983 11.8407 20.9855 11.8532C20.9881 11.8663 20.9896 11.8795 20.9915 11.8927C20.9931 11.9037 20.9952 11.9146 20.9963 11.9258C20.9987 11.9504 21 11.9751 21 11.9998C21 12.0245 20.9987 12.0492 20.9963 12.0738C20.9952 12.085 20.9931 12.0958 20.9915 12.1069C20.9896 12.12 20.9881 12.1332 20.9855 12.1463C20.983 12.1589 20.9795 12.1712 20.9764 12.1835C20.9735 12.1949 20.971 12.2063 20.9676 12.2175C20.964 12.2296 20.9594 12.2413 20.9552 12.2531C20.9512 12.2644 20.9475 12.2757 20.9429 12.2868C20.9383 12.2977 20.933 12.3083 20.9279 12.319C20.9225 12.3305 20.9174 12.3421 20.9114 12.3534C20.9059 12.3635 20.8998 12.373 20.8939 12.3828C20.8873 12.394 20.8809 12.4054 20.8736 12.4163C20.8665 12.4269 20.8586 12.4368 20.851 12.447C20.844 12.4564 20.8374 12.4661 20.8299 12.4753C20.8162 12.492 20.8016 12.5079 20.7865 12.5234C20.7843 12.5255 20.7825 12.5279 20.7804 12.5301L14.0304 19.2801C13.9607 19.3497 13.878 19.405 13.787 19.4427C13.696 19.4804 13.5985 19.4998 13.5 19.4998C13.4015 19.4998 13.304 19.4804 13.213 19.4427C13.122 19.405 13.0393 19.3497 12.9696 19.2801Z" fill="#1D1F21" style="fill: var(--ui-icon-primary-color);"/>
</svg>
