<svg  viewBox="0 0 24 24" fill="none" xmlns="http://www.w3.org/2000/svg" id="__THIS_ID_NEEDS_FOR_UI_ICON_COMPONENT__">
<path d="M5.25 14.25V5.25C5.25 5.2253 5.25133 5.20061 5.25375 5.176C5.2548 5.16489 5.25691 5.1541 5.25846 5.14314C5.26039 5.12989 5.26194 5.1166 5.26455 5.10344C5.26703 5.09092 5.27046 5.07879 5.27353 5.06651C5.27641 5.05507 5.27893 5.04357 5.28236 5.03225C5.28602 5.02016 5.29055 5.00848 5.29481 4.99665C5.29884 4.98541 5.30255 4.97409 5.30712 4.96302C5.3117 4.95196 5.3171 4.94136 5.32219 4.93058C5.32754 4.91916 5.33262 4.90765 5.33862 4.89645C5.34411 4.88613 5.35043 4.87634 5.35643 4.86631C5.36297 4.85535 5.36915 4.84426 5.37629 4.83358C5.38375 4.82244 5.39204 4.81197 5.40005 4.80126C5.40673 4.79239 5.41287 4.78327 5.42001 4.77463C5.43557 4.75563 5.45201 4.73736 5.46936 4.71999L5.46963 4.71968L5.46968 4.71967C5.48716 4.70218 5.50557 4.68562 5.5247 4.66992C5.53299 4.66314 5.54168 4.65726 5.55015 4.65089C5.56123 4.64255 5.57212 4.63397 5.58371 4.62625C5.59401 4.61934 5.60472 4.61337 5.61529 4.60703C5.62573 4.60079 5.63589 4.59427 5.64665 4.58853C5.65741 4.58279 5.66848 4.57792 5.67947 4.57272C5.69068 4.5674 5.70172 4.56181 5.71325 4.55705C5.72378 4.55269 5.73454 4.54919 5.74525 4.54533C5.75761 4.54085 5.76983 4.53612 5.78251 4.53229C5.79318 4.52907 5.80398 4.52674 5.81469 4.52401C5.82765 4.52072 5.84047 4.51711 5.85369 4.5145C5.86587 4.51208 5.87823 4.51069 5.8905 4.50888C5.9024 4.50713 5.91416 4.50491 5.92625 4.50372C5.94799 4.50158 5.96983 4.50066 5.99171 4.50042C5.99451 4.50039 5.99721 4.5 6 4.5H15C15.1989 4.5 15.3897 4.57902 15.5303 4.71967C15.671 4.86032 15.75 5.05109 15.75 5.25C15.75 5.44891 15.671 5.63968 15.5303 5.78033C15.3897 5.92098 15.1989 6 15 6H7.81064L17.0304 15.2197C17.171 15.3603 17.25 15.5511 17.25 15.75C17.25 15.9489 17.171 16.1397 17.0303 16.2804C16.8897 16.421 16.6989 16.5 16.5 16.5C16.3011 16.5 16.1103 16.421 15.9696 16.2803L6.75 7.06066V14.25C6.75 14.4489 6.67098 14.6397 6.53033 14.7803C6.38968 14.921 6.19891 15 6 15C5.80109 15 5.61032 14.921 5.46967 14.7803C5.32902 14.6397 5.25 14.4489 5.25 14.25ZM19.5 19.5H4.5C4.30109 19.5 4.11032 19.579 3.96967 19.7197C3.82902 19.8603 3.75 20.0511 3.75 20.25C3.75 20.4489 3.82902 20.6397 3.96967 20.7803C4.11032 20.921 4.30109 21 4.5 21H19.5C19.6989 21 19.8897 20.921 20.0303 20.7803C20.171 20.6397 20.25 20.4489 20.25 20.25C20.25 20.0511 20.171 19.8603 20.0303 19.7197C19.8897 19.579 19.6989 19.5 19.5 19.5Z" fill="#1D1F21" style="fill: var(--ui-icon-primary-color);"/>
</svg>
