<svg  viewBox="0 0 24 24" fill="none" xmlns="http://www.w3.org/2000/svg" id="__THIS_ID_NEEDS_FOR_UI_ICON_COMPONENT__">
<path d="M6.75 6.75C6.75 6.55109 6.82902 6.36032 6.96967 6.21967C7.11032 6.07902 7.30108 6 7.5 6H16.5C16.6989 6 16.8897 6.07902 17.0303 6.21967C17.171 6.36032 17.25 6.55109 17.25 6.75C17.25 6.94891 17.171 7.13968 17.0303 7.28033C16.8897 7.42098 16.6989 7.5 16.5 7.5H7.5C7.30108 7.5 7.11032 7.42098 6.96967 7.28033C6.82902 7.13968 6.75 6.94891 6.75 6.75ZM7.5 4.5H16.5C16.6989 4.5 16.8897 4.42098 17.0303 4.28033C17.171 4.13968 17.25 3.94891 17.25 3.75C17.25 3.55109 17.171 3.36032 17.0303 3.21967C16.8897 3.07902 16.6989 3 16.5 3H7.5C7.30108 3 7.11032 3.07902 6.96967 3.21967C6.82901 3.36032 6.75 3.55109 6.75 3.75C6.75 3.94891 6.82901 4.13968 6.96967 4.28033C7.11032 4.42098 7.30108 4.5 7.5 4.5ZM21.6929 12.463C21.6361 12.3259 21.54 12.2088 21.4167 12.1264C21.2933 12.044 21.1483 12 21 12H17.25V9.75C17.25 9.55109 17.171 9.36032 17.0303 9.21967C16.8897 9.07902 16.6989 9 16.5 9H7.5C7.30108 9 7.11032 9.07902 6.96967 9.21967C6.82902 9.36032 6.75 9.55109 6.75 9.75V12H3C2.85166 12 2.70665 12.044 2.58331 12.1264C2.45997 12.2088 2.36384 12.326 2.30707 12.463C2.25031 12.6001 2.23546 12.7509 2.2644 12.8963C2.29334 13.0418 2.36478 13.1755 2.46968 13.2804L11.4697 22.2804C11.6104 22.421 11.8011 22.5 12 22.5C12.1989 22.5 12.3896 22.421 12.5303 22.2804L21.5303 13.2804C21.6352 13.1755 21.7066 13.0418 21.7356 12.8963C21.7645 12.7508 21.7497 12.6 21.6929 12.463Z" fill="#1D1F21" style="fill: var(--ui-icon-primary-color);"/>
</svg>
