<svg  viewBox="0 0 24 24" fill="none" xmlns="http://www.w3.org/2000/svg" id="__THIS_ID_NEEDS_FOR_UI_ICON_COMPONENT__">
<path d="M15.182 17.1213C15.322 17.2621 15.4004 17.4526 15.4001 17.6512C15.3999 17.8497 15.3209 18.0401 15.1805 18.1805C15.0401 18.3209 14.8497 18.3999 14.6512 18.4001C14.4526 18.4004 14.2621 18.322 14.1213 18.182L12.75 16.8107V21.75C12.75 21.9489 12.671 22.1397 12.5303 22.2803C12.3897 22.421 12.1989 22.5 12 22.5C11.8011 22.5 11.6103 22.421 11.4697 22.2803C11.329 22.1397 11.25 21.9489 11.25 21.75V16.8107L9.87872 18.182C9.73796 18.3222 9.54734 18.4008 9.34867 18.4006C9.15001 18.4004 8.95954 18.3214 8.81906 18.1809C8.67859 18.0405 8.59958 17.85 8.59938 17.6513C8.59918 17.4527 8.6778 17.262 8.81799 17.1213L11.4696 14.4696C11.4746 14.4646 11.4801 14.4604 11.4852 14.4556C11.498 14.4435 11.5107 14.4314 11.5243 14.4203C11.5341 14.4122 11.5444 14.4052 11.5545 14.3977C11.5641 14.3906 11.5734 14.3832 11.5833 14.3765C11.5944 14.3691 11.6059 14.3626 11.6173 14.3559C11.627 14.3501 11.6364 14.344 11.6464 14.3386C11.6575 14.3327 11.6689 14.3277 11.6803 14.3224C11.6912 14.3172 11.7019 14.3117 11.7132 14.3071C11.7237 14.3027 11.7345 14.2992 11.7452 14.2954C11.7577 14.2909 11.7699 14.2861 11.7827 14.2823C11.7929 14.2792 11.8033 14.2769 11.8137 14.2743C11.8271 14.2709 11.8402 14.2672 11.8538 14.2645C11.8652 14.2622 11.8767 14.261 11.8882 14.2592C11.9009 14.2573 11.9135 14.255 11.9265 14.2537C11.9454 14.2519 11.9644 14.2513 11.9834 14.2508C11.989 14.2507 11.9944 14.25 12 14.25C12.0056 14.25 12.011 14.2507 12.0166 14.2508C12.0356 14.2513 12.0546 14.2519 12.0735 14.2537C12.0865 14.255 12.0991 14.2573 12.1118 14.2592C12.1233 14.261 12.1348 14.2622 12.1462 14.2645C12.1598 14.2672 12.1729 14.2709 12.1863 14.2743C12.1967 14.2769 12.2071 14.2792 12.2173 14.2823C12.2301 14.2861 12.2423 14.2909 12.2548 14.2954C12.2655 14.2992 12.2763 14.3027 12.2868 14.3071C12.298 14.3117 12.3088 14.3172 12.3197 14.3224C12.3311 14.3277 12.3425 14.3327 12.3536 14.3386C12.3636 14.344 12.373 14.3501 12.3827 14.3559C12.3941 14.3626 12.4056 14.3691 12.4167 14.3765C12.4266 14.3832 12.4359 14.3906 12.4455 14.3977C12.4556 14.4052 12.4659 14.4122 12.4757 14.4203C12.4893 14.4314 12.502 14.4435 12.5148 14.4556C12.5199 14.4604 12.5254 14.4646 12.5304 14.4696L15.182 17.1213ZM11.4696 9.53037C11.4747 9.53546 11.4803 9.53978 11.4855 9.54469C11.4982 9.55666 11.5108 9.56866 11.5243 9.57972C11.5343 9.58793 11.5448 9.59513 11.5551 9.60274C11.5644 9.60968 11.5735 9.61697 11.5833 9.62347C11.5947 9.63112 11.6065 9.63778 11.6183 9.64474C11.6276 9.65027 11.6367 9.65613 11.6462 9.66126C11.6579 9.66749 11.6698 9.67279 11.6817 9.67836C11.6921 9.68323 11.7022 9.6884 11.7128 9.69281C11.7242 9.6975 11.7358 9.70131 11.7473 9.70543C11.7589 9.70958 11.7703 9.71403 11.7822 9.71762C11.7936 9.72107 11.8052 9.72361 11.8167 9.7265C11.8289 9.72958 11.841 9.733 11.8534 9.73547C11.8666 9.73809 11.88 9.73964 11.8932 9.74154C11.9042 9.7431 11.9149 9.74518 11.926 9.74626C11.9506 9.74869 11.9753 9.75 12 9.75C12.0247 9.75 12.0494 9.74869 12.074 9.74626C12.0851 9.74518 12.0958 9.7431 12.1067 9.74154C12.12 9.73964 12.1334 9.73809 12.1466 9.73547C12.159 9.733 12.1711 9.72958 12.1833 9.7265C12.1948 9.72361 12.2064 9.72107 12.2178 9.71762C12.2297 9.71403 12.2411 9.70958 12.2527 9.70543C12.2642 9.70131 12.2758 9.6975 12.2872 9.69281C12.2978 9.6884 12.3079 9.68323 12.3183 9.67836C12.3302 9.67279 12.3421 9.66749 12.3538 9.66126C12.3633 9.65613 12.3724 9.65027 12.3817 9.64474C12.3935 9.63778 12.4053 9.63112 12.4167 9.62347C12.4264 9.61697 12.4356 9.60968 12.4449 9.60274C12.4552 9.59513 12.4657 9.58793 12.4757 9.57972C12.4892 9.56866 12.5018 9.55666 12.5145 9.54469C12.5197 9.53978 12.5253 9.53546 12.5304 9.53037L15.182 6.87873C15.3221 6.73796 15.4007 6.54735 15.4005 6.34871C15.4003 6.15008 15.3213 5.95964 15.1808 5.81918C15.0404 5.67872 14.8499 5.59971 14.6513 5.59949C14.4527 5.59927 14.2621 5.67785 14.1213 5.81799L12.75 7.18933V2.25C12.75 2.05109 12.671 1.86032 12.5303 1.71967C12.3897 1.57902 12.1989 1.5 12 1.5C11.8011 1.5 11.6103 1.57902 11.4697 1.71967C11.329 1.86032 11.25 2.05109 11.25 2.25V7.18933L9.87872 5.81799C9.80907 5.74834 9.72639 5.6931 9.63539 5.6554C9.54439 5.61771 9.44686 5.59831 9.34836 5.59831C9.14943 5.59831 8.95865 5.67733 8.81799 5.81799C8.74834 5.88764 8.6931 5.97033 8.6554 6.06133C8.61771 6.15233 8.59831 6.24986 8.59831 6.34836C8.59831 6.54728 8.67733 6.73806 8.81799 6.87872L11.4696 9.53037ZM9.54524 12.5139C9.55701 12.5015 9.56877 12.489 9.57967 12.4758C9.58823 12.4654 9.59573 12.4545 9.60361 12.4438C9.6102 12.4348 9.61716 12.4262 9.62338 12.4169C9.63135 12.405 9.6383 12.3927 9.64549 12.3805C9.65071 12.3717 9.6563 12.3631 9.66115 12.354C9.66765 12.3419 9.67319 12.3294 9.67896 12.3171C9.68358 12.3072 9.68852 12.2975 9.69274 12.2874C9.69763 12.2755 9.70166 12.2634 9.70592 12.2513C9.70986 12.2403 9.71411 12.2294 9.71755 12.218C9.72121 12.206 9.72391 12.1937 9.72698 12.1815C9.72986 12.1699 9.73311 12.1586 9.73545 12.1468C9.73824 12.1326 9.73998 12.1183 9.74194 12.104C9.74332 12.0941 9.74524 12.0843 9.74625 12.0742C9.75115 12.0249 9.75115 11.9751 9.74625 11.9258C9.74524 11.9157 9.74332 11.906 9.74194 11.896C9.73997 11.8817 9.73824 11.8674 9.73545 11.8532C9.73311 11.8414 9.72986 11.8301 9.72698 11.8185C9.72391 11.8063 9.72121 11.7941 9.71755 11.782C9.71411 11.7707 9.70986 11.7597 9.70592 11.7487C9.70166 11.7366 9.69763 11.7245 9.69274 11.7126C9.68853 11.7025 9.68358 11.6928 9.67896 11.683C9.67319 11.6706 9.66765 11.6581 9.66115 11.646C9.6563 11.637 9.65071 11.6284 9.64549 11.6195C9.6383 11.6073 9.63135 11.595 9.62338 11.5831C9.61716 11.5739 9.6102 11.5652 9.60361 11.5562C9.59573 11.5455 9.58823 11.5346 9.57967 11.5242C9.56877 11.511 9.55701 11.4986 9.54524 11.4861C9.54016 11.4807 9.53568 11.4749 9.53036 11.4696L6.87872 8.81799C6.73806 8.67733 6.54728 8.59831 6.34836 8.59831C6.14943 8.59831 5.95865 8.67733 5.81799 8.81799C5.67733 8.95865 5.59831 9.14943 5.59831 9.34836C5.59831 9.44686 5.61771 9.54439 5.6554 9.63539C5.6931 9.72639 5.74834 9.80907 5.81799 9.87872L7.18931 11.25H2.25C2.05109 11.25 1.86032 11.329 1.71967 11.4697C1.57902 11.6103 1.5 11.8011 1.5 12C1.5 12.1989 1.57902 12.3897 1.71967 12.5303C1.86032 12.671 2.05109 12.75 2.25 12.75H7.18931L5.81799 14.1213C5.67733 14.2619 5.59831 14.4527 5.59831 14.6516C5.59831 14.8506 5.67733 15.0414 5.81799 15.182C5.95865 15.3227 6.14943 15.4017 6.34836 15.4017C6.54728 15.4017 6.73806 15.3227 6.87872 15.182L9.53036 12.5304C9.53568 12.5251 9.54016 12.5193 9.54524 12.5139V12.5139ZM21.75 11.25H16.8107L18.182 9.87872C18.3225 9.73803 18.4014 9.5473 18.4013 9.34847C18.4012 9.14964 18.3222 8.95898 18.1816 8.81838C18.041 8.67779 17.8504 8.59877 17.6515 8.5987C17.4527 8.59862 17.262 8.6775 17.1213 8.81799L14.4696 11.4696C14.4643 11.4749 14.4598 11.4807 14.4548 11.4861C14.443 11.4985 14.4312 11.511 14.4203 11.5242C14.4118 11.5346 14.4043 11.5455 14.3964 11.5562C14.3898 11.5652 14.3828 11.5738 14.3766 11.5831C14.3687 11.595 14.3617 11.6073 14.3545 11.6195C14.3493 11.6283 14.3437 11.637 14.3389 11.646C14.3324 11.6581 14.3268 11.6706 14.321 11.683C14.3164 11.6928 14.3115 11.7025 14.3073 11.7126C14.3024 11.7245 14.2983 11.7366 14.2941 11.7487C14.2901 11.7597 14.2859 11.7706 14.2825 11.782C14.2788 11.794 14.2761 11.8063 14.273 11.8185C14.2701 11.8301 14.2669 11.8414 14.2646 11.8532C14.2618 11.8674 14.26 11.8817 14.2581 11.896C14.2567 11.906 14.2548 11.9157 14.2538 11.9258C14.2489 11.9751 14.2489 12.0249 14.2538 12.0742C14.2548 12.0843 14.2567 12.094 14.2581 12.104C14.26 12.1183 14.2618 12.1326 14.2646 12.1468C14.2669 12.1586 14.2701 12.1699 14.273 12.1815C14.2761 12.1937 14.2788 12.206 14.2825 12.218C14.2859 12.2294 14.2901 12.2403 14.2941 12.2513C14.2983 12.2634 14.3024 12.2755 14.3073 12.2874C14.3115 12.2975 14.3164 12.3072 14.321 12.317C14.3268 12.3294 14.3324 12.3419 14.3389 12.354C14.3437 12.363 14.3493 12.3717 14.3545 12.3805C14.3617 12.3927 14.3687 12.405 14.3766 12.4169C14.3828 12.4261 14.3898 12.4348 14.3964 12.4438C14.4043 12.4545 14.4118 12.4654 14.4203 12.4758C14.4312 12.489 14.443 12.5015 14.4548 12.5139C14.4598 12.5193 14.4643 12.5251 14.4696 12.5304L17.1213 15.182C17.2621 15.322 17.4526 15.4004 17.6512 15.4001C17.8497 15.3999 18.0401 15.3209 18.1805 15.1805C18.3209 15.0401 18.3999 14.8497 18.4001 14.6512C18.4004 14.4526 18.322 14.2621 18.182 14.1213L16.8107 12.75H21.75C21.9489 12.75 22.1397 12.671 22.2803 12.5303C22.421 12.3897 22.5 12.1989 22.5 12C22.5 11.8011 22.421 11.6103 22.2803 11.4697C22.1397 11.329 21.9489 11.25 21.75 11.25Z" fill="#1D1F21" style="fill: var(--ui-icon-primary-color);"/>
</svg>
