<svg  viewBox="0 0 24 24" fill="none" xmlns="http://www.w3.org/2000/svg" id="__THIS_ID_NEEDS_FOR_UI_ICON_COMPONENT__">
<path d="M13.5 9.7493V5.99978C13.5 5.80086 13.579 5.6101 13.7197 5.46945C13.8603 5.32879 14.0511 5.24978 14.25 5.24978C14.4489 5.24978 14.6397 5.32879 14.7803 5.46945C14.921 5.6101 15 5.80086 15 5.99978V7.93909L18.9696 3.96945C19.1103 3.82879 19.301 3.74976 19.5 3.74976C19.6989 3.74975 19.8896 3.82876 20.0303 3.96941C20.171 4.11006 20.25 4.30082 20.25 4.49974C20.25 4.69866 20.171 4.88943 20.0304 5.03009L16.0607 8.99978H18C18.1989 8.99978 18.3897 9.07879 18.5303 9.21945C18.671 9.3601 18.75 9.55087 18.75 9.74978C18.75 9.94869 18.671 10.1395 18.5303 10.2801C18.3897 10.4208 18.1989 10.4998 18 10.4998H14.25C14.2253 10.4998 14.2006 10.4985 14.176 10.496C14.1649 10.4949 14.1542 10.4929 14.1432 10.4913C14.13 10.4894 14.1166 10.4879 14.1034 10.4852C14.0908 10.4827 14.0786 10.4793 14.0662 10.4762C14.0549 10.4733 14.0435 10.4708 14.0323 10.4674C14.0202 10.4638 14.0085 10.4592 13.9966 10.455C13.9854 10.4509 13.974 10.4472 13.963 10.4426C13.952 10.4381 13.9415 10.4327 13.9307 10.4277C13.9193 10.4223 13.9077 10.4172 13.8964 10.4111C13.8862 10.4057 13.8765 10.3994 13.8665 10.3935C13.8554 10.3869 13.8443 10.3806 13.8335 10.3734C13.8226 10.3661 13.8123 10.358 13.8018 10.3501C13.7927 10.3433 13.7834 10.337 13.7746 10.3297C13.7571 10.3154 13.7404 10.3002 13.7243 10.2843C13.7228 10.2828 13.7211 10.2816 13.7196 10.2801C13.7177 10.2782 13.7161 10.276 13.7142 10.2741C13.6989 10.2584 13.6841 10.2423 13.6701 10.2253C13.6624 10.2159 13.6556 10.206 13.6484 10.1963C13.641 10.1863 13.6333 10.1767 13.6264 10.1664C13.6189 10.1551 13.6123 10.1434 13.6054 10.1317C13.5998 10.1224 13.5939 10.1132 13.5887 10.1036C13.5824 10.0918 13.577 10.0796 13.5714 10.0676C13.5666 10.0574 13.5615 10.0475 13.5572 10.037C13.5524 10.0254 13.5485 10.0134 13.5442 10.0016C13.5402 9.99032 13.5359 9.97925 13.5324 9.96777C13.5288 9.95579 13.5261 9.94362 13.5231 9.93151C13.5202 9.91988 13.5169 9.90842 13.5145 9.89659C13.5118 9.88245 13.5101 9.86816 13.508 9.85389C13.5067 9.84391 13.5047 9.83412 13.5037 9.82402C13.5013 9.79918 13.5 9.77427 13.5 9.7493ZM10.4962 14.1755C10.4952 14.1654 10.4933 14.1556 10.4919 14.1457C10.4899 14.1314 10.4882 14.1171 10.4854 14.103C10.4831 14.0911 10.4798 14.0797 10.4769 14.068C10.4739 14.0559 10.4712 14.0438 10.4676 14.0318C10.4641 14.0203 10.4598 14.0092 10.4558 13.998C10.4515 13.9861 10.4476 13.9742 10.4428 13.9625C10.4385 13.9521 10.4333 13.9421 10.4286 13.932C10.4229 13.9199 10.4176 13.9078 10.4112 13.896C10.4061 13.8863 10.4002 13.8772 10.3946 13.8678C10.3877 13.8562 10.3811 13.8445 10.3736 13.8331C10.3666 13.8229 10.359 13.8132 10.3516 13.8033C10.3444 13.7936 10.3376 13.7837 10.3298 13.7742C10.3159 13.7573 10.3011 13.7411 10.2858 13.7254C10.2839 13.7235 10.2823 13.7214 10.2804 13.7195C10.2788 13.7179 10.2772 13.7167 10.2756 13.7152C10.2596 13.6994 10.2429 13.6842 10.2254 13.6698C10.2166 13.6626 10.2073 13.6563 10.1983 13.6495C10.1877 13.6416 10.1774 13.6334 10.1664 13.6261C10.1558 13.619 10.1448 13.6129 10.1339 13.6064C10.1238 13.6003 10.1139 13.5939 10.1034 13.5884C10.0925 13.5825 10.0812 13.5775 10.0701 13.5723C10.059 13.567 10.0482 13.5616 10.0368 13.5569C10.0262 13.5524 10.0153 13.5489 10.0045 13.545C9.99219 13.5406 9.98006 13.5359 9.96747 13.5321C9.9568 13.5288 9.94596 13.5265 9.9352 13.5238C9.92229 13.5205 9.90947 13.5169 9.89634 13.5143C9.88411 13.5119 9.87175 13.5105 9.85944 13.5087C9.84754 13.5069 9.83582 13.5047 9.82373 13.5035C9.80199 13.5014 9.78016 13.5004 9.75827 13.5002C9.75548 13.5002 9.75278 13.4998 9.74999 13.4998H5.99999C5.80108 13.4998 5.61031 13.5788 5.46966 13.7194C5.32901 13.8601 5.24999 14.0509 5.24999 14.2498C5.24999 14.4487 5.32901 14.6395 5.46966 14.7801C5.61031 14.9208 5.80108 14.9998 5.99999 14.9998H7.9393L3.96962 18.9694C3.89997 19.0391 3.84473 19.1217 3.80703 19.2127C3.76934 19.3037 3.74994 19.4013 3.74994 19.4998C3.74994 19.5983 3.76934 19.6958 3.80703 19.7868C3.84473 19.8778 3.89997 19.9605 3.96962 20.0301C4.11028 20.1708 4.30106 20.2498 4.49999 20.2498C4.59849 20.2498 4.69602 20.2304 4.78702 20.1927C4.87802 20.155 4.96071 20.0998 5.03035 20.0301L8.99999 16.0605V17.9998C8.99999 18.1987 9.07901 18.3895 9.21966 18.5301C9.36031 18.6708 9.55108 18.7498 9.74999 18.7498C9.9489 18.7498 10.1397 18.6708 10.2803 18.5301C10.421 18.3895 10.5 18.1987 10.5 17.9998V14.2503C10.5 14.2253 10.4987 14.2004 10.4962 14.1755ZM16.0607 14.9998H18C18.1989 14.9998 18.3897 14.9208 18.5303 14.7801C18.671 14.6395 18.75 14.4487 18.75 14.2498C18.75 14.0509 18.671 13.8601 18.5303 13.7194C18.3897 13.5788 18.1989 13.4998 18 13.4998H14.25C14.2472 13.4998 14.2445 13.5002 14.2417 13.5002C14.2198 13.5004 14.198 13.5014 14.1762 13.5035C14.1642 13.5047 14.1524 13.5069 14.1405 13.5087C14.1282 13.5105 14.1159 13.5119 14.1036 13.5143C14.0905 13.5169 14.0777 13.5205 14.0648 13.5238C14.054 13.5265 14.0432 13.5288 14.0325 13.5321C14.0199 13.5359 14.0078 13.5406 13.9955 13.545C13.9847 13.5489 13.9738 13.5524 13.9632 13.5569C13.9518 13.5615 13.941 13.567 13.9299 13.5723C13.9188 13.5775 13.9075 13.5825 13.8965 13.5883C13.8861 13.5939 13.8762 13.6003 13.8661 13.6064C13.8552 13.6129 13.8441 13.619 13.8336 13.6261C13.8226 13.6334 13.8123 13.6416 13.8017 13.6495C13.7926 13.6563 13.7833 13.6626 13.7746 13.6698C13.7571 13.6842 13.7404 13.6994 13.7243 13.7152C13.7228 13.7167 13.7211 13.7179 13.7196 13.7195C13.7177 13.7214 13.7161 13.7235 13.7142 13.7254C13.6989 13.7411 13.6841 13.7573 13.6701 13.7742C13.6624 13.7837 13.6556 13.7936 13.6484 13.8033C13.641 13.8132 13.6333 13.8229 13.6264 13.8331C13.6189 13.8445 13.6123 13.8562 13.6054 13.8678C13.5998 13.8772 13.5939 13.8863 13.5887 13.896C13.5824 13.9078 13.577 13.9199 13.5714 13.932C13.5666 13.9421 13.5615 13.9521 13.5572 13.9625C13.5524 13.9742 13.5485 13.9861 13.5442 13.998C13.5402 14.0092 13.5359 14.0203 13.5324 14.0318C13.5288 14.0438 13.5261 14.0559 13.5231 14.068C13.5202 14.0797 13.5169 14.0911 13.5145 14.103C13.5117 14.1171 13.5101 14.1314 13.508 14.1457C13.5067 14.1556 13.5047 14.1654 13.5037 14.1755C13.5013 14.2004 13.5 14.2253 13.5 14.2503V17.9998C13.5 18.1987 13.579 18.3895 13.7197 18.5301C13.8603 18.6708 14.0511 18.7498 14.25 18.7498C14.4489 18.7498 14.6397 18.6708 14.7803 18.5301C14.921 18.3895 15 18.1987 15 17.9998V16.0605L18.9696 20.0301C19.0393 20.0998 19.122 20.155 19.213 20.1927C19.304 20.2304 19.4015 20.2498 19.5 20.2498C19.5985 20.2498 19.696 20.2304 19.787 20.1927C19.878 20.155 19.9607 20.0998 20.0304 20.0301C20.1 19.9605 20.1553 19.8778 20.1929 19.7868C20.2306 19.6958 20.25 19.5983 20.25 19.4998C20.25 19.4013 20.2306 19.3037 20.1929 19.2127C20.1553 19.1217 20.1 19.0391 20.0304 18.9694L16.0607 14.9998ZM10.5 5.99978C10.5 5.80086 10.421 5.6101 10.2803 5.46945C10.1397 5.32879 9.9489 5.24978 9.74999 5.24978C9.55108 5.24978 9.36031 5.32879 9.21966 5.46945C9.07901 5.6101 8.99999 5.80086 8.99999 5.99978V7.93909L5.03035 3.96946C4.8897 3.8288 4.69894 3.74977 4.50002 3.74976C4.3011 3.74975 4.11033 3.82876 3.96967 3.96941C3.82901 4.11006 3.74998 4.30083 3.74997 4.49974C3.74996 4.69866 3.82897 4.88943 3.96962 5.0301L7.9393 8.99978H5.99999C5.80108 8.99978 5.61031 9.07879 5.46966 9.21945C5.32901 9.3601 5.24999 9.55087 5.24999 9.74978C5.24999 9.94869 5.32901 10.1395 5.46966 10.2801C5.61031 10.4208 5.80108 10.4998 5.99999 10.4998H9.74999C9.77471 10.4998 9.79943 10.4985 9.82401 10.496C9.83509 10.4949 9.8458 10.4929 9.85674 10.4913C9.87001 10.4894 9.88338 10.4879 9.89656 10.4852C9.90915 10.4827 9.92137 10.4793 9.93373 10.4762C9.94504 10.4733 9.95644 10.4708 9.9677 10.4674C9.97979 10.4638 9.9915 10.4592 10.0034 10.455C10.0146 10.4509 10.0259 10.4472 10.037 10.4426C10.048 10.4381 10.0585 10.4327 10.0692 10.4277C10.0807 10.4223 10.0923 10.4172 10.1036 10.4111C10.1138 10.4057 10.1235 10.3994 10.1335 10.3935C10.1445 10.3869 10.1557 10.3806 10.1665 10.3734C10.1774 10.3661 10.1877 10.358 10.1981 10.3501C10.2072 10.3433 10.2166 10.337 10.2254 10.3297C10.2429 10.3154 10.2596 10.3002 10.2756 10.2843C10.2771 10.2828 10.2788 10.2816 10.2804 10.2801C10.2823 10.2782 10.2839 10.276 10.2858 10.2741C10.3011 10.2584 10.3159 10.2423 10.3298 10.2253C10.3376 10.2159 10.3444 10.206 10.3516 10.1963C10.3589 10.1863 10.3666 10.1767 10.3736 10.1664C10.3811 10.1551 10.3877 10.1434 10.3946 10.1317C10.4002 10.1224 10.4061 10.1132 10.4112 10.1036C10.4176 10.0918 10.4229 10.0796 10.4286 10.0676C10.4333 10.0574 10.4385 10.0475 10.4428 10.037C10.4476 10.0254 10.4515 10.0134 10.4558 10.0016C10.4597 9.99032 10.4641 9.97925 10.4676 9.96777C10.4712 9.95579 10.4739 9.94362 10.4769 9.93151C10.4798 9.91988 10.4831 9.90842 10.4854 9.89659C10.4882 9.88245 10.4899 9.86816 10.4919 9.85389C10.4933 9.84391 10.4952 9.83412 10.4962 9.82402C10.4987 9.79917 10.5 9.77427 10.5 9.74929L10.5 5.99978Z" fill="#1D1F21" style="fill: var(--ui-icon-primary-color);"/>
</svg>
