<svg  viewBox="0 0 24 24" fill="none" xmlns="http://www.w3.org/2000/svg" id="__THIS_ID_NEEDS_FOR_UI_ICON_COMPONENT__">
<path d="M4.5 21H19.5C19.8977 20.9995 20.279 20.8414 20.5602 20.5602C20.8414 20.279 20.9995 19.8977 21 19.5V4.5C20.9995 4.10231 20.8414 3.72105 20.5602 3.43984C20.279 3.15864 19.8977 3.00045 19.5 3H4.5C4.10231 3.00045 3.72105 3.15864 3.43984 3.43984C3.15864 3.72105 3.00045 4.10231 3 4.5V19.5C3.00045 19.8977 3.15864 20.279 3.43984 20.5602C3.72105 20.8414 4.10231 20.9995 4.5 21ZM8.84468 8.84464C8.98534 8.704 9.1761 8.625 9.375 8.625C9.5739 8.625 9.76466 8.704 9.90532 8.84464L13.875 12.8143V10.125C13.875 9.92609 13.954 9.73532 14.0947 9.59467C14.2353 9.45402 14.4261 9.375 14.625 9.375C14.8239 9.375 15.0147 9.45402 15.1553 9.59467C15.296 9.73532 15.375 9.92609 15.375 10.125V14.6248C15.375 14.6496 15.3737 14.6744 15.3713 14.6991C15.3702 14.7098 15.3682 14.7201 15.3667 14.7307C15.3648 14.7443 15.3631 14.7581 15.3604 14.7717C15.358 14.7839 15.3546 14.7959 15.3516 14.808C15.3487 14.8196 15.3461 14.8313 15.3426 14.8428C15.339 14.8548 15.3345 14.8662 15.3303 14.878C15.3262 14.8894 15.3225 14.9009 15.3178 14.9121C15.3133 14.9229 15.308 14.9334 15.303 14.944C15.2976 14.9556 15.2924 14.9672 15.2863 14.9786C15.2809 14.9887 15.2748 14.9983 15.2689 15.0081C15.2622 15.0193 15.2559 15.0306 15.2486 15.0415C15.2415 15.0521 15.2335 15.0622 15.2259 15.0724C15.2189 15.0818 15.2124 15.0914 15.2049 15.1005C15.1906 15.1179 15.1755 15.1345 15.1597 15.1505C15.1582 15.1521 15.1569 15.1538 15.1553 15.1554C15.1535 15.1572 15.1515 15.1587 15.1497 15.1605C15.1339 15.176 15.1175 15.1909 15.1004 15.2049C15.0916 15.2122 15.0823 15.2185 15.0732 15.2253C15.0627 15.2332 15.0524 15.2413 15.0414 15.2487C15.0309 15.2557 15.02 15.2618 15.0091 15.2683C14.9989 15.2744 14.9889 15.2808 14.9784 15.2865C14.9676 15.2922 14.9565 15.2971 14.9455 15.3023C14.9343 15.3076 14.9233 15.3132 14.9117 15.318C14.9014 15.3223 14.8907 15.3257 14.8802 15.3295C14.8676 15.3341 14.8552 15.3388 14.8423 15.3428C14.8322 15.3458 14.8218 15.348 14.8116 15.3507C14.7981 15.3541 14.7848 15.3578 14.7711 15.3605C14.7598 15.3628 14.7484 15.364 14.737 15.3658C14.7241 15.3677 14.7115 15.37 14.6985 15.3713C14.6796 15.3731 14.6606 15.3737 14.6416 15.3742C14.636 15.3743 14.6306 15.375 14.625 15.375H10.125C9.92609 15.375 9.73532 15.296 9.59467 15.1553C9.45402 15.0147 9.375 14.8239 9.375 14.625C9.375 14.4261 9.45402 14.2353 9.59467 14.0947C9.73532 13.954 9.92609 13.875 10.125 13.875H12.8143L8.84468 9.90536C8.77503 9.83572 8.71978 9.75303 8.68208 9.66203C8.64439 9.57103 8.62499 9.4735 8.62499 9.375C8.62499 9.2765 8.64439 9.17897 8.68208 9.08797C8.71978 8.99697 8.77503 8.91428 8.84468 8.84464Z" fill="#1D1F21" style="fill: var(--ui-icon-primary-color);"/>
</svg>
