<svg  viewBox="0 0 24 24" fill="none" xmlns="http://www.w3.org/2000/svg" id="__THIS_ID_NEEDS_FOR_UI_ICON_COMPONENT__">
<path d="M18.364 18.364C16.6748 20.0493 14.3861 20.9958 12 20.9958C9.61389 20.9958 7.32519 20.0493 5.636 18.364C5.49534 18.2233 5.41632 18.0326 5.41632 17.8336C5.41632 17.6347 5.49534 17.4439 5.636 17.3033C5.77666 17.1626 5.96744 17.0836 6.16637 17.0836C6.36529 17.0836 6.55607 17.1626 6.69673 17.3033C7.74562 18.3522 9.082 19.0665 10.5369 19.3559C11.9917 19.6452 13.4997 19.4967 14.8701 18.9291C16.2406 18.3614 17.4119 17.4001 18.236 16.1667C19.0601 14.9334 19.5 13.4833 19.5 12C19.5 10.5166 19.0601 9.06657 18.236 7.8332C17.4119 6.59984 16.2406 5.63854 14.8701 5.07088C13.4997 4.50323 11.9917 4.3547 10.5369 4.64409C9.082 4.93347 7.74562 5.64778 6.69673 6.69666L4.79505 8.59835H7.48436C7.68327 8.59835 7.87404 8.67737 8.01469 8.81802C8.15534 8.95867 8.23436 9.14944 8.23436 9.34835C8.23436 9.54726 8.15534 9.73803 8.01469 9.87868C7.87404 10.0193 7.68327 10.0984 7.48436 10.0984H2.98436C2.98157 10.0984 2.97886 10.098 2.97607 10.0979C2.95421 10.0977 2.93236 10.0968 2.91061 10.0946C2.89853 10.0934 2.88681 10.0912 2.87491 10.0895C2.86259 10.0877 2.85023 10.0863 2.83801 10.0838C2.82485 10.0812 2.81208 10.0777 2.79917 10.0744C2.78839 10.0716 2.77754 10.0693 2.76687 10.0661C2.75429 10.0623 2.74215 10.0576 2.72986 10.0531C2.71906 10.0492 2.70819 10.0457 2.69752 10.0413C2.68619 10.0366 2.67532 10.0311 2.66429 10.0258C2.65312 10.0206 2.64186 10.0156 2.63091 10.0098C2.62047 10.0042 2.61054 9.99782 2.6004 9.99176C2.58953 9.98526 2.57852 9.97912 2.56792 9.97202C2.55694 9.96468 2.54661 9.9565 2.53606 9.94861C2.52702 9.94183 2.51773 9.93554 2.50892 9.9283C2.49145 9.91397 2.47477 9.89874 2.45868 9.88292C2.45717 9.88142 2.4555 9.88018 2.45399 9.87867C2.45207 9.87675 2.45047 9.87462 2.44859 9.87268C2.43325 9.85701 2.41842 9.84086 2.40448 9.8239C2.39672 9.81447 2.38997 9.80454 2.38274 9.79483C2.37537 9.78492 2.3677 9.77527 2.36081 9.76499C2.35324 9.75367 2.34665 9.74194 2.33973 9.73031C2.33417 9.72094 2.32827 9.71179 2.32309 9.70215C2.31678 9.69035 2.3114 9.67822 2.30577 9.66615C2.30101 9.65599 2.2959 9.64603 2.29158 9.63562C2.28675 9.62394 2.28283 9.61201 2.2786 9.60014C2.27459 9.5889 2.27024 9.57783 2.26677 9.56634C2.26315 9.55437 2.26047 9.5422 2.25745 9.53008C2.25457 9.51846 2.25129 9.507 2.24894 9.49517C2.24612 9.48102 2.2444 9.46673 2.24241 9.45247C2.24104 9.44249 2.23909 9.43269 2.23811 9.42259C2.23561 9.39776 2.23436 9.37282 2.23436 9.34787V4.84835C2.23436 4.64944 2.31338 4.45867 2.45403 4.31802C2.59468 4.17737 2.78545 4.09835 2.98436 4.09835C3.18327 4.09835 3.37404 4.17737 3.51469 4.31802C3.65534 4.45867 3.73436 4.64944 3.73436 4.84835V7.53766L5.636 5.63603C7.32397 3.94885 9.61296 3.00119 11.9996 3.00146C14.3862 3.00174 16.6749 3.94994 18.3625 5.63751C20.0501 7.32508 20.9983 9.61385 20.9986 12.0004C20.9989 14.387 20.0512 16.676 18.364 18.364Z" fill="#1D1F21" style="fill: var(--ui-icon-primary-color);"/>
</svg>
