<svg  viewBox="0 0 24 24" fill="none" xmlns="http://www.w3.org/2000/svg" id="__THIS_ID_NEEDS_FOR_UI_ICON_COMPONENT__">
<path d="M12 2.25C10.0716 2.25 8.18653 2.82183 6.58315 3.89317C4.97977 4.96451 3.73009 6.48726 2.99213 8.26884C2.25418 10.0504 2.0611 12.0108 2.4373 13.9021C2.81351 15.7934 3.74211 17.5307 5.10567 18.8943C6.46923 20.2579 8.20651 21.1865 10.0978 21.5627C11.9891 21.9389 13.9495 21.7458 15.7311 21.0078C17.5127 20.2699 19.0354 19.0202 20.1068 17.4168C21.1781 15.8134 21.75 13.9284 21.75 12C21.747 9.41506 20.7188 6.93684 18.8909 5.10901C17.0631 3.28118 14.5849 2.25299 12 2.25ZM15.1552 9.90527L11.1855 13.875H13.875C14.0739 13.875 14.2646 13.954 14.4053 14.0947C14.5459 14.2353 14.625 14.4261 14.625 14.625C14.625 14.8239 14.5459 15.0147 14.4053 15.1553C14.2646 15.296 14.0739 15.375 13.875 15.375H9.37496C9.17626 15.3743 8.98588 15.2951 8.84538 15.1546C8.70487 15.0141 8.62564 14.8237 8.62496 14.625V10.125C8.62496 9.92609 8.70398 9.73532 8.84463 9.59467C8.98528 9.45402 9.17605 9.375 9.37496 9.375C9.57387 9.375 9.76464 9.45402 9.90529 9.59467C10.0459 9.73532 10.125 9.92609 10.125 10.125V12.8145L14.0947 8.84473C14.2354 8.70434 14.426 8.62554 14.6248 8.62564C14.8235 8.62575 15.0141 8.70475 15.1547 8.84529C15.2952 8.98583 15.3742 9.17641 15.3743 9.37516C15.3744 9.57392 15.2956 9.76458 15.1552 9.90527Z" fill="#1D1F21" style="fill: var(--ui-icon-primary-color);"/>
</svg>
