<svg  viewBox="0 0 24 24" fill="none" xmlns="http://www.w3.org/2000/svg" id="__THIS_ID_NEEDS_FOR_UI_ICON_COMPONENT__">
<path d="M11.0303 17.4696C11.1709 17.6103 11.2499 17.8011 11.2499 18C11.2499 18.1989 11.1709 18.3897 11.0303 18.5304L8.03028 21.5304C8.02671 21.5339 8.02282 21.5369 8.0192 21.5403C8.00505 21.5539 7.99073 21.5674 7.97553 21.5798C7.96587 21.5877 7.95575 21.5947 7.94577 21.6021C7.93612 21.6092 7.92664 21.6168 7.91662 21.6235C7.90526 21.6311 7.8935 21.6377 7.88183 21.6446C7.87244 21.6502 7.86333 21.6561 7.85368 21.6613C7.84205 21.6675 7.8301 21.6728 7.8182 21.6784C7.80785 21.6832 7.79769 21.6884 7.78707 21.6928C7.77567 21.6975 7.764 21.7013 7.75237 21.7055C7.74088 21.7096 7.72953 21.714 7.71781 21.7176C7.70623 21.7211 7.69447 21.7237 7.68275 21.7266C7.67071 21.7296 7.65881 21.733 7.64654 21.7354C7.63322 21.7381 7.61976 21.7397 7.60635 21.7416C7.5955 21.7431 7.58488 21.7452 7.57394 21.7462C7.54936 21.7487 7.52464 21.75 7.49992 21.75C7.4752 21.75 7.45048 21.7487 7.4259 21.7462C7.41496 21.7452 7.40434 21.7431 7.39349 21.7416C7.38008 21.7397 7.36662 21.7381 7.3533 21.7354C7.34103 21.733 7.32913 21.7296 7.31709 21.7266C7.30537 21.7237 7.29361 21.7211 7.28203 21.7176C7.27031 21.714 7.25896 21.7096 7.24747 21.7055C7.23584 21.7013 7.22416 21.6975 7.21277 21.6928C7.20215 21.6884 7.19198 21.6832 7.18164 21.6784C7.16974 21.6728 7.15779 21.6675 7.14616 21.6613C7.13651 21.6561 7.1274 21.6502 7.11801 21.6446C7.10634 21.6377 7.09457 21.6311 7.08322 21.6235C7.0732 21.6168 7.06372 21.6092 7.05407 21.6021C7.04409 21.5947 7.03397 21.5877 7.02431 21.5798C7.00911 21.5674 6.99479 21.5539 6.98064 21.5403C6.97702 21.5369 6.97313 21.5339 6.96956 21.5304L3.96956 18.5304C3.8289 18.3897 3.74988 18.1989 3.74988 18C3.74988 17.8011 3.8289 17.6103 3.96956 17.4696C4.11022 17.329 4.301 17.25 4.49993 17.25C4.69885 17.25 4.88963 17.329 5.03029 17.4696L6.74991 19.1893V3C6.74991 2.80109 6.82893 2.61032 6.96958 2.46967C7.11023 2.32902 7.301 2.25 7.49991 2.25C7.69882 2.25 7.88959 2.32902 8.03024 2.46967C8.17089 2.61032 8.24991 2.80109 8.24991 3V19.1893L9.96955 17.4696C10.1102 17.329 10.301 17.25 10.4999 17.25C10.6988 17.25 10.8896 17.329 11.0303 17.4696ZM20.0303 5.46963L17.0303 2.46963C17.027 2.46639 17.0234 2.46363 17.0201 2.46043C17.0056 2.44656 16.991 2.43292 16.9755 2.4202C16.9659 2.41232 16.9558 2.40541 16.946 2.39809C16.9362 2.39081 16.9267 2.38326 16.9166 2.37648C16.9053 2.36893 16.8937 2.36243 16.8821 2.35556C16.8726 2.34993 16.8634 2.34394 16.8536 2.33871C16.8421 2.33253 16.8303 2.32732 16.8186 2.32182C16.8081 2.31688 16.7977 2.31162 16.787 2.30717C16.7757 2.30251 16.7642 2.29875 16.7528 2.29468C16.7412 2.29047 16.7296 2.28598 16.7177 2.28236C16.7063 2.27893 16.6947 2.27636 16.6831 2.27348C16.6709 2.27042 16.6589 2.26698 16.6465 2.26456C16.6333 2.2619 16.6199 2.26035 16.6066 2.25847C16.5957 2.25691 16.585 2.25481 16.5739 2.25375C16.5247 2.2489 16.4751 2.2489 16.4259 2.25375C16.4149 2.25481 16.4041 2.25691 16.3932 2.25847C16.3799 2.26034 16.3665 2.2619 16.3533 2.26456C16.3409 2.26698 16.3289 2.27042 16.3167 2.27348C16.3051 2.27637 16.2936 2.27893 16.2821 2.28236C16.2702 2.28598 16.2587 2.29047 16.2471 2.29468C16.2356 2.29875 16.2241 2.30251 16.2129 2.30717C16.2021 2.31162 16.1918 2.31688 16.1813 2.32182C16.1695 2.32732 16.1577 2.33253 16.1462 2.33871C16.1365 2.34393 16.1272 2.34993 16.1177 2.35556C16.1062 2.36243 16.0945 2.36893 16.0833 2.37648C16.0731 2.38326 16.0637 2.39081 16.0539 2.39809C16.044 2.40541 16.0339 2.41232 16.0243 2.4202C16.0088 2.43292 15.9942 2.44656 15.9798 2.46043C15.9764 2.46364 15.9729 2.46639 15.9696 2.46963L12.9696 5.46963C12.8999 5.53928 12.8447 5.62197 12.807 5.71297C12.7693 5.80397 12.7499 5.9015 12.7499 6C12.7499 6.0985 12.7693 6.19603 12.807 6.28703C12.8447 6.37803 12.8999 6.46072 12.9696 6.53036C13.1102 6.67103 13.301 6.75005 13.4999 6.75005C13.5984 6.75005 13.696 6.73065 13.787 6.69296C13.878 6.65526 13.9606 6.60001 14.0303 6.53036L15.7499 4.81069V21C15.7499 21.1989 15.8289 21.3897 15.9696 21.5303C16.1102 21.671 16.301 21.75 16.4999 21.75C16.6988 21.75 16.8896 21.671 17.0302 21.5303C17.1709 21.3897 17.2499 21.1989 17.2499 21V4.81069L18.9695 6.53037C19.0392 6.60002 19.1219 6.65527 19.2129 6.69296C19.3039 6.73065 19.4014 6.75005 19.4999 6.75005C19.5984 6.75005 19.6959 6.73065 19.7869 6.69296C19.8779 6.65527 19.9606 6.60002 20.0303 6.53037C20.0999 6.46072 20.1552 6.37804 20.1929 6.28704C20.2306 6.19604 20.25 6.0985 20.25 6C20.25 5.90151 20.2306 5.80397 20.1929 5.71297C20.1552 5.62197 20.0999 5.53929 20.0303 5.46964V5.46963Z" fill="#1D1F21" style="fill: var(--ui-icon-primary-color);"/>
</svg>
