<svg  viewBox="0 0 24 24" fill="none" xmlns="http://www.w3.org/2000/svg" id="__THIS_ID_NEEDS_FOR_UI_ICON_COMPONENT__">
<path d="M21.75 13.5002C21.7482 15.0909 21.1155 16.616 19.9906 17.7408C18.8658 18.8657 17.3407 19.4984 15.75 19.5002H7.49999C7.30108 19.5002 7.11031 19.4212 6.96966 19.2805C6.82901 19.1399 6.74999 18.9491 6.74999 18.7502C6.74999 18.5513 6.82901 18.3605 6.96966 18.2199C7.11031 18.0792 7.30108 18.0002 7.49999 18.0002H15.75C16.9435 18.0002 18.0881 17.5261 18.932 16.6822C19.7759 15.8383 20.25 14.6937 20.25 13.5002C20.25 12.3067 19.7759 11.1621 18.932 10.3182C18.0881 9.47429 16.9435 9.00019 15.75 9.00019H4.81063L8.03035 12.2199C8.1 12.2895 8.15524 12.3722 8.19293 12.4632C8.23062 12.5542 8.25001 12.6517 8.25001 12.7502C8.25 12.8487 8.2306 12.9462 8.1929 13.0372C8.15521 13.1282 8.09996 13.2109 8.03031 13.2806C7.96066 13.3502 7.87798 13.4054 7.78698 13.4431C7.69598 13.4808 7.59845 13.5002 7.49996 13.5002C7.40146 13.5002 7.30394 13.4808 7.21294 13.4431C7.12195 13.4054 7.03927 13.3502 6.96962 13.2805L2.46962 8.78051C2.46649 8.77739 2.46388 8.77396 2.46081 8.77076C2.44678 8.75624 2.433 8.74141 2.42016 8.7258C2.41213 8.71601 2.4051 8.70575 2.39764 8.69568C2.39057 8.68612 2.38315 8.67682 2.37651 8.66693C2.36876 8.65535 2.36198 8.64331 2.35493 8.63141C2.34953 8.6223 2.34378 8.61342 2.33877 8.60408C2.33239 8.59214 2.32692 8.57982 2.32122 8.5676C2.31653 8.55762 2.31151 8.54778 2.30726 8.53752C2.30236 8.52571 2.2984 8.51368 2.29414 8.50168C2.29016 8.49056 2.28588 8.47957 2.28242 8.46822C2.27878 8.45618 2.27608 8.44396 2.27306 8.43174C2.27018 8.4202 2.2669 8.40876 2.26457 8.39699C2.26176 8.3828 2.26001 8.36847 2.25802 8.35415C2.25665 8.34421 2.25473 8.33451 2.25374 8.32444C2.24884 8.27506 2.24884 8.22532 2.25374 8.17594C2.25473 8.16587 2.25665 8.15616 2.25802 8.14623C2.26001 8.1319 2.26175 8.11757 2.26457 8.10339C2.2669 8.09162 2.27018 8.08018 2.27306 8.06864C2.27608 8.05642 2.27878 8.0442 2.28242 8.03216C2.28588 8.0208 2.29016 8.00982 2.29414 7.99869C2.2984 7.9867 2.30236 7.97466 2.30726 7.96285C2.31151 7.9526 2.31653 7.94276 2.32122 7.93278C2.32692 7.92056 2.33239 7.90824 2.33877 7.89629C2.34378 7.88696 2.34953 7.87807 2.35493 7.86896C2.36198 7.85706 2.36876 7.84502 2.37651 7.83344C2.38315 7.82355 2.39057 7.81426 2.39764 7.8047C2.4051 7.79462 2.41213 7.78437 2.42016 7.77457C2.43323 7.75864 2.44724 7.74358 2.46157 7.7288C2.46436 7.72587 2.46676 7.72271 2.46962 7.71987L6.96962 3.21987C7.11035 3.07956 7.301 3.00084 7.49972 3.00098C7.69844 3.00112 7.88898 3.08012 8.0295 3.22063C8.17002 3.36114 8.24904 3.55167 8.2492 3.75039C8.24936 3.94911 8.17065 4.13977 8.03035 4.2805L4.81063 7.50019H15.75C17.3407 7.50197 18.8658 8.13469 19.9907 9.25952C21.1155 10.3844 21.7482 11.9094 21.75 13.5002Z" fill="#1D1F21" style="fill: var(--ui-icon-primary-color);"/>
</svg>
