<svg  viewBox="0 0 24 24" fill="none" xmlns="http://www.w3.org/2000/svg" id="__THIS_ID_NEEDS_FOR_UI_ICON_COMPONENT__">
<path d="M9.96964 19.2801L3.21963 12.5301C3.21746 12.5279 3.21568 12.5255 3.21355 12.5234C3.19844 12.5079 3.18381 12.492 3.1701 12.4753C3.16257 12.4661 3.15601 12.4564 3.14898 12.447C3.14139 12.4368 3.13348 12.4269 3.12639 12.4163C3.11908 12.4054 3.11274 12.394 3.10606 12.3828C3.10022 12.373 3.09407 12.3635 3.08864 12.3533C3.08262 12.3421 3.0775 12.3305 3.07207 12.319C3.06701 12.3083 3.06168 12.2977 3.05713 12.2868C3.05255 12.2757 3.04884 12.2644 3.04481 12.2531C3.04056 12.2413 3.03602 12.2296 3.03236 12.2175C3.02897 12.2063 3.02648 12.1949 3.02362 12.1835C3.0205 12.1712 3.01703 12.1589 3.01453 12.1463C3.01194 12.1332 3.01039 12.12 3.00851 12.1069C3.00693 12.0958 3.00483 12.085 3.00373 12.0738C3.00131 12.0492 3 12.0245 3 11.9998C3 11.9751 3.00131 11.9504 3.00373 11.9258C3.00483 11.9146 3.00693 11.9037 3.00851 11.8927C3.01039 11.8795 3.01194 11.8663 3.01453 11.8532C3.01703 11.8407 3.0205 11.8284 3.02362 11.816C3.02648 11.8047 3.02897 11.7933 3.03236 11.7821C3.03602 11.77 3.04056 11.7583 3.04481 11.7464C3.04884 11.7352 3.05255 11.7238 3.05713 11.7128C3.06168 11.7018 3.06701 11.6913 3.07207 11.6806C3.0775 11.6691 3.08262 11.6575 3.08864 11.6462C3.09407 11.6361 3.10022 11.6265 3.10606 11.6167C3.11274 11.6055 3.11908 11.5941 3.12639 11.5833C3.13348 11.5727 3.14138 11.5627 3.14898 11.5525C3.15601 11.5431 3.16257 11.5334 3.1701 11.5242C3.18359 11.5079 3.19796 11.4923 3.21277 11.4771C3.21517 11.4746 3.21719 11.4719 3.21963 11.4695L9.96964 4.71945C10.1103 4.57879 10.3011 4.49976 10.5 4.49976C10.6989 4.49975 10.8897 4.57876 11.0303 4.71941C11.171 4.86006 11.25 5.05082 11.25 5.24974C11.25 5.44866 11.171 5.63943 11.0304 5.78009L5.56064 11.2498H20.25C20.4489 11.2498 20.6397 11.3288 20.7803 11.4694C20.921 11.6101 21 11.8009 21 11.9998C21 12.1987 20.921 12.3895 20.7803 12.5301C20.6397 12.6708 20.4489 12.7498 20.25 12.7498H5.56064L11.0304 18.2195C11.171 18.3601 11.25 18.5509 11.25 18.7498C11.25 18.9487 11.171 19.1395 11.0303 19.2801C10.8897 19.4208 10.6989 19.4998 10.5 19.4998C10.3011 19.4998 10.1103 19.4208 9.96964 19.2801Z" fill="#1D1F21" style="fill: var(--ui-icon-primary-color);"/>
</svg>
