<svg  viewBox="0 0 24 24" fill="none" xmlns="http://www.w3.org/2000/svg" id="__THIS_ID_NEEDS_FOR_UI_ICON_COMPONENT__">
<path d="M21.75 18.7501C21.75 18.949 21.671 19.1397 21.5303 19.2804C21.3897 19.421 21.1989 19.5001 21 19.5001C20.8011 19.5001 20.6103 19.421 20.4697 19.2804C20.329 19.1397 20.25 18.949 20.25 18.7501C20.2475 16.5628 19.3775 14.4658 17.8309 12.9192C16.2843 11.3725 14.1873 10.5025 12 10.5001H4.81066L8.03036 13.7197C8.10001 13.7893 8.15526 13.872 8.19296 13.963C8.23065 14.054 8.25005 14.1516 8.25005 14.2501C8.25005 14.3486 8.23065 14.4461 8.19296 14.5371C8.15526 14.6281 8.10001 14.7108 8.03036 14.7804C7.96072 14.8501 7.87803 14.9053 7.78703 14.943C7.69603 14.9807 7.5985 15.0001 7.5 15.0001C7.4015 15.0001 7.30397 14.9807 7.21297 14.943C7.12197 14.9053 7.03928 14.8501 6.96964 14.7804L2.46963 10.2804C2.46435 10.2751 2.45986 10.2694 2.45476 10.264C2.44302 10.2515 2.4312 10.2391 2.42033 10.2259C2.4118 10.2155 2.40429 10.2046 2.39639 10.1938C2.38978 10.1849 2.38282 10.1762 2.37662 10.1669C2.36865 10.1551 2.36172 10.1428 2.35451 10.1305C2.34929 10.1217 2.3437 10.1131 2.33883 10.104C2.33235 10.0919 2.32681 10.0795 2.32104 10.0671C2.31642 10.0572 2.31148 10.0475 2.30726 10.0374C2.30236 10.0256 2.29836 10.0134 2.29408 10.0014C2.29014 9.99031 2.28586 9.97939 2.28243 9.96808C2.27877 9.956 2.27607 9.94373 2.27302 9.93151C2.27016 9.91997 2.26691 9.90862 2.26458 9.89688C2.26176 9.88269 2.26002 9.86834 2.25803 9.85403C2.25666 9.8441 2.25473 9.83435 2.25375 9.8243C2.24885 9.77492 2.24885 9.72518 2.25375 9.6758C2.25473 9.66575 2.25666 9.656 2.25803 9.64607C2.26002 9.63176 2.26176 9.61741 2.26458 9.60323C2.26691 9.59148 2.27016 9.58013 2.27302 9.5686C2.27607 9.55637 2.27877 9.5441 2.28243 9.53202C2.28586 9.52071 2.29014 9.5098 2.29408 9.49872C2.29836 9.48666 2.30236 9.47455 2.30726 9.46269C2.31147 9.45257 2.31642 9.44289 2.32104 9.43301C2.32681 9.42065 2.33235 9.4082 2.33883 9.39609C2.3437 9.387 2.34929 9.37839 2.35451 9.36956C2.36172 9.35733 2.36865 9.34502 2.37662 9.33316C2.38282 9.32389 2.38978 9.31524 2.39639 9.30627C2.40429 9.29554 2.4118 9.28464 2.42033 9.27425C2.43121 9.26102 2.44302 9.24859 2.45476 9.23614C2.45986 9.23074 2.46435 9.22497 2.46963 9.21968L6.96964 4.71968C7.1103 4.57902 7.30108 4.5 7.5 4.5C7.69893 4.5 7.88971 4.57902 8.03037 4.71969C8.17103 4.86035 8.25005 5.05113 8.25005 5.25005C8.25005 5.44898 8.17103 5.63976 8.03036 5.78042L4.81066 9.00005H12C14.585 9.00298 17.0632 10.0311 18.8911 11.859C20.7189 13.6868 21.7471 16.1651 21.75 18.7501Z" fill="#1D1F21" style="fill: var(--ui-icon-primary-color);"/>
</svg>
