<svg  viewBox="0 0 24 24" fill="none" xmlns="http://www.w3.org/2000/svg" id="__THIS_ID_NEEDS_FOR_UI_ICON_COMPONENT__">
<path d="M21.75 10.5C21.7482 12.0908 21.1155 13.6158 19.9907 14.7407C18.8658 15.8655 17.3407 16.4982 15.75 16.5H4.81064L8.03036 19.7197C8.17101 19.8603 8.25002 20.0511 8.25001 20.25C8.25001 20.4489 8.17098 20.6397 8.03032 20.7804C7.88965 20.921 7.69888 21 7.49996 21C7.30105 21 7.11028 20.921 6.96963 20.7803L2.46963 16.2803C2.46709 16.2778 2.46498 16.275 2.46249 16.2724C2.44782 16.2573 2.43351 16.2419 2.42015 16.2256C2.41225 16.216 2.40536 16.2058 2.39801 16.196C2.39078 16.1862 2.38325 16.1768 2.3765 16.1667C2.36881 16.1552 2.36213 16.1433 2.35514 16.1315C2.34965 16.1223 2.34386 16.1133 2.33878 16.1039C2.33239 16.092 2.32699 16.0797 2.32129 16.0676C2.31658 16.0575 2.31152 16.0476 2.30724 16.0373C2.30237 16.0255 2.29843 16.0135 2.29417 16.0016C2.29019 15.9904 2.28588 15.9794 2.28243 15.968C2.27879 15.956 2.27609 15.9437 2.27307 15.9316C2.27018 15.92 2.26691 15.9086 2.26458 15.8968C2.26176 15.8827 2.26002 15.8683 2.25805 15.854C2.25666 15.8441 2.25473 15.8343 2.25375 15.8243C2.24885 15.7749 2.24885 15.7251 2.25375 15.6758C2.25473 15.6657 2.25666 15.6559 2.25805 15.646C2.26002 15.6317 2.26176 15.6173 2.26458 15.6032C2.26691 15.5914 2.27018 15.58 2.27307 15.5685C2.27609 15.5563 2.27879 15.544 2.28243 15.532C2.28588 15.5206 2.29019 15.5096 2.29417 15.4984C2.29843 15.4865 2.30236 15.4745 2.30724 15.4627C2.31152 15.4524 2.31658 15.4425 2.32129 15.4324C2.32699 15.4203 2.33239 15.4081 2.33878 15.3961C2.34386 15.3867 2.34965 15.3777 2.35514 15.3685C2.36213 15.3567 2.36881 15.3448 2.3765 15.3333C2.38325 15.3232 2.39078 15.3138 2.39801 15.304C2.40536 15.2942 2.41225 15.284 2.42015 15.2744C2.43377 15.2578 2.44832 15.2421 2.46329 15.2267C2.46551 15.2244 2.46739 15.2219 2.46963 15.2197L6.96963 10.7197C7.11028 10.579 7.30105 10.5 7.49996 10.5C7.59846 10.5 7.69599 10.5194 7.78699 10.5571C7.87798 10.5948 7.96067 10.65 8.03032 10.7196C8.09996 10.7893 8.15521 10.872 8.19291 10.963C8.23061 11.0539 8.25001 11.1515 8.25001 11.25C8.25002 11.3485 8.23062 11.446 8.19293 11.537C8.15525 11.628 8.1 11.7107 8.03036 11.7803L4.81064 15H15.75C16.9435 15 18.0881 14.5259 18.932 13.682C19.7759 12.8381 20.25 11.6935 20.25 10.5C20.25 9.30653 19.7759 8.16193 18.932 7.31802C18.0881 6.47411 16.9435 6 15.75 6H7.5C7.30108 6 7.11032 5.92098 6.96967 5.78033C6.82901 5.63968 6.75 5.44891 6.75 5.25C6.75 5.05109 6.82901 4.86032 6.96967 4.71967C7.11032 4.57902 7.30108 4.5 7.5 4.5H15.75C17.3407 4.50179 18.8658 5.1345 19.9907 6.25933C21.1155 7.38417 21.7482 8.90925 21.75 10.5Z" fill="#1D1F21" style="fill: var(--ui-icon-primary-color);"/>
</svg>
