<svg  viewBox="0 0 24 24" fill="none" xmlns="http://www.w3.org/2000/svg" id="__THIS_ID_NEEDS_FOR_UI_ICON_COMPONENT__">
<path d="M5.39909 18.4471C5.39145 18.4369 5.38353 18.4269 5.37639 18.4163C5.36911 18.4054 5.36275 18.394 5.35611 18.3829C5.35025 18.373 5.34407 18.3635 5.33867 18.3533C5.33263 18.3421 5.32755 18.3306 5.32215 18.3191C5.31707 18.3083 5.31171 18.2978 5.30713 18.2867C5.30256 18.2758 5.29889 18.2645 5.29491 18.2534C5.29061 18.2414 5.28608 18.2297 5.28237 18.2174C5.27898 18.2063 5.27651 18.195 5.27367 18.1837C5.27051 18.1712 5.26703 18.159 5.26456 18.1463C5.26195 18.1333 5.26044 18.1203 5.25856 18.1072C5.25696 18.096 5.25485 18.085 5.25375 18.0737C5.25137 18.0498 5.25015 18.0258 5.25009 18.0018L5.25 17.9998V8.24977C5.25 8.05086 5.32902 7.8601 5.46967 7.71944C5.61032 7.57879 5.80109 7.49977 6 7.49977C6.19891 7.49977 6.38968 7.57879 6.53033 7.71944C6.67098 7.8601 6.75 8.05086 6.75 8.24977V16.1891L17.4697 5.46941C17.6103 5.32876 17.8011 5.24975 18 5.24976C18.1989 5.24976 18.3897 5.32879 18.5304 5.46945C18.671 5.61012 18.75 5.80089 18.75 5.99981C18.75 6.19872 18.671 6.38949 18.5303 6.53014L7.81069 17.2498H15.75C15.9489 17.2498 16.1397 17.3288 16.2803 17.4694C16.421 17.6101 16.5 17.8009 16.5 17.9998C16.5 18.1987 16.421 18.3895 16.2803 18.5301C16.1397 18.6708 15.9489 18.7498 15.75 18.7498H6C5.97528 18.7498 5.95061 18.7484 5.92598 18.746C5.91481 18.7449 5.90396 18.7429 5.89289 18.7413C5.87975 18.7394 5.86656 18.7378 5.85347 18.7353C5.84088 18.7327 5.82862 18.7293 5.81625 18.7262C5.8049 18.7233 5.7935 18.7208 5.78229 18.7174C5.7702 18.7137 5.75848 18.7092 5.74667 18.705C5.73541 18.7009 5.72406 18.6972 5.71298 18.6926C5.70204 18.6881 5.69151 18.6828 5.6808 18.6777C5.66931 18.6723 5.65768 18.6671 5.64642 18.6611C5.63631 18.6557 5.62674 18.6496 5.61694 18.6437C5.60573 18.637 5.59438 18.6307 5.58348 18.6234C5.57291 18.6163 5.56293 18.6084 5.55276 18.6008C5.54334 18.5938 5.53363 18.5872 5.52447 18.5797C5.50777 18.5659 5.49188 18.5513 5.47641 18.5362C5.47426 18.5341 5.47183 18.5323 5.46968 18.5301C5.46781 18.5282 5.4662 18.5262 5.46432 18.5242C5.44894 18.5085 5.43407 18.4923 5.4201 18.4753C5.4126 18.4661 5.40609 18.4565 5.39909 18.4471Z" fill="#1D1F21" style="fill: var(--ui-icon-primary-color);"/>
</svg>
