<svg  viewBox="0 0 24 24" fill="none" xmlns="http://www.w3.org/2000/svg" id="__THIS_ID_NEEDS_FOR_UI_ICON_COMPONENT__">
<path d="M21 19.4995V4.49951C20.9996 4.10181 20.8414 3.7205 20.5602 3.43929C20.279 3.15807 19.8977 2.9999 19.5 2.99951H4.5C4.1023 2.9999 3.72099 3.15807 3.43977 3.43929C3.15855 3.7205 3.00039 4.10181 3 4.49951V19.4995C3.00039 19.8972 3.15855 20.2785 3.43977 20.5597C3.72099 20.841 4.1023 20.9991 4.5 20.9995H19.5C19.8977 20.9991 20.279 20.841 20.5602 20.5597C20.8414 20.2785 20.9996 19.8972 21 19.4995ZM10.9014 15.7129L7.72064 12.5307C7.58001 12.3897 7.50103 12.1987 7.50103 11.9995C7.50103 11.8004 7.58001 11.6093 7.72064 11.4683L10.9014 8.2876C11.0421 8.14721 11.2327 8.06841 11.4315 8.06852C11.6302 8.06862 11.8208 8.14763 11.9613 8.28817C12.1019 8.42871 12.1809 8.61929 12.181 8.81804C12.1811 9.01679 12.1023 9.20746 11.9619 9.34815L10.0605 11.2495H15.75C15.9489 11.2495 16.1397 11.3285 16.2803 11.4692C16.421 11.6098 16.5 11.8006 16.5 11.9995C16.5 12.1984 16.421 12.3892 16.2803 12.5298C16.1397 12.6705 15.9489 12.7495 15.75 12.7495H10.0601L11.9619 14.6523C12.1023 14.793 12.1811 14.9837 12.181 15.1824C12.1809 15.3812 12.1019 15.5718 11.9613 15.7123C11.8208 15.8529 11.6302 15.9319 11.4315 15.932C11.2327 15.9321 11.0421 15.8533 10.9014 15.7129V15.7129Z" fill="#1D1F21" style="fill: var(--ui-icon-primary-color);"/>
</svg>
