<svg  viewBox="0 0 24 24" fill="none" xmlns="http://www.w3.org/2000/svg" id="__THIS_ID_NEEDS_FOR_UI_ICON_COMPONENT__">
<path d="M21.6929 11.537C21.6361 11.674 21.54 11.7911 21.4167 11.8735C21.2933 11.956 21.1483 11.9999 21 12H17.25V17.25C17.25 17.4489 17.171 17.6396 17.0303 17.7803C16.8897 17.9209 16.6989 17.9999 16.5 18H7.50002C7.30111 17.9999 7.11035 17.9209 6.9697 17.7803C6.82905 17.6396 6.75003 17.4489 6.75002 17.25V12H3.00002C2.85168 11.9999 2.70668 11.9559 2.58335 11.8735C2.46002 11.7911 2.3639 11.674 2.30713 11.5369C2.25036 11.3999 2.2355 11.2491 2.26443 11.1036C2.29336 10.9581 2.36478 10.8245 2.46965 10.7196L11.4697 1.71959C11.6103 1.57898 11.8011 1.5 12 1.5C12.1989 1.5 12.3897 1.57898 12.5304 1.71959L21.5304 10.7196C21.6352 10.8245 21.7067 10.9582 21.7356 11.1036C21.7645 11.2491 21.7496 11.3999 21.6929 11.537ZM16.5 19.5H7.50002C7.3011 19.5 7.11034 19.579 6.96969 19.7196C6.82903 19.8603 6.75002 20.051 6.75002 20.25C6.75002 20.4489 6.82903 20.6396 6.96969 20.7803C7.11034 20.9209 7.3011 21 7.50002 21H16.5C16.6989 21 16.8897 20.9209 17.0303 20.7803C17.171 20.6396 17.25 20.4489 17.25 20.25C17.25 20.051 17.171 19.8603 17.0303 19.7196C16.8897 19.579 16.6989 19.5 16.5 19.5Z" fill="#1D1F21" style="fill: var(--ui-icon-primary-color);"/>
</svg>
