<svg  viewBox="0 0 24 24" fill="none" xmlns="http://www.w3.org/2000/svg" id="__THIS_ID_NEEDS_FOR_UI_ICON_COMPONENT__">
<path d="M18.75 3V16.5C18.75 16.6989 18.671 16.8897 18.5303 17.0303C18.3897 17.171 18.1989 17.25 18 17.25H6.31064L9.53036 20.4697C9.67101 20.6103 9.75002 20.8011 9.75001 21C9.75001 21.1989 9.67098 21.3897 9.53032 21.5304C9.38965 21.671 9.19888 21.75 8.99996 21.75C8.80105 21.75 8.61028 21.671 8.46963 21.5303L3.96963 17.0303C3.96771 17.0284 3.96611 17.0263 3.96423 17.0243C3.94889 17.0087 3.93406 16.9925 3.92012 16.9755C3.91237 16.9661 3.90561 16.9562 3.89838 16.9465C3.89101 16.9366 3.88334 16.9269 3.87645 16.9166C3.86888 16.9053 3.86229 16.8936 3.85537 16.882C3.84981 16.8726 3.84391 16.8634 3.83873 16.8538C3.83242 16.842 3.82704 16.8299 3.82141 16.8178C3.81665 16.8076 3.81154 16.7977 3.80722 16.7873C3.80239 16.7756 3.79847 16.7637 3.79424 16.7518C3.79023 16.7406 3.78588 16.7295 3.78241 16.718C3.77879 16.706 3.77611 16.6938 3.77309 16.6817C3.77021 16.6701 3.76693 16.6587 3.76458 16.6468C3.76176 16.6327 3.76004 16.6184 3.75805 16.6041C3.75668 16.5941 3.75473 16.5843 3.75375 16.5743C3.74885 16.5249 3.74885 16.4751 3.75375 16.4257C3.75473 16.4157 3.75668 16.4059 3.75805 16.3959C3.76004 16.3816 3.76176 16.3673 3.76458 16.3532C3.76693 16.3413 3.77021 16.3299 3.77309 16.3183C3.77611 16.3062 3.77879 16.294 3.78241 16.282C3.78588 16.2705 3.79023 16.2594 3.79424 16.2482C3.79847 16.2363 3.80239 16.2244 3.80722 16.2127C3.81154 16.2023 3.81665 16.1924 3.82141 16.1822C3.82704 16.1701 3.83242 16.158 3.83873 16.1462C3.84391 16.1366 3.84981 16.1274 3.85537 16.118C3.86229 16.1064 3.86888 16.0947 3.87645 16.0834C3.88334 16.0731 3.89101 16.0634 3.89838 16.0535C3.90561 16.0438 3.91237 16.0339 3.92012 16.0245C3.93406 16.0075 3.94889 15.9913 3.96423 15.9757C3.96611 15.9737 3.96771 15.9716 3.96963 15.9697L8.46963 11.4697C8.53927 11.4 8.62195 11.3448 8.71295 11.3071C8.80394 11.2694 8.90147 11.25 8.99996 11.25C9.09846 11.25 9.19599 11.2694 9.28699 11.3071C9.37798 11.3447 9.46067 11.4 9.53032 11.4696C9.59996 11.5393 9.65521 11.622 9.69291 11.713C9.73061 11.8039 9.75001 11.9015 9.75001 12C9.75002 12.0985 9.73062 12.196 9.69293 12.287C9.65525 12.378 9.6 12.4607 9.53036 12.5303L6.31064 15.75H17.25V3C17.25 2.80109 17.329 2.61032 17.4697 2.46967C17.6103 2.32902 17.8011 2.25 18 2.25C18.1989 2.25 18.3897 2.32902 18.5303 2.46967C18.671 2.61032 18.75 2.80109 18.75 3Z" fill="#1D1F21" style="fill: var(--ui-icon-primary-color);"/>
</svg>
