<svg  viewBox="0 0 24 24" fill="none" xmlns="http://www.w3.org/2000/svg" id="__THIS_ID_NEEDS_FOR_UI_ICON_COMPONENT__">
<path d="M12.463 21.6931C12.3259 21.6363 12.2088 21.5402 12.1264 21.4169C12.044 21.2936 12 21.1486 12 21.0002V17.2502H4.5C4.10231 17.2498 3.72105 17.0916 3.43984 16.8104C3.15864 16.5292 3.00045 16.1479 3 15.7502V8.25023C3.00045 7.85254 3.15864 7.47128 3.43984 7.19007C3.72105 6.90887 4.10231 6.75068 4.5 6.75023H12V3.00023C12 2.8519 12.044 2.7069 12.1264 2.58357C12.2088 2.46024 12.326 2.36411 12.463 2.30734C12.6001 2.25058 12.7509 2.23572 12.8963 2.26465C13.0418 2.29357 13.1755 2.36499 13.2804 2.46986L22.2804 11.4699C22.421 11.6106 22.5 11.8013 22.5 12.0002C22.5 12.1991 22.421 12.3899 22.2804 12.5306L13.2804 21.5306C13.1755 21.6355 13.0418 21.7069 12.8963 21.7358C12.7508 21.7647 12.6 21.7499 12.463 21.6931Z" fill="#1D1F21" style="fill: var(--ui-icon-primary-color);"/>
</svg>
