<svg  viewBox="0 0 24 24" fill="none" xmlns="http://www.w3.org/2000/svg" id="__THIS_ID_NEEDS_FOR_UI_ICON_COMPONENT__">
<path d="M21.6929 11.537C21.6362 11.674 21.54 11.7911 21.4167 11.8735C21.2934 11.956 21.1484 11.9999 21 12H17.25V19.5C17.2496 19.8976 17.0914 20.2789 16.8102 20.5601C16.529 20.8413 16.1477 20.9995 15.75 21H8.25005C7.85236 20.9995 7.47109 20.8413 7.18989 20.5601C6.90868 20.2789 6.7505 19.8976 6.75005 19.5V12H3.00005C2.85171 11.9999 2.70671 11.9559 2.58338 11.8735C2.46005 11.7911 2.36393 11.674 2.30716 11.5369C2.25039 11.3999 2.23554 11.2491 2.26446 11.1036C2.29339 10.9581 2.36481 10.8245 2.46968 10.7196L11.4697 1.71959C11.6104 1.57898 11.8011 1.5 12 1.5C12.199 1.5 12.3897 1.57898 12.5304 1.71959L21.5304 10.7196C21.6353 10.8245 21.7067 10.9582 21.7356 11.1036C21.7645 11.2491 21.7497 11.3999 21.6929 11.537Z" fill="#1D1F21" style="fill: var(--ui-icon-primary-color);"/>
</svg>
