<svg  viewBox="0 0 24 24" fill="none" xmlns="http://www.w3.org/2000/svg" id="__THIS_ID_NEEDS_FOR_UI_ICON_COMPONENT__">
<path d="M21.0894 10.0947C21.0677 10.0968 21.0458 10.0977 21.0239 10.098C21.0211 10.098 21.0184 10.0984 21.0157 10.0984H16.5157C16.3167 10.0984 16.126 10.0194 15.9853 9.87873C15.8447 9.73808 15.7657 9.54732 15.7657 9.3484C15.7657 9.14949 15.8447 8.95873 15.9853 8.81807C16.126 8.67742 16.3167 8.5984 16.5157 8.5984H19.205L17.3033 6.69672C16.2544 5.64783 14.918 4.93353 13.4632 4.64414C12.0083 4.35476 10.5003 4.50329 9.12985 5.07095C7.75941 5.63861 6.58807 6.5999 5.76396 7.83327C4.93985 9.06664 4.49999 10.5167 4.49999 12C4.49999 13.4834 4.93985 14.9335 5.76396 16.1668C6.58807 17.4002 7.75941 18.3615 9.12985 18.9291C10.5003 19.4968 12.0083 19.6453 13.4632 19.3559C14.918 19.0666 16.2544 18.3523 17.3033 17.3034C17.3729 17.2336 17.4556 17.1783 17.5466 17.1406C17.6376 17.1028 17.7352 17.0833 17.8337 17.0833C17.9323 17.0832 18.0298 17.1026 18.1209 17.1403C18.2119 17.178 18.2947 17.2333 18.3644 17.3029C18.434 17.3726 18.4893 17.4553 18.527 17.5464C18.5647 17.6374 18.5841 17.735 18.5841 17.8335C18.584 17.9321 18.5646 18.0297 18.5268 18.1207C18.4891 18.2117 18.4337 18.2944 18.364 18.364C17.1053 19.6227 15.5017 20.4799 13.7558 20.8271C12.01 21.1744 10.2004 20.9962 8.55584 20.315C6.9113 19.6338 5.50568 18.4803 4.51674 17.0002C3.5278 15.5202 2.99995 13.7801 2.99995 12C2.99995 10.22 3.5278 8.47993 4.51674 6.99988C5.50568 5.51983 6.9113 4.36628 8.55584 3.68509C10.2004 3.0039 12.01 2.82567 13.7558 3.17294C15.5017 3.52022 17.1053 4.37739 18.364 5.63608L20.2657 7.53772V4.84841C20.2657 4.64949 20.3447 4.45873 20.4853 4.31808C20.626 4.17742 20.8167 4.09841 21.0157 4.09841C21.2146 4.09841 21.4053 4.17742 21.546 4.31808C21.6866 4.45873 21.7657 4.64949 21.7657 4.84841V9.34792C21.7657 9.37288 21.7644 9.39782 21.7619 9.42265C21.7609 9.43275 21.759 9.44254 21.7576 9.45252C21.7556 9.46679 21.7539 9.48107 21.7511 9.49522C21.7487 9.50705 21.7455 9.51851 21.7426 9.53014C21.7395 9.54225 21.7369 9.55442 21.7332 9.5664C21.7298 9.57787 21.7254 9.58895 21.7214 9.60019C21.7172 9.61206 21.7133 9.62399 21.7084 9.63567C21.7041 9.64608 21.699 9.65604 21.6942 9.66621C21.6886 9.67827 21.6832 9.6904 21.6769 9.70221C21.6717 9.71184 21.6658 9.72098 21.6603 9.73036C21.6534 9.74199 21.6468 9.75373 21.6392 9.76504C21.6323 9.77533 21.6246 9.78497 21.6173 9.79488C21.61 9.80459 21.6033 9.81452 21.5955 9.82395C21.5816 9.84091 21.5668 9.85707 21.5514 9.87273C21.5495 9.87467 21.5479 9.8768 21.546 9.87872C21.5445 9.88023 21.5428 9.88148 21.5413 9.88297C21.5252 9.8988 21.5086 9.91402 21.4911 9.92836C21.4823 9.93559 21.473 9.94188 21.464 9.94866C21.4534 9.95656 21.4431 9.96473 21.4321 9.97207C21.4215 9.97917 21.4105 9.98531 21.3996 9.99181C21.3895 9.99787 21.3795 10.0042 21.3691 10.0098C21.3582 10.0157 21.3469 10.0206 21.3357 10.0259C21.3247 10.0311 21.3138 10.0366 21.3025 10.0413C21.2918 10.0457 21.281 10.0493 21.2701 10.0532C21.2579 10.0576 21.2457 10.0623 21.2331 10.0661C21.2225 10.0693 21.2116 10.0717 21.2008 10.0744C21.1879 10.0777 21.1752 10.0813 21.162 10.0839C21.1498 10.0863 21.1374 10.0877 21.1251 10.0895C21.1132 10.0913 21.1015 10.0935 21.0894 10.0947Z" fill="#1D1F21" style="fill: var(--ui-icon-primary-color);"/>
</svg>
