<svg  viewBox="0 0 24 24" fill="none" xmlns="http://www.w3.org/2000/svg" id="__THIS_ID_NEEDS_FOR_UI_ICON_COMPONENT__">
<path d="M22.5 7.50048V14.25C22.5 14.4489 22.421 14.6397 22.2803 14.7803C22.1397 14.921 21.9489 15 21.75 15C21.5511 15 21.3603 14.921 21.2197 14.7803C21.079 14.6397 21 14.4489 21 14.25V9.31073L11.7804 18.5304C11.6397 18.671 11.4489 18.75 11.25 18.75C11.0511 18.75 10.8603 18.671 10.7197 18.5304L1.71965 9.53036C1.57899 9.3897 1.49997 9.19893 1.49997 9C1.49997 8.80107 1.57899 8.6103 1.71965 8.46964C1.86032 8.32897 2.05109 8.24995 2.25002 8.24995C2.44894 8.24995 2.63972 8.32897 2.78038 8.46964L11.25 16.9394L19.9393 8.25H15C14.8011 8.25 14.6103 8.17098 14.4697 8.03033C14.329 7.88968 14.25 7.69891 14.25 7.5C14.25 7.30109 14.329 7.11032 14.4697 6.96967C14.6103 6.82902 14.8011 6.75 15 6.75H21.75C21.7556 6.75 21.761 6.75071 21.7666 6.75084C21.7856 6.75126 21.8046 6.75185 21.8235 6.75371C21.8365 6.75497 21.8491 6.75732 21.8618 6.75924C21.8733 6.76096 21.8848 6.76223 21.8962 6.76448C21.9098 6.76717 21.923 6.77087 21.9363 6.77429C21.9467 6.77693 21.9571 6.77917 21.9674 6.78228C21.9801 6.78612 21.9924 6.79086 22.0048 6.79535C22.0155 6.79921 22.0263 6.80272 22.0369 6.80709C22.0481 6.81173 22.0588 6.81718 22.0698 6.82235C22.0811 6.82769 22.0925 6.83272 22.1036 6.83865C22.1136 6.84398 22.123 6.85007 22.1327 6.85586C22.1441 6.86261 22.1556 6.86907 22.1667 6.87649C22.1766 6.88314 22.186 6.8906 22.1956 6.89772C22.2057 6.90519 22.2159 6.91221 22.2257 6.92026C22.2393 6.93142 22.252 6.9435 22.2648 6.95558C22.2699 6.96041 22.2754 6.96464 22.2804 6.96964C22.2857 6.97493 22.2902 6.98069 22.2953 6.9861C22.307 6.99855 22.3188 7.01098 22.3297 7.0242C22.3382 7.03458 22.3457 7.0455 22.3536 7.05623C22.3602 7.0652 22.3672 7.07385 22.3734 7.08312C22.3814 7.09499 22.3883 7.10729 22.3955 7.1195C22.4007 7.12835 22.4063 7.13695 22.4112 7.14604C22.4177 7.15815 22.4232 7.17059 22.429 7.18296C22.4336 7.19284 22.4385 7.20253 22.4428 7.21264C22.4477 7.2245 22.4517 7.23661 22.4559 7.24867C22.4599 7.25975 22.4642 7.27065 22.4676 7.28197C22.4712 7.29406 22.4739 7.30632 22.477 7.31855C22.4799 7.33008 22.4831 7.34144 22.4854 7.35318C22.4883 7.36737 22.49 7.38172 22.492 7.39602C22.4934 7.40596 22.4953 7.41571 22.4963 7.42575C22.4988 7.45058 22.5 7.47552 22.5 7.50048Z" fill="#1D1F21" style="fill: var(--ui-icon-primary-color);"/>
</svg>
