<svg  viewBox="0 0 24 24" fill="none" xmlns="http://www.w3.org/2000/svg" id="__THIS_ID_NEEDS_FOR_UI_ICON_COMPONENT__">
<path d="M19.4995 3H4.49945C4.10175 3.00039 3.72044 3.15855 3.43922 3.43977C3.158 3.72099 2.99984 4.1023 2.99945 4.5V19.5C2.99984 19.8977 3.158 20.279 3.43922 20.5602C3.72044 20.8414 4.10175 20.9996 4.49945 21H19.4995C19.8972 20.9996 20.2785 20.8414 20.5597 20.5602C20.8409 20.279 20.9991 19.8977 20.9995 19.5V4.5C20.9991 4.1023 20.8409 3.72099 20.5597 3.43977C20.2785 3.15855 19.8972 3.00039 19.4995 3ZM15.7128 13.0986L12.5306 16.2794C12.3896 16.42 12.1986 16.499 11.9995 16.499C11.8003 16.499 11.6093 16.42 11.4683 16.2794L8.28754 13.0986C8.14715 12.9579 8.06835 12.7673 8.06845 12.5685C8.06856 12.3698 8.14756 12.1792 8.2881 12.0387C8.42864 11.8981 8.61922 11.8191 8.81798 11.819C9.01673 11.8189 9.20739 11.8977 9.34808 12.0381L11.2495 13.9395V8.25C11.2495 8.05109 11.3285 7.86032 11.4691 7.71967C11.6098 7.57902 11.8005 7.5 11.9995 7.5C12.1984 7.5 12.3891 7.57902 12.5298 7.71967C12.6704 7.86032 12.7495 8.05109 12.7495 8.25V13.9399L14.6523 12.0381C14.793 11.8977 14.9836 11.8189 15.1824 11.819C15.3811 11.8191 15.5717 11.8981 15.7123 12.0387C15.8528 12.1792 15.9318 12.3698 15.9319 12.5685C15.932 12.7673 15.8532 12.9579 15.7128 13.0986H15.7128Z" fill="#1D1F21" style="fill: var(--ui-icon-primary-color);"/>
</svg>
