<svg  viewBox="0 0 24 24" fill="none" xmlns="http://www.w3.org/2000/svg" id="__THIS_ID_NEEDS_FOR_UI_ICON_COMPONENT__">
<path d="M21.7501 6C21.7501 6.19891 21.6711 6.38968 21.5304 6.53033C21.3898 6.67098 21.199 6.75 21.0001 6.75H8.25009V17.6894L11.4697 14.4697C11.6104 14.329 11.8011 14.25 12.0001 14.25C12.199 14.25 12.3897 14.329 12.5304 14.4696C12.6711 14.6103 12.7501 14.8011 12.7501 15C12.7501 15.1989 12.6711 15.3897 12.5305 15.5303L8.03046 20.0303C8.02894 20.0318 8.02727 20.0331 8.02577 20.0346C8.00968 20.0504 7.99299 20.0656 7.97553 20.08C7.96667 20.0872 7.95736 20.0935 7.94825 20.1004C7.93774 20.1082 7.92749 20.1163 7.91657 20.1237C7.90581 20.1309 7.89464 20.1371 7.88359 20.1437C7.87363 20.1496 7.8639 20.1559 7.85365 20.1614C7.84241 20.1674 7.83083 20.1725 7.81934 20.1779C7.80863 20.183 7.7981 20.1883 7.78711 20.1928C7.77603 20.1974 7.76473 20.2011 7.75347 20.2052C7.74161 20.2094 7.72991 20.214 7.71778 20.2177C7.70657 20.221 7.69517 20.2235 7.68382 20.2264C7.67146 20.2295 7.65926 20.233 7.64667 20.2355C7.63346 20.2381 7.62014 20.2396 7.60684 20.2415C7.59593 20.2431 7.58519 20.2452 7.57411 20.2463C7.54951 20.2487 7.52481 20.25 7.50009 20.25C7.47537 20.25 7.45067 20.2487 7.42607 20.2463C7.41499 20.2452 7.40426 20.2431 7.39334 20.2415C7.38004 20.2396 7.36672 20.2381 7.35351 20.2355C7.34093 20.233 7.32873 20.2295 7.31637 20.2264C7.30501 20.2235 7.29362 20.221 7.2824 20.2177C7.27027 20.214 7.25857 20.2094 7.24672 20.2052C7.23546 20.2011 7.22415 20.1974 7.21307 20.1929C7.20209 20.1883 7.19156 20.183 7.18085 20.1779C7.16936 20.1725 7.15777 20.1674 7.14653 20.1614C7.13628 20.1559 7.12655 20.1496 7.1166 20.1437C7.10554 20.1371 7.09437 20.1309 7.08361 20.1237C7.0727 20.1163 7.06244 20.1082 7.05194 20.1004C7.04283 20.0935 7.03351 20.0872 7.02466 20.08C7.00719 20.0656 6.99051 20.0504 6.97442 20.0346C6.97291 20.0331 6.97124 20.0318 6.96973 20.0303L2.46973 15.5303C2.32908 15.3897 2.25007 15.1989 2.25008 15C2.25008 14.8011 2.32911 14.6103 2.46977 14.4696C2.61044 14.329 2.80121 14.25 3.00013 14.25C3.19904 14.25 3.38981 14.329 3.53046 14.4697L6.75009 17.6894V6C6.75009 5.80109 6.82911 5.61032 6.96976 5.46967C7.11041 5.32902 7.30118 5.25 7.50009 5.25H21.0001C21.199 5.25 21.3898 5.32902 21.5304 5.46967C21.6711 5.61032 21.7501 5.80109 21.7501 6Z" fill="#1D1F21" style="fill: var(--ui-icon-primary-color);"/>
</svg>
