<svg  viewBox="0 0 24 24" fill="none" xmlns="http://www.w3.org/2000/svg" id="__THIS_ID_NEEDS_FOR_UI_ICON_COMPONENT__">
<path d="M6.96964 16.2803C6.82899 16.1397 6.74998 15.9489 6.74998 15.75C6.74998 15.5511 6.82899 15.3603 6.96964 15.2197L16.1894 6H9C8.80109 6 8.61032 5.92098 8.46967 5.78033C8.32902 5.63968 8.25 5.44891 8.25 5.25C8.25 5.05109 8.32902 4.86032 8.46967 4.71967C8.61032 4.57902 8.80109 4.5 9 4.5H18C18.0028 4.5 18.0055 4.50039 18.0083 4.50042C18.0302 4.50066 18.052 4.50159 18.0737 4.50372C18.0858 4.50491 18.0976 4.50713 18.1095 4.50888C18.1218 4.51069 18.1341 4.51209 18.1463 4.5145C18.1595 4.51711 18.1723 4.52072 18.1853 4.52402C18.196 4.52675 18.2068 4.52908 18.2175 4.53229C18.2301 4.53612 18.2423 4.54083 18.2547 4.5453C18.2654 4.54917 18.2762 4.55268 18.2868 4.55705C18.2983 4.56181 18.3093 4.56738 18.3205 4.57269C18.3315 4.57789 18.3426 4.58277 18.3533 4.58853C18.3641 4.59427 18.3743 4.60079 18.3847 4.60703C18.3953 4.61337 18.406 4.61934 18.4163 4.62625C18.4279 4.63397 18.4388 4.64255 18.4498 4.65089C18.4583 4.65726 18.467 4.66314 18.4753 4.66992C18.5135 4.7013 18.5486 4.73638 18.58 4.77463C18.5871 4.78327 18.5933 4.79239 18.5999 4.80126C18.608 4.81197 18.6162 4.82245 18.6237 4.83358C18.6308 4.84426 18.637 4.85535 18.6436 4.86631C18.6496 4.87634 18.6559 4.88613 18.6614 4.89645C18.6674 4.90764 18.6725 4.91915 18.6778 4.93058C18.6829 4.94136 18.6883 4.95196 18.6929 4.96302C18.6974 4.9741 18.7012 4.98541 18.7052 4.99665C18.7094 5.00848 18.714 5.02016 18.7176 5.03225C18.7211 5.04357 18.7236 5.05507 18.7265 5.06651C18.7295 5.07879 18.733 5.09092 18.7354 5.10344C18.7381 5.1166 18.7396 5.12989 18.7415 5.14314C18.7431 5.15411 18.7452 5.16489 18.7462 5.176C18.7487 5.20061 18.75 5.2253 18.75 5.25V14.25C18.75 14.4489 18.671 14.6397 18.5303 14.7803C18.3897 14.921 18.1989 15 18 15C17.8011 15 17.6103 14.921 17.4697 14.7803C17.329 14.6397 17.25 14.4489 17.25 14.25V7.06066L8.03036 16.2803C7.8897 16.421 7.69892 16.5 7.5 16.5C7.30107 16.5 7.1103 16.421 6.96963 16.2803L6.96964 16.2803ZM19.5 19.5H4.5C4.30109 19.5 4.11032 19.579 3.96967 19.7197C3.82902 19.8603 3.75 20.0511 3.75 20.25C3.75 20.4489 3.82902 20.6397 3.96967 20.7803C4.11032 20.921 4.30109 21 4.5 21H19.5C19.6989 21 19.8897 20.921 20.0303 20.7803C20.171 20.6397 20.25 20.4489 20.25 20.25C20.25 20.0511 20.171 19.8603 20.0303 19.7197C19.8897 19.579 19.6989 19.5 19.5 19.5Z" fill="#1D1F21" style="fill: var(--ui-icon-primary-color);"/>
</svg>
