<svg  viewBox="0 0 24 24" fill="none" xmlns="http://www.w3.org/2000/svg" id="__THIS_ID_NEEDS_FOR_UI_ICON_COMPONENT__">
<path d="M21.75 18C21.75 18.1989 21.671 18.3897 21.5304 18.5303C21.3897 18.671 21.199 18.75 21 18.75H7.50005C7.30114 18.75 7.11037 18.671 6.96972 18.5303C6.82907 18.3897 6.75005 18.1989 6.75005 18V6.31065L3.53041 9.53032C3.38976 9.67098 3.199 9.75001 3.00008 9.75002C2.80116 9.75003 2.61039 9.67101 2.46973 9.53036C2.32907 9.38972 2.25004 9.19895 2.25003 9.00003C2.25002 8.80112 2.32903 8.61034 2.46968 8.46968L6.96968 3.96968C6.97119 3.96817 6.97289 3.96693 6.9744 3.96543C6.99046 3.94961 7.00713 3.93438 7.02461 3.92005C7.0334 3.91281 7.0427 3.90652 7.05176 3.89975C7.06233 3.89185 7.07263 3.88367 7.08362 3.87633C7.0942 3.86924 7.10523 3.86309 7.11612 3.8566C7.12624 3.85054 7.13617 3.84417 7.14661 3.83858C7.15755 3.83273 7.16881 3.82777 7.17998 3.8225C7.19102 3.81727 7.20186 3.81178 7.21322 3.80708C7.22388 3.80267 7.23473 3.79913 7.24554 3.79524C7.25785 3.7908 7.26998 3.7861 7.28257 3.78229C7.29323 3.77907 7.30408 3.77673 7.31484 3.77399C7.32775 3.77071 7.34057 3.76711 7.3537 3.76451C7.36593 3.76209 7.37828 3.76068 7.3906 3.75888C7.4025 3.75713 7.41422 3.75491 7.4263 3.75373C7.44805 3.75159 7.46988 3.75066 7.49176 3.75042C7.49455 3.75039 7.49726 3.75 7.50005 3.75C7.50284 3.75 7.50554 3.75039 7.50833 3.75042C7.53021 3.75066 7.55205 3.75159 7.57379 3.75372C7.58588 3.7549 7.5976 3.75713 7.6095 3.75888C7.62181 3.76068 7.63417 3.76209 7.6464 3.7645C7.65953 3.7671 7.67235 3.7707 7.68526 3.77398C7.69602 3.77672 7.70686 3.77907 7.71753 3.78229C7.73012 3.7861 7.74225 3.79079 7.75456 3.79523C7.76537 3.79913 7.77622 3.80267 7.78688 3.80707C7.79823 3.81177 7.80908 3.81727 7.82011 3.8225C7.83128 3.82777 7.84255 3.83273 7.85349 3.83857C7.86393 3.84417 7.87386 3.85053 7.88398 3.85659C7.89487 3.86309 7.9059 3.86923 7.91648 3.87633C7.92746 3.88367 7.93776 3.89184 7.94834 3.89974C7.9574 3.90652 7.96669 3.91281 7.97548 3.92004C7.99297 3.93438 8.00963 3.9496 8.0257 3.96543C8.02721 3.96692 8.0289 3.96817 8.03042 3.96968L12.5304 8.46968C12.6711 8.61034 12.7501 8.80111 12.7501 9.00003C12.7501 9.19895 12.671 9.38971 12.5304 9.53036C12.4607 9.6 12.378 9.65525 12.287 9.69293C12.196 9.73062 12.0985 9.75002 12 9.75001C11.8011 9.75 11.6103 9.67098 11.4697 9.53031L8.25005 6.31065V17.25H21C21.199 17.25 21.3897 17.329 21.5304 17.4697C21.671 17.6103 21.75 17.8011 21.75 18Z" fill="#1D1F21" style="fill: var(--ui-icon-primary-color);"/>
</svg>
