<svg  viewBox="0 0 24 24" fill="none" xmlns="http://www.w3.org/2000/svg" id="__THIS_ID_NEEDS_FOR_UI_ICON_COMPONENT__">
<path d="M20.9995 19.5V4.5C20.9991 4.1023 20.8409 3.72099 20.5597 3.43977C20.2785 3.15855 19.8972 3.00039 19.4995 3H4.49945C4.10175 3.00039 3.72044 3.15855 3.43922 3.43977C3.158 3.72099 2.99984 4.1023 2.99945 4.5V19.5C2.99984 19.8977 3.158 20.279 3.43922 20.5602C3.72044 20.8414 4.10175 20.9996 4.49945 21H19.4995C19.8972 20.9996 20.2785 20.8414 20.5597 20.5602C20.8409 20.279 20.9991 19.8977 20.9995 19.5ZM15.7128 11.9619C15.6432 12.0316 15.5605 12.0868 15.4696 12.1245C15.3786 12.1622 15.281 12.1816 15.1826 12.1816C15.0841 12.1816 14.9865 12.1622 14.8956 12.1245C14.8046 12.0868 14.7219 12.0316 14.6523 11.9619L12.7495 10.0601V15.75C12.7495 15.9489 12.6704 16.1397 12.5298 16.2803C12.3891 16.421 12.1984 16.5 11.9995 16.5C11.8005 16.5 11.6098 16.421 11.4691 16.2803C11.3285 16.1397 11.2495 15.9489 11.2495 15.75V10.0605L9.34808 11.9619C9.20739 12.1023 9.01673 12.1811 8.81798 12.181C8.61922 12.1809 8.42864 12.1019 8.2881 11.9613C8.14756 11.8208 8.06856 11.6302 8.06845 11.4315C8.06835 11.2327 8.14715 11.0421 8.28754 10.9014L11.4683 7.72064C11.6093 7.58001 11.8003 7.50103 11.9994 7.50103C12.1986 7.50103 12.3896 7.58001 12.5306 7.72064L15.7128 10.9014C15.7825 10.971 15.8377 11.0537 15.8754 11.1446C15.9131 11.2356 15.9326 11.3332 15.9326 11.4316C15.9326 11.5301 15.9131 11.6277 15.8754 11.7186C15.8377 11.8096 15.7825 11.8923 15.7128 11.9619Z" fill="#1D1F21" style="fill: var(--ui-icon-primary-color);"/>
</svg>
