<svg  viewBox="0 0 24 24" fill="none" xmlns="http://www.w3.org/2000/svg" id="__THIS_ID_NEEDS_FOR_UI_ICON_COMPONENT__">
<path d="M21.75 17.2499C21.75 17.4488 21.671 17.6396 21.5303 17.7802C21.3897 17.9209 21.1989 17.9999 21 17.9999C20.8011 17.9999 20.6103 17.9209 20.4697 17.7802C20.329 17.6396 20.25 17.4488 20.25 17.2499C20.25 15.6182 19.7662 14.0232 18.8597 12.6664C17.9531 11.3097 16.6647 10.2523 15.1572 9.62789C13.6497 9.00347 11.9909 8.8401 10.3905 9.15845C8.79021 9.47679 7.32021 10.2625 6.16644 11.4164L4.44681 13.136H8.63608C8.83499 13.136 9.02576 13.215 9.16641 13.3557C9.30706 13.4963 9.38608 13.6871 9.38608 13.886C9.38608 14.0849 9.30706 14.2757 9.16641 14.4163C9.02576 14.557 8.83499 14.636 8.63608 14.636H2.63608C2.63047 14.636 2.62507 14.6353 2.61948 14.6352C2.60049 14.6348 2.58149 14.6341 2.56256 14.6323C2.54949 14.631 2.53677 14.6286 2.52388 14.6267C2.51257 14.625 2.50122 14.6237 2.49001 14.6215C2.47632 14.6188 2.46302 14.6151 2.44961 14.6117C2.43928 14.609 2.42892 14.6068 2.41871 14.6037C2.40601 14.5999 2.39371 14.5952 2.38129 14.5906C2.37057 14.5868 2.35979 14.5833 2.34924 14.5789C2.33803 14.5742 2.32725 14.5688 2.31631 14.5636C2.305 14.5583 2.2936 14.5533 2.28252 14.5474C2.27248 14.542 2.26295 14.5358 2.25318 14.53C2.2419 14.5233 2.23045 14.5169 2.21947 14.5096C2.20942 14.5028 2.20001 14.4953 2.19033 14.4881C2.18033 14.4807 2.1701 14.4737 2.16037 14.4657C2.1468 14.4546 2.13405 14.4425 2.12127 14.4304C2.11617 14.4256 2.11072 14.4213 2.10571 14.4163C2.10042 14.411 2.09594 14.4053 2.09083 14.3999C2.07909 14.3874 2.06728 14.375 2.05641 14.3618C2.04787 14.3514 2.04037 14.3405 2.03247 14.3297C2.02585 14.3208 2.0189 14.3121 2.01269 14.3029C2.00473 14.291 1.99779 14.2787 1.99058 14.2665C1.98537 14.2576 1.97978 14.249 1.97491 14.2399C1.96843 14.2278 1.96289 14.2154 1.95712 14.203C1.9525 14.1931 1.94756 14.1834 1.94334 14.1734C1.93844 14.1615 1.93443 14.1494 1.93016 14.1373C1.92622 14.1262 1.92194 14.1153 1.91851 14.104C1.91485 14.0919 1.91214 14.0797 1.9091 14.0674C1.90624 14.0559 1.90299 14.0445 1.90065 14.0328C1.89784 14.0186 1.8961 14.0043 1.89411 13.9899C1.89274 13.98 1.89081 13.9703 1.88983 13.9602C1.88736 13.9354 1.88605 13.9104 1.88608 13.8855V7.88599C1.88608 7.68707 1.9651 7.49631 2.10575 7.35566C2.2464 7.215 2.43717 7.13599 2.63608 7.13599C2.83499 7.13599 3.02576 7.215 3.16641 7.35566C3.30706 7.49631 3.38608 7.68707 3.38608 7.88599V12.0753L5.10571 10.3556C6.46928 8.99206 8.20656 8.06347 10.0979 7.68726C11.9892 7.31106 13.9496 7.50414 15.7312 8.24209C17.5127 8.98005 19.0355 10.2297 20.1068 11.8331C21.1782 13.4365 21.75 15.3215 21.75 17.2499Z" fill="#1D1F21" style="fill: var(--ui-icon-primary-color);"/>
</svg>
