<svg  viewBox="0 0 24 24" fill="none" xmlns="http://www.w3.org/2000/svg" id="__THIS_ID_NEEDS_FOR_UI_ICON_COMPONENT__">
<path d="M10.7196 21.5306L1.71963 12.5306C1.57903 12.3899 1.50005 12.1991 1.50005 12.0002C1.50005 11.8013 1.57903 11.6106 1.71963 11.4699L10.7196 2.46986C10.8245 2.36499 10.9582 2.29357 11.1037 2.26465C11.2491 2.23572 11.3999 2.25058 11.537 2.30734C11.674 2.36411 11.7912 2.46024 11.8736 2.58357C11.956 2.7069 12 2.8519 12 3.00023V6.75023H17.25C17.4489 6.75024 17.6397 6.82926 17.7803 6.96991C17.921 7.11056 18 7.30132 18 7.50023V16.5002C18 16.6991 17.921 16.8899 17.7803 17.0305C17.6397 17.1712 17.4489 17.2502 17.25 17.2502H12V21.0002C12 21.1486 11.956 21.2936 11.8736 21.4169C11.7912 21.5402 11.674 21.6363 11.537 21.6931C11.3999 21.7499 11.2491 21.7647 11.1037 21.7358C10.9582 21.7069 10.8245 21.6355 10.7196 21.5306ZM20.25 17.2502C20.4489 17.2502 20.6397 17.1712 20.7803 17.0305C20.921 16.8899 21 16.6991 21 16.5002V7.50023C21 7.30132 20.921 7.11055 20.7803 6.9699C20.6397 6.82925 20.4489 6.75023 20.25 6.75023C20.0511 6.75023 19.8603 6.82925 19.7197 6.9699C19.579 7.11055 19.5 7.30132 19.5 7.50023V16.5002C19.5 16.6991 19.579 16.8899 19.7197 17.0305C19.8603 17.1712 20.0511 17.2502 20.25 17.2502Z" fill="#1D1F21" style="fill: var(--ui-icon-primary-color);"/>
</svg>
