<svg  viewBox="0 0 24 24" fill="none" xmlns="http://www.w3.org/2000/svg" id="__THIS_ID_NEEDS_FOR_UI_ICON_COMPONENT__">
<path d="M18 7.49977V16.4998C18 16.6987 17.921 16.8894 17.7803 17.0301C17.6397 17.1708 17.4489 17.2498 17.25 17.2498C17.0511 17.2498 16.8603 17.1708 16.7197 17.0301C16.579 16.8894 16.5 16.6987 16.5 16.4998V7.49977C16.5 7.30086 16.579 7.11009 16.7197 6.96944C16.8603 6.82879 17.0511 6.74977 17.25 6.74977C17.4489 6.74977 17.6397 6.82879 17.7803 6.96944C17.921 7.11009 18 7.30086 18 7.49977ZM14.25 6.74977H12V2.99977C12 2.85143 11.956 2.70642 11.8736 2.58308C11.7912 2.45974 11.674 2.36361 11.537 2.30684C11.3999 2.25008 11.2491 2.23523 11.1037 2.26417C10.9582 2.29311 10.8245 2.36455 10.7196 2.46945L1.71964 11.4694C1.57903 11.6101 1.50005 11.8009 1.50005 11.9998C1.50005 12.1987 1.57903 12.3894 1.71964 12.5301L10.7196 21.5301C10.8245 21.635 10.9582 21.7064 11.1037 21.7354C11.2491 21.7643 11.3999 21.7495 11.537 21.6927C11.674 21.6359 11.7912 21.5398 11.8736 21.4165C11.956 21.2931 12 21.1481 12 20.9998V17.2498H14.25C14.4489 17.2498 14.6397 17.1707 14.7803 17.0301C14.921 16.8894 15 16.6987 15 16.4998V7.49977C15 7.30086 14.921 7.11009 14.7803 6.96944C14.6397 6.82879 14.4489 6.74977 14.25 6.74977ZM20.25 6.74977C20.0511 6.74977 19.8603 6.82879 19.7197 6.96944C19.579 7.11009 19.5 7.30086 19.5 7.49977V16.4998C19.5 16.6987 19.579 16.8894 19.7197 17.0301C19.8603 17.1708 20.0511 17.2498 20.25 17.2498C20.4489 17.2498 20.6397 17.1708 20.7803 17.0301C20.921 16.8894 21 16.6987 21 16.4998V7.49977C21 7.30086 20.921 7.11009 20.7803 6.96944C20.6397 6.82879 20.4489 6.74977 20.25 6.74977Z" fill="#1D1F21" style="fill: var(--ui-icon-primary-color);"/>
</svg>
