<svg  viewBox="0 0 24 24" fill="none" xmlns="http://www.w3.org/2000/svg" id="__THIS_ID_NEEDS_FOR_UI_ICON_COMPONENT__">
<path d="M17.8486 12.4501C17.8423 12.4585 17.8364 12.4671 17.8298 12.4752C17.814 12.4945 17.7973 12.513 17.7797 12.5306L11.03 19.2803C10.8893 19.4208 10.6986 19.4997 10.4998 19.4996C10.3009 19.4996 10.1103 19.4206 9.96969 19.28C9.8291 19.1394 9.75009 18.9487 9.75002 18.7499C9.74996 18.5511 9.82885 18.3604 9.96936 18.2197L15.439 12.75H2.24963C2.05072 12.75 1.85995 12.671 1.7193 12.5303C1.57865 12.3897 1.49963 12.1989 1.49963 12C1.49963 11.8011 1.57865 11.6103 1.7193 11.4697C1.85995 11.329 2.05072 11.25 2.24963 11.25H15.439L9.96936 5.78032C9.82885 5.63964 9.74996 5.44892 9.75002 5.2501C9.75009 5.05127 9.8291 4.8606 9.96969 4.72001C10.1103 4.57942 10.3009 4.50041 10.4998 4.50035C10.6986 4.50029 10.8893 4.57918 11.03 4.71968L17.7797 11.4694C17.7973 11.487 17.814 11.5055 17.8298 11.5247C17.8364 11.5329 17.8423 11.5415 17.8486 11.5499C17.857 11.5611 17.8656 11.5721 17.8734 11.5837C17.8803 11.5941 17.8863 11.6048 17.8927 11.6154C17.8989 11.6258 17.9054 11.6359 17.9111 11.6466C17.917 11.6575 17.9219 11.6688 17.9272 11.6799C17.9324 11.691 17.9379 11.7018 17.9426 11.7131C17.947 11.7239 17.9506 11.735 17.9546 11.7459C17.9589 11.758 17.9636 11.77 17.9673 11.7824C17.9707 11.7934 17.9731 11.8047 17.9759 11.8158C17.9791 11.8283 17.9826 11.8407 17.9851 11.8535C17.9877 11.8664 17.9892 11.8795 17.9911 11.8925C17.9927 11.9037 17.9948 11.9147 17.9959 11.9261C17.9983 11.95 17.9995 11.9739 17.9995 11.9979L17.9996 12L17.9995 12.0021C17.9995 12.0261 17.9983 12.05 17.9959 12.0739C17.9948 12.0853 17.9927 12.0963 17.9911 12.1076C17.9892 12.1206 17.9877 12.1336 17.9851 12.1465C17.9826 12.1593 17.9791 12.1717 17.9759 12.1842C17.9731 12.1954 17.9707 12.2066 17.9673 12.2176C17.9636 12.23 17.9589 12.242 17.9546 12.2541C17.9506 12.265 17.947 12.2761 17.9426 12.2869C17.9379 12.2982 17.9324 12.309 17.9272 12.3201C17.9219 12.3312 17.917 12.3425 17.9111 12.3534C17.9054 12.3641 17.8989 12.3742 17.8927 12.3846C17.8863 12.3952 17.8803 12.4059 17.8734 12.4163C17.8656 12.4279 17.857 12.4389 17.8486 12.4501ZM20.2496 3.75C20.0507 3.75 19.86 3.82902 19.7193 3.96967C19.5786 4.11032 19.4996 4.30109 19.4996 4.5V19.5C19.4996 19.6989 19.5786 19.8897 19.7193 20.0303C19.86 20.171 20.0507 20.25 20.2496 20.25C20.4485 20.25 20.6393 20.171 20.78 20.0303C20.9206 19.8897 20.9996 19.6989 20.9996 19.5V4.5C20.9996 4.40151 20.9802 4.30398 20.9425 4.21298C20.9049 4.12199 20.8496 4.03931 20.78 3.96966C20.7103 3.90002 20.6276 3.84477 20.5366 3.80708C20.4457 3.76939 20.3481 3.75 20.2496 3.75Z" fill="#1D1F21" style="fill: var(--ui-icon-primary-color);"/>
</svg>
