<svg  viewBox="0 0 24 24" fill="none" xmlns="http://www.w3.org/2000/svg" id="__THIS_ID_NEEDS_FOR_UI_ICON_COMPONENT__">
<path d="M19.5 21C19.4999 21.1989 19.4209 21.3897 19.2803 21.5303C19.1396 21.671 18.9489 21.75 18.75 21.75C16.165 21.7471 13.6867 20.7189 11.8589 18.8911C10.0311 17.0632 9.00288 14.585 8.99996 12V4.81067L5.78032 8.03037C5.63966 8.17103 5.44888 8.25006 5.24996 8.25006C5.05103 8.25006 4.86025 8.17103 4.71959 8.03037C4.57893 7.88971 4.49991 7.69893 4.49991 7.50001C4.49991 7.30108 4.57893 7.1103 4.71959 6.96964L9.21959 2.46964C9.22461 2.46465 9.23005 2.4604 9.23516 2.45559C9.24793 2.4435 9.26068 2.43142 9.27425 2.42025C9.28405 2.41221 9.29432 2.40518 9.30442 2.39772C9.31401 2.39058 9.32334 2.38314 9.3333 2.37648C9.34438 2.36907 9.35587 2.36261 9.36724 2.35586C9.37695 2.35007 9.38642 2.34398 9.3964 2.33865C9.40748 2.33272 9.41888 2.32768 9.43018 2.32235C9.44112 2.31718 9.4519 2.31173 9.46312 2.30708C9.47367 2.30271 9.48445 2.29921 9.49516 2.29534C9.50759 2.29086 9.51988 2.28612 9.53258 2.28227C9.54286 2.27916 9.5533 2.27692 9.56364 2.27428C9.57699 2.27087 9.59019 2.26717 9.60381 2.26447C9.61519 2.26222 9.6267 2.26094 9.63814 2.25925C9.65089 2.25732 9.66348 2.25497 9.67644 2.25371C9.69536 2.25185 9.71436 2.25126 9.73336 2.25082C9.73894 2.25071 9.74435 2.25 9.74995 2.25C9.75556 2.25 9.76096 2.25071 9.76655 2.25082C9.78554 2.25126 9.80454 2.25186 9.82347 2.25371C9.83642 2.25497 9.84901 2.25732 9.86176 2.25925C9.87321 2.26094 9.88472 2.26222 9.89609 2.26447C9.90971 2.26717 9.92292 2.27087 9.93626 2.27428C9.94661 2.27692 9.95705 2.27916 9.96732 2.28227C9.98003 2.28612 9.99232 2.29086 10.0047 2.29534C10.0155 2.29921 10.0262 2.30271 10.0368 2.30708C10.048 2.31173 10.0588 2.31718 10.0697 2.32235C10.081 2.32768 10.0924 2.33272 10.1035 2.33865C10.1135 2.34398 10.123 2.35007 10.1327 2.35586C10.144 2.36261 10.1555 2.36906 10.1666 2.37648C10.1766 2.38314 10.1859 2.39058 10.1955 2.39772C10.2056 2.40518 10.2159 2.41221 10.2257 2.42025C10.2392 2.43141 10.252 2.4435 10.2648 2.45559C10.2699 2.4604 10.2753 2.46465 10.2803 2.46964L14.7803 6.96964C14.921 7.1103 15 7.30108 15 7.50001C15 7.69893 14.921 7.88971 14.7803 8.03037C14.6397 8.17103 14.4489 8.25006 14.2499 8.25006C14.051 8.25006 13.8602 8.17103 13.7196 8.03037L10.5 4.81067V12C10.5024 14.1873 11.3724 16.2843 12.9191 17.8309C14.4657 19.3775 16.5627 20.2475 18.75 20.25C18.9489 20.25 19.1396 20.329 19.2803 20.4697C19.4209 20.6103 19.4999 20.8011 19.5 21Z" fill="#1D1F21" style="fill: var(--ui-icon-primary-color);"/>
</svg>
