<svg  viewBox="0 0 24 24" fill="none" xmlns="http://www.w3.org/2000/svg" id="__THIS_ID_NEEDS_FOR_UI_ICON_COMPONENT__">
<path d="M12 2.25C10.0716 2.25 8.18658 2.82183 6.5832 3.89317C4.97982 4.96451 3.73014 6.48726 2.99219 8.26884C2.25423 10.0504 2.06115 12.0108 2.43736 13.9021C2.81356 15.7934 3.74216 17.5307 5.10572 18.8943C6.46928 20.2579 8.20657 21.1865 10.0979 21.5627C11.9892 21.9389 13.9496 21.7458 15.7312 21.0078C17.5128 20.2699 19.0355 19.0202 20.1068 17.4168C21.1782 15.8134 21.75 13.9284 21.75 12C21.747 9.41506 20.7188 6.93684 18.891 5.10901C17.0632 3.28118 14.585 2.25299 12 2.25ZM15.7119 13.0986L12.5312 16.2794C12.3902 16.42 12.1992 16.499 12 16.499C11.8009 16.499 11.6098 16.42 11.4688 16.2794L8.2881 13.0986C8.14771 12.9579 8.06891 12.7673 8.06902 12.5685C8.06912 12.3698 8.14812 12.1792 8.28866 12.0387C8.4292 11.8981 8.61978 11.8191 8.81854 11.819C9.01729 11.8189 9.20796 11.8977 9.34864 12.0381L11.25 13.9395V8.25C11.25 8.05109 11.329 7.86032 11.4697 7.71967C11.6103 7.57902 11.8011 7.5 12 7.5C12.1989 7.5 12.3897 7.57902 12.5303 7.71967C12.671 7.86032 12.75 8.05109 12.75 8.25V13.9395L14.6514 12.0381C14.7921 11.8977 14.9827 11.8189 15.1815 11.819C15.3802 11.8191 15.5708 11.8981 15.7114 12.0387C15.8519 12.1792 15.9309 12.3698 15.931 12.5685C15.9311 12.7673 15.8523 12.9579 15.7119 13.0986Z" fill="#1D1F21" style="fill: var(--ui-icon-primary-color);"/>
</svg>
