<svg  viewBox="0 0 24 24" fill="none" xmlns="http://www.w3.org/2000/svg" id="__THIS_ID_NEEDS_FOR_UI_ICON_COMPONENT__">
<path d="M19.7942 16.5C19.745 16.5853 19.6795 16.6601 19.6013 16.7201C19.5232 16.7801 19.434 16.8241 19.3389 16.8496C19.2437 16.8751 19.1445 16.8816 19.0468 16.8687C18.9492 16.8558 18.855 16.8238 18.7697 16.7745L12.75 13.299V20.25C12.75 20.4489 12.671 20.6397 12.5303 20.7803C12.3897 20.921 12.1989 21 12 21C11.8011 21 11.6103 20.921 11.4697 20.7803C11.329 20.6397 11.25 20.4489 11.25 20.25V13.299L5.23026 16.7745C5.14496 16.8238 5.0508 16.8557 4.95315 16.8686C4.8555 16.8814 4.75628 16.8749 4.66114 16.8494C4.56601 16.824 4.47682 16.78 4.39868 16.72C4.32055 16.6601 4.25498 16.5853 4.20574 16.5C4.15649 16.4147 4.12453 16.3205 4.11167 16.2229C4.09882 16.1252 4.10532 16.026 4.13081 15.9309C4.1563 15.8357 4.20028 15.7466 4.26024 15.6684C4.3202 15.5903 4.39496 15.5247 4.48026 15.4755L10.5 12L4.48026 8.52452C4.30799 8.42506 4.18229 8.26125 4.13081 8.06912C4.10532 7.97398 4.09882 7.87475 4.11167 7.77711C4.12453 7.67946 4.15649 7.5853 4.20574 7.5C4.25498 7.4147 4.32055 7.33994 4.39868 7.27998C4.47682 7.22003 4.56601 7.17605 4.66114 7.15055C4.85328 7.09907 5.05799 7.12602 5.23026 7.22548L11.25 10.701V3.75C11.25 3.55109 11.329 3.36032 11.4697 3.21967C11.6103 3.07902 11.8011 3 12 3C12.1989 3 12.3897 3.07902 12.5303 3.21967C12.671 3.36032 12.75 3.55109 12.75 3.75V10.701L18.7697 7.22548C18.942 7.12602 19.1467 7.09907 19.3388 7.15055C19.531 7.20204 19.6948 7.32774 19.7942 7.5C19.8937 7.67226 19.9206 7.87698 19.8692 8.06912C19.8177 8.26125 19.692 8.42506 19.5197 8.52452L13.5 12L19.5197 15.4755C19.692 15.5749 19.8177 15.7388 19.8692 15.9309C19.9206 16.123 19.8937 16.3277 19.7942 16.5Z" fill="#1D1F21" style="fill: var(--ui-icon-primary-color);"/>
</svg>
