<svg  viewBox="0 0 24 24" fill="none" xmlns="http://www.w3.org/2000/svg" id="__THIS_ID_NEEDS_FOR_UI_ICON_COMPONENT__">
<path d="M20.2495 3.74976H6.42435C6.16557 3.75081 5.9114 3.8183 5.68619 3.94578C5.46099 4.07326 5.2723 4.25645 5.13822 4.47778L0.856478 11.6138C0.786738 11.7304 0.749911 11.8638 0.749911 11.9998C0.749911 12.1357 0.786738 12.2691 0.856478 12.3857L5.13822 19.5217V19.5225C5.27233 19.7437 5.46104 19.9268 5.68625 20.0542C5.91146 20.1815 6.16562 20.2489 6.42435 20.2498H20.2495C20.6472 20.2494 21.0286 20.0912 21.3098 19.81C21.591 19.5288 21.7492 19.1475 21.7495 18.7498V5.24976C21.7492 4.85205 21.591 4.47075 21.3098 4.18953C21.0286 3.90831 20.6472 3.75015 20.2495 3.74976ZM15.5298 13.7195C15.5996 13.7891 15.6549 13.8718 15.6927 13.9628C15.7305 14.0538 15.75 14.1514 15.75 14.2499C15.7501 14.3485 15.7307 14.4461 15.693 14.5371C15.6553 14.6282 15.6001 14.7109 15.5304 14.7806C15.4607 14.8503 15.378 14.9055 15.2869 14.9432C15.1959 14.9809 15.0983 15.0003 14.9997 15.0002C14.9012 15.0002 14.8036 14.9807 14.7126 14.9429C14.6216 14.9051 14.5389 14.8498 14.4693 14.78L12.7495 13.0603L11.0298 14.78C10.8891 14.9204 10.6985 14.9992 10.4997 14.9991C10.301 14.999 10.1104 14.92 9.96984 14.7795C9.8293 14.6389 9.7503 14.4483 9.75019 14.2496C9.75008 14.0508 9.82888 13.8602 9.96927 13.7195L11.689 11.9998L9.96927 10.28C9.82888 10.1393 9.75008 9.94867 9.75019 9.74992C9.7503 9.55117 9.8293 9.36059 9.96984 9.22005C10.1104 9.07951 10.301 9.00051 10.4997 9.0004C10.6985 9.00029 10.8891 9.07909 11.0298 9.21948L12.7495 10.9392L14.4693 9.21948C14.61 9.07909 14.8006 9.00029 14.9994 9.0004C15.1981 9.00051 15.3887 9.07951 15.5293 9.22005C15.6698 9.36059 15.7488 9.55117 15.7489 9.74992C15.749 9.94867 15.6702 10.1393 15.5298 10.28L13.8101 11.9998L15.5298 13.7195Z" fill="#1D1F21" style="fill: var(--ui-icon-primary-color);"/>
</svg>
