<svg  viewBox="0 0 24 24" fill="none" xmlns="http://www.w3.org/2000/svg" id="__THIS_ID_NEEDS_FOR_UI_ICON_COMPONENT__">
<path d="M10.875 12C10.875 11.7775 10.9409 11.56 11.0645 11.375C11.1882 11.19 11.3639 11.0458 11.5694 10.9607C11.775 10.8755 12.0012 10.8532 12.2194 10.8966C12.4377 10.94 12.6381 11.0472 12.7954 11.2045C12.9528 11.3619 13.0599 11.5623 13.1033 11.7805C13.1467 11.9988 13.1245 12.225 13.0393 12.4305C12.9542 12.6361 12.81 12.8118 12.625 12.9354C12.44 13.059 12.2225 13.125 12 13.125C11.7016 13.125 11.4154 13.0065 11.2045 12.7955C10.9935 12.5845 10.875 12.2984 10.875 12ZM19.9016 14.5984C20.2498 14.9466 20.526 15.36 20.7145 15.815C20.9029 16.2699 20.9999 16.7576 20.9999 17.25C20.9999 17.7425 20.9029 18.2301 20.7145 18.6851C20.526 19.1401 20.2498 19.5534 19.9016 19.9017C19.5534 20.2499 19.14 20.5261 18.685 20.7146C18.23 20.903 17.7424 21 17.25 21C16.7575 21 16.2699 20.903 15.8149 20.7146C15.3599 20.5261 14.9465 20.2499 14.5983 19.9017L12 17.3033L9.40159 19.9017C9.05356 20.2507 8.64012 20.5278 8.18493 20.7169C7.72973 20.906 7.24171 21.0036 6.74879 21.004C6.25586 21.0043 5.7677 20.9075 5.31223 20.719C4.85675 20.5306 4.4429 20.2542 4.09435 19.9056C3.7458 19.557 3.46939 19.1432 3.28093 18.6877C3.09246 18.2322 2.99564 17.7441 2.99601 17.2512C2.99638 16.7582 3.09392 16.2702 3.28307 15.815C3.47221 15.3598 3.74924 14.9464 4.09831 14.5984L6.69667 12L4.09831 9.40167C3.75009 9.05345 3.47387 8.64005 3.28541 8.18508C3.09696 7.73011 2.99996 7.24248 2.99996 6.75002C2.99996 6.25757 3.09696 5.76994 3.28541 5.31497C3.47387 4.86 3.75009 4.4466 4.09831 4.09838C4.44653 3.75016 4.85992 3.47394 5.31489 3.28549C5.76986 3.09703 6.2575 3.00004 6.74995 3.00004C7.24241 3.00004 7.73004 3.09703 8.18501 3.28549C8.63998 3.47394 9.05337 3.75016 9.40159 4.09838L12 6.69674L14.5983 4.09838C14.9463 3.74931 15.3598 3.47229 15.815 3.28314C16.2702 3.094 16.7582 2.99646 17.2511 2.99609C17.744 2.99573 18.2322 3.09255 18.6877 3.28102C19.1431 3.46948 19.557 3.7459 19.9055 4.09445C20.2541 4.443 20.5305 4.85685 20.719 5.31233C20.9074 5.7678 21.0043 6.25596 21.0039 6.74889C21.0035 7.24182 20.906 7.72983 20.7168 8.18503C20.5277 8.64022 20.2507 9.05366 19.9016 9.40169L17.3032 12L19.9016 14.5984ZM8.81804 12L12 15.1819L15.1819 12L12 8.81811L8.81804 12ZM13.0606 7.75743L16.2425 10.9393L18.8409 8.34103C19.0499 8.13213 19.2158 7.8841 19.329 7.61109C19.4422 7.33808 19.5005 7.04545 19.5005 6.74991C19.5006 6.45437 19.4424 6.16171 19.3294 5.88865C19.2163 5.61559 19.0505 5.36748 18.8416 5.1585C18.6326 4.94951 18.3845 4.78375 18.1114 4.67067C17.8384 4.55759 17.5457 4.49941 17.2502 4.49946C16.9547 4.49951 16.662 4.55778 16.389 4.67095C16.116 4.78412 15.8679 4.94997 15.659 5.15902L13.0606 7.75743ZM10.9393 16.2426L7.75735 13.0607L5.15904 15.659C4.94997 15.8679 4.78411 16.1159 4.67093 16.389C4.55774 16.662 4.49945 16.9546 4.49938 17.2501C4.49932 17.5457 4.55748 17.8383 4.67054 18.1114C4.78361 18.3845 4.94936 18.6326 5.15834 18.8415C5.36731 19.0505 5.61541 19.2163 5.88846 19.3294C6.16151 19.4425 6.45417 19.5006 6.74971 19.5006C7.04525 19.5005 7.33788 19.4423 7.6109 19.3291C7.88391 19.2159 8.13196 19.0501 8.34086 18.841L10.9393 16.2426Z" fill="#1D1F21" style="fill: var(--ui-icon-primary-color);"/>
</svg>
