<svg  viewBox="0 0 24 24" fill="none" xmlns="http://www.w3.org/2000/svg" id="__THIS_ID_NEEDS_FOR_UI_ICON_COMPONENT__">
<path d="M23.2502 19.5C23.2502 19.6989 23.1712 19.8896 23.0305 20.0303C22.8899 20.1709 22.6991 20.2499 22.5002 20.25H1.50023C1.30132 20.25 1.11055 20.1709 0.969899 20.0303C0.829246 19.8896 0.750229 19.6989 0.750229 19.5C0.750229 19.301 0.829246 19.1103 0.969899 18.9696C1.11055 18.829 1.30132 18.75 1.50023 18.75H22.5002C22.6991 18.75 22.8899 18.829 23.0305 18.9696C23.1712 19.1103 23.2502 19.301 23.2502 19.5ZM4.50023 15.75V9.74995H3.00023C2.83927 9.74994 2.68258 9.69815 2.55332 9.60223C2.42406 9.50631 2.32909 9.37134 2.28245 9.21729C2.23581 9.06323 2.23996 8.89826 2.2943 8.74675C2.34865 8.59523 2.45029 8.46522 2.58421 8.37593L11.5842 2.37593C11.7074 2.29382 11.8522 2.25 12.0002 2.25C12.1483 2.25 12.293 2.29382 12.4162 2.37593L21.4162 8.37593C21.5502 8.46522 21.6518 8.59523 21.7062 8.74675C21.7605 8.89826 21.7647 9.06323 21.718 9.21729C21.6714 9.37134 21.5764 9.50631 21.4471 9.60223C21.3179 9.69815 21.1612 9.74994 21.0002 9.74995H19.5002V15.75H21.0002C21.1991 15.75 21.3899 15.829 21.5306 15.9696C21.6712 16.1103 21.7502 16.301 21.7502 16.5C21.7502 16.6989 21.6712 16.8896 21.5306 17.0303C21.3899 17.1709 21.1991 17.25 21.0002 17.25H3.00023C2.80132 17.25 2.61055 17.1709 2.4699 17.0303C2.32925 16.8896 2.25023 16.6989 2.25023 16.5C2.25023 16.301 2.32925 16.1103 2.4699 15.9696C2.61055 15.829 2.80132 15.75 3.00023 15.75H4.50023ZM13.5002 15C13.5002 15.1989 13.5792 15.3896 13.7199 15.5303C13.8606 15.6709 14.0513 15.75 14.2502 15.75C14.4491 15.75 14.6399 15.6709 14.7806 15.5303C14.9212 15.3896 15.0002 15.1989 15.0002 15V10.5C15.0002 10.301 14.9212 10.1103 14.7806 9.96962C14.6399 9.82897 14.4491 9.74995 14.2502 9.74995C14.0513 9.74995 13.8606 9.82897 13.7199 9.96962C13.5792 10.1103 13.5002 10.301 13.5002 10.5V15ZM9.00023 15C9.00023 15.1989 9.07925 15.3896 9.2199 15.5303C9.36055 15.6709 9.55132 15.75 9.75023 15.75C9.94914 15.75 10.1399 15.6709 10.2806 15.5303C10.4212 15.3896 10.5002 15.1989 10.5002 15V10.5C10.5002 10.301 10.4212 10.1103 10.2806 9.96962C10.1399 9.82897 9.94914 9.74995 9.75023 9.74995C9.55132 9.74995 9.36055 9.82897 9.2199 9.96962C9.07925 10.1103 9.00023 10.301 9.00023 10.5V15Z" fill="#1D1F21" style="fill: var(--ui-icon-primary-color);"/>
</svg>
