<svg  viewBox="0 0 24 24" fill="none" xmlns="http://www.w3.org/2000/svg" id="__THIS_ID_NEEDS_FOR_UI_ICON_COMPONENT__">
<path d="M21.75 6.75H20.25V6C20.2495 5.60231 20.0914 5.22105 19.8102 4.93984C19.529 4.65864 19.1477 4.50045 18.75 4.5H16.5C16.1023 4.50045 15.721 4.65864 15.4398 4.93984C15.1586 5.22105 15.0005 5.60231 15 6V11.25H9V6C8.99955 5.60231 8.84136 5.22105 8.56016 4.93984C8.27895 4.65864 7.89769 4.50045 7.5 4.5H5.25C4.85231 4.50045 4.47105 4.65864 4.18984 4.93984C3.90864 5.22105 3.75045 5.60231 3.75 6V6.75H2.25C1.85231 6.75045 1.47105 6.90864 1.18984 7.18984C0.908636 7.47105 0.750455 7.85231 0.75 8.25V15.75C0.750455 16.1477 0.908636 16.529 1.18984 16.8102C1.47105 17.0914 1.85231 17.2495 2.25 17.25H3.75V18C3.75045 18.3977 3.90864 18.779 4.18984 19.0602C4.47105 19.3414 4.85231 19.4995 5.25 19.5H7.5C7.89769 19.4995 8.27895 19.3414 8.56016 19.0602C8.84136 18.779 8.99955 18.3977 9 18V12.75H15V18C15.0005 18.3977 15.1586 18.779 15.4398 19.0602C15.721 19.3414 16.1023 19.4995 16.5 19.5H18.75C19.1477 19.4995 19.529 19.3414 19.8102 19.0602C20.0914 18.779 20.2495 18.3977 20.25 18V17.25H21.75C22.1477 17.2495 22.529 17.0914 22.8102 16.8102C23.0914 16.529 23.2495 16.1477 23.25 15.75V8.25C23.2495 7.85231 23.0914 7.47105 22.8102 7.18984C22.529 6.90864 22.1477 6.75045 21.75 6.75ZM2.25 15.75V8.25H3.75V15.75H2.25ZM21.75 15.75H20.25V8.25H21.75V15.75Z" fill="#1D1F21" style="fill: var(--ui-icon-primary-color);"/>
</svg>
