<svg  viewBox="0 0 24 24" fill="none" xmlns="http://www.w3.org/2000/svg" id="__THIS_ID_NEEDS_FOR_UI_ICON_COMPONENT__">
<path d="M23.25 8.99994V14.9999C23.25 15.1989 23.171 15.3896 23.0303 15.5303C22.8897 15.6709 22.6989 15.7499 22.5 15.7499C22.3011 15.7499 22.1103 15.6709 21.9697 15.5303C21.829 15.3896 21.75 15.1989 21.75 14.9999V8.99994C21.75 8.80103 21.829 8.61026 21.9697 8.46961C22.1103 8.32896 22.3011 8.24994 22.5 8.24994C22.6989 8.24994 22.8897 8.32896 23.0303 8.46961C23.171 8.61026 23.25 8.80103 23.25 8.99994ZM20.25 6.74976V17.2498C20.2493 17.8463 20.0121 18.4182 19.5903 18.84C19.1685 19.2618 18.5965 19.4991 18 19.4998H3.75C3.15346 19.4991 2.58154 19.2618 2.15973 18.84C1.73791 18.4182 1.50065 17.8463 1.5 17.2498V6.74976C1.50065 6.15322 1.73791 5.5813 2.15973 5.15948C2.58154 4.73767 3.15346 4.50041 3.75 4.49976H18C18.5965 4.50041 19.1685 4.73767 19.5903 5.15948C20.0121 5.5813 20.2493 6.15322 20.25 6.74976ZM12.9961 11.5793C12.9274 11.4778 12.8348 11.3947 12.7266 11.3373C12.6183 11.2798 12.4976 11.2498 12.375 11.2498H10.4824L11.5708 8.52808C11.6075 8.43668 11.6258 8.33894 11.6247 8.24046C11.6236 8.14197 11.6031 8.04467 11.5643 7.95412C11.5256 7.86357 11.4694 7.78155 11.3989 7.71274C11.3284 7.64393 11.2451 7.58968 11.1537 7.5531C11.0622 7.51652 10.9645 7.49833 10.866 7.49956C10.7675 7.50079 10.6702 7.52142 10.5797 7.56028C10.4892 7.59913 10.4073 7.65544 10.3385 7.72599C10.2698 7.79654 10.2157 7.87994 10.1792 7.97144L8.6792 11.7214C8.63357 11.8352 8.61653 11.9584 8.62958 12.0802C8.64263 12.2021 8.68536 12.3189 8.75404 12.4204C8.82271 12.5219 8.91524 12.605 9.0235 12.6624C9.13176 12.7198 9.25245 12.7498 9.375 12.7498H11.2676L10.1792 15.4714C10.1425 15.5628 10.1242 15.6606 10.1253 15.7591C10.1264 15.8575 10.1469 15.9548 10.1857 16.0454C10.2244 16.1359 10.2806 16.218 10.3511 16.2868C10.4216 16.3556 10.5049 16.4098 10.5963 16.4464C10.6878 16.483 10.7855 16.5012 10.884 16.5C10.9825 16.4987 11.0798 16.4781 11.1703 16.4392C11.2608 16.4004 11.3427 16.3441 11.4115 16.2735C11.4802 16.203 11.5343 16.1196 11.5708 16.0281L13.0708 12.2781C13.1163 12.1644 13.1333 12.0412 13.1202 11.9194C13.1072 11.7976 13.0646 11.6809 12.9961 11.5793Z" fill="#1D1F21" style="fill: var(--ui-icon-primary-color);"/>
</svg>
