<svg  viewBox="0 0 24 24" fill="none" xmlns="http://www.w3.org/2000/svg" id="__THIS_ID_NEEDS_FOR_UI_ICON_COMPONENT__">
<path d="M23.25 9V15C23.25 15.1989 23.171 15.3897 23.0303 15.5303C22.8897 15.671 22.6989 15.75 22.5 15.75C22.3011 15.75 22.1103 15.671 21.9697 15.5303C21.829 15.3897 21.75 15.1989 21.75 15V9C21.75 8.80109 21.829 8.61032 21.9697 8.46967C22.1103 8.32902 22.3011 8.25 22.5 8.25C22.6989 8.25 22.8897 8.32902 23.0303 8.46967C23.171 8.61032 23.25 8.80109 23.25 9ZM20.25 6.75V17.25C20.2493 17.8465 20.012 18.4184 19.5902 18.8402C19.1684 19.262 18.5965 19.4993 18 19.5H3.75C3.15347 19.4993 2.58157 19.262 2.15976 18.8402C1.73795 18.4184 1.50068 17.8465 1.5 17.25V6.75C1.50068 6.15347 1.73795 5.58157 2.15976 5.15976C2.58157 4.73795 3.15347 4.50068 3.75 4.5H18C18.5965 4.50068 19.1684 4.73795 19.5902 5.15976C20.012 5.58157 20.2493 6.15347 20.25 6.75ZM10.125 12C10.125 12.1989 10.204 12.3897 10.3447 12.5303C10.4853 12.671 10.6761 12.75 10.875 12.75C11.0739 12.75 11.2647 12.671 11.4053 12.5303C11.546 12.3897 11.625 12.1989 11.625 12V8.25C11.625 8.05109 11.546 7.86032 11.4053 7.71967C11.2647 7.57902 11.0739 7.5 10.875 7.5C10.6761 7.5 10.4853 7.57902 10.3447 7.71967C10.204 7.86032 10.125 8.05109 10.125 8.25V12ZM12 15.375C12 15.1525 11.934 14.935 11.8104 14.75C11.6868 14.565 11.5111 14.4208 11.3055 14.3356C11.1 14.2505 10.8738 14.2282 10.6555 14.2716C10.4373 14.315 10.2368 14.4222 10.0795 14.5795C9.92217 14.7368 9.81502 14.9373 9.77162 15.1555C9.72821 15.3738 9.75049 15.6 9.83564 15.8055C9.92078 16.0111 10.065 16.1868 10.25 16.3104C10.435 16.434 10.6525 16.5 10.875 16.5C11.1733 16.4997 11.4592 16.381 11.6701 16.1701C11.881 15.9592 11.9997 15.6733 12 15.375Z" fill="#1D1F21" style="fill: var(--ui-icon-primary-color);"/>
</svg>
