<svg  viewBox="0 0 24 24" fill="none" xmlns="http://www.w3.org/2000/svg" id="__THIS_ID_NEEDS_FOR_UI_ICON_COMPONENT__">
<path d="M23.25 9.00073V15.0007C23.25 15.1996 23.171 15.3904 23.0303 15.5311C22.8897 15.6717 22.6989 15.7507 22.5 15.7507C22.3011 15.7507 22.1103 15.6717 21.9697 15.5311C21.829 15.3904 21.75 15.1996 21.75 15.0007V9.00073C21.75 8.80182 21.829 8.61105 21.9697 8.4704C22.1103 8.32975 22.3011 8.25073 22.5 8.25073C22.6989 8.25073 22.8897 8.32975 23.0303 8.4704C23.171 8.61105 23.25 8.80182 23.25 9.00073ZM20.25 6.75073V17.2507C20.2493 17.8473 20.0121 18.4192 19.5903 18.841C19.1685 19.2628 18.5965 19.5001 18 19.5007H3.75C3.15346 19.5001 2.58154 19.2628 2.15973 18.841C1.73791 18.4192 1.50065 17.8473 1.5 17.2507V6.75073C1.50065 6.1542 1.73791 5.58228 2.15973 5.16046C2.58154 4.73865 3.15346 4.50138 3.75 4.50073H18C18.5965 4.50138 19.1685 4.73865 19.5903 5.16046C20.0121 5.58228 20.2493 6.1542 20.25 6.75073ZM18.75 6.75073C18.7497 6.5519 18.6706 6.36128 18.53 6.22069C18.3894 6.08009 18.1988 6.00099 18 6.00073H3.75C3.55117 6.00099 3.36055 6.08009 3.21996 6.22069C3.07936 6.36128 3.00026 6.5519 3 6.75073V17.2507C3.00026 17.4496 3.07936 17.6402 3.21996 17.7808C3.36055 17.9214 3.55117 18.0005 3.75 18.0007H18C18.1988 18.0005 18.3894 17.9214 18.53 17.7808C18.6706 17.6402 18.7497 17.4496 18.75 17.2507V6.75073ZM12.75 7.50073H5.25C5.15149 7.50068 5.05394 7.52004 4.96292 7.55771C4.8719 7.59538 4.7892 7.65062 4.71954 7.72028C4.64989 7.78993 4.59465 7.87263 4.55697 7.96365C4.5193 8.05467 4.49994 8.15223 4.5 8.25073V15.7507C4.49994 15.8492 4.5193 15.9468 4.55697 16.0378C4.59465 16.1288 4.64989 16.2115 4.71954 16.2812C4.7892 16.3508 4.8719 16.4061 4.96292 16.4438C5.05394 16.4814 5.15149 16.5008 5.25 16.5007H12.75C12.8485 16.5008 12.9461 16.4814 13.0371 16.4438C13.1281 16.4061 13.2108 16.3508 13.2805 16.2812C13.3501 16.2115 13.4054 16.1288 13.443 16.0378C13.4807 15.9468 13.5001 15.8492 13.5 15.7507V8.25073C13.5001 8.15223 13.4807 8.05467 13.443 7.96365C13.4054 7.87263 13.3501 7.78993 13.2805 7.72028C13.2108 7.65062 13.1281 7.59538 13.0371 7.55771C12.9461 7.52004 12.8485 7.50068 12.75 7.50073Z" fill="#1D1F21" style="fill: var(--ui-icon-primary-color);"/>
</svg>
