<svg  viewBox="0 0 24 24" fill="none" xmlns="http://www.w3.org/2000/svg" id="__THIS_ID_NEEDS_FOR_UI_ICON_COMPONENT__">
<path d="M8.25 1.5C8.25 1.30109 8.32902 1.11032 8.46967 0.969672C8.61032 0.82902 8.80109 0.750002 9 0.75H15C15.1989 0.75 15.3897 0.829018 15.5303 0.96967C15.671 1.11032 15.75 1.30109 15.75 1.5C15.75 1.69891 15.671 1.88968 15.5303 2.03033C15.3897 2.17098 15.1989 2.25 15 2.25H9C8.80109 2.25 8.61032 2.17098 8.46967 2.03033C8.32902 1.88968 8.25 1.69891 8.25 1.5ZM19.5 6.00073V20.2507C19.4993 20.8473 19.2621 21.4192 18.8403 21.841C18.4185 22.2628 17.8465 22.5001 17.25 22.5007H6.75C6.15346 22.5001 5.58154 22.2628 5.15973 21.841C4.73791 21.4192 4.50065 20.8473 4.5 20.2507V6.00073C4.50065 5.4042 4.73791 4.83228 5.15973 4.41046C5.58155 3.98865 6.15346 3.75138 6.75 3.75073H17.25C17.8465 3.75138 18.4185 3.98865 18.8403 4.41046C19.2621 4.83228 19.4993 5.4042 19.5 6.00073ZM14.1211 12.7053C14.0525 12.6037 13.96 12.5205 13.8517 12.463C13.7434 12.4056 13.6226 12.3756 13.5 12.3757L11.6074 12.3743L12.6965 9.65405C12.7331 9.56258 12.7513 9.46481 12.75 9.36631C12.7488 9.26782 12.7282 9.17053 12.6893 9.08001C12.6505 8.98949 12.5942 8.9075 12.5237 8.83873C12.4532 8.76996 12.3698 8.71575 12.2783 8.6792C12.1869 8.64265 12.0891 8.62447 11.9906 8.62571C11.8921 8.62695 11.7948 8.64757 11.7043 8.68641C11.6138 8.72524 11.5318 8.78153 11.463 8.85205C11.3942 8.92257 11.34 9.00594 11.3035 9.09741L9.80347 12.8459C9.75801 12.9597 9.74113 13.083 9.7543 13.2048C9.76747 13.3266 9.81029 13.4434 9.87901 13.5448C9.94774 13.6463 10.0403 13.7294 10.1485 13.7868C10.2568 13.8442 10.3775 13.8743 10.5 13.8743L12.3926 13.8757L11.3035 16.5974C11.2297 16.7821 11.2322 16.9886 11.3107 17.1715C11.3891 17.3543 11.5369 17.4985 11.7217 17.5723C11.9064 17.6461 12.1129 17.6435 12.2957 17.5651C12.4785 17.4866 12.6227 17.3388 12.6965 17.1541L14.1965 13.4041C14.2419 13.2903 14.2588 13.1671 14.2456 13.0453C14.2325 12.9235 14.1897 12.8068 14.1211 12.7053Z" fill="#1D1F21" style="fill: var(--ui-icon-primary-color);"/>
</svg>
