<svg  viewBox="0 0 24 24" fill="none" xmlns="http://www.w3.org/2000/svg" id="__THIS_ID_NEEDS_FOR_UI_ICON_COMPONENT__">
<path d="M23.25 9V15C23.25 15.1989 23.171 15.3897 23.0303 15.5303C22.8897 15.671 22.6989 15.75 22.5 15.75C22.3011 15.75 22.1103 15.671 21.9697 15.5303C21.829 15.3897 21.75 15.1989 21.75 15V9C21.75 8.80109 21.829 8.61032 21.9697 8.46967C22.1103 8.32902 22.3011 8.25 22.5 8.25C22.6989 8.25 22.8897 8.32902 23.0303 8.46967C23.171 8.61032 23.25 8.80109 23.25 9ZM20.25 6.75V17.25C20.2493 17.8465 20.012 18.4184 19.5902 18.8402C19.1684 19.262 18.5965 19.4993 18 19.5H3.75C3.15347 19.4993 2.58157 19.262 2.15976 18.8402C1.73795 18.4184 1.50068 17.8465 1.5 17.25V6.75C1.50068 6.15347 1.73795 5.58157 2.15976 5.15976C2.58157 4.73795 3.15347 4.50068 3.75 4.5H18C18.5965 4.50068 19.1684 4.73795 19.5902 5.15976C20.012 5.58157 20.2493 6.15347 20.25 6.75ZM18.75 6.75C18.7498 6.55116 18.6707 6.36052 18.5301 6.21992C18.3895 6.07932 18.1988 6.00023 18 6H3.75C3.55116 6.00023 3.36052 6.07932 3.21992 6.21992C3.07932 6.36052 3.00023 6.55116 3 6.75V17.25C3.00023 17.4488 3.07932 17.6395 3.21992 17.7801C3.36052 17.9207 3.55116 17.9998 3.75 18H18C18.1988 17.9998 18.3895 17.9207 18.5301 17.7801C18.6707 17.6395 18.7498 17.4488 18.75 17.25V6.75ZM16.5 7.50005H5.25C5.15151 7.50004 5.05398 7.51944 4.96298 7.55713C4.87199 7.59482 4.78931 7.65006 4.71966 7.71971C4.65002 7.78935 4.59477 7.87203 4.55708 7.96303C4.51939 8.05403 4.5 8.15155 4.5 8.25005V15.75C4.5 15.8485 4.51939 15.9461 4.55708 16.0371C4.59477 16.1281 4.65002 16.2107 4.71966 16.2804C4.78931 16.35 4.87199 16.4053 4.96298 16.443C5.05398 16.4807 5.15151 16.5 5.25 16.5H16.5C16.5985 16.5 16.696 16.4807 16.787 16.443C16.878 16.4053 16.9607 16.35 17.0303 16.2804C17.1 16.2107 17.1552 16.1281 17.1929 16.0371C17.2306 15.9461 17.25 15.8485 17.25 15.75V8.25005C17.25 8.15155 17.2306 8.05403 17.1929 7.96303C17.1552 7.87203 17.1 7.78935 17.0303 7.71971C16.9607 7.65006 16.878 7.59482 16.787 7.55713C16.696 7.51944 16.5985 7.50004 16.5 7.50005Z" fill="#1D1F21" style="fill: var(--ui-icon-primary-color);"/>
</svg>
