<svg  viewBox="0 0 24 24" fill="none" xmlns="http://www.w3.org/2000/svg" id="__THIS_ID_NEEDS_FOR_UI_ICON_COMPONENT__">
<path d="M19.5 6.75H2.25V4.5C2.25 4.30109 2.17098 4.11032 2.03033 3.96967C1.88968 3.82902 1.69891 3.75 1.5 3.75C1.30109 3.75 1.11032 3.82902 0.96967 3.96967C0.829018 4.11032 0.75 4.30109 0.75 4.5V19.5C0.75 19.6989 0.829018 19.8897 0.96967 20.0303C1.11032 20.171 1.30109 20.25 1.5 20.25C1.69891 20.25 1.88968 20.171 2.03033 20.0303C2.17098 19.8897 2.25 19.6989 2.25 19.5V16.5H21.75V19.5C21.75 19.6989 21.829 19.8897 21.9697 20.0303C22.1103 20.171 22.3011 20.25 22.5 20.25C22.6989 20.25 22.8897 20.171 23.0303 20.0303C23.171 19.8897 23.25 19.6989 23.25 19.5V10.5C23.2489 9.50578 22.8534 8.55261 22.1504 7.84959C21.4474 7.14657 20.4942 6.75112 19.5 6.75ZM2.25 8.25H9V15H2.25V8.25Z" fill="#1D1F21" style="fill: var(--ui-icon-primary-color);"/>
</svg>
