<svg  viewBox="0 0 24 24" fill="none" xmlns="http://www.w3.org/2000/svg" id="__THIS_ID_NEEDS_FOR_UI_ICON_COMPONENT__">
<path d="M8.11828 4.38537C8.04273 4.30225 7.98682 4.20323 7.95467 4.09561C7.92251 3.98799 7.91494 3.87452 7.93251 3.76358C7.95008 3.65265 7.99233 3.54707 8.05616 3.45465C8.11999 3.36223 8.20376 3.28532 8.30129 3.22961C9.4454 2.57879 10.7408 2.24097 12.0571 2.25018C16.151 2.28058 19.4817 5.68304 19.4817 9.83478V10.5C19.4817 12.5485 19.7481 14.2639 20.2735 15.5988C20.3377 15.762 20.3427 15.9426 20.2875 16.1091C20.2324 16.2757 20.1206 16.4176 19.9716 16.5103C19.8226 16.6029 19.6459 16.6404 19.4721 16.6163C19.2984 16.5921 19.1386 16.5078 19.0206 16.378L8.11828 4.38537ZM20.055 19.7454C20.1213 19.8183 20.1725 19.9036 20.2058 19.9962C20.2392 20.0889 20.2539 20.1873 20.2492 20.2857C20.2445 20.3841 20.2205 20.4806 20.1785 20.5697C20.1366 20.6588 20.0774 20.7387 20.0046 20.805C19.9317 20.8712 19.8465 20.9225 19.7538 20.9558C19.6611 20.9891 19.5627 21.0039 19.4643 20.9992C19.366 20.9945 19.2695 20.9705 19.1804 20.9285C19.0912 20.8865 19.0113 20.8274 18.945 20.7545L17.1227 18.75H15.75C15.75 19.7446 15.3549 20.6984 14.6517 21.4016C13.9484 22.1049 12.9946 22.5 12 22.5C11.0055 22.5 10.0516 22.1049 9.34837 21.4016C8.64511 20.6984 8.25002 19.7446 8.25002 18.75H4.59221C4.32848 18.7497 4.0695 18.6798 3.84138 18.5474C3.61326 18.4151 3.42407 18.2249 3.2929 17.9961C3.16172 17.7673 3.09319 17.508 3.09422 17.2443C3.09525 16.9805 3.1658 16.7217 3.29876 16.494C3.8554 15.5363 4.51906 13.719 4.51906 10.5V9.75C4.51669 8.43061 4.86372 7.13413 5.52486 5.99235L3.94503 4.25454C3.81121 4.10735 3.74135 3.91303 3.75081 3.71433C3.76027 3.51562 3.84828 3.32882 3.99547 3.195C4.14267 3.06119 4.33699 2.99133 4.53569 3.00079C4.73439 3.01025 4.9212 3.09826 5.05501 3.24545L20.055 19.7454ZM14.25 18.75H9.75002C9.75002 19.3467 9.98707 19.919 10.409 20.341C10.831 20.7629 11.4033 21 12 21C12.5968 21 13.1691 20.7629 13.591 20.341C14.013 19.919 14.25 19.3467 14.25 18.75Z" fill="#1D1F21" style="fill: var(--ui-icon-primary-color);"/>
</svg>
