<svg  viewBox="0 0 24 24" fill="none" xmlns="http://www.w3.org/2000/svg" id="__THIS_ID_NEEDS_FOR_UI_ICON_COMPONENT__">
<path d="M15.75 20.9981C15.75 21.197 15.671 21.3878 15.5303 21.5284C15.3897 21.6691 15.1989 21.7481 15 21.7481H9.00001C8.8011 21.7481 8.61034 21.6691 8.46968 21.5285C8.32903 21.3878 8.25001 21.197 8.25001 20.9981C8.25001 20.7992 8.32903 20.6084 8.46968 20.4678C8.61034 20.3271 8.8011 20.2481 9.00001 20.2481H15C15.1989 20.2481 15.3897 20.3272 15.5303 20.4678C15.671 20.6085 15.75 20.7992 15.75 20.9981ZM19.0219 16.3794C19.14 16.5092 19.2998 16.5936 19.4736 16.6177C19.6474 16.6419 19.8242 16.6044 19.9731 16.5117C20.1221 16.419 20.2339 16.277 20.289 16.1104C20.3441 15.9438 20.3391 15.7632 20.2747 15.5999C19.7485 14.2645 19.4817 12.5481 19.4817 10.4981V9.83281C19.4817 5.68108 16.151 2.2787 12.057 2.24831C10.7401 2.23733 9.44375 2.57553 8.3 3.22847C8.20251 3.28421 8.11877 3.36112 8.05498 3.45354C7.99118 3.54596 7.94895 3.65153 7.9314 3.76245C7.91385 3.87337 7.92143 3.98682 7.95359 4.09442C7.98574 4.20202 8.04164 4.30103 8.11717 4.38414L19.0219 16.3794ZM5.05501 3.2455C4.92119 3.0983 4.73439 3.0103 4.53568 3.00084C4.33698 2.99138 4.14266 3.06124 3.99547 3.19505C3.84827 3.32887 3.76027 3.51567 3.75081 3.71438C3.74135 3.91308 3.81121 4.1074 3.94502 4.25459L5.52417 5.99167C4.86344 7.13315 4.51665 8.4292 4.51906 9.74812V10.4981C4.51906 13.7171 3.85539 15.5344 3.29875 16.4921C3.16579 16.7198 3.09524 16.9786 3.09421 17.2424C3.09318 17.5061 3.16171 17.7655 3.29289 17.9943C3.42407 18.2231 3.61325 18.4132 3.84137 18.5456C4.06949 18.6779 4.32847 18.7478 4.59221 18.7481H17.121L18.945 20.7546C19.0113 20.8275 19.0912 20.8866 19.1803 20.9286C19.2695 20.9706 19.366 20.9946 19.4643 20.9993C19.5627 21.0039 19.6611 20.9892 19.7538 20.9559C19.8465 20.9226 19.9317 20.8713 20.0046 20.805C20.0774 20.7388 20.1366 20.6588 20.1785 20.5697C20.2205 20.4806 20.2445 20.3841 20.2492 20.2857C20.2539 20.1873 20.2392 20.089 20.2058 19.9963C20.1725 19.9036 20.1213 19.8184 20.055 19.7455L5.05501 3.2455Z" fill="#1D1F21" style="fill: var(--ui-icon-primary-color);"/>
</svg>
