<svg  viewBox="0 0 24 24" fill="none" xmlns="http://www.w3.org/2000/svg" id="__THIS_ID_NEEDS_FOR_UI_ICON_COMPONENT__">
<path d="M5.48934 15.4301L8.03222 11.7974C8.83216 12.5887 9.30569 13.6516 9.35901 14.7756C9.41232 15.8995 9.04152 17.0025 8.32007 17.8659C7.59862 18.7294 6.57915 19.2904 5.46364 19.4378C4.34813 19.5851 3.21797 19.3081 2.29704 18.6616C1.37611 18.0151 0.731619 17.0463 0.491242 15.947C0.250864 14.8478 0.43214 13.6984 0.999156 12.7265C1.56617 11.7546 2.47756 11.0311 3.55276 10.6994C4.62796 10.3678 5.78853 10.452 6.80454 10.9355L4.26052 14.5699C4.20385 14.6506 4.16365 14.7416 4.14221 14.8379C4.12078 14.9341 4.11852 15.0336 4.13558 15.1307C4.15263 15.2278 4.18866 15.3206 4.24161 15.4037C4.29456 15.4869 4.36339 15.5588 4.44415 15.6154C4.52492 15.6719 4.61604 15.712 4.7123 15.7332C4.80856 15.7545 4.90807 15.7566 5.00515 15.7394C5.10223 15.7222 5.19496 15.6861 5.27804 15.633C5.36112 15.5799 5.43292 15.511 5.48934 15.4301H5.48934ZM19.1249 10.5C18.6207 10.4999 18.1201 10.5849 17.6442 10.7515L19.7821 14.6385C19.8297 14.7249 19.8598 14.8197 19.8707 14.9176C19.8816 15.0156 19.8731 15.1147 19.8456 15.2094C19.8182 15.304 19.7724 15.3924 19.7108 15.4693C19.6492 15.5462 19.5731 15.6103 19.4867 15.6578C19.4004 15.7053 19.3055 15.7353 19.2075 15.7461C19.1096 15.7569 19.0105 15.7483 18.9158 15.7208C18.8212 15.6933 18.7329 15.6474 18.656 15.5857C18.5792 15.5241 18.5152 15.4478 18.4678 15.3615L16.331 11.4763C15.4993 12.1373 14.9285 13.0715 14.7198 14.1132C14.5111 15.1549 14.6781 16.2369 15.191 17.1672C15.7039 18.0976 16.5297 18.8163 17.522 19.1959C18.5143 19.5755 19.6089 19.5915 20.6118 19.241C21.6148 18.8906 22.4612 18.1963 23.0011 17.2813C23.541 16.3663 23.7394 15.2897 23.5613 14.2423C23.3831 13.195 22.8398 12.2445 22.0278 11.5595C21.2157 10.8745 20.1873 10.4991 19.1249 10.5ZM16.4851 8.64407L16.4832 8.64063L15.4434 6.75H17.2499C17.4488 6.75 17.6396 6.67098 17.7803 6.53033C17.9209 6.38968 17.9999 6.19891 17.9999 6C17.9999 5.80109 17.9209 5.61032 17.7803 5.46967C17.6396 5.32902 17.4488 5.25 17.2499 5.25H14.175C14.0446 5.24999 13.9165 5.28395 13.8033 5.34853C13.6901 5.4131 13.5957 5.50607 13.5293 5.61827C13.463 5.73046 13.427 5.85801 13.425 5.98833C13.423 6.11865 13.455 6.24725 13.5178 6.36145L14.5565 8.25H9.51839L8.08211 5.63855C8.01739 5.52088 7.92227 5.42275 7.80667 5.35441C7.69107 5.28606 7.55925 5.25 7.42495 5.25H4.87493C4.67602 5.25 4.48525 5.32902 4.3446 5.46967C4.20395 5.61032 4.12493 5.80109 4.12493 6C4.12493 6.19891 4.20395 6.38968 4.3446 6.53033C4.48525 6.67098 4.67602 6.75 4.87493 6.75H6.98147L8.19276 8.95237L6.80454 10.9355C7.25892 11.1524 7.67386 11.4437 8.03222 11.7974L8.9984 10.4171L11.7178 15.3615C11.7652 15.4478 11.8292 15.5239 11.9061 15.5854C11.983 15.647 12.0712 15.6928 12.1658 15.7203C12.2604 15.7477 12.3595 15.7563 12.4574 15.7455C12.5553 15.7346 12.6501 15.7046 12.7364 15.6572C12.8227 15.6097 12.8988 15.5457 12.9604 15.4688C13.0219 15.3919 13.0677 15.3037 13.0952 15.2091C13.1227 15.1145 13.1312 15.0154 13.1204 14.9175C13.1096 14.8197 13.0796 14.7248 13.0321 14.6385L10.3434 9.75H15.3815L16.331 11.4763C16.725 11.1629 17.169 10.9178 17.6442 10.7515L16.4851 8.64407Z" fill="#1D1F21" style="fill: var(--ui-icon-primary-color);"/>
</svg>
