<svg  viewBox="0 0 24 24" fill="none" xmlns="http://www.w3.org/2000/svg" id="__THIS_ID_NEEDS_FOR_UI_ICON_COMPONENT__">
<path d="M17.6999 15.9005L12.4999 12.0005L14.6999 10.3505C14.859 10.2311 14.9642 10.0534 14.9924 9.85654C15.0205 9.65963 14.9693 9.45961 14.8499 9.30048C14.7908 9.22169 14.7168 9.15531 14.632 9.10513C14.5473 9.05495 14.4535 9.02195 14.356 9.00802C14.1591 8.97989 13.9591 9.03113 13.7999 9.15047L11.9999 10.5005V4.50047L13.7999 5.85037C13.959 5.9695 14.1589 6.02058 14.3557 5.99238C14.5525 5.96418 14.73 5.859 14.8493 5.69997C14.9686 5.54093 15.0198 5.34104 14.9918 5.14423C14.9638 4.94742 14.8587 4.7698 14.6998 4.65038L11.6999 2.40048C11.5885 2.31691 11.456 2.26602 11.3173 2.25352C11.1786 2.24101 11.0391 2.26738 10.9145 2.32967C10.7899 2.39196 10.6852 2.4877 10.6119 2.60618C10.5387 2.72466 10.4999 2.86119 10.4999 3.00047V10.5005L5.69991 6.90048C5.54078 6.78113 5.34076 6.72989 5.14385 6.75802C4.94694 6.78616 4.76928 6.89136 4.64993 7.05048C4.53059 7.20961 4.47935 7.40963 4.50748 7.60654C4.53561 7.80345 4.64081 7.98111 4.79994 8.10046L9.99995 12.0005L4.79994 15.9005C4.72115 15.9596 4.65477 16.0336 4.60459 16.1183C4.55441 16.2031 4.52141 16.2969 4.50748 16.3944C4.49355 16.4919 4.49896 16.5912 4.5234 16.6866C4.54785 16.782 4.59084 16.8717 4.64993 16.9504C4.70903 17.0292 4.78306 17.0956 4.86781 17.1458C4.95255 17.196 5.04635 17.229 5.14385 17.2429C5.24135 17.2568 5.34064 17.2514 5.43605 17.227C5.53145 17.2025 5.62111 17.1595 5.69991 17.1005L10.4999 13.5004V21.0005C10.4999 21.1397 10.5387 21.2763 10.6119 21.3948C10.6851 21.5132 10.7899 21.609 10.9145 21.6713C11.0391 21.7336 11.1785 21.7599 11.3173 21.7474C11.456 21.7349 11.5885 21.684 11.6999 21.6005L17.6999 17.1005C17.7931 17.0306 17.8687 16.94 17.9207 16.8359C17.9728 16.7317 17.9999 16.6169 17.9999 16.5005C17.9999 16.384 17.9728 16.2692 17.9207 16.1651C17.8687 16.0609 17.7931 15.9703 17.6999 15.9005ZM11.9999 19.5005V13.5005L15.9999 16.5005L11.9999 19.5005ZM22.2802 9.21992C22.35 9.28954 22.4053 9.37223 22.443 9.46324C22.4808 9.55425 22.5002 9.6518 22.5002 9.75033C22.5003 9.84886 22.4809 9.94643 22.4432 10.0375C22.4055 10.1285 22.3502 10.2112 22.2806 10.2809C22.2109 10.3506 22.1282 10.4058 22.0372 10.4435C21.9461 10.4812 21.8486 10.5006 21.75 10.5006C21.6515 10.5005 21.5539 10.4811 21.4629 10.4433C21.3719 10.4056 21.2892 10.3503 21.2196 10.2806L19.4999 8.56087L17.7802 10.2806C17.6396 10.4211 17.4488 10.5 17.25 10.4999C17.0512 10.4998 16.8605 10.4208 16.7199 10.2802C16.5793 10.1396 16.5003 9.94897 16.5003 9.75014C16.5002 9.55131 16.5791 9.3606 16.7196 9.21992L18.4393 7.50024L16.7196 5.78056C16.5791 5.63988 16.5002 5.44916 16.5003 5.25033C16.5003 5.05151 16.5793 4.86084 16.7199 4.72025C16.8605 4.57966 17.0512 4.50065 17.25 4.50058C17.4488 4.50052 17.6396 4.57941 17.7802 4.71992L19.4999 6.4396L21.2196 4.71992C21.3603 4.57941 21.551 4.50052 21.7498 4.50058C21.9487 4.50065 22.1393 4.57966 22.2799 4.72025C22.4205 4.86084 22.4995 5.05151 22.4996 5.25033C22.4996 5.44916 22.4207 5.63988 22.2802 5.78056L20.5606 7.50024L22.2802 9.21992Z" fill="#1D1F21" style="fill: var(--ui-icon-primary-color);"/>
</svg>
