<svg  viewBox="0 0 24 24" fill="none" xmlns="http://www.w3.org/2000/svg" id="__THIS_ID_NEEDS_FOR_UI_ICON_COMPONENT__">
<path d="M17.6998 15.9004L12.4999 12.0005L17.6998 8.10046C17.793 8.0306 17.8686 7.94002 17.9207 7.83588C17.9728 7.73173 17.9999 7.6169 17.9999 7.50047C17.9999 7.38403 17.9728 7.2692 17.9207 7.16506C17.8686 7.06091 17.793 6.97033 17.6998 6.90048L11.6998 2.40048C11.5884 2.31691 11.4559 2.26602 11.3172 2.25352C11.1785 2.24101 11.039 2.26738 10.9145 2.32967C10.7899 2.39196 10.6851 2.4877 10.6119 2.60618C10.5387 2.72466 10.4999 2.86119 10.4999 3.00047V10.5005L5.69985 6.90047C5.62106 6.84138 5.5314 6.79838 5.43599 6.77394C5.34058 6.7495 5.24129 6.74409 5.14379 6.75802C5.0463 6.77195 4.9525 6.80495 4.86775 6.85513C4.783 6.90531 4.70897 6.97169 4.64988 7.05048C4.59078 7.12927 4.54779 7.21893 4.52335 7.31434C4.49891 7.40975 4.4935 7.50904 4.50742 7.60653C4.52135 7.70403 4.55435 7.79783 4.60453 7.88258C4.65471 7.96733 4.72109 8.04136 4.79989 8.10045L9.99985 12.0005L4.79989 15.9004C4.64099 16.0199 4.53601 16.1975 4.508 16.3943C4.47999 16.5911 4.53124 16.7909 4.6505 16.9499C4.76976 17.109 4.94726 17.2141 5.14402 17.2424C5.34077 17.2706 5.54069 17.2196 5.69985 17.1005L10.4999 13.5005V21.0005C10.4999 21.1397 10.5387 21.2763 10.6119 21.3947C10.6851 21.5132 10.7899 21.609 10.9144 21.6713C11.039 21.7336 11.1785 21.7599 11.3172 21.7474C11.4559 21.7349 11.5884 21.6841 11.6998 21.6005L17.6998 17.1005C17.793 17.0306 17.8686 16.94 17.9207 16.8359C17.9728 16.7317 17.9999 16.6169 17.9999 16.5005C17.9999 16.384 17.9728 16.2692 17.9207 16.165C17.8686 16.0609 17.793 15.9703 17.6998 15.9004H17.6998ZM11.9999 4.50046L15.9999 7.50046L11.9999 10.5005V4.50046ZM11.9999 19.5005V13.5005L15.9999 16.5005L11.9999 19.5005Z" fill="#1D1F21" style="fill: var(--ui-icon-primary-color);"/>
</svg>
