<svg  viewBox="0 0 24 24" fill="none" xmlns="http://www.w3.org/2000/svg" id="__THIS_ID_NEEDS_FOR_UI_ICON_COMPONENT__">
<path d="M16.5 6.75V21C16.5 21.1378 16.462 21.2729 16.3903 21.3906C16.3185 21.5082 16.2157 21.6038 16.0932 21.6669C15.9707 21.7299 15.8332 21.758 15.6957 21.748C15.5583 21.738 15.4262 21.6904 15.3141 21.6103L10.4994 18.1717L5.68597 21.6103C5.57384 21.6904 5.4418 21.738 5.30436 21.748C5.16692 21.758 5.02938 21.7299 4.90685 21.6669C4.78432 21.6038 4.68153 21.5082 4.60975 21.3906C4.53798 21.2729 4.50001 21.1378 4.5 21V6.75C4.50045 6.35231 4.65864 5.97105 4.93984 5.68984C5.22105 5.40864 5.60231 5.25045 6 5.25H15C15.3977 5.25045 15.779 5.40864 16.0602 5.68984C16.3414 5.97105 16.4995 6.35231 16.5 6.75ZM18 2.25H8.25C8.05109 2.25 7.86032 2.32902 7.71967 2.46967C7.57902 2.61032 7.5 2.80109 7.5 3C7.5 3.19891 7.57902 3.38968 7.71967 3.53033C7.86032 3.67098 8.05109 3.75 8.25 3.75H18V18C18 18.1989 18.079 18.3897 18.2197 18.5303C18.3603 18.671 18.5511 18.75 18.75 18.75C18.9489 18.75 19.1397 18.671 19.2803 18.5303C19.421 18.3897 19.5 18.1989 19.5 18V3.75C19.4995 3.35231 19.3414 2.97105 19.0602 2.68984C18.779 2.40864 18.3977 2.25045 18 2.25Z" fill="#1D1F21" style="fill: var(--ui-icon-primary-color);"/>
</svg>
