<svg  viewBox="0 0 24 24" fill="none" xmlns="http://www.w3.org/2000/svg" id="__THIS_ID_NEEDS_FOR_UI_ICON_COMPONENT__">
<path d="M20.2495 2.99976V18.7498C20.2495 18.8483 20.2301 18.9458 20.1925 19.0368C20.1548 19.1279 20.0996 19.2106 20.0299 19.2802C19.9603 19.3499 19.8776 19.4051 19.7865 19.4428C19.6955 19.4805 19.598 19.4998 19.4995 19.4998H6.74945C6.35175 19.5001 5.97044 19.6583 5.68922 19.9395C5.408 20.2207 5.24984 20.6021 5.24945 20.9998H17.9995C18.1984 20.9998 18.3891 21.0788 18.5298 21.2194C18.6704 21.3601 18.7495 21.5508 18.7495 21.7498C18.7495 21.9487 18.6704 22.1394 18.5298 22.2801C18.3891 22.4207 18.1984 22.4998 17.9995 22.4998H4.49945C4.40094 22.4998 4.30339 22.4805 4.21237 22.4428C4.12135 22.4051 4.03865 22.3499 3.96899 22.2802C3.89934 22.2106 3.8441 22.1279 3.80643 22.0368C3.76875 21.9458 3.74939 21.8483 3.74945 21.7498V5.24976C3.75036 4.45439 4.06672 3.69185 4.62914 3.12944C5.19155 2.56703 5.95408 2.25067 6.74945 2.24976H19.4995C19.598 2.2497 19.6955 2.26906 19.7865 2.30673C19.8776 2.3444 19.9603 2.39964 20.0299 2.4693C20.0996 2.53895 20.1548 2.62166 20.1925 2.71268C20.2301 2.8037 20.2495 2.90125 20.2495 2.99976Z" fill="#1D1F21" style="fill: var(--ui-icon-primary-color);"/>
</svg>
