<svg  viewBox="0 0 24 24" fill="none" xmlns="http://www.w3.org/2000/svg" id="__THIS_ID_NEEDS_FOR_UI_ICON_COMPONENT__">
<path d="M19.5 2.25H6.74995C5.95458 2.25091 5.19205 2.56727 4.62964 3.12968C4.06723 3.6921 3.75086 4.45463 3.74995 5.25V21.75C3.74996 21.9489 3.82898 22.1397 3.96963 22.2803C4.11028 22.421 4.30104 22.5 4.49995 22.5H18C18.1989 22.5 18.3896 22.421 18.5303 22.2803C18.6709 22.1397 18.75 21.9489 18.75 21.75C18.75 21.5511 18.6709 21.3603 18.5303 21.2197C18.3896 21.079 18.1989 21 18 21H5.24995C5.25041 20.6023 5.40859 20.221 5.6898 19.9398C5.971 19.6586 6.35227 19.5005 6.74995 19.5H19.5C19.6989 19.5 19.8896 19.421 20.0303 19.2803C20.1709 19.1397 20.2499 18.9489 20.25 18.75V3C20.2499 2.80109 20.1709 2.61033 20.0303 2.46968C19.8896 2.32903 19.6989 2.25001 19.5 2.25ZM12.0002 3.75H17.2502V11.2501L14.8494 9.44998C14.7845 9.40131 14.7056 9.375 14.6244 9.375C14.5433 9.375 14.4644 9.40131 14.3995 9.44998L12.0002 11.2499V3.75Z" fill="#1D1F21" style="fill: var(--ui-icon-primary-color);"/>
</svg>
