<svg  viewBox="0 0 24 24" fill="none" xmlns="http://www.w3.org/2000/svg" id="__THIS_ID_NEEDS_FOR_UI_ICON_COMPONENT__">
<path d="M19.5006 16.5048V3.75C19.5001 3.35231 19.3419 2.97105 19.0607 2.68984C18.7795 2.40864 18.3982 2.25045 18.0006 2.25H6.00056C5.60287 2.25045 5.22161 2.40864 4.9404 2.68984C4.6592 2.97105 4.50101 3.35231 4.50056 3.75V16.505C4.50056 16.5066 4.50054 16.5081 4.50056 16.5097V21C4.50056 21.1306 4.53466 21.2589 4.5995 21.3723C4.66433 21.4857 4.75765 21.5802 4.87022 21.6464C4.98278 21.7126 5.11069 21.7483 5.24129 21.7499C5.37188 21.7516 5.50063 21.719 5.6148 21.6556L11.9999 18.1079L18.3864 21.6556C18.5005 21.719 18.6293 21.7515 18.7599 21.7499C18.8904 21.7483 19.0183 21.7126 19.1309 21.6464C19.2435 21.5801 19.3368 21.4857 19.4016 21.3723C19.4664 21.2589 19.5006 21.1306 19.5006 21V16.5097C19.5006 16.5081 19.5005 16.5064 19.5006 16.5048ZM12.3641 16.5944C12.2527 16.5325 12.1273 16.5 11.9999 16.5C11.8724 16.5 11.747 16.5325 11.6356 16.5944L6.00056 19.7253V16.9413L11.9999 13.6079L18.0006 16.9413V19.7254L12.3641 16.5944Z" fill="#1D1F21" style="fill: var(--ui-icon-primary-color);"/>
</svg>
