<svg  viewBox="0 0 24 24" fill="none" xmlns="http://www.w3.org/2000/svg" id="__THIS_ID_NEEDS_FOR_UI_ICON_COMPONENT__">
<path d="M19.5 3.75V21C19.5 21.1306 19.4658 21.259 19.4009 21.3724C19.336 21.4858 19.2427 21.5802 19.13 21.6465C19.0174 21.7127 18.8895 21.7484 18.7588 21.7499C18.6282 21.7515 18.4994 21.719 18.3853 21.6555L12 18.1077L5.61474 21.6555C5.50058 21.7192 5.37176 21.7519 5.24106 21.7504C5.11035 21.7489 4.98231 21.7133 4.86963 21.647C4.75695 21.5808 4.66356 21.4862 4.59872 21.3727C4.53388 21.2592 4.49985 21.1307 4.5 21V3.75C4.50039 3.3523 4.65855 2.97099 4.93977 2.68977C5.22099 2.40855 5.60229 2.25039 6 2.25H18C18.3977 2.25039 18.779 2.40855 19.0602 2.68977C19.3414 2.97099 19.4996 3.3523 19.5 3.75Z" fill="#1D1F21" style="fill: var(--ui-icon-primary-color);"/>
</svg>
