<svg  viewBox="0 0 24 24" fill="none" xmlns="http://www.w3.org/2000/svg" id="__THIS_ID_NEEDS_FOR_UI_ICON_COMPONENT__">
<path d="M20.2507 6H16.5V5.25C16.4993 4.65347 16.262 4.08157 15.8402 3.65976C15.4184 3.23795 14.8465 3.00068 14.25 3H9.75C9.15347 3.00068 8.58157 3.23795 8.15976 3.65976C7.73795 4.08157 7.50068 4.65347 7.5 5.25V6H3.75073C3.35305 6.00045 2.97178 6.15864 2.69057 6.43984C2.40937 6.72105 2.25119 7.10231 2.25073 7.5V19.5C2.25119 19.8977 2.40937 20.279 2.69057 20.5602C2.97178 20.8414 3.35305 20.9995 3.75073 21H20.2507C20.6484 20.9995 21.0297 20.8414 21.3109 20.5602C21.5921 20.279 21.7503 19.8977 21.7507 19.5V7.5C21.7503 7.10231 21.5921 6.72105 21.3109 6.43984C21.0297 6.15864 20.6484 6.00045 20.2507 6ZM9 5.25C9.00023 5.05116 9.07932 4.86052 9.21992 4.71992C9.36052 4.57932 9.55116 4.50023 9.75 4.5H14.25C14.4488 4.50023 14.6395 4.57932 14.7801 4.71992C14.9207 4.86052 14.9998 5.05116 15 5.25V6H9V5.25Z" fill="#1D1F21" style="fill: var(--ui-icon-primary-color);"/>
</svg>
