<svg  viewBox="0 0 24 24" fill="none" xmlns="http://www.w3.org/2000/svg" id="__THIS_ID_NEEDS_FOR_UI_ICON_COMPONENT__">
<path d="M18.7507 8.25V18.75C18.7503 19.1477 18.5921 19.529 18.3109 19.8102C18.0297 20.0914 17.6484 20.2495 17.2507 20.25H3.75073C3.35305 20.2495 2.97178 20.0914 2.69057 19.8102C2.40937 19.529 2.25119 19.1477 2.25073 18.75V8.25C2.25119 7.85231 2.40937 7.47105 2.69057 7.18984C2.97178 6.90864 3.35305 6.75045 3.75073 6.75H17.2507C17.6484 6.75045 18.0297 6.90864 18.3109 7.18984C18.5921 7.47105 18.7503 7.85231 18.7507 8.25ZM20.2507 3.75H6.00073C5.80182 3.75 5.61105 3.82902 5.4704 3.96967C5.32975 4.11032 5.25073 4.30109 5.25073 4.5C5.25073 4.69891 5.32975 4.88968 5.4704 5.03033C5.61105 5.17098 5.80182 5.25 6.00073 5.25H20.2507V16.5C20.2507 16.6989 20.3298 16.8897 20.4704 17.0303C20.6111 17.171 20.8018 17.25 21.0007 17.25C21.1996 17.25 21.3904 17.171 21.5311 17.0303C21.6717 16.8897 21.7507 16.6989 21.7507 16.5V5.25C21.7503 4.85231 21.5921 4.47105 21.3109 4.18984C21.0297 3.90864 20.6484 3.75045 20.2507 3.75Z" fill="#1D1F21" style="fill: var(--ui-icon-primary-color);"/>
</svg>
