<svg  viewBox="0 0 24 24" fill="none" xmlns="http://www.w3.org/2000/svg" id="__THIS_ID_NEEDS_FOR_UI_ICON_COMPONENT__">
<path d="M20.2507 3.75H6.75073C6.35305 3.75045 5.97178 3.90863 5.69057 4.18984C5.40936 4.47104 5.25118 4.85231 5.25073 5.25V6.75H3.75073C3.35305 6.75045 2.97178 6.90863 2.69057 7.18984C2.40936 7.47104 2.25118 7.85231 2.25073 8.25V10.4855C2.25064 10.4904 2.25 10.4951 2.25 10.5C2.25 10.5049 2.25064 10.5096 2.25073 10.5145V18.75C2.25119 19.1477 2.40937 19.529 2.69057 19.8102C2.97178 20.0914 3.35305 20.2495 3.75073 20.25H17.2507C17.6484 20.2495 18.0297 20.0914 18.3109 19.8102C18.5921 19.529 18.7503 19.1477 18.7507 18.75V17.25H20.2507C20.6484 17.2495 21.0297 17.0914 21.3109 16.8102C21.5921 16.529 21.7503 16.1477 21.7507 15.75V5.25C21.7503 4.85231 21.5921 4.47104 21.3109 4.18984C21.0297 3.90863 20.6484 3.75045 20.2507 3.75ZM17.2507 8.25L17.2509 9.75H3.75073V8.25H17.2507ZM20.2507 15.75H18.7507V8.25C18.7503 7.85231 18.5921 7.47104 18.3109 7.18984C18.0297 6.90863 17.6484 6.75045 17.2507 6.75H6.75073V5.25H20.2507V15.75Z" fill="#1D1F21" style="fill: var(--ui-icon-primary-color);"/>
</svg>
