<svg  viewBox="0 0 24 24" fill="none" xmlns="http://www.w3.org/2000/svg" id="__THIS_ID_NEEDS_FOR_UI_ICON_COMPONENT__">
<path d="M18.75 2.25073H5.25C4.85231 2.25119 4.47105 2.40937 4.18984 2.69057C3.90864 2.97178 3.75045 3.35305 3.75 3.75073V20.2507C3.75045 20.6484 3.90864 21.0297 4.18984 21.3109C4.47105 21.5921 4.85231 21.7503 5.25 21.7507H18.75C19.1477 21.7503 19.529 21.5921 19.8102 21.3109C20.0914 21.0297 20.2495 20.6484 20.25 20.2507V3.75073C20.2495 3.35305 20.0914 2.97178 19.8102 2.69057C19.529 2.40937 19.1477 2.25119 18.75 2.25073ZM8.25 18.75C8.0275 18.75 7.80999 18.684 7.62498 18.5604C7.43998 18.4368 7.29578 18.2611 7.21064 18.0555C7.12549 17.85 7.10321 17.6238 7.14662 17.4055C7.19002 17.1873 7.29717 16.9868 7.4545 16.8295C7.61184 16.6722 7.81229 16.565 8.03052 16.5216C8.24875 16.4782 8.47495 16.5005 8.68052 16.5856C8.88609 16.6708 9.06179 16.815 9.1854 17C9.30902 17.185 9.375 17.4025 9.375 17.625C9.37466 17.9233 9.25602 18.2092 9.04512 18.4201C8.83421 18.631 8.54826 18.7497 8.25 18.75ZM8.25 15C8.0275 15 7.80999 14.934 7.62498 14.8104C7.43998 14.6868 7.29578 14.5111 7.21064 14.3055C7.12549 14.1 7.10321 13.8738 7.14662 13.6555C7.19002 13.4373 7.29717 13.2368 7.4545 13.0795C7.61184 12.9222 7.81229 12.815 8.03052 12.7716C8.24875 12.7282 8.47495 12.7505 8.68052 12.8356C8.88609 12.9208 9.06179 13.065 9.1854 13.25C9.30902 13.435 9.375 13.6525 9.375 13.875C9.37466 14.1733 9.25602 14.4592 9.04512 14.6701C8.83421 14.881 8.54826 14.9997 8.25 15ZM12 18.75C11.7775 18.75 11.56 18.684 11.375 18.5604C11.19 18.4368 11.0458 18.2611 10.9606 18.0555C10.8755 17.85 10.8532 17.6238 10.8966 17.4055C10.94 17.1873 11.0472 16.9868 11.2045 16.8295C11.3618 16.6722 11.5623 16.565 11.7805 16.5216C11.9988 16.4782 12.225 16.5005 12.4305 16.5856C12.6361 16.6708 12.8118 16.815 12.9354 17C13.059 17.185 13.125 17.4025 13.125 17.625C13.1247 17.9233 13.006 18.2092 12.7951 18.4201C12.5842 18.631 12.2983 18.7497 12 18.75ZM12 15C11.7775 15 11.56 14.934 11.375 14.8104C11.19 14.6868 11.0458 14.5111 10.9606 14.3055C10.8755 14.1 10.8532 13.8738 10.8966 13.6555C10.94 13.4373 11.0472 13.2368 11.2045 13.0795C11.3618 12.9222 11.5623 12.815 11.7805 12.7716C11.9988 12.7282 12.225 12.7505 12.4305 12.8356C12.6361 12.9208 12.8118 13.065 12.9354 13.25C13.059 13.435 13.125 13.6525 13.125 13.875C13.1247 14.1733 13.006 14.4592 12.7951 14.6701C12.5842 14.881 12.2983 14.9997 12 15ZM15.75 18.75C15.5275 18.75 15.31 18.684 15.125 18.5604C14.94 18.4368 14.7958 18.2611 14.7106 18.0555C14.6255 17.85 14.6032 17.6238 14.6466 17.4055C14.69 17.1873 14.7972 16.9868 14.9545 16.8295C15.1118 16.6722 15.3123 16.565 15.5305 16.5216C15.7488 16.4782 15.975 16.5005 16.1805 16.5856C16.3861 16.6708 16.5618 16.815 16.6854 17C16.809 17.185 16.875 17.4025 16.875 17.625C16.8747 17.9233 16.756 18.2092 16.5451 18.4201C16.3342 18.631 16.0483 18.7497 15.75 18.75ZM15.75 15C15.5275 15 15.31 14.934 15.125 14.8104C14.94 14.6868 14.7958 14.5111 14.7106 14.3055C14.6255 14.1 14.6032 13.8738 14.6466 13.6555C14.69 13.4373 14.7972 13.2368 14.9545 13.0795C15.1118 12.9222 15.3123 12.815 15.5305 12.7716C15.7488 12.7282 15.975 12.7505 16.1805 12.8356C16.3861 12.9208 16.5618 13.065 16.6854 13.25C16.809 13.435 16.875 13.6525 16.875 13.875C16.8747 14.1733 16.756 14.4592 16.5451 14.6701C16.3342 14.881 16.0483 14.9997 15.75 15ZM17.25 9.75C17.25 9.84849 17.2306 9.94602 17.1929 10.037C17.1552 10.128 17.1 10.2107 17.0303 10.2803C16.9607 10.35 16.878 10.4052 16.787 10.4429C16.696 10.4806 16.5985 10.5 16.5 10.5H7.5C7.40151 10.5 7.30398 10.4806 7.21298 10.4429C7.12199 10.4052 7.03931 10.35 6.96966 10.2803C6.90002 10.2107 6.84477 10.128 6.80708 10.037C6.76939 9.94602 6.75 9.84849 6.75 9.75V6C6.75 5.90151 6.76939 5.80398 6.80708 5.71298C6.84477 5.62199 6.90002 5.53931 6.96966 5.46966C7.03931 5.40002 7.12199 5.34477 7.21298 5.30708C7.30398 5.26939 7.40151 5.25 7.5 5.25H16.5C16.5985 5.25 16.696 5.26939 16.787 5.30708C16.878 5.34477 16.9607 5.40002 17.0303 5.46966C17.1 5.53931 17.1552 5.62199 17.1929 5.71298C17.2306 5.80398 17.25 5.90151 17.25 6V9.75Z" fill="#1D1F21" style="fill: var(--ui-icon-primary-color);"/>
</svg>
