<svg  viewBox="0 0 24 24" fill="none" xmlns="http://www.w3.org/2000/svg" id="__THIS_ID_NEEDS_FOR_UI_ICON_COMPONENT__">
<path d="M19.4995 2.99976H17.2495V2.24976C17.2495 2.05084 17.1704 1.86008 17.0298 1.71943C16.8891 1.57877 16.6984 1.49976 16.4995 1.49976C16.3005 1.49976 16.1098 1.57877 15.9691 1.71943C15.8285 1.86008 15.7495 2.05084 15.7495 2.24976V2.99976H8.24945V2.24976C8.24945 2.05084 8.17043 1.86008 8.02978 1.71943C7.88913 1.57877 7.69836 1.49976 7.49945 1.49976C7.30054 1.49976 7.10977 1.57877 6.96912 1.71943C6.82847 1.86008 6.74945 2.05084 6.74945 2.24976V2.99976H4.49945C4.10175 3.00015 3.72044 3.15831 3.43922 3.43953C3.158 3.72075 2.99984 4.10205 2.99945 4.49976V19.4998C2.99984 19.8975 3.158 20.2788 3.43922 20.56C3.72044 20.8412 4.10175 20.9994 4.49945 20.9998H19.4995C19.8972 20.9994 20.2785 20.8412 20.5597 20.56C20.8409 20.2788 20.9991 19.8975 20.9995 19.4998V4.49976C20.9991 4.10205 20.8409 3.72075 20.5597 3.43953C20.2785 3.15831 19.8972 3.00015 19.4995 2.99976ZM19.4995 7.49976H4.49945V4.49976H6.74945V5.24976C6.74945 5.44867 6.82847 5.63943 6.96912 5.78009C7.10977 5.92074 7.30054 5.99976 7.49945 5.99976C7.69836 5.99976 7.88913 5.92074 8.02978 5.78009C8.17043 5.63943 8.24945 5.44867 8.24945 5.24976V4.49976H15.7495V5.24976C15.7495 5.44867 15.8285 5.63943 15.9691 5.78009C16.1098 5.92074 16.3005 5.99976 16.4995 5.99976C16.6984 5.99976 16.8891 5.92074 17.0298 5.78009C17.1704 5.63943 17.2495 5.44867 17.2495 5.24976V4.49976H19.4995V7.49976Z" fill="#1D1F21" style="fill: var(--ui-icon-primary-color);"/>
</svg>
