<svg  viewBox="0 0 24 24" fill="none" xmlns="http://www.w3.org/2000/svg" id="__THIS_ID_NEEDS_FOR_UI_ICON_COMPONENT__">
<path d="M19.4995 2.99976H17.2495V2.24976C17.2495 2.05084 17.1704 1.86008 17.0298 1.71943C16.8891 1.57877 16.6984 1.49976 16.4995 1.49976C16.3005 1.49976 16.1098 1.57877 15.9691 1.71943C15.8285 1.86008 15.7495 2.05084 15.7495 2.24976V2.99976H8.24945V2.24976C8.24945 2.05084 8.17043 1.86008 8.02978 1.71943C7.88913 1.57877 7.69836 1.49976 7.49945 1.49976C7.30054 1.49976 7.10977 1.57877 6.96912 1.71943C6.82847 1.86008 6.74945 2.05084 6.74945 2.24976V2.99976H4.49945C4.10175 3.00015 3.72044 3.15831 3.43922 3.43953C3.158 3.72075 2.99984 4.10205 2.99945 4.49976V19.4998C2.99984 19.8975 3.158 20.2788 3.43922 20.56C3.72044 20.8412 4.10175 20.9994 4.49945 20.9998H19.4995C19.8972 20.9994 20.2785 20.8412 20.5597 20.56C20.8409 20.2788 20.9991 19.8975 20.9995 19.4998V4.49976C20.9991 4.10205 20.8409 3.72075 20.5597 3.43953C20.2785 3.15831 19.8972 3.00015 19.4995 2.99976ZM14.7797 15.9695C14.8495 16.0391 14.9048 16.1218 14.9426 16.2128C14.9804 16.3038 14.9999 16.4014 14.9999 16.4999C15 16.5985 14.9806 16.6961 14.9429 16.7871C14.9052 16.8782 14.85 16.9609 14.7803 17.0306C14.7106 17.1003 14.6279 17.1555 14.5368 17.1932C14.4458 17.2309 14.3482 17.2503 14.2496 17.2502C14.1511 17.2502 14.0535 17.2307 13.9625 17.1929C13.8715 17.1551 13.7888 17.0998 13.7192 17.03L11.9995 15.3103L10.2797 17.03C10.139 17.1704 9.94837 17.2492 9.74962 17.2491C9.55086 17.249 9.36028 17.17 9.21974 17.0295C9.0792 16.8889 9.0002 16.6983 9.0001 16.4996C8.99999 16.3008 9.07879 16.1102 9.21918 15.9695L10.9389 14.2498L9.21918 12.53C9.14942 12.4604 9.09406 12.3777 9.05628 12.2867C9.01849 12.1957 8.99902 12.0981 8.99897 11.9996C8.99891 11.901 9.01828 11.8034 9.05597 11.7124C9.09366 11.6213 9.14893 11.5386 9.21861 11.4689C9.2883 11.3992 9.37103 11.344 9.46209 11.3063C9.55314 11.2686 9.65074 11.2492 9.74929 11.2493C9.84783 11.2493 9.94541 11.2688 10.0364 11.3066C10.1274 11.3444 10.2101 11.3997 10.2797 11.4695L11.9995 13.1892L13.7192 11.4695C13.7888 11.3997 13.8715 11.3444 13.9625 11.3066C14.0535 11.2688 14.1511 11.2493 14.2496 11.2493C14.3482 11.2492 14.4458 11.2686 14.5368 11.3063C14.6279 11.344 14.7106 11.3992 14.7803 11.4689C14.85 11.5386 14.9052 11.6213 14.9429 11.7124C14.9806 11.8034 15 11.901 14.9999 11.9996C14.9999 12.0981 14.9804 12.1957 14.9426 12.2867C14.9048 12.3777 14.8495 12.4604 14.7797 12.53L13.06 14.2498L14.7797 15.9695ZM19.4995 7.49976H4.49945V4.49976H6.74945V5.24976C6.74945 5.44867 6.82847 5.63943 6.96912 5.78009C7.10977 5.92074 7.30054 5.99976 7.49945 5.99976C7.69836 5.99976 7.88913 5.92074 8.02978 5.78009C8.17043 5.63943 8.24945 5.44867 8.24945 5.24976V4.49976H15.7495V5.24976C15.7495 5.44867 15.8285 5.63943 15.9691 5.78009C16.1098 5.92074 16.3005 5.99976 16.4995 5.99976C16.6984 5.99976 16.8891 5.92074 17.0298 5.78009C17.1704 5.63943 17.2495 5.44867 17.2495 5.24976V4.49976H19.4995V7.49976Z" fill="#1D1F21" style="fill: var(--ui-icon-primary-color);"/>
</svg>
