<svg  viewBox="0 0 24 24" fill="none" xmlns="http://www.w3.org/2000/svg" id="__THIS_ID_NEEDS_FOR_UI_ICON_COMPONENT__">
<path d="M22.5 10.5H21.4874L18.8833 4.64072C18.7653 4.3757 18.573 4.15055 18.3298 3.99248C18.0865 3.83441 17.8027 3.75019 17.5126 3.75H6.48743C6.19731 3.75019 5.91346 3.83442 5.6702 3.99251C5.42694 4.1506 5.23469 4.37577 5.1167 4.64081L2.51259 10.5H1.5C1.30109 10.5 1.11032 10.579 0.96967 10.7197C0.829018 10.8603 0.75 11.0511 0.75 11.25C0.75 11.4489 0.829018 11.6397 0.96967 11.7803C1.11032 11.921 1.30109 12 1.5 12H2.25V19.5C2.25045 19.8977 2.40864 20.279 2.68984 20.5602C2.97105 20.8414 3.35231 20.9995 3.75 21H6C6.39769 20.9995 6.77895 20.8414 7.06016 20.5602C7.34136 20.279 7.49955 19.8977 7.5 19.5V18H16.5V19.5C16.5005 19.8977 16.6586 20.279 16.9398 20.5602C17.221 20.8414 17.6023 20.9995 18 21H20.25C20.6477 20.9995 21.029 20.8414 21.3102 20.5602C21.5914 20.279 21.7495 19.8977 21.75 19.5V12H22.5C22.6989 12 22.8897 11.921 23.0303 11.7803C23.171 11.6397 23.25 11.4489 23.25 11.25C23.25 11.0511 23.171 10.8603 23.0303 10.7197C22.8897 10.579 22.6989 10.5 22.5 10.5Z" fill="#1D1F21" style="fill: var(--ui-icon-primary-color);"/>
</svg>
