<svg  viewBox="0 0 24 24" fill="none" xmlns="http://www.w3.org/2000/svg" id="__THIS_ID_NEEDS_FOR_UI_ICON_COMPONENT__">
<path d="M20.0303 18.9691C20.1352 19.074 20.2066 19.2076 20.2356 19.3531C20.2645 19.4986 20.2497 19.6494 20.1929 19.7865C20.1362 19.9235 20.04 20.0406 19.9167 20.1231C19.7933 20.2055 19.6483 20.2495 19.5 20.2495H4.5C4.35166 20.2495 4.20665 20.2055 4.08331 20.1231C3.95997 20.0406 3.86384 19.9235 3.80707 19.7865C3.75031 19.6494 3.73546 19.4986 3.7644 19.3531C3.79334 19.2076 3.86478 19.074 3.96968 18.9691L10.1893 12.7495H4.5C4.35166 12.7495 4.20665 12.7055 4.08331 12.6231C3.95997 12.5406 3.86384 12.4235 3.80707 12.2865C3.75031 12.1494 3.73546 11.9986 3.7644 11.8531C3.79334 11.7076 3.86478 11.574 3.96968 11.4691L11.4697 3.9691C11.6104 3.8285 11.8011 3.74951 12 3.74951C12.1989 3.74951 12.3896 3.8285 12.5303 3.9691L20.0303 11.4691C20.1352 11.574 20.2066 11.7076 20.2356 11.8531C20.2645 11.9986 20.2497 12.1494 20.1929 12.2865C20.1362 12.4235 20.04 12.5406 19.9167 12.6231C19.7933 12.7055 19.6483 12.7495 19.5 12.7495H13.8107L20.0303 18.9691Z" fill="#1D1F21" style="fill: var(--ui-icon-primary-color);"/>
</svg>
