<svg  viewBox="0 0 24 24" fill="none" xmlns="http://www.w3.org/2000/svg" id="__THIS_ID_NEEDS_FOR_UI_ICON_COMPONENT__">
<path d="M12 2.25C10.0716 2.25 8.18653 2.82183 6.58315 3.89317C4.97977 4.96451 3.73009 6.48726 2.99213 8.26884C2.25418 10.0504 2.0611 12.0108 2.4373 13.9021C2.81351 15.7934 3.74211 17.5307 5.10567 18.8943C6.46923 20.2579 8.20651 21.1865 10.0978 21.5627C11.9891 21.9389 13.9495 21.7458 15.7311 21.0078C17.5127 20.2699 19.0354 19.0202 20.1068 17.4168C21.1781 15.8134 21.75 13.9284 21.75 12C21.747 9.41506 20.7188 6.93684 18.8909 5.10901C17.0631 3.28118 14.5849 2.25299 12 2.25ZM15.8767 14.0574C15.8035 14.1233 15.718 14.1741 15.6252 14.207C15.5324 14.2399 15.4339 14.2541 15.3356 14.249C15.2372 14.2438 15.1409 14.2193 15.052 14.1769C14.9631 14.1344 14.8835 14.0749 14.8176 14.0017L12 10.8713L9.18233 14.0017C9.04924 14.1494 8.86294 14.2382 8.66438 14.2486C8.46583 14.259 8.27127 14.1901 8.1235 14.0571C7.97572 13.9241 7.88681 13.7378 7.87633 13.5393C7.86585 13.3407 7.93464 13.1461 8.06759 12.9983L11.4426 9.24829C11.5147 9.17325 11.6013 9.11356 11.6971 9.07278C11.7928 9.03201 11.8959 9.01099 12 9.01099C12.1041 9.01099 12.2071 9.03201 12.3029 9.07278C12.3986 9.11356 12.4852 9.17325 12.5573 9.24829L15.9323 12.9983C16.0653 13.1462 16.1341 13.3408 16.1237 13.5394C16.1132 13.7379 16.0244 13.9243 15.8767 14.0574Z" fill="#1D1F21" style="fill: var(--ui-icon-primary-color);"/>
</svg>
