<svg  viewBox="0 0 24 24" fill="none" xmlns="http://www.w3.org/2000/svg" id="__THIS_ID_NEEDS_FOR_UI_ICON_COMPONENT__">
<path d="M19.5001 4.5V19.5C19.5001 19.6483 19.4561 19.7933 19.3737 19.9167C19.2913 20.04 19.1742 20.1362 19.0371 20.1929C18.9001 20.2497 18.7493 20.2645 18.6038 20.2356C18.4583 20.2066 18.3247 20.1352 18.2198 20.0303L12.0001 13.8106V19.5C12.0001 19.6483 11.9561 19.7933 11.8737 19.9167C11.7913 20.04 11.6742 20.1362 11.5371 20.1929C11.4001 20.2497 11.2493 20.2645 11.1038 20.2356C10.9583 20.2066 10.8247 20.1352 10.7198 20.0303L3.21978 12.5303C3.15013 12.4607 3.09488 12.378 3.05719 12.287C3.01949 12.196 3.00009 12.0985 3.00009 12C3.00009 11.9015 3.01949 11.804 3.05719 11.713C3.09488 11.622 3.15013 11.5393 3.21978 11.4697L10.7198 3.96968C10.8247 3.86479 10.9583 3.79336 11.1038 3.76441C11.2493 3.73547 11.4001 3.75032 11.5371 3.80709C11.6742 3.86385 11.7913 3.95998 11.8737 4.08332C11.9561 4.20666 12.0001 4.35167 12.0001 4.5V10.1894L18.2198 3.96968C18.3247 3.86479 18.4583 3.79336 18.6038 3.76441C18.7493 3.73547 18.9001 3.75032 19.0371 3.80709C19.1742 3.86385 19.2913 3.95998 19.3737 4.08332C19.4561 4.20666 19.5001 4.35167 19.5001 4.5Z" fill="#1D1F21" style="fill: var(--ui-icon-primary-color);"/>
</svg>
