<svg  viewBox="0 0 24 24" fill="none" xmlns="http://www.w3.org/2000/svg" id="__THIS_ID_NEEDS_FOR_UI_ICON_COMPONENT__">
<path d="M12 2.25C10.0716 2.25 8.18653 2.82183 6.58315 3.89317C4.97977 4.96451 3.73009 6.48726 2.99213 8.26884C2.25418 10.0504 2.0611 12.0108 2.4373 13.9021C2.81351 15.7934 3.74211 17.5307 5.10567 18.8943C6.46923 20.2579 8.20651 21.1865 10.0978 21.5627C11.9891 21.9389 13.9495 21.7458 15.7311 21.0078C17.5127 20.2699 19.0354 19.0202 20.1068 17.4168C21.1781 15.8134 21.75 13.9284 21.75 12C21.747 9.41506 20.7188 6.93684 18.8909 5.10901C17.0631 3.28118 14.5849 2.25299 12 2.25ZM15.1267 12.5574L11.3767 15.9324C11.3035 15.9983 11.218 16.0492 11.1252 16.0821C11.0323 16.115 10.9339 16.1293 10.8355 16.1241C10.7371 16.119 10.6407 16.0945 10.5518 16.0521C10.4629 16.0097 10.3832 15.9502 10.3173 15.877C10.2514 15.8037 10.2006 15.7182 10.1677 15.6254C10.1349 15.5325 10.1206 15.4341 10.1258 15.3357C10.131 15.2373 10.1555 15.1409 10.198 15.052C10.2404 14.9632 10.3 14.8835 10.3732 14.8176L13.5036 12L10.3732 9.18237C10.2255 9.04928 10.1367 8.86298 10.1263 8.66442C10.116 8.46587 10.1848 8.27131 10.3179 8.12354C10.4509 7.97576 10.6371 7.88686 10.8357 7.87637C11.0342 7.86589 11.2288 7.93468 11.3767 8.06763L15.1267 11.4426C15.2048 11.5129 15.2673 11.5989 15.3101 11.6949C15.3529 11.7909 15.375 11.8949 15.375 12C15.375 12.1051 15.3529 12.2091 15.3101 12.3051C15.2673 12.4011 15.2048 12.4871 15.1267 12.5574Z" fill="#1D1F21" style="fill: var(--ui-icon-primary-color);"/>
</svg>
