<svg  viewBox="0 0 24 24" fill="none" xmlns="http://www.w3.org/2000/svg" id="__THIS_ID_NEEDS_FOR_UI_ICON_COMPONENT__">
<path d="M20.7803 12.5303L13.2803 20.0303C13.1754 20.1352 13.0418 20.2067 12.8963 20.2356C12.7508 20.2645 12.6 20.2497 12.463 20.1929C12.3259 20.1362 12.2088 20.04 12.1264 19.9167C12.044 19.7933 12 19.6483 12 19.5V13.8106L5.78032 20.0303C5.67543 20.1352 5.5418 20.2067 5.39631 20.2356C5.25083 20.2645 5.10002 20.2497 4.96298 20.1929C4.82593 20.1362 4.7088 20.04 4.62639 19.9167C4.54398 19.7933 4.5 19.6483 4.5 19.5V4.5C4.5 4.35167 4.54398 4.20666 4.62639 4.08332C4.7088 3.95998 4.82593 3.86385 4.96298 3.80709C5.10002 3.75032 5.25083 3.73547 5.39631 3.76441C5.5418 3.79336 5.67543 3.86479 5.78032 3.96968L12 10.1894V4.5C12 4.35167 12.044 4.20666 12.1264 4.08332C12.2088 3.95998 12.3259 3.86385 12.463 3.80709C12.6 3.75032 12.7508 3.73547 12.8963 3.76441C13.0418 3.79336 13.1754 3.86479 13.2803 3.96968L20.7803 11.4697C20.85 11.5393 20.9052 11.622 20.9429 11.713C20.9806 11.804 21 11.9015 21 12C21 12.0985 20.9806 12.196 20.9429 12.287C20.9052 12.378 20.85 12.4607 20.7803 12.5303Z" fill="#1D1F21" style="fill: var(--ui-icon-primary-color);"/>
</svg>
