<svg  viewBox="0 0 24 24" fill="none" xmlns="http://www.w3.org/2000/svg" id="__THIS_ID_NEEDS_FOR_UI_ICON_COMPONENT__">
<path d="M20.1929 15.2872C20.1361 15.4243 20.04 15.5414 19.9166 15.6238C19.7933 15.7062 19.6483 15.7502 19.5 15.7502H4.49996C4.35162 15.7502 4.20662 15.7062 4.08328 15.6238C3.95994 15.5414 3.86381 15.4243 3.80704 15.2872C3.75028 15.1502 3.73543 14.9994 3.76437 14.8539C3.79331 14.7084 3.86475 14.5748 3.96964 14.4699L11.4696 6.9699C11.6103 6.82926 11.8011 6.75024 12 6.75024C12.1989 6.75024 12.3896 6.82926 12.5303 6.9699L20.0303 14.4699C20.1352 14.5748 20.2066 14.7084 20.2355 14.8539C20.2645 14.9994 20.2496 15.1502 20.1929 15.2872Z" fill="#1D1F21" style="fill: var(--ui-icon-primary-color);"/>
</svg>
