<svg  viewBox="0 0 24 24" fill="none" xmlns="http://www.w3.org/2000/svg" id="__THIS_ID_NEEDS_FOR_UI_ICON_COMPONENT__">
<path d="M17.0303 12.5301L9.53032 20.0301C9.42543 20.135 9.29179 20.2064 9.1463 20.2354C9.00081 20.2643 8.85002 20.2494 8.71298 20.1927C8.57593 20.1359 8.4588 20.0398 8.37639 19.9164C8.29398 19.7931 8.25 19.6481 8.25 19.4998V4.49977C8.25 4.35143 8.29398 4.20643 8.37639 4.08309C8.4588 3.95975 8.57593 3.86362 8.71298 3.80686C8.85002 3.75009 9.00081 3.73523 9.1463 3.76416C9.29179 3.79309 9.42543 3.86452 9.53032 3.9694L17.0303 11.4694C17.1 11.539 17.1552 11.6217 17.1929 11.7127C17.2306 11.8037 17.25 11.9013 17.25 11.9998C17.25 12.0983 17.2306 12.1958 17.1929 12.2868C17.1552 12.3778 17.1 12.4605 17.0303 12.5301Z" fill="#1D1F21" style="fill: var(--ui-icon-primary-color);"/>
</svg>
