<svg  viewBox="0 0 24 24" fill="none" xmlns="http://www.w3.org/2000/svg" id="__THIS_ID_NEEDS_FOR_UI_ICON_COMPONENT__">
<path d="M18.8943 5.10572C17.531 3.74365 15.7945 2.81634 13.9043 2.44102C12.014 2.06569 10.055 2.2592 8.27471 2.99708C6.49444 3.73496 4.97291 4.98408 3.90243 6.58655C2.83196 8.18902 2.26061 10.0729 2.26061 12C2.26061 13.9271 2.83196 15.811 3.90243 17.4135C4.97291 19.0159 6.49444 20.2651 8.27471 21.0029C10.055 21.7408 12.014 21.9343 13.9043 21.559C15.7945 21.1837 17.531 20.2564 18.8943 18.8943C20.72 17.0643 21.7453 14.5849 21.7453 12C21.7453 9.41508 20.72 6.93569 18.8943 5.10572ZM11.0303 14.4697C11.1 14.5393 11.1554 14.622 11.1932 14.713C11.231 14.8041 11.2504 14.9016 11.2505 15.0002C11.2506 15.0987 11.2312 15.1963 11.1935 15.2874C11.1558 15.3784 11.1005 15.4612 11.0309 15.5308C10.9612 15.6005 10.8784 15.6558 10.7874 15.6935C10.6963 15.7312 10.5987 15.7505 10.5002 15.7505C10.4016 15.7504 10.3041 15.731 10.213 15.6932C10.122 15.6554 10.0394 15.6 9.96974 15.5303L6.96974 12.5303C6.90008 12.4607 6.84482 12.378 6.80712 12.287C6.76942 12.196 6.75001 12.0985 6.75001 12C6.75001 11.9015 6.76942 11.804 6.80712 11.713C6.84482 11.622 6.90008 11.5394 6.96974 11.4697L9.96974 8.46973C10.1104 8.32934 10.3011 8.25054 10.4998 8.25065C10.6986 8.25076 10.8892 8.32976 11.0297 8.4703C11.1703 8.61084 11.2493 8.80142 11.2494 9.00017C11.2495 9.19892 11.1707 9.38959 11.0303 9.53028L8.56056 12L11.0303 14.4697ZM16.2803 14.4697C16.35 14.5393 16.4054 14.622 16.4432 14.713C16.481 14.8041 16.5004 14.9016 16.5005 15.0002C16.5006 15.0987 16.4812 15.1963 16.4435 15.2874C16.4058 15.3784 16.3505 15.4612 16.2809 15.5308C16.2112 15.6005 16.1284 15.6558 16.0374 15.6935C15.9463 15.7312 15.8487 15.7505 15.7502 15.7505C15.6516 15.7504 15.5541 15.731 15.463 15.6932C15.372 15.6554 15.2894 15.6 15.2197 15.5303L12.2197 12.5303C12.1501 12.4607 12.0948 12.378 12.0571 12.287C12.0194 12.196 12 12.0985 12 12C12 11.9015 12.0194 11.804 12.0571 11.713C12.0948 11.622 12.1501 11.5394 12.2197 11.4697L15.2197 8.46973C15.3604 8.32934 15.5511 8.25054 15.7498 8.25065C15.9486 8.25076 16.1392 8.32976 16.2797 8.4703C16.4203 8.61084 16.4993 8.80142 16.4994 9.00017C16.4995 9.19892 16.4207 9.38959 16.2803 9.53028L13.8106 12L16.2803 14.4697Z" fill="#1D1F21" style="fill: var(--ui-icon-primary-color);"/>
</svg>
