<svg  viewBox="0 0 24 24" fill="none" xmlns="http://www.w3.org/2000/svg" id="__THIS_ID_NEEDS_FOR_UI_ICON_COMPONENT__">
<path d="M12 2.25C10.0716 2.25 8.18653 2.82183 6.58315 3.89317C4.97977 4.96451 3.73009 6.48726 2.99213 8.26884C2.25418 10.0504 2.0611 12.0108 2.4373 13.9021C2.81351 15.7934 3.74211 17.5307 5.10567 18.8943C6.46923 20.2579 8.20651 21.1865 10.0978 21.5627C11.9891 21.9389 13.9495 21.7458 15.7311 21.0078C17.5127 20.2699 19.0354 19.0202 20.1068 17.4168C21.1781 15.8134 21.75 13.9284 21.75 12C21.747 9.41506 20.7188 6.93684 18.8909 5.10901C17.0631 3.28118 14.5849 2.25299 12 2.25ZM15.9323 11.3767L12.5573 15.1267C12.487 15.2049 12.4011 15.2673 12.305 15.3101C12.209 15.3529 12.1051 15.375 12 15.375C11.8948 15.375 11.7909 15.3529 11.6949 15.3101C11.5988 15.2673 11.5129 15.2049 11.4426 15.1267L8.06759 11.3767C8.00164 11.3035 7.95077 11.2181 7.91786 11.1252C7.88496 11.0324 7.87067 10.9339 7.87582 10.8356C7.88097 10.7372 7.90544 10.6408 7.94786 10.5519C7.99027 10.4629 8.04979 10.3833 8.123 10.3174C8.19622 10.2514 8.28171 10.2006 8.37458 10.1678C8.46745 10.1349 8.56588 10.1207 8.66426 10.1259C8.76263 10.131 8.85902 10.1556 8.94791 10.198C9.0368 10.2405 9.11646 10.3 9.18233 10.3733L12 13.5037L14.8176 10.3733C14.8835 10.3 14.9631 10.2405 15.052 10.198C15.1409 10.1556 15.2373 10.131 15.3357 10.1259C15.434 10.1207 15.5325 10.1349 15.6253 10.1678C15.7182 10.2006 15.8037 10.2514 15.8769 10.3174C15.9501 10.3833 16.0096 10.4629 16.0521 10.5519C16.0945 10.6408 16.119 10.7372 16.1241 10.8356C16.1292 10.9339 16.115 11.0324 16.0821 11.1252C16.0491 11.2181 15.9983 11.3035 15.9323 11.3767Z" fill="#1D1F21" style="fill: var(--ui-icon-primary-color);"/>
</svg>
