<svg  viewBox="0 0 24 24" fill="none" xmlns="http://www.w3.org/2000/svg" id="__THIS_ID_NEEDS_FOR_UI_ICON_COMPONENT__">
<path d="M15.75 4.49977V19.4998C15.75 19.6481 15.706 19.7931 15.6236 19.9164C15.5412 20.0398 15.4241 20.1359 15.287 20.1927C15.15 20.2494 14.9992 20.2643 14.8537 20.2354C14.7082 20.2064 14.5746 20.135 14.4697 20.0301L6.96968 12.5301C6.90003 12.4605 6.84478 12.3778 6.80708 12.2868C6.76939 12.1958 6.74999 12.0983 6.74999 11.9998C6.74999 11.9013 6.76939 11.8037 6.80708 11.7127C6.84478 11.6217 6.90003 11.539 6.96968 11.4694L14.4697 3.9694C14.5746 3.86452 14.7082 3.79309 14.8537 3.76416C14.9992 3.73523 15.15 3.75009 15.287 3.80686C15.4241 3.86362 15.5412 3.95975 15.6236 4.08309C15.706 4.20643 15.75 4.35143 15.75 4.49977Z" fill="#1D1F21" style="fill: var(--ui-icon-primary-color);"/>
</svg>
