<svg  viewBox="0 0 24 24" fill="none" xmlns="http://www.w3.org/2000/svg" id="__THIS_ID_NEEDS_FOR_UI_ICON_COMPONENT__">
<path d="M18.8943 18.8942C20.2564 17.5309 21.1837 15.7944 21.559 13.9042C21.9344 12.0139 21.7409 10.0549 21.003 8.2746C20.2651 6.49433 19.016 4.97279 17.4135 3.90232C15.811 2.83185 13.9272 2.2605 12.0001 2.2605C10.0729 2.2605 8.18906 2.83185 6.5866 3.90232C4.98413 4.97279 3.73501 6.49433 2.99713 8.2746C2.25925 10.0549 2.06574 12.0139 2.44106 13.9042C2.81639 15.7944 3.7437 17.5309 5.10577 18.8942C6.93574 20.7199 9.41513 21.7451 12.0001 21.7451C14.585 21.7451 17.0644 20.7199 18.8943 18.8942ZM9.53033 11.0302C9.46072 11.0999 9.37804 11.1553 9.28702 11.1931C9.19601 11.2309 9.09844 11.2503 8.99989 11.2504C8.90134 11.2504 8.80375 11.2311 8.71269 11.1934C8.62163 11.1557 8.5389 11.1004 8.46921 11.0307C8.39953 10.9611 8.34426 10.8783 8.30658 10.7873C8.26889 10.6962 8.24952 10.5986 8.24957 10.5001C8.24962 10.4015 8.2691 10.3039 8.30688 10.2129C8.34467 10.1219 8.40002 10.0392 8.46978 9.96963L11.4698 6.96963C11.5394 6.89997 11.6221 6.84471 11.7131 6.80701C11.804 6.7693 11.9016 6.7499 12.0001 6.7499C12.0985 6.7499 12.1961 6.7693 12.2871 6.80701C12.378 6.84471 12.4607 6.89997 12.5303 6.96963L15.5303 9.96963C15.6707 10.1103 15.7495 10.301 15.7494 10.4997C15.7493 10.6985 15.6703 10.8891 15.5298 11.0296C15.3892 11.1701 15.1986 11.2491 14.9999 11.2493C14.8011 11.2494 14.6105 11.1706 14.4698 11.0302L12.0001 8.56045L9.53033 11.0302ZM9.53033 16.2802C9.46072 16.3499 9.37804 16.4053 9.28702 16.4431C9.19601 16.4809 9.09844 16.5003 8.99989 16.5004C8.90134 16.5004 8.80375 16.4811 8.71269 16.4434C8.62163 16.4057 8.5389 16.3504 8.46921 16.2807C8.39953 16.2111 8.34426 16.1283 8.30658 16.0373C8.26889 15.9462 8.24952 15.8486 8.24957 15.7501C8.24962 15.6515 8.2691 15.5539 8.30688 15.4629C8.34467 15.3719 8.40002 15.2892 8.46978 15.2196L11.4698 12.2196C11.5394 12.15 11.6221 12.0947 11.7131 12.057C11.804 12.0193 11.9016 11.9999 12.0001 11.9999C12.0985 11.9999 12.1961 12.0193 12.2871 12.057C12.378 12.0947 12.4607 12.15 12.5303 12.2196L15.5303 15.2196C15.6707 15.3603 15.7495 15.551 15.7494 15.7497C15.7493 15.9485 15.6703 16.1391 15.5298 16.2796C15.3892 16.4201 15.1986 16.4991 14.9999 16.4993C14.8011 16.4994 14.6105 16.4206 14.4698 16.2802L12.0001 13.8104L9.53033 16.2802Z" fill="#1D1F21" style="fill: var(--ui-icon-primary-color);"/>
</svg>
