<svg  viewBox="0 0 24 24" fill="none" xmlns="http://www.w3.org/2000/svg" id="__THIS_ID_NEEDS_FOR_UI_ICON_COMPONENT__">
<path d="M20.0303 9.53034L12.5303 17.0303C12.4607 17.1 12.378 17.1552 12.287 17.1929C12.196 17.2306 12.0985 17.25 12 17.25C11.9015 17.25 11.804 17.2306 11.713 17.1929C11.622 17.1552 11.5393 17.1 11.4697 17.0303L3.9697 9.53034C3.86481 9.42546 3.79337 9.29182 3.76443 9.14633C3.73549 9.00084 3.75034 8.85004 3.8071 8.713C3.86387 8.57595 3.96 8.45881 4.08334 8.3764C4.20667 8.29399 4.35168 8.25 4.50002 8.25H19.5C19.6484 8.25 19.7934 8.29399 19.9167 8.3764C20.04 8.45881 20.1362 8.57595 20.1929 8.713C20.2497 8.85004 20.2645 9.00084 20.2356 9.14633C20.2067 9.29182 20.1352 9.42546 20.0303 9.53034Z" fill="#1D1F21" style="fill: var(--ui-icon-primary-color);"/>
</svg>
