<svg  viewBox="0 0 24 24" fill="none" xmlns="http://www.w3.org/2000/svg" id="__THIS_ID_NEEDS_FOR_UI_ICON_COMPONENT__">
<path d="M18.8943 5.10572C17.531 3.74365 15.7945 2.81634 13.9043 2.44102C12.014 2.06569 10.055 2.2592 8.27471 2.99708C6.49444 3.73496 4.97291 4.98408 3.90243 6.58655C2.83196 8.18902 2.26061 10.0729 2.26061 12C2.26061 13.9271 2.83196 15.811 3.90243 17.4135C4.97291 19.0159 6.49444 20.2651 8.27471 21.0029C10.055 21.7408 12.014 21.9343 13.9043 21.559C15.7945 21.1837 17.531 20.2564 18.8943 18.8943C20.72 17.0643 21.7453 14.5849 21.7453 12C21.7453 9.41508 20.72 6.93569 18.8943 5.10572ZM11.7803 12.5303L8.78029 15.5303C8.6396 15.6707 8.44893 15.7495 8.25018 15.7494C8.05143 15.7493 7.86084 15.6703 7.7203 15.5297C7.57977 15.3892 7.50076 15.1986 7.50066 14.9998C7.50055 14.8011 7.57935 14.6104 7.71974 14.4697L10.1895 12L7.71974 9.53028C7.57935 9.38959 7.50055 9.19892 7.50066 9.00017C7.50076 8.80142 7.57977 8.61084 7.7203 8.4703C7.86084 8.32976 8.05143 8.25076 8.25018 8.25065C8.44893 8.25054 8.6396 8.32934 8.78029 8.46973L11.7803 11.4697C11.8499 11.5394 11.9052 11.622 11.9429 11.713C11.9806 11.804 12 11.9015 12 12C12 12.0985 11.9806 12.196 11.9429 12.287C11.9052 12.378 11.8499 12.4607 11.7803 12.5303ZM17.0303 12.5303L14.0303 15.5303C13.8896 15.6707 13.6989 15.7495 13.5002 15.7494C13.3014 15.7493 13.1108 15.6703 12.9703 15.5297C12.8298 15.3892 12.7508 15.1986 12.7507 14.9998C12.7506 14.8011 12.8294 14.6104 12.9697 14.4697L15.4395 12L12.9697 9.53028C12.8294 9.38959 12.7506 9.19892 12.7507 9.00017C12.7508 8.80142 12.8298 8.61084 12.9703 8.4703C13.1108 8.32976 13.3014 8.25076 13.5002 8.25065C13.6989 8.25054 13.8896 8.32934 14.0303 8.46973L17.0303 11.4697C17.0999 11.5394 17.1552 11.622 17.1929 11.713C17.2306 11.804 17.25 11.9015 17.25 12C17.25 12.0985 17.2306 12.196 17.1929 12.287C17.1552 12.378 17.0999 12.4607 17.0303 12.5303Z" fill="#1D1F21" style="fill: var(--ui-icon-primary-color);"/>
</svg>
