<svg  viewBox="0 0 24 24" fill="none" xmlns="http://www.w3.org/2000/svg" id="__THIS_ID_NEEDS_FOR_UI_ICON_COMPONENT__">
<path d="M18 21.0001H2.56063C2.26395 21.0001 1.97393 20.9122 1.72725 20.7473C1.48057 20.5825 1.28831 20.3482 1.17479 20.0741C1.06127 19.8 1.03158 19.4984 1.08948 19.2075C1.14739 18.9165 1.29028 18.6492 1.50009 18.4395L16.9393 3.00014C17.149 2.79036 17.4163 2.6475 17.7073 2.58962C17.9983 2.53174 18.2999 2.56144 18.574 2.67497C18.8481 2.7885 19.0823 2.98076 19.2472 3.22744C19.412 3.47411 19.5 3.76412 19.5 4.0608V19.5001C19.4995 19.8978 19.3414 20.2791 19.0602 20.5603C18.7789 20.8415 18.3977 20.9997 18 21.0001ZM2.56118 19.4997L18 19.5001V4.06142L2.56072 19.5001L2.56118 19.4997Z" fill="#1D1F21" style="fill: var(--ui-icon-primary-color);"/>
</svg>
