<svg  viewBox="0 0 24 24" fill="none" xmlns="http://www.w3.org/2000/svg" id="__THIS_ID_NEEDS_FOR_UI_ICON_COMPONENT__">
<path d="M21.5303 13.7198C21.671 13.8604 21.75 14.0512 21.75 14.2501C21.75 14.449 21.671 14.6398 21.5303 14.7805C21.3897 14.9211 21.1989 15.0002 21 15.0002C20.8011 15.0002 20.6103 14.9212 20.4697 14.7805L18.75 13.0608L17.0303 14.7805C16.8896 14.9212 16.6989 15.0002 16.4999 15.0002C16.301 15.0002 16.1103 14.9211 15.9696 14.7805C15.829 14.6398 15.7499 14.449 15.75 14.2501C15.75 14.0512 15.829 13.8604 15.9697 13.7198L17.6893 12.0001L15.9697 10.2805C15.829 10.1399 15.75 9.94909 15.75 9.75018C15.7499 9.55126 15.829 9.36049 15.9696 9.21983C16.1103 9.07916 16.301 9.00014 16.4999 9.00013C16.6989 9.00012 16.8896 9.07913 17.0303 9.21978L18.75 10.9395L20.4697 9.21978C20.5393 9.15013 20.622 9.09489 20.713 9.0572C20.804 9.01952 20.9015 9.00012 21 9.00012C21.0985 9.00013 21.196 9.01953 21.287 9.05723C21.378 9.09492 21.4607 9.15017 21.5303 9.21982C21.6 9.28947 21.6552 9.37215 21.6929 9.46315C21.7306 9.55415 21.75 9.65168 21.75 9.75017C21.75 9.84867 21.7306 9.9462 21.6929 10.0372C21.6552 10.1282 21.5999 10.2109 21.5303 10.2805L19.8107 12.0001L21.5303 13.7198ZM18.75 15.1822L18.091 15.8411C17.669 16.2631 17.0967 16.5002 16.5 16.5002C15.9032 16.5002 15.3309 16.2631 14.909 15.8411C14.487 15.4192 14.25 14.8469 14.25 14.2501C14.25 13.6534 14.487 13.0811 14.909 12.6591L15.568 12.0001L14.909 11.3411C14.487 10.9192 14.25 10.3469 14.25 9.75015C14.25 9.1534 14.487 8.5811 14.909 8.15914C15.3309 7.73718 15.9032 7.50013 16.5 7.50013C17.0967 7.50013 17.669 7.73718 18.091 8.15914L18.75 8.81814L19.409 8.15914C19.4382 8.12989 19.4696 8.10421 19.5 8.07688V4.06078C19.5 3.76411 19.412 3.4741 19.2472 3.22743C19.0824 2.98076 18.8481 2.7885 18.574 2.67497C18.2999 2.56144 17.9983 2.53174 17.7074 2.58962C17.4164 2.6475 17.1491 2.79036 16.9393 3.00014L1.49993 18.4395C1.29017 18.6493 1.14732 18.9166 1.08945 19.2075C1.03158 19.4985 1.06129 19.8001 1.17482 20.0742C1.28836 20.3483 1.48061 20.5825 1.72728 20.7473C1.97395 20.9122 2.26395 21.0001 2.56061 21.0001H18C18.3977 20.9997 18.7789 20.8415 19.0601 20.5603C19.3413 20.2791 19.4995 19.8978 19.5 19.5001V15.9234C19.4696 15.8961 19.4382 15.8704 19.409 15.8411L18.75 15.1822Z" fill="#1D1F21" style="fill: var(--ui-icon-primary-color);"/>
</svg>
