<svg  viewBox="0 0 24 24" fill="none" xmlns="http://www.w3.org/2000/svg" id="__THIS_ID_NEEDS_FOR_UI_ICON_COMPONENT__">
<path d="M19.5 4.06078V19.5001C19.4995 19.8978 19.3413 20.2791 19.0601 20.5603C18.7789 20.8415 18.3977 20.9997 18 21.0001H2.56061C2.26393 21.0002 1.97391 20.9122 1.72723 20.7474C1.48055 20.5825 1.28828 20.3482 1.17476 20.0741C1.06124 19.8 1.03155 19.4984 1.08945 19.2075C1.14736 18.9165 1.29025 18.6492 1.50006 18.4395L16.9392 3.00014C17.149 2.79036 17.4163 2.6475 17.7073 2.58962C17.9983 2.53174 18.2999 2.56144 18.5739 2.67497C18.848 2.78849 19.0823 2.98075 19.2471 3.22742C19.412 3.47409 19.5 3.7641 19.5 4.06078Z" fill="#1D1F21" style="fill: var(--ui-icon-primary-color);"/>
</svg>
