<svg  viewBox="0 0 24 24" fill="none" xmlns="http://www.w3.org/2000/svg" id="__THIS_ID_NEEDS_FOR_UI_ICON_COMPONENT__">
<path d="M12.1396 8.80959C12.0099 8.66698 11.9401 8.47993 11.9447 8.28725C11.9493 8.09457 12.0279 7.91105 12.1642 7.77477L16.9394 2.99966C17.1491 2.78987 17.4164 2.647 17.7074 2.58912C17.9984 2.53125 18.3 2.56096 18.5741 2.6745C18.8482 2.78804 19.0824 2.98031 19.2472 3.227C19.4121 3.47369 19.5 3.76371 19.5 4.06039V14.9662C19.5 15.1176 19.4542 15.2654 19.3686 15.3903C19.283 15.5152 19.1616 15.6112 19.0204 15.6658C18.8793 15.7204 18.7249 15.731 18.5775 15.6961C18.4302 15.6613 18.2969 15.5828 18.195 15.4708L12.1396 8.80959ZM20.0829 20.7204C20.0954 20.705 20.1073 20.6892 20.1184 20.673C20.121 20.6692 20.1234 20.6654 20.126 20.6615C20.1366 20.6453 20.1466 20.629 20.1559 20.6123C20.1587 20.6072 20.1613 20.6019 20.164 20.5967C20.1722 20.5809 20.1801 20.565 20.1871 20.5488C20.1902 20.5416 20.193 20.5342 20.1959 20.527C20.2017 20.5122 20.2073 20.4974 20.2122 20.4824C20.2152 20.4732 20.2178 20.4639 20.2204 20.4546C20.2243 20.4408 20.228 20.427 20.2311 20.4131C20.2334 20.4026 20.2353 20.3921 20.2372 20.3815C20.2396 20.368 20.2418 20.3545 20.2434 20.3408C20.2447 20.3299 20.2457 20.319 20.2465 20.308C20.2476 20.2942 20.2483 20.2805 20.2486 20.2667C20.2488 20.261 20.2495 20.2554 20.2495 20.2497C20.2495 20.2439 20.2488 20.2383 20.2486 20.2326C20.2483 20.2196 20.2476 20.2067 20.2467 20.1938C20.2457 20.1812 20.2446 20.1686 20.2431 20.1562C20.2417 20.1453 20.2399 20.1345 20.2381 20.1236C20.2357 20.1096 20.2331 20.0957 20.23 20.0819C20.2279 20.0728 20.2255 20.0639 20.223 20.0549C20.219 20.0398 20.2147 20.0249 20.2098 20.0102C20.2072 20.0025 20.2042 19.9949 20.2014 19.9873C20.1955 19.9717 20.1894 19.9563 20.1826 19.9413C20.1796 19.9346 20.1763 19.9281 20.1731 19.9216C20.1654 19.9057 20.1572 19.89 20.1484 19.8747C20.1453 19.8693 20.1419 19.864 20.1386 19.8587C20.1286 19.8424 20.1182 19.8265 20.107 19.8111C20.104 19.8069 20.1008 19.8028 20.0977 19.7987C20.0853 19.7822 20.0722 19.7663 20.0585 19.7509C20.0571 19.7493 20.0559 19.7475 20.0544 19.7459L5.05443 3.24593C4.98817 3.17305 4.90821 3.11394 4.81911 3.07197C4.73 3.02999 4.63351 3.00598 4.53512 3.0013C4.43674 2.99662 4.3384 3.01137 4.24571 3.04469C4.15303 3.07802 4.06782 3.12928 3.99494 3.19553C3.92206 3.26179 3.86295 3.34176 3.82098 3.43086C3.779 3.51996 3.75499 3.61646 3.75031 3.71484C3.74563 3.81323 3.76038 3.91157 3.7937 4.00425C3.82703 4.09694 3.87828 4.18215 3.94454 4.25503L9.53473 10.4043L1.49999 18.439C1.2902 18.6488 1.14734 18.9161 1.08945 19.207C1.03157 19.498 1.06127 19.7996 1.1748 20.0737C1.28833 20.3478 1.48059 20.5821 1.72727 20.7469C1.97394 20.9117 2.26396 20.9997 2.56063 20.9997H19.4835C19.4889 20.9998 19.4943 21.0005 19.4997 21.0005C19.5999 21.0003 19.699 20.98 19.7912 20.9408L19.7917 20.9406C19.8135 20.9314 19.8349 20.921 19.8559 20.9096L19.8582 20.9084C19.8781 20.8976 19.8975 20.8857 19.9166 20.8729L19.921 20.8699C19.9389 20.8577 19.9562 20.8448 19.9732 20.8309L19.9797 20.8255C19.9878 20.8188 19.9961 20.8126 20.004 20.8055C20.0113 20.7988 20.0177 20.7915 20.0247 20.7846C20.0282 20.7812 20.0316 20.7777 20.035 20.7742C20.0489 20.7601 20.0621 20.7457 20.0745 20.7308C20.0774 20.7274 20.0801 20.7239 20.0829 20.7204Z" fill="#1D1F21" style="fill: var(--ui-icon-primary-color);"/>
</svg>
