<svg  viewBox="0 0 24 24" fill="none" xmlns="http://www.w3.org/2000/svg" id="__THIS_ID_NEEDS_FOR_UI_ICON_COMPONENT__">
<path d="M18.574 2.67455C18.3 2.56043 17.9982 2.5304 17.7071 2.58831C17.416 2.64621 17.1487 2.78941 16.9392 2.9997L6.96995 12.969L6.96956 12.9694L1.50002 18.439C1.29021 18.6488 1.14732 18.916 1.08942 19.207C1.03152 19.498 1.06121 19.7996 1.17473 20.0737C1.28825 20.3478 1.48051 20.5821 1.72719 20.7469C1.97387 20.9117 2.26389 20.9997 2.56056 20.9997H17.9999C18.3976 20.9993 18.7789 20.8411 19.0601 20.5599C19.3413 20.2787 19.4995 19.8974 19.4999 19.4997V4.06034C19.5005 3.76354 19.4128 3.47328 19.2479 3.2265C19.083 2.97973 18.8484 2.78759 18.574 2.67455ZM17.9999 19.4997L8.24992 19.4994V13.8106L17.9999 4.06098V19.4997Z" fill="#1D1F21" style="fill: var(--ui-icon-primary-color);"/>
</svg>
