<svg  viewBox="0 0 24 24" fill="none" xmlns="http://www.w3.org/2000/svg" id="__THIS_ID_NEEDS_FOR_UI_ICON_COMPONENT__">
<path d="M18.574 2.67457C18.3 2.56043 17.9983 2.5304 17.7071 2.5883C17.416 2.64621 17.1487 2.78942 16.9393 2.99972L1.50008 18.439C1.3566 18.582 1.24365 18.7525 1.16805 18.9404C1.09246 19.1283 1.0558 19.3296 1.06031 19.532C1.06113 19.5685 1.0633 19.605 1.06681 19.6415C1.09001 19.8815 1.17048 20.1124 1.30143 20.3148C1.43238 20.5172 1.61 20.6852 1.81937 20.8048C1.85096 20.8227 1.88317 20.8395 1.91603 20.8551C2.11748 20.9506 2.33768 21 2.56063 20.9997H18C18.3977 20.9993 18.7789 20.8411 19.0602 20.5599C19.3414 20.2787 19.4995 19.8974 19.5 19.4997V4.06035C19.5006 3.76355 19.4128 3.47329 19.2479 3.22651C19.083 2.97973 18.8485 2.7876 18.574 2.67457ZM18 19.4997L15.75 19.4997V6.3109L18 4.06095V19.4997Z" fill="#1D1F21" style="fill: var(--ui-icon-primary-color);"/>
</svg>
