<svg  viewBox="0 0 24 24" fill="none" xmlns="http://www.w3.org/2000/svg" id="__THIS_ID_NEEDS_FOR_UI_ICON_COMPONENT__">
<path d="M20.4628 7.16243C20.4565 7.14993 20.4508 7.13729 20.4437 7.12502C20.4341 7.10845 20.4235 7.09294 20.4129 7.07742C19.1122 4.85231 16.9831 3.23292 14.4915 2.57349C11.9999 1.91406 9.34854 2.26827 7.11742 3.55865C4.88629 4.84902 3.25704 6.97051 2.58605 9.45903C1.91506 11.9476 2.25696 14.6005 3.53697 16.8376C3.54328 16.8501 3.54904 16.8628 3.55613 16.875C3.56283 16.8867 3.57099 16.8968 3.57821 16.9079C4.87578 19.1366 7.00364 20.7603 9.49583 21.4234C11.988 22.0865 14.6414 21.7349 16.875 20.4458C19.1085 19.1566 20.7402 17.0349 21.4126 14.5452C22.0851 12.0555 21.7436 9.40081 20.4628 7.16243ZM18.7374 7.24413L12.7499 10.701V3.78449C13.9388 3.89374 15.0898 4.25964 16.1235 4.85693C17.1572 5.45423 18.049 6.2687 18.7374 7.24413ZM11.9999 20.25C10.6791 20.2498 9.37773 19.9323 8.20524 19.3242C7.03276 18.7162 6.0235 17.8353 5.26239 16.7559L19.4892 8.54212C20.07 9.79902 20.325 11.1819 20.2308 12.5633C20.1365 13.9447 19.6961 15.2801 18.9499 16.4465C18.2038 17.6129 17.1761 18.5727 15.9615 19.2374C14.7469 19.9021 13.3845 20.2503 11.9999 20.25Z" fill="#1D1F21" style="fill: var(--ui-icon-primary-color);"/>
</svg>
