<svg  viewBox="0 0 24 24" fill="none" xmlns="http://www.w3.org/2000/svg" id="__THIS_ID_NEEDS_FOR_UI_ICON_COMPONENT__">
<path d="M9.37488 10.9175C9.4889 10.8517 9.58357 10.757 9.6494 10.643C9.71523 10.529 9.74988 10.3997 9.74988 10.268V3.51215C9.74988 3.39217 9.72108 3.27395 9.66593 3.1674C9.61077 3.06085 9.53086 2.9691 9.4329 2.89982C9.33495 2.83055 9.2218 2.78579 9.10296 2.7693C8.98413 2.75281 8.86307 2.76506 8.74995 2.80504C6.56052 3.58165 4.71972 5.11344 3.55817 7.12529C2.39663 9.13714 1.99044 11.4972 2.41258 13.7816C2.43437 13.8997 2.48419 14.0108 2.55786 14.1056C2.63152 14.2004 2.72686 14.2761 2.83588 14.3264C2.94489 14.3767 3.06439 14.4001 3.18432 14.3946C3.30425 14.3891 3.42111 14.3549 3.52508 14.2949L9.37488 10.9175ZM8.24988 4.64905V9.83496L3.76092 12.4266C3.75368 12.2846 3.75005 12.1424 3.75002 12C3.75167 10.4794 4.17258 8.98875 4.96646 7.69187C5.76034 6.39499 6.89645 5.34213 8.24988 4.64905ZM21.75 12C21.7498 14.1399 21.0456 16.2203 19.7461 17.9205C18.4467 19.6206 16.624 20.8461 14.5591 21.4079C12.4943 21.9697 10.302 21.8368 8.32023 21.0294C6.33845 20.2221 4.67728 18.7853 3.59282 16.9406C3.58315 16.9241 3.57493 16.9073 3.56664 16.8905C3.56337 16.8851 3.55941 16.8804 3.55625 16.875C3.4568 16.7027 3.42986 16.498 3.48134 16.3059C3.53282 16.1138 3.65851 15.9499 3.83077 15.8505L11.25 11.567V3C11.25 2.80109 11.329 2.61032 11.4697 2.46967C11.6103 2.32902 11.8011 2.25 12 2.25C13.7015 2.25103 15.3732 2.6971 16.849 3.54393C18.3249 4.39077 19.5535 5.6089 20.413 7.07739C20.4236 7.09291 20.4342 7.10843 20.4438 7.125C20.4509 7.13727 20.4566 7.1499 20.4629 7.1624C21.3083 8.63438 21.7521 10.3026 21.75 12Z" fill="#1D1F21" style="fill: var(--ui-icon-primary-color);"/>
</svg>
