<svg  viewBox="0 0 24 24" fill="none" xmlns="http://www.w3.org/2000/svg" id="__THIS_ID_NEEDS_FOR_UI_ICON_COMPONENT__">
<path d="M21.75 19.5C21.7499 19.6989 21.6709 19.8897 21.5303 20.0303C21.3896 20.171 21.1989 20.25 21 20.25H2.99995C2.80104 20.25 2.61028 20.171 2.46963 20.0303C2.32898 19.8897 2.24996 19.6989 2.24995 19.5V4.5C2.24995 4.30109 2.32897 4.11032 2.46962 3.96967C2.61028 3.82902 2.80104 3.75 2.99995 3.75C3.19887 3.75 3.38963 3.82902 3.53028 3.96967C3.67094 4.11032 3.74995 4.30109 3.74995 4.5V13.3475L8.50639 9.18558C8.63579 9.07234 8.80017 9.00702 8.972 9.00054C9.14382 8.99407 9.31266 9.04684 9.45021 9.15001L14.9639 13.2852L20.5064 8.43558C20.5805 8.37058 20.6667 8.32083 20.76 8.28916C20.8534 8.2575 20.952 8.24455 21.0504 8.25105C21.1487 8.25754 21.2448 8.28337 21.3332 8.32703C21.4216 8.3707 21.5005 8.43136 21.5654 8.50554C21.6303 8.57972 21.6799 8.66597 21.7115 8.75935C21.743 8.85273 21.7558 8.95142 21.7492 9.04976C21.7426 9.1481 21.7166 9.24418 21.6729 9.33249C21.6291 9.4208 21.5683 9.49961 21.4941 9.56442L15.4941 14.8144C15.3647 14.9277 15.2003 14.993 15.0285 14.9995C14.8566 15.0059 14.6878 14.9532 14.5502 14.85L9.03657 10.7148L3.74995 15.3405V18.75H21C21.1989 18.75 21.3896 18.829 21.5303 18.9697C21.6709 19.1103 21.7499 19.3011 21.75 19.5Z" fill="#1D1F21" style="fill: var(--ui-icon-primary-color);"/>
</svg>
