<svg  viewBox="0 0 24 24" fill="none" xmlns="http://www.w3.org/2000/svg" id="__THIS_ID_NEEDS_FOR_UI_ICON_COMPONENT__">
<path d="M12.375 2.24927C9.88946 2.25207 7.50652 3.24069 5.74897 4.99824C3.99142 6.75578 3.0028 9.13872 3 11.6243V19.5305C3.00045 19.9199 3.15534 20.2933 3.43069 20.5686C3.70605 20.844 4.07938 20.9988 4.46878 20.9993H12.375C14.8614 20.9993 17.246 20.0115 19.0041 18.2534C20.7623 16.4952 21.75 14.1107 21.75 11.6243C21.75 9.13786 20.7623 6.75329 19.0041 4.99514C17.246 3.23699 14.8614 2.24927 12.375 2.24927ZM14.9998 14.2493H9.37482C9.1759 14.2493 8.98514 14.1703 8.84449 14.0296C8.70383 13.8889 8.62482 13.6982 8.62482 13.4993C8.62482 13.3004 8.70383 13.1096 8.84449 12.9689C8.98514 12.8283 9.1759 12.7493 9.37482 12.7493H14.9998C15.1987 12.7493 15.3895 12.8283 15.5301 12.9689C15.6708 13.1096 15.7498 13.3004 15.7498 13.4993C15.7498 13.6982 15.6708 13.8889 15.5301 14.0296C15.3895 14.1703 15.1987 14.2493 14.9998 14.2493ZM14.9998 11.2493H9.37482C9.1759 11.2493 8.98514 11.1703 8.84449 11.0296C8.70383 10.8889 8.62482 10.6982 8.62482 10.4993C8.62482 10.3004 8.70383 10.1096 8.84449 9.96894C8.98514 9.82829 9.1759 9.74927 9.37482 9.74927H14.9998C15.1987 9.74927 15.3895 9.82829 15.5301 9.96894C15.6708 10.1096 15.7498 10.3004 15.7498 10.4993C15.7498 10.6982 15.6708 10.8889 15.5301 11.0296C15.3895 11.1703 15.1987 11.2493 14.9998 11.2493Z" fill="#1D1F21" style="fill: var(--ui-icon-primary-color);"/>
</svg>
