<svg  viewBox="0 0 24 24" fill="none" xmlns="http://www.w3.org/2000/svg" id="__THIS_ID_NEEDS_FOR_UI_ICON_COMPONENT__">
<path d="M12.375 2.24927C9.88946 2.25207 7.50652 3.24069 5.74897 4.99824C3.99142 6.75578 3.0028 9.13872 3 11.6243V19.5305C3.00045 19.9199 3.15534 20.2933 3.43069 20.5686C3.70605 20.844 4.07938 20.9988 4.46878 20.9993H12.375C14.8614 20.9993 17.246 20.0115 19.0041 18.2534C20.7623 16.4952 21.75 14.1107 21.75 11.6243C21.75 9.13786 20.7623 6.75329 19.0041 4.99514C17.246 3.23699 14.8614 2.24927 12.375 2.24927ZM7.87482 13.1244C7.65231 13.1244 7.43481 13.0584 7.2498 12.9348C7.0648 12.8111 6.9206 12.6354 6.83545 12.4299C6.7503 12.2243 6.72803 11.9981 6.77143 11.7799C6.81484 11.5617 6.92199 11.3612 7.07932 11.2039C7.23666 11.0465 7.43711 10.9394 7.65534 10.896C7.87357 10.8526 8.09977 10.8748 8.30534 10.96C8.5109 11.0451 8.6866 11.1893 8.81022 11.3743C8.93384 11.5594 8.99982 11.7769 8.99982 11.9994C8.99982 12.2977 8.88129 12.5839 8.67031 12.7949C8.45933 13.0058 8.17318 13.1244 7.87482 13.1244V13.1244ZM12.3748 13.1244C12.1523 13.1244 11.9348 13.0584 11.7498 12.9348C11.5648 12.8111 11.4206 12.6354 11.3355 12.4299C11.2503 12.2243 11.228 11.9981 11.2714 11.7799C11.3148 11.5617 11.422 11.3612 11.5793 11.2039C11.7367 11.0465 11.9371 10.9394 12.1553 10.896C12.3736 10.8526 12.5998 10.8748 12.8053 10.96C13.0109 11.0451 13.1866 11.1893 13.3102 11.3743C13.4338 11.5594 13.4998 11.7769 13.4998 11.9994C13.4998 12.2977 13.3813 12.5839 13.1703 12.7949C12.9593 13.0058 12.6732 13.1244 12.3748 13.1244V13.1244ZM16.8748 13.1244C16.6523 13.1244 16.4348 13.0584 16.2498 12.9348C16.0648 12.8111 15.9206 12.6354 15.8355 12.4299C15.7503 12.2243 15.728 11.9981 15.7714 11.7799C15.8148 11.5617 15.922 11.3612 16.0793 11.2039C16.2367 11.0465 16.4371 10.9394 16.6553 10.896C16.8736 10.8526 17.0998 10.8748 17.3053 10.96C17.5109 11.0451 17.6866 11.1893 17.8102 11.3743C17.9338 11.5594 17.9998 11.7769 17.9998 11.9994C17.9998 12.2977 17.8813 12.5839 17.6703 12.7949C17.4593 13.0058 17.1732 13.1244 16.8748 13.1244V13.1244Z" fill="#1D1F21" style="fill: var(--ui-icon-primary-color);"/>
</svg>
