<svg  viewBox="0 0 24 24" fill="none" xmlns="http://www.w3.org/2000/svg" id="__THIS_ID_NEEDS_FOR_UI_ICON_COMPONENT__">
<path d="M21.7502 12C21.7497 13.6935 21.3082 15.3577 20.4692 16.8288C19.6302 18.2999 18.4227 19.5272 16.9653 20.3898C15.508 21.2525 13.8512 21.7208 12.1579 21.7487C10.4646 21.7766 8.79322 21.3631 7.30828 20.5488L4.50383 21.3501C4.24662 21.4235 3.97448 21.4267 3.71557 21.3596C3.45667 21.2924 3.22043 21.1573 3.0313 20.9682C2.84217 20.779 2.70703 20.5428 2.63988 20.2839C2.57272 20.025 2.57599 19.7528 2.64934 19.4956L3.45135 16.6912C2.73619 15.3878 2.32852 13.9382 2.25951 12.4532C2.1905 10.9682 2.46198 9.48699 3.05319 8.12296C3.64441 6.75892 4.53969 5.54814 5.67061 4.58318C6.80152 3.61821 8.13811 2.92462 9.57819 2.55544C11.0183 2.18626 12.5237 2.15125 13.9794 2.45311C15.4351 2.75496 16.8024 3.38568 17.977 4.29704C19.1515 5.2084 20.1021 6.37626 20.7561 7.71134C21.4101 9.04642 21.7501 10.5134 21.7502 12Z" fill="#1D1F21" style="fill: var(--ui-icon-primary-color);"/>
</svg>
