<svg  viewBox="0 0 24 24" fill="none" xmlns="http://www.w3.org/2000/svg" id="__THIS_ID_NEEDS_FOR_UI_ICON_COMPONENT__">
<path d="M12.0002 2.24927C10.3067 2.24977 8.64247 2.69123 7.17138 3.53022C5.70029 4.3692 4.47302 5.57679 3.61036 7.03412C2.7477 8.49145 2.27939 10.1483 2.25151 11.8416C2.22362 13.5349 2.63714 15.2062 3.45135 16.6912L2.64935 19.4949C2.57566 19.7521 2.57215 20.0244 2.63919 20.2835C2.70622 20.5425 2.84136 20.7789 3.03058 20.9681C3.21979 21.1574 3.4562 21.2925 3.71526 21.3595C3.97432 21.4266 4.2466 21.423 4.50384 21.3494L7.30829 20.5496C8.61169 21.2647 10.0614 21.6723 11.5465 21.7413C13.0316 21.8103 14.5128 21.5388 15.8769 20.9475C17.241 20.3563 18.4518 19.461 19.4168 18.33C20.3818 17.1991 21.0755 15.8624 21.4447 14.4223C21.8139 12.9822 21.8489 11.4767 21.5471 10.0209C21.2453 8.56517 20.6146 7.1977 19.7033 6.02307C18.7919 4.84844 17.6241 3.89775 16.289 3.24367C14.9539 2.5896 13.4869 2.24946 12.0002 2.24927ZM15.0002 14.2493H9.00018C8.80127 14.2493 8.6105 14.1702 8.46985 14.0296C8.3292 13.8889 8.25018 13.6982 8.25018 13.4993C8.25018 13.3004 8.3292 13.1096 8.46985 12.9689C8.6105 12.8283 8.80127 12.7493 9.00018 12.7493H15.0002C15.1991 12.7493 15.3899 12.8283 15.5305 12.9689C15.6712 13.1096 15.7502 13.3004 15.7502 13.4993C15.7502 13.6982 15.6712 13.8889 15.5305 14.0296C15.3899 14.1702 15.1991 14.2493 15.0002 14.2493ZM15.0002 11.2493H9.00018C8.80127 11.2493 8.6105 11.1703 8.46985 11.0296C8.3292 10.8889 8.25018 10.6982 8.25018 10.4993C8.25018 10.3004 8.3292 10.1096 8.46985 9.96894C8.6105 9.82828 8.80127 9.74927 9.00018 9.74927H15.0002C15.1991 9.74927 15.3899 9.82828 15.5305 9.96894C15.6712 10.1096 15.7502 10.3004 15.7502 10.4993C15.7502 10.6982 15.6712 10.8889 15.5305 11.0296C15.3899 11.1703 15.1991 11.2493 15.0002 11.2493Z" fill="#1D1F21" style="fill: var(--ui-icon-primary-color);"/>
</svg>
