<svg  viewBox="0 0 24 24" fill="none" xmlns="http://www.w3.org/2000/svg" id="__THIS_ID_NEEDS_FOR_UI_ICON_COMPONENT__">
<path d="M15.8968 6.80403C15.2183 5.21465 14.0117 3.90838 12.481 3.10612C10.9504 2.30386 9.18963 2.05485 7.49654 2.40118C5.80345 2.74752 4.28193 3.66796 3.18927 5.00684C2.09662 6.34572 1.49989 8.02088 1.5 9.74903V15.9365C1.50039 16.2845 1.6388 16.6181 1.88485 16.8642C2.13091 17.1102 2.46452 17.2486 2.8125 17.249H8.12503C8.71037 18.5856 9.67216 19.7228 10.893 20.5219C12.1138 21.321 13.5409 21.7474 15 21.749H21.1875C21.5355 21.7486 21.8691 21.6102 22.1151 21.3642C22.3612 21.1181 22.4996 20.7845 22.5 20.4365V14.249C22.5004 12.4152 21.8286 10.6449 20.6118 9.27293C19.395 7.90099 17.7175 7.02262 15.8968 6.80403ZM21 20.249H15C13.939 20.2478 12.8973 19.9658 11.9805 19.4318C11.0638 18.8977 10.3046 18.1307 9.78012 17.2084C10.8074 17.1021 11.8017 16.7845 12.7004 16.2755C13.5991 15.7666 14.3828 15.0773 15.0024 14.251C15.622 13.4246 16.064 12.4791 16.3006 11.4738C16.5373 10.4685 16.5636 9.42507 16.3777 8.40912C17.6935 8.71938 18.8659 9.46494 19.7049 10.5249C20.5438 11.5849 21.0002 12.8972 21 14.249V20.249Z" fill="#1D1F21" style="fill: var(--ui-icon-primary-color);"/>
</svg>
