<svg  viewBox="0 0 24 24" fill="none" xmlns="http://www.w3.org/2000/svg" id="__THIS_ID_NEEDS_FOR_UI_ICON_COMPONENT__">
<path d="M21.6131 17.7911C22.1885 16.7154 22.4929 15.5156 22.4998 14.2957C22.5068 13.0757 22.2161 11.8725 21.653 10.7903C21.0898 9.70813 20.2713 8.7796 19.2682 8.08523C18.2652 7.39085 17.1079 6.9516 15.8967 6.80553C15.4988 5.87449 14.9165 5.03366 14.1849 4.33371C13.4533 3.63377 12.5876 3.0892 11.6398 2.73283C10.6921 2.37647 9.68205 2.21569 8.67052 2.26017C7.65899 2.30466 6.66695 2.5535 5.75417 2.99169C4.8414 3.42988 4.02679 4.04835 3.35946 4.80982C2.69213 5.5713 2.18589 6.46 1.87126 7.42238C1.55662 8.38476 1.4401 9.40088 1.52871 10.4095C1.61733 11.4181 1.90926 12.3984 2.38689 13.2911L1.80709 15.3208C1.74275 15.5459 1.73977 15.784 1.79845 16.0106C1.85714 16.2372 1.97536 16.444 2.14085 16.6095C2.30635 16.775 2.5131 16.8933 2.73968 16.952C2.96626 17.0108 3.20443 17.0078 3.42949 16.9435L5.4594 16.3636C6.28083 16.8033 7.17712 17.0857 8.10221 17.1964C8.51118 18.1531 9.11464 19.0143 9.87426 19.7253C10.6339 20.4363 11.5331 20.9815 12.5147 21.3264C13.4963 21.6712 14.5389 21.8082 15.5763 21.7285C16.6137 21.6488 17.6232 21.3543 18.5406 20.8635L20.5705 21.4435C20.7955 21.5078 21.0337 21.5108 21.2602 21.452C21.4868 21.3933 21.6936 21.2751 21.8591 21.1096C22.0246 20.9441 22.1428 20.7373 22.2015 20.5107C22.2602 20.2841 22.2573 20.046 22.193 19.8209L21.6131 17.7911ZM20.1611 17.3123C20.1089 17.4001 20.0751 17.4977 20.062 17.5991C20.0488 17.7004 20.0565 17.8034 20.0846 17.9017L20.658 19.9085L18.6511 19.3352C18.5529 19.3071 18.4499 19.2994 18.3486 19.3126C18.2472 19.3257 18.1497 19.3595 18.0618 19.4117C17.3754 19.8185 16.6148 20.0844 15.8245 20.1938C15.0341 20.3032 14.2299 20.254 13.4588 20.049C12.6877 19.844 11.9652 19.4873 11.3335 18.9998C10.7019 18.5123 10.1737 17.9038 9.77996 17.2099C10.8073 17.1036 11.8015 16.786 12.7002 16.277C13.5989 15.7681 14.3827 15.0788 15.0023 14.2525C15.6219 13.4261 16.0639 12.4806 16.3006 11.4753C16.5373 10.47 16.5635 9.42656 16.3777 8.41061C17.294 8.62707 18.1466 9.05608 18.8665 9.66296C19.5864 10.2699 20.1534 11.0376 20.5217 11.9041C20.89 12.7707 21.0493 13.7117 20.9866 14.6512C20.924 15.5907 20.6412 16.5023 20.1611 17.3123Z" fill="#1D1F21" style="fill: var(--ui-icon-primary-color);"/>
</svg>
