<svg  viewBox="0 0 24 24" fill="none" xmlns="http://www.w3.org/2000/svg" id="__THIS_ID_NEEDS_FOR_UI_ICON_COMPONENT__">
<path d="M20.2501 4.5H3.75017C3.35251 4.50052 2.97128 4.65872 2.69009 4.93991C2.40889 5.2211 2.25069 5.60233 2.25018 5.99999V20.8893C2.24856 21.1754 2.32951 21.4559 2.48332 21.6972C2.63714 21.9384 2.85729 22.1302 3.11736 22.2494C3.31687 22.3427 3.53435 22.3912 3.75457 22.3915C4.10664 22.391 4.44714 22.2657 4.7155 22.0378L7.69205 19.5351L20.2501 19.4999C20.6478 19.4994 21.029 19.3412 21.3102 19.06C21.5914 18.7788 21.7496 18.3976 21.7501 17.9999V5.99999C21.7496 5.60233 21.5914 5.2211 21.3102 4.93991C21.029 4.65872 20.6478 4.50052 20.2501 4.5ZM15.0001 14.25H9.00015C8.80124 14.25 8.61047 14.1709 8.46982 14.0303C8.32917 13.8896 8.25015 13.6989 8.25015 13.5C8.25015 13.3011 8.32917 13.1103 8.46982 12.9696C8.61047 12.829 8.80124 12.75 9.00015 12.75H15.0001C15.199 12.75 15.3898 12.829 15.5305 12.9696C15.6711 13.1103 15.7501 13.3011 15.7501 13.5C15.7501 13.6989 15.6711 13.8896 15.5305 14.0303C15.3898 14.1709 15.199 14.25 15.0001 14.25ZM15.0001 11.25H9.00015C8.80124 11.25 8.61047 11.171 8.46982 11.0303C8.32917 10.8897 8.25015 10.6989 8.25015 10.5C8.25015 10.3011 8.32917 10.1103 8.46982 9.96965C8.61047 9.829 8.80124 9.74998 9.00015 9.74998H15.0001C15.199 9.74998 15.3898 9.829 15.5305 9.96965C15.6711 10.1103 15.7501 10.3011 15.7501 10.5C15.7501 10.6989 15.6711 10.8897 15.5305 11.0303C15.3898 11.171 15.199 11.25 15.0001 11.25Z" fill="#1D1F21" style="fill: var(--ui-icon-primary-color);"/>
</svg>
