<svg  viewBox="0 0 24 24" fill="none" xmlns="http://www.w3.org/2000/svg" id="__THIS_ID_NEEDS_FOR_UI_ICON_COMPONENT__">
<path d="M20.25 3.75H3.75009C3.3524 3.75045 2.97114 3.90864 2.68993 4.18984C2.40873 4.47105 2.25055 4.85231 2.25009 5.24999V17.2499C2.25055 17.6475 2.40873 18.0288 2.68993 18.31C2.97114 18.5912 3.3524 18.7494 3.75009 18.7498L9.32535 18.7499L10.7138 21.0639C10.8471 21.286 11.0356 21.4698 11.261 21.5975C11.4864 21.7251 11.741 21.7921 12.0001 21.7921C12.2591 21.7921 12.5137 21.7251 12.7391 21.5975C12.9645 21.4698 13.153 21.286 13.2863 21.0639L14.6747 18.7499H20.2499C20.6476 18.7495 21.0289 18.5913 21.3101 18.3101C21.5914 18.0289 21.7496 17.6476 21.75 17.2499V5.24999C21.7496 4.85231 21.5914 4.47105 21.3102 4.18984C21.029 3.90864 20.6477 3.75045 20.25 3.75ZM7.50002 12.375C7.27752 12.375 7.06001 12.309 6.87501 12.1854C6.69 12.0618 6.54581 11.8861 6.46066 11.6805C6.37551 11.475 6.35324 11.2488 6.39664 11.0305C6.44005 10.8123 6.5472 10.6119 6.70453 10.4545C6.86186 10.2972 7.06232 10.19 7.28055 10.1466C7.49878 10.1032 7.72497 10.1255 7.93054 10.2107C8.13611 10.2958 8.31181 10.44 8.43542 10.625C8.55904 10.81 8.62502 11.0275 8.62502 11.25C8.62502 11.5484 8.50649 11.8345 8.29552 12.0455C8.08454 12.2565 7.79839 12.375 7.50002 12.375ZM12 12.375C11.7775 12.375 11.56 12.309 11.375 12.1854C11.19 12.0618 11.0458 11.8861 10.9606 11.6805C10.8755 11.475 10.8532 11.2488 10.8966 11.0305C10.94 10.8123 11.0472 10.6119 11.2045 10.4545C11.3618 10.2972 11.5623 10.19 11.7805 10.1466C11.9988 10.1032 12.225 10.1255 12.4305 10.2107C12.6361 10.2958 12.8118 10.44 12.9354 10.625C13.059 10.81 13.125 11.0275 13.125 11.25C13.125 11.5484 13.0065 11.8345 12.7955 12.0455C12.5845 12.2565 12.2984 12.375 12 12.375ZM16.5 12.375C16.2775 12.375 16.06 12.309 15.875 12.1854C15.69 12.0618 15.5458 11.8861 15.4606 11.6805C15.3755 11.475 15.3532 11.2488 15.3966 11.0305C15.44 10.8123 15.5472 10.6119 15.7045 10.4545C15.8618 10.2972 16.0623 10.19 16.2805 10.1466C16.4987 10.1032 16.7249 10.1255 16.9305 10.2107C17.1361 10.2958 17.3118 10.44 17.4354 10.625C17.559 10.81 17.625 11.0275 17.625 11.25C17.625 11.5484 17.5065 11.8345 17.2955 12.0455C17.0845 12.2565 16.7984 12.375 16.5 12.375Z" fill="#1D1F21" style="fill: var(--ui-icon-primary-color);"/>
</svg>
