<svg  viewBox="0 0 24 24" fill="none" xmlns="http://www.w3.org/2000/svg" id="__THIS_ID_NEEDS_FOR_UI_ICON_COMPONENT__">
<path d="M21.7501 6.00024V18.0002C21.7496 18.3979 21.5914 18.7791 21.3102 19.0603C21.029 19.3415 20.6478 19.4997 20.2501 19.5002L7.69208 19.5353L4.71553 22.038C4.44717 22.2659 4.10668 22.3913 3.7546 22.3918C3.53438 22.3914 3.3169 22.3429 3.11739 22.2497C2.85732 22.1304 2.63717 21.9387 2.48335 21.6974C2.32954 21.4562 2.24859 21.1757 2.25021 20.8896V6.00024C2.25072 5.60257 2.40892 5.22135 2.69012 4.94015C2.97131 4.65896 3.35254 4.50076 3.7502 4.50024H20.2501C20.6478 4.50076 21.029 4.65896 21.3102 4.94015C21.5914 5.22134 21.7496 5.60257 21.7501 6.00024Z" fill="#1D1F21" style="fill: var(--ui-icon-primary-color);"/>
</svg>
