<svg  viewBox="0 0 24 24" fill="none" xmlns="http://www.w3.org/2000/svg" id="__THIS_ID_NEEDS_FOR_UI_ICON_COMPONENT__">
<path d="M14.4053 8.40542L6.15535 16.6554C6.01469 16.7961 5.82393 16.8751 5.62503 16.8751C5.42613 16.8751 5.23537 16.7961 5.09471 16.6554L0.96962 12.5306C0.828958 12.39 0.749926 12.1992 0.749908 12.0003C0.749891 11.8014 0.828891 11.6106 0.969528 11.47C1.11017 11.3293 1.30092 11.2503 1.49983 11.2503C1.69874 11.2502 1.8895 11.3292 2.03017 11.4699L5.62498 15.0644L13.3445 7.34468C13.4852 7.20402 13.676 7.125 13.8749 7.125C14.0738 7.125 14.2646 7.20402 14.4053 7.34468C14.5459 7.48535 14.6249 7.67612 14.6249 7.87505C14.6249 8.07398 14.5459 8.26475 14.4053 8.40542H14.4053ZM23.0303 7.34468C22.8896 7.20408 22.6988 7.1251 22.4999 7.1251C22.301 7.1251 22.1102 7.20408 21.9695 7.34468L14.25 15.0644L12.5889 13.4036C12.4483 13.2629 12.2575 13.1839 12.0586 13.1839C11.8597 13.184 11.6689 13.263 11.5283 13.4036C11.3877 13.5443 11.3087 13.7351 11.3087 13.934C11.3087 14.1329 11.3877 14.3237 11.5284 14.4643L13.7197 16.6554C13.8604 16.7961 14.0511 16.8751 14.25 16.8751C14.4489 16.8751 14.6397 16.7961 14.7803 16.6554L23.0303 8.40542C23.1709 8.26475 23.2499 8.07397 23.2499 7.87505C23.2499 7.67613 23.1709 7.48536 23.0303 7.34468Z" fill="#1D1F21" style="fill: var(--ui-icon-primary-color);"/>
</svg>
