<svg  viewBox="0 0 24 24" fill="none" xmlns="http://www.w3.org/2000/svg" id="__THIS_ID_NEEDS_FOR_UI_ICON_COMPONENT__">
<path d="M9.74999 17.9997C9.65149 17.9998 9.55394 17.9805 9.46293 17.9428C9.37193 17.9051 9.28928 17.8498 9.21972 17.7801L3.96972 12.5305C3.90007 12.4608 3.84482 12.3782 3.80712 12.2872C3.76942 12.1962 3.75002 12.0987 3.75001 12.0002C3.75 11.9017 3.76939 11.8042 3.80707 11.7132C3.84475 11.6222 3.89999 11.5395 3.96963 11.4698C4.03926 11.4002 4.12194 11.3449 4.21293 11.3072C4.30391 11.2696 4.40144 11.2501 4.49993 11.2501C4.59842 11.2501 4.69594 11.2695 4.78694 11.3072C4.87793 11.3449 4.96062 11.4001 5.03027 11.4698L9.74999 16.1891L19.7196 6.2198C19.8603 6.07931 20.051 6.00042 20.2498 6.00049C20.4487 6.00055 20.6393 6.07956 20.7799 6.22014C20.9205 6.36072 20.9995 6.55138 20.9996 6.7502C20.9997 6.94902 20.9208 7.13974 20.7804 7.28044L10.2804 17.7801C10.2108 17.8498 10.1281 17.9051 10.0371 17.9428C9.94607 17.9805 9.8485 17.9998 9.74999 17.9997Z" fill="#1D1F21" style="fill: var(--ui-icon-primary-color);"/>
</svg>
