<svg  viewBox="0 0 24 24" fill="none" xmlns="http://www.w3.org/2000/svg" id="__THIS_ID_NEEDS_FOR_UI_ICON_COMPONENT__">
<path d="M12 2.25C10.0716 2.25 8.18653 2.82183 6.58315 3.89317C4.97977 4.96451 3.73009 6.48726 2.99213 8.26884C2.25418 10.0504 2.0611 12.0108 2.4373 13.9021C2.81351 15.7934 3.74211 17.5307 5.10567 18.8943C6.46923 20.2579 8.20651 21.1865 10.0978 21.5627C11.9891 21.9389 13.9495 21.7458 15.7311 21.0078C17.5127 20.2699 19.0354 19.0202 20.1068 17.4168C21.1781 15.8134 21.75 13.9284 21.75 12C21.747 9.41506 20.7188 6.93684 18.8909 5.10901C17.0631 3.28118 14.5849 2.25299 12 2.25ZM16.6435 10.2927L11.143 15.5427C11.0032 15.6758 10.8175 15.75 10.6245 15.75C10.4314 15.75 10.2458 15.6758 10.1059 15.5427L7.3564 12.9177C7.21276 12.7801 7.1296 12.5911 7.1252 12.3923C7.1208 12.1934 7.19551 12.0009 7.33292 11.8571C7.47034 11.7133 7.65922 11.6299 7.85808 11.6252C8.05694 11.6206 8.24952 11.695 8.39351 11.8323L10.6245 13.9629L15.6064 9.20728C15.7504 9.07004 15.943 8.99558 16.1418 9.00023C16.3407 9.00489 16.5296 9.08828 16.667 9.2321C16.8044 9.37592 16.8791 9.56841 16.8747 9.76727C16.8703 9.96614 16.7872 10.1551 16.6435 10.2927Z" fill="#1D1F21" style="fill: var(--ui-icon-primary-color);"/>
</svg>
