<svg  viewBox="0 0 24 24" fill="none" xmlns="http://www.w3.org/2000/svg" id="__THIS_ID_NEEDS_FOR_UI_ICON_COMPONENT__">
<path d="M12 10.875C11.11 10.875 10.2399 10.6111 9.49991 10.1166C8.75989 9.62215 8.18312 8.91934 7.84252 8.09708C7.50193 7.27481 7.41281 6.37001 7.58645 5.4971C7.76008 4.62418 8.18866 3.82236 8.818 3.19302C9.44734 2.56369 10.2492 2.1351 11.1221 1.96147C11.995 1.78783 12.8998 1.87695 13.7221 2.21754C14.5443 2.55814 15.2471 3.13491 15.7416 3.87494C16.2361 4.61496 16.5 5.48499 16.5 6.375C16.4986 7.56806 16.0241 8.71187 15.1805 9.55549C14.3368 10.3991 13.193 10.8737 12 10.875ZM17.625 11.625C16.735 11.625 15.8649 11.8889 15.1249 12.3834C14.3849 12.8779 13.8081 13.5807 13.4675 14.4029C13.1269 15.2252 13.0378 16.13 13.2114 17.0029C13.3851 17.8758 13.8137 18.6776 14.443 19.307C15.0723 19.9363 15.8742 20.3649 16.7471 20.5385C17.62 20.7122 18.5248 20.6231 19.3471 20.2825C20.1693 19.9419 20.8721 19.3651 21.3666 18.6251C21.8611 17.885 22.125 17.015 22.125 16.125C22.1236 14.9319 21.6491 13.7881 20.8055 12.9445C19.9618 12.1009 18.818 11.6264 17.625 11.625ZM6.37498 11.625C5.48496 11.625 4.61493 11.8889 3.87491 12.3834C3.13489 12.8779 2.55812 13.5807 2.21752 14.4029C1.87693 15.2252 1.78781 16.13 1.96145 17.0029C2.13508 17.8758 2.56366 18.6776 3.193 19.307C3.82234 19.9363 4.62416 20.3649 5.49707 20.5385C6.36999 20.7122 7.27479 20.6231 8.09705 20.2825C8.91932 19.9419 9.62213 19.3651 10.1166 18.6251C10.6111 17.885 10.875 17.015 10.875 16.125C10.8736 14.9319 10.3991 13.7881 9.55547 12.9445C8.71185 12.1009 7.56804 11.6264 6.37498 11.625Z" fill="#1D1F21" style="fill: var(--ui-icon-primary-color);"/>
</svg>
