<svg  viewBox="0 0 24 24" fill="none" xmlns="http://www.w3.org/2000/svg" id="__THIS_ID_NEEDS_FOR_UI_ICON_COMPONENT__">
<path d="M12 2.25C10.0717 2.25 8.18659 2.82183 6.58321 3.89317C4.97983 4.96451 3.73015 6.48726 2.99219 8.26884C2.25424 10.0504 2.06116 12.0108 2.43736 13.9021C2.81357 15.7934 3.74217 17.5307 5.10573 18.8943C6.46929 20.2579 8.20657 21.1865 10.0979 21.5627C11.9892 21.9389 13.9496 21.7458 15.7312 21.0078C17.5128 20.2699 19.0355 19.0202 20.1068 17.4168C21.1782 15.8134 21.75 13.9284 21.75 12C21.7471 9.41504 20.7189 6.93679 18.8911 5.10894C17.0632 3.28109 14.585 2.25293 12 2.25ZM3.75002 12C3.75259 9.94257 4.5228 7.96014 5.90995 6.44065C7.2971 4.92116 9.20133 3.97397 11.25 3.78445V20.2156C9.20133 20.026 7.2971 19.0788 5.90995 17.5594C4.5228 16.0399 3.75259 14.0574 3.75002 12Z" fill="#1D1F21" style="fill: var(--ui-icon-primary-color);"/>
</svg>
