<svg  viewBox="0 0 24 24" fill="none" xmlns="http://www.w3.org/2000/svg" id="__THIS_ID_NEEDS_FOR_UI_ICON_COMPONENT__">
<path d="M11.25 7.125C11.25 7.94085 11.0081 8.73838 10.5548 9.41673C10.1015 10.0951 9.4573 10.6238 8.70355 10.936C7.94981 11.2482 7.12041 11.3299 6.32023 11.1707C5.52006 11.0116 4.78506 10.6187 4.20817 10.0418C3.63128 9.46493 3.23841 8.72992 3.07924 7.92975C2.92008 7.12958 3.00177 6.30018 3.31398 5.54643C3.62619 4.79269 4.1549 4.14845 4.83326 3.69519C5.51161 3.24193 6.30913 3 7.12498 3C8.21862 3.00124 9.26711 3.43623 10.0404 4.20955C10.8138 4.98287 11.2487 6.03136 11.25 7.125ZM16.875 11.25C17.6908 11.25 18.4884 11.0081 19.1667 10.5548C19.8451 10.1016 20.3738 9.45732 20.686 8.70357C20.9982 7.94983 21.0799 7.12043 20.9207 6.32025C20.7616 5.52008 20.3687 4.78508 19.7918 4.20819C19.2149 3.63129 18.4799 3.23843 17.6797 3.07926C16.8796 2.9201 16.0502 3.00179 15.2964 3.314C14.5427 3.62621 13.8984 4.15492 13.4452 4.83327C12.9919 5.51163 12.75 6.30915 12.75 7.125C12.7512 8.21864 13.1862 9.26713 13.9595 10.0405C14.7329 10.8138 15.7813 11.2488 16.875 11.25ZM7.12498 12.75C6.30913 12.75 5.51161 12.9919 4.83326 13.4452C4.1549 13.8985 3.62619 14.5427 3.31398 15.2964C3.00177 16.0502 2.92008 16.8796 3.07924 17.6797C3.23841 18.4799 3.63128 19.2149 4.20817 19.7918C4.78506 20.3687 5.52006 20.7616 6.32023 20.9207C7.12041 21.0799 7.94981 20.9982 8.70355 20.686C9.4573 20.3738 10.1015 19.8451 10.5548 19.1667C11.0081 18.4884 11.25 17.6908 11.25 16.875C11.2487 15.7814 10.8138 14.7329 10.0404 13.9596C9.26711 13.1862 8.21862 12.7512 7.12498 12.75ZM16.875 12.75C16.0591 12.75 15.2616 12.9919 14.5833 13.4452C13.9049 13.8985 13.3762 14.5427 13.064 15.2964C12.7518 16.0502 12.6701 16.8796 12.8292 17.6797C12.9884 18.4799 13.3813 19.2149 13.9582 19.7918C14.5351 20.3687 15.2701 20.7616 16.0702 20.9207C16.8704 21.0799 17.6998 20.9982 18.4536 20.686C19.2073 20.3738 19.8515 19.8451 20.3048 19.1667C20.7581 18.4884 21 17.6908 21 16.875C20.9987 15.7814 20.5638 14.7329 19.7904 13.9596C19.0171 13.1862 17.9686 12.7512 16.875 12.75Z" fill="#1D1F21" style="fill: var(--ui-icon-primary-color);"/>
</svg>
