<svg  viewBox="0 0 24 24" fill="none" xmlns="http://www.w3.org/2000/svg" id="__THIS_ID_NEEDS_FOR_UI_ICON_COMPONENT__">
<path d="M21.7499 12C21.7499 13.9284 21.1781 15.8134 20.1068 17.4168C19.0354 19.0202 17.5127 20.2699 15.7311 21.0078C13.9495 21.7458 11.9891 21.9389 10.0978 21.5627C8.2065 21.1865 6.46921 20.2579 5.10565 18.8943C3.74209 17.5307 2.81349 15.7934 2.43729 13.9021C2.06108 12.0108 2.25416 10.0504 2.99212 8.26884C3.73007 6.48726 4.97975 4.96451 6.58313 3.89317C8.18651 2.82183 10.0716 2.25 11.9999 2.25C14.5849 2.25299 17.0631 3.28118 18.8909 5.10901C20.7188 6.93684 21.747 9.41506 21.7499 12Z" fill="#1D1F21" style="fill: var(--ui-icon-primary-color);"/>
</svg>
