<svg  viewBox="0 0 24 24" fill="none" xmlns="http://www.w3.org/2000/svg" id="__THIS_ID_NEEDS_FOR_UI_ICON_COMPONENT__">
<path d="M18.8943 5.10566C17.989 4.19988 16.9142 3.48131 15.7311 2.991C14.5481 2.50068 13.2801 2.24822 11.9995 2.24805C10.7189 2.24787 9.45075 2.49997 8.26758 2.98996C7.08441 3.47995 6.00936 4.19822 5.10383 5.10375C4.1983 6.00929 3.48003 7.08434 2.99004 8.2675C2.50005 9.45067 2.24795 10.7188 2.24812 11.9994C2.2483 13.28 2.50076 14.548 2.99107 15.7311C3.48139 16.9141 4.19996 17.989 5.10574 18.8942C6.01102 19.8 7.08587 20.5186 8.2689 21.0089C9.45193 21.4992 10.72 21.7517 12.0006 21.7519C13.2812 21.752 14.5493 21.4999 15.7325 21.0099C16.9156 20.5199 17.9907 19.8017 18.8962 18.8961C19.8018 17.9906 20.52 16.9156 21.01 15.7324C21.5 14.5492 21.7521 13.2811 21.7519 12.0005C21.7518 10.7199 21.4993 9.45186 21.009 8.26883C20.5187 7.08579 19.8001 6.01094 18.8943 5.10566ZM6.16647 6.1663C7.62282 4.71306 9.5692 3.85579 11.6245 3.76236C13.6797 3.66893 15.6959 4.34607 17.2781 5.66118L5.66073 17.2786C4.34345 15.6972 3.66498 13.6804 3.75856 11.6244C3.85213 9.56832 4.71099 7.62153 6.16647 6.1663Z" fill="#1D1F21" style="fill: var(--ui-icon-primary-color);"/>
</svg>
