<svg  viewBox="0 0 24 24" fill="none" xmlns="http://www.w3.org/2000/svg" id="__THIS_ID_NEEDS_FOR_UI_ICON_COMPONENT__">
<path d="M12 2.25C10.0717 2.25 8.18659 2.82183 6.58321 3.89317C4.97983 4.96451 3.73015 6.48726 2.99219 8.26884C2.25424 10.0504 2.06116 12.0108 2.43736 13.9021C2.81357 15.7934 3.74217 17.5307 5.10573 18.8943C6.46929 20.2579 8.20657 21.1865 10.0979 21.5627C11.9892 21.9389 13.9496 21.7458 15.7312 21.0078C17.5128 20.2699 19.0355 19.0202 20.1068 17.4168C21.1782 15.8134 21.75 13.9284 21.75 12C21.747 9.41506 20.7188 6.93684 18.891 5.10901C17.0632 3.28118 14.585 2.25299 12 2.25ZM17.25 12.75H12C11.9015 12.7501 11.804 12.7307 11.7129 12.693C11.6219 12.6554 11.5392 12.6001 11.4696 12.5305C11.3999 12.4608 11.3447 12.3781 11.307 12.2871C11.2693 12.1961 11.25 12.0985 11.25 12V6.75C11.25 6.55109 11.329 6.36032 11.4697 6.21967C11.6103 6.07902 11.8011 6 12 6C12.1989 6 12.3897 6.07902 12.5303 6.21967C12.671 6.36032 12.75 6.55109 12.75 6.75V11.25H17.25C17.4489 11.25 17.6397 11.329 17.7803 11.4697C17.921 11.6103 18 11.8011 18 12C18 12.1989 17.921 12.3897 17.7803 12.5303C17.6397 12.671 17.4489 12.75 17.25 12.75Z" fill="#1D1F21" style="fill: var(--ui-icon-primary-color);"/>
</svg>
