<svg  viewBox="0 0 24 24" fill="none" xmlns="http://www.w3.org/2000/svg" id="__THIS_ID_NEEDS_FOR_UI_ICON_COMPONENT__">
<path d="M12 2.25C10.0716 2.25 8.18653 2.82183 6.58315 3.89317C4.97977 4.96451 3.73009 6.48726 2.99213 8.26884C2.25418 10.0504 2.0611 12.0108 2.4373 13.9021C2.81351 15.7934 3.74211 17.5307 5.10567 18.8943C6.46923 20.2579 8.20651 21.1865 10.0978 21.5627C11.9891 21.9389 13.9495 21.7458 15.7311 21.0078C17.5127 20.2699 19.0354 19.0202 20.1068 17.4168C21.1781 15.8134 21.75 13.9284 21.75 12C21.747 9.41504 20.7189 6.93679 18.891 5.10894C17.0632 3.28109 14.5849 2.25293 12 2.25ZM17.25 12.75H13.8106L16.2426 15.182C16.3833 15.3227 16.4623 15.5134 16.4623 15.7123C16.4623 15.9112 16.3833 16.102 16.2426 16.2426C16.102 16.3833 15.9112 16.4623 15.7123 16.4623C15.5134 16.4623 15.3226 16.3833 15.182 16.2426L11.4697 12.5304C11.4522 12.5129 11.4356 12.4945 11.4199 12.4753C11.413 12.4669 11.407 12.458 11.4006 12.4494C11.3923 12.4385 11.3839 12.4277 11.3762 12.4163C11.3692 12.4059 11.3632 12.395 11.3567 12.3842C11.3506 12.374 11.3442 12.364 11.3385 12.3534C11.3327 12.3425 11.3277 12.3312 11.3224 12.32C11.3172 12.309 11.3117 12.2982 11.307 12.2869C11.3026 12.276 11.2989 12.265 11.295 12.254C11.2907 12.2419 11.286 12.23 11.2823 12.2176C11.2789 12.2065 11.2765 12.1953 11.2737 12.1842C11.2705 12.1716 11.267 12.1593 11.2645 12.1465C11.262 12.1336 11.2604 12.1206 11.2586 12.1075C11.2569 12.0963 11.2548 12.0853 11.2537 12.0739C11.2513 12.05 11.2501 12.0261 11.25 12.0021L11.25 12L11.2501 11.9979C11.2501 11.9739 11.2514 11.9499 11.2537 11.9261C11.2548 11.9147 11.2569 11.9037 11.2586 11.8925C11.2604 11.8794 11.262 11.8664 11.2645 11.8535C11.267 11.8407 11.2705 11.8284 11.2737 11.8158C11.2765 11.8047 11.2789 11.7935 11.2823 11.7824C11.286 11.77 11.2907 11.7581 11.295 11.746C11.2989 11.735 11.3026 11.724 11.307 11.7131C11.3117 11.7018 11.3172 11.691 11.3224 11.68C11.3277 11.6688 11.3327 11.6575 11.3385 11.6466C11.3442 11.636 11.3506 11.626 11.3567 11.6158C11.3632 11.605 11.3692 11.5941 11.3762 11.5837C11.3839 11.5723 11.3923 11.5615 11.4006 11.5506C11.407 11.542 11.413 11.5331 11.4199 11.5247C11.4513 11.4864 11.4864 11.4513 11.5246 11.42C11.5332 11.4129 11.5422 11.4068 11.551 11.4002C11.5618 11.3921 11.5723 11.3838 11.5835 11.3763C11.5942 11.3692 11.6053 11.363 11.6163 11.3564C11.6263 11.3504 11.6361 11.3441 11.6464 11.3386C11.6576 11.3326 11.6692 11.3275 11.6806 11.3221C11.6914 11.3171 11.702 11.3117 11.7129 11.3071C11.7241 11.3025 11.7355 11.2988 11.7468 11.2948C11.7586 11.2905 11.7702 11.286 11.7822 11.2824C11.7936 11.2789 11.8053 11.2764 11.8168 11.2735C11.829 11.2704 11.8409 11.267 11.8533 11.2646C11.8668 11.2619 11.8803 11.2603 11.8939 11.2584C11.9046 11.2569 11.9151 11.2548 11.9259 11.2538C11.9506 11.2513 11.9753 11.25 12.0001 11.25H17.25C17.4489 11.25 17.6396 11.329 17.7803 11.4697C17.9209 11.6103 18 11.8011 18 12C18 12.1989 17.9209 12.3897 17.7803 12.5303C17.6396 12.671 17.4489 12.75 17.25 12.75V12.75Z" fill="#1D1F21" style="fill: var(--ui-icon-primary-color);"/>
</svg>
