<svg  viewBox="0 0 24 24" fill="none" xmlns="http://www.w3.org/2000/svg" id="__THIS_ID_NEEDS_FOR_UI_ICON_COMPONENT__">
<path d="M12.75 7.49972V11.5667L16.2721 13.6002C16.3574 13.6494 16.4322 13.715 16.4922 13.7931C16.5521 13.8713 16.5961 13.9605 16.6216 14.0556C16.6471 14.1507 16.6536 14.25 16.6407 14.3476C16.6279 14.4453 16.5959 14.5394 16.5467 14.6247C16.4974 14.71 16.4319 14.7848 16.3537 14.8447C16.2756 14.9047 16.1864 14.9487 16.0913 14.9742C15.9961 14.9997 15.8969 15.0062 15.7992 14.9933C15.7016 14.9804 15.6074 14.9485 15.5221 14.8992L11.625 12.6492C11.619 12.6458 11.6137 12.6417 11.6078 12.6381C11.5951 12.6303 11.5824 12.6224 11.5702 12.6138C11.5605 12.607 11.5513 12.5998 11.542 12.5927C11.5324 12.5853 11.5229 12.5779 11.5137 12.5701C11.5032 12.5612 11.4933 12.5519 11.4835 12.5426C11.4761 12.5355 11.4687 12.5284 11.4615 12.5211C11.4515 12.5108 11.442 12.5001 11.4327 12.4893C11.4262 12.4818 11.4198 12.4742 11.4135 12.4665C11.4049 12.4556 11.3967 12.4446 11.3888 12.4333C11.3824 12.4244 11.3763 12.4155 11.3704 12.4063C11.3636 12.3958 11.3572 12.3852 11.351 12.3744C11.3448 12.3637 11.3388 12.3528 11.3331 12.3418C11.3281 12.332 11.3234 12.3222 11.3189 12.3122C11.3131 12.2997 11.3077 12.2872 11.3026 12.2744C11.299 12.265 11.2956 12.2556 11.2923 12.2461C11.2876 12.2327 11.2832 12.2193 11.2793 12.2056C11.2765 12.1955 11.274 12.1854 11.2715 12.1753C11.2684 12.1623 11.2654 12.1492 11.263 12.1359C11.2607 12.1238 11.2591 12.1117 11.2574 12.0996C11.2559 12.0881 11.2543 12.0767 11.2533 12.0651C11.252 12.0501 11.2515 12.035 11.251 12.0199C11.2508 12.0131 11.25 12.0065 11.25 11.9997V7.49972C11.25 7.30081 11.329 7.11004 11.4697 6.96939C11.6103 6.82874 11.8011 6.74972 12 6.74972C12.1989 6.74972 12.3897 6.82874 12.5303 6.96939C12.671 7.11004 12.75 7.30081 12.75 7.49972ZM18.3639 5.63575C16.6748 3.95041 14.3861 3.00391 12 3.00391C9.61387 3.00391 7.32518 3.95041 5.63605 5.63575L3.73441 7.53741V5.59808C3.73441 5.39916 3.65539 5.2084 3.51474 5.06775C3.37408 4.92709 3.18332 4.84808 2.98441 4.84808C2.78549 4.84808 2.59473 4.92709 2.45408 5.06775C2.31342 5.2084 2.23441 5.39916 2.23441 5.59808V9.34808L2.2345 9.35015C2.23459 9.37415 2.23581 9.3981 2.23816 9.42202C2.23926 9.43338 2.24137 9.44441 2.24297 9.45562C2.24489 9.46863 2.24636 9.48167 2.24892 9.49458C2.25148 9.50735 2.25496 9.51974 2.25817 9.53226C2.26096 9.54342 2.26338 9.55464 2.26673 9.56569C2.27048 9.57808 2.2751 9.59003 2.2795 9.60213C2.28343 9.61309 2.287 9.62413 2.29149 9.63494C2.29616 9.64625 2.30165 9.65711 2.30687 9.66814C2.31218 9.6793 2.31713 9.69056 2.32299 9.70151C2.32866 9.71217 2.33516 9.7223 2.34139 9.73264C2.3477 9.74325 2.3537 9.75401 2.36061 9.76436C2.36844 9.77601 2.37709 9.78699 2.38552 9.79816C2.39179 9.80654 2.3976 9.81516 2.40433 9.82333C2.43575 9.86165 2.47088 9.89678 2.5092 9.9282C2.51721 9.93479 2.52568 9.94048 2.53392 9.94668C2.54523 9.95521 2.55635 9.96397 2.56816 9.97186C2.57837 9.97868 2.58895 9.98458 2.59943 9.99085C2.60991 9.99716 2.62026 10.0038 2.63106 10.0096C2.64182 10.0153 2.65285 10.0201 2.66379 10.0253C2.67501 10.0306 2.68608 10.0362 2.69762 10.041C2.70819 10.0454 2.71895 10.0489 2.72966 10.0527C2.74202 10.0572 2.75429 10.0619 2.76692 10.0658C2.77759 10.069 2.78839 10.0713 2.79915 10.0741C2.81206 10.0774 2.82488 10.081 2.83806 10.0836C2.85033 10.086 2.86269 10.0874 2.87499 10.0892C2.8869 10.0909 2.89857 10.0932 2.91066 10.0943C2.93244 10.0965 2.95433 10.0974 2.97621 10.0977C2.97895 10.0977 2.98161 10.0981 2.9844 10.0981H6.7344C6.93331 10.0981 7.12408 10.0191 7.26473 9.8784C7.40538 9.73775 7.4844 9.54698 7.4844 9.34807C7.4844 9.14916 7.40538 8.95839 7.26473 8.81774C7.12408 8.67709 6.93331 8.59807 6.7344 8.59807H4.79505L6.69673 6.69639C7.74563 5.64749 9.082 4.93318 10.5369 4.64378C11.9917 4.35439 13.4997 4.50292 14.8702 5.07057C16.2406 5.63823 17.412 6.59953 18.2361 7.8329C19.0602 9.06627 19.5001 10.5163 19.5001 11.9997C19.5001 13.4831 19.0602 14.9331 18.2361 16.1665C17.412 17.3999 16.2406 18.3612 14.8702 18.9288C13.4997 19.4965 11.9917 19.645 10.5369 19.3556C9.082 19.0662 7.74563 18.3519 6.69673 17.303C6.62708 17.2334 6.5444 17.1781 6.4534 17.1404C6.3624 17.1027 6.26487 17.0833 6.16637 17.0833C6.06788 17.0833 5.97035 17.1027 5.87935 17.1404C5.78835 17.1781 5.70567 17.2334 5.63602 17.303C5.56638 17.3727 5.51113 17.4554 5.47344 17.5464C5.43575 17.6374 5.41635 17.7349 5.41635 17.8334C5.41635 17.9319 5.43576 18.0294 5.47345 18.1204C5.51115 18.2114 5.5664 18.2941 5.63604 18.3637C7.32388 20.0516 9.61307 20.9998 12 20.9998C14.387 20.9997 16.6762 20.0515 18.364 18.3637C20.0518 16.6759 21 14.3867 21 11.9997C21 9.61276 20.0518 7.32357 18.3639 5.63575Z" fill="#1D1F21" style="fill: var(--ui-icon-primary-color);"/>
</svg>
