<svg  viewBox="0 0 24 24" fill="none" xmlns="http://www.w3.org/2000/svg" id="__THIS_ID_NEEDS_FOR_UI_ICON_COMPONENT__">
<path d="M15.0876 19.1615L12.6267 22.9115C12.5176 23.0778 12.3468 23.1939 12.1521 23.2344C11.9573 23.2748 11.7545 23.2362 11.5882 23.127C11.4219 23.0179 11.3057 22.8472 11.2653 22.6524C11.2249 22.4577 11.2635 22.2548 11.3726 22.0885L13.8335 18.3385C13.8876 18.2562 13.9573 18.1853 14.0387 18.1299C14.1202 18.0745 14.2117 18.0357 14.3082 18.0156C14.4046 17.9956 14.504 17.9948 14.6008 18.0132C14.6975 18.0316 14.7897 18.0689 14.8721 18.123C14.9544 18.177 15.0253 18.2467 15.0807 18.3282C15.1361 18.4096 15.1749 18.5011 15.1949 18.5976C15.2149 18.694 15.2158 18.7934 15.1974 18.8902C15.179 18.987 15.1417 19.0791 15.0876 19.1615ZM14.6246 1.5C13.184 1.50163 11.7775 1.93921 10.5902 2.75521C9.40294 3.5712 8.49038 4.7274 7.97254 6.07178L7.97188 6.07343C7.65883 6.88765 7.49874 7.75267 7.49965 8.625C7.49965 8.82391 7.42063 9.01468 7.27998 9.15533C7.13932 9.29598 6.94856 9.375 6.74965 9.375C6.55073 9.375 6.35997 9.29598 6.21932 9.15533C6.07866 9.01468 5.99965 8.82391 5.99965 8.625C5.99894 7.75358 6.13075 6.88713 6.39055 6.05534C5.17535 6.24047 4.07494 6.87782 3.30966 7.83977C2.54439 8.80172 2.17075 10.0173 2.26356 11.243C2.35637 12.4687 2.90879 13.6141 3.81018 14.4498C4.71158 15.2856 5.89542 15.75 7.12465 15.75H10.8213L8.63041 19.0885C8.52128 19.2548 8.48268 19.4577 8.52311 19.6524C8.56353 19.8472 8.67967 20.0179 8.84597 20.127C9.01228 20.2362 9.21512 20.2748 9.40988 20.2344C9.60464 20.1939 9.77537 20.0778 9.8845 19.9115L12.6155 15.75H14.6246C16.5143 15.75 18.3266 14.9993 19.6628 13.6631C20.999 12.3269 21.7496 10.5147 21.7496 8.625C21.7496 6.73533 20.999 4.92306 19.6628 3.58686C18.3266 2.25067 16.5143 1.5 14.6246 1.5H14.6246Z" fill="#1D1F21" style="fill: var(--ui-icon-primary-color);"/>
</svg>
