<svg  viewBox="0 0 24 24" fill="none" xmlns="http://www.w3.org/2000/svg" id="__THIS_ID_NEEDS_FOR_UI_ICON_COMPONENT__">
<path d="M11.25 18.75H6.74996C6.55105 18.75 6.36028 18.671 6.21963 18.5303C6.07898 18.3897 5.99996 18.1989 5.99996 18C5.99996 17.8011 6.07898 17.6103 6.21963 17.4697C6.36028 17.329 6.55105 17.25 6.74996 17.25H11.25C11.4489 17.25 11.6396 17.329 11.7803 17.4697C11.9209 17.6103 12 17.8011 12 18C12 18.1989 11.9209 18.3897 11.7803 18.5303C11.6396 18.671 11.4489 18.75 11.25 18.75ZM15 20.25H9.74996C9.55105 20.25 9.36028 20.329 9.21963 20.4697C9.07898 20.6103 8.99996 20.8011 8.99996 21C8.99996 21.1989 9.07898 21.3897 9.21963 21.5303C9.36028 21.671 9.55105 21.75 9.74996 21.75H15C15.1989 21.75 15.3896 21.671 15.5303 21.5303C15.6709 21.3897 15.75 21.1989 15.75 21C15.75 20.8011 15.6709 20.6103 15.5303 20.4697C15.3896 20.329 15.1989 20.25 15 20.25ZM14.625 1.5C13.184 1.50164 11.7773 1.93941 10.5898 2.75571C9.40237 3.57202 8.48981 4.72864 7.97219 6.07343C7.30641 5.95599 6.62348 5.9783 5.96679 6.13895C5.3101 6.2996 4.694 6.59507 4.15762 7.00659C3.62125 7.41812 3.17632 7.9367 2.85111 8.52939C2.52589 9.12209 2.3275 9.77594 2.26853 10.4494C2.20957 11.1229 2.29132 11.8013 2.50858 12.4415C2.72585 13.0817 3.07389 13.6697 3.5306 14.1681C3.9873 14.6666 4.54268 15.0647 5.16146 15.337C5.78025 15.6093 6.4489 15.75 7.12496 15.75H14.625C16.5146 15.75 18.3269 14.9993 19.6631 13.6631C20.9993 12.3269 21.75 10.5147 21.75 8.625C21.75 6.73533 20.9993 4.92306 19.6631 3.58686C18.3269 2.25067 16.5146 1.5 14.625 1.5ZM17.25 17.25H15C14.801 17.25 14.6103 17.329 14.4696 17.4697C14.329 17.6103 14.25 17.8011 14.25 18C14.25 18.1989 14.329 18.3897 14.4696 18.5303C14.6103 18.671 14.801 18.75 15 18.75H17.25C17.4489 18.75 17.6396 18.671 17.7803 18.5303C17.9209 18.3897 18 18.1989 18 18C18 17.8011 17.9209 17.6103 17.7803 17.4697C17.6396 17.329 17.4489 17.25 17.25 17.25Z" fill="#1D1F21" style="fill: var(--ui-icon-primary-color);"/>
</svg>
