<svg  viewBox="0 0 24 24" fill="none" xmlns="http://www.w3.org/2000/svg" id="__THIS_ID_NEEDS_FOR_UI_ICON_COMPONENT__">
<path d="M15 3.75C13.4678 3.75126 11.9662 4.17869 10.663 4.9845C9.35982 5.79031 8.30646 6.94272 7.62071 8.3129L7.6202 8.31285C7.04593 9.45703 6.74754 10.7198 6.74894 12C6.74894 12.1989 6.66992 12.3897 6.52927 12.5303C6.38862 12.671 6.19786 12.75 5.99894 12.75C5.80003 12.75 5.60926 12.671 5.46861 12.5303C5.32796 12.3897 5.24894 12.1989 5.24894 12C5.24777 10.7313 5.49557 9.47462 5.97832 8.30132C4.46666 8.4972 3.08626 9.26115 2.1175 10.438C1.14874 11.6148 0.664275 13.1163 0.762519 14.6374C0.860763 16.1586 1.53435 17.5853 2.64644 18.6277C3.75854 19.6702 5.22575 20.2502 6.75004 20.25H15C17.1881 20.25 19.2865 19.3808 20.8337 17.8336C22.3808 16.2865 23.25 14.188 23.25 12C23.25 9.81196 22.3808 7.71354 20.8337 6.16637C19.2865 4.61919 17.1881 3.75 15 3.75ZM17.9617 14.2123C17.892 14.2819 17.8094 14.3372 17.7184 14.3749C17.6274 14.4126 17.5299 14.432 17.4314 14.432C17.3329 14.432 17.2353 14.4126 17.1444 14.3749C17.0534 14.3372 16.9707 14.2819 16.901 14.2123L14.9994 12.3106V18C14.9994 18.1989 14.9204 18.3897 14.7797 18.5303C14.6391 18.671 14.4483 18.75 14.2494 18.75C14.0505 18.75 13.8597 18.671 13.7191 18.5303C13.5784 18.3897 13.4994 18.1989 13.4994 18V12.3106L11.5978 14.2123C11.5281 14.282 11.4455 14.3373 11.3544 14.3751C11.2634 14.4128 11.1659 14.4322 11.0673 14.4323C10.9688 14.4323 10.8712 14.4129 10.7802 14.3752C10.6892 14.3375 10.6065 14.2823 10.5368 14.2126C10.4671 14.1429 10.4119 14.0602 10.3742 13.9692C10.3365 13.8782 10.3171 13.7806 10.3171 13.6821C10.3172 13.5835 10.3366 13.486 10.3743 13.395C10.4121 13.304 10.4674 13.2213 10.5371 13.1516L13.7187 9.97005C13.7364 9.9524 13.7549 9.93565 13.7742 9.91985C13.7821 9.9134 13.7904 9.90784 13.7984 9.90175C13.8099 9.89307 13.8212 9.88419 13.8332 9.87616C13.8432 9.86945 13.8537 9.86366 13.864 9.85748C13.8746 9.85107 13.8851 9.84439 13.8961 9.83848C13.9068 9.83281 13.9177 9.828 13.9285 9.82287C13.9399 9.81749 13.951 9.81184 13.9627 9.80703C13.9731 9.80271 13.9838 9.79923 13.9944 9.79541C14.0069 9.79088 14.0192 9.78614 14.032 9.78227C14.0425 9.77909 14.0533 9.77678 14.0639 9.77405C14.0769 9.77073 14.0898 9.76712 14.1031 9.76451C14.1152 9.76208 14.1275 9.76071 14.1398 9.7589C14.1517 9.75714 14.1635 9.7549 14.1756 9.75373C14.1974 9.75158 14.2192 9.75066 14.2411 9.75041C14.2439 9.75039 14.2466 9.75 14.2494 9.75C14.2522 9.75 14.2549 9.75039 14.2577 9.75041C14.2796 9.75066 14.3014 9.75158 14.3231 9.75373C14.3353 9.7549 14.347 9.75714 14.359 9.7589C14.3713 9.76071 14.3835 9.76208 14.3957 9.76451C14.409 9.76712 14.4219 9.77073 14.4349 9.77405C14.4455 9.77677 14.4563 9.77909 14.4668 9.78227C14.4796 9.78614 14.4919 9.79088 14.5043 9.79541C14.515 9.79923 14.5257 9.80271 14.5361 9.80703C14.5478 9.81184 14.5589 9.81749 14.5703 9.82287C14.5811 9.828 14.592 9.83281 14.6027 9.83848C14.6137 9.84439 14.6241 9.85107 14.6348 9.85748C14.6451 9.86366 14.6555 9.86945 14.6656 9.87616C14.6776 9.88419 14.6889 9.89307 14.7004 9.90175C14.7084 9.90784 14.7167 9.9134 14.7246 9.91985C14.7439 9.93565 14.7624 9.9524 14.7801 9.97005L17.9617 13.1516C18.0313 13.2213 18.0866 13.304 18.1243 13.3949C18.162 13.4859 18.1814 13.5835 18.1814 13.682C18.1814 13.7804 18.162 13.878 18.1243 13.969C18.0866 14.06 18.0313 14.1426 17.9617 14.2123Z" fill="#1D1F21" style="fill: var(--ui-icon-primary-color);"/>
</svg>
