<svg  viewBox="0 0 24 24" fill="none" xmlns="http://www.w3.org/2000/svg" id="__THIS_ID_NEEDS_FOR_UI_ICON_COMPONENT__">
<path d="M12.6155 15.7502L11.1389 18.0002H14.4606C14.5959 18.0002 14.7286 18.0368 14.8448 18.1062C14.961 18.1755 15.0563 18.2749 15.1205 18.394C15.1848 18.513 15.2157 18.6472 15.2099 18.7824C15.2041 18.9175 15.1618 19.0486 15.0876 19.1617L12.6267 22.9117C12.5176 23.078 12.3468 23.1942 12.1521 23.2346C11.9573 23.275 11.7545 23.2364 11.5882 23.1273C11.4219 23.0182 11.3057 22.8474 11.2653 22.6527C11.2249 22.4579 11.2635 22.2551 11.3726 22.0888L13.0713 19.5002H9.74965C9.61436 19.5002 9.4816 19.4636 9.36541 19.3943C9.24923 19.325 9.15396 19.2256 9.08969 19.1065C9.02542 18.9875 8.99455 18.8533 9.00034 18.7181C9.00614 18.5829 9.04838 18.4519 9.1226 18.3388L10.8213 15.7502H7.12465C5.89542 15.7502 4.71158 15.2858 3.81018 14.4501C2.90879 13.6143 2.35637 12.4689 2.26356 11.2432C2.17075 10.0175 2.54439 8.80196 3.30966 7.84001C4.07494 6.87806 5.17535 6.24071 6.39055 6.05558C6.13075 6.88737 5.99894 7.75383 5.99965 8.62524C5.99965 8.82415 6.07866 9.01492 6.21932 9.15557C6.35997 9.29622 6.55073 9.37524 6.74965 9.37524C6.94856 9.37524 7.13932 9.29622 7.27998 9.15557C7.42063 9.01492 7.49965 8.82415 7.49965 8.62524C7.49874 7.75291 7.65884 6.88789 7.97189 6.07367L7.97254 6.07202C8.43772 4.86002 9.22519 3.79814 10.2499 3.00108C11.2746 2.20402 12.4976 1.70206 13.7868 1.54942C15.076 1.39679 16.3824 1.59927 17.5649 2.13501C18.7474 2.67074 19.7611 3.51937 20.4964 4.58923C21.2317 5.65909 21.6608 6.90952 21.7373 8.20547C21.8137 9.50141 21.5347 10.7936 20.9303 11.9425C20.3258 13.0914 19.419 14.0534 18.3077 14.7244C17.1964 15.3955 15.9228 15.7502 14.6246 15.7502H12.6155Z" fill="#1D1F21" style="fill: var(--ui-icon-primary-color);"/>
</svg>
