<svg  viewBox="0 0 24 24" fill="none" xmlns="http://www.w3.org/2000/svg" id="__THIS_ID_NEEDS_FOR_UI_ICON_COMPONENT__">
<path d="M14.625 6.75023C13.9839 6.74986 13.3458 6.83622 12.7279 7.00697C12.4838 6.60721 12.187 6.24209 11.8456 5.92142L12.7347 4.65166C12.8483 4.4887 12.8926 4.28734 12.8579 4.09175C12.8232 3.89616 12.7124 3.72233 12.5497 3.60839C12.387 3.49445 12.1857 3.44971 11.99 3.48399C11.7944 3.51827 11.6203 3.62877 11.506 3.79124L10.6169 5.06101C9.8334 4.66561 8.96314 4.4734 8.08601 4.50206L7.81634 2.97267C7.79934 2.87559 7.76337 2.78281 7.71049 2.69964C7.65761 2.61646 7.58885 2.54453 7.50815 2.48795C7.42745 2.43137 7.33639 2.39125 7.24017 2.36988C7.14395 2.34852 7.04447 2.34633 6.94741 2.36344C6.85034 2.38055 6.7576 2.41662 6.67449 2.46959C6.59138 2.52257 6.51952 2.5914 6.46303 2.67217C6.40654 2.75293 6.36652 2.84404 6.34526 2.94028C6.324 3.03652 6.32192 3.136 6.33914 3.23305L6.60864 4.76152C5.7741 5.03336 5.02207 5.51226 4.42278 6.15351L3.15132 5.26323C2.98836 5.14914 2.78677 5.10446 2.59087 5.13902C2.39498 5.17357 2.22083 5.28453 2.10675 5.44748C1.99266 5.61043 1.94798 5.81203 1.98253 6.00792C2.01709 6.20382 2.12804 6.37796 2.29099 6.49205L3.56223 7.38217C3.16437 8.16449 2.97128 9.03488 3.00097 9.91205L1.47238 10.1815C1.28771 10.2141 1.12194 10.3147 1.00774 10.4634C0.893549 10.6122 0.839214 10.7983 0.855448 10.9851C0.871682 11.172 0.957307 11.3459 1.09545 11.4727C1.23359 11.5996 1.41422 11.67 1.60174 11.6703C1.64569 11.6702 1.68956 11.6664 1.73285 11.6588L3.26199 11.3892C3.39642 11.7987 3.5808 12.19 3.81096 12.5543C3.09227 13.2201 2.59101 14.0871 2.3726 15.0421C2.15419 15.9972 2.22877 16.9959 2.58662 17.9079C2.94447 18.8198 3.56896 19.6028 4.37857 20.1544C5.18817 20.7061 6.14529 21.0008 7.12498 21.0002H14.625C16.5146 21.0002 18.3269 20.2496 19.6631 18.9134C20.9993 17.5772 21.75 15.7649 21.75 13.8752C21.75 11.9856 20.9993 10.1733 19.6631 8.83709C18.3269 7.5009 16.5146 6.75023 14.625 6.75023ZM4.55901 10.4153C4.55818 10.41 4.55795 10.4047 4.55702 10.3993C4.55598 10.3935 4.55425 10.3879 4.55308 10.3821C4.3844 9.41358 4.60552 8.4176 5.16822 7.61142C5.17154 7.60688 5.17539 7.60299 5.17861 7.59837C5.18223 7.5932 5.18509 7.58775 5.18855 7.58253C5.75334 6.78012 6.61196 6.23301 7.57785 6.06008C7.58481 6.05905 7.59172 6.05857 7.59868 6.05736C7.60522 6.05621 7.61143 6.05426 7.6179 6.05296C8.57151 5.88886 9.55163 6.10013 10.3529 6.64252C10.3681 6.65497 10.3833 6.66737 10.3996 6.67882C10.4115 6.68715 10.4242 6.69303 10.4364 6.70056C10.7723 6.94137 11.0658 7.23633 11.305 7.57338C9.77851 8.38109 8.59501 9.71284 7.97221 11.3237C7.69246 11.2747 7.40898 11.2501 7.12498 11.2502C6.40943 11.2496 5.70264 11.4076 5.0554 11.7127C4.81065 11.3149 4.64231 10.8749 4.55901 10.4153Z" fill="#1D1F21" style="fill: var(--ui-icon-primary-color);"/>
</svg>
