<svg  viewBox="0 0 24 24" fill="none" xmlns="http://www.w3.org/2000/svg" id="__THIS_ID_NEEDS_FOR_UI_ICON_COMPONENT__">
<path d="M20.055 19.7455C20.1212 19.8184 20.1725 19.9036 20.2058 19.9963C20.2391 20.0889 20.2538 20.1873 20.2491 20.2857C20.2445 20.384 20.2204 20.4805 20.1785 20.5696C20.1365 20.6587 20.0774 20.7387 20.0045 20.8049C19.9316 20.8712 19.8464 20.9224 19.7537 20.9558C19.6611 20.9891 19.5627 21.0038 19.4643 20.9991C19.366 20.9945 19.2695 20.9704 19.1804 20.9285C19.0913 20.8865 19.0113 20.8274 18.9451 20.7545L17.9811 19.6942C17.0307 20.0635 16.0197 20.252 15 20.25H6.75C5.92576 20.2494 5.11048 20.079 4.35501 19.7494C3.59954 19.4198 2.92008 18.9381 2.35901 18.3343C1.79794 17.7305 1.36729 17.0175 1.09393 16.24C0.820558 15.4624 0.710334 14.6368 0.770128 13.8147C0.829922 12.9927 1.05845 12.1917 1.44146 11.4619C1.82448 10.732 2.35376 10.0889 2.9963 9.57268C3.63884 9.05643 4.38085 8.6781 5.17607 8.46129C5.97128 8.24448 6.80264 8.19384 7.61829 8.31252C7.62016 8.30879 7.6222 8.30515 7.62408 8.30142L3.94506 4.25449C3.81126 4.10731 3.7414 3.91301 3.75086 3.71432C3.76032 3.51564 3.84832 3.32885 3.9955 3.19505C4.14268 3.06124 4.33699 2.99139 4.53567 3.00085C4.73436 3.01031 4.92115 3.09831 5.05495 3.24549L20.055 19.7455ZM15 3.74999C13.2419 3.74532 11.529 4.30678 10.1147 5.3513C10.0302 5.41355 9.9596 5.49286 9.90762 5.58412C9.85564 5.67537 9.8234 5.77652 9.81299 5.88102C9.80258 5.98552 9.81424 6.09105 9.8472 6.19076C9.88016 6.29047 9.9337 6.38215 10.0043 6.45986L20.0401 17.4992C20.1104 17.5765 20.196 17.6383 20.2916 17.6805C20.3872 17.7228 20.4905 17.7446 20.595 17.7447H20.5983C20.7033 17.7442 20.8071 17.7217 20.9029 17.6786C20.9987 17.6354 21.0843 17.5727 21.1543 17.4943C22.2145 16.3067 22.9085 14.8378 23.1525 13.2647C23.3965 11.6915 23.1802 10.0814 22.5296 8.62846C21.879 7.17552 20.822 5.94184 19.4859 5.07621C18.1499 4.21059 16.592 3.75 15 3.74999Z" fill="#1D1F21" style="fill: var(--ui-icon-primary-color);"/>
</svg>
