<svg  viewBox="0 0 24 24" fill="none" xmlns="http://www.w3.org/2000/svg" id="__THIS_ID_NEEDS_FOR_UI_ICON_COMPONENT__">
<path d="M14.625 6.75026C14.2369 6.75036 13.8495 6.78209 13.4666 6.84513C13.33 5.43722 12.7544 4.10784 11.8211 3.04486C10.8879 1.98188 9.64419 1.23906 8.2658 0.921372C8.14196 0.892932 8.01293 0.896421 7.89081 0.931513C7.76869 0.966604 7.65749 1.03215 7.56764 1.12199C7.47779 1.21184 7.41224 1.32303 7.37714 1.44515C7.34204 1.56727 7.33855 1.69631 7.36698 1.82014C7.45555 2.20726 7.50017 2.60314 7.50001 3.00026C7.49844 4.39216 6.94481 5.72661 5.96059 6.71084C4.97636 7.69506 3.64191 8.24869 2.25001 8.25026C1.8528 8.25043 1.45684 8.20583 1.06962 8.11732C0.945787 8.08893 0.816775 8.09246 0.694683 8.12758C0.572591 8.1627 0.461421 8.22826 0.371602 8.31811C0.281782 8.40796 0.216257 8.51915 0.181174 8.64125C0.14609 8.76335 0.142598 8.89236 0.171024 9.01619C0.372331 9.88508 0.743403 10.7056 1.26291 11.4306C1.78241 12.1556 2.4401 12.7707 3.19815 13.2407C2.6639 13.9666 2.34149 14.8264 2.26678 15.7246C2.19206 16.6228 2.36797 17.5241 2.77493 18.3283C3.1819 19.1324 3.80397 19.808 4.57195 20.2797C5.33993 20.7514 6.22372 21.0009 7.12501 21.0003H14.625C16.5147 21.0003 18.3269 20.2496 19.6631 18.9134C20.9993 17.5772 21.75 15.7649 21.75 13.8753C21.75 11.9856 20.9993 10.1733 19.6631 8.83712C18.3269 7.50093 16.5147 6.75026 14.625 6.75026ZM2.00327 9.74577C2.08544 9.74879 2.16769 9.75029 2.25001 9.75026C4.0396 9.74824 5.75532 9.03644 7.02075 7.771C8.28619 6.50557 8.99799 4.78985 9.00001 3.00026C9.00001 2.91667 8.99847 2.83315 8.99538 2.74968C9.85932 3.15461 10.5957 3.78871 11.1243 4.58299C11.653 5.37727 11.9537 6.30132 11.9938 7.2546C11.0799 7.62021 10.2511 8.17021 9.55921 8.8703C8.8673 9.5704 8.32707 10.4056 7.97224 11.3237C7.69248 11.2747 7.40901 11.2502 7.12501 11.2503C6.11595 11.2495 5.13182 11.5637 4.30987 12.149C3.30157 11.6181 2.49232 10.775 2.00327 9.74577Z" fill="#1D1F21" style="fill: var(--ui-icon-primary-color);"/>
</svg>
