<svg  viewBox="0 0 24 24" fill="none" xmlns="http://www.w3.org/2000/svg" id="__THIS_ID_NEEDS_FOR_UI_ICON_COMPONENT__">
<path d="M16.4995 18.375C16.4995 18.5975 16.4336 18.815 16.3099 19C16.1863 19.185 16.0106 19.3292 15.8051 19.4144C15.5995 19.4995 15.3733 19.5218 15.1551 19.4784C14.9368 19.435 14.7364 19.3278 14.579 19.1705C14.4217 19.0132 14.3146 18.8127 14.2712 18.5945C14.2277 18.3762 14.25 18.15 14.3352 17.9445C14.4203 17.7389 14.5645 17.5632 14.7495 17.4396C14.9345 17.316 15.152 17.25 15.3745 17.25C15.6728 17.2503 15.9588 17.369 16.1697 17.5799C16.3806 17.7908 16.4992 18.0767 16.4995 18.375ZM7.12454 17.25C6.90204 17.25 6.68453 17.316 6.49952 17.4396C6.31452 17.5632 6.17032 17.7389 6.08518 17.9445C6.00003 18.15 5.97775 18.3762 6.02116 18.5945C6.06456 18.8127 6.17171 19.0132 6.32904 19.1705C6.48638 19.3278 6.68683 19.435 6.90506 19.4784C7.12329 19.5218 7.34949 19.4995 7.55506 19.4144C7.76062 19.3292 7.93633 19.185 8.05994 19C8.18356 18.815 8.24954 18.5975 8.24954 18.375C8.2492 18.0767 8.13056 17.7908 7.91966 17.5799C7.70875 17.369 7.4228 17.2503 7.12454 17.25ZM10.8745 18.75C10.652 18.75 10.4345 18.816 10.2495 18.9396C10.0645 19.0632 9.92032 19.2389 9.83518 19.4445C9.75003 19.65 9.72775 19.8762 9.77116 20.0945C9.81456 20.3127 9.92171 20.5132 10.079 20.6705C10.2364 20.8278 10.4368 20.935 10.6551 20.9784C10.8733 21.0218 11.0995 20.9995 11.3051 20.9144C11.5106 20.8292 11.6863 20.685 11.8099 20.5C11.9336 20.315 11.9995 20.0975 11.9995 19.875C11.9992 19.5767 11.8806 19.2908 11.6697 19.0799C11.4588 18.869 11.1728 18.7503 10.8745 18.75ZM6.37454 21C6.15204 21 5.93453 21.066 5.74952 21.1896C5.56452 21.3132 5.42032 21.4889 5.33518 21.6945C5.25003 21.9 5.22775 22.1262 5.27116 22.3445C5.31456 22.5627 5.42171 22.7632 5.57904 22.9205C5.73638 23.0778 5.93683 23.185 6.15506 23.2284C6.37329 23.2718 6.59949 23.2495 6.80506 23.1644C7.01062 23.0792 7.18633 22.935 7.30994 22.75C7.43356 22.565 7.49954 22.3475 7.49954 22.125C7.4992 21.8267 7.38056 21.5408 7.16966 21.3299C6.95875 21.119 6.6728 21.0003 6.37454 21ZM14.6245 21C14.402 21 14.1845 21.066 13.9995 21.1896C13.8145 21.3132 13.6703 21.4889 13.5852 21.6945C13.5 21.9 13.4777 22.1262 13.5212 22.3445C13.5646 22.5627 13.6717 22.7632 13.829 22.9205C13.9864 23.0778 14.1868 23.185 14.4051 23.2284C14.6233 23.2718 14.8495 23.2495 15.0551 23.1644C15.2606 23.0792 15.4363 22.935 15.5599 22.75C15.6836 22.565 15.7495 22.3475 15.7495 22.125C15.7492 21.8267 15.6306 21.5408 15.4197 21.3299C15.2088 21.119 14.9228 21.0003 14.6245 21ZM14.6245 1.5C13.1839 1.50163 11.7774 1.93921 10.5901 2.75521C9.40283 3.5712 8.49027 4.7274 7.97243 6.07178L7.97178 6.07343C7.65873 6.88765 7.49863 7.75267 7.49954 8.625C7.49954 8.82391 7.42052 9.01468 7.27987 9.15533C7.13922 9.29598 6.94845 9.375 6.74954 9.375C6.55063 9.375 6.35986 9.29598 6.21921 9.15533C6.07856 9.01468 5.99954 8.82391 5.99954 8.625C5.99883 7.75358 6.13064 6.88713 6.39045 6.05534C5.17524 6.24047 4.07483 6.87782 3.30955 7.83977C2.54428 8.80172 2.17064 10.0173 2.26345 11.243C2.35627 12.4687 2.90868 13.6141 3.81008 14.4498C4.71148 15.2856 5.89532 15.75 7.12454 15.75H14.6245C16.5142 15.75 18.3265 14.9993 19.6627 13.6631C20.9989 12.3269 21.7495 10.5147 21.7495 8.625C21.7495 6.73533 20.9989 4.92306 19.6627 3.58686C18.3265 2.25067 16.5142 1.5 14.6245 1.5Z" fill="#1D1F21" style="fill: var(--ui-icon-primary-color);"/>
</svg>
