<svg  viewBox="0 0 24 24" fill="none" xmlns="http://www.w3.org/2000/svg" id="__THIS_ID_NEEDS_FOR_UI_ICON_COMPONENT__">
<path d="M15 3.75C13.4678 3.75126 11.9662 4.17869 10.663 4.9845C9.35982 5.79031 8.30646 6.94272 7.62071 8.3129L7.6202 8.31285C7.04593 9.45703 6.74755 10.7198 6.74894 12C6.74894 12.1989 6.66993 12.3897 6.52927 12.5303C6.38862 12.671 6.19786 12.75 5.99894 12.75C5.80003 12.75 5.60927 12.671 5.46861 12.5303C5.32796 12.3897 5.24894 12.1989 5.24894 12C5.24777 10.7313 5.49558 9.47462 5.97832 8.30132C4.46667 8.4972 3.08626 9.26115 2.1175 10.438C1.14874 11.6148 0.664277 13.1163 0.762521 14.6374C0.860765 16.1586 1.53435 17.5853 2.64645 18.6277C3.75854 19.6702 5.22575 20.2502 6.75004 20.25H15C17.1881 20.25 19.2865 19.3808 20.8337 17.8336C22.3808 16.2865 23.25 14.188 23.25 12C23.25 9.81196 22.3808 7.71354 20.8337 6.16637C19.2865 4.61919 17.1881 3.75 15 3.75ZM18.5303 11.4053L14.0303 15.9053C13.9606 15.975 13.878 16.0302 13.787 16.0679C13.696 16.1056 13.5984 16.125 13.5 16.125C13.4015 16.125 13.3039 16.1056 13.2129 16.0679C13.122 16.0302 13.0393 15.975 12.9696 15.9053L10.7196 13.6553C10.5791 13.5146 10.5002 13.3239 10.5003 13.1251C10.5004 12.9263 10.5794 12.7356 10.72 12.595C10.8606 12.4544 11.0512 12.3754 11.2501 12.3753C11.4489 12.3753 11.6396 12.4542 11.7803 12.5947L13.5 14.3144L17.4696 10.3447C17.6103 10.2042 17.801 10.1253 17.9999 10.1253C18.1987 10.1254 18.3893 10.2044 18.5299 10.345C18.6705 10.4856 18.7495 10.6763 18.7496 10.8751C18.7497 11.0739 18.6708 11.2646 18.5303 11.4053H18.5303Z" fill="#1D1F21" style="fill: var(--ui-icon-primary-color);"/>
</svg>
