<svg  viewBox="0 0 24 24" fill="none" xmlns="http://www.w3.org/2000/svg" id="__THIS_ID_NEEDS_FOR_UI_ICON_COMPONENT__">
<path d="M15.0001 3.75C13.4679 3.75126 11.9663 4.17869 10.6631 4.9845C9.35988 5.79031 8.30652 6.94272 7.62076 8.3129L7.62026 8.31285C7.04598 9.45703 6.7476 10.7198 6.749 12C6.749 12.1989 6.66998 12.3897 6.52933 12.5303C6.38868 12.671 6.19791 12.75 5.999 12.75C5.80009 12.75 5.60932 12.671 5.46867 12.5303C5.32802 12.3897 5.249 12.1989 5.249 12C5.24782 10.7313 5.49563 9.47462 5.97837 8.30132C4.46672 8.4972 3.08631 9.26115 2.11755 10.438C1.14879 11.6148 0.66433 13.1163 0.762574 14.6374C0.860818 16.1586 1.5344 17.5853 2.6465 18.6277C3.7586 19.6702 5.22581 20.2502 6.7501 20.25H15.0001C17.1881 20.25 19.2866 19.3808 20.8337 17.8336C22.3809 16.2865 23.2501 14.188 23.2501 12C23.2501 9.81196 22.3809 7.71354 20.8337 6.16637C19.2866 4.61919 17.1881 3.75 15.0001 3.75ZM17.9617 15.3484L14.7801 18.53C14.7625 18.5476 14.744 18.5644 14.7246 18.5801C14.7168 18.5866 14.7085 18.5922 14.7005 18.5982C14.689 18.6069 14.6777 18.6158 14.6657 18.6238C14.6556 18.6306 14.6451 18.6364 14.6347 18.6426C14.6241 18.649 14.6137 18.6556 14.6028 18.6615C14.592 18.6673 14.5809 18.6722 14.5699 18.6774C14.5587 18.6826 14.5477 18.6882 14.5363 18.6929C14.5256 18.6974 14.5146 18.7009 14.5037 18.7049C14.4915 18.7093 14.4795 18.7139 14.467 18.7177C14.4561 18.721 14.4449 18.7234 14.4339 18.7262C14.4213 18.7294 14.4088 18.7329 14.396 18.7355C14.3829 18.7381 14.3698 18.7396 14.3567 18.7415C14.3456 18.743 14.3347 18.7452 14.3235 18.7463C14.2989 18.7487 14.2742 18.75 14.2495 18.75C14.2248 18.75 14.2001 18.7487 14.1755 18.7463C14.1642 18.7452 14.1533 18.743 14.1423 18.7415C14.1291 18.7396 14.116 18.7381 14.103 18.7355C14.0901 18.7329 14.0777 18.7294 14.0651 18.7262C14.054 18.7234 14.0429 18.721 14.0319 18.7177C14.0194 18.7139 14.0074 18.7093 13.9952 18.7049C13.9843 18.7009 13.9733 18.6974 13.9626 18.6929C13.9512 18.6882 13.9402 18.6826 13.9291 18.6774C13.9181 18.6722 13.9069 18.6673 13.8961 18.6615C13.8852 18.6556 13.8748 18.649 13.8642 18.6426C13.8539 18.6364 13.8434 18.6306 13.8333 18.6238C13.8213 18.6158 13.81 18.6069 13.7985 18.5982C13.7904 18.5922 13.7821 18.5866 13.7743 18.5801C13.755 18.5644 13.7364 18.5476 13.7188 18.53L10.5372 15.3484C10.4672 15.2788 10.4115 15.1961 10.3735 15.105C10.3355 15.0139 10.3159 14.9162 10.3157 14.8175C10.3155 14.7188 10.3348 14.621 10.3725 14.5298C10.4102 14.4386 10.4656 14.3557 10.5354 14.2859C10.6052 14.2161 10.688 14.1608 10.7793 14.1231C10.8705 14.0854 10.9683 14.0661 11.067 14.0662C11.1657 14.0664 11.2634 14.086 11.3545 14.1241C11.4456 14.1621 11.5283 14.2177 11.5978 14.2877L13.4995 16.1894V10.5C13.4995 10.3011 13.5785 10.1103 13.7191 9.96967C13.8598 9.82902 14.0505 9.75 14.2495 9.75C14.4484 9.75 14.6391 9.82902 14.7798 9.96967C14.9204 10.1103 14.9995 10.3011 14.9995 10.5V16.1894L16.9011 14.2877C16.9707 14.218 17.0534 14.1627 17.1444 14.1249C17.2354 14.0872 17.333 14.0678 17.4315 14.0677C17.5301 14.0677 17.6276 14.0871 17.7187 14.1248C17.8097 14.1625 17.8924 14.2177 17.9621 14.2874C18.0317 14.3571 18.087 14.4398 18.1247 14.5308C18.1624 14.6218 18.1818 14.7194 18.1817 14.8179C18.1817 14.9165 18.1623 15.014 18.1245 15.105C18.0868 15.196 18.0315 15.2787 17.9617 15.3484H17.9617Z" fill="#1D1F21" style="fill: var(--ui-icon-primary-color);"/>
</svg>
