<svg  viewBox="0 0 24 24" fill="none" xmlns="http://www.w3.org/2000/svg" id="__THIS_ID_NEEDS_FOR_UI_ICON_COMPONENT__">
<path d="M21.75 13.8754C21.7499 14.7541 21.5124 15.6164 21.0625 16.3711C20.6126 17.1259 19.9672 17.7451 19.1943 18.1631C18.4215 18.5812 17.55 18.7827 16.6721 18.7462C15.7942 18.7097 14.9425 18.4366 14.207 17.9559L15.2058 21.1516C15.2409 21.2639 15.2491 21.3829 15.2297 21.4989C15.2103 21.615 15.1639 21.7248 15.0942 21.8196C15.0245 21.9144 14.9335 21.9915 14.8286 22.0446C14.7236 22.0977 14.6076 22.1254 14.4899 22.1254H9.51011C9.39246 22.1254 9.27647 22.0977 9.17149 22.0446C9.06652 21.9915 8.97551 21.9144 8.90583 21.8196C8.83615 21.7248 8.78975 21.615 8.77037 21.4989C8.751 21.3829 8.7592 21.2639 8.79431 21.1516L9.79264 17.9574C8.95979 18.5034 7.97901 18.7795 6.98367 18.7484C4.3843 18.6748 2.26082 16.4979 2.25007 13.8959C2.24737 13.254 2.37147 12.6179 2.61525 12.024C2.85902 11.4302 3.21768 10.8904 3.67063 10.4355C4.12358 9.98063 4.66191 9.61971 5.25471 9.37343C5.8475 9.12716 6.48311 9.00038 7.12503 9.00038C7.25183 9.00038 7.37835 9.00527 7.5046 9.01503C7.19346 8.27397 7.07037 7.46749 7.14626 6.66735C7.22216 5.86722 7.49469 5.09825 7.93961 4.42891C8.38453 3.75956 8.98803 3.2106 9.6964 2.83087C10.4048 2.45115 11.196 2.25244 11.9998 2.25244C12.8035 2.25244 13.5947 2.45115 14.3031 2.83087C15.0115 3.2106 15.615 3.75956 16.0599 4.42891C16.5048 5.09825 16.7773 5.86722 16.8532 6.66735C16.9291 7.46749 16.806 8.27397 16.4949 9.01503C16.6653 9.00198 16.8363 8.99767 17.0071 9.00212C18.2791 9.02946 19.4892 9.55577 20.3766 10.4675C21.2639 11.3792 21.7572 12.6032 21.75 13.8754Z" fill="#1D1F21" style="fill: var(--ui-icon-primary-color);"/>
</svg>
