<svg  viewBox="0 0 24 24" fill="none" xmlns="http://www.w3.org/2000/svg" id="__THIS_ID_NEEDS_FOR_UI_ICON_COMPONENT__">
<path d="M9.75 21H5.25C4.85231 20.9995 4.47105 20.8414 4.18984 20.5602C3.90864 20.279 3.75045 19.8977 3.75 19.5V4.5C3.75045 4.10231 3.90864 3.72105 4.18984 3.43984C4.47105 3.15864 4.85231 3.00045 5.25 3H9.75C10.1477 3.00045 10.529 3.15864 10.8102 3.43984C11.0914 3.72105 11.2495 4.10231 11.25 4.5V19.5C11.2495 19.8977 11.0914 20.279 10.8102 20.5602C10.529 20.8414 10.1477 20.9995 9.75 21ZM20.25 19.5V4.5C20.2495 4.10231 20.0914 3.72105 19.8102 3.43984C19.529 3.15864 19.1477 3.00045 18.75 3H14.25C13.8523 3.00045 13.471 3.15864 13.1898 3.43984C12.9086 3.72105 12.7505 4.10231 12.75 4.5V19.5C12.7505 19.8977 12.9086 20.279 13.1898 20.5602C13.471 20.8414 13.8523 20.9995 14.25 21H18.75C19.1477 20.9995 19.529 20.8414 19.8102 20.5602C20.0914 20.279 20.2495 19.8977 20.25 19.5Z" fill="#1D1F21" style="fill: var(--ui-icon-primary-color);"/>
</svg>
