<svg  viewBox="0 0 24 24" fill="none" xmlns="http://www.w3.org/2000/svg" id="__THIS_ID_NEEDS_FOR_UI_ICON_COMPONENT__">
<path d="M16.875 13.5H15V10.5H16.875C17.5425 10.5 18.195 10.3021 18.75 9.93121C19.3051 9.56036 19.7376 9.03326 19.9931 8.41656C20.2485 7.79986 20.3154 7.12126 20.1851 6.46657C20.0549 5.81189 19.7335 5.21052 19.2615 4.73852C18.7895 4.26651 18.1881 3.94508 17.5334 3.81485C16.8787 3.68463 16.2001 3.75146 15.5834 4.00691C14.9667 4.26235 14.4396 4.69494 14.0688 5.24995C13.6979 5.80497 13.5 6.45749 13.5 7.125V9H10.5V7.125C10.5 6.45749 10.302 5.80497 9.9312 5.24995C9.56035 4.69494 9.03324 4.26235 8.41654 4.00691C7.79984 3.75146 7.12124 3.68463 6.46656 3.81485C5.81187 3.94508 5.2105 4.26651 4.7385 4.73852C4.2665 5.21052 3.94506 5.81189 3.81484 6.46657C3.68461 7.12126 3.75145 7.79986 4.00689 8.41656C4.26234 9.03326 4.69492 9.56036 5.24994 9.93121C5.80495 10.3021 6.45747 10.5 7.12499 10.5H8.99999V13.5H7.12499C6.45747 13.5 5.80495 13.6979 5.24994 14.0688C4.69492 14.4396 4.26234 14.9667 4.00689 15.5834C3.75145 16.2001 3.68461 16.8787 3.81484 17.5334C3.94506 18.1881 4.2665 18.7895 4.7385 19.2615C5.2105 19.7335 5.81187 20.0549 6.46656 20.1852C7.12124 20.3154 7.79984 20.2485 8.41654 19.9931C9.03324 19.7376 9.56035 19.3051 9.9312 18.7501C10.302 18.195 10.5 17.5425 10.5 16.875V15H13.5V16.875C13.5 17.5425 13.6979 18.195 14.0688 18.7501C14.4396 19.3051 14.9667 19.7376 15.5834 19.9931C16.2001 20.2485 16.8787 20.3154 17.5334 20.1852C18.1881 20.0549 18.7895 19.7335 19.2615 19.2615C19.7335 18.7895 20.0549 18.1881 20.1851 17.5334C20.3154 16.8787 20.2485 16.2001 19.9931 15.5834C19.7376 14.9667 19.3051 14.4396 18.75 14.0688C18.195 13.6979 17.5425 13.5 16.875 13.5ZM15 7.125C15 6.75416 15.11 6.39165 15.316 6.08331C15.522 5.77497 15.8148 5.53464 16.1575 5.39273C16.5001 5.25081 16.8771 5.21368 17.2408 5.28603C17.6045 5.35838 17.9386 5.53695 18.2008 5.79918C18.463 6.0614 18.6416 6.39549 18.714 6.75921C18.7863 7.12292 18.7492 7.49992 18.6073 7.84253C18.4653 8.18514 18.225 8.47798 17.9167 8.68401C17.6083 8.89004 17.2458 9 16.875 9H15V7.125ZM5.24999 7.125C5.24999 6.62772 5.44753 6.15081 5.79916 5.79918C6.15079 5.44755 6.62771 5.25 7.12499 5.25C7.62227 5.25 8.09918 5.44755 8.45081 5.79918C8.80244 6.15081 8.99999 6.62772 8.99999 7.125V9H7.12499C6.62788 8.99944 6.15129 8.80172 5.79978 8.45021C5.44827 8.0987 5.25055 7.62211 5.24999 7.125ZM8.99999 16.875C8.99999 17.2458 8.89002 17.6084 8.68399 17.9167C8.47796 18.225 8.18513 18.4654 7.84252 18.6073C7.49991 18.7492 7.12291 18.7863 6.75919 18.714C6.39548 18.6416 6.06138 18.4631 5.79916 18.2008C5.53694 17.9386 5.35836 17.6045 5.28601 17.2408C5.21367 16.8771 5.2508 16.5001 5.39271 16.1575C5.53463 15.8149 5.77495 15.522 6.08329 15.316C6.39163 15.11 6.75415 15 7.12499 15H8.99999V16.875ZM10.5 10.5H13.5V13.5H10.5V10.5ZM16.875 18.75C16.3779 18.7494 15.9013 18.5517 15.5498 18.2002C15.1983 17.8487 15.0005 17.3721 15 16.875V15H16.875C17.3723 15 17.8492 15.1975 18.2008 15.5492C18.5524 15.9008 18.75 16.3777 18.75 16.875C18.75 17.3723 18.5524 17.8492 18.2008 18.2008C17.8492 18.5525 17.3723 18.75 16.875 18.75Z" fill="#1D1F21" style="fill: var(--ui-icon-primary-color);"/>
</svg>
