<svg  viewBox="0 0 24 24" fill="none" xmlns="http://www.w3.org/2000/svg" id="__THIS_ID_NEEDS_FOR_UI_ICON_COMPONENT__">
<path d="M11.9999 2.25C10.0716 2.25 8.18651 2.82183 6.58313 3.89317C4.97975 4.96451 3.73007 6.48726 2.99212 8.26884C2.25416 10.0504 2.06108 12.0108 2.43729 13.9021C2.81349 15.7934 3.74209 17.5307 5.10565 18.8943C6.46921 20.2579 8.2065 21.1865 10.0978 21.5627C11.9891 21.9389 13.9495 21.7458 15.7311 21.0078C17.5127 20.2699 19.0354 19.0202 20.1068 17.4168C21.1781 15.8134 21.7499 13.9284 21.7499 12C21.747 9.41504 20.7188 6.93679 18.891 5.10894C17.0632 3.28109 14.5849 2.25293 11.9999 2.25ZM16.9077 8.07413L14.2738 13.8999C14.1966 14.0708 14.0582 14.2065 13.8858 14.2803L8.31742 16.6668C8.17965 16.7259 8.02734 16.7423 7.88015 16.714C7.73295 16.6856 7.59763 16.6138 7.49163 16.5078C7.38563 16.4019 7.31382 16.2665 7.28548 16.1193C7.25713 15.9722 7.27354 15.8198 7.33259 15.6821L9.719 10.1136C9.79268 9.94175 9.92785 9.80365 10.098 9.72629L15.9139 7.08243C16.0528 7.0193 16.2076 7.00001 16.3577 7.02715C16.5078 7.05428 16.6461 7.12654 16.7541 7.23429C16.862 7.34204 16.9346 7.48016 16.9621 7.63021C16.9895 7.78027 16.9706 7.93512 16.9077 8.07413Z" fill="#1D1F21" style="fill: var(--ui-icon-primary-color);"/>
</svg>
