<svg  viewBox="0 0 24 24" fill="none" xmlns="http://www.w3.org/2000/svg" id="__THIS_ID_NEEDS_FOR_UI_ICON_COMPONENT__">
<path d="M20.25 2.99951H8.24965C8.05073 2.99952 7.85997 3.07854 7.71931 3.2192C7.57866 3.35985 7.49964 3.55062 7.49963 3.74953V7.49973H3.74943C3.55052 7.49974 3.35975 7.57876 3.2191 7.71941C3.07845 7.86007 2.99942 8.05083 2.99941 8.24975V20.2501C2.99942 20.449 3.07845 20.6397 3.2191 20.7804C3.35975 20.9211 3.55052 21.0001 3.74943 21.0001H15.7498C15.9487 21.0001 16.1394 20.9211 16.2801 20.7804C16.4207 20.6397 16.4998 20.449 16.4998 20.2501V16.4999H20.25C20.4489 16.4999 20.6396 16.4208 20.7803 16.2802C20.921 16.1395 21 15.9488 21 15.7499V3.74953C21 3.55062 20.921 3.35985 20.7803 3.2192C20.6396 3.07854 20.4489 2.99952 20.25 2.99951ZM19.4999 14.9998H16.4998V8.24975C16.4998 8.05083 16.4207 7.86007 16.2801 7.71941C16.1394 7.57876 15.9487 7.49974 15.7498 7.49973H8.99967V4.49955H19.4999V14.9998Z" fill="#1D1F21" style="fill: var(--ui-icon-primary-color);"/>
</svg>
