<svg  viewBox="0 0 24 24" fill="none" xmlns="http://www.w3.org/2000/svg" id="__THIS_ID_NEEDS_FOR_UI_ICON_COMPONENT__">
<path d="M21 3.74953V17.25C21 17.4489 20.9209 17.6397 20.7803 17.7803C20.6396 17.921 20.4489 18 20.25 18C20.051 18 19.8603 17.921 19.7196 17.7803C19.5789 17.6397 19.4999 17.4489 19.4999 17.25V4.49955H6.74895C6.55003 4.49955 6.35926 4.42053 6.2186 4.27988C6.07795 4.13922 5.99893 3.94845 5.99893 3.74953C5.99893 3.55061 6.07795 3.35984 6.2186 3.21919C6.35926 3.07853 6.55003 2.99951 6.74895 2.99951H20.25C20.4489 2.99951 20.6396 3.07853 20.7803 3.21919C20.9209 3.35985 21 3.55061 21 3.74953ZM17.2498 5.99969H3.74887C3.54995 5.9997 3.35919 6.07872 3.21853 6.21937C3.07788 6.36003 2.99886 6.55079 2.99885 6.74971V20.2501C2.99885 20.449 3.07787 20.6398 3.21853 20.7804C3.35918 20.9211 3.54995 21.0001 3.74887 21.0001H17.2498C17.4487 21.0001 17.6395 20.9211 17.7801 20.7804C17.9208 20.6398 17.9998 20.449 17.9998 20.2501V6.74971C17.9998 6.55079 17.9208 6.36002 17.7801 6.21937C17.6395 6.07872 17.4487 5.99969 17.2498 5.99968L17.2498 5.99969Z" fill="#1D1F21" style="fill: var(--ui-icon-primary-color);"/>
</svg>
