<svg  viewBox="0 0 24 24" fill="none" xmlns="http://www.w3.org/2000/svg" id="__THIS_ID_NEEDS_FOR_UI_ICON_COMPONENT__">
<path d="M11.9999 2.625C10.1457 2.625 8.33318 3.17483 6.79147 4.20497C5.24976 5.23511 4.04814 6.69929 3.33857 8.41234C2.629 10.1254 2.44334 12.0104 2.80508 13.829C3.16682 15.6475 4.0597 17.318 5.37082 18.6291C6.68193 19.9402 8.3524 20.8331 10.171 21.1949C11.9895 21.5566 13.8745 21.3709 15.5876 20.6614C17.3007 19.9518 18.7648 18.7502 19.795 17.2085C20.8251 15.6668 21.3749 13.8542 21.3749 12C21.3721 9.51446 20.3835 7.13152 18.626 5.37397C16.8684 3.61642 14.4855 2.6278 11.9999 2.625ZM12.7499 19.8384V16.875C12.7499 16.6761 12.6709 16.4853 12.5303 16.3447C12.3896 16.204 12.1989 16.125 11.9999 16.125C11.801 16.125 11.6103 16.204 11.4696 16.3447C11.329 16.4853 11.2499 16.6761 11.2499 16.875V19.8384C9.42992 19.6617 7.72783 18.8581 6.43483 17.5651C5.14183 16.2721 4.33825 14.57 4.16156 12.75H7.12494C7.32386 12.75 7.51462 12.671 7.65527 12.5303C7.79593 12.3897 7.87494 12.1989 7.87494 12C7.87494 11.8011 7.79593 11.6103 7.65527 11.4697C7.51462 11.329 7.32386 11.25 7.12494 11.25H4.16156C4.33825 9.42998 5.14183 7.72789 6.43483 6.43489C7.72783 5.14188 9.42992 4.33831 11.2499 4.16162V7.125C11.2499 7.32391 11.329 7.51468 11.4696 7.65533C11.6103 7.79598 11.801 7.875 11.9999 7.875C12.1989 7.875 12.3896 7.79598 12.5303 7.65533C12.6709 7.51468 12.7499 7.32391 12.7499 7.125V4.16162C14.57 4.33831 16.2721 5.14188 17.5651 6.43489C18.8581 7.72789 19.6616 9.42998 19.8383 11.25H16.8749C16.676 11.25 16.4853 11.329 16.3446 11.4697C16.204 11.6103 16.1249 11.8011 16.1249 12C16.1249 12.1989 16.204 12.3897 16.3446 12.5303C16.4853 12.671 16.676 12.75 16.8749 12.75H19.8383C19.6616 14.57 18.8581 16.2721 17.5651 17.5651C16.2721 18.8581 14.57 19.6617 12.7499 19.8384Z" fill="#1D1F21" style="fill: var(--ui-icon-primary-color);"/>
</svg>
