<svg  viewBox="0 0 24 24" fill="none" xmlns="http://www.w3.org/2000/svg" id="__THIS_ID_NEEDS_FOR_UI_ICON_COMPONENT__">
<path d="M21.1818 6.82771C21.1788 6.82222 21.1765 6.81654 21.1733 6.81107C21.1708 6.8067 21.1679 6.80281 21.1653 6.79851C21.0318 6.57258 20.8414 6.38563 20.6131 6.25636L12.7381 1.80527C12.5127 1.67875 12.2585 1.6123 12 1.6123C11.7415 1.6123 11.4873 1.67875 11.2619 1.80527L3.38691 6.25638C3.15474 6.38776 2.96183 6.5787 2.82807 6.8095C2.82669 6.81192 2.82505 6.8141 2.82367 6.81655C2.82125 6.82085 2.81951 6.82534 2.81717 6.82966C2.69145 7.05336 2.62528 7.3056 2.625 7.56222V16.437C2.62525 16.7026 2.69589 16.9634 2.82973 17.1928C2.96357 17.4222 3.15583 17.612 3.38691 17.7429L11.2619 22.1939C11.4714 22.3117 11.7062 22.3773 11.9464 22.3853C11.9616 22.3864 11.9767 22.3879 11.9923 22.3881C11.9949 22.3881 11.9975 22.3881 12.0002 22.3881C12.0209 22.3881 12.0414 22.3867 12.0617 22.385C12.2991 22.3759 12.531 22.3104 12.7381 22.1939L20.6131 17.7429C20.8442 17.612 21.0364 17.4221 21.1703 17.1928C21.3041 16.9634 21.3748 16.7026 21.375 16.437V7.56222C21.3747 7.30485 21.3082 7.05189 21.1818 6.82771ZM12 3.11113L19.1075 7.12839L12.0953 11.1381L4.90585 7.12087L12 3.11113ZM12.7622 20.4573L12.845 12.4373L19.875 8.41743V16.437L12.7622 20.4573Z" fill="#1D1F21" style="fill: var(--ui-icon-primary-color);"/>
</svg>
