<svg  viewBox="0 0 24 24" fill="none" xmlns="http://www.w3.org/2000/svg" id="__THIS_ID_NEEDS_FOR_UI_ICON_COMPONENT__">
<path d="M19.5 7.5C19.5 7.69891 19.4209 7.88967 19.2803 8.03032C19.1396 8.17097 18.9489 8.24999 18.75 8.25H15.7361C15.7443 8.3741 15.75 8.49886 15.75 8.625C15.7483 10.1163 15.1551 11.5461 14.1006 12.6006C13.0461 13.6551 11.6163 14.2483 10.125 14.25H8.68989L15.5045 20.445C15.6517 20.5788 15.7397 20.7656 15.7492 20.9643C15.7586 21.163 15.6888 21.3574 15.555 21.5045C15.4212 21.6517 15.2344 21.7397 15.0356 21.7492C14.8369 21.7587 14.6426 21.6888 14.4954 21.555L6.24543 14.055C6.13342 13.9532 6.05485 13.8198 6.02005 13.6725C5.98524 13.5252 5.99583 13.3708 6.05042 13.2296C6.10501 13.0884 6.20105 12.967 6.32591 12.8814C6.45076 12.7958 6.5986 12.75 6.74998 12.75H10.125C11.2186 12.7488 12.2671 12.3138 13.0404 11.5405C13.8137 10.7671 14.2487 9.71864 14.25 8.625C14.25 8.49852 14.2433 8.3736 14.2322 8.25H6.74998C6.55107 8.25 6.3603 8.17098 6.21965 8.03033C6.079 7.88968 5.99998 7.69891 5.99998 7.5C5.99998 7.30109 6.079 7.11032 6.21965 6.96967C6.3603 6.82902 6.55107 6.75 6.74998 6.75H13.7973C13.4516 6.07331 12.9258 5.50518 12.2778 5.10818C11.6298 4.71119 10.8849 4.50073 10.125 4.5H6.74998C6.55107 4.5 6.3603 4.42098 6.21965 4.28033C6.079 4.13968 5.99998 3.94891 5.99998 3.75C5.99998 3.55109 6.079 3.36032 6.21965 3.21967C6.3603 3.07902 6.55107 3 6.74998 3H18.75C18.9489 3 19.1397 3.07902 19.2803 3.21967C19.421 3.36032 19.5 3.55109 19.5 3.75C19.5 3.94891 19.421 4.13968 19.2803 4.28033C19.1397 4.42098 18.9489 4.5 18.75 4.5H13.9439C14.613 5.11909 15.122 5.89113 15.4274 6.75H18.75C18.9489 6.75001 19.1396 6.82903 19.2803 6.96968C19.4209 7.11033 19.5 7.30109 19.5 7.5Z" fill="#1D1F21" style="fill: var(--ui-icon-primary-color);"/>
</svg>
