<svg  viewBox="0 0 24 24" fill="none" xmlns="http://www.w3.org/2000/svg" id="__THIS_ID_NEEDS_FOR_UI_ICON_COMPONENT__">
<path d="M22.5 13.5H19.8174L20.4267 12H22.5C22.6989 12 22.8897 11.921 23.0303 11.7803C23.171 11.6397 23.25 11.4489 23.25 11.25C23.25 11.0511 23.171 10.8603 23.0303 10.7197C22.8897 10.579 22.6989 10.5 22.5 10.5H21.0361L22.4449 7.03226C22.5195 6.84801 22.5179 6.64168 22.4405 6.45859C22.3631 6.27551 22.2161 6.13065 22.032 6.05584C21.8478 5.98103 21.6415 5.9824 21.4583 6.05963C21.2751 6.13687 21.1301 6.28365 21.0551 6.46774L19.417 10.5H14.333L12.6949 6.46774C12.6387 6.3295 12.5426 6.21115 12.4188 6.12783C12.295 6.04451 12.1492 6 12 6C11.8508 6 11.705 6.04451 11.5812 6.12783C11.4574 6.21115 11.3613 6.3295 11.3051 6.46774L9.66701 10.5H4.58299L2.94489 6.46774C2.86988 6.28365 2.72487 6.13687 2.54171 6.05963C2.35854 5.9824 2.15221 5.98103 1.96804 6.05584C1.78387 6.13065 1.63693 6.27551 1.5595 6.45859C1.48208 6.64168 1.4805 6.84801 1.55511 7.03226L2.96388 10.5H1.5C1.30109 10.5 1.11032 10.579 0.96967 10.7197C0.829018 10.8603 0.75 11.0511 0.75 11.25C0.75 11.4489 0.829018 11.6397 0.96967 11.7803C1.11032 11.921 1.30109 12 1.5 12H3.57326L4.18263 13.5H1.5C1.30109 13.5 1.11032 13.579 0.96967 13.7197C0.829018 13.8603 0.75 14.0511 0.75 14.25C0.75 14.4489 0.829018 14.6397 0.96967 14.7803C1.11032 14.921 1.30109 15 1.5 15H4.79201L6.43011 19.0323C6.48628 19.1705 6.58239 19.2889 6.70618 19.3722C6.82996 19.4555 6.97579 19.5 7.125 19.5C7.27421 19.5 7.42004 19.4555 7.54382 19.3722C7.66761 19.2889 7.76372 19.1705 7.81989 19.0323L9.45799 15H14.542L16.1801 19.0323C16.2363 19.1705 16.3324 19.2889 16.4562 19.3722C16.58 19.4555 16.7258 19.5 16.875 19.5C17.0242 19.5 17.17 19.4555 17.2938 19.3722C17.4176 19.2889 17.5137 19.1705 17.5699 19.0323L19.208 15H22.5C22.6989 15 22.8897 14.921 23.0303 14.7803C23.171 14.6397 23.25 14.4489 23.25 14.25C23.25 14.0511 23.171 13.8603 23.0303 13.7197C22.8897 13.579 22.6989 13.5 22.5 13.5ZM18.8077 12L18.1983 13.5H15.5517L14.9423 12H18.8077ZM12 8.74265L12.7139 10.5H11.2861L12 8.74265ZM5.19232 12H9.05768L8.4483 13.5H5.8017L5.19232 12ZM7.125 16.7574L6.41107 15H7.83893L7.125 16.7574ZM10.0673 13.5L10.6767 12H13.3233L13.9327 13.5H10.0673ZM16.875 16.7574L16.1611 15H17.5889L16.875 16.7574Z" fill="#1D1F21" style="fill: var(--ui-icon-primary-color);"/>
</svg>
