<svg  viewBox="0 0 24 24" fill="none" xmlns="http://www.w3.org/2000/svg" id="__THIS_ID_NEEDS_FOR_UI_ICON_COMPONENT__">
<path d="M12 2.25C6.95325 2.25 3 4.55608 3 7.5V16.5C3 19.4439 6.95325 21.75 12 21.75C17.0468 21.75 21 19.4439 21 16.5V7.5C21 4.55608 17.0468 2.25 12 2.25ZM19.5 12C19.5 12.9016 18.7617 13.8214 17.4745 14.5236C16.0245 15.3144 14.0803 15.75 12 15.75C9.91969 15.75 7.97548 15.3144 6.52551 14.5236C5.23828 13.8214 4.5 12.9016 4.5 12V10.4397C6.09937 11.8426 8.83444 12.75 12 12.75C15.1656 12.75 17.9006 11.8426 19.5 10.4397V12ZM17.4745 19.0236C16.0245 19.8144 14.0804 20.25 12 20.25C9.91965 20.25 7.97548 19.8144 6.52551 19.0236C5.23828 18.3214 4.5 17.4016 4.5 16.5V14.9397C6.09937 16.3426 8.83444 17.25 12 17.25C15.1656 17.25 17.9006 16.3426 19.5 14.9397V16.5C19.5 17.4016 18.7617 18.3214 17.4745 19.0236Z" fill="#1D1F21" style="fill: var(--ui-icon-primary-color);"/>
</svg>
