<svg  viewBox="0 0 24 24" fill="none" xmlns="http://www.w3.org/2000/svg" id="__THIS_ID_NEEDS_FOR_UI_ICON_COMPONENT__">
<path d="M11.25 7.5V17.25C11.25 17.4489 11.171 17.6397 11.0303 17.7803C10.8897 17.921 10.6989 18 10.5 18H9V19.5H10.5C10.6989 19.5 10.8897 19.579 11.0303 19.7197C11.171 19.8603 11.25 20.0511 11.25 20.25C11.25 20.4489 11.171 20.6397 11.0303 20.7803C10.8897 20.921 10.6989 21 10.5 21H6C5.80109 21 5.61032 20.921 5.46967 20.7803C5.32902 20.6397 5.25 20.4489 5.25 20.25C5.25 20.0511 5.32902 19.8603 5.46967 19.7197C5.61032 19.579 5.80109 19.5 6 19.5H7.5V18H3C2.40347 17.9993 1.83157 17.762 1.40976 17.3402C0.987954 16.9184 0.750682 16.3465 0.75 15.75V9C0.750682 8.40347 0.987954 7.83157 1.40976 7.40976C1.83157 6.98795 2.40347 6.75068 3 6.75H10.5C10.6989 6.75 10.8897 6.82902 11.0303 6.96967C11.171 7.11032 11.25 7.30109 11.25 7.5ZM23.25 4.5V19.5C23.2495 19.8977 23.0914 20.279 22.8102 20.5602C22.529 20.8414 22.1477 20.9995 21.75 21H14.25C13.8523 20.9995 13.471 20.8414 13.1898 20.5602C12.9086 20.279 12.7505 19.8977 12.75 19.5V4.5C12.7505 4.10231 12.9086 3.72105 13.1898 3.43984C13.471 3.15864 13.8523 3.00045 14.25 3H21.75C22.1477 3.00045 22.529 3.15864 22.8102 3.43984C23.0914 3.72105 23.2495 4.10231 23.25 4.5ZM19.125 16.875C19.125 16.6525 19.059 16.435 18.9354 16.25C18.8118 16.065 18.6361 15.9208 18.4305 15.8356C18.225 15.7505 17.9988 15.7282 17.7805 15.7716C17.5623 15.815 17.3618 15.9222 17.2045 16.0795C17.0472 16.2368 16.94 16.4373 16.8966 16.6555C16.8532 16.8738 16.8755 17.1 16.9606 17.3055C17.0458 17.5111 17.19 17.6868 17.375 17.8104C17.56 17.934 17.7775 18 18 18C18.2983 17.9997 18.5842 17.881 18.7951 17.6701C19.006 17.4592 19.1247 17.1733 19.125 16.875ZM21 9.75C21 9.55109 20.921 9.36032 20.7803 9.21967C20.6397 9.07902 20.4489 9 20.25 9H15.75C15.5511 9 15.3603 9.07902 15.2197 9.21967C15.079 9.36032 15 9.55109 15 9.75C15 9.94891 15.079 10.1397 15.2197 10.2803C15.3603 10.421 15.5511 10.5 15.75 10.5H20.25C20.4489 10.5 20.6397 10.421 20.7803 10.2803C20.921 10.1397 21 9.94891 21 9.75ZM21 6.75C21 6.55109 20.921 6.36032 20.7803 6.21967C20.6397 6.07902 20.4489 6 20.25 6H15.75C15.5511 6 15.3603 6.07902 15.2197 6.21967C15.079 6.36032 15 6.55109 15 6.75C15 6.94891 15.079 7.13968 15.2197 7.28033C15.3603 7.42098 15.5511 7.5 15.75 7.5H20.25C20.4489 7.5 20.6397 7.42098 20.7803 7.28033C20.921 7.13968 21 6.94891 21 6.75Z" fill="#1D1F21" style="fill: var(--ui-icon-primary-color);"/>
</svg>
