<svg  viewBox="0 0 24 24" fill="none" xmlns="http://www.w3.org/2000/svg" id="__THIS_ID_NEEDS_FOR_UI_ICON_COMPONENT__">
<path d="M16.5 1.5H7.5C6.90347 1.50068 6.33157 1.73795 5.90976 2.15976C5.48795 2.58157 5.25068 3.15347 5.25 3.75V20.25C5.25068 20.8465 5.48795 21.4184 5.90976 21.8402C6.33157 22.262 6.90347 22.4993 7.5 22.5H16.5C17.0965 22.4993 17.6684 22.262 18.0902 21.8402C18.512 21.4184 18.7493 20.8465 18.75 20.25V3.75C18.7493 3.15347 18.512 2.58157 18.0902 2.15976C17.6684 1.73795 17.0965 1.50068 16.5 1.5ZM7.5 3H16.5C16.6988 3.00023 16.8895 3.07932 17.0301 3.21992C17.1707 3.36052 17.2498 3.55116 17.25 3.75V4.5H6.75V3.75C6.75023 3.55116 6.82932 3.36052 6.96992 3.21992C7.11052 3.07932 7.30116 3.00023 7.5 3ZM16.5 21H7.5C7.30116 20.9998 7.11052 20.9207 6.96992 20.7801C6.82932 20.6395 6.75023 20.4488 6.75 20.25V19.5H17.25V20.25C17.2498 20.4488 17.1707 20.6395 17.0301 20.7801C16.8895 20.9207 16.6988 20.9998 16.5 21Z" fill="#1D1F21" style="fill: var(--ui-icon-primary-color);"/>
</svg>
