<svg  viewBox="0 0 24 24" fill="none" xmlns="http://www.w3.org/2000/svg" id="__THIS_ID_NEEDS_FOR_UI_ICON_COMPONENT__">
<path d="M16.5 1.5H7.5C6.90347 1.50068 6.33157 1.73795 5.90976 2.15976C5.48795 2.58157 5.25068 3.15347 5.25 3.75V20.25C5.25068 20.8465 5.48795 21.4184 5.90976 21.8402C6.33157 22.262 6.90347 22.4993 7.5 22.5H16.5C17.0965 22.4993 17.6684 22.262 18.0902 21.8402C18.512 21.4184 18.7493 20.8465 18.75 20.25V3.75C18.7493 3.15347 18.512 2.58157 18.0902 2.15976C17.6684 1.73795 17.0965 1.50068 16.5 1.5ZM15 6H9C8.80109 6 8.61032 5.92098 8.46967 5.78033C8.32902 5.63968 8.25 5.44891 8.25 5.25C8.25 5.05109 8.32902 4.86032 8.46967 4.71967C8.61032 4.57902 8.80109 4.5 9 4.5H15C15.1989 4.5 15.3897 4.57902 15.5303 4.71967C15.671 4.86032 15.75 5.05109 15.75 5.25C15.75 5.44891 15.671 5.63968 15.5303 5.78033C15.3897 5.92098 15.1989 6 15 6Z" fill="#1D1F21" style="fill: var(--ui-icon-primary-color);"/>
</svg>
