<svg  viewBox="0 0 24 24" fill="none" xmlns="http://www.w3.org/2000/svg" id="__THIS_ID_NEEDS_FOR_UI_ICON_COMPONENT__">
<path d="M18 2.25H6C5.40347 2.25068 4.83157 2.48795 4.40976 2.90976C3.98795 3.33157 3.75068 3.90347 3.75 4.5V19.5C3.75068 20.0965 3.98795 20.6684 4.40976 21.0902C4.83157 21.512 5.40347 21.7493 6 21.75H18C18.5965 21.7493 19.1684 21.512 19.5902 21.0902C20.012 20.6684 20.2493 20.0965 20.25 19.5V4.5C20.2493 3.90347 20.012 3.33157 19.5902 2.90976C19.1684 2.48795 18.5965 2.25068 18 2.25ZM15 6.75H9C8.80109 6.75 8.61032 6.67098 8.46967 6.53033C8.32902 6.38968 8.25 6.19891 8.25 6C8.25 5.80109 8.32902 5.61032 8.46967 5.46967C8.61032 5.32902 8.80109 5.25 9 5.25H15C15.1989 5.25 15.3897 5.32902 15.5303 5.46967C15.671 5.61032 15.75 5.80109 15.75 6C15.75 6.19891 15.671 6.38968 15.5303 6.53033C15.3897 6.67098 15.1989 6.75 15 6.75Z" fill="#1D1F21" style="fill: var(--ui-icon-primary-color);"/>
</svg>
