<svg  viewBox="0 0 24 24" fill="none" xmlns="http://www.w3.org/2000/svg" id="__THIS_ID_NEEDS_FOR_UI_ICON_COMPONENT__">
<path d="M18 3H6C5.20463 3.00091 4.4421 3.31727 3.87968 3.87968C3.31727 4.4421 3.00091 5.20463 3 6V18C3.00091 18.7954 3.31727 19.5579 3.87968 20.1203C4.4421 20.6827 5.20463 20.9991 6 21H18C18.7954 20.9991 19.5579 20.6827 20.1203 20.1203C20.6827 19.5579 20.9991 18.7954 21 18V6C20.9991 5.20463 20.6827 4.4421 20.1203 3.87968C19.5579 3.31727 18.7954 3.00091 18 3ZM8.625 17.25C8.4025 17.25 8.18499 17.184 7.99998 17.0604C7.81498 16.9368 7.67078 16.7611 7.58564 16.5555C7.50049 16.35 7.47821 16.1238 7.52162 15.9055C7.56502 15.6873 7.67217 15.4868 7.8295 15.3295C7.98684 15.1722 8.18729 15.065 8.40552 15.0216C8.62375 14.9782 8.84995 15.0005 9.05552 15.0856C9.26109 15.1708 9.43679 15.315 9.5604 15.5C9.68402 15.685 9.75 15.9025 9.75 16.125C9.75 16.4234 9.63147 16.7095 9.4205 16.9205C9.20952 17.1315 8.92337 17.25 8.625 17.25ZM8.625 13.125C8.4025 13.125 8.18499 13.059 7.99998 12.9354C7.81498 12.8118 7.67078 12.6361 7.58564 12.4305C7.50049 12.225 7.47821 11.9988 7.52162 11.7805C7.56502 11.5623 7.67217 11.3618 7.8295 11.2045C7.98684 11.0472 8.18729 10.94 8.40552 10.8966C8.62375 10.8532 8.84995 10.8755 9.05552 10.9606C9.26109 11.0458 9.43679 11.19 9.5604 11.375C9.68402 11.56 9.75 11.7775 9.75 12C9.75 12.2984 9.63147 12.5845 9.4205 12.7955C9.20952 13.0065 8.92337 13.125 8.625 13.125ZM8.625 9C8.4025 9 8.18499 8.93402 7.99998 8.8104C7.81498 8.68679 7.67078 8.51109 7.58564 8.30552C7.50049 8.09995 7.47821 7.87375 7.52162 7.65552C7.56502 7.43729 7.67217 7.23684 7.8295 7.0795C7.98684 6.92217 8.18729 6.81502 8.40552 6.77162C8.62375 6.72821 8.84995 6.75049 9.05552 6.83564C9.26109 6.92078 9.43679 7.06498 9.5604 7.24998C9.68402 7.43499 9.75 7.6525 9.75 7.875C9.75 8.17337 9.63147 8.45952 9.4205 8.6705C9.20952 8.88147 8.92337 9 8.625 9ZM15.375 17.25C15.1525 17.25 14.935 17.184 14.75 17.0604C14.565 16.9368 14.4208 16.7611 14.3356 16.5555C14.2505 16.35 14.2282 16.1238 14.2716 15.9055C14.315 15.6873 14.4222 15.4868 14.5795 15.3295C14.7368 15.1722 14.9373 15.065 15.1555 15.0216C15.3738 14.9782 15.6 15.0005 15.8055 15.0856C16.0111 15.1708 16.1868 15.315 16.3104 15.5C16.434 15.685 16.5 15.9025 16.5 16.125C16.5 16.4234 16.3815 16.7095 16.1705 16.9205C15.9595 17.1315 15.6734 17.25 15.375 17.25ZM15.375 13.125C15.1525 13.125 14.935 13.059 14.75 12.9354C14.565 12.8118 14.4208 12.6361 14.3356 12.4305C14.2505 12.225 14.2282 11.9988 14.2716 11.7805C14.315 11.5623 14.4222 11.3618 14.5795 11.2045C14.7368 11.0472 14.9373 10.94 15.1555 10.8966C15.3738 10.8532 15.6 10.8755 15.8055 10.9606C16.0111 11.0458 16.1868 11.19 16.3104 11.375C16.434 11.56 16.5 11.7775 16.5 12C16.5 12.2984 16.3815 12.5845 16.1705 12.7955C15.9595 13.0065 15.6734 13.125 15.375 13.125ZM15.375 9C15.1525 9 14.935 8.93402 14.75 8.8104C14.565 8.68679 14.4208 8.51109 14.3356 8.30552C14.2505 8.09995 14.2282 7.87375 14.2716 7.65552C14.315 7.43729 14.4222 7.23684 14.5795 7.0795C14.7368 6.92217 14.9373 6.81502 15.1555 6.77162C15.3738 6.72821 15.6 6.75049 15.8055 6.83564C16.0111 6.92078 16.1868 7.06498 16.3104 7.24998C16.434 7.43499 16.5 7.6525 16.5 7.875C16.5 8.17337 16.3815 8.45952 16.1705 8.6705C15.9595 8.88147 15.6734 9 15.375 9Z" fill="#1D1F21" style="fill: var(--ui-icon-primary-color);"/>
</svg>
