<svg  viewBox="0 0 24 24" fill="none" xmlns="http://www.w3.org/2000/svg" id="__THIS_ID_NEEDS_FOR_UI_ICON_COMPONENT__">
<path d="M18 3H6C5.20463 3.00091 4.4421 3.31727 3.87968 3.87968C3.31727 4.4421 3.00091 5.20463 3 6V18C3.00091 18.7954 3.31727 19.5579 3.87968 20.1203C4.4421 20.6827 5.20463 20.9991 6 21H18C18.7954 20.9991 19.5579 20.6827 20.1203 20.1203C20.6827 19.5579 20.9991 18.7954 21 18V6C20.9991 5.20463 20.6827 4.4421 20.1203 3.87968C19.5579 3.31727 18.7954 3.00091 18 3ZM9.375 15.75C9.1525 15.75 8.93499 15.684 8.74998 15.5604C8.56498 15.4368 8.42078 15.2611 8.33564 15.0555C8.25049 14.85 8.22821 14.6238 8.27162 14.4055C8.31502 14.1873 8.42217 13.9868 8.5795 13.8295C8.73684 13.6722 8.93729 13.565 9.15552 13.5216C9.37375 13.4782 9.59995 13.5005 9.80552 13.5856C10.0111 13.6708 10.1868 13.815 10.3104 14C10.434 14.185 10.5 14.4025 10.5 14.625C10.5 14.9234 10.3815 15.2095 10.1705 15.4205C9.95952 15.6315 9.67337 15.75 9.375 15.75ZM9.375 10.5C9.1525 10.5 8.93499 10.434 8.74998 10.3104C8.56498 10.1868 8.42078 10.0111 8.33564 9.80552C8.25049 9.59995 8.22821 9.37375 8.27162 9.15552C8.31502 8.93729 8.42217 8.73684 8.5795 8.5795C8.73684 8.42217 8.93729 8.31502 9.15552 8.27162C9.37375 8.22821 9.59995 8.25049 9.80552 8.33564C10.0111 8.42078 10.1868 8.56498 10.3104 8.74998C10.434 8.93499 10.5 9.1525 10.5 9.375C10.5 9.67337 10.3815 9.95952 10.1705 10.1705C9.95952 10.3815 9.67337 10.5 9.375 10.5ZM14.625 15.75C14.4025 15.75 14.185 15.684 14 15.5604C13.815 15.4368 13.6708 15.2611 13.5856 15.0555C13.5005 14.85 13.4782 14.6238 13.5216 14.4055C13.565 14.1873 13.6722 13.9868 13.8295 13.8295C13.9868 13.6722 14.1873 13.565 14.4055 13.5216C14.6238 13.4782 14.85 13.5005 15.0555 13.5856C15.2611 13.6708 15.4368 13.815 15.5604 14C15.684 14.185 15.75 14.4025 15.75 14.625C15.75 14.9234 15.6315 15.2095 15.4205 15.4205C15.2095 15.6315 14.9234 15.75 14.625 15.75ZM14.625 10.5C14.4025 10.5 14.185 10.434 14 10.3104C13.815 10.1868 13.6708 10.0111 13.5856 9.80552C13.5005 9.59995 13.4782 9.37375 13.5216 9.15552C13.565 8.93729 13.6722 8.73684 13.8295 8.5795C13.9868 8.42217 14.1873 8.31502 14.4055 8.27162C14.6238 8.22821 14.85 8.25049 15.0555 8.33564C15.2611 8.42078 15.4368 8.56498 15.5604 8.74998C15.684 8.93499 15.75 9.1525 15.75 9.375C15.75 9.67337 15.6315 9.95952 15.4205 10.1705C15.2095 10.3815 14.9234 10.5 14.625 10.5Z" fill="#1D1F21" style="fill: var(--ui-icon-primary-color);"/>
</svg>
