<svg  viewBox="0 0 24 24" fill="none" xmlns="http://www.w3.org/2000/svg" id="__THIS_ID_NEEDS_FOR_UI_ICON_COMPONENT__">
<path d="M18 3H6C5.20463 3.00091 4.4421 3.31727 3.87968 3.87968C3.31727 4.4421 3.00091 5.20463 3 6V18C3.00091 18.7954 3.31727 19.5579 3.87968 20.1203C4.4421 20.6827 5.20463 20.9991 6 21H18C18.7954 20.9991 19.5579 20.6827 20.1203 20.1203C20.6827 19.5579 20.9991 18.7954 21 18V6C20.9991 5.20463 20.6827 4.4421 20.1203 3.87968C19.5579 3.31727 18.7954 3.00091 18 3ZM10.125 11.25C9.9025 11.25 9.68499 11.184 9.49998 11.0604C9.31498 10.9368 9.17078 10.7611 9.08564 10.5555C9.00049 10.35 8.97821 10.1238 9.02162 9.90552C9.06502 9.68729 9.17217 9.48684 9.3295 9.3295C9.48684 9.17217 9.68729 9.06502 9.90552 9.02162C10.1238 8.97821 10.35 9.00049 10.5555 9.08564C10.7611 9.17078 10.9368 9.31498 11.0604 9.49998C11.184 9.68499 11.25 9.9025 11.25 10.125C11.25 10.4234 11.1315 10.7095 10.9205 10.9205C10.7095 11.1315 10.4234 11.25 10.125 11.25ZM13.875 15C13.6525 15 13.435 14.934 13.25 14.8104C13.065 14.6868 12.9208 14.5111 12.8356 14.3055C12.7505 14.1 12.7282 13.8738 12.7716 13.6555C12.815 13.4373 12.9222 13.2368 13.0795 13.0795C13.2368 12.9222 13.4373 12.815 13.6555 12.7716C13.8738 12.7282 14.1 12.7505 14.3055 12.8356C14.5111 12.9208 14.6868 13.065 14.8104 13.25C14.934 13.435 15 13.6525 15 13.875C15 14.1734 14.8815 14.4595 14.6705 14.6705C14.4595 14.8815 14.1734 15 13.875 15Z" fill="#1D1F21" style="fill: var(--ui-icon-primary-color);"/>
</svg>
