<svg  viewBox="0 0 24 24" fill="none" xmlns="http://www.w3.org/2000/svg" id="__THIS_ID_NEEDS_FOR_UI_ICON_COMPONENT__">
<path d="M18 3H6C5.20463 3.00091 4.4421 3.31727 3.87968 3.87968C3.31727 4.4421 3.00091 5.20463 3 6V18C3.00091 18.7954 3.31727 19.5579 3.87968 20.1203C4.4421 20.6827 5.20463 20.9991 6 21H18C18.7954 20.9991 19.5579 20.6827 20.1203 20.1203C20.6827 19.5579 20.9991 18.7954 21 18V6C20.9991 5.20463 20.6827 4.4421 20.1203 3.87968C19.5579 3.31727 18.7954 3.00091 18 3ZM8.625 16.5C8.4025 16.5 8.18499 16.434 7.99998 16.3104C7.81498 16.1868 7.67078 16.0111 7.58564 15.8055C7.50049 15.6 7.47821 15.3738 7.52162 15.1555C7.56502 14.9373 7.67217 14.7368 7.8295 14.5795C7.98684 14.4222 8.18729 14.315 8.40552 14.2716C8.62375 14.2282 8.84995 14.2505 9.05552 14.3356C9.26109 14.4208 9.43679 14.565 9.5604 14.75C9.68402 14.935 9.75 15.1525 9.75 15.375C9.75 15.6734 9.63147 15.9595 9.4205 16.1705C9.20952 16.3815 8.92337 16.5 8.625 16.5ZM8.625 9.75C8.4025 9.75 8.18499 9.68402 7.99998 9.5604C7.81498 9.43679 7.67078 9.26109 7.58564 9.05552C7.50049 8.84995 7.47821 8.62375 7.52162 8.40552C7.56502 8.18729 7.67217 7.98684 7.8295 7.8295C7.98684 7.67217 8.18729 7.56502 8.40552 7.52162C8.62375 7.47821 8.84995 7.50049 9.05552 7.58564C9.26109 7.67078 9.43679 7.81498 9.5604 7.99998C9.68402 8.18499 9.75 8.4025 9.75 8.625C9.75 8.92337 9.63147 9.20952 9.4205 9.4205C9.20952 9.63147 8.92337 9.75 8.625 9.75ZM12 13.125C11.7775 13.125 11.56 13.059 11.375 12.9354C11.19 12.8118 11.0458 12.6361 10.9606 12.4305C10.8755 12.225 10.8532 11.9988 10.8966 11.7805C10.94 11.5623 11.0472 11.3618 11.2045 11.2045C11.3618 11.0472 11.5623 10.94 11.7805 10.8966C11.9988 10.8532 12.225 10.8755 12.4305 10.9606C12.6361 11.0458 12.8118 11.19 12.9354 11.375C13.059 11.56 13.125 11.7775 13.125 12C13.125 12.2984 13.0065 12.5845 12.7955 12.7955C12.5845 13.0065 12.2984 13.125 12 13.125ZM15.375 16.5C15.1525 16.5 14.935 16.434 14.75 16.3104C14.565 16.1868 14.4208 16.0111 14.3356 15.8055C14.2505 15.6 14.2282 15.3738 14.2716 15.1555C14.315 14.9373 14.4222 14.7368 14.5795 14.5795C14.7368 14.4222 14.9373 14.315 15.1555 14.2716C15.3738 14.2282 15.6 14.2505 15.8055 14.3356C16.0111 14.4208 16.1868 14.565 16.3104 14.75C16.434 14.935 16.5 15.1525 16.5 15.375C16.5 15.6734 16.3815 15.9595 16.1705 16.1705C15.9595 16.3815 15.6734 16.5 15.375 16.5ZM15.375 9.75C15.1525 9.75 14.935 9.68402 14.75 9.5604C14.565 9.43679 14.4208 9.26109 14.3356 9.05552C14.2505 8.84995 14.2282 8.62375 14.2716 8.40552C14.315 8.18729 14.4222 7.98684 14.5795 7.8295C14.7368 7.67217 14.9373 7.56502 15.1555 7.52162C15.3738 7.47821 15.6 7.50049 15.8055 7.58564C16.0111 7.67078 16.1868 7.81498 16.3104 7.99998C16.434 8.18499 16.5 8.4025 16.5 8.625C16.5 8.92337 16.3815 9.20952 16.1705 9.4205C15.9595 9.63147 15.6734 9.75 15.375 9.75Z" fill="#1D1F21" style="fill: var(--ui-icon-primary-color);"/>
</svg>
