<svg  viewBox="0 0 24 24" fill="none" xmlns="http://www.w3.org/2000/svg" id="__THIS_ID_NEEDS_FOR_UI_ICON_COMPONENT__">
<path d="M18 3H6C5.20463 3.00091 4.4421 3.31727 3.87968 3.87968C3.31727 4.4421 3.00091 5.20463 3 6V18C3.00091 18.7954 3.31727 19.5579 3.87968 20.1203C4.4421 20.6827 5.20463 20.9991 6 21H18C18.7954 20.9991 19.5579 20.6827 20.1203 20.1203C20.6827 19.5579 20.9991 18.7954 21 18V6C20.9991 5.20463 20.6827 4.4421 20.1203 3.87968C19.5579 3.31727 18.7954 3.00091 18 3ZM12 13.125C11.7775 13.125 11.56 13.059 11.375 12.9354C11.19 12.8118 11.0458 12.6361 10.9606 12.4305C10.8755 12.225 10.8532 11.9988 10.8966 11.7805C10.94 11.5623 11.0472 11.3618 11.2045 11.2045C11.3618 11.0472 11.5623 10.94 11.7805 10.8966C11.9988 10.8532 12.225 10.8755 12.4305 10.9606C12.6361 11.0458 12.8118 11.19 12.9354 11.375C13.059 11.56 13.125 11.7775 13.125 12C13.125 12.2984 13.0065 12.5845 12.7955 12.7955C12.5845 13.0065 12.2984 13.125 12 13.125Z" fill="#1D1F21" style="fill: var(--ui-icon-primary-color);"/>
</svg>
