<svg  viewBox="0 0 24 24" fill="none" xmlns="http://www.w3.org/2000/svg" id="__THIS_ID_NEEDS_FOR_UI_ICON_COMPONENT__">
<path d="M18.9527 5.17212C18.9166 5.1255 18.8748 5.08367 18.8281 5.04763C16.9866 3.2393 14.5037 2.234 11.9228 2.25169C9.34183 2.26939 6.87298 3.30863 5.05635 5.14204C3.23973 6.97545 2.22325 9.45376 2.22931 12.0347C2.23536 14.6157 3.26345 17.0892 5.08865 18.9141C6.91386 20.739 9.38756 21.7666 11.9685 21.7722C14.5495 21.7778 17.0277 20.7609 18.8607 18.9439C20.6938 17.127 21.7326 14.6579 21.7498 12.077C21.7671 9.49607 20.7613 7.01338 18.9527 5.17212H18.9527ZM12.0001 14.2502C11.555 14.2502 11.12 14.1182 10.75 13.871C10.38 13.6237 10.0916 13.2723 9.92133 12.8612C9.75103 12.4501 9.70647 11.9977 9.79329 11.5612C9.88011 11.1248 10.0944 10.7238 10.4091 10.4092C10.7237 10.0945 11.1246 9.88022 11.5611 9.7934C11.9976 9.70658 12.45 9.75114 12.8611 9.92144C13.2722 10.0917 13.6236 10.3801 13.8709 10.7501C14.1181 11.1201 14.2501 11.5552 14.2501 12.0002C14.2494 12.5967 14.0121 13.1686 13.5903 13.5904C13.1685 14.0122 12.5966 14.2495 12.0001 14.2502ZM15.6746 11.2502C15.5785 10.7802 15.3926 10.3332 15.1272 9.9337L18.3371 6.7238C19.4093 8.00626 20.0646 9.58537 20.2156 11.2502H15.6746Z" fill="#1D1F21" style="fill: var(--ui-icon-primary-color);"/>
</svg>
