<svg  viewBox="0 0 24 24" fill="none" xmlns="http://www.w3.org/2000/svg" id="__THIS_ID_NEEDS_FOR_UI_ICON_COMPONENT__">
<path d="M21 12C21 12.1989 20.921 12.3897 20.7803 12.5303C20.6397 12.671 20.4489 12.75 20.25 12.75H3.75C3.55109 12.75 3.36032 12.671 3.21967 12.5303C3.07902 12.3897 3 12.1989 3 12C3 11.8011 3.07902 11.6103 3.21967 11.4697C3.36032 11.329 3.55109 11.25 3.75 11.25H20.25C20.4489 11.25 20.6397 11.329 20.7803 11.4697C20.921 11.6103 21 11.8011 21 12ZM12 7.5C12.2967 7.5 12.5867 7.41203 12.8334 7.24721C13.08 7.08238 13.2723 6.84811 13.3858 6.57403C13.4994 6.29994 13.5291 5.99834 13.4712 5.70737C13.4133 5.41639 13.2704 5.14912 13.0607 4.93934C12.8509 4.72956 12.5836 4.5867 12.2926 4.52882C12.0017 4.47094 11.7001 4.50065 11.426 4.61418C11.1519 4.72771 10.9176 4.91997 10.7528 5.16665C10.588 5.41332 10.5 5.70333 10.5 6C10.5005 6.39769 10.6586 6.77895 10.9398 7.06016C11.221 7.34136 11.6023 7.49955 12 7.5ZM12 16.5C11.7033 16.5 11.4133 16.588 11.1666 16.7528C10.92 16.9176 10.7277 17.1519 10.6142 17.426C10.5006 17.7001 10.4709 18.0017 10.5288 18.2926C10.5867 18.5836 10.7296 18.8509 10.9393 19.0607C11.1491 19.2704 11.4164 19.4133 11.7074 19.4712C11.9983 19.5291 12.2999 19.4994 12.574 19.3858C12.8481 19.2723 13.0824 19.08 13.2472 18.8334C13.412 18.5867 13.5 18.2967 13.5 18C13.4995 17.6023 13.3414 17.221 13.0602 16.9398C12.779 16.6586 12.3977 16.5005 12 16.5Z" fill="#1D1F21" style="fill: var(--ui-icon-primary-color);"/>
</svg>
