<svg  viewBox="0 0 24 24" fill="none" xmlns="http://www.w3.org/2000/svg" id="__THIS_ID_NEEDS_FOR_UI_ICON_COMPONENT__">
<path d="M12 2.25C10.0716 2.25 8.18658 2.82183 6.5832 3.89317C4.97982 4.96451 3.73014 6.48726 2.99219 8.26884C2.25423 10.0504 2.06115 12.0108 2.43736 13.9021C2.81356 15.7934 3.74216 17.5307 5.10572 18.8943C6.46928 20.2579 8.20657 21.1865 10.0979 21.5627C11.9892 21.9389 13.9496 21.7458 15.7312 21.0078C17.5128 20.2699 19.0355 19.0202 20.1068 17.4168C21.1782 15.8134 21.75 13.9284 21.75 12C21.747 9.41506 20.7188 6.93684 18.891 5.10901C17.0632 3.28118 14.585 2.25299 12 2.25ZM12 17.625C11.7775 17.625 11.56 17.559 11.375 17.4354C11.19 17.3118 11.0458 17.1361 10.9606 16.9305C10.8755 16.725 10.8532 16.4988 10.8966 16.2805C10.94 16.0623 11.0472 15.8618 11.2045 15.7045C11.3619 15.5472 11.5623 15.44 11.7805 15.3966C11.9988 15.3532 12.225 15.3755 12.4305 15.4606C12.6361 15.5458 12.8118 15.69 12.9354 15.875C13.059 16.06 13.125 16.2775 13.125 16.5C13.125 16.7984 13.0065 17.0845 12.7955 17.2955C12.5845 17.5065 12.2984 17.625 12 17.625ZM12 13.125C11.7775 13.125 11.56 13.059 11.375 12.9354C11.19 12.8118 11.0458 12.6361 10.9606 12.4305C10.8755 12.225 10.8532 11.9988 10.8966 11.7805C10.94 11.5623 11.0472 11.3618 11.2045 11.2045C11.3619 11.0472 11.5623 10.94 11.7805 10.8966C11.9988 10.8532 12.225 10.8755 12.4305 10.9606C12.6361 11.0458 12.8118 11.19 12.9354 11.375C13.059 11.56 13.125 11.7775 13.125 12C13.125 12.2984 13.0065 12.5845 12.7955 12.7955C12.5845 13.0065 12.2984 13.125 12 13.125ZM12 8.625C11.7775 8.625 11.56 8.55902 11.375 8.4354C11.19 8.31179 11.0458 8.13609 10.9606 7.93052C10.8755 7.72495 10.8532 7.49875 10.8966 7.28052C10.94 7.06229 11.0472 6.86184 11.2045 6.7045C11.3619 6.54717 11.5623 6.44002 11.7805 6.39662C11.9988 6.35321 12.225 6.37549 12.4305 6.46064C12.6361 6.54578 12.8118 6.68998 12.9354 6.87498C13.059 7.05999 13.125 7.2775 13.125 7.5C13.125 7.79837 13.0065 8.08452 12.7955 8.2955C12.5845 8.50647 12.2984 8.625 12 8.625Z" fill="#1D1F21" style="fill: var(--ui-icon-primary-color);"/>
</svg>
