<svg  viewBox="0 0 24 24" fill="none" xmlns="http://www.w3.org/2000/svg" id="__THIS_ID_NEEDS_FOR_UI_ICON_COMPONENT__">
<path d="M10.875 6C10.875 5.7775 10.941 5.55999 11.0646 5.37498C11.1882 5.18998 11.3639 5.04578 11.5695 4.96064C11.775 4.87549 12.0012 4.85321 12.2195 4.89662C12.4377 4.94003 12.6382 5.04717 12.7955 5.20451C12.9528 5.36184 13.06 5.5623 13.1034 5.78052C13.1468 5.99875 13.1245 6.22495 13.0394 6.43052C12.9542 6.63609 12.81 6.81179 12.625 6.9354C12.44 7.05902 12.2225 7.125 12 7.125C11.7017 7.12466 11.4158 7.00602 11.2049 6.79512C10.994 6.58421 10.8753 6.29826 10.875 6ZM12 10.875C11.7775 10.875 11.56 10.941 11.375 11.0646C11.19 11.1882 11.0458 11.3639 10.9606 11.5695C10.8755 11.775 10.8532 12.0012 10.8966 12.2195C10.94 12.4377 11.0472 12.6382 11.2045 12.7955C11.3618 12.9528 11.5623 13.06 11.7805 13.1034C11.9988 13.1468 12.2249 13.1245 12.4305 13.0394C12.6361 12.9542 12.8118 12.81 12.9354 12.625C13.059 12.44 13.125 12.2225 13.125 12C13.1247 11.7017 13.006 11.4158 12.7951 11.2049C12.5842 10.994 12.2983 10.8753 12 10.875ZM12 16.875C11.7775 16.875 11.56 16.941 11.375 17.0646C11.19 17.1882 11.0458 17.3639 10.9606 17.5695C10.8755 17.775 10.8532 18.0012 10.8966 18.2195C10.94 18.4377 11.0472 18.6382 11.2045 18.7955C11.3618 18.9528 11.5623 19.06 11.7805 19.1034C11.9988 19.1468 12.2249 19.1245 12.4305 19.0394C12.6361 18.9542 12.8118 18.81 12.9354 18.625C13.059 18.44 13.125 18.2225 13.125 18C13.1247 17.7017 13.006 17.4158 12.7951 17.2049C12.5842 16.994 12.2983 16.8753 12 16.875Z" fill="#1D1F21" style="fill: var(--ui-icon-primary-color);"/>
</svg>
