<svg  viewBox="0 0 24 24" fill="none" xmlns="http://www.w3.org/2000/svg" id="__THIS_ID_NEEDS_FOR_UI_ICON_COMPONENT__">
<path d="M12 15C11.4066 15 10.8266 14.8241 10.3333 14.4944C9.83993 14.1648 9.45541 13.6962 9.22835 13.1481C9.00128 12.5999 8.94187 11.9967 9.05763 11.4147C9.17339 10.8328 9.45911 10.2982 9.87867 9.87868C10.2982 9.45912 10.8328 9.1734 11.4147 9.05765C11.9967 8.94189 12.5999 9.0013 13.148 9.22836C13.6962 9.45543 14.1648 9.83994 14.4944 10.3333C14.824 10.8266 15 11.4067 15 12C14.9992 12.7954 14.6829 13.558 14.1204 14.1205C13.558 14.6829 12.7954 14.9992 12 15ZM15 4.5C15 3.90666 14.824 3.32664 14.4944 2.83329C14.1648 2.33994 13.6962 1.95543 13.148 1.72836C12.5999 1.5013 11.9967 1.44189 11.4147 1.55765C10.8328 1.6734 10.2982 1.95912 9.87867 2.37868C9.45911 2.79824 9.17339 3.33279 9.05763 3.91473C8.94187 4.49667 9.00128 5.09987 9.22835 5.64805C9.45541 6.19623 9.83993 6.66477 10.3333 6.99441C10.8266 7.32405 11.4066 7.5 12 7.5C12.7954 7.49922 13.558 7.18289 14.1204 6.62045C14.6829 6.05802 14.9992 5.29541 15 4.5ZM15 19.5C15 18.9067 14.824 18.3266 14.4944 17.8333C14.1648 17.3399 13.6962 16.9554 13.148 16.7284C12.5999 16.5013 11.9967 16.4419 11.4147 16.5576C10.8328 16.6734 10.2982 16.9591 9.87867 17.3787C9.45911 17.7982 9.17339 18.3328 9.05763 18.9147C8.94187 19.4967 9.00128 20.0999 9.22835 20.6481C9.45541 21.1962 9.83993 21.6648 10.3333 21.9944C10.8266 22.3241 11.4066 22.5 12 22.5C12.7954 22.4992 13.558 22.1829 14.1204 21.6205C14.6829 21.058 14.9992 20.2954 15 19.5Z" fill="#1D1F21" style="fill: var(--ui-icon-primary-color);"/>
</svg>
