<svg  viewBox="0 0 24 24" fill="none" xmlns="http://www.w3.org/2000/svg" id="__THIS_ID_NEEDS_FOR_UI_ICON_COMPONENT__">
<path d="M5.625 4.5C5.4025 4.5 5.18499 4.56598 4.99998 4.6896C4.81498 4.81321 4.67078 4.98891 4.58564 5.19448C4.50049 5.40005 4.47821 5.62625 4.52162 5.84448C4.56503 6.06271 4.67217 6.26316 4.82951 6.4205C4.98684 6.57783 5.1873 6.68498 5.40552 6.72838C5.62375 6.77179 5.84995 6.74951 6.05552 6.66437C6.26109 6.57922 6.43679 6.43502 6.5604 6.25002C6.68402 6.06501 6.75 5.8475 6.75 5.625C6.74966 5.32674 6.63102 5.04079 6.42012 4.82988C6.20921 4.61898 5.92326 4.50034 5.625 4.5ZM12 4.5C11.7775 4.5 11.56 4.56598 11.375 4.6896C11.19 4.81321 11.0458 4.98891 10.9606 5.19448C10.8755 5.40005 10.8532 5.62625 10.8966 5.84448C10.94 6.06271 11.0472 6.26316 11.2045 6.4205C11.3618 6.57783 11.5623 6.68498 11.7805 6.72838C11.9988 6.77179 12.225 6.74951 12.4305 6.66437C12.6361 6.57922 12.8118 6.43502 12.9354 6.25002C13.059 6.06501 13.125 5.8475 13.125 5.625C13.1247 5.32674 13.006 5.04079 12.7951 4.82988C12.5842 4.61898 12.2983 4.50034 12 4.5ZM18.375 6.75C18.5975 6.75 18.815 6.68402 19 6.5604C19.185 6.43679 19.3292 6.26109 19.4144 6.05552C19.4995 5.84995 19.5218 5.62375 19.4784 5.40552C19.435 5.1873 19.3278 4.98684 19.1705 4.82951C19.0132 4.67217 18.8127 4.56503 18.5945 4.52162C18.3762 4.47821 18.15 4.50049 17.9445 4.58564C17.7389 4.67078 17.5632 4.81498 17.4396 4.99998C17.316 5.18499 17.25 5.4025 17.25 5.625C17.2503 5.92326 17.369 6.20921 17.5799 6.42012C17.7908 6.63102 18.0767 6.74966 18.375 6.75ZM5.625 17.25C5.4025 17.25 5.18499 17.316 4.99998 17.4396C4.81498 17.5632 4.67078 17.7389 4.58564 17.9445C4.50049 18.15 4.47821 18.3762 4.52162 18.5945C4.56503 18.8127 4.67217 19.0132 4.82951 19.1705C4.98684 19.3278 5.1873 19.435 5.40552 19.4784C5.62375 19.5218 5.84995 19.4995 6.05552 19.4144C6.26109 19.3292 6.43679 19.185 6.5604 19C6.68402 18.815 6.75 18.5975 6.75 18.375C6.74966 18.0767 6.63102 17.7908 6.42012 17.5799C6.20921 17.369 5.92326 17.2503 5.625 17.25ZM12 17.25C11.7775 17.25 11.56 17.316 11.375 17.4396C11.19 17.5632 11.0458 17.7389 10.9606 17.9445C10.8755 18.15 10.8532 18.3762 10.8966 18.5945C10.94 18.8127 11.0472 19.0132 11.2045 19.1705C11.3618 19.3278 11.5623 19.435 11.7805 19.4784C11.9988 19.5218 12.225 19.4995 12.4305 19.4144C12.6361 19.3292 12.8118 19.185 12.9354 19C13.059 18.815 13.125 18.5975 13.125 18.375C13.1247 18.0767 13.006 17.7908 12.7951 17.5799C12.5842 17.369 12.2983 17.2503 12 17.25ZM18.375 17.25C18.1525 17.25 17.935 17.316 17.75 17.4396C17.565 17.5632 17.4208 17.7389 17.3356 17.9445C17.2505 18.15 17.2282 18.3762 17.2716 18.5945C17.315 18.8127 17.4222 19.0132 17.5795 19.1705C17.7368 19.3278 17.9373 19.435 18.1555 19.4784C18.3738 19.5218 18.6 19.4995 18.8055 19.4144C19.0111 19.3292 19.1868 19.185 19.3104 19C19.434 18.815 19.5 18.5975 19.5 18.375C19.4997 18.0767 19.381 17.7908 19.1701 17.5799C18.9592 17.369 18.6733 17.2503 18.375 17.25ZM5.625 10.875C5.4025 10.875 5.18499 10.941 4.99998 11.0646C4.81498 11.1882 4.67078 11.3639 4.58564 11.5695C4.50049 11.775 4.47821 12.0012 4.52162 12.2195C4.56503 12.4377 4.67217 12.6382 4.82951 12.7955C4.98684 12.9528 5.1873 13.06 5.40552 13.1034C5.62375 13.1468 5.84995 13.1245 6.05552 13.0394C6.26109 12.9542 6.43679 12.81 6.5604 12.625C6.68402 12.44 6.75 12.2225 6.75 12C6.74966 11.7017 6.63102 11.4158 6.42012 11.2049C6.20921 10.994 5.92326 10.8753 5.625 10.875ZM12 10.875C11.7775 10.875 11.56 10.941 11.375 11.0646C11.19 11.1882 11.0458 11.3639 10.9606 11.5695C10.8755 11.775 10.8532 12.0012 10.8966 12.2195C10.94 12.4377 11.0472 12.6382 11.2045 12.7955C11.3618 12.9528 11.5623 13.06 11.7805 13.1034C11.9988 13.1468 12.225 13.1245 12.4305 13.0394C12.6361 12.9542 12.8118 12.81 12.9354 12.625C13.059 12.44 13.125 12.2225 13.125 12C13.1247 11.7017 13.006 11.4158 12.7951 11.2049C12.5842 10.994 12.2983 10.8753 12 10.875ZM18.375 10.875C18.1525 10.875 17.935 10.941 17.75 11.0646C17.565 11.1882 17.4208 11.3639 17.3356 11.5695C17.2505 11.775 17.2282 12.0012 17.2716 12.2195C17.315 12.4377 17.4222 12.6382 17.5795 12.7955C17.7368 12.9528 17.9373 13.06 18.1555 13.1034C18.3738 13.1468 18.6 13.1245 18.8055 13.0394C19.0111 12.9542 19.1868 12.81 19.3104 12.625C19.434 12.44 19.5 12.2225 19.5 12C19.4997 11.7017 19.381 11.4158 19.1701 11.2049C18.9592 10.994 18.6733 10.8753 18.375 10.875Z" fill="#1D1F21" style="fill: var(--ui-icon-primary-color);"/>
</svg>
