<svg  viewBox="0 0 24 24" fill="none" xmlns="http://www.w3.org/2000/svg" id="__THIS_ID_NEEDS_FOR_UI_ICON_COMPONENT__">
<path d="M15 12C15 12.5933 14.824 13.1734 14.4944 13.6667C14.1648 14.1601 13.6962 14.5446 13.148 14.7716C12.5999 14.9987 11.9967 15.0581 11.4147 14.9424C10.8328 14.8266 10.2982 14.5409 9.87867 14.1213C9.45911 13.7018 9.17339 13.1672 9.05763 12.5853C8.94187 12.0033 9.00128 11.4001 9.22835 10.8519C9.45541 10.3038 9.83993 9.83524 10.3333 9.50559C10.8266 9.17595 11.4066 9 12 9C12.7954 9.00079 13.558 9.31711 14.1204 9.87955C14.6829 10.442 14.9992 11.2046 15 12ZM4.49999 9C3.90664 9 3.32662 9.17595 2.83328 9.50559C2.33993 9.83524 1.95541 10.3038 1.72835 10.8519C1.50128 11.4001 1.44187 12.0033 1.55763 12.5853C1.67339 13.1672 1.95911 13.7018 2.37867 14.1213C2.79822 14.5409 3.33277 14.8266 3.91472 14.9424C4.49666 15.0581 5.09986 14.9987 5.64804 14.7716C6.19621 14.5446 6.66475 14.1601 6.99439 13.6667C7.32404 13.1734 7.49999 12.5933 7.49999 12C7.4992 11.2046 7.18288 10.442 6.62044 9.87955C6.058 9.31711 5.29539 9.00079 4.49999 9ZM19.5 9C18.9066 9 18.3266 9.17595 17.8333 9.50559C17.3399 9.83524 16.9554 10.3038 16.7283 10.8519C16.5013 11.4001 16.4419 12.0033 16.5576 12.5853C16.6734 13.1672 16.9591 13.7018 17.3787 14.1213C17.7982 14.5409 18.3328 14.8266 18.9147 14.9424C19.4967 15.0581 20.0999 14.9987 20.648 14.7716C21.1962 14.5446 21.6648 14.1601 21.9944 13.6667C22.324 13.1734 22.5 12.5933 22.5 12C22.4992 11.2046 22.1829 10.442 21.6204 9.87955C21.058 9.31711 20.2954 9.00079 19.5 9Z" fill="#1D1F21" style="fill: var(--ui-icon-primary-color);"/>
</svg>
