<svg  viewBox="0 0 24 24" fill="none" xmlns="http://www.w3.org/2000/svg" id="__THIS_ID_NEEDS_FOR_UI_ICON_COMPONENT__">
<path d="M6.96968 8.03036C6.90003 7.96072 6.84478 7.87804 6.80709 7.78705C6.76939 7.69605 6.74999 7.59853 6.74998 7.50003C6.74998 7.40154 6.76937 7.30401 6.80706 7.21301C6.84475 7.12201 6.89999 7.03933 6.96964 6.96968C7.03928 6.90003 7.12196 6.84478 7.21295 6.80709C7.30395 6.76939 7.40147 6.74999 7.49997 6.74998C7.59846 6.74998 7.69599 6.76937 7.78699 6.80706C7.87799 6.84475 7.96067 6.89999 8.03032 6.96964L11.25 10.1894V2.25C11.25 2.05109 11.329 1.86032 11.4697 1.71967C11.6103 1.57902 11.8011 1.5 12 1.5C12.1989 1.5 12.3897 1.57902 12.5303 1.71967C12.671 1.86032 12.75 2.05109 12.75 2.25V10.1894L15.9697 6.96964C16.0393 6.89999 16.122 6.84475 16.213 6.80706C16.304 6.76937 16.4015 6.74998 16.5 6.74998C16.5985 6.74999 16.6961 6.76939 16.787 6.80709C16.878 6.84478 16.9607 6.90003 17.0304 6.96968C17.1 7.03933 17.1553 7.12201 17.1929 7.21301C17.2306 7.30401 17.25 7.40154 17.25 7.50003C17.25 7.59853 17.2306 7.69605 17.1929 7.78705C17.1552 7.87804 17.1 7.96072 17.0303 8.03036L12.5303 12.5304C12.5282 12.5325 12.5257 12.5343 12.5236 12.5365C12.5081 12.5516 12.4922 12.5662 12.4755 12.5799C12.4664 12.5874 12.4567 12.594 12.4472 12.601C12.4371 12.6086 12.4271 12.6165 12.4165 12.6236C12.4056 12.6309 12.3943 12.6373 12.3831 12.6439C12.3733 12.6498 12.3637 12.6559 12.3536 12.6613C12.3423 12.6674 12.3307 12.6725 12.3192 12.6779C12.3085 12.683 12.298 12.6883 12.287 12.6929C12.2759 12.6974 12.2646 12.7012 12.2533 12.7052C12.2415 12.7094 12.2298 12.714 12.2177 12.7176C12.2065 12.721 12.1951 12.7235 12.1837 12.7264C12.1714 12.7295 12.1591 12.733 12.1465 12.7355C12.1334 12.7381 12.1203 12.7396 12.1071 12.7415C12.096 12.7431 12.0852 12.7452 12.074 12.7462C12.0494 12.7487 12.0247 12.75 12 12.75C11.9753 12.75 11.9506 12.7487 11.926 12.7462C11.9148 12.7452 11.904 12.7431 11.8929 12.7415C11.8797 12.7396 11.8666 12.7381 11.8535 12.7355C11.8409 12.733 11.8286 12.7295 11.8163 12.7264C11.8049 12.7235 11.7935 12.721 11.7823 12.7176C11.7702 12.714 11.7585 12.7094 11.7467 12.7052C11.7354 12.7012 11.7241 12.6974 11.713 12.6929C11.702 12.6883 11.6915 12.683 11.6808 12.6779C11.6693 12.6725 11.6577 12.6674 11.6464 12.6613C11.6363 12.6559 11.6267 12.6498 11.6169 12.6439C11.6057 12.6373 11.5944 12.6309 11.5835 12.6236C11.5729 12.6165 11.5629 12.6086 11.5528 12.601C11.5433 12.594 11.5336 12.5874 11.5245 12.5799C11.5081 12.5664 11.4925 12.552 11.4773 12.5372C11.4748 12.5349 11.4721 12.5328 11.4697 12.5304L6.96968 8.03036ZM22.5 12.75V18.75C22.4995 19.1477 22.3414 19.529 22.0602 19.8102C21.779 20.0914 21.3977 20.2495 21 20.25H3C2.60231 20.2495 2.22105 20.0914 1.93984 19.8102C1.65864 19.529 1.50045 19.1477 1.5 18.75V12.75C1.50045 12.3523 1.65864 11.971 1.93984 11.6898C2.22105 11.4086 2.60231 11.2505 3 11.25H8.06799L10.409 13.591C10.831 14.013 11.4033 14.25 12 14.25C12.5967 14.25 13.169 14.013 13.591 13.591L15.932 11.25H21C21.3977 11.2505 21.779 11.4086 22.0602 11.6898C22.3414 11.971 22.4995 12.3523 22.5 12.75ZM18.75 15.75C18.75 15.5275 18.6841 15.31 18.5604 15.125C18.4368 14.94 18.2611 14.7958 18.0556 14.7106C17.85 14.6255 17.6238 14.6032 17.4056 14.6466C17.1873 14.69 16.9869 14.7972 16.8296 14.9545C16.6722 15.1118 16.5651 15.3123 16.5217 15.5305C16.4783 15.7488 16.5005 15.975 16.5857 16.1805C16.6708 16.3861 16.815 16.5618 17 16.6854C17.185 16.809 17.4025 16.875 17.625 16.875C17.9234 16.875 18.2096 16.7565 18.4205 16.5455C18.6315 16.3345 18.75 16.0484 18.75 15.75Z" fill="#1D1F21" style="fill: var(--ui-icon-primary-color);"/>
</svg>
