<svg  viewBox="0 0 24 24" fill="none" xmlns="http://www.w3.org/2000/svg" id="__THIS_ID_NEEDS_FOR_UI_ICON_COMPONENT__">
<path d="M7.53218 10.8427C7.46253 10.773 7.40728 10.6904 7.36959 10.5994C7.33189 10.5084 7.31249 10.4108 7.31248 10.3123C7.31247 10.1134 7.39149 9.92266 7.53214 9.782C7.67278 9.64134 7.86355 9.56231 8.06247 9.5623C8.26138 9.56229 8.45216 9.6413 8.59282 9.78195L11.25 12.4392V3.74707C11.25 3.54816 11.329 3.35739 11.4697 3.21674C11.6103 3.07609 11.8011 2.99707 12 2.99707C12.1989 2.99707 12.3897 3.07609 12.5303 3.21674C12.671 3.35739 12.75 3.54816 12.75 3.74707V12.4392L15.4072 9.78195C15.4768 9.71231 15.5595 9.65707 15.6505 9.61938C15.7415 9.58169 15.839 9.5623 15.9375 9.5623C16.036 9.5623 16.1336 9.58171 16.2245 9.6194C16.3155 9.6571 16.3982 9.71235 16.4679 9.782C16.5375 9.85165 16.5928 9.93433 16.6304 10.0253C16.6681 10.1163 16.6875 10.2139 16.6875 10.3123C16.6875 10.4108 16.6681 10.5084 16.6304 10.5994C16.5927 10.6904 16.5375 10.773 16.4678 10.8427L12.5303 14.7802C12.3897 14.9208 12.1989 14.9998 12 14.9998C11.8011 14.9998 11.6103 14.9208 11.4697 14.7802L7.53218 10.8427ZM21 11.9998C20.8011 11.9998 20.6103 12.0788 20.4697 12.2195C20.329 12.3601 20.25 12.5509 20.25 12.7498V19.4998H3.75V12.7498C3.75 12.5509 3.67098 12.3601 3.53033 12.2195C3.38968 12.0788 3.19891 11.9998 3 11.9998C2.80109 11.9998 2.61032 12.0788 2.46967 12.2195C2.32902 12.3601 2.25 12.5509 2.25 12.7498V19.4998C2.25045 19.8975 2.40864 20.2788 2.68984 20.56C2.97105 20.8412 3.35231 20.9994 3.75 20.9998H20.25C20.6477 20.9994 21.029 20.8412 21.3102 20.56C21.5914 20.2788 21.7495 19.8975 21.75 19.4998V12.7498C21.75 12.5509 21.671 12.3601 21.5303 12.2195C21.3897 12.0788 21.1989 11.9998 21 11.9998Z" fill="#1D1F21" style="fill: var(--ui-icon-primary-color);"/>
</svg>
