<svg  viewBox="0 0 24 24" fill="none" xmlns="http://www.w3.org/2000/svg" id="__THIS_ID_NEEDS_FOR_UI_ICON_COMPONENT__">
<path d="M21.7503 12.0618C21.7504 12.0412 21.7511 12.0206 21.7511 12C21.7513 10.5529 21.4288 9.12391 20.8072 7.81709C20.1856 6.51027 19.2804 5.35848 18.1576 4.44553C18.1403 4.42841 18.1222 4.41189 18.103 4.39618C18.0818 4.37895 18.0596 4.36287 18.0366 4.34803C16.6056 3.21686 14.8857 2.51046 13.0727 2.30936C11.2598 2.10825 9.42685 2.42052 7.78278 3.21058C7.74118 3.22681 7.7011 3.24671 7.66303 3.27004C6.33203 3.93389 5.1699 4.89247 4.265 6.0729C3.36011 7.25334 2.73627 8.62455 2.44091 10.0823C2.44013 10.086 2.43894 10.0896 2.43821 10.0934C2.43752 10.097 2.43734 10.1006 2.4367 10.1041C2.08014 11.9047 2.23936 13.7694 2.89601 15.4835C3.55267 17.1976 4.68005 18.6915 6.14838 19.793C6.18606 19.828 6.22725 19.8592 6.27129 19.8858C6.27472 19.8879 6.27834 19.8892 6.28177 19.8912C7.55358 20.815 9.03017 21.4172 10.5853 21.6462C12.1405 21.8751 13.728 21.7242 15.2121 21.2061C15.2503 21.1959 15.2877 21.1827 15.3238 21.1666C17.1914 20.4869 18.8072 19.2537 19.9554 17.6316C21.1037 16.0094 21.7297 14.0756 21.75 12.0883C21.7501 12.0794 21.7504 12.0706 21.7503 12.0618ZM20.2181 11.2667C19.9792 11.256 19.7399 11.2498 19.5016 11.2498C18.1106 11.2501 16.7256 11.4342 15.3828 11.7972C15.0548 10.8257 14.632 9.88885 14.1205 9.00014C15.4538 8.19635 16.6607 7.19953 17.702 6.04212C19.1466 7.4208 20.0409 9.27761 20.2181 11.2667ZM16.5273 5.10609C15.5891 6.13521 14.5053 7.0214 13.3103 7.73644C12.3101 6.32871 11.0867 5.09378 9.68845 4.08038C10.8346 3.74568 12.0398 3.66406 13.2207 3.84116C14.4015 4.01826 15.5298 4.44986 16.5273 5.10609ZM8.03061 4.77032C9.56424 5.7349 10.9013 6.98121 11.9711 8.44337C10.0993 9.3059 8.06258 9.75166 6.00162 9.74982C5.36586 9.74951 4.73081 9.70719 4.10062 9.62316C4.72789 7.55507 6.13807 5.81375 8.03061 4.77032ZM3.75107 12C3.7512 11.6982 3.76778 11.3967 3.80074 11.0967C4.52995 11.1985 5.26534 11.2497 6.00162 11.2498C8.35434 11.2523 10.6777 10.727 12.8004 9.71252C13.2684 10.5203 13.6551 11.3724 13.9551 12.2564C13.1582 12.5554 12.3871 12.9191 11.6495 13.3438C9.59147 14.5322 7.82696 16.1682 6.48653 18.1306C5.62541 17.3583 4.93673 16.4132 4.4654 15.3569C3.99407 14.3005 3.75067 13.1567 3.75107 12ZM7.6888 19.0304C8.90617 17.2304 10.5165 15.7303 12.3983 14.6435C13.0279 14.2815 13.6846 13.9687 14.3624 13.7078C14.5946 14.7378 14.7121 15.7903 14.7126 16.8462C14.7129 17.8724 14.6029 18.8957 14.3847 19.8984C13.2706 20.2347 12.0979 20.3312 10.9438 20.1816C9.78969 20.032 8.68035 19.6397 7.6888 19.0304ZM16.038 19.1926C16.154 18.4158 16.2124 17.6315 16.2126 16.8462C16.2126 15.6318 16.0725 14.4214 15.7952 13.2391C17.0039 12.9145 18.2501 12.75 19.5016 12.7498C19.7389 12.7498 19.9773 12.7557 20.2151 12.7675C20.0895 14.0961 19.6439 15.3746 18.9164 16.4935C18.189 17.6125 17.2013 18.5386 16.038 19.1926V19.1926Z" fill="#1D1F21" style="fill: var(--ui-icon-primary-color);"/>
</svg>
