<svg  viewBox="0 0 24 24" fill="none" xmlns="http://www.w3.org/2000/svg" id="__THIS_ID_NEEDS_FOR_UI_ICON_COMPONENT__">
<path d="M16.3159 5.22665C15.1578 3.88931 13.8545 2.68488 12.4301 1.63559C12.429 1.63479 12.4277 1.63428 12.4266 1.63348C12.3979 1.61382 12.368 1.59616 12.337 1.58064C12.3314 1.57782 12.3258 1.57519 12.3201 1.57251C12.2577 1.54296 12.1914 1.52225 12.1233 1.51099C12.1161 1.5098 12.109 1.5087 12.1018 1.50771C12.0343 1.49743 11.9657 1.49743 11.8982 1.50771C11.891 1.5087 11.8839 1.5098 11.8767 1.51099C11.8086 1.52225 11.7423 1.54296 11.6799 1.57251C11.6742 1.57519 11.6686 1.57782 11.663 1.58064C11.632 1.59616 11.602 1.61382 11.5734 1.63348C11.5723 1.63428 11.571 1.63479 11.5699 1.63559C10.1455 2.68488 8.84223 3.88931 7.68407 5.22665C5.11038 8.18637 3.75 11.3066 3.75 14.25C3.75 16.438 4.61919 18.5365 6.16637 20.0836C7.71354 21.6308 9.81196 22.5 12 22.5C14.188 22.5 16.2865 21.6308 17.8336 20.0836C19.3808 18.5365 20.25 16.438 20.25 14.25C20.25 11.3066 18.8896 8.18637 16.3159 5.22665ZM11.25 20.9573C9.60085 20.771 8.07791 19.9844 6.9714 18.7474C5.86489 17.5105 5.25217 15.9096 5.25 14.25C5.25 9.5665 9.21197 5.5583 11.25 3.80653V20.9573Z" fill="#1D1F21" style="fill: var(--ui-icon-primary-color);"/>
</svg>
