<svg  viewBox="0 0 24 24" fill="none" xmlns="http://www.w3.org/2000/svg" id="__THIS_ID_NEEDS_FOR_UI_ICON_COMPONENT__">
<path d="M3.33893 12.6018C3.21953 12.3352 3.18164 12.0393 3.23002 11.7512C3.27841 11.4631 3.4109 11.1958 3.61084 10.9828L10.8977 3.08855H10.8978C11.0383 2.93639 11.2087 2.81495 11.3984 2.73189C11.5881 2.64884 11.7929 2.60596 12 2.60596C12.2071 2.60596 12.4119 2.64884 12.6016 2.73189C12.7913 2.81495 12.9618 2.93639 13.1022 3.08855L20.3893 10.9828C20.587 11.1971 20.718 11.4643 20.7663 11.7518C20.8146 12.0394 20.778 12.3347 20.6611 12.6018C20.5441 12.8689 20.3519 13.0961 20.1079 13.2557C19.8638 13.4152 19.5786 13.5002 19.287 13.5002H4.71295C4.42086 13.5027 4.13456 13.4187 3.89007 13.2588C3.64559 13.099 3.45383 12.8704 3.33893 12.6018ZM19.5 15.0002H4.5C4.10231 15.0007 3.72105 15.1589 3.43984 15.4401C3.15864 15.7213 3.00045 16.1025 3 16.5002V18.7502C3.00045 19.1479 3.15864 19.5292 3.43984 19.8104C3.72105 20.0916 4.10231 20.2498 4.5 20.2502H19.5C19.8977 20.2498 20.279 20.0916 20.5602 19.8104C20.8414 19.5292 20.9995 19.1479 21 18.7502V16.5002C20.9995 16.1025 20.8414 15.7213 20.5602 15.4401C20.279 15.1589 19.8977 15.0007 19.5 15.0002Z" fill="#1D1F21" style="fill: var(--ui-icon-primary-color);"/>
</svg>
