<svg  viewBox="0 0 24 24" fill="none" xmlns="http://www.w3.org/2000/svg" id="__THIS_ID_NEEDS_FOR_UI_ICON_COMPONENT__">
<path d="M21.7495 8.99326C21.7491 8.93592 21.742 8.87882 21.7283 8.82311C21.7268 8.81666 21.7248 8.81029 21.7231 8.80389C21.7174 8.78287 21.7107 8.76206 21.7032 8.74145C21.7003 8.7338 21.6975 8.7263 21.6944 8.71874C21.6866 8.69956 21.6778 8.68066 21.6683 8.66193C21.6646 8.65465 21.6612 8.64728 21.6573 8.64014C21.6461 8.61977 21.6337 8.5999 21.6205 8.58036C21.6175 8.57601 21.6151 8.57143 21.612 8.56717L21.6107 8.56502C21.5945 8.54255 21.5771 8.52097 21.5587 8.50038C21.5546 8.4958 21.5501 8.49168 21.5459 8.48729C21.5301 8.47044 21.5138 8.45438 21.4969 8.43932C21.4911 8.43424 21.4852 8.42947 21.4794 8.42458C21.4621 8.4102 21.4443 8.39667 21.426 8.38397C21.4225 8.38159 21.4195 8.37875 21.416 8.37642L12.416 2.37642C12.2928 2.29431 12.1481 2.25049 12 2.25049C11.8519 2.25049 11.7072 2.29431 11.584 2.37642L2.58398 8.37642C2.5806 8.37866 2.57771 8.38141 2.57442 8.3837C2.55584 8.39652 2.53782 8.41022 2.52036 8.4248C2.51464 8.42957 2.50887 8.43424 2.50333 8.43913C2.48616 8.45433 2.46969 8.47054 2.4538 8.48757C2.44973 8.49187 2.44538 8.4959 2.4414 8.50029C2.42288 8.5209 2.40551 8.54251 2.38935 8.56502L2.38797 8.56717C2.38495 8.57143 2.38248 8.57601 2.37955 8.58036C2.36628 8.5999 2.35387 8.61977 2.3427 8.64014C2.33881 8.64728 2.33538 8.65465 2.33167 8.66193C2.32219 8.68065 2.3134 8.69956 2.30558 8.71874C2.30256 8.7263 2.29967 8.7338 2.29683 8.74145C2.28924 8.76209 2.2826 8.78291 2.27692 8.80389C2.27518 8.81029 2.27321 8.81666 2.27166 8.82311C2.25805 8.87882 2.25094 8.93592 2.25046 8.99326C2.25041 8.99569 2.25 8.99802 2.25 9.00045V18.7505C2.25045 19.1481 2.40864 19.5294 2.68984 19.8106C2.97105 20.0918 3.35231 20.25 3.75 20.2505H20.25C20.6477 20.25 21.029 20.0918 21.3102 19.8106C21.5914 19.5294 21.7495 19.1481 21.75 18.7505V9.00045C21.75 8.99802 21.7496 8.99569 21.7495 8.99326ZM3.75 18.7505V10.4563L9.92825 14.8611C10.0554 14.9517 10.2076 15.0004 10.3637 15.0005H13.6363C13.7924 15.0004 13.9446 14.9517 14.0717 14.8611L20.25 10.4563V18.7505H3.75Z" fill="#1D1F21" style="fill: var(--ui-icon-primary-color);"/>
</svg>
