<svg  viewBox="0 0 24 24" fill="none" xmlns="http://www.w3.org/2000/svg" id="__THIS_ID_NEEDS_FOR_UI_ICON_COMPONENT__">
<path d="M20.25 19.4841H12.2197L15.4755 16.2282L15.4771 16.2268L15.4785 16.2253L20.7804 10.9235C21.2017 10.5011 21.4382 9.92898 21.4382 9.33246C21.4382 8.73595 21.2017 8.16378 20.7804 7.74146L16.5377 3.49884C16.1158 3.07689 15.5435 2.83984 14.9467 2.83984C14.35 2.83984 13.7777 3.07689 13.3557 3.49884L8.05335 8.80123L8.05239 8.8021L8.05152 8.80306L2.74913 14.1055C2.32718 14.5274 2.09013 15.0997 2.09013 15.6965C2.09013 16.2932 2.32718 16.8655 2.74913 17.2875L6.2262 20.7644C6.36688 20.9051 6.55765 20.9841 6.75656 20.9841H20.25C20.4489 20.9841 20.6397 20.905 20.7803 20.7644C20.921 20.6237 21 20.433 21 20.2341C21 20.0352 20.921 19.8444 20.7803 19.7037C20.6397 19.5631 20.4489 19.4841 20.25 19.4841V19.4841ZM14.4165 4.55956C14.4861 4.4899 14.5688 4.43465 14.6597 4.39694C14.7507 4.35924 14.8483 4.33984 14.9467 4.33984C15.0452 4.33984 15.1428 4.35924 15.2337 4.39694C15.3247 4.43465 15.4074 4.4899 15.477 4.55956L19.7196 8.80219C19.8601 8.94295 19.939 9.13367 19.939 9.33251C19.939 9.53135 19.8601 9.72207 19.7196 9.86283L14.9467 14.6357L9.64353 9.33251L14.4165 4.55956Z" fill="#1D1F21" style="fill: var(--ui-icon-primary-color);"/>
</svg>
