<svg  viewBox="0 0 24 24" fill="none" xmlns="http://www.w3.org/2000/svg" id="__THIS_ID_NEEDS_FOR_UI_ICON_COMPONENT__">
<path d="M23.1854 12.3054C23.146 12.394 22.1966 14.4965 20.0579 16.4122C19.9105 16.5442 19.7168 16.6127 19.5191 16.6025C19.3214 16.5924 19.1357 16.5045 19.0025 16.3581L9.50647 5.91244C9.41582 5.81272 9.35372 5.69043 9.32668 5.55841C9.29965 5.42639 9.30868 5.28952 9.35283 5.1622C9.39698 5.03488 9.47462 4.92181 9.57759 4.83487C9.68055 4.74793 9.80504 4.69034 9.93796 4.66815C10.6195 4.5555 11.3092 4.49928 12 4.50006C15.2698 4.50006 18.2412 5.74325 20.5929 8.09515C22.3586 9.86102 23.1524 11.6221 23.1854 11.6962C23.228 11.7921 23.25 11.8959 23.25 12.0008C23.25 12.1057 23.228 12.2095 23.1854 12.3054ZM20.055 19.7455C20.1888 19.8927 20.2587 20.087 20.2492 20.2857C20.2397 20.4844 20.1517 20.6712 20.0045 20.805C19.8574 20.9389 19.663 21.0087 19.4643 20.9993C19.2656 20.9898 19.0788 20.9018 18.945 20.7546L16.8812 18.4844C15.344 19.1637 13.6805 19.5098 12 19.5001C8.73019 19.5001 5.75885 18.2571 3.40723 15.9058C1.64154 14.1403 0.847596 12.3795 0.814636 12.3054C0.772035 12.2095 0.750023 12.1057 0.750023 12.0008C0.750023 11.8959 0.772035 11.7921 0.814636 11.6962C0.879845 11.5496 2.34377 8.32861 5.74887 6.23882L3.94501 4.25461C3.81119 4.10741 3.74133 3.91309 3.75079 3.71439C3.75548 3.616 3.77949 3.5195 3.82147 3.43039C3.86345 3.34129 3.92257 3.26132 3.99545 3.19506C4.06833 3.12881 4.15355 3.07755 4.24624 3.04423C4.33893 3.0109 4.43728 2.99616 4.53567 3.00085C4.73437 3.01031 4.92118 3.09832 5.05499 3.24551L20.055 19.7455ZM13.6576 14.9385L9.2322 10.0705C8.79433 10.6976 8.58252 11.4548 8.63152 12.218C8.68051 12.9812 8.98739 13.7051 9.50184 14.271C10.0163 14.8368 10.7078 15.2111 11.4628 15.3324C12.2179 15.4537 12.9918 15.3148 13.6576 14.9385Z" fill="#1D1F21" style="fill: var(--ui-icon-primary-color);"/>
</svg>
