<svg  viewBox="0 0 24 24" fill="none" xmlns="http://www.w3.org/2000/svg" id="__THIS_ID_NEEDS_FOR_UI_ICON_COMPONENT__">
<path d="M21.6457 15.2641C21.6949 15.3494 21.7269 15.4436 21.7397 15.5412C21.7526 15.6389 21.7461 15.7381 21.7206 15.8332C21.6951 15.9283 21.6511 16.0175 21.5912 16.0957C21.5312 16.1738 21.4565 16.2394 21.3712 16.2886C21.2859 16.3379 21.1917 16.3698 21.0941 16.3827C20.9964 16.3955 20.8972 16.389 20.8021 16.3635C20.707 16.3381 20.6178 16.2941 20.5396 16.2341C20.4615 16.1742 20.396 16.0994 20.3467 16.0141L18.6234 13.0293C17.608 13.7093 16.4915 14.2244 15.3151 14.5554L15.8601 17.6458C15.8946 17.8417 15.8499 18.0433 15.7358 18.2062C15.6217 18.3692 15.4476 18.4801 15.2517 18.5147C15.2084 18.5223 15.1645 18.5261 15.1205 18.5262C14.9443 18.5259 14.7739 18.4637 14.639 18.3503C14.5041 18.237 14.4134 18.0798 14.3828 17.9063L13.8467 14.8663C12.6192 15.0456 11.3721 15.0452 10.1448 14.865L9.60876 17.9051C9.57815 18.0786 9.48746 18.2358 9.35257 18.3491C9.21768 18.4624 9.04721 18.5247 8.87103 18.525C8.82708 18.5249 8.78321 18.5211 8.73992 18.5135C8.54403 18.479 8.36989 18.368 8.25578 18.2051C8.14168 18.0422 8.09696 17.8406 8.13147 17.6447L8.67657 14.553C7.50164 14.2215 6.38649 13.7063 5.37241 13.0266L3.63897 16.029C3.58972 16.1143 3.52416 16.189 3.44603 16.249C3.36789 16.3089 3.27871 16.3529 3.18358 16.3784C3.08845 16.4039 2.98923 16.4104 2.89158 16.3975C2.79394 16.3846 2.69978 16.3527 2.61449 16.3034C2.5292 16.2542 2.45445 16.1886 2.3945 16.1105C2.33454 16.0324 2.29057 15.9432 2.26508 15.848C2.23959 15.7529 2.23309 15.6537 2.24595 15.5561C2.25881 15.4584 2.29077 15.3643 2.34002 15.279L4.16789 12.113C3.53037 11.5644 2.94414 10.9588 2.41647 10.3038C2.29147 10.1491 2.23305 9.95105 2.25406 9.75326C2.27508 9.55547 2.37381 9.37412 2.52853 9.24912C2.68325 9.12412 2.88129 9.0657 3.07908 9.08672C3.27687 9.10774 3.45821 9.20646 3.58321 9.36118C4.1689 10.09 4.83731 10.7482 5.57499 11.3227C5.58087 11.3269 5.58625 11.3315 5.59197 11.3359C7.42243 12.76 9.68086 13.5228 11.9999 13.5005C14.3184 13.5228 16.5763 12.7603 18.4066 11.3368C18.4115 11.3331 18.4161 11.3292 18.4211 11.3256C19.1602 10.7505 19.8299 10.0912 20.4166 9.36118C20.5416 9.20663 20.7229 9.10805 20.9206 9.08712C21.1183 9.06619 21.3163 9.12461 21.4709 9.24955C21.6255 9.37449 21.7243 9.55572 21.7453 9.75341C21.7664 9.9511 21.7081 10.1491 21.5833 10.3038C21.0546 10.9601 20.4671 11.5668 19.8282 12.1163L21.6457 15.2641Z" fill="#1D1F21" style="fill: var(--ui-icon-primary-color);"/>
</svg>
