<svg  viewBox="0 0 24 24" fill="none" xmlns="http://www.w3.org/2000/svg" id="__THIS_ID_NEEDS_FOR_UI_ICON_COMPONENT__">
<path d="M20.9997 6.32858C20.9949 5.87713 20.8989 5.43132 20.7174 5.01791C20.536 4.60449 20.2729 4.23202 19.9439 3.92285C18.6297 2.67874 16.5015 2.72557 15.1999 4.02722L13.1422 6.08491C12.7143 5.69506 12.1528 5.4849 11.574 5.49803C10.9953 5.51116 10.4438 5.74656 10.034 6.15541L9.37499 6.81445C9.09411 7.09597 8.93636 7.47741 8.93636 7.87509C8.93636 8.27277 9.09411 8.65421 9.37499 8.93573L9.56803 9.12877L4.8483 13.8484C4.41688 14.2816 4.09744 14.8133 3.91759 15.3976C3.73773 15.9819 3.70288 16.6012 3.81605 17.202L2.89892 19.3028C2.79424 19.54 2.76399 19.8033 2.81215 20.058C2.86032 20.3127 2.98464 20.5468 3.16868 20.7294C3.30719 20.869 3.47192 20.9797 3.65339 21.0554C3.83486 21.1311 4.0295 21.1701 4.22611 21.1703C4.43381 21.1701 4.63922 21.1269 4.82944 21.0435L6.7981 20.184C7.39889 20.2972 8.0182 20.2624 8.6025 20.0825C9.18679 19.9026 9.71849 19.5832 10.1516 19.1517L14.8713 14.4321L15.0644 14.6251C15.3459 14.906 15.7273 15.0637 16.125 15.0637C16.5227 15.0637 16.9041 14.906 17.1856 14.6251L17.8447 13.966C18.2535 13.5563 18.489 13.0048 18.5021 12.4261C18.5152 11.8473 18.305 11.2857 17.9152 10.8578L20.0115 8.76155C20.3316 8.44353 20.5842 8.06407 20.754 7.64598C20.9238 7.22788 21.0074 6.77978 20.9997 6.32858ZM9.09099 18.0911C8.81115 18.3698 8.46312 18.5703 8.08163 18.6725C7.70013 18.7747 7.29851 18.7751 6.9168 18.6737C6.75281 18.6299 6.57884 18.6431 6.42329 18.711L4.41037 19.5897L5.28913 17.5768C5.35702 17.4212 5.37016 17.2473 5.3264 17.0833C5.22499 16.7016 5.22543 16.3 5.32765 15.9185C5.42987 15.537 5.63032 15.1889 5.90899 14.9091L10.6287 10.1894L13.8107 13.3714L9.09099 18.0911Z" fill="#1D1F21" style="fill: var(--ui-icon-primary-color);"/>
</svg>
