<svg  viewBox="0 0 24 24" fill="none" xmlns="http://www.w3.org/2000/svg" id="__THIS_ID_NEEDS_FOR_UI_ICON_COMPONENT__">
<path d="M21.75 12C21.747 14.4552 20.8191 16.8192 19.1511 18.6208C17.4832 20.4225 15.1977 21.5295 12.75 21.7214V14.2501H15C15.1989 14.2501 15.3896 14.1711 15.5303 14.0304C15.671 13.8898 15.75 13.699 15.75 13.5001C15.75 13.3012 15.671 13.1104 15.5303 12.9698C15.3896 12.8291 15.1989 12.7501 15 12.7501H12.75V10.5001C12.7504 10.1024 12.9086 9.72114 13.1898 9.43994C13.471 9.15873 13.8523 9.00055 14.25 9.0001H15.75C15.9489 9.0001 16.1396 8.92108 16.2803 8.78043C16.421 8.63977 16.5 8.44901 16.5 8.2501C16.5 8.05118 16.421 7.86042 16.2803 7.71977C16.1396 7.57911 15.9489 7.5001 15.75 7.5001H14.25C13.4546 7.50101 12.6921 7.81737 12.1297 8.37978C11.5672 8.94219 11.2509 9.70473 11.25 10.5001V12.7501H8.99997C8.80106 12.7501 8.61029 12.8291 8.46964 12.9698C8.32899 13.1104 8.24997 13.3012 8.24997 13.5001C8.24997 13.699 8.32899 13.8898 8.46964 14.0304C8.61029 14.1711 8.80106 14.2501 8.99997 14.2501H11.25V21.7214C9.35915 21.5756 7.55189 20.8815 6.04955 19.7241C4.54721 18.5668 3.41499 16.9964 2.79156 15.2054C2.16813 13.4144 2.08055 11.4804 2.53954 9.64033C2.99854 7.80028 3.98418 6.13401 5.37577 4.84561C6.76735 3.55721 8.50447 2.7026 10.3744 2.38645C12.2443 2.07029 14.1658 2.30632 15.9036 3.06562C17.6414 3.82492 19.12 5.07453 20.1584 6.66141C21.1969 8.2483 21.7499 10.1036 21.75 12Z" fill="#1D1F21" style="fill: var(--ui-icon-primary-color);"/>
</svg>
