<svg  viewBox="0 0 24 24" fill="none" xmlns="http://www.w3.org/2000/svg" id="__THIS_ID_NEEDS_FOR_UI_ICON_COMPONENT__">
<path d="M12.7501 11.25V20.2499C12.7501 20.4488 12.671 20.6396 12.5304 20.7803C12.3897 20.9209 12.199 20.9999 12.0001 20.9999C11.8012 20.9999 11.6104 20.9209 11.4697 20.7803C11.3291 20.6396 11.2501 20.4488 11.2501 20.2499V11.25C11.2501 11.0511 11.3291 10.8603 11.4697 10.7196C11.6104 10.579 11.8012 10.5 12.0001 10.5C12.199 10.5 12.3897 10.579 12.5304 10.7196C12.671 10.8603 12.7501 11.0511 12.7501 11.25ZM18.75 17.9999C18.6515 17.9999 18.554 18.0193 18.463 18.057C18.372 18.0947 18.2893 18.15 18.2197 18.2196C18.15 18.2893 18.0948 18.372 18.0571 18.463C18.0194 18.554 18 18.6515 18 18.75L18.0001 20.25C18.0002 20.4489 18.0792 20.6397 18.2198 20.7803C18.3605 20.9209 18.5513 20.9999 18.7502 20.9999C18.9491 20.9999 19.1399 20.9209 19.2805 20.7802C19.4211 20.6396 19.5001 20.4488 19.5001 20.2499L19.5 18.7499C19.5 18.551 19.421 18.3602 19.2804 18.2196C19.1397 18.079 18.9489 17.9999 18.75 17.9999ZM21 15H19.5L19.5001 3.75C19.5001 3.55109 19.4211 3.36032 19.2805 3.21967C19.1398 3.07902 18.949 3 18.7501 3C18.5512 3 18.3605 3.07902 18.2198 3.21967C18.0792 3.36032 18.0001 3.55109 18.0001 3.75L18 15H16.5001C16.3011 15 16.1104 15.079 15.9697 15.2196C15.8291 15.3603 15.7501 15.551 15.7501 15.75C15.7501 15.9489 15.8291 16.1396 15.9697 16.2803C16.1104 16.4209 16.3011 16.4999 16.5001 16.4999H21C21.1989 16.4999 21.3897 16.4209 21.5304 16.2803C21.671 16.1396 21.75 15.9489 21.75 15.75C21.75 15.551 21.671 15.3603 21.5304 15.2196C21.3897 15.079 21.1989 15 21 15ZM5.2501 15C5.05119 15 4.86043 15.079 4.71978 15.2196C4.57913 15.3603 4.50011 15.551 4.5001 15.75L4.50005 20.2499C4.50005 20.4488 4.57907 20.6396 4.71972 20.7803C4.86037 20.9209 5.05114 20.9999 5.25005 20.9999C5.44896 20.9999 5.63973 20.9209 5.78038 20.7803C5.92103 20.6396 6.00005 20.4488 6.00005 20.2499L6.00009 15.75C6.00009 15.551 5.92107 15.3603 5.78042 15.2196C5.63977 15.079 5.44901 15 5.2501 15ZM7.50009 12H6.00009L6.00005 3.75C6.00005 3.55109 5.92103 3.36032 5.78038 3.21967C5.63973 3.07902 5.44896 3 5.25005 3C5.05114 3 4.86037 3.07902 4.71972 3.21967C4.57907 3.36032 4.50005 3.55109 4.50005 3.75L4.5001 12H3.0001C2.80119 12 2.61043 12.079 2.46978 12.2196C2.32912 12.3603 2.25011 12.5511 2.25011 12.75C2.25011 12.9489 2.32912 13.1396 2.46978 13.2803C2.61043 13.4209 2.80119 13.5 3.0001 13.5H7.50009C7.699 13.5 7.88976 13.4209 8.03041 13.2803C8.17107 13.1396 8.25008 12.9489 8.25008 12.75C8.25008 12.5511 8.17107 12.3603 8.03041 12.2196C7.88976 12.079 7.699 12 7.50009 12ZM14.2501 7.49998H12.7501V3.75C12.7501 3.55109 12.671 3.36032 12.5304 3.21967C12.3897 3.07902 12.199 3 12.0001 3C11.8012 3 11.6104 3.07902 11.4697 3.21967C11.3291 3.36032 11.2501 3.55109 11.2501 3.75V7.49998H9.75008C9.55117 7.49998 9.3604 7.579 9.21975 7.71965C9.0791 7.8603 9.00008 8.05107 9.00008 8.24998C9.00008 8.44889 9.0791 8.63966 9.21975 8.78031C9.3604 8.92096 9.55117 8.99998 9.75008 8.99998H14.2501C14.449 8.99998 14.6397 8.92096 14.7804 8.78031C14.921 8.63966 15.0001 8.44889 15.0001 8.24998C15.0001 8.05107 14.921 7.8603 14.7804 7.71965C14.6397 7.579 14.449 7.49998 14.2501 7.49998Z" fill="#1D1F21" style="fill: var(--ui-icon-primary-color);"/>
</svg>
