<svg  viewBox="0 0 24 24" fill="none" xmlns="http://www.w3.org/2000/svg" id="__THIS_ID_NEEDS_FOR_UI_ICON_COMPONENT__">
<path d="M17.4952 8.81245C18.1695 8.32497 18.6719 7.6363 18.9304 6.84538C19.1888 6.05446 19.1899 5.20199 18.9335 4.41041C18.6771 3.61882 18.1765 2.92886 17.5034 2.43964C16.8304 1.95041 16.0196 1.68709 15.1875 1.6875H8.8125C7.98043 1.68709 7.16964 1.95041 6.49659 2.43964C5.82355 2.92886 5.32287 3.61882 5.06649 4.41041C4.8101 5.20199 4.8112 6.05446 5.06963 6.84538C5.32806 7.6363 5.83051 8.32497 6.50482 8.81245C6.00027 9.17684 5.58942 9.6558 5.30608 10.2099C5.02274 10.7641 4.875 11.3776 4.875 11.9999C4.875 12.6223 5.02276 13.2358 5.30611 13.7899C5.58946 14.3441 6.00031 14.823 6.50487 15.1874C5.95908 15.5826 5.52387 16.1113 5.24091 16.7228C4.95795 17.3344 4.83671 18.0083 4.88881 18.6801C4.9409 19.352 5.16458 19.9992 5.53843 20.5598C5.91228 21.1204 6.42379 21.5757 7.02397 21.882C7.62416 22.1884 8.29294 22.3355 8.96627 22.3093C9.63961 22.2832 10.295 22.0846 10.8696 21.7327C11.4442 21.3807 11.9189 20.8872 12.2481 20.2992C12.5774 19.7113 12.7502 19.0487 12.75 18.3749V15.0888C13.161 15.4136 13.6327 15.6531 14.1375 15.7932C14.6423 15.9333 15.17 15.9713 15.6896 15.9047C16.2092 15.8382 16.7103 15.6686 17.1635 15.4059C17.6167 15.1432 18.0129 14.7926 18.3289 14.3747C18.6448 13.9568 18.8741 13.4801 19.0034 12.9724C19.1326 12.4647 19.1592 11.9364 19.0815 11.4183C19.0039 10.9002 18.8236 10.4029 18.5512 9.95538C18.2788 9.50791 17.9197 9.11934 17.4952 8.81245ZM17.625 5.625C17.6243 6.27092 17.3675 6.8902 16.9109 7.3471C16.4543 7.804 15.8352 8.06125 15.1893 8.06245L15.1875 8.06241L15.1839 8.0625L12.75 8.06241V3.1875H15.1875C15.8337 3.18823 16.4533 3.44527 16.9103 3.90224C17.3672 4.3592 17.6243 4.97876 17.625 5.625ZM15.1875 14.4374C14.5415 14.4372 13.9219 14.1806 13.465 13.7239C13.0081 13.2672 12.7511 12.6478 12.7507 12.0018C12.7502 11.3557 13.0062 10.7359 13.4624 10.2785C13.9187 9.82117 14.5379 9.56362 15.1839 9.5625H15.1875L15.1893 9.56245C15.8353 9.56334 16.4546 9.82066 16.911 10.2779C17.3674 10.7351 17.6236 11.3548 17.6234 12.0008C17.6232 12.6469 17.3665 13.2664 16.9097 13.7232C16.453 14.1801 15.8335 14.437 15.1875 14.4374Z" fill="#1D1F21" style="fill: var(--ui-icon-primary-color);"/>
</svg>
