<svg  viewBox="0 0 24 24" fill="none" xmlns="http://www.w3.org/2000/svg" id="__THIS_ID_NEEDS_FOR_UI_ICON_COMPONENT__">
<path d="M20.024 7.71327L14.7804 2.46963C14.7729 2.46213 14.7647 2.45554 14.7569 2.44839C14.7468 2.4391 14.737 2.42949 14.7263 2.42075C14.7193 2.41498 14.7117 2.40994 14.7045 2.4044C14.6922 2.39502 14.6801 2.3855 14.6673 2.37685C14.6615 2.37295 14.6553 2.36971 14.6494 2.366C14.6346 2.35661 14.6197 2.34728 14.6041 2.3389C14.5999 2.33666 14.5955 2.33492 14.5913 2.33276C14.5737 2.3237 14.556 2.315 14.5376 2.30736C14.5348 2.30617 14.5318 2.30529 14.5289 2.30415C14.5091 2.29623 14.4891 2.28882 14.4686 2.28259C14.4656 2.28167 14.4626 2.28112 14.4596 2.28025C14.4393 2.27435 14.4187 2.2689 14.3977 2.26469C14.391 2.26336 14.3841 2.26277 14.3773 2.26163C14.36 2.2586 14.3426 2.25554 14.3249 2.2538C14.3 2.25127 14.275 2.25 14.25 2.25H5.24927C4.85158 2.25045 4.47032 2.40864 4.18911 2.68984C3.9079 2.97105 3.74972 3.35231 3.74927 3.75V20.25C3.74972 20.6477 3.9079 21.029 4.18911 21.3102C4.47032 21.5914 4.85158 21.7495 5.24927 21.75H18.75C19.1477 21.7495 19.529 21.5914 19.8102 21.3102C20.0914 21.029 20.2495 20.6477 20.25 20.25V8.26451C20.2501 8.25961 20.2507 8.2549 20.2507 8.25C20.2508 8.14991 20.2308 8.05083 20.1918 7.95863C20.1529 7.86643 20.0958 7.78299 20.024 7.71327ZM14.7776 15.9697C14.8474 16.0393 14.9029 16.122 14.9408 16.213C14.9786 16.3041 14.9982 16.4017 14.9983 16.5003C14.9984 16.5989 14.979 16.6966 14.9413 16.7877C14.9037 16.8788 14.8484 16.9616 14.7786 17.0314C14.7089 17.1011 14.6261 17.1564 14.535 17.1941C14.4438 17.2318 14.3462 17.2511 14.2476 17.251C14.1489 17.2509 14.0513 17.2314 13.9603 17.1935C13.8692 17.1556 13.7865 17.1002 13.7169 17.0303L11.9973 15.3106L10.2776 17.0303C10.208 17.1002 10.1253 17.1556 10.0342 17.1935C9.94319 17.2314 9.84556 17.2509 9.74695 17.251C9.64833 17.2511 9.55066 17.2318 9.45954 17.1941C9.36841 17.1564 9.28561 17.1011 9.21588 17.0314C9.14615 16.9616 9.09086 16.8788 9.05317 16.7877C9.01547 16.6966 8.99612 16.5989 8.99622 16.5003C8.99632 16.4017 9.01586 16.3041 9.05374 16.213C9.09161 16.122 9.14707 16.0393 9.21694 15.9697L10.9366 14.25L9.21694 12.5303C9.14722 12.4607 9.09191 12.378 9.05416 12.287C9.01641 12.196 8.99697 12.0984 8.99694 11.9999C8.99691 11.9014 9.01629 11.8038 9.05398 11.7128C9.09167 11.6217 9.14693 11.539 9.2166 11.4693C9.28627 11.3997 9.36899 11.3444 9.46003 11.3067C9.55106 11.269 9.64863 11.2497 9.74716 11.2497C9.84569 11.2497 9.94325 11.2692 10.0343 11.3069C10.1253 11.3447 10.2079 11.4 10.2776 11.4697L11.9973 13.1894L13.7169 11.4697C13.7866 11.4 13.8692 11.3447 13.9603 11.3069C14.0513 11.2692 14.1488 11.2497 14.2474 11.2497C14.3459 11.2497 14.4435 11.269 14.5345 11.3067C14.6255 11.3444 14.7082 11.3997 14.7779 11.4693C14.8476 11.539 14.9028 11.6217 14.9405 11.7128C14.9782 11.8038 14.9976 11.9014 14.9976 11.9999C14.9975 12.0984 14.9781 12.196 14.9404 12.287C14.9026 12.378 14.8473 12.4607 14.7776 12.5303L13.0579 14.25L14.7776 15.9697ZM14.25 8.25V4.06064L18.4393 8.25H14.25Z" fill="#1D1F21" style="fill: var(--ui-icon-primary-color);"/>
</svg>
