<svg  viewBox="0 0 24 24" fill="none" xmlns="http://www.w3.org/2000/svg" id="__THIS_ID_NEEDS_FOR_UI_ICON_COMPONENT__">
<path d="M20.024 7.71327L14.7804 2.46963C14.7729 2.46213 14.7647 2.45554 14.7569 2.44839C14.7468 2.4391 14.737 2.42949 14.7263 2.42075C14.7193 2.41498 14.7117 2.40994 14.7045 2.4044C14.6922 2.39502 14.6801 2.3855 14.6673 2.37685C14.6615 2.37295 14.6553 2.36971 14.6494 2.366C14.6346 2.35661 14.6197 2.34728 14.6041 2.3389C14.5999 2.33666 14.5955 2.33492 14.5913 2.33276C14.5737 2.3237 14.556 2.315 14.5376 2.30736C14.5348 2.30617 14.5318 2.30529 14.5289 2.30415C14.5091 2.29623 14.4891 2.28882 14.4686 2.28259C14.4656 2.28167 14.4626 2.28112 14.4596 2.28025C14.4393 2.27435 14.4187 2.2689 14.3977 2.26469C14.391 2.26336 14.3841 2.26277 14.3773 2.26163C14.36 2.2586 14.3426 2.25554 14.3249 2.2538C14.3 2.25127 14.275 2.25 14.25 2.25H5.24927C4.85158 2.25045 4.47032 2.40864 4.18911 2.68984C3.9079 2.97105 3.74972 3.35231 3.74927 3.75V20.25C3.74972 20.6477 3.9079 21.029 4.18911 21.3102C4.47032 21.5914 4.85158 21.7495 5.24927 21.75H18.75C19.1477 21.7495 19.529 21.5914 19.8102 21.3102C20.0914 21.029 20.2495 20.6477 20.25 20.25V8.26451C20.2501 8.25961 20.2507 8.2549 20.2507 8.25C20.2508 8.14991 20.2308 8.05083 20.1918 7.95863C20.1529 7.86643 20.0958 7.78299 20.024 7.71327ZM15.1553 15.1554L12.5303 17.7804C12.5282 17.7825 12.5257 17.7843 12.5236 17.7865C12.5081 17.8015 12.4922 17.8162 12.4755 17.8299C12.4664 17.8374 12.4567 17.844 12.4472 17.851C12.4371 17.8586 12.4271 17.8665 12.4165 17.8736C12.4056 17.8809 12.3943 17.8873 12.3831 17.8939C12.3733 17.8998 12.3637 17.9059 12.3536 17.9114C12.3423 17.9174 12.3307 17.9225 12.3192 17.9279C12.3085 17.933 12.298 17.9383 12.287 17.9429C12.2759 17.9475 12.2646 17.9512 12.2533 17.9552C12.2415 17.9594 12.2298 17.964 12.2177 17.9677C12.2065 17.971 12.1951 17.9735 12.1837 17.9764C12.1714 17.9795 12.1591 17.983 12.1465 17.9855C12.1334 17.9881 12.1203 17.9896 12.1071 17.9915C12.096 17.9931 12.0852 17.9952 12.074 17.9963C12.0494 17.9987 12.0247 18 12 18C11.9753 18 11.9506 17.9987 11.926 17.9963C11.9148 17.9952 11.904 17.9931 11.8929 17.9915C11.8797 17.9896 11.8666 17.9881 11.8535 17.9855C11.8409 17.983 11.8286 17.9795 11.8163 17.9764C11.8049 17.9735 11.7935 17.971 11.7823 17.9676C11.7702 17.964 11.7585 17.9594 11.7467 17.9552C11.7354 17.9511 11.7241 17.9475 11.713 17.9429C11.702 17.9383 11.6915 17.933 11.6808 17.9279C11.6693 17.9225 11.6577 17.9174 11.6464 17.9113C11.6363 17.9059 11.6267 17.8998 11.6169 17.8939C11.6057 17.8873 11.5944 17.8809 11.5835 17.8736C11.5729 17.8665 11.5629 17.8586 11.5528 17.851C11.5433 17.844 11.5336 17.8374 11.5245 17.8299C11.5081 17.8164 11.4925 17.802 11.4773 17.7872C11.4748 17.7848 11.4721 17.7828 11.4697 17.7804L8.84468 15.1554C8.70402 15.0147 8.625 14.8239 8.625 14.625C8.62499 14.4261 8.70401 14.2354 8.84466 14.0947C8.98531 13.954 9.17607 13.875 9.37498 13.875C9.5739 13.875 9.76466 13.954 9.90532 14.0947L11.25 15.4394V11.25C11.25 11.0511 11.329 10.8603 11.4697 10.7197C11.6103 10.579 11.8011 10.5 12 10.5C12.1989 10.5 12.3897 10.579 12.5303 10.7197C12.671 10.8603 12.75 11.0511 12.75 11.25V15.4394L14.0947 14.0947C14.1643 14.025 14.247 13.9698 14.338 13.9321C14.429 13.8944 14.5265 13.875 14.625 13.875C14.7235 13.875 14.821 13.8944 14.912 13.9321C15.003 13.9698 15.0857 14.0251 15.1553 14.0947C15.225 14.1644 15.2802 14.247 15.3179 14.338C15.3556 14.429 15.375 14.5265 15.375 14.625C15.375 14.7235 15.3556 14.8211 15.3179 14.9121C15.2802 15.003 15.225 15.0857 15.1553 15.1554V15.1554ZM14.25 8.25V4.06064L18.4393 8.25H14.25Z" fill="#1D1F21" style="fill: var(--ui-icon-primary-color);"/>
</svg>
