<svg  viewBox="0 0 24 24" fill="none" xmlns="http://www.w3.org/2000/svg" id="__THIS_ID_NEEDS_FOR_UI_ICON_COMPONENT__">
<path d="M20.024 7.71327L14.7804 2.46963C14.7729 2.46213 14.7647 2.45554 14.7569 2.44839C14.7468 2.4391 14.737 2.42949 14.7264 2.42075C14.7193 2.41498 14.7118 2.40994 14.7045 2.4044C14.6923 2.39502 14.6801 2.3855 14.6673 2.37685C14.6615 2.37295 14.6553 2.36971 14.6494 2.366C14.6346 2.35661 14.6197 2.34728 14.6041 2.3389C14.5999 2.33666 14.5955 2.33492 14.5913 2.33276C14.5737 2.3237 14.556 2.315 14.5376 2.30736C14.5348 2.30617 14.5318 2.30529 14.5289 2.30415C14.5091 2.29623 14.4891 2.28882 14.4686 2.28259C14.4657 2.28167 14.4626 2.28112 14.4596 2.28025C14.4393 2.27435 14.4187 2.2689 14.3977 2.26469C14.391 2.26336 14.3841 2.26277 14.3774 2.26163C14.36 2.2586 14.3427 2.25554 14.3249 2.2538C14.3 2.25127 14.275 2.25 14.25 2.25H5.24927C4.85159 2.25045 4.47032 2.40864 4.18911 2.68984C3.90791 2.97105 3.74973 3.35231 3.74927 3.75V20.25C3.74973 20.6477 3.90791 21.029 4.18911 21.3102C4.47032 21.5914 4.85159 21.7495 5.24927 21.75H18.75C19.1477 21.7495 19.529 21.5914 19.8102 21.3102C20.0914 21.029 20.2495 20.6477 20.25 20.25V8.26451C20.2501 8.25961 20.2507 8.2549 20.2507 8.25C20.2508 8.14991 20.2308 8.05083 20.1918 7.95863C20.1529 7.86643 20.0958 7.78299 20.024 7.71327ZM14.25 15H12.75V16.5C12.75 16.6989 12.671 16.8897 12.5303 17.0303C12.3897 17.171 12.1989 17.25 12 17.25C11.8011 17.25 11.6103 17.171 11.4697 17.0303C11.329 16.8897 11.25 16.6989 11.25 16.5V15H9.75C9.55109 15 9.36033 14.921 9.21967 14.7803C9.07902 14.6397 9 14.4489 9 14.25C9 14.0511 9.07902 13.8603 9.21967 13.7197C9.36033 13.579 9.55109 13.5 9.75 13.5H11.25V12C11.25 11.8011 11.329 11.6103 11.4697 11.4697C11.6103 11.329 11.8011 11.25 12 11.25C12.1989 11.25 12.3897 11.329 12.5303 11.4697C12.671 11.6103 12.75 11.8011 12.75 12V13.5H14.25C14.4489 13.5 14.6397 13.579 14.7803 13.7197C14.921 13.8603 15 14.0511 15 14.25C15 14.4489 14.921 14.6397 14.7803 14.7803C14.6397 14.921 14.4489 15 14.25 15ZM14.25 8.25V4.06064L18.4393 8.25H14.25Z" fill="#1D1F21" style="fill: var(--ui-icon-primary-color);"/>
</svg>
