<svg  viewBox="0 0 24 24" fill="none" xmlns="http://www.w3.org/2000/svg" id="__THIS_ID_NEEDS_FOR_UI_ICON_COMPONENT__">
<path d="M21.7505 12.0005C21.7509 13.8116 21.5753 15.6184 21.2262 17.3955C21.1876 17.5906 21.0732 17.7623 20.908 17.873C20.7429 17.9837 20.5405 18.0243 20.3455 17.9858C20.1504 17.9474 19.9786 17.8331 19.8678 17.668C19.757 17.5029 19.7163 17.3006 19.7546 17.1055C20.0848 15.4239 20.2509 13.7142 20.2505 12.0005C20.2505 9.81245 19.3813 7.71403 17.8342 6.16686C16.287 4.61968 14.1886 3.75049 12.0005 3.75049C9.81249 3.75049 7.71407 4.61968 6.1669 6.16686C4.61972 7.71403 3.75053 9.81245 3.75053 12.0005C3.75182 13.1075 3.56413 14.2066 3.19554 15.2504C3.12893 15.4376 2.99081 15.5906 2.81149 15.676C2.63216 15.7614 2.42628 15.7722 2.23901 15.7061C2.05173 15.6399 1.89836 15.5021 1.81254 15.323C1.72672 15.1438 1.71546 14.938 1.78123 14.7506C2.09303 13.8673 2.25174 12.9372 2.25053 12.0005C2.25053 9.41463 3.27776 6.93468 5.10624 5.1062C6.93472 3.27772 9.41467 2.25049 12.0005 2.25049C14.5864 2.25049 17.0663 3.27772 18.8948 5.1062C20.7233 6.93468 21.7505 9.41463 21.7505 12.0005V12.0005ZM8.71965 7.90177C8.87486 7.77735 8.97428 7.59637 8.99605 7.39865C9.01782 7.20092 8.96016 7.00265 8.83574 6.84744C8.77413 6.77059 8.69799 6.70663 8.61167 6.6592C8.52534 6.61178 8.43052 6.58182 8.33262 6.57104C8.1349 6.54927 7.93662 6.60694 7.78142 6.73136C6.99006 7.36242 6.35143 8.16406 5.9132 9.07645C5.47497 9.98884 5.24845 10.9884 5.25053 12.0006C5.2556 13.7362 4.85496 15.449 4.08058 17.0023C4.03654 17.0905 4.01033 17.1865 4.00344 17.2849C3.99655 17.3832 4.00912 17.482 4.04043 17.5755C4.07174 17.6689 4.12118 17.7553 4.18591 17.8297C4.25064 17.9041 4.3294 17.9649 4.41768 18.0088C4.50596 18.0527 4.60203 18.0788 4.70039 18.0855C4.79875 18.0922 4.89747 18.0795 4.99091 18.048C5.08434 18.0166 5.17066 17.967 5.24491 17.9021C5.31917 17.8373 5.37991 17.7584 5.42366 17.6701C6.30173 15.9095 6.7561 13.968 6.75053 12.0006C6.74896 11.2132 6.92523 10.4356 7.26619 9.72591C7.60715 9.01618 8.104 8.39262 8.71965 7.90177ZM12.0005 11.2506C11.8016 11.2506 11.6109 11.3296 11.4702 11.4703C11.3296 11.6109 11.2505 11.8017 11.2505 12.0006C11.2512 14.9224 10.5102 17.7965 9.09694 20.3538C9.0491 20.4399 9.01869 20.5346 9.00747 20.6325C8.99625 20.7304 9.00443 20.8295 9.03154 20.9243C9.05864 21.019 9.10415 21.1075 9.16546 21.1846C9.22677 21.2617 9.30268 21.326 9.38885 21.3738C9.47501 21.4216 9.56975 21.4519 9.66765 21.4631C9.76555 21.4743 9.86469 21.466 9.9594 21.4388C10.0541 21.4117 10.1425 21.3661 10.2196 21.3048C10.2967 21.2434 10.361 21.1674 10.4087 21.0812C11.9452 18.3013 12.751 15.1769 12.7505 12.0006C12.7505 11.8017 12.6715 11.6109 12.5309 11.4703C12.3902 11.3296 12.1994 11.2506 12.0005 11.2506ZM12.0005 8.25058C11.0063 8.25172 10.0532 8.64717 9.35014 9.35019C8.64712 10.0532 8.25167 11.0064 8.25053 12.0006C8.25053 12.1995 8.32955 12.3903 8.4702 12.5309C8.61086 12.6716 8.80162 12.7506 9.00053 12.7506C9.19945 12.7506 9.39021 12.6716 9.53086 12.5309C9.67152 12.3903 9.75053 12.1995 9.75053 12.0006C9.75053 11.4038 9.98759 10.8315 10.4095 10.4096C10.8315 9.98763 11.4038 9.75058 12.0005 9.75058C12.5973 9.75058 13.1696 9.98763 13.5915 10.4096C14.0135 10.8315 14.2505 11.4038 14.2505 12.0006C14.2582 14.9826 13.6013 17.9288 12.3277 20.6251C12.2857 20.7142 12.2616 20.8107 12.2569 20.9091C12.2522 21.0075 12.2669 21.1058 12.3002 21.1985C12.3335 21.2912 12.3848 21.3764 12.451 21.4493C12.5172 21.5222 12.5972 21.5813 12.6863 21.6233C12.7754 21.6653 12.8718 21.6894 12.9702 21.6941C13.0686 21.6988 13.1669 21.6841 13.2596 21.6508C13.3523 21.6175 13.4376 21.5662 13.5104 21.5C13.5833 21.4337 13.6425 21.3538 13.6845 21.2647C15.0528 18.3685 15.7585 15.2038 15.7505 12.0006C15.7494 11.0064 15.3539 10.0532 14.6509 9.35019C13.9479 8.64717 12.9947 8.25172 12.0005 8.25058ZM8.84965 14.2655C8.65474 14.2262 8.45219 14.2658 8.28643 14.3756C8.12068 14.4854 8.00527 14.6565 7.96553 14.8513C7.66169 16.3491 7.117 17.7877 6.35264 19.1111C6.30335 19.1964 6.27136 19.2906 6.25848 19.3883C6.24561 19.486 6.25211 19.5853 6.27761 19.6804C6.30311 19.7756 6.34712 19.8648 6.40712 19.943C6.46711 20.0212 6.54192 20.0867 6.62726 20.136C6.71261 20.1852 6.80682 20.2172 6.90452 20.23C7.00221 20.2428 7.10148 20.2362 7.19664 20.2107C7.2918 20.1851 7.38099 20.1411 7.45911 20.081C7.53724 20.021 7.60277 19.9461 7.65196 19.8608C8.49727 18.3971 9.0996 16.8061 9.4355 15.1496C9.47505 14.9547 9.43555 14.752 9.32568 14.5862C9.21581 14.4204 9.04458 14.3051 8.84965 14.2655ZM12.0005 5.25058C11.7188 5.25059 11.4372 5.26802 11.1576 5.30277C11.0599 5.31497 10.9655 5.3463 10.8799 5.39498C10.7943 5.44365 10.7191 5.50872 10.6586 5.58646C10.5981 5.66419 10.5535 5.75308 10.5274 5.84805C10.5013 5.94301 10.4941 6.04219 10.5063 6.13992C10.5309 6.33731 10.633 6.51682 10.79 6.63896C10.8677 6.69944 10.9566 6.74401 11.0516 6.77014C11.1465 6.79627 11.2457 6.80343 11.3435 6.79123C11.5614 6.76412 11.7809 6.75055 12.0005 6.75058C13.3924 6.75214 14.7269 7.30577 15.7111 8.29C16.6953 9.27422 17.249 10.6087 17.2505 12.0006C17.2506 12.9724 17.1905 13.9433 17.0706 14.9077C17.046 15.105 17.1008 15.3041 17.223 15.4611C17.3451 15.6181 17.5246 15.7201 17.722 15.7447C17.9194 15.7693 18.1185 15.7146 18.2755 15.5924C18.4325 15.4702 18.5345 15.2907 18.5591 15.0933C18.6866 14.0673 18.7505 13.0345 18.7505 12.0006C18.7485 10.211 18.0367 8.49527 16.7713 7.22984C15.5058 5.9644 13.7901 5.2526 12.0005 5.25058ZM17.4314 17.2742C17.3361 17.2496 17.2368 17.244 17.1392 17.2578C17.0417 17.2716 16.9478 17.3045 16.863 17.3545C16.7782 17.4046 16.7041 17.471 16.6449 17.5497C16.5857 17.6285 16.5427 17.7181 16.5182 17.8135C16.3809 18.3468 16.2226 18.8814 16.0477 19.4024C16.0164 19.4958 16.0037 19.5944 16.0105 19.6927C16.0173 19.791 16.0433 19.8869 16.0872 19.9751C16.1311 20.0633 16.1918 20.142 16.2661 20.2067C16.3404 20.2713 16.4267 20.3208 16.52 20.3521C16.6134 20.3835 16.712 20.3961 16.8103 20.3893C16.9086 20.3826 17.0045 20.3565 17.0927 20.3126C17.1809 20.2688 17.2596 20.208 17.3243 20.1337C17.3889 20.0595 17.4384 19.9732 17.4697 19.8798C17.656 19.3248 17.8247 18.7554 17.9708 18.1874C17.9953 18.0921 18.0009 17.9928 17.9871 17.8953C17.9732 17.7978 17.9404 17.7039 17.8903 17.6191C17.8402 17.5343 17.7739 17.4602 17.6952 17.401C17.6164 17.3418 17.5268 17.2987 17.4314 17.2742V17.2742Z" fill="#1D1F21" style="fill: var(--ui-icon-primary-color);"/>
</svg>
