<svg  viewBox="0 0 24 24" fill="none" xmlns="http://www.w3.org/2000/svg" id="__THIS_ID_NEEDS_FOR_UI_ICON_COMPONENT__">
<path d="M17.2484 12.0005C17.2538 15.0309 16.6634 18.0328 15.5108 20.8354C15.4351 21.0193 15.2895 21.1656 15.106 21.2422C14.9224 21.3187 14.716 21.3192 14.5321 21.2436C14.3482 21.168 14.2018 21.0224 14.1252 20.8389C14.0485 20.6554 14.0479 20.449 14.1235 20.2651C15.2015 17.6433 15.7536 14.8352 15.7484 12.0005C15.7484 11.8016 15.8274 11.6108 15.9681 11.4702C16.1087 11.3295 16.2995 11.2505 16.4984 11.2505C16.6973 11.2505 16.8881 11.3295 17.0287 11.4702C17.1694 11.6108 17.2484 11.8016 17.2484 12.0005L17.2484 12.0005ZM11.9984 8.25049C12.526 8.25087 13.0475 8.36237 13.5291 8.57774C14.0107 8.7931 14.4415 9.1075 14.7935 9.50046C14.8592 9.57396 14.9387 9.63379 15.0275 9.67655C15.1163 9.7193 15.2126 9.74413 15.3111 9.74962C15.4095 9.75511 15.508 9.74115 15.601 9.70855C15.694 9.67594 15.7797 9.62533 15.8531 9.55959C15.9265 9.49386 15.9863 9.4143 16.0289 9.32546C16.0716 9.23662 16.0963 9.14024 16.1017 9.04183C16.1071 8.94342 16.0931 8.84491 16.0604 8.75194C16.0277 8.65896 15.977 8.57334 15.9112 8.49997C15.2023 7.70761 14.2695 7.14915 13.2363 6.89849C12.203 6.64783 11.118 6.71677 10.1249 7.09621C9.13166 7.47565 8.27708 8.14769 7.67417 9.02342C7.07126 9.89915 6.74844 10.9373 6.74842 12.0005C6.74891 14.1599 6.20129 16.2841 5.15687 18.1741C5.10903 18.2602 5.07862 18.3549 5.0674 18.4528C5.05618 18.5507 5.06436 18.6499 5.09147 18.7446C5.11857 18.8393 5.16408 18.9278 5.22539 19.0049C5.2867 19.082 5.36261 19.1463 5.44878 19.1941C5.53494 19.2419 5.62968 19.2723 5.72758 19.2834C5.82548 19.2946 5.92462 19.2863 6.01933 19.2592C6.11404 19.232 6.20247 19.1864 6.27956 19.1251C6.35666 19.0637 6.42091 18.9878 6.46864 18.9016C7.63635 16.7889 8.24873 14.4144 8.24842 12.0005C8.24956 11.0063 8.64501 10.0531 9.34803 9.3501C10.051 8.64709 11.0042 8.25163 11.9984 8.25049ZM6.49858 5.85099C6.57196 5.78531 6.6317 5.70581 6.67436 5.61705C6.71703 5.52828 6.74179 5.43198 6.74724 5.33365C6.75269 5.23531 6.73872 5.13686 6.70612 5.04393C6.67352 4.95099 6.62294 4.86538 6.55726 4.792C6.49158 4.71861 6.41209 4.65888 6.32332 4.61621C6.23455 4.57354 6.13825 4.54878 6.03992 4.54333C5.94158 4.53788 5.84313 4.55185 5.7502 4.58445C5.65726 4.61705 5.57166 4.66763 5.49827 4.73331C4.47656 5.64845 3.6591 6.76856 3.09916 8.02069C2.53921 9.27282 2.24934 10.6289 2.24842 12.0005C2.25129 13.1869 1.99616 14.3597 1.50071 15.4377C1.45956 15.5272 1.43644 15.6239 1.43269 15.7224C1.42894 15.8208 1.44462 15.9191 1.47885 16.0115C1.51308 16.1039 1.56518 16.1886 1.63217 16.2609C1.69916 16.3331 1.77973 16.3915 1.86928 16.4326C1.95883 16.4737 2.0556 16.4967 2.15406 16.5004C2.25252 16.5041 2.35074 16.4883 2.44311 16.454C2.53548 16.4198 2.62019 16.3676 2.6924 16.3006C2.7646 16.2335 2.82289 16.1529 2.86393 16.0633C3.44985 14.7892 3.75165 13.4029 3.74842 12.0005C3.74924 10.8398 3.99456 9.69233 4.46841 8.63278C4.94225 7.57322 5.634 6.62538 6.49857 5.85099H6.49858ZM11.9984 2.25049C10.8914 2.24922 9.79226 2.43691 8.74839 2.80549C8.561 2.8719 8.40765 3.00999 8.32203 3.18942C8.23641 3.36884 8.22553 3.57492 8.29178 3.76236C8.35803 3.94981 8.49599 4.10328 8.67534 4.18905C8.8547 4.27482 9.06076 4.28588 9.24826 4.21979C10.4928 3.78124 11.8244 3.64739 13.1314 3.82946C14.4383 4.01153 15.6826 4.50422 16.7599 5.26624C17.8372 6.02825 18.7162 7.0374 19.3232 8.2091C19.9301 9.3808 20.2474 10.6809 20.2484 12.0005C20.2491 13.9633 20.031 15.92 19.5979 17.8344C19.5761 17.9305 19.5733 18.0299 19.5899 18.1271C19.6065 18.2242 19.642 18.3171 19.6945 18.4005C19.747 18.4839 19.8155 18.5561 19.8959 18.613C19.9763 18.67 20.0672 18.7105 20.1633 18.7323C20.2593 18.7541 20.3588 18.7568 20.4559 18.7401C20.553 18.7235 20.6459 18.6879 20.7293 18.6353C20.8126 18.5828 20.8848 18.5143 20.9417 18.4338C20.9986 18.3534 21.039 18.2625 21.0608 18.1664C21.5185 16.143 21.7491 14.075 21.7484 12.0005C21.7455 9.41553 20.7173 6.93728 18.8895 5.10943C17.0616 3.28159 14.5834 2.25342 11.9984 2.25049ZM10.678 18.8189C10.4973 18.736 10.291 18.7282 10.1045 18.7974C9.918 18.8665 9.76661 19.0069 9.6836 19.1877C9.50297 19.5812 9.30447 19.9734 9.09382 20.3535C9.04606 20.4396 9.01574 20.5343 9.00458 20.6322C8.99342 20.73 9.00165 20.8291 9.02878 20.9238C9.05592 21.0185 9.10144 21.1069 9.16274 21.1839C9.22404 21.261 9.29992 21.3253 9.38605 21.373C9.47219 21.4208 9.56688 21.4511 9.66473 21.4623C9.76258 21.4734 9.86167 21.4652 9.95634 21.4381C10.051 21.4109 10.1394 21.3654 10.2165 21.3041C10.2936 21.2428 10.3578 21.1669 10.4056 21.0808C10.6347 20.6677 10.8504 20.2412 11.0468 19.8133C11.0879 19.7238 11.111 19.6271 11.1147 19.5287C11.1184 19.4303 11.1027 19.3321 11.0684 19.2397C11.0342 19.1474 10.9821 19.0627 10.9151 18.9905C10.8481 18.9183 10.7676 18.86 10.678 18.8189H10.678ZM11.9973 11.2504C11.7984 11.2504 11.6077 11.3294 11.467 11.4701C11.3264 11.6107 11.2473 11.8015 11.2473 12.0004C11.2481 13.4552 11.0655 14.9043 10.7039 16.3135C10.6793 16.4088 10.6738 16.5081 10.6876 16.6056C10.7014 16.7032 10.7343 16.797 10.7844 16.8818C10.8345 16.9666 10.9008 17.0407 10.9795 17.0999C11.0582 17.1591 11.1479 17.2022 11.2432 17.2267C11.3386 17.2513 11.4379 17.2568 11.5354 17.243C11.633 17.2292 11.7268 17.1963 11.8116 17.1462C11.8964 17.0961 11.9705 17.0298 12.0297 16.9511C12.0889 16.8724 12.132 16.7827 12.1565 16.6874C12.5496 15.1561 12.7481 13.5813 12.7473 12.0004C12.7473 11.8015 12.6683 11.6107 12.5276 11.4701C12.387 11.3294 12.1962 11.2504 11.9973 11.2504H11.9973Z" fill="#1D1F21" style="fill: var(--ui-icon-primary-color);"/>
</svg>
