<svg  viewBox="0 0 24 24" fill="none" xmlns="http://www.w3.org/2000/svg" id="__THIS_ID_NEEDS_FOR_UI_ICON_COMPONENT__">
<path d="M9.75 13.125C9.75 13.3475 9.68402 13.565 9.5604 13.75C9.43679 13.935 9.26109 14.0792 9.05552 14.1644C8.84995 14.2495 8.62375 14.2718 8.40552 14.2284C8.18729 14.185 7.98684 14.0778 7.8295 13.9205C7.67217 13.7632 7.56502 13.5627 7.52162 13.3445C7.47821 13.1263 7.50049 12.9001 7.58564 12.6945C7.67078 12.4889 7.81498 12.3132 7.99998 12.1896C8.18499 12.066 8.4025 12 8.625 12C8.92327 12.0003 9.20922 12.119 9.42013 12.3299C9.63103 12.5408 9.74967 12.8267 9.75 13.125ZM15.375 12C15.1525 12 14.935 12.066 14.75 12.1896C14.565 12.3132 14.4208 12.4889 14.3356 12.6945C14.2505 12.9001 14.2282 13.1263 14.2716 13.3445C14.315 13.5627 14.4222 13.7632 14.5795 13.9205C14.7368 14.0778 14.9373 14.185 15.1555 14.2284C15.3738 14.2718 15.6 14.2495 15.8055 14.1644C16.0111 14.0792 16.1868 13.935 16.3104 13.75C16.434 13.565 16.5 13.3475 16.5 13.125C16.4997 12.8267 16.381 12.5408 16.1701 12.3299C15.9592 12.119 15.6733 12.0003 15.375 12ZM22.5 6.00001V13.5C22.498 15.2896 21.7862 17.0053 20.5207 18.2708C19.2553 19.5362 17.5396 20.248 15.75 20.25H8.25C6.46041 20.248 4.74469 19.5362 3.47926 18.2708C2.21382 17.0053 1.50202 15.2896 1.5 13.5V6.00001C1.50005 5.26981 1.7664 4.56469 2.24912 4.01682C2.73185 3.46894 3.39781 3.11592 4.12219 3.02392C4.84657 2.93191 5.57964 3.10725 6.184 3.51705C6.78836 3.92686 7.22252 4.54301 7.40511 5.25001H16.5949C16.7775 4.54301 17.2116 3.92686 17.816 3.51705C18.4204 3.10725 19.1534 2.93191 19.8778 3.02392C20.6022 3.11592 21.2682 3.46894 21.7509 4.01682C22.2336 4.56469 22.5 5.26981 22.5 6.00001ZM18.75 12.75C18.75 12.356 18.6724 11.9659 18.5216 11.602C18.3709 11.238 18.1499 10.9073 17.8713 10.6287C17.5928 10.3501 17.262 10.1291 16.8981 9.97836C16.5341 9.8276 16.144 9.75 15.75 9.75001H8.25C7.45435 9.75001 6.69129 10.0661 6.12868 10.6287C5.56607 11.1913 5.25 11.9544 5.25 12.75V13.5C5.25001 14.2957 5.56608 15.0587 6.12869 15.6213C6.6913 16.1839 7.45435 16.5 8.25 16.5H15.75C16.5456 16.5 17.3087 16.1839 17.8713 15.6213C18.4339 15.0587 18.75 14.2957 18.75 13.5V12.75Z" fill="#1D1F21" style="fill: var(--ui-icon-primary-color);"/>
</svg>
