<svg  viewBox="0 0 24 24" fill="none" xmlns="http://www.w3.org/2000/svg" id="__THIS_ID_NEEDS_FOR_UI_ICON_COMPONENT__">
<path d="M20.25 14.25C20.25 16.438 19.3808 18.5365 17.8336 20.0836C16.2865 21.6308 14.188 22.5 12 22.5C9.81196 22.5 7.71354 21.6308 6.16637 20.0836C4.61919 18.5365 3.75 16.438 3.75 14.25C3.75 12.0734 4.47029 9.83973 5.89082 7.61088C5.94678 7.52308 6.0204 7.4479 6.107 7.39011C6.1936 7.33233 6.29129 7.29321 6.39384 7.27524C6.49638 7.25728 6.60155 7.26086 6.70264 7.28577C6.80373 7.31067 6.89852 7.35635 6.98099 7.4199L9.39555 9.28016L12.0451 1.99366C12.0855 1.88254 12.1517 1.78255 12.2381 1.70185C12.3245 1.62115 12.4288 1.56202 12.5424 1.5293C12.656 1.49657 12.7758 1.49118 12.8919 1.51355C13.008 1.53592 13.1171 1.58543 13.2105 1.65803C13.4979 1.88151 20.25 7.21409 20.25 14.25Z" fill="#1D1F21" style="fill: var(--ui-icon-primary-color);"/>
</svg>
