<svg  viewBox="0 0 24 24" fill="none" xmlns="http://www.w3.org/2000/svg" id="__THIS_ID_NEEDS_FOR_UI_ICON_COMPONENT__">
<path d="M20.2495 6.75H12.25L9.64847 4.79956C9.3891 4.60585 9.07424 4.50081 8.75052 4.5H3.74954C3.35184 4.50039 2.97054 4.65855 2.68932 4.93977C2.4081 5.22099 2.24993 5.6023 2.24954 6V18.75C2.24993 19.1477 2.4081 19.529 2.68932 19.8102C2.97054 20.0914 3.35184 20.2496 3.74954 20.25H20.333C20.7086 20.2495 21.0685 20.1001 21.3341 19.8345C21.5996 19.569 21.749 19.209 21.7495 18.8335V8.25C21.7491 7.8523 21.591 7.47099 21.3098 7.18977C21.0285 6.90855 20.6472 6.75039 20.2495 6.75ZM14.2495 14.2502H9.74945C9.55054 14.2502 9.35977 14.1712 9.21912 14.0305C9.07847 13.8899 8.99945 13.6991 8.99945 13.5002C8.99945 13.3013 9.07847 13.1105 9.21912 12.9699C9.35977 12.8292 9.55054 12.7502 9.74945 12.7502H14.2495C14.4484 12.7502 14.6391 12.8292 14.7798 12.9699C14.9204 13.1105 14.9995 13.3013 14.9995 13.5002C14.9995 13.6991 14.9204 13.8899 14.7798 14.0305C14.6391 14.1712 14.4484 14.2502 14.2495 14.2502Z" fill="#1D1F21" style="fill: var(--ui-icon-primary-color);"/>
</svg>
