<svg  viewBox="0 0 24 24" fill="none" xmlns="http://www.w3.org/2000/svg" id="__THIS_ID_NEEDS_FOR_UI_ICON_COMPONENT__">
<path d="M20.2495 6.75001H12.3101L9.74954 4.18946C9.61062 4.04971 9.44534 3.93891 9.2633 3.86347C9.08125 3.78804 8.88605 3.74947 8.689 3.75001H3.74954C3.35184 3.7504 2.97054 3.90856 2.68932 4.18978C2.4081 4.471 2.24993 4.8523 2.24954 5.25001V18.8079C2.25007 19.1903 2.40228 19.5569 2.67277 19.8273C2.94327 20.0977 3.30997 20.2497 3.69241 20.25H20.333C20.7086 20.2495 21.0685 20.1001 21.3341 19.8345C21.5996 19.569 21.749 19.209 21.7495 18.8335V8.25C21.7491 7.8523 21.591 7.471 21.3098 7.18978C21.0285 6.90856 20.6472 6.7504 20.2495 6.75001ZM3.74954 5.25001H8.689L10.189 6.75001H3.74954V5.25001ZM14.2495 14.2502H9.74954C9.55063 14.2502 9.35986 14.1712 9.21921 14.0305C9.07856 13.8899 8.99954 13.6991 8.99954 13.5002C8.99954 13.3013 9.07856 13.1105 9.21921 12.9699C9.35986 12.8292 9.55063 12.7502 9.74954 12.7502H14.2495C14.4485 12.7502 14.6392 12.8292 14.7799 12.9699C14.9205 13.1105 14.9995 13.3013 14.9995 13.5002C14.9995 13.6991 14.9205 13.8899 14.7799 14.0305C14.6392 14.1712 14.4485 14.2502 14.2495 14.2502Z" fill="#1D1F21" style="fill: var(--ui-icon-primary-color);"/>
</svg>
