<svg  viewBox="0 0 24 24" fill="none" xmlns="http://www.w3.org/2000/svg" id="__THIS_ID_NEEDS_FOR_UI_ICON_COMPONENT__">
<path d="M20.2495 6.75H12.249L9.64847 4.79956C9.3891 4.60585 9.07424 4.50081 8.75052 4.5H3.74954C3.35184 4.50039 2.97054 4.65855 2.68932 4.93977C2.4081 5.22099 2.24993 5.6023 2.24954 6V18.75C2.24993 19.1477 2.4081 19.529 2.68932 19.8102C2.97054 20.0914 3.35184 20.2496 3.74954 20.25H20.2495C20.6472 20.2496 21.0285 20.0914 21.3098 19.8102C21.591 19.529 21.7491 19.1477 21.7495 18.75V8.25C21.7491 7.8523 21.591 7.47099 21.3098 7.18977C21.0285 6.90855 20.6472 6.75039 20.2495 6.75ZM3.74954 9V6H8.75052L10.7498 7.49991L8.74905 9H3.74954ZM14.2497 14.6252H12.7497V16.1252C12.7497 16.3241 12.6707 16.5149 12.5301 16.6555C12.3894 16.7962 12.1986 16.8752 11.9997 16.8752C11.8008 16.8752 11.61 16.7962 11.4694 16.6555C11.3287 16.5149 11.2497 16.3241 11.2497 16.1252V14.6252H9.74973C9.55081 14.6252 9.36005 14.5462 9.2194 14.4055C9.07874 14.2649 8.99973 14.0741 8.99973 13.8752C8.99973 13.6763 9.07874 13.4855 9.2194 13.3449C9.36005 13.2042 9.55081 13.1252 9.74973 13.1252H11.2497V11.6252C11.2497 11.4263 11.3287 11.2355 11.4694 11.0949C11.61 10.9542 11.8008 10.8752 11.9997 10.8752C12.1986 10.8752 12.3894 10.9542 12.5301 11.0949C12.6707 11.2355 12.7497 11.4263 12.7497 11.6252V13.1252H14.2497C14.4486 13.1252 14.6394 13.2042 14.7801 13.3449C14.9207 13.4855 14.9997 13.6763 14.9997 13.8752C14.9997 14.0741 14.9207 14.2649 14.7801 14.4055C14.6394 14.5462 14.4486 14.6252 14.2497 14.6252Z" fill="#1D1F21" style="fill: var(--ui-icon-primary-color);"/>
</svg>
