<svg  viewBox="0 0 24 24" fill="none" xmlns="http://www.w3.org/2000/svg" id="__THIS_ID_NEEDS_FOR_UI_ICON_COMPONENT__">
<path d="M20.2495 6.75H12.25L9.64847 4.79956C9.3891 4.60585 9.07424 4.50081 8.75052 4.5H3.74954C3.35184 4.50039 2.97054 4.65855 2.68932 4.93977C2.4081 5.22099 2.24993 5.6023 2.24954 6V18.75C2.24993 19.1477 2.4081 19.529 2.68932 19.8102C2.97054 20.0914 3.35184 20.2496 3.74954 20.25H20.333C20.7086 20.2495 21.0685 20.1001 21.3341 19.8345C21.5996 19.569 21.749 19.209 21.7495 18.8335V8.25C21.7491 7.8523 21.591 7.47099 21.3098 7.18977C21.0285 6.90855 20.6472 6.75039 20.2495 6.75ZM14.25 14.2502H12.75V15.7502C12.75 15.9491 12.671 16.1399 12.5303 16.2805C12.3897 16.4212 12.1989 16.5002 12 16.5002C11.8011 16.5002 11.6103 16.4212 11.4697 16.2805C11.329 16.1399 11.25 15.9491 11.25 15.7502V14.2502H9.75C9.55109 14.2502 9.36032 14.1712 9.21967 14.0305C9.07902 13.8899 9 13.6991 9 13.5002C9 13.3013 9.07902 13.1105 9.21967 12.9699C9.36032 12.8292 9.55109 12.7502 9.75 12.7502H11.25V11.2502C11.25 11.0513 11.329 10.8605 11.4697 10.7199C11.6103 10.5792 11.8011 10.5002 12 10.5002C12.1989 10.5002 12.3897 10.5792 12.5303 10.7199C12.671 10.8605 12.75 11.0513 12.75 11.2502V12.7502H14.25C14.4489 12.7502 14.6397 12.8292 14.7803 12.9699C14.921 13.1105 15 13.3013 15 13.5002C15 13.6991 14.921 13.8899 14.7803 14.0305C14.6397 14.1712 14.4489 14.2502 14.25 14.2502Z" fill="#1D1F21" style="fill: var(--ui-icon-primary-color);"/>
</svg>
