<svg  viewBox="0 0 24 24" fill="none" xmlns="http://www.w3.org/2000/svg" id="__THIS_ID_NEEDS_FOR_UI_ICON_COMPONENT__">
<path d="M22.6763 10.3729C22.5371 10.1803 22.3543 10.0235 22.1427 9.91518C21.9312 9.8069 21.697 9.7503 21.4594 9.75H20.25V8.25C20.2495 7.85231 20.0914 7.47105 19.8102 7.18984C19.529 6.90864 19.1477 6.75045 18.75 6.75H12.25L9.65003 4.80002C9.39004 4.60589 9.07443 4.50069 8.74997 4.5H3.75C3.35231 4.50045 2.97105 4.65864 2.68984 4.93984C2.40864 5.22105 2.25045 5.60231 2.25 6V19.5C2.25003 19.5265 2.25145 19.5529 2.25426 19.5793C2.25453 19.5818 2.25513 19.5844 2.25545 19.5869C2.25842 19.6126 2.26275 19.6381 2.2684 19.6634C2.26987 19.6701 2.27188 19.6768 2.27357 19.6835C2.27889 19.7047 2.28497 19.7255 2.29207 19.7459C2.29463 19.7532 2.29729 19.7604 2.30008 19.7677C2.30795 19.7883 2.31673 19.8085 2.3264 19.8282C2.32928 19.8342 2.33194 19.8402 2.33505 19.8461C2.36128 19.8964 2.39315 19.9436 2.43004 19.9867C2.43572 19.9934 2.44171 19.9996 2.44762 20.0061C2.4608 20.0205 2.47449 20.0343 2.48881 20.0477C2.49564 20.0541 2.50241 20.0604 2.50946 20.0665C2.52557 20.0804 2.54228 20.0935 2.55954 20.1061C2.56467 20.1098 2.56956 20.1139 2.57483 20.1175C2.59811 20.1336 2.62228 20.1484 2.64725 20.1617C2.64963 20.163 2.65215 20.164 2.65453 20.1653C2.67702 20.1769 2.70011 20.1875 2.72369 20.1968C2.73038 20.1994 2.7372 20.2017 2.74402 20.2042C2.76384 20.2115 2.78404 20.2178 2.80463 20.2234C2.8126 20.2256 2.82047 20.2277 2.82848 20.2295C2.84898 20.2343 2.86981 20.2381 2.89091 20.2412C2.89856 20.2423 2.90616 20.2438 2.91385 20.2447C2.94244 20.2481 2.9712 20.2499 3 20.25H19.5C19.6574 20.25 19.8108 20.2005 19.9385 20.1084C20.0662 20.0164 20.1618 19.8865 20.2115 19.7372L22.8824 11.7243C22.9573 11.4988 22.9776 11.2588 22.9418 11.0238C22.906 10.7889 22.815 10.5659 22.6763 10.3729ZM8.74997 6L11.35 7.94998C11.61 8.14411 11.9256 8.24931 12.25 8.25H18.75V9.75H13.7271C13.4309 9.74972 13.1413 9.83741 12.895 10.002L11.0229 11.25H6.50775C6.20774 11.249 5.9144 11.3385 5.66598 11.5067C5.41755 11.6748 5.22556 11.914 5.11505 12.1929L3.75 15.6056V6H8.74997Z" fill="#1D1F21" style="fill: var(--ui-icon-primary-color);"/>
</svg>
