<svg  viewBox="0 0 24 24" fill="none" xmlns="http://www.w3.org/2000/svg" id="__THIS_ID_NEEDS_FOR_UI_ICON_COMPONENT__">
<path d="M20.2495 6.75H12.249L9.64847 4.79956C9.3891 4.60585 9.07424 4.50081 8.75052 4.5H3.74954C3.35184 4.50039 2.97054 4.65855 2.68932 4.93977C2.4081 5.22099 2.24993 5.6023 2.24954 6V18.75C2.24993 19.1477 2.4081 19.529 2.68932 19.8102C2.97054 20.0914 3.35184 20.2496 3.74954 20.25H20.2495C20.6472 20.2496 21.0285 20.0914 21.3098 19.8102C21.591 19.529 21.7491 19.1477 21.7495 18.75V8.25C21.7491 7.8523 21.591 7.47099 21.3098 7.18977C21.0285 6.90855 20.6472 6.75039 20.2495 6.75ZM3.74954 6H8.75052L10.7498 7.49991L8.74905 9H3.74954V6Z" fill="#1D1F21" style="fill: var(--ui-icon-primary-color);"/>
</svg>
