<svg  viewBox="0 0 24 24" fill="none" xmlns="http://www.w3.org/2000/svg" id="__THIS_ID_NEEDS_FOR_UI_ICON_COMPONENT__">
<path d="M22.6763 10.3729C22.5371 10.1803 22.3543 10.0235 22.1427 9.91518C21.9312 9.8069 21.697 9.7503 21.4594 9.75H20.25V8.25C20.2495 7.85231 20.0914 7.47105 19.8102 7.18984C19.529 6.90864 19.1477 6.75045 18.75 6.75H12.25L9.65003 4.80002C9.39004 4.60589 9.07443 4.50069 8.74997 4.5H3.75C3.35231 4.50045 2.97105 4.65864 2.68984 4.93984C2.40864 5.22105 2.25045 5.60231 2.25 6V19.5C2.25 19.5048 2.25064 19.5094 2.25073 19.5142C2.25092 19.5247 2.25165 19.5352 2.25229 19.5457C2.25339 19.5636 2.25494 19.5813 2.25723 19.5988C2.25851 19.6083 2.25996 19.6178 2.26158 19.6273C2.26488 19.6464 2.26895 19.6653 2.27367 19.684C2.27563 19.6917 2.27742 19.6995 2.27967 19.7072C2.28608 19.7296 2.29358 19.7515 2.30196 19.7729C2.30352 19.7769 2.30475 19.7809 2.30635 19.7849C2.31707 19.8111 2.32928 19.8366 2.34293 19.8614C2.34439 19.8641 2.34618 19.8666 2.34769 19.8693C2.35968 19.8905 2.37267 19.911 2.38665 19.9308C2.38843 19.9333 2.38976 19.936 2.39154 19.9385C2.39489 19.9431 2.39882 19.9471 2.40221 19.9516C2.4137 19.9667 2.4256 19.9815 2.43819 19.9957C2.4446 20.0029 2.45101 20.0101 2.45764 20.0171C2.47092 20.031 2.48483 20.0443 2.49916 20.0571C2.50516 20.0625 2.51088 20.0682 2.51702 20.0734C2.53784 20.091 2.55961 20.1076 2.58225 20.1229L2.58408 20.124C2.60635 20.1387 2.62939 20.1523 2.65311 20.1646C2.65911 20.1677 2.66529 20.1704 2.67137 20.1734C2.6901 20.1825 2.70919 20.191 2.72873 20.1986C2.73615 20.2015 2.74356 20.2041 2.75107 20.2068C2.76993 20.2134 2.78911 20.2193 2.80861 20.2244C2.81653 20.2265 2.82436 20.2287 2.83232 20.2305C2.85237 20.2351 2.87279 20.2386 2.89344 20.2416C2.90085 20.2426 2.90813 20.2441 2.91559 20.245C2.94361 20.2482 2.97179 20.2499 3 20.25H19.5C19.6574 20.25 19.8108 20.2005 19.9385 20.1084C20.0662 20.0164 20.1618 19.8865 20.2115 19.7372L22.8824 11.7243C22.9573 11.4988 22.9776 11.2588 22.9418 11.0239C22.906 10.7889 22.815 10.5659 22.6763 10.3729ZM8.74997 6L11.35 7.94998C11.61 8.14411 11.9256 8.24931 12.25 8.25H18.75V9.75H6.54057C6.22568 9.74972 5.9187 9.84866 5.66324 10.0328C5.40778 10.2169 5.21684 10.4768 5.11752 10.7757L3.75 14.8783V6H8.74997Z" fill="#1D1F21" style="fill: var(--ui-icon-primary-color);"/>
</svg>
