<svg  viewBox="0 0 24 24" fill="none" xmlns="http://www.w3.org/2000/svg" id="__THIS_ID_NEEDS_FOR_UI_ICON_COMPONENT__">
<path d="M21.7495 8.25V18.8335C21.749 19.209 21.5996 19.569 21.3341 19.8345C21.0685 20.1001 20.7086 20.2495 20.333 20.25H3.74954C3.35184 20.2496 2.97054 20.0914 2.68932 19.8102C2.4081 19.529 2.24994 19.1477 2.24954 18.75V6C2.24994 5.6023 2.4081 5.22099 2.68932 4.93977C2.97054 4.65855 3.35184 4.50039 3.74954 4.5H8.75052C9.07424 4.50081 9.3891 4.60585 9.64847 4.79956L12.25 6.75H20.2495C20.6472 6.75039 21.0286 6.90855 21.3098 7.18977C21.591 7.47099 21.7492 7.8523 21.7495 8.25Z" fill="#1D1F21" style="fill: var(--ui-icon-primary-color);"/>
</svg>
