<svg  viewBox="0 0 24 24" fill="none" xmlns="http://www.w3.org/2000/svg" id="__THIS_ID_NEEDS_FOR_UI_ICON_COMPONENT__">
<path d="M12 7.49999C12 7.50667 11.9995 7.51322 11.9995 7.51986C11.9994 7.52448 11.9994 7.52906 11.9991 7.53364C11.9901 8.4912 11.6486 9.41586 11.0331 10.1495C10.4177 10.8831 9.56641 11.3801 8.625 11.5554V21C8.625 21.1989 8.54598 21.3897 8.40533 21.5303C8.26468 21.671 8.07391 21.75 7.875 21.75C7.67609 21.75 7.48532 21.671 7.34467 21.5303C7.20402 21.3897 7.125 21.1989 7.125 21V11.5554C6.18359 11.3801 5.33235 10.8831 4.71687 10.1495C4.1014 9.41586 3.75993 8.49119 3.75087 7.53364C3.75064 7.52906 3.75064 7.52448 3.7505 7.51986C3.75046 7.51322 3.75 7.50667 3.75 7.49999C3.75 7.4929 3.75087 7.48598 3.75105 7.47893C3.75146 7.46538 3.75197 7.45183 3.75312 7.43819C3.75426 7.42451 3.75595 7.41101 3.75778 7.39754C3.75879 7.39059 3.75907 7.38367 3.76021 7.37667L4.51021 2.87667C4.52635 2.77947 4.56148 2.6864 4.6136 2.60278C4.66573 2.51916 4.73381 2.44663 4.81397 2.38934C4.89414 2.33205 4.9848 2.29111 5.08079 2.26887C5.17678 2.24663 5.27621 2.24352 5.3734 2.25972C5.4706 2.27592 5.56364 2.31112 5.64723 2.36329C5.73081 2.41547 5.80329 2.4836 5.86054 2.5638C5.91778 2.644 5.95866 2.73469 5.98084 2.8307C6.00302 2.9267 6.00606 3.02613 5.98979 3.12331L5.38536 6.74999H7.125V2.99999C7.125 2.80108 7.20402 2.61031 7.34467 2.46966C7.48532 2.32901 7.67609 2.24999 7.875 2.24999C8.07391 2.24999 8.26468 2.32901 8.40533 2.46966C8.54598 2.61031 8.625 2.80108 8.625 2.99999V6.74999H10.3646L9.76021 3.12331C9.74394 3.02613 9.74699 2.9267 9.76917 2.8307C9.79135 2.73469 9.83222 2.644 9.88947 2.5638C9.94671 2.4836 10.0192 2.41547 10.1028 2.36329C10.1864 2.31112 10.2794 2.27592 10.3766 2.25972C10.4738 2.24352 10.5732 2.24663 10.6692 2.26887C10.7652 2.29111 10.8559 2.33205 10.936 2.38934C11.0162 2.44663 11.0843 2.51916 11.1364 2.60278C11.1885 2.6864 11.2237 2.77947 11.2398 2.87667L11.9898 7.37667C11.9909 7.38367 11.9912 7.39059 11.9922 7.39754C11.994 7.411 11.9957 7.42451 11.9969 7.43819C11.998 7.45183 11.9985 7.46538 11.999 7.47893C11.9991 7.48598 12 7.4929 12 7.49999ZM19.8743 2.98672C19.8741 2.97125 19.8732 2.95577 19.872 2.94025C19.8712 2.92972 19.8702 2.91929 19.8689 2.9089C19.8673 2.89594 19.8653 2.88299 19.863 2.87003C19.8607 2.85699 19.8582 2.84408 19.8553 2.83131C19.8529 2.82114 19.8502 2.81103 19.8474 2.80091C19.8433 2.78585 19.8388 2.77102 19.8337 2.75637C19.8323 2.75216 19.8314 2.7479 19.8299 2.74369C19.8282 2.73916 19.826 2.73495 19.8243 2.73046C19.8186 2.71577 19.8125 2.70133 19.806 2.68716C19.8018 2.67791 19.7974 2.66878 19.7928 2.65978C19.7866 2.6477 19.7801 2.63581 19.7733 2.62412C19.7672 2.61364 19.7611 2.60334 19.7546 2.59322C19.7484 2.5837 19.7419 2.57445 19.7353 2.56521C19.7274 2.55404 19.7194 2.5431 19.7108 2.53248C19.7046 2.52465 19.6981 2.5171 19.6916 2.50954C19.6822 2.49874 19.6727 2.48807 19.6628 2.47787C19.6558 2.47072 19.6486 2.46386 19.6414 2.45699C19.6314 2.44747 19.6213 2.43813 19.6108 2.42921C19.6024 2.42202 19.5937 2.41524 19.5849 2.40842C19.5751 2.40082 19.5653 2.39327 19.5551 2.38613C19.5447 2.37885 19.534 2.37203 19.5233 2.3653C19.5141 2.35958 19.505 2.35381 19.4957 2.3485C19.4834 2.34154 19.4709 2.33514 19.4583 2.32886C19.4496 2.32456 19.441 2.32026 19.4322 2.31628C19.4189 2.31032 19.4054 2.30492 19.3917 2.2997C19.3827 2.29627 19.3737 2.29284 19.3644 2.28973C19.3513 2.28528 19.338 2.28139 19.3246 2.27769C19.3139 2.27471 19.3032 2.27192 19.2924 2.2694C19.2805 2.2667 19.2685 2.26436 19.2564 2.26221C19.2432 2.25983 19.2301 2.25782 19.2167 2.25617C19.2065 2.25493 19.1963 2.25393 19.1859 2.25306C19.1706 2.25182 19.1552 2.25104 19.1397 2.25072C19.1347 2.25063 19.1299 2.24999 19.125 2.24999C19.1205 2.24999 19.116 2.25059 19.1115 2.25068C19.0962 2.25095 19.0808 2.25178 19.0654 2.25301C19.0548 2.25384 19.0443 2.25479 19.0339 2.25608C19.0209 2.25768 19.008 2.2597 18.995 2.26199C18.982 2.26427 18.9691 2.26679 18.9563 2.26977C18.9462 2.2721 18.936 2.27476 18.9259 2.27755C18.9109 2.28167 18.896 2.2862 18.8814 2.29128C18.8772 2.2927 18.8729 2.29362 18.8687 2.29512C18.8595 2.29851 18.8503 2.30254 18.8411 2.30597C18.8377 2.30739 18.8341 2.30863 18.8306 2.31009C16.8984 3.03624 15.3511 5.40659 14.2315 9.35805C13.7236 11.1814 13.3552 13.0408 13.1293 14.9201C13.1181 15.0247 13.129 15.1305 13.1614 15.2306C13.1938 15.3308 13.2468 15.423 13.3172 15.5012C13.3875 15.5795 13.4735 15.6421 13.5696 15.685C13.6657 15.7278 13.7698 15.75 13.875 15.75H18.375V21C18.375 21.1989 18.454 21.3897 18.5947 21.5303C18.7353 21.671 18.9261 21.75 19.125 21.75C19.3239 21.75 19.5147 21.671 19.6553 21.5303C19.796 21.3897 19.875 21.1989 19.875 21V2.99999C19.875 2.99551 19.8744 2.9912 19.8743 2.98672Z" fill="#1D1F21" style="fill: var(--ui-icon-primary-color);"/>
</svg>
