<svg  viewBox="0 0 24 24" fill="none" xmlns="http://www.w3.org/2000/svg" id="__THIS_ID_NEEDS_FOR_UI_ICON_COMPONENT__">
<path d="M23.1992 17.0384C23.1984 17.0342 23.1977 17.0301 23.1969 17.026L21.664 9.11136C21.6629 9.1054 21.661 9.09982 21.6597 9.09392C21.4225 7.79885 20.7392 6.62778 19.7284 5.7841C18.7177 4.94042 17.4433 4.47745 16.1267 4.47559H16.1245L7.87543 4.49994C6.55206 4.49731 5.27032 4.96238 4.25655 5.81302C3.24279 6.66367 2.5622 7.84517 2.33498 9.14889C2.33379 9.15567 2.33269 9.16253 2.33168 9.16931L0.804127 17.0254C0.803303 17.0298 0.802525 17.0341 0.801747 17.0384C0.677184 17.7452 0.781163 18.4733 1.09859 19.117C1.41601 19.7606 1.93035 20.2864 2.56692 20.6179C3.20349 20.9493 3.92914 21.0692 4.63851 20.9602C5.34787 20.8512 6.00402 20.5189 6.51166 20.0115C6.52526 19.998 6.53826 19.984 6.55066 19.9696L10.369 15.7486L13.6362 15.7355L17.4491 19.9682C17.4618 19.9831 17.4752 19.9975 17.4892 20.0115C17.9969 20.5189 18.653 20.8513 19.3624 20.9604C20.0718 21.0695 20.7975 20.9496 21.4341 20.6181C22.0707 20.2866 22.5851 19.7608 22.9025 19.1171C23.2199 18.4733 23.3238 17.7452 23.1992 17.0384V17.0384ZM9.75002 10.8749H9.00002V11.6249C9.00002 11.8238 8.921 12.0146 8.78035 12.1553C8.6397 12.2959 8.44893 12.3749 8.25002 12.3749C8.05111 12.3749 7.86034 12.2959 7.71969 12.1553C7.57904 12.0146 7.50002 11.8238 7.50002 11.6249V10.8749H6.75002C6.55111 10.8749 6.36034 10.7959 6.21969 10.6553C6.07904 10.5146 6.00002 10.3238 6.00002 10.1249C6.00002 9.92602 6.07904 9.73526 6.21969 9.59461C6.36034 9.45395 6.55111 9.37494 6.75002 9.37494H7.50002V8.62494C7.50002 8.42602 7.57904 8.23526 7.71969 8.09461C7.86034 7.95395 8.05111 7.87494 8.25002 7.87494C8.44893 7.87494 8.6397 7.95395 8.78035 8.09461C8.921 8.23526 9.00002 8.42602 9.00002 8.62494V9.37494H9.75002C9.94893 9.37494 10.1397 9.45395 10.2803 9.59461C10.421 9.73526 10.5 9.92602 10.5 10.1249C10.5 10.3238 10.421 10.5146 10.2803 10.6553C10.1397 10.7959 9.94893 10.8749 9.75002 10.8749ZM13.5 10.1249C13.5 9.92602 13.579 9.73526 13.7197 9.59461C13.8603 9.45396 14.0511 9.37494 14.25 9.37494H17.25C17.4489 9.37494 17.6397 9.45395 17.7803 9.59461C17.921 9.73526 18 9.92602 18 10.1249C18 10.3238 17.921 10.5146 17.7803 10.6553C17.6397 10.7959 17.4489 10.8749 17.25 10.8749H14.25C14.0511 10.8749 13.8603 10.7959 13.7197 10.6553C13.579 10.5146 13.5 10.3238 13.5 10.1249ZM20.201 19.471C19.9077 19.5225 19.6063 19.5035 19.3218 19.4156C19.0372 19.3276 18.7777 19.1733 18.5645 18.9653L15.6478 15.7275L16.1267 15.7256C17.083 15.725 18.0234 15.4807 18.859 15.0156C19.6946 14.5506 20.3979 13.8802 20.9024 13.0678L21.723 17.3046C21.8071 17.7935 21.6942 18.2959 21.409 18.7018C21.1238 19.1078 20.6895 19.3843 20.201 19.471Z" fill="#1D1F21" style="fill: var(--ui-icon-primary-color);"/>
</svg>
