<svg  viewBox="0 0 24 24" fill="none" xmlns="http://www.w3.org/2000/svg" id="__THIS_ID_NEEDS_FOR_UI_ICON_COMPONENT__">
<path d="M22.2205 9.62995C22.1691 9.41346 22.0702 9.2111 21.9311 9.03744C21.792 8.86379 21.616 8.72318 21.416 8.62575L20.0561 7.95339L19.5333 7.04767L19.6309 5.53376C19.6465 5.31181 19.6127 5.08915 19.5319 4.88185C19.4511 4.67455 19.3253 4.48776 19.1635 4.33497C18.0006 3.2326 16.5937 2.42037 15.0576 1.96436C14.8443 1.9007 14.6197 1.88515 14.3997 1.91881C14.1797 1.95248 13.97 2.03453 13.7856 2.15904L12.5234 3.00046H11.4775L10.2154 2.15909C10.031 2.03449 9.82123 1.95239 9.60126 1.9187C9.3813 1.88501 9.15659 1.90057 8.94337 1.96427C7.40722 2.42027 6.00042 3.23249 4.83743 4.33483C4.67565 4.48763 4.5498 4.67443 4.46897 4.88176C4.38814 5.08909 4.35434 5.31178 4.37001 5.53376L4.4676 7.04758L3.94466 7.95331L2.58483 8.62571C2.38478 8.72312 2.20884 8.86373 2.06971 9.03737C1.93058 9.21102 1.83172 9.41338 1.78027 9.62986C1.4071 11.1882 1.4071 12.8127 1.78027 14.3711C1.83172 14.5876 1.93058 14.7899 2.06971 14.9636C2.20884 15.1372 2.38478 15.2778 2.58483 15.3753L3.94466 16.0476L4.46751 16.9534L4.36992 18.4673C4.35427 18.6892 4.38807 18.9119 4.46888 19.1192C4.5497 19.3265 4.67551 19.5133 4.83725 19.6661C6.00024 20.7684 7.40706 21.5807 8.94324 22.0367C9.15645 22.1004 9.38115 22.116 9.60111 22.0823C9.82108 22.0486 10.0308 21.9666 10.2152 21.842L11.4774 21.0006H12.5233L13.7854 21.8419C14.0349 22.0095 14.3284 22.0993 14.6289 22.1001C14.7741 22.1001 14.9185 22.0788 15.0574 22.0368C16.5936 21.5808 18.0004 20.7685 19.1634 19.6662C19.3251 19.5134 19.451 19.3266 19.5318 19.1193C19.6127 18.9119 19.6465 18.6892 19.6308 18.4673L19.5332 16.9535L20.0561 16.0477L21.416 15.3753C21.616 15.2779 21.792 15.1373 21.9311 14.9637C22.0702 14.79 22.1691 14.5876 22.2205 14.3712C22.5937 12.8128 22.5937 11.1883 22.2205 9.62995H22.2205ZM16.5004 12.0005C16.5004 12.8905 16.2365 13.7606 15.742 14.5006C15.2476 15.2406 14.5448 15.8174 13.7225 16.158C12.9002 16.4985 11.9955 16.5877 11.1225 16.414C10.2496 16.2404 9.44781 15.8118 8.81847 15.1825C8.18914 14.5531 7.76056 13.7513 7.58693 12.8784C7.41329 12.0055 7.50241 11.1007 7.843 10.2784C8.18359 9.45618 8.76037 8.75338 9.50039 8.25891C10.2404 7.76445 11.1104 7.50053 12.0004 7.50053C13.1935 7.50188 14.3373 7.97642 15.1809 8.82003C16.0245 9.66365 16.4991 10.8075 16.5004 12.0005Z" fill="#1D1F21" style="fill: var(--ui-icon-primary-color);"/>
</svg>
