<svg  viewBox="0 0 24 24" fill="none" xmlns="http://www.w3.org/2000/svg" id="__THIS_ID_NEEDS_FOR_UI_ICON_COMPONENT__">
<path d="M13.5 6.75001V17.25C13.5 17.4489 13.421 17.6397 13.2803 17.7803C13.1397 17.921 12.9489 18 12.75 18C12.5511 18 12.3603 17.921 12.2197 17.7803C12.079 17.6397 12 17.4489 12 17.25V6.75001C12 6.5511 12.079 6.36033 12.2197 6.21968C12.3603 6.07903 12.5511 6.00001 12.75 6.00001C12.9489 6.00001 13.1397 6.07903 13.2803 6.21968C13.421 6.36033 13.5 6.5511 13.5 6.75001ZM21.375 6.00001H16.875C16.6761 6.00002 16.4853 6.07904 16.3447 6.21969C16.204 6.36034 16.125 6.5511 16.125 6.75001V17.25C16.125 17.4489 16.204 17.6397 16.3447 17.7803C16.4853 17.921 16.6761 18 16.875 18C17.0739 18 17.2647 17.921 17.4053 17.7803C17.546 17.6397 17.625 17.4489 17.625 17.25V12.75H20.25C20.4489 12.75 20.6397 12.671 20.7803 12.5303C20.921 12.3897 21 12.1989 21 12C21 11.8011 20.921 11.6103 20.7803 11.4697C20.6397 11.329 20.4489 11.25 20.25 11.25H17.625V7.50001H21.375C21.5739 7.50001 21.7647 7.42099 21.9053 7.28034C22.046 7.13969 22.125 6.94892 22.125 6.75001C22.125 6.5511 22.046 6.36033 21.9053 6.21968C21.7647 6.07903 21.5739 6.00001 21.375 6.00001ZM9 11.25H6.75C6.55109 11.25 6.36032 11.329 6.21967 11.4697C6.07902 11.6103 6 11.8011 6 12C6 12.1989 6.07902 12.3897 6.21967 12.5303C6.36032 12.671 6.55109 12.75 6.75 12.75H8.25V14.25C8.25 14.8467 8.01295 15.419 7.59099 15.841C7.16903 16.263 6.59674 16.5 6 16.5C5.40326 16.5 4.83097 16.263 4.40901 15.841C3.98705 15.419 3.75 14.8467 3.75 14.25V9.75001C3.75011 9.20238 3.9499 8.67358 4.31194 8.2627C4.67397 7.85181 5.17341 7.58703 5.71666 7.51797C6.25992 7.44891 6.80972 7.58031 7.26304 7.88755C7.71636 8.19479 8.04211 8.65678 8.17923 9.18696C8.2037 9.28243 8.24674 9.37214 8.3059 9.45096C8.36506 9.52978 8.43917 9.59617 8.524 9.64634C8.60884 9.6965 8.70273 9.72945 8.8003 9.7433C8.89788 9.75715 8.99722 9.75164 9.09267 9.72707C9.18811 9.7025 9.27777 9.65936 9.35653 9.60012C9.43529 9.54088 9.50161 9.46669 9.55168 9.38181C9.60175 9.29692 9.6346 9.203 9.64835 9.10541C9.6621 9.00782 9.65647 8.90847 9.63181 8.81306C9.40366 7.92922 8.861 7.15892 8.10555 6.64655C7.3501 6.13418 6.43372 5.91492 5.52818 6.02986C4.62263 6.1448 3.79009 6.58605 3.1866 7.2709C2.58311 7.95576 2.2501 8.8372 2.25 9.75001V14.25C2.25 15.2446 2.64509 16.1984 3.34835 16.9017C4.05161 17.6049 5.00544 18 6 18C6.99456 18 7.94839 17.6049 8.65165 16.9017C9.35491 16.1984 9.75 15.2446 9.75 14.25V12C9.74999 11.8011 9.67097 11.6103 9.53032 11.4697C9.38967 11.329 9.19891 11.25 9 11.25Z" fill="#1D1F21" style="fill: var(--ui-icon-primary-color);"/>
</svg>
