<svg  viewBox="0 0 24 24" fill="none" xmlns="http://www.w3.org/2000/svg" id="__THIS_ID_NEEDS_FOR_UI_ICON_COMPONENT__">
<g clip-path="url(#clip0)">
<path d="M24.0002 12C24.0002 12.1989 23.9212 12.3897 23.7806 12.5303C23.6399 12.671 23.4491 12.75 23.2502 12.75H17.5737C17.3925 14.0997 16.7276 15.3377 15.7026 16.2343C14.6776 17.1308 13.362 17.625 12.0002 17.625C10.6384 17.625 9.3229 17.1308 8.29788 16.2343C7.27286 15.3377 6.608 14.0997 6.42673 12.75H0.750229C0.551316 12.75 0.360551 12.671 0.219899 12.5303C0.0792465 12.3897 0.000228882 12.1989 0.000228882 12C0.000228882 11.8011 0.0792465 11.6103 0.219899 11.4697C0.360551 11.329 0.551316 11.25 0.750229 11.25H6.42673C6.608 9.90032 7.27286 8.66227 8.29788 7.76571C9.3229 6.86915 10.6384 6.375 12.0002 6.375C13.362 6.375 14.6776 6.86915 15.7026 7.76571C16.7276 8.66227 17.3925 9.90032 17.5737 11.25H23.2502C23.4491 11.25 23.6399 11.329 23.7806 11.4697C23.9212 11.6103 24.0002 11.8011 24.0002 12Z" fill="#1D1F21" style="fill: var(--ui-icon-primary-color);"/>
</g>
<defs>
<clipPath id="clip0">
<rect  fill="white" style="fill: var(--ui-icon-secondary-color);"/>
</clipPath>
</defs>
</svg>
