<svg  viewBox="0 0 24 24" fill="none" xmlns="http://www.w3.org/2000/svg" id="__THIS_ID_NEEDS_FOR_UI_ICON_COMPONENT__">
<path d="M21 6.37517C21.0001 5.7398 20.8209 5.1173 20.4829 4.57928C20.1449 4.04126 19.662 3.60956 19.0895 3.33384C18.5171 3.05813 17.8785 2.9496 17.2471 3.02073C16.6157 3.09187 16.0173 3.33978 15.5205 3.73595C15.0238 4.13212 14.649 4.66046 14.4392 5.2602C14.2295 5.85994 14.1932 6.50671 14.3347 7.12612C14.4762 7.74553 14.7897 8.31242 15.2391 8.76158C15.6885 9.21074 16.2555 9.52393 16.875 9.66512V9.75021C16.8745 10.1479 16.7163 10.5292 16.4351 10.8104C16.1539 11.0916 15.7727 11.2497 15.375 11.2502L8.62498 11.2503C8.42799 11.2503 8.23294 11.2116 8.05095 11.1362C7.86896 11.0608 7.7036 10.9503 7.56432 10.811C7.42503 10.6717 7.31454 10.5064 7.23916 10.3244C7.16377 10.1424 7.12498 9.94733 7.12498 9.75035V9.66512C7.93399 9.48073 8.64673 9.00477 9.12705 8.32816C9.60736 7.65155 9.82159 6.82171 9.72881 5.99715C9.63604 5.17259 9.24275 4.4111 8.62409 3.85814C8.00543 3.30519 7.20474 2.99951 6.37498 2.99951C5.54521 2.99951 4.74453 3.30519 4.12586 3.85814C3.5072 4.4111 3.11392 5.17259 3.02114 5.99715C2.92836 6.82171 3.14259 7.65155 3.62291 8.32816C4.10322 9.00477 4.81596 9.48073 5.62498 9.66512V9.75035C5.62497 10.1443 5.70256 10.5344 5.85332 10.8984C6.00408 11.2624 6.22505 11.5931 6.50363 11.8717C6.78221 12.1503 7.11293 12.3713 7.47691 12.522C7.8409 12.6728 8.23101 12.7504 8.62498 12.7503L11.2501 12.7503L11.25 14.3354C10.441 14.5198 9.72827 14.9958 9.24794 15.6724C8.76762 16.349 8.55338 17.1788 8.64615 18.0034C8.73892 18.8279 9.13219 19.5894 9.75085 20.1424C10.3695 20.6953 11.1702 21.001 11.9999 21.001C12.8297 21.001 13.6304 20.6954 14.2491 20.1424C14.8677 19.5895 15.261 18.828 15.3538 18.0034C15.4466 17.1789 15.2324 16.349 14.7521 15.6724C14.2718 14.9958 13.559 14.5198 12.75 14.3354L12.7501 12.7503L15.375 12.7502C16.1703 12.7493 16.9329 12.4329 17.4953 11.8705C18.0577 11.3081 18.3741 10.5456 18.375 9.75021V9.66513C19.1201 9.49435 19.7853 9.07607 20.262 8.47855C20.7388 7.88104 20.9989 7.13957 21 6.37517ZM13.875 17.6254C13.875 17.9962 13.765 18.3587 13.559 18.6671C13.353 18.9754 13.0601 19.2158 12.7175 19.3577C12.3749 19.4996 11.9979 19.5367 11.6342 19.4644C11.2705 19.392 10.9364 19.2134 10.6742 18.9512C10.4119 18.689 10.2334 18.3549 10.161 17.9912C10.0887 17.6275 10.1258 17.2505 10.2677 16.9079C10.4096 16.5653 10.6499 16.2724 10.9583 16.0664C11.2666 15.8604 11.6291 15.7504 12 15.7504C12.4971 15.7509 12.9737 15.9487 13.3252 16.3002C13.6767 16.6517 13.8744 17.1283 13.875 17.6254Z" fill="#1D1F21" style="fill: var(--ui-icon-primary-color);"/>
</svg>
