<svg  viewBox="0 0 24 24" fill="none" xmlns="http://www.w3.org/2000/svg" id="__THIS_ID_NEEDS_FOR_UI_ICON_COMPONENT__">
<path d="M21.7501 17.6256C21.7502 18.261 21.571 18.8835 21.2331 19.4215C20.8951 19.9595 20.4121 20.3912 19.8397 20.6669C19.2673 20.9426 18.6286 21.0512 17.9973 20.98C17.3659 20.9089 16.7674 20.661 16.2707 20.2648C15.774 19.8687 15.3992 19.3403 15.1894 18.7406C14.9796 18.1409 14.9434 17.4941 15.0849 16.8747C15.2264 16.2553 15.5398 15.6884 15.9892 15.2392C16.4386 14.79 17.0056 14.4768 17.6251 14.3356L17.6249 11.2394C17.6263 10.7468 17.5299 10.2588 17.3414 9.80371C17.1528 9.3486 16.8759 8.93541 16.5266 8.58806L14.2499 6.31136V8.2506C14.2499 8.44951 14.1709 8.64028 14.0303 8.78093C13.8896 8.92158 13.6988 9.0006 13.4999 9.0006C13.301 9.0006 13.1103 8.92158 12.9696 8.78093C12.829 8.64028 12.7499 8.44951 12.7499 8.2506V4.50104C12.7499 4.47608 12.7512 4.45117 12.7537 4.42629C12.7546 4.4165 12.7565 4.407 12.7578 4.39731C12.7599 4.38272 12.7616 4.36812 12.7645 4.35366C12.7668 4.34221 12.77 4.33113 12.7728 4.3199C12.7759 4.30735 12.7787 4.29479 12.7824 4.2824C12.7857 4.27144 12.7899 4.26087 12.7937 4.25013C12.7981 4.23773 12.8022 4.22525 12.8073 4.21305C12.8113 4.2033 12.8161 4.19398 12.8206 4.18444C12.8265 4.17172 12.8321 4.15892 12.8388 4.14647C12.8435 4.13778 12.8489 4.12951 12.8539 4.12102C12.8613 4.10846 12.8684 4.0958 12.8766 4.08358C12.8825 4.07476 12.8892 4.06653 12.8954 4.05798C12.9036 4.04683 12.9115 4.03548 12.9203 4.0247C12.9309 4.01179 12.9425 3.99973 12.9539 3.98758C12.9593 3.98187 12.964 3.9758 12.9696 3.97023C12.9742 3.96561 12.9793 3.9617 12.984 3.95723C12.9971 3.94471 13.0103 3.93226 13.0244 3.92072C13.0332 3.91349 13.0425 3.90718 13.0516 3.9004C13.0622 3.89244 13.0726 3.88421 13.0837 3.87681C13.0936 3.8702 13.1039 3.86448 13.114 3.8584C13.1249 3.85183 13.1356 3.84498 13.1469 3.83896C13.1567 3.83372 13.1669 3.82931 13.1769 3.82453C13.1891 3.81867 13.2012 3.81262 13.2138 3.80742C13.2228 3.80369 13.2321 3.80074 13.2412 3.79738C13.2552 3.79224 13.269 3.78696 13.2834 3.78265C13.2916 3.78019 13.3 3.77843 13.3083 3.77625C13.3236 3.77219 13.3389 3.76802 13.3547 3.76493C13.3629 3.76332 13.3713 3.76247 13.3795 3.76113C13.3954 3.75858 13.4111 3.75581 13.4272 3.75427C13.4376 3.75326 13.4481 3.75325 13.4585 3.75267C13.4723 3.75192 13.486 3.75059 13.4999 3.75059H17.2499C17.4488 3.75059 17.6396 3.82961 17.7803 3.97026C17.9209 4.11091 17.9999 4.30168 17.9999 4.50059C17.9999 4.6995 17.9209 4.89027 17.7803 5.03092C17.6396 5.17157 17.4488 5.25059 17.2499 5.25059H15.3106L17.5873 7.52732C18.0763 8.01367 18.464 8.59218 18.7279 9.22936C18.9919 9.86654 19.1268 10.5497 19.1249 11.2394L19.1251 14.3356C19.8702 14.5064 20.5354 14.9247 21.0121 15.5222C21.4889 16.1197 21.749 16.8612 21.7501 17.6256ZM10.5001 15.0006C10.3012 15.0006 10.1104 15.0796 9.9698 15.2203C9.82915 15.3609 9.75013 15.5517 9.75012 15.7506V17.6899L7.47338 15.4131C7.12409 15.0658 6.84717 14.6526 6.65864 14.1975C6.4701 13.7424 6.37371 13.2544 6.37503 12.7618L6.37493 9.66556C7.18394 9.48116 7.89667 9.0052 8.37697 8.32859C8.85728 7.65197 9.0715 6.82214 8.97872 5.99758C8.88593 5.17303 8.49265 4.41155 7.87398 3.85861C7.25532 3.30566 6.45464 2.99999 5.62488 3C4.79513 3.00001 3.99445 3.30568 3.37579 3.85864C2.75714 4.4116 2.36386 5.17308 2.27109 5.99763C2.17832 6.82219 2.39255 7.65202 2.87287 8.32863C3.35319 9.00523 4.06592 9.48118 4.87493 9.66557L4.87503 12.7619C4.87319 13.4515 5.00815 14.1347 5.27208 14.7719C5.53601 15.409 5.92368 15.9875 6.41265 16.4739L8.68939 18.7506H6.75012C6.55121 18.7506 6.36044 18.8296 6.21979 18.9703C6.07914 19.1109 6.00012 19.3017 6.00012 19.5006C6.00012 19.6995 6.07914 19.8903 6.21979 20.0309C6.36044 20.1716 6.55121 20.2506 6.75012 20.2506H10.5001C10.5248 20.2506 10.5496 20.2493 10.5741 20.2469C10.5852 20.2458 10.5959 20.2437 10.6069 20.2421C10.6201 20.2402 10.6335 20.2387 10.6467 20.2361C10.6591 20.2336 10.6712 20.2302 10.6834 20.2271C10.6949 20.2242 10.7065 20.2217 10.7179 20.2182C10.7298 20.2146 10.7412 20.2102 10.7528 20.206C10.7643 20.2019 10.7759 20.1981 10.7873 20.1934C10.7979 20.189 10.8081 20.1838 10.8184 20.179C10.8303 20.1734 10.8422 20.1681 10.8539 20.1619C10.8634 20.1567 10.8726 20.1509 10.8818 20.1453C10.8936 20.1384 10.9054 20.1317 10.9169 20.1241C10.9266 20.1176 10.9357 20.1103 10.9451 20.1033C10.9554 20.0957 10.9658 20.0885 10.9758 20.0803C10.9893 20.0693 11.002 20.0572 11.0146 20.0453C11.0198 20.0404 11.0254 20.0361 11.0305 20.031C11.0358 20.0257 11.0403 20.0199 11.0454 20.0145C11.0571 20.0021 11.0689 19.9896 11.0798 19.9764C11.0883 19.966 11.0959 19.9551 11.1037 19.9444C11.1103 19.9354 11.1173 19.9268 11.1235 19.9175C11.1315 19.9056 11.1384 19.8933 11.1456 19.8811C11.1508 19.8723 11.1564 19.8637 11.1613 19.8546C11.1678 19.8425 11.1733 19.83 11.1791 19.8176C11.1837 19.8078 11.1886 19.7981 11.1929 19.788C11.1978 19.7761 11.2018 19.764 11.206 19.7519C11.21 19.7409 11.2142 19.7299 11.2177 19.7186C11.2213 19.7065 11.224 19.6943 11.2271 19.6821C11.23 19.6705 11.2332 19.6592 11.2356 19.6474C11.2384 19.6332 11.2401 19.6189 11.2421 19.6046C11.2434 19.5946 11.2454 19.5849 11.2464 19.5749C11.2488 19.55 11.2501 19.5251 11.2501 19.5001V15.7506C11.2501 15.5517 11.1711 15.3609 11.0304 15.2203C10.8898 15.0796 10.699 15.0006 10.5001 15.0006Z" fill="#1D1F21" style="fill: var(--ui-icon-primary-color);"/>
</svg>
