<svg  viewBox="0 0 24 24" fill="none" xmlns="http://www.w3.org/2000/svg" id="__THIS_ID_NEEDS_FOR_UI_ICON_COMPONENT__">
<path d="M21.0001 6.37517C21.0002 5.7398 20.821 5.1173 20.483 4.57928C20.145 4.04126 19.6621 3.60956 19.0896 3.33384C18.5172 3.05813 17.8786 2.9496 17.2472 3.02073C16.6159 3.09187 16.0174 3.33978 15.5207 3.73595C15.0239 4.13212 14.6491 4.66046 14.4393 5.2602C14.2296 5.85994 14.1933 6.50671 14.3348 7.12612C14.4763 7.74553 14.7898 8.31242 15.2392 8.76158C15.6886 9.21074 16.2556 9.52393 16.8751 9.66512V9.75021C16.8746 10.1479 16.7164 10.5292 16.4352 10.8104C16.154 11.0916 15.7728 11.2498 15.3751 11.2502L8.62499 11.2503C8.09824 11.2497 7.58071 11.3886 7.12508 11.653V9.66512C7.9341 9.48073 8.64684 9.00477 9.12715 8.32816C9.60747 7.65155 9.8217 6.82171 9.72892 5.99715C9.63614 5.17259 9.24286 4.4111 8.6242 3.85814C8.00553 3.30519 7.20485 2.99951 6.37508 2.99951C5.54532 2.99951 4.74464 3.30519 4.12597 3.85814C3.50731 4.4111 3.11403 5.17259 3.02125 5.99715C2.92847 6.82171 3.1427 7.65155 3.62302 8.32816C4.10333 9.00477 4.81607 9.48073 5.62508 9.66512V14.3354C4.81607 14.5198 4.10333 14.9958 3.62302 15.6724C3.1427 16.349 2.92847 17.1789 3.02125 18.0034C3.11403 18.828 3.50731 19.5895 4.12597 20.1424C4.74464 20.6954 5.54532 21.001 6.37508 21.001C7.20485 21.001 8.00553 20.6954 8.6242 20.1424C9.24286 19.5895 9.63614 18.828 9.72892 18.0034C9.8217 17.1789 9.60747 16.349 9.12715 15.6724C8.64684 14.9958 7.9341 14.5198 7.12508 14.3354V14.2503C7.12554 13.8527 7.28371 13.4714 7.5649 13.1902C7.84608 12.909 8.22732 12.7508 8.62499 12.7503L15.3751 12.7502C16.1704 12.7493 16.933 12.4329 17.4954 11.8705C18.0578 11.3081 18.3742 10.5456 18.3751 9.75021V9.66512C19.1202 9.49435 19.7854 9.07607 20.2621 8.47855C20.7389 7.88104 20.999 7.13957 21.0001 6.37517ZM4.50008 6.37517C4.50008 6.00433 4.61005 5.64181 4.81608 5.33347C5.02211 5.02513 5.31494 4.78481 5.65755 4.64289C6.00016 4.50098 6.37716 4.46385 6.74088 4.53619C7.10459 4.60854 7.43869 4.78712 7.70091 5.04934C7.96313 5.31156 8.14171 5.64566 8.21406 6.00937C8.2864 6.37309 8.24927 6.75009 8.10736 7.0927C7.96544 7.43531 7.72512 7.72815 7.41678 7.93417C7.10844 8.1402 6.74592 8.25017 6.37508 8.25017C5.87798 8.24961 5.40139 8.05188 5.04988 7.70037C4.69837 7.34886 4.50064 6.87228 4.50008 6.37517ZM8.25008 17.6254C8.25008 17.9962 8.14012 18.3587 7.93409 18.6671C7.72806 18.9754 7.43523 19.2158 7.09262 19.3577C6.75 19.4996 6.373 19.5367 6.00929 19.4644C5.64558 19.392 5.31148 19.2134 5.04926 18.9512C4.78704 18.689 4.60846 18.3549 4.53611 17.9912C4.46376 17.6275 4.5009 17.2505 4.64281 16.9079C4.78472 16.5653 5.02505 16.2724 5.33339 16.0664C5.64173 15.8604 6.00424 15.7504 6.37508 15.7504C6.87219 15.751 7.34878 15.9487 7.70029 16.3002C8.0518 16.6517 8.24952 17.1283 8.25008 17.6254Z" fill="#1D1F21" style="fill: var(--ui-icon-primary-color);"/>
</svg>
