<svg  viewBox="0 0 24 24" fill="none" xmlns="http://www.w3.org/2000/svg" id="__THIS_ID_NEEDS_FOR_UI_ICON_COMPONENT__">
<path d="M21.75 12.0005C21.7471 9.41618 20.7195 6.93854 18.8925 5.11081C17.0655 3.28309 14.5882 2.25447 12.004 2.2505L12 2.24707L11.9961 2.2505C9.41128 2.25209 6.93288 3.28001 5.10571 5.1083C3.27854 6.93659 2.25213 9.41561 2.25212 12.0004C2.25211 14.5852 3.27849 17.0642 5.10565 18.8925C6.9328 20.7208 9.41118 21.7488 11.996 21.7504L12 21.7539L12.004 21.7504C14.5883 21.7464 17.0655 20.7178 18.8925 18.8901C20.7195 17.0624 21.7471 14.5847 21.75 12.0005ZM20.2155 11.2505H16.4793C16.3301 8.47199 15.3533 5.90506 13.7133 3.92986C15.4355 4.29844 16.995 5.20735 18.1646 6.52414C19.3342 7.84092 20.0527 9.49679 20.2155 11.2505ZM9.02428 12.7505H14.9758C14.8061 15.4463 13.7294 17.9726 12 19.7293C10.2706 17.9726 9.19392 15.4463 9.02428 12.7505ZM9.02428 11.2505C9.19392 8.5545 10.2706 6.02824 12 4.27158C13.7294 6.02825 14.8061 8.55451 14.9758 11.2505L9.02428 11.2505ZM13.7132 20.0711C15.3532 18.0958 16.33 15.5288 16.4793 12.7505H20.2155C20.0527 14.5041 19.3342 16.16 18.1646 17.4768C16.995 18.7936 15.4355 19.7025 13.7132 20.0711Z" fill="#1D1F21" style="fill: var(--ui-icon-primary-color);"/>
</svg>
