<svg  viewBox="0 0 24 24" fill="none" xmlns="http://www.w3.org/2000/svg" id="__THIS_ID_NEEDS_FOR_UI_ICON_COMPONENT__">
<path d="M4.50008 8.9998C4.50008 7.51644 4.93995 6.0664 5.76406 4.83303C6.58817 3.59966 7.75951 2.63837 9.12996 2.07071C10.5004 1.50305 12.0084 1.35453 13.4633 1.64391C14.9181 1.9333 16.2545 2.64761 17.3034 3.6965C18.3523 4.7454 19.0666 6.08177 19.356 7.53663C19.6454 8.99148 19.4968 10.4995 18.9292 11.8699C18.3615 13.2404 17.4002 14.4117 16.1669 15.2358C14.9335 16.0599 13.4834 16.4998 12.0001 16.4998C10.0116 16.4976 8.1053 15.7067 6.69926 14.3006C5.29322 12.8946 4.50233 10.9882 4.50008 8.9998ZM19.4247 16.4245C19.5654 16.2838 19.6444 16.093 19.6444 15.8941C19.6444 15.6952 19.5654 15.5044 19.4247 15.3637C19.2841 15.2231 19.0933 15.144 18.8944 15.144C18.6954 15.144 18.5047 15.2231 18.364 15.3637C17.5284 16.1999 16.5362 16.8632 15.4442 17.3159C14.3521 17.7685 13.1816 18.0016 11.9995 18.0018C10.8174 18.0019 9.64678 17.7692 8.5546 17.3169C7.46242 16.8647 6.47005 16.2016 5.63415 15.3657C4.79826 14.5298 4.13523 13.5375 3.68294 12.4453C3.23065 11.3531 2.99795 10.1825 2.99813 9.00039C2.99832 7.81826 3.23139 6.64775 3.68403 5.55572C4.13666 4.46368 4.80001 3.47151 5.63616 2.63588C5.77682 2.49522 5.85584 2.30444 5.85584 2.10552C5.85584 1.90659 5.77682 1.71581 5.63616 1.57515C5.4955 1.43449 5.30472 1.35547 5.1058 1.35547C4.90687 1.35547 4.71609 1.43449 4.57543 1.57515C3.15218 2.99847 2.16801 4.80086 1.74013 6.76768C1.31225 8.7345 1.45869 10.7829 2.16201 12.6688C2.86532 14.5548 4.09588 16.1988 5.70713 17.4052C7.31837 18.6116 9.24241 19.3294 11.2501 19.4733V20.9998H9.00008C8.80117 20.9998 8.61041 21.0788 8.46975 21.2195C8.3291 21.3601 8.25008 21.5509 8.25008 21.7498C8.25008 21.9487 8.3291 22.1395 8.46975 22.2801C8.61041 22.4208 8.80117 22.4998 9.00008 22.4998H15.0001C15.199 22.4998 15.3898 22.4208 15.5304 22.2801C15.6711 22.1395 15.7501 21.9487 15.7501 21.7498C15.7501 21.5509 15.6711 21.3601 15.5304 21.2195C15.3898 21.0788 15.199 20.9998 15.0001 20.9998H12.7501V19.4733C15.271 19.2998 17.643 18.2163 19.4247 16.4245Z" fill="#1D1F21" style="fill: var(--ui-icon-primary-color);"/>
</svg>
