<svg  viewBox="0 0 24 24" fill="none" xmlns="http://www.w3.org/2000/svg" id="__THIS_ID_NEEDS_FOR_UI_ICON_COMPONENT__">
<path d="M21.1744 15.3012C21.1884 15.2691 21.2001 15.236 21.2094 15.2022C21.9305 13.1277 21.9302 10.8704 21.2084 8.79613C21.1994 8.76393 21.1883 8.73236 21.1751 8.70164C20.4941 6.81459 19.2484 5.18304 17.6075 4.02882C15.9666 2.87459 14.0101 2.25368 12.0039 2.2505L12 2.24707L11.9961 2.2505C9.99007 2.25368 8.03371 2.87446 6.39291 4.02849C4.75211 5.18251 3.50646 6.81379 2.82527 8.70058C2.81165 8.73208 2.80023 8.76449 2.79108 8.79757C2.06922 10.8731 2.06965 13.1317 2.79231 15.2069C2.80103 15.2378 2.81174 15.2682 2.82436 15.2977C3.50514 17.1851 4.75074 18.8171 6.39174 19.9716C8.03274 21.1261 9.98952 21.7472 11.996 21.7504L12 21.7539L12.004 21.7504C14.0098 21.7472 15.966 21.1265 17.6067 19.9727C19.2474 18.8188 20.4931 17.1878 21.1744 15.3012ZM12 4.27158C13.0886 5.39958 13.9067 6.76009 14.3927 8.25046H9.60727C10.0933 6.76009 10.9114 5.39958 12 4.27158ZM9.60731 15.7505H14.3927C13.9067 17.2408 13.0886 18.6013 12 19.7293C10.9114 18.6013 10.0933 17.2408 9.60731 15.7505ZM9.21464 14.2505C8.92845 12.7641 8.92845 11.2368 9.21464 9.75046H14.7854C15.0715 11.2368 15.0715 12.7641 14.7854 14.2505H9.21464ZM16.3152 9.75046H19.9381C20.354 11.2216 20.354 12.7793 19.9381 14.2505H16.3152C16.5616 12.7606 16.5616 11.2403 16.3152 9.75046ZM19.3474 8.25046H15.9757C15.5267 6.67002 14.7565 5.19918 13.7133 3.92987C14.914 4.18716 16.0425 4.70833 17.0169 5.4556C17.9914 6.20288 18.7874 7.15755 19.3474 8.25046H19.3474ZM13.7132 20.0711C14.7564 18.8017 15.5266 17.3309 15.9757 15.7505H19.3474C18.7874 16.8434 17.9914 17.7981 17.0169 18.5453C16.0425 19.2926 14.914 19.8138 13.7132 20.0711Z" fill="#1D1F21" style="fill: var(--ui-icon-primary-color);"/>
</svg>
