<svg  viewBox="0 0 24 24" fill="none" xmlns="http://www.w3.org/2000/svg" id="__THIS_ID_NEEDS_FOR_UI_ICON_COMPONENT__">
<path d="M12 2.25C10.0716 2.25 8.18653 2.82183 6.58315 3.89317C4.97977 4.96451 3.73009 6.48726 2.99213 8.26884C2.25418 10.0504 2.0611 12.0108 2.4373 13.9021C2.81351 15.7934 3.74211 17.5307 5.10567 18.8943C6.46923 20.2579 8.20651 21.1865 10.0978 21.5627C11.9891 21.9389 13.9495 21.7458 15.7311 21.0078C17.5127 20.2699 19.0354 19.0202 20.1068 17.4168C21.1781 15.8134 21.75 13.9284 21.75 12C21.747 9.41504 20.7189 6.93679 18.891 5.10894C17.0632 3.28109 14.5849 2.25293 12 2.25ZM12 19.5C10.7666 19.5 9.55222 19.1958 8.46447 18.6144C7.37672 18.033 6.44915 17.1923 5.76391 16.1668C5.07868 15.1413 4.65693 13.9626 4.53604 12.7351C4.41515 11.5077 4.59883 10.2694 5.07083 9.12988C5.54282 7.99038 6.28856 6.98487 7.24198 6.20242C8.1954 5.41997 9.32707 4.88473 10.5368 4.64411C11.7464 4.40349 12.9968 4.46492 14.1771 4.82295C15.3574 5.18099 16.4311 5.82458 17.3032 6.69672C17.373 6.76634 17.4283 6.84902 17.466 6.94004C17.5038 7.03105 17.5232 7.1286 17.5232 7.22713C17.5233 7.32566 17.5039 7.42323 17.4662 7.51427C17.4285 7.6053 17.3732 7.68802 17.3036 7.75769C17.2339 7.82736 17.1512 7.88262 17.0602 7.92031C16.9691 7.958 16.8715 7.97738 16.773 7.97735C16.6745 7.97732 16.5769 7.95788 16.4859 7.92013C16.3949 7.88238 16.3122 7.82707 16.2426 7.75735C15.2838 6.79876 14.0286 6.19318 12.6816 6.0393C11.3345 5.88542 9.97507 6.19232 8.82478 6.90998C7.6745 7.62764 6.8012 8.71375 6.34721 9.99128C5.89323 11.2688 5.88533 12.6625 6.32481 13.9451C6.76429 15.2276 7.62523 16.3236 8.7673 17.0542C9.90938 17.7849 11.2653 18.1072 12.614 17.9686C13.9627 17.83 15.2246 17.2386 16.1943 16.291C17.1638 15.3433 17.7839 14.0952 17.9533 12.75H12C11.801 12.75 11.6103 12.671 11.4696 12.5303C11.329 12.3897 11.25 12.1989 11.25 12C11.25 11.8011 11.329 11.6103 11.4696 11.4697C11.6103 11.329 11.801 11.25 12 11.25H18.75C18.9489 11.25 19.1396 11.329 19.2803 11.4697C19.4209 11.6103 19.5 11.8011 19.5 12C19.4977 13.9884 18.7068 15.8948 17.3008 17.3008C15.8947 18.7069 13.9884 19.4978 12 19.5Z" fill="#1D1F21" style="fill: var(--ui-icon-primary-color);"/>
</svg>
