<svg  viewBox="0 0 24 24" fill="none" xmlns="http://www.w3.org/2000/svg" id="__THIS_ID_NEEDS_FOR_UI_ICON_COMPONENT__">
<path d="M22.403 19.3344L21.0697 7.33433C21.0292 6.96732 20.8547 6.62815 20.5796 6.3819C20.3044 6.13565 19.9481 5.99966 19.5788 6H16.4364C16.2594 4.95148 15.7167 3.99956 14.9046 3.3131C14.0925 2.62664 13.0635 2.25 12.0001 2.25C10.9367 2.25 9.90775 2.62664 9.09565 3.3131C8.28355 3.99956 7.74084 4.95148 7.56378 6H4.42138C4.05213 5.99966 3.69576 6.13566 3.42062 6.38192C3.14548 6.62818 2.97096 6.96735 2.93052 7.33438L1.59724 19.3344C1.57395 19.544 1.59515 19.7563 1.65945 19.9572C1.72375 20.1581 1.82971 20.3432 1.9704 20.5004C2.1111 20.6576 2.28336 20.7833 2.47596 20.8694C2.66855 20.9555 2.87713 21 3.08809 21H20.9121C21.1231 21 21.3317 20.9555 21.5243 20.8694C21.7168 20.7833 21.8891 20.6576 22.0298 20.5004C22.1705 20.3432 22.2765 20.1581 22.3408 19.9572C22.4051 19.7563 22.4263 19.544 22.403 19.3344H22.403ZM12.0001 3.75C12.665 3.75085 13.3109 3.97218 13.8365 4.37932C14.3622 4.78647 14.738 5.35644 14.9052 6H9.09505C9.26217 5.35644 9.63799 4.78647 10.1637 4.37932C10.6893 3.97218 11.3352 3.75085 12.0001 3.75Z" fill="#1D1F21" style="fill: var(--ui-icon-primary-color);"/>
</svg>
