<svg  viewBox="0 0 24 24" fill="none" xmlns="http://www.w3.org/2000/svg" id="__THIS_ID_NEEDS_FOR_UI_ICON_COMPONENT__">
<path d="M17.625 3.75001C17.2358 3.74962 16.8514 3.83634 16.5 4.00379V3.37501C16.5001 2.74958 16.2768 2.1447 15.8704 1.66929C15.464 1.19389 14.9012 0.879212 14.2834 0.781944C13.6656 0.684676 13.0334 0.811207 12.5006 1.13875C11.9678 1.46629 11.5694 1.97331 11.3773 2.5685C10.9776 2.35125 10.5282 2.24167 10.0733 2.25051C9.61841 2.25934 9.17363 2.38629 8.78261 2.6189C8.39159 2.85151 8.06777 3.18178 7.84291 3.57731C7.61805 3.97284 7.49989 4.42003 7.50002 4.87501V11.9447L6.84386 10.8081C6.49719 10.2077 5.92702 9.76872 5.25785 9.58717C4.58867 9.40561 3.87484 9.49619 3.27222 9.83911C2.66959 10.182 2.22711 10.7495 2.04139 11.4175C1.85568 12.0855 1.9418 12.7999 2.28097 13.4047C5.32299 19.8187 7.34942 22.5 12 22.5C14.1873 22.4975 16.2843 21.6275 17.8309 20.0809C19.3776 18.5343 20.2475 16.4373 20.25 14.25V6.37501C20.2492 5.67905 19.9724 5.01183 19.4803 4.51971C18.9882 4.0276 18.321 3.75079 17.625 3.75001ZM18.75 14.25C18.748 16.0396 18.0362 17.7553 16.7708 19.0208C15.5053 20.2862 13.7896 20.998 12 21C10.1083 21 8.79128 20.4886 7.59615 19.2902C6.42437 18.1151 5.27373 16.2165 3.6245 12.7369C3.6158 12.7186 3.60637 12.7007 3.59621 12.6831C3.44703 12.4247 3.40662 12.1176 3.48385 11.8294C3.56108 11.5412 3.74964 11.2955 4.00804 11.1463C4.26644 10.9971 4.57352 10.9567 4.86172 11.0339C5.14992 11.1112 5.39564 11.2997 5.54482 11.5581L7.60055 15.1187C7.68309 15.2617 7.81051 15.3734 7.96304 15.4366C8.11557 15.4998 8.28469 15.5109 8.44416 15.4681C8.60363 15.4254 8.74455 15.3313 8.84505 15.2003C8.94555 15.0693 9.00003 14.9088 9.00002 14.7437V4.87501C9.00002 4.57664 9.11855 4.29049 9.32952 4.07951C9.5405 3.86853 9.82665 3.75001 10.125 3.75001C10.4234 3.75001 10.7095 3.86853 10.9205 4.07951C11.1315 4.29049 11.25 4.57664 11.25 4.87501V11.25C11.25 11.4489 11.329 11.6397 11.4697 11.7803C11.6103 11.921 11.8011 12 12 12C12.1989 12 12.3897 11.921 12.5304 11.7803C12.671 11.6397 12.75 11.4489 12.75 11.25V3.37501C12.75 3.07664 12.8685 2.79049 13.0795 2.57951C13.2905 2.36853 13.5767 2.25001 13.875 2.25001C14.1734 2.25001 14.4595 2.36853 14.6705 2.57951C14.8815 2.79049 15 3.07664 15 3.37501V11.25C15 11.4489 15.079 11.6397 15.2197 11.7803C15.3603 11.921 15.5511 12 15.75 12C15.9489 12 16.1397 11.921 16.2803 11.7803C16.421 11.6397 16.5 11.4489 16.5 11.25V6.37501C16.5 6.07664 16.6185 5.79049 16.8295 5.57951C17.0405 5.36853 17.3267 5.25001 17.625 5.25001C17.9234 5.25001 18.2095 5.36853 18.4205 5.57951C18.6315 5.79049 18.75 6.07664 18.75 6.37501V14.25Z" fill="#1D1F21" style="fill: var(--ui-icon-primary-color);"/>
</svg>
