<svg  viewBox="0 0 24 24" fill="none" xmlns="http://www.w3.org/2000/svg" id="__THIS_ID_NEEDS_FOR_UI_ICON_COMPONENT__">
<path d="M17.625 7.875C17.1403 7.87449 16.6649 8.00905 16.2524 8.26359C16.1061 7.9501 15.8992 7.66865 15.6436 7.43545C15.3881 7.20225 15.0889 7.02191 14.7634 6.90481C14.4378 6.78771 14.0924 6.73617 13.7468 6.75316C13.4013 6.77015 13.0625 6.85532 12.75 7.00378V3.375C12.75 2.67881 12.4735 2.01113 11.9812 1.51884C11.4889 1.02656 10.8212 0.75 10.125 0.75C9.42883 0.75 8.76115 1.02656 8.26887 1.51884C7.77658 2.01113 7.50002 2.67881 7.50002 3.375V11.9447L6.84386 10.8081C6.49719 10.2076 5.92702 9.76871 5.25785 9.58716C4.58867 9.40561 3.87484 9.49618 3.27222 9.83911C2.66959 10.182 2.22711 10.7495 2.04139 11.4175C1.85568 12.0855 1.9418 12.7999 2.28097 13.4046C5.32299 19.8187 7.34942 22.5 12 22.5C14.1873 22.4975 16.2843 21.6275 17.8309 20.0809C19.3776 18.5343 20.2475 16.4373 20.25 14.25V10.5C20.2492 9.80405 19.9724 9.13682 19.4803 8.64471C18.9882 8.15259 18.321 7.87578 17.625 7.875ZM18.75 14.25C18.748 16.0396 18.0362 17.7553 16.7708 19.0207C15.5053 20.2862 13.7896 20.998 12 21C10.1083 21 8.79128 20.4886 7.59615 19.2902C6.42437 18.1151 5.27373 16.2165 3.6245 12.7369C3.6158 12.7186 3.60637 12.7007 3.59621 12.6831C3.44703 12.4247 3.40662 12.1176 3.48385 11.8294C3.56108 11.5412 3.74964 11.2955 4.00804 11.1463C4.26644 10.9971 4.57352 10.9567 4.86172 11.0339C5.14992 11.1112 5.39564 11.2997 5.54482 11.5581L7.60055 15.1187C7.68309 15.2617 7.81051 15.3734 7.96304 15.4366C8.11557 15.4998 8.28469 15.5109 8.44416 15.4681C8.60363 15.4254 8.74455 15.3312 8.84505 15.2003C8.94555 15.0693 9.00003 14.9088 9.00002 14.7437V3.375C9.00002 3.07663 9.11855 2.79048 9.32952 2.5795C9.5405 2.36853 9.82665 2.25 10.125 2.25C10.4234 2.25 10.7095 2.36853 10.9205 2.5795C11.1315 2.79048 11.25 3.07663 11.25 3.375V9.75C11.25 9.94891 11.329 10.1397 11.4697 10.2803C11.6103 10.421 11.8011 10.5 12 10.5C12.1989 10.5 12.3897 10.421 12.5304 10.2803C12.671 10.1397 12.75 9.94891 12.75 9.75V9.375C12.75 9.07663 12.8685 8.79048 13.0795 8.5795C13.2905 8.36853 13.5767 8.25 13.875 8.25C14.1734 8.25 14.4595 8.36853 14.6705 8.5795C14.8815 8.79048 15 9.07663 15 9.375V10.5C15 10.6989 15.079 10.8897 15.2197 11.0303C15.3603 11.171 15.5511 11.25 15.75 11.25C15.9489 11.25 16.1397 11.171 16.2803 11.0303C16.421 10.8897 16.5 10.6989 16.5 10.5C16.5 10.2016 16.6185 9.91548 16.8295 9.7045C17.0405 9.49353 17.3267 9.375 17.625 9.375C17.9234 9.375 18.2095 9.49353 18.4205 9.7045C18.6315 9.91548 18.75 10.2016 18.75 10.5V14.25Z" fill="#1D1F21" style="fill: var(--ui-icon-primary-color);"/>
</svg>
