<svg  viewBox="0 0 24 24" fill="none" xmlns="http://www.w3.org/2000/svg" id="__THIS_ID_NEEDS_FOR_UI_ICON_COMPONENT__">
<path d="M13.5008 21.0001C13.3909 21.0001 13.2823 20.976 13.1828 20.9295C13.0832 20.883 12.9951 20.8151 12.9246 20.7308C12.8541 20.6465 12.8031 20.5477 12.775 20.4414C12.7469 20.3352 12.7425 20.224 12.7621 20.1159L13.5558 15.75H9.08047L8.23792 20.3841C8.20234 20.5798 8.09048 20.7534 7.92694 20.8666C7.84597 20.9227 7.75474 20.9623 7.65847 20.9831C7.5622 21.0039 7.46278 21.0055 7.36588 20.9879C7.26897 20.9703 7.17649 20.9338 7.0937 20.8804C7.01091 20.8271 6.93944 20.7579 6.88338 20.6769C6.77014 20.5134 6.72651 20.3116 6.76208 20.1159L7.55585 15.75H3C2.80109 15.75 2.61032 15.671 2.46967 15.5303C2.32902 15.3897 2.25 15.1989 2.25 15C2.25 14.8011 2.32902 14.6103 2.46967 14.4697C2.61032 14.329 2.80109 14.25 3 14.25H7.82858L8.64679 9.75H4.09094C3.89203 9.75 3.70126 9.67099 3.56061 9.53033C3.41996 9.38968 3.34094 9.19892 3.34094 9C3.34094 8.80109 3.41996 8.61033 3.56061 8.46968C3.70126 8.32902 3.89203 8.25 4.09094 8.25H8.91953L9.76208 3.61588C9.7797 3.51898 9.81623 3.42649 9.86958 3.3437C9.92294 3.26091 9.99208 3.18945 10.0731 3.13338C10.154 3.07731 10.2453 3.03774 10.3415 3.01693C10.4378 2.99612 10.5372 2.99448 10.6341 3.01209C10.731 3.0297 10.8235 3.06623 10.9063 3.11959C10.9891 3.17294 11.0606 3.24208 11.1166 3.32306C11.1727 3.40404 11.2123 3.49526 11.2331 3.59153C11.2539 3.6878 11.2555 3.78723 11.2379 3.88413L10.4442 8.25H14.9195L15.7621 3.61588C15.7797 3.51898 15.8162 3.42649 15.8696 3.3437C15.9229 3.26091 15.9921 3.18945 16.0731 3.13338C16.154 3.07731 16.2453 3.03774 16.3415 3.01693C16.4378 2.99612 16.5372 2.99448 16.6341 3.01209C16.731 3.0297 16.8235 3.06623 16.9063 3.11959C16.9891 3.17294 17.0606 3.24208 17.1166 3.32306C17.1727 3.40404 17.2123 3.49526 17.2331 3.59153C17.2539 3.6878 17.2555 3.78722 17.2379 3.88413L16.4442 8.25H21C21.1989 8.25 21.3897 8.32902 21.5303 8.46968C21.671 8.61033 21.75 8.80109 21.75 9C21.75 9.19892 21.671 9.38968 21.5303 9.53033C21.3897 9.67099 21.1989 9.75 21 9.75H16.1714L15.3532 14.25H19.9091C20.108 14.25 20.2987 14.329 20.4394 14.4697C20.58 14.6103 20.6591 14.8011 20.6591 15C20.6591 15.1989 20.58 15.3897 20.4394 15.5303C20.2987 15.671 20.108 15.75 19.9091 15.75H15.0805L14.2379 20.3841C14.2065 20.5568 14.1155 20.713 13.9809 20.8255C13.8462 20.9381 13.6763 20.9999 13.5008 21.0001ZM9.35321 14.25H13.8286L14.6468 9.75H10.1714L9.35321 14.25Z" fill="#1D1F21" style="fill: var(--ui-icon-primary-color);"/>
</svg>
