<svg  viewBox="0 0 24 24" fill="none" xmlns="http://www.w3.org/2000/svg" id="__THIS_ID_NEEDS_FOR_UI_ICON_COMPONENT__">
<path d="M21.8865 12.75V18C21.8858 18.5965 21.6486 19.1684 21.2267 19.5902C20.8049 20.0121 20.233 20.2493 19.6365 20.25H18.1365C17.54 20.2493 16.9681 20.0121 16.5463 19.5902C16.1245 19.1684 15.8872 18.5965 15.8865 18V14.25C15.8872 13.6535 16.1245 13.0816 16.5463 12.6598C16.9681 12.238 17.54 12.0007 18.1365 12H20.3532C20.1647 9.93955 19.2091 8.02509 17.6756 6.63603C16.1421 5.24696 14.1428 4.48468 12.0738 4.50024C12.0699 4.50028 12.0665 4.50028 12.0626 4.50024C9.99365 4.48474 7.99435 5.24705 6.46092 6.6361C4.92749 8.02516 3.97183 9.93958 3.78333 12H6C6.59653 12.0007 7.16843 12.238 7.59024 12.6598C8.01205 13.0816 8.24932 13.6535 8.25 14.25V18C8.24932 18.5965 8.01205 19.1684 7.59024 19.5902C7.16843 20.0121 6.59653 20.2493 6 20.25H4.5C3.90347 20.2493 3.33157 20.0121 2.90976 19.5902C2.48795 19.1684 2.25068 18.5965 2.25 18V12.75C2.25 11.4639 2.50446 10.1905 2.99872 9.0031C3.49297 7.81573 4.21727 6.73789 5.12987 5.83165C6.04247 4.9254 7.12536 4.20867 8.31615 3.72273C9.50694 3.23679 10.7821 2.99124 12.0682 3.00024C12.0911 3.0001 12.1143 3.00001 12.1371 3.00001C14.7229 3.00018 17.2027 4.02749 19.031 5.85595C20.8594 7.68441 21.8865 10.1643 21.8865 12.75Z" fill="#1D1F21" style="fill: var(--ui-icon-primary-color);"/>
</svg>
