<svg  viewBox="0 0 24 24" fill="none" xmlns="http://www.w3.org/2000/svg" id="__THIS_ID_NEEDS_FOR_UI_ICON_COMPONENT__">
<path d="M22.125 8.625C22.125 11.4905 20.4643 14.438 17.1892 17.3856C15.7037 18.7173 14.088 19.8961 12.3665 20.9044C12.2545 20.9671 12.1283 21 12 21C11.8717 21 11.7455 20.9671 11.6335 20.9044C11.321 20.7294 5.49701 17.4197 2.99849 12.75H6.75C6.87347 12.75 6.99503 12.7195 7.10389 12.6613C7.21275 12.603 7.30554 12.5188 7.37402 12.416L8.25 11.1021L10.626 14.666C10.6945 14.7688 10.7873 14.853 10.8961 14.9113C11.005 14.9695 11.1265 15 11.25 15C11.3735 15 11.495 14.9695 11.6039 14.9113C11.7127 14.853 11.8055 14.7688 11.874 14.666L13.1514 12.75H15C15.1989 12.75 15.3897 12.671 15.5303 12.5303C15.671 12.3897 15.75 12.1989 15.75 12C15.75 11.8011 15.671 11.6103 15.5303 11.4697C15.3897 11.329 15.1989 11.25 15 11.25H12.75C12.6265 11.25 12.505 11.2805 12.3961 11.3387C12.2873 11.397 12.1945 11.4812 12.126 11.584L11.25 12.8979L8.87402 9.33399C8.80554 9.23125 8.71275 9.14701 8.60389 9.08875C8.49503 9.03048 8.37347 9 8.25 9C8.12653 9 8.00497 9.03048 7.89611 9.08875C7.78725 9.14701 7.69446 9.23125 7.62598 9.33399L6.34863 11.25H2.33716C2.0372 10.4071 1.88097 9.51971 1.875 8.625C1.8754 7.44466 2.24697 6.29433 2.93712 5.33679C3.62728 4.37925 4.60107 3.66299 5.72072 3.28936C6.84036 2.91572 8.04915 2.90364 9.17603 3.25482C10.3029 3.60599 11.2908 4.30265 12 5.2462C12.7092 4.30265 13.6971 3.60599 14.824 3.25482C15.9509 2.90364 17.1596 2.91572 18.2793 3.28936C19.3989 3.66299 20.3727 4.37925 21.0629 5.33679C21.753 6.29433 22.1246 7.44466 22.125 8.625Z" fill="#1D1F21" style="fill: var(--ui-icon-primary-color);"/>
</svg>
