<svg  viewBox="0 0 24 24" fill="none" xmlns="http://www.w3.org/2000/svg" id="__THIS_ID_NEEDS_FOR_UI_ICON_COMPONENT__">
<path d="M20.6574 12.7979L13.0607 20.3946C12.7793 20.6755 12.3979 20.8333 12.0002 20.8333C11.6025 20.8333 11.2211 20.6755 10.9396 20.3946L3.14814 12.6031C2.60753 12.0629 2.1827 11.4182 1.89962 10.7083C1.61654 9.99845 1.48115 9.23832 1.50172 8.47437C1.52228 7.71041 1.69837 6.95867 2.01923 6.26506C2.34008 5.57145 2.79898 4.95052 3.36787 4.44022C5.55049 2.47001 9.11006 2.65384 11.2971 4.84305L12.0002 5.54545L12.8981 4.6475C13.4401 4.11083 14.0844 3.68859 14.7928 3.40587C15.5012 3.12315 16.2591 2.98572 17.0217 3.00174C17.7865 3.01939 18.5394 3.19402 19.2339 3.5148C19.9284 3.83558 20.5495 4.29566 21.0588 4.86649C23.0261 7.05057 22.8459 10.6087 20.6574 12.7979Z" fill="#1D1F21" style="fill: var(--ui-icon-primary-color);"/>
</svg>
