<svg  viewBox="0 0 24 24" fill="none" xmlns="http://www.w3.org/2000/svg" id="__THIS_ID_NEEDS_FOR_UI_ICON_COMPONENT__">
<path d="M21.375 7.56224V16.437C21.3748 16.7026 21.3041 16.9634 21.1703 17.1927C21.0364 17.4221 20.8442 17.612 20.6131 17.7429L12.7381 22.194C12.5127 22.3205 12.2585 22.3869 12 22.3869C11.7415 22.3869 11.4873 22.3205 11.2619 22.194L3.3869 17.7429C3.15582 17.612 2.96356 17.4222 2.82973 17.1928C2.69589 16.9634 2.62525 16.7026 2.625 16.437V7.56224C2.62524 7.29666 2.69588 7.03588 2.82972 6.80649C2.96356 6.5771 3.15582 6.38728 3.38691 6.25638L11.2619 1.80527C11.4873 1.67875 11.7415 1.6123 12 1.6123C12.2585 1.6123 12.5127 1.67875 12.7381 1.80527L20.6131 6.25633C20.8442 6.38725 21.0364 6.57707 21.1703 6.80647C21.3041 7.03588 21.3748 7.29665 21.375 7.56224Z" fill="#1D1F21" style="fill: var(--ui-icon-primary-color);"/>
</svg>
