<svg  viewBox="0 0 24 24" fill="none" xmlns="http://www.w3.org/2000/svg" id="__THIS_ID_NEEDS_FOR_UI_ICON_COMPONENT__">
<path d="M19.5 18.4394C19.7097 18.6491 19.8526 18.9164 19.9105 19.2074C19.9683 19.4983 19.9386 19.7999 19.8251 20.074C19.7116 20.3481 19.5193 20.5824 19.2727 20.7472C19.026 20.912 18.736 21 18.4393 21H5.56059C5.26392 21 4.97392 20.912 4.72725 20.7472C4.48058 20.5824 4.28833 20.3481 4.1748 20.074C4.06127 19.7999 4.03156 19.4983 4.08944 19.2074C4.14732 18.9164 4.29018 18.6491 4.49995 18.4394L10.9391 12.0001L4.49995 5.56064C4.29018 5.35086 4.14732 5.08359 4.08944 4.79262C4.03156 4.50166 4.06127 4.20006 4.1748 3.92597C4.28833 3.65189 4.48058 3.41762 4.72725 3.2528C4.97392 3.08798 5.26392 3 5.56059 3H18.4393C18.736 3 19.026 3.08798 19.2727 3.2528C19.5193 3.41762 19.7116 3.65189 19.8251 3.92597C19.9386 4.20006 19.9683 4.50165 19.9105 4.79262C19.8526 5.08359 19.7097 5.35086 19.5 5.56064L13.0608 11.9999L19.5 18.4394Z" fill="#1D1F21" style="fill: var(--ui-icon-primary-color);"/>
</svg>
