<svg  viewBox="0 0 24 24" fill="none" xmlns="http://www.w3.org/2000/svg" id="__THIS_ID_NEEDS_FOR_UI_ICON_COMPONENT__">
<path d="M13.0608 11.9999L17.7802 7.28039L17.7803 7.28027L19.5 5.56064C19.7097 5.35086 19.8526 5.08359 19.9105 4.79262C19.9683 4.50166 19.9386 4.20006 19.8251 3.92597C19.7116 3.65189 19.5193 3.41762 19.2727 3.2528C19.026 3.08798 18.736 3 18.4393 3H5.56059C5.26393 3 4.97392 3.08798 4.72725 3.2528C4.48058 3.41762 4.28833 3.65189 4.1748 3.92597C4.06127 4.20006 4.03157 4.50166 4.08945 4.79262C4.14732 5.08359 4.29018 5.35086 4.49996 5.56064L10.9391 12.0001L4.49996 18.4394C4.29018 18.6491 4.14732 18.9164 4.08945 19.2074C4.03157 19.4983 4.06127 19.7999 4.1748 20.074C4.28833 20.3481 4.48058 20.5824 4.72725 20.7472C4.97392 20.912 5.26393 21 5.56059 21H18.4393C18.736 21 19.026 20.912 19.2727 20.7472C19.5193 20.5824 19.7116 20.3481 19.8251 20.074C19.9386 19.7999 19.9683 19.4983 19.9105 19.2074C19.8526 18.9164 19.7097 18.6491 19.5 18.4394L13.0608 11.9999ZM18.4389 4.50046L16.9393 6H7.06119L5.56123 4.5L18.4389 4.50046ZM5.56105 19.4995L11.9998 13.0608L18.4387 19.5L5.56105 19.4995Z" fill="#1D1F21" style="fill: var(--ui-icon-primary-color);"/>
</svg>
