<svg  viewBox="0 0 24 24" fill="none" xmlns="http://www.w3.org/2000/svg" id="__THIS_ID_NEEDS_FOR_UI_ICON_COMPONENT__">
<path d="M13.0609 11.9999L16.2803 8.78039L16.2804 8.78027L19.5001 5.56064C19.7098 5.35086 19.8527 5.08359 19.9106 4.79262C19.9684 4.50166 19.9387 4.20006 19.8252 3.92597C19.7117 3.65189 19.5194 3.41762 19.2728 3.2528C19.0261 3.08798 18.7361 3 18.4394 3H5.5607C5.26403 3 4.97403 3.08798 4.72736 3.2528C4.48069 3.41762 4.28844 3.65189 4.17491 3.92597C4.06138 4.20006 4.03168 4.50166 4.08955 4.79262C4.14743 5.08359 4.29029 5.35086 4.50006 5.56064L10.9392 12.0001L4.50006 18.4394C4.29029 18.6491 4.14743 18.9164 4.08955 19.2074C4.03168 19.4983 4.06138 19.7999 4.17491 20.074C4.28844 20.3481 4.48069 20.5824 4.72736 20.7472C4.97403 20.912 5.26403 21 5.5607 21H18.4394C18.7361 21 19.0261 20.912 19.2728 20.7472C19.5194 20.5824 19.7117 20.3481 19.8252 20.074C19.9387 19.7999 19.9684 19.4983 19.9106 19.2074C19.8527 18.9164 19.7098 18.6491 19.5001 18.4394L13.0609 11.9999ZM18.439 4.50046L16.1894 6.75H7.81125L5.56134 4.5L18.439 4.50046ZM5.56116 19.4995L11.2501 13.8106V15.75C11.2501 15.9489 11.3291 16.1397 11.4697 16.2803C11.6104 16.421 11.8011 16.5 12.0001 16.5C12.199 16.5 12.3897 16.421 12.5304 16.2803C12.671 16.1397 12.7501 15.9489 12.7501 15.75V13.811L18.4388 19.5L5.56116 19.4995Z" fill="#1D1F21" style="fill: var(--ui-icon-primary-color);"/>
</svg>
