<svg  viewBox="0 0 24 24" fill="none" xmlns="http://www.w3.org/2000/svg" id="__THIS_ID_NEEDS_FOR_UI_ICON_COMPONENT__">
<path d="M18.75 7.09135V3.75C18.7495 3.35231 18.5914 2.97105 18.3102 2.68984C18.029 2.40864 17.6477 2.25045 17.25 2.25H6.75C6.35231 2.25045 5.97105 2.40864 5.68984 2.68984C5.40864 2.97105 5.25045 3.35231 5.25 3.75V7.125C5.25055 7.35777 5.30501 7.58724 5.40911 7.79543C5.5132 8.00363 5.66411 8.18488 5.84999 8.32498L10.75 12L5.85004 15.675C5.67562 15.8069 5.53204 15.9753 5.42926 16.1683C5.32649 16.3613 5.26699 16.5744 5.2549 16.7927C5.25175 16.82 5.25011 16.8475 5.25 16.875V20.25C5.25045 20.6477 5.40864 21.029 5.68984 21.3102C5.97105 21.5914 6.35231 21.7495 6.75 21.75H17.25C17.6477 21.7495 18.029 21.5914 18.3102 21.3102C18.5914 21.029 18.7495 20.6477 18.75 20.25V16.9086C18.7499 16.8807 18.7483 16.8527 18.7451 16.8249C18.7328 16.6078 18.6736 16.3959 18.5717 16.2038C18.4698 16.0117 18.3274 15.8439 18.1545 15.7121L13.2437 12L18.1545 8.28797C18.3391 8.1477 18.4888 7.96677 18.5921 7.75924C18.6954 7.55171 18.7494 7.32316 18.75 7.09135ZM7.74348 16.1299L11.9983 12.9388L16.2513 16.1537L7.74348 16.1299ZM17.25 7.09138L11.9983 11.0612L6.75 7.125V3.75H17.25V7.09138Z" fill="#1D1F21" style="fill: var(--ui-icon-primary-color);"/>
</svg>
