<svg  viewBox="0 0 24 24" fill="none" xmlns="http://www.w3.org/2000/svg" id="__THIS_ID_NEEDS_FOR_UI_ICON_COMPONENT__">
<path d="M18.1538 8.28857L13.2435 12.0005L18.1538 15.7124C18.3388 15.8524 18.4889 16.0332 18.5923 16.2409C18.6957 16.4485 18.7497 16.6772 18.75 16.9092V20.2505C18.7495 20.6482 18.5913 21.0294 18.3101 21.3106C18.0289 21.5918 17.6477 21.75 17.25 21.7505H6.75C6.35233 21.75 5.9711 21.5918 5.68991 21.3106C5.40872 21.0294 5.25052 20.6482 5.25 20.2505V16.8755C5.25056 16.6428 5.30501 16.4134 5.40908 16.2052C5.51315 15.9971 5.66402 15.8159 5.84985 15.6758L10.7505 12.0005L5.85059 8.3252C5.66466 8.18516 5.51368 8.00397 5.40948 7.79583C5.30529 7.58769 5.2507 7.35825 5.25 7.12549V3.75049C5.25052 3.35282 5.40872 2.97159 5.68991 2.6904C5.9711 2.40921 6.35233 2.25101 6.75 2.25049H17.25C17.6477 2.25101 18.0289 2.40921 18.3101 2.6904C18.5913 2.97159 18.7495 3.35282 18.75 3.75049V7.0918C18.7495 7.32373 18.6955 7.55242 18.5921 7.76002C18.4887 7.96762 18.3387 8.14851 18.1538 8.28857Z" fill="#1D1F21" style="fill: var(--ui-icon-primary-color);"/>
</svg>
