<svg  viewBox="0 0 24 24" fill="none" xmlns="http://www.w3.org/2000/svg" id="__THIS_ID_NEEDS_FOR_UI_ICON_COMPONENT__">
<path d="M22.4978 19.5H20.9978V10.8318C20.9976 10.6228 20.9538 10.4162 20.8693 10.2251C20.7848 10.034 20.6614 9.86259 20.5069 9.72186L13.0063 2.90294C12.7308 2.65065 12.3707 2.51072 11.9972 2.51074C11.6236 2.51076 11.2636 2.65072 10.9882 2.90303L3.48871 9.72186C3.33424 9.86258 3.2108 10.034 3.12627 10.2251C3.04175 10.4162 2.99799 10.6228 2.9978 10.8317V19.5H1.4978C1.29889 19.5 1.10812 19.579 0.967473 19.7197C0.82682 19.8603 0.747803 20.0511 0.747803 20.25C0.747803 20.4489 0.82682 20.6397 0.967473 20.7803C1.10812 20.921 1.29889 21 1.4978 21H22.4978C22.6967 21 22.8875 20.921 23.0281 20.7803C23.1688 20.6397 23.2478 20.4489 23.2478 20.25C23.2478 20.0511 23.1688 19.8603 23.0281 19.7197C22.8875 19.579 22.6967 19.5 22.4978 19.5ZM9.74945 13.5H14.2495V19.5H9.74945V13.5Z" fill="#1D1F21" style="fill: var(--ui-icon-primary-color);"/>
</svg>
