<svg  viewBox="0 0 24 24" fill="none" xmlns="http://www.w3.org/2000/svg" id="__THIS_ID_NEEDS_FOR_UI_ICON_COMPONENT__">
<path d="M20.25 3.75H3.75C3.35231 3.75045 2.97105 3.90864 2.68984 4.18984C2.40864 4.47105 2.25045 4.85231 2.25 5.25V18.75C2.25045 19.1477 2.40864 19.529 2.68984 19.8102C2.97105 20.0914 3.35231 20.2495 3.75 20.25H20.25C20.6477 20.2495 21.029 20.0914 21.3102 19.8102C21.5914 19.529 21.7495 19.1477 21.75 18.75V5.25C21.7495 4.85231 21.5914 4.47105 21.3102 4.18984C21.029 3.90864 20.6477 3.75045 20.25 3.75ZM11.7269 16.4761C11.5342 16.5256 11.3298 16.4967 11.1585 16.3955C10.9873 16.2944 10.8632 16.1294 10.8135 15.9368C10.6885 15.4539 10.4067 15.0262 10.0122 14.7209C9.6178 14.4156 9.13314 14.25 8.63435 14.25C8.13557 14.25 7.65092 14.4157 7.25651 14.721C6.8621 15.0264 6.58028 15.454 6.45529 15.9369C6.43074 16.0323 6.38764 16.1219 6.32846 16.2006C6.26928 16.2794 6.19517 16.3457 6.11036 16.3957C6.02555 16.4458 5.93171 16.4787 5.83419 16.4925C5.73668 16.5064 5.63739 16.5008 5.54201 16.4763C5.44662 16.4517 5.35701 16.4086 5.27828 16.3495C5.19955 16.2903 5.13326 16.2162 5.08317 16.1314C5.03308 16.0465 5.00019 15.9527 4.98637 15.8552C4.97255 15.7577 4.97807 15.6584 5.00262 15.563C5.23072 14.6758 5.77648 13.9032 6.5364 13.3916C6.11028 12.9747 5.81804 12.4403 5.69695 11.8566C5.57587 11.2729 5.63143 10.6663 5.85655 10.1143C6.08167 9.56234 6.46614 9.08992 6.9609 8.75738C7.45567 8.42483 8.03829 8.24722 8.63442 8.24722C9.23056 8.24722 9.81318 8.42483 10.3079 8.75738C10.8027 9.08992 11.1872 9.56234 11.4123 10.1143C11.6374 10.6663 11.693 11.2729 11.5719 11.8566C11.4508 12.4403 11.1586 12.9747 10.7325 13.3916C11.4923 13.9031 12.038 14.6757 12.2662 15.5628C12.3158 15.7554 12.2868 15.9599 12.1857 16.1311C12.0845 16.3024 11.9195 16.4265 11.7269 16.4761ZM18 14.25H14.25C14.0511 14.25 13.8603 14.171 13.7197 14.0303C13.579 13.8897 13.5 13.6989 13.5 13.5C13.5 13.3011 13.579 13.1103 13.7197 12.9697C13.8603 12.829 14.0511 12.75 14.25 12.75H18C18.1989 12.75 18.3897 12.829 18.5303 12.9697C18.671 13.1103 18.75 13.3011 18.75 13.5C18.75 13.6989 18.671 13.8897 18.5303 14.0303C18.3897 14.171 18.1989 14.25 18 14.25ZM18 11.25H14.25C14.0511 11.25 13.8603 11.171 13.7197 11.0303C13.579 10.8897 13.5 10.6989 13.5 10.5C13.5 10.3011 13.579 10.1103 13.7197 9.96967C13.8603 9.82902 14.0511 9.75 14.25 9.75H18C18.1989 9.75 18.3897 9.82902 18.5303 9.96967C18.671 10.1103 18.75 10.3011 18.75 10.5C18.75 10.6989 18.671 10.8897 18.5303 11.0303C18.3897 11.171 18.1989 11.25 18 11.25ZM10.1344 11.25C10.1344 11.5467 10.0465 11.8367 9.88163 12.0834C9.71681 12.33 9.48254 12.5223 9.20846 12.6358C8.93437 12.7494 8.63277 12.7791 8.34179 12.7212C8.05082 12.6633 7.78355 12.5204 7.57377 12.3107C7.36399 12.1009 7.22113 11.8336 7.16325 11.5426C7.10537 11.2517 7.13508 10.9501 7.24861 10.676C7.36214 10.4019 7.5544 10.1676 7.80107 10.0028C8.04775 9.83797 8.33776 9.75 8.63443 9.75C9.03212 9.75045 9.41338 9.90864 9.69459 10.1898C9.97579 10.471 10.134 10.8523 10.1344 11.25Z" fill="#1D1F21" style="fill: var(--ui-icon-primary-color);"/>
</svg>
