<svg  viewBox="0 0 24 24" fill="none" xmlns="http://www.w3.org/2000/svg" id="__THIS_ID_NEEDS_FOR_UI_ICON_COMPONENT__">
<path d="M15.75 9.375V9.37532C15.75 9.67372 15.6314 9.95988 15.4204 10.1709C15.2094 10.3818 14.9232 10.5003 14.6248 10.5003C14.3264 10.5003 14.0402 10.3817 13.8292 10.1707C13.6182 9.95973 13.4997 9.67356 13.4997 9.37516C13.4997 9.07676 13.6182 8.79059 13.8292 8.57958C14.0402 8.36857 14.3264 8.25002 14.6248 8.25C14.9232 8.24998 15.2094 8.36849 15.4204 8.57947C15.6314 8.79044 15.75 9.0766 15.75 9.375ZM21.7499 5.25V18.75C21.7495 19.1476 21.5913 19.5289 21.3101 19.8101C21.0289 20.0913 20.6476 20.2495 20.2499 20.25H3.74993C3.35225 20.2495 2.97098 20.0913 2.68977 19.8101C2.40857 19.5289 2.25039 19.1476 2.24993 18.75V5.25C2.25039 4.85231 2.40857 4.47105 2.68977 4.18984C2.97098 3.90864 3.35225 3.75046 3.74993 3.75H20.2499C20.6476 3.75045 21.0289 3.90864 21.3101 4.18984C21.5913 4.47105 21.7495 4.85231 21.7499 5.25H21.7499ZM20.2507 15.44L20.2499 5.25H3.74993V13.9393L7.18929 10.5C7.47083 10.2191 7.85228 10.0614 8.24998 10.0614C8.64767 10.0614 9.02912 10.2191 9.31066 10.5L13.5 14.6894L15.4393 12.75C15.7208 12.4691 16.1023 12.3114 16.5 12.3114C16.8977 12.3114 17.2791 12.4691 17.5607 12.75L20.2507 15.44Z" fill="#1D1F21" style="fill: var(--ui-icon-primary-color);"/>
</svg>
