<svg  viewBox="0 0 24 24" fill="none" xmlns="http://www.w3.org/2000/svg" id="__THIS_ID_NEEDS_FOR_UI_ICON_COMPONENT__">
<path d="M19.5 2.99951H4.50003C4.10234 2.99997 3.72107 3.15815 3.43987 3.43935C3.15866 3.72056 3.00048 4.10183 3.00003 4.49951V16.4971L2.99993 16.5L3.00003 19.4995C3.00048 19.8972 3.15866 20.2785 3.43987 20.5597C3.72107 20.8409 4.10234 20.9991 4.50003 20.9995H19.5C19.8977 20.9991 20.279 20.8409 20.5602 20.5597C20.8414 20.2785 20.9996 19.8972 21 19.4995V4.49951C20.9996 4.10183 20.8414 3.72056 20.5602 3.43935C20.279 3.15815 19.8977 2.99997 19.5 2.99951ZM16.8107 10.4995C16.5291 10.2186 16.1477 10.0609 15.75 10.0609C15.3523 10.0609 14.9708 10.2186 14.6893 10.4995L10.5 14.6889L8.56067 12.7495C8.2791 12.4687 7.89766 12.311 7.49998 12.311C7.10231 12.311 6.72087 12.4687 6.4393 12.7495L4.50003 14.6887V4.49951H19.5L19.5006 13.1894L16.8107 10.4995ZM10.4999 8.62455C10.4999 8.84705 10.434 9.06456 10.3103 9.24956C10.1867 9.43457 10.011 9.57876 9.80545 9.66391C9.59989 9.74906 9.37369 9.77134 9.15546 9.72793C8.93723 9.68452 8.73677 9.57738 8.57944 9.42004C8.42211 9.26271 8.31496 9.06225 8.27155 8.84402C8.22814 8.62579 8.25042 8.39959 8.33557 8.19403C8.42072 7.98846 8.56491 7.81276 8.74992 7.68914C8.93492 7.56553 9.15243 7.49955 9.37494 7.49955C9.6733 7.49955 9.95945 7.61807 10.1704 7.82905C10.3814 8.04003 10.4999 8.32618 10.4999 8.62455Z" fill="#1D1F21" style="fill: var(--ui-icon-primary-color);"/>
</svg>
