<svg  viewBox="0 0 24 24" fill="none" xmlns="http://www.w3.org/2000/svg" id="__THIS_ID_NEEDS_FOR_UI_ICON_COMPONENT__">
<path d="M12.0001 2.25C10.0717 2.25 8.18666 2.82183 6.58328 3.89317C4.9799 4.96451 3.73022 6.48726 2.99226 8.26884C2.25431 10.0504 2.06123 12.0108 2.43743 13.9021C2.81364 15.7934 3.74224 17.5307 5.1058 18.8943C6.46936 20.2579 8.20664 21.1865 10.098 21.5627C11.9893 21.9389 13.9497 21.7458 15.7313 21.0078C17.5128 20.2699 19.0356 19.0202 20.1069 17.4168C21.1783 15.8134 21.7501 13.9284 21.7501 12C21.7471 9.41506 20.7189 6.93684 18.8911 5.10901C17.0632 3.28118 14.585 2.25299 12.0001 2.25ZM12 6.75C12.2225 6.75 12.44 6.81598 12.625 6.9396C12.81 7.06321 12.9542 7.23891 13.0394 7.44448C13.1245 7.65005 13.1468 7.87625 13.1034 8.09448C13.06 8.31271 12.9528 8.51316 12.7955 8.6705C12.6382 8.82783 12.4377 8.93498 12.2195 8.97838C12.0012 9.02179 11.775 8.99951 11.5695 8.91436C11.3639 8.82922 11.1882 8.68502 11.0646 8.50002C10.941 8.31501 10.875 8.0975 10.875 7.875C10.875 7.72726 10.9041 7.58097 10.9606 7.44448C11.0172 7.30799 11.1 7.18397 11.2045 7.0795C11.309 6.97504 11.433 6.89217 11.5695 6.83563C11.706 6.7791 11.8523 6.75 12 6.75H12ZM12.7501 17.25H12.0001C11.9016 17.2501 11.804 17.2307 11.713 17.193C11.622 17.1554 11.5393 17.1001 11.4696 17.0305C11.4 16.9608 11.3447 16.8781 11.3071 16.7871C11.2694 16.6961 11.25 16.5985 11.2501 16.5V12C11.0512 12 10.8604 11.921 10.7198 11.7803C10.5791 11.6397 10.5001 11.4489 10.5001 11.25C10.5001 11.0511 10.5791 10.8603 10.7198 10.7197C10.8604 10.579 11.0512 10.5 11.2501 10.5H12.0001C12.0986 10.4999 12.1961 10.5193 12.2872 10.557C12.3782 10.5946 12.4609 10.6499 12.5305 10.7195C12.6002 10.7892 12.6554 10.8719 12.6931 10.9629C12.7308 11.0539 12.7501 11.1515 12.7501 11.25V15.75C12.949 15.75 13.1398 15.829 13.2804 15.9697C13.4211 16.1103 13.5001 16.3011 13.5001 16.5C13.5001 16.6989 13.4211 16.8897 13.2804 17.0303C13.1398 17.171 12.949 17.25 12.7501 17.25Z" fill="#1D1F21" style="fill: var(--ui-icon-primary-color);"/>
</svg>
