<svg  viewBox="0 0 24 24" fill="none" xmlns="http://www.w3.org/2000/svg" id="__THIS_ID_NEEDS_FOR_UI_ICON_COMPONENT__">
<path d="M22.5 8.25H21.2755L20.7094 4.28769C20.6569 3.93092 20.4781 3.60482 20.2057 3.36855C19.9333 3.13229 19.5851 3.00153 19.2245 3H4.77548C4.41483 3.00155 4.06669 3.13234 3.79423 3.36863C3.52177 3.60493 3.34305 3.93107 3.2905 4.28787L2.72449 8.25H1.5C1.30109 8.25 1.11032 8.32902 0.96967 8.46967C0.829018 8.61032 0.75 8.80109 0.75 9C0.75 9.19891 0.829018 9.38968 0.96967 9.53033C1.11032 9.67098 1.30109 9.75 1.5 9.75H2.625V19.5C2.62545 19.8977 2.78364 20.279 3.06484 20.5602C3.34605 20.8414 3.72731 20.9995 4.125 21H6.375C6.77269 20.9995 7.15395 20.8414 7.43516 20.5602C7.71636 20.279 7.87455 19.8977 7.875 19.5V17.25H9.75V12C9.75 11.8011 9.82902 11.6103 9.96967 11.4697C10.1103 11.329 10.3011 11.25 10.5 11.25C10.6989 11.25 10.8897 11.329 11.0303 11.4697C11.171 11.6103 11.25 11.8011 11.25 12V17.25H12.75V12C12.75 11.8011 12.829 11.6103 12.9697 11.4697C13.1103 11.329 13.3011 11.25 13.5 11.25C13.6989 11.25 13.8897 11.329 14.0303 11.4697C14.171 11.6103 14.25 11.8011 14.25 12V17.25H16.125V19.5C16.1255 19.8977 16.2836 20.279 16.5648 20.5602C16.846 20.8414 17.2273 20.9995 17.625 21H19.875C20.2727 20.9995 20.654 20.8414 20.9352 20.5602C21.2164 20.279 21.3745 19.8977 21.375 19.5V9.75H22.5C22.6989 9.75 22.8897 9.67098 23.0303 9.53033C23.171 9.38968 23.25 9.19891 23.25 9C23.25 8.80109 23.171 8.61032 23.0303 8.46967C22.8897 8.32902 22.6989 8.25 22.5 8.25ZM6.375 19.5H4.125V17.25H6.375V19.5ZM6.75 13.5C6.5275 13.5 6.30999 13.434 6.12498 13.3104C5.93998 13.1868 5.79578 13.0111 5.71064 12.8055C5.62549 12.6 5.60321 12.3738 5.64662 12.1555C5.69002 11.9373 5.79717 11.7368 5.9545 11.5795C6.11184 11.4222 6.31229 11.315 6.53052 11.2716C6.74875 11.2282 6.97495 11.2505 7.18052 11.3356C7.38609 11.4208 7.56179 11.565 7.6854 11.75C7.80902 11.935 7.875 12.1525 7.875 12.375C7.875 12.6734 7.75647 12.9595 7.5455 13.1705C7.33452 13.3815 7.04837 13.5 6.75 13.5ZM17.25 13.5C17.0275 13.5 16.81 13.434 16.625 13.3104C16.44 13.1868 16.2958 13.0111 16.2106 12.8055C16.1255 12.6 16.1032 12.3738 16.1466 12.1555C16.19 11.9373 16.2972 11.7368 16.4545 11.5795C16.6118 11.4222 16.8123 11.315 17.0305 11.2716C17.2488 11.2282 17.475 11.2505 17.6805 11.3356C17.8861 11.4208 18.0618 11.565 18.1854 11.75C18.309 11.935 18.375 12.1525 18.375 12.375C18.375 12.6734 18.2565 12.9595 18.0455 13.1705C17.8345 13.3815 17.5484 13.5 17.25 13.5ZM19.875 19.5H17.625V17.25H19.875V19.5Z" fill="#1D1F21" style="fill: var(--ui-icon-primary-color);"/>
</svg>
