<svg  viewBox="0 0 24 24" fill="none" xmlns="http://www.w3.org/2000/svg" id="__THIS_ID_NEEDS_FOR_UI_ICON_COMPONENT__">
<path d="M15.0002 1.5C13.8164 1.50086 12.6496 1.78172 11.5951 2.31965C10.5406 2.85758 9.62829 3.63732 8.93268 4.59518C8.23707 5.55304 7.7779 6.66186 7.59267 7.83107C7.40745 9.00029 7.50141 10.1967 7.8669 11.3227L2.46986 16.7196C2.32924 16.8603 2.25023 17.0511 2.25023 17.25V21C2.25024 21.1989 2.32926 21.3897 2.46991 21.5303C2.61056 21.671 2.80132 21.75 3.00023 21.75H6.75023C6.94914 21.75 7.1399 21.671 7.28055 21.5303C7.4212 21.3897 7.50022 21.1989 7.50023 21V19.5H9.00023C9.19914 19.5 9.3899 19.421 9.53055 19.2803C9.6712 19.1397 9.75022 18.9489 9.75023 18.75V17.25H11.2502C11.4491 17.25 11.6399 17.171 11.7806 17.0304L12.6775 16.1333C13.7087 16.469 14.8003 16.5771 15.8773 16.4502C16.9542 16.3233 17.9909 15.9643 18.9157 15.3981C19.8406 14.8319 20.6317 14.072 21.2345 13.1705C21.8373 12.2691 22.2375 11.2477 22.4075 10.1767C22.5775 9.10573 22.5132 8.01061 22.2192 6.96684C21.9251 5.92307 21.4082 4.95547 20.7042 4.13072C20.0001 3.30598 19.1255 2.6437 18.1408 2.18954C17.1561 1.73538 16.0846 1.50013 15.0002 1.5ZM16.875 8.625C16.5783 8.625 16.2883 8.53703 16.0416 8.3722C15.795 8.20738 15.6027 7.97311 15.4892 7.69903C15.3756 7.42494 15.3459 7.12334 15.4038 6.83236C15.4617 6.54139 15.6046 6.27412 15.8143 6.06434C16.0241 5.85456 16.2914 5.7117 16.5824 5.65382C16.8733 5.59594 17.1749 5.62565 17.449 5.73918C17.7231 5.85271 17.9574 6.04497 18.1222 6.29165C18.287 6.53832 18.375 6.82833 18.375 7.125C18.375 7.52282 18.217 7.90435 17.9357 8.18566C17.6544 8.46696 17.2728 8.625 16.875 8.625Z" fill="#1D1F21" style="fill: var(--ui-icon-primary-color);"/>
</svg>
