<svg  viewBox="0 0 24 24" fill="none" xmlns="http://www.w3.org/2000/svg" id="__THIS_ID_NEEDS_FOR_UI_ICON_COMPONENT__">
<path d="M20.9545 4.45459H3.0455C2.62369 4.45507 2.21929 4.62285 1.92103 4.92112C1.62276 5.21939 1.45498 5.62378 1.4545 6.04559V17.9546C1.45498 18.3764 1.62276 18.7808 1.92103 19.0791C2.21929 19.3773 2.62369 19.5451 3.0455 19.5456H20.9545C21.3763 19.5451 21.7807 19.3773 22.079 19.0791C22.3772 18.7808 22.545 18.3764 22.5455 17.9546V6.04559C22.545 5.62378 22.3772 5.21939 22.079 4.92112C21.7807 4.62285 21.3763 4.45507 20.9545 4.45459ZM6 15.7501H5.25C5.05109 15.7501 4.86032 15.6711 4.71967 15.5304C4.57902 15.3898 4.5 15.199 4.5 15.0001C4.5 14.8012 4.57902 14.6104 4.71967 14.4698C4.86032 14.3291 5.05109 14.2501 5.25 14.2501H6C6.19891 14.2501 6.38968 14.3291 6.53033 14.4698C6.67098 14.6104 6.75 14.8012 6.75 15.0001C6.75 15.199 6.67098 15.3898 6.53033 15.5304C6.38968 15.6711 6.19891 15.7501 6 15.7501ZM15 15.7501H9C8.80109 15.7501 8.61032 15.6711 8.46967 15.5304C8.32902 15.3898 8.25 15.199 8.25 15.0001C8.25 14.8012 8.32902 14.6104 8.46967 14.4698C8.61032 14.3291 8.80109 14.2501 9 14.2501H15C15.1989 14.2501 15.3897 14.3291 15.5303 14.4698C15.671 14.6104 15.75 14.8012 15.75 15.0001C15.75 15.199 15.671 15.3898 15.5303 15.5304C15.3897 15.6711 15.1989 15.7501 15 15.7501ZM18.75 15.7501H18C17.8011 15.7501 17.6103 15.6711 17.4697 15.5304C17.329 15.3898 17.25 15.199 17.25 15.0001C17.25 14.8012 17.329 14.6104 17.4697 14.4698C17.6103 14.3291 17.8011 14.2501 18 14.2501H18.75C18.9489 14.2501 19.1397 14.3291 19.2803 14.4698C19.421 14.6104 19.5 14.8012 19.5 15.0001C19.5 15.199 19.421 15.3898 19.2803 15.5304C19.1397 15.6711 18.9489 15.7501 18.75 15.7501ZM18.75 12.7501H5.25C5.05109 12.7501 4.86032 12.6711 4.71967 12.5304C4.57902 12.3898 4.5 12.199 4.5 12.0001C4.5 11.8012 4.57902 11.6104 4.71967 11.4698C4.86032 11.3291 5.05109 11.2501 5.25 11.2501H18.75C18.9489 11.2501 19.1397 11.3291 19.2803 11.4698C19.421 11.6104 19.5 11.8012 19.5 12.0001C19.5 12.199 19.421 12.3898 19.2803 12.5304C19.1397 12.6711 18.9489 12.7501 18.75 12.7501ZM18.75 9.75009H5.25C5.05109 9.75009 4.86032 9.67107 4.71967 9.53042C4.57902 9.38977 4.5 9.199 4.5 9.00009C4.5 8.80118 4.57902 8.61041 4.71967 8.46976C4.86032 8.32911 5.05109 8.25009 5.25 8.25009H18.75C18.9489 8.25009 19.1397 8.32911 19.2803 8.46976C19.421 8.61041 19.5 8.80118 19.5 9.00009C19.5 9.199 19.421 9.38977 19.2803 9.53042C19.1397 9.67107 18.9489 9.75009 18.75 9.75009Z" fill="#1D1F21" style="fill: var(--ui-icon-primary-color);"/>
</svg>
