<svg  viewBox="0 0 24 24" fill="none" xmlns="http://www.w3.org/2000/svg" id="__THIS_ID_NEEDS_FOR_UI_ICON_COMPONENT__">
<path d="M21.75 15.75H21V6.75C20.9993 6.15347 20.762 5.58157 20.3402 5.15976C19.9184 4.73795 19.3465 4.50068 18.75 4.5H5.25C4.65347 4.50068 4.08157 4.73795 3.65976 5.15976C3.23795 5.58157 3.00068 6.15347 3 6.75V15.75H2.25C2.05109 15.75 1.86032 15.829 1.71967 15.9697C1.57902 16.1103 1.5 16.3011 1.5 16.5V18C1.50068 18.5965 1.73795 19.1684 2.15976 19.5902C2.58157 20.012 3.15347 20.2493 3.75 20.25H20.25C20.8465 20.2493 21.4184 20.012 21.8402 19.5902C22.262 19.1684 22.4993 18.5965 22.5 18V16.5C22.5 16.3011 22.421 16.1103 22.2803 15.9697C22.1397 15.829 21.9489 15.75 21.75 15.75ZM10.5 6.75H13.5C13.6989 6.75 13.8897 6.82902 14.0303 6.96967C14.171 7.11032 14.25 7.30109 14.25 7.5C14.25 7.69891 14.171 7.88968 14.0303 8.03033C13.8897 8.17098 13.6989 8.25 13.5 8.25H10.5C10.3011 8.25 10.1103 8.17098 9.96967 8.03033C9.82902 7.88968 9.75 7.69891 9.75 7.5C9.75 7.30109 9.82902 7.11032 9.96967 6.96967C10.1103 6.82902 10.3011 6.75 10.5 6.75ZM21 18C20.9998 18.1988 20.9207 18.3895 20.7801 18.5301C20.6395 18.6707 20.4488 18.7498 20.25 18.75H3.75C3.55116 18.7498 3.36052 18.6707 3.21992 18.5301C3.07932 18.3895 3.00023 18.1988 3 18V17.25H21V18Z" fill="#1D1F21" style="fill: var(--ui-icon-primary-color);"/>
</svg>
