<svg  viewBox="0 0 24 24" fill="none" xmlns="http://www.w3.org/2000/svg" id="__THIS_ID_NEEDS_FOR_UI_ICON_COMPONENT__">
<path d="M4.14455 20.3242C4.29341 20.3748 4.44309 20.4224 4.59357 20.4671L2.78032 22.2804C2.63966 22.421 2.44889 22.5 2.24997 22.5C2.05105 22.5 1.86029 22.421 1.71964 22.2803C1.57899 22.1397 1.49998 21.9489 1.49998 21.75C1.49999 21.5511 1.57902 21.3603 1.71968 21.2196L3.53288 19.4065C3.57785 19.5569 3.6255 19.7065 3.67584 19.8555C3.71284 19.9643 3.77435 20.0632 3.85562 20.1444C3.93689 20.2257 4.03574 20.2872 4.14455 20.3242ZM20.3242 4.14455C20.2872 4.03573 20.2257 3.93687 20.1444 3.8556C20.0631 3.77433 19.9643 3.71283 19.8555 3.67585C18.5333 3.22691 17.1463 2.99858 15.75 3.00001C8.71962 3.00001 3 8.71963 3 15.75C2.99903 16.9882 3.17854 18.22 3.53288 19.4065L14.4697 8.46969C14.6104 8.32918 14.8011 8.25029 14.9999 8.25035C15.1987 8.25042 15.3894 8.32943 15.53 8.47002C15.6706 8.61061 15.7496 8.80128 15.7497 9.0001C15.7497 9.19893 15.6708 9.38965 15.5303 9.53033L4.59357 20.4671C5.78002 20.8214 7.01177 21.001 8.25 21C15.2804 21 21 15.2803 21 8.25001C21.0014 6.85372 20.7731 5.4667 20.3242 4.14455Z" fill="#1D1F21" style="fill: var(--ui-icon-primary-color);"/>
</svg>
