<svg  viewBox="0 0 24 24" fill="none" xmlns="http://www.w3.org/2000/svg" id="__THIS_ID_NEEDS_FOR_UI_ICON_COMPONENT__">
<path d="M20.0483 11.7612L9.54832 23.0112C9.43698 23.1305 9.28977 23.2103 9.12903 23.2383C8.96828 23.2664 8.80276 23.2413 8.65759 23.1668C8.51241 23.0922 8.39549 22.9724 8.32457 22.8255C8.25364 22.6785 8.23258 22.5124 8.26457 22.3524L9.63951 15.4778L4.23666 13.4518C4.12121 13.4085 4.01821 13.3374 3.93678 13.2448C3.85535 13.1522 3.79801 13.0409 3.76984 12.9209C3.74166 12.8009 3.74351 12.6757 3.77524 12.5566C3.80696 12.4374 3.86757 12.3279 3.9517 12.2378L14.4517 0.987767C14.563 0.868477 14.7103 0.788754 14.871 0.760689C15.0317 0.732624 15.1973 0.757748 15.3424 0.832252C15.4876 0.906755 15.6045 1.02657 15.6755 1.17353C15.7464 1.32049 15.7674 1.48657 15.7355 1.64658L14.3605 8.52118L19.7634 10.5472C19.8788 10.5905 19.9818 10.6616 20.0632 10.7542C20.1447 10.8468 20.202 10.9581 20.2302 11.0781C20.2584 11.1981 20.2565 11.3233 20.2248 11.4424C20.1931 11.5616 20.1325 11.6711 20.0483 11.7612L20.0483 11.7612Z" fill="#1D1F21" style="fill: var(--ui-icon-primary-color);"/>
</svg>
