<svg  viewBox="0 0 24 24" fill="none" xmlns="http://www.w3.org/2000/svg" id="__THIS_ID_NEEDS_FOR_UI_ICON_COMPONENT__">
<path d="M15.7502 18.75C15.7502 18.9489 15.6712 19.1397 15.5305 19.2803C15.3899 19.421 15.1991 19.5 15.0002 19.5H9.00023C8.80132 19.5 8.61055 19.421 8.4699 19.2803C8.32925 19.1397 8.25023 18.9489 8.25023 18.75C8.25023 18.5511 8.32925 18.3603 8.4699 18.2197C8.61055 18.079 8.80132 18 9.00023 18H15.0002C15.1991 18 15.3899 18.079 15.5305 18.2197C15.6712 18.3603 15.7502 18.5511 15.7502 18.75ZM14.2502 21H9.75023C9.55132 21 9.36055 21.079 9.2199 21.2197C9.07925 21.3603 9.00023 21.5511 9.00023 21.75C9.00023 21.9489 9.07925 22.1397 9.2199 22.2803C9.36055 22.421 9.55132 22.5 9.75023 22.5H14.2502C14.4491 22.5 14.6399 22.421 14.7806 22.2803C14.9212 22.1397 15.0002 21.9489 15.0002 21.75C15.0002 21.5511 14.9212 21.3603 14.7806 21.2197C14.6399 21.079 14.4491 21 14.2502 21ZM12.0002 1.5C10.2688 1.50009 8.58126 2.0449 7.17663 3.05727C5.772 4.06965 4.72147 5.49827 4.17381 7.14082C3.62616 8.78337 3.60914 10.5566 4.12517 12.2093C4.6412 13.8621 5.66412 15.3106 7.04906 16.3498C7.17899 16.4474 7.33709 16.5001 7.49959 16.5001H16.5009C16.6634 16.5001 16.8215 16.4474 16.9514 16.3498C18.3363 15.3106 19.3593 13.8621 19.8753 12.2093C20.3913 10.5566 20.3743 8.78337 19.8266 7.14082C19.279 5.49827 18.2285 4.06965 16.8238 3.05727C15.4192 2.0449 13.7317 1.50009 12.0002 1.5Z" fill="#1D1F21" style="fill: var(--ui-icon-primary-color);"/>
</svg>
