<svg  viewBox="0 0 24 24" fill="none" xmlns="http://www.w3.org/2000/svg" id="__THIS_ID_NEEDS_FOR_UI_ICON_COMPONENT__">
<path d="M18.629 10.1438C18.9426 9.83043 19.1915 9.45837 19.3613 9.04884C19.5311 8.6393 19.6186 8.20032 19.6187 7.75697C19.6189 7.31361 19.5316 6.87458 19.362 6.46495C19.1924 6.05532 18.9438 5.68313 18.6303 5.36962C18.3168 5.05612 17.9446 4.80745 17.535 4.63784C17.1254 4.46822 16.6863 4.38097 16.243 4.38107C15.7996 4.38118 15.3606 4.46863 14.9511 4.63845C14.5416 4.80826 14.1695 5.0571 13.8561 5.37075L11.9998 7.22699C11.8592 7.36762 11.6684 7.44662 11.4695 7.44661C11.2706 7.44659 11.0798 7.36756 10.9392 7.2269C10.7985 7.08623 10.7195 6.89547 10.7196 6.69656C10.7196 6.49765 10.7986 6.30689 10.9393 6.16625L12.7955 4.31012C13.2482 3.85744 13.7856 3.49836 14.3771 3.25338C14.9685 3.0084 15.6024 2.88232 16.2426 2.88232C16.8828 2.88233 17.5167 3.00843 18.1082 3.25343C18.6996 3.49843 19.237 3.85752 19.6897 4.3102C20.1424 4.76289 20.5014 5.3003 20.7464 5.89176C20.9914 6.48322 21.1175 7.11714 21.1175 7.75732C21.1175 8.39751 20.9914 9.03142 20.7464 9.62287C20.5014 10.2143 20.1423 10.7517 19.6896 11.2044L17.8336 13.0605C17.6929 13.2011 17.5022 13.28 17.3034 13.2799C17.1045 13.2799 16.9139 13.2009 16.7732 13.0603C16.6326 12.9197 16.5536 12.7291 16.5535 12.5302C16.5535 12.3314 16.6323 12.1407 16.7728 12L18.629 10.1438ZM12 16.7728L10.1437 18.6291C9.8303 18.9426 9.45824 19.1913 9.04873 19.361C8.63922 19.5307 8.20029 19.6181 7.75701 19.6181C7.31373 19.6182 6.87479 19.5309 6.46524 19.3613C6.0557 19.1917 5.68358 18.943 5.37014 18.6296C5.0567 18.3161 4.80808 17.944 4.63848 17.5344C4.46887 17.1249 4.38161 16.6859 4.38168 16.2427C4.38175 15.7994 4.46914 15.3605 4.63886 14.951C4.80858 14.5415 5.05731 14.1694 5.37085 13.856L7.22699 11.9998C7.36762 11.8591 7.44662 11.6684 7.44661 11.4695C7.44659 11.2706 7.36756 11.0798 7.2269 10.9392C7.08623 10.7985 6.89547 10.7195 6.69656 10.7196C6.49765 10.7196 6.3069 10.7986 6.16626 10.9393L4.31021 12.7954C3.85735 13.248 3.49809 13.7855 3.25296 14.3769C3.00782 14.9684 2.88161 15.6024 2.88152 16.2427C2.88144 16.883 3.00749 17.517 3.25247 18.1086C3.49745 18.7001 3.85657 19.2377 4.30931 19.6904C4.76205 20.1432 5.29955 20.5023 5.8911 20.7473C6.48266 20.9923 7.11668 21.1184 7.75696 21.1183C8.39724 21.1182 9.03124 20.992 9.62274 20.7469C10.2142 20.5018 10.7517 20.1425 11.2043 19.6897L13.0605 17.8336C13.2011 17.6929 13.28 17.5022 13.2799 17.3033C13.2799 17.1045 13.2009 16.9138 13.0603 16.7732C12.9197 16.6326 12.7291 16.5536 12.5302 16.5535C12.3314 16.5535 12.1407 16.6323 12 16.7728L12 16.7728ZM8.8179 7.44662C9.01681 7.44661 9.20757 7.36759 9.34822 7.22694C9.48887 7.08629 9.56789 6.89553 9.5679 6.69662V4.57525C9.5679 4.37634 9.48888 4.18557 9.34823 4.04492C9.20758 3.90427 9.01681 3.82525 8.8179 3.82525C8.61899 3.82525 8.42822 3.90427 8.28757 4.04492C8.14692 4.18557 8.0679 4.37634 8.0679 4.57525V6.69662C8.06791 6.89553 8.14693 7.08629 8.28758 7.22694C8.42823 7.36759 8.61899 7.44661 8.8179 7.44662ZM4.57525 9.5679H6.69662C6.89553 9.5679 7.0863 9.48888 7.22695 9.34823C7.3676 9.20757 7.44662 9.01681 7.44662 8.8179C7.44662 8.61899 7.3676 8.42822 7.22695 8.28757C7.0863 8.14691 6.89553 8.0679 6.69662 8.0679H4.57525C4.37634 8.0679 4.18558 8.14691 4.04492 8.28757C3.90427 8.42822 3.82525 8.61899 3.82525 8.8179C3.82525 9.01681 3.90427 9.20757 4.04492 9.34823C4.18558 9.48888 4.37634 9.5679 4.57525 9.5679ZM19.4246 14.4319H17.3032C17.1043 14.4319 16.9135 14.5109 16.7729 14.6516C16.6322 14.7922 16.5532 14.983 16.5532 15.1819C16.5532 15.3808 16.6322 15.5716 16.7729 15.7122C16.9135 15.8529 17.1043 15.9319 17.3032 15.9319H19.4246C19.6235 15.9319 19.8142 15.8529 19.9549 15.7122C20.0955 15.5716 20.1746 15.3808 20.1746 15.1819C20.1746 14.983 20.0955 14.7922 19.9549 14.6516C19.8142 14.5109 19.6235 14.4319 19.4246 14.4319ZM15.1819 16.5532C14.983 16.5532 14.7922 16.6322 14.6516 16.7729C14.5109 16.9135 14.4319 17.1043 14.4319 17.3032V19.4246C14.4319 19.6235 14.5109 19.8142 14.6516 19.9549C14.7922 20.0955 14.983 20.1746 15.1819 20.1746C15.3808 20.1746 15.5716 20.0955 15.7122 19.9549C15.8529 19.8142 15.9319 19.6235 15.9319 19.4246V17.3032C15.9319 17.1043 15.8529 16.9135 15.7122 16.7729C15.5716 16.6322 15.3808 16.5532 15.1819 16.5532V16.5532Z" fill="#1D1F21" style="fill: var(--ui-icon-primary-color);"/>
</svg>
