<svg  viewBox="0 0 24 24" fill="none" xmlns="http://www.w3.org/2000/svg" id="__THIS_ID_NEEDS_FOR_UI_ICON_COMPONENT__">
<path d="M7.49744 11.2491H16.4974C16.6963 11.2491 16.8871 11.3282 17.0278 11.4688C17.1684 11.6095 17.2474 11.8002 17.2474 11.9991C17.2474 12.1981 17.1684 12.3888 17.0278 12.5295C16.8871 12.6701 16.6963 12.7491 16.4974 12.7491H7.49744C7.29852 12.7491 7.10776 12.6701 6.96711 12.5295C6.82645 12.3888 6.74744 12.1981 6.74744 11.9991C6.74744 11.8002 6.82645 11.6095 6.96711 11.4688C7.10776 11.3282 7.29852 11.2491 7.49744 11.2491ZM9.7468 15.7495H5.9968C5.00223 15.7495 4.04841 15.3544 3.34515 14.6512C2.64188 13.9479 2.2468 12.9941 2.2468 11.9995C2.2468 11.005 2.64188 10.0511 3.34515 9.34786C4.04841 8.6446 5.00223 8.24951 5.9968 8.24951H9.7468C9.94571 8.24951 10.1365 8.17049 10.2771 8.02984C10.4178 7.88919 10.4968 7.69842 10.4968 7.49951C10.4968 7.3006 10.4178 7.10983 10.2771 6.96918C10.1365 6.82853 9.94571 6.74951 9.7468 6.74951H5.9968C4.60441 6.74951 3.26905 7.30263 2.28448 8.2872C1.29992 9.27177 0.746796 10.6071 0.746796 11.9995C0.746796 13.3919 1.29992 14.7273 2.28448 15.7118C3.26905 16.6964 4.60441 17.2495 5.9968 17.2495H9.7468C9.94571 17.2495 10.1365 17.1705 10.2771 17.0298C10.4178 16.8892 10.4968 16.6984 10.4968 16.4995C10.4968 16.3006 10.4178 16.1098 10.2771 15.9692C10.1365 15.8285 9.94571 15.7495 9.7468 15.7495ZM17.9974 6.74951H14.2474C14.0485 6.74951 13.8578 6.82853 13.7171 6.96918C13.5765 7.10983 13.4974 7.3006 13.4974 7.49951C13.4974 7.69842 13.5765 7.88919 13.7171 8.02984C13.8578 8.17049 14.0485 8.24951 14.2474 8.24951H17.9974C18.992 8.24951 19.9458 8.6446 20.6491 9.34786C21.3523 10.0511 21.7474 11.005 21.7474 11.9995C21.7474 12.9941 21.3523 13.9479 20.6491 14.6512C19.9458 15.3544 18.992 15.7495 17.9974 15.7495H14.2474C14.0485 15.7495 13.8578 15.8285 13.7171 15.9692C13.5765 16.1098 13.4974 16.3006 13.4974 16.4995C13.4974 16.6984 13.5765 16.8892 13.7171 17.0298C13.8578 17.1705 14.0485 17.2495 14.2474 17.2495H17.9974C19.3898 17.2495 20.7252 16.6964 21.7097 15.7118C22.6943 14.7273 23.2474 13.3919 23.2474 11.9995C23.2474 10.6071 22.6943 9.27177 21.7097 8.2872C20.7252 7.30263 19.3898 6.74951 17.9974 6.74951Z" fill="#1D1F21" style="fill: var(--ui-icon-primary-color);"/>
</svg>
