<svg  viewBox="0 0 24 24" fill="none" xmlns="http://www.w3.org/2000/svg" id="__THIS_ID_NEEDS_FOR_UI_ICON_COMPONENT__">
<path d="M15.7118 8.28683C15.8524 8.4275 15.9314 8.61828 15.9314 8.8172C15.9314 9.01612 15.8524 9.20689 15.7118 9.34756L9.34786 15.7115C9.20716 15.852 9.01644 15.9309 8.81761 15.9308C8.61878 15.9307 8.42811 15.8517 8.28752 15.7111C8.14693 15.5705 8.06791 15.3798 8.06784 15.181C8.06776 14.9822 8.14664 14.7915 8.28713 14.6508L14.6511 8.28683C14.7917 8.14623 14.9825 8.06725 15.1814 8.06725C15.3803 8.06725 15.5711 8.14623 15.7118 8.28683ZM13.0599 16.2425L10.4082 18.8941C9.70498 19.5974 8.75117 19.9925 7.75663 19.9925C6.76209 19.9925 5.80828 19.5974 5.10503 18.8941C4.40179 18.1909 4.00671 17.2371 4.00671 16.2425C4.00671 15.248 4.40179 14.2942 5.10503 13.5909L7.75667 10.9393C7.82641 10.8697 7.88173 10.787 7.9195 10.696C7.95726 10.6049 7.97671 10.5074 7.97675 10.4088C7.97678 10.3103 7.9574 10.2127 7.91971 10.1216C7.88201 10.0306 7.82674 9.94786 7.75706 9.87818C7.68738 9.8085 7.60465 9.75323 7.5136 9.71554C7.42255 9.67784 7.32497 9.65846 7.22642 9.6585C7.12788 9.65853 7.03031 9.67799 6.93929 9.71575C6.84826 9.75351 6.76557 9.80884 6.69594 9.87857L4.0443 12.5302C3.05973 13.5148 2.50661 14.8501 2.50661 16.2425C2.50661 17.6349 3.05973 18.9703 4.0443 19.9549C5.02887 20.9394 6.36424 21.4926 7.75663 21.4926C9.14902 21.4926 10.4844 20.9394 11.469 19.9549L14.1206 17.3032C14.2613 17.1626 14.3403 16.9718 14.3403 16.7729C14.3403 16.5739 14.2613 16.3832 14.1206 16.2425C13.9799 16.1018 13.7892 16.0228 13.5902 16.0228C13.3913 16.0228 13.2005 16.1018 13.0599 16.2425ZM19.9547 4.04446C18.9701 3.05993 17.6348 2.50684 16.2424 2.50684C14.85 2.50684 13.5146 3.05993 12.5301 4.04446L9.87841 6.6961C9.73792 6.8368 9.65904 7.02753 9.65911 7.22636C9.65919 7.42519 9.7382 7.61585 9.8788 7.75645C10.0194 7.89704 10.2101 7.97606 10.4089 7.97613C10.6077 7.9762 10.7984 7.89733 10.9391 7.75683L13.5908 5.10519C14.2941 4.40231 15.2478 4.00755 16.2421 4.00771C17.2365 4.00786 18.19 4.40293 18.8931 5.10603C19.5962 5.80913 19.9913 6.7627 19.9915 7.75704C19.9916 8.75137 19.5969 9.70506 18.894 10.4084L16.2423 13.06C16.1018 13.2007 16.023 13.3914 16.023 13.5903C16.0231 13.7891 16.1021 13.9798 16.2427 14.1204C16.3833 14.261 16.574 14.34 16.7728 14.3401C16.9716 14.3401 17.1624 14.2612 17.3031 14.1208L19.9547 11.4691C20.9378 10.4838 21.4899 9.14869 21.4899 7.75679C21.4899 6.36489 20.9378 5.02982 19.9547 4.04446Z" fill="#1D1F21" style="fill: var(--ui-icon-primary-color);"/>
</svg>
