<svg  viewBox="0 0 24 24" fill="none" xmlns="http://www.w3.org/2000/svg" id="__THIS_ID_NEEDS_FOR_UI_ICON_COMPONENT__">
<path d="M5.24999 12C5.24999 12.2225 5.18401 12.44 5.0604 12.625C4.93678 12.81 4.76108 12.9542 4.55551 13.0394C4.34994 13.1245 4.12375 13.1468 3.90552 13.1034C3.68729 13.06 3.48683 12.9528 3.3295 12.7955C3.17216 12.6382 3.06502 12.4377 3.02161 12.2195C2.9782 12.0012 3.00048 11.775 3.08563 11.5695C3.17078 11.3639 3.31497 11.1882 3.49998 11.0646C3.68498 10.941 3.90249 10.875 4.12499 10.875C4.42326 10.8753 4.70921 10.994 4.92012 11.2049C5.13103 11.4158 5.24966 11.7017 5.24999 12ZM4.12499 16.875C3.90249 16.875 3.68498 16.941 3.49998 17.0646C3.31497 17.1882 3.17078 17.3639 3.08563 17.5695C3.00048 17.775 2.9782 18.0012 3.02161 18.2195C3.06502 18.4377 3.17216 18.6382 3.3295 18.7955C3.48683 18.9528 3.68729 19.06 3.90552 19.1034C4.12375 19.1468 4.34994 19.1245 4.55551 19.0394C4.76108 18.9542 4.93678 18.81 5.0604 18.625C5.18401 18.44 5.24999 18.2225 5.24999 18C5.24966 17.7017 5.13103 17.4158 4.92012 17.2049C4.70921 16.994 4.42326 16.8753 4.12499 16.875ZM4.12499 4.875C3.90249 4.875 3.68498 4.94098 3.49998 5.0646C3.31497 5.18821 3.17078 5.36391 3.08563 5.56948C3.00048 5.77505 2.9782 6.00125 3.02161 6.21948C3.06502 6.43771 3.17216 6.63816 3.3295 6.7955C3.48683 6.95283 3.68729 7.05998 3.90552 7.10338C4.12375 7.14679 4.34994 7.12451 4.55551 7.03936C4.76108 6.95422 4.93678 6.81002 5.0604 6.62502C5.18401 6.44001 5.24999 6.2225 5.24999 6C5.24966 5.70173 5.13103 5.41578 4.92012 5.20487C4.70921 4.99397 4.42326 4.87533 4.12499 4.875ZM8.24999 6.75H20.25C20.4489 6.75 20.6397 6.67098 20.7803 6.53033C20.921 6.38968 21 6.19891 21 6C21 5.80109 20.921 5.61032 20.7803 5.46967C20.6397 5.32902 20.4489 5.25 20.25 5.25H8.24999C8.05108 5.25 7.86032 5.32902 7.71966 5.46967C7.57901 5.61032 7.49999 5.80109 7.49999 6C7.49999 6.19891 7.57901 6.38968 7.71966 6.53033C7.86032 6.67098 8.05108 6.75 8.24999 6.75ZM20.25 11.25H8.25054C8.05163 11.25 7.86086 11.329 7.72021 11.4697C7.57956 11.6103 7.50054 11.8011 7.50054 12C7.50054 12.1989 7.57956 12.3897 7.72021 12.5303C7.86086 12.671 8.05163 12.75 8.25054 12.75H20.25C20.4489 12.75 20.6397 12.671 20.7803 12.5303C20.921 12.3897 21 12.1989 21 12C21 11.8011 20.921 11.6103 20.7803 11.4697C20.6397 11.329 20.4489 11.25 20.25 11.25ZM20.25 17.25H8.25054C8.05163 17.25 7.86086 17.329 7.72021 17.4697C7.57956 17.6103 7.50054 17.8011 7.50054 18C7.50054 18.1989 7.57956 18.3897 7.72021 18.5303C7.86086 18.671 8.05163 18.75 8.25054 18.75H20.25C20.4489 18.75 20.6397 18.671 20.7803 18.5303C20.921 18.3897 21 18.1989 21 18C21 17.8011 20.921 17.6103 20.7803 17.4697C20.6397 17.329 20.4489 17.25 20.25 17.25Z" fill="#1D1F21" style="fill: var(--ui-icon-primary-color);"/>
</svg>
