<svg  viewBox="0 0 24 24" fill="none" xmlns="http://www.w3.org/2000/svg" id="__THIS_ID_NEEDS_FOR_UI_ICON_COMPONENT__">
<path d="M6.75102 15.9956L5.24928 17.9995H6.37501C6.57392 17.9995 6.76469 18.0786 6.90534 18.2192C7.04599 18.3599 7.12501 18.5506 7.12501 18.7495C7.12501 18.9484 7.04599 19.1392 6.90534 19.2799C6.76469 19.4205 6.57392 19.4995 6.37501 19.4995H3.75001C3.61075 19.4995 3.47424 19.4608 3.35576 19.3876C3.23729 19.3144 3.14154 19.2096 3.07924 19.0851C3.01694 18.9605 2.99054 18.8211 3.00301 18.6824C3.01548 18.5437 3.06632 18.4112 3.14984 18.2997L5.53739 15.1138C5.5791 15.0481 5.60672 14.9744 5.61851 14.8975C5.6303 14.8206 5.62601 14.742 5.6059 14.6669C5.58579 14.5917 5.5503 14.5215 5.50168 14.4607C5.45306 14.3999 5.39237 14.3499 5.32343 14.3138C5.25449 14.2777 5.17881 14.2563 5.10116 14.2509C5.02352 14.2455 4.94561 14.2563 4.87235 14.2826C4.79909 14.3088 4.73208 14.35 4.67555 14.4035C4.61901 14.457 4.57419 14.5216 4.54391 14.5933C4.50554 14.684 4.44969 14.7663 4.37953 14.8354C4.30937 14.9045 4.22628 14.9592 4.13501 14.9962C4.04374 15.0332 3.94607 15.0519 3.84758 15.0512C3.74909 15.0504 3.65171 15.0303 3.561 14.9919C3.47029 14.9536 3.38802 14.8977 3.31889 14.8276C3.24977 14.7574 3.19514 14.6743 3.15812 14.583C3.12111 14.4918 3.10243 14.3941 3.10316 14.2956C3.10389 14.1971 3.12401 14.0997 3.16238 14.009C3.2744 13.7441 3.4406 13.5054 3.65032 13.3085C3.86003 13.1116 4.10862 12.9607 4.38011 12.8656C4.6516 12.7704 4.93999 12.7331 5.22675 12.7561C5.51351 12.779 5.7923 12.8617 6.04522 12.9988C6.29814 13.1358 6.51958 13.3243 6.69533 13.5521C6.87108 13.7798 6.99724 14.0418 7.06572 14.3212C7.1342 14.6006 7.14347 14.8913 7.09295 15.1745C7.04242 15.4577 6.93322 15.7272 6.77235 15.9657C6.76548 15.9759 6.75837 15.9858 6.75102 15.9956ZM4.08541 6.29534L4.50001 6.08807V10.124C4.50001 10.3229 4.57903 10.5137 4.71968 10.6543C4.86033 10.795 5.0511 10.874 5.25001 10.874C5.44892 10.874 5.63969 10.795 5.78034 10.6543C5.92099 10.5137 6.00001 10.3229 6.00001 10.124V4.87454C6.00003 4.74669 5.96736 4.62096 5.90511 4.50929C5.84286 4.39762 5.75309 4.30372 5.64434 4.23651C5.53558 4.1693 5.41145 4.131 5.28373 4.12527C5.15601 4.11953 5.02895 4.14654 4.91461 4.20373L3.41461 4.95373C3.32643 4.99773 3.24779 5.05867 3.18318 5.13307C3.11857 5.20748 3.06926 5.29388 3.03806 5.38735C3.00686 5.48083 2.99438 5.57953 3.00135 5.67782C3.00831 5.77612 3.03458 5.87208 3.07865 5.96022C3.12272 6.04835 3.18373 6.12694 3.25818 6.19149C3.33264 6.25604 3.41909 6.30529 3.51259 6.33641C3.60608 6.36753 3.7048 6.37992 3.80309 6.37288C3.90138 6.36583 3.99731 6.33948 4.08541 6.29534ZM9.75001 6.74954H20.2499C20.4488 6.74954 20.6396 6.67052 20.7802 6.52987C20.9209 6.38921 20.9999 6.19845 20.9999 5.99954C20.9999 5.80062 20.9209 5.60986 20.7802 5.46921C20.6396 5.32855 20.4488 5.24954 20.2499 5.24954H9.75001C9.5511 5.24954 9.36033 5.32855 9.21968 5.46921C9.07903 5.60986 9.00001 5.80062 9.00001 5.99954C9.00001 6.19845 9.07903 6.38921 9.21968 6.52987C9.36033 6.67052 9.5511 6.74954 9.75001 6.74954ZM20.2499 17.2495H9.74992C9.551 17.2495 9.36024 17.3286 9.21959 17.4692C9.07893 17.6099 8.99992 17.8006 8.99992 17.9995C8.99992 18.1984 9.07893 18.3892 9.21959 18.5299C9.36024 18.6705 9.551 18.7495 9.74992 18.7495H20.2499C20.4488 18.7495 20.6396 18.6705 20.7802 18.5299C20.9209 18.3892 20.9999 18.1984 20.9999 17.9995C20.9999 17.8006 20.9209 17.6099 20.7802 17.4692C20.6396 17.3286 20.4488 17.2495 20.2499 17.2495ZM20.2499 11.2495H9.75001C9.5511 11.2495 9.36033 11.3286 9.21968 11.4692C9.07903 11.6099 9.00001 11.8006 9.00001 11.9995C9.00001 12.1984 9.07903 12.3892 9.21968 12.5299C9.36033 12.6705 9.5511 12.7495 9.75001 12.7495H20.2499C20.4488 12.7495 20.6396 12.6705 20.7802 12.5299C20.9209 12.3892 20.9999 12.1984 20.9999 11.9995C20.9999 11.8006 20.9209 11.6099 20.7802 11.4692C20.6396 11.3286 20.4488 11.2495 20.2499 11.2495Z" fill="#1D1F21" style="fill: var(--ui-icon-primary-color);"/>
</svg>
