<svg  viewBox="0 0 24 24" fill="none" xmlns="http://www.w3.org/2000/svg" id="__THIS_ID_NEEDS_FOR_UI_ICON_COMPONENT__">
<path d="M6.75 3.00001H3.75C3.336 3.00001 3 3.33601 3 3.75001V6.75C3 7.164 3.336 7.5 3.75 7.5H6.75C7.164 7.5 7.5 7.164 7.5 6.75V3.75001C7.5 3.33601 7.164 3.00001 6.75 3.00001Z" fill="#1D1F21" style="fill: var(--ui-icon-primary-color);"/>
<path d="M20.25 3H9.75C9.336 3 9 3.336 9 3.75V6.75C9 7.164 9.336 7.5 9.75 7.5H20.25C20.664 7.5 21 7.164 21 6.75V3.75C21 3.336 20.664 3 20.25 3Z" fill="#1D1F21" style="fill: var(--ui-icon-primary-color);"/>
<path d="M6.75 9.75H3.75C3.336 9.75 3 10.086 3 10.5V13.5C3 13.914 3.336 14.25 3.75 14.25H6.75C7.164 14.25 7.5 13.914 7.5 13.5V10.5C7.5 10.086 7.164 9.75 6.75 9.75Z" fill="#1D1F21" style="fill: var(--ui-icon-primary-color);"/>
<path d="M20.25 9.75H9.75C9.336 9.75 9 10.086 9 10.5V13.5C9 13.914 9.336 14.25 9.75 14.25H20.25C20.664 14.25 21 13.914 21 13.5V10.5C21 10.086 20.664 9.75 20.25 9.75Z" fill="#1D1F21" style="fill: var(--ui-icon-primary-color);"/>
<path d="M6.75 16.5H3.75C3.336 16.5 3 16.836 3 17.25V20.25C3 20.664 3.336 21 3.75 21H6.75C7.164 21 7.5 20.664 7.5 20.25V17.25C7.5 16.836 7.164 16.5 6.75 16.5Z" fill="#1D1F21" style="fill: var(--ui-icon-primary-color);"/>
<path d="M20.25 16.5H9.75C9.336 16.5 9 16.836 9 17.25V20.25C9 20.664 9.336 21 9.75 21H20.25C20.664 21 21 20.664 21 20.25V17.25C21 16.836 20.664 16.5 20.25 16.5Z" fill="#1D1F21" style="fill: var(--ui-icon-primary-color);"/>
</svg>
