<svg  viewBox="0 0 24 24" fill="none" xmlns="http://www.w3.org/2000/svg" id="__THIS_ID_NEEDS_FOR_UI_ICON_COMPONENT__">
<path d="M20.9999 12.0005C20.9999 12.1994 20.9209 12.3902 20.7802 12.5308C20.6396 12.6715 20.4488 12.7505 20.2499 12.7505H3.74989C3.55097 12.7505 3.36021 12.6715 3.21956 12.5308C3.0789 12.3902 2.99989 12.1994 2.99989 12.0005C2.99989 11.8016 3.0789 11.6108 3.21956 11.4702C3.36021 11.3295 3.55097 11.2505 3.74989 11.2505H20.2499C20.4488 11.2505 20.6396 11.3295 20.7802 11.4702C20.9209 11.6108 20.9999 11.8016 20.9999 12.0005ZM3.74989 6.75049H20.2499C20.4488 6.75049 20.6396 6.67147 20.7802 6.53082C20.9209 6.39017 20.9999 6.1994 20.9999 6.00049C20.9999 5.80158 20.9209 5.61081 20.7802 5.47016C20.6396 5.32951 20.4488 5.25049 20.2499 5.25049H3.74989C3.55097 5.25049 3.36021 5.32951 3.21956 5.47016C3.0789 5.61081 2.99989 5.80158 2.99989 6.00049C2.99989 6.1994 3.0789 6.39017 3.21956 6.53082C3.36021 6.67147 3.55097 6.75049 3.74989 6.75049ZM20.2499 17.2505H3.74989C3.55097 17.2505 3.36021 17.3295 3.21956 17.4702C3.0789 17.6108 2.99989 17.8016 2.99989 18.0005C2.99989 18.1994 3.0789 18.3902 3.21956 18.5308C3.36021 18.6715 3.55097 18.7505 3.74989 18.7505H20.2499C20.4488 18.7505 20.6396 18.6715 20.7802 18.5308C20.9209 18.3902 20.9999 18.1994 20.9999 18.0005C20.9999 17.8016 20.9209 17.6108 20.7802 17.4702C20.6396 17.3295 20.4488 17.2505 20.2499 17.2505Z" fill="#1D1F21" style="fill: var(--ui-icon-primary-color);"/>
</svg>
