<svg  viewBox="0 0 24 24" fill="none" xmlns="http://www.w3.org/2000/svg" id="__THIS_ID_NEEDS_FOR_UI_ICON_COMPONENT__">
<path d="M8.25 6C8.25 5.80109 8.32902 5.61032 8.46967 5.46967C8.61032 5.32902 8.80109 5.25 9 5.25H20.25C20.4489 5.25 20.6397 5.32902 20.7803 5.46967C20.921 5.61032 21 5.80109 21 6C21 6.19891 20.921 6.38968 20.7803 6.53033C20.6397 6.67098 20.4489 6.75 20.25 6.75H9C8.80109 6.75 8.61032 6.67098 8.46967 6.53033C8.32902 6.38968 8.25 6.19891 8.25 6ZM20.25 11.25H9.00055C8.80164 11.25 8.61087 11.329 8.47022 11.4697C8.32957 11.6103 8.25055 11.8011 8.25055 12C8.25055 12.1989 8.32957 12.3897 8.47022 12.5303C8.61087 12.671 8.80164 12.75 9.00055 12.75H20.25C20.4489 12.75 20.6397 12.671 20.7803 12.5303C20.921 12.3897 21 12.1989 21 12C21 11.8011 20.921 11.6103 20.7803 11.4697C20.6397 11.329 20.4489 11.25 20.25 11.25ZM20.25 17.25H9.00055C8.80164 17.25 8.61087 17.329 8.47022 17.4697C8.32957 17.6103 8.25055 17.8011 8.25055 18C8.25055 18.1989 8.32957 18.3897 8.47022 18.5303C8.61087 18.671 8.80164 18.75 9.00055 18.75H20.25C20.4489 18.75 20.6397 18.671 20.7803 18.5303C20.921 18.3897 21 18.1989 21 18C21 17.8011 20.921 17.6103 20.7803 17.4697C20.6397 17.329 20.4489 17.25 20.25 17.25ZM5.25 5.25H3.75C3.55109 5.25 3.36032 5.32902 3.21967 5.46967C3.07902 5.61032 3 5.80109 3 6C3 6.19891 3.07902 6.38968 3.21967 6.53033C3.36032 6.67098 3.55109 6.75 3.75 6.75H5.25C5.44891 6.75 5.63968 6.67098 5.78033 6.53033C5.92098 6.38968 6 6.19891 6 6C6 5.80109 5.92098 5.61032 5.78033 5.46967C5.63968 5.32902 5.44891 5.25 5.25 5.25ZM5.25 11.25H3.75055C3.55164 11.25 3.36087 11.329 3.22022 11.4697C3.07957 11.6103 3.00055 11.8011 3.00055 12C3.00055 12.1989 3.07957 12.3897 3.22022 12.5303C3.36087 12.671 3.55164 12.75 3.75055 12.75H5.25C5.44891 12.75 5.63968 12.671 5.78033 12.5303C5.92098 12.3897 6 12.1989 6 12C6 11.8011 5.92098 11.6103 5.78033 11.4697C5.63968 11.329 5.44891 11.25 5.25 11.25ZM5.25 17.25H3.75055C3.55164 17.25 3.36087 17.329 3.22022 17.4697C3.07957 17.6103 3.00055 17.8011 3.00055 18C3.00055 18.1989 3.07957 18.3897 3.22022 18.5303C3.36087 18.671 3.55164 18.75 3.75055 18.75H5.25C5.44891 18.75 5.63968 18.671 5.78033 18.5303C5.92098 18.3897 6 18.1989 6 18C6 17.8011 5.92098 17.6103 5.78033 17.4697C5.63968 17.329 5.44891 17.25 5.25 17.25Z" fill="#1D1F21" style="fill: var(--ui-icon-primary-color);"/>
</svg>
