<svg  viewBox="0 0 24 24" fill="none" xmlns="http://www.w3.org/2000/svg" id="__THIS_ID_NEEDS_FOR_UI_ICON_COMPONENT__">
<path d="M19.4967 7.5H16.1217V4.875C16.1217 3.78098 15.6871 2.73177 14.9135 1.95818C14.1399 1.1846 13.0907 0.75 11.9967 0.75C10.9027 0.75 9.85348 1.1846 9.07989 1.95818C8.3063 2.73177 7.8717 3.78098 7.8717 4.875V7.5H4.4967C4.09902 7.50045 3.71775 7.65864 3.43655 7.93984C3.15534 8.22105 2.99716 8.60231 2.9967 9V19.5C2.99716 19.8977 3.15534 20.279 3.43655 20.5602C3.71775 20.8414 4.09902 20.9995 4.4967 21H19.4967C19.8944 20.9995 20.2757 20.8414 20.5569 20.5602C20.8381 20.279 20.9963 19.8977 20.9967 19.5V9C20.9963 8.60231 20.8381 8.22105 20.5569 7.93984C20.2757 7.65864 19.8944 7.50045 19.4967 7.5ZM9.3717 4.875C9.3717 4.17881 9.64827 3.51113 10.1405 3.01884C10.6328 2.52656 11.3005 2.25 11.9967 2.25C12.6929 2.25 13.3606 2.52656 13.8529 3.01884C14.3451 3.51113 14.6217 4.17881 14.6217 4.875V7.5H9.3717V4.875ZM17.2467 18H6.7467C6.54779 18 6.35703 17.921 6.21637 17.7803C6.07572 17.6397 5.9967 17.4489 5.9967 17.25C5.9967 17.0511 6.07572 16.8603 6.21637 16.7197C6.35703 16.579 6.54779 16.5 6.7467 16.5H17.2467C17.4456 16.5 17.6364 16.579 17.777 16.7197C17.9177 16.8603 17.9967 17.0511 17.9967 17.25C17.9967 17.4489 17.9177 17.6397 17.777 17.7803C17.6364 17.921 17.4456 18 17.2467 18ZM17.2467 15H6.7467C6.54779 15 6.35703 14.921 6.21637 14.7803C6.07572 14.6397 5.9967 14.4489 5.9967 14.25C5.9967 14.0511 6.07572 13.8603 6.21637 13.7197C6.35703 13.579 6.54779 13.5 6.7467 13.5H17.2467C17.4456 13.5 17.6364 13.579 17.777 13.7197C17.9177 13.8603 17.9967 14.0511 17.9967 14.25C17.9967 14.4489 17.9177 14.6397 17.777 14.7803C17.6364 14.921 17.4456 15 17.2467 15ZM17.2467 12H6.7467C6.54779 12 6.35703 11.921 6.21637 11.7803C6.07572 11.6397 5.9967 11.4489 5.9967 11.25C5.9967 11.0511 6.07572 10.8603 6.21637 10.7197C6.35703 10.579 6.54779 10.5 6.7467 10.5H17.2467C17.4456 10.5 17.6364 10.579 17.777 10.7197C17.9177 10.8603 17.9967 11.0511 17.9967 11.25C17.9967 11.4489 17.9177 11.6397 17.777 11.7803C17.6364 11.921 17.4456 12 17.2467 12Z" fill="#1D1F21" style="fill: var(--ui-icon-primary-color);"/>
</svg>
