<svg  viewBox="0 0 24 24" fill="none" xmlns="http://www.w3.org/2000/svg" id="__THIS_ID_NEEDS_FOR_UI_ICON_COMPONENT__">
<path d="M19.4995 7.5H16.1245V4.875C16.1245 3.78098 15.6899 2.73177 14.9163 1.95818C14.1427 1.1846 13.0935 0.75 11.9995 0.75C10.9055 0.75 9.85627 1.1846 9.08268 1.95818C8.3091 2.73177 7.8745 3.78098 7.8745 4.875V7.5H4.4995C4.10181 7.50045 3.72055 7.65864 3.43934 7.93984C3.15813 8.22105 2.99995 8.60231 2.9995 9V19.5C2.99995 19.8977 3.15813 20.279 3.43934 20.5602C3.72055 20.8414 4.10181 20.9995 4.4995 21H19.4995C19.8972 20.9995 20.2785 20.8414 20.5597 20.5602C20.8409 20.279 20.999 19.8977 20.9995 19.5V9C20.999 8.60231 20.8409 8.22105 20.5597 7.93984C20.2785 7.65864 19.8972 7.50045 19.4995 7.5ZM9.3745 4.875C9.3745 4.17881 9.65106 3.51113 10.1433 3.01884C10.6356 2.52656 11.3033 2.25 11.9995 2.25C12.6957 2.25 13.3634 2.52656 13.8557 3.01884C14.3479 3.51113 14.6245 4.17881 14.6245 4.875V7.5H9.3745V4.875Z" fill="#1D1F21" style="fill: var(--ui-icon-primary-color);"/>
</svg>
