<svg  viewBox="0 0 24 24" fill="none" xmlns="http://www.w3.org/2000/svg" id="__THIS_ID_NEEDS_FOR_UI_ICON_COMPONENT__">
<path d="M19.4995 7.5H9.3745V4.875C9.3745 4.17881 9.65106 3.51113 10.1433 3.01884C10.6356 2.52656 11.3033 2.25 11.9995 2.25C12.6957 2.25 13.3634 2.52656 13.8557 3.01884C14.3479 3.51113 14.6245 4.17881 14.6245 4.875C14.6245 5.07391 14.7035 5.26468 14.8442 5.40533C14.9848 5.54598 15.1756 5.625 15.3745 5.625C15.5734 5.625 15.7642 5.54598 15.9048 5.40533C16.0455 5.26468 16.1245 5.07391 16.1245 4.875C16.1245 3.78098 15.6899 2.73177 14.9163 1.95818C14.1427 1.1846 13.0935 0.75 11.9995 0.75C10.9055 0.75 9.85627 1.1846 9.08268 1.95818C8.30909 2.73177 7.8745 3.78098 7.8745 4.875V7.5H4.4995C4.10181 7.50045 3.72054 7.65864 3.43934 7.93984C3.15813 8.22105 2.99995 8.60231 2.9995 9V19.5C2.99995 19.8977 3.15813 20.279 3.43934 20.5602C3.72054 20.8414 4.10181 20.9995 4.4995 21H19.4995C19.8972 20.9995 20.2784 20.8414 20.5597 20.5602C20.8409 20.279 20.999 19.8977 20.9995 19.5V9C20.999 8.60231 20.8409 8.22105 20.5597 7.93984C20.2784 7.65864 19.8972 7.50045 19.4995 7.5ZM17.2493 18H6.7495C6.55058 18 6.35982 17.921 6.21917 17.7803C6.07851 17.6397 5.9995 17.4489 5.9995 17.25C5.9995 17.0511 6.07851 16.8603 6.21917 16.7197C6.35982 16.579 6.55058 16.5 6.7495 16.5H17.2493C17.4482 16.5 17.639 16.579 17.7796 16.7197C17.9203 16.8603 17.9993 17.0511 17.9993 17.25C17.9993 17.4489 17.9203 17.6397 17.7796 17.7803C17.639 17.921 17.4482 18 17.2493 18ZM17.2493 15H6.7495C6.55058 15 6.35982 14.921 6.21917 14.7803C6.07851 14.6397 5.9995 14.4489 5.9995 14.25C5.9995 14.0511 6.07851 13.8603 6.21917 13.7197C6.35982 13.579 6.55058 13.5 6.7495 13.5H17.2493C17.4482 13.5 17.639 13.579 17.7796 13.7197C17.9203 13.8603 17.9993 14.0511 17.9993 14.25C17.9993 14.4489 17.9203 14.6397 17.7796 14.7803C17.639 14.921 17.4482 15 17.2493 15ZM17.2493 12H6.7495C6.55058 12 6.35982 11.921 6.21917 11.7803C6.07851 11.6397 5.9995 11.4489 5.9995 11.25C5.9995 11.0511 6.07851 10.8603 6.21917 10.7197C6.35982 10.579 6.55058 10.5 6.7495 10.5H17.2493C17.4482 10.5 17.639 10.579 17.7796 10.7197C17.9203 10.8603 17.9993 11.0511 17.9993 11.25C17.9993 11.4489 17.9203 11.6397 17.7796 11.7803C17.639 11.921 17.4482 12 17.2493 12Z" fill="#1D1F21" style="fill: var(--ui-icon-primary-color);"/>
</svg>
