<svg  viewBox="0 0 24 24" fill="none" xmlns="http://www.w3.org/2000/svg" id="__THIS_ID_NEEDS_FOR_UI_ICON_COMPONENT__">
<path d="M20.9995 9V19.5C20.999 19.8977 20.8409 20.279 20.5597 20.5602C20.2784 20.8414 19.8972 20.9995 19.4995 21H4.4995C4.10181 20.9995 3.72054 20.8414 3.43934 20.5602C3.15813 20.279 2.99995 19.8977 2.9995 19.5V9C2.99995 8.60231 3.15813 8.22105 3.43934 7.93984C3.72054 7.65864 4.10181 7.50045 4.4995 7.5H7.8745V4.875C7.8745 3.78098 8.30909 2.73177 9.08268 1.95818C9.85627 1.1846 10.9055 0.75 11.9995 0.75C13.0935 0.75 14.1427 1.1846 14.9163 1.95818C15.6899 2.73177 16.1245 3.78098 16.1245 4.875C16.1245 5.07391 16.0455 5.26468 15.9048 5.40533C15.7642 5.54598 15.5734 5.625 15.3745 5.625C15.1756 5.625 14.9848 5.54598 14.8442 5.40533C14.7035 5.26468 14.6245 5.07391 14.6245 4.875C14.6245 4.17881 14.3479 3.51113 13.8557 3.01884C13.3634 2.52656 12.6957 2.25 11.9995 2.25C11.3033 2.25 10.6356 2.52656 10.1433 3.01884C9.65106 3.51113 9.3745 4.17881 9.3745 4.875V7.5H19.4995C19.8972 7.50045 20.2784 7.65864 20.5597 7.93984C20.8409 8.22105 20.999 8.60231 20.9995 9Z" fill="#1D1F21" style="fill: var(--ui-icon-primary-color);"/>
</svg>
