<svg  viewBox="0 0 24 24" fill="none" xmlns="http://www.w3.org/2000/svg" id="__THIS_ID_NEEDS_FOR_UI_ICON_COMPONENT__">
<path d="M21.5294 20.4691L17.4772 16.417C18.9082 14.7128 19.6261 12.5221 19.4812 10.3015C19.3362 8.08097 18.3397 6.00209 16.6993 4.49839C15.059 2.9947 12.9015 2.18228 10.6767 2.23055C8.452 2.27882 6.33177 3.18406 4.75819 4.75749C3.18462 6.33092 2.27918 8.45107 2.2307 10.6758C2.18223 12.9006 2.99445 15.0581 4.49799 16.6986C6.00154 18.3391 8.08033 19.3358 10.3009 19.481C12.5214 19.6261 14.7122 18.9084 16.4165 17.4776L20.4686 21.5297C20.6093 21.6704 20.8001 21.7494 20.999 21.7494C21.1979 21.7495 21.3887 21.6704 21.5293 21.5298C21.67 21.3891 21.749 21.1984 21.749 20.9995C21.749 20.8005 21.67 20.6098 21.5294 20.4691ZM13.8746 11.6246H7.87461C7.6757 11.6246 7.48493 11.5456 7.34428 11.405C7.20363 11.2643 7.12461 11.0736 7.12461 10.8747C7.12461 10.6757 7.20363 10.485 7.34428 10.3443C7.48493 10.2037 7.6757 10.1247 7.87461 10.1247H13.8746C14.0735 10.1247 14.2643 10.2037 14.4049 10.3443C14.5456 10.485 14.6246 10.6757 14.6246 10.8747C14.6246 11.0736 14.5456 11.2643 14.4049 11.405C14.2643 11.5456 14.0735 11.6246 13.8746 11.6246Z" fill="#1D1F21" style="fill: var(--ui-icon-primary-color);"/>
</svg>
