<svg  viewBox="0 0 24 24" fill="none" xmlns="http://www.w3.org/2000/svg" id="__THIS_ID_NEEDS_FOR_UI_ICON_COMPONENT__">
<path d="M21.5294 20.4696L17.4773 16.4175C18.9083 14.7133 19.6261 12.5225 19.4812 10.302C19.3363 8.08144 18.3397 6.00256 16.6994 4.49887C15.059 2.99518 12.9015 2.18276 10.6768 2.23104C8.45205 2.27931 6.33182 3.18455 4.75825 4.75798C3.18467 6.33141 2.27924 8.45155 2.23077 10.6763C2.18229 12.901 2.99451 15.0586 4.49805 16.6991C6.00159 18.3396 8.08038 19.3363 10.3009 19.4814C12.5214 19.6266 14.7123 18.9089 16.4166 17.4781L20.4687 21.5302C20.5383 21.5999 20.621 21.6551 20.712 21.6928C20.803 21.7305 20.9005 21.7499 20.999 21.7499C21.0975 21.7499 21.195 21.7305 21.286 21.6928C21.377 21.6551 21.4597 21.5999 21.5294 21.5303C21.599 21.4606 21.6543 21.3779 21.692 21.2869C21.7297 21.1959 21.7491 21.0984 21.7491 20.9999C21.7491 20.9014 21.7297 20.8039 21.692 20.7129C21.6543 20.6219 21.5991 20.5392 21.5294 20.4696ZM13.8746 11.6252H11.6246V13.8752C11.6246 14.0741 11.5456 14.2649 11.405 14.4055C11.2643 14.5462 11.0736 14.6252 10.8746 14.6252C10.6757 14.6252 10.485 14.5462 10.3443 14.4055C10.2037 14.2649 10.1246 14.0741 10.1246 13.8752V11.6252H7.87465C7.67574 11.6252 7.48498 11.5462 7.34432 11.4055C7.20367 11.2649 7.12466 11.0741 7.12466 10.8752C7.12466 10.6763 7.20367 10.4855 7.34432 10.3449C7.48498 10.2042 7.67574 10.1252 7.87465 10.1252H10.1246V7.87522C10.1246 7.67631 10.2037 7.48554 10.3443 7.34489C10.485 7.20424 10.6757 7.12522 10.8746 7.12522C11.0736 7.12522 11.2643 7.20424 11.405 7.34489C11.5456 7.48554 11.6246 7.67631 11.6246 7.87522V10.1252H13.8746C14.0735 10.1252 14.2643 10.2042 14.405 10.3449C14.5456 10.4855 14.6246 10.6763 14.6246 10.8752C14.6246 11.0741 14.5456 11.2649 14.405 11.4055C14.2643 11.5462 14.0735 11.6252 13.8746 11.6252Z" fill="#1D1F21" style="fill: var(--ui-icon-primary-color);"/>
</svg>
