<svg  viewBox="0 0 24 24" fill="none" xmlns="http://www.w3.org/2000/svg" id="__THIS_ID_NEEDS_FOR_UI_ICON_COMPONENT__">
<path d="M16.4996 10.8745C16.4996 11.987 16.1697 13.0745 15.5516 13.9995C14.9335 14.9246 14.055 15.6455 13.0272 16.0713C11.9994 16.497 10.8684 16.6084 9.77722 16.3914C8.68608 16.1743 7.68381 15.6386 6.89714 14.8519C6.11047 14.0653 5.57474 13.063 5.3577 11.9718C5.14066 10.8807 5.25206 9.74971 5.6778 8.72188C6.10354 7.69405 6.82451 6.81555 7.74953 6.19746C8.67455 5.57938 9.76208 5.24948 10.8746 5.24948C12.3659 5.25117 13.7957 5.84435 14.8502 6.89887C15.9047 7.95339 16.4979 9.38314 16.4996 10.8745ZM21.5294 21.5298C21.3887 21.6705 21.1979 21.7495 20.999 21.7495C20.8001 21.7495 20.6093 21.6705 20.4687 21.5298L16.4165 17.4777C14.7122 18.9086 12.5212 19.6263 10.3006 19.4812C8.08 19.336 6.00112 18.3393 4.49751 16.6987C2.99389 15.0582 2.18163 12.9005 2.2301 10.6757C2.27857 8.45086 3.18404 6.33062 4.75767 4.75712C6.33131 3.18362 8.45163 2.27834 10.6765 2.23006C12.9013 2.18178 15.0589 2.99423 16.6993 4.49799C18.3397 6.00174 19.3363 8.08071 19.4812 10.3013C19.6262 12.522 18.9083 14.7128 17.4772 16.4171L21.5294 20.4692C21.67 20.6098 21.749 20.8006 21.749 20.9995C21.749 21.1984 21.67 21.3892 21.5294 21.5298ZM10.8746 17.9994C12.2838 17.9994 13.6613 17.5816 14.833 16.7987C16.0047 16.0158 16.9179 14.903 17.4572 13.6011C17.9965 12.2992 18.1376 10.8666 17.8627 9.48445C17.5877 8.10234 16.9092 6.83279 15.9127 5.83635C14.9163 4.8399 13.6467 4.16131 12.2646 3.88639C10.8825 3.61148 9.44991 3.75257 8.14799 4.29185C6.84607 4.83112 5.7333 5.74434 4.9504 6.91604C4.1675 8.08774 3.74963 9.46528 3.74963 10.8745C3.75176 12.7635 4.50312 14.5745 5.83884 15.9102C7.17457 17.2459 8.9856 17.9973 10.8746 17.9994Z" fill="#1D1F21" style="fill: var(--ui-icon-primary-color);"/>
</svg>
