<svg  viewBox="0 0 24 24" fill="none" xmlns="http://www.w3.org/2000/svg" id="__THIS_ID_NEEDS_FOR_UI_ICON_COMPONENT__">
<path d="M11.9995 1.49951C9.81221 1.50211 7.7153 2.37213 6.16869 3.91875C4.62207 5.46536 3.75205 7.56227 3.74945 9.74951C3.74945 16.8086 11.2495 22.1406 11.5688 22.364C11.6951 22.4522 11.8454 22.4995 11.9995 22.4995C12.1535 22.4995 12.3038 22.4522 12.4301 22.364C12.7495 22.1406 20.2495 16.8086 20.2495 9.74951C20.2469 7.56227 19.3768 5.46536 17.8302 3.91875C16.2836 2.37213 14.1867 1.50211 11.9995 1.49951ZM12 6.74978C12.5933 6.74978 13.1734 6.92573 13.6667 7.25537C14.1601 7.58502 14.5446 8.05355 14.7716 8.60173C14.9987 9.14991 15.0581 9.75311 14.9424 10.3351C14.8266 10.917 14.5409 11.4515 14.1213 11.8711C13.7018 12.2907 13.1672 12.5764 12.5853 12.6921C12.0033 12.8079 11.4001 12.7485 10.8519 12.5214C10.3038 12.2944 9.83524 11.9098 9.50559 11.4165C9.17595 10.9231 9 10.3431 9 9.74978C8.99999 9.35581 9.07758 8.9657 9.22834 8.60172C9.3791 8.23774 9.60008 7.90702 9.87865 7.62844C10.1572 7.34986 10.488 7.12888 10.8519 6.97812C11.2159 6.82736 11.606 6.74977 12 6.74978Z" fill="#1D1F21" style="fill: var(--ui-icon-primary-color);"/>
</svg>
