<svg  viewBox="0 0 24 24" fill="none" xmlns="http://www.w3.org/2000/svg" id="__THIS_ID_NEEDS_FOR_UI_ICON_COMPONENT__">
<path d="M21.4615 4.65921C21.3717 4.58906 21.267 4.54032 21.1555 4.51667C21.044 4.49303 20.9286 4.49511 20.8181 4.52275L15.0872 5.95546L9.33542 3.07953C9.33377 3.07871 9.33203 3.07821 9.33036 3.0774C9.30415 3.0645 9.27721 3.05314 9.24968 3.04337C9.24485 3.04166 9.2399 3.04044 9.23505 3.03882C9.21212 3.03124 9.18882 3.02477 9.16515 3.01941C9.15746 3.01767 9.14977 3.01612 9.14203 3.01463C9.11967 3.01031 9.09707 3.00702 9.07422 3.00479C9.06772 3.00412 9.06124 3.00319 9.05472 3.0027C9.02539 3.00044 8.99596 2.99991 8.96657 3.00113L8.96433 3.00133C8.93658 3.00278 8.90894 3.00578 8.88152 3.0103C8.87214 3.01181 8.86289 3.01392 8.85355 3.0158C8.84172 3.01813 8.82989 3.0198 8.81805 3.02275L2.81805 4.52275C2.65579 4.56332 2.51174 4.65697 2.40881 4.7888C2.30587 4.92064 2.24997 5.0831 2.24997 5.25036V18.7504C2.24998 18.8643 2.27596 18.9768 2.32594 19.0792C2.37592 19.1817 2.44859 19.2714 2.53843 19.3415C2.62826 19.4116 2.7329 19.4604 2.8444 19.484C2.95589 19.5077 3.07131 19.5056 3.18188 19.478L8.91272 18.0453L14.6645 20.9212C14.6679 20.9229 14.6715 20.924 14.675 20.9256C14.6953 20.9354 14.716 20.9443 14.7371 20.9523C14.741 20.9538 14.7449 20.9555 14.7488 20.9569C14.7739 20.9658 14.7994 20.9733 14.8252 20.9795C14.8292 20.9805 14.8333 20.9812 14.8373 20.9821C14.8598 20.9871 14.8826 20.991 14.9056 20.994C14.9104 20.9946 14.9151 20.9953 14.9199 20.9958C14.9789 21.0028 15.0385 21.0021 15.0973 20.9937C15.1078 20.9923 15.1181 20.9897 15.1285 20.9879C15.1463 20.9848 15.1641 20.9824 15.1819 20.978L21.1819 19.478C21.3442 19.4374 21.4882 19.3438 21.5911 19.2119C21.6941 19.0801 21.75 18.9176 21.75 18.7504V5.25036C21.75 5.13638 21.724 5.0239 21.674 4.92146C21.624 4.81903 21.5513 4.72934 21.4615 4.65921ZM14.25 19.0368L9.74997 16.7868V4.96389L14.25 7.21389V19.0368Z" fill="#1D1F21" style="fill: var(--ui-icon-primary-color);"/>
</svg>
