<svg  viewBox="0 0 24 24" fill="none" xmlns="http://www.w3.org/2000/svg" id="__THIS_ID_NEEDS_FOR_UI_ICON_COMPONENT__">
<path d="M22.2804 4.28032C22.3852 4.17543 22.4567 4.04179 22.4856 3.8963C22.5145 3.75081 22.4997 3.60002 22.4429 3.46298C22.3861 3.32593 22.29 3.2088 22.1667 3.12639C22.0433 3.04398 21.8983 3 21.75 3H2.25C2.10166 3 1.95666 3.04398 1.83332 3.12639C1.70998 3.2088 1.61385 3.32593 1.55708 3.46298C1.50031 3.60002 1.48546 3.75081 1.51439 3.8963C1.54332 4.04179 1.61475 4.17543 1.71963 4.28032L11.25 13.8107V19.5H8.25C8.05108 19.5 7.86032 19.579 7.71967 19.7197C7.57901 19.8603 7.5 20.0511 7.5 20.25C7.5 20.4489 7.57901 20.6397 7.71967 20.7803C7.86032 20.921 8.05108 21 8.25 21H15.75C15.9489 21 16.1397 20.921 16.2803 20.7803C16.421 20.6397 16.5 20.4489 16.5 20.25C16.5 20.0511 16.421 19.8603 16.2803 19.7197C16.1397 19.579 15.9489 19.5 15.75 19.5H12.75V13.8107L22.2804 4.28032ZM19.9394 4.5L18.4394 6H5.56064L4.06064 4.5H19.9394Z" fill="#1D1F21" style="fill: var(--ui-icon-primary-color);"/>
</svg>
