<svg  viewBox="0 0 24 24" fill="none" xmlns="http://www.w3.org/2000/svg" id="__THIS_ID_NEEDS_FOR_UI_ICON_COMPONENT__">
<path d="M10.5 17.2497C10.5 17.3481 10.4806 17.4457 10.4429 17.5367C10.4052 17.6277 10.35 17.7103 10.2803 17.78C10.2107 17.8496 10.128 17.9049 10.037 17.9426C9.94602 17.9803 9.84849 17.9997 9.75 17.9997H7.5V20.2497C7.5 20.4486 7.42098 20.6393 7.28033 20.78C7.13968 20.9206 6.94891 20.9997 6.75 20.9997C6.55109 20.9997 6.36032 20.9206 6.21967 20.78C6.07902 20.6393 6 20.4486 6 20.2497V17.9997H3.75C3.55109 17.9997 3.36032 17.9206 3.21967 17.78C3.07902 17.6393 3 17.4486 3 17.2497C3 17.0507 3.07902 16.86 3.21967 16.7193C3.36032 16.5787 3.55109 16.4997 3.75 16.4997H6V14.2497C6 14.0507 6.07902 13.86 6.21967 13.7193C6.36032 13.5787 6.55109 13.4997 6.75 13.4997C6.94891 13.4997 7.13968 13.5787 7.28033 13.7193C7.42098 13.86 7.5 14.0507 7.5 14.2497V16.4997H9.75C9.84849 16.4997 9.94602 16.519 10.037 16.5567C10.128 16.5944 10.2107 16.6497 10.2803 16.7193C10.35 16.789 10.4052 16.8716 10.4429 16.9626C10.4806 17.0536 10.5 17.1512 10.5 17.2497ZM9.75 5.99965H3.75C3.55109 5.99965 3.36032 6.07867 3.21967 6.21932C3.07902 6.35997 3 6.55074 3 6.74965C3 6.94856 3.07902 7.13933 3.21967 7.27998C3.36032 7.42063 3.55109 7.49965 3.75 7.49965H9.75C9.94891 7.49965 10.1397 7.42063 10.2803 7.27998C10.421 7.13933 10.5 6.94856 10.5 6.74965C10.5 6.55074 10.421 6.35997 10.2803 6.21932C10.1397 6.07867 9.94891 5.99965 9.75 5.99965ZM14.25 16.5059H20.25C20.4489 16.5059 20.6397 16.4269 20.7803 16.2862C20.921 16.1456 21 15.9548 21 15.7559C21 15.557 20.921 15.3662 20.7803 15.2255C20.6397 15.0849 20.4489 15.0059 20.25 15.0059H14.25C14.0511 15.0059 13.8603 15.0849 13.7197 15.2255C13.579 15.3662 13.5 15.557 13.5 15.7559C13.5 15.9548 13.579 16.1456 13.7197 16.2862C13.8603 16.4269 14.0511 16.5059 14.25 16.5059ZM20.25 17.9934H14.25C14.0511 17.9934 13.8603 18.0724 13.7197 18.2131C13.579 18.3537 13.5 18.5445 13.5 18.7434C13.5 18.9423 13.579 19.1331 13.7197 19.2738C13.8603 19.4144 14.0511 19.4934 14.25 19.4934H20.25C20.4489 19.4934 20.6397 19.4144 20.7803 19.2738C20.921 19.1331 21 18.9423 21 18.7434C21 18.5445 20.921 18.3537 20.7803 18.2131C20.6397 18.0724 20.4489 17.9934 20.25 17.9934ZM14.4697 9.52997C14.5393 9.59962 14.622 9.65487 14.713 9.69256C14.804 9.73025 14.9015 9.74965 15 9.74965C15.0985 9.74965 15.196 9.73025 15.287 9.69256C15.378 9.65487 15.4607 9.59962 15.5303 9.52997L17.25 7.81029L18.9697 9.52997C19.0393 9.59969 19.122 9.655 19.213 9.69275C19.304 9.73049 19.4016 9.74994 19.5001 9.74997C19.5986 9.75 19.6962 9.73062 19.7872 9.69293C19.8783 9.65523 19.961 9.59997 20.0307 9.5303C20.1003 9.46063 20.1556 9.37792 20.1933 9.28688C20.231 9.19585 20.2503 9.09828 20.2503 8.99975C20.2503 8.90122 20.2308 8.80366 20.1931 8.71265C20.1553 8.62164 20.1 8.53896 20.0303 8.46933L18.3106 6.74965L20.0303 5.02997C20.1708 4.88929 20.2497 4.69858 20.2497 4.49975C20.2496 4.30092 20.1706 4.11026 20.03 3.96967C19.8894 3.82907 19.6987 3.75006 19.4999 3.75C19.3011 3.74994 19.1104 3.82883 18.9697 3.96933L17.25 5.68901L15.5303 3.96933C15.3896 3.82883 15.1989 3.74994 15.0001 3.75C14.8013 3.75006 14.6106 3.82907 14.47 3.96967C14.3294 4.11026 14.2504 4.30092 14.2503 4.49975C14.2503 4.69858 14.3292 4.88929 14.4697 5.02997L16.1894 6.74965L14.4697 8.46933C14.4 8.53897 14.3448 8.62165 14.3071 8.71264C14.2694 8.80363 14.25 8.90116 14.25 8.99965C14.25 9.09814 14.2694 9.19567 14.3071 9.28666C14.3448 9.37766 14.4 9.46033 14.4697 9.52997Z" fill="#1D1F21" style="fill: var(--ui-icon-primary-color);"/>
</svg>
