<svg  viewBox="0 0 24 24" fill="none" xmlns="http://www.w3.org/2000/svg" id="__THIS_ID_NEEDS_FOR_UI_ICON_COMPONENT__">
<path d="M17.2494 9C17.2494 10.0384 16.9415 11.0534 16.3646 11.9167C15.7878 12.7801 14.9678 13.453 14.0085 13.8504C13.0492 14.2477 11.9936 14.3517 10.9752 14.1491C9.95679 13.9466 9.02133 13.4465 8.2871 12.7123C7.55288 11.9781 7.05286 11.0426 6.85029 10.0242C6.64772 9.00582 6.75169 7.95022 7.14905 6.99091C7.54641 6.0316 8.21931 5.21166 9.08267 4.63479C9.94603 4.05791 10.9611 3.75 11.9994 3.75C13.3913 3.75157 14.7258 4.3052 15.71 5.28942C16.6942 6.27365 17.2478 7.6081 17.2494 9ZM20.2494 9C20.2496 10.2156 19.9808 11.4161 19.4622 12.5155C18.9436 13.6149 18.1882 14.5859 17.25 15.3588V22.5C17.25 22.6278 17.2173 22.7536 17.155 22.8652C17.0928 22.9769 17.003 23.0708 16.8943 23.138C16.7855 23.2052 16.6614 23.2435 16.5337 23.2492C16.406 23.255 16.279 23.228 16.1646 23.1709L11.9993 21.0885L7.83541 23.1708C7.72107 23.228 7.594 23.255 7.46628 23.2493C7.33855 23.2435 7.21442 23.2053 7.10566 23.138C6.9969 23.0708 6.90713 22.9769 6.84487 22.8653C6.78262 22.7536 6.74995 22.6279 6.74996 22.5V15.3598C5.67814 14.475 4.84725 13.3338 4.33444 12.042C3.82162 10.7503 3.64352 9.34993 3.81665 7.97094C3.98979 6.59196 4.50856 5.27908 5.32479 4.1542C6.14102 3.02933 7.22824 2.12893 8.48551 1.53661C9.74279 0.944296 11.1293 0.679265 12.5164 0.766128C13.9035 0.852991 15.2462 1.28893 16.4197 2.03347C17.5933 2.77801 18.5597 3.80701 19.2292 5.02493C19.8987 6.24285 20.2497 7.61019 20.2494 9ZM18.7494 9C18.7494 7.66498 18.3535 6.35993 17.6118 5.2499C16.8701 4.13987 15.8159 3.27471 14.5825 2.76381C13.3491 2.25292 11.9919 2.11925 10.6826 2.3797C9.37318 2.64015 8.17045 3.28303 7.22644 4.22703C6.28244 5.17103 5.63956 6.37377 5.37911 7.68314C5.11866 8.99251 5.25233 10.3497 5.76323 11.5831C6.27412 12.8165 7.13928 13.8707 8.24931 14.6124C9.35934 15.3541 10.6644 15.75 11.9994 15.75C13.789 15.748 15.5047 15.0362 16.7702 13.7707C18.0356 12.5053 18.7474 10.7896 18.7494 9Z" fill="#1D1F21" style="fill: var(--ui-icon-primary-color);"/>
</svg>
