<svg  viewBox="0 0 24 24" fill="none" xmlns="http://www.w3.org/2000/svg" id="__THIS_ID_NEEDS_FOR_UI_ICON_COMPONENT__">
<path d="M5.2522 12.75C5.25219 12.9489 5.17317 13.1397 5.03252 13.2803C4.89187 13.421 4.70111 13.5 4.5022 13.5H2.2522C2.05328 13.5 1.86252 13.421 1.72187 13.2803C1.58122 13.1397 1.5022 12.9489 1.5022 12.75C1.5022 12.5511 1.58122 12.3603 1.72187 12.2197C1.86252 12.079 2.05328 12 2.2522 12H3.0022V6H2.2522C2.05328 6 1.86252 5.92098 1.72187 5.78033C1.58122 5.63968 1.5022 5.44891 1.5022 5.25C1.5022 5.05109 1.58122 4.86032 1.72187 4.71967C1.86252 4.57902 2.05328 4.5 2.2522 4.5H3.7522C3.756 4.5 3.7597 4.5005 3.7635 4.50055C3.77779 4.50082 3.79198 4.50169 3.80621 4.50275C3.81743 4.50353 3.82869 4.50426 3.83977 4.50554C3.85158 4.50691 3.8632 4.50897 3.87492 4.51089C3.88802 4.51305 3.90106 4.51515 3.91392 4.51794C3.92345 4.52005 3.93283 4.5228 3.94226 4.52527C3.95654 4.52898 3.97087 4.53269 3.98479 4.53722C3.99344 4.54005 4.00191 4.54349 4.01047 4.5466C4.02168 4.55073 4.03317 4.55429 4.04411 4.55896C4.04681 4.56006 4.04933 4.56157 4.05203 4.56276C4.06164 4.56693 4.07098 4.57182 4.08041 4.5764C4.09227 4.58221 4.10422 4.5878 4.11571 4.59421C4.12715 4.60053 4.13814 4.60763 4.14926 4.61454C4.15823 4.62017 4.16739 4.62552 4.17609 4.63152C4.18826 4.63985 4.19993 4.64901 4.21165 4.65812C4.21893 4.66375 4.22635 4.6691 4.2334 4.67501C4.24461 4.68439 4.25528 4.69451 4.26599 4.70463C4.27139 4.70975 4.27725 4.71442 4.28252 4.71969C4.28416 4.72133 4.28563 4.72321 4.28728 4.72486C4.29643 4.73424 4.30508 4.74422 4.31383 4.75411C4.31946 4.76047 4.32555 4.76638 4.33095 4.77292C4.3331 4.77558 4.33498 4.77851 4.33713 4.78121C4.34404 4.78986 4.35054 4.79893 4.35709 4.80794C4.3656 4.81957 4.37402 4.83129 4.38185 4.84342C4.38386 4.84653 4.3862 4.84932 4.38821 4.85248L7.5022 9.83492L10.6162 4.85248C10.6182 4.84932 10.6205 4.84653 10.6225 4.84342C10.6304 4.83129 10.6388 4.81957 10.6473 4.80794C10.6539 4.79892 10.6604 4.78986 10.6673 4.78121C10.6694 4.77851 10.6712 4.77558 10.6734 4.77292C10.6788 4.76638 10.685 4.76047 10.6906 4.75411C10.6993 4.74418 10.708 4.73424 10.7171 4.7249C10.7188 4.72321 10.7202 4.72133 10.7219 4.71969C10.7271 4.71437 10.733 4.70971 10.7385 4.70458C10.7492 4.69451 10.7598 4.68439 10.7709 4.67505C10.7781 4.6691 10.7856 4.66365 10.7929 4.65793C10.8046 4.64891 10.8162 4.6398 10.8283 4.63152C10.837 4.62552 10.8462 4.62017 10.8552 4.61454C10.8663 4.60762 10.8773 4.60048 10.8887 4.59417C10.9001 4.58785 10.9119 4.58231 10.9237 4.57654C10.9333 4.57192 10.9427 4.56693 10.9524 4.56272C10.9551 4.56153 10.9576 4.56006 10.9603 4.55897C10.9711 4.55439 10.9824 4.55086 10.9935 4.54679C11.0023 4.54359 11.0109 4.54006 11.0197 4.53718C11.0335 4.53269 11.0477 4.52903 11.0618 4.52532C11.0714 4.5228 11.0809 4.52006 11.0906 4.51795C11.1032 4.51516 11.1161 4.5131 11.1291 4.51099C11.141 4.50898 11.1528 4.50692 11.1648 4.5055C11.1757 4.50426 11.1868 4.50353 11.1978 4.50275C11.2122 4.5017 11.2266 4.50078 11.2411 4.50056C11.2448 4.50051 11.2484 4.50001 11.2522 4.50001H12.7522C12.9511 4.50001 13.1419 4.57902 13.2825 4.71968C13.4232 4.86033 13.5022 5.05109 13.5022 5.25001C13.5022 5.44892 13.4232 5.63968 13.2825 5.78034C13.1419 5.92099 12.9511 6.00001 12.7522 6.00001H12.0022V12H12.7522C12.9511 12 13.1419 12.079 13.2825 12.2197C13.4232 12.3603 13.5022 12.5511 13.5022 12.75C13.5022 12.9489 13.4232 13.1397 13.2825 13.2803C13.1419 13.421 12.9511 13.5 12.7522 13.5H10.5022C10.3033 13.5 10.1125 13.421 9.97186 13.2803C9.83121 13.1397 9.75219 12.9489 9.75219 12.75C9.75219 12.5511 9.83121 12.3603 9.97186 12.2197C10.1125 12.079 10.3033 12 10.5022 12V7.86511L8.13821 11.6475C8.07079 11.7554 7.97704 11.8443 7.86578 11.906C7.75452 11.9676 7.6294 12 7.5022 12C7.37499 12 7.24988 11.9676 7.13862 11.906C7.02736 11.8443 6.93361 11.7554 6.86618 11.6475L4.5022 7.86511V12C4.70111 12 4.89187 12.079 5.03252 12.2197C5.17317 12.3603 5.25219 12.5511 5.2522 12.75ZM15.7522 10.5H22.5022C22.7011 10.5 22.8919 10.421 23.0325 10.2803C23.1732 10.1397 23.2522 9.94891 23.2522 9.75C23.2522 9.55109 23.1732 9.36032 23.0325 9.21967C22.8919 9.07902 22.7011 9 22.5022 9H15.7522C15.5533 9 15.3625 9.07902 15.2219 9.21967C15.0812 9.36032 15.0022 9.55109 15.0022 9.75C15.0022 9.94891 15.0812 10.1397 15.2219 10.2803C15.3625 10.421 15.5533 10.5 15.7522 10.5ZM22.5022 12H15.7522C15.5533 12 15.3625 12.079 15.2219 12.2197C15.0812 12.3603 15.0022 12.5511 15.0022 12.75C15.0022 12.9489 15.0812 13.1397 15.2219 13.2803C15.3625 13.421 15.5533 13.5 15.7522 13.5H22.5022C22.7011 13.5 22.8919 13.421 23.0325 13.2803C23.1732 13.1397 23.2522 12.9489 23.2522 12.75C23.2522 12.5511 23.1732 12.3603 23.0325 12.2197C22.8919 12.079 22.7011 12 22.5022 12ZM22.5022 15H6.7522C6.55329 15 6.36252 15.079 6.22187 15.2197C6.08121 15.3603 6.0022 15.5511 6.0022 15.75C6.0022 15.9489 6.08121 16.1397 6.22187 16.2803C6.36252 16.421 6.55329 16.5 6.7522 16.5H22.5022C22.7011 16.5 22.8919 16.421 23.0325 16.2803C23.1732 16.1397 23.2522 15.9489 23.2522 15.75C23.2522 15.5511 23.1732 15.3603 23.0325 15.2197C22.8919 15.079 22.7011 15 22.5022 15ZM22.5022 18H6.7522C6.55329 18 6.36252 18.079 6.22187 18.2197C6.08121 18.3603 6.0022 18.5511 6.0022 18.75C6.0022 18.9489 6.08121 19.1397 6.22187 19.2803C6.36252 19.421 6.55329 19.5 6.7522 19.5H22.5022C22.7011 19.5 22.8919 19.421 23.0325 19.2803C23.1732 19.1397 23.2522 18.9489 23.2522 18.75C23.2522 18.5511 23.1732 18.3603 23.0325 18.2197C22.8919 18.079 22.7011 18 22.5022 18Z" fill="#1D1F21" style="fill: var(--ui-icon-primary-color);"/>
</svg>
