<svg  viewBox="0 0 24 24" fill="none" xmlns="http://www.w3.org/2000/svg" id="__THIS_ID_NEEDS_FOR_UI_ICON_COMPONENT__">
<path d="M22.5 11.2503C22.4987 10.0572 22.0241 8.91344 21.1805 8.06982C20.3369 7.2262 19.1931 6.75166 18 6.75029H14.2516C14.203 6.75011 9.3409 6.68566 4.71474 2.80565C4.49611 2.62195 4.22958 2.50448 3.94649 2.46705C3.66339 2.42961 3.37549 2.47377 3.11663 2.59432C2.85777 2.71488 2.6387 2.90683 2.48517 3.14761C2.33164 3.38838 2.25004 3.66798 2.24995 3.95354V18.547C2.2482 18.8327 2.32891 19.1129 2.48238 19.3538C2.63586 19.5948 2.85559 19.7864 3.11522 19.9056C3.31489 19.9994 3.53273 20.0482 3.75334 20.0486C4.10546 20.0479 4.44598 19.9226 4.71464 19.695C8.26565 16.7167 11.9554 15.9866 13.5 15.808V19.0989C13.4998 19.3459 13.5606 19.5891 13.6771 19.8069C13.7937 20.0247 13.9623 20.2102 14.1679 20.347L15.1985 21.0341C15.3985 21.1674 15.6276 21.2507 15.8666 21.2769C16.1055 21.3032 16.3472 21.2716 16.5714 21.185C16.7956 21.0983 16.9957 20.959 17.1548 20.7789C17.3139 20.5987 17.4274 20.3829 17.4857 20.1498L18.5957 15.7096C19.6757 15.5641 20.6664 15.0322 21.3843 14.2123C22.1021 13.3923 22.4985 12.3401 22.5 11.2503ZM16.0305 19.7859L15 19.0989V15.7503H17.0395L16.0305 19.7859ZM18 14.2503H15V8.25029H18C18.7957 8.25029 19.5588 8.56636 20.1214 9.12897C20.684 9.69158 21 10.4546 21 11.2503C21 12.0459 20.684 12.809 20.1214 13.3716C19.5588 13.9342 18.7957 14.2503 18 14.2503Z" fill="#1D1F21" style="fill: var(--ui-icon-primary-color);"/>
</svg>
