<svg  viewBox="0 0 24 24" fill="none" xmlns="http://www.w3.org/2000/svg" id="__THIS_ID_NEEDS_FOR_UI_ICON_COMPONENT__">
<path d="M20.0044 20.805C19.8572 20.9388 19.6629 21.0086 19.4642 20.9992C19.2655 20.9897 19.0787 20.9017 18.9449 20.7545L16.4643 18.0259C15.3788 18.8316 14.0951 19.3278 12.7499 19.4616V21.75C12.7499 21.9489 12.6709 22.1397 12.5302 22.2803C12.3896 22.421 12.1988 22.5 11.9999 22.5C11.801 22.5 11.6102 22.421 11.4696 22.2803C11.3289 22.1397 11.2499 21.9489 11.2499 21.75V19.4622C9.54158 19.2935 7.94319 18.5427 6.7226 17.3357C5.50201 16.1286 4.73343 14.5387 4.54567 12.8324C4.52391 12.6347 4.58153 12.4365 4.70587 12.2814C4.83021 12.1262 5.01109 12.0268 5.20873 12.0049C5.40637 11.9831 5.60459 12.0406 5.75982 12.1649C5.91505 12.2891 6.01457 12.47 6.03651 12.6676C6.15231 13.7029 6.53571 14.6902 7.14896 15.5323C7.76222 16.3745 8.5842 17.0424 9.53399 17.4704C10.4838 17.8983 11.5287 18.0716 12.5658 17.9731C13.6028 17.8746 14.5964 17.5078 15.4487 16.9087L14.4292 15.7872C13.7494 16.2235 12.9646 16.4688 12.1574 16.4972C11.3501 16.5256 10.55 16.3362 9.84124 15.9488C9.13242 15.5614 8.54098 14.9903 8.12901 14.2955C7.71704 13.6007 7.49972 12.8078 7.49989 12V8.16504L3.9449 4.25455C3.81108 4.10736 3.74122 3.91303 3.75068 3.71433C3.76014 3.51563 3.84815 3.32882 3.99534 3.19501C4.14254 3.06119 4.33686 2.99133 4.53556 3.00079C4.73426 3.01025 4.92107 3.09826 5.05488 3.24545L20.0549 19.7455C20.1887 19.8927 20.2585 20.087 20.249 20.2857C20.2396 20.4844 20.1516 20.6712 20.0044 20.805ZM15.1949 12.1697C15.2967 12.2817 15.4301 12.3603 15.5774 12.3951C15.7247 12.4299 15.8791 12.4193 16.0203 12.3648C16.1615 12.3102 16.2829 12.2141 16.3685 12.0893C16.4541 11.9644 16.4999 11.8166 16.4999 11.6652V6C16.4998 5.02081 16.1803 4.06836 15.59 3.28714C14.9996 2.50592 14.1706 1.93855 13.2286 1.67111C12.2867 1.40367 11.2832 1.45075 10.3704 1.8052C9.4576 2.15965 8.68532 2.80214 8.1707 3.63519C8.085 3.77374 8.04673 3.93641 8.06168 4.09863C8.07663 4.26084 8.14398 4.41379 8.25355 4.53433L15.1949 12.1697ZM18.0154 15.1561C18.1071 15.1921 18.205 15.2096 18.3035 15.2077C18.402 15.2058 18.4991 15.1845 18.5894 15.145C18.6796 15.1055 18.7612 15.0485 18.8294 14.9775C18.8977 14.9064 18.9512 14.8226 18.987 14.7308C19.2253 14.1212 19.3823 13.483 19.4541 12.8324C19.476 12.6347 19.4184 12.4364 19.294 12.2812C19.1697 12.1259 18.9888 12.0264 18.7911 12.0046C18.5934 11.9827 18.3951 12.0403 18.2399 12.1646C18.0846 12.289 17.9851 12.4699 17.9633 12.6676C17.9059 13.1874 17.7804 13.6974 17.5901 14.1844C17.5176 14.3697 17.5217 14.5761 17.6015 14.7583C17.6812 14.9406 17.8301 15.0836 18.0154 15.1561Z" fill="#1D1F21" style="fill: var(--ui-icon-primary-color);"/>
</svg>
