<svg  viewBox="0 0 24 24" fill="none" xmlns="http://www.w3.org/2000/svg" id="__THIS_ID_NEEDS_FOR_UI_ICON_COMPONENT__">
<path d="M12 2.25C10.0716 2.25 8.18653 2.82183 6.58315 3.89317C4.97977 4.96451 3.73009 6.48726 2.99213 8.26884C2.25418 10.0504 2.0611 12.0108 2.4373 13.9021C2.81351 15.7934 3.74211 17.5307 5.10567 18.8943C6.46923 20.2579 8.20651 21.1865 10.0978 21.5627C11.9891 21.9389 13.9495 21.7458 15.7311 21.0078C17.5127 20.2699 19.0354 19.0202 20.1068 17.4168C21.1781 15.8134 21.75 13.9284 21.75 12C21.747 9.41506 20.7188 6.93684 18.8909 5.10901C17.0631 3.28118 14.5849 2.25299 12 2.25ZM15.75 12.75H8.24996C8.05105 12.75 7.86028 12.671 7.71963 12.5303C7.57898 12.3897 7.49996 12.1989 7.49996 12C7.49996 11.8011 7.57898 11.6103 7.71963 11.4697C7.86028 11.329 8.05105 11.25 8.24996 11.25H15.75C15.9489 11.25 16.1396 11.329 16.2803 11.4697C16.4209 11.6103 16.5 11.8011 16.5 12C16.5 12.1989 16.4209 12.3897 16.2803 12.5303C16.1396 12.671 15.9489 12.75 15.75 12.75Z" fill="#1D1F21" style="fill: var(--ui-icon-primary-color);"/>
</svg>
