<svg  viewBox="0 0 24 24" fill="none" xmlns="http://www.w3.org/2000/svg" id="__THIS_ID_NEEDS_FOR_UI_ICON_COMPONENT__">
<path d="M19.5 3.75H4.5C3.90347 3.75068 3.33157 3.98795 2.90976 4.40976C2.48795 4.83157 2.25068 5.40347 2.25 6V16.5C2.25068 17.0965 2.48795 17.6684 2.90976 18.0902C3.33157 18.512 3.90347 18.7493 4.5 18.75H19.5C20.0965 18.7493 20.6684 18.512 21.0902 18.0902C21.512 17.6684 21.7493 17.0965 21.75 16.5V6C21.7493 5.40347 21.512 4.83157 21.0902 4.40976C20.6684 3.98795 20.0965 3.75068 19.5 3.75ZM15.416 11.874L10.916 14.874C10.8031 14.9494 10.6718 14.9928 10.5362 14.9994C10.4005 15.006 10.2656 14.9756 10.1459 14.9116C10.0262 14.8475 9.92612 14.7521 9.85638 14.6356C9.78665 14.5191 9.74988 14.3858 9.75 14.25V8.24998C9.74988 8.11418 9.78665 7.9809 9.85638 7.86438C9.92612 7.74785 10.0262 7.65246 10.1459 7.58838C10.2656 7.5243 10.4005 7.49395 10.5362 7.50057C10.6718 7.50719 10.8031 7.55053 10.916 7.62595L15.416 10.626C15.5188 10.6944 15.603 10.7872 15.6613 10.8961C15.7195 11.0049 15.75 11.1265 15.75 11.25C15.75 11.3734 15.7195 11.495 15.6613 11.6039C15.603 11.7127 15.5188 11.8055 15.416 11.874ZM15.75 21C15.75 21.1989 15.671 21.3897 15.5303 21.5303C15.3897 21.671 15.1989 21.75 15 21.75H9C8.80109 21.75 8.61032 21.671 8.46967 21.5303C8.32902 21.3897 8.25 21.1989 8.25 21C8.25 20.8011 8.32902 20.6103 8.46967 20.4697C8.61032 20.329 8.80109 20.25 9 20.25H15C15.1989 20.25 15.3897 20.329 15.5303 20.4697C15.671 20.6103 15.75 20.8011 15.75 21Z" fill="#1D1F21" style="fill: var(--ui-icon-primary-color);"/>
</svg>
