<svg  viewBox="0 0 24 24" fill="none" xmlns="http://www.w3.org/2000/svg" id="__THIS_ID_NEEDS_FOR_UI_ICON_COMPONENT__">
<path d="M21.75 5.89893V16.3989C21.7493 16.9955 21.512 17.5674 21.0902 17.9892C20.6684 18.411 20.0965 18.6482 19.5 18.6489H4.5C3.90347 18.6482 3.33157 18.411 2.90976 17.9892C2.48795 17.5674 2.25068 16.9955 2.25 16.3989V5.89893C2.25068 5.3024 2.48795 4.7305 2.90976 4.30869C3.33157 3.88688 3.90347 3.64961 4.5 3.64893H19.5C20.0965 3.64961 20.6684 3.88688 21.0902 4.30869C21.512 4.7305 21.7493 5.3024 21.75 5.89893ZM15 20.1489H9C8.80109 20.1489 8.61032 20.2279 8.46967 20.3686C8.32902 20.5092 8.25 20.7 8.25 20.8989C8.25 21.0978 8.32902 21.2886 8.46967 21.4293C8.61032 21.5699 8.80109 21.6489 9 21.6489H15C15.1989 21.6489 15.3897 21.5699 15.5303 21.4293C15.671 21.2886 15.75 21.0978 15.75 20.8989C15.75 20.7 15.671 20.5092 15.5303 20.3686C15.3897 20.2279 15.1989 20.1489 15 20.1489Z" fill="#1D1F21" style="fill: var(--ui-icon-primary-color);"/>
</svg>
