<svg  viewBox="0 0 24 24" fill="none" xmlns="http://www.w3.org/2000/svg" id="__THIS_ID_NEEDS_FOR_UI_ICON_COMPONENT__">
<path d="M21.5029 14.1902C21.1117 15.8863 20.2736 17.4467 19.0756 18.7095C17.8776 19.9722 16.3635 20.8913 14.6904 21.3712C13.0172 21.8511 11.2461 21.8745 9.56096 21.4387C7.87578 21.003 6.33796 20.1241 5.10717 18.8933C3.87638 17.6625 2.99748 16.1247 2.56174 14.4396C2.126 12.7544 2.1493 10.9833 2.62922 9.31016C3.10914 7.63703 4.02818 6.12287 5.29092 4.92489C6.55367 3.72691 8.11407 2.88878 9.81013 2.49753C9.93395 2.4691 10.063 2.4726 10.1851 2.50768C10.3072 2.54277 10.4184 2.6083 10.5082 2.69812C10.5981 2.78795 10.6636 2.89913 10.6987 3.02123C10.7338 3.14332 10.7374 3.27234 10.709 3.39617C10.3962 4.75952 10.4349 6.17996 10.8214 7.52425C11.2079 8.86854 11.9296 10.0926 12.9186 11.0817C13.9077 12.0708 15.1318 12.7924 16.4761 13.1789C17.8204 13.5654 19.2408 13.6041 20.6042 13.2914C20.728 13.263 20.857 13.2665 20.9791 13.3016C21.1012 13.3367 21.2124 13.4023 21.3023 13.4921C21.3921 13.582 21.4576 13.6932 21.4927 13.8153C21.5278 13.9374 21.5313 14.0664 21.5029 14.1902Z" fill="#1D1F21" style="fill: var(--ui-icon-primary-color);"/>
</svg>
