<svg  viewBox="0 0 24 24" fill="none" xmlns="http://www.w3.org/2000/svg" id="__THIS_ID_NEEDS_FOR_UI_ICON_COMPONENT__">
<path d="M13.875 1.5H10.125C8.53425 1.5018 7.00917 2.13451 5.88434 3.25934C4.75951 4.38417 4.1268 5.90925 4.125 7.5V16.5C4.1268 18.0907 4.75951 19.6158 5.88434 20.7407C7.00917 21.8655 8.53425 22.4982 10.125 22.5H13.875C15.4657 22.4982 16.9908 21.8655 18.1157 20.7407C19.2405 19.6158 19.8732 18.0907 19.875 16.5V7.5C19.8732 5.90925 19.2405 4.38417 18.1157 3.25934C16.9908 2.13451 15.4657 1.5018 13.875 1.5ZM18.375 7.5V9H12.75V3H13.875C15.0681 3.00136 16.2119 3.4759 17.0555 4.31952C17.8991 5.16314 18.3736 6.30694 18.375 7.5ZM10.125 3H11.25V9H5.625V7.5C5.62636 6.30694 6.1009 5.16314 6.94452 4.31952C7.78814 3.4759 8.93194 3.00136 10.125 3Z" fill="#1D1F21" style="fill: var(--ui-icon-primary-color);"/>
</svg>
