<svg  viewBox="0 0 24 24" fill="none" xmlns="http://www.w3.org/2000/svg" id="__THIS_ID_NEEDS_FOR_UI_ICON_COMPONENT__">
<path d="M20.2501 3V16.125C20.2509 16.8784 19.9998 17.6104 19.5368 18.2047C19.0737 18.799 18.4253 19.2215 17.6946 19.405C16.964 19.5885 16.1929 19.5225 15.504 19.2175C14.8151 18.9125 14.248 18.386 13.8927 17.7217C13.5374 17.0573 13.4143 16.2933 13.5431 15.551C13.6718 14.8087 14.045 14.1307 14.6033 13.6248C15.1616 13.119 15.8729 12.8142 16.6243 12.7591C17.3757 12.7039 18.1239 12.9014 18.7501 13.3203V3.96057L8.25011 6.58557V19.125C8.25087 19.8784 7.99977 20.6104 7.53675 21.2047C7.07373 21.799 6.42534 22.2215 5.69465 22.405C4.96395 22.5885 4.19289 22.5225 3.50401 22.2175C2.81512 21.9125 2.24796 21.386 1.89265 20.7217C1.53735 20.0573 1.4143 19.2933 1.54306 18.551C1.67182 17.8087 2.045 17.1307 2.6033 16.6248C3.16159 16.119 3.87295 15.8142 4.62431 15.7591C5.37567 15.7039 6.12391 15.9014 6.75011 16.3203V6C6.7501 5.83273 6.80601 5.67027 6.90894 5.53843C7.01188 5.40659 7.15593 5.31295 7.3182 5.27238L19.3182 2.27238C19.4288 2.24475 19.5442 2.24267 19.6557 2.26632C19.7672 2.28997 19.8718 2.33872 19.9617 2.40886C20.0515 2.479 20.1242 2.56869 20.1741 2.67112C20.2241 2.77355 20.2501 2.88602 20.2501 3Z" fill="#1D1F21" style="fill: var(--ui-icon-primary-color);"/>
</svg>
