<svg  viewBox="0 0 24 24" fill="none" xmlns="http://www.w3.org/2000/svg" id="__THIS_ID_NEEDS_FOR_UI_ICON_COMPONENT__">
<path d="M20.2495 2.99957V16.1246C20.2508 16.8787 19.9999 17.6115 19.5368 18.2067C19.0737 18.8018 18.4249 19.225 17.6936 19.4091C16.9623 19.5931 16.1905 19.5273 15.5009 19.2222C14.8112 18.9171 14.2434 18.3903 13.8876 17.7254C13.5319 17.0605 13.4086 16.2957 13.5375 15.5527C13.6664 14.8097 14.0399 14.1311 14.5988 13.6248C15.1577 13.1185 15.8698 12.8136 16.6219 12.7586C17.3739 12.7035 18.1228 12.9015 18.7495 13.321V7.70977L8.24947 10.3348V19.1246C8.25078 19.8787 7.99993 20.6115 7.53682 21.2067C7.0737 21.8018 6.42492 22.225 5.69362 22.4091C4.96232 22.5931 4.19049 22.5273 3.50086 22.2222C2.81123 21.9171 2.2434 21.3903 1.88764 20.7254C1.53189 20.0605 1.40865 19.2957 1.53751 18.5527C1.66637 17.8097 2.03994 17.1311 2.59881 16.6248C3.15768 16.1185 3.86978 15.8136 4.62186 15.7586C5.37395 15.7035 6.12284 15.9015 6.74947 16.321V5.99957C6.74951 5.83231 6.80547 5.66987 6.90845 5.53808C7.01144 5.4063 7.15554 5.31273 7.31783 5.27227L19.3178 2.27227C19.4283 2.24392 19.5438 2.24146 19.6553 2.2651C19.7669 2.28873 19.8714 2.33781 19.9609 2.4085C20.0507 2.4787 20.1233 2.56839 20.1733 2.67079C20.2233 2.77319 20.2493 2.88562 20.2495 2.99957Z" fill="#1D1F21" style="fill: var(--ui-icon-primary-color);"/>
</svg>
