<svg  viewBox="0 0 24 24" fill="none" xmlns="http://www.w3.org/2000/svg" id="__THIS_ID_NEEDS_FOR_UI_ICON_COMPONENT__">
<path d="M20.2184 6.21552C20.1613 6.40605 20.0308 6.56606 19.8556 6.66037C19.6805 6.75467 19.475 6.77553 19.2845 6.71837L12.75 4.75804V17.25C12.7515 18.2822 12.3986 19.2837 11.7503 20.087C11.1019 20.8902 10.1975 21.4465 9.18818 21.6629C8.17887 21.8793 7.12587 21.7426 6.20524 21.2757C5.28462 20.8088 4.55217 20.0401 4.13039 19.0979C3.7086 18.1558 3.62303 17.0974 3.88799 16.0998C4.15296 15.1021 4.75239 14.2256 5.58606 13.6169C6.41972 13.0082 7.4371 12.7042 8.46806 12.7556C9.49902 12.807 10.4811 13.2108 11.25 13.8995V3.75C11.25 3.63308 11.2774 3.51778 11.3298 3.4133C11.3823 3.30883 11.4585 3.21807 11.5523 3.14828C11.6461 3.07848 11.755 3.03159 11.8701 3.01134C11.9853 2.99108 12.1035 2.99804 12.2155 3.03163L19.7155 5.28163C19.9061 5.3388 20.0661 5.4693 20.1604 5.64443C20.2547 5.81957 20.2756 6.02499 20.2184 6.21552Z" fill="#1D1F21" style="fill: var(--ui-icon-primary-color);"/>
</svg>
