<svg  viewBox="0 0 24 24" fill="none" xmlns="http://www.w3.org/2000/svg" id="__THIS_ID_NEEDS_FOR_UI_ICON_COMPONENT__">
<path d="M21.586 9.73458C21.5839 10.0517 21.4799 10.3598 21.2893 10.6133C21.0987 10.8668 20.8316 11.0522 20.5275 11.1423L13.3503 13.3506L11.142 20.5276C11.052 20.8318 10.8666 21.0989 10.6131 21.2895C10.3596 21.4802 10.0515 21.5842 9.73434 21.5863C9.7251 21.5865 9.71567 21.5865 9.70642 21.5865C9.39406 21.5896 9.08877 21.4936 8.83443 21.3122C8.58008 21.1309 8.38976 20.8736 8.29083 20.5773L2.79666 4.70504C2.70456 4.43903 2.68918 4.15247 2.75227 3.87813C2.81536 3.60379 2.95439 3.35274 3.15344 3.15368C3.35249 2.95463 3.60354 2.81561 3.87789 2.75252C4.15223 2.68942 4.43879 2.7048 4.7048 2.7969L20.5769 8.29116C20.8777 8.39164 21.1383 8.58622 21.32 8.84615C21.5017 9.10607 21.595 9.41756 21.586 9.73458Z" fill="#1D1F21" style="fill: var(--ui-icon-primary-color);"/>
</svg>
