<svg  viewBox="0 0 24 24" fill="none" xmlns="http://www.w3.org/2000/svg" id="__THIS_ID_NEEDS_FOR_UI_ICON_COMPONENT__">
<path d="M21 3.75H5.25C4.85231 3.75045 4.47105 3.90864 4.18984 4.18984C3.90864 4.47105 3.75045 4.85231 3.75 5.25V18C3.75 18.1989 3.67098 18.3897 3.53033 18.5303C3.38968 18.671 3.19891 18.75 3 18.75C2.80109 18.75 2.61032 18.671 2.46967 18.5303C2.32902 18.3897 2.25 18.1989 2.25 18V7.5C2.25 7.30109 2.17098 7.11032 2.03033 6.96967C1.88968 6.82902 1.69891 6.75 1.5 6.75C1.30109 6.75 1.11032 6.82902 0.96967 6.96967C0.829018 7.11032 0.75 7.30109 0.75 7.5V18.01C0.753307 18.6048 0.991738 19.1741 1.41326 19.5938C1.83479 20.0134 2.40519 20.2493 3 20.25H20.25C20.8465 20.2493 21.4184 20.012 21.8402 19.5902C22.262 19.1684 22.4993 18.5965 22.5 18V5.25C22.4995 4.85231 22.3414 4.47105 22.0602 4.18984C21.779 3.90864 21.3977 3.75045 21 3.75ZM18 15.75H8.25C8.05109 15.75 7.86032 15.671 7.71967 15.5303C7.57902 15.3897 7.5 15.1989 7.5 15C7.5 14.8011 7.57902 14.6103 7.71967 14.4697C7.86032 14.329 8.05109 14.25 8.25 14.25H18C18.1989 14.25 18.3897 14.329 18.5303 14.4697C18.671 14.6103 18.75 14.8011 18.75 15C18.75 15.1989 18.671 15.3897 18.5303 15.5303C18.3897 15.671 18.1989 15.75 18 15.75ZM18 12.75H8.25C8.05109 12.75 7.86032 12.671 7.71967 12.5303C7.57902 12.3897 7.5 12.1989 7.5 12C7.5 11.8011 7.57902 11.6103 7.71967 11.4697C7.86032 11.329 8.05109 11.25 8.25 11.25H18C18.1989 11.25 18.3897 11.329 18.5303 11.4697C18.671 11.6103 18.75 11.8011 18.75 12C18.75 12.1989 18.671 12.3897 18.5303 12.5303C18.3897 12.671 18.1989 12.75 18 12.75ZM18 9.75H8.25C8.05109 9.75 7.86032 9.67098 7.71967 9.53033C7.57902 9.38968 7.5 9.19891 7.5 9C7.5 8.80109 7.57902 8.61032 7.71967 8.46967C7.86032 8.32902 8.05109 8.25 8.25 8.25H18C18.1989 8.25 18.3897 8.32902 18.5303 8.46967C18.671 8.61032 18.75 8.80109 18.75 9C18.75 9.19891 18.671 9.38968 18.5303 9.53033C18.3897 9.67098 18.1989 9.75 18 9.75Z" fill="#1D1F21" style="fill: var(--ui-icon-primary-color);"/>
</svg>
