<svg  viewBox="0 0 24 24" fill="none" xmlns="http://www.w3.org/2000/svg" id="__THIS_ID_NEEDS_FOR_UI_ICON_COMPONENT__">
<path d="M21.5304 5.46969L18.5304 2.46969C18.4608 2.40004 18.3781 2.34479 18.2871 2.3071C18.1961 2.2694 18.0985 2.25 18 2.25C17.9015 2.25 17.804 2.2694 17.713 2.3071C17.622 2.34479 17.5393 2.40004 17.4697 2.46969L8.46968 11.4697C8.32904 11.6103 8.25004 11.8011 8.25004 12V15C8.25004 15.1989 8.32906 15.3897 8.46971 15.5303C8.61036 15.671 8.80113 15.75 9.00004 15.75H12C12.199 15.75 12.3897 15.671 12.5304 15.5303L21.5304 6.53033C21.6711 6.38968 21.7501 6.19892 21.7501 6.00001C21.7501 5.8011 21.6711 5.61034 21.5304 5.46969ZM18.7501 7.18935L16.8107 5.25001L18 4.06067L19.9394 6.00001L18.7501 7.18935ZM21.0002 10.5006V19.4998C20.9998 19.8975 20.8417 20.2788 20.5605 20.5601C20.2792 20.8413 19.8979 20.9994 19.5002 20.9998H4.50023C4.10252 20.9994 3.72122 20.8413 3.44 20.5601C3.15878 20.2788 3.00062 19.8975 3.00023 19.4998V4.49983C3.00062 4.10212 3.15878 3.72082 3.44 3.4396C3.72122 3.15838 4.10252 3.00022 4.50023 2.99983H13.5017C13.6721 3.00121 13.8367 3.06143 13.9678 3.1703C14.0989 3.27916 14.1883 3.42998 14.2209 3.59721L7.40923 10.4089C7.19964 10.6173 7.03348 10.8653 6.92037 11.1384C6.80725 11.4114 6.74942 11.7042 6.75023 11.9998V14.9998C6.7509 15.5964 6.98816 16.1683 7.40997 16.5901C7.83179 17.0119 8.4037 17.2492 9.00023 17.2498H12.0002C12.2958 17.2506 12.5887 17.1928 12.8617 17.0796C13.1348 16.9665 13.3828 16.8003 13.5912 16.5907L20.4011 9.78096C20.5687 9.81323 20.72 9.90255 20.8292 10.0337C20.9384 10.1649 20.9989 10.3299 21.0002 10.5006Z" fill="#1D1F21" style="fill: var(--ui-icon-primary-color);"/>
</svg>
