<svg  viewBox="0 0 24 24" fill="none" xmlns="http://www.w3.org/2000/svg" id="__THIS_ID_NEEDS_FOR_UI_ICON_COMPONENT__">
<path d="M12 2.25C10.0716 2.25 8.18653 2.82183 6.58315 3.89317C4.97977 4.96451 3.73009 6.48726 2.99213 8.26884C2.25418 10.0504 2.0611 12.0108 2.4373 13.9021C2.81351 15.7934 3.74211 17.5307 5.10567 18.8943C6.46923 20.2579 8.20651 21.1865 10.0978 21.5627C11.9891 21.9389 13.9495 21.7458 15.7311 21.0078C17.5127 20.2699 19.0354 19.0202 20.1068 17.4168C21.1781 15.8134 21.75 13.9284 21.75 12C21.747 9.41504 20.7189 6.93679 18.891 5.10894C17.0632 3.28109 14.5849 2.25293 12 2.25ZM14.25 15.7495C14.4489 15.7495 14.6396 15.8285 14.7803 15.9691C14.9209 16.1098 15 16.3005 15 16.4995C15 16.6984 14.9209 16.8891 14.7803 17.0298C14.6396 17.1704 14.4489 17.2495 14.25 17.2495H9.77971C9.76973 17.2498 9.75975 17.2501 9.74987 17.2501C9.60929 17.25 9.47157 17.2104 9.35239 17.1359C9.23321 17.0614 9.13736 16.9548 9.07578 16.8285C9.0142 16.7021 8.98936 16.561 9.00409 16.4212C9.01881 16.2814 9.07252 16.1485 9.15908 16.0378L13.2534 10.5744C13.3679 10.4002 13.4449 10.204 13.4793 9.99836C13.5138 9.79272 13.505 9.58216 13.4535 9.38011C13.4021 9.17805 13.3091 8.98894 13.1805 8.82483C13.0518 8.66073 12.8904 8.52523 12.7065 8.42699C12.5226 8.32875 12.3202 8.26991 12.1123 8.25424C11.9044 8.23857 11.6955 8.26641 11.499 8.33598C11.3024 8.40554 11.1225 8.51532 10.9707 8.65829C10.819 8.80126 10.6987 8.9743 10.6175 9.16636C10.5791 9.25707 10.5233 9.33934 10.4531 9.40846C10.383 9.47759 10.2999 9.53222 10.2086 9.56923C10.1173 9.60625 10.0197 9.62492 9.92118 9.62419C9.82269 9.62346 9.72531 9.60334 9.6346 9.56497C9.54389 9.52661 9.46162 9.47075 9.39249 9.40059C9.32337 9.33043 9.26874 9.24735 9.23172 9.15608C9.19471 9.0648 9.17603 8.96713 9.17676 8.86865C9.17749 8.77016 9.19762 8.67278 9.23598 8.58206C9.39891 8.19665 9.64066 7.84957 9.94569 7.56314C10.2507 7.2767 10.6123 7.05723 11.0072 6.91883C11.4021 6.78043 11.8215 6.72615 12.2386 6.75949C12.6558 6.79283 13.0613 6.91305 13.4292 7.11242C13.7971 7.3118 14.1192 7.58592 14.3748 7.91717C14.6305 8.24843 14.814 8.6295 14.9137 9.0359C15.0133 9.4423 15.0268 9.86505 14.9534 10.277C14.8799 10.6889 14.7211 11.081 14.4872 11.4279C14.4803 11.4381 14.4733 11.448 14.4658 11.4578L11.2497 15.7495L14.25 15.7495Z" fill="#1D1F21" style="fill: var(--ui-icon-primary-color);"/>
</svg>
