<svg  viewBox="0 0 24 24" fill="none" xmlns="http://www.w3.org/2000/svg" id="__THIS_ID_NEEDS_FOR_UI_ICON_COMPONENT__">
<path d="M17.7563 4.90805C16.4055 2.67847 14.415 1.5 12 1.5C9.58502 1.5 7.59448 2.67847 6.24371 4.90805C5.11926 6.76396 4.5 9.28258 4.5 12C4.5 14.7172 5.11926 17.2358 6.24371 19.0918C7.59448 21.3214 9.58502 22.5 12 22.5C14.415 22.5 16.4055 21.3214 17.7563 19.0918C18.8807 17.2358 19.5 14.7172 19.5 12C19.5 9.28258 18.8807 6.76396 17.7563 4.90805ZM12 21C7.85522 21 6 16.4798 6 12C6 7.52023 7.85522 3 12 3C16.1448 3 18 7.52023 18 12C18 16.4798 16.1448 21 12 21Z" fill="#1D1F21" style="fill: var(--ui-icon-primary-color);"/>
</svg>
