<svg  viewBox="0 0 24 24" fill="none" xmlns="http://www.w3.org/2000/svg" id="__THIS_ID_NEEDS_FOR_UI_ICON_COMPONENT__">
<path d="M12 2.25C10.0716 2.25 8.18653 2.82183 6.58315 3.89317C4.97977 4.96451 3.73009 6.48726 2.99213 8.26884C2.25418 10.0504 2.0611 12.0108 2.4373 13.9021C2.81351 15.7934 3.74211 17.5307 5.10567 18.8943C6.46923 20.2579 8.20651 21.1865 10.0978 21.5627C11.9891 21.9389 13.9495 21.7458 15.7311 21.0078C17.5127 20.2699 19.0354 19.0202 20.1068 17.4168C21.1781 15.8134 21.75 13.9284 21.75 12C21.747 9.41504 20.7189 6.93679 18.891 5.10894C17.0632 3.28109 14.5849 2.25293 12 2.25ZM14.0116 16.6365C13.3787 17.2694 12.5203 17.625 11.6252 17.625C10.7301 17.625 9.87166 17.2694 9.23873 16.6365C9.16908 16.5669 9.11383 16.4842 9.07614 16.3932C9.03844 16.3022 9.01904 16.2046 9.01904 16.1061C9.01904 16.0076 9.03844 15.9101 9.07614 15.8191C9.11383 15.7281 9.16908 15.6454 9.23873 15.5758C9.37939 15.4351 9.57017 15.3561 9.76909 15.3561C9.86759 15.3561 9.96512 15.3755 10.0561 15.4132C10.1471 15.4509 10.2298 15.5061 10.2995 15.5758C10.5175 15.7938 10.7859 15.9547 11.081 16.0442C11.376 16.1337 11.6886 16.149 11.991 16.0889C12.2935 16.0287 12.5764 15.8949 12.8147 15.6993C13.0531 15.5037 13.2395 15.2523 13.3575 14.9675C13.4755 14.6826 13.5214 14.373 13.4912 14.0662C13.4609 13.7593 13.3555 13.4647 13.1842 13.2083C13.0129 12.9519 12.781 12.7417 12.5091 12.5964C12.2372 12.451 11.9336 12.375 11.6252 12.375C11.488 12.375 11.3535 12.3374 11.2362 12.2662C11.1189 12.1951 11.0234 12.0931 10.96 11.9714C10.8966 11.8497 10.8679 11.713 10.8768 11.5761C10.8857 11.4392 10.9321 11.3074 11.0107 11.195L12.8096 8.62427H9.74968C9.55077 8.62427 9.36001 8.54525 9.21935 8.4046C9.0787 8.26395 8.99968 8.07318 8.99968 7.87427C8.99968 7.67536 9.0787 7.48459 9.21935 7.34394C9.36001 7.20329 9.55077 7.12427 9.74968 7.12427H14.2497C14.3869 7.12426 14.5214 7.16189 14.6387 7.23305C14.756 7.30421 14.8516 7.40618 14.9149 7.52786C14.9783 7.64954 15.0071 7.78627 14.9981 7.92317C14.9892 8.06007 14.9428 8.19189 14.8642 8.30429L12.8937 11.1205C13.41 11.3301 13.8665 11.6642 14.2223 12.0931C14.5781 12.522 14.8223 13.0323 14.9329 13.5785C15.0436 14.1246 15.0174 14.6897 14.8567 15.2233C14.6959 15.7569 14.4056 16.2424 14.0116 16.6365Z" fill="#1D1F21" style="fill: var(--ui-icon-primary-color);"/>
</svg>
