<svg  viewBox="0 0 24 24" fill="none" xmlns="http://www.w3.org/2000/svg" id="__THIS_ID_NEEDS_FOR_UI_ICON_COMPONENT__">
<path d="M19.5 3H4.5C4.10231 3.00045 3.72105 3.15864 3.43984 3.43984C3.15864 3.72105 3.00045 4.10231 3 4.5V19.5C3.00045 19.8977 3.15864 20.279 3.43984 20.5602C3.72105 20.8414 4.10231 20.9995 4.5 21H19.5C19.8977 20.9995 20.279 20.8414 20.5602 20.5602C20.8414 20.279 20.9995 19.8977 21 19.5V4.5C20.9995 4.10231 20.8414 3.72105 20.5602 3.43984C20.279 3.15864 19.8977 3.00045 19.5 3ZM11.6139 10.5002C12.1685 10.5015 12.7143 10.6394 13.2029 10.9018C13.6915 11.1642 14.108 11.543 14.4153 12.0046C14.7227 12.4663 14.9116 12.9966 14.9653 13.5486C15.0189 14.1006 14.9357 14.6574 14.723 15.1696C14.5102 15.6818 14.1746 16.1336 13.7456 16.4852C13.3167 16.8368 12.8077 17.0773 12.2637 17.1853C11.7197 17.2934 11.1575 17.2657 10.6267 17.1048C10.096 16.9438 9.61307 16.6545 9.22073 16.2625C9.15086 16.193 9.09536 16.1105 9.05741 16.0195C9.01946 15.9286 8.9998 15.831 8.99957 15.7325C8.99933 15.634 9.01851 15.5363 9.05602 15.4452C9.09353 15.3541 9.14863 15.2712 9.21818 15.2014C9.28772 15.1316 9.37034 15.0762 9.46131 15.0383C9.55229 15.0004 9.64983 14.9809 9.74838 14.9807C9.84692 14.9806 9.94453 14.9998 10.0356 15.0374C10.1267 15.075 10.2095 15.1302 10.2793 15.1998C10.6341 15.5522 11.1139 15.75 11.614 15.75C12.1142 15.75 12.594 15.5521 12.9488 15.1997C13.1235 15.0261 13.2621 14.8197 13.3567 14.5924C13.4513 14.365 13.5 14.1212 13.5 13.875C13.5 13.6287 13.4513 13.3849 13.3566 13.1576C13.262 12.9302 13.1234 12.7239 12.9487 12.5503C12.5938 12.1979 12.114 12.0002 11.6139 12.0002C11.1138 12.0002 10.634 12.198 10.2792 12.5504C10.1669 12.6623 10.022 12.7357 9.86537 12.7601C9.70875 12.7844 9.54843 12.7586 9.40742 12.6862C9.2664 12.6138 9.15196 12.4986 9.0805 12.3571C9.00905 12.2156 8.98426 12.0551 9.0097 11.8987L9.74423 7.3797C9.77281 7.20395 9.86297 7.0441 9.9986 6.92873C10.1342 6.81337 10.3065 6.75001 10.4845 6.75H14.25C14.4489 6.75 14.6397 6.82902 14.7803 6.96967C14.921 7.11032 15 7.30109 15 7.5C15 7.69891 14.921 7.88968 14.7803 8.03033C14.6397 8.17098 14.4489 8.25 14.25 8.25H11.1225L10.7383 10.6135C11.024 10.538 11.3184 10.4999 11.6139 10.5002Z" fill="#1D1F21" style="fill: var(--ui-icon-primary-color);"/>
</svg>
