<svg  viewBox="0 0 24 24" fill="none" xmlns="http://www.w3.org/2000/svg" id="__THIS_ID_NEEDS_FOR_UI_ICON_COMPONENT__">
<path d="M14.25 12C14.25 13.3931 13.7761 15.75 12 15.75C10.2239 15.75 9.75 13.3931 9.75 12C9.75 10.6069 10.2239 8.25 12 8.25C13.7761 8.25 14.25 10.6069 14.25 12ZM21 4.5V19.5C20.9995 19.8977 20.8413 20.2789 20.5601 20.5601C20.2789 20.8413 19.8977 20.9995 19.5 21H4.5C4.10233 20.9995 3.7211 20.8413 3.43991 20.5601C3.15872 20.2789 3.00052 19.8977 3 19.5V4.5C3.00052 4.10233 3.15872 3.7211 3.43991 3.43991C3.7211 3.15872 4.10233 3.00052 4.5 3H19.5C19.8977 3.00052 20.2789 3.15872 20.5601 3.43991C20.8413 3.7211 20.9995 4.10233 21 4.5ZM15.75 12C15.75 9.38672 14.5906 6.75 12 6.75C9.40942 6.75 8.25 9.38672 8.25 12C8.25 14.6133 9.40942 17.25 12 17.25C14.5906 17.25 15.75 14.6133 15.75 12Z" fill="#1D1F21" style="fill: var(--ui-icon-primary-color);"/>
</svg>
