<svg  viewBox="0 0 24 24" fill="none" xmlns="http://www.w3.org/2000/svg" id="__THIS_ID_NEEDS_FOR_UI_ICON_COMPONENT__">
<path d="M13.125 2.99914V20.9991C13.125 21.1981 13.0459 21.3889 12.9052 21.5297C12.7645 21.6704 12.5736 21.7494 12.3746 21.7494C12.1756 21.7494 11.9847 21.6704 11.844 21.5297C11.7033 21.3889 11.6242 21.1981 11.6242 20.9991V4.40077L8.29184 6.62184C8.12633 6.73226 7.92374 6.77241 7.72863 6.73345C7.53352 6.6945 7.36188 6.57964 7.25146 6.41413C7.14104 6.24862 7.10089 6.04603 7.13984 5.85092C7.1788 5.65581 7.29366 5.48416 7.45917 5.37374L11.9583 2.37507C12.0713 2.29974 12.2026 2.25648 12.3382 2.2499C12.4739 2.24333 12.6088 2.27369 12.7285 2.33774C12.8483 2.40179 12.9484 2.49714 13.0182 2.61362C13.088 2.7301 13.1249 2.86334 13.125 2.99914Z" fill="#1D1F21" style="fill: var(--ui-icon-primary-color);"/>
</svg>
