<svg  viewBox="0 0 24 24" fill="none" xmlns="http://www.w3.org/2000/svg" id="__THIS_ID_NEEDS_FOR_UI_ICON_COMPONENT__">
<path d="M12 2.25C10.0716 2.25 8.18653 2.82183 6.58315 3.89317C4.97977 4.96451 3.73009 6.48726 2.99213 8.26884C2.25418 10.0504 2.0611 12.0108 2.4373 13.9021C2.81351 15.7934 3.74211 17.5307 5.10567 18.8943C6.46923 20.2579 8.20651 21.1865 10.0978 21.5627C11.9891 21.9389 13.9495 21.7458 15.7311 21.0078C17.5127 20.2699 19.0354 19.0202 20.1068 17.4168C21.1781 15.8134 21.75 13.9284 21.75 12C21.747 9.41504 20.7189 6.93679 18.891 5.10894C17.0632 3.28109 14.5849 2.25293 12 2.25ZM11.6139 10.8752C12.1685 10.8765 12.7143 11.0144 13.2029 11.2768C13.6915 11.5392 14.1079 11.918 14.4153 12.3796C14.7227 12.8413 14.9116 13.3716 14.9652 13.9236C15.0189 14.4756 14.9357 15.0324 14.7229 15.5446C14.5102 16.0568 14.1745 16.5086 13.7456 16.8602C13.3166 17.2118 12.8077 17.4523 12.2637 17.5603C11.7197 17.6684 11.1574 17.6407 10.6267 17.4798C10.0959 17.3188 9.61303 17.0295 9.22069 16.6375C9.15081 16.568 9.09531 16.4855 9.05737 16.3945C9.01942 16.3036 8.99976 16.206 8.99952 16.1075C8.99929 16.009 9.01847 15.9113 9.05598 15.8202C9.09349 15.7291 9.14859 15.6462 9.21813 15.5764C9.28768 15.5066 9.3703 15.4512 9.46127 15.4133C9.55225 15.3754 9.64979 15.3559 9.74834 15.3557C9.84688 15.3556 9.94449 15.3748 10.0356 15.4124C10.1267 15.45 10.2095 15.5052 10.2792 15.5748C10.634 15.9272 11.1139 16.125 11.614 16.125C12.1141 16.125 12.5939 15.9271 12.9487 15.5747C13.1234 15.4011 13.2621 15.1947 13.3567 14.9674C13.4513 14.74 13.5 14.4962 13.5 14.25C13.4999 14.0037 13.4512 13.7599 13.3566 13.5326C13.262 13.3052 13.1233 13.0989 12.9486 12.9253C12.5938 12.5729 12.114 12.3752 11.6139 12.3752C11.1138 12.3752 10.634 12.573 10.2791 12.9254C10.1668 13.0373 10.0219 13.1107 9.86533 13.1351C9.70871 13.1594 9.54838 13.1336 9.40737 13.0612C9.26636 12.9888 9.15192 12.8736 9.08046 12.7321C9.00901 12.5906 8.98422 12.4301 9.00966 12.2737L9.74419 7.7547C9.77277 7.57895 9.86293 7.4191 9.99856 7.30373C10.1342 7.18837 10.3064 7.12501 10.4845 7.125H14.25C14.4489 7.125 14.6396 7.20402 14.7803 7.34467C14.9209 7.48532 15 7.67609 15 7.875C15 8.07391 14.9209 8.26468 14.7803 8.40533C14.6396 8.54598 14.4489 8.625 14.25 8.625H11.1224L10.7383 10.9885C11.024 10.913 11.3183 10.8749 11.6139 10.8752Z" fill="#1D1F21" style="fill: var(--ui-icon-primary-color);"/>
</svg>
