<svg  viewBox="0 0 24 24" fill="none" xmlns="http://www.w3.org/2000/svg" id="__THIS_ID_NEEDS_FOR_UI_ICON_COMPONENT__">
<path d="M13.875 10.5C13.875 10.8708 13.765 11.2334 13.559 11.5417C13.353 11.85 13.0601 12.0904 12.7175 12.2323C12.3749 12.3742 11.9979 12.4113 11.6342 12.339C11.2705 12.2666 10.9364 12.088 10.6742 11.8258C10.412 11.5636 10.2334 11.2295 10.161 10.8658C10.0887 10.5021 10.1258 10.1251 10.2677 9.78247C10.4096 9.43986 10.65 9.14702 10.9583 8.94099C11.2666 8.73497 11.6292 8.625 12 8.625C12.4971 8.62555 12.9737 8.82327 13.3252 9.17479C13.6767 9.5263 13.8744 10.0029 13.875 10.5ZM21 4.5V19.5C20.9995 19.8977 20.8414 20.279 20.5602 20.5602C20.279 20.8414 19.8977 20.9995 19.5 21H4.5C4.10231 20.9995 3.72105 20.8414 3.43984 20.5602C3.15864 20.279 3.00045 19.8977 3 19.5V4.5C3.00045 4.10231 3.15864 3.72105 3.43984 3.43984C3.72105 3.15864 4.10231 3.00045 4.5 3H19.5C19.8977 3.00045 20.279 3.15864 20.5602 3.43984C20.8414 3.72105 20.9995 4.10231 21 4.5ZM15.375 10.5C15.375 9.83249 15.1771 9.17997 14.8062 8.62495C14.4354 8.06993 13.9083 7.63735 13.2916 7.38191C12.6749 7.12646 11.9963 7.05962 11.3416 7.18985C10.6869 7.32007 10.0855 7.64151 9.61351 8.11351C9.14151 8.58552 8.82007 9.18688 8.68985 9.84157C8.55962 10.4963 8.62646 11.1749 8.88191 11.7916C9.13735 12.4083 9.56993 12.9354 10.125 13.3062C10.68 13.6771 11.3325 13.875 12 13.875C12.0573 13.875 12.1142 13.8736 12.1707 13.8707L10.6061 16.4904C10.5556 16.5749 10.5222 16.6686 10.5079 16.7661C10.4936 16.8635 10.4987 16.9628 10.5227 17.0583C10.5468 17.1538 10.5895 17.2437 10.6483 17.3227C10.707 17.4017 10.7808 17.4684 10.8654 17.5189C10.9499 17.5694 11.0436 17.6028 11.1411 17.6171C11.2385 17.6314 11.3378 17.6263 11.4333 17.6023C11.5288 17.5782 11.6187 17.5355 11.6977 17.4767C11.7767 17.4179 11.8434 17.3442 11.8939 17.2596L14.9172 12.1976C14.9263 12.1824 14.9339 12.1668 14.9418 12.1513C15.2262 11.6475 15.3755 11.0786 15.375 10.5Z" fill="#1D1F21" style="fill: var(--ui-icon-primary-color);"/>
</svg>
