<svg  viewBox="0 0 24 24" fill="none" xmlns="http://www.w3.org/2000/svg" id="__THIS_ID_NEEDS_FOR_UI_ICON_COMPONENT__">
<path d="M12 2.25C10.0716 2.25 8.18658 2.82183 6.5832 3.89317C4.97982 4.96451 3.73014 6.48726 2.99219 8.26884C2.25423 10.0504 2.06115 12.0108 2.43736 13.9021C2.81356 15.7934 3.74216 17.5307 5.10572 18.8943C6.46928 20.2579 8.20657 21.1865 10.0979 21.5627C11.9892 21.9389 13.9496 21.7458 15.7312 21.0078C17.5128 20.2699 19.0355 19.0202 20.1068 17.4168C21.1782 15.8134 21.75 13.9284 21.75 12C21.7471 9.41504 20.7189 6.93679 18.8911 5.10894C17.0632 3.28109 14.585 2.25293 12 2.25ZM14.9616 8.11221L11.9616 17.1122C11.9305 17.2057 11.8813 17.2922 11.8167 17.3667C11.7522 17.4412 11.6736 17.5023 11.5855 17.5464C11.4974 17.5905 11.4014 17.6168 11.3031 17.6239C11.2048 17.6309 11.1061 17.6184 11.0126 17.5873C10.9191 17.5561 10.8326 17.5068 10.7582 17.4422C10.6837 17.3776 10.6228 17.299 10.5787 17.2108C10.5347 17.1226 10.5085 17.0266 10.5016 16.9283C10.4947 16.83 10.5072 16.7313 10.5385 16.6378L13.2094 8.625H9.75001C9.5511 8.625 9.36033 8.54598 9.21968 8.40533C9.07903 8.26468 9.00001 8.07391 9.00001 7.875C9.00001 7.67609 9.07903 7.48532 9.21968 7.34467C9.36033 7.20402 9.5511 7.125 9.75001 7.125H14.25C14.3689 7.125 14.486 7.15324 14.5918 7.20739C14.6976 7.26154 14.789 7.34006 14.8585 7.43647C14.928 7.53289 14.9736 7.64443 14.9915 7.76192C15.0094 7.8794 14.9991 7.99947 14.9616 8.11221Z" fill="#1D1F21" style="fill: var(--ui-icon-primary-color);"/>
</svg>
