<svg  viewBox="0 0 24 24" fill="none" xmlns="http://www.w3.org/2000/svg" id="__THIS_ID_NEEDS_FOR_UI_ICON_COMPONENT__">
<path d="M12 2.25C10.0716 2.25 8.18658 2.82183 6.5832 3.89317C4.97982 4.96451 3.73014 6.48726 2.99219 8.26884C2.25423 10.0504 2.06115 12.0108 2.43736 13.9021C2.81356 15.7934 3.74216 17.5307 5.10572 18.8943C6.46928 20.2579 8.20657 21.1865 10.0979 21.5627C11.9892 21.9389 13.9496 21.7458 15.7312 21.0078C17.5128 20.2699 19.0355 19.0202 20.1068 17.4168C21.1782 15.8134 21.75 13.9284 21.75 12C21.7471 9.41504 20.7189 6.93679 18.8911 5.10894C17.0632 3.28109 14.585 2.25293 12 2.25ZM13.125 16.5C13.125 16.6989 13.046 16.8897 12.9053 17.0303C12.7647 17.171 12.5739 17.25 12.375 17.25C12.1761 17.25 11.9853 17.171 11.8447 17.0303C11.704 16.8897 11.625 16.6989 11.625 16.5V9.27603L10.5409 9.99847C10.459 10.0532 10.367 10.0913 10.2703 10.1105C10.1737 10.1297 10.0741 10.1297 9.97747 10.1104C9.88081 10.0911 9.78889 10.053 9.70698 9.99812C9.62507 9.94328 9.55477 9.87284 9.50011 9.79081C9.44544 9.70878 9.40748 9.61678 9.3884 9.52008C9.36932 9.42337 9.36949 9.32385 9.3889 9.22721C9.40831 9.13056 9.44658 9.03869 9.50152 8.95685C9.55646 8.87501 9.627 8.8048 9.70909 8.75024L11.9591 7.25089C12.0721 7.17562 12.2033 7.13242 12.3389 7.12589C12.4745 7.11936 12.6093 7.14975 12.7289 7.2138C12.8486 7.27786 12.9487 7.37319 13.0184 7.48964C13.0882 7.60608 13.125 7.73927 13.125 7.875V16.5Z" fill="#1D1F21" style="fill: var(--ui-icon-primary-color);"/>
</svg>
