<svg  viewBox="0 0 24 24" fill="none" xmlns="http://www.w3.org/2000/svg" id="__THIS_ID_NEEDS_FOR_UI_ICON_COMPONENT__">
<path d="M12 2.25C10.0716 2.25 8.18653 2.82183 6.58315 3.89317C4.97977 4.96451 3.73009 6.48726 2.99213 8.26884C2.25418 10.0504 2.0611 12.0108 2.4373 13.9021C2.81351 15.7934 3.74211 17.5307 5.10567 18.8943C6.46923 20.2579 8.20651 21.1865 10.0978 21.5627C11.9891 21.9389 13.9495 21.7458 15.7311 21.0078C17.5127 20.2699 19.0354 19.0202 20.1068 17.4168C21.1781 15.8134 21.75 13.9284 21.75 12C21.747 9.41506 20.7188 6.93684 18.8909 5.10901C17.0631 3.28118 14.5849 2.25299 12 2.25ZM14.2529 16.3169C13.9568 16.6128 13.6054 16.8474 13.2187 17.0074C12.8319 17.1675 12.4175 17.2498 11.9989 17.2497C11.5804 17.2495 11.166 17.167 10.7793 17.0067C10.3927 16.8464 10.0414 16.6115 9.74556 16.3154C9.44971 16.0194 9.21505 15.668 9.05501 15.2812C8.89497 14.8945 8.81266 14.48 8.8128 14.0615C8.81293 13.6429 8.89551 13.2285 9.0558 12.8419C9.2161 12.4552 9.45098 12.104 9.74703 11.8081C9.83894 11.7235 9.93622 11.645 10.0383 11.573C10.0297 11.5646 10.0192 11.5588 10.0107 11.5503C9.74957 11.2891 9.54247 10.979 9.40121 10.6378C9.25996 10.2965 9.18732 9.93079 9.18746 9.56146C9.18759 9.19213 9.2605 8.82645 9.402 8.4853C9.54351 8.14416 9.75085 7.83423 10.0122 7.57324C11.0712 6.5127 12.9272 6.51123 13.9892 7.57471C14.2503 7.83589 14.4575 8.14597 14.5987 8.48722C14.74 8.82847 14.8126 9.19421 14.8125 9.56354C14.8123 9.93287 14.7394 10.2986 14.5979 10.6397C14.4564 10.9808 14.2491 11.2908 13.9878 11.5518C13.9797 11.5598 13.9698 11.5652 13.9617 11.5732C14.0643 11.6455 14.162 11.7245 14.2544 11.8096C14.5503 12.1056 14.785 12.457 14.9452 12.8437C15.1053 13.2305 15.1876 13.645 15.1875 14.0635C15.1873 14.4821 15.1047 14.8966 14.9444 15.2832C14.784 15.6698 14.549 16.0211 14.2529 16.3169ZM11.0712 10.4897C10.8878 10.3061 10.763 10.0721 10.7125 9.81745C10.662 9.5628 10.6882 9.2989 10.7877 9.05914C10.8873 8.81937 11.0556 8.6145 11.2716 8.47044C11.4876 8.32638 11.7414 8.2496 12.001 8.2498C12.2606 8.25001 12.5143 8.32719 12.73 8.47159C12.9458 8.616 13.1138 8.82113 13.213 9.06105C13.3121 9.30097 13.3379 9.56491 13.287 9.81948C13.2362 10.074 13.1109 10.3078 12.9272 10.4912C12.6772 10.73 12.3447 10.8632 11.9989 10.8629C11.6532 10.8626 11.3209 10.729 11.0712 10.4897ZM13.1938 12.8701C13.3504 13.0269 13.4747 13.2129 13.5594 13.4177C13.6441 13.6225 13.6876 13.8419 13.6875 14.0635C13.6873 14.2851 13.6435 14.5045 13.5586 14.7092C13.4736 14.9139 13.3492 15.0998 13.1923 15.2563C12.8707 15.5629 12.4433 15.7338 11.9989 15.7335C11.5546 15.7332 11.1274 15.5618 10.8061 15.2549C10.6495 15.0981 10.5254 14.912 10.4407 14.7073C10.356 14.5025 10.3125 14.283 10.3126 14.0615C10.3128 13.8399 10.3566 13.6205 10.4415 13.4158C10.5264 13.2112 10.6508 13.0252 10.8076 12.8687C10.9644 12.7121 11.1504 12.5879 11.3552 12.5032C11.56 12.4186 11.7794 12.375 12.001 12.3752C12.2226 12.3753 12.442 12.4191 12.6466 12.504C12.8513 12.5889 13.0372 12.7133 13.1938 12.8701Z" fill="#1D1F21" style="fill: var(--ui-icon-primary-color);"/>
</svg>
