<svg  viewBox="0 0 24 24" fill="none" xmlns="http://www.w3.org/2000/svg" id="__THIS_ID_NEEDS_FOR_UI_ICON_COMPONENT__">
<path d="M11.0713 10.4897C10.8878 10.3061 10.763 10.0721 10.7125 9.81745C10.6621 9.5628 10.6883 9.2989 10.7878 9.05914C10.8873 8.81937 11.0557 8.6145 11.2716 8.47044C11.4876 8.32638 11.7414 8.2496 12.001 8.2498C12.2606 8.25001 12.5143 8.32719 12.7301 8.47159C12.9458 8.616 13.1139 8.82113 13.213 9.06105C13.3122 9.30097 13.3379 9.56491 13.2871 9.81948C13.2362 10.074 13.111 10.3078 12.9272 10.4912C12.6772 10.73 12.3447 10.8632 11.999 10.8629C11.6532 10.8626 11.3209 10.729 11.0713 10.4897ZM12 12.375C11.6663 12.375 11.3401 12.4739 11.0627 12.6592C10.7852 12.8445 10.5689 13.1079 10.4411 13.4162C10.3133 13.7244 10.2798 14.0636 10.3448 14.3909C10.4098 14.7182 10.5703 15.0188 10.8062 15.2549C11.1274 15.5618 11.5546 15.7332 11.999 15.7335C12.4433 15.7338 12.8707 15.5629 13.1924 15.2563C13.4285 15.0204 13.5894 14.7198 13.6547 14.3924C13.7199 14.065 13.6866 13.7257 13.559 13.4172C13.4314 13.1088 13.2151 12.8451 12.9376 12.6596C12.6601 12.4741 12.3338 12.3751 12 12.375ZM21 4.5V19.5C20.9995 19.8977 20.8413 20.2789 20.5601 20.5601C20.2789 20.8413 19.8977 20.9995 19.5 21H4.5C4.10233 20.9995 3.7211 20.8413 3.43991 20.5601C3.15872 20.2789 3.00052 19.8977 3 19.5V4.5C3.00052 4.10233 3.15872 3.7211 3.43991 3.43991C3.7211 3.15872 4.10233 3.00052 4.5 3H19.5C19.8977 3.00052 20.2789 3.15872 20.5601 3.43991C20.8413 3.7211 20.9995 4.10233 21 4.5ZM15.1875 14.0625C15.1889 13.6439 15.1071 13.2292 14.9469 12.8424C14.7867 12.4557 14.5513 12.1046 14.2544 11.8096C14.1621 11.7245 14.0643 11.6455 13.9617 11.5732C13.9698 11.5652 13.9797 11.5598 13.9878 11.5518C14.2491 11.2908 14.4564 10.9808 14.598 10.6397C14.7395 10.2986 14.8124 9.93287 14.8125 9.56354C14.8126 9.19421 14.74 8.82847 14.5987 8.48722C14.4575 8.14597 14.2504 7.83589 13.9893 7.57471C12.9272 6.51123 11.0713 6.5127 10.0122 7.57324C9.75089 7.83423 9.54355 8.14416 9.40205 8.4853C9.26054 8.82645 9.18764 9.19213 9.1875 9.56146C9.18736 9.93079 9.26 10.2965 9.40125 10.6378C9.54251 10.979 9.74962 11.2891 10.0107 11.5503C10.0193 11.5588 10.0297 11.5646 10.0383 11.573C9.93626 11.645 9.83898 11.7235 9.74707 11.8081C9.37638 12.1787 9.10281 12.6349 8.95057 13.1365C8.79834 13.638 8.77215 14.1694 8.87432 14.6835C8.9765 15.1975 9.20388 15.6785 9.53633 16.0837C9.86878 16.4889 10.296 16.8059 10.7803 17.0065C11.2645 17.2072 11.7907 17.2853 12.3123 17.234C12.8339 17.1827 13.3349 17.0035 13.7707 16.7124C14.2065 16.4213 14.5639 16.0271 14.811 15.5649C15.0581 15.1027 15.1874 14.5866 15.1875 14.0625Z" fill="#1D1F21" style="fill: var(--ui-icon-primary-color);"/>
</svg>
