<svg  viewBox="0 0 24 24" fill="none" xmlns="http://www.w3.org/2000/svg" id="__THIS_ID_NEEDS_FOR_UI_ICON_COMPONENT__">
<path d="M12 2.25C11.1342 2.24989 10.2787 2.43714 9.49218 2.79889C8.70563 3.16063 8.00668 3.68831 7.44332 4.34569C6.87996 5.00307 6.46554 5.77458 6.22851 6.60724C5.99147 7.43991 5.93744 8.31401 6.07012 9.16953C6.2028 10.0251 6.51905 10.8417 6.99715 11.5635C7.47526 12.2852 8.1039 12.895 8.83991 13.3508C9.57592 13.8067 10.4019 14.0979 11.261 14.2044C12.1202 14.3109 12.9922 14.2303 13.8173 13.9679L9.83331 20.6144C9.78255 20.6989 9.74894 20.7926 9.7344 20.89C9.71986 20.9875 9.72468 21.0869 9.74857 21.1825C9.77246 21.2781 9.81497 21.3681 9.87365 21.4472C9.93234 21.5264 10.0061 21.5933 10.0906 21.6439C10.1751 21.6946 10.2688 21.7281 10.3663 21.7425C10.4638 21.757 10.5632 21.7521 10.6587 21.7281C10.7543 21.7041 10.8442 21.6615 10.9234 21.6027C11.0025 21.5439 11.0692 21.4702 11.1198 21.3856L17.127 11.3637C17.1297 11.3592 17.1323 11.3548 17.135 11.3503L17.1891 11.2601C17.1989 11.2438 17.2073 11.2269 17.2157 11.2101C17.7347 10.2979 18.0051 9.26532 17.9999 8.21576C17.9947 7.1662 17.7141 6.13639 17.186 5.2293C16.658 4.32222 15.9011 3.56963 14.991 3.0468C14.081 2.52397 13.0496 2.24922 12 2.25ZM15.8607 10.5588L15.8394 10.5945C15.2129 11.6286 14.2018 12.3719 13.0279 12.6615C11.8541 12.9511 10.6133 12.7632 9.57773 12.1391C8.54221 11.515 7.79652 10.5056 7.50428 9.33238C7.21204 8.15917 7.3971 6.91793 8.01886 5.88099C8.64062 4.84405 9.64831 4.09607 10.8209 3.80116C11.9934 3.50625 13.2351 3.68849 14.2734 4.30789C15.3118 4.92729 16.062 5.93328 16.3596 7.10515C16.6572 8.27703 16.4778 9.51909 15.8607 10.5588Z" fill="#1D1F21" style="fill: var(--ui-icon-primary-color);"/>
</svg>
