<svg  viewBox="0 0 24 24" fill="none" xmlns="http://www.w3.org/2000/svg" id="__THIS_ID_NEEDS_FOR_UI_ICON_COMPONENT__">
<path d="M15.485 11.5064C16.6056 12.6365 17.2324 14.1649 17.2278 15.7564C17.2232 17.3479 16.5877 18.8726 15.4605 19.9962C14.3334 21.1197 12.8067 21.7505 11.2152 21.75C9.62365 21.7496 8.09728 21.118 6.97077 19.9938C6.90096 19.9243 6.84553 19.8417 6.80763 19.7508C6.76973 19.6599 6.75011 19.5624 6.7499 19.4639C6.74968 19.3654 6.76886 19.2679 6.80636 19.1768C6.84385 19.0857 6.89892 19.0029 6.96842 18.9331C7.03792 18.8633 7.12049 18.8079 7.21141 18.77C7.30233 18.7321 7.39982 18.7125 7.49832 18.7123C7.59681 18.7121 7.69439 18.7313 7.78546 18.7688C7.87654 18.8063 7.95933 18.8614 8.02912 18.9309C8.65831 19.5605 9.46011 19.9894 10.3331 20.1633C11.2061 20.3372 12.111 20.2483 12.9334 19.9078C13.7559 19.5673 14.4589 18.9905 14.9535 18.2505C15.448 17.5104 15.712 16.6403 15.712 15.7501C15.712 14.86 15.448 13.9899 14.9535 13.2498C14.4589 12.5097 13.7559 11.933 12.9334 11.5925C12.111 11.252 11.2061 11.1631 10.3331 11.3369C9.46011 11.5108 8.65831 11.9397 8.02912 12.5694C7.91681 12.6812 7.77194 12.7546 7.61532 12.779C7.4587 12.8034 7.29837 12.7775 7.15736 12.7051C7.01635 12.6327 6.90191 12.5175 6.83045 12.376C6.759 12.2345 6.73421 12.0741 6.75965 11.9176L8.2287 2.8797C8.25728 2.70395 8.34744 2.5441 8.48307 2.42873C8.6187 2.31337 8.79094 2.25001 8.969 2.25H16.4999C16.6989 2.25 16.8896 2.32902 17.0303 2.46967C17.1709 2.61032 17.2499 2.80109 17.2499 3C17.2499 3.19891 17.1709 3.38968 17.0303 3.53033C16.8896 3.67098 16.6989 3.75 16.4999 3.75H9.60694L8.52872 10.3833C9.66025 9.82051 10.9396 9.62618 12.1872 9.82762C13.4349 10.0291 14.5881 10.6161 15.485 11.5064L15.485 11.5064Z" fill="#1D1F21" style="fill: var(--ui-icon-primary-color);"/>
</svg>
