<svg  viewBox="0 0 24 24" fill="none" xmlns="http://www.w3.org/2000/svg" id="__THIS_ID_NEEDS_FOR_UI_ICON_COMPONENT__">
<path d="M16.4909 12.1875C16.0344 11.7594 15.5175 11.4007 14.9568 11.1229C15.2878 10.9234 15.5969 10.6896 15.8789 10.4254C16.3929 9.9544 16.8032 9.38164 17.084 8.74354C17.3647 8.10543 17.5097 7.41591 17.5097 6.71878C17.5097 6.02165 17.3647 5.33213 17.084 4.69402C16.8032 4.05592 16.3929 3.48316 15.8789 3.01213C14.8212 2.03968 13.4368 1.5 12 1.5C10.5632 1.5 9.17883 2.03968 8.12112 3.01213C7.60719 3.48316 7.19683 4.05592 6.91609 4.69402C6.63536 5.33213 6.49038 6.02165 6.49038 6.71878C6.49038 7.41591 6.63536 8.10543 6.91609 8.74354C7.19683 9.38164 7.60719 9.9544 8.12112 10.4254C8.4032 10.6896 8.7123 10.9234 9.04331 11.1229C8.48253 11.4007 7.96563 11.7594 7.50918 12.1876C6.91541 12.7315 6.44127 13.393 6.1169 14.1301C5.79254 14.8671 5.62503 15.6635 5.62503 16.4688C5.62503 17.274 5.79254 18.0705 6.1169 18.8075C6.44127 19.5445 6.91541 20.206 7.50918 20.75C8.73395 21.8754 10.3367 22.5 12 22.5C13.6634 22.5 15.2661 21.8754 16.4909 20.7499C17.0846 20.206 17.5588 19.5445 17.8832 18.8075C18.2075 18.0704 18.375 17.274 18.375 16.4687C18.375 15.6635 18.2075 14.867 17.8832 14.13C17.5588 13.393 17.0846 12.7315 16.4909 12.1875V12.1875ZM9.14779 9.33184C8.78329 9.00109 8.49202 8.59774 8.29269 8.14771C8.09336 7.69769 7.99038 7.21093 7.99038 6.71874C7.99038 6.22654 8.09336 5.73979 8.29269 5.28976C8.49202 4.83974 8.78329 4.43639 9.14779 4.10564C9.92741 3.39434 10.9447 3 12 3C13.0554 3 14.0726 3.39434 14.8523 4.10564C15.2168 4.43639 15.508 4.83974 15.7074 5.28976C15.9067 5.73979 16.0097 6.22654 16.0097 6.71874C16.0097 7.21093 15.9067 7.69769 15.7074 8.14771C15.508 8.59774 15.2168 9.00109 14.8523 9.33184C14.0727 10.0432 13.0554 10.4375 12 10.4375C10.9447 10.4375 9.9274 10.0432 9.14779 9.33184ZM15.4642 19.6564C14.5175 20.5207 13.2819 21 12 21C10.7181 21 9.48252 20.5208 8.53586 19.6564C8.09151 19.2528 7.73646 18.7607 7.4935 18.2117C7.25054 17.6628 7.12503 17.0691 7.12503 16.4688C7.12503 15.8685 7.25054 15.2748 7.4935 14.7258C7.73646 14.1769 8.09151 13.6848 8.53586 13.2811C9.48251 12.4168 10.7181 11.9375 12 11.9375C13.2819 11.9375 14.5175 12.4167 15.4642 13.2811C15.9085 13.6847 16.2636 14.1768 16.5066 14.7258C16.7495 15.2747 16.875 15.8684 16.875 16.4687C16.875 17.0691 16.7495 17.6627 16.5066 18.2117C16.2636 18.7606 15.9085 19.2527 15.4642 19.6564Z" fill="#1D1F21" style="fill: var(--ui-icon-primary-color);"/>
</svg>
