<svg  viewBox="0 0 24 24" fill="none" xmlns="http://www.w3.org/2000/svg" id="__THIS_ID_NEEDS_FOR_UI_ICON_COMPONENT__">
<path d="M20.613 6.25586L12.738 1.8048C12.5125 1.67827 12.2584 1.61182 11.9999 1.61182C11.7414 1.61182 11.4872 1.67827 11.2618 1.8048L3.38677 6.25586C3.15569 6.38675 2.96343 6.57656 2.82959 6.80595C2.69575 7.03533 2.62511 7.2961 2.62486 7.56168V16.4365C2.62511 16.7021 2.69575 16.9629 2.82959 17.1922C2.96343 17.4216 3.15569 17.6114 3.38677 17.7423L11.2618 22.1934C11.4872 22.32 11.7414 22.3864 11.9999 22.3864C12.2584 22.3864 12.5126 22.32 12.738 22.1934L20.613 17.7423C20.844 17.6114 21.0363 17.4216 21.1701 17.1922C21.304 16.9629 21.3746 16.7021 21.3749 16.4365V7.56168C21.3746 7.2961 21.304 7.03534 21.1701 6.80595C21.0363 6.57656 20.844 6.38675 20.613 6.25586ZM11.9999 15.3741C11.3324 15.3741 10.6798 15.1762 10.1248 14.8053C9.5698 14.4345 9.13722 13.9074 8.88177 13.2907C8.62633 12.674 8.55949 11.9954 8.68971 11.3407C8.81994 10.686 9.14138 10.0846 9.61338 9.61262C10.0854 9.14061 10.6867 8.81918 11.3414 8.68895C11.9961 8.55872 12.6747 8.62556 13.2914 8.88101C13.9081 9.13645 14.4352 9.56904 14.8061 10.1241C15.1769 10.6791 15.3749 11.3316 15.3749 11.9991C15.3739 12.8939 15.018 13.7518 14.3852 14.3845C13.7525 15.0172 12.8947 15.3731 11.9999 15.3741Z" fill="#1D1F21" style="fill: var(--ui-icon-primary-color);"/>
</svg>
