<svg  viewBox="0 0 24 24" fill="none" xmlns="http://www.w3.org/2000/svg" id="__THIS_ID_NEEDS_FOR_UI_ICON_COMPONENT__">
<g clip-path="url(#clip0)">
<path d="M24 18.3746C24 19.0708 23.7235 19.7385 23.2312 20.2308C22.7389 20.723 22.0712 20.9996 21.375 20.9996C20.6788 20.9996 20.0111 20.723 19.5189 20.2308C19.0266 19.7385 18.75 19.0708 18.75 18.3746C18.75 16.2144 20.759 14.1799 20.8446 14.0943C20.9143 14.0247 20.997 13.9694 21.088 13.9317C21.179 13.894 21.2765 13.8746 21.375 13.8746C21.4735 13.8746 21.5711 13.894 21.6621 13.9317C21.7531 13.9694 21.8357 14.0247 21.9054 14.0943C21.991 14.1799 24 16.2144 24 18.3746ZM5.20451 3.01901C5.06386 2.87835 4.8731 2.79933 4.67418 2.79932C4.47526 2.79931 4.28449 2.87832 4.14383 3.01897C4.00317 3.15962 3.92414 3.35039 3.92413 3.5493C3.92412 3.74822 4.00313 3.93899 4.14378 4.07966L6.43903 6.37491L7.49969 5.3142L5.20451 3.01901ZM20.6894 11.6246C20.6899 11.4275 20.6514 11.2323 20.5759 11.0503C20.5005 10.8682 20.3897 10.7029 20.25 10.564L12.3107 2.62451C12.0291 2.3437 11.6476 2.18602 11.2499 2.18604C10.8523 2.18605 10.4708 2.34377 10.1893 2.62461L7.49969 5.3142L11.6129 9.42744C11.9333 9.34075 12.2734 9.36231 12.5802 9.48876C12.8871 9.61522 13.1436 9.83949 13.31 10.1267C13.4763 10.414 13.5431 10.7481 13.4999 11.0772C13.4568 11.4063 13.3062 11.7119 13.0715 11.9466C12.8368 12.1813 12.5312 12.332 12.2021 12.3751C11.873 12.4182 11.5389 12.3514 11.2516 12.1851C10.9644 12.0189 10.7401 11.7623 10.6136 11.4555C10.4872 11.1486 10.4656 10.8085 10.5523 10.4881L6.43903 6.37491L1.50011 11.3139C1.36079 11.4532 1.25028 11.6185 1.17488 11.8005C1.09948 11.9825 1.06066 12.1776 1.06065 12.3745C1.06064 12.5715 1.09944 12.7666 1.17483 12.9486C1.25021 13.1306 1.36071 13.296 1.50001 13.4352L9.43928 21.3746L9.43938 21.3747C9.72096 21.6555 10.1024 21.8132 10.5001 21.8132C10.8978 21.8132 11.2792 21.6555 11.5607 21.3746L20.2499 12.6853C20.3897 12.5464 20.5005 12.3811 20.5759 12.199C20.6513 12.0169 20.6899 11.8217 20.6894 11.6246Z" fill="#1D1F21" style="fill: var(--ui-icon-primary-color);"/>
</g>
<defs>
<clipPath id="clip0">
<rect  fill="white" style="fill: var(--ui-icon-secondary-color);"/>
</clipPath>
</defs>
</svg>
