<svg  viewBox="0 0 24 24" fill="none" xmlns="http://www.w3.org/2000/svg" id="__THIS_ID_NEEDS_FOR_UI_ICON_COMPONENT__">
<path d="M22.0026 20.5892C21.8631 20.756 21.6889 20.8902 21.492 20.9824C21.2951 21.0746 21.0803 21.1225 20.8629 21.1227C20.6889 21.1225 20.5162 21.0924 20.3524 21.0336L12.7389 18.3144V11.2502C12.7389 11.0513 12.6599 10.8605 12.5192 10.7198C12.3786 10.5792 12.1878 10.5002 11.9889 10.5002C11.79 10.5002 11.5992 10.5792 11.4586 10.7198C11.3179 10.8605 11.2389 11.0513 11.2389 11.2502V18.3144L3.62538 21.0336C3.33779 21.1363 3.0257 21.1487 2.73083 21.0693C2.43596 20.9899 2.17235 20.8224 1.97523 20.5892C1.77811 20.3559 1.65687 20.0681 1.62772 19.7641C1.59856 19.4601 1.66288 19.1545 1.81208 18.888L10.6801 3.05228C10.8104 2.81962 11.0003 2.6259 11.2304 2.49107C11.4604 2.35623 11.7222 2.28516 11.9889 2.28516C12.2556 2.28516 12.5174 2.35623 12.7474 2.49107C12.9775 2.6259 13.1674 2.81962 13.2977 3.05228L22.1657 18.8881C22.3166 19.154 22.3819 19.46 22.3527 19.7644C22.3235 20.0687 22.2013 20.3567 22.0026 20.5892Z" fill="#1D1F21" style="fill: var(--ui-icon-primary-color);"/>
</svg>
