<svg  viewBox="0 0 24 24" fill="none" xmlns="http://www.w3.org/2000/svg" id="__THIS_ID_NEEDS_FOR_UI_ICON_COMPONENT__">
<path d="M21.7149 11.9994C21.7148 12.266 21.6437 12.5278 21.5088 12.7578C21.374 12.9878 21.1804 13.1778 20.9478 13.3082L5.1122 22.1762C4.84621 22.3271 4.54022 22.3923 4.23583 22.3631C3.93145 22.3339 3.64343 22.2117 3.41097 22.0131C3.17631 21.817 3.00776 21.5534 2.92824 21.2581C2.84873 20.9629 2.86211 20.6503 2.96657 20.3629L5.68569 12.7494H12.75C12.9489 12.7494 13.1397 12.6704 13.2803 12.5297C13.421 12.3891 13.5 12.1983 13.5 11.9994C13.5 11.8005 13.421 11.6097 13.2803 11.4691C13.1397 11.3284 12.9489 11.2494 12.75 11.2494H5.68569L2.96657 3.63586C2.86387 3.34827 2.85139 3.03618 2.9308 2.74131C3.01021 2.44644 3.17773 2.18283 3.41097 1.98571C3.64421 1.78859 3.93205 1.66735 4.23603 1.6382C4.54002 1.60905 4.84566 1.67337 5.11211 1.82257L20.9479 10.6905C21.1804 10.821 21.3741 11.0109 21.5089 11.241C21.6437 11.471 21.7148 11.7328 21.7149 11.9994Z" fill="#1D1F21" style="fill: var(--ui-icon-primary-color);"/>
</svg>
