<svg  viewBox="0 0 24 24" fill="none" xmlns="http://www.w3.org/2000/svg" id="__THIS_ID_NEEDS_FOR_UI_ICON_COMPONENT__">
<path d="M19.6551 11.4702C19.7956 11.6109 19.8745 11.8018 19.8744 12.0007C19.8743 12.1996 19.7951 12.3903 19.6544 12.5308L11.9619 20.2133C11.4744 20.7008 10.8956 21.0875 10.2586 21.3513C9.62165 21.6151 8.93895 21.7508 8.24951 21.7508C6.85712 21.7507 5.52179 21.1975 4.53728 20.2129C3.55276 19.2283 2.99971 17.8929 2.99978 16.5005C2.99985 15.1081 3.55305 13.7728 4.53766 12.7883L13.8441 3.35232C14.192 3.0034 14.6052 2.72646 15.0601 2.53732C15.5151 2.34818 16.0029 2.25054 16.4956 2.25C16.9883 2.24946 17.4762 2.34602 17.9316 2.53416C18.387 2.7223 18.8008 2.99833 19.1495 3.34648C19.4981 3.69463 19.7747 4.10808 19.9635 4.56318C20.1523 5.01829 20.2495 5.50613 20.2496 5.99884C20.2498 6.49154 20.1528 6.97944 19.9643 7.43466C19.7758 7.88988 19.4995 8.30349 19.151 8.65185L9.84457 18.0879C9.63593 18.2973 9.38808 18.4635 9.11517 18.5771C8.84227 18.6907 8.54966 18.7494 8.25406 18.7498C7.95847 18.7502 7.66568 18.6924 7.39244 18.5797C7.1192 18.4669 6.87086 18.3014 6.6616 18.0926C6.45234 17.8839 6.28627 17.6359 6.17289 17.3629C6.0595 17.0899 6.00101 16.7973 6.00077 16.5017C6.00053 16.2061 6.05853 15.9133 6.17147 15.6402C6.28441 15.367 6.45007 15.1188 6.65899 14.9097L14.4647 6.97423C14.6042 6.83243 14.7943 6.75185 14.9932 6.75022C15.1922 6.74859 15.3836 6.82604 15.5254 6.96554C15.6672 7.10503 15.7477 7.29515 15.7494 7.49405C15.751 7.69296 15.6736 7.88437 15.5341 8.02617L7.72397 15.966C7.65348 16.0352 7.59736 16.1177 7.55884 16.2087C7.52032 16.2997 7.50015 16.3974 7.4995 16.4962C7.49885 16.595 7.51772 16.6929 7.55504 16.7844C7.59236 16.8759 7.64739 16.9591 7.71696 17.0292C7.78653 17.0994 7.86928 17.1551 7.96045 17.1932C8.05162 17.2312 8.14941 17.2509 8.24822 17.2511C8.34702 17.2513 8.44488 17.2319 8.53617 17.1941C8.62747 17.1564 8.71041 17.1009 8.78022 17.031L18.0867 7.59487C18.2963 7.38627 18.4627 7.1384 18.5764 6.86545C18.6901 6.59249 18.7489 6.2998 18.7494 6.00411C18.7499 5.70842 18.6922 5.41553 18.5794 5.14218C18.4666 4.86884 18.3011 4.6204 18.0922 4.41107C17.8834 4.20175 17.6353 4.03564 17.3622 3.92225C17.0892 3.80886 16.7964 3.75042 16.5007 3.75025C16.205 3.75008 15.9122 3.80821 15.639 3.92129C15.3658 4.03437 15.1175 4.2002 14.9084 4.40929L5.60196 13.8453C5.25304 14.1931 4.9761 14.6064 4.78695 15.0613C4.59781 15.5163 4.50018 16.0041 4.49963 16.4968C4.49909 16.9895 4.59565 17.4775 4.7838 17.9329C4.97194 18.3882 5.24798 18.8021 5.59613 19.1507C5.94429 19.4994 6.35774 19.776 6.81285 19.9648C7.26797 20.1535 7.75582 20.2508 8.24853 20.2509C8.74124 20.2511 9.22916 20.1541 9.68438 19.9656C10.1396 19.7771 10.5532 19.5007 10.9016 19.1523L18.5944 11.4696C18.6641 11.3999 18.7468 11.3447 18.8378 11.3071C18.9288 11.2694 19.0264 11.2501 19.1249 11.2502C19.2234 11.2502 19.3209 11.2697 19.4119 11.3074C19.5028 11.3452 19.5855 11.4005 19.6551 11.4702Z" fill="#1D1F21" style="fill: var(--ui-icon-primary-color);"/>
</svg>
