<svg  viewBox="0 0 24 24" fill="none" xmlns="http://www.w3.org/2000/svg" id="__THIS_ID_NEEDS_FOR_UI_ICON_COMPONENT__">
<path d="M11.9895 7.5C11.3219 7.5 10.6694 7.30206 10.1144 6.93121C9.5594 6.56036 9.12681 6.03326 8.87137 5.41656C8.61592 4.79986 8.54908 4.12126 8.67931 3.46657C8.80954 2.81189 9.13097 2.21052 9.60297 1.73852C10.075 1.26651 10.6763 0.945076 11.331 0.814851C11.9857 0.684626 12.6643 0.751462 13.281 1.00691C13.8977 1.26235 14.4248 1.69494 14.7957 2.24995C15.1665 2.80497 15.3645 3.45749 15.3645 4.125C15.3635 5.0198 15.0075 5.87766 14.3748 6.51037C13.7421 7.14309 12.8843 7.49899 11.9895 7.5ZM19.8445 13.0794L16.1573 8.33872C16.1382 8.31417 16.1177 8.29084 16.0957 8.26886C15.8525 8.02434 15.5632 7.83048 15.2446 7.69851C14.926 7.56653 14.5843 7.49906 14.2395 7.5H9.73946C9.39459 7.49906 9.05296 7.56653 8.73433 7.69851C8.41571 7.83048 8.12643 8.02434 7.88323 8.26886C7.86125 8.29084 7.84067 8.31417 7.82161 8.33872L4.13433 13.0795C3.79894 13.4342 3.61514 13.9058 3.622 14.3939C3.62885 14.8821 3.82581 15.3483 4.17102 15.6935C4.51623 16.0387 4.98246 16.2356 5.47061 16.2425C5.95875 16.2493 6.43031 16.0655 6.78505 15.7301L8.10689 14.7019L6.24764 20.5744C6.05449 21.0224 6.0435 21.5279 6.21702 21.9838C6.39054 22.4397 6.7349 22.8101 7.17701 23.0162C7.61912 23.2224 8.12416 23.2481 8.58493 23.088C9.0457 22.9278 9.42593 22.5944 9.64489 22.1585L11.9895 18.4686L14.334 22.1585C14.553 22.5944 14.9332 22.9278 15.394 23.088C15.8548 23.2481 16.3598 23.2224 16.8019 23.0163C17.2441 22.8101 17.5884 22.4398 17.7619 21.9839C17.9354 21.5279 17.9245 21.0224 17.7313 20.5744L15.872 14.7019L17.1939 15.7301C17.5486 16.0655 18.0202 16.2493 18.5083 16.2425C18.9965 16.2357 19.4627 16.0387 19.8079 15.6935C20.1531 15.3483 20.3501 14.882 20.3569 14.3939C20.3638 13.9057 20.1799 13.4341 19.8445 13.0794H19.8445Z" fill="#1D1F21" style="fill: var(--ui-icon-primary-color);"/>
</svg>
