<svg  viewBox="0 0 24 24" fill="none" xmlns="http://www.w3.org/2000/svg" id="__THIS_ID_NEEDS_FOR_UI_ICON_COMPONENT__">
<path d="M20.6494 10.5133L13.4399 21.6553C13.3959 21.7233 13.3312 21.7752 13.2553 21.8033C13.1794 21.8314 13.0965 21.8342 13.0188 21.8113C12.9412 21.7883 12.8731 21.7409 12.8247 21.6761C12.7762 21.6113 12.7501 21.5325 12.7501 21.4516V14.1551C13.4571 13.9725 14.0732 13.5384 14.4831 12.934C14.8929 12.3297 15.0682 11.5966 14.9762 10.8722C14.8842 10.1478 14.5312 9.48189 13.9833 8.99918C13.4354 8.51647 12.7303 8.25016 12.0001 8.25016C11.2699 8.25016 10.5647 8.51647 10.0168 8.99918C9.46893 9.48189 9.11589 10.1478 9.02388 10.8722C8.93188 11.5966 9.10722 12.3297 9.51704 12.934C9.92687 13.5384 10.543 13.9725 11.2501 14.1551V21.4516C11.2501 21.5326 11.2239 21.6113 11.1754 21.6761C11.127 21.7409 11.0589 21.7884 10.9813 21.8113C10.9037 21.8342 10.8207 21.8314 10.7448 21.8033C10.6689 21.7752 10.6042 21.7233 10.5602 21.6553L3.3507 10.5133C3.26039 10.3738 3.21901 10.2081 3.23307 10.0425C3.24712 9.87685 3.31581 9.72057 3.42834 9.59821C5.08258 7.80258 6.00065 5.45026 6.00005 3.00878C5.99939 2.90969 6.01827 2.81144 6.05562 2.71965C6.09297 2.62787 6.14805 2.54435 6.21771 2.47387C6.28737 2.40339 6.37024 2.34734 6.46159 2.30893C6.55293 2.27052 6.65096 2.25049 6.75005 2.25H17.2501C17.3491 2.25049 17.4472 2.27052 17.5385 2.30893C17.6299 2.34734 17.7127 2.40339 17.7824 2.47387C17.8521 2.54435 17.9071 2.62787 17.9445 2.71966C17.9818 2.81144 18.0007 2.90969 18.0001 3.00878C17.9995 5.45023 18.9175 7.80252 20.5718 9.59811C20.6843 9.72048 20.753 9.87677 20.767 10.0424C20.7811 10.2081 20.7397 10.3737 20.6494 10.5133ZM13.5001 11.25C13.5001 10.9533 13.4121 10.6633 13.2473 10.4166C13.0824 10.17 12.8482 9.97771 12.5741 9.86418C12.3 9.75065 11.9984 9.72094 11.7074 9.77882C11.4164 9.8367 11.1492 9.97956 10.9394 10.1893C10.7296 10.3991 10.5868 10.6664 10.5289 10.9574C10.471 11.2483 10.5007 11.5499 10.6142 11.824C10.7278 12.0981 10.92 12.3324 11.1667 12.4972C11.4134 12.662 11.7034 12.75 12.0001 12.75C12.3977 12.7495 12.779 12.5914 13.0602 12.3102C13.3414 12.029 13.4996 11.6477 13.5001 11.25Z" fill="#1D1F21" style="fill: var(--ui-icon-primary-color);"/>
</svg>
