<svg  viewBox="0 0 24 24" fill="none" xmlns="http://www.w3.org/2000/svg" id="__THIS_ID_NEEDS_FOR_UI_ICON_COMPONENT__">
<path d="M20.9999 7.18829L16.8106 2.99893C16.6713 2.85964 16.506 2.74914 16.324 2.67376C16.142 2.59837 15.947 2.55957 15.75 2.55957C15.553 2.55957 15.3579 2.59837 15.1759 2.67376C14.994 2.74914 14.8286 2.85964 14.6893 2.99893L12.2198 5.46848L12.2196 5.46861L12.2195 5.46875L3.43935 14.2489C3.29961 14.3878 3.18882 14.5531 3.11339 14.7352C3.03797 14.9173 2.99941 15.1125 2.99994 15.3096V19.4989C3.0004 19.8966 3.15858 20.2779 3.43979 20.5591C3.72099 20.8403 4.10226 20.9985 4.49994 20.9989H8.68931C8.88637 20.9995 9.08158 20.9609 9.26364 20.8855C9.4457 20.8101 9.61099 20.6993 9.74994 20.5596L21 9.30957C21.2809 9.02804 21.4386 8.6466 21.4386 8.24892C21.4386 7.85125 21.2808 7.46981 20.9999 7.18829ZM17.9999 10.1883L13.8106 5.99893L15.7499 4.05957L19.9393 8.24893L17.9999 10.1883Z" fill="#1D1F21" style="fill: var(--ui-icon-primary-color);"/>
</svg>
