<svg  viewBox="0 0 24 24" fill="none" xmlns="http://www.w3.org/2000/svg" id="__THIS_ID_NEEDS_FOR_UI_ICON_COMPONENT__">
<path d="M20.25 19.4996H10.8107L18.5299 11.7803L18.5304 11.7799L18.5308 11.7795L20.9999 9.31034C21.1392 9.17106 21.2497 9.00571 21.3251 8.82372C21.4005 8.64173 21.4394 8.44667 21.4394 8.24967C21.4394 8.05268 21.4006 7.85762 21.3252 7.67562C21.2498 7.49362 21.1393 7.32826 21 7.18897L16.8106 2.99951C16.5291 2.7187 16.1476 2.56102 15.7499 2.56104C15.3523 2.56105 14.9708 2.71877 14.6893 2.99961L3.43927 14.2497C3.29361 14.3953 3.17961 14.5694 3.1044 14.7612C3.09668 14.7799 3.09018 14.799 3.08405 14.8182C3.02872 14.9763 3.00031 15.1427 3 15.3102V19.4996C3.00045 19.8973 3.15864 20.2786 3.43984 20.5598C3.72105 20.841 4.10231 20.9992 4.5 20.9996H20.25C20.4489 20.9996 20.6397 20.9206 20.7803 20.7799C20.921 20.6393 21 20.4485 21 20.2496C21 20.0507 20.921 19.8599 20.7803 19.7193C20.6397 19.5786 20.4489 19.4996 20.25 19.4996ZM15.75 4.06025L19.9393 8.24961L18 10.1889L13.8107 5.99961L15.75 4.06025Z" fill="#1D1F21" style="fill: var(--ui-icon-primary-color);"/>
</svg>
