<svg  viewBox="0 0 24 24" fill="none" xmlns="http://www.w3.org/2000/svg" id="__THIS_ID_NEEDS_FOR_UI_ICON_COMPONENT__">
<path d="M18.8943 5.10517C17.989 4.19939 16.9141 3.48082 15.7311 2.99051C14.5481 2.50019 13.28 2.24774 11.9994 2.24756C10.7188 2.24738 9.45069 2.49949 8.26753 2.98947C7.08436 3.47946 6.00931 4.19773 5.10378 5.10327C4.19825 6.0088 3.47997 7.08385 2.98999 8.26701C2.5 9.45018 2.24789 10.7183 2.24807 11.9989C2.24825 13.2795 2.5007 14.5476 2.99102 15.7306C3.48133 16.9136 4.1999 17.9885 5.10569 18.8937C6.01097 19.7995 7.08582 20.5181 8.26885 21.0084C9.45188 21.4987 10.7199 21.7512 12.0005 21.7514C13.2811 21.7515 14.5493 21.4994 15.7324 21.0094C16.9156 20.5195 17.9906 19.8012 18.8962 18.8957C19.8017 17.9901 20.52 16.9151 21.01 15.7319C21.4999 14.5487 21.7521 13.2806 21.7519 12C21.7517 10.7194 21.4992 9.45137 21.0089 8.26834C20.5186 7.08531 19.8 6.01046 18.8943 5.10517ZM10.4029 11.9995H13.597L14.9819 14.9999C14.4343 15.0039 13.9072 15.2082 13.5 15.5742C13.088 15.2042 12.5538 14.9995 12 14.9995C11.4462 14.9995 10.912 15.2042 10.5 15.5742C10.0928 15.2082 9.56563 15.0039 9.01809 14.9999L10.4029 11.9995ZM17.8336 17.833C17.6464 18.0202 17.4518 18.1971 17.25 18.3635V16.4995C17.25 16.3909 17.2264 16.2837 17.1809 16.1852L12.6809 6.43516C12.6209 6.30508 12.5249 6.19492 12.4042 6.1177C12.2835 6.04049 12.1432 5.99946 12 5.99945C11.8567 5.99946 11.7164 6.04049 11.5958 6.1177C11.4751 6.19492 11.379 6.30508 11.319 6.43516L6.819 16.1852C6.77354 16.2837 6.74998 16.3909 6.74997 16.4995V18.3635C6.54858 18.1968 6.35403 18.0199 6.16632 17.833C5.01256 16.6792 4.22684 15.2092 3.90852 13.6089C3.59021 12.0086 3.75359 10.3498 4.37802 8.84231C5.00244 7.33483 6.05986 6.04637 7.41655 5.13986C8.77325 4.23335 10.3683 3.7495 12 3.7495C13.6317 3.7495 15.2267 4.23335 16.5834 5.13986C17.9401 6.04637 18.9975 7.33483 19.6219 8.84231C20.2464 10.3498 20.4097 12.0086 20.0914 13.6089C19.7731 15.2092 18.9874 16.6792 17.8336 17.833Z" fill="#1D1F21" style="fill: var(--ui-icon-primary-color);"/>
</svg>
