<svg  viewBox="0 0 24 24" fill="none" xmlns="http://www.w3.org/2000/svg" id="__THIS_ID_NEEDS_FOR_UI_ICON_COMPONENT__">
<path d="M19.2802 5.78032L5.78023 19.2803C5.63955 19.4208 5.44883 19.4997 5.25001 19.4997C5.05118 19.4996 4.86051 19.4206 4.71992 19.28C4.57933 19.1394 4.50032 18.9487 4.50026 18.7499C4.5002 18.5511 4.57909 18.3604 4.71959 18.2197L18.2196 4.71968C18.3603 4.57918 18.551 4.50029 18.7498 4.50035C18.9486 4.50041 19.1393 4.57942 19.2799 4.72001C19.4205 4.86061 19.4995 5.05127 19.4996 5.2501C19.4996 5.44892 19.4207 5.63964 19.2802 5.78032ZM7.12491 10.125C7.81898 10.125 8.49157 9.88435 9.02809 9.44404C9.56462 9.00374 9.93187 8.39102 10.0673 7.71029C10.2027 7.02956 10.0979 6.32294 9.7707 5.71083C9.44353 5.09872 8.91423 4.61898 8.273 4.35337C7.63177 4.08776 6.91828 4.0527 6.2541 4.25417C5.58992 4.45564 5.01614 4.88118 4.63053 5.45827C4.24493 6.03536 4.07135 6.7283 4.13937 7.41902C4.2074 8.10975 4.51281 8.75552 5.00359 9.2463C5.28151 9.52576 5.6121 9.74732 5.97623 9.89815C6.34036 10.049 6.73078 10.1261 7.12491 10.125ZM18.9962 14.7537C18.5768 14.3346 18.0424 14.0493 17.4608 13.9338C16.8792 13.8183 16.2765 13.8779 15.7287 14.1049C15.1809 14.3319 14.7128 14.7163 14.3834 15.2093C14.054 15.7024 13.8782 16.282 13.8782 16.875C13.8782 17.468 14.054 18.0476 14.3834 18.5407C14.7128 19.0337 15.1809 19.4181 15.7287 19.6451C16.2765 19.8721 16.8792 19.9317 17.4608 19.8162C18.0424 19.7007 18.5768 19.4154 18.9962 18.9963C19.558 18.4333 19.8735 17.6704 19.8735 16.875C19.8735 16.0796 19.558 15.3167 18.9962 14.7537Z" fill="#1D1F21" style="fill: var(--ui-icon-primary-color);"/>
</svg>
