<svg  viewBox="0 0 24 24" fill="none" xmlns="http://www.w3.org/2000/svg" id="__THIS_ID_NEEDS_FOR_UI_ICON_COMPONENT__">
<path d="M21.7083 16.4141C21.5455 17.6808 20.9271 18.8449 19.9686 19.6889C19.0101 20.5329 17.7771 20.9991 16.5 21.0004C9.05603 21.0004 3 14.9444 3 7.50043C3.00129 6.22332 3.46749 4.99035 4.31148 4.03187C5.15548 3.07339 6.31956 2.45495 7.58624 2.29209C7.90858 2.25318 8.23485 2.31967 8.51626 2.48161C8.79767 2.64355 9.01909 2.89225 9.1474 3.19049L11.031 7.5853C11.1287 7.81263 11.1685 8.06063 11.1469 8.30712C11.1253 8.55361 11.043 8.7909 10.9072 8.99777L9.34772 11.3807L9.34754 11.3809C10.0518 12.8127 11.2131 13.9689 12.648 14.6668L14.9958 13.1018C15.2032 12.963 15.4421 12.8783 15.6907 12.8554C15.9392 12.8326 16.1895 12.8724 16.4188 12.9711L20.8098 14.8529C21.1081 14.9812 21.3568 15.2026 21.5188 15.484C21.6808 15.7655 21.7473 16.0917 21.7083 16.4141ZM14.2581 9.10439C14.26 9.11872 14.2618 9.13304 14.2646 9.14728C14.2669 9.159 14.2701 9.17035 14.273 9.18189C14.2761 9.19411 14.2788 9.20638 14.2825 9.21846C14.2859 9.22977 14.2901 9.24066 14.2941 9.25174C14.2983 9.26383 14.3024 9.27591 14.3073 9.28782C14.3115 9.29789 14.3164 9.30759 14.321 9.31748C14.3268 9.32984 14.3324 9.34229 14.3389 9.35437C14.3437 9.36348 14.3493 9.37209 14.3545 9.38092C14.3617 9.39315 14.3687 9.40546 14.3766 9.41732C14.3828 9.42656 14.3898 9.43526 14.3964 9.44419C14.4043 9.45494 14.4118 9.46584 14.4203 9.47623C14.4312 9.48946 14.443 9.50187 14.4548 9.51432C14.4598 9.51976 14.4643 9.52549 14.4696 9.5308C14.4747 9.53588 14.4803 9.54023 14.4855 9.54513C14.4982 9.55707 14.5108 9.56907 14.5243 9.58014C14.5343 9.58838 14.5448 9.59557 14.5551 9.60317C14.5644 9.61013 14.5735 9.61741 14.5833 9.62391C14.5947 9.63155 14.6065 9.63819 14.6183 9.64515C14.6276 9.65069 14.6367 9.65654 14.6462 9.66167C14.6579 9.66794 14.6698 9.67321 14.6817 9.67879C14.6921 9.68364 14.7022 9.68882 14.7128 9.69321C14.7242 9.69793 14.7358 9.70173 14.7473 9.70584C14.7589 9.71001 14.7703 9.71445 14.7822 9.71807C14.7936 9.7215 14.8052 9.72402 14.8167 9.72695C14.8289 9.73002 14.841 9.7334 14.8534 9.73588C14.8666 9.73853 14.88 9.74009 14.8932 9.74196C14.9042 9.74352 14.9149 9.74558 14.926 9.74668C14.9506 9.7491 14.9753 9.75043 15 9.75043H18.75C18.9489 9.75043 19.1397 9.67141 19.2803 9.53076C19.421 9.39011 19.5 9.19934 19.5 9.00043C19.5 8.80152 19.421 8.61075 19.2803 8.4701C19.1397 8.32945 18.9489 8.25043 18.75 8.25043H16.8107L20.0304 5.03079C20.1 4.96114 20.1553 4.87846 20.193 4.78746C20.2306 4.69646 20.25 4.59893 20.25 4.50043C20.25 4.40193 20.2306 4.3044 20.193 4.2134C20.1553 4.1224 20.1 4.03971 20.0304 3.97006C19.9607 3.90041 19.878 3.84517 19.787 3.80747C19.696 3.76978 19.5985 3.75038 19.5 3.75038C19.4015 3.75038 19.304 3.76978 19.213 3.80747C19.122 3.84517 19.0393 3.90041 18.9696 3.97006L15.75 7.1897V5.25043C15.75 5.05152 15.671 4.86075 15.5303 4.7201C15.3897 4.57945 15.1989 4.50043 15 4.50043C14.8011 4.50043 14.6103 4.57945 14.4697 4.7201C14.329 4.86075 14.25 5.05152 14.25 5.25043V8.99997C14.25 9.02487 14.2513 9.04982 14.2537 9.07468C14.2548 9.08475 14.2567 9.09445 14.2581 9.10439Z" fill="#1D1F21" style="fill: var(--ui-icon-primary-color);"/>
</svg>
