<svg  viewBox="0 0 24 24" fill="none" xmlns="http://www.w3.org/2000/svg" id="__THIS_ID_NEEDS_FOR_UI_ICON_COMPONENT__">
<path d="M21.7083 16.4136C21.5455 17.6804 20.9271 18.8444 19.9686 19.6885C19.0101 20.5325 17.7771 20.9987 16.5 21C9.05603 21 3 14.944 3 7.49998C3.00129 6.22287 3.46749 4.9899 4.31148 4.03142C5.15548 3.07294 6.31956 2.4545 7.58624 2.29164C7.90859 2.25265 8.2349 2.3191 8.51632 2.48106C8.79774 2.64301 9.01915 2.89175 9.1474 3.19004L11.031 7.58485C11.1287 7.81218 11.1685 8.06018 11.1469 8.30667C11.1253 8.55316 11.043 8.79045 10.9072 8.99733L9.34772 11.3803L9.34754 11.3804C10.0518 12.8122 11.2131 13.9685 12.648 14.6664L14.9958 13.1014C15.2032 12.9625 15.4421 12.8778 15.6907 12.855C15.9392 12.8322 16.1895 12.8719 16.4188 12.9706L20.8098 14.8525C21.1081 14.9808 21.3568 15.2022 21.5188 15.4836C21.6808 15.765 21.7473 16.0913 21.7083 16.4136ZM14.4696 9.53035C14.6103 9.67098 14.8011 9.74998 15 9.74998C15.1989 9.74998 15.3897 9.67098 15.5304 9.53035L17.25 7.81071L18.9696 9.53035C19.1103 9.67101 19.3011 9.75003 19.5 9.75003C19.6989 9.75003 19.8897 9.67101 20.0304 9.53035C20.171 9.38968 20.25 9.19891 20.25 8.99998C20.25 8.80106 20.171 8.61028 20.0304 8.46962L18.3107 6.74998L20.0304 5.03035C20.1 4.9607 20.1553 4.87801 20.193 4.78701C20.2306 4.69601 20.25 4.59848 20.25 4.49998C20.25 4.40148 20.2306 4.30395 20.193 4.21295C20.1553 4.12195 20.1 4.03926 20.0304 3.96962C19.9607 3.89997 19.878 3.84472 19.787 3.80702C19.696 3.76933 19.5985 3.74993 19.5 3.74993C19.4015 3.74993 19.304 3.76933 19.213 3.80702C19.122 3.84472 19.0393 3.89997 18.9696 3.96962L17.25 5.68925L15.5304 3.96962C15.3897 3.82895 15.1989 3.74993 15 3.74993C14.8011 3.74993 14.6103 3.82895 14.4696 3.96962C14.329 4.11028 14.25 4.30106 14.25 4.49998C14.25 4.69891 14.329 4.88968 14.4696 5.03035L16.1893 6.74998L14.4696 8.46962C14.329 8.61029 14.25 8.80106 14.25 8.99998C14.25 9.1989 14.329 9.38968 14.4696 9.53035Z" fill="#1D1F21" style="fill: var(--ui-icon-primary-color);"/>
</svg>
