<svg  viewBox="0 0 24 24" fill="none" xmlns="http://www.w3.org/2000/svg" id="__THIS_ID_NEEDS_FOR_UI_ICON_COMPONENT__">
<path d="M21.7083 16.4137C21.5455 17.6804 20.9271 18.8445 19.9686 19.6885C19.0101 20.5325 17.7771 20.9987 16.5 21C9.05603 21 3 14.944 3 7.5C3.00129 6.22289 3.46749 4.98992 4.31148 4.03144C5.15548 3.07296 6.31956 2.45452 7.58624 2.29166C7.9086 2.25263 8.23492 2.31907 8.51635 2.48103C8.79778 2.64298 9.01918 2.89174 9.1474 3.19006L11.031 7.58487C11.1287 7.8122 11.1685 8.0602 11.1469 8.30669C11.1253 8.55318 11.043 8.79047 10.9072 8.99734L9.34772 11.3803L9.34754 11.3805C10.0518 12.8123 11.2131 13.9685 12.648 14.6664L14.9958 13.1014C15.2032 12.9626 15.4421 12.8779 15.6907 12.855C15.9392 12.8322 16.1895 12.8719 16.4188 12.9706L20.8098 14.8525C21.1081 14.9808 21.3568 15.2022 21.5188 15.4836C21.6808 15.765 21.7473 16.0913 21.7083 16.4137ZM14.7517 4.47455C15.8959 4.78221 16.9392 5.38516 17.777 6.22298C18.6148 7.0608 19.2178 8.10407 19.5255 9.24829C19.5771 9.44008 19.7028 9.60353 19.8749 9.70277C20.0469 9.80202 20.2513 9.82896 20.4432 9.77767C20.6351 9.72639 20.7988 9.60107 20.8984 9.42922C20.9981 9.25737 21.0254 9.05303 20.9745 8.86102C20.5984 7.4623 19.8614 6.18697 18.8372 5.1628C17.813 4.13862 16.5377 3.40156 15.139 3.02545C14.947 2.97457 14.7426 3.00194 14.5708 3.10155C14.3989 3.20116 14.2736 3.36488 14.2223 3.55677C14.171 3.74867 14.198 3.95307 14.2972 4.12513C14.3965 4.29719 14.5599 4.42286 14.7517 4.47455L14.7517 4.47455ZM13.9751 7.37302C14.6107 7.54395 15.1903 7.8789 15.6557 8.34432C16.1211 8.80975 16.4561 9.3893 16.627 10.0249C16.6787 10.2167 16.8043 10.3802 16.9764 10.4794C17.1485 10.5787 17.3529 10.6056 17.5448 10.5543C17.7367 10.503 17.9004 10.3777 18 10.2059C18.0996 10.034 18.127 9.82967 18.0761 9.63767C17.8367 8.74752 17.3677 7.93589 16.7159 7.28411C16.0641 6.63232 15.2525 6.16326 14.3623 5.92392C14.1703 5.87304 13.966 5.90041 13.7941 6.00002C13.6223 6.09963 13.497 6.26335 13.4457 6.45524C13.3944 6.64714 13.4213 6.85154 13.5206 7.0236C13.6198 7.19566 13.7833 7.32133 13.9751 7.37302L13.9751 7.37302Z" fill="#1D1F21" style="fill: var(--ui-icon-primary-color);"/>
</svg>
