<svg  viewBox="0 0 24 24" fill="none" xmlns="http://www.w3.org/2000/svg" id="__THIS_ID_NEEDS_FOR_UI_ICON_COMPONENT__">
<path d="M20.055 19.745C20.1212 19.8179 20.1725 19.9031 20.2058 19.9958C20.2391 20.0885 20.2539 20.1869 20.2492 20.2852C20.2445 20.3836 20.2205 20.4801 20.1785 20.5692C20.1365 20.6583 20.0774 20.7383 20.0045 20.8046C19.9317 20.8708 19.8464 20.9221 19.7537 20.9554C19.6611 20.9887 19.5627 21.0035 19.4643 20.9988C19.3659 20.9941 19.2694 20.9701 19.1803 20.9281C19.0912 20.8861 19.0113 20.827 18.945 20.7541L10.5071 11.4725C10.219 11.5335 9.93486 11.6123 9.65643 11.7084L9.10281 14.4752C9.05431 14.72 8.94528 14.9488 8.78569 15.1407C8.6261 15.3326 8.421 15.4815 8.18911 15.5738L3.75338 17.3481C3.45179 17.4683 3.11937 17.4876 2.80587 17.4032C2.49237 17.3187 2.21464 17.1351 2.01424 16.8796C1.2337 15.8688 0.847845 14.6083 0.928767 13.3337C1.00969 12.0592 1.55185 10.8577 2.45397 9.95364C3.63625 8.76567 5.03114 7.81034 6.56611 7.13734L3.945 4.25412C3.81119 4.10692 3.74133 3.9126 3.75079 3.7139C3.76025 3.5152 3.84825 3.32839 3.99545 3.19458C4.14264 3.06076 4.33696 2.9909 4.53566 3.00036C4.73437 3.00982 4.92117 3.09783 5.05499 3.24502L8.41058 6.93615C8.41209 6.93785 8.41365 6.9395 8.41516 6.94123L11.3292 10.1466C11.3306 10.1481 11.3319 10.1496 11.3332 10.1511L20.055 19.745ZM21.546 9.95355C20.2033 8.61255 18.5934 7.56923 16.8209 6.89148C15.0484 6.21373 13.1531 5.91673 11.2582 6.0198C11.1166 6.02757 10.9802 6.07532 10.8646 6.1575C10.7491 6.23969 10.6592 6.35294 10.6054 6.48414C10.5516 6.61534 10.5361 6.7591 10.5606 6.89875C10.5852 7.0384 10.6489 7.16822 10.7443 7.27316L19.5905 17.0043C19.667 17.0884 19.7615 17.154 19.8669 17.1962L20.2465 17.3481C20.5481 17.4683 20.8806 17.4876 21.1941 17.4032C21.5077 17.3187 21.7854 17.135 21.9858 16.8795C22.7663 15.8686 23.1522 14.6082 23.0712 13.3336C22.9903 12.0591 22.4481 10.8576 21.546 9.95355Z" fill="#1D1F21" style="fill: var(--ui-icon-primary-color);"/>
</svg>
