<svg  viewBox="0 0 24 24" fill="none" xmlns="http://www.w3.org/2000/svg" id="__THIS_ID_NEEDS_FOR_UI_ICON_COMPONENT__">
<path d="M21.9858 15.3805C21.7854 15.6359 21.5076 15.8196 21.1941 15.9041C20.8806 15.9886 20.5481 15.9693 20.2465 15.8491L15.8072 14.0733C15.5774 13.9817 15.3738 13.8346 15.2148 13.6451C15.0558 13.4555 14.9462 13.2295 14.8959 12.9873L14.3136 10.1993V10.1991C12.8033 9.68451 11.1645 9.68812 9.65643 10.2094L9.10281 12.9761C9.0543 13.221 8.94528 13.4498 8.78569 13.6417C8.62609 13.8336 8.421 13.9824 8.18911 14.0748L3.75338 15.8491C3.45179 15.9693 3.11937 15.9886 2.80587 15.9042C2.49237 15.8197 2.21464 15.636 2.01424 15.3806C1.2337 14.3697 0.847845 13.1093 0.928767 11.8347C1.00969 10.5602 1.55185 9.35863 2.45397 8.45461C7.7178 3.19079 16.2824 3.19106 21.546 8.45452C22.4481 9.35854 22.9903 10.56 23.0712 11.8346C23.1522 13.1092 22.7663 14.3696 21.9858 15.3805ZM20.25 18.0005H3.74999C3.55108 18.0005 3.36032 18.0796 3.21966 18.2202C3.07901 18.3609 2.99999 18.5516 2.99999 18.7505C2.99999 18.9495 3.07901 19.1402 3.21966 19.2809C3.36032 19.4215 3.55108 19.5005 3.74999 19.5005H20.25C20.4489 19.5005 20.6397 19.4215 20.7803 19.2809C20.921 19.1402 21 18.9495 21 18.7505C21 18.5516 20.921 18.3609 20.7803 18.2202C20.6397 18.0796 20.4489 18.0005 20.25 18.0005Z" fill="#1D1F21" style="fill: var(--ui-icon-primary-color);"/>
</svg>
