<svg  viewBox="0 0 24 24" fill="none" xmlns="http://www.w3.org/2000/svg" id="__THIS_ID_NEEDS_FOR_UI_ICON_COMPONENT__">
<path d="M21.7083 16.4137C21.5455 17.6804 20.9271 18.8445 19.9686 19.6885C19.0101 20.5325 17.7771 20.9987 16.5 21C9.05603 21 3 14.944 3 7.5C3.00129 6.22289 3.46749 4.98992 4.31148 4.03144C5.15548 3.07296 6.31956 2.45452 7.58624 2.29166C7.9086 2.25263 8.23492 2.31907 8.51635 2.48103C8.79778 2.64298 9.01918 2.89174 9.1474 3.19006L11.031 7.58487C11.1287 7.8122 11.1685 8.0602 11.1469 8.30669C11.1253 8.55318 11.043 8.79047 10.9072 8.99734L9.34772 11.3803L9.34754 11.3805C10.0518 12.8123 11.2131 13.9685 12.648 14.6664L14.9958 13.1014C15.2032 12.9626 15.4421 12.8779 15.6907 12.855C15.9392 12.8322 16.1895 12.8719 16.4188 12.9706L20.8098 14.8525C21.1081 14.9808 21.3568 15.2022 21.5188 15.4836C21.6808 15.765 21.7473 16.0913 21.7083 16.4137Z" fill="#1D1F21" style="fill: var(--ui-icon-primary-color);"/>
</svg>
