<svg  viewBox="0 0 24 24" fill="none" xmlns="http://www.w3.org/2000/svg" id="__THIS_ID_NEEDS_FOR_UI_ICON_COMPONENT__">
<path d="M21.7083 16.4137C21.5455 17.6804 20.9271 18.8445 19.9686 19.6885C19.0101 20.5325 17.7771 20.9987 16.5 21C9.05603 21 3 14.944 3 7.5C3.00129 6.22289 3.46749 4.98992 4.31148 4.03144C5.15548 3.07296 6.31956 2.45452 7.58624 2.29166C7.9086 2.25263 8.23492 2.31907 8.51635 2.48103C8.79778 2.64298 9.01918 2.89174 9.1474 3.19006L11.031 7.58487C11.1287 7.8122 11.1685 8.0602 11.1469 8.30669C11.1253 8.55318 11.043 8.79047 10.9072 8.99734L9.34772 11.3803L9.34754 11.3805C10.0518 12.8123 11.2131 13.9685 12.648 14.6664L14.9958 13.1014C15.2032 12.9626 15.4421 12.8779 15.6907 12.855C15.9392 12.8322 16.1895 12.8719 16.4188 12.9706L20.8098 14.8525C21.1081 14.9808 21.3568 15.2022 21.5188 15.4836C21.6808 15.765 21.7473 16.0913 21.7083 16.4137ZM15 9.75C15.0985 9.75012 15.1961 9.73078 15.2871 9.69309C15.3781 9.6554 15.4608 9.6001 15.5304 9.53036L18.75 6.31073V8.25C18.75 8.44891 18.829 8.63968 18.9697 8.78033C19.1103 8.92098 19.3011 9 19.5 9C19.6989 9 19.8897 8.92098 20.0303 8.78033C20.171 8.63968 20.25 8.44891 20.25 8.25V4.50046C20.25 4.47556 20.2487 4.45061 20.2463 4.42575C20.2452 4.41568 20.2433 4.40598 20.2419 4.39604C20.24 4.38171 20.2382 4.36739 20.2354 4.35315C20.2331 4.34143 20.2299 4.33008 20.227 4.31854C20.2239 4.30632 20.2212 4.29405 20.2175 4.28197C20.2141 4.27066 20.2099 4.25977 20.2059 4.24869C20.2017 4.2366 20.1976 4.22452 20.1927 4.21261C20.1885 4.20254 20.1836 4.19284 20.179 4.18295C20.1732 4.17059 20.1677 4.15814 20.1612 4.14606C20.1563 4.13695 20.1507 4.12834 20.1455 4.11951C20.1383 4.10728 20.1314 4.09497 20.1234 4.08311C20.1172 4.07387 20.1102 4.06517 20.1036 4.05624C20.0957 4.04549 20.0882 4.03459 20.0797 4.0242C20.0688 4.01097 20.057 3.99856 20.0452 3.98611C20.0402 3.98067 20.0357 3.97494 20.0304 3.96963C20.0254 3.96464 20.0199 3.96039 20.0148 3.95558C20.002 3.94349 19.9893 3.93141 19.9757 3.92024C19.9659 3.91223 19.9556 3.90518 19.9455 3.89771C19.9359 3.89057 19.9266 3.88316 19.9167 3.87647C19.9056 3.86906 19.8941 3.8626 19.8827 3.85583C19.873 3.85006 19.8636 3.84397 19.8536 3.83862C19.8425 3.83271 19.8311 3.82768 19.8198 3.82237C19.8088 3.81719 19.7981 3.81175 19.7868 3.80708C19.7763 3.80273 19.7655 3.7992 19.7548 3.79536C19.7423 3.79083 19.7301 3.78611 19.7174 3.78227C19.7071 3.77915 19.6967 3.77691 19.6863 3.77426C19.6729 3.77087 19.6598 3.76716 19.6462 3.76446C19.6348 3.76222 19.6233 3.76093 19.6118 3.75924C19.5991 3.75732 19.5865 3.75498 19.5735 3.7537C19.5546 3.75187 19.5356 3.75123 19.5166 3.75082C19.511 3.75073 19.5056 3.75 19.5 3.75H15.75C15.5511 3.75 15.3603 3.82902 15.2197 3.96967C15.079 4.11032 15 4.30109 15 4.5C15 4.69891 15.079 4.88968 15.2197 5.03033C15.3603 5.17098 15.5511 5.25 15.75 5.25H17.6893L14.4696 8.46964C14.3647 8.57452 14.2933 8.70817 14.2643 8.85366C14.2354 8.99916 14.2503 9.14997 14.307 9.28702C14.3638 9.42408 14.4599 9.54121 14.5833 9.62362C14.7066 9.70603 14.8517 9.75001 15 9.75Z" fill="#1D1F21" style="fill: var(--ui-icon-primary-color);"/>
</svg>
