<svg  viewBox="0 0 24 24" fill="none" xmlns="http://www.w3.org/2000/svg" id="__THIS_ID_NEEDS_FOR_UI_ICON_COMPONENT__">
<path d="M13.3125 2.25H6.375C6.36859 2.25 6.36237 2.2508 6.356 2.25096C6.34085 2.25134 6.32574 2.25195 6.31055 2.25326C6.29988 2.25417 6.28935 2.25549 6.27882 2.25685C6.26541 2.25858 6.252 2.26051 6.23863 2.26298C6.22623 2.26526 6.21405 2.26801 6.20187 2.27089C6.19075 2.27354 6.17967 2.27626 6.16864 2.27943C6.1545 2.28348 6.14062 2.28807 6.12685 2.29292C6.11778 2.29611 6.10876 2.29927 6.09975 2.30283C6.08464 2.30879 6.06995 2.31539 6.05534 2.32229C6.05013 2.32475 6.04477 2.32661 6.03959 2.32919C6.03676 2.33062 6.03419 2.33239 6.03135 2.33385C6.01748 2.34103 6.00403 2.34883 5.99066 2.35683C5.98205 2.36197 5.97336 2.36698 5.96498 2.37242C5.95413 2.37952 5.94378 2.38716 5.9333 2.3948C5.92332 2.40209 5.91321 2.40926 5.90364 2.41698C5.89576 2.42336 5.88835 2.43021 5.8807 2.4369C5.86972 2.44653 5.85873 2.4561 5.84839 2.46628C5.84225 2.47232 5.83662 2.47879 5.83072 2.48504C5.82 2.49632 5.80934 2.50757 5.79945 2.51943C5.79345 2.52656 5.78805 2.53414 5.78238 2.5415C5.77354 2.55292 5.76462 2.56425 5.75647 2.57612C5.74978 2.58587 5.74383 2.59612 5.73756 2.60621C5.73138 2.61621 5.72497 2.62604 5.7193 2.6363C5.71225 2.64897 5.70607 2.66213 5.69975 2.67524C5.69577 2.68352 5.69146 2.69164 5.6878 2.70005C5.68158 2.71429 5.67627 2.72897 5.67091 2.74365C5.66798 2.75165 5.66478 2.75953 5.66212 2.76763C5.65759 2.78152 5.65393 2.79574 5.65022 2.80997C5.6477 2.81965 5.64491 2.82925 5.64275 2.83903C5.6401 2.85122 5.63813 2.86363 5.63607 2.87602C5.63397 2.88858 5.63181 2.90109 5.6303 2.91376C5.62916 2.92383 5.62856 2.93403 5.62783 2.94422C5.62664 2.95957 5.62567 2.97491 5.6255 2.99036C5.62546 2.99361 5.625 2.99675 5.625 3V15.375C5.62708 17.2143 6.35866 18.9777 7.65924 20.2783C8.95983 21.5788 10.7232 22.3104 12.5625 22.3125C12.7614 22.3125 12.9522 22.2335 13.0928 22.0928C13.2335 21.9522 13.3125 21.7614 13.3125 21.5625V16.125C15.1524 16.125 16.917 15.3941 18.2181 14.0931C19.5191 12.792 20.25 11.0274 20.25 9.1875C20.25 7.34756 19.5191 5.58298 18.2181 4.28195C16.917 2.98091 15.1524 2.25 13.3125 2.25ZM11.8125 12.1979L7.58853 3.75H11.8125V12.1979ZM7.17673 16.125H11.8125V20.761C10.6414 20.5959 9.55574 20.0544 8.71947 19.2181C7.8832 18.3818 7.34171 17.2961 7.17673 16.125ZM13.3125 14.625V3.75C14.7546 3.75 16.1377 4.32288 17.1574 5.34261C18.1771 6.36234 18.75 7.74539 18.75 9.1875C18.75 10.6296 18.1771 12.0127 17.1574 13.0324C16.1377 14.0521 14.7546 14.625 13.3125 14.625Z" fill="#1D1F21" style="fill: var(--ui-icon-primary-color);"/>
</svg>
