<svg  viewBox="0 0 24 24" fill="none" xmlns="http://www.w3.org/2000/svg" id="__THIS_ID_NEEDS_FOR_UI_ICON_COMPONENT__">
<path d="M11.9999 2.25C10.0716 2.25 8.18651 2.82183 6.58313 3.89317C4.97975 4.96451 3.73007 6.48726 2.99212 8.26884C2.25416 10.0504 2.06108 12.0108 2.43729 13.9021C2.81349 15.7934 3.74209 17.5307 5.10565 18.8943C6.46921 20.2579 8.2065 21.1865 10.0978 21.5627C11.9891 21.9389 13.9495 21.7458 15.7311 21.0078C17.5127 20.2699 19.0354 19.0202 20.1068 17.4168C21.1781 15.8134 21.7499 13.9284 21.7499 12C21.747 9.41506 20.7188 6.93684 18.8909 5.10901C17.0631 3.28118 14.5849 2.25299 11.9999 2.25ZM15.7499 12.75H12.7499V15.75C12.7499 15.9489 12.6709 16.1397 12.5303 16.2803C12.3896 16.421 12.1989 16.5 11.9999 16.5C11.801 16.5 11.6103 16.421 11.4696 16.2803C11.329 16.1397 11.2499 15.9489 11.2499 15.75V12.75H8.24994C8.05103 12.75 7.86027 12.671 7.71961 12.5303C7.57896 12.3897 7.49994 12.1989 7.49994 12C7.49994 11.8011 7.57896 11.6103 7.71961 11.4697C7.86027 11.329 8.05103 11.25 8.24994 11.25H11.2499V8.25C11.2499 8.05109 11.329 7.86032 11.4696 7.71967C11.6103 7.57902 11.801 7.5 11.9999 7.5C12.1989 7.5 12.3896 7.57902 12.5303 7.71967C12.6709 7.86032 12.7499 8.05109 12.7499 8.25V11.25H15.7499C15.9489 11.25 16.1396 11.329 16.2803 11.4697C16.4209 11.6103 16.4999 11.8011 16.4999 12C16.4999 12.1989 16.4209 12.3897 16.2803 12.5303C16.1396 12.671 15.9489 12.75 15.7499 12.75Z" fill="#1D1F21" style="fill: var(--ui-icon-primary-color);"/>
</svg>
