<svg  viewBox="0 0 24 24" fill="none" xmlns="http://www.w3.org/2000/svg" id="__THIS_ID_NEEDS_FOR_UI_ICON_COMPONENT__">
<path d="M18.9526 18.8281C20.7452 17.0075 21.75 14.555 21.75 12C21.75 9.44499 20.7452 6.99247 18.9526 5.17191C18.9166 5.12534 18.8748 5.08354 18.8282 5.04753C17.0076 3.25482 14.5551 2.25 12 2.25C9.44496 2.25 6.99239 3.25482 5.17182 5.04753C5.12525 5.08354 5.08346 5.12534 5.04745 5.17191C3.2548 6.99247 2.25001 9.44499 2.25001 12C2.25001 14.555 3.2548 17.0075 5.04745 18.8281C5.08347 18.8747 5.12528 18.9165 5.17187 18.9525C6.99243 20.7452 9.44498 21.75 12 21.75C14.555 21.75 17.0076 20.7452 18.8281 18.9525C18.8747 18.9165 18.9166 18.8747 18.9526 18.8281ZM3.78448 12.75H6.04853C6.18244 13.817 6.6021 14.828 7.26316 15.6761L5.66296 17.2763C4.59077 15.9939 3.93543 14.4148 3.78448 12.75ZM5.66296 6.72368L7.26316 8.32386C6.6021 9.17203 6.18244 10.183 6.04853 11.25H3.78448C3.93543 9.58522 4.59077 8.00613 5.66296 6.72368ZM20.2155 11.25H17.9515C17.8176 10.183 17.3979 9.17203 16.7369 8.32386L18.3371 6.72368C19.4093 8.00613 20.0646 9.58522 20.2155 11.25ZM15.6761 7.26313C14.828 6.60208 13.817 6.18243 12.75 6.04855V3.78445C14.4148 3.93541 15.9939 4.59076 17.2763 5.66295L15.6761 7.26313ZM11.25 6.04855C10.183 6.18243 9.17205 6.60208 8.32389 7.26313L6.72369 5.66295C8.00614 4.59076 9.58523 3.93541 11.25 3.78445V6.04855ZM8.32389 16.7369C9.17205 17.3979 10.183 17.8176 11.25 17.9515V20.2156C9.58523 20.0646 8.00614 19.4092 6.72369 18.3371L8.32389 16.7369ZM12.75 17.9515C13.817 17.8176 14.828 17.3979 15.6761 16.7369L17.2763 18.3371C15.9939 19.4092 14.4148 20.0646 12.75 20.2156V17.9515ZM16.7369 15.6761C17.3979 14.828 17.8176 13.817 17.9515 12.75H20.2155C20.0646 14.4148 19.4093 15.9939 18.3371 17.2763L16.7369 15.6761Z" fill="#1D1F21" style="fill: var(--ui-icon-primary-color);"/>
</svg>
