<svg  viewBox="0 0 24 24" fill="none" xmlns="http://www.w3.org/2000/svg" id="__THIS_ID_NEEDS_FOR_UI_ICON_COMPONENT__">
<path d="M12 2.25C10.0716 2.25 8.18653 2.82183 6.58315 3.89317C4.97977 4.96451 3.73009 6.48726 2.99213 8.26884C2.25418 10.0504 2.0611 12.0108 2.4373 13.9021C2.81351 15.7934 3.74211 17.5307 5.10567 18.8943C6.46923 20.2579 8.20651 21.1865 10.0978 21.5627C11.9891 21.9389 13.9495 21.7458 15.7311 21.0078C17.5127 20.2699 19.0354 19.0202 20.1068 17.4168C21.1781 15.8134 21.75 13.9284 21.75 12C21.747 9.41504 20.7189 6.93678 18.891 5.10894C17.0632 3.28109 14.5849 2.25292 12 2.25ZM11.2492 5.25027C11.2492 5.05136 11.3282 4.8606 11.4689 4.71994C11.6095 4.57929 11.8003 4.50027 11.9992 4.50027C12.1981 4.50027 12.3889 4.57929 12.5296 4.71994C12.6702 4.8606 12.7492 5.05136 12.7492 5.25027V10.8753C12.7492 11.0742 12.6702 11.265 12.5296 11.4056C12.3889 11.5463 12.1981 11.6253 11.9992 11.6253C11.8003 11.6253 11.6095 11.5463 11.4689 11.4056C11.3282 11.265 11.2492 11.0742 11.2492 10.8753V5.25027ZM12 19.5C10.3913 19.5003 8.82511 18.9833 7.53279 18.0253C6.24048 17.0672 5.29054 15.719 4.82326 14.1797C4.35598 12.6403 4.39614 10.9915 4.93782 9.47677C5.47949 7.96201 6.49395 6.66162 7.83138 5.76764C7.91317 5.71254 8.00502 5.67411 8.10167 5.65455C8.19833 5.635 8.29789 5.63469 8.39467 5.65366C8.49144 5.67262 8.58352 5.71049 8.66565 5.76508C8.74777 5.81968 8.81832 5.88994 8.87326 5.97183C8.92819 6.05373 8.96644 6.14565 8.98581 6.24234C9.00518 6.33904 9.00529 6.4386 8.98614 6.53534C8.96698 6.63208 8.92894 6.72408 8.87418 6.8061C8.81942 6.88812 8.74903 6.95853 8.66703 7.01331C7.59659 7.72841 6.78453 8.76883 6.3508 9.98089C5.91708 11.1929 5.88468 12.5124 6.2584 13.7442C6.63212 14.9761 7.39213 16.0552 8.42618 16.8219C9.46023 17.5887 10.7135 18.0026 12.0008 18.0024C13.2881 18.0022 14.5413 17.588 15.5751 16.8209C16.6089 16.0539 17.3687 14.9747 17.742 13.7427C18.1154 12.5107 18.0827 11.1913 17.6486 9.97933C17.2145 8.7674 16.4022 7.7272 15.3316 7.01239C15.1663 6.90162 15.0519 6.72975 15.0134 6.5346C14.9749 6.33945 15.0155 6.13699 15.1263 5.97178C15.2371 5.80656 15.4089 5.69212 15.6041 5.65362C15.7992 5.61512 16.0017 5.65572 16.1669 5.76649C17.5047 6.66022 18.5196 7.96053 19.0616 9.47534C19.6036 10.9901 19.6441 12.6391 19.1769 14.1787C18.7098 15.7183 17.7599 17.0667 16.4675 18.025C15.1751 18.9832 13.6088 19.5003 12 19.5Z" fill="#1D1F21" style="fill: var(--ui-icon-primary-color);"/>
</svg>
