<svg  viewBox="0 0 24 24" fill="none" xmlns="http://www.w3.org/2000/svg" id="__THIS_ID_NEEDS_FOR_UI_ICON_COMPONENT__">
<path d="M19.75 6.75H18.75V3.75C18.75 3.55109 18.671 3.36032 18.5303 3.21967C18.3897 3.07902 18.1989 3 18 3H6C5.80109 3 5.61032 3.07902 5.46967 3.21967C5.32902 3.36032 5.25 3.55109 5.25 3.75V6.75H4.25002C2.94045 6.75 1.875 7.75937 1.875 9V16.5C1.875 16.6989 1.95402 16.8897 2.09467 17.0303C2.23532 17.171 2.42609 17.25 2.625 17.25H5.25V20.625C5.25 20.8239 5.32902 21.0147 5.46967 21.1553C5.61032 21.296 5.80109 21.375 6 21.375H18C18.1989 21.375 18.3897 21.296 18.5303 21.1553C18.671 21.0147 18.75 20.8239 18.75 20.625V17.25H21.375C21.5739 17.25 21.7647 17.171 21.9053 17.0303C22.046 16.8897 22.125 16.6989 22.125 16.5V9C22.125 7.75937 21.0596 6.75 19.75 6.75ZM6.75 4.5H17.25V6.75H6.75V4.5ZM17.25 19.875H6.75V15H17.25V19.875ZM17.625 12C17.4025 12 17.185 11.934 17 11.8104C16.815 11.6868 16.6708 11.5111 16.5856 11.3055C16.5005 11.1 16.4782 10.8738 16.5216 10.6555C16.565 10.4373 16.6722 10.2368 16.8295 10.0795C16.9868 9.92217 17.1873 9.81502 17.4055 9.77162C17.6238 9.72821 17.85 9.75049 18.0555 9.83564C18.2611 9.92078 18.4368 10.065 18.5604 10.25C18.684 10.435 18.75 10.6525 18.75 10.875C18.75 11.1734 18.6315 11.4595 18.4205 11.6705C18.2095 11.8815 17.9234 12 17.625 12Z" fill="#1D1F21" style="fill: var(--ui-icon-primary-color);"/>
</svg>
