<svg  viewBox="0 0 24 24" fill="none" xmlns="http://www.w3.org/2000/svg" id="__THIS_ID_NEEDS_FOR_UI_ICON_COMPONENT__">
<path d="M18.75 12C18.7511 13.5309 18.2291 15.0162 17.2706 16.2099L7.79004 6.7294C8.78236 5.935 9.97896 5.43718 11.2419 5.29333C12.5049 5.14947 13.7828 5.36544 14.9283 5.91633C16.0739 6.46722 17.0404 7.33061 17.7166 8.40698C18.3927 9.48335 18.7509 10.7289 18.75 12ZM5.24996 12C5.24896 13.2711 5.60718 14.5167 6.28334 15.593C6.95949 16.6694 7.92605 17.5328 9.0716 18.0837C10.2171 18.6346 11.4951 18.8505 12.758 18.7067C14.021 18.5628 15.2176 18.065 16.2099 17.2706L6.72936 7.79008C5.77081 8.98376 5.24885 10.4691 5.24996 12ZM22.125 12C22.125 14.0025 21.5311 15.9601 20.4186 17.6251C19.306 19.2902 17.7247 20.5879 15.8746 21.3543C14.0245 22.1206 11.9887 22.3211 10.0247 21.9305C8.06061 21.5398 6.25651 20.5755 4.8405 19.1595C3.4245 17.7434 2.46018 15.9393 2.06951 13.9753C1.67883 12.0112 1.87934 9.97543 2.64568 8.12533C3.41202 6.27523 4.70976 4.69392 6.37481 3.58137C8.03986 2.46882 9.99742 1.875 12 1.875C14.6843 1.87804 17.2579 2.94575 19.1561 4.8439C21.0542 6.74205 22.1219 9.31562 22.125 12ZM20.25 12C20.25 10.3683 19.7661 8.77325 18.8596 7.41655C17.9531 6.05984 16.6646 5.00242 15.1571 4.37799C13.6496 3.75357 11.9908 3.59019 10.3905 3.90852C8.79012 4.22685 7.32011 5.01259 6.16633 6.16637C5.01254 7.32015 4.22681 8.79016 3.90848 10.3905C3.59015 11.9908 3.75353 13.6496 4.37795 15.1571C5.00238 16.6646 6.0598 17.9531 7.4165 18.8596C8.77321 19.7661 10.3683 20.25 12 20.25C14.1872 20.2475 16.2842 19.3775 17.8309 17.8309C19.3775 16.2843 20.2475 14.1873 20.25 12Z" fill="#1D1F21" style="fill: var(--ui-icon-primary-color);"/>
</svg>
