<svg  viewBox="0 0 24 24" fill="none" xmlns="http://www.w3.org/2000/svg" id="__THIS_ID_NEEDS_FOR_UI_ICON_COMPONENT__">
<path d="M12 2.25098C10.0716 2.25098 8.18657 2.8228 6.58319 3.89415C4.97982 4.96549 3.73013 6.48823 2.99218 8.26981C2.25422 10.0514 2.06114 12.0118 2.43735 13.9031C2.81355 15.7944 3.74215 17.5317 5.10571 18.8953C6.46927 20.2588 8.20656 21.1874 10.0979 21.5636C11.9892 21.9398 13.9496 21.7468 15.7312 21.0088C17.5127 20.2708 19.0355 19.0212 20.1068 17.4178C21.1782 15.8144 21.75 13.9293 21.75 12.001C21.747 9.41603 20.7188 6.93782 18.891 5.10999C17.0632 3.28215 14.5849 2.25396 12 2.25098ZM14.1213 15.183L8.81802 9.87966C8.67737 9.739 8.59835 9.54824 8.59835 9.34933C8.59835 9.15041 8.67737 8.95965 8.81802 8.819C8.95868 8.67834 9.14944 8.59933 9.34835 8.59933C9.54727 8.59933 9.73803 8.67834 9.87868 8.819L15.182 14.1223C15.2517 14.1919 15.307 14.2746 15.3448 14.3656C15.3826 14.4566 15.402 14.5542 15.4021 14.6527C15.4021 14.7513 15.3827 14.8489 15.345 14.9399C15.3073 15.031 15.2521 15.1137 15.1824 15.1834C15.1127 15.2531 15.03 15.3083 14.9389 15.346C14.8479 15.3837 14.7503 15.4031 14.6518 15.403C14.5532 15.403 14.4557 15.3835 14.3647 15.3458C14.2736 15.308 14.1909 15.2527 14.1213 15.183Z" fill="#1D1F21" style="fill: var(--ui-icon-primary-color);"/>
</svg>
