<svg  viewBox="0 0 24 24" fill="none" xmlns="http://www.w3.org/2000/svg" id="__THIS_ID_NEEDS_FOR_UI_ICON_COMPONENT__">
<path d="M20.5845 18.1994C20.4444 18.3718 20.2675 18.5107 20.0668 18.606C19.8662 18.7012 19.6467 18.7504 19.4246 18.75H12.75V22.5C12.75 22.6989 12.6709 22.8897 12.5303 23.0303C12.3896 23.171 12.1989 23.25 12 23.25C11.801 23.25 11.6103 23.171 11.4696 23.0303C11.329 22.8897 11.25 22.6989 11.25 22.5V18.75H4.5753C4.35215 18.7496 4.13189 18.6995 3.93051 18.6034C3.72914 18.5072 3.55171 18.3674 3.41111 18.1941C3.27052 18.0208 3.17028 17.8184 3.11769 17.6015C3.0651 17.3847 3.06147 17.1588 3.10707 16.9404C3.38044 15.5989 4.16974 14.4184 5.30497 13.6532C5.30565 13.6511 5.3061 13.649 5.3063 13.6468L6.31114 3.60073C6.34713 3.23019 6.52004 2.8864 6.79607 2.6366C7.07211 2.38679 7.4314 2.24894 7.80368 2.25001H16.1962C16.5685 2.24894 16.9278 2.38679 17.2038 2.6366C17.4799 2.8864 17.6528 3.23019 17.6888 3.60073L18.6936 13.6468C18.6938 13.649 18.6942 13.6511 18.6949 13.6532C19.8302 14.4184 20.6195 15.5989 20.8928 16.9404C20.9385 17.16 20.9345 17.387 20.8811 17.6048C20.8278 17.8226 20.7264 18.0258 20.5845 18.1994Z" fill="#1D1F21" style="fill: var(--ui-icon-primary-color);"/>
</svg>
