<svg  viewBox="0 0 24 24" fill="none" xmlns="http://www.w3.org/2000/svg" id="__THIS_ID_NEEDS_FOR_UI_ICON_COMPONENT__">
<path d="M7.31825 3.50528C7.22032 3.39783 7.15572 3.26423 7.13232 3.12074C7.10892 2.97725 7.12773 2.83006 7.18646 2.69706C7.24519 2.56406 7.34131 2.451 7.46311 2.37163C7.58492 2.29226 7.72717 2.25001 7.87256 2.25H16.1963C16.5685 2.24894 16.9278 2.38679 17.2039 2.63659C17.4799 2.88639 17.6528 3.23018 17.6888 3.60072L18.7308 14.0185C18.7465 14.1754 18.7124 14.3332 18.6332 14.4696C18.5541 14.606 18.434 14.714 18.29 14.7782C18.146 14.8424 17.9854 14.8596 17.831 14.8273C17.6767 14.795 17.5365 14.7149 17.4303 14.5984L7.31825 3.50528ZM21.4144 21.2456L18.0401 17.5321C18.0204 17.5074 17.9991 17.484 17.9765 17.462L3.6957 1.74564C3.56193 1.59842 3.37516 1.51037 3.17648 1.50086C2.97779 1.49135 2.78347 1.56115 2.63625 1.69492C2.48903 1.82868 2.40098 2.01545 2.39147 2.21414C2.38196 2.41282 2.45176 2.60715 2.58553 2.75437L6.01798 6.53192L5.30634 13.6468C5.30613 13.649 5.30568 13.6511 5.30501 13.6533C4.16977 14.4184 3.38047 15.5989 3.1071 16.9404C3.0615 17.1588 3.06513 17.3847 3.11772 17.6015C3.17032 17.8184 3.27055 18.0208 3.41115 18.1941C3.55174 18.3674 3.72917 18.5072 3.93055 18.6034C4.13192 18.6995 4.35218 18.7496 4.57533 18.75H11.25V22.5C11.25 22.6989 11.329 22.8897 11.4697 23.0303C11.6103 23.171 11.8011 23.25 12 23.25C12.1989 23.25 12.3897 23.171 12.5303 23.0303C12.671 22.8897 12.75 22.6989 12.75 22.5V18.75H17.12L20.3043 22.2544C20.438 22.4016 20.6248 22.4896 20.8235 22.4991C21.0222 22.5087 21.2165 22.4389 21.3637 22.3051C21.5109 22.1713 21.599 21.9846 21.6085 21.7859C21.618 21.5872 21.5482 21.3929 21.4144 21.2456Z" fill="#1D1F21" style="fill: var(--ui-icon-primary-color);"/>
</svg>
