<svg  viewBox="0 0 24 24" fill="none" xmlns="http://www.w3.org/2000/svg" id="__THIS_ID_NEEDS_FOR_UI_ICON_COMPONENT__">
<path d="M21 15.9702L20.9999 19.5C20.9995 19.8977 20.8413 20.279 20.5601 20.5602C20.2789 20.8414 19.8976 20.9996 19.4999 21L15.5419 21.0001H9.95808L5.99989 21C5.60221 20.9995 5.22095 20.8414 4.93975 20.5602C4.65855 20.2789 4.50038 19.8977 4.49994 19.5L4.49998 16.4796C4.37544 16.4933 4.25023 16.5001 4.12494 16.5C3.22983 16.5 2.37139 16.1444 1.73845 15.5115C1.10552 14.8786 0.749939 14.0201 0.749939 13.125C0.749939 12.2299 1.10552 11.3715 1.73845 10.7385C2.37139 10.1056 3.22983 9.75 4.12494 9.75C4.25023 9.74993 4.37544 9.75675 4.49998 9.77042L4.49994 6.75C4.50039 6.35231 4.65856 5.97104 4.93977 5.68983C5.22098 5.40863 5.60225 5.25045 5.99994 5.25L9.39536 5.25009C9.38171 5.12553 9.37489 5.00031 9.37494 4.875C9.37494 3.97989 9.73052 3.12145 10.3635 2.48851C10.9964 1.85558 11.8548 1.5 12.7499 1.5C13.645 1.5 14.5035 1.85558 15.1364 2.48851C15.7694 3.12145 16.1249 3.97989 16.1249 4.875C16.125 5.00031 16.1182 5.12553 16.1045 5.25009L19.4999 5.25C19.8976 5.25044 20.2789 5.40861 20.5601 5.68982C20.8413 5.97103 20.9995 6.35231 20.9999 6.75L21 10.2798C21 10.4031 20.9696 10.5246 20.9115 10.6333C20.8533 10.7421 20.7693 10.8348 20.6667 10.9034C20.5642 10.9719 20.4464 11.0141 20.3236 11.0262C20.2009 11.0383 20.0771 11.02 19.9632 10.9728C19.6974 10.8627 19.4126 10.8063 19.125 10.8068C17.8844 10.8068 16.875 11.8467 16.875 13.125C16.875 14.4033 17.8844 15.4432 19.125 15.4432C19.4126 15.4437 19.6974 15.3873 19.9632 15.2772C20.0771 15.2301 20.2009 15.2117 20.3236 15.2238C20.4464 15.2359 20.5642 15.2781 20.6667 15.3466C20.7693 15.4152 20.8533 15.5079 20.9115 15.6167C20.9696 15.7254 21 15.8469 21 15.9702Z" fill="#1D1F21" style="fill: var(--ui-icon-primary-color);"/>
</svg>
