<svg  viewBox="0 0 24 24" fill="none" xmlns="http://www.w3.org/2000/svg" id="__THIS_ID_NEEDS_FOR_UI_ICON_COMPONENT__">
<path d="M11.2502 5.25V9.75C11.2498 10.1477 11.0916 10.529 10.8104 10.8102C10.5292 11.0914 10.1479 11.2495 9.75023 11.25H5.25023C4.85254 11.2495 4.47128 11.0914 4.19007 10.8102C3.90886 10.529 3.75068 10.1477 3.75023 9.75V5.25C3.75068 4.85231 3.90886 4.47105 4.19007 4.18984C4.47128 3.90864 4.85254 3.75045 5.25023 3.75H9.75023C10.1479 3.75045 10.5292 3.90864 10.8104 4.18984C11.0916 4.47105 11.2498 4.85231 11.2502 5.25ZM9.75023 12.75H5.25023C4.85254 12.7505 4.47128 12.9086 4.19007 13.1898C3.90886 13.471 3.75068 13.8523 3.75023 14.25V18.75C3.75068 19.1477 3.90886 19.529 4.19007 19.8102C4.47128 20.0914 4.85254 20.2495 5.25023 20.25H9.75023C10.1479 20.2495 10.5292 20.0914 10.8104 19.8102C11.0916 19.529 11.2498 19.1477 11.2502 18.75V14.25C11.2498 13.8523 11.0916 13.471 10.8104 13.1898C10.5292 12.9086 10.1479 12.7505 9.75023 12.75ZM18.7502 3.75H14.2502C13.8525 3.75045 13.4713 3.90864 13.1901 4.18984C12.9089 4.47105 12.7507 4.85231 12.7502 5.25V9.75C12.7507 10.1477 12.9089 10.529 13.1901 10.8102C13.4713 11.0914 13.8525 11.2495 14.2502 11.25H18.7502C19.1479 11.2495 19.5292 11.0914 19.8104 10.8102C20.0916 10.529 20.2498 10.1477 20.2502 9.75V5.25C20.2498 4.85231 20.0916 4.47105 19.8104 4.18984C19.5292 3.90864 19.1479 3.75045 18.7502 3.75ZM13.5002 17.25C13.6991 17.25 13.8899 17.171 14.0305 17.0303C14.1712 16.8897 14.2502 16.6989 14.2502 16.5V13.5C14.2502 13.3011 14.1712 13.1103 14.0306 12.9697C13.8899 12.829 13.6991 12.75 13.5002 12.75C13.3013 12.75 13.1106 12.829 12.9699 12.9697C12.8292 13.1103 12.7502 13.3011 12.7502 13.5V16.5C12.7502 16.6989 12.8293 16.8897 12.9699 17.0303C13.1106 17.171 13.3013 17.25 13.5002 17.25ZM19.5002 14.25H17.2502V13.5C17.2502 13.3011 17.1712 13.1103 17.0306 12.9697C16.8899 12.829 16.6991 12.75 16.5002 12.75C16.3013 12.75 16.1106 12.829 15.9699 12.9697C15.8292 13.1103 15.7502 13.3011 15.7502 13.5V18.75H13.5002C13.3013 18.75 13.1106 18.829 12.9699 18.9697C12.8292 19.1103 12.7502 19.3011 12.7502 19.5C12.7502 19.6989 12.8292 19.8897 12.9699 20.0303C13.1106 20.171 13.3013 20.25 13.5002 20.25H16.5002C16.6991 20.25 16.8899 20.171 17.0305 20.0303C17.1712 19.8897 17.2502 19.6989 17.2502 19.5V15.75H19.5002C19.6991 15.75 19.8899 15.671 20.0306 15.5303C20.1712 15.3897 20.2502 15.1989 20.2502 15C20.2502 14.8011 20.1712 14.6103 20.0306 14.4697C19.8899 14.329 19.6991 14.25 19.5002 14.25ZM19.5002 17.25C19.3013 17.25 19.1106 17.329 18.9699 17.4697C18.8293 17.6103 18.7502 17.8011 18.7502 18V19.5C18.7502 19.6989 18.8292 19.8897 18.9699 20.0303C19.1106 20.171 19.3013 20.25 19.5002 20.25C19.6991 20.25 19.8899 20.171 20.0306 20.0303C20.1712 19.8897 20.2502 19.6989 20.2502 19.5V18C20.2502 17.8011 20.1712 17.6103 20.0305 17.4697C19.8899 17.329 19.6991 17.25 19.5002 17.25Z" fill="#1D1F21" style="fill: var(--ui-icon-primary-color);"/>
</svg>
