<svg  viewBox="0 0 24 24" fill="none" xmlns="http://www.w3.org/2000/svg" id="__THIS_ID_NEEDS_FOR_UI_ICON_COMPONENT__">
<path d="M12.0001 2.24951C10.0718 2.24951 8.18671 2.82134 6.58333 3.89268C4.97995 4.96403 3.73027 6.48677 2.99232 8.26835C2.25436 10.0499 2.06128 12.0103 2.43749 13.9016C2.81369 15.793 3.74229 17.5302 5.10585 18.8938C6.46941 20.2574 8.2067 21.186 10.098 21.5622C11.9893 21.9384 13.9497 21.7453 15.7313 21.0073C17.5129 20.2694 19.0356 19.0197 20.107 17.4163C21.1783 15.8129 21.7501 13.9279 21.7501 11.9995C21.7472 9.41455 20.719 6.9363 18.8912 5.10845C17.0634 3.28061 14.5851 2.25244 12.0001 2.24951ZM13.1252 17.2499C13.1252 17.5483 13.0066 17.8344 12.7956 18.0454C12.5845 18.2564 12.2984 18.3749 12 18.3749C11.7016 18.3749 11.4154 18.2563 11.2044 18.0453C10.9934 17.8343 10.8749 17.5481 10.8749 17.2497C10.8749 16.9513 10.9934 16.6651 11.2044 16.4541C11.4154 16.2431 11.7016 16.1245 12 16.1245C12.2984 16.1245 12.5845 16.243 12.7956 16.454C13.0066 16.6649 13.1252 16.9511 13.1252 17.2495V17.2499ZM14.6519 13.1512C14.133 13.6728 13.4713 14.0291 12.7501 14.175V14.2495C12.7501 14.4484 12.6711 14.6392 12.5305 14.7798C12.3898 14.9205 12.1991 14.9995 12.0001 14.9995C11.8012 14.9995 11.6105 14.9205 11.4698 14.7798C11.3292 14.6392 11.2501 14.4484 11.2501 14.2495V13.4995C11.2502 13.3006 11.3292 13.1098 11.4698 12.9692C11.6105 12.8285 11.8012 12.7495 12.0001 12.7495C12.4451 12.7495 12.8801 12.6175 13.2501 12.3703C13.62 12.1231 13.9084 11.7717 14.0787 11.3606C14.249 10.9495 14.2935 10.4971 14.2067 10.0607C14.1199 9.62424 13.9056 9.22336 13.5909 8.90871C13.2763 8.59407 12.8754 8.37979 12.439 8.29297C12.0026 8.20615 11.5502 8.2507 11.1391 8.42098C10.728 8.59125 10.3766 8.87961 10.1294 9.24958C9.88213 9.61956 9.75017 10.0545 9.75014 10.4995C9.75014 10.6984 9.67113 10.8892 9.53047 11.0298C9.38982 11.1705 9.19906 11.2495 9.00014 11.2495C8.80123 11.2495 8.61047 11.1705 8.46981 11.0298C8.32916 10.8892 8.25014 10.6984 8.25014 10.4995C8.25017 9.88283 8.40228 9.27568 8.693 8.73182C8.98372 8.18797 9.40408 7.72421 9.91683 7.38161C10.4296 7.03902 11.0189 6.82817 11.6326 6.76773C12.2463 6.70729 12.8655 6.79914 13.4352 7.03514C14.005 7.27114 14.5077 7.644 14.8989 8.1207C15.2901 8.59739 15.5578 9.16322 15.6781 9.76804C15.7984 10.3729 15.7677 10.998 15.5887 11.5882C15.4097 12.1783 15.0879 12.7152 14.6519 13.1512Z" fill="#1D1F21" style="fill: var(--ui-icon-primary-color);"/>
</svg>
