<svg  viewBox="0 0 24 24" fill="none" xmlns="http://www.w3.org/2000/svg" id="__THIS_ID_NEEDS_FOR_UI_ICON_COMPONENT__">
<path d="M6.75001 19.5C6.59733 19.5 6.44829 19.4534 6.3228 19.3665C6.19731 19.2795 6.10136 19.1563 6.04775 19.0134L1.54775 7.01336C1.47791 6.82711 1.48491 6.62075 1.56722 6.43966C1.64953 6.25857 1.80041 6.1176 1.98666 6.04776C2.17291 5.97791 2.37927 5.98491 2.56036 6.06722C2.74145 6.14953 2.88242 6.30041 2.95226 6.48666L6.75001 16.614L10.5478 6.48666C10.6014 6.3437 10.6973 6.22052 10.8228 6.13355C10.9483 6.04659 11.0973 6 11.25 6.00001H21.75C21.8485 6.00001 21.946 6.01941 22.037 6.0571C22.128 6.09479 22.2107 6.15003 22.2803 6.21967C22.35 6.28932 22.4052 6.372 22.4429 6.463C22.4806 6.55399 22.5 6.65152 22.5 6.75001V9.00001C22.5 9.19892 22.421 9.38969 22.2803 9.53034C22.1397 9.67099 21.9489 9.75001 21.75 9.75001C21.5511 9.75001 21.3603 9.67099 21.2197 9.53034C21.079 9.38969 21 9.19892 21 9.00001V7.50001H11.7698L7.45226 19.0134C7.39866 19.1563 7.3027 19.2795 7.17721 19.3665C7.05172 19.4534 6.90268 19.5 6.75001 19.5Z" fill="#1D1F21" style="fill: var(--ui-icon-primary-color);"/>
</svg>
