<svg  viewBox="0 0 24 24" fill="none" xmlns="http://www.w3.org/2000/svg" id="__THIS_ID_NEEDS_FOR_UI_ICON_COMPONENT__">
<path d="M17.25 15.75V17.25C17.25 17.4489 17.171 17.6397 17.0303 17.7803C16.8897 17.921 16.6989 18 16.5 18C16.3011 18 16.1103 17.921 15.9697 17.7803C15.829 17.6397 15.75 17.4489 15.75 17.25V15.75C15.75 14.7554 15.3549 13.8016 14.6517 13.0983C13.9484 12.3951 12.9946 12 12 12C11.0054 12 10.0516 12.3951 9.34835 13.0983C8.64509 13.8016 8.25 14.7554 8.25 15.75V17.25C8.25 17.4489 8.17098 17.6397 8.03033 17.7803C7.88968 17.921 7.69891 18 7.5 18C7.30109 18 7.11032 17.921 6.96967 17.7803C6.82902 17.6397 6.75 17.4489 6.75 17.25V15.75C6.75 14.3576 7.30312 13.0223 8.28769 12.0377C9.27226 11.0531 10.6076 10.5 12 10.5C13.3924 10.5 14.7277 11.0531 15.7123 12.0377C16.6969 13.0223 17.25 14.3576 17.25 15.75ZM12 4.5C9.01735 4.50338 6.15783 5.68973 4.04878 7.79878C1.93973 9.90783 0.75338 12.7674 0.75 15.75V17.25C0.75 17.4489 0.829018 17.6397 0.96967 17.7803C1.11032 17.921 1.30109 18 1.5 18C1.69891 18 1.88968 17.921 2.03033 17.7803C2.17098 17.6397 2.25 17.4489 2.25 17.25V15.75C2.25 13.1641 3.27723 10.6842 5.10571 8.85571C6.93419 7.02723 9.41414 6 12 6C14.5859 6 17.0658 7.02723 18.8943 8.85571C20.7228 10.6842 21.75 13.1641 21.75 15.75V17.25C21.75 17.4489 21.829 17.6397 21.9697 17.7803C22.1103 17.921 22.3011 18 22.5 18C22.6989 18 22.8897 17.921 23.0303 17.7803C23.171 17.6397 23.25 17.4489 23.25 17.25V15.75C23.2466 12.7674 22.0603 9.90783 19.9512 7.79878C17.8422 5.68973 14.9826 4.50338 12 4.5ZM12 7.5C9.81272 7.50247 7.71574 8.37246 6.1691 9.9191C4.62246 11.4657 3.75247 13.5627 3.75 15.75V17.25C3.75 17.4489 3.82902 17.6397 3.96967 17.7803C4.11032 17.921 4.30109 18 4.5 18C4.69891 18 4.88968 17.921 5.03033 17.7803C5.17098 17.6397 5.25 17.4489 5.25 17.25V15.75C5.25 13.9598 5.96116 12.2429 7.22703 10.977C8.4929 9.71116 10.2098 9 12 9C13.7902 9 15.5071 9.71116 16.773 10.977C18.0388 12.2429 18.75 13.9598 18.75 15.75V17.25C18.75 17.4489 18.829 17.6397 18.9697 17.7803C19.1103 17.921 19.3011 18 19.5 18C19.6989 18 19.8897 17.921 20.0303 17.7803C20.171 17.6397 20.25 17.4489 20.25 17.25V15.75C20.2475 13.5627 19.3775 11.4657 17.8309 9.9191C16.2843 8.37246 14.1873 7.50247 12 7.5Z" fill="#1D1F21" style="fill: var(--ui-icon-primary-color);"/>
</svg>
