<svg  viewBox="0 0 24 24" fill="none" xmlns="http://www.w3.org/2000/svg" id="__THIS_ID_NEEDS_FOR_UI_ICON_COMPONENT__">
<path d="M20.25 3.75H3.75C3.35231 3.75045 2.97105 3.90864 2.68984 4.18984C2.40864 4.47105 2.25045 4.85231 2.25 5.25V19.5C2.25 19.6278 2.28268 19.7536 2.34494 19.8652C2.40719 19.9769 2.49696 20.0708 2.60572 20.138C2.71447 20.2052 2.8386 20.2435 2.96632 20.2492C3.09404 20.255 3.2211 20.228 3.33545 20.1708L6 18.8385L8.66455 20.1708C8.76871 20.2229 8.88355 20.25 9 20.25C9.11645 20.25 9.23129 20.2229 9.33545 20.1708L12 18.8385L14.6646 20.1708C14.7687 20.2229 14.8836 20.25 15 20.25C15.1164 20.25 15.2313 20.2229 15.3354 20.1708L18 18.8385L20.6646 20.1708C20.7789 20.228 20.906 20.255 21.0337 20.2492C21.1614 20.2435 21.2855 20.2052 21.3943 20.138C21.503 20.0708 21.5928 19.9769 21.6551 19.8652C21.7173 19.7536 21.75 19.6278 21.75 19.5V5.25C21.7495 4.85231 21.5914 4.47105 21.3102 4.18984C21.029 3.90864 20.6477 3.75045 20.25 3.75ZM16.875 13.5H7.125C6.92609 13.5 6.73532 13.421 6.59467 13.2803C6.45402 13.1397 6.375 12.9489 6.375 12.75C6.375 12.5511 6.45402 12.3603 6.59467 12.2197C6.73532 12.079 6.92609 12 7.125 12H16.875C17.0739 12 17.2647 12.079 17.4053 12.2197C17.546 12.3603 17.625 12.5511 17.625 12.75C17.625 12.9489 17.546 13.1397 17.4053 13.2803C17.2647 13.421 17.0739 13.5 16.875 13.5ZM16.875 10.5H7.125C6.92609 10.5 6.73532 10.421 6.59467 10.2803C6.45402 10.1397 6.375 9.94891 6.375 9.75C6.375 9.55109 6.45402 9.36032 6.59467 9.21967C6.73532 9.07902 6.92609 9 7.125 9H16.875C17.0739 9 17.2647 9.07902 17.4053 9.21967C17.546 9.36032 17.625 9.55109 17.625 9.75C17.625 9.94891 17.546 10.1397 17.4053 10.2803C17.2647 10.421 17.0739 10.5 16.875 10.5Z" fill="#1D1F21" style="fill: var(--ui-icon-primary-color);"/>
</svg>
