<svg  viewBox="0 0 24 24" fill="none" xmlns="http://www.w3.org/2000/svg" id="__THIS_ID_NEEDS_FOR_UI_ICON_COMPONENT__">
<path d="M12 2.25C10.0716 2.25 8.18653 2.82183 6.58315 3.89317C4.97977 4.96451 3.73009 6.48726 2.99213 8.26884C2.25418 10.0504 2.0611 12.0108 2.4373 13.9021C2.81351 15.7934 3.74211 17.5307 5.10567 18.8943C6.46923 20.2579 8.20651 21.1865 10.0978 21.5627C11.9891 21.9389 13.9495 21.7458 15.7311 21.0078C17.5127 20.2699 19.0354 19.0202 20.1068 17.4168C21.1781 15.8134 21.75 13.9284 21.75 12C21.747 9.41504 20.7189 6.93679 18.891 5.10894C17.0632 3.28109 14.5849 2.25293 12 2.25ZM12 20.25C10.3683 20.25 8.77321 19.7661 7.4165 18.8596C6.0598 17.9531 5.00238 16.6646 4.37795 15.1571C3.75353 13.6496 3.59015 11.9908 3.90848 10.3905C4.22681 8.79016 5.01254 7.32015 6.16633 6.16637C7.32011 5.01259 8.79012 4.22685 10.3905 3.90852C11.9908 3.59019 13.6496 3.75357 15.1571 4.37799C16.6646 5.00242 17.9531 6.05984 18.8596 7.41655C19.7661 8.77325 20.25 10.3683 20.25 12C20.2475 14.1873 19.3775 16.2843 17.8309 17.8309C16.2842 19.3775 14.1872 20.2475 12 20.25ZM18.75 12C18.75 13.335 18.3541 14.6401 17.6124 15.7501C16.8707 16.8601 15.8165 17.7253 14.5831 18.2362C13.3497 18.7471 11.9925 18.8808 10.6831 18.6203C9.37373 18.3599 8.17099 17.717 7.22699 16.773C6.28298 15.829 5.64011 14.6262 5.37966 13.3169C5.11921 12.0075 5.25288 10.6503 5.76377 9.41689C6.27466 8.18349 7.13983 7.12928 8.24986 6.38758C9.35989 5.64588 10.6649 5.25 12 5.25C13.7896 5.25202 15.5053 5.96382 16.7707 7.22926C18.0361 8.49469 18.7479 10.2104 18.75 12Z" fill="#1D1F21" style="fill: var(--ui-icon-primary-color);"/>
</svg>
