<svg  viewBox="0 0 24 24" fill="none" xmlns="http://www.w3.org/2000/svg" id="__THIS_ID_NEEDS_FOR_UI_ICON_COMPONENT__">
<path d="M23.2499 9.75C23.2501 9.17502 23.0849 8.61212 22.7742 8.12834C22.4634 7.64457 22.0202 7.2603 21.4972 7.02133C20.9743 6.78235 20.3936 6.69874 19.8245 6.78044C19.2553 6.86214 18.7217 7.10571 18.287 7.48215C16.7163 6.64767 14.8406 6.14349 12.8808 6.02665L13.368 3.10392L15.4146 3.41877C15.5133 3.94038 15.7932 4.4103 16.2049 4.74548C16.6166 5.08067 17.1335 5.25952 17.6643 5.25044C18.1951 5.24135 18.7055 5.04492 19.1055 4.69585C19.5055 4.34678 19.7691 3.86755 19.8499 3.34286C19.9307 2.81818 19.8234 2.28183 19.547 1.82861C19.2706 1.37539 18.8428 1.03448 18.3394 0.86614C17.8359 0.697801 17.2891 0.71287 16.7957 0.908683C16.3023 1.1045 15.8939 1.46845 15.6429 1.9362L12.864 1.5087C12.6689 1.4786 12.4699 1.52661 12.3101 1.6423C12.1503 1.75799 12.0425 1.93203 12.0101 2.12668L11.362 6.01524C9.31464 6.10352 7.34831 6.61326 5.71282 7.48215C5.11729 6.96639 4.34275 6.70564 3.55656 6.75625C2.77037 6.80687 2.03566 7.16477 1.51119 7.75264C0.986714 8.3405 0.714593 9.11112 0.753626 9.89797C0.792659 10.6848 1.13971 11.4247 1.71979 11.9578C1.57417 12.4589 1.50015 12.9781 1.49992 13.5C1.49992 15.5564 2.62886 17.4705 4.67873 18.8896C6.64445 20.2506 9.24455 21 11.9999 21C14.7553 21 17.3554 20.2506 19.3211 18.8896C21.371 17.4705 22.4999 15.5564 22.4999 13.5C22.4997 12.9782 22.4257 12.459 22.28 11.9579C22.5849 11.6764 22.8283 11.335 22.9952 10.9551C23.1621 10.5752 23.2488 10.1649 23.2499 9.75ZM6.74992 12.375C6.74992 12.0783 6.8379 11.7883 7.00272 11.5416C7.16754 11.295 7.40181 11.1027 7.6759 10.9892C7.94999 10.8757 8.25159 10.8459 8.54256 10.9038C8.83353 10.9617 9.1008 11.1046 9.31058 11.3143C9.52036 11.5241 9.66322 11.7914 9.7211 12.0824C9.77898 12.3733 9.74927 12.6749 9.63574 12.949C9.52221 13.2231 9.32995 13.4574 9.08328 13.6222C8.83661 13.787 8.5466 13.875 8.24992 13.875C7.85224 13.8745 7.47097 13.7164 7.18977 13.4352C6.90856 13.154 6.75038 12.7727 6.74992 12.375ZM15.4402 17.1665C14.3763 17.7147 13.1968 18.0006 11.9999 18.0006C10.8031 18.0006 9.62361 17.7147 8.55969 17.1665C8.38355 17.0749 8.25091 16.9172 8.19085 16.728C8.13078 16.5388 8.1482 16.3334 8.23929 16.157C8.33037 15.9806 8.48768 15.8475 8.67674 15.7869C8.8658 15.7263 9.07118 15.7431 9.24785 15.8337C10.0989 16.2722 11.0425 16.501 11.9999 16.501C12.9573 16.501 13.9009 16.2722 14.752 15.8337C14.9287 15.7426 15.1344 15.7253 15.3238 15.7858C15.5133 15.8463 15.6709 15.9795 15.7621 16.1562C15.8534 16.3329 15.8707 16.5385 15.8103 16.728C15.75 16.9175 15.6168 17.0752 15.4402 17.1665ZM15.7499 13.875C15.4533 13.875 15.1632 13.787 14.9166 13.6222C14.6699 13.4574 14.4776 13.2231 14.3641 12.949C14.2506 12.6749 14.2209 12.3733 14.2787 12.0824C14.3366 11.7914 14.4795 11.5241 14.6893 11.3143C14.899 11.1046 15.1663 10.9617 15.4573 10.9038C15.7483 10.8459 16.0499 10.8757 16.3239 10.9892C16.598 11.1027 16.8323 11.295 16.9971 11.5416C17.1619 11.7883 17.2499 12.0783 17.2499 12.375C17.2495 12.7727 17.0913 13.154 16.8101 13.4352C16.5289 13.7164 16.1476 13.8745 15.7499 13.875Z" fill="#1D1F21" style="fill: var(--ui-icon-primary-color);"/>
</svg>
