<svg  viewBox="0 0 24 24" fill="none" xmlns="http://www.w3.org/2000/svg" id="__THIS_ID_NEEDS_FOR_UI_ICON_COMPONENT__">
<path d="M2.25 12C2.25 13.9284 2.82183 15.8134 3.89317 17.4168C4.96451 19.0202 6.48726 20.2699 8.26884 21.0078C10.0504 21.7458 12.0108 21.9389 13.9021 21.5627C15.7934 21.1865 17.5307 20.2579 18.8943 18.8943C20.2579 17.5307 21.1865 15.7934 21.5627 13.9021C21.9389 12.0108 21.7458 10.0504 21.0078 8.26884C20.2699 6.48726 19.0202 4.96451 17.4168 3.89317C15.8134 2.82183 13.9284 2.25 12 2.25C9.41504 2.25293 6.93679 3.28109 5.10894 5.10894C3.28109 6.93679 2.25293 9.41504 2.25 12ZM5.25 12C5.25 11.8765 5.28048 11.755 5.33875 11.6461C5.39701 11.5372 5.48125 11.4445 5.58398 11.376L10.084 8.37598C10.1969 8.30068 10.3282 8.25746 10.4638 8.25091C10.5994 8.24436 10.7342 8.27473 10.8539 8.33878C10.9736 8.40283 11.0736 8.49816 11.1434 8.61461C11.2131 8.73106 11.25 8.86425 11.25 9V12C11.25 11.8765 11.2805 11.755 11.3387 11.6461C11.397 11.5372 11.4812 11.4445 11.584 11.376L16.084 8.37598C16.1969 8.30068 16.3282 8.25746 16.4638 8.25091C16.5994 8.24436 16.7342 8.27473 16.8539 8.33878C16.9736 8.40283 17.0736 8.49816 17.1434 8.61461C17.2131 8.73106 17.25 8.86425 17.25 9V15C17.25 15.1357 17.2132 15.269 17.1434 15.3854C17.0736 15.5019 16.9736 15.5972 16.8539 15.6613C16.7342 15.7253 16.5994 15.7557 16.4638 15.7491C16.3282 15.7426 16.1969 15.6993 16.084 15.624L11.584 12.624C11.4812 12.5555 11.397 12.4627 11.3387 12.3539C11.2805 12.245 11.25 12.1235 11.25 12V15C11.25 15.1357 11.2132 15.269 11.1434 15.3854C11.0736 15.5019 10.9736 15.5972 10.8539 15.6613C10.7342 15.7253 10.5994 15.7557 10.4638 15.7491C10.3282 15.7426 10.1969 15.6993 10.084 15.624L5.58398 12.624C5.48125 12.5555 5.39701 12.4627 5.33875 12.3539C5.28048 12.245 5.25 12.1235 5.25 12Z" fill="#1D1F21" style="fill: var(--ui-icon-primary-color);"/>
</svg>
