<svg  viewBox="0 0 24 24" fill="none" xmlns="http://www.w3.org/2000/svg" id="__THIS_ID_NEEDS_FOR_UI_ICON_COMPONENT__">
<path d="M14.25 20.9994C14.25 21.1983 14.171 21.389 14.0303 21.5297C13.8896 21.6704 13.6989 21.7494 13.5 21.7494H10.5C10.3011 21.7494 10.1103 21.6704 9.96964 21.5297C9.82899 21.3891 9.74997 21.1983 9.74997 20.9994C9.74997 20.8005 9.82899 20.6097 9.96964 20.469C10.1103 20.3284 10.3011 20.2494 10.5 20.2494H13.5C13.6989 20.2494 13.8896 20.3284 14.0303 20.469C14.171 20.6097 14.25 20.8005 14.25 20.9994ZM20.9022 14.7719L19.7431 19.9874C19.6887 20.2364 19.5713 20.4673 19.4022 20.658C19.2331 20.8487 19.0179 20.9929 18.7773 21.0768C18.6163 21.1337 18.4468 21.1629 18.276 21.163C17.9361 21.1627 17.6065 21.0464 17.3418 20.8333L14.7369 18.7494H9.263L6.65805 20.8333C6.45916 20.9924 6.22301 21.0983 5.97188 21.1409C5.72075 21.1835 5.4629 21.1614 5.22265 21.0768C4.9824 20.9922 4.76766 20.8478 4.59868 20.6572C4.4297 20.4665 4.31205 20.2361 4.25681 19.9874L3.09775 14.7718C3.04872 14.5479 3.05134 14.3157 3.1054 14.093C3.15946 13.8702 3.26355 13.6627 3.40977 13.4861L6.1855 10.1552C6.26963 9.00714 6.52551 7.87821 6.94461 6.80609C8.04471 3.97331 9.99497 2.11964 11.0595 1.26678C11.3274 1.05407 11.6597 0.93881 12.0018 0.93995C12.3439 0.94109 12.6754 1.05856 12.9419 1.27305C13.9927 2.12678 15.9182 3.98182 17.0074 6.81419C17.4129 7.86259 17.6649 8.96406 17.7555 10.0845L20.5902 13.4861C20.7364 13.6627 20.8405 13.8702 20.8946 14.093C20.9486 14.3158 20.9512 14.548 20.9022 14.7719ZM8.03707 17.8093C7.05516 15.9786 6.45703 14.1854 6.24266 12.4296L4.56205 14.4464L5.7211 19.662L8.03707 17.8093ZM13.125 8.99938C13.125 8.77687 13.059 8.55936 12.9354 8.37436C12.8118 8.18935 12.6361 8.04516 12.4305 7.96001C12.2249 7.87486 11.9987 7.85258 11.7805 7.89599C11.5623 7.9394 11.3618 8.04655 11.2045 8.20388C11.0471 8.36121 10.94 8.56167 10.8966 8.7799C10.8532 8.99813 10.8755 9.22433 10.9606 9.42989C11.0458 9.63546 11.19 9.81116 11.375 9.93478C11.56 10.0584 11.7775 10.1244 12 10.1244C12.2983 10.1244 12.5845 10.0058 12.7955 9.79487C13.0064 9.58389 13.125 9.29774 13.125 8.99938ZM19.4379 14.4464L17.7157 12.3798C17.5158 14.1467 16.9301 15.9553 15.9586 17.8058L18.2788 19.662L19.4379 14.4464Z" fill="#1D1F21" style="fill: var(--ui-icon-primary-color);"/>
</svg>
