<svg  viewBox="0 0 24 24" fill="none" xmlns="http://www.w3.org/2000/svg" id="__THIS_ID_NEEDS_FOR_UI_ICON_COMPONENT__">
<path d="M21 14.25V18.75C20.9995 19.1477 20.8414 19.529 20.5602 19.8102C20.279 20.0914 19.8977 20.2495 19.5 20.25H4.5C4.10231 20.2495 3.72105 20.0914 3.43984 19.8102C3.15864 19.529 3.00045 19.1477 3 18.75V14.25C3.00045 13.8523 3.15864 13.471 3.43984 13.1898C3.72105 12.9086 4.10231 12.7505 4.5 12.75H19.5C19.8977 12.7505 20.279 12.9086 20.5602 13.1898C20.8414 13.471 20.9995 13.8523 21 14.25ZM19.5 3.75H4.5C4.10231 3.75045 3.72105 3.90864 3.43984 4.18984C3.15864 4.47105 3.00045 4.85231 3 5.25V9.75C3.00045 10.1477 3.15864 10.529 3.43984 10.8102C3.72105 11.0914 4.10231 11.2495 4.5 11.25H19.5C19.8977 11.2495 20.279 11.0914 20.5602 10.8102C20.8414 10.529 20.9995 10.1477 21 9.75V5.25C20.9995 4.85231 20.8414 4.47105 20.5602 4.18984C20.279 3.90864 19.8977 3.75045 19.5 3.75Z" fill="#1D1F21" style="fill: var(--ui-icon-primary-color);"/>
</svg>
