<svg  viewBox="0 0 24 24" fill="none" xmlns="http://www.w3.org/2000/svg" id="__THIS_ID_NEEDS_FOR_UI_ICON_COMPONENT__">
<path d="M6.375 18.75C6.375 18.9725 6.30902 19.19 6.1854 19.375C6.06179 19.56 5.88609 19.7042 5.68052 19.7894C5.47495 19.8745 5.24875 19.8968 5.03052 19.8534C4.8123 19.81 4.61184 19.7028 4.45451 19.5455C4.29717 19.3882 4.19003 19.1877 4.14662 18.9695C4.10321 18.7512 4.12549 18.525 4.21064 18.3195C4.29578 18.1139 4.43998 17.9382 4.62498 17.8146C4.80999 17.691 5.0275 17.625 5.25 17.625C5.54827 17.6253 5.83422 17.744 6.04513 17.9549C6.25603 18.1658 6.37467 18.4517 6.375 18.75ZM5.25 3.75C5.05109 3.75 4.86032 3.82902 4.71967 3.96967C4.57902 4.11032 4.5 4.30109 4.5 4.5C4.5 4.69891 4.57902 4.88968 4.71967 5.03033C4.86032 5.17098 5.05109 5.25 5.25 5.25C12.6939 5.25 18.75 11.306 18.75 18.75C18.75 18.9489 18.829 19.1397 18.9697 19.2803C19.1103 19.421 19.3011 19.5 19.5 19.5C19.6989 19.5 19.8897 19.421 20.0303 19.2803C20.171 19.1397 20.25 18.9489 20.25 18.75C20.25 10.4789 13.521 3.75 5.25 3.75ZM5.25 10.5C5.05109 10.5 4.86032 10.579 4.71967 10.7197C4.57902 10.8603 4.5 11.0511 4.5 11.25C4.5 11.4489 4.57902 11.6397 4.71967 11.7803C4.86032 11.921 5.05109 12 5.25 12C7.03959 12.002 8.75531 12.7138 10.0207 13.9793C11.2862 15.2447 11.998 16.9604 12 18.75C12 18.9489 12.079 19.1397 12.2197 19.2803C12.3603 19.421 12.5511 19.5 12.75 19.5C12.9489 19.5 13.1397 19.421 13.2803 19.2803C13.421 19.1397 13.5 18.9489 13.5 18.75C13.4975 16.5627 12.6275 14.4657 11.0809 12.9191C9.53426 11.3725 7.43728 10.5025 5.25 10.5Z" fill="#1D1F21" style="fill: var(--ui-icon-primary-color);"/>
</svg>
