<svg  viewBox="0 0 24 24" fill="none" xmlns="http://www.w3.org/2000/svg" id="__THIS_ID_NEEDS_FOR_UI_ICON_COMPONENT__">
<path d="M5.99999 19.1246C5.99999 19.3471 5.93401 19.5646 5.8104 19.7496C5.68678 19.9346 5.51108 20.0788 5.30551 20.1639C5.09994 20.2491 4.87375 20.2714 4.65552 20.228C4.43729 20.1845 4.23683 20.0774 4.0795 19.9201C3.92216 19.7627 3.81502 19.5623 3.77161 19.344C3.7282 19.1258 3.75048 18.8996 3.83563 18.6941C3.92078 18.4885 4.06497 18.3128 4.24998 18.1892C4.43498 18.0655 4.65249 17.9996 4.87499 17.9996C5.17326 17.9999 5.45921 18.1185 5.67012 18.3294C5.88103 18.5403 5.99966 18.8263 5.99999 19.1246ZM15.6369 8.36264C14.1778 6.89555 12.4422 5.73243 10.5305 4.9406C8.61886 4.14877 6.56914 3.74395 4.49999 3.74957C4.30108 3.74957 4.11032 3.82859 3.96966 3.96924C3.82901 4.10989 3.74999 4.30066 3.74999 4.49957C3.74999 4.69848 3.82901 4.88925 3.96966 5.0299C4.11032 5.17055 4.30108 5.24957 4.49999 5.24957C6.37209 5.24446 8.22662 5.61073 9.95622 6.32716C11.6858 7.04359 13.2561 8.09597 14.5763 9.42337C15.9037 10.7435 16.956 12.3138 17.6724 14.0434C18.3889 15.773 18.7551 17.6275 18.75 19.4996C18.75 19.6985 18.829 19.8892 18.9697 20.0299C19.1103 20.1706 19.3011 20.2496 19.5 20.2496C19.6989 20.2496 19.8897 20.1706 20.0303 20.0299C20.171 19.8892 20.25 19.6985 20.25 19.4996C20.2556 17.4304 19.8508 15.3807 19.059 13.469C18.2672 11.5574 17.104 9.82176 15.6369 8.36264ZM4.49999 12.7496C4.30108 12.7496 4.11032 12.8286 3.96966 12.9692C3.82901 13.1099 3.74999 13.3007 3.74999 13.4996C3.74999 13.6985 3.82901 13.8892 3.96966 14.0299C4.11032 14.1706 4.30108 14.2496 4.49999 14.2496C5.89238 14.2496 7.22773 14.8027 8.2123 15.7873C9.19686 16.7718 9.74999 18.1072 9.74999 19.4996C9.74999 19.6985 9.82901 19.8892 9.96966 20.0299C10.1103 20.1706 10.3011 20.2496 10.5 20.2496C10.6989 20.2496 10.8897 20.1706 11.0303 20.0299C11.171 19.8892 11.25 19.6985 11.25 19.4996C11.25 18.6131 11.0754 17.7354 10.7362 16.9164C10.397 16.0975 9.89978 15.3534 9.27298 14.7266C8.64618 14.0998 7.90207 13.6026 7.08311 13.2634C6.26416 12.9242 5.38642 12.7496 4.49999 12.7496ZM4.49999 8.24957C4.30108 8.24957 4.11032 8.32859 3.96966 8.46924C3.82901 8.60989 3.74999 8.80066 3.74999 8.99957C3.74999 9.19848 3.82901 9.38925 3.96966 9.5299C4.11032 9.67055 4.30108 9.74957 4.49999 9.74957C7.08584 9.74961 9.56576 10.7769 11.3942 12.6053C13.2227 14.4338 14.2499 16.9137 14.25 19.4996C14.25 19.6985 14.329 19.8892 14.4697 20.0299C14.6103 20.1706 14.8011 20.2496 15 20.2496C15.1989 20.2496 15.3897 20.1706 15.5303 20.0299C15.671 19.8892 15.75 19.6985 15.75 19.4996C15.75 16.5159 14.5647 13.6544 12.4549 11.5446C10.3451 9.43486 7.48367 8.24959 4.49999 8.24957Z" fill="#1D1F21" style="fill: var(--ui-icon-primary-color);"/>
</svg>
