<svg  viewBox="0 0 24 24" fill="none" xmlns="http://www.w3.org/2000/svg" id="__THIS_ID_NEEDS_FOR_UI_ICON_COMPONENT__">
<path d="M14.7873 10.6064C14.675 10.4422 14.6325 10.2402 14.6692 10.0447C14.7058 9.84916 14.8186 9.67622 14.9828 9.56389L21.3265 5.22347C21.4906 5.11114 21.6927 5.06863 21.8882 5.10529C22.0837 5.14195 22.2566 5.25477 22.369 5.41894C22.4813 5.5831 22.5238 5.78517 22.4871 5.98067C22.4505 6.17618 22.3377 6.34912 22.1735 6.46145L15.8299 10.8019C15.7486 10.8575 15.6571 10.8966 15.5607 10.9169C15.4644 10.9372 15.3649 10.9383 15.2681 10.9201C15.1713 10.902 15.079 10.8649 14.9965 10.8111C14.914 10.7573 14.8429 10.6877 14.7873 10.6064V10.6064ZM22.369 18.5818C22.3134 18.6631 22.2423 18.7327 22.1598 18.7865C22.0773 18.8404 21.985 18.8774 21.8882 18.8956C21.7914 18.9137 21.6919 18.9126 21.5956 18.8923C21.4992 18.872 21.4077 18.8329 21.3264 18.7773L12.75 12.9092L8.76504 15.6357C9.07107 16.4079 9.08189 17.2657 8.79544 18.0454C8.50899 18.8251 7.94535 19.4718 7.21219 19.8622C6.47903 20.2526 5.62775 20.3592 4.82098 20.1616C4.01421 19.964 3.3085 19.4762 2.83867 18.7912C2.36885 18.1062 2.16784 17.2722 2.27405 16.4484C2.38025 15.6246 2.78623 14.8688 3.41443 14.3254C4.04262 13.782 4.84899 13.4891 5.67949 13.5026C6.50999 13.5161 7.3064 13.8352 7.91657 14.3987L11.4218 12.0004L7.91653 9.6021C7.30911 10.1618 6.51687 10.4781 5.69103 10.4908C4.86519 10.5035 4.06359 10.2116 3.43926 9.67092C2.81493 9.13019 2.41159 8.37849 2.30623 7.55929C2.20088 6.7401 2.40089 5.9108 2.86808 5.2297C3.33527 4.54859 4.03693 4.06339 4.83911 3.8667C5.64128 3.67002 6.4878 3.77563 7.21706 4.16338C7.94633 4.55113 8.50726 5.19386 8.79278 5.96887C9.07831 6.74389 9.06843 7.59691 8.76502 8.36511L22.1735 17.5393C22.3377 17.6517 22.4505 17.8246 22.4871 18.0201C22.5238 18.2156 22.4813 18.4177 22.369 18.5818ZM7.49997 16.8754C7.49998 16.4416 7.34958 16.0212 7.0744 15.6859C6.79921 15.3505 6.41626 15.121 5.99081 15.0364C5.56535 14.9517 5.12371 15.0172 4.74114 15.2217C4.35856 15.4262 4.05872 15.757 3.89271 16.1578C3.7267 16.5585 3.70478 17.0045 3.8307 17.4196C3.95662 17.8347 4.22258 18.1933 4.58326 18.4343C4.94395 18.6753 5.37704 18.7838 5.80874 18.7413C6.24045 18.6988 6.64405 18.5079 6.95079 18.2012C7.12545 18.0275 7.26392 17.8209 7.35819 17.5933C7.45246 17.3657 7.50065 17.1217 7.49997 16.8754ZM6.95079 8.45116C7.21302 8.18894 7.3916 7.85484 7.46394 7.49113C7.53629 7.12741 7.49916 6.75041 7.35725 6.4078C7.21533 6.06519 6.97501 5.77235 6.66667 5.56632C6.35833 5.3603 5.99581 5.25033 5.62497 5.25033C5.25413 5.25033 4.89162 5.3603 4.58328 5.56632C4.27493 5.77235 4.03461 6.06519 3.8927 6.4078C3.75078 6.75041 3.71365 7.12741 3.786 7.49113C3.85835 7.85484 4.03693 8.18894 4.29915 8.45116C4.47242 8.62677 4.67884 8.7662 4.90644 8.86138C5.13404 8.95655 5.37828 9.00556 5.62497 9.00556C5.87167 9.00556 6.11591 8.95655 6.3435 8.86138C6.5711 8.7662 6.77753 8.62677 6.95079 8.45116Z" fill="#1D1F21" style="fill: var(--ui-icon-primary-color);"/>
</svg>
