<svg  viewBox="0 0 24 24" fill="none" xmlns="http://www.w3.org/2000/svg" id="__THIS_ID_NEEDS_FOR_UI_ICON_COMPONENT__">
<path d="M18.75 20.2496C18.75 20.4485 18.671 20.6392 18.5303 20.7799C18.3897 20.9205 18.1989 20.9996 18 20.9996H3.75C3.35231 20.9991 2.97105 20.8409 2.68984 20.5597C2.40864 20.2785 2.25045 19.8973 2.25 19.4996V8.24957C2.25 8.05065 2.32902 7.85989 2.46967 7.71924C2.61032 7.57858 2.80109 7.49957 3 7.49957C3.19891 7.49957 3.38968 7.57858 3.53033 7.71924C3.67098 7.85989 3.75 8.05065 3.75 8.24957V19.4996H18C18.1989 19.4996 18.3897 19.5786 18.5303 19.7192C18.671 19.8599 18.75 20.0507 18.75 20.2496ZM21.5797 10.2254C21.5882 10.215 21.5957 10.2041 21.6036 10.1933C21.6102 10.1844 21.6172 10.1757 21.6234 10.1665C21.6314 10.1546 21.6383 10.1423 21.6455 10.1301C21.6507 10.1212 21.6563 10.1126 21.6612 10.1035C21.6677 10.0914 21.6732 10.079 21.679 10.0666C21.6836 10.0567 21.6885 10.047 21.6927 10.037C21.6976 10.025 21.7016 10.013 21.7059 10.0009C21.7099 9.9898 21.7141 9.97891 21.7176 9.9676C21.7212 9.95551 21.7239 9.94325 21.727 9.93102C21.7298 9.91949 21.7331 9.90813 21.7354 9.89642C21.7382 9.88218 21.74 9.86785 21.742 9.85352C21.7433 9.84359 21.7453 9.83388 21.7463 9.82381C21.7512 9.77444 21.7512 9.72469 21.7463 9.67531C21.7453 9.66524 21.7433 9.65554 21.742 9.6456C21.74 9.63128 21.7382 9.61695 21.7354 9.60271C21.7331 9.59099 21.7298 9.57964 21.727 9.56811C21.7239 9.55588 21.7212 9.54362 21.7176 9.53153C21.7141 9.52022 21.7099 9.50933 21.7059 9.49825C21.7016 9.48616 21.6976 9.47408 21.6927 9.46218C21.6885 9.45211 21.6836 9.4424 21.679 9.43251C21.6732 9.42016 21.6677 9.4077 21.6612 9.39562C21.6563 9.38651 21.6507 9.3779 21.6455 9.36907C21.6383 9.35685 21.6313 9.34453 21.6234 9.33268C21.6172 9.32343 21.6102 9.31473 21.6036 9.30581C21.5957 9.29505 21.5882 9.28415 21.5797 9.27376C21.5688 9.26053 21.557 9.24813 21.5452 9.23568C21.5401 9.23023 21.5357 9.22451 21.5304 9.2192L17.0304 4.7192C16.8897 4.57853 16.6989 4.49951 16.5 4.49951C16.3011 4.49951 16.1103 4.57853 15.9696 4.7192C15.829 4.85986 15.75 5.05064 15.75 5.24956C15.75 5.44849 15.829 5.63927 15.9696 5.77993L19.1893 8.99957H15.75C13.5878 8.99813 11.4864 9.7159 9.77692 11.0399C8.0674 12.3638 6.84678 14.2188 6.30725 16.3126C6.28258 16.408 6.27696 16.5074 6.29071 16.605C6.30446 16.7026 6.33731 16.7965 6.38738 16.8814C6.43745 16.9663 6.50376 17.0404 6.58252 17.0997C6.66128 17.1589 6.75095 17.2021 6.84639 17.2266C6.94183 17.2512 7.04118 17.2567 7.13876 17.2429C7.23633 17.229 7.33022 17.1961 7.41505 17.1459C7.49989 17.0957 7.574 17.0293 7.63316 16.9505C7.69232 16.8717 7.73536 16.782 7.75983 16.6865C8.2165 14.9149 9.24942 13.3455 10.696 12.2255C12.1425 11.1054 13.9205 10.4982 15.75 10.4996H19.1893L15.9696 13.7192C15.829 13.8599 15.75 14.0506 15.75 14.2496C15.75 14.4485 15.829 14.6393 15.9696 14.7799C16.1103 14.9206 16.3011 14.9996 16.5 14.9996C16.6989 14.9996 16.8897 14.9206 17.0304 14.7799L21.5304 10.2799C21.5357 10.2746 21.5401 10.2689 21.5452 10.2635C21.557 10.251 21.5688 10.2386 21.5797 10.2254Z" fill="#1D1F21" style="fill: var(--ui-icon-primary-color);"/>
</svg>
