<svg  viewBox="0 0 24 24" fill="none" xmlns="http://www.w3.org/2000/svg" id="__THIS_ID_NEEDS_FOR_UI_ICON_COMPONENT__">
<path d="M20.25 18.7502C20.2504 19.3013 20.1293 19.8457 19.8954 20.3447C19.6614 20.8437 19.3204 21.285 18.8965 21.6372C18.4726 21.9894 17.9763 22.2438 17.4429 22.3824C16.9095 22.521 16.3521 22.5403 15.8104 22.4389C15.2687 22.3376 14.756 22.1181 14.3088 21.7961C13.8616 21.4741 13.4908 21.0574 13.2229 20.5758C12.955 20.0942 12.7965 19.5595 12.7588 19.0097C12.7211 18.4599 12.805 17.9085 13.0046 17.3948L8.68286 14.6166C8.16245 15.1509 7.4945 15.5179 6.76441 15.6707C6.03431 15.8235 5.27525 15.7551 4.58425 15.4742C3.89325 15.1933 3.30171 14.7127 2.88526 14.0939C2.46881 13.4751 2.24637 12.7461 2.24637 12.0002C2.24637 11.2543 2.46881 10.5253 2.88526 9.90652C3.30171 9.2877 3.89325 8.80713 4.58425 8.52625C5.27525 8.24536 6.03431 8.17693 6.76441 8.3297C7.4945 8.48247 8.16245 8.8495 8.68286 9.38386L13.0046 6.60562C12.6662 5.73731 12.6623 4.77426 12.9937 3.90325C13.3251 3.03225 13.9682 2.31536 14.7982 1.89162C15.6282 1.46788 16.586 1.36749 17.4859 1.60992C18.3857 1.85235 19.1635 2.42033 19.6683 3.20369C20.1731 3.98705 20.369 4.92997 20.218 5.84958C20.067 6.7692 19.5798 7.59996 18.851 8.18075C18.1222 8.76154 17.2037 9.05097 16.2735 8.99291C15.3434 8.93485 14.468 8.53343 13.8171 7.86651L9.49543 10.6447C9.83485 11.5165 9.83485 12.4839 9.49543 13.3557L13.8171 16.1339C14.3372 15.5995 15.0049 15.2325 15.7348 15.0797C16.4647 14.9269 17.2236 14.9954 17.9144 15.2763C18.6051 15.5573 19.1964 16.0379 19.6124 16.6567C20.0285 17.2756 20.2505 18.0045 20.25 18.7502Z" fill="#1D1F21" style="fill: var(--ui-icon-primary-color);"/>
</svg>
