<svg  viewBox="0 0 24 24" fill="none" xmlns="http://www.w3.org/2000/svg" id="__THIS_ID_NEEDS_FOR_UI_ICON_COMPONENT__">
<path d="M19.5 3H4.49995C4.10227 3.00045 3.721 3.15864 3.4398 3.43984C3.15859 3.72105 3.00041 4.10231 2.99995 4.5V10C2.99995 18.3863 10.1087 21.1679 11.5337 21.6404C11.8361 21.743 12.1638 21.743 12.4662 21.6404C13.8913 21.1679 21 18.3863 21 10V4.5C20.9995 4.10231 20.8413 3.72105 20.5601 3.43984C20.2789 3.15864 19.8976 3.00045 19.5 3ZM11.25 8.25C11.25 8.05109 11.329 7.86032 11.4696 7.71967C11.6103 7.57902 11.801 7.5 12 7.5C12.1989 7.5 12.3896 7.57902 12.5303 7.71967C12.6709 7.86032 12.75 8.05109 12.75 8.25V12C12.75 12.1989 12.6709 12.3897 12.5303 12.5303C12.3896 12.671 12.1989 12.75 12 12.75C11.801 12.75 11.6103 12.671 11.4696 12.5303C11.329 12.3897 11.25 12.1989 11.25 12V8.25ZM12 16.5C11.7775 16.5 11.5599 16.434 11.3749 16.3104C11.1899 16.1868 11.0457 16.0111 10.9606 15.8055C10.8754 15.6 10.8532 15.3738 10.8966 15.1555C10.94 14.9373 11.0471 14.7368 11.2045 14.5795C11.3618 14.4222 11.5622 14.315 11.7805 14.2716C11.9987 14.2282 12.2249 14.2505 12.4305 14.3356C12.636 14.4208 12.8117 14.565 12.9354 14.75C13.059 14.935 13.125 15.1525 13.125 15.375C13.125 15.6734 13.0064 15.9595 12.7954 16.1705C12.5845 16.3815 12.2983 16.5 12 16.5Z" fill="#1D1F21" style="fill: var(--ui-icon-primary-color);"/>
</svg>
