<svg  viewBox="0 0 24 24" fill="none" xmlns="http://www.w3.org/2000/svg" id="__THIS_ID_NEEDS_FOR_UI_ICON_COMPONENT__">
<path d="M19.5 3H4.49995C4.10227 3.00045 3.721 3.15863 3.43979 3.43984C3.15859 3.72105 3.00041 4.10231 2.99995 4.5V9.99999C2.99995 18.3862 10.1087 21.1679 11.5337 21.6404C11.8361 21.743 12.1638 21.743 12.4662 21.6404C13.8913 21.1679 21 18.3862 21 9.99999V4.5C20.9995 4.10231 20.8413 3.72104 20.5601 3.43984C20.2789 3.15863 19.8976 3.00045 19.5 3ZM4.49995 4.5H19.5V9.99999C19.5 11.6577 19.1817 13.0653 18.6753 14.2572L12.4301 9.88557C12.304 9.79733 12.1538 9.75001 12 9.75001C11.8461 9.75001 11.6959 9.79733 11.5698 9.88557L5.32457 14.2572C4.81819 13.0653 4.49995 11.6577 4.49995 9.99998V4.5Z" fill="#1D1F21" style="fill: var(--ui-icon-primary-color);"/>
</svg>
