<svg  viewBox="0 0 24 24" fill="none" xmlns="http://www.w3.org/2000/svg" id="__THIS_ID_NEEDS_FOR_UI_ICON_COMPONENT__">
<path d="M21.3682 22.3046C21.2209 22.4383 21.0266 22.5082 20.8279 22.4987C20.6292 22.4893 20.4424 22.4013 20.3086 22.2541L17.2061 18.8414C15.8285 20.0809 14.217 21.0324 12.4663 21.64C12.1639 21.7425 11.8361 21.7425 11.5337 21.64C10.1086 21.1675 2.99993 18.3856 2.99993 9.9996V4.49957C2.99991 4.16235 3.11417 3.83507 3.32407 3.57113L2.58135 2.75412C2.44753 2.60692 2.37767 2.4126 2.38713 2.2139C2.39659 2.0152 2.4846 1.82839 2.63179 1.69458C2.77899 1.56076 2.97331 1.4909 3.17201 1.50036C3.37072 1.50982 3.55752 1.59783 3.69134 1.74502L10.1817 8.88444L17.7949 17.2588L17.7956 17.2597L21.4186 21.245C21.5524 21.3922 21.6222 21.5865 21.6128 21.7852C21.6033 21.9839 21.5153 22.1707 21.3682 22.3046ZM18.477 15.7794C18.5584 15.8689 18.6602 15.9374 18.7738 15.979C18.8873 16.0207 19.0093 16.0342 19.1292 16.0186C19.2492 16.0029 19.3636 15.9584 19.4626 15.889C19.5616 15.8195 19.6424 15.7272 19.6981 15.6198C20.5619 13.9512 20.9999 12.0604 20.9999 9.9996V4.49957C20.9995 4.10189 20.8413 3.72062 20.5601 3.43941C20.2789 3.15821 19.8976 3.00003 19.4999 2.99957H8.55434C8.40904 2.99957 8.26687 3.04178 8.1451 3.12106C8.02333 3.20034 7.92721 3.31329 7.86843 3.44617C7.80965 3.57905 7.79072 3.72614 7.81397 3.86958C7.83721 4.01301 7.90161 4.1466 7.99935 4.25412L18.477 15.7794Z" fill="#1D1F21" style="fill: var(--ui-icon-primary-color);"/>
</svg>
