<svg  viewBox="0 0 24 24" fill="none" xmlns="http://www.w3.org/2000/svg" id="__THIS_ID_NEEDS_FOR_UI_ICON_COMPONENT__">
<path d="M19.5001 3H4.50014C4.10247 3.00052 3.72124 3.15872 3.44005 3.43991C3.15886 3.7211 3.00065 4.10233 3.00014 4.5V9.99976C3.00014 18.3867 10.1083 21.1677 11.5343 21.6401C11.8364 21.7427 12.1639 21.7427 12.466 21.6401C13.8913 21.1677 21.0001 18.3875 21.0001 9.99976V4.5C20.9996 4.10233 20.8414 3.7211 20.5602 3.43991C20.279 3.15872 19.8978 3.00052 19.5001 3ZM16.643 9.54272L11.1425 14.7927C11.0029 14.9258 10.8175 15 10.6246 15C10.4318 15 10.2464 14.9258 10.1068 14.7927L7.35732 12.1677C7.28594 12.0997 7.22866 12.0184 7.18876 11.9282C7.14885 11.8381 7.1271 11.741 7.12474 11.6425C7.12238 11.5439 7.13946 11.4459 7.17501 11.354C7.21056 11.262 7.26388 11.178 7.33192 11.1067C7.39997 11.0354 7.48139 10.9782 7.57155 10.9384C7.66171 10.8985 7.75884 10.8769 7.85738 10.8746C7.95592 10.8723 8.05394 10.8895 8.14583 10.9251C8.23773 10.9608 8.32171 11.0142 8.39296 11.0823L10.6246 13.2129L15.6073 8.45728C15.6786 8.38917 15.7625 8.33578 15.8544 8.30014C15.9463 8.26451 16.0444 8.24734 16.1429 8.24961C16.2414 8.25188 16.3386 8.27354 16.4287 8.31337C16.5189 8.35319 16.6003 8.4104 16.6683 8.48171C16.7364 8.55302 16.7897 8.63705 16.8253 8.72898C16.8608 8.82091 16.8779 8.91894 16.8755 9.01748C16.8732 9.11602 16.8514 9.21312 16.8115 9.30325C16.7716 9.39337 16.7143 9.47475 16.643 9.54272H16.643Z" fill="#1D1F21" style="fill: var(--ui-icon-primary-color);"/>
</svg>
