<svg  viewBox="0 0 24 24" fill="none" xmlns="http://www.w3.org/2000/svg" id="__THIS_ID_NEEDS_FOR_UI_ICON_COMPONENT__">
<path d="M18.8741 15H6.14868L6.42142 16.5H18C18.5692 16.4997 19.123 16.6843 19.5782 17.0261C20.0334 17.3678 20.3652 17.8482 20.5237 18.3948C20.6823 18.9415 20.6589 19.5248 20.4572 20.057C20.2555 20.5893 19.8864 21.0416 19.4054 21.3459C18.9244 21.6502 18.3575 21.7899 17.7902 21.7442C17.2229 21.6984 16.6858 21.4696 16.2597 21.0922C15.8337 20.7147 15.5418 20.2091 15.428 19.6514C15.3142 19.0937 15.3847 18.5142 15.6288 18H9.12122C9.33186 18.443 9.41418 18.9361 9.35885 19.4235C9.30352 19.9109 9.11275 20.373 8.80818 20.7575C8.5036 21.142 8.0974 21.4335 7.63561 21.5989C7.17383 21.7643 6.67495 21.797 6.19551 21.6934C5.71608 21.5897 5.27527 21.3538 4.92307 21.0124C4.57086 20.671 4.32135 20.2378 4.20281 19.7618C4.08428 19.2858 4.10146 18.7862 4.25241 18.3194C4.40337 17.8527 4.68205 17.4377 5.05688 17.1213C5.00536 17.0086 4.96798 16.8901 4.94559 16.7683L2.44226 3H0.75C0.551088 3 0.360322 2.92098 0.21967 2.78033C0.0790176 2.63968 0 2.44891 0 2.25C0 2.05109 0.0790176 1.86032 0.21967 1.71967C0.360322 1.57902 0.551088 1.5 0.75 1.5H2.44226C2.79359 1.49984 3.13382 1.62308 3.40356 1.8482C3.67329 2.07331 3.8554 2.38601 3.91809 2.7317L4.37595 5.25H20.1013C20.321 5.25001 20.538 5.29828 20.737 5.3914C20.936 5.48452 21.1121 5.62021 21.2529 5.78889C21.3937 5.95756 21.4957 6.1551 21.5517 6.36754C21.6078 6.57998 21.6164 6.80213 21.5772 7.0183L20.3499 13.7683C20.2872 14.114 20.1051 14.4267 19.8353 14.6518C19.5656 14.8769 19.2254 15.0002 18.8741 15Z" fill="#1D1F21" style="fill: var(--ui-icon-primary-color);"/>
</svg>
