<svg  viewBox="0 0 24 24" fill="none" xmlns="http://www.w3.org/2000/svg" id="__THIS_ID_NEEDS_FOR_UI_ICON_COMPONENT__">
<g clip-path="url(#clip0)">
<path d="M8.25 20.25C8.25 20.5467 8.16203 20.8367 7.9972 21.0834C7.83238 21.33 7.59811 21.5223 7.32403 21.6358C7.04994 21.7493 6.74834 21.7791 6.45737 21.7212C6.16639 21.6633 5.89912 21.5204 5.68934 21.3107C5.47956 21.1009 5.3367 20.8336 5.27882 20.5426C5.22094 20.2517 5.25065 19.9501 5.36418 19.676C5.47771 19.4019 5.66997 19.1676 5.91665 19.0028C6.16332 18.838 6.45333 18.75 6.75 18.75C7.14782 18.75 7.52935 18.908 7.81066 19.1893C8.09196 19.4706 8.25 19.8522 8.25 20.25ZM18 18.75C17.7033 18.75 17.4133 18.838 17.1666 19.0028C16.92 19.1676 16.7277 19.4019 16.6142 19.676C16.5007 19.9501 16.4709 20.2517 16.5288 20.5426C16.5867 20.8336 16.7296 21.1009 16.9393 21.3107C17.1491 21.5204 17.4164 21.6633 17.7074 21.7212C17.9983 21.7791 18.2999 21.7493 18.574 21.6358C18.8481 21.5223 19.0824 21.33 19.2472 21.0834C19.412 20.8367 19.5 20.5467 19.5 20.25C19.5 19.8522 19.342 19.4706 19.0607 19.1893C18.7794 18.908 18.3978 18.75 18 18.75ZM21.2531 5.78888C21.1124 5.62 20.9364 5.48416 20.7373 5.39102C20.5383 5.29789 20.3212 5.24974 20.1014 5.25H4.37769L3.91827 2.73093C3.85537 2.38542 3.67319 2.07295 3.4035 1.848C3.13381 1.62305 2.79372 1.49989 2.44254 1.5H0.75C0.551088 1.5 0.360322 1.57902 0.21967 1.71967C0.0790176 1.86032 0 2.05109 0 2.25C0 2.44891 0.0790176 2.63968 0.21967 2.78033C0.360322 2.92098 0.551088 3 0.75 3H2.44263L3.00413 6.07942C3.00811 6.11693 3.0149 6.15408 3.02445 6.19057L4.81668 16.0191C4.87957 16.3646 5.06173 16.677 5.3314 16.902C5.60108 17.1269 5.94115 17.2501 6.29233 17.25H18.466C18.8174 17.2501 19.1576 17.1269 19.4273 16.9017C19.6971 16.6766 19.8792 16.3639 19.9418 16.0182L21.5772 7.0182C21.6168 6.80206 21.6083 6.57986 21.5522 6.36739C21.4962 6.15492 21.3941 5.9574 21.2531 5.78888Z" fill="#1D1F21" style="fill: var(--ui-icon-primary-color);"/>
</g>
<defs>
<clipPath id="clip0">
<rect  fill="white" style="fill: var(--ui-icon-secondary-color);"/>
</clipPath>
</defs>
</svg>
