<svg  viewBox="0 0 24 24" fill="none" xmlns="http://www.w3.org/2000/svg" id="__THIS_ID_NEEDS_FOR_UI_ICON_COMPONENT__">
<path d="M20.0798 19.9756C20.0668 19.9916 20.0528 20.0066 20.0384 20.0214C20.0356 20.0243 20.0332 20.0275 20.0304 20.0303C20.0278 20.0329 20.025 20.0351 20.0224 20.0376C20.0073 20.0522 19.9918 20.0665 19.9755 20.0799C19.9661 20.0876 19.9562 20.0944 19.9466 20.1016C19.9366 20.1089 19.927 20.1167 19.9167 20.1235C19.9055 20.131 19.8939 20.1375 19.8825 20.1443C19.8729 20.15 19.8635 20.156 19.8537 20.1614C19.8422 20.1675 19.8303 20.1727 19.8186 20.1782C19.8081 20.1831 19.7979 20.1884 19.7872 20.1928C19.7757 20.1976 19.7641 20.2014 19.7525 20.2055C19.741 20.2097 19.7296 20.214 19.7179 20.2176C19.7063 20.2211 19.6946 20.2237 19.6828 20.2266C19.6708 20.2297 19.6589 20.233 19.6466 20.2355C19.6333 20.2381 19.6198 20.2397 19.6064 20.2416C19.5956 20.2432 19.585 20.2452 19.574 20.2463C19.5494 20.2487 19.5247 20.25 19.5 20.25H15.75C15.5511 20.25 15.3603 20.171 15.2197 20.0303C15.079 19.8897 15 19.6989 15 19.5C15 19.3011 15.079 19.1103 15.2197 18.9697C15.3603 18.829 15.5511 18.75 15.75 18.75H17.6893L3.96964 5.03034C3.82899 4.88967 3.74998 4.6989 3.74998 4.49998C3.74999 4.30107 3.82902 4.1103 3.96968 3.96965C4.11034 3.829 4.30112 3.74999 4.50003 3.75C4.69895 3.75001 4.88972 3.82904 5.03037 3.9697L18.75 17.6893V15.75C18.75 15.5511 18.829 15.3603 18.9697 15.2197C19.1103 15.079 19.3011 15 19.5 15C19.6989 15 19.8897 15.079 20.0303 15.2197C20.171 15.3603 20.25 15.5511 20.25 15.75V19.4996C20.25 19.5245 20.2487 19.5494 20.2463 19.5743C20.2453 19.5843 20.2433 19.5941 20.2419 19.6041C20.24 19.6184 20.2382 19.6327 20.2354 19.6468C20.2331 19.6586 20.2298 19.6701 20.2269 19.6817C20.2239 19.6938 20.2212 19.706 20.2176 19.718C20.2141 19.7294 20.2098 19.7405 20.2058 19.7516C20.2016 19.7636 20.1976 19.7756 20.1928 19.7873C20.1885 19.7977 20.1834 19.8075 20.1787 19.8176C20.173 19.8297 20.1676 19.842 20.1612 19.8539C20.1562 19.8633 20.1504 19.8723 20.1449 19.8815C20.1379 19.8933 20.1312 19.9052 20.1235 19.9168C20.1168 19.9267 20.1094 19.9361 20.1022 19.9457C20.0948 19.9557 20.0878 19.9659 20.0798 19.9756ZM14.1213 10.6287C14.2198 10.6289 14.3174 10.6095 14.4084 10.5718C14.4994 10.5341 14.5821 10.4788 14.6516 10.4091L18.75 6.3107V8.25002C18.75 8.44893 18.829 8.63969 18.9697 8.78035C19.1103 8.921 19.3011 9.00002 19.5 9.00002C19.6989 9.00002 19.8897 8.921 20.0303 8.78035C20.171 8.63969 20.25 8.44893 20.25 8.25002V4.50047C20.25 4.47557 20.2487 4.45062 20.2463 4.42577C20.2453 4.4157 20.2433 4.4059 20.2419 4.39597C20.24 4.38169 20.2382 4.36736 20.2354 4.35321C20.2331 4.3414 20.2298 4.32996 20.2269 4.31833C20.2239 4.3062 20.2212 4.29402 20.2176 4.28203C20.2141 4.27059 20.2098 4.25955 20.2058 4.24834C20.2016 4.23643 20.1976 4.22444 20.1928 4.21273C20.1885 4.20238 20.1834 4.19249 20.1787 4.18238C20.173 4.17024 20.1676 4.15807 20.1612 4.14617C20.1561 4.13669 20.1503 4.12763 20.1448 4.11838C20.1379 4.10661 20.1312 4.09475 20.1235 4.08332C20.1168 4.07329 20.1093 4.06386 20.1021 4.0542C20.0947 4.04427 20.0878 4.03406 20.0798 4.0244C20.0668 4.00847 20.0528 3.99341 20.0384 3.97863C20.0356 3.9757 20.0332 3.97254 20.0304 3.9697C20.0276 3.96695 20.0246 3.96466 20.0218 3.96196C20.0069 3.9475 19.9917 3.9334 19.9757 3.92022C19.9657 3.91207 19.9553 3.90488 19.945 3.89728C19.9356 3.89037 19.9266 3.88309 19.9168 3.87659C19.9052 3.86876 19.893 3.86194 19.881 3.85485C19.872 3.84949 19.8632 3.84381 19.8539 3.83883C19.842 3.83242 19.8297 3.82697 19.8174 3.82125C19.8074 3.81658 19.7976 3.81154 19.7874 3.80729C19.7756 3.80239 19.7635 3.79845 19.7516 3.79419C19.7404 3.79021 19.7294 3.78591 19.7181 3.78247C19.7062 3.77886 19.6942 3.77625 19.6822 3.77327C19.6704 3.7703 19.6588 3.76696 19.6467 3.76458C19.6333 3.76192 19.6197 3.76032 19.6061 3.7584C19.5955 3.75689 19.5849 3.75483 19.5741 3.75377C19.5495 3.75135 19.5248 3.75002 19.5001 3.75002H15.75C15.5511 3.75002 15.3603 3.82904 15.2197 3.96969C15.079 4.11034 15 4.30111 15 4.50002C15 4.69894 15.079 4.8897 15.2197 5.03035C15.3603 5.17101 15.5511 5.25002 15.75 5.25002H17.6893L13.5909 9.34838C13.486 9.45327 13.4146 9.58691 13.3857 9.7324C13.3567 9.87789 13.3716 10.0287 13.4283 10.1657C13.4851 10.3028 13.5812 10.4199 13.7046 10.5023C13.8279 10.5848 13.9729 10.6287 14.1213 10.6287H14.1213ZM9.34836 13.591L3.96964 18.9697C3.82899 19.1104 3.74998 19.3011 3.74999 19.5C3.75 19.699 3.82903 19.8897 3.96969 20.0304C4.11035 20.171 4.30112 20.25 4.50004 20.25C4.69896 20.25 4.88972 20.171 5.03037 20.0303L10.4091 14.6517C10.4787 14.582 10.534 14.4993 10.5717 14.4083C10.6094 14.3173 10.6288 14.2198 10.6288 14.1213C10.6288 14.0228 10.6094 13.9253 10.5717 13.8343C10.534 13.7433 10.4787 13.6606 10.4091 13.5909C10.3394 13.5213 10.2567 13.4661 10.1657 13.4284C10.0747 13.3907 9.97721 13.3713 9.87871 13.3713C9.78021 13.3713 9.68268 13.3907 9.59169 13.4284C9.50069 13.4661 9.41801 13.5213 9.34836 13.591L9.34836 13.591Z" fill="#1D1F21" style="fill: var(--ui-icon-primary-color);"/>
</svg>
