<svg  viewBox="0 0 24 24" fill="none" xmlns="http://www.w3.org/2000/svg" id="__THIS_ID_NEEDS_FOR_UI_ICON_COMPONENT__">
<path d="M22.4963 17.1753C22.5012 17.2247 22.5012 17.2744 22.4963 17.3238C22.4952 17.3339 22.4933 17.3436 22.4919 17.3535C22.49 17.3679 22.4882 17.3822 22.4854 17.3964C22.4831 17.4081 22.4799 17.4195 22.477 17.431C22.4739 17.4432 22.4712 17.4555 22.4675 17.4676C22.4641 17.4789 22.4599 17.4898 22.4559 17.5009C22.4517 17.513 22.4476 17.5251 22.4427 17.5369C22.4385 17.547 22.4336 17.5567 22.429 17.5666C22.4232 17.579 22.4177 17.5914 22.4112 17.6035C22.4063 17.6126 22.4007 17.6212 22.3955 17.6301C22.3883 17.6423 22.3813 17.6546 22.3734 17.6665C22.3672 17.6757 22.3602 17.6844 22.3536 17.6933C22.3457 17.7041 22.3382 17.715 22.3297 17.7254C22.3188 17.7386 22.307 17.751 22.2952 17.7635C22.2902 17.7689 22.2857 17.7746 22.2804 17.7799L20.0304 20.0299C19.8897 20.1706 19.6989 20.2496 19.5 20.2496C19.3011 20.2496 19.1103 20.1706 18.9696 20.0299C18.829 19.8893 18.75 19.6985 18.75 19.4996C18.75 19.3006 18.829 19.1099 18.9696 18.9692L19.9393 17.9996H18.8377C17.7635 17.9985 16.7049 17.7415 15.7498 17.25C14.7946 16.7584 13.9703 16.0464 13.345 15.1729L9.43442 9.69802C8.94809 9.01863 8.30693 8.46486 7.56401 8.08255C6.8211 7.70025 5.9978 7.5004 5.16229 7.49957H3C2.80109 7.49957 2.61032 7.42055 2.46967 7.2799C2.32902 7.13924 2.25 6.94848 2.25 6.74957C2.25 6.55065 2.32902 6.35989 2.46967 6.21924C2.61032 6.07858 2.80109 5.99957 3 5.99957H5.16229C6.23653 6.00065 7.29505 6.25761 8.25022 6.74917C9.2054 7.24073 10.0297 7.95274 10.655 8.82626L14.5656 14.3011C15.0519 14.9805 15.6931 15.5343 16.436 15.9166C17.1789 16.2989 18.0022 16.4987 18.8377 16.4996H19.9393L18.9696 15.5299C18.829 15.3893 18.7499 15.1985 18.7499 14.9996C18.7499 14.8006 18.829 14.6099 18.9696 14.4692C19.1103 14.3285 19.3011 14.2495 19.5 14.2495C19.6989 14.2495 19.8897 14.3285 20.0304 14.4692L22.2804 16.7192C22.2857 16.7245 22.2902 16.7303 22.2952 16.7357C22.307 16.7481 22.3188 16.7605 22.3297 16.7738C22.3382 16.7842 22.3457 16.7951 22.3536 16.8058C22.3602 16.8148 22.3672 16.8234 22.3734 16.8327C22.3813 16.8445 22.3883 16.8569 22.3955 16.8691C22.4007 16.8779 22.4063 16.8865 22.4111 16.8956C22.4176 16.9077 22.4232 16.9202 22.429 16.9325C22.4336 16.9424 22.4385 16.9521 22.4427 16.9622C22.4476 16.9741 22.4517 16.9862 22.4559 16.9982C22.4599 17.0093 22.4641 17.0202 22.4675 17.0315C22.4712 17.0436 22.4739 17.0559 22.477 17.0681C22.4799 17.0796 22.4831 17.091 22.4854 17.1027C22.4882 17.1169 22.49 17.1313 22.4919 17.1456C22.4933 17.1555 22.4952 17.1653 22.4963 17.1753ZM13.4075 10.0291C13.4877 10.0864 13.5783 10.1273 13.6743 10.1495C13.7702 10.1718 13.8696 10.1749 13.9668 10.1587C14.0639 10.1425 14.1569 10.1073 14.2405 10.0551C14.324 10.003 14.3965 9.93485 14.4537 9.85467L14.5656 9.69802C15.0519 9.01863 15.6931 8.46486 16.436 8.08255C17.1789 7.70025 18.0022 7.5004 18.8377 7.49957H19.9393L18.9696 8.4692C18.829 8.60986 18.75 8.80064 18.75 8.99957C18.75 9.19849 18.829 9.38927 18.9696 9.52993C19.1103 9.67059 19.3011 9.74962 19.5 9.74962C19.6989 9.74962 19.8897 9.67059 20.0304 9.52993L22.2804 7.27993C22.2857 7.27464 22.2902 7.26888 22.2952 7.26347C22.307 7.25102 22.3188 7.2386 22.3297 7.22537C22.3382 7.21497 22.3457 7.20408 22.3536 7.19334C22.3602 7.18437 22.3672 7.17572 22.3734 7.16645C22.3814 7.15459 22.3883 7.14228 22.3955 7.13006C22.4007 7.12122 22.4063 7.11262 22.4111 7.10353C22.4176 7.09142 22.4232 7.07896 22.429 7.06661C22.4336 7.05672 22.4385 7.04704 22.4427 7.03692C22.4476 7.02507 22.4517 7.01296 22.4559 7.0009C22.4599 6.98982 22.4641 6.9789 22.4675 6.96759C22.4712 6.95551 22.4739 6.94324 22.477 6.93102C22.4799 6.91948 22.4831 6.90813 22.4854 6.89639C22.4882 6.8822 22.49 6.86785 22.4919 6.85355C22.4933 6.84361 22.4952 6.83386 22.4962 6.82381C22.5011 6.77443 22.5011 6.72469 22.4962 6.67531C22.4952 6.66527 22.4933 6.65552 22.4919 6.64558C22.49 6.63128 22.4882 6.61693 22.4854 6.60274C22.4831 6.591 22.4799 6.57964 22.477 6.56811C22.4739 6.55589 22.4712 6.54362 22.4675 6.53153C22.4641 6.52023 22.4599 6.50931 22.4559 6.49823C22.4517 6.48617 22.4476 6.47406 22.4427 6.4622C22.4385 6.45209 22.4336 6.44241 22.429 6.43252C22.4232 6.42016 22.4176 6.40771 22.4111 6.3956C22.4063 6.38651 22.4007 6.37791 22.3955 6.36907C22.3883 6.35685 22.3813 6.34453 22.3734 6.33268C22.3672 6.32341 22.3602 6.31475 22.3536 6.30578C22.3457 6.29505 22.3382 6.28415 22.3297 6.27376C22.3188 6.26053 22.307 6.2481 22.2952 6.23565C22.2902 6.23025 22.2857 6.22448 22.2804 6.2192L20.0304 3.9692C19.8897 3.82853 19.6989 3.74951 19.5 3.74951C19.3011 3.74951 19.1103 3.82853 18.9696 3.9692C18.829 4.10986 18.75 4.30064 18.75 4.49956C18.75 4.69849 18.829 4.88927 18.9696 5.02993L19.9393 5.99957H18.8377C17.7635 6.00065 16.7049 6.25761 15.7498 6.74917C14.7946 7.24073 13.9703 7.95274 13.345 8.82626L13.2331 8.9829C13.1759 9.06304 13.135 9.15368 13.1127 9.24963C13.0905 9.34558 13.0874 9.44497 13.1036 9.54212C13.1198 9.63927 13.155 9.73228 13.2071 9.81583C13.2593 9.89938 13.3274 9.97184 13.4075 10.0291L13.4075 10.0291ZM10.5925 13.9701C10.5123 13.9128 10.4217 13.8718 10.3258 13.8496C10.2298 13.8274 10.1304 13.8243 10.0332 13.8405C9.93609 13.8567 9.84307 13.8918 9.75952 13.944C9.67597 13.9962 9.60351 14.0643 9.5463 14.1445L9.43442 14.3011C8.94809 14.9805 8.30693 15.5343 7.56402 15.9166C6.8211 16.2989 5.99781 16.4987 5.16229 16.4996H3C2.80109 16.4996 2.61032 16.5786 2.46967 16.7192C2.32902 16.8599 2.25 17.0507 2.25 17.2496C2.25 17.4485 2.32902 17.6392 2.46967 17.7799C2.61032 17.9206 2.80109 17.9996 3 17.9996H5.16229C6.23653 17.9985 7.29505 17.7415 8.25022 17.25C9.2054 16.7584 10.0297 16.0464 10.655 15.1729L10.7669 15.0162C10.8241 14.9361 10.865 14.8455 10.8873 14.7495C10.9095 14.6536 10.9126 14.5542 10.8964 14.457C10.8802 14.3599 10.845 14.2669 10.7929 14.1833C10.7407 14.0998 10.6726 14.0273 10.5925 13.9701L10.5925 13.9701Z" fill="#1D1F21" style="fill: var(--ui-icon-primary-color);"/>
</svg>
