<svg  viewBox="0 0 24 24" fill="none" xmlns="http://www.w3.org/2000/svg" id="__THIS_ID_NEEDS_FOR_UI_ICON_COMPONENT__">
<path d="M13.2803 12.5304L9.34282 16.4679C9.20215 16.6085 9.01138 16.6875 8.81246 16.6875C8.61355 16.6875 8.42278 16.6085 8.28213 16.4678C8.14148 16.3272 8.06247 16.1364 8.06248 15.9375C8.06249 15.7386 8.14152 15.5478 8.28218 15.4071L10.9393 12.75H2.24725C2.04834 12.75 1.85757 12.671 1.71692 12.5303C1.57627 12.3897 1.49725 12.1989 1.49725 12C1.49725 11.8011 1.57627 11.6103 1.71692 11.4697C1.85757 11.329 2.04834 11.25 2.24725 11.25H10.9393L8.28218 8.59286C8.21253 8.52322 8.15728 8.44054 8.11958 8.34955C8.08189 8.25855 8.06248 8.16103 8.06248 8.06253C8.06248 7.96404 8.08187 7.86651 8.11956 7.77551C8.15725 7.68451 8.21249 7.60183 8.28213 7.53218C8.35177 7.46253 8.43445 7.40728 8.52545 7.36959C8.61644 7.33189 8.71397 7.31249 8.81246 7.31248C8.91096 7.31248 9.00849 7.33187 9.09949 7.36956C9.19048 7.40725 9.27317 7.46249 9.34282 7.53214L13.2803 11.4696C13.35 11.5393 13.4052 11.622 13.4429 11.713C13.4806 11.804 13.5 11.9015 13.5 12C13.5 12.0985 13.4806 12.196 13.4429 12.287C13.4052 12.378 13.35 12.4607 13.2803 12.5304ZM18 3H11.25C11.0511 3 10.8603 3.07902 10.7197 3.21967C10.579 3.36032 10.5 3.55109 10.5 3.75C10.5 3.94891 10.579 4.13968 10.7197 4.28033C10.8603 4.42098 11.0511 4.5 11.25 4.5H18V19.5H11.25C11.0511 19.5 10.8603 19.579 10.7197 19.7197C10.579 19.8603 10.5 20.0511 10.5 20.25C10.5 20.4489 10.579 20.6397 10.7197 20.7803C10.8603 20.921 11.0511 21 11.25 21H18C18.3977 20.9995 18.7789 20.8414 19.0602 20.5602C19.3414 20.279 19.4995 19.8977 19.5 19.5V4.5C19.4995 4.10231 19.3414 3.72105 19.0602 3.43984C18.7789 3.15864 18.3977 3.00045 18 3Z" fill="#1D1F21" style="fill: var(--ui-icon-primary-color);"/>
</svg>
