<svg  viewBox="0 0 24 24" fill="none" xmlns="http://www.w3.org/2000/svg" id="__THIS_ID_NEEDS_FOR_UI_ICON_COMPONENT__">
<path d="M23.1083 10.1876C23.115 10.1783 23.1217 10.169 23.128 10.1594C23.1348 10.1489 23.1411 10.1382 23.1474 10.1274C23.153 10.1178 23.1587 10.1081 23.1639 10.0982C23.1698 10.0872 23.1749 10.0759 23.1801 10.0647C23.1849 10.0544 23.1898 10.0441 23.1941 10.0336C23.1988 10.0222 23.2027 10.0107 23.2067 9.99915C23.2105 9.98833 23.2146 9.97766 23.2179 9.96662C23.2218 9.95394 23.2246 9.94108 23.2278 9.92825C23.2303 9.91809 23.2332 9.90812 23.2353 9.8978C23.2399 9.87484 23.2434 9.85174 23.2458 9.82849C23.2464 9.82268 23.2464 9.81673 23.2469 9.81089C23.2484 9.79247 23.2496 9.77405 23.2497 9.75559C23.2497 9.75371 23.25 9.75189 23.25 9.75C23.25 9.74313 23.2492 9.73647 23.249 9.72965C23.2485 9.71421 23.248 9.6988 23.2466 9.68341C23.2457 9.67304 23.2443 9.66285 23.243 9.6526C23.2413 9.63941 23.2394 9.62627 23.2369 9.61317C23.2349 9.60204 23.2325 9.59106 23.2299 9.58012C23.2272 9.56813 23.2241 9.55623 23.2207 9.54436C23.2176 9.53317 23.2142 9.52209 23.2105 9.51114C23.2066 9.49975 23.2025 9.48849 23.1981 9.47726C23.1939 9.46642 23.1895 9.45567 23.1848 9.44509C23.1799 9.43405 23.1745 9.42322 23.1691 9.41237C23.1638 9.40208 23.1586 9.39183 23.153 9.38181C23.1471 9.37133 23.1406 9.36109 23.1342 9.35083C23.1279 9.34091 23.1217 9.331 23.115 9.3214C23.1083 9.31176 23.101 9.3024 23.0938 9.293C23.0863 9.2834 23.079 9.2738 23.0711 9.26458C23.0688 9.26181 23.0668 9.25886 23.0644 9.25611L17.8144 3.25611C17.744 3.17567 17.6572 3.1112 17.5599 3.06703C17.4626 3.02286 17.3569 3.00001 17.25 3H6.75C6.6431 3.00001 6.53744 3.02286 6.4401 3.06703C6.34275 3.11121 6.25597 3.17567 6.18558 3.25612L0.935577 9.25612C0.933197 9.25886 0.931183 9.26182 0.928848 9.26459C0.921021 9.27381 0.913651 9.28341 0.906234 9.293C0.899003 9.3024 0.891724 9.31176 0.884994 9.32141C0.878311 9.33101 0.872086 9.34092 0.865814 9.35084C0.859359 9.36109 0.852906 9.37134 0.847 9.38182C0.84137 9.39183 0.836152 9.40209 0.830933 9.41238C0.825486 9.42322 0.820084 9.43406 0.815183 9.4451C0.810468 9.45568 0.806119 9.46643 0.801908 9.47726C0.797513 9.4885 0.793347 9.49976 0.789503 9.51114C0.785839 9.52211 0.782421 9.53319 0.779248 9.54436C0.775861 9.55623 0.772839 9.56814 0.770047 9.58012C0.767483 9.59107 0.765103 9.60204 0.763043 9.61317C0.760617 9.62628 0.75874 9.63941 0.757043 9.6526C0.75567 9.66285 0.754297 9.67305 0.753381 9.68342C0.752007 9.69881 0.751458 9.71422 0.751 9.72965C0.750824 9.73647 0.75 9.74313 0.75 9.75C0.75 9.75189 0.750275 9.75371 0.750275 9.75559C0.750412 9.77406 0.751602 9.79247 0.753067 9.81089C0.753571 9.81673 0.753571 9.82269 0.754165 9.82849C0.756592 9.85172 0.760117 9.87482 0.76474 9.8978C0.766803 9.90811 0.76973 9.91809 0.772202 9.92825C0.77536 9.94108 0.778244 9.95394 0.78209 9.96662C0.785385 9.97766 0.789459 9.98833 0.793259 9.99915C0.797332 10.0107 0.801228 10.0222 0.805893 10.0336C0.810196 10.0441 0.815094 10.0544 0.819901 10.0647C0.825073 10.0759 0.830246 10.0872 0.83606 10.0982C0.841278 10.1081 0.847 10.1178 0.852631 10.1275C0.858902 10.1382 0.865174 10.1489 0.872037 10.1594C0.878308 10.169 0.885038 10.1783 0.891725 10.1876C0.898866 10.1975 0.906007 10.2073 0.913652 10.2169C0.921113 10.2262 0.928941 10.2352 0.936815 10.2442C0.941896 10.25 0.946427 10.2561 0.951692 10.2617L11.4517 21.5117C11.4624 21.5231 11.4739 21.5334 11.4852 21.5441C11.4905 21.5491 11.4954 21.5543 11.5008 21.5592C11.5248 21.5806 11.5502 21.6004 11.5768 21.6186C11.5827 21.6227 11.589 21.6263 11.5951 21.6302C11.6172 21.6444 11.64 21.6574 11.6635 21.6692C11.671 21.673 11.6786 21.677 11.6863 21.6805C11.7156 21.6942 11.7456 21.7059 11.7764 21.7157C11.7808 21.7171 11.7855 21.718 11.79 21.7193C11.8174 21.7272 11.8453 21.7336 11.8735 21.7383C11.8823 21.7399 11.8911 21.7413 11.9001 21.7425C11.9663 21.7525 12.0337 21.7525 12.0999 21.7425C12.1089 21.7413 12.1177 21.7399 12.1265 21.7383C12.1547 21.7336 12.1826 21.7272 12.21 21.7193C12.2145 21.718 12.2192 21.7171 12.2236 21.7157C12.2544 21.7059 12.2844 21.6942 12.3137 21.6805C12.3214 21.677 12.3289 21.673 12.3365 21.6692C12.36 21.6574 12.3828 21.6444 12.4049 21.6302C12.411 21.6263 12.4173 21.6227 12.4232 21.6186C12.4498 21.6004 12.4752 21.5806 12.4992 21.5592C12.5046 21.5543 12.5095 21.5491 12.5148 21.5441C12.5261 21.5334 12.5376 21.5231 12.5483 21.5117L23.0483 10.2617C23.0536 10.2561 23.0581 10.25 23.0631 10.2442C23.0711 10.2352 23.0789 10.2263 23.0863 10.2169C23.094 10.2073 23.1011 10.1975 23.1083 10.1876ZM6.89424 10.5L9.75682 17.4974L3.22591 10.5H6.89424ZM17.1058 10.5H20.7741L14.2432 17.4974L17.1058 10.5ZM20.8472 9H16.9722L13.5205 4.5H16.9097L20.8472 9ZM7.0903 4.5H10.4795L7.02777 9H3.15285L7.0903 4.5Z" fill="#1D1F21" style="fill: var(--ui-icon-primary-color);"/>
</svg>
