<svg  viewBox="0 0 24 24" fill="none" xmlns="http://www.w3.org/2000/svg" id="__THIS_ID_NEEDS_FOR_UI_ICON_COMPONENT__">
<path d="M12 2.25C10.0716 2.25 8.18653 2.82183 6.58315 3.89317C4.97977 4.96451 3.73009 6.48726 2.99213 8.26884C2.25418 10.0504 2.0611 12.0108 2.4373 13.9021C2.81351 15.7934 3.74211 17.5307 5.10567 18.8943C6.46923 20.2579 8.20651 21.1865 10.0978 21.5627C11.9891 21.9389 13.9495 21.7458 15.7311 21.0078C17.5127 20.2699 19.0354 19.0202 20.1068 17.4168C21.1781 15.8134 21.75 13.9284 21.75 12C21.747 9.41506 20.7188 6.93684 18.8909 5.10901C17.0631 3.28118 14.5849 2.25299 12 2.25ZM15.375 15C15.375 15.1357 15.3381 15.269 15.2684 15.3854C15.1986 15.5019 15.0985 15.5972 14.9789 15.6613C14.8592 15.7253 14.7243 15.7557 14.5888 15.7491C14.4532 15.7426 14.3219 15.6993 14.2089 15.624L10.125 12.9013V15C10.125 15.1989 10.0459 15.3897 9.90529 15.5303C9.76464 15.671 9.57387 15.75 9.37496 15.75C9.17605 15.75 8.98528 15.671 8.84463 15.5303C8.70398 15.3897 8.62496 15.1989 8.62496 15V9C8.62496 8.80109 8.70398 8.61032 8.84463 8.46967C8.98528 8.32902 9.17605 8.25 9.37496 8.25C9.57387 8.25 9.76464 8.32902 9.90529 8.46967C10.0459 8.61032 10.125 8.80109 10.125 9V11.0987L14.2089 8.37598C14.3219 8.30055 14.4532 8.25721 14.5888 8.25059C14.7244 8.24398 14.8593 8.27433 14.979 8.3384C15.0988 8.40248 15.1988 8.49787 15.2686 8.6144C15.3383 8.73092 15.3751 8.8642 15.375 9V15Z" fill="#1D1F21" style="fill: var(--ui-icon-primary-color);"/>
</svg>
