<svg  viewBox="0 0 24 24" fill="none" xmlns="http://www.w3.org/2000/svg" id="__THIS_ID_NEEDS_FOR_UI_ICON_COMPONENT__">
<path d="M5.25 3C5.44891 3 5.63968 3.07902 5.78033 3.21967C5.92098 3.36032 6 3.55109 6 3.75V10.6627L17.2179 3.80731C17.4453 3.66837 17.7055 3.59251 17.972 3.58754C18.2384 3.58256 18.5014 3.64865 18.7338 3.77901C18.9662 3.90937 19.1597 4.09928 19.2943 4.32922C19.429 4.55917 19.5 4.82083 19.5 5.08731V18.9127C19.4999 19.1791 19.4288 19.4407 19.2941 19.6706C19.1594 19.9005 18.9659 20.0904 18.7335 20.2207C18.5012 20.351 18.2383 20.4171 17.9719 20.4122C17.7055 20.4073 17.4452 20.3315 17.2178 20.1926L6 13.3373V20.25C6 20.4489 5.92098 20.6397 5.78033 20.7803C5.63968 20.921 5.44891 21 5.25 21C5.05109 21 4.86032 20.921 4.71967 20.7803C4.57902 20.6397 4.5 20.4489 4.5 20.25V3.75C4.5 3.55109 4.57902 3.36032 4.71967 3.21967C4.86032 3.07902 5.05109 3 5.25 3Z" fill="#1D1F21" style="fill: var(--ui-icon-primary-color);"/>
</svg>
