<svg  viewBox="0 0 24 24" fill="none" xmlns="http://www.w3.org/2000/svg" id="__THIS_ID_NEEDS_FOR_UI_ICON_COMPONENT__">
<path d="M19.5 3.75V20.25C19.5 20.4489 19.421 20.6397 19.2803 20.7803C19.1397 20.921 18.9489 21 18.75 21C18.5511 21 18.3603 20.921 18.2197 20.7803C18.079 20.6397 18 20.4489 18 20.25V13.3373L6.78223 20.1926C6.55484 20.3316 6.29454 20.4075 6.0281 20.4125C5.76166 20.4175 5.49871 20.3514 5.26628 20.221C5.03385 20.0907 4.84035 19.9007 4.70567 19.6708C4.57099 19.4408 4.5 19.1792 4.5 18.9127V5.08731C4.5 4.82083 4.57098 4.55917 4.70565 4.32922C4.84032 4.09928 5.03382 3.90936 5.26623 3.77901C5.49865 3.64865 5.76159 3.58256 6.02802 3.58754C6.29445 3.59251 6.55475 3.66837 6.78214 3.80731L18 10.6627V3.75C18 3.55109 18.079 3.36032 18.2197 3.21967C18.3603 3.07902 18.5511 3 18.75 3C18.9489 3 19.1397 3.07902 19.2803 3.21967C19.421 3.36032 19.5 3.55109 19.5 3.75Z" fill="#1D1F21" style="fill: var(--ui-icon-primary-color);"/>
</svg>
