<svg  viewBox="0 0 24 24" fill="none" xmlns="http://www.w3.org/2000/svg" id="__THIS_ID_NEEDS_FOR_UI_ICON_COMPONENT__">
<path d="M20.7311 11.9993C21.2902 11.508 21.6466 10.8263 21.7309 10.0868C21.8152 9.34723 21.6214 8.60279 21.1872 7.99826C20.753 7.39373 20.1094 6.97235 19.3817 6.8161C18.6539 6.65985 17.8941 6.77991 17.25 7.15291V5.24929C17.2504 4.63972 17.0649 4.04451 16.7184 3.54302C16.3719 3.04152 15.8807 2.65758 15.3104 2.44236C14.7401 2.22715 14.1177 2.1909 13.5263 2.33844C12.9348 2.48598 12.4024 2.8103 12 3.26817C11.5087 2.70902 10.827 2.35263 10.0874 2.26832C9.34792 2.18402 8.60347 2.37783 7.99894 2.81206C7.39441 3.24629 6.97303 3.88988 6.81678 4.61761C6.66054 5.34535 6.78059 6.10518 7.1536 6.74929H5.24999C4.64041 6.7489 4.0452 6.93433 3.54371 7.28086C3.04221 7.62739 2.65826 8.11855 2.44305 8.68887C2.22784 9.25919 2.19159 9.88156 2.33913 10.473C2.48668 11.0645 2.811 11.5969 3.26888 11.9993C2.70972 12.4906 2.35332 13.1723 2.26901 13.9118C2.1847 14.6514 2.37852 15.3958 2.81274 16.0003C3.24697 16.6049 3.89056 17.0263 4.6183 17.1825C5.34604 17.3388 6.10587 17.2187 6.74999 16.8457V18.7493C6.74959 19.3589 6.93502 19.9541 7.28155 20.4556C7.62808 20.9571 8.11925 21.341 8.68957 21.5562C9.25988 21.7714 9.88225 21.8077 10.4737 21.6601C11.0651 21.5126 11.5976 21.1883 12 20.7304C12.4913 21.2896 13.173 21.646 13.9125 21.7303C14.6521 21.8146 15.3965 21.6207 16.001 21.1865C16.6056 20.7523 17.0269 20.1087 17.1832 19.381C17.3394 18.6532 17.2194 17.8934 16.8464 17.2493H18.75C19.3596 17.2497 19.9548 17.0643 20.4563 16.7177C20.9578 16.3712 21.3417 15.88 21.5569 15.3097C21.7721 14.7394 21.8084 14.117 21.6608 13.5256C21.5133 12.9341 21.189 12.4017 20.7311 11.9993ZM8.24999 5.24929C8.24999 4.85147 8.40802 4.46994 8.68933 4.18863C8.97063 3.90733 9.35216 3.74929 9.74998 3.74929C10.1478 3.74929 10.5293 3.90733 10.8106 4.18863C11.0919 4.46994 11.25 4.85147 11.25 5.24929V6.74929H9.74998C9.3523 6.74884 8.97103 6.59066 8.68983 6.30945C8.40862 6.02824 8.25044 5.64698 8.24999 5.24929ZM3.74999 9.74929C3.75044 9.35161 3.90862 8.97034 4.18983 8.68913C4.47103 8.40793 4.8523 8.24975 5.24999 8.24929H9.74998C10.1477 8.24975 10.5289 8.40793 10.8101 8.68913C11.0913 8.97034 11.2495 9.35161 11.25 9.74929V11.2493H5.24999C4.8523 11.2488 4.47103 11.0907 4.18983 10.8094C3.90862 10.5282 3.75044 10.147 3.74999 9.74929ZM15.75 18.7493C15.75 19.1471 15.5919 19.5286 15.3106 19.81C15.0293 20.0913 14.6478 20.2493 14.25 20.2493C13.8522 20.2493 13.4706 20.0913 13.1893 19.81C12.908 19.5286 12.75 19.1471 12.75 18.7493V17.2493H14.25C14.6477 17.2497 15.0289 17.4079 15.3101 17.6891C15.5913 17.9703 15.7495 18.3516 15.75 18.7493ZM18.75 15.7493H14.25C13.8523 15.7488 13.471 15.5907 13.1898 15.3094C12.9086 15.0282 12.7504 14.647 12.75 14.2493V12.7493H18.75C19.1478 12.7493 19.5293 12.9073 19.8106 13.1886C20.0919 13.4699 20.25 13.8515 20.25 14.2493C20.25 14.6471 20.0919 15.0286 19.8106 15.31C19.5293 15.5913 19.1478 15.7493 18.75 15.7493Z" fill="#1D1F21" style="fill: var(--ui-icon-primary-color);"/>
</svg>
