<svg  viewBox="0 0 24 24" fill="none" xmlns="http://www.w3.org/2000/svg" id="__THIS_ID_NEEDS_FOR_UI_ICON_COMPONENT__">
<path d="M14.2497 8.24998C14.2491 8.71509 14.1046 9.16862 13.8361 9.54836C13.5675 9.9281 13.188 10.2154 12.7497 10.371V20.2499C12.7497 20.4488 12.6707 20.6396 12.53 20.7803C12.3894 20.9209 12.1986 20.9999 11.9997 20.9999C11.8008 20.9999 11.61 20.9209 11.4694 20.7803C11.3287 20.6396 11.2497 20.4488 11.2497 20.2499V10.371C10.811 10.2159 10.4312 9.92873 10.1626 9.54888C9.89395 9.16903 9.74969 8.71523 9.74969 8.24998C9.74969 7.78473 9.89395 7.33093 10.1626 6.95108C10.4312 6.57123 10.811 6.28401 11.2497 6.129V3.75C11.2497 3.55109 11.3287 3.36032 11.4694 3.21967C11.61 3.07902 11.8008 3 11.9997 3C12.1986 3 12.3894 3.07902 12.53 3.21967C12.6707 3.36032 12.7497 3.55109 12.7497 3.75V6.129C13.188 6.28453 13.5675 6.57187 13.836 6.95161C14.1046 7.33134 14.2491 7.78487 14.2497 8.24998ZM20.9997 15.75C20.9991 15.2848 20.8546 14.8313 20.586 14.4516C20.3175 14.0718 19.938 13.7845 19.4997 13.629L19.4998 3.75C19.4998 3.55109 19.4207 3.36032 19.2801 3.21967C19.1394 3.07902 18.9487 3 18.7498 3C18.5508 3 18.3601 3.07902 18.2194 3.21967C18.0788 3.36032 17.9998 3.55109 17.9998 3.75L17.9997 13.629C17.561 13.784 17.1812 14.0712 16.9126 14.4511C16.6439 14.8309 16.4997 15.2847 16.4997 15.75C16.4997 16.2152 16.6439 16.669 16.9126 17.0489C17.1812 17.4287 17.561 17.7159 17.9997 17.8709L17.9998 20.2499C17.9998 20.4488 18.0788 20.6396 18.2194 20.7803C18.3601 20.9209 18.5508 20.9999 18.7498 20.9999C18.9487 20.9999 19.1394 20.9209 19.2801 20.7803C19.4207 20.6396 19.4998 20.4488 19.4998 20.2499L19.4997 17.8709C19.938 17.7154 20.3175 17.4281 20.586 17.0483C20.8546 16.6686 20.9991 16.2151 20.9997 15.75ZM5.99971 10.629L5.99967 3.75C5.99967 3.55109 5.92065 3.36032 5.78 3.21967C5.63934 3.07902 5.44858 3 5.24967 3C5.05076 3 4.85999 3.07902 4.71934 3.21967C4.57869 3.36032 4.49967 3.55109 4.49967 3.75L4.49972 10.629C4.06106 10.784 3.68125 11.0712 3.41261 11.4511C3.14397 11.8309 2.99972 12.2847 2.99972 12.75C2.99972 13.2152 3.14397 13.669 3.41261 14.0489C3.68125 14.4287 4.06106 14.7159 4.49972 14.8709L4.49967 20.2499C4.49967 20.4488 4.57869 20.6396 4.71934 20.7803C4.85999 20.9209 5.05076 20.9999 5.24967 20.9999C5.44858 20.9999 5.63934 20.9209 5.78 20.7803C5.92065 20.6396 5.99967 20.4488 5.99967 20.2499L5.99971 14.8709C6.43837 14.7159 6.81818 14.4287 7.08682 14.0489C7.35546 13.669 7.49971 13.2152 7.49971 12.75C7.49971 12.2847 7.35546 11.8309 7.08682 11.4511C6.81818 11.0712 6.43837 10.784 5.99971 10.629Z" fill="#1D1F21" style="fill: var(--ui-icon-primary-color);"/>
</svg>
