<svg  viewBox="0 0 24 24" fill="none" xmlns="http://www.w3.org/2000/svg" id="__THIS_ID_NEEDS_FOR_UI_ICON_COMPONENT__">
<path d="M11.9999 2.25C10.0716 2.25 8.18651 2.82183 6.58313 3.89317C4.97975 4.96451 3.73007 6.48726 2.99212 8.26884C2.25416 10.0504 2.06108 12.0108 2.43729 13.9021C2.81349 15.7934 3.74209 17.5307 5.10565 18.8943C6.46921 20.2579 8.2065 21.1865 10.0978 21.5627C11.9891 21.9389 13.9495 21.7458 15.7311 21.0078C17.5127 20.2699 19.0354 19.0202 20.1068 17.4168C21.1781 15.8134 21.7499 13.9284 21.7499 12C21.747 9.41506 20.7188 6.93684 18.8909 5.10901C17.0631 3.28118 14.5849 2.25299 11.9999 2.25ZM10.2802 11.4697C10.35 11.5393 10.4053 11.622 10.4431 11.713C10.4809 11.804 10.5004 11.9016 10.5004 12.0002C10.5005 12.0987 10.4811 12.1963 10.4434 12.2874C10.4057 12.3784 10.3505 12.4612 10.2808 12.5308C10.2111 12.6005 10.1284 12.6558 10.0373 12.6935C9.94625 12.7312 9.84866 12.7505 9.75011 12.7505C9.65156 12.7504 9.55399 12.731 9.46297 12.6932C9.37196 12.6554 9.28928 12.6 9.21967 12.5303L8.24994 11.5605L7.28022 12.5303C7.13953 12.6707 6.94886 12.7495 6.75011 12.7494C6.55136 12.7492 6.36077 12.6702 6.22023 12.5297C6.07969 12.3892 6.00069 12.1986 6.00059 11.9998C6.00048 11.8011 6.07928 11.6104 6.21967 11.4697L7.1894 10.5L6.21967 9.53027C6.07928 9.38958 6.00048 9.19892 6.00059 9.00016C6.00069 8.80141 6.07969 8.61083 6.22023 8.47029C6.36077 8.32975 6.55136 8.25075 6.75011 8.25064C6.94886 8.25054 7.13953 8.32934 7.28022 8.46973L8.24994 9.43945L9.21967 8.46973C9.36036 8.32934 9.55103 8.25054 9.74978 8.25064C9.94853 8.25075 10.1391 8.32975 10.2797 8.47029C10.4202 8.61083 10.4992 8.80141 10.4993 9.00016C10.4994 9.19892 10.4206 9.38958 10.2802 9.53027L9.31049 10.5L10.2802 11.4697ZM11.9999 18C11.7774 18 11.5599 17.934 11.3749 17.8104C11.1899 17.6868 11.0457 17.5111 10.9606 17.3055C10.8754 17.1 10.8532 16.8738 10.8966 16.6555C10.94 16.4373 11.0471 16.2368 11.2044 16.0795C11.3618 15.9222 11.5622 15.815 11.7805 15.7716C11.9987 15.7282 12.2249 15.7505 12.4305 15.8356C12.636 15.9208 12.8117 16.065 12.9353 16.25C13.059 16.435 13.1249 16.6525 13.1249 16.875C13.1249 17.1734 13.0064 17.4595 12.7954 17.6705C12.5844 17.8815 12.2983 18 11.9999 18ZM17.7802 11.4697C17.85 11.5393 17.9053 11.622 17.9431 11.713C17.9809 11.804 18.0004 11.9016 18.0004 12.0002C18.0005 12.0987 17.9811 12.1963 17.9434 12.2874C17.9057 12.3784 17.8505 12.4612 17.7808 12.5308C17.7111 12.6005 17.6284 12.6558 17.5373 12.6935C17.4462 12.7312 17.3487 12.7505 17.2501 12.7505C17.1516 12.7504 17.054 12.731 16.963 12.6932C16.872 12.6554 16.7893 12.6 16.7197 12.5303L15.7499 11.5605L14.7802 12.5303C14.6395 12.6707 14.4489 12.7495 14.2501 12.7494C14.0514 12.7492 13.8608 12.6702 13.7202 12.5297C13.5797 12.3892 13.5007 12.1986 13.5006 11.9998C13.5005 11.8011 13.5793 11.6104 13.7197 11.4697L14.6894 10.5L13.7197 9.53027C13.5793 9.38958 13.5005 9.19892 13.5006 9.00016C13.5007 8.80141 13.5797 8.61083 13.7202 8.47029C13.8608 8.32975 14.0514 8.25075 14.2501 8.25064C14.4489 8.25054 14.6395 8.32934 14.7802 8.46973L15.7499 9.43945L16.7197 8.46973C16.8604 8.32934 17.051 8.25054 17.2498 8.25064C17.4485 8.25075 17.6391 8.32975 17.7797 8.47029C17.9202 8.61083 17.9992 8.80141 17.9993 9.00016C17.9994 9.19892 17.9206 9.38958 17.7802 9.53027L16.8105 10.5L17.7802 11.4697Z" fill="#1D1F21" style="fill: var(--ui-icon-primary-color);"/>
</svg>
