<svg  viewBox="0 0 24 24" fill="none" xmlns="http://www.w3.org/2000/svg" id="__THIS_ID_NEEDS_FOR_UI_ICON_COMPONENT__">
<path d="M12 2.25C10.0716 2.25 8.18653 2.82183 6.58315 3.89317C4.97977 4.96451 3.73009 6.48726 2.99213 8.26884C2.25418 10.0504 2.0611 12.0108 2.4373 13.9021C2.81351 15.7934 3.74211 17.5307 5.10567 18.8943C6.46923 20.2579 8.20651 21.1865 10.0978 21.5627C11.9891 21.9389 13.9495 21.7458 15.7311 21.0078C17.5127 20.2699 19.0354 19.0202 20.1068 17.4168C21.1781 15.8134 21.75 13.9284 21.75 12C21.747 9.41504 20.7189 6.93679 18.891 5.10894C17.0632 3.28109 14.5849 2.25293 12 2.25ZM15.375 9C15.5975 9 15.815 9.06598 16 9.1896C16.185 9.31321 16.3292 9.48891 16.4143 9.69448C16.4995 9.90005 16.5218 10.1262 16.4783 10.3445C16.4349 10.5627 16.3278 10.7632 16.1705 10.9205C16.0131 11.0778 15.8127 11.185 15.5944 11.2284C15.3762 11.2718 15.15 11.2495 14.9444 11.1644C14.7389 11.0792 14.5632 10.935 14.4396 10.75C14.3159 10.565 14.25 10.3475 14.25 10.125C14.25 9.82663 14.3685 9.54048 14.5795 9.3295C14.7904 9.11853 15.0766 9 15.375 9ZM8.62496 9C8.84746 9 9.06497 9.06598 9.24997 9.1896C9.43498 9.31321 9.57917 9.48891 9.66432 9.69448C9.74947 9.90005 9.77175 10.1262 9.72834 10.3445C9.68493 10.5627 9.57779 10.7632 9.42045 10.9205C9.26312 11.0778 9.06266 11.185 8.84444 11.2284C8.62621 11.2718 8.40001 11.2495 8.19444 11.1644C7.98887 11.0792 7.81317 10.935 7.68956 10.75C7.56594 10.565 7.49996 10.3475 7.49996 10.125C7.49996 9.82663 7.61848 9.54048 7.82946 9.3295C8.04044 9.11853 8.32659 9 8.62496 9ZM16.9685 16.7107C16.8132 16.8349 16.6148 16.8924 16.4171 16.8704C16.2194 16.8484 16.0386 16.7488 15.9143 16.5935L15 15.4506L14.0856 16.5935C14.0154 16.6814 13.9262 16.7523 13.8249 16.801C13.7235 16.8497 13.6124 16.875 13.5 16.875C13.3875 16.875 13.2764 16.8497 13.1751 16.801C13.0737 16.7523 12.9846 16.6814 12.9143 16.5935L12 15.4506L11.0856 16.5935C11.0154 16.6814 10.9262 16.7523 10.8249 16.801C10.7235 16.8497 10.6124 16.875 10.5 16.875C10.3875 16.875 10.2764 16.8497 10.1751 16.801C10.0737 16.7523 9.98456 16.6814 9.9143 16.5935L8.99996 15.4506L8.08562 16.5935C7.96136 16.7488 7.78049 16.8485 7.58279 16.8704C7.38509 16.8924 7.18676 16.8349 7.03144 16.7107C6.87611 16.5864 6.77651 16.4055 6.75454 16.2078C6.73257 16.0101 6.79004 15.8118 6.9143 15.6565L8.4143 13.7815C8.48456 13.6936 8.57368 13.6227 8.67506 13.574C8.77644 13.5253 8.88748 13.5 8.99996 13.5C9.11244 13.5 9.22348 13.5253 9.32485 13.574C9.42623 13.6227 9.51535 13.6936 9.58562 13.7815L10.5 14.9244L11.4143 13.7815C11.4846 13.6936 11.5737 13.6227 11.6751 13.574C11.7764 13.5253 11.8875 13.5 12 13.5C12.1124 13.5 12.2235 13.5253 12.3249 13.574C12.4262 13.6227 12.5154 13.6936 12.5856 13.7815L13.5 14.9244L14.4143 13.7815C14.4846 13.6936 14.5737 13.6227 14.6751 13.574C14.7764 13.5253 14.8875 13.5 15 13.5C15.1124 13.5 15.2235 13.5253 15.3249 13.574C15.4262 13.6227 15.5154 13.6936 15.5856 13.7815L17.0856 15.6565C17.2099 15.8118 17.2673 16.0101 17.2454 16.2078C17.2234 16.4055 17.1238 16.5864 16.9685 16.7107Z" fill="#1D1F21" style="fill: var(--ui-icon-primary-color);"/>
</svg>
