<svg  viewBox="0 0 24 24" fill="none" xmlns="http://www.w3.org/2000/svg" id="__THIS_ID_NEEDS_FOR_UI_ICON_COMPONENT__">
<path d="M12 2.25C10.0716 2.25 8.18653 2.82183 6.58315 3.89317C4.97977 4.96451 3.73009 6.48726 2.99213 8.26884C2.25418 10.0504 2.0611 12.0108 2.4373 13.9021C2.81351 15.7934 3.74211 17.5307 5.10567 18.8943C6.46923 20.2579 8.20651 21.1865 10.0978 21.5627C11.9891 21.9389 13.9495 21.7458 15.7311 21.0078C17.5127 20.2699 19.0354 19.0202 20.1068 17.4168C21.1781 15.8134 21.75 13.9284 21.75 12C21.747 9.41506 20.7188 6.93684 18.8909 5.10901C17.0631 3.28118 14.5849 2.25299 12 2.25ZM8.62496 11.25C8.40245 11.25 8.18495 11.184 7.99994 11.0604C7.81494 10.9368 7.67074 10.7611 7.58559 10.5555C7.50045 10.35 7.47817 10.1238 7.52157 9.90552C7.56498 9.68729 7.67213 9.48684 7.82946 9.3295C7.9868 9.17217 8.18725 9.06502 8.40548 9.02162C8.62371 8.97821 8.84991 9.00049 9.05548 9.08564C9.26104 9.17078 9.43675 9.31498 9.56036 9.49998C9.68398 9.68499 9.74996 9.9025 9.74996 10.125C9.74994 10.4234 9.63141 10.7095 9.42044 10.9205C9.20946 11.1315 8.92332 11.25 8.62496 11.25ZM15.375 11.25C15.1525 11.25 14.9349 11.184 14.7499 11.0604C14.5649 10.9368 14.4207 10.7611 14.3356 10.5555C14.2504 10.35 14.2282 10.1238 14.2716 9.90552C14.315 9.68729 14.4221 9.48684 14.5795 9.3295C14.7368 9.17217 14.9373 9.06502 15.1555 9.02162C15.3737 8.97821 15.5999 9.00049 15.8055 9.08564C16.011 9.17078 16.1867 9.31498 16.3104 9.49998C16.434 9.68499 16.5 9.9025 16.5 10.125C16.4999 10.4234 16.3814 10.7095 16.1704 10.9205C15.9595 11.1315 15.6733 11.25 15.375 11.25Z" fill="#1D1F21" style="fill: var(--ui-icon-primary-color);"/>
</svg>
