<svg  viewBox="0 0 24 24" fill="none" xmlns="http://www.w3.org/2000/svg" id="__THIS_ID_NEEDS_FOR_UI_ICON_COMPONENT__">
<path d="M12 2.25C10.0716 2.25 8.18653 2.82183 6.58315 3.89317C4.97977 4.96451 3.73009 6.48726 2.99213 8.26884C2.25418 10.0504 2.0611 12.0108 2.4373 13.9021C2.81351 15.7934 3.74211 17.5307 5.10567 18.8943C6.46923 20.2579 8.20651 21.1865 10.0978 21.5627C11.9891 21.9389 13.9495 21.7458 15.7311 21.0078C17.5127 20.2699 19.0354 19.0202 20.1068 17.4168C21.1781 15.8134 21.75 13.9284 21.75 12C21.747 9.41506 20.7188 6.93684 18.8909 5.10901C17.0631 3.28118 14.5849 2.25299 12 2.25ZM15.375 9C15.5975 9 15.815 9.06598 16 9.1896C16.185 9.31321 16.3292 9.48891 16.4143 9.69448C16.4995 9.90005 16.5218 10.1262 16.4783 10.3445C16.4349 10.5627 16.3278 10.7632 16.1705 10.9205C16.0131 11.0778 15.8127 11.185 15.5944 11.2284C15.3762 11.2718 15.15 11.2495 14.9444 11.1644C14.7389 11.0792 14.5632 10.935 14.4396 10.75C14.3159 10.565 14.25 10.3475 14.25 10.125C14.25 9.82664 14.3685 9.5405 14.5795 9.32952C14.7905 9.11855 15.0766 9.00001 15.375 9ZM8.62496 9C8.84746 9 9.06497 9.06598 9.24997 9.1896C9.43498 9.31321 9.57917 9.48891 9.66432 9.69448C9.74947 9.90005 9.77175 10.1262 9.72834 10.3445C9.68493 10.5627 9.57779 10.7632 9.42045 10.9205C9.26312 11.0778 9.06266 11.185 8.84444 11.2284C8.62621 11.2718 8.40001 11.2495 8.19444 11.1644C7.98887 11.0792 7.81317 10.935 7.68956 10.75C7.56594 10.565 7.49996 10.3475 7.49996 10.125C7.49997 9.82664 7.6185 9.5405 7.82948 9.32952C8.04045 9.11855 8.32659 9.00001 8.62496 9ZM16.5468 14.6257C15.9746 15.6145 15.0965 16.3906 14.0449 16.8369C12.8653 17.334 11.5449 17.3836 10.3313 16.9765C9.11771 16.5694 8.09433 15.7336 7.45308 14.6257C7.40374 14.5405 7.37167 14.4464 7.35869 14.3488C7.34572 14.2512 7.3521 14.152 7.37747 14.0568C7.40283 13.9617 7.4467 13.8725 7.50654 13.7943C7.56639 13.7161 7.64106 13.6504 7.72628 13.6011C7.81149 13.5517 7.9056 13.5197 8.00321 13.5067C8.10082 13.4937 8.20004 13.5001 8.29519 13.5255C8.39033 13.5508 8.47955 13.5947 8.55775 13.6545C8.63595 13.7144 8.70159 13.789 8.75094 13.8743C9.16078 14.5812 9.7889 15.1361 10.541 15.4556C11.0035 15.6485 11.4996 15.7478 12.0007 15.7478C12.5018 15.7478 12.9979 15.6485 13.4604 15.4556C13.9055 15.2668 14.3099 14.9937 14.6513 14.6514C14.883 14.419 15.0839 14.1579 15.249 13.8743C15.2983 13.789 15.364 13.7144 15.4422 13.6545C15.5204 13.5947 15.6096 13.5508 15.7047 13.5255C15.7999 13.5001 15.8991 13.4937 15.9967 13.5067C16.0943 13.5197 16.1884 13.5517 16.2736 13.6011C16.3589 13.6504 16.4335 13.7161 16.4934 13.7943C16.5532 13.8725 16.5971 13.9617 16.6224 14.0568C16.6478 14.152 16.6542 14.2512 16.6412 14.3488C16.6282 14.4464 16.5962 14.5405 16.5468 14.6257Z" fill="#1D1F21" style="fill: var(--ui-icon-primary-color);"/>
</svg>
