<svg  viewBox="0 0 24 24" fill="none" xmlns="http://www.w3.org/2000/svg" id="__THIS_ID_NEEDS_FOR_UI_ICON_COMPONENT__">
<path d="M12 2.25C10.0716 2.25 8.18653 2.82183 6.58315 3.89317C4.97977 4.96451 3.73009 6.48726 2.99213 8.26884C2.25418 10.0504 2.0611 12.0108 2.4373 13.9021C2.81351 15.7934 3.74211 17.5307 5.10567 18.8943C6.46923 20.2579 8.20651 21.1865 10.0978 21.5627C11.9891 21.9389 13.9495 21.7458 15.7311 21.0078C17.5127 20.2699 19.0354 19.0202 20.1068 17.4168C21.1781 15.8134 21.75 13.9284 21.75 12C21.747 9.41506 20.7188 6.93684 18.8909 5.10901C17.0631 3.28118 14.5849 2.25299 12 2.25ZM15.375 9C15.5975 9 15.815 9.06598 16 9.1896C16.185 9.31321 16.3292 9.48891 16.4143 9.69448C16.4995 9.90005 16.5218 10.1262 16.4783 10.3445C16.4349 10.5627 16.3278 10.7632 16.1705 10.9205C16.0131 11.0778 15.8127 11.185 15.5944 11.2284C15.3762 11.2718 15.15 11.2495 14.9444 11.1644C14.7389 11.0792 14.5632 10.935 14.4396 10.75C14.3159 10.565 14.25 10.3475 14.25 10.125C14.25 9.82664 14.3685 9.5405 14.5795 9.32952C14.7905 9.11855 15.0766 9.00001 15.375 9ZM8.62496 9C8.84746 9 9.06497 9.06598 9.24997 9.1896C9.43498 9.31321 9.57917 9.48891 9.66432 9.69448C9.74947 9.90005 9.77175 10.1262 9.72834 10.3445C9.68493 10.5627 9.57779 10.7632 9.42045 10.9205C9.26312 11.0778 9.06266 11.185 8.84444 11.2284C8.62621 11.2718 8.40001 11.2495 8.19444 11.1644C7.98887 11.0792 7.81317 10.935 7.68956 10.75C7.56594 10.565 7.49996 10.3475 7.49996 10.125C7.49997 9.82664 7.6185 9.5405 7.82948 9.32952C8.04045 9.11855 8.32659 9.00001 8.62496 9ZM16.2736 17.1489C16.1598 17.2153 16.0304 17.2502 15.8986 17.25C15.767 17.2501 15.6377 17.2156 15.5237 17.1499C15.4096 17.0842 15.3149 16.9896 15.249 16.8757C15.0843 16.5917 14.8834 16.3302 14.6513 16.0979C14.3099 15.7555 13.9052 15.4826 13.4597 15.2944C12.9974 15.1008 12.5012 15.0011 12 15.0011C11.4987 15.0011 11.0025 15.1008 10.5402 15.2944C9.78812 15.6133 9.16028 16.1684 8.75167 16.8757C8.65202 17.0479 8.48804 17.1735 8.29581 17.2248C8.10358 17.2761 7.89885 17.2489 7.72664 17.1493C7.55444 17.0496 7.42888 16.8857 7.37757 16.6934C7.32627 16.5012 7.35343 16.2965 7.45308 16.1243C7.91426 15.3266 8.57717 14.6643 9.37527 14.2038C10.1734 13.7433 11.0786 13.5009 12 13.5009C12.9214 13.5009 13.8266 13.7433 14.6247 14.2038C15.4227 14.6643 16.0857 15.3266 16.5468 16.1243C16.5963 16.2095 16.6285 16.3036 16.6415 16.4012C16.6545 16.4988 16.6482 16.5981 16.6228 16.6933C16.5974 16.7884 16.5535 16.8777 16.4936 16.9559C16.4337 17.0341 16.3589 17.0997 16.2736 17.1489Z" fill="#1D1F21" style="fill: var(--ui-icon-primary-color);"/>
</svg>
