<svg  viewBox="0 0 24 24" fill="none" xmlns="http://www.w3.org/2000/svg" id="__THIS_ID_NEEDS_FOR_UI_ICON_COMPONENT__">
<path d="M12 2.25C10.0716 2.25 8.18653 2.82183 6.58315 3.89317C4.97977 4.96451 3.73009 6.48726 2.99213 8.26884C2.25418 10.0504 2.0611 12.0108 2.4373 13.9021C2.81351 15.7934 3.74211 17.5307 5.10567 18.8943C6.46923 20.2579 8.20651 21.1865 10.0978 21.5627C11.9891 21.9389 13.9495 21.7458 15.7311 21.0078C17.5127 20.2699 19.0354 19.0202 20.1068 17.4168C21.1781 15.8134 21.75 13.9284 21.75 12C21.747 9.41506 20.7188 6.93684 18.8909 5.10901C17.0631 3.28118 14.5849 2.25299 12 2.25ZM8.62496 9C8.84746 9 9.06497 9.06598 9.24997 9.1896C9.43498 9.31321 9.57917 9.48891 9.66432 9.69448C9.74947 9.90005 9.77175 10.1262 9.72834 10.3445C9.68493 10.5627 9.57779 10.7632 9.42045 10.9205C9.26312 11.0778 9.06266 11.185 8.84444 11.2284C8.62621 11.2718 8.40001 11.2495 8.19444 11.1644C7.98887 11.0792 7.81317 10.935 7.68956 10.75C7.56594 10.565 7.49996 10.3475 7.49996 10.125C7.49997 9.82664 7.6185 9.5405 7.82948 9.32952C8.04045 9.11855 8.32659 9.00001 8.62496 9ZM15.75 15.75H8.24996C8.05105 15.75 7.86028 15.671 7.71963 15.5303C7.57898 15.3897 7.49996 15.1989 7.49996 15C7.49996 14.8011 7.57898 14.6103 7.71963 14.4697C7.86028 14.329 8.05105 14.25 8.24996 14.25H15.75C15.9489 14.25 16.1396 14.329 16.2803 14.4697C16.4209 14.6103 16.5 14.8011 16.5 15C16.5 15.1989 16.4209 15.3897 16.2803 15.5303C16.1396 15.671 15.9489 15.75 15.75 15.75ZM15.375 11.25C15.1525 11.25 14.9349 11.184 14.7499 11.0604C14.5649 10.9368 14.4207 10.7611 14.3356 10.5555C14.2504 10.35 14.2282 10.1238 14.2716 9.90552C14.315 9.68729 14.4221 9.48684 14.5795 9.3295C14.7368 9.17217 14.9373 9.06502 15.1555 9.02162C15.3737 8.97821 15.5999 9.00049 15.8055 9.08564C16.011 9.17078 16.1867 9.31498 16.3104 9.49998C16.434 9.68499 16.5 9.9025 16.5 10.125C16.4999 10.4234 16.3814 10.7095 16.1704 10.9205C15.9595 11.1315 15.6733 11.25 15.375 11.25Z" fill="#1D1F21" style="fill: var(--ui-icon-primary-color);"/>
</svg>
