<svg  viewBox="0 0 24 24" fill="none" xmlns="http://www.w3.org/2000/svg" id="__THIS_ID_NEEDS_FOR_UI_ICON_COMPONENT__">
<path d="M21.5302 16.28L17.7803 20.0294C17.7794 20.0303 17.7784 20.031 17.7775 20.0319C17.7609 20.0484 17.7435 20.0641 17.7254 20.079C17.7167 20.0862 17.7075 20.0924 17.6986 20.0991C17.6879 20.107 17.6775 20.1153 17.6664 20.1227C17.6558 20.1298 17.6448 20.136 17.6339 20.1425C17.6238 20.1485 17.6139 20.1549 17.6035 20.1604C17.5924 20.1664 17.581 20.1713 17.5697 20.1767C17.5588 20.1818 17.5481 20.1873 17.5369 20.1919C17.526 20.1964 17.5148 20.2001 17.5037 20.2041C17.4917 20.2084 17.4799 20.213 17.4677 20.2167C17.4565 20.22 17.4453 20.2225 17.4341 20.2253C17.4216 20.2285 17.4092 20.232 17.3965 20.2345C17.3835 20.2371 17.3704 20.2386 17.3573 20.2405C17.3462 20.2421 17.3352 20.2442 17.324 20.2453C17.2994 20.2477 17.2747 20.249 17.25 20.249C17.2253 20.249 17.2006 20.2477 17.176 20.2453C17.1649 20.2442 17.1541 20.2421 17.1431 20.2405C17.1298 20.2386 17.1166 20.2371 17.1035 20.2345C17.0909 20.232 17.0787 20.2285 17.0663 20.2254C17.0549 20.2226 17.0435 20.2201 17.0323 20.2167C17.0202 20.213 17.0086 20.2085 16.9968 20.2043C16.9855 20.2002 16.9741 20.1965 16.963 20.1919C16.952 20.1874 16.9416 20.1821 16.9309 20.177C16.9194 20.1716 16.9077 20.1664 16.8964 20.1604C16.8864 20.155 16.8768 20.1489 16.8671 20.1431C16.8559 20.1364 16.8444 20.13 16.8334 20.1226C16.8229 20.1156 16.813 20.1077 16.8029 20.1002C16.7934 20.0931 16.7837 20.0865 16.7745 20.0789C16.7581 20.0655 16.7425 20.051 16.7273 20.0363C16.7248 20.0339 16.7221 20.0318 16.7197 20.0294L12.9697 16.2794C12.829 16.1387 12.75 15.948 12.75 15.749C12.75 15.5501 12.829 15.3593 12.9697 15.2187C13.1103 15.078 13.3011 14.999 13.5 14.999C13.6989 14.999 13.8897 15.078 14.0304 15.2187L16.5 17.6883V10.499C16.5 10.3001 16.579 10.1093 16.7197 9.9687C16.8603 9.82804 17.0511 9.74903 17.25 9.74903C17.4489 9.74903 17.6397 9.82804 17.7803 9.9687C17.921 10.1093 18 10.3001 18 10.499V17.6886L20.4696 15.2193C20.6103 15.0787 20.8011 14.9997 21 14.9997C21.1989 14.9997 21.3896 15.0787 21.5303 15.2194C21.6709 15.3601 21.7499 15.5508 21.7499 15.7497C21.7499 15.9486 21.6708 16.1394 21.5302 16.28V16.28ZM11.2499 11.249H4.5C4.30109 11.249 4.11032 11.328 3.96967 11.4687C3.82902 11.6093 3.75 11.8001 3.75 11.999C3.75 12.1979 3.82902 12.3887 3.96967 12.5294C4.11032 12.67 4.30109 12.749 4.5 12.749H11.2499C11.4488 12.749 11.6396 12.67 11.7802 12.5294C11.9209 12.3887 11.9999 12.1979 11.9999 11.999C11.9999 11.8001 11.9209 11.6093 11.7802 11.4687C11.6396 11.328 11.4488 11.249 11.2499 11.249ZM4.5 6.74902H17.2499C17.4488 6.74902 17.6396 6.67001 17.7802 6.52935C17.9209 6.3887 17.9999 6.19794 17.9999 5.99902C17.9999 5.80011 17.9209 5.60935 17.7802 5.46869C17.6396 5.32804 17.4488 5.24902 17.2499 5.24902H4.5C4.30109 5.24902 4.11032 5.32804 3.96967 5.46869C3.82902 5.60935 3.75 5.80011 3.75 5.99902C3.75 6.19794 3.82902 6.3887 3.96967 6.52935C4.11032 6.67001 4.30109 6.74902 4.5 6.74902ZM9.75 17.249H4.5C4.30109 17.249 4.11032 17.328 3.96967 17.4687C3.82902 17.6093 3.75 17.8001 3.75 17.999C3.75 18.1979 3.82902 18.3887 3.96967 18.5294C4.11032 18.67 4.30109 18.749 4.5 18.749H9.75C9.94891 18.749 10.1397 18.67 10.2803 18.5294C10.421 18.3887 10.5 18.1979 10.5 17.999C10.5 17.8001 10.421 17.6093 10.2803 17.4687C10.1397 17.328 9.94891 17.249 9.75 17.249Z" fill="#1D1F21" style="fill: var(--ui-icon-primary-color);"/>
</svg>
