<svg  viewBox="0 0 24 24" fill="none" xmlns="http://www.w3.org/2000/svg" id="__THIS_ID_NEEDS_FOR_UI_ICON_COMPONENT__">
<path d="M21.75 13.1246C21.75 14.0271 21.5173 14.9144 21.0745 15.7008C20.6316 16.4872 19.9934 17.1462 19.2216 17.6141C18.4498 18.0819 17.5704 18.3429 16.6683 18.3719C15.7662 18.4008 14.8719 18.1967 14.0717 17.7792L15.1912 21.1374C15.2288 21.2502 15.239 21.3702 15.2211 21.4877C15.2032 21.6052 15.1576 21.7167 15.0881 21.8131C15.0187 21.9095 14.9273 21.988 14.8215 22.0422C14.7157 22.0963 14.5985 22.1246 14.4797 22.1246H9.52029C9.40145 22.1246 9.2843 22.0963 9.17851 22.0422C9.07272 21.988 8.98132 21.9095 8.91183 21.8131C8.84234 21.7167 8.79676 21.6051 8.77885 21.4876C8.76093 21.3701 8.7712 21.2501 8.80879 21.1373L9.92825 17.7792C9.12806 18.1967 8.23375 18.4008 7.33167 18.3719C6.42959 18.3429 5.55019 18.0819 4.77839 17.6141C4.00658 17.1462 3.36843 16.4872 2.92554 15.7008C2.48265 14.9144 2.24999 14.0271 2.25 13.1246C2.25 8.10207 11.408 2.18318 11.7979 1.9337C11.8582 1.89505 11.9283 1.87451 12 1.87451C12.0717 1.87451 12.1418 1.89505 12.2021 1.9337C12.592 2.18318 21.75 8.10207 21.75 13.1246Z" fill="#1D1F21" style="fill: var(--ui-icon-primary-color);"/>
</svg>
