<svg  viewBox="0 0 24 24" fill="none" xmlns="http://www.w3.org/2000/svg" id="__THIS_ID_NEEDS_FOR_UI_ICON_COMPONENT__">
<path d="M5.05499 3.2458C4.92118 3.0986 4.73437 3.0106 4.53567 3.00114C4.33697 2.99168 4.14265 3.06154 3.99545 3.19535C3.84826 3.32917 3.76025 3.51597 3.75079 3.71467C3.74133 3.91338 3.81119 4.1077 3.94501 4.25489L6.89566 7.50062H3C2.60231 7.50107 2.22105 7.65926 1.93984 7.94046C1.65864 8.22167 1.50045 8.60293 1.5 9.00062V15.0006C1.50045 15.3983 1.65864 15.7796 1.93984 16.0608C2.22105 16.342 2.60231 16.5002 3 16.5006H7.24265L13.7896 21.5926L13.7891 21.5915L13.7895 21.5919C13.9003 21.6781 14.033 21.7315 14.1726 21.746C14.3123 21.7605 14.4532 21.7355 14.5793 21.6738C14.7054 21.6121 14.8116 21.5163 14.8859 21.3971C14.9602 21.278 14.9995 21.1404 14.9995 21.0001V16.4148L18.945 20.7549C19.0788 20.9021 19.2656 20.9901 19.4643 20.9996C19.663 21.009 19.8574 20.9392 20.0045 20.8053C20.1517 20.6715 20.2397 20.4847 20.2492 20.286C20.2587 20.0873 20.1888 19.893 20.055 19.7458L5.05499 3.2458ZM6.74725 15.0006H3V9.00062H6.74725V15.0006ZM9.95966 6.41123C9.89014 6.33477 9.83718 6.24476 9.8041 6.14686C9.77101 6.04895 9.75852 5.94527 9.7674 5.84231C9.77628 5.73935 9.80634 5.63934 9.8557 5.54854C9.90506 5.45775 9.97265 5.37814 10.0542 5.31471L13.7896 2.40946C13.9004 2.32326 14.0332 2.2699 14.1728 2.25545C14.3125 2.241 14.4534 2.26604 14.5795 2.32772C14.7057 2.3894 14.8119 2.48525 14.8863 2.60436C14.9606 2.72346 15 2.86105 15 3.00144V10.0156C15 10.1669 14.9542 10.3148 14.8686 10.4396C14.783 10.5645 14.6616 10.6605 14.5204 10.7151C14.3792 10.7697 14.2248 10.7803 14.0775 10.7455C13.9302 10.7107 13.7968 10.6321 13.695 10.5201L9.95966 6.41123ZM23.2478 12.0014C23.2505 12.9868 23.0577 13.9628 22.6807 14.8731C22.3036 15.7835 21.7497 16.6099 21.051 17.3047C20.9103 17.4454 20.7196 17.5244 20.5207 17.5243C20.3218 17.5243 20.131 17.4453 19.9904 17.3046C19.8497 17.164 19.7707 16.9732 19.7707 16.7743C19.7708 16.5754 19.8498 16.3846 19.9905 16.244C20.5476 15.6868 20.9896 15.0254 21.2911 14.2975C21.5926 13.5695 21.7478 12.7893 21.7478 12.0014C21.7478 11.2135 21.5926 10.4333 21.2911 9.70531C20.9896 8.97737 20.5476 8.31594 19.9905 7.75879C19.9206 7.6892 19.8652 7.60651 19.8274 7.51548C19.7895 7.42445 19.77 7.32684 19.7699 7.22826C19.7699 7.12967 19.7892 7.03204 19.8269 6.94094C19.8646 6.84984 19.9199 6.76707 19.9896 6.69735C20.0593 6.62764 20.142 6.57235 20.2331 6.53465C20.3242 6.49695 20.4218 6.47758 20.5204 6.47764C20.619 6.47771 20.7166 6.49721 20.8077 6.53503C20.8987 6.57286 20.9814 6.62826 21.051 6.69807C21.7497 7.39287 22.3036 8.21936 22.6807 9.12969C23.0578 10.04 23.2505 11.0161 23.2478 12.0014ZM17.3387 10.4104C17.1981 10.2698 17.119 10.079 17.119 9.88008C17.119 9.68115 17.1981 9.49037 17.3387 9.34971C17.4794 9.20905 17.6702 9.13003 17.8691 9.13003C18.068 9.13003 18.2588 9.20905 18.3994 9.34971C18.7477 9.69794 19.0239 10.1113 19.2124 10.5663C19.4008 11.0213 19.4978 11.509 19.4978 12.0014C19.4978 12.4939 19.4008 12.9815 19.2123 13.4365C19.0238 13.8915 18.7476 14.3049 18.3993 14.6531C18.2587 14.7936 18.0679 14.8725 17.8691 14.8724C17.6703 14.8723 17.4796 14.7933 17.339 14.6527C17.1985 14.5121 17.1195 14.3214 17.1194 14.1226C17.1194 13.9237 17.1983 13.733 17.3388 13.5924C17.5477 13.3834 17.7135 13.1354 17.8265 12.8624C17.9396 12.5894 17.9978 12.2969 17.9978 12.0014C17.9978 11.7059 17.9396 11.4133 17.8265 11.1404C17.7134 10.8674 17.5477 10.6194 17.3387 10.4104H17.3387Z" fill="#1D1F21" style="fill: var(--ui-icon-primary-color);"/>
</svg>
