<svg  viewBox="0 0 24 24" fill="none" xmlns="http://www.w3.org/2000/svg" id="__THIS_ID_NEEDS_FOR_UI_ICON_COMPONENT__">
<path d="M14.5795 2.32727C14.4534 2.26556 14.3125 2.24051 14.1728 2.25496C14.0332 2.26941 13.9004 2.3228 13.7896 2.40902L7.24265 7.501H3C2.60231 7.50146 2.22105 7.65964 1.93984 7.94085C1.65864 8.22205 1.50045 8.60332 1.5 9.001V15.001C1.50045 15.3987 1.65864 15.78 1.93984 16.0612C2.22105 16.3424 2.60231 16.5006 3 16.501H7.24265L13.7896 21.593C13.9004 21.6792 14.0332 21.7325 14.1728 21.747C14.3125 21.7614 14.4534 21.7364 14.5795 21.6747C14.7057 21.613 14.8119 21.5172 14.8863 21.3981C14.9606 21.279 15 21.1414 15 21.001V3.001C15 2.8606 14.9606 2.72302 14.8862 2.60391C14.8119 2.4848 14.7056 2.38895 14.5795 2.32727ZM3 9.001H6.74725V15.001H3V9.001Z" fill="#1D1F21" style="fill: var(--ui-icon-primary-color);"/>
</svg>
