<svg  viewBox="0 0 24 24" fill="none" xmlns="http://www.w3.org/2000/svg" id="__THIS_ID_NEEDS_FOR_UI_ICON_COMPONENT__">
<path d="M14.9995 2.99945V20.9994C14.9996 21.1398 14.9602 21.2774 14.8859 21.3966C14.8117 21.5157 14.7054 21.6116 14.5793 21.6732C14.4532 21.7349 14.3123 21.7599 14.1726 21.7454C14.033 21.7309 13.9002 21.6775 13.7895 21.5912L7.24164 16.4994H2.99945C2.60175 16.4991 2.22044 16.3409 1.93922 16.0597C1.65801 15.7785 1.49984 15.3972 1.49945 14.9994V8.99945C1.49984 8.60174 1.65801 8.22044 1.93922 7.93922C2.22044 7.658 2.60175 7.49984 2.99945 7.49945H7.24164L13.7895 2.40765C13.9002 2.3214 14.033 2.268 14.1726 2.25351C14.3123 2.23903 14.4532 2.26405 14.5793 2.32573C14.7054 2.38741 14.8116 2.48326 14.8859 2.60237C14.9602 2.72149 14.9995 2.85907 14.9995 2.99945ZM21.31 11.9994L23.0297 10.2797C23.1701 10.139 23.2489 9.94837 23.2488 9.74961C23.2487 9.55086 23.1697 9.36028 23.0292 9.21974C22.8886 9.0792 22.698 9.0002 22.4993 9.00009C22.3005 8.99999 22.1099 9.07878 21.9692 9.21917L20.2495 10.9389L18.5297 9.21917C18.389 9.07878 18.1984 8.99999 17.9996 9.00009C17.8009 9.0002 17.6103 9.0792 17.4697 9.21974C17.3292 9.36028 17.2502 9.55086 17.2501 9.74961C17.25 9.94837 17.3288 10.139 17.4692 10.2797L19.1889 11.9994L17.4692 13.7192C17.3994 13.7888 17.3441 13.8715 17.3063 13.9625C17.2685 14.0535 17.249 14.1511 17.249 14.2496C17.2489 14.3482 17.2683 14.4458 17.306 14.5368C17.3437 14.6279 17.3989 14.7106 17.4686 14.7803C17.5383 14.85 17.621 14.9052 17.7121 14.9429C17.8031 14.9806 17.9007 15 17.9993 14.9999C18.0978 14.9999 18.1954 14.9804 18.2864 14.9426C18.3774 14.9048 18.4601 14.8495 18.5297 14.7797L20.2495 13.06L21.9692 14.7797C22.1099 14.9201 22.3005 14.9989 22.4993 14.9988C22.698 14.9987 22.8886 14.9197 23.0292 14.7792C23.1697 14.6386 23.2487 14.448 23.2488 14.2493C23.2489 14.0505 23.1701 13.8599 23.0297 13.7192L21.31 11.9994Z" fill="#1D1F21" style="fill: var(--ui-icon-primary-color);"/>
</svg>
