<svg  viewBox="0 0 24 24" fill="none" xmlns="http://www.w3.org/2000/svg" id="__THIS_ID_NEEDS_FOR_UI_ICON_COMPONENT__">
<path d="M23.25 12C23.2527 12.9853 23.0599 13.9614 22.6829 14.8717C22.3058 15.782 21.7519 16.6085 21.0533 17.3034C20.9126 17.4438 20.7219 17.5227 20.523 17.5226C20.3242 17.5226 20.1335 17.4436 19.9929 17.303C19.8523 17.1624 19.7733 16.9717 19.7733 16.7729C19.7732 16.574 19.8521 16.3833 19.9926 16.2426C20.5497 15.6855 20.9917 15.024 21.2933 14.2961C21.5948 13.5681 21.75 12.7879 21.75 12C21.75 11.212 21.5948 10.4318 21.2933 9.70386C20.9917 8.9759 20.5497 8.31447 19.9926 7.75733C19.8521 7.61663 19.7732 7.42591 19.7733 7.22708C19.7733 7.02825 19.8523 6.83758 19.9929 6.69699C20.1335 6.55639 20.3242 6.47738 20.523 6.4773C20.7219 6.47723 20.9126 6.55611 21.0533 6.6966C21.7519 7.39143 22.3058 8.21792 22.6829 9.12825C23.0599 10.0386 23.2527 11.0147 23.25 12ZM15 2.99998V21C15 21.1404 14.9606 21.278 14.8863 21.3971C14.8119 21.5162 14.7057 21.612 14.5795 21.6737C14.4534 21.7354 14.3125 21.7604 14.1728 21.746C14.0332 21.7315 13.9004 21.6782 13.7896 21.592L7.24264 16.5H3C2.60231 16.4995 2.22105 16.3413 1.93984 16.0601C1.65864 15.7789 1.50045 15.3977 1.5 15V8.99998C1.50045 8.60229 1.65864 8.22103 1.93984 7.93982C2.22105 7.65861 2.60231 7.50043 3 7.49998H7.24265L13.7896 2.408C13.9004 2.3218 14.0332 2.26843 14.1728 2.25398C14.3125 2.23953 14.4534 2.26457 14.5795 2.32626C14.7057 2.38794 14.8119 2.48379 14.8863 2.60289C14.9606 2.722 15 2.85958 15 2.99998ZM3 15H6.74725V8.99998H3V15ZM17.3409 9.34843C17.2713 9.41807 17.216 9.50075 17.1783 9.59175C17.1407 9.68275 17.1213 9.78027 17.1213 9.87877C17.1213 9.97726 17.1407 10.0748 17.1784 10.1658C17.2161 10.2568 17.2713 10.3394 17.341 10.4091C17.5499 10.618 17.7157 10.866 17.8287 11.139C17.9418 11.4119 18 11.7045 18 12C18 12.2954 17.9418 12.588 17.8287 12.861C17.7157 13.1339 17.5499 13.382 17.341 13.5909C17.2714 13.6605 17.2161 13.7432 17.1784 13.8342C17.1407 13.9252 17.1213 14.0227 17.1213 14.1212C17.1213 14.2197 17.1407 14.3172 17.1784 14.4082C17.216 14.4992 17.2713 14.5819 17.3409 14.6515C17.4816 14.7922 17.6723 14.8712 17.8712 14.8712C17.9697 14.8712 18.0672 14.8519 18.1582 14.8142C18.2492 14.7765 18.3319 14.7213 18.4016 14.6516C18.7498 14.3034 19.026 13.89 19.2145 13.4351C19.403 12.9801 19.5 12.4924 19.5 12C19.5 11.5075 19.403 11.0199 19.2145 10.5649C19.026 10.1099 18.7498 9.69654 18.4016 9.34834C18.3319 9.27868 18.2492 9.22343 18.1582 9.18574C18.0672 9.14804 17.9697 9.12865 17.8712 9.12865C17.7727 9.12866 17.6752 9.14808 17.5842 9.18579C17.4932 9.2235 17.4105 9.27876 17.3409 9.34843Z" fill="#1D1F21" style="fill: var(--ui-icon-primary-color);"/>
</svg>
