<svg  viewBox="0 0 24 24" fill="none" xmlns="http://www.w3.org/2000/svg" id="__THIS_ID_NEEDS_FOR_UI_ICON_COMPONENT__">
<path d="M14.5795 2.32629C14.4534 2.26458 14.3125 2.23953 14.1728 2.25398C14.0332 2.26844 13.9004 2.32182 13.7896 2.40805L7.24264 7.50003H3C2.60231 7.50048 2.22105 7.65866 1.93984 7.93987C1.65864 8.22108 1.50045 8.60234 1.5 9.00003V15C1.50045 15.3977 1.65864 15.779 1.93984 16.0602C2.22105 16.3414 2.60231 16.4996 3 16.5H7.24265L13.7896 21.592C13.9004 21.6782 14.0332 21.7316 14.1728 21.746C14.3125 21.7605 14.4534 21.7354 14.5795 21.6737C14.7057 21.6121 14.8119 21.5162 14.8863 21.3971C14.9606 21.278 15 21.1404 15 21V3.00003C15 2.85962 14.9606 2.72204 14.8863 2.60293C14.8119 2.48382 14.7056 2.38797 14.5795 2.32629ZM3 9.00003H6.74725V15H3V9.00003ZM19.5 12C19.5014 12.4927 19.405 12.9807 19.2164 13.4359C19.0279 13.8911 18.7509 14.3043 18.4016 14.6517C18.2609 14.7923 18.0701 14.8713 17.8712 14.8713C17.6723 14.8713 17.4816 14.7922 17.3409 14.6516C17.2003 14.5109 17.1213 14.3202 17.1213 14.1212C17.1213 13.9223 17.2003 13.7316 17.341 13.5909C17.5499 13.382 17.7157 13.134 17.8287 12.861C17.9418 12.5881 18 12.2955 18 12C18 11.7046 17.9418 11.412 17.8287 11.139C17.7157 10.8661 17.5499 10.618 17.341 10.4091C17.2005 10.2685 17.1216 10.0777 17.1216 9.87891C17.1217 9.68009 17.2007 9.48941 17.3412 9.34881C17.4818 9.2082 17.6725 9.12918 17.8713 9.1291C18.0701 9.12902 18.2609 9.2079 18.4016 9.34839C18.7509 9.69577 19.0279 10.109 19.2164 10.5642C19.405 11.0193 19.5014 11.5074 19.5 12Z" fill="#1D1F21" style="fill: var(--ui-icon-primary-color);"/>
</svg>
