<svg  viewBox="0 0 24 24" fill="none" xmlns="http://www.w3.org/2000/svg" id="__THIS_ID_NEEDS_FOR_UI_ICON_COMPONENT__">
<path d="M14.9995 2.99945V20.9994C14.9996 21.1398 14.9602 21.2774 14.8859 21.3966C14.8117 21.5157 14.7054 21.6116 14.5793 21.6732C14.4532 21.7349 14.3123 21.7599 14.1726 21.7454C14.033 21.7309 13.9002 21.6775 13.7895 21.5912L7.24164 16.4994H2.99945C2.60175 16.4991 2.22044 16.3409 1.93922 16.0597C1.65801 15.7785 1.49984 15.3972 1.49945 14.9994V8.99945C1.49984 8.60174 1.65801 8.22044 1.93922 7.93922C2.22044 7.658 2.60175 7.49984 2.99945 7.49945H7.24164L13.7895 2.40765C13.9002 2.3214 14.033 2.268 14.1726 2.25351C14.3123 2.23903 14.4532 2.26405 14.5793 2.32573C14.7054 2.38741 14.8116 2.48326 14.8859 2.60237C14.9602 2.72149 14.9995 2.85907 14.9995 2.99945ZM17.9995 8.99972C17.8005 8.99973 17.6098 9.07875 17.4691 9.2194C17.3285 9.36005 17.2495 9.55081 17.2495 9.74972V14.2497C17.2495 14.4486 17.3285 14.6394 17.4691 14.7801C17.6098 14.9207 17.8005 14.9997 17.9995 14.9997C18.1984 14.9997 18.3891 14.9207 18.5298 14.7801C18.6704 14.6394 18.7495 14.4486 18.7495 14.2497V9.74972C18.7494 9.55081 18.6704 9.36005 18.5298 9.2194C18.3891 9.07875 18.1984 8.99973 17.9995 8.99972ZM20.9995 7.49972C20.8005 7.49973 20.6098 7.57875 20.4691 7.7194C20.3285 7.86005 20.2495 8.05081 20.2495 8.24972V15.7497C20.2495 15.9486 20.3285 16.1394 20.4691 16.2801C20.6098 16.4207 20.8005 16.4997 20.9995 16.4997C21.1984 16.4997 21.3891 16.4207 21.5298 16.2801C21.6704 16.1394 21.7495 15.9486 21.7495 15.7497V8.24972C21.7494 8.05081 21.6704 7.86005 21.5298 7.7194C21.3891 7.57875 21.1984 7.49973 20.9995 7.49972Z" fill="#1D1F21" style="fill: var(--ui-icon-primary-color);"/>
</svg>
