<svg  viewBox="0 0 24 24" fill="none" xmlns="http://www.w3.org/2000/svg" id="__THIS_ID_NEEDS_FOR_UI_ICON_COMPONENT__">
<path d="M0.749889 9.75044C0.749887 9.61822 0.784843 9.48834 0.851213 9.37397C0.917584 9.25961 1.01301 9.16482 1.12782 9.09923L11.6278 3.09923C11.7411 3.03452 11.8694 3.00049 11.9999 3.00049C12.1304 3.00049 12.2586 3.03452 12.372 3.09923L22.872 9.09923C22.9868 9.16483 23.0822 9.25961 23.1486 9.37397C23.2149 9.48834 23.2499 9.61822 23.2499 9.75044C23.2499 9.88267 23.2149 10.0125 23.1486 10.1269C23.0822 10.2413 22.9868 10.3361 22.872 10.4017L12.372 16.4017C12.2586 16.4664 12.1304 16.5004 11.9999 16.5004C11.8694 16.5004 11.7411 16.4664 11.6278 16.4017L1.12782 10.4017C1.01301 10.3361 0.917584 10.2413 0.851213 10.1269C0.784843 10.0125 0.749887 9.88267 0.749889 9.75044ZM22.1278 12.8492L11.9999 18.6366L1.87196 12.8492C1.78644 12.8004 1.69214 12.7688 1.59443 12.7564C1.49672 12.744 1.39753 12.7509 1.3025 12.7769C1.20748 12.8028 1.1185 12.8472 1.04063 12.9075C0.962762 12.9678 0.897535 13.0429 0.848675 13.1284C0.799814 13.2139 0.768275 13.3082 0.75586 13.4059C0.743445 13.5036 0.750397 13.6028 0.776317 13.6978C0.802238 13.7928 0.846621 13.8818 0.906932 13.9597C0.967243 14.0376 1.0423 14.1028 1.12782 14.1517L11.6278 20.1517C11.7411 20.2164 11.8694 20.2504 11.9999 20.2504C12.1304 20.2504 12.2586 20.2164 12.372 20.1517L22.872 14.1517C22.9575 14.1028 23.0325 14.0376 23.0928 13.9597C23.1532 13.8818 23.1975 13.7928 23.2235 13.6978C23.2494 13.6028 23.2563 13.5036 23.2439 13.4059C23.2315 13.3082 23.2 13.2139 23.1511 13.1284C23.1022 13.0429 23.037 12.9678 22.9591 12.9075C22.8813 12.8472 22.7923 12.8028 22.6973 12.7769C22.6023 12.7509 22.5031 12.744 22.4053 12.7564C22.3076 12.7688 22.2133 12.8004 22.1278 12.8492Z" fill="#1D1F21" style="fill: var(--ui-icon-primary-color);"/>
</svg>
