<svg  viewBox="0 0 24 24" fill="none" xmlns="http://www.w3.org/2000/svg" id="__THIS_ID_NEEDS_FOR_UI_ICON_COMPONENT__">
<path d="M21.6477 16.1221C21.6974 16.2072 21.7298 16.3012 21.7431 16.3988C21.7564 16.4964 21.7503 16.5956 21.7252 16.6909C21.7002 16.7861 21.6566 16.8755 21.597 16.9539C21.5374 17.0323 21.4629 17.0982 21.3778 17.1478L12.3778 22.3978C12.2631 22.4647 12.1327 22.5 11.9999 22.5C11.8671 22.5 11.7367 22.4647 11.622 22.3978L2.62197 17.1478C2.45016 17.0476 2.3252 16.8832 2.27458 16.6908C2.22397 16.4985 2.25184 16.2939 2.35208 16.1221C2.45231 15.9503 2.61669 15.8253 2.80906 15.7747C3.00142 15.7241 3.20602 15.7519 3.37783 15.8522L11.9999 20.8817L20.622 15.8522C20.7938 15.752 20.9984 15.7241 21.1908 15.7747C21.3831 15.8254 21.5475 15.9503 21.6477 16.1221ZM20.622 11.3522L11.9999 16.3817L3.37783 11.3522C3.20602 11.2519 3.00142 11.2241 2.80906 11.2747C2.61669 11.3253 2.45231 11.4503 2.35208 11.6221C2.25184 11.7939 2.22397 11.9985 2.27458 12.1908C2.3252 12.3832 2.45016 12.5476 2.62197 12.6478L11.622 17.8978C11.7367 17.9647 11.8671 18 11.9999 18C12.1327 18 12.2631 17.9647 12.3778 17.8978L21.3778 12.6478C21.5496 12.5476 21.6746 12.3832 21.7252 12.1908C21.7758 11.9985 21.748 11.7939 21.6477 11.6221C21.5475 11.4503 21.3831 11.3253 21.1908 11.2747C20.9984 11.2241 20.7938 11.2519 20.622 11.3522ZM2.62197 8.14783L11.622 13.3978C11.7367 13.4647 11.8671 13.5 11.9999 13.5C12.1327 13.5 12.2631 13.4647 12.3778 13.3978L21.3778 8.14783C21.4911 8.08177 21.585 7.9872 21.6503 7.87354C21.7156 7.75987 21.7499 7.63108 21.7499 7.5C21.7499 7.36892 21.7156 7.24013 21.6503 7.12646C21.585 7.0128 21.4911 6.91823 21.3778 6.85217L12.3778 1.60217C12.2631 1.53526 12.1327 1.5 11.9999 1.5C11.8671 1.5 11.7367 1.53526 11.622 1.60217L2.62197 6.85217C2.50875 6.91823 2.41482 7.0128 2.34954 7.12646C2.28426 7.24013 2.2499 7.36892 2.2499 7.5C2.2499 7.63108 2.28426 7.75987 2.34954 7.87354C2.41482 7.9872 2.50875 8.08177 2.62197 8.14783Z" fill="#1D1F21" style="fill: var(--ui-icon-primary-color);"/>
</svg>
