<svg  viewBox="0 0 24 24" fill="none" xmlns="http://www.w3.org/2000/svg" id="__THIS_ID_NEEDS_FOR_UI_ICON_COMPONENT__">
<path d="M21.9383 10.825L17.6976 14.3545L19.0438 19.7993C19.1228 20.1035 19.1082 20.4245 19.0019 20.7202C18.8955 21.0159 18.7023 21.2727 18.4476 21.4568C18.2015 21.6363 17.9069 21.7374 17.6025 21.7468C17.298 21.7562 16.9978 21.6735 16.741 21.5095L12.0125 18.5139C11.9993 18.5066 11.9935 18.5095 11.9876 18.5139L7.5931 21.2978C7.30994 21.478 6.9791 21.5688 6.64364 21.5583C6.30818 21.5479 5.98363 21.4367 5.71224 21.2393C5.43114 21.036 5.21796 20.7526 5.1006 20.4261C4.98325 20.0997 4.96719 19.7454 5.05452 19.4097L6.32161 14.4255L2.06185 10.825C1.82055 10.6239 1.64538 10.3548 1.55916 10.0528C1.47294 9.75075 1.47966 9.42975 1.57845 9.13159C1.67209 8.83761 1.85216 8.57867 2.09518 8.38857C2.3382 8.19847 2.63287 8.08603 2.94075 8.06592L8.47786 7.70629L10.5741 2.47534C10.6856 2.18822 10.8811 1.94143 11.1352 1.76724C11.3892 1.59305 11.6899 1.49957 11.9979 1.49902H11.9993C12.3078 1.49908 12.6091 1.59232 12.8637 1.76653C13.1183 1.94075 13.3143 2.18781 13.4261 2.47534L15.4915 7.67627L21.0594 8.06592C21.3673 8.08603 21.662 8.19847 21.905 8.38857C22.148 8.57867 22.3281 8.83761 22.4217 9.13159C22.5205 9.42975 22.5272 9.75074 22.441 10.0528C22.3548 10.3548 22.1796 10.6239 21.9383 10.825Z" fill="#1D1F21" style="fill: var(--ui-icon-primary-color);"/>
</svg>
