<svg  viewBox="0 0 24 24" fill="none" xmlns="http://www.w3.org/2000/svg" id="__THIS_ID_NEEDS_FOR_UI_ICON_COMPONENT__">
<path d="M20.2507 6H16.5V5.25C16.4993 4.65347 16.262 4.08157 15.8402 3.65976C15.4184 3.23795 14.8465 3.00068 14.25 3H9.75C9.15347 3.00068 8.58157 3.23795 8.15976 3.65976C7.73795 4.08157 7.50068 4.65347 7.5 5.25V6H3.75073C3.35305 6.00045 2.97178 6.15864 2.69057 6.43984C2.40937 6.72105 2.25119 7.10231 2.25073 7.5V19.5C2.25119 19.8977 2.40937 20.279 2.69057 20.5602C2.97178 20.8414 3.35305 20.9995 3.75073 21H20.2507C20.6484 20.9995 21.0297 20.8414 21.3109 20.5602C21.5921 20.279 21.7503 19.8977 21.7507 19.5V7.5C21.7503 7.10231 21.5921 6.72105 21.3109 6.43984C21.0297 6.15864 20.6484 6.00045 20.2507 6ZM9 9.75C9 9.94891 8.92098 10.1397 8.78033 10.2803C8.63968 10.421 8.44891 10.5 8.25 10.5C8.05109 10.5 7.86032 10.421 7.71967 10.2803C7.57902 10.1397 7.5 9.94891 7.5 9.75V8.25C7.5 8.05109 7.57902 7.86032 7.71967 7.71967C7.86032 7.57902 8.05109 7.5 8.25 7.5C8.44891 7.5 8.63968 7.57902 8.78033 7.71967C8.92098 7.86032 9 8.05109 9 8.25V9.75ZM9 5.25C9.00023 5.05116 9.07932 4.86052 9.21992 4.71992C9.36052 4.57932 9.55116 4.50023 9.75 4.5H14.25C14.4488 4.50023 14.6395 4.57932 14.7801 4.71992C14.9207 4.86052 14.9998 5.05116 15 5.25V6H9V5.25ZM16.5 9.75C16.5 9.94891 16.421 10.1397 16.2803 10.2803C16.1397 10.421 15.9489 10.5 15.75 10.5C15.5511 10.5 15.3603 10.421 15.2197 10.2803C15.079 10.1397 15 9.94891 15 9.75V8.25C15 8.05109 15.079 7.86032 15.2197 7.71967C15.3603 7.57902 15.5511 7.5 15.75 7.5C15.9489 7.5 16.1397 7.57902 16.2803 7.71967C16.421 7.86032 16.5 8.05109 16.5 8.25V9.75Z" fill="#1D1F21" style="fill: var(--ui-icon-primary-color);"/>
</svg>
