<svg  viewBox="0 0 24 24" fill="none" xmlns="http://www.w3.org/2000/svg" id="__THIS_ID_NEEDS_FOR_UI_ICON_COMPONENT__">
<path d="M18.375 12C18.375 13.2609 18.0011 14.4934 17.3006 15.5418C16.6001 16.5901 15.6045 17.4072 14.4396 17.8897C13.2747 18.3722 11.9929 18.4985 10.7563 18.2525C9.51967 18.0065 8.38375 17.3994 7.49219 16.5078C6.60063 15.6162 5.99347 14.4803 5.74749 13.2437C5.50151 12.0071 5.62776 10.7253 6.11027 9.56039C6.59278 8.39551 7.40988 7.39988 8.45824 6.69938C9.5066 5.99889 10.7391 5.625 12 5.625C13.6902 5.62692 15.3106 6.29918 16.5057 7.49431C17.7008 8.68944 18.3731 10.3098 18.375 12ZM12 4.125C12.1989 4.125 12.3897 4.04598 12.5303 3.90533C12.671 3.76468 12.75 3.57391 12.75 3.375V1.5C12.75 1.30109 12.671 1.11032 12.5303 0.96967C12.3897 0.829018 12.1989 0.75 12 0.75C11.8011 0.75 11.6103 0.829018 11.4697 0.96967C11.329 1.11032 11.25 1.30109 11.25 1.5V3.375C11.25 3.57391 11.329 3.76468 11.4697 3.90533C11.6103 4.04598 11.8011 4.125 12 4.125ZM5.3709 6.43153C5.44048 6.50145 5.52317 6.55695 5.61423 6.59486C5.7053 6.63277 5.80294 6.65235 5.90158 6.65246C6.00022 6.65258 6.09792 6.63324 6.18907 6.59555C6.28023 6.55785 6.36305 6.50255 6.4328 6.4328C6.50255 6.36305 6.55785 6.28023 6.59555 6.18907C6.63324 6.09792 6.65258 6.00022 6.65246 5.90158C6.65235 5.80294 6.63277 5.7053 6.59486 5.61423C6.55695 5.52317 6.50145 5.44048 6.43153 5.3709L5.10571 4.04507C5.03609 3.97536 4.95341 3.92005 4.86239 3.8823C4.77138 3.84455 4.67383 3.82511 4.5753 3.82508C4.47677 3.82505 4.3792 3.84443 4.28816 3.88212C4.19713 3.91981 4.11441 3.97507 4.04474 4.04474C3.97507 4.11441 3.91981 4.19713 3.88212 4.28816C3.84443 4.3792 3.82505 4.47677 3.82508 4.5753C3.82511 4.67383 3.84455 4.77138 3.8823 4.86239C3.92005 4.95341 3.97536 5.03609 4.04507 5.10571L5.3709 6.43153ZM4.125 12C4.125 11.8011 4.04598 11.6103 3.90533 11.4697C3.76468 11.329 3.57391 11.25 3.375 11.25H1.5C1.30109 11.25 1.11032 11.329 0.96967 11.4697C0.829018 11.6103 0.75 11.8011 0.75 12C0.75 12.1989 0.829018 12.3897 0.96967 12.5303C1.11032 12.671 1.30109 12.75 1.5 12.75H3.375C3.57391 12.75 3.76468 12.671 3.90533 12.5303C4.04598 12.3897 4.125 12.1989 4.125 12ZM5.3709 17.5685L4.04507 18.8943C3.97536 18.9639 3.92005 19.0466 3.8823 19.1376C3.84455 19.2286 3.82511 19.3262 3.82508 19.4247C3.82505 19.5232 3.84443 19.6208 3.88212 19.7118C3.91981 19.8029 3.97507 19.8856 4.04474 19.9553C4.11441 20.0249 4.19713 20.0802 4.28816 20.1179C4.3792 20.1556 4.47677 20.175 4.5753 20.1749C4.67383 20.1749 4.77138 20.1554 4.86239 20.1177C4.95341 20.08 5.03609 20.0246 5.10571 19.9549L6.43153 18.6291C6.50145 18.5595 6.55695 18.4768 6.59486 18.3858C6.63277 18.2947 6.65235 18.1971 6.65246 18.0984C6.65258 17.9998 6.63324 17.9021 6.59555 17.8109C6.55785 17.7198 6.50255 17.637 6.4328 17.5672C6.36305 17.4975 6.28023 17.4421 6.18907 17.4045C6.09792 17.3668 6.00022 17.3474 5.90158 17.3475C5.80294 17.3477 5.7053 17.3672 5.61423 17.4051C5.52317 17.4431 5.44048 17.4986 5.3709 17.5685ZM12 19.875C11.8011 19.875 11.6103 19.954 11.4697 20.0947C11.329 20.2353 11.25 20.4261 11.25 20.625V22.5C11.25 22.6989 11.329 22.8897 11.4697 23.0303C11.6103 23.171 11.8011 23.25 12 23.25C12.1989 23.25 12.3897 23.171 12.5303 23.0303C12.671 22.8897 12.75 22.6989 12.75 22.5V20.625C12.75 20.4261 12.671 20.2353 12.5303 20.0947C12.3897 19.954 12.1989 19.875 12 19.875ZM18.6291 17.5685C18.5595 17.4986 18.4768 17.4431 18.3858 17.4051C18.2947 17.3672 18.1971 17.3477 18.0984 17.3475C17.9998 17.3474 17.9021 17.3668 17.8109 17.4045C17.7198 17.4421 17.637 17.4975 17.5672 17.5672C17.4975 17.637 17.4421 17.7198 17.4045 17.8109C17.3668 17.9021 17.3474 17.9998 17.3475 18.0984C17.3477 18.1971 17.3672 18.2947 17.4051 18.3858C17.4431 18.4768 17.4986 18.5595 17.5685 18.6291L18.8943 19.9549C18.9639 20.0246 19.0466 20.08 19.1376 20.1177C19.2286 20.1554 19.3262 20.1749 19.4247 20.1749C19.5232 20.175 19.6208 20.1556 19.7118 20.1179C19.8029 20.0802 19.8856 20.0249 19.9553 19.9553C20.0249 19.8856 20.0802 19.8029 20.1179 19.7118C20.1556 19.6208 20.175 19.5232 20.1749 19.4247C20.1749 19.3262 20.1555 19.2286 20.1177 19.1376C20.08 19.0466 20.0246 18.9639 19.9549 18.8943L18.6291 17.5685ZM22.5 11.25H20.625C20.4261 11.25 20.2353 11.329 20.0947 11.4697C19.954 11.6103 19.875 11.8011 19.875 12C19.875 12.1989 19.954 12.3897 20.0947 12.5303C20.2353 12.671 20.4261 12.75 20.625 12.75H22.5C22.6989 12.75 22.8897 12.671 23.0303 12.5303C23.171 12.3897 23.25 12.1989 23.25 12C23.25 11.8011 23.171 11.6103 23.0303 11.4697C22.8897 11.329 22.6989 11.25 22.5 11.25ZM18.0988 6.65121C18.1973 6.65134 18.2949 6.632 18.3859 6.5943C18.4769 6.5566 18.5595 6.50128 18.6291 6.43153L19.9549 5.10571C20.0246 5.03609 20.08 4.95341 20.1177 4.86239C20.1554 4.77138 20.1749 4.67383 20.1749 4.5753C20.175 4.47677 20.1556 4.3792 20.1179 4.28816C20.0802 4.19713 20.0249 4.11441 19.9553 4.04474C19.8856 3.97507 19.8029 3.91981 19.7118 3.88212C19.6208 3.84443 19.5232 3.82505 19.4247 3.82508C19.3262 3.82511 19.2286 3.84455 19.1376 3.8823C19.0466 3.92005 18.9639 3.97536 18.8943 4.04507L17.5685 5.3709C17.4636 5.47578 17.3921 5.60942 17.3632 5.7549C17.3342 5.90039 17.3491 6.05119 17.4059 6.18824C17.4626 6.32528 17.5588 6.44242 17.6821 6.52483C17.8054 6.60724 17.9505 6.65122 18.0988 6.65121H18.0988Z" fill="#1D1F21" style="fill: var(--ui-icon-primary-color);"/>
</svg>
