<svg  viewBox="0 0 24 24" fill="none" xmlns="http://www.w3.org/2000/svg" id="__THIS_ID_NEEDS_FOR_UI_ICON_COMPONENT__">
<path d="M18.375 12C18.375 13.2609 18.0011 14.4934 17.3006 15.5418C16.6001 16.5901 15.6045 17.4072 14.4396 17.8897C13.2747 18.3722 11.9929 18.4985 10.7563 18.2525C9.51967 18.0065 8.38375 17.3994 7.49219 16.5078C6.60063 15.6162 5.99347 14.4803 5.74749 13.2437C5.50151 12.0071 5.62776 10.7253 6.11027 9.56039C6.59278 8.39551 7.40988 7.39988 8.45824 6.69938C9.5066 5.99889 10.7391 5.625 12 5.625C13.6902 5.62692 15.3106 6.29918 16.5057 7.49431C17.7008 8.68944 18.3731 10.3098 18.375 12ZM12 4.125C12.0985 4.125 12.196 4.1056 12.287 4.06791C12.378 4.03022 12.4607 3.97498 12.5303 3.90533C12.6 3.83569 12.6552 3.75301 12.6929 3.66201C12.7306 3.57102 12.75 3.47349 12.75 3.375V2.625C12.75 2.42609 12.671 2.23532 12.5303 2.09467C12.3897 1.95402 12.1989 1.875 12 1.875C11.8011 1.875 11.6103 1.95402 11.4697 2.09467C11.329 2.23532 11.25 2.42609 11.25 2.625V3.375C11.25 3.47349 11.2694 3.57102 11.3071 3.66201C11.3448 3.75301 11.4 3.83569 11.4697 3.90533C11.5393 3.97498 11.622 4.03022 11.713 4.06791C11.804 4.1056 11.9015 4.125 12 4.125ZM5.37085 6.43153C5.44045 6.50135 5.52314 6.55677 5.61418 6.5946C5.70522 6.63244 5.80283 6.65195 5.90141 6.65203C6 6.65211 6.09764 6.63275 6.18874 6.59506C6.27984 6.55737 6.36261 6.50209 6.43233 6.43237C6.50204 6.36266 6.55733 6.27989 6.59502 6.18879C6.63272 6.09769 6.65208 6.00006 6.65201 5.90147C6.65194 5.80288 6.63242 5.70527 6.59459 5.61423C6.55676 5.52319 6.50135 5.4405 6.43153 5.3709L5.90121 4.84055C5.83161 4.7707 5.74893 4.71527 5.65788 4.67741C5.56684 4.63956 5.46922 4.62003 5.37062 4.61994C5.27201 4.61985 5.17436 4.63921 5.08325 4.6769C4.99214 4.71459 4.90935 4.76988 4.83963 4.8396C4.7699 4.90932 4.71462 4.99211 4.67692 5.08322C4.63923 5.17434 4.61987 5.27199 4.61996 5.37059C4.62005 5.46919 4.63958 5.56681 4.67744 5.65786C4.71529 5.7489 4.77073 5.83159 4.84058 5.90119L5.37085 6.43153ZM3.375 11.25H2.625C2.42609 11.25 2.23532 11.329 2.09467 11.4697C1.95402 11.6103 1.875 11.8011 1.875 12C1.875 12.1989 1.95402 12.3897 2.09467 12.5303C2.23532 12.671 2.42609 12.75 2.625 12.75H3.375C3.57391 12.75 3.76468 12.671 3.90533 12.5303C4.04598 12.3897 4.125 12.1989 4.125 12C4.125 11.8011 4.04598 11.6103 3.90533 11.4697C3.76468 11.329 3.57391 11.25 3.375 11.25ZM5.3709 17.5685L4.84058 18.0988C4.77086 18.1684 4.71555 18.2511 4.6778 18.3421C4.64005 18.4331 4.62061 18.5307 4.62058 18.6292C4.62055 18.7277 4.63993 18.8253 4.67762 18.9163C4.71531 19.0074 4.77057 19.0901 4.84024 19.1598C4.90991 19.2294 4.99263 19.2847 5.08366 19.3224C5.1747 19.3601 5.27227 19.3795 5.3708 19.3794C5.46933 19.3794 5.56688 19.3599 5.6579 19.3222C5.74891 19.2845 5.83159 19.2291 5.90121 19.1594L6.43153 18.6291C6.57204 18.4884 6.65093 18.2977 6.65087 18.0989C6.6508 17.9001 6.57179 17.7094 6.4312 17.5688C6.29061 17.4282 6.09994 17.3492 5.90112 17.3491C5.70229 17.3491 5.51158 17.428 5.3709 17.5685ZM12 19.875C11.9015 19.875 11.804 19.8944 11.713 19.9321C11.622 19.9698 11.5393 20.025 11.4697 20.0947C11.4 20.1643 11.3448 20.247 11.3071 20.338C11.2694 20.429 11.25 20.5265 11.25 20.625V21.375C11.25 21.5739 11.329 21.7647 11.4697 21.9053C11.6103 22.046 11.8011 22.125 12 22.125C12.1989 22.125 12.3897 22.046 12.5303 21.9053C12.671 21.7647 12.75 21.5739 12.75 21.375V20.625C12.75 20.5265 12.7306 20.429 12.6929 20.338C12.6552 20.247 12.6 20.1643 12.5303 20.0947C12.4607 20.025 12.378 19.9698 12.287 19.9321C12.196 19.8944 12.0985 19.875 12 19.875ZM18.6291 17.5685C18.4883 17.4284 18.2978 17.3498 18.0992 17.3501C17.9006 17.3503 17.7102 17.4293 17.5697 17.5697C17.4293 17.7102 17.3503 17.9006 17.3501 18.0992C17.3498 18.2978 17.4284 18.4883 17.5685 18.6291L18.0988 19.1594C18.2395 19.2999 18.4302 19.3788 18.629 19.3788C18.8278 19.3787 19.0185 19.2997 19.1591 19.1591C19.2997 19.0185 19.3787 18.8278 19.3788 18.629C19.3788 18.4302 19.2999 18.2395 19.1594 18.0988L18.6291 17.5685ZM21.375 11.25H20.625C20.4261 11.25 20.2353 11.329 20.0947 11.4697C19.954 11.6103 19.875 11.8011 19.875 12C19.875 12.1989 19.954 12.3897 20.0947 12.5303C20.2353 12.671 20.4261 12.75 20.625 12.75H21.375C21.5739 12.75 21.7647 12.671 21.9053 12.5303C22.046 12.3897 22.125 12.1989 22.125 12C22.125 11.8011 22.046 11.6103 21.9053 11.4697C21.7647 11.329 21.5739 11.25 21.375 11.25ZM18.0988 6.65121C18.1973 6.65134 18.2949 6.63199 18.3859 6.59429C18.4769 6.55659 18.5596 6.50128 18.6292 6.43153L19.1594 5.90119C19.2291 5.83155 19.2843 5.74887 19.322 5.65788C19.3597 5.56689 19.3791 5.46936 19.3791 5.37087C19.3791 5.27238 19.3597 5.17486 19.322 5.08386C19.2843 4.99287 19.2291 4.91019 19.1594 4.84055C19.0898 4.77091 19.0071 4.71567 18.9161 4.67798C18.8251 4.64029 18.7276 4.62089 18.6291 4.62089C18.5306 4.62089 18.4331 4.64029 18.3421 4.67798C18.2511 4.71567 18.1684 4.77091 18.0988 4.84055L17.5685 5.3709C17.4636 5.47578 17.3921 5.60942 17.3632 5.7549C17.3343 5.90039 17.3491 6.05119 17.4059 6.18823C17.4626 6.32528 17.5588 6.44241 17.6821 6.52482C17.8054 6.60723 17.9505 6.65122 18.0988 6.65122V6.65121Z" fill="#1D1F21" style="fill: var(--ui-icon-primary-color);"/>
</svg>
