<svg  viewBox="0 0 24 24" fill="none" xmlns="http://www.w3.org/2000/svg" id="__THIS_ID_NEEDS_FOR_UI_ICON_COMPONENT__">
<path d="M7.28893 4.08577C7.21316 3.90206 7.2134 3.6958 7.28959 3.51227C7.36577 3.32874 7.51168 3.18294 7.69527 3.1069C7.87886 3.03085 8.08512 3.03077 8.26877 3.10668C8.45241 3.18258 8.59843 3.32826 8.67476 3.51173L9.39226 5.244C9.43013 5.33503 9.44968 5.43263 9.44979 5.53122C9.4499 5.62981 9.43058 5.72745 9.39292 5.81857C9.35526 5.90968 9.30001 5.99247 9.23032 6.06221C9.16063 6.13195 9.07788 6.18727 8.9868 6.225C8.89571 6.26273 8.79808 6.28213 8.69949 6.28209C8.6009 6.28205 8.50329 6.26258 8.41223 6.22478C8.32118 6.18698 8.23847 6.1316 8.16884 6.06181C8.0992 5.99201 8.04401 5.90918 8.00642 5.81803L7.28893 4.08577ZM19.9688 10.949C20.0672 10.949 20.1646 10.9295 20.2555 10.8917L21.9878 10.1742C22.0789 10.1366 22.1617 10.0814 22.2315 10.0118C22.3012 9.94215 22.3566 9.85944 22.3944 9.7684C22.4322 9.67735 22.4516 9.57975 22.4517 9.48118C22.4517 9.38261 22.4323 9.285 22.3946 9.19393C22.3568 9.10286 22.3015 9.02012 22.2318 8.95044C22.1621 8.88076 22.0793 8.82552 21.9882 8.78786C21.8971 8.7502 21.7995 8.73087 21.7009 8.73098C21.6023 8.73108 21.5047 8.75061 21.4137 8.78846L19.6815 9.50596C19.5211 9.57239 19.3888 9.69236 19.307 9.84543C19.2252 9.99849 19.1991 10.1752 19.2329 10.3454C19.2668 10.5156 19.3587 10.6688 19.4928 10.7788C19.627 10.8889 19.7952 10.9491 19.9688 10.949ZM15.0136 6.22389C15.1046 6.26168 15.2022 6.28115 15.3007 6.2812C15.3992 6.28125 15.4968 6.26187 15.5878 6.22417C15.6788 6.18648 15.7615 6.1312 15.8311 6.06151C15.9007 5.99182 15.956 5.90908 15.9936 5.81803L16.7111 4.08577C16.7868 3.90206 16.7866 3.6958 16.7104 3.51227C16.6342 3.32874 16.4883 3.18294 16.3047 3.1069C16.1211 3.03085 15.9149 3.03077 15.7312 3.10668C15.5476 3.18258 15.4016 3.32826 15.3252 3.51173L14.6077 5.244C14.57 5.33499 14.5506 5.43252 14.5506 5.53101C14.5506 5.6295 14.57 5.72702 14.6077 5.81802C14.6454 5.90901 14.7007 5.99169 14.7703 6.06133C14.84 6.13096 14.9226 6.1862 15.0136 6.22389ZM2.01224 10.1742L3.74451 10.8917C3.83552 10.9296 3.93311 10.9491 4.03168 10.9492C4.13026 10.9493 4.22788 10.93 4.31898 10.8923C4.41008 10.8547 4.49286 10.7994 4.56258 10.7297C4.63231 10.66 4.68762 10.5773 4.72534 10.4862C4.76307 10.3952 4.78247 10.2976 4.78244 10.199C4.78241 10.1004 4.76294 10.0028 4.72516 9.91177C4.68738 9.82072 4.63202 9.73802 4.56225 9.66839C4.49247 9.59876 4.40966 9.54356 4.31854 9.50596L2.58627 8.78846C2.49526 8.75061 2.39767 8.73108 2.2991 8.73097C2.20052 8.73087 2.1029 8.7502 2.0118 8.78786C1.9207 8.82552 1.83792 8.88076 1.7682 8.95044C1.69847 9.02012 1.64316 9.10285 1.60544 9.19392C1.56771 9.28499 1.54831 9.38261 1.54834 9.48118C1.54837 9.57975 1.56784 9.67735 1.60562 9.7684C1.6434 9.85944 1.69876 9.94215 1.76853 10.0118C1.83831 10.0814 1.92112 10.1366 2.01224 10.1742L2.01224 10.1742ZM22.5 14.2495H18.3303C18.4368 13.355 18.3525 12.4481 18.083 11.5886C17.8135 10.7291 17.3649 9.93644 16.7668 9.26289C16.1687 8.58934 15.4346 8.0502 14.613 7.68098C13.7913 7.31177 12.9008 7.12088 12 7.12088C11.0992 7.12088 10.2087 7.31177 9.38702 7.68098C8.56538 8.0502 7.83131 8.58934 7.23319 9.26289C6.63507 9.93644 6.18649 10.7291 5.91699 11.5886C5.6475 12.4481 5.56322 13.355 5.6697 14.2495H1.5C1.30109 14.2495 1.11032 14.3285 0.96967 14.4692C0.829018 14.6098 0.75 14.8006 0.75 14.9995C0.75 15.1984 0.829018 15.3892 0.96967 15.5298C1.11032 15.6705 1.30109 15.7495 1.5 15.7495H17.4204L17.4232 15.7497L17.4254 15.7495H22.5C22.6989 15.7495 22.8897 15.6705 23.0303 15.5298C23.171 15.3892 23.25 15.1984 23.25 14.9995C23.25 14.8006 23.171 14.6098 23.0303 14.4692C22.8897 14.3285 22.6989 14.2495 22.5 14.2495ZM19.5 17.9995H4.5C4.30109 17.9995 4.11032 18.0785 3.96967 18.2192C3.82902 18.3598 3.75 18.5506 3.75 18.7495C3.75 18.9484 3.82902 19.1392 3.96967 19.2798C4.11032 19.4205 4.30109 19.4995 4.5 19.4995H19.5C19.6989 19.4995 19.8897 19.4205 20.0303 19.2798C20.171 19.1392 20.25 18.9484 20.25 18.7495C20.25 18.5506 20.171 18.3598 20.0303 18.2192C19.8897 18.0785 19.6989 17.9995 19.5 17.9995Z" fill="#1D1F21" style="fill: var(--ui-icon-primary-color);"/>
</svg>
