<svg  viewBox="0 0 24 24" fill="none" xmlns="http://www.w3.org/2000/svg" id="__THIS_ID_NEEDS_FOR_UI_ICON_COMPONENT__">
<path d="M21.3907 14.3392L19.5951 9.40585C19.4587 9.03226 19.1797 8.72805 18.8193 8.55996C18.4588 8.39187 18.0464 8.37364 17.6726 8.50927L12.0529 10.5547L13.0914 4.66525C13.1605 4.27346 13.0711 3.87027 12.8429 3.54437C12.6147 3.21848 12.2664 2.99658 11.8747 2.92749L6.70449 2.01598C6.5105 1.98175 6.31166 1.98607 6.11934 2.02869C5.92702 2.07131 5.74498 2.15139 5.58361 2.26437C5.42224 2.37735 5.2847 2.521 5.17886 2.68714C5.07301 2.85328 5.00093 3.03863 4.96673 3.23263L2.69919 16.0926C2.60378 16.6453 2.6188 17.2114 2.74341 17.7582C2.86801 18.305 3.09973 18.8218 3.42516 19.2785C3.79998 19.8103 4.29713 20.2442 4.87472 20.5437C5.45232 20.8432 6.09343 20.9994 6.74404 20.9993H6.74436C6.74625 20.9993 6.74807 20.9995 6.74994 20.9995H19.8749C20.2726 20.9991 20.6539 20.8409 20.9351 20.5597C21.2163 20.2785 21.3745 19.8972 21.3749 19.4995V15.4006C21.5101 15.0607 21.5158 14.6829 21.3907 14.3392ZM6.74994 17.9995C6.52744 17.9995 6.30993 17.9336 6.12493 17.8099C5.93992 17.6863 5.79573 17.5106 5.71058 17.3051C5.62543 17.0995 5.60315 16.8733 5.64656 16.6551C5.68997 16.4368 5.79712 16.2364 5.95445 16.079C6.11178 15.9217 6.31224 15.8146 6.53047 15.7712C6.7487 15.7277 6.9749 15.75 7.18046 15.8352C7.38603 15.9203 7.56173 16.0645 7.68535 16.2495C7.80896 16.4345 7.87494 16.652 7.87494 16.8745C7.87461 17.1728 7.75598 17.4588 7.54507 17.6697C7.33417 17.8806 7.04821 17.9992 6.74994 17.9995ZM19.8749 19.4995H11.5986L19.8749 16.4872V19.4995ZM10.6361 18.2535C10.7134 18.038 10.7723 17.8163 10.8123 17.5908L11.7522 12.2604L18.1856 9.91882L19.9812 14.8522L10.6361 18.2535Z" fill="#1D1F21" style="fill: var(--ui-icon-primary-color);"/>
</svg>
