<svg  viewBox="0 0 24 24" fill="none" xmlns="http://www.w3.org/2000/svg" id="__THIS_ID_NEEDS_FOR_UI_ICON_COMPONENT__">
<path d="M21.0005 4.5H3.00055C2.90206 4.5 2.80453 4.51939 2.71353 4.55708C2.62254 4.59477 2.53986 4.65002 2.47021 4.71966C2.40057 4.78931 2.34532 4.87199 2.30763 4.96298C2.26994 5.05398 2.25055 5.15151 2.25055 5.25V18C2.251 18.3977 2.40919 18.779 2.69039 19.0602C2.9716 19.3414 3.35286 19.4995 3.75055 19.5H20.2505C20.6482 19.4995 21.0295 19.3414 21.3107 19.0602C21.5919 18.779 21.7501 18.3977 21.7505 18V5.25C21.7506 5.15151 21.7312 5.05398 21.6935 4.96298C21.6558 4.87199 21.6005 4.78931 21.5309 4.71966C21.4612 4.65002 21.3786 4.59477 21.2876 4.55708C21.1966 4.51939 21.099 4.5 21.0005 4.5ZM3.75055 10.5H7.50055V13.5H3.75055V10.5ZM9.00055 10.5H20.2509L20.2512 13.5H9.00055V10.5ZM3.75055 15H7.50055V18H3.75055V15ZM20.2505 18H9.00055V15H20.2513L20.2515 18L20.2505 18Z" fill="#1D1F21" style="fill: var(--ui-icon-primary-color);"/>
</svg>
