<svg  viewBox="0 0 24 24" fill="none" xmlns="http://www.w3.org/2000/svg" id="__THIS_ID_NEEDS_FOR_UI_ICON_COMPONENT__">
<path d="M22.5 11.8927L12.7076 2.10035C12.5332 1.92544 12.3182 1.79644 12.0817 1.72485C11.8453 1.65327 11.5949 1.64133 11.3527 1.6901L3.79128 3.20237C3.64611 3.23144 3.51279 3.30281 3.4081 3.4075C3.30341 3.51219 3.23203 3.64552 3.20296 3.79069L1.6907 11.3521C1.64201 11.5943 1.65399 11.8447 1.72557 12.0811C1.79715 12.3175 1.92611 12.5325 2.10095 12.707L11.8932 22.4993C12.0325 22.6386 12.1979 22.7491 12.3799 22.8245C12.5619 22.8999 12.757 22.9387 12.954 22.9388C13.151 22.9388 13.346 22.9 13.528 22.8246C13.71 22.7492 13.8754 22.6387 14.0147 22.4994L22.4999 14.0142C22.6392 13.8749 22.7497 13.7096 22.8251 13.5276C22.9005 13.3456 22.9393 13.1505 22.9394 12.9535C22.9394 12.7565 22.9006 12.5614 22.8252 12.3794C22.7498 12.1974 22.6393 12.032 22.5 11.8927ZM7.87444 8.9994C7.65194 8.9994 7.43443 8.93342 7.24943 8.8098C7.06442 8.68618 6.92023 8.51048 6.83508 8.30492C6.74993 8.09935 6.72765 7.87315 6.77106 7.65492C6.81447 7.43669 6.92161 7.23624 7.07895 7.0789C7.23628 6.92157 7.43674 6.81442 7.65497 6.77101C7.87319 6.72761 8.09939 6.74989 8.30496 6.83503C8.51053 6.92018 8.68623 7.06438 8.80985 7.24938C8.93346 7.43439 8.99944 7.65189 8.99944 7.8744C8.99944 8.17277 8.88092 8.45891 8.66994 8.66989C8.45896 8.88087 8.17281 8.9994 7.87444 8.9994Z" fill="#1D1F21" style="fill: var(--ui-icon-primary-color);"/>
</svg>
