<svg  viewBox="0 0 24 24" fill="none" xmlns="http://www.w3.org/2000/svg" id="__THIS_ID_NEEDS_FOR_UI_ICON_COMPONENT__">
<path d="M20.8001 7.79602C21.8413 9.97217 22.0395 12.4569 21.3565 14.7706C20.6734 17.0843 19.1576 19.063 17.1014 20.3248C15.0452 21.5865 12.5946 22.0419 10.2224 21.603C7.85024 21.1641 5.72473 19.8621 4.2561 17.9482C2.78747 16.0343 2.07985 13.6443 2.26981 11.2393C2.45977 8.83441 3.53384 6.58508 5.28472 4.92549C7.0356 3.2659 9.33917 2.31371 11.7508 2.25269C14.1625 2.19167 16.5113 3.02614 18.3438 4.59506L20.4697 2.4692C20.6103 2.32854 20.8011 2.24952 21 2.24951C21.199 2.24951 21.3897 2.32853 21.5304 2.46918C21.6711 2.60984 21.7501 2.80061 21.7501 2.99953C21.7501 3.19845 21.6711 3.38923 21.5304 3.52989L15.7129 9.34742L15.7124 9.34793L12.1768 12.8835L9.9316 15.1287C10.5121 15.5122 11.1878 15.7267 11.8833 15.7483C12.5787 15.7698 13.2664 15.5974 13.8695 15.2505C14.4726 14.9036 14.9673 14.3958 15.2983 13.7838C15.6293 13.1718 15.7836 12.4799 15.7439 11.7852C15.7383 11.6869 15.7522 11.5884 15.7846 11.4954C15.8171 11.4025 15.8676 11.3168 15.9331 11.2433C16.0656 11.0949 16.2516 11.0052 16.4502 10.9939C16.6488 10.9826 16.8437 11.0506 16.9921 11.1831C17.0656 11.2487 17.1254 11.3281 17.1682 11.4168C17.211 11.5055 17.2359 11.6018 17.2415 11.7001C17.3013 12.7619 17.0374 13.8168 16.4846 14.7252C15.9319 15.6337 15.1163 16.353 14.1458 16.7879C13.1754 17.2228 12.0958 17.3528 11.0498 17.1607C10.0039 16.9687 9.04084 16.4636 8.28818 15.7123L8.28768 15.7119L8.28727 15.7114C7.34884 14.7729 6.80073 13.5137 6.75325 12.1874C6.70578 10.861 7.16245 9.56585 8.03138 8.56261C8.9003 7.55937 10.117 6.92249 11.4365 6.78014C12.7561 6.63778 14.0806 7.00053 15.1435 7.79537L17.2781 5.66082C15.715 4.36299 13.7276 3.68841 11.6974 3.76666C9.66728 3.8449 7.73763 4.67045 6.27908 6.08474C4.82053 7.49903 3.93594 9.40233 3.79519 11.4291C3.65445 13.4559 4.26748 15.4632 5.51655 17.0655C6.76561 18.6678 8.56264 19.7521 10.5625 20.1102C12.5623 20.4683 14.6239 20.0749 16.3514 19.0056C18.0789 17.9363 19.3503 16.2664 19.9216 14.3168C20.4929 12.3671 20.3237 10.2751 19.4466 8.44256C19.4041 8.35368 19.3796 8.25732 19.3744 8.15897C19.3692 8.06061 19.3834 7.96219 19.4162 7.86933C19.4825 7.68179 19.6206 7.52826 19.8001 7.44253C19.9796 7.35679 20.1857 7.34587 20.3733 7.41216C20.5608 7.47845 20.7144 7.61652 20.8001 7.79601L20.8001 7.79602Z" fill="#1D1F21" style="fill: var(--ui-icon-primary-color);"/>
</svg>
