<svg  viewBox="0 0 24 24" fill="none" xmlns="http://www.w3.org/2000/svg" id="__THIS_ID_NEEDS_FOR_UI_ICON_COMPONENT__">
<path d="M3 6.375C3 6.17609 3.07902 5.98532 3.21967 5.84467C3.36032 5.70402 3.55109 5.625 3.75 5.625H20.25C20.4489 5.625 20.6397 5.70402 20.7803 5.84467C20.921 5.98532 21 6.17609 21 6.375C21 6.57391 20.921 6.76468 20.7803 6.90533C20.6397 7.04598 20.4489 7.125 20.25 7.125H3.75C3.55109 7.125 3.36032 7.04598 3.21967 6.90533C3.07902 6.76468 3 6.57391 3 6.375ZM20.25 9.375H8.25C8.05109 9.375 7.86032 9.45402 7.71967 9.59467C7.57902 9.73532 7.5 9.92609 7.5 10.125C7.5 10.3239 7.57902 10.5147 7.71967 10.6553C7.86032 10.796 8.05109 10.875 8.25 10.875H20.25C20.4489 10.875 20.6397 10.796 20.7803 10.6553C20.921 10.5147 21 10.3239 21 10.125C21 9.92609 20.921 9.73532 20.7803 9.59467C20.6397 9.45402 20.4489 9.375 20.25 9.375ZM20.25 13.125H3.75055C3.55164 13.125 3.36087 13.204 3.22022 13.3447C3.07957 13.4853 3.00055 13.6761 3.00055 13.875C3.00055 14.0739 3.07957 14.2647 3.22022 14.4053C3.36087 14.546 3.55164 14.625 3.75055 14.625H20.25C20.4489 14.625 20.6397 14.546 20.7803 14.4053C20.921 14.2647 21 14.0739 21 13.875C21 13.6761 20.921 13.4853 20.7803 13.3447C20.6397 13.204 20.4489 13.125 20.25 13.125ZM20.25 16.875H8.25055C8.05164 16.875 7.86087 16.954 7.72022 17.0947C7.57957 17.2353 7.50055 17.4261 7.50055 17.625C7.50055 17.8239 7.57957 18.0147 7.72022 18.1553C7.86087 18.296 8.05164 18.375 8.25055 18.375H20.25C20.4489 18.375 20.6397 18.296 20.7803 18.1553C20.921 18.0147 21 17.8239 21 17.625C21 17.4261 20.921 17.2353 20.7803 17.0947C20.6397 16.954 20.4489 16.875 20.25 16.875Z" fill="#1D1F21" style="fill: var(--ui-icon-primary-color);"/>
</svg>
