<svg  viewBox="0 0 24 24" fill="none" xmlns="http://www.w3.org/2000/svg" id="__THIS_ID_NEEDS_FOR_UI_ICON_COMPONENT__">
<path d="M15.9828 10.846C16.5762 10.2761 16.9856 9.54172 17.1582 8.7373C17.3308 7.93288 17.2589 7.09521 16.9516 6.33202C16.6442 5.56884 16.1156 4.91504 15.4337 4.45473C14.7518 3.99441 13.9478 3.74863 13.125 3.74899L5.9995 3.74854H5.99945C5.90096 3.74853 5.80343 3.76792 5.71243 3.80561C5.62143 3.8433 5.53875 3.89855 5.46911 3.96819C5.39946 4.03784 5.34422 4.12052 5.30653 4.21152C5.26884 4.30251 5.24945 4.40004 5.24945 4.49854V18.7485C5.24945 18.9474 5.32846 19.1382 5.4691 19.2788C5.60975 19.4195 5.8005 19.4985 5.9994 19.4985L14.25 19.499C15.2901 19.499 16.2981 19.1387 17.1025 18.4794C17.907 17.8201 18.4582 16.9024 18.6624 15.8826C18.8666 14.8627 18.7113 13.8036 18.2228 12.8854C17.7342 11.9672 16.9427 11.2465 15.9828 10.846ZM6.74945 5.24858L13.125 5.24899C13.8212 5.24899 14.4889 5.52555 14.9812 6.01784C15.4734 6.51012 15.75 7.1778 15.75 7.87399C15.75 8.57019 15.4734 9.23786 14.9812 9.73015C14.4889 10.2224 13.8212 10.499 13.125 10.499H6.74945V5.24858ZM14.25 17.999L6.74945 17.9986V11.999H14.25C15.0456 11.999 15.8087 12.3151 16.3713 12.8777C16.9339 13.4403 17.25 14.2033 17.25 14.999C17.25 15.7946 16.934 16.5577 16.3714 17.1203C15.8088 17.6829 15.0457 17.999 14.25 17.999Z" fill="#1D1F21" style="fill: var(--ui-icon-primary-color);"/>
</svg>
