<svg  viewBox="0 0 24 24" fill="none" xmlns="http://www.w3.org/2000/svg" id="__THIS_ID_NEEDS_FOR_UI_ICON_COMPONENT__">
<path d="M20.2495 5.24854V8.24853C20.2495 8.44745 20.1704 8.63821 20.0298 8.77887C19.8891 8.91952 19.6984 8.99853 19.4995 8.99853C19.3005 8.99853 19.1098 8.91952 18.9691 8.77887C18.8285 8.63821 18.7495 8.44745 18.7495 8.24853V5.99854H12.7495V17.9985H14.9995C15.1984 17.9985 15.3891 18.0776 15.5298 18.2182C15.6704 18.3589 15.7495 18.5496 15.7495 18.7485C15.7495 18.9474 15.6704 19.1382 15.5298 19.2789C15.3891 19.4195 15.1984 19.4985 14.9995 19.4985H8.99945C8.80054 19.4985 8.60977 19.4195 8.46912 19.2789C8.32847 19.1382 8.24945 18.9474 8.24945 18.7485C8.24945 18.5496 8.32847 18.3589 8.46912 18.2182C8.60977 18.0776 8.80054 17.9985 8.99945 17.9985H11.2495V5.99854H5.24945V8.24853C5.24945 8.44745 5.17043 8.63821 5.02978 8.77887C4.88913 8.91952 4.69836 8.99853 4.49945 8.99853C4.30054 8.99853 4.10977 8.91952 3.96912 8.77887C3.82847 8.63821 3.74945 8.44745 3.74945 8.24853V5.24854C3.74945 5.04962 3.82847 4.85886 3.96912 4.71821C4.10977 4.57756 4.30054 4.49854 4.49945 4.49854H19.4995C19.6984 4.49854 19.8891 4.57756 20.0298 4.71821C20.1704 4.85886 20.2494 5.04962 20.2495 5.24854Z" fill="#1D1F21" style="fill: var(--ui-icon-primary-color);"/>
</svg>
