<svg  viewBox="0 0 24 24" fill="none" xmlns="http://www.w3.org/2000/svg" id="__THIS_ID_NEEDS_FOR_UI_ICON_COMPONENT__">
<path d="M5.25 11.25V5.25C5.25 5.05109 5.32902 4.86032 5.46967 4.71967C5.61032 4.57902 5.80109 4.5 6 4.5C6.19891 4.5 6.38968 4.57902 6.53033 4.71967C6.67098 4.86032 6.75 5.05109 6.75 5.25V11.25C6.75 12.6424 7.30312 13.9777 8.28769 14.9623C9.27226 15.9469 10.6076 16.5 12 16.5C13.3924 16.5 14.7277 15.9469 15.7123 14.9623C16.6969 13.9777 17.25 12.6424 17.25 11.25V5.25C17.25 5.05109 17.329 4.86032 17.4697 4.71967C17.6103 4.57902 17.8011 4.5 18 4.5C18.1989 4.5 18.3897 4.57902 18.5303 4.71967C18.671 4.86032 18.75 5.05109 18.75 5.25V11.25C18.75 13.0402 18.0388 14.7571 16.773 16.023C15.5071 17.2888 13.7902 18 12 18C10.2098 18 8.4929 17.2888 7.22703 16.023C5.96116 14.7571 5.25 13.0402 5.25 11.25ZM20.25 19.5H3.75C3.55109 19.5 3.36032 19.579 3.21967 19.7197C3.07902 19.8603 3 20.0511 3 20.25C3 20.4489 3.07902 20.6397 3.21967 20.7803C3.36032 20.921 3.55109 21 3.75 21H20.25C20.4489 21 20.6397 20.921 20.7803 20.7803C20.921 20.6397 21 20.4489 21 20.25C21 20.0511 20.921 19.8603 20.7803 19.7197C20.6397 19.579 20.4489 19.5 20.25 19.5Z" fill="#1D1F21" style="fill: var(--ui-icon-primary-color);"/>
</svg>
