<svg  viewBox="0 0 24 24" fill="none" xmlns="http://www.w3.org/2000/svg" id="__THIS_ID_NEEDS_FOR_UI_ICON_COMPONENT__">
<path d="M3.0022 6.375C3.0022 6.17609 3.08122 5.98532 3.22187 5.84467C3.36252 5.70402 3.55329 5.625 3.7522 5.625H20.2522C20.4511 5.625 20.6419 5.70402 20.7825 5.84467C20.9232 5.98532 21.0022 6.17609 21.0022 6.375C21.0022 6.57391 20.9232 6.76468 20.7825 6.90533C20.6419 7.04598 20.4511 7.125 20.2522 7.125H3.7522C3.55329 7.125 3.36252 7.04598 3.22187 6.90533C3.08122 6.76468 3.0022 6.57391 3.0022 6.375ZM3.7522 10.875H15.7522C15.9511 10.875 16.1419 10.796 16.2825 10.6553C16.4232 10.5147 16.5022 10.3239 16.5022 10.125C16.5022 9.92609 16.4232 9.73532 16.2825 9.59467C16.1419 9.45402 15.9511 9.375 15.7522 9.375H3.7522C3.55328 9.375 3.36252 9.45402 3.22187 9.59467C3.08121 9.73532 3.0022 9.92609 3.0022 10.125C3.0022 10.3239 3.08121 10.5147 3.22187 10.6553C3.36252 10.796 3.55328 10.875 3.7522 10.875ZM20.2522 13.125H3.75275C3.55383 13.125 3.36307 13.204 3.22242 13.3447C3.08176 13.4853 3.00275 13.6761 3.00275 13.875C3.00275 14.0739 3.08176 14.2647 3.22242 14.4053C3.36307 14.546 3.55383 14.625 3.75275 14.625H20.2522C20.4511 14.625 20.6419 14.546 20.7825 14.4053C20.9232 14.2647 21.0022 14.0739 21.0022 13.875C21.0022 13.6761 20.9232 13.4853 20.7825 13.3447C20.6419 13.204 20.4511 13.125 20.2522 13.125ZM15.7522 16.875H3.75275C3.55383 16.875 3.36307 16.954 3.22242 17.0947C3.08176 17.2353 3.00275 17.4261 3.00275 17.625C3.00275 17.8239 3.08176 18.0147 3.22242 18.1553C3.36307 18.296 3.55383 18.375 3.75275 18.375H15.7522C15.9511 18.375 16.1419 18.296 16.2825 18.1553C16.4232 18.0147 16.5022 17.8239 16.5022 17.625C16.5022 17.4261 16.4232 17.2353 16.2825 17.0947C16.1419 16.954 15.9511 16.875 15.7522 16.875Z" fill="#1D1F21" style="fill: var(--ui-icon-primary-color);"/>
</svg>
