<svg  viewBox="0 0 24 24" fill="none" xmlns="http://www.w3.org/2000/svg" id="__THIS_ID_NEEDS_FOR_UI_ICON_COMPONENT__">
<path d="M15.75 13.432V4.5C15.75 3.50544 15.3549 2.55161 14.6516 1.84835C13.9484 1.14509 12.9946 0.75 12 0.75C11.0054 0.75 10.0516 1.14509 9.34835 1.84835C8.64509 2.55161 8.25 3.50544 8.25 4.5V13.432C7.40089 14.1914 6.80239 15.1908 6.5337 16.2979C6.26501 17.405 6.33879 18.5675 6.74528 19.6317C7.15177 20.6959 7.87182 21.6116 8.81013 22.2577C9.74844 22.9037 10.8608 23.2496 12 23.2496C13.1392 23.2496 14.2516 22.9037 15.1899 22.2577C16.1282 21.6116 16.8482 20.6959 17.2547 19.6317C17.6612 18.5675 17.735 17.405 17.4663 16.2979C17.1976 15.1908 16.5991 14.1914 15.75 13.432ZM12 2.25C12.5965 2.25067 13.1684 2.48794 13.5902 2.90975C14.0121 3.33157 14.2493 3.90347 14.25 4.5V7.5H9.75V4.5C9.75067 3.90347 9.98794 3.33157 10.4098 2.90975C10.8316 2.48794 11.4035 2.25067 12 2.25Z" fill="#1D1F21" style="fill: var(--ui-icon-primary-color);"/>
</svg>
