<svg  viewBox="0 0 24 24" fill="none" xmlns="http://www.w3.org/2000/svg" id="__THIS_ID_NEEDS_FOR_UI_ICON_COMPONENT__">
<path d="M22.9599 7.28622L21.0885 7.89432L22.2451 9.48624C22.3034 9.56589 22.3454 9.65628 22.3687 9.7522C22.392 9.84813 22.3961 9.94771 22.3809 10.0452C22.3656 10.1428 22.3312 10.2363 22.2797 10.3205C22.2282 10.4047 22.1606 10.478 22.0807 10.536C22.0009 10.594 21.9103 10.6357 21.8143 10.6586C21.7183 10.6816 21.6187 10.6854 21.5212 10.6698C21.4238 10.6541 21.3303 10.6194 21.2463 10.5676C21.1623 10.5158 21.0893 10.448 21.0316 10.3679L19.875 8.77597L18.7184 10.3679C18.6015 10.5288 18.4254 10.6367 18.229 10.6678C18.0325 10.6989 17.8318 10.6507 17.6709 10.5338C17.5099 10.4169 17.4021 10.2408 17.3709 10.0444C17.3398 9.84793 17.388 9.64716 17.5049 9.48624L18.6615 7.89432L16.7901 7.28622C16.6961 7.25603 16.609 7.20758 16.5338 7.14366C16.4586 7.07975 16.3968 7.00162 16.3518 6.91375C16.3069 6.82589 16.2797 6.73002 16.2719 6.63163C16.2641 6.53325 16.2758 6.43429 16.3063 6.34043C16.3368 6.24657 16.3855 6.15965 16.4496 6.08466C16.5138 6.00966 16.5921 5.94807 16.6801 5.9034C16.7681 5.85874 16.8641 5.83188 16.9625 5.82437C17.0609 5.81686 17.1598 5.82885 17.2536 5.85965L19.125 6.4677V4.5C19.125 4.30109 19.204 4.11032 19.3447 3.96967C19.4853 3.82902 19.6761 3.75 19.875 3.75C20.0739 3.75 20.2647 3.82902 20.4053 3.96967C20.546 4.11032 20.625 4.30109 20.625 4.5V6.4677L22.4964 5.85965C22.5901 5.82885 22.6891 5.81686 22.7875 5.82437C22.8859 5.83188 22.9818 5.85874 23.0698 5.9034C23.1578 5.94807 23.2362 6.00966 23.3003 6.08466C23.3645 6.15965 23.4132 6.24657 23.4437 6.34043C23.4742 6.43429 23.4859 6.53325 23.478 6.63163C23.4702 6.73002 23.4431 6.82589 23.3981 6.91375C23.3532 7.00162 23.2913 7.07975 23.2161 7.14366C23.1409 7.20758 23.0539 7.25603 22.9599 7.28622ZM16.875 17.625C16.8749 18.5633 16.6401 19.4866 16.1921 20.311C15.744 21.1353 15.0968 21.8345 14.3094 22.3448C13.5221 22.8551 12.6196 23.1604 11.6841 23.2328C10.7486 23.3052 9.80991 23.1425 8.95341 22.7594C8.0969 22.3763 7.34983 21.7851 6.78021 21.0395C6.21059 20.294 5.83652 19.4177 5.69206 18.4907C5.5476 17.5636 5.63734 16.6151 5.95311 15.7315C6.26887 14.848 6.80064 14.0575 7.49999 13.432V4.5C7.49999 3.50544 7.89507 2.55161 8.59834 1.84835C9.3016 1.14509 10.2554 0.75 11.25 0.75C12.2445 0.75 13.1984 1.14509 13.9016 1.84835C14.6049 2.55161 15 3.50544 15 4.5V13.432C15.5917 13.9582 16.0649 14.6041 16.3881 15.327C16.7114 16.0498 16.8773 16.8332 16.875 17.625ZM8.99999 4.5V9.75H13.5V4.5C13.5 3.90326 13.2629 3.33097 12.841 2.90901C12.419 2.48705 11.8467 2.25 11.25 2.25C10.6532 2.25 10.081 2.48705 9.659 2.90901C9.23704 3.33097 8.99999 3.90326 8.99999 4.5Z" fill="#1D1F21" style="fill: var(--ui-icon-primary-color);"/>
</svg>
