<svg  viewBox="0 0 24 24" fill="none" xmlns="http://www.w3.org/2000/svg" id="__THIS_ID_NEEDS_FOR_UI_ICON_COMPONENT__">
<path d="M15 13.432V4.5C15 3.50544 14.6049 2.55161 13.9016 1.84835C13.1984 1.14509 12.2445 0.75 11.25 0.75C10.2554 0.75 9.3016 1.14509 8.59834 1.84835C7.89507 2.55161 7.49999 3.50544 7.49999 4.5V13.432C6.65087 14.1914 6.05237 15.1908 5.78368 16.2979C5.51499 17.405 5.58877 18.5675 5.99527 19.6317C6.40176 20.6959 7.1218 21.6116 8.06011 22.2577C8.99843 22.9037 10.1108 23.2496 11.25 23.2496C12.3892 23.2496 13.5015 22.9037 14.4399 22.2577C15.3782 21.6116 16.0982 20.6959 16.5047 19.6317C16.9112 18.5675 16.985 17.405 16.7163 16.2979C16.4476 15.1908 15.8491 14.1914 15 13.432ZM11.25 2.25C11.8465 2.25067 12.4184 2.48794 12.8402 2.90975C13.262 3.33157 13.4993 3.90347 13.5 4.5V5.25H8.99999V4.5C9.00066 3.90347 9.23793 3.33157 9.65974 2.90975C10.0816 2.48794 10.6535 2.25067 11.25 2.25ZM16.693 8.03036C16.6234 7.96072 16.5681 7.87803 16.5304 7.78703C16.4927 7.69603 16.4733 7.5985 16.4733 7.5C16.4733 7.4015 16.4927 7.30397 16.5304 7.21297C16.5681 7.12197 16.6234 7.03928 16.693 6.96964C16.9368 6.72588 17.2261 6.53252 17.5446 6.4006C17.8631 6.26867 18.2044 6.20078 18.5492 6.20078C18.8939 6.20078 19.2352 6.26867 19.5537 6.4006C19.8722 6.53252 20.1616 6.72588 20.4053 6.96964C20.6164 7.18034 20.9025 7.29868 21.2008 7.29868C21.4991 7.29868 21.7852 7.18034 21.9963 6.96964C22.137 6.82899 22.3277 6.74997 22.5267 6.74998C22.7256 6.74999 22.9163 6.82902 23.057 6.96968C23.1976 7.11034 23.2767 7.30112 23.2766 7.50003C23.2766 7.69895 23.1976 7.88972 23.0569 8.03036C22.8132 8.27412 22.5238 8.46748 22.2053 8.5994C21.8869 8.73133 21.5455 8.79922 21.2008 8.79922C20.8561 8.79922 20.5147 8.73133 20.1963 8.5994C19.8778 8.46748 19.5884 8.27412 19.3447 8.03036C19.1335 7.81966 18.8474 7.70132 18.5492 7.70132C18.2509 7.70132 17.9648 7.81966 17.7537 8.03036C17.613 8.17097 17.4222 8.24995 17.2233 8.24995C17.0245 8.24995 16.8337 8.17097 16.693 8.03036ZM23.0569 10.7196C23.1266 10.7893 23.1818 10.872 23.2195 10.963C23.2572 11.054 23.2766 11.1515 23.2766 11.25C23.2766 11.3485 23.2572 11.446 23.2195 11.537C23.1818 11.628 23.1266 11.7107 23.0569 11.7804C22.8132 12.0241 22.5238 12.2175 22.2053 12.3494C21.8869 12.4813 21.5455 12.5492 21.2008 12.5492C20.8561 12.5492 20.5147 12.4813 20.1963 12.3494C19.8778 12.2175 19.5884 12.0241 19.3447 11.7804C19.1335 11.5697 18.8474 11.4513 18.5492 11.4513C18.2509 11.4513 17.9648 11.5697 17.7537 11.7804C17.613 11.921 17.4222 12 17.2233 12C17.0244 12 16.8336 11.921 16.693 11.7803C16.5523 11.6397 16.4733 11.4489 16.4733 11.25C16.4733 11.0511 16.5524 10.8603 16.693 10.7196C16.9368 10.4759 17.2261 10.2825 17.5446 10.1506C17.8631 10.0187 18.2044 9.95078 18.5492 9.95078C18.8939 9.95078 19.2352 10.0187 19.5537 10.1506C19.8722 10.2825 20.1616 10.4759 20.4053 10.7196C20.6164 10.9303 20.9025 11.0487 21.2008 11.0487C21.4991 11.0487 21.7852 10.9303 21.9963 10.7196C22.137 10.579 22.3277 10.5 22.5266 10.5C22.7255 10.5 22.9163 10.579 23.0569 10.7196Z" fill="#1D1F21" style="fill: var(--ui-icon-primary-color);"/>
</svg>
