<svg  viewBox="0 0 24 24" fill="none" xmlns="http://www.w3.org/2000/svg" id="__THIS_ID_NEEDS_FOR_UI_ICON_COMPONENT__">
<path d="M21.737 7.51089C21.5258 7.27179 21.2662 7.08029 20.9754 6.94911C20.6846 6.81794 20.3692 6.75006 20.0502 6.75H14.9994V5.25C14.9983 4.25578 14.6029 3.30261 13.8999 2.5996C13.1968 1.89658 12.2437 1.50113 11.2494 1.5C11.1102 1.49999 10.9736 1.53877 10.8551 1.612C10.7367 1.68523 10.6409 1.79001 10.5786 1.9146L7.03592 9H2.99945C2.60177 9.00045 2.2205 9.15864 1.93929 9.43984C1.65809 9.72105 1.49991 10.1023 1.49945 10.5V18.75C1.49991 19.1477 1.65809 19.529 1.93929 19.8102C2.2205 20.0914 2.60177 20.2495 2.99945 20.25H18.9252C19.4734 20.2492 20.0025 20.0487 20.4135 19.6859C20.8245 19.3231 21.0891 18.8229 21.1579 18.2791L22.2829 9.27905C22.3224 8.96247 22.2941 8.64112 22.2 8.33629C22.1059 8.03146 21.9481 7.75011 21.737 7.51089ZM2.99945 10.5H6.74945V18.75H2.99945V10.5Z" fill="#1D1F21" style="fill: var(--ui-icon-primary-color);"/>
</svg>
