<svg  viewBox="0 0 24 24" fill="none" xmlns="http://www.w3.org/2000/svg" id="__THIS_ID_NEEDS_FOR_UI_ICON_COMPONENT__">
<path d="M8.99996 0.75C8.99996 0.551088 9.07898 0.360324 9.21963 0.219672C9.36028 0.0790203 9.55105 1.98909e-06 9.74996 0L14.25 0C14.4489 0 14.6396 0.0790176 14.7803 0.21967C14.9209 0.360322 15 0.551088 15 0.75C15 0.948912 14.9209 1.13968 14.7803 1.28033C14.6396 1.42098 14.4489 1.5 14.25 1.5H9.74996C9.55105 1.5 9.36028 1.42098 9.21963 1.28033C9.07898 1.13968 8.99996 0.948912 8.99996 0.75ZM21 12C21 13.78 20.4721 15.5201 19.4832 17.0001C18.4943 18.4802 17.0886 19.6337 15.4441 20.3149C13.7996 20.9961 11.99 21.1743 10.2441 20.8271C8.49832 20.4798 6.89467 19.6226 5.636 18.364C4.37733 17.1053 3.52016 15.5016 3.17289 13.7558C2.82563 12.01 3.00386 10.2004 3.68504 8.55585C4.36623 6.91131 5.51979 5.50571 6.99983 4.51677C8.47987 3.52784 10.2199 3 12 3C14.3861 3.0027 16.6737 3.95178 18.3609 5.63902C20.0482 7.32626 20.9973 9.61388 21 12ZM16.2426 7.75736C16.1019 7.61671 15.9112 7.5377 15.7123 7.5377C15.5133 7.5377 15.3226 7.61671 15.1819 7.75736L11.4696 11.4697C11.3999 11.5393 11.3447 11.622 11.307 11.713C11.2693 11.804 11.2499 11.9015 11.2499 12C11.2499 12.199 11.329 12.3897 11.4696 12.5304C11.6103 12.671 11.8011 12.75 12 12.75C12.1989 12.75 12.3897 12.671 12.5303 12.5303L16.2426 8.81799C16.3832 8.67734 16.4623 8.48658 16.4623 8.28767C16.4623 8.08877 16.3833 7.89801 16.2426 7.75736Z" fill="#1D1F21" style="fill: var(--ui-icon-primary-color);"/>
</svg>
