<svg  viewBox="0 0 24 24" fill="none" xmlns="http://www.w3.org/2000/svg" id="__THIS_ID_NEEDS_FOR_UI_ICON_COMPONENT__">
<path d="M22.0297 6.4996C21.8889 6.3425 21.7166 6.21682 21.5241 6.13074C21.3315 6.04466 21.1229 6.00011 20.912 6H16.4363C16.2593 4.95148 15.7165 3.99956 14.9044 3.3131C14.0923 2.62664 13.0633 2.25 12 2.25C10.9366 2.25 9.90763 2.62664 9.09553 3.3131C8.28343 3.99956 7.74072 4.95148 7.56366 6H3.08797C2.87701 6 2.66843 6.0445 2.47584 6.13059C2.28325 6.21668 2.11098 6.34242 1.97029 6.49961C1.82959 6.6568 1.72364 6.84189 1.65933 7.04281C1.59503 7.24373 1.57384 7.45595 1.59712 7.66562L2.93041 19.6657C2.97085 20.0327 3.14538 20.3718 3.42051 20.6181C3.69565 20.8643 4.05201 21.0003 4.42125 21H19.5787C19.948 21.0003 20.3043 20.8643 20.5795 20.6181C20.8546 20.3718 21.0291 20.0326 21.0696 19.6656L22.4028 7.66562C22.426 7.45595 22.4048 7.24376 22.3405 7.04286C22.2762 6.84195 22.1703 6.65685 22.0297 6.4996ZM12 3.75C12.6649 3.75085 13.3107 3.97218 13.8364 4.37932C14.3621 4.78647 14.7379 5.35644 14.905 6H9.09493C9.26205 5.35644 9.63787 4.78647 10.1635 4.37932C10.6892 3.97218 11.3351 3.75085 12 3.75Z" fill="#1D1F21" style="fill: var(--ui-icon-primary-color);"/>
</svg>
