<svg  viewBox="0 0 24 24" fill="none" xmlns="http://www.w3.org/2000/svg" id="__THIS_ID_NEEDS_FOR_UI_ICON_COMPONENT__">
<path d="M15.75 8.25C15.75 8.44891 15.6709 8.63968 15.5303 8.78033C15.3896 8.92098 15.1989 9 15 9H8.99997C8.80105 9 8.61029 8.92098 8.46964 8.78033C8.32898 8.63968 8.24997 8.44891 8.24997 8.25C8.24997 8.05109 8.32898 7.86032 8.46964 7.71967C8.61029 7.57902 8.80105 7.5 8.99997 7.5H15C15.1989 7.5 15.3896 7.57902 15.5303 7.71967C15.6709 7.86032 15.75 8.05109 15.75 8.25ZM20.9996 11.2554C20.9995 11.2864 20.9974 11.3174 20.9934 11.3481C20.9932 11.35 20.9927 11.3519 20.9924 11.3538C20.9884 11.382 20.9827 11.4101 20.9755 11.4377C20.9746 11.4409 20.9744 11.4442 20.9735 11.4473L18.8742 19.1446C18.7872 19.4618 18.5985 19.7417 18.3371 19.9414C18.0757 20.141 17.756 20.2494 17.4271 20.25H16.5L17.85 22.05C17.9693 22.2092 18.0206 22.4092 17.9924 22.6061C17.9643 22.803 17.8591 22.9807 17.6999 23.1C17.5408 23.2194 17.3408 23.2706 17.1439 23.2425C16.9469 23.2143 16.7693 23.1091 16.6499 22.95L14.6249 20.25H9.37499L7.35 22.95C7.29091 23.0288 7.21688 23.0952 7.13213 23.1454C7.04738 23.1955 6.95357 23.2285 6.85607 23.2425C6.75857 23.2564 6.65927 23.251 6.56386 23.2266C6.46845 23.2021 6.37878 23.1591 6.29998 23.1C6.22119 23.0409 6.1548 22.9669 6.10461 22.8822C6.05443 22.7974 6.02142 22.7036 6.00749 22.6061C5.99356 22.5086 5.99896 22.4093 6.0234 22.3139C6.04784 22.2185 6.09084 22.1288 6.14993 22.05L7.49994 20.25H6.57281C6.24389 20.2494 5.92422 20.141 5.66284 19.9414C5.40145 19.7417 5.21277 19.4618 5.12573 19.1446L3.02642 11.4473C3.02555 11.4442 3.0253 11.4409 3.02448 11.4377C3.01721 11.4101 3.01154 11.382 3.00749 11.3538C3.00722 11.3519 3.00676 11.35 3.00651 11.3481C3.00253 11.3174 3.00048 11.2864 3.00035 11.2554C3.00031 11.2491 3.00077 11.2429 3.00088 11.2366C3.00134 11.2129 3.00293 11.1891 3.00564 11.1652C3.00667 11.156 3.0078 11.147 3.00917 11.1379C3.01029 11.1305 3.01072 11.1232 3.01205 11.1158C3.01514 11.0989 3.01956 11.0825 3.02372 11.066C3.02485 11.0616 3.02523 11.0571 3.02642 11.0527L3.02947 11.0415L3.02966 11.0408L5.12573 3.35531C5.21278 3.03813 5.40147 2.75825 5.66285 2.5586C5.92424 2.35895 6.2439 2.25054 6.57281 2.25H17.4271C17.756 2.25054 18.0757 2.35895 18.3371 2.5586C18.5985 2.75825 18.7871 3.03813 18.8742 3.35531L20.9703 11.0409L20.9704 11.0413L20.9735 11.0527C20.9747 11.0571 20.9751 11.0617 20.9763 11.0662C20.9804 11.0826 20.9848 11.0989 20.9879 11.1158C20.9892 11.1232 20.9896 11.1305 20.9908 11.1379C20.9921 11.147 20.9933 11.156 20.9943 11.1652C20.997 11.1891 20.9986 11.2129 20.9991 11.2366C20.9992 11.2429 20.9996 11.2491 20.9996 11.2554ZM12.75 14.25C12.75 14.0511 12.6709 13.8603 12.5303 13.7197C12.3896 13.579 12.1989 13.5 12 13.5C11.8011 13.5 11.6103 13.579 11.4696 13.7197C11.329 13.8603 11.25 14.0511 11.25 14.25V18C11.25 18.1989 11.329 18.3897 11.4696 18.5303C11.6103 18.671 11.8011 18.75 12 18.75C12.1989 18.75 12.3896 18.671 12.5303 18.5303C12.6709 18.3897 12.75 18.1989 12.75 18V14.25ZM19.3112 10.6584L17.4271 3.75H6.57244L4.68866 10.6584L12 11.9877L19.3112 10.6584Z" fill="#1D1F21" style="fill: var(--ui-icon-primary-color);"/>
</svg>
