<svg  viewBox="0 0 24 24" fill="none" xmlns="http://www.w3.org/2000/svg" id="__THIS_ID_NEEDS_FOR_UI_ICON_COMPONENT__">
<path d="M22.4186 19.9146L17.1686 9.41455C17.1063 9.28998 17.0106 9.18522 16.8921 9.112C16.7736 9.03878 16.6371 9 16.4978 9C16.3585 9 16.222 9.03878 16.1035 9.112C15.985 9.18522 15.8893 9.28998 15.827 9.41455L13.7929 13.4828C12.197 13.394 10.6613 12.8436 9.37232 11.8985C10.8838 10.285 11.7999 8.20435 11.9692 6H14.2478C14.4467 6 14.6375 5.92098 14.7781 5.78033C14.9188 5.63968 14.9978 5.44891 14.9978 5.25C14.9978 5.05109 14.9188 4.86032 14.7781 4.71967C14.6375 4.57902 14.4467 4.5 14.2478 4.5H8.9978V3C8.9978 2.80109 8.91878 2.61032 8.77813 2.46967C8.63748 2.32902 8.44671 2.25 8.2478 2.25C8.04889 2.25 7.85812 2.32902 7.71747 2.46967C7.57682 2.61032 7.4978 2.80109 7.4978 3V4.5H2.2478C2.04889 4.5 1.85812 4.57902 1.71747 4.71967C1.57682 4.86032 1.4978 5.05109 1.4978 5.25C1.4978 5.44891 1.57682 5.63968 1.71747 5.78033C1.85812 5.92098 2.04889 6 2.2478 6H10.4634C10.2962 7.83802 9.51556 9.56638 8.24707 10.907C7.45717 10.073 6.85094 9.08266 6.46751 7.99988C6.43475 7.90691 6.38398 7.82131 6.31811 7.74798C6.25224 7.67465 6.17256 7.61502 6.08362 7.57251C5.99469 7.53 5.89825 7.50543 5.79981 7.50022C5.70138 7.49501 5.60288 7.50926 5.50996 7.54214C5.41703 7.57503 5.3315 7.62591 5.25826 7.69188C5.18501 7.75785 5.12549 7.83761 5.08309 7.9266C5.0407 8.01559 5.01626 8.11206 5.01118 8.2105C5.0061 8.30894 5.02047 8.40742 5.05348 8.5003C5.50127 9.76455 6.20614 10.9223 7.12365 11.9006C5.71115 12.9413 4.00228 13.5018 2.2478 13.5C2.04889 13.5 1.85812 13.579 1.71747 13.7197C1.57682 13.8603 1.4978 14.0511 1.4978 14.25C1.4978 14.4489 1.57682 14.6397 1.71747 14.7803C1.85812 14.921 2.04889 15 2.2478 15C4.42387 15.0022 6.5375 14.2728 8.24905 12.929C9.64565 14.0197 11.3128 14.7098 13.0717 14.9252L10.577 19.9145C10.4882 20.0924 10.4736 20.2983 10.5365 20.4869C10.5995 20.6756 10.7347 20.8315 10.9125 20.9204C11.0904 21.0094 11.2963 21.024 11.4849 20.9612C11.6736 20.8984 11.8296 20.7632 11.9186 20.5854L13.2113 18H19.7843L21.077 20.5854C21.166 20.7632 21.322 20.8984 21.5107 20.9612C21.6993 21.024 21.9052 21.0094 22.0831 20.9204C22.2609 20.8315 22.3961 20.6756 22.4591 20.487C22.522 20.2983 22.5074 20.0924 22.4186 19.9146ZM13.9613 16.5L16.4978 11.4271L19.0343 16.5H13.9613Z" fill="#1D1F21" style="fill: var(--ui-icon-primary-color);"/>
</svg>
