<svg  viewBox="0 0 24 24" fill="none" xmlns="http://www.w3.org/2000/svg" id="__THIS_ID_NEEDS_FOR_UI_ICON_COMPONENT__">
<path d="M7.5 2.25C7.49994 2.15149 7.5193 2.05394 7.55698 1.96292C7.59465 1.8719 7.64989 1.7892 7.71954 1.71954C7.7892 1.64989 7.8719 1.59465 7.96292 1.55698C8.05394 1.5193 8.15149 1.49994 8.25 1.5H15.75C15.9489 1.5 16.1397 1.57902 16.2803 1.71967C16.421 1.86032 16.5 2.05109 16.5 2.25C16.5 2.44891 16.421 2.63968 16.2803 2.78033C16.1397 2.92098 15.9489 3 15.75 3H8.25C8.15149 3.00006 8.05394 2.9807 7.96292 2.94303C7.8719 2.90535 7.7892 2.85011 7.71954 2.78046C7.64989 2.7108 7.59465 2.6281 7.55697 2.53708C7.5193 2.44606 7.49994 2.34851 7.5 2.25ZM21 5.25C21.0001 5.34851 20.9807 5.44606 20.943 5.53708C20.9054 5.6281 20.8501 5.7108 20.7805 5.78046C20.7108 5.85011 20.6281 5.90535 20.5371 5.94303C20.4461 5.9807 20.3485 6.00006 20.25 6H19.5V19.5C19.4996 19.8977 19.3414 20.279 19.0602 20.5602C18.779 20.8414 18.3977 20.9996 18 21H6C5.6023 20.9996 5.22099 20.8414 4.93977 20.5602C4.65855 20.279 4.50039 19.8977 4.5 19.5V6H3.75C3.55109 6 3.36032 5.92098 3.21967 5.78033C3.07902 5.63968 3 5.44891 3 5.25C3 5.05109 3.07902 4.86032 3.21967 4.71967C3.36032 4.57902 3.55109 4.5 3.75 4.5H20.25C20.3485 4.49994 20.4461 4.5193 20.5371 4.55698C20.6281 4.59465 20.7108 4.64989 20.7805 4.71954C20.8501 4.7892 20.9054 4.8719 20.943 4.96292C20.9807 5.05394 21.0001 5.15149 21 5.25ZM10.5 9.75C10.5 9.55109 10.421 9.36032 10.2803 9.21967C10.1397 9.07902 9.94891 9 9.75 9C9.55109 9 9.36032 9.07902 9.21967 9.21967C9.07902 9.36032 9 9.55109 9 9.75V15.75C9 15.9489 9.07902 16.1397 9.21967 16.2803C9.36032 16.421 9.55109 16.5 9.75 16.5C9.94891 16.5 10.1397 16.421 10.2803 16.2803C10.421 16.1397 10.5 15.9489 10.5 15.75V9.75ZM15 9.75C15 9.55109 14.921 9.36032 14.7803 9.21967C14.6397 9.07902 14.4489 9 14.25 9C14.0511 9 13.8603 9.07902 13.7197 9.21967C13.579 9.36032 13.5 9.55109 13.5 9.75V15.75C13.5 15.9489 13.579 16.1397 13.7197 16.2803C13.8603 16.421 14.0511 16.5 14.25 16.5C14.4489 16.5 14.6397 16.421 14.7803 16.2803C14.921 16.1397 15 15.9489 15 15.75V9.75Z" fill="#1D1F21" style="fill: var(--ui-icon-primary-color);"/>
</svg>
