<svg  viewBox="0 0 24 24" fill="none" xmlns="http://www.w3.org/2000/svg" id="__THIS_ID_NEEDS_FOR_UI_ICON_COMPONENT__">
<path d="M19.5003 3H4.50027C4.10259 3.00045 3.72132 3.15864 3.44012 3.43984C3.15891 3.72105 3.00073 4.10231 3.00027 4.5V14.9891C3.00023 14.9928 2.99973 14.9963 2.99973 15C2.99973 15.0037 3.00023 15.0072 3.00027 15.0109V19.5C3.00073 19.8977 3.15891 20.279 3.44012 20.5602C3.72132 20.8414 4.10259 20.9995 4.50027 21H19.5003C19.898 20.9995 20.2792 20.8414 20.5604 20.5602C20.8416 20.279 20.9998 19.8977 21.0003 19.5V4.5C20.9998 4.10231 20.8416 3.72105 20.5604 3.43984C20.2792 3.15864 19.898 3.00045 19.5003 3ZM19.5003 19.5H4.50027V15.75L7.18909 15.7499L8.99982 17.5608C9.13879 17.7005 9.30408 17.8112 9.48612 17.8866C9.66816 17.962 9.86333 18.0005 10.0604 18H13.9391C14.1361 18.0005 14.3314 17.962 14.5134 17.8866C14.6955 17.8111 14.8608 17.7004 14.9997 17.5606L16.8104 15.75H19.501L19.5012 19.5H19.5003Z" fill="#1D1F21" style="fill: var(--ui-icon-primary-color);"/>
</svg>
