<svg  viewBox="0 0 24 24" fill="none" xmlns="http://www.w3.org/2000/svg" id="__THIS_ID_NEEDS_FOR_UI_ICON_COMPONENT__">
<path d="M1.71985 17.7803C1.5792 17.6397 1.50019 17.4489 1.50019 17.25C1.50019 17.0511 1.5792 16.8603 1.71985 16.7197L8.46985 9.96968C8.61052 9.82903 8.80129 9.75002 9.00021 9.75002C9.19913 9.75002 9.38991 9.82903 9.53058 9.96968L12.7502 13.1893L19.9395 6H15.7502C15.5513 6 15.3605 5.92098 15.2199 5.78033C15.0792 5.63968 15.0002 5.44891 15.0002 5.25C15.0002 5.05109 15.0792 4.86032 15.2199 4.71967C15.3605 4.57902 15.5513 4.5 15.7502 4.5H21.7502C21.753 4.5 21.7557 4.50039 21.7585 4.50041C21.7804 4.50066 21.8022 4.50158 21.824 4.50373C21.836 4.5049 21.8478 4.50714 21.8597 4.50888C21.872 4.51069 21.8843 4.51209 21.8966 4.51451C21.9097 4.51712 21.9225 4.52069 21.9354 4.52399C21.9462 4.52673 21.957 4.52907 21.9677 4.53229C21.9803 4.53609 21.9924 4.54079 22.0047 4.54523C22.0155 4.54912 22.0264 4.55267 22.037 4.55708C22.0484 4.56177 22.0592 4.56727 22.0703 4.57251C22.0814 4.57777 22.0927 4.58272 22.1037 4.58858C22.1141 4.59416 22.124 4.60053 22.1341 4.60659C22.145 4.61309 22.1561 4.61925 22.1666 4.62634C22.1776 4.63367 22.1879 4.64186 22.1985 4.64973C22.2076 4.65651 22.2169 4.66283 22.2257 4.67006C22.2431 4.68439 22.2598 4.69961 22.2759 4.71542C22.2774 4.71693 22.2791 4.71817 22.2806 4.71968C22.2825 4.7216 22.2841 4.72373 22.286 4.72568C22.3013 4.74134 22.3162 4.75749 22.3301 4.77446C22.3378 4.78389 22.3446 4.79382 22.3518 4.80352C22.3592 4.81343 22.3669 4.82309 22.3738 4.83337C22.3813 4.84468 22.3879 4.85642 22.3948 4.86804C22.4004 4.87743 22.4063 4.88656 22.4115 4.8962C22.4178 4.90801 22.4232 4.92014 22.4288 4.9322C22.4336 4.94236 22.4387 4.95232 22.443 4.96273C22.4478 4.97443 22.4517 4.98635 22.456 4.99821C22.46 5.00944 22.4643 5.02052 22.4678 5.03201C22.4714 5.04398 22.4741 5.05616 22.4771 5.06827C22.48 5.07989 22.4833 5.09134 22.4857 5.10319C22.4885 5.11734 22.4901 5.13162 22.4922 5.14588C22.4935 5.15586 22.4955 5.16566 22.4965 5.17575C22.4989 5.20061 22.5002 5.22552 22.5002 5.25048V11.25C22.5002 11.4489 22.4212 11.6397 22.2805 11.7803C22.1399 11.921 21.9491 12 21.7502 12C21.5513 12 21.3605 11.921 21.2199 11.7803C21.0792 11.6397 21.0002 11.4489 21.0002 11.25V7.06069L13.2806 14.7803C13.1399 14.921 12.9491 15 12.7502 15C12.5513 15 12.3605 14.921 12.2198 14.7803L9.00021 11.5607L2.78058 17.7803C2.63991 17.921 2.44914 18 2.25021 18C2.05129 18 1.86051 17.921 1.71985 17.7803Z" fill="#1D1F21" style="fill: var(--ui-icon-primary-color);"/>
</svg>
