<svg  viewBox="0 0 24 24" fill="none" xmlns="http://www.w3.org/2000/svg" id="__THIS_ID_NEEDS_FOR_UI_ICON_COMPONENT__">
<path d="M22.3301 19.2256C22.3162 19.2425 22.3013 19.2587 22.286 19.2743C22.2841 19.2763 22.2825 19.2784 22.2806 19.2803C22.2791 19.2818 22.2774 19.2831 22.2759 19.2846C22.2598 19.3004 22.2431 19.3156 22.2257 19.33C22.2168 19.3372 22.2075 19.3436 22.1984 19.3504C22.1879 19.3582 22.1776 19.3664 22.1667 19.3737C22.1559 19.3809 22.1448 19.3871 22.1337 19.3937C22.1238 19.3997 22.114 19.4059 22.1038 19.4114C22.0925 19.4174 22.081 19.4225 22.0695 19.4279C22.0588 19.433 22.0482 19.4383 22.0372 19.4429C22.0262 19.4475 22.0149 19.4512 22.0036 19.4552C21.9917 19.4595 21.98 19.464 21.9679 19.4677C21.9567 19.4711 21.9453 19.4735 21.934 19.4764C21.9216 19.4795 21.9094 19.483 21.8968 19.4855C21.8836 19.4881 21.8703 19.4896 21.857 19.4915C21.846 19.4931 21.8353 19.4952 21.8242 19.4963C21.7997 19.4987 21.7749 19.5 21.7502 19.5H15.7502C15.5513 19.5 15.3605 19.421 15.2199 19.2803C15.0792 19.1397 15.0002 18.9489 15.0002 18.75C15.0002 18.5511 15.0792 18.3603 15.2199 18.2197C15.3605 18.079 15.5513 18 15.7502 18H19.9395L12.7502 10.8107L9.53059 14.0303C9.38992 14.171 9.19915 14.25 9.00023 14.25C8.8013 14.25 8.61053 14.171 8.46986 14.0303L1.71986 7.28034C1.65022 7.21069 1.59497 7.12801 1.55729 7.03701C1.5196 6.94601 1.5002 6.84848 1.50021 6.74999C1.50021 6.65149 1.51961 6.55397 1.55731 6.46297C1.595 6.37198 1.65025 6.2893 1.7199 6.21965C1.78955 6.15001 1.87223 6.09477 1.96323 6.05708C2.05423 6.01939 2.15176 6 2.25025 6C2.34875 6 2.44628 6.01941 2.53727 6.0571C2.62827 6.0948 2.71095 6.15005 2.78059 6.2197L9.00022 12.4393L12.2199 9.21969C12.3605 9.07905 12.5513 9.00004 12.7502 9.00004C12.9491 9.00004 13.1399 9.07905 13.2806 9.21969L21.0002 16.9393V12.75C21.0002 12.5511 21.0792 12.3603 21.2199 12.2197C21.3605 12.079 21.5513 12 21.7502 12C21.9491 12 22.1399 12.079 22.2806 12.2197C22.4212 12.3603 22.5002 12.5511 22.5002 12.75V18.7495C22.5002 18.7745 22.499 18.7994 22.4965 18.8243C22.4955 18.8344 22.4935 18.8442 22.4922 18.8541C22.4902 18.8684 22.4885 18.8827 22.4857 18.8968C22.4833 18.9087 22.48 18.9201 22.4771 18.9317C22.4741 18.9439 22.4714 18.956 22.4678 18.968C22.4643 18.9795 22.46 18.9906 22.456 19.0018C22.4517 19.0137 22.4478 19.0256 22.443 19.0373C22.4387 19.0477 22.4336 19.0577 22.4288 19.0678C22.4232 19.0799 22.4178 19.092 22.4115 19.1038C22.4063 19.1135 22.4004 19.1226 22.3948 19.132C22.3879 19.1436 22.3813 19.1553 22.3738 19.1666C22.3669 19.1769 22.3592 19.1866 22.3518 19.1965C22.3446 19.2062 22.3379 19.2161 22.3301 19.2256Z" fill="#1D1F21" style="fill: var(--ui-icon-primary-color);"/>
</svg>
