<svg  viewBox="0 0 24 24" fill="none" xmlns="http://www.w3.org/2000/svg" id="__THIS_ID_NEEDS_FOR_UI_ICON_COMPONENT__">
<path d="M22.1975 19.8728C22.002 20.2169 21.7182 20.5026 21.3756 20.7006C21.0329 20.8986 20.6436 21.0017 20.2478 20.9993H3.75224C3.35702 20.9994 2.96875 20.8954 2.62652 20.6977C2.2843 20.5 2.00019 20.2157 1.80282 19.8733C1.60544 19.5309 1.50177 19.1425 1.50223 18.7473C1.50269 18.3521 1.60728 17.964 1.80546 17.6221L10.0533 3.3728H10.0525C10.2502 3.03135 10.5342 2.74787 10.876 2.5508C11.2179 2.35374 11.6055 2.25 12 2.25C12.3946 2.25 12.7822 2.35374 13.124 2.5508C13.4659 2.74787 13.7498 3.03135 13.9475 3.3728L22.1946 17.6221C22.3951 17.9631 22.501 18.3514 22.5015 18.747C22.502 19.1426 22.3971 19.5312 22.1975 19.8728Z" fill="#1D1F21" style="fill: var(--ui-icon-primary-color);"/>
</svg>
