<svg  viewBox="0 0 24 24" fill="none" xmlns="http://www.w3.org/2000/svg" id="__THIS_ID_NEEDS_FOR_UI_ICON_COMPONENT__">
<path d="M23.2497 11.2445C23.2496 11.2366 23.2488 11.2287 23.2485 11.2208C23.2477 11.2 23.2464 11.1793 23.2439 11.1589C23.2428 11.1501 23.2413 11.1413 23.2398 11.1325C23.2367 11.1122 23.2328 11.0923 23.2279 11.0725C23.226 11.0646 23.2241 11.0567 23.2219 11.0488C23.2156 11.0262 23.2083 11.0041 23.2 10.9824C23.1986 10.9788 23.1978 10.9751 23.1963 10.9714L23.1917 10.9599L23.1907 10.9573L21.8849 7.6929C21.7744 7.41399 21.5824 7.17485 21.334 7.00666C21.0856 6.83847 20.7922 6.74903 20.4922 6.75H17.25V6C17.25 5.80109 17.1709 5.61033 17.0303 5.46968C16.8896 5.32903 16.6989 5.25001 16.5 5.25H2.24996C1.85228 5.25045 1.47101 5.40864 1.1898 5.68984C0.908598 5.97105 0.750417 6.35231 0.749962 6.75V17.25C0.750417 17.6477 0.908598 18.029 1.1898 18.3102C1.47101 18.5914 1.85228 18.7495 2.24996 18.75H3.4699C3.63625 19.394 4.01187 19.9644 4.53772 20.3717C5.06357 20.779 5.70984 21 6.37496 21C7.04009 21 7.68636 20.779 8.21221 20.3717C8.73806 19.9644 9.11367 19.394 9.28002 18.75H14.7199C14.8863 19.394 15.2619 19.9644 15.7877 20.3717C16.3136 20.779 16.9598 21 17.625 21C18.2901 21 18.9364 20.779 19.4622 20.3717C19.9881 19.9644 20.3637 19.394 20.53 18.75H21.75C22.1476 18.7495 22.5289 18.5914 22.8101 18.3102C23.0913 18.029 23.2495 17.6477 23.25 17.25V11.25C23.25 11.2481 23.2497 11.2463 23.2497 11.2445ZM17.25 8.25H20.4922L21.3922 10.5H17.25V8.25ZM2.24996 6.75H15.75V12.75H2.24996V6.75ZM6.37496 19.5C6.07829 19.5 5.78828 19.412 5.54161 19.2472C5.29493 19.0824 5.10267 18.8481 4.98914 18.574C4.87561 18.2999 4.84591 17.9983 4.90378 17.7074C4.96166 17.4164 5.10452 17.1491 5.3143 16.9393C5.52408 16.7296 5.79136 16.5867 6.08233 16.5288C6.3733 16.4709 6.6749 16.5006 6.94899 16.6142C7.22308 16.7277 7.45734 16.92 7.62217 17.1666C7.78699 17.4133 7.87496 17.7033 7.87496 18C7.87451 18.3977 7.71633 18.779 7.43512 19.0602C7.15391 19.3414 6.77265 19.4995 6.37496 19.5ZM17.625 19.5C17.3283 19.5 17.0383 19.412 16.7916 19.2472C16.5449 19.0824 16.3527 18.8481 16.2391 18.574C16.1256 18.2999 16.0959 17.9983 16.1538 17.7074C16.2117 17.4164 16.3545 17.1491 16.5643 16.9393C16.7741 16.7296 17.0414 16.5867 17.3323 16.5288C17.6233 16.4709 17.9249 16.5006 18.199 16.6142C18.4731 16.7277 18.7073 16.92 18.8722 17.1666C19.037 17.4133 19.125 17.7033 19.125 18C19.1245 18.3977 18.9663 18.779 18.6851 19.0602C18.4039 19.3414 18.0226 19.4995 17.625 19.5Z" fill="#1D1F21" style="fill: var(--ui-icon-primary-color);"/>
</svg>
