<svg  viewBox="0 0 24 24" fill="none" xmlns="http://www.w3.org/2000/svg" id="__THIS_ID_NEEDS_FOR_UI_ICON_COMPONENT__">
<path d="M23.1148 6.1169C22.3194 7.25601 21.3426 8.25703 20.2234 9.08015C20.0828 11.224 19.4029 13.2975 18.2469 15.1084C17.0909 16.9193 15.4962 18.4088 13.6107 19.4388C11.7253 20.4687 9.61019 21.0057 7.46178 20.9998C5.31337 20.994 3.20125 20.4455 1.32142 19.4053C1.17699 19.325 1.0631 19.1992 0.997437 19.0475C0.93177 18.8958 0.91799 18.7267 0.958235 18.5664C0.998479 18.4061 1.0905 18.2636 1.22002 18.1609C1.34954 18.0582 1.50932 18.0011 1.67459 17.9985C3.50963 17.9729 5.31024 17.4966 6.91804 16.6118C5.0073 15.0435 3.59282 12.9543 2.84625 10.5978C2.09969 8.24127 2.05314 5.71872 2.71225 3.33627C2.75082 3.19713 2.82873 3.07209 2.93663 2.97615C3.04452 2.88021 3.17782 2.81745 3.32051 2.79541C3.4632 2.77337 3.60921 2.79298 3.74103 2.8519C3.87285 2.91081 3.98486 3.00651 4.06361 3.12752C4.87525 4.38097 5.92892 5.4598 7.16286 6.30078C8.39681 7.14177 9.78621 7.72799 11.2496 8.02509C11.275 7.08128 11.5965 6.16934 12.1687 5.41836C12.7409 4.66737 13.5349 4.11538 14.4381 3.84051C15.3414 3.56564 16.3082 3.58182 17.2018 3.88676C18.0953 4.1917 18.8703 4.76995 19.4171 5.53966C20.3855 5.47468 21.3416 5.28516 22.2616 4.97579C22.4113 4.92551 22.573 4.92375 22.7237 4.97077C22.8745 5.01778 23.0065 5.11118 23.1011 5.23763C23.1956 5.36409 23.2479 5.51716 23.2503 5.67504C23.2528 5.83292 23.2054 5.98756 23.1148 6.1169Z" fill="#1D1F21" style="fill: var(--ui-icon-primary-color);"/>
</svg>
