<svg  viewBox="0 0 24 24" fill="none" xmlns="http://www.w3.org/2000/svg" id="__THIS_ID_NEEDS_FOR_UI_ICON_COMPONENT__">
<path d="M19.5 3H4.5C4.10231 3.00045 3.72105 3.15864 3.43984 3.43984C3.15864 3.72105 3.00045 4.10231 3 4.5V18C3.00045 18.3977 3.15864 18.779 3.43984 19.0602C3.72105 19.3414 4.10231 19.4995 4.5 19.5H6V22.5C5.99999 22.6425 6.04061 22.7821 6.1171 22.9024C6.19358 23.0227 6.30277 23.1187 6.43186 23.1792C6.56095 23.2397 6.7046 23.2621 6.84598 23.2438C6.98735 23.2256 7.1206 23.1674 7.2301 23.0761L11.5215 19.5H15.4785C15.8293 19.4998 16.1691 19.3767 16.4387 19.1523L20.4602 15.8011C20.6294 15.6605 20.7655 15.4843 20.8588 15.2851C20.952 15.086 21.0003 14.8687 21 14.6487V4.5C20.9995 4.10231 20.8414 3.72105 20.5602 3.43984C20.279 3.15864 19.8977 3.00045 19.5 3ZM12 12.75C12 12.9489 11.921 13.1397 11.7803 13.2803C11.6397 13.421 11.4489 13.5 11.25 13.5C11.0511 13.5 10.8603 13.421 10.7197 13.2803C10.579 13.1397 10.5 12.9489 10.5 12.75V8.25C10.5 8.05109 10.579 7.86032 10.7197 7.71967C10.8603 7.57902 11.0511 7.5 11.25 7.5C11.4489 7.5 11.6397 7.57902 11.7803 7.71967C11.921 7.86032 12 8.05109 12 8.25V12.75ZM16.5 12.75C16.5 12.9489 16.421 13.1397 16.2803 13.2803C16.1397 13.421 15.9489 13.5 15.75 13.5C15.5511 13.5 15.3603 13.421 15.2197 13.2803C15.079 13.1397 15 12.9489 15 12.75V8.25C15 8.05109 15.079 7.86032 15.2197 7.71967C15.3603 7.57902 15.5511 7.5 15.75 7.5C15.9489 7.5 16.1397 7.57902 16.2803 7.71967C16.421 7.86032 16.5 8.05109 16.5 8.25V12.75Z" fill="#1D1F21" style="fill: var(--ui-icon-primary-color);"/>
</svg>
