<svg  viewBox="0 0 24 24" fill="none" xmlns="http://www.w3.org/2000/svg" id="__THIS_ID_NEEDS_FOR_UI_ICON_COMPONENT__">
<path d="M21.195 8.75006C21.8314 10.5548 21.9227 12.507 21.4575 14.3633C20.9923 16.2196 19.9912 17.8979 18.5789 19.1893C18.542 19.2307 18.5006 19.2678 18.4555 19.3C16.6756 20.8784 14.3791 21.7499 12.0002 21.75C9.62134 21.75 7.32486 20.8786 5.5449 19.3003C5.49941 19.2679 5.4577 19.2305 5.42056 19.1888C3.97005 17.863 2.95423 16.1297 2.50642 14.2162C2.0586 12.3028 2.19971 10.2987 2.91122 8.46691C3.62273 6.63511 4.87141 5.06121 6.49339 3.95175C8.11537 2.84228 10.0349 2.24908 12 2.25C12.5146 2.24998 13.0284 2.29028 13.5367 2.37053C13.7331 2.40174 13.9091 2.50966 14.0259 2.67057C14.1427 2.83148 14.1909 3.0322 14.1598 3.2286C14.1286 3.425 14.0208 3.60101 13.8599 3.71791C13.6991 3.83482 13.4984 3.88307 13.302 3.85204C12.8713 3.78408 12.436 3.74996 12 3.75C10.4098 3.74909 8.85318 4.20807 7.51783 5.07162C6.18248 5.93518 5.12535 7.16646 4.47381 8.61711C3.82227 10.0678 3.60412 11.6759 3.84566 13.2477C4.0872 14.8195 4.77812 16.2879 5.83516 17.476C6.43724 16.6037 7.21799 15.8695 8.12558 15.3221C9.16922 16.3188 10.5569 16.875 12 16.875C13.4431 16.875 14.8308 16.3188 15.8744 15.3221C16.782 15.8695 17.5628 16.6037 18.1648 17.476C19.1445 16.3742 19.8111 15.0301 20.0953 13.5834C20.3794 12.1368 20.2708 10.6404 19.7807 9.24994C19.7145 9.0624 19.7254 8.8562 19.8111 8.67672C19.8969 8.49723 20.0504 8.35916 20.2379 8.29287C20.4255 8.22658 20.6317 8.23751 20.8112 8.32325C20.9906 8.40899 21.1287 8.56252 21.195 8.75006ZM16.5 6H21C21.1989 6 21.3897 5.92098 21.5303 5.78033C21.671 5.63968 21.75 5.44891 21.75 5.25C21.75 5.05109 21.671 4.86032 21.5303 4.71967C21.3897 4.57902 21.1989 4.5 21 4.5H16.5C16.3011 4.5 16.1103 4.57902 15.9697 4.71967C15.829 4.86032 15.75 5.05109 15.75 5.25C15.75 5.44891 15.829 5.63968 15.9697 5.78033C16.1103 5.92098 16.3011 6 16.5 6ZM7.875 11.25C7.875 12.0658 8.11693 12.8634 8.57019 13.5417C9.02345 14.2201 9.66769 14.7488 10.4214 15.061C11.1752 15.3732 12.0046 15.4549 12.8047 15.2957C13.6049 15.1366 14.3399 14.7437 14.9168 14.1668C15.4937 13.5899 15.8866 12.8549 16.0457 12.0547C16.2049 11.2546 16.1232 10.4252 15.811 9.67143C15.4988 8.91769 14.9701 8.27345 14.2917 7.82019C13.6134 7.36693 12.8158 7.125 12 7.125C11.4583 7.125 10.9219 7.23169 10.4214 7.43899C9.92096 7.64629 9.46622 7.95014 9.08318 8.33318C8.70014 8.71622 8.39629 9.17096 8.18899 9.67143C7.98169 10.1719 7.875 10.7083 7.875 11.25Z" fill="#1D1F21" style="fill: var(--ui-icon-primary-color);"/>
</svg>
