<svg  viewBox="0 0 24 24" fill="none" xmlns="http://www.w3.org/2000/svg" id="__THIS_ID_NEEDS_FOR_UI_ICON_COMPONENT__">
<path d="M15.7501 5.25C15.7501 5.15151 15.7695 5.05398 15.8072 4.96298C15.8448 4.87199 15.9001 4.78931 15.9697 4.71966C16.0394 4.65002 16.1221 4.59477 16.2131 4.55708C16.304 4.51939 16.4016 4.5 16.5001 4.5H18.0001V3C18.0001 2.80109 18.0791 2.61032 18.2197 2.46967C18.3604 2.32902 18.5512 2.25 18.7501 2.25C18.949 2.25 19.1397 2.32902 19.2804 2.46967C19.4211 2.61032 19.5001 2.80109 19.5001 3V4.5H21.0001C21.199 4.5 21.3897 4.57902 21.5304 4.71967C21.6711 4.86032 21.7501 5.05109 21.7501 5.25C21.7501 5.44891 21.6711 5.63968 21.5304 5.78033C21.3897 5.92098 21.199 6 21.0001 6H19.5001V7.5C19.5001 7.69891 19.4211 7.88968 19.2804 8.03033C19.1397 8.17098 18.949 8.25 18.7501 8.25C18.5512 8.25 18.3604 8.17098 18.2197 8.03033C18.0791 7.88968 18.0001 7.69891 18.0001 7.5V6H16.5001C16.4016 6 16.304 5.98061 16.2131 5.94292C16.1221 5.90523 16.0394 5.84998 15.9697 5.78034C15.9001 5.71069 15.8448 5.62801 15.8072 5.53702C15.7695 5.44602 15.7501 5.34849 15.7501 5.25ZM21.7441 19.8737C20.3447 17.4634 18.1035 15.6555 15.4516 14.7979C16.3469 14.2642 17.1066 13.5309 17.6715 12.655C18.2364 11.7792 18.5911 10.7846 18.708 9.74893C18.1189 9.73735 17.5579 9.49541 17.1451 9.075C16.7324 8.65458 16.5008 8.08916 16.5001 7.5C15.9922 7.5001 15.4993 7.32837 15.1015 7.01274C14.7036 6.69712 14.4243 6.25617 14.3089 5.76162C14.1935 5.26707 14.2489 4.74803 14.4659 4.28893C14.683 3.82982 15.049 3.45767 15.5044 3.23301C14.7449 2.77107 13.9016 2.46375 13.023 2.3287C12.1444 2.19366 11.2477 2.23355 10.3846 2.44609C9.52139 2.65863 8.70872 3.03962 7.99325 3.56718C7.27777 4.09475 6.67359 4.75848 6.21541 5.52025C5.75723 6.28203 5.45408 7.12682 5.32337 8.00611C5.19267 8.8854 5.237 9.78184 5.4538 10.6439C5.6706 11.5061 6.05561 12.3168 6.5867 13.0297C7.11779 13.7425 7.7845 14.3434 8.54853 14.7979C5.89672 15.6555 3.65561 17.4633 2.25616 19.8735C2.19019 19.9875 2.15541 20.1169 2.15532 20.2486C2.15523 20.3803 2.18982 20.5097 2.25562 20.6238C2.32142 20.7379 2.41611 20.8327 2.53016 20.8986C2.64421 20.9644 2.7736 20.9991 2.90531 20.9991L21.095 20.9993C21.2267 20.9993 21.3561 20.9646 21.4701 20.8988C21.5842 20.8329 21.6789 20.7381 21.7447 20.624C21.8105 20.5099 21.8451 20.3805 21.845 20.2488C21.8449 20.1171 21.8101 19.9877 21.7441 19.8737L21.7441 19.8737Z" fill="#1D1F21" style="fill: var(--ui-icon-primary-color);"/>
</svg>
