<svg  viewBox="0 0 24 24" fill="none" xmlns="http://www.w3.org/2000/svg" id="__THIS_ID_NEEDS_FOR_UI_ICON_COMPONENT__">
<path d="M15.75 5.25011C15.75 5.15161 15.7694 5.05409 15.807 4.96309C15.8447 4.8721 15.9 4.78942 15.9696 4.71977C16.0393 4.65013 16.122 4.59488 16.2129 4.55719C16.3039 4.5195 16.4015 4.5001 16.5 4.50011H21C21.1989 4.50011 21.3896 4.57912 21.5303 4.71978C21.6709 4.86043 21.75 5.05119 21.75 5.25011C21.75 5.44902 21.6709 5.63978 21.5303 5.78044C21.3896 5.92109 21.1989 6.00011 21 6.00011H16.5C16.4015 6.00011 16.3039 5.98071 16.2129 5.94302C16.122 5.90533 16.0393 5.85009 15.9696 5.78044C15.9 5.7108 15.8447 5.62812 15.807 5.53712C15.7694 5.44613 15.75 5.3486 15.75 5.25011ZM21.744 19.8738C20.3446 17.4635 18.1034 15.6557 15.4515 14.798C16.6786 14.0696 17.6428 12.9704 18.205 11.6589C18.7672 10.3473 18.8985 8.89107 18.5799 7.50011H16.5C15.9921 7.50021 15.4992 7.32848 15.1014 7.01285C14.7035 6.69722 14.4242 6.25627 14.3088 5.76173C14.1934 5.26718 14.2487 4.74814 14.4658 4.28904C14.6829 3.82993 15.0489 3.45778 15.5043 3.23311C14.7448 2.77117 13.9015 2.46385 13.0229 2.32881C12.1443 2.19376 11.2476 2.23366 10.3844 2.44619C9.52128 2.65873 8.70862 3.03973 7.99314 3.56729C7.27767 4.09485 6.67348 4.75859 6.2153 5.52036C5.75712 6.28213 5.45397 7.12693 5.32327 8.00622C5.19257 8.8855 5.23689 9.78195 5.45369 10.6441C5.67049 11.5062 6.0555 12.3169 6.58659 13.0298C7.11768 13.7427 7.7844 14.3435 8.54842 14.798C5.89662 15.6556 3.65551 17.4634 2.25605 19.8736C2.19009 19.9876 2.15531 20.117 2.15521 20.2487C2.15512 20.3804 2.18971 20.5098 2.25551 20.6239C2.32132 20.738 2.416 20.8328 2.53005 20.8987C2.6441 20.9646 2.77349 20.9992 2.9052 20.9992L21.0949 20.9994C21.2266 20.9994 21.356 20.9648 21.47 20.8989C21.5841 20.833 21.6788 20.7382 21.7446 20.6241C21.8104 20.51 21.845 20.3806 21.8449 20.2489C21.8448 20.1172 21.81 19.9878 21.744 19.8738L21.744 19.8738Z" fill="#1D1F21" style="fill: var(--ui-icon-primary-color);"/>
</svg>
