<svg  viewBox="0 0 24 24" fill="none" xmlns="http://www.w3.org/2000/svg" id="__THIS_ID_NEEDS_FOR_UI_ICON_COMPONENT__">
<path d="M12 7.125C12.8158 7.125 13.6134 7.36693 14.2917 7.82019C14.9701 8.27345 15.4988 8.91769 15.811 9.67143C16.1232 10.4252 16.2049 11.2546 16.0457 12.0548C15.8866 12.8549 15.4937 13.5899 14.9168 14.1668C14.3399 14.7437 13.6049 15.1366 12.8047 15.2957C12.0046 15.4549 11.1752 15.3732 10.4214 15.061C9.66768 14.7488 9.02344 14.2201 8.57018 13.5417C8.11692 12.8634 7.87499 12.0659 7.87499 11.25C7.87499 10.7083 7.98169 10.1719 8.18899 9.67143C8.39629 9.17096 8.70013 8.71623 9.08317 8.33318C9.46622 7.95014 9.92095 7.6463 10.4214 7.439C10.9219 7.2317 11.4583 7.125 12 7.125ZM16.5 6H18V7.5C18 7.69892 18.079 7.88968 18.2197 8.03033C18.3603 8.17099 18.5511 8.25 18.75 8.25C18.9489 8.25 19.1397 8.17099 19.2803 8.03033C19.421 7.88968 19.5 7.69892 19.5 7.5V6H21C21.1989 6 21.3897 5.92099 21.5303 5.78033C21.671 5.63968 21.75 5.44892 21.75 5.25C21.75 5.05109 21.671 4.86033 21.5303 4.71967C21.3897 4.57902 21.1989 4.5 21 4.5H19.5V3C19.5 2.80109 19.421 2.61033 19.2803 2.46967C19.1397 2.32902 18.9489 2.25 18.75 2.25C18.5511 2.25 18.3603 2.32902 18.2197 2.46967C18.079 2.61033 18 2.80109 18 3V4.5H16.5C16.3011 4.5 16.1103 4.57902 15.9697 4.71967C15.829 4.86033 15.75 5.05109 15.75 5.25C15.75 5.44892 15.829 5.63968 15.9697 5.78033C16.1103 5.92099 16.3011 6 16.5 6ZM20.7712 9.83963C20.5748 9.87078 20.3988 9.97869 20.2819 10.1396C20.165 10.3006 20.1168 10.5013 20.1479 10.6978C20.2159 11.1285 20.25 11.5639 20.25 12C20.2516 14.0196 19.5093 15.969 18.1648 17.476C17.5627 16.6037 16.782 15.8695 15.8744 15.3221C14.8308 16.3188 13.4431 16.875 12 16.875C10.5568 16.875 9.16922 16.3188 8.12558 15.3221C7.21799 15.8695 6.43723 16.6037 5.83515 17.476C4.77811 16.2879 4.0872 14.8195 3.84566 13.2477C3.60412 11.6759 3.82226 10.0678 4.4738 8.61712C5.12534 7.16647 6.18247 5.93518 7.51782 5.07163C8.85317 4.20807 10.4097 3.7491 12 3.75C12.4361 3.74996 12.8715 3.78409 13.3022 3.85209C13.3995 3.86751 13.4989 3.86362 13.5947 3.84064C13.6904 3.81766 13.7808 3.77604 13.8605 3.71816C13.9401 3.66027 14.0077 3.58725 14.0591 3.50327C14.1106 3.41929 14.145 3.326 14.1604 3.22872C14.1759 3.13143 14.172 3.03206 14.149 2.93629C14.126 2.84051 14.0843 2.7502 14.0265 2.67051C13.9686 2.59083 13.8955 2.52332 13.8116 2.47186C13.7276 2.4204 13.6343 2.38598 13.537 2.37058C12.1443 2.14959 10.7203 2.23306 9.363 2.61525C8.00569 2.99744 6.74734 3.66927 5.67461 4.58447C4.60187 5.49966 3.74024 6.63649 3.14903 7.91666C2.55783 9.19682 2.25111 10.5899 2.24999 12C2.24945 13.3529 2.53115 14.691 3.07708 15.9288C3.62302 17.1666 4.42118 18.277 5.42056 19.1888C5.45769 19.2305 5.4994 19.2679 5.5449 19.3003C7.32485 20.8786 9.62133 21.7501 12.0002 21.75C14.3791 21.75 16.6756 20.8784 18.4554 19.3001C18.5006 19.2679 18.542 19.2307 18.5789 19.1893C19.5784 18.2774 20.3767 17.1671 20.9228 15.9291C21.4688 14.6912 21.7505 13.353 21.75 12C21.75 11.4853 21.7097 10.9714 21.6294 10.463C21.614 10.3657 21.5796 10.2724 21.5282 10.1884C21.4767 10.1044 21.4092 10.0314 21.3295 9.97351C21.2498 9.91562 21.1595 9.874 21.0637 9.85102C20.9679 9.82805 20.8685 9.82418 20.7712 9.83963Z" fill="#1D1F21" style="fill: var(--ui-icon-primary-color);"/>
</svg>
