<svg  viewBox="0 0 24 24" fill="none" xmlns="http://www.w3.org/2000/svg" id="__THIS_ID_NEEDS_FOR_UI_ICON_COMPONENT__">
<path d="M15.8271 6.9375C15.8764 7.02283 15.9419 7.09763 16.02 7.15761C16.0982 7.2176 16.1874 7.2616 16.2825 7.28709C16.3777 7.31259 16.4769 7.31908 16.5746 7.3062C16.6722 7.29332 16.7664 7.26132 16.8517 7.21202L17.2893 6.95935C17.4989 7.139 17.7398 7.27854 18 7.37099V7.875C18 8.07391 18.079 8.26468 18.2196 8.40533C18.3603 8.54598 18.5511 8.625 18.75 8.625C18.9489 8.625 19.1396 8.54598 19.2803 8.40533C19.4209 8.26468 19.5 8.07391 19.5 7.875V7.37099C19.7601 7.27854 20.001 7.139 20.2106 6.95935L20.6483 7.21202C20.8205 7.31148 21.0252 7.33843 21.2174 7.28695C21.4095 7.23546 21.5733 7.10976 21.6728 6.9375C21.7722 6.76524 21.7992 6.56052 21.7477 6.36838C21.6962 6.17625 21.5705 6.01244 21.3983 5.91298L20.9617 5.66092C21.0127 5.38935 21.0127 5.11065 20.9617 4.83908L21.3983 4.58702C21.4836 4.53777 21.5583 4.47221 21.6183 4.39407C21.6782 4.31593 21.7222 4.22675 21.7477 4.13162C21.7732 4.03648 21.7797 3.93725 21.7668 3.83961C21.754 3.74196 21.722 3.6478 21.6728 3.5625C21.6235 3.4772 21.558 3.40244 21.4798 3.34248C21.4017 3.28253 21.3125 3.23855 21.2174 3.21305C21.1222 3.18756 21.023 3.18106 20.9254 3.19391C20.8277 3.20677 20.7336 3.23873 20.6483 3.28798L20.2106 3.54066C20.001 3.361 19.7601 3.22146 19.5 3.12901V2.625C19.5 2.42609 19.4209 2.23532 19.2803 2.09467C19.1396 1.95402 18.9489 1.875 18.75 1.875C18.5511 1.875 18.3603 1.95402 18.2196 2.09467C18.079 2.23532 18 2.42609 18 2.625V3.12901C17.7398 3.22146 17.4989 3.361 17.2893 3.54065L16.8517 3.28798C16.6794 3.18852 16.4747 3.16157 16.2825 3.21305C16.0904 3.26454 15.9266 3.39024 15.8271 3.5625C15.7277 3.73476 15.7007 3.93948 15.7522 4.13162C15.8037 4.32375 15.9294 4.48756 16.1017 4.58702L16.5382 4.83908C16.4872 5.11065 16.4872 5.38935 16.5382 5.66092L16.1017 5.91298C15.9294 6.01244 15.8037 6.17625 15.7522 6.36839C15.7007 6.56052 15.7277 6.76523 15.8271 6.9375ZM18.75 4.5C18.8983 4.5 19.0433 4.54399 19.1666 4.6264C19.29 4.70881 19.3861 4.82594 19.4429 4.96299C19.4996 5.10003 19.5145 5.25083 19.4856 5.39632C19.4566 5.5418 19.3852 5.67544 19.2803 5.78033C19.1754 5.88522 19.0418 5.95665 18.8963 5.98559C18.7508 6.01453 18.6 5.99968 18.463 5.94291C18.3259 5.88614 18.2088 5.79001 18.1264 5.66668C18.044 5.54334 18 5.39834 18 5.25C18.0002 5.05116 18.0793 4.86052 18.2199 4.71992C18.3605 4.57932 18.5511 4.50023 18.75 4.5ZM21.7446 20.624C21.6787 20.7381 21.5841 20.8329 21.47 20.8987C21.356 20.9646 21.2266 20.9993 21.0949 20.9993L2.9052 20.9991C2.77349 20.9991 2.6441 20.9644 2.53005 20.8986C2.416 20.8327 2.32132 20.7379 2.25551 20.6238C2.18971 20.5097 2.15512 20.3803 2.15521 20.2486C2.15531 20.1169 2.19009 19.9875 2.25605 19.8735C3.65551 17.4633 5.89662 15.6555 8.54842 14.7978C7.08362 13.9268 6.00263 12.5339 5.52258 10.8987C5.04253 9.26347 5.19898 7.5072 5.9605 5.9826C6.72202 4.45801 8.03221 3.27802 9.6279 2.67964C11.2236 2.08126 12.9866 2.10882 14.5628 2.75677C14.5513 2.77537 14.5391 2.79339 14.5282 2.81239C14.3122 3.18736 14.2086 3.61654 14.2298 4.04875C14.251 4.48095 14.396 4.89795 14.6477 5.24999C14.4065 5.58644 14.2628 5.98285 14.2323 6.39565C14.2019 6.80846 14.2858 7.22168 14.4749 7.58989C14.664 7.9581 14.951 8.26704 15.3042 8.48276C15.6575 8.69848 16.0634 8.81262 16.4774 8.81264C16.5517 8.81264 16.6259 8.80894 16.6997 8.80155C16.8719 9.18103 17.146 9.50532 17.4914 9.73835C17.8369 9.97139 18.2403 10.104 18.6566 10.1215C18.4924 11.0864 18.1207 12.0042 17.5674 12.8115C17.0141 13.6189 16.2922 14.2966 15.4515 14.7979C18.1034 15.6555 20.3446 17.4634 21.744 19.8737C21.81 19.9877 21.8447 20.1171 21.8448 20.2488C21.8449 20.3805 21.8104 20.5099 21.7446 20.624Z" fill="#1D1F21" style="fill: var(--ui-icon-primary-color);"/>
</svg>
