<svg  viewBox="0 0 24 24" fill="none" xmlns="http://www.w3.org/2000/svg" id="__THIS_ID_NEEDS_FOR_UI_ICON_COMPONENT__">
<path d="M16.125 11.25C16.125 12.0658 15.8831 12.8634 15.4298 13.5417C14.9766 14.2201 14.3323 14.7488 13.5786 15.061C12.8248 15.3732 11.9954 15.4549 11.1953 15.2957C10.3951 15.1366 9.66008 14.7437 9.08318 14.1668C8.50629 13.5899 8.11343 12.8549 7.95426 12.0547C7.7951 11.2546 7.87679 10.4252 8.189 9.67143C8.50121 8.91769 9.02992 8.27345 9.70827 7.82019C10.3866 7.36693 11.1842 7.125 12 7.125C13.094 7.125 14.1432 7.5596 14.9168 8.33318C15.6904 9.10677 16.125 10.156 16.125 11.25ZM21.75 5.25V18.75C21.7495 19.1477 21.5914 19.529 21.3102 19.8102C21.029 20.0914 20.6477 20.2495 20.25 20.25H3.75C3.35231 20.2495 2.97105 20.0914 2.68984 19.8102C2.40864 19.529 2.25045 19.1477 2.25 18.75V5.25C2.25045 4.85231 2.40864 4.47105 2.68984 4.18984C2.97105 3.90864 3.35231 3.75045 3.75 3.75H20.25C20.6477 3.75045 21.029 3.90864 21.3102 4.18984C21.5914 4.47105 21.7495 4.85231 21.75 5.25ZM20.251 18.75L20.25 5.25H3.75V18.75H5.12604C5.7489 17.3253 6.79901 16.1293 8.13116 15.3274C9.17425 16.3209 10.5595 16.875 12 16.875C13.4405 16.875 14.8258 16.3209 15.8688 15.3274C17.201 16.1293 18.2511 17.3253 18.874 18.75H20.25L20.251 18.75Z" fill="#1D1F21" style="fill: var(--ui-icon-primary-color);"/>
</svg>
