<svg  viewBox="0 0 24 24" fill="none" xmlns="http://www.w3.org/2000/svg" id="__THIS_ID_NEEDS_FOR_UI_ICON_COMPONENT__">
<path d="M17.25 5.25V18.75C17.2493 19.3465 17.012 19.9184 16.5902 20.3402C16.1684 20.762 15.5965 20.9993 15 21H8.99995C8.40343 20.9993 7.83153 20.762 7.40972 20.3402C6.98791 19.9184 6.75064 19.3465 6.74995 18.75V5.25C6.75064 4.65347 6.98791 4.08157 7.40972 3.65976C7.83153 3.23795 8.40343 3.00068 8.99995 3H15C15.5965 3.00068 16.1684 3.23795 16.5902 3.65976C17.012 4.08157 17.2493 4.65347 17.25 5.25ZM19.5002 7.5C19.3013 7.50001 19.1106 7.57903 18.9699 7.71968C18.8293 7.86033 18.7502 8.05109 18.7502 8.25V15.75C18.7502 15.9489 18.8292 16.1397 18.9699 16.2803C19.1105 16.421 19.3013 16.5 19.5002 16.5C19.6991 16.5 19.8899 16.421 20.0306 16.2803C20.1712 16.1397 20.2502 15.9489 20.2502 15.75V8.25C20.2502 8.05109 20.1712 7.86033 20.0305 7.71968C19.8899 7.57903 19.6991 7.50001 19.5002 7.5ZM22.5002 9C22.3013 9.00001 22.1106 9.07903 21.9699 9.21968C21.8293 9.36033 21.7502 9.55109 21.7502 9.75V14.25C21.7502 14.4489 21.8292 14.6397 21.9699 14.7803C22.1105 14.921 22.3013 15 22.5002 15C22.6991 15 22.8899 14.921 23.0306 14.7803C23.1712 14.6397 23.2502 14.4489 23.2502 14.25V9.75C23.2502 9.55109 23.1712 9.36033 23.0305 9.21968C22.8899 9.07903 22.6991 9.00001 22.5002 9ZM4.49995 7.5C4.30104 7.50001 4.11029 7.57903 3.96964 7.71968C3.82898 7.86033 3.74996 8.05109 3.74995 8.25V15.75C3.74995 15.9489 3.82897 16.1397 3.96962 16.2803C4.11028 16.421 4.30104 16.5 4.49995 16.5C4.69887 16.5 4.88963 16.421 5.03028 16.2803C5.17094 16.1397 5.24995 15.9489 5.24995 15.75V8.25C5.24994 8.05109 5.17092 7.86033 5.03027 7.71968C4.88962 7.57903 4.69886 7.50001 4.49995 7.5ZM1.49995 9C1.30104 9.00001 1.11029 9.07903 0.969635 9.21968C0.828985 9.36033 0.749964 9.55109 0.749954 9.75V14.25C0.749954 14.4489 0.828972 14.6397 0.969624 14.7803C1.11028 14.921 1.30104 15 1.49995 15C1.69887 15 1.88963 14.921 2.03028 14.7803C2.17094 14.6397 2.24995 14.4489 2.24995 14.25V9.75C2.24994 9.55109 2.17092 9.36033 2.03027 9.21968C1.88962 9.07903 1.69886 9.00001 1.49995 9Z" fill="#1D1F21" style="fill: var(--ui-icon-primary-color);"/>
</svg>
