<svg  viewBox="0 0 24 24" fill="none" xmlns="http://www.w3.org/2000/svg" id="__THIS_ID_NEEDS_FOR_UI_ICON_COMPONENT__">
<g clip-path="url(#clip0)">
<path d="M18.75 6.75C17.7068 6.74932 16.687 7.05967 15.821 7.64139C14.955 8.22312 14.2821 9.04981 13.8883 10.0159C13.4944 10.9819 13.3975 12.0434 13.6099 13.0648C13.8223 14.0862 14.3344 15.0211 15.0808 15.75H8.91926C9.78773 14.8986 10.3334 13.7719 10.4631 12.5627C10.5927 11.3534 10.2981 10.1367 9.62984 9.12059C8.96155 8.10448 7.96099 7.35211 6.7993 6.99215C5.63761 6.63218 4.38694 6.687 3.26119 7.14721C2.13544 7.60741 1.20454 8.44443 0.627699 9.51511C0.0508551 10.5858 -0.136099 11.8236 0.098809 13.0169C0.333717 14.2102 0.975894 15.2848 1.91552 16.0569C2.85514 16.8291 4.03383 17.2508 5.25001 17.25H18.75C20.1424 17.25 21.4778 16.6969 22.4623 15.7123C23.4469 14.7277 24 13.3924 24 12C24 10.6076 23.4469 9.27226 22.4623 8.28769C21.4778 7.30312 20.1424 6.75 18.75 6.75ZM1.50001 12C1.50001 11.2583 1.71995 10.5333 2.132 9.91661C2.54406 9.29993 3.12973 8.81928 3.81495 8.53545C4.50017 8.25162 5.25417 8.17736 5.9816 8.32206C6.70903 8.46675 7.37722 8.8239 7.90166 9.34835C8.42611 9.8728 8.78326 10.541 8.92796 11.2684C9.07265 11.9958 8.99839 12.7498 8.71456 13.4351C8.43073 14.1203 7.95009 14.706 7.3334 15.118C6.71672 15.5301 5.99169 15.75 5.25001 15.75C4.2558 15.7489 3.30263 15.3534 2.59962 14.6504C1.8966 13.9474 1.50115 12.9942 1.50001 12ZM18.75 15.75C18.0083 15.75 17.2833 15.5301 16.6666 15.118C16.0499 14.706 15.5693 14.1203 15.2855 13.4351C15.0016 12.7498 14.9274 11.9958 15.0721 11.2684C15.2168 10.541 15.5739 9.8728 16.0984 9.34835C16.6228 8.8239 17.291 8.46675 18.0184 8.32206C18.7459 8.17736 19.4999 8.25162 20.1851 8.53545C20.8703 8.81928 21.456 9.29993 21.868 9.91661C22.2801 10.5333 22.5 11.2583 22.5 12C22.4989 12.9942 22.1034 13.9474 21.4004 14.6504C20.6974 15.3534 19.7442 15.7489 18.75 15.75Z" fill="#1D1F21" style="fill: var(--ui-icon-primary-color);"/>
</g>
<defs>
<clipPath id="clip0">
<rect  fill="white" style="fill: var(--ui-icon-secondary-color);"/>
</clipPath>
</defs>
</svg>
