<svg  viewBox="0 0 24 24" fill="none" xmlns="http://www.w3.org/2000/svg" id="__THIS_ID_NEEDS_FOR_UI_ICON_COMPONENT__">
<path fill-rule="evenodd" clip-rule="evenodd" d="M20.75 7.78639V11.0005H19.5V8.42922H3.875C3.665 8.42922 3.455 8.38165 3.25 8.30579V18.0715C3.25 18.4264 3.53 18.7144 3.875 18.7144H19.5V16.1431H20.75V19.3572C20.75 19.712 20.47 20 20.125 20H3.875C2.84125 20 2 19.1348 2 18.0715V6.50075C2 5.43753 2.84125 4.57229 3.875 4.57229H7.4775L12.345 2.06914C12.6538 1.90972 13.0287 2.03829 13.1837 2.35584L13.405 2.80967L14.845 2.06786C15.1538 1.90972 15.5287 2.037 15.6837 2.35584L16.7612 4.57229H18.875C19.22 4.57229 19.5 4.86027 19.5 5.21511V7.14357H20.125C20.47 7.14357 20.75 7.43156 20.75 7.78639ZM18.0112 7.14357H18.25V5.85793H17.3862L18.0112 7.14357ZM16.6138 7.14357L14.845 3.50649L13.9637 3.95904L15.5112 7.14357H16.6138ZM14.1138 7.14357L12.345 3.50649L5.2725 7.14357H14.1138ZM4.9775 5.85793H3.875C3.53 5.85793 3.25 6.14591 3.25 6.50075C3.25 6.57789 3.275 6.64989 3.3 6.7206L4.9775 5.85793Z" fill="#1D1F21" style="fill: var(--ui-icon-primary-color);"/>
<path d="M3.875 18.7144H19.5V16.1431H17C15.6213 16.1431 14.5 14.9899 14.5 13.5718C14.5 12.1537 15.6213 11.0005 17 11.0005H19.5V8.42922H3.875C3.665 8.42922 3.455 8.38165 3.25 8.30579V18.0715C3.25 18.4264 3.53 18.7144 3.875 18.7144Z" fill="#1D1F21" style="fill: var(--ui-icon-primary-color);"/>
<path d="M20.75 14.8574H17C16.3112 14.8574 15.75 14.2802 15.75 13.5718C15.75 12.8634 16.3112 12.2861 17 12.2861H20.75C21.095 12.2861 21.375 12.5741 21.375 12.929V14.2146C21.375 14.5694 21.095 14.8574 20.75 14.8574Z" fill="#1D1F21" style="fill: var(--ui-icon-primary-color);"/>
</svg>
