<svg  viewBox="0 0 24 24" fill="none" xmlns="http://www.w3.org/2000/svg" id="__THIS_ID_NEEDS_FOR_UI_ICON_COMPONENT__">
<path d="M22.1947 17.6211L13.9477 3.37109C13.7498 3.02982 13.4658 2.74654 13.124 2.54961C12.7822 2.35268 12.3946 2.24902 12.0001 2.24902C11.6057 2.24902 11.2181 2.35268 10.8763 2.54961C10.5345 2.74654 10.2505 3.02982 10.0526 3.37109V3.37182L1.80557 17.6211C1.60756 17.963 1.50311 18.3511 1.50273 18.7463C1.50235 19.1414 1.60605 19.5297 1.80339 19.8721C2.00073 20.2144 2.28476 20.4987 2.62689 20.6964C2.96903 20.8941 3.3572 20.9982 3.75235 20.9983H20.248C20.6431 20.9982 21.0313 20.8941 21.3734 20.6964C21.7155 20.4987 21.9996 20.2144 22.1969 19.8721C22.3942 19.5297 22.4979 19.1414 22.4976 18.7463C22.4972 18.3511 22.3927 17.963 22.1947 17.6211ZM11.2494 8.99902C11.2494 8.80011 11.3284 8.60934 11.4691 8.46869C11.6097 8.32804 11.8005 8.24902 11.9994 8.24902C12.1983 8.24902 12.3891 8.32804 12.5297 8.46869C12.6704 8.60934 12.7494 8.80011 12.7494 8.99902V13.499C12.7494 13.6979 12.6704 13.8887 12.5297 14.0294C12.3891 14.17 12.1983 14.249 11.9994 14.249C11.8005 14.249 11.6097 14.17 11.4691 14.0294C11.3284 13.8887 11.2494 13.6979 11.2494 13.499V8.99902ZM12 17.9993C11.7775 17.9993 11.56 17.9333 11.3749 17.8097C11.1899 17.6861 11.0457 17.5104 10.9606 17.3048C10.8755 17.0992 10.8532 16.873 10.8966 16.6548C10.94 16.4366 11.0471 16.2361 11.2045 16.0788C11.3618 15.9215 11.5623 15.8143 11.7805 15.7709C11.9987 15.7275 12.2249 15.7498 12.4305 15.8349C12.636 15.9201 12.8118 16.0643 12.9354 16.2493C13.059 16.4343 13.125 16.6518 13.125 16.8743C13.125 17.1727 13.0064 17.4588 12.7954 17.6698C12.5845 17.8807 12.2983 17.9993 12 17.9993Z" fill="#1D1F21" style="fill: var(--ui-icon-primary-color);"/>
</svg>
