<svg  viewBox="0 0 24 24" fill="none" xmlns="http://www.w3.org/2000/svg" id="__THIS_ID_NEEDS_FOR_UI_ICON_COMPONENT__">
<path d="M12 2.25C10.0716 2.25 8.18653 2.82183 6.58315 3.89317C4.97977 4.96451 3.73009 6.48726 2.99213 8.26884C2.25418 10.0504 2.0611 12.0108 2.4373 13.9021C2.81351 15.7934 3.74211 17.5307 5.10567 18.8943C6.46923 20.2579 8.20651 21.1865 10.0978 21.5627C11.9891 21.9389 13.9495 21.7458 15.7311 21.0078C17.5127 20.2699 19.0354 19.0202 20.1068 17.4168C21.1781 15.8134 21.75 13.9284 21.75 12C21.747 9.41503 20.7189 6.93678 18.891 5.10893C17.0632 3.28108 14.5849 2.25292 12 2.25ZM11.25 7.5C11.25 7.30109 11.329 7.11032 11.4696 6.96967C11.6103 6.82902 11.801 6.75 12 6.75C12.1989 6.75 12.3896 6.82902 12.5303 6.96967C12.6709 7.11032 12.75 7.30109 12.75 7.5V12.75C12.75 12.9489 12.6709 13.1397 12.5303 13.2803C12.3896 13.421 12.1989 13.5 12 13.5C11.801 13.5 11.6103 13.421 11.4696 13.2803C11.329 13.1397 11.25 12.9489 11.25 12.75V7.5ZM12 17.25C11.7775 17.25 11.5599 17.184 11.3749 17.0604C11.1899 16.9368 11.0457 16.7611 10.9606 16.5555C10.8754 16.35 10.8532 16.1238 10.8966 15.9055C10.94 15.6873 11.0471 15.4868 11.2045 15.3295C11.3618 15.1722 11.5623 15.065 11.7805 15.0216C11.9987 14.9782 12.2249 15.0005 12.4305 15.0856C12.636 15.1708 12.8117 15.315 12.9354 15.5C13.059 15.685 13.125 15.9025 13.125 16.125C13.125 16.4234 13.0064 16.7095 12.7955 16.9205C12.5845 17.1315 12.2983 17.25 12 17.25Z" fill="#1D1F21" style="fill: var(--ui-icon-primary-color);"/>
</svg>
