<svg  viewBox="0 0 24 24" fill="none" xmlns="http://www.w3.org/2000/svg" id="__THIS_ID_NEEDS_FOR_UI_ICON_COMPONENT__">
<path d="M16.4341 5.95604L15.8497 2.73239C15.7872 2.38654 15.6051 2.07365 15.3353 1.84839C15.0655 1.62313 14.7252 1.49982 14.3737 1.5H9.62627C9.27481 1.49982 8.93446 1.62313 8.66467 1.84839C8.39489 2.07365 8.21283 2.38654 8.1503 2.73239L7.56592 5.95604C6.61578 6.65157 5.84301 7.56132 5.31031 8.61144C4.77761 9.66157 4.5 10.8225 4.5 12C4.5 13.1775 4.77761 14.3384 5.31031 15.3886C5.84301 16.4387 6.61578 17.3484 7.56592 18.044L8.1503 21.2676C8.21283 21.6135 8.39489 21.9263 8.66467 22.1516C8.93446 22.3769 9.27481 22.5002 9.62627 22.5H14.3737C14.7252 22.5002 15.0655 22.3769 15.3353 22.1516C15.6051 21.9263 15.7872 21.6135 15.8497 21.2676L16.4341 18.044C17.3842 17.3484 18.157 16.4387 18.6897 15.3886C19.2224 14.3384 19.5 13.1775 19.5 12C19.5 10.8225 19.2224 9.66157 18.6897 8.61144C18.157 7.56132 17.3842 6.65157 16.4341 5.95604ZM9.62627 3H14.3738L14.7401 5.02061C12.9793 4.32646 11.0207 4.32646 9.25992 5.02061L9.62627 3ZM14.3737 21H9.62622L9.25992 18.9794C11.0207 19.6735 12.9793 19.6735 14.7401 18.9794L14.3737 21ZM15.75 12.75H12C11.8011 12.75 11.6103 12.671 11.4697 12.5303C11.329 12.3897 11.25 12.1989 11.25 12V8.25C11.25 8.05109 11.329 7.86032 11.4697 7.71967C11.6103 7.57902 11.8011 7.5 12 7.5C12.1989 7.5 12.3897 7.57902 12.5303 7.71967C12.671 7.86032 12.75 8.05109 12.75 8.25V11.25H15.75C15.9489 11.25 16.1397 11.329 16.2803 11.4697C16.421 11.6103 16.5 11.8011 16.5 12C16.5 12.1989 16.421 12.3897 16.2803 12.5303C16.1397 12.671 15.9489 12.75 15.75 12.75Z" fill="#1D1F21" style="fill: var(--ui-icon-primary-color);"/>
</svg>
