<svg  viewBox="0 0 24 24" fill="none" xmlns="http://www.w3.org/2000/svg" id="__THIS_ID_NEEDS_FOR_UI_ICON_COMPONENT__">
<path d="M22.7267 18.3364L20.4767 19.0864C20.3054 19.1436 20.1192 19.1371 19.9524 19.0679C19.7855 18.9988 19.6493 18.8718 19.5686 18.7103L16.7759 13.1249H8.98944C8.79053 13.1248 8.59977 13.0458 8.45912 12.9052C8.31846 12.7645 8.23945 12.5738 8.23944 12.3749V9.96935C7.31985 10.2436 6.49303 10.7647 5.84884 11.476C5.20465 12.1873 4.76774 13.0615 4.5856 14.0037C4.40346 14.9459 4.48305 15.9199 4.81573 16.8201C5.14841 17.7202 5.72144 18.5119 6.47255 19.1091C7.22367 19.7064 8.12411 20.0864 9.07604 20.2077C10.028 20.3291 10.9949 20.1872 11.8719 19.7975C12.7488 19.4078 13.5021 18.7851 14.05 17.9973C14.5979 17.2094 14.9193 16.2865 14.9794 15.3287C14.9916 15.1302 15.0822 14.9447 15.2312 14.8129C15.3803 14.6812 15.5755 14.6141 15.774 14.6263C15.9726 14.6386 16.1581 14.7292 16.2898 14.8782C16.4216 15.0272 16.4887 15.2225 16.4764 15.421C16.3985 16.6714 15.9741 17.8755 15.2508 18.8984C14.5275 19.9213 13.5337 20.7227 12.3808 21.213C11.2279 21.7032 9.96123 21.8629 8.72269 21.6742C7.48415 21.4855 6.32257 20.9558 5.36797 20.1444C4.41336 19.333 3.7034 18.272 3.31755 17.0801C2.9317 15.8881 2.88518 14.6123 3.18321 13.3955C3.48123 12.1786 4.11204 11.0687 5.00503 10.1899C5.89801 9.31122 7.01793 8.69834 8.23944 8.41993V5.87132C7.73903 5.6944 7.31728 5.34627 7.04872 4.88846C6.78016 4.43065 6.68209 3.89264 6.77184 3.36952C6.8616 2.8464 7.13339 2.37185 7.5392 2.02974C7.945 1.68763 8.45868 1.5 8.98944 1.5C9.52021 1.5 10.0339 1.68763 10.4397 2.02974C10.8455 2.37185 11.1173 2.8464 11.207 3.36952C11.2968 3.89264 11.1987 4.43065 10.9302 4.88846C10.6616 5.34627 10.2399 5.6944 9.73944 5.87132V8.24985H14.9894C15.1884 8.24985 15.3791 8.32887 15.5198 8.46952C15.6604 8.61017 15.7394 8.80094 15.7394 8.99985C15.7394 9.19876 15.6604 9.38953 15.5198 9.53018C15.3791 9.67083 15.1884 9.74985 14.9894 9.74985H9.73944V11.6249H17.2394C17.3787 11.6249 17.5153 11.6636 17.6337 11.7369C17.7522 11.8101 17.848 11.9149 17.9102 12.0394L20.6194 17.4576L22.2522 16.9134C22.3457 16.8822 22.4443 16.8698 22.5426 16.8767C22.6408 16.8837 22.7367 16.91 22.8248 16.954C22.9129 16.9981 22.9915 17.059 23.056 17.1334C23.1205 17.2078 23.1698 17.2942 23.2009 17.3876C23.2321 17.4811 23.2445 17.5797 23.2376 17.678C23.2306 17.7762 23.2043 17.8721 23.1603 17.9602C23.1162 18.0483 23.0553 18.1269 22.9809 18.1914C22.9065 18.256 22.8201 18.3052 22.7267 18.3364L22.7267 18.3364Z" fill="#1D1F21" style="fill: var(--ui-icon-primary-color);"/>
</svg>
