<svg  viewBox="0 0 24 24" fill="none" xmlns="http://www.w3.org/2000/svg" id="__THIS_ID_NEEDS_FOR_UI_ICON_COMPONENT__">
<path d="M22.5566 6.51953C16.3442 1.8291 7.66056 1.82764 1.44523 6.51807C1.28224 6.63932 1.14615 6.79304 1.04556 6.96952C0.94496 7.14601 0.882037 7.34143 0.860757 7.54346C0.838012 7.7493 0.857596 7.95762 0.918305 8.15562C0.979015 8.35362 1.07957 8.53711 1.21378 8.69482L10.8554 20.0598C10.9962 20.2265 11.1716 20.3605 11.3694 20.4526C11.5672 20.5446 11.7827 20.5926 12.0009 20.593H12.0024C12.2184 20.5932 12.432 20.5462 12.628 20.4554C12.8241 20.3646 12.998 20.2321 13.1376 20.0671V20.0664L22.7909 8.69043C22.9237 8.53292 23.0232 8.35015 23.0833 8.15315C23.1435 7.95614 23.1631 7.74899 23.141 7.54419C23.1192 7.34242 23.056 7.14731 22.9554 6.97103C22.8549 6.79474 22.7191 6.64105 22.5566 6.51953ZM2.34465 7.71777L2.34611 7.71631C2.34611 7.71704 2.34611 7.71704 2.34465 7.71777ZM19.1702 10.6394C18.6667 10.2641 18.1344 9.92919 17.5783 9.63764C17.5545 9.62491 17.5307 9.61237 17.5065 9.59991C16.9694 9.32158 16.4119 9.0843 15.839 8.89011C15.7919 8.87408 15.7445 8.86044 15.6971 8.84497C15.1328 8.65983 14.5555 8.51686 13.97 8.41724C13.9202 8.40881 13.87 8.40497 13.8199 8.39719C12.6152 8.1994 11.3863 8.19931 10.1816 8.39691C10.1312 8.40469 10.0805 8.40872 10.0301 8.41714C9.44535 8.51666 8.86876 8.65942 8.3051 8.84424C8.25749 8.85971 8.20989 8.87354 8.16264 8.88965C7.59044 9.0836 7.03368 9.32045 6.49712 9.59818C6.4724 9.61099 6.44804 9.6239 6.42351 9.6369C5.86802 9.9279 5.33634 10.2623 4.83342 10.6368L4.83323 10.6369L2.35344 7.71191C8.03703 3.42578 15.9721 3.42871 21.6469 7.7207L19.1702 10.6394Z" fill="#1D1F21" style="fill: var(--ui-icon-primary-color);"/>
</svg>
