<svg  viewBox="0 0 24 24" fill="none" xmlns="http://www.w3.org/2000/svg" id="__THIS_ID_NEEDS_FOR_UI_ICON_COMPONENT__">
<path d="M21.5292 9.21845C21.6698 9.3591 21.7489 9.54987 21.7489 9.74878C21.7489 9.9477 21.6699 10.1385 21.5292 10.2791C21.3886 10.4198 21.1978 10.4988 20.9989 10.4988C20.8 10.4988 20.6092 10.4198 20.4685 10.2792L18.7489 8.5595L17.0292 10.2792C16.8884 10.4195 16.6978 10.4982 16.4991 10.498C16.3003 10.4979 16.1098 10.4189 15.9693 10.2783C15.8288 10.1378 15.7498 9.94727 15.7496 9.74855C15.7495 9.54983 15.8282 9.35917 15.9685 9.21845L17.6882 7.49881L15.9685 5.77918C15.8987 5.70957 15.8433 5.62689 15.8055 5.53585C15.7676 5.44481 15.7481 5.3472 15.748 5.24861C15.748 5.15002 15.7673 5.05238 15.805 4.96128C15.8427 4.87018 15.898 4.78741 15.9677 4.71769C16.0374 4.64797 16.1202 4.59269 16.2113 4.55499C16.3024 4.51729 16.4 4.49792 16.4986 4.49799C16.5972 4.49806 16.6948 4.51757 16.7858 4.5554C16.8769 4.59323 16.9596 4.64864 17.0292 4.71845L18.7489 6.43813L20.4685 4.71845C20.5381 4.64864 20.6208 4.59323 20.7119 4.5554C20.8029 4.51757 20.9005 4.49806 20.9991 4.49799C21.0977 4.49792 21.1953 4.51729 21.2864 4.55499C21.3775 4.59269 21.4603 4.64797 21.53 4.71769C21.5997 4.78741 21.655 4.87018 21.6927 4.96128C21.7304 5.05238 21.7498 5.15002 21.7497 5.24861C21.7496 5.3472 21.7301 5.44481 21.6922 5.53585C21.6544 5.62689 21.599 5.70957 21.5292 5.77918L19.8095 7.49881L21.5292 9.21845ZM18.7489 10.6808L18.0897 11.34C17.8807 11.5489 17.6327 11.7146 17.3597 11.8277C17.0867 11.9408 16.7941 11.9989 16.4986 11.9989C16.2032 11.9989 15.9106 11.9407 15.6376 11.8276C15.3646 11.7145 15.1166 11.5487 14.9077 11.3398C14.4857 10.9178 14.2487 10.3455 14.2488 9.74875C14.2488 9.15201 14.4859 8.57972 14.9079 8.15779L15.5668 7.49882L14.9078 6.83976C14.6665 6.5978 14.4833 6.30411 14.3723 5.98093C14.2612 5.65774 14.2252 5.31352 14.2668 4.97433C14.3084 4.63514 14.4267 4.30987 14.6126 4.02314C14.7985 3.7364 15.0473 3.49573 15.34 3.31933C12.9285 2.85223 10.446 2.89566 8.05234 3.44681C5.65872 3.99796 3.40716 5.0446 1.44282 6.51925C1.28048 6.64091 1.14497 6.79476 1.04478 6.97116C0.944583 7.14757 0.881852 7.34275 0.860504 7.5445C0.838197 7.75018 0.857949 7.95825 0.918558 8.15606C0.979168 8.35387 1.07937 8.5373 1.21307 8.69518L10.8618 20.0673C11.0021 20.2333 11.1769 20.3667 11.374 20.4583C11.5711 20.5498 11.7858 20.5973 12.0031 20.5974C12.2181 20.5975 12.4306 20.5507 12.6256 20.4602C12.8207 20.3698 12.9937 20.2379 13.1325 20.0738L20.1307 11.8257C19.8604 11.7124 19.6148 11.5474 19.4079 11.3398L18.7489 10.6808Z" fill="#1D1F21" style="fill: var(--ui-icon-primary-color);"/>
</svg>
