<svg  viewBox="0 0 24 24" fill="none" xmlns="http://www.w3.org/2000/svg" id="__THIS_ID_NEEDS_FOR_UI_ICON_COMPONENT__">
<path d="M22.7927 8.68833L13.1326 20.0738C12.9937 20.2379 12.8207 20.3698 12.6257 20.4602C12.4306 20.5507 12.2182 20.5975 12.0032 20.5975C11.7858 20.5973 11.5711 20.5498 11.374 20.4583C11.1769 20.3667 11.0021 20.2333 10.8619 20.0673L1.21313 8.6952C1.07942 8.53732 0.979222 8.3539 0.918612 8.15608C0.858002 7.95827 0.838251 7.7502 0.860558 7.54452C0.881905 7.34277 0.944637 7.14759 1.04483 6.97118C1.14503 6.79478 1.28053 6.64093 1.44288 6.51927C7.66045 1.82719 16.3447 1.82824 22.5611 6.52224C22.7233 6.6437 22.8587 6.79729 22.9588 6.97343C23.059 7.14956 23.1217 7.34446 23.1432 7.54594C23.1652 7.75017 23.1455 7.95675 23.0853 8.15313C23.025 8.34951 22.9255 8.5316 22.7927 8.68833Z" fill="#1D1F21" style="fill: var(--ui-icon-primary-color);"/>
</svg>
