<svg  viewBox="0 0 24 24" fill="none" xmlns="http://www.w3.org/2000/svg" id="__THIS_ID_NEEDS_FOR_UI_ICON_COMPONENT__">
<path d="M23.1413 7.54633C23.1198 7.34421 23.0568 7.14871 22.9563 6.97205C22.8558 6.79538 22.7199 6.64134 22.5572 6.51956C16.3413 1.82877 7.65874 1.82877 1.44277 6.51956L1.44273 6.51961C1.28041 6.64129 1.14493 6.79514 1.04475 6.97155C0.94457 7.14795 0.881846 7.34312 0.860496 7.54486C0.838218 7.75053 0.857983 7.95859 0.918592 8.15639C0.9792 8.35419 1.07939 8.53761 1.21307 8.69549L10.8562 20.0609C10.9624 20.1862 11.0883 20.2934 11.2289 20.3783C11.4625 20.5193 11.7302 20.5938 12.003 20.5938H12.0031C12.3836 20.5939 12.7497 20.448 13.0259 20.1861C13.0654 20.1486 13.1029 20.109 13.1382 20.0675L22.7899 8.69193C22.9231 8.53476 23.0229 8.35216 23.0833 8.15523C23.1437 7.95829 23.1634 7.75113 23.1413 7.54633ZM21.6461 7.72147L17.2302 12.9261C15.7041 11.8358 13.8755 11.2497 12 11.2497C10.1244 11.2497 8.29581 11.8358 6.76975 12.9261L2.35688 7.72508C2.35383 7.72177 2.35188 7.7176 2.3513 7.71314C8.03489 3.42764 15.9715 3.42883 21.6504 7.7113C21.6505 7.71321 21.6501 7.7151 21.6494 7.71686C21.6487 7.71862 21.6475 7.72019 21.6461 7.72147Z" fill="#1D1F21" style="fill: var(--ui-icon-primary-color);"/>
</svg>
