<svg  viewBox="0 0 24 24" fill="none" xmlns="http://www.w3.org/2000/svg" id="__THIS_ID_NEEDS_FOR_UI_ICON_COMPONENT__">
<path d="M12 20.5975C11.7832 20.5972 11.5691 20.5497 11.3725 20.4583C11.176 20.3668 11.0017 20.2336 10.8619 20.0679L1.20938 8.6916C1.07675 8.53444 0.977457 8.35196 0.917533 8.15525C0.857609 7.95853 0.838303 7.75169 0.860789 7.54728C0.883104 7.34555 0.946203 7.15045 1.04625 6.97386C1.1463 6.79726 1.28121 6.64285 1.44279 6.52002C7.65876 1.82931 16.3413 1.82922 22.5573 6.52002C22.7188 6.64286 22.8537 6.79727 22.9538 6.97385C23.0538 7.15043 23.1169 7.34551 23.1392 7.54723C23.1617 7.75163 23.1424 7.95846 23.0825 8.15517C23.0226 8.35187 22.9233 8.53434 22.7907 8.6915L13.1381 20.0679C12.9983 20.2336 12.8241 20.3668 12.6275 20.4583C12.4309 20.5497 12.2168 20.5972 12 20.5975ZM2.35164 7.71335C2.35124 7.71604 2.35178 7.71879 2.35315 7.72113L11.9999 19.0907L21.6469 7.72109C21.6486 7.71767 21.6489 7.71373 21.6479 7.71006C15.9715 3.42928 8.03523 3.42791 2.35164 7.71335Z" fill="#1D1F21" style="fill: var(--ui-icon-primary-color);"/>
</svg>
