<svg  viewBox="0 0 24 24" fill="none" xmlns="http://www.w3.org/2000/svg" id="__THIS_ID_NEEDS_FOR_UI_ICON_COMPONENT__">
<path d="M20.0589 19.7457C20.1922 19.8931 20.2616 20.0873 20.2519 20.2858C20.2422 20.4842 20.1541 20.6707 20.0071 20.8043C19.86 20.9379 19.666 21.0078 19.4675 20.9985C19.269 20.9892 19.0823 20.9016 18.9484 20.7548L15.6416 17.1196L13.138 20.0686C12.9983 20.2336 12.8243 20.3662 12.6282 20.457C12.432 20.5479 12.2184 20.595 12.0023 20.5949C11.7838 20.5948 11.5679 20.5471 11.3697 20.455C11.1715 20.363 10.9957 20.2289 10.8546 20.0621L1.20568 8.69658C1.07191 8.53876 0.971654 8.35537 0.910997 8.15758C0.85034 7.95979 0.830553 7.75172 0.85284 7.54604C0.874232 7.34425 0.937023 7.14905 1.03729 6.97263C1.13755 6.79621 1.27314 6.64238 1.43556 6.52074C2.3534 5.82896 3.33756 5.22988 4.3736 4.73228L3.93926 4.25479C3.80552 4.1075 3.73575 3.91313 3.7453 3.71442C3.75484 3.5157 3.84292 3.32891 3.99016 3.19513C4.1374 3.06134 4.33175 2.99151 4.53047 3.00099C4.72919 3.01048 4.91601 3.09849 5.04984 3.24569L20.0589 19.7457ZM23.1472 7.54732C23.1256 7.34522 23.0625 7.14974 22.962 6.97311C22.8614 6.79647 22.7255 6.64247 22.5627 6.52074C20.6004 5.04905 18.3522 4.00354 15.9622 3.45123C13.5723 2.89893 11.0934 2.85199 8.68425 3.31344C8.55327 3.33832 8.43129 3.39767 8.33088 3.48538C8.23047 3.57309 8.15526 3.68598 8.113 3.81243C8.07074 3.93888 8.06295 4.0743 8.09044 4.20476C8.11793 4.33522 8.17971 4.45599 8.26941 4.55462L17.0253 14.1809C17.0957 14.2582 17.1814 14.32 17.277 14.3623C17.3727 14.4046 17.4761 14.4264 17.5806 14.4264C17.5849 14.4264 17.5892 14.4264 17.5935 14.4263C17.7002 14.4245 17.8053 14.4 17.9017 14.3543C17.9982 14.3087 18.0838 14.243 18.1529 14.1616L22.7956 8.69301C22.9289 8.53587 23.0287 8.35326 23.0892 8.1563C23.1496 7.95934 23.1693 7.75215 23.1472 7.54732Z" fill="#1D1F21" style="fill: var(--ui-icon-primary-color);"/>
</svg>
