<svg  viewBox="0 0 24 24" fill="none" xmlns="http://www.w3.org/2000/svg" id="__THIS_ID_NEEDS_FOR_UI_ICON_COMPONENT__">
<path d="M2.25 9.75005C2.05109 9.75005 1.86032 9.67104 1.71967 9.53039C1.57902 9.38973 1.5 9.19897 1.5 9.00005C1.5 8.80114 1.57902 8.61038 1.71967 8.46973C1.86032 8.32907 2.05109 8.25005 2.25 8.25005H11.25C11.524 8.24994 11.7928 8.17475 12.0272 8.03265C12.2615 7.89055 12.4524 7.68697 12.5792 7.44401C12.706 7.20106 12.7638 6.92801 12.7463 6.65452C12.7289 6.38103 12.6368 6.11755 12.4802 5.89268C12.3235 5.66781 12.1083 5.49016 11.8578 5.379C11.6073 5.26784 11.3312 5.22742 11.0593 5.26214C10.7875 5.29686 10.5303 5.40539 10.3158 5.57595C10.1013 5.7465 9.93765 5.97256 9.84256 6.22958C9.80838 6.32195 9.75634 6.40668 9.68941 6.47894C9.62248 6.5512 9.54198 6.60957 9.45249 6.65072C9.363 6.69187 9.26629 6.71499 9.16787 6.71876C9.06945 6.72253 8.97125 6.70687 8.87888 6.67269C8.7865 6.63851 8.70177 6.58647 8.62951 6.51954C8.55725 6.45261 8.49888 6.37211 8.45773 6.28262C8.41659 6.19314 8.39347 6.09642 8.3897 5.998C8.38593 5.89958 8.40158 5.80138 8.43576 5.70901C8.62593 5.19485 8.95333 4.74262 9.38241 4.40143C9.81149 4.06025 10.3259 3.84314 10.8696 3.77369C11.4134 3.70424 11.9658 3.7851 12.4669 4.0075C12.9679 4.22989 13.3985 4.58531 13.7118 5.03517C14.0251 5.48503 14.2091 6.01213 14.2439 6.55922C14.2788 7.10631 14.163 7.65248 13.9093 8.13843C13.6556 8.62437 13.2736 9.03151 12.8047 9.31564C12.3359 9.59976 11.7982 9.75 11.25 9.75005H2.25ZM14.25 14.2501H3.75C3.55109 14.2501 3.36032 14.3291 3.21967 14.4697C3.07902 14.6104 3 14.8011 3 15.0001C3 15.199 3.07902 15.3897 3.21967 15.5304C3.36032 15.671 3.55109 15.7501 3.75 15.7501H14.25C14.524 15.7502 14.7928 15.8254 15.0272 15.9675C15.2615 16.1096 15.4524 16.3131 15.5792 16.5561C15.706 16.7991 15.7638 17.0721 15.7463 17.3456C15.7289 17.6191 15.6368 17.8826 15.4802 18.1074C15.3235 18.3323 15.1083 18.51 14.8578 18.6211C14.6073 18.7323 14.3312 18.7727 14.0593 18.738C13.7875 18.7032 13.5303 18.5947 13.3158 18.4242C13.1013 18.2536 12.9376 18.0276 12.8426 17.7705C12.8084 17.6782 12.7563 17.5934 12.6894 17.5212C12.6225 17.4489 12.542 17.3905 12.4525 17.3494C12.363 17.3082 12.2663 17.2851 12.1679 17.2814C12.0694 17.2776 11.9712 17.2932 11.8789 17.3274C11.7865 17.3616 11.7018 17.4136 11.6295 17.4806C11.5573 17.5475 11.4989 17.628 11.4577 17.7175C11.4166 17.807 11.3935 17.9037 11.3897 18.0021C11.3859 18.1005 11.4016 18.1987 11.4358 18.2911C11.6259 18.8053 11.9533 19.2575 12.3824 19.5987C12.8115 19.9399 13.3259 20.157 13.8696 20.2264C14.4134 20.2959 14.9658 20.215 15.4669 19.9926C15.9679 19.7702 16.3985 19.4148 16.7118 18.9649C17.0251 18.5151 17.2091 17.988 17.2439 17.4409C17.2788 16.8938 17.163 16.3476 16.9093 15.8617C16.6556 15.3757 16.2736 14.9686 15.8047 14.6845C15.3359 14.4003 14.7982 14.2501 14.25 14.2501ZM19.5 6.75005C18.8874 6.75167 18.2898 6.94004 17.787 7.29004C17.2841 7.64005 16.9 8.13505 16.6858 8.70901C16.6516 8.80138 16.6359 8.89958 16.6397 8.998C16.6435 9.09642 16.6666 9.19314 16.7077 9.28262C16.7489 9.37211 16.8072 9.45261 16.8795 9.51954C16.9518 9.58647 17.0365 9.63851 17.1289 9.67269C17.2212 9.70687 17.3194 9.72253 17.4179 9.71876C17.5163 9.71499 17.613 9.69187 17.7025 9.65072C17.792 9.60957 17.8725 9.5512 17.9394 9.47894C18.0063 9.40668 18.0584 9.32195 18.0926 9.22958C18.1876 8.97246 18.3513 8.7463 18.5658 8.57566C18.7804 8.40501 19.0376 8.29641 19.3095 8.26165C19.5814 8.22688 19.8576 8.26728 20.1082 8.37846C20.3588 8.48964 20.5741 8.66734 20.7308 8.89227C20.8875 9.11721 20.9795 9.38077 20.997 9.65434C21.0144 9.92791 20.9566 10.201 20.8297 10.444C20.7029 10.687 20.5118 10.8907 20.2774 11.0328C20.043 11.1749 19.7741 11.25 19.5 11.2501H3C2.80109 11.2501 2.61032 11.3291 2.46967 11.4697C2.32902 11.6104 2.25 11.8011 2.25 12.0001C2.25 12.199 2.32902 12.3897 2.46967 12.5304C2.61032 12.671 2.80109 12.7501 3 12.7501H19.5C20.2956 12.7501 21.0587 12.434 21.6213 11.8714C22.1839 11.3088 22.5 10.5457 22.5 9.75005C22.5 8.95441 22.1839 8.19134 21.6213 7.62873C21.0587 7.06613 20.2956 6.75006 19.5 6.75005Z" fill="#1D1F21" style="fill: var(--ui-icon-primary-color);"/>
</svg>
