<svg  viewBox="0 0 24 24" fill="none" xmlns="http://www.w3.org/2000/svg" id="__THIS_ID_NEEDS_FOR_UI_ICON_COMPONENT__">
<path d="M19.7729 13.7724C18.8095 14.7294 17.5812 15.3753 16.2467 15.6266C14.9122 15.8779 13.533 15.723 12.2875 15.182L7.40854 20.8306C7.3966 20.8444 7.38418 20.8578 7.37128 20.8707C6.80857 21.4329 6.04566 21.7485 5.25027 21.7483C4.45488 21.7481 3.69213 21.4321 3.1297 20.8696C2.56728 20.3072 2.25122 19.5445 2.25101 18.7491C2.2508 17.9537 2.56646 17.1908 3.12859 16.6281C3.1415 16.6152 3.15491 16.6027 3.16869 16.5907L8.8174 11.7117C8.27469 10.4736 8.1161 9.10105 8.36217 7.77179C8.60824 6.44253 9.24763 5.21773 10.1976 4.25592C11.1475 3.29412 12.3643 2.6396 13.6904 2.37708C15.0165 2.11456 16.3909 2.25613 17.6357 2.78346C17.7488 2.83145 17.8483 2.90647 17.9257 3.00193C18.003 3.09739 18.0557 3.21038 18.0791 3.33097C18.1026 3.45156 18.0961 3.57606 18.0602 3.69355C18.0243 3.81103 17.9601 3.9179 17.8732 4.00478L14.2231 7.6548L14.5767 9.42259L16.3445 9.77617L19.9946 6.12605C20.0815 6.03921 20.1883 5.97503 20.3058 5.93913C20.4233 5.90324 20.5478 5.89674 20.6684 5.92019C20.7889 5.94365 20.9019 5.99635 20.9974 6.07367C21.0928 6.15098 21.1679 6.25055 21.2158 6.36363C21.7442 7.60116 21.8891 8.96875 21.6319 10.2895C21.3747 11.6103 20.7271 12.8236 19.7729 13.7724Z" fill="#1D1F21" style="fill: var(--ui-icon-primary-color);"/>
</svg>
