<svg  viewBox="0 0 24 24" fill="none" xmlns="http://www.w3.org/2000/svg" id="__THIS_ID_NEEDS_FOR_UI_ICON_COMPONENT__">
<path d="M11.9999 2.25C10.0716 2.25 8.18651 2.82183 6.58313 3.89317C4.97975 4.96451 3.73007 6.48726 2.99212 8.26884C2.25416 10.0504 2.06108 12.0108 2.43729 13.9021C2.81349 15.7934 3.74209 17.5307 5.10565 18.8943C6.46921 20.2579 8.2065 21.1865 10.0978 21.5627C11.9891 21.9389 13.9495 21.7458 15.7311 21.0078C17.5127 20.2699 19.0354 19.0202 20.1068 17.4168C21.1781 15.8134 21.7499 13.9284 21.7499 12C21.747 9.41506 20.7188 6.93684 18.8909 5.10901C17.0631 3.28118 14.5849 2.25299 11.9999 2.25ZM15.5302 14.4697C15.6 14.5393 15.6553 14.622 15.6931 14.713C15.7309 14.804 15.7504 14.9016 15.7504 15.0002C15.7505 15.0987 15.7311 15.1963 15.6934 15.2874C15.6557 15.3784 15.6005 15.4612 15.5308 15.5308C15.4611 15.6005 15.3784 15.6558 15.2873 15.6935C15.1962 15.7312 15.0987 15.7505 15.0001 15.7505C14.9016 15.7504 14.804 15.731 14.713 15.6932C14.622 15.6554 14.5393 15.6 14.4697 15.5303L11.9999 13.0605L9.53022 15.5303C9.38953 15.6707 9.19886 15.7495 9.00011 15.7494C8.80136 15.7492 8.61077 15.6702 8.47023 15.5297C8.32969 15.3892 8.25069 15.1986 8.25059 14.9998C8.25048 14.8011 8.32928 14.6104 8.46967 14.4697L10.9394 12L8.46967 9.53027C8.32928 9.38958 8.25048 9.19892 8.25059 9.00016C8.25069 8.80141 8.32969 8.61083 8.47023 8.47029C8.61077 8.32975 8.80136 8.25075 9.00011 8.25064C9.19886 8.25054 9.38953 8.32934 9.53022 8.46973L11.9999 10.9395L14.4697 8.46973C14.6104 8.32934 14.801 8.25054 14.9998 8.25064C15.1985 8.25075 15.3891 8.32975 15.5297 8.47029C15.6702 8.61083 15.7492 8.80141 15.7493 9.00016C15.7494 9.19892 15.6706 9.38958 15.5302 9.53027L13.0605 12L15.5302 14.4697Z" fill="#1D1F21" style="fill: var(--ui-icon-primary-color);"/>
</svg>
