<svg  viewBox="0 0 24 24" fill="none" xmlns="http://www.w3.org/2000/svg" id="__THIS_ID_NEEDS_FOR_UI_ICON_COMPONENT__">
<path d="M19.2803 18.2193C19.35 18.289 19.4053 18.3716 19.4431 18.4627C19.4808 18.5537 19.5003 18.6512 19.5003 18.7498C19.5003 18.8483 19.481 18.9458 19.4433 19.0369C19.4056 19.1279 19.3503 19.2106 19.2806 19.2803C19.211 19.35 19.1283 19.4052 19.0372 19.4429C18.9462 19.4806 18.8486 19.5 18.7501 19.5C18.6516 19.4999 18.554 19.4805 18.463 19.4427C18.372 19.405 18.2893 19.3497 18.2197 19.28L12 13.0603L5.78031 19.28C5.63963 19.4205 5.44891 19.4994 5.25009 19.4993C5.05126 19.4992 4.86059 19.4202 4.72 19.2796C4.57941 19.139 4.5004 18.9484 4.50034 18.7496C4.50027 18.5507 4.57917 18.36 4.71967 18.2193L10.9393 11.9997L4.71967 5.77997C4.57917 5.63929 4.50027 5.44858 4.50034 5.24975C4.5004 5.05092 4.57941 4.86026 4.72 4.71967C4.86059 4.57907 5.05126 4.50006 5.25009 4.5C5.44891 4.49994 5.63963 4.57883 5.78031 4.71933L12 10.939L18.2197 4.71933C18.3603 4.57883 18.5511 4.49994 18.7499 4.5C18.9487 4.50006 19.1394 4.57907 19.28 4.71967C19.4206 4.86026 19.4996 5.05092 19.4996 5.24975C19.4997 5.44858 19.4208 5.63929 19.2803 5.77997L13.0606 11.9997L19.2803 18.2193Z" fill="#1D1F21" style="fill: var(--ui-icon-primary-color);"/>
</svg>
