<svg  viewBox="0 0 24 24" fill="none" xmlns="http://www.w3.org/2000/svg" id="__THIS_ID_NEEDS_FOR_UI_ICON_COMPONENT__">
<path d="M19.5001 3H4.50014C4.10243 3.00039 3.72113 3.15855 3.43991 3.43977C3.15869 3.72099 3.00053 4.1023 3.00014 4.5V19.5C3.00053 19.8977 3.15869 20.279 3.43991 20.5602C3.72113 20.8414 4.10243 20.9996 4.50014 21H19.5001C19.8978 20.9996 20.2791 20.8414 20.5604 20.5602C20.8416 20.279 20.9997 19.8977 21.0001 19.5V4.5C20.9997 4.1023 20.8416 3.72099 20.5604 3.43977C20.2791 3.15855 19.8978 3.00039 19.5001 3ZM15.5304 14.4697C15.6002 14.5393 15.6555 14.622 15.6933 14.713C15.7311 14.804 15.7506 14.9016 15.7506 15.0002C15.7507 15.0987 15.7313 15.1963 15.6936 15.2874C15.6559 15.3784 15.6007 15.4612 15.531 15.5308C15.4613 15.6005 15.3786 15.6558 15.2875 15.6935C15.1964 15.7312 15.0989 15.7505 15.0003 15.7505C14.9018 15.7504 14.8042 15.731 14.7132 15.6932C14.6222 15.6554 14.5395 15.6 14.4699 15.5303L12.0001 13.0605L9.53041 15.5303C9.38972 15.6707 9.19906 15.7495 9.0003 15.7494C8.80155 15.7492 8.61097 15.6702 8.47043 15.5297C8.32989 15.3892 8.25089 15.1986 8.25078 14.9998C8.25068 14.8011 8.32947 14.6104 8.46986 14.4697L10.9396 12L8.46986 9.53027C8.32947 9.38958 8.25068 9.19892 8.25078 9.00016C8.25089 8.80141 8.32989 8.61083 8.47043 8.47029C8.61097 8.32975 8.80155 8.25075 9.0003 8.25064C9.19906 8.25054 9.38972 8.32934 9.53041 8.46973L12.0001 10.9395L14.4699 8.46973C14.6106 8.32934 14.8012 8.25054 15 8.25064C15.1987 8.25075 15.3893 8.32975 15.5298 8.47029C15.6704 8.61083 15.7494 8.80141 15.7495 9.00016C15.7496 9.19892 15.6708 9.38958 15.5304 9.53027L13.0607 12L15.5304 14.4697Z" fill="#1D1F21" style="fill: var(--ui-icon-primary-color);"/>
</svg>
