<svg  viewBox="0 0 24 24" fill="none" xmlns="http://www.w3.org/2000/svg" id="__THIS_ID_NEEDS_FOR_UI_ICON_COMPONENT__">
<path d="M21.6256 6.25662C21.4414 5.09619 20.3805 4.08215 19.2064 3.94766C14.415 3.42551 9.58104 3.42565 4.78967 3.94807C3.61981 4.08211 2.5589 5.09605 2.37369 6.26083C1.7913 10.0657 1.79153 13.9371 2.37438 17.742C2.55885 18.9024 3.61981 19.9164 4.79361 20.0508C7.18687 20.3118 9.59255 20.4426 12 20.4424C14.4075 20.4426 16.8131 20.3118 19.2064 20.0508L19.2102 20.0504C20.3803 19.9165 21.4412 18.9025 21.6263 17.7376C22.2087 13.9328 22.2085 10.0614 21.6256 6.25662ZM15.416 12.6232L10.916 15.6232C10.8031 15.6985 10.6718 15.7418 10.5362 15.7483C10.4006 15.7549 10.2658 15.7245 10.1461 15.6605C10.0264 15.5964 9.92637 15.5011 9.85661 15.3846C9.78685 15.2682 9.75001 15.135 9.75 14.9992V8.99922C9.75001 8.86347 9.78685 8.73027 9.85661 8.61382C9.92637 8.49737 10.0264 8.40204 10.1461 8.33798C10.2658 8.27393 10.4006 8.24356 10.5362 8.25012C10.6718 8.25667 10.8031 8.2999 10.916 8.3752L15.416 11.3752C15.5188 11.4437 15.603 11.5365 15.6613 11.6453C15.7195 11.7542 15.75 11.8757 15.75 11.9992C15.75 12.1227 15.7195 12.2443 15.6613 12.3531C15.603 12.462 15.5188 12.5548 15.416 12.6232Z" fill="#1D1F21" style="fill: var(--ui-icon-primary-color);"/>
</svg>
