<svg width="29" height="26" viewBox="0 0 29 26" fill="none" xmlns="http://www.w3.org/2000/svg">
<g clip-path="url(#clip0)">
<path d="M28.3872 0.565994C24.4674 -0.0877191 21.5195 0.680396 19.5437 2.87034C17.5678 5.06028 16.5799 8.29613 16.5799 12.578V25.6686H28.3872V13.0682H22.2685C22.0134 10.8456 22.3002 9.01522 23.1289 7.57705C23.9894 6.13891 25.519 5.50153 27.718 5.66496L28.3872 0.565994ZM12.3733 0.565994C8.45343 -0.0877191 5.50555 0.680396 3.5297 2.87034C1.55384 5.06028 0.565918 8.29613 0.565918 12.578V25.6686H12.3733V13.0682H6.25446C5.99951 10.8456 6.28633 9.01522 7.11491 7.57705C7.97532 6.13891 9.50502 5.50153 11.7039 5.66496L12.3733 0.565994Z" fill="#2287EA"/>
</g>
<defs>
<clipPath id="clip0">
<rect width="28.9714" height="26" fill="white"/>
</clipPath>
</defs>
</svg>
