<svg  viewBox="0 0 24 24" fill="none" xmlns="http://www.w3.org/2000/svg" id="__THIS_ID_NEEDS_FOR_UI_ICON_COMPONENT__">
<path d="M20.7803 12.5301L14.0303 19.2801C13.8897 19.4208 13.6989 19.4998 13.5 19.4998C13.3011 19.4998 13.1103 19.4208 12.9696 19.2801C12.829 19.1394 12.75 18.9487 12.75 18.7497C12.75 18.5508 12.829 18.3601 12.9697 18.2194L18.4393 12.7498H3.75C3.55109 12.7498 3.36032 12.6708 3.21967 12.5301C3.07902 12.3895 3 12.1987 3 11.9998C3 11.8009 3.07902 11.6101 3.21967 11.4694C3.36032 11.3288 3.55109 11.2498 3.75 11.2498H18.4393L12.9697 5.78014C12.829 5.63949 12.75 5.44872 12.75 5.24981C12.75 5.05089 12.829 4.86012 12.9696 4.71945C13.1103 4.57879 13.3011 4.49976 13.5 4.49976C13.6989 4.49975 13.8897 4.57876 14.0303 4.71941L20.7803 11.4694C20.85 11.5391 20.9052 11.6217 20.9429 11.7127C20.9806 11.8037 21 11.9013 21 11.9998C21 12.0983 20.9806 12.1958 20.9429 12.2868C20.9052 12.3778 20.85 12.4605 20.7803 12.5301Z" fill="#1D1F21" style="fill: var(--ui-icon-primary-color);"/>
</svg>
