<svg  viewBox="0 0 24 24" fill="none" xmlns="http://www.w3.org/2000/svg" id="__THIS_ID_NEEDS_FOR_UI_ICON_COMPONENT__">
<path d="M20.9999 11.9998C20.9999 12.1987 20.9209 12.3894 20.7803 12.5301C20.6396 12.6708 20.4489 12.7498 20.2499 12.7498H5.56063L11.0303 18.2194C11.1709 18.3601 11.25 18.5508 11.25 18.7497C11.25 18.9487 11.171 19.1394 11.0303 19.2801C10.8897 19.4208 10.6989 19.4998 10.5 19.4998C10.3011 19.4998 10.1103 19.4208 9.96963 19.2801L3.21963 12.5301C3.14998 12.4605 3.09473 12.3778 3.05703 12.2868C3.01934 12.1958 2.99994 12.0983 2.99994 11.9998C2.99994 11.9013 3.01934 11.8037 3.05703 11.7127C3.09473 11.6217 3.14998 11.5391 3.21963 11.4694L9.96963 4.71941C10.1103 4.57876 10.3011 4.49975 10.5 4.49976C10.6989 4.49976 10.8897 4.57879 11.0303 4.71945C11.171 4.86012 11.25 5.05089 11.25 5.24981C11.25 5.44872 11.1709 5.63949 11.0303 5.78014L5.56063 11.2498H20.2499C20.4489 11.2498 20.6396 11.3288 20.7803 11.4694C20.9209 11.6101 20.9999 11.8009 20.9999 11.9998Z" fill="#1D1F21" style="fill: var(--ui-icon-primary-color);"/>
</svg>
