<svg  viewBox="0 0 24 24" fill="none" xmlns="http://www.w3.org/2000/svg" id="__THIS_ID_NEEDS_FOR_UI_ICON_COMPONENT__">
<path d="M21.6802 2.97516C21.4735 2.79671 21.222 2.67821 20.9528 2.63247C20.6836 2.58674 20.407 2.61552 20.153 2.7157L2.85075 9.51304C2.54917 9.63151 2.29406 9.84446 2.12359 10.12C1.95313 10.3956 1.87647 10.7189 1.9051 11.0417C1.93372 11.3644 2.06609 11.6692 2.2824 11.9105C2.4987 12.1517 2.78731 12.3165 3.10504 12.38L7.49993 13.259V18.7484C7.49968 19.0452 7.5875 19.3354 7.75228 19.5822C7.91706 19.8291 8.15138 20.0214 8.42557 20.135C8.69977 20.2486 9.0015 20.2782 9.29255 20.2202C9.58361 20.1622 9.8509 20.0191 10.0606 19.8091L12.4928 17.3769L16.1843 20.6254C16.456 20.8668 16.8068 21.0003 17.1702 21.0007C17.3282 21.0005 17.4853 20.9756 17.6356 20.9269C17.8835 20.8483 18.1064 20.706 18.2822 20.5143C18.4579 20.3226 18.5804 20.0882 18.6372 19.8344L22.1635 4.44697C22.2249 4.18089 22.2123 3.90308 22.1271 3.64364C22.0419 3.38421 21.8874 3.15303 21.6802 2.97516ZM8.07612 11.8445L3.39938 10.9092L16.4945 5.76462L8.07612 11.8445ZM8.99993 18.7477V14.3032L11.3643 16.3839L8.99993 18.7477ZM17.1751 19.4993L9.45088 12.7019L20.5738 4.66875L17.1751 19.4993Z" fill="#1D1F21" style="fill: var(--ui-icon-primary-color);"/>
</svg>
