<svg  viewBox="0 0 24 24" fill="none" xmlns="http://www.w3.org/2000/svg" id="__THIS_ID_NEEDS_FOR_UI_ICON_COMPONENT__">
<path d="M19.2804 18.2193C19.3501 18.289 19.4054 18.3716 19.4431 18.4627C19.4809 18.5537 19.5003 18.6512 19.5004 18.7498C19.5004 18.8483 19.481 18.9458 19.4433 19.0369C19.4056 19.1279 19.3504 19.2106 19.2807 19.2803C19.211 19.35 19.1283 19.4052 19.0373 19.4429C18.9462 19.4806 18.8487 19.5 18.7501 19.5C18.6516 19.4999 18.5541 19.4805 18.463 19.4427C18.372 19.405 18.2894 19.3497 18.2197 19.28L12 13.0603L5.78037 19.28C5.63969 19.4205 5.44897 19.4994 5.25015 19.4993C5.05132 19.4992 4.86065 19.4202 4.72006 19.2796C4.57947 19.139 4.50046 18.9484 4.5004 18.7496C4.50033 18.5507 4.57923 18.36 4.71973 18.2193L10.9394 11.9997L4.71973 5.77997C4.57923 5.63929 4.50033 5.44858 4.5004 5.24975C4.50046 5.05092 4.57947 4.86026 4.72006 4.71967C4.86065 4.57907 5.05132 4.50006 5.25015 4.5C5.44897 4.49994 5.63969 4.57883 5.78037 4.71933L12 10.939L18.2197 4.71933C18.3604 4.57883 18.5511 4.49994 18.75 4.5C18.9488 4.50006 19.1394 4.57907 19.28 4.71967C19.4206 4.86026 19.4996 5.05092 19.4997 5.24975C19.4998 5.44858 19.4209 5.63929 19.2804 5.77997L13.0607 11.9997L19.2804 18.2193Z" fill="#1D1F21" style="fill: var(--ui-icon-primary-color);"/>
</svg>
