<svg  viewBox="0 0 24 24" fill="none" xmlns="http://www.w3.org/2000/svg" id="__THIS_ID_NEEDS_FOR_UI_ICON_COMPONENT__">
<path d="M19.5 3H4.5C4.10231 3.00045 3.72105 3.15864 3.43984 3.43984C3.15864 3.72105 3.00045 4.10231 3 4.5V14.9891C2.99995 14.9928 2.99945 14.9963 2.99945 15C2.99945 15.0037 2.99995 15.0072 3 15.0109V19.5C3.00045 19.8977 3.15864 20.279 3.43984 20.5602C3.72105 20.8414 4.10231 20.9995 4.5 21H19.5C19.8977 20.9995 20.279 20.8414 20.5602 20.5602C20.8414 20.279 20.9995 19.8977 21 19.5V4.5C20.9995 4.10231 20.8414 3.72105 20.5602 3.43984C20.279 3.15864 19.8977 3.00045 19.5 3ZM19.5 4.5L19.5006 14.25H16.8101C16.613 14.2495 16.4178 14.288 16.2358 14.3634C16.0537 14.4389 15.8884 14.5496 15.7495 14.6894L13.9388 16.5L10.0601 16.5001L8.2494 14.6893C8.11044 14.5496 7.94515 14.4388 7.7631 14.3634C7.58105 14.288 7.38586 14.2495 7.18881 14.25H4.5V4.5H19.5ZM19.5 19.5H4.5V15.75L7.18877 15.7499L8.9995 17.5607C9.13846 17.7004 9.30375 17.8112 9.4858 17.8866C9.66785 17.962 9.86304 18.0005 10.0601 18H13.9388C14.1359 18.0005 14.3311 17.962 14.5131 17.8866C14.6952 17.8111 14.8605 17.7004 14.9994 17.5606L16.8101 15.75H19.5007L19.5009 19.5H19.5ZM8.28767 11.5984C8.21803 11.5287 8.16278 11.446 8.12508 11.355C8.08739 11.264 8.06799 11.1665 8.06798 11.068C8.06798 10.9695 8.08738 10.872 8.12507 10.781C8.16276 10.69 8.21801 10.6073 8.28765 10.5376C8.3573 10.468 8.43998 10.4128 8.53098 10.3751C8.62198 10.3374 8.71951 10.318 8.818 10.318C8.9165 10.318 9.01403 10.3374 9.10503 10.375C9.19603 10.4127 9.27871 10.468 9.34836 10.5376L11.25 12.4394V6.75C11.25 6.55109 11.329 6.36032 11.4697 6.21967C11.6103 6.07902 11.8011 6 12 6C12.1989 6 12.3897 6.07902 12.5303 6.21967C12.671 6.36032 12.75 6.55109 12.75 6.75V12.4394L14.6516 10.5376C14.7923 10.397 14.9831 10.318 15.182 10.318C15.3809 10.318 15.5717 10.397 15.7124 10.5376C15.853 10.6783 15.932 10.8691 15.932 11.068C15.932 11.2669 15.853 11.4577 15.7123 11.5984L12.5303 14.7804C12.5261 14.7846 12.5214 14.7883 12.517 14.7924C12.5037 14.8051 12.4904 14.8177 12.4762 14.8294C12.4701 14.8344 12.4636 14.8387 12.4574 14.8434C12.4442 14.8537 12.431 14.864 12.4171 14.8732C12.412 14.8767 12.4065 14.8796 12.4013 14.8829C12.3858 14.8927 12.3703 14.9024 12.354 14.9111C12.3502 14.9132 12.3461 14.9149 12.3422 14.9169C12.3243 14.926 12.3062 14.9349 12.2876 14.9426C12.285 14.9437 12.2823 14.9445 12.2797 14.9455C12.2596 14.9536 12.2394 14.9611 12.2186 14.9674C12.2159 14.9682 12.2131 14.9687 12.2105 14.9695C12.1898 14.9756 12.169 14.981 12.1476 14.9853C12.1415 14.9865 12.1353 14.987 12.1292 14.9881C12.1112 14.9913 12.0933 14.9944 12.0749 14.9962C12.0251 15.0013 11.9749 15.0013 11.9251 14.9962C11.9067 14.9944 11.8886 14.9912 11.8706 14.9881C11.8646 14.987 11.8584 14.9865 11.8524 14.9853C11.831 14.981 11.8102 14.9756 11.7895 14.9695C11.7868 14.9687 11.7841 14.9682 11.7814 14.9674C11.7606 14.9611 11.7404 14.9536 11.7204 14.9455C11.7177 14.9445 11.715 14.9437 11.7124 14.9426C11.6938 14.9349 11.6757 14.926 11.6578 14.9169C11.6539 14.9149 11.6498 14.9132 11.646 14.9111C11.6297 14.9024 11.6142 14.8927 11.5987 14.8829C11.5935 14.8796 11.588 14.8767 11.5829 14.8732C11.569 14.864 11.5558 14.8537 11.5426 14.8434C11.5364 14.8387 11.5299 14.8344 11.5238 14.8294C11.5096 14.8177 11.4963 14.8051 11.483 14.7924C11.4786 14.7883 11.4739 14.7846 11.4697 14.7804L8.28767 11.5984Z" fill="#1D1F21" style="fill: var(--ui-icon-primary-color);"/>
</svg>
