<svg  viewBox="0 0 24 24" fill="none" xmlns="http://www.w3.org/2000/svg" id="__THIS_ID_NEEDS_FOR_UI_ICON_COMPONENT__">
<path d="M11.9999 2.25C10.0716 2.25 8.18651 2.82183 6.58313 3.89317C4.97975 4.96451 3.73007 6.48726 2.99212 8.26884C2.25416 10.0504 2.06108 12.0108 2.43729 13.9021C2.81349 15.7934 3.74209 17.5307 5.10565 18.8943C6.46921 20.2579 8.2065 21.1865 10.0978 21.5627C11.9891 21.9389 13.9495 21.7458 15.7311 21.0078C17.5127 20.2699 19.0354 19.0202 20.1068 17.4168C21.1781 15.8134 21.7499 13.9284 21.7499 12C21.747 9.41504 20.7188 6.93679 18.891 5.10894C17.0632 3.28109 14.5849 2.25293 11.9999 2.25ZM11.9999 20.25C10.3682 20.25 8.77319 19.7661 7.41649 18.8596C6.05978 17.9531 5.00236 16.6646 4.37794 15.1571C3.75351 13.6496 3.59014 11.9908 3.90846 10.3905C4.22679 8.79016 5.01253 7.32015 6.16631 6.16637C7.3201 5.01259 8.7901 4.22685 10.3904 3.90852C11.9908 3.59019 13.6496 3.75357 15.1571 4.37799C16.6646 5.00242 17.953 6.05984 18.8596 7.41655C19.7661 8.77325 20.2499 10.3683 20.2499 12C20.2475 14.1873 19.3775 16.2843 17.8308 17.8309C16.2842 19.3775 14.1872 20.2475 11.9999 20.25ZM15.1553 8.84468C15.2249 8.91432 15.2802 8.99699 15.3179 9.08799C15.3556 9.17898 15.375 9.27651 15.375 9.375C15.375 9.47349 15.3556 9.57102 15.3179 9.66201C15.2802 9.75301 15.2249 9.83568 15.1553 9.90532L11.1856 13.875H13.8749C14.0739 13.875 14.2646 13.954 14.4053 14.0947C14.5459 14.2353 14.6249 14.4261 14.6249 14.625C14.6249 14.8239 14.5459 15.0147 14.4053 15.1553C14.2646 15.296 14.0739 15.375 13.8749 15.375H9.37494C9.17603 15.375 8.98527 15.296 8.84462 15.1553C8.70396 15.0147 8.62495 14.8239 8.62494 14.625V10.125C8.62494 9.92609 8.70396 9.73532 8.84461 9.59467C8.98527 9.45402 9.17603 9.375 9.37494 9.375C9.57386 9.375 9.76462 9.45402 9.90527 9.59467C10.0459 9.73532 10.1249 9.92609 10.1249 10.125V12.8144L14.0946 8.84468C14.1643 8.77503 14.2469 8.71978 14.3379 8.68209C14.4289 8.64439 14.5265 8.62499 14.6249 8.62499C14.7234 8.62499 14.821 8.64439 14.912 8.68209C15.0029 8.71978 15.0856 8.77503 15.1553 8.84468Z" fill="#1D1F21" style="fill: var(--ui-icon-primary-color);"/>
</svg>
