<svg  viewBox="0 0 24 24" fill="none" xmlns="http://www.w3.org/2000/svg" id="__THIS_ID_NEEDS_FOR_UI_ICON_COMPONENT__">
<path d="M19.5 3H4.5C4.10231 3.00045 3.72105 3.15864 3.43984 3.43984C3.15864 3.72105 3.00045 4.10231 3 4.5V19.5C3.00045 19.8977 3.15864 20.279 3.43984 20.5602C3.72105 20.8414 4.10231 20.9995 4.5 21H19.5C19.8977 20.9995 20.279 20.8414 20.5602 20.5602C20.8414 20.279 20.9995 19.8977 21 19.5V4.5C20.9995 4.10231 20.8414 3.72105 20.5602 3.43984C20.279 3.15864 19.8977 3.00045 19.5 3ZM19.5 19.5L4.50005 19.5009L4.5 19.5V4.5H19.5V19.5ZM8.625 13.875V9.375C8.625 9.17609 8.70402 8.98532 8.84467 8.84467C8.98532 8.70402 9.17609 8.625 9.375 8.625H13.875C14.0739 8.625 14.2647 8.70402 14.4053 8.84467C14.546 8.98532 14.625 9.17609 14.625 9.375C14.625 9.57391 14.546 9.76468 14.4053 9.90533C14.2647 10.046 14.0739 10.125 13.875 10.125H11.1857L15.1553 14.0946C15.296 14.2353 15.375 14.4261 15.375 14.625C15.375 14.8239 15.296 15.0147 15.1554 15.1553C15.0147 15.296 14.824 15.375 14.625 15.375C14.4261 15.375 14.2353 15.296 14.0947 15.1554L10.125 11.1857V13.875C10.125 14.0739 10.046 14.2647 9.90533 14.4053C9.76468 14.546 9.57391 14.625 9.375 14.625C9.17609 14.625 8.98532 14.546 8.84467 14.4053C8.70402 14.2647 8.625 14.0739 8.625 13.875Z" fill="#1D1F21" style="fill: var(--ui-icon-primary-color);"/>
</svg>
