<svg  viewBox="0 0 24 24" fill="none" xmlns="http://www.w3.org/2000/svg" id="__THIS_ID_NEEDS_FOR_UI_ICON_COMPONENT__">
<path d="M21.7499 18.7503C21.7499 18.9492 21.6709 19.14 21.5303 19.2806C21.3896 19.4213 21.1989 19.5003 20.9999 19.5003C20.801 19.5003 20.6103 19.4213 20.4696 19.2806C20.329 19.14 20.2499 18.9492 20.2499 18.7503C20.2475 16.563 19.3775 14.466 17.8308 12.9194C16.2842 11.3728 14.1872 10.5028 11.9999 10.5003H4.8106L8.03031 13.7199C8.09996 13.7896 8.15521 13.8723 8.1929 13.9633C8.23059 14.0543 8.24999 14.1518 8.24999 14.2503C8.24999 14.3488 8.23059 14.4463 8.1929 14.5373C8.15521 14.6283 8.09996 14.711 8.03031 14.7807C7.96066 14.8503 7.87798 14.9056 7.78698 14.9433C7.69598 14.9809 7.59844 15.0003 7.49994 15.0003C7.40145 15.0003 7.30391 14.9809 7.21291 14.9433C7.12191 14.9056 7.03923 14.8503 6.96958 14.7807L2.46958 10.2807C2.46429 10.2754 2.45981 10.2696 2.45471 10.2642C2.44296 10.2518 2.43116 10.2393 2.42028 10.2261C2.41174 10.2157 2.40423 10.2048 2.39633 10.1941C2.38973 10.1851 2.38277 10.1765 2.37656 10.1672C2.36861 10.1553 2.36166 10.143 2.35446 10.1308C2.34923 10.122 2.34365 10.1134 2.33878 10.1043C2.3323 10.0922 2.32677 10.0797 2.32099 10.0673C2.31637 10.0575 2.31142 10.0478 2.30721 10.0377C2.3023 10.0258 2.29831 10.0137 2.29402 10.0016C2.29008 9.99055 2.28581 9.97963 2.28238 9.96833C2.27872 9.95624 2.27601 9.94397 2.27297 9.93175C2.2701 9.92022 2.26685 9.90886 2.26452 9.89712C2.2617 9.88293 2.25998 9.86858 2.25798 9.85428C2.2566 9.84434 2.25469 9.83459 2.2537 9.82454C2.24881 9.77517 2.24881 9.72542 2.2537 9.67604C2.25469 9.666 2.2566 9.65625 2.25798 9.64631C2.25998 9.63201 2.2617 9.61766 2.26452 9.60347C2.26685 9.59173 2.2701 9.58038 2.27297 9.56884C2.27601 9.55662 2.27872 9.54435 2.28238 9.53226C2.28581 9.52096 2.29008 9.51004 2.29402 9.49896C2.2983 9.4869 2.3023 9.47479 2.30721 9.46294C2.31142 9.45282 2.31637 9.44314 2.32099 9.43325C2.32677 9.42089 2.3323 9.40844 2.33878 9.39633C2.34365 9.38724 2.34923 9.37864 2.35446 9.3698C2.36166 9.35758 2.36861 9.34526 2.37656 9.33341C2.38277 9.32414 2.38973 9.31549 2.39633 9.30651C2.40423 9.29578 2.41174 9.28488 2.42028 9.27449C2.43115 9.26126 2.44296 9.24884 2.45471 9.23639C2.45981 9.23098 2.46429 9.22522 2.46958 9.21993L6.96958 4.71993C7.11024 4.57927 7.30102 4.50024 7.49995 4.50024C7.69887 4.50024 7.88965 4.57927 8.03031 4.71993C8.17097 4.86059 8.25 5.05137 8.25 5.2503C8.24999 5.44922 8.17097 5.64 8.03031 5.78066L4.8106 9.0003H11.9999C14.5849 9.00322 17.0632 10.0314 18.891 11.8592C20.7189 13.6871 21.747 16.1653 21.7499 18.7503Z" fill="#1D1F21" style="fill: var(--ui-icon-primary-color);"/>
</svg>
