<svg  viewBox="0 0 24 24" fill="none" xmlns="http://www.w3.org/2000/svg" id="__THIS_ID_NEEDS_FOR_UI_ICON_COMPONENT__">
<path d="M17.2502 6.75023H12.0002V3.00023C12.0002 2.8519 11.9562 2.7069 11.8738 2.58357C11.7914 2.46024 11.6742 2.36411 11.5372 2.30734C11.4001 2.25058 11.2494 2.23572 11.1039 2.26465C10.9584 2.29357 10.8247 2.36499 10.7198 2.46986L1.71984 11.4699C1.5792 11.6105 1.50018 11.8013 1.50018 12.0002C1.50018 12.1992 1.5792 12.3899 1.71984 12.5306L10.7198 21.5306C10.8247 21.6355 10.9584 21.7069 11.1039 21.7358C11.2494 21.7647 11.4001 21.7499 11.5372 21.6931C11.6742 21.6363 11.7914 21.5402 11.8738 21.4169C11.9562 21.2936 12.0002 21.1486 12.0002 21.0002V17.2502H17.2502C17.4491 17.2502 17.6399 17.1712 17.7805 17.0305C17.9212 16.8899 18.0002 16.6991 18.0002 16.5002V7.50023C18.0002 7.30132 17.9212 7.11056 17.7805 6.96991C17.6399 6.82926 17.4491 6.75024 17.2502 6.75023ZM16.5002 15.7502H11.2502C11.0513 15.7502 10.8605 15.8293 10.7199 15.9699C10.5792 16.1106 10.5002 16.3013 10.5002 16.5002V19.1896L3.31084 12.0002L10.5002 4.81087V7.50023C10.5002 7.69914 10.5792 7.8899 10.7199 8.03055C10.8605 8.1712 11.0513 8.25022 11.2502 8.25023H16.5002V15.7502ZM21.0002 7.50023V16.5002C21.0002 16.6991 20.9212 16.8899 20.7805 17.0306C20.6399 17.1712 20.4491 17.2502 20.2502 17.2502C20.0513 17.2502 19.8605 17.1712 19.7199 17.0306C19.5792 16.8899 19.5002 16.6991 19.5002 16.5002V7.50023C19.5002 7.30132 19.5792 7.11055 19.7199 6.9699C19.8605 6.82925 20.0513 6.75023 20.2502 6.75023C20.4491 6.75023 20.6399 6.82925 20.7805 6.9699C20.9212 7.11055 21.0002 7.30132 21.0002 7.50023Z" fill="#1D1F21" style="fill: var(--ui-icon-primary-color);"/>
</svg>
