<svg  viewBox="0 0 24 24" fill="none" xmlns="http://www.w3.org/2000/svg" id="__THIS_ID_NEEDS_FOR_UI_ICON_COMPONENT__">
<path d="M11.9999 2.25C10.0716 2.25 8.18651 2.82183 6.58313 3.89317C4.97975 4.96451 3.73007 6.48726 2.99212 8.26884C2.25416 10.0504 2.06108 12.0108 2.43729 13.9021C2.81349 15.7934 3.74209 17.5307 5.10565 18.8943C6.46921 20.2579 8.2065 21.1865 10.0978 21.5627C11.9891 21.9389 13.9495 21.7458 15.7311 21.0078C17.5127 20.2699 19.0354 19.0202 20.1068 17.4168C21.1781 15.8134 21.7499 13.9284 21.7499 12C21.747 9.41504 20.7188 6.93679 18.891 5.10894C17.0632 3.28109 14.5849 2.25293 11.9999 2.25ZM11.9999 20.25C10.3682 20.25 8.77319 19.7661 7.41649 18.8596C6.05978 17.9531 5.00236 16.6646 4.37794 15.1571C3.75351 13.6496 3.59014 11.9908 3.90846 10.3905C4.22679 8.79016 5.01253 7.32015 6.16631 6.16637C7.3201 5.01259 8.7901 4.22685 10.3904 3.90852C11.9908 3.59019 13.6496 3.75357 15.1571 4.37799C16.6646 5.00242 17.953 6.05984 18.8596 7.41655C19.7661 8.77325 20.2499 10.3683 20.2499 12C20.2475 14.1873 19.3775 16.2843 17.8308 17.8309C16.2842 19.3775 14.1872 20.2475 11.9999 20.25ZM16.2803 11.4696C16.3499 11.5393 16.4052 11.622 16.4429 11.713C16.4806 11.804 16.5 11.9015 16.5 12C16.5 12.0985 16.4806 12.196 16.4429 12.287C16.4052 12.378 16.3499 12.4607 16.2803 12.5304L13.0983 15.7123C13.0287 15.7819 12.946 15.8372 12.855 15.8749C12.764 15.9126 12.6665 15.932 12.568 15.932C12.4695 15.932 12.372 15.9126 12.281 15.8749C12.19 15.8372 12.1073 15.7819 12.0376 15.7123C11.968 15.6427 11.9127 15.56 11.8751 15.469C11.8374 15.378 11.818 15.2805 11.818 15.182C11.818 15.0835 11.8374 14.986 11.875 14.895C11.9127 14.804 11.968 14.7213 12.0376 14.6516L13.9393 12.75H8.24994C8.05103 12.75 7.86027 12.671 7.71961 12.5303C7.57896 12.3897 7.49994 12.1989 7.49994 12C7.49994 11.8011 7.57896 11.6103 7.71961 11.4697C7.86027 11.329 8.05103 11.25 8.24994 11.25H13.9393L12.0376 9.34836C11.968 9.27871 11.9127 9.19603 11.875 9.10504C11.8374 9.01404 11.818 8.91651 11.818 8.81802C11.818 8.71953 11.8374 8.622 11.8751 8.53101C11.9127 8.44002 11.968 8.35734 12.0376 8.28769C12.1073 8.21805 12.19 8.16281 12.281 8.12512C12.372 8.08743 12.4695 8.06803 12.568 8.06804C12.6665 8.06804 12.764 8.08744 12.855 8.12513C12.946 8.16283 13.0287 8.21807 13.0983 8.28772L16.2803 11.4696Z" fill="#1D1F21" style="fill: var(--ui-icon-primary-color);"/>
</svg>
