<svg  viewBox="0 0 24 24" fill="none" xmlns="http://www.w3.org/2000/svg" id="__THIS_ID_NEEDS_FOR_UI_ICON_COMPONENT__">
<path d="M11.9999 2.25C10.0716 2.25 8.18651 2.82183 6.58313 3.89317C4.97975 4.96451 3.73007 6.48726 2.99212 8.26884C2.25416 10.0504 2.06108 12.0108 2.43729 13.9021C2.81349 15.7934 3.74209 17.5307 5.10565 18.8943C6.46921 20.2579 8.2065 21.1865 10.0978 21.5627C11.9891 21.9389 13.9495 21.7458 15.7311 21.0078C17.5127 20.2699 19.0354 19.0202 20.1068 17.4168C21.1781 15.8134 21.7499 13.9284 21.7499 12C21.747 9.41504 20.7188 6.93679 18.891 5.10894C17.0632 3.28109 14.5849 2.25293 11.9999 2.25ZM11.9999 20.25C10.3682 20.25 8.77319 19.7661 7.41649 18.8596C6.05978 17.9531 5.00236 16.6646 4.37794 15.1571C3.75351 13.6496 3.59014 11.9908 3.90846 10.3905C4.22679 8.79016 5.01253 7.32015 6.16631 6.16637C7.3201 5.01259 8.7901 4.22685 10.3904 3.90852C11.9908 3.59019 13.6496 3.75357 15.1571 4.37799C16.6646 5.00242 17.953 6.05984 18.8596 7.41655C19.7661 8.77325 20.2499 10.3683 20.2499 12C20.2475 14.1873 19.3775 16.2843 17.8308 17.8309C16.2842 19.3775 14.1872 20.2475 11.9999 20.25ZM16.4999 12C16.4999 12.1989 16.4209 12.3897 16.2803 12.5303C16.1396 12.671 15.9489 12.75 15.7499 12.75H10.0606L11.9623 14.6516C12.0319 14.7213 12.0872 14.804 12.1248 14.895C12.1625 14.986 12.1819 15.0835 12.1819 15.182C12.1819 15.2805 12.1625 15.378 12.1248 15.469C12.0871 15.56 12.0319 15.6427 11.9622 15.7123C11.8926 15.7819 11.8099 15.8372 11.7189 15.8749C11.6279 15.9126 11.5304 15.932 11.4319 15.932C11.3334 15.932 11.2359 15.9126 11.1449 15.8749C11.0539 15.8372 10.9712 15.7819 10.9016 15.7123L7.71962 12.5303C7.64997 12.4607 7.59472 12.378 7.55703 12.287C7.51933 12.196 7.49993 12.0985 7.49993 12C7.49993 11.9015 7.51933 11.804 7.55703 11.713C7.59472 11.622 7.64997 11.5393 7.71962 11.4697L10.9016 8.28767C11.0422 8.14702 11.233 8.068 11.4319 8.068C11.6308 8.068 11.8216 8.14702 11.9623 8.28767C12.1029 8.42833 12.1819 8.6191 12.1819 8.81802C12.1819 9.01694 12.1029 9.20771 11.9623 9.34836L10.0606 11.25H15.7499C15.9489 11.25 16.1396 11.329 16.2803 11.4697C16.4209 11.6103 16.4999 11.8011 16.4999 12Z" fill="#1D1F21" style="fill: var(--ui-icon-primary-color);"/>
</svg>
