<svg  viewBox="0 0 24 24" fill="none" xmlns="http://www.w3.org/2000/svg" id="__THIS_ID_NEEDS_FOR_UI_ICON_COMPONENT__">
<path d="M21.0895 10.0942C21.0677 10.0963 21.0458 10.0973 21.024 10.0975C21.0212 10.0975 21.0185 10.0979 21.0157 10.0979H16.5157C16.3168 10.0979 16.126 10.0189 15.9854 9.87824C15.8447 9.73759 15.7657 9.54683 15.7657 9.34791C15.7657 9.149 15.8447 8.95824 15.9854 8.81759C16.126 8.67693 16.3168 8.59792 16.5157 8.59792H19.205L17.3033 6.69623C16.2544 5.64734 14.9181 4.93304 13.4632 4.64365C12.0083 4.35427 10.5003 4.5028 9.1299 5.07046C7.75945 5.63812 6.58812 6.59941 5.76401 7.83278C4.9399 9.06615 4.50003 10.5162 4.50003 11.9996C4.50003 13.4829 4.9399 14.933 5.76401 16.1663C6.58812 17.3997 7.75945 18.361 9.1299 18.9287C10.5003 19.4963 12.0083 19.6448 13.4632 19.3555C14.9181 19.0661 16.2544 18.3518 17.3033 17.3029C17.3729 17.2332 17.4556 17.1778 17.5466 17.1401C17.6377 17.1023 17.7352 17.0828 17.8338 17.0828C17.9323 17.0828 18.0299 17.1021 18.1209 17.1398C18.212 17.1775 18.2947 17.2328 18.3644 17.3025C18.4341 17.3721 18.4893 17.4549 18.527 17.5459C18.5647 17.6369 18.5841 17.7345 18.5841 17.8331C18.5841 17.9316 18.5646 18.0292 18.5269 18.1202C18.4891 18.2112 18.4338 18.2939 18.3641 18.3635C17.1054 19.6222 15.5017 20.4794 13.7559 20.8267C12.01 21.1739 10.2004 20.9957 8.55589 20.3145C6.91134 19.6333 5.50572 18.4798 4.51678 16.9997C3.52784 15.5197 3 13.7796 3 11.9996C3 10.2195 3.52784 8.47945 4.51678 6.9994C5.50572 5.51934 6.91134 4.36579 8.55589 3.6846C10.2004 3.00341 12.01 2.82518 13.7559 3.17245C15.5017 3.51973 17.1054 4.3769 18.3641 5.63559L20.2657 7.53723V4.84792C20.2657 4.64901 20.3447 4.45824 20.4854 4.31759C20.626 4.17694 20.8168 4.09792 21.0157 4.09792C21.2146 4.09792 21.4054 4.17694 21.546 4.31759C21.6867 4.45824 21.7657 4.64901 21.7657 4.84792V9.34743C21.7657 9.37238 21.7644 9.39731 21.7619 9.42216C21.761 9.43226 21.759 9.44205 21.7576 9.45203C21.7556 9.4663 21.7539 9.48059 21.7511 9.49473C21.7488 9.50656 21.7455 9.51802 21.7426 9.52965C21.7396 9.54176 21.7369 9.55393 21.7333 9.56591C21.7298 9.57739 21.7255 9.58846 21.7215 9.5997C21.7172 9.61157 21.7133 9.6235 21.7085 9.63518C21.7042 9.64559 21.6991 9.65555 21.6943 9.66572C21.6886 9.67778 21.6833 9.68991 21.677 9.70172C21.6718 9.71135 21.6659 9.7205 21.6603 9.72988C21.6534 9.7415 21.6468 9.75324 21.6392 9.76456C21.6324 9.77484 21.6247 9.78449 21.6173 9.7944C21.6101 9.80411 21.6033 9.81403 21.5956 9.82346C21.5816 9.84043 21.5668 9.85658 21.5515 9.87224C21.5496 9.87419 21.548 9.87631 21.5461 9.87824C21.5446 9.87975 21.5429 9.88099 21.5414 9.88248C21.5253 9.89831 21.5086 9.91354 21.4911 9.92787C21.4823 9.9351 21.473 9.9414 21.464 9.94817C21.4534 9.95607 21.4431 9.96424 21.4321 9.97159C21.4215 9.97868 21.4105 9.98483 21.3996 9.99132C21.3895 9.99738 21.3796 10.0037 21.3691 10.0093C21.3582 10.0152 21.3469 10.0201 21.3358 10.0254C21.3247 10.0306 21.3139 10.0361 21.3025 10.0408C21.2919 10.0452 21.281 10.0488 21.2702 10.0527C21.2579 10.0571 21.2458 10.0618 21.2332 10.0656C21.2225 10.0688 21.2117 10.0712 21.2009 10.0739C21.188 10.0772 21.1752 10.0808 21.162 10.0834C21.1498 10.0858 21.1375 10.0872 21.1251 10.089C21.1133 10.0908 21.1015 10.093 21.0895 10.0942Z" fill="#1D1F21" style="fill: var(--ui-icon-primary-color);"/>
</svg>
