<svg  viewBox="0 0 24 24" fill="none" xmlns="http://www.w3.org/2000/svg" id="__THIS_ID_NEEDS_FOR_UI_ICON_COMPONENT__">
<path d="M2.50889 9.92803C2.49142 9.9137 2.47475 9.89847 2.45865 9.88264C2.45714 9.88115 2.45546 9.87991 2.45395 9.8784C2.45203 9.87647 2.45044 9.87435 2.44854 9.87241C2.43321 9.85674 2.41837 9.84059 2.40445 9.82363C2.3967 9.8142 2.38993 9.80427 2.38271 9.79456C2.37534 9.78465 2.36766 9.775 2.36077 9.76472C2.35319 9.7534 2.34659 9.74166 2.3397 9.73004C2.33413 9.72066 2.32822 9.71151 2.32306 9.70188C2.31673 9.69007 2.31137 9.67794 2.30572 9.66588C2.30095 9.65572 2.29586 9.64575 2.29155 9.63535C2.28671 9.62366 2.28278 9.61173 2.27856 9.59986C2.27455 9.58863 2.27021 9.57755 2.26673 9.56607C2.26311 9.55409 2.26043 9.54192 2.25741 9.52981C2.25452 9.51818 2.25124 9.50673 2.24889 9.49489C2.24608 9.48075 2.24436 9.46646 2.24238 9.4522C2.24099 9.44222 2.23905 9.43242 2.23806 9.42232C2.23561 9.39748 2.2343 9.37254 2.23431 9.3476V4.84808C2.23431 4.64916 2.31333 4.4584 2.45398 4.31775C2.59464 4.17709 2.7854 4.09808 2.98431 4.09808C3.18323 4.09808 3.37399 4.17709 3.51464 4.31775C3.6553 4.4584 3.73431 4.64916 3.73431 4.84808V7.53739L5.63596 5.63575C7.32513 3.9504 9.61383 3.00391 12 3.00391C14.3861 3.00391 16.6748 3.9504 18.364 5.63575C18.4337 5.70538 18.489 5.78807 18.5268 5.87909C18.5645 5.97011 18.584 6.06768 18.584 6.16622C18.5841 6.26476 18.5647 6.36234 18.527 6.45338C18.4893 6.54442 18.434 6.62715 18.3643 6.69682C18.2946 6.7665 18.2119 6.82176 18.1209 6.85945C18.0298 6.89714 17.9322 6.91652 17.8337 6.91648C17.7352 6.91644 17.6376 6.89698 17.5466 6.85921C17.4556 6.82145 17.3729 6.76612 17.3033 6.69639C15.8956 5.29197 13.9884 4.50324 12 4.50324C10.0116 4.50324 8.10432 5.29197 6.69669 6.69639L4.79501 8.59808H7.48432C7.68323 8.59808 7.874 8.67709 8.01465 8.81775C8.1553 8.9584 8.23432 9.14916 8.23432 9.34808C8.23432 9.54699 8.1553 9.73775 8.01465 9.87841C7.874 10.0191 7.68323 10.0981 7.48432 10.0981H2.98432C2.9596 10.0981 2.9349 10.0968 2.91029 10.0943C2.89923 10.0932 2.88849 10.0912 2.87757 10.0896C2.86427 10.0877 2.85095 10.0862 2.83775 10.0835C2.82516 10.081 2.81295 10.0776 2.80059 10.0745C2.78924 10.0716 2.77785 10.0691 2.76662 10.0657C2.7545 10.0621 2.7428 10.0575 2.73095 10.0532C2.7197 10.0492 2.70837 10.0455 2.69729 10.0409C2.68631 10.0364 2.67578 10.031 2.66507 10.026C2.65358 10.0206 2.64201 10.0155 2.63076 10.0094C2.62052 10.004 2.61078 9.99771 2.60083 9.99176C2.58978 9.98517 2.57861 9.97893 2.56785 9.97173C2.55693 9.96442 2.54666 9.95628 2.53616 9.94843C2.52707 9.94162 2.51774 9.9353 2.50889 9.92803ZM21.7619 14.5771C21.7609 14.567 21.759 14.5572 21.7576 14.5472C21.7556 14.533 21.7539 14.5187 21.7511 14.5045C21.7487 14.4927 21.7454 14.4813 21.7425 14.4696C21.7395 14.4575 21.7368 14.4453 21.7332 14.4334C21.7297 14.4219 21.7254 14.4108 21.7214 14.3996C21.7172 14.3877 21.7132 14.3758 21.7084 14.3641C21.7041 14.3537 21.699 14.3437 21.6942 14.3336C21.6886 14.3215 21.6832 14.3094 21.6769 14.2976C21.6717 14.2879 21.6658 14.2788 21.6602 14.2694C21.6534 14.2578 21.6468 14.246 21.6392 14.2347C21.6323 14.2244 21.6246 14.2148 21.6172 14.2049C21.61 14.1952 21.6033 14.1852 21.5955 14.1758C21.5816 14.1589 21.5667 14.1427 21.5514 14.127C21.5495 14.1251 21.5479 14.123 21.546 14.121C21.5445 14.1195 21.5428 14.1183 21.5413 14.1168C21.5252 14.101 21.5085 14.0857 21.4911 14.0714C21.4823 14.0642 21.473 14.0579 21.4639 14.0511C21.4534 14.0432 21.443 14.035 21.4321 14.0277C21.4215 14.0206 21.4104 14.0144 21.3996 14.008C21.3894 14.0019 21.3795 13.9955 21.3691 13.9899C21.3581 13.9841 21.3469 13.9791 21.3357 13.9739C21.3247 13.9686 21.3138 13.9631 21.3025 13.9584C21.2918 13.954 21.2809 13.9505 21.2701 13.9466C21.2578 13.9422 21.2457 13.9375 21.2331 13.9337C21.2224 13.9304 21.2116 13.9281 21.2008 13.9253C21.1879 13.9221 21.1751 13.9185 21.162 13.9159C21.1497 13.9134 21.1374 13.912 21.1251 13.9102C21.1132 13.9085 21.1015 13.9063 21.0894 13.9051C21.0676 13.9029 21.0458 13.902 21.0239 13.9018C21.0211 13.9018 21.0184 13.9014 21.0156 13.9014H16.5156C16.3167 13.9014 16.1259 13.9804 15.9853 14.121C15.8446 14.2617 15.7656 14.4525 15.7656 14.6514C15.7656 14.8503 15.8446 15.041 15.9853 15.1817C16.1259 15.3223 16.3167 15.4014 16.5156 15.4014H19.2049L17.3033 17.3031C15.8956 18.7075 13.9884 19.4962 12 19.4962C10.0115 19.4962 8.10432 18.7075 6.69668 17.3031C6.556 17.1626 6.36529 17.0837 6.16647 17.0837C5.96764 17.0838 5.77698 17.1628 5.63639 17.3034C5.4958 17.444 5.41677 17.6346 5.41669 17.8335C5.41661 18.0323 5.49548 18.223 5.63596 18.3637C7.32513 20.049 9.61383 20.9955 12 20.9955C14.3861 20.9955 16.6748 20.049 18.364 18.3637L20.2656 16.462V19.1514C20.2656 19.3503 20.3446 19.541 20.4853 19.6817C20.626 19.8223 20.8167 19.9014 21.0156 19.9014C21.2145 19.9014 21.4053 19.8223 21.546 19.6817C21.6866 19.541 21.7656 19.3503 21.7656 19.1514V14.6518C21.7656 14.6269 21.7643 14.602 21.7619 14.5771Z" fill="#1D1F21" style="fill: var(--ui-icon-primary-color);"/>
</svg>
