<svg  viewBox="0 0 24 24" fill="none" xmlns="http://www.w3.org/2000/svg" id="__THIS_ID_NEEDS_FOR_UI_ICON_COMPONENT__">
<path d="M12.7501 3.75V20.25C12.7501 20.4489 12.6711 20.6397 12.5304 20.7803C12.3898 20.921 12.199 21 12.0001 21C11.8012 21 11.6104 20.921 11.4698 20.7803C11.3291 20.6397 11.2501 20.4489 11.2501 20.25V3.75C11.2501 3.55109 11.3291 3.36032 11.4698 3.21967C11.6104 3.07902 11.8012 3 12.0001 3C12.199 3 12.3898 3.07902 12.5304 3.21967C12.6711 3.36032 12.7501 3.55109 12.7501 3.75ZM9.0001 11.25H3.31079L5.03047 9.53036C5.17114 9.3897 5.25016 9.19892 5.25016 9C5.25016 8.80107 5.17113 8.61029 5.03047 8.46963C4.88981 8.32897 4.69903 8.24995 4.50011 8.24995C4.30118 8.24995 4.1104 8.32897 3.96974 8.46964L0.969739 11.4696C0.964429 11.4749 0.959943 11.4807 0.954862 11.4861C0.943097 11.4985 0.931331 11.511 0.920438 11.5242C0.911878 11.5346 0.904371 11.5455 0.896497 11.5562C0.889905 11.5652 0.882947 11.5738 0.876722 11.5831C0.868753 11.595 0.861799 11.6073 0.854612 11.6195C0.849393 11.6283 0.843808 11.6369 0.838956 11.646C0.832456 11.6581 0.826917 11.6706 0.821149 11.683C0.816526 11.6928 0.811586 11.7025 0.807368 11.7126C0.802469 11.7245 0.798441 11.7366 0.794184 11.7487C0.790246 11.7597 0.78599 11.7707 0.782559 11.782C0.778897 11.7941 0.776196 11.8063 0.773129 11.8185C0.770245 11.8301 0.766995 11.8414 0.76466 11.8532C0.761868 11.8674 0.760128 11.8817 0.75816 11.896C0.756787 11.906 0.754864 11.9157 0.753857 11.9258C0.748958 11.9751 0.748958 12.0249 0.753857 12.0743C0.754864 12.0843 0.756787 12.0941 0.75816 12.104C0.760129 12.1183 0.761868 12.1326 0.76466 12.1468C0.766995 12.1586 0.770245 12.1699 0.773129 12.1815C0.776196 12.1937 0.778897 12.2059 0.782559 12.218C0.785992 12.2293 0.790246 12.2403 0.794184 12.2513C0.798441 12.2634 0.802469 12.2755 0.807368 12.2874C0.811579 12.2975 0.816523 12.3072 0.821149 12.317C0.826917 12.3294 0.832456 12.3419 0.838956 12.354C0.843808 12.3631 0.849393 12.3717 0.854612 12.3805C0.861799 12.3927 0.868756 12.405 0.876722 12.4169C0.882947 12.4262 0.889905 12.4348 0.896497 12.4438C0.904372 12.4545 0.911878 12.4654 0.920438 12.4758C0.931333 12.489 0.943097 12.5015 0.954862 12.5139C0.959943 12.5193 0.964429 12.5251 0.969739 12.5304L3.96974 15.5304C4.1104 15.671 4.30118 15.7501 4.5001 15.7501C4.69903 15.7501 4.88981 15.671 5.03047 15.5304C5.17113 15.3897 5.25015 15.1989 5.25015 15C5.25015 14.8011 5.17113 14.6103 5.03047 14.4696L3.31079 12.75H9.0001C9.19902 12.75 9.38978 12.671 9.53043 12.5303C9.67109 12.3897 9.7501 12.1989 9.7501 12C9.7501 11.8011 9.67109 11.6103 9.53043 11.4697C9.38978 11.329 9.19902 11.25 9.0001 11.25ZM23.0798 12.4758C23.0883 12.4654 23.0958 12.4545 23.1037 12.4438C23.1103 12.4348 23.1173 12.4262 23.1235 12.4169C23.1315 12.405 23.1384 12.3927 23.1456 12.3805C23.1508 12.3717 23.1564 12.3631 23.1613 12.354C23.1678 12.3419 23.1733 12.3294 23.1791 12.317C23.1837 12.3072 23.1886 12.2975 23.1928 12.2874C23.1977 12.2755 23.2018 12.2634 23.206 12.2513C23.21 12.2403 23.2142 12.2293 23.2177 12.218C23.2213 12.2059 23.224 12.1937 23.2271 12.1815C23.23 12.1699 23.2332 12.1586 23.2355 12.1468C23.2383 12.1326 23.2401 12.1183 23.2421 12.104C23.2434 12.094 23.2453 12.0843 23.2464 12.0742C23.2513 12.0249 23.2513 11.9751 23.2464 11.9257C23.2453 11.9157 23.2434 11.9059 23.2421 11.896C23.2401 11.8817 23.2383 11.8674 23.2355 11.8532C23.2332 11.8414 23.23 11.8301 23.2271 11.8185C23.224 11.8063 23.2213 11.7941 23.2177 11.782C23.2142 11.7707 23.21 11.7597 23.206 11.7487C23.2018 11.7366 23.1977 11.7245 23.1928 11.7126C23.1886 11.7025 23.1837 11.6928 23.1791 11.683C23.1733 11.6706 23.1678 11.6581 23.1613 11.646C23.1564 11.6369 23.1508 11.6283 23.1456 11.6195C23.1384 11.6073 23.1315 11.595 23.1235 11.5831C23.1173 11.5738 23.1103 11.5652 23.1037 11.5562C23.0958 11.5455 23.0883 11.5346 23.0798 11.5242C23.0689 11.511 23.0571 11.4985 23.0453 11.4861C23.0403 11.4807 23.0358 11.4749 23.0305 11.4696L20.0305 8.46963C19.8898 8.32897 19.699 8.24995 19.5001 8.24995C19.3012 8.24995 19.1104 8.32897 18.9697 8.46963C18.8291 8.61029 18.7501 8.80107 18.7501 9C18.7501 9.19892 18.8291 9.3897 18.9697 9.53036L20.6894 11.25H15.0001C14.8012 11.25 14.6104 11.329 14.4698 11.4697C14.3291 11.6103 14.2501 11.8011 14.2501 12C14.2501 12.1989 14.3291 12.3897 14.4698 12.5303C14.6104 12.671 14.8012 12.75 15.0001 12.75H20.6894L18.9697 14.4696C18.8291 14.6103 18.7501 14.8011 18.7501 15C18.7501 15.1989 18.8291 15.3897 18.9697 15.5304C19.1104 15.671 19.3012 15.75 19.5001 15.75C19.699 15.75 19.8898 15.671 20.0305 15.5304L23.0305 12.5304C23.0358 12.5251 23.0403 12.5193 23.0453 12.5139C23.0571 12.5015 23.0689 12.489 23.0798 12.4758Z" fill="#1D1F21" style="fill: var(--ui-icon-primary-color);"/>
</svg>
