<svg  viewBox="0 0 24 24" fill="none" xmlns="http://www.w3.org/2000/svg" id="__THIS_ID_NEEDS_FOR_UI_ICON_COMPONENT__">
<path d="M21.693 12.463C21.6363 12.3259 21.5401 12.2088 21.4168 12.1264C21.2934 12.044 21.1484 12 21.0001 12H17.2501V9.75C17.2501 9.55109 17.1711 9.36032 17.0304 9.21967C16.8898 9.07902 16.699 9 16.5001 9H7.5001C7.30119 9 7.11043 9.07902 6.96978 9.21967C6.82912 9.36032 6.75011 9.55109 6.7501 9.75V12H3.0001C2.85176 12 2.70675 12.044 2.58341 12.1264C2.46007 12.2088 2.36394 12.326 2.30718 12.463C2.25041 12.6001 2.23556 12.7509 2.26451 12.8963C2.29345 13.0418 2.36489 13.1755 2.46978 13.2804L11.4698 22.2804C11.6104 22.421 11.8012 22.5 12.0001 22.5C12.199 22.5 12.3898 22.421 12.5304 22.2804L21.5304 13.2804C21.6353 13.1755 21.7068 13.0418 21.7357 12.8963C21.7646 12.7508 21.7498 12.6 21.693 12.463ZM12.0001 20.6894L4.81079 13.5H7.5001C7.69902 13.5 7.88978 13.421 8.03043 13.2803C8.17108 13.1397 8.2501 12.9489 8.2501 12.75V10.5H15.7501V12.75C15.7501 12.9489 15.8291 13.1397 15.9698 13.2803C16.1104 13.421 16.3012 13.5 16.5001 13.5H19.1894L12.0001 20.6894ZM6.7501 3.75C6.75011 3.55109 6.82912 3.36032 6.96978 3.21967C7.11043 3.07902 7.30119 3 7.5001 3H16.5001C16.699 3 16.8898 3.07902 17.0304 3.21967C17.1711 3.36032 17.2501 3.55109 17.2501 3.75C17.2501 3.94891 17.1711 4.13968 17.0304 4.28033C16.8898 4.42098 16.699 4.5 16.5001 4.5H7.5001C7.30119 4.5 7.11043 4.42098 6.96978 4.28033C6.82912 4.13968 6.75011 3.94891 6.7501 3.75ZM6.7501 6.75C6.75011 6.55109 6.82912 6.36032 6.96978 6.21967C7.11043 6.07902 7.30119 6 7.5001 6H16.5001C16.699 6 16.8898 6.07902 17.0304 6.21967C17.1711 6.36032 17.2501 6.55109 17.2501 6.75C17.2501 6.94891 17.1711 7.13968 17.0304 7.28033C16.8898 7.42098 16.699 7.5 16.5001 7.5H7.5001C7.30119 7.5 7.11043 7.42098 6.96978 7.28033C6.82912 7.13968 6.75011 6.94891 6.7501 6.75Z" fill="#1D1F21" style="fill: var(--ui-icon-primary-color);"/>
</svg>
