<svg  viewBox="0 0 24 24" fill="none" xmlns="http://www.w3.org/2000/svg" id="__THIS_ID_NEEDS_FOR_UI_ICON_COMPONENT__">
<path d="M21.5304 9.53032C21.3897 9.67098 21.1989 9.75 21 9.75C20.8011 9.75 20.6103 9.67098 20.4696 9.53032L17.25 6.31065V18C17.25 18.1989 17.171 18.3897 17.0303 18.5303C16.8897 18.671 16.6989 18.75 16.5 18.75H3C2.80109 18.75 2.61032 18.671 2.46967 18.5303C2.32902 18.3897 2.25 18.1989 2.25 18C2.25 17.8011 2.32902 17.6103 2.46967 17.4697C2.61032 17.329 2.80109 17.25 3 17.25H15.75V6.31065L12.5304 9.53032C12.3897 9.67098 12.199 9.75001 12 9.75002C11.8011 9.75003 11.6103 9.67101 11.4697 9.53036C11.329 9.38972 11.25 9.19895 11.25 9.00003C11.25 8.80112 11.329 8.61034 11.4696 8.46968L15.9696 3.96968C15.9711 3.96817 15.9728 3.96693 15.9743 3.96543C15.9904 3.94961 16.0071 3.93439 16.0246 3.92005C16.0334 3.91281 16.0427 3.90652 16.0517 3.89975C16.0623 3.89185 16.0726 3.88367 16.0836 3.87633C16.0942 3.86924 16.1052 3.86309 16.1161 3.85659C16.1262 3.85054 16.1361 3.84417 16.1466 3.83858C16.1575 3.83273 16.1688 3.82777 16.1799 3.82251C16.191 3.81727 16.2018 3.81178 16.2132 3.80708C16.2238 3.80267 16.2347 3.79913 16.2455 3.79524C16.2578 3.7908 16.2699 3.78609 16.2825 3.78229C16.2932 3.77907 16.304 3.77673 16.3148 3.77399C16.3277 3.77071 16.3405 3.76711 16.3537 3.76451C16.3659 3.76209 16.3782 3.76069 16.3906 3.75888C16.4024 3.75713 16.4142 3.7549 16.4262 3.75373C16.448 3.75158 16.4699 3.75066 16.4917 3.75041C16.4945 3.75039 16.4972 3.75 16.5 3.75C16.5028 3.75 16.5055 3.75039 16.5083 3.75041C16.5302 3.75066 16.552 3.75158 16.5738 3.75373C16.5858 3.7549 16.5976 3.75713 16.6095 3.75888C16.6218 3.76069 16.6341 3.76209 16.6463 3.76451C16.6595 3.76711 16.6723 3.7707 16.6852 3.77399C16.696 3.77673 16.7068 3.77907 16.7175 3.78229C16.7301 3.78609 16.7422 3.7908 16.7545 3.79524C16.7653 3.79913 16.7762 3.80267 16.7868 3.80708C16.7982 3.81177 16.809 3.81727 16.8201 3.82251C16.8312 3.82777 16.8425 3.83273 16.8534 3.83858C16.8639 3.84417 16.8738 3.85054 16.8839 3.85659C16.8948 3.86309 16.9058 3.86924 16.9164 3.87633C16.9274 3.88367 16.9377 3.89185 16.9483 3.89975C16.9573 3.90652 16.9666 3.91281 16.9754 3.92005C16.9929 3.93439 17.0096 3.94961 17.0257 3.96543C17.0272 3.96693 17.0289 3.96817 17.0304 3.96968L21.5304 8.46968C21.671 8.61033 21.75 8.80109 21.75 9C21.75 9.19891 21.671 9.38967 21.5304 9.53032Z" fill="#1D1F21" style="fill: var(--ui-icon-primary-color);"/>
</svg>
