<svg  viewBox="0 0 24 24" fill="none" xmlns="http://www.w3.org/2000/svg" id="__THIS_ID_NEEDS_FOR_UI_ICON_COMPONENT__">
<path d="M20.25 3.75H3.75C3.35231 3.75045 2.97105 3.90864 2.68984 4.18984C2.40864 4.47105 2.25045 4.85231 2.25 5.25V18.75C2.25045 19.1477 2.40864 19.529 2.68984 19.8102C2.97105 20.0914 3.35231 20.2495 3.75 20.25H20.25C20.6477 20.2495 21.029 20.0914 21.3102 19.8102C21.5914 19.529 21.7495 19.1477 21.75 18.75V5.25C21.7495 4.85231 21.5914 4.47105 21.3102 4.18984C21.029 3.90864 20.6477 3.75045 20.25 3.75ZM20.25 18.75H3.75V5.25H20.25L20.2509 18.75H20.25ZM17.625 9C17.625 9.19891 17.546 9.38967 17.4053 9.53032C17.2647 9.67097 17.0739 9.74999 16.875 9.75H7.125C6.92609 9.75 6.73532 9.67098 6.59467 9.53033C6.45402 9.38968 6.375 9.19891 6.375 9C6.375 8.80109 6.45402 8.61032 6.59467 8.46967C6.73532 8.32902 6.92609 8.25 7.125 8.25H16.875C17.0739 8.25001 17.2647 8.32903 17.4053 8.46968C17.546 8.61033 17.625 8.80109 17.625 9ZM17.625 12C17.625 12.1989 17.546 12.3897 17.4053 12.5303C17.2647 12.671 17.0739 12.75 16.875 12.75H7.125C6.92609 12.75 6.73532 12.671 6.59467 12.5303C6.45402 12.3897 6.375 12.1989 6.375 12C6.375 11.8011 6.45402 11.6103 6.59467 11.4697C6.73532 11.329 6.92609 11.25 7.125 11.25H16.875C17.0739 11.25 17.2647 11.329 17.4053 11.4697C17.546 11.6103 17.625 11.8011 17.625 12ZM17.625 15C17.625 15.1989 17.546 15.3897 17.4053 15.5303C17.2647 15.671 17.0739 15.75 16.875 15.75H7.125C6.92609 15.75 6.73532 15.671 6.59467 15.5303C6.45402 15.3897 6.375 15.1989 6.375 15C6.375 14.8011 6.45402 14.6103 6.59467 14.4697C6.73532 14.329 6.92609 14.25 7.125 14.25H16.875C17.0739 14.25 17.2647 14.329 17.4053 14.4697C17.546 14.6103 17.625 14.8011 17.625 15Z" fill="#1D1F21" style="fill: var(--ui-icon-primary-color);"/>
</svg>
