<svg  viewBox="0 0 24 24" fill="none" xmlns="http://www.w3.org/2000/svg" id="__THIS_ID_NEEDS_FOR_UI_ICON_COMPONENT__">
<path d="M12.0004 2.24951C10.4793 2.24978 8.97944 2.60592 7.62064 3.28944C6.26184 3.97297 5.0818 4.96492 4.17487 6.186C3.26794 7.40708 2.65928 8.82341 2.39754 10.3218C2.13581 11.8201 2.22826 13.3589 2.66751 14.8151C3.10676 16.2714 3.88062 17.6046 4.92722 18.7084C5.97383 19.8121 7.26414 20.6556 8.69501 21.1715C10.1259 21.6874 11.6576 21.8614 13.1677 21.6796C14.6779 21.4977 16.1245 20.9651 17.392 20.1243C17.5574 20.014 17.6723 19.8427 17.7114 19.6478C17.7505 19.4529 17.7107 19.2504 17.6006 19.0849C17.4906 18.9194 17.3193 18.8043 17.1245 18.765C16.9297 18.7256 16.7272 18.7653 16.5615 18.8751C15.0298 19.8915 13.2026 20.3673 11.3697 20.2269C9.53685 20.0866 7.80334 19.3382 6.44424 18.1005C5.08514 16.8628 4.1783 15.2066 3.86759 13.3948C3.55688 11.5831 3.86011 9.7194 4.72917 8.09957C5.59822 6.47975 6.98332 5.19653 8.6647 4.45353C10.3461 3.71052 12.2274 3.55029 14.0102 3.99825C15.7931 4.44621 17.3752 5.4767 18.5057 6.92623C19.6362 8.37575 20.2502 10.1613 20.2504 11.9995C20.2504 14.479 19.2307 14.9995 18.3754 14.9995C17.52 14.9995 16.5004 14.479 16.5004 11.9995V8.24951C16.5004 8.0506 16.4213 7.85983 16.2807 7.71918C16.14 7.57853 15.9493 7.49951 15.7504 7.49951C15.5514 7.49951 15.3607 7.57853 15.22 7.71918C15.0794 7.85983 15.0004 8.0506 15.0004 8.24951V8.64898C14.3273 8.04562 13.4881 7.65894 12.5922 7.53932C11.6962 7.41969 10.785 7.57267 9.97722 7.97833C9.16945 8.38398 8.50256 9.0235 8.06344 9.81358C7.62433 10.6037 7.43333 11.5077 7.51533 12.4079C7.59733 13.308 7.94854 14.1627 8.52319 14.8604C9.09785 15.5581 9.86931 16.0666 10.7371 16.3196C11.6049 16.5727 12.5287 16.5585 13.3883 16.2789C14.2479 15.9994 15.0034 15.4674 15.5564 14.7524C16.1192 15.8754 17.0891 16.4995 18.3754 16.4995C20.4887 16.4995 21.7504 14.8172 21.7504 11.9995C21.7474 9.41455 20.7193 6.9363 18.8914 5.10845C17.0636 3.28061 14.5853 2.25244 12.0004 2.24951ZM12.0004 14.9995C11.407 14.9995 10.827 14.8236 10.3336 14.4939C9.8403 14.1643 9.45578 13.6957 9.22872 13.1476C9.00166 12.5994 8.94225 11.9962 9.058 11.4142C9.17376 10.8323 9.45948 10.2977 9.87904 9.87819C10.2986 9.45863 10.8331 9.17291 11.4151 9.05716C11.997 8.9414 12.6002 9.00081 13.1484 9.22787C13.6966 9.45494 14.1651 9.83945 14.4948 10.3328C14.8244 10.8261 15.0004 11.4062 15.0004 11.9995C14.9994 12.7949 14.6831 13.5574 14.1207 14.1198C13.5583 14.6822 12.7957 14.9986 12.0004 14.9995Z" fill="#1D1F21" style="fill: var(--ui-icon-primary-color);"/>
</svg>
