<svg  viewBox="0 0 24 24" fill="none" xmlns="http://www.w3.org/2000/svg" id="__THIS_ID_NEEDS_FOR_UI_ICON_COMPONENT__">
<path d="M11.25 13.125V9.375C11.25 9.17609 11.329 8.98532 11.4697 8.84467C11.6103 8.70402 11.8011 8.625 12 8.625C12.1989 8.625 12.3897 8.70402 12.5303 8.84467C12.671 8.98532 12.75 9.17609 12.75 9.375V13.125C12.75 13.3239 12.671 13.5147 12.5303 13.6553C12.3897 13.796 12.1989 13.875 12 13.875C11.8011 13.875 11.6103 13.796 11.4697 13.6553C11.329 13.5147 11.25 13.3239 11.25 13.125ZM9 2.25H15C15.1989 2.25 15.3897 2.17098 15.5303 2.03033C15.671 1.88968 15.75 1.69891 15.75 1.5C15.75 1.30109 15.671 1.11032 15.5303 0.96967C15.3897 0.829018 15.1989 0.75 15 0.75H9C8.80109 0.75 8.61032 0.829018 8.46967 0.96967C8.32902 1.11032 8.25 1.30109 8.25 1.5C8.25 1.69891 8.32902 1.88968 8.46967 2.03033C8.61032 2.17098 8.80109 2.25 9 2.25ZM19.5 6V20.25C19.4993 20.8465 19.262 21.4184 18.8402 21.8402C18.4184 22.262 17.8465 22.4993 17.25 22.5H6.75C6.15347 22.4993 5.58157 22.262 5.15976 21.8402C4.73795 21.4184 4.50068 20.8465 4.5 20.25V6C4.50068 5.40347 4.73795 4.83157 5.15976 4.40976C5.58157 3.98795 6.15347 3.75068 6.75 3.75H17.25C17.8465 3.75068 18.4184 3.98795 18.8402 4.40976C19.262 4.83157 19.4993 5.40347 19.5 6ZM18 6C17.9998 5.80116 17.9207 5.61052 17.7801 5.46992C17.6395 5.32932 17.4488 5.25023 17.25 5.25H6.75C6.55116 5.25023 6.36052 5.32932 6.21992 5.46992C6.07932 5.61052 6.00023 5.80116 6 6V20.25C6.00023 20.4488 6.07932 20.6395 6.21992 20.7801C6.36052 20.9207 6.55116 20.9998 6.75 21H17.25C17.4488 20.9998 17.6395 20.9207 17.7801 20.7801C17.9207 20.6395 17.9998 20.4488 18 20.25V6ZM12 15.375C11.7775 15.375 11.56 15.441 11.375 15.5646C11.19 15.6882 11.0458 15.8639 10.9606 16.0695C10.8755 16.275 10.8532 16.5012 10.8966 16.7195C10.94 16.9377 11.0472 17.1382 11.2045 17.2955C11.3618 17.4528 11.5623 17.56 11.7805 17.6034C11.9988 17.6468 12.225 17.6245 12.4305 17.5394C12.6361 17.4542 12.8118 17.31 12.9354 17.125C13.059 16.94 13.125 16.7225 13.125 16.5C13.1247 16.2017 13.006 15.9158 12.7951 15.7049C12.5842 15.494 12.2983 15.3753 12 15.375Z" fill="#1D1F21" style="fill: var(--ui-icon-primary-color);"/>
</svg>
