<svg  viewBox="0 0 24 24" fill="none" xmlns="http://www.w3.org/2000/svg" id="__THIS_ID_NEEDS_FOR_UI_ICON_COMPONENT__">
<path d="M17.7 15.9004L12.5001 12.0005L17.7 8.10052C17.7931 8.03065 17.8687 7.94006 17.9208 7.83591C17.9729 7.73177 18 7.61692 18 7.50048C18 7.38404 17.9729 7.2692 17.9208 7.16505C17.8687 7.0609 17.7931 6.97031 17.7 6.90045L11.7 2.40045C11.5885 2.31689 11.4561 2.26601 11.3173 2.25351C11.1786 2.24102 11.0392 2.26739 10.9146 2.32968C10.79 2.39197 10.6852 2.48772 10.612 2.6062C10.5388 2.72468 10.5 2.8612 10.5 3.00048V10.5004L5.69998 6.90045C5.62118 6.84136 5.53152 6.79836 5.43611 6.77392C5.34069 6.74948 5.2414 6.74408 5.1439 6.75801C4.94698 6.78615 4.76931 6.89136 4.64996 7.0505C4.53062 7.20964 4.47939 7.40967 4.50753 7.60659C4.53567 7.80351 4.64088 7.98118 4.80002 8.10052L9.99994 12.0005L4.80002 15.9004C4.64088 16.0198 4.53567 16.1975 4.50753 16.3944C4.47939 16.5913 4.53062 16.7913 4.64996 16.9505C4.76931 17.1096 4.94698 17.2148 5.1439 17.243C5.34081 17.2711 5.54084 17.2199 5.69998 17.1005L10.5 13.5005V21.0005C10.5 21.1398 10.5388 21.2763 10.612 21.3948C10.6852 21.5133 10.79 21.609 10.9146 21.6713C11.0392 21.7336 11.1786 21.76 11.3173 21.7475C11.4561 21.735 11.5885 21.6841 11.7 21.6005L17.7 17.1005C17.7931 17.0307 17.8687 16.9401 17.9208 16.8359C17.9729 16.7318 18 16.6169 18 16.5005C18 16.384 17.9729 16.2692 17.9208 16.1651C17.8687 16.0609 17.7931 15.9703 17.7 15.9005V15.9004ZM12 4.50048L16 7.50048L12 10.5005V4.50048ZM12 19.5005V13.5005L16 16.5005L12 19.5005ZM19.5 12.0005C19.5 12.223 19.434 12.4405 19.3104 12.6255C19.1868 12.8105 19.0111 12.9547 18.8055 13.0398C18.6 13.125 18.3738 13.1473 18.1555 13.1039C17.9373 13.0605 17.7368 12.9533 17.5795 12.796C17.4222 12.6386 17.315 12.4382 17.2716 12.22C17.2282 12.0017 17.2505 11.7755 17.3356 11.57C17.4208 11.3644 17.565 11.1887 17.75 11.0651C17.935 10.9415 18.1525 10.8755 18.375 10.8755C18.6733 10.8758 18.9592 10.9945 19.1701 11.2054C19.381 11.4163 19.4997 11.7022 19.5 12.0005ZM4.875 13.1255C4.6525 13.1255 4.43499 13.0595 4.24998 12.9359C4.06498 12.8123 3.92078 12.6366 3.83564 12.431C3.75049 12.2254 3.72821 11.9992 3.77162 11.781C3.81503 11.5628 3.92217 11.3623 4.07951 11.205C4.23684 11.0477 4.4373 10.9405 4.65552 10.8971C4.87375 10.8537 5.09995 10.876 5.30552 10.9611C5.51109 11.0463 5.68679 11.1905 5.8104 11.3755C5.93402 11.5605 6 11.778 6 12.0005C5.99967 12.2987 5.88103 12.5847 5.67013 12.7956C5.45922 13.0065 5.17327 13.1251 4.875 13.1255Z" fill="#1D1F21" style="fill: var(--ui-icon-primary-color);"/>
</svg>
