<svg  viewBox="0 0 24 24" fill="none" xmlns="http://www.w3.org/2000/svg" id="__THIS_ID_NEEDS_FOR_UI_ICON_COMPONENT__">
<path d="M19.5 5.25H16.9008L15.6235 3.33398C15.555 3.23125 15.4622 3.14701 15.3533 3.08875C15.2445 3.03048 15.1229 3 14.9995 3H8.99945C8.87598 3 8.75442 3.03048 8.64556 3.08875C8.5367 3.14701 8.44391 3.23125 8.37543 3.33398L7.09808 5.25H4.5C3.90347 5.25068 3.33157 5.48795 2.90976 5.90976C2.48795 6.33157 2.25068 6.90347 2.25 7.5V18C2.25068 18.5965 2.48795 19.1684 2.90976 19.5902C3.33157 20.012 3.90347 20.2493 4.5 20.25H19.5C20.0965 20.2493 20.6684 20.012 21.0902 19.5902C21.512 19.1684 21.7493 18.5965 21.75 18V7.5C21.7493 6.90347 21.512 6.33157 21.0902 5.90976C20.6684 5.48795 20.0965 5.25068 19.5 5.25ZM20.25 18C20.2498 18.1988 20.1707 18.3895 20.0301 18.5301C19.8895 18.6707 19.6988 18.7498 19.5 18.75H4.5C4.30116 18.7498 4.11052 18.6707 3.96992 18.5301C3.82932 18.3895 3.75023 18.1988 3.75 18V7.5C3.75023 7.30116 3.82932 7.11052 3.96992 6.96992C4.11052 6.82932 4.30116 6.75023 4.5 6.75H7.49945C7.62292 6.75 7.74448 6.71952 7.85334 6.66125C7.9622 6.60299 8.05499 6.51875 8.12347 6.41602L9.40082 4.5H14.5981L15.8754 6.41602C15.9439 6.51875 16.0367 6.60299 16.1456 6.66125C16.2544 6.71952 16.376 6.75 16.4995 6.75H19.5C19.6988 6.75023 19.8895 6.82932 20.0301 6.96992C20.1707 7.11052 20.2498 7.30116 20.25 7.5V18ZM12 8.25C11.1842 8.25 10.3866 8.49193 9.70827 8.94519C9.02992 9.39845 8.50121 10.0427 8.189 10.7964C7.87679 11.5502 7.7951 12.3796 7.95426 13.1797C8.11343 13.9799 8.50629 14.7149 9.08318 15.2918C9.66008 15.8687 10.3951 16.2616 11.1953 16.4207C11.9954 16.5799 12.8248 16.4982 13.5786 16.186C14.3323 15.8738 14.9766 15.3451 15.4298 14.6667C15.8831 13.9884 16.125 13.1908 16.125 12.375C16.1238 11.2814 15.6888 10.2329 14.9155 9.45955C14.1421 8.68623 13.0936 8.25124 12 8.25ZM12 15C11.4808 15 10.9733 14.846 10.5416 14.5576C10.1099 14.2692 9.7735 13.8592 9.57482 13.3795C9.37614 12.8999 9.32415 12.3721 9.42544 11.8629C9.52672 11.3537 9.77673 10.886 10.1438 10.5188C10.511 10.1517 10.9787 9.90172 11.4879 9.80044C11.9971 9.69915 12.5249 9.75114 13.0045 9.94982C13.4842 10.1485 13.8942 10.4849 14.1826 10.9166C14.471 11.3483 14.625 11.8558 14.625 12.375C14.6242 13.071 14.3474 13.7382 13.8553 14.2303C13.3632 14.7224 12.696 14.9992 12 15Z" fill="#1D1F21" style="fill: var(--ui-icon-primary-color);"/>
</svg>
