<svg  viewBox="0 0 24 24" fill="none" xmlns="http://www.w3.org/2000/svg" id="__THIS_ID_NEEDS_FOR_UI_ICON_COMPONENT__">
<path d="M13.2804 12.5302L5.78037 20.0302C5.63969 20.1707 5.44897 20.2496 5.25015 20.2495C5.05132 20.2495 4.86065 20.1705 4.72006 20.0299C4.57947 19.8893 4.50046 19.6986 4.5004 19.4998C4.50033 19.301 4.57923 19.1103 4.71973 18.9696L11.6894 11.9999L4.71973 5.03022C4.57923 4.88954 4.50033 4.69882 4.5004 4.49999C4.50046 4.30117 4.57947 4.1105 4.72006 3.96991C4.86065 3.82932 5.05132 3.75031 5.25015 3.75024C5.44897 3.75018 5.63969 3.82907 5.78037 3.96958L13.2804 11.4696C13.35 11.5392 13.4053 11.6219 13.443 11.7129C13.4807 11.8039 13.5001 11.9014 13.5001 11.9999C13.5001 12.0984 13.4807 12.1959 13.443 12.2869C13.4053 12.3779 13.35 12.4606 13.2804 12.5302ZM20.7804 11.4696L13.2804 3.96958C13.1397 3.82907 12.949 3.75018 12.7501 3.75024C12.5513 3.75031 12.3607 3.82932 12.2201 3.96991C12.0795 4.1105 12.0005 4.30117 12.0004 4.49999C12.0003 4.69882 12.0792 4.88954 12.2197 5.03022L19.1894 11.9999L12.2197 18.9696C12.15 19.0392 12.0947 19.1219 12.057 19.2129C12.0192 19.3039 11.9998 19.4015 11.9997 19.5C11.9997 19.5985 12.0191 19.6961 12.0568 19.7871C12.0945 19.8782 12.1497 19.9609 12.2194 20.0305C12.2891 20.1002 12.3718 20.1555 12.4628 20.1932C12.5539 20.2309 12.6514 20.2502 12.7499 20.2502C12.8485 20.2502 12.946 20.2307 13.037 20.193C13.1281 20.1552 13.2107 20.0999 13.2804 20.0302L20.7804 12.5302C20.85 12.4606 20.9053 12.3779 20.943 12.2869C20.9807 12.1959 21.0001 12.0984 21.0001 11.9999C21.0001 11.9014 20.9807 11.8039 20.943 11.7129C20.9053 11.6219 20.85 11.5392 20.7804 11.4696Z" fill="#1D1F21" style="fill: var(--ui-icon-primary-color);"/>
</svg>
