<svg  viewBox="0 0 24 24" fill="none" xmlns="http://www.w3.org/2000/svg" id="__THIS_ID_NEEDS_FOR_UI_ICON_COMPONENT__">
<path d="M10.4167 16.1667C10.3343 16.1667 10.2537 16.1422 10.1852 16.0964C10.1167 16.0506 10.0633 15.9856 10.0317 15.9094C10.0002 15.8333 9.99193 15.7495 10.008 15.6687C10.0241 15.5879 10.0638 15.5136 10.122 15.4554L13.9941 11.5833L10.122 7.7113C10.0439 7.63316 10 7.52718 10 7.41668C10 7.30617 10.0439 7.20019 10.122 7.12205C10.2002 7.0439 10.3062 7 10.4167 7C10.5272 7 10.6331 7.04389 10.7113 7.12203L14.8779 11.2887C14.9166 11.3274 14.9473 11.3733 14.9683 11.4239C14.9892 11.4744 15 11.5286 15 11.5833C15 11.638 14.9892 11.6922 14.9683 11.7428C14.9473 11.7933 14.9166 11.8393 14.8779 11.878L10.7113 16.0446C10.6726 16.0834 10.6267 16.1141 10.5762 16.135C10.5256 16.156 10.4714 16.1667 10.4167 16.1667V16.1667Z"  fill="#1D1F21" style="fill: var(--ui-icon-primary-color);"/>
</svg>
