<svg  viewBox="0 0 24 24" fill="none" xmlns="http://www.w3.org/2000/svg" id="__THIS_ID_NEEDS_FOR_UI_ICON_COMPONENT__">
<path d="M12.1641 8.8355C12.0945 8.76585 12.0392 8.68317 12.0015 8.59217C11.9639 8.50117 11.9445 8.40364 11.9445 8.30514C11.9445 8.20664 11.9639 8.10911 12.0015 8.0181C12.0392 7.9271 12.0945 7.84442 12.1641 7.77477L16.9393 2.99966C17.1491 2.78987 17.4164 2.647 17.7073 2.58912C17.9983 2.53125 18.2999 2.56096 18.574 2.6745C18.8481 2.78804 19.0824 2.98031 19.2472 3.227C19.412 3.47369 19.5 3.76371 19.4999 4.06039V14.9662C19.4999 15.1652 19.4209 15.3559 19.2803 15.4966C19.1396 15.6372 18.9489 15.7162 18.7499 15.7162C18.551 15.7162 18.3603 15.6372 18.2196 15.4966C18.079 15.3559 17.9999 15.1652 17.9999 14.9662V4.06103L13.2248 8.8355C13.0841 8.97615 12.8934 9.05516 12.6945 9.05516C12.4956 9.05516 12.3048 8.97615 12.1641 8.8355ZM20.0684 20.7383C20.0604 20.7476 20.0521 20.7566 20.0436 20.7656C20.0347 20.775 20.0257 20.7841 20.0164 20.793C20.0121 20.797 20.0083 20.8015 20.0039 20.8055C19.9993 20.8097 19.9942 20.8133 19.9894 20.8175C19.9807 20.825 19.9718 20.8324 19.9628 20.8395C19.9528 20.8473 19.9427 20.8549 19.9325 20.8621C19.9235 20.8685 19.9143 20.8747 19.905 20.8807C19.8941 20.8878 19.883 20.8945 19.8718 20.9009C19.8626 20.9062 19.8532 20.9114 19.8437 20.9163C19.832 20.9224 19.8202 20.928 19.8083 20.9334C19.7986 20.9378 19.7888 20.9421 19.7789 20.9461C19.7668 20.9509 19.7545 20.9553 19.7422 20.9595C19.732 20.963 19.7219 20.9665 19.7116 20.9696C19.6987 20.9733 19.6858 20.9764 19.6729 20.9795C19.6627 20.9819 19.6527 20.9845 19.6424 20.9865C19.6276 20.9894 19.6127 20.9913 19.5979 20.9933C19.5892 20.9944 19.5806 20.996 19.5718 20.9968C19.5478 20.9991 19.5237 21.0005 19.4997 21.0005H19.4994L2.56054 20.9997C2.26387 20.9997 1.97386 20.9117 1.72719 20.7469C1.48052 20.582 1.28827 20.3478 1.17475 20.0737C1.06122 19.7996 1.03152 19.498 1.08941 19.207C1.14729 18.9161 1.29016 18.6488 1.49995 18.439L9.53468 10.4043L3.9445 4.25503C3.87815 4.18217 3.8268 4.09694 3.79341 4.00423C3.76001 3.91152 3.74521 3.81313 3.74985 3.7147C3.75449 3.61626 3.77849 3.51971 3.82047 3.43055C3.86244 3.3414 3.92158 3.26138 3.99449 3.19509C4.06741 3.1288 4.15267 3.07753 4.24541 3.0442C4.33815 3.01088 4.43655 2.99616 4.53498 3.00088C4.63341 3.0056 4.72994 3.02967 4.81907 3.07172C4.90819 3.11377 4.98815 3.17297 5.05439 3.24593L20.0544 19.7459C20.0583 19.7503 20.0616 19.755 20.0654 19.7594C20.0742 19.7695 20.0826 19.7798 20.0908 19.7903C20.098 19.7996 20.1051 19.8089 20.1118 19.8184C20.1191 19.8287 20.126 19.8392 20.1327 19.8498C20.1393 19.8602 20.1457 19.8705 20.1517 19.8811C20.1577 19.8916 20.1632 19.9023 20.1686 19.9131C20.1742 19.9242 20.1797 19.9353 20.1847 19.9466C20.1896 19.9576 20.194 19.9688 20.1984 19.98C20.2028 19.9915 20.2072 20.003 20.211 20.0146C20.2148 20.0261 20.2182 20.0379 20.2214 20.0496C20.2247 20.0615 20.2279 20.0733 20.2306 20.0853C20.2332 20.097 20.2354 20.1088 20.2374 20.1206C20.2396 20.1332 20.2417 20.1458 20.2432 20.1584C20.2446 20.1698 20.2456 20.1813 20.2465 20.1929C20.2476 20.2064 20.2483 20.2199 20.2486 20.2334C20.2487 20.2391 20.2494 20.2447 20.2494 20.2505C20.2494 20.2563 20.2487 20.2618 20.2486 20.2675C20.2483 20.2807 20.2476 20.2939 20.2466 20.3071C20.2457 20.3191 20.2446 20.3311 20.2431 20.343C20.2417 20.3549 20.2398 20.3667 20.2377 20.3785C20.2355 20.3912 20.2332 20.4038 20.2304 20.4164C20.2279 20.4274 20.225 20.4382 20.222 20.4491C20.2185 20.4617 20.215 20.4743 20.2109 20.4866C20.2073 20.4976 20.2031 20.5083 20.199 20.5192C20.1945 20.5308 20.19 20.5424 20.185 20.5538C20.18 20.5651 20.1744 20.5762 20.1688 20.5874C20.1636 20.5977 20.1584 20.608 20.1528 20.6181C20.1464 20.6294 20.1394 20.6405 20.1324 20.6516C20.1264 20.6611 20.1204 20.6705 20.114 20.6797C20.1065 20.6903 20.0987 20.7006 20.0906 20.7109C20.0834 20.7202 20.076 20.7294 20.0684 20.7383ZM2.56113 19.4992L17.8039 19.5003L10.5449 11.5154L2.56113 19.4992Z" fill="#1D1F21" style="fill: var(--ui-icon-primary-color);"/>
</svg>
