<svg  viewBox="0 0 24 24" fill="none" xmlns="http://www.w3.org/2000/svg" id="__THIS_ID_NEEDS_FOR_UI_ICON_COMPONENT__">
<path d="M21.375 18.75H20.625V3.75C20.625 3.65151 20.6056 3.55398 20.5679 3.46298C20.5302 3.37199 20.475 3.28931 20.4053 3.21966C20.3357 3.15002 20.253 3.09477 20.162 3.05708C20.071 3.01939 19.9735 3 19.875 3H14.625C14.5265 3 14.429 3.01939 14.338 3.05708C14.247 3.09477 14.1643 3.15002 14.0947 3.21966C14.025 3.28931 13.9698 3.37199 13.9321 3.46298C13.8944 3.55398 13.875 3.65151 13.875 3.75V7.5H9.375C9.27651 7.5 9.17898 7.51939 9.08798 7.55708C8.99699 7.59477 8.91431 7.65002 8.84466 7.71966C8.77502 7.78931 8.71977 7.87199 8.68208 7.96298C8.64439 8.05398 8.625 8.15151 8.625 8.25V12H4.125C4.02651 12 3.92898 12.0194 3.83798 12.0571C3.74699 12.0948 3.66431 12.15 3.59466 12.2197C3.52502 12.2893 3.46977 12.372 3.43208 12.463C3.39439 12.554 3.375 12.6515 3.375 12.75V18.75H2.625C2.42609 18.75 2.23532 18.829 2.09467 18.9697C1.95402 19.1103 1.875 19.3011 1.875 19.5C1.875 19.6989 1.95402 19.8897 2.09467 20.0303C2.23532 20.171 2.42609 20.25 2.625 20.25H21.375C21.5739 20.25 21.7647 20.171 21.9053 20.0303C22.046 19.8897 22.125 19.6989 22.125 19.5C22.125 19.3011 22.046 19.1103 21.9053 18.9697C21.7647 18.829 21.5739 18.75 21.375 18.75ZM10.125 9H13.875V18.75H10.125V9ZM4.875 13.5H8.625V18.75H4.875V13.5ZM15.375 18.75V4.5H19.125V18.75H15.375Z" fill="#1D1F21" style="fill: var(--ui-icon-primary-color);"/>
</svg>
