<svg  viewBox="0 0 24 24" fill="none" xmlns="http://www.w3.org/2000/svg" id="__THIS_ID_NEEDS_FOR_UI_ICON_COMPONENT__">
<path d="M20.4631 7.16207C20.4568 7.14957 20.4511 7.13694 20.444 7.12467C20.4344 7.1081 20.4238 7.09258 20.4132 7.07706C19.1125 4.85191 16.9834 3.23247 14.4918 2.57302C12.0002 1.91356 9.34877 2.26777 7.11763 3.55816C4.88648 4.84855 3.25721 6.97007 2.58624 9.45862C1.91527 11.9472 2.25721 14.6002 3.53726 16.8373C3.54358 16.8498 3.54933 16.8624 3.55642 16.8747C3.56313 16.8863 3.5713 16.8965 3.57851 16.9076C4.87607 19.1363 7.00394 20.7599 9.49613 21.423C11.9883 22.0861 14.6417 21.7346 16.8753 20.4454C19.1088 19.1562 20.7405 17.0345 21.4129 14.5448C22.0854 12.0552 21.7439 9.40046 20.4631 7.16207ZM18.7377 7.24378L12.7502 10.7006V3.78414C13.9391 3.89339 15.0901 4.25929 16.1238 4.85658C17.1575 5.45388 18.0493 6.26834 18.7377 7.24378ZM11.2502 3.78414V11.5667L4.5109 15.4576C3.95676 14.2584 3.69878 12.9436 3.75867 11.6239C3.81857 10.3043 4.19458 9.01827 4.85507 7.8742C5.51557 6.73013 6.44121 5.76145 7.55411 5.04969C8.66701 4.33792 9.93459 3.9039 11.2502 3.78414ZM12.0002 20.2497C10.6794 20.2494 9.37802 19.9319 8.20554 19.3239C7.03306 18.7158 6.02379 17.835 5.26269 16.7556L19.4895 8.54177C20.0703 9.79867 20.3253 11.1816 20.2311 12.5629C20.1368 13.9443 19.6964 15.2798 18.9502 16.4462C18.2041 17.6125 17.1764 18.5723 15.9618 19.237C14.7472 19.9017 13.3848 20.25 12.0002 20.2497Z" fill="#1D1F21" style="fill: var(--ui-icon-primary-color);"/>
</svg>
