<svg  viewBox="0 0 24 24" fill="none" xmlns="http://www.w3.org/2000/svg" id="__THIS_ID_NEEDS_FOR_UI_ICON_COMPONENT__">
<path d="M20.2501 4.50049H3.75014C3.35246 4.50094 2.97119 4.65912 2.68999 4.94033C2.40878 5.22153 2.2506 5.6028 2.25015 6.00048V20.8902C2.24843 21.1762 2.32929 21.4566 2.48304 21.6978C2.63678 21.939 2.85687 22.1307 3.11688 22.2499C3.31633 22.3434 3.53387 22.3921 3.75417 22.3925C4.10637 22.3918 4.44692 22.2663 4.71538 22.0384L7.69248 19.5357L7.78925 19.5004H20.2501C20.6478 19.5 21.029 19.3418 21.3102 19.0606C21.5915 18.7794 21.7496 18.3981 21.7501 18.0004V6.00049C21.7496 5.6028 21.5914 5.22154 21.3102 4.94033C21.029 4.65912 20.6478 4.50094 20.2501 4.50049ZM20.2501 18.0004H7.65687C7.56928 18.0004 7.48236 18.0158 7.40006 18.0458L7.05445 18.1717C6.97215 18.2017 6.89573 18.2459 6.82868 18.3023L3.75014 20.8902V6.00048H20.2501V18.0004ZM8.25013 10.5004C8.25013 10.3015 8.32915 10.1107 8.4698 9.97009C8.61045 9.82944 8.80121 9.75042 9.00012 9.75042H15.0001C15.199 9.75042 15.3898 9.82944 15.5304 9.97009C15.6711 10.1107 15.7501 10.3015 15.7501 10.5004C15.7501 10.6993 15.6711 10.8901 15.5304 11.0307C15.3898 11.1714 15.199 11.2504 15.0001 11.2504H9.00012C8.80121 11.2504 8.61045 11.1714 8.4698 11.0307C8.32915 10.8901 8.25013 10.6993 8.25013 10.5004ZM8.25013 13.5004C8.25013 13.3015 8.32915 13.1107 8.4698 12.9701C8.61045 12.8294 8.80121 12.7504 9.00012 12.7504H15.0001C15.199 12.7504 15.3898 12.8294 15.5304 12.9701C15.6711 13.1107 15.7501 13.3015 15.7501 13.5004C15.7501 13.6993 15.6711 13.8901 15.5304 14.0307C15.3898 14.1714 15.199 14.2504 15.0001 14.2504H9.00012C8.80121 14.2504 8.61045 14.1714 8.4698 14.0307C8.32915 13.8901 8.25013 13.6993 8.25013 13.5004Z" fill="#1D1F21" style="fill: var(--ui-icon-primary-color);"/>
</svg>
