<svg  viewBox="0 0 24 24" fill="none" xmlns="http://www.w3.org/2000/svg" id="__THIS_ID_NEEDS_FOR_UI_ICON_COMPONENT__">
<path d="M12.375 2.24927C9.88946 2.25207 7.50652 3.24069 5.74897 4.99824C3.99142 6.75578 3.0028 9.13872 3 11.6243V19.5305C3.00045 19.9199 3.15534 20.2933 3.43069 20.5686C3.70605 20.844 4.07938 20.9988 4.46878 20.9993H12.375C14.8614 20.9993 17.246 20.0115 19.0041 18.2534C20.7623 16.4952 21.75 14.1107 21.75 11.6243C21.75 9.13786 20.7623 6.75329 19.0041 4.99514C17.246 3.23699 14.8614 2.24927 12.375 2.24927ZM12.375 19.4993H4.5V11.6243C4.5 10.0667 4.96186 8.54419 5.82718 7.24915C6.69249 5.95411 7.9224 4.94476 9.36137 4.34872C10.8003 3.75268 12.3837 3.59673 13.9113 3.90058C15.4389 4.20444 16.8421 4.95446 17.9435 6.0558C19.0448 7.15714 19.7948 8.56033 20.0987 10.0879C20.4025 11.6155 20.2466 13.1989 19.6506 14.6379C19.0545 16.0769 18.0452 17.3068 16.7501 18.1721C15.4551 19.0374 13.9325 19.4993 12.375 19.4993ZM15.75 10.4993C15.75 10.6982 15.671 10.8889 15.5303 11.0296C15.3897 11.1702 15.1989 11.2493 15 11.2493H9.375C9.17609 11.2493 8.98532 11.1703 8.84467 11.0296C8.70402 10.8889 8.625 10.6982 8.625 10.4993C8.625 10.3004 8.70402 10.1096 8.84467 9.96894C8.98532 9.82829 9.17609 9.74927 9.375 9.74927H15C15.1989 9.74927 15.3897 9.82829 15.5303 9.96894C15.671 10.1096 15.75 10.3004 15.75 10.4993ZM15.75 13.4993C15.75 13.6982 15.671 13.8889 15.5303 14.0296C15.3897 14.1702 15.1989 14.2493 15 14.2493H9.375C9.17609 14.2493 8.98532 14.1703 8.84467 14.0296C8.70402 13.8889 8.625 13.6982 8.625 13.4993C8.625 13.3004 8.70402 13.1096 8.84467 12.9689C8.98532 12.8283 9.17609 12.7493 9.375 12.7493H15C15.1989 12.7493 15.3897 12.8283 15.5303 12.9689C15.671 13.1096 15.75 13.3004 15.75 13.4993Z" fill="#1D1F21" style="fill: var(--ui-icon-primary-color);"/>
</svg>
