<svg  viewBox="0 0 24 24" fill="none" xmlns="http://www.w3.org/2000/svg" id="__THIS_ID_NEEDS_FOR_UI_ICON_COMPONENT__">
<path d="M20.625 4.875V19.125C20.6246 19.5227 20.4664 19.904 20.1852 20.1852C19.904 20.4664 19.5227 20.6245 19.125 20.625H12.7159C12.517 20.625 12.3262 20.546 12.1855 20.4053C12.0449 20.2647 11.9659 20.0739 11.9659 19.875C11.9659 19.6761 12.0449 19.4853 12.1855 19.3447C12.3262 19.204 12.517 19.125 12.7159 19.125H19.125V4.875H4.87502V13.4318C4.87502 13.6307 4.796 13.8215 4.65535 13.9621C4.51469 14.1028 4.32393 14.1818 4.12502 14.1818C3.9261 14.1818 3.73534 14.1028 3.59469 13.9621C3.45403 13.8215 3.37502 13.6307 3.37502 13.4318V4.875C3.37547 4.47731 3.53365 4.09605 3.81486 3.81484C4.09606 3.53364 4.47733 3.37546 4.87502 3.375H19.125C19.5227 3.37545 19.904 3.53364 20.1852 3.81484C20.4664 4.09605 20.6246 4.47731 20.625 4.875ZM12.5304 13.7197C12.3897 13.579 12.1989 13.5 12 13.5C11.8011 13.5 11.6103 13.579 11.4697 13.7197L6.00002 19.1894L3.53038 16.7197C3.46074 16.65 3.37806 16.5948 3.28707 16.5571C3.19607 16.5194 3.09854 16.5 3.00005 16.5C2.90156 16.5 2.80403 16.5194 2.71303 16.5571C2.62203 16.5947 2.53935 16.65 2.4697 16.7196C2.40005 16.7893 2.3448 16.872 2.3071 16.963C2.26941 17.0539 2.25 17.1515 2.25 17.25C2.25 17.3485 2.26939 17.446 2.30708 17.537C2.34477 17.628 2.40001 17.7107 2.46965 17.7803L5.46965 20.7803C5.61031 20.921 5.80109 21 6.00002 21C6.19894 21 6.38972 20.921 6.53038 20.7803L12.5304 14.7803C12.671 14.6397 12.75 14.4489 12.75 14.25C12.75 14.0511 12.671 13.8603 12.5304 13.7197Z" fill="#1D1F21" style="fill: var(--ui-icon-primary-color);"/>
</svg>
