<svg  viewBox="0 0 24 24" fill="none" xmlns="http://www.w3.org/2000/svg" id="__THIS_ID_NEEDS_FOR_UI_ICON_COMPONENT__">
<path d="M11.9999 21.75C10.0716 21.75 8.18651 21.1782 6.58313 20.1068C4.97975 19.0355 3.73007 17.5127 2.99212 15.7312C2.25416 13.9496 2.06108 11.9892 2.43729 10.0979C2.81349 8.20656 3.74209 6.46928 5.10565 5.10571C6.46921 3.74215 8.2065 2.81355 10.0978 2.43735C11.9891 2.06114 13.9495 2.25422 15.7311 2.99218C17.5127 3.73013 19.0354 4.97982 20.1068 6.58319C21.1781 8.18657 21.7499 10.0716 21.7499 12C21.747 14.585 20.7189 17.0632 18.891 18.8911C17.0632 20.7189 14.5849 21.7471 11.9999 21.75ZM11.9999 3.75C10.3682 3.75 8.77319 4.23386 7.41649 5.14038C6.05978 6.0469 5.00236 7.33538 4.37794 8.84287C3.75351 10.3504 3.59014 12.0092 3.90846 13.6095C4.22679 15.2098 5.01253 16.6799 6.16631 17.8336C7.3201 18.9874 8.7901 19.7732 10.3904 20.0915C11.9908 20.4098 13.6496 20.2464 15.1571 19.622C16.6646 18.9976 17.953 17.9402 18.8596 16.5835C19.7661 15.2268 20.2499 13.6317 20.2499 12C20.2475 9.81273 19.3775 7.71574 17.8308 6.1691C16.2842 4.62246 14.1872 3.75248 11.9999 3.75Z" fill="#1D1F21" style="fill: var(--ui-icon-primary-color);"/>
</svg>
