<svg  viewBox="0 0 24 24" fill="none" xmlns="http://www.w3.org/2000/svg" id="__THIS_ID_NEEDS_FOR_UI_ICON_COMPONENT__">
<path d="M20.25 3.75H3.75C3.35231 3.75045 2.97105 3.90864 2.68984 4.18984C2.40864 4.47105 2.25045 4.85231 2.25 5.25V18.75C2.25045 19.1477 2.40864 19.529 2.68984 19.8102C2.97105 20.0914 3.35231 20.2495 3.75 20.25H20.25C20.6477 20.2495 21.029 20.0914 21.3102 19.8102C21.5914 19.529 21.7495 19.1477 21.75 18.75V5.25C21.7495 4.85231 21.5914 4.47105 21.3102 4.18984C21.029 3.90864 20.6477 3.75045 20.25 3.75ZM20.25 18.75H3.75V5.25H20.25L20.2509 18.75H20.25ZM7.125 12C7.12501 12.3725 7.23594 12.7365 7.44367 13.0457C7.6514 13.3548 7.9465 13.5951 8.29134 13.7359C8.63618 13.8767 9.01514 13.9116 9.37989 13.8361C9.74464 13.7607 10.0786 13.5783 10.3393 13.3122C10.4785 13.1702 10.6685 13.0892 10.8674 13.0872C11.0663 13.0852 11.2578 13.1622 11.3999 13.3014C11.5419 13.4406 11.6229 13.6306 11.6249 13.8295C11.6269 14.0283 11.5499 14.2199 11.4107 14.362C10.9415 14.8409 10.3403 15.1692 9.68371 15.305C9.02716 15.4408 8.34504 15.3781 7.72432 15.1247C7.1036 14.8713 6.57242 14.4387 6.19851 13.8822C5.82461 13.3257 5.62492 12.6705 5.62492 12C5.62492 11.3295 5.82461 10.6743 6.19851 10.1178C6.57242 9.56128 7.1036 9.12875 7.72432 8.87535C8.34504 8.62195 9.02716 8.55916 9.68371 8.69499C10.3403 8.83083 10.9415 9.15913 11.4107 9.63803C11.5499 9.7801 11.6269 9.97165 11.6249 10.1705C11.6229 10.3694 11.5419 10.5594 11.3999 10.6986C11.2578 10.8378 11.0663 10.9148 10.8674 10.9128C10.6685 10.9108 10.4785 10.8298 10.3393 10.6878C10.0786 10.4217 9.74464 10.2393 9.37989 10.1639C9.01514 10.0884 8.63618 10.1233 8.29134 10.2641C7.9465 10.4049 7.6514 10.6452 7.44367 10.9543C7.23594 11.2635 7.12501 11.6275 7.125 12ZM13.875 12C13.875 12.3725 13.9859 12.7365 14.1937 13.0457C14.4014 13.3548 14.6965 13.5951 15.0413 13.7359C15.3862 13.8767 15.7651 13.9116 16.1299 13.8361C16.4946 13.7607 16.8286 13.5783 17.0893 13.3122C17.2285 13.1702 17.4185 13.0892 17.6174 13.0872C17.8163 13.0852 18.0078 13.1622 18.1499 13.3014C18.2919 13.4406 18.3729 13.6306 18.3749 13.8295C18.3769 14.0283 18.2999 14.2199 18.1607 14.362C17.6915 14.8409 17.0903 15.1692 16.4337 15.305C15.7772 15.4408 15.095 15.3781 14.4743 15.1247C13.8536 14.8713 13.3224 14.4387 12.9485 13.8822C12.5746 13.3257 12.3749 12.6705 12.3749 12C12.3749 11.3295 12.5746 10.6743 12.9485 10.1178C13.3224 9.56128 13.8536 9.12875 14.4743 8.87535C15.095 8.62195 15.7772 8.55916 16.4337 8.69499C17.0903 8.83083 17.6915 9.15913 18.1607 9.63803C18.2999 9.7801 18.3769 9.97165 18.3749 10.1705C18.3729 10.3694 18.2919 10.5594 18.1499 10.6986C18.0078 10.8378 17.8163 10.9148 17.6174 10.9128C17.4185 10.9108 17.2285 10.8298 17.0893 10.6878C16.8286 10.4217 16.4946 10.2393 16.1299 10.1639C15.7651 10.0884 15.3862 10.1233 15.0413 10.2641C14.6965 10.4049 14.4014 10.6452 14.1937 10.9543C13.9859 11.2635 13.875 11.6275 13.875 12Z" fill="#1D1F21" style="fill: var(--ui-icon-primary-color);"/>
</svg>
