<svg  viewBox="0 0 24 24" fill="none" xmlns="http://www.w3.org/2000/svg" id="__THIS_ID_NEEDS_FOR_UI_ICON_COMPONENT__">
<path d="M20.9999 3.74953V17.25C20.9999 17.4489 20.9209 17.6397 20.7802 17.7803C20.6395 17.921 20.4488 18 20.2499 18C20.0509 18 19.8602 17.921 19.7195 17.7803C19.5789 17.6397 19.4998 17.4489 19.4998 17.25V4.49955H6.74885C6.54993 4.49955 6.35916 4.42053 6.2185 4.27988C6.07785 4.13922 5.99883 3.94845 5.99883 3.74953C5.99883 3.55061 6.07785 3.35984 6.2185 3.21919C6.35916 3.07853 6.54993 2.99951 6.74885 2.99951H20.2499C20.4488 2.99951 20.6395 3.07853 20.7802 3.21919C20.9208 3.35985 20.9999 3.55061 20.9999 3.74953ZM17.9998 6.74971V20.2501C17.9998 20.449 17.9208 20.6397 17.7801 20.7804C17.6395 20.9211 17.4487 21.0001 17.2498 21.0001H3.74877C3.54985 21.0001 3.35909 20.9211 3.21844 20.7804C3.07778 20.6397 2.99876 20.449 2.99875 20.2501V6.74971C2.99875 6.55079 3.07777 6.36002 3.21843 6.21936C3.35908 6.07871 3.54985 5.99969 3.74877 5.99969H17.2498C17.4487 5.99969 17.6395 6.07871 17.7801 6.21936C17.9208 6.36002 17.9998 6.55079 17.9998 6.7497V6.74971ZM16.4998 7.49973H4.49879V19.5H16.4998V7.49973Z" fill="#1D1F21" style="fill: var(--ui-icon-primary-color);"/>
</svg>
