<svg  viewBox="0 0 24 24" fill="none" xmlns="http://www.w3.org/2000/svg" id="__THIS_ID_NEEDS_FOR_UI_ICON_COMPONENT__">
<path d="M14.25 9V4.5C14.25 4.30109 14.329 4.11032 14.4697 3.96967C14.6103 3.82902 14.8011 3.75 15 3.75C15.1989 3.75 15.3897 3.82902 15.5303 3.96967C15.671 4.11032 15.75 4.30109 15.75 4.5V8.25H19.5C19.6989 8.25 19.8897 8.32902 20.0303 8.46967C20.171 8.61032 20.25 8.80109 20.25 9C20.25 9.19891 20.171 9.38968 20.0303 9.53033C19.8897 9.67098 19.6989 9.75 19.5 9.75H15C14.8011 9.75 14.6103 9.67098 14.4697 9.53033C14.329 9.38968 14.25 9.19891 14.25 9ZM9 14.25H4.5C4.30109 14.25 4.11032 14.329 3.96967 14.4697C3.82902 14.6103 3.75 14.8011 3.75 15C3.75 15.1989 3.82902 15.3897 3.96967 15.5303C4.11032 15.671 4.30109 15.75 4.5 15.75H8.25V19.5C8.25 19.6989 8.32902 19.8897 8.46967 20.0303C8.61032 20.171 8.80109 20.25 9 20.25C9.19891 20.25 9.38968 20.171 9.53033 20.0303C9.67098 19.8897 9.75 19.6989 9.75 19.5V15C9.75 14.8011 9.67098 14.6103 9.53033 14.4697C9.38968 14.329 9.19891 14.25 9 14.25ZM19.5 14.25H15C14.8011 14.25 14.6103 14.329 14.4697 14.4697C14.329 14.6103 14.25 14.8011 14.25 15V19.5C14.25 19.6989 14.329 19.8897 14.4697 20.0303C14.6103 20.171 14.8011 20.25 15 20.25C15.1989 20.25 15.3897 20.171 15.5303 20.0303C15.671 19.8897 15.75 19.6989 15.75 19.5V15.75H19.5C19.6989 15.75 19.8897 15.671 20.0303 15.5303C20.171 15.3897 20.25 15.1989 20.25 15C20.25 14.8011 20.171 14.6103 20.0303 14.4697C19.8897 14.329 19.6989 14.25 19.5 14.25ZM9 3.75C8.80109 3.75 8.61032 3.82902 8.46967 3.96967C8.32902 4.11032 8.25 4.30109 8.25 4.5V8.25H4.5C4.30109 8.25 4.11032 8.32902 3.96967 8.46967C3.82902 8.61032 3.75 8.80109 3.75 9C3.75 9.19891 3.82902 9.38968 3.96967 9.53033C4.11032 9.67098 4.30109 9.75 4.5 9.75H9C9.19891 9.75 9.38968 9.67098 9.53033 9.53033C9.67098 9.38968 9.75 9.19891 9.75 9V4.5C9.75 4.30109 9.67098 4.11032 9.53033 3.96967C9.38968 3.82902 9.19891 3.75 9 3.75Z" fill="#1D1F21" style="fill: var(--ui-icon-primary-color);"/>
</svg>
