<svg  viewBox="0 0 24 24" fill="none" xmlns="http://www.w3.org/2000/svg" id="__THIS_ID_NEEDS_FOR_UI_ICON_COMPONENT__">
<path d="M21 4.5H3C2.60231 4.50045 2.22105 4.65864 1.93984 4.93984C1.65864 5.22105 1.50045 5.60231 1.5 6V9.06903C1.49995 9.07269 1.49945 9.07626 1.49945 9.07993C1.49945 9.08359 1.49995 9.08716 1.5 9.09082V18C1.50045 18.3977 1.65864 18.779 1.93984 19.0602C2.22105 19.3414 2.60231 19.4995 3 19.5H21C21.3977 19.4995 21.779 19.3414 22.0602 19.0602C22.3414 18.779 22.4995 18.3977 22.5 18V6C22.4995 5.60231 22.3414 5.22105 22.0602 4.93984C21.779 4.65864 21.3977 4.50045 21 4.5ZM21 6L21.0002 8.32993H3V6H21ZM21 18H3V9.82993H21.0003L21.001 18H21ZM19.4995 15.75C19.4994 15.9489 19.4204 16.1397 19.2798 16.2803C19.1391 16.421 18.9484 16.5 18.7495 16.5H15.7495C15.5505 16.5 15.3598 16.421 15.2191 16.2803C15.0785 16.1397 14.9995 15.9489 14.9995 15.75C14.9995 15.5511 15.0785 15.3603 15.2191 15.2197C15.3598 15.079 15.5505 15 15.7495 15H18.7495C18.9484 15 19.1391 15.079 19.2798 15.2197C19.4204 15.3603 19.4994 15.5511 19.4995 15.75ZM13.4995 15.75C13.4994 15.9489 13.4204 16.1397 13.2798 16.2803C13.1391 16.421 12.9484 16.5 12.7495 16.5H11.2495C11.0505 16.5 10.8598 16.421 10.7191 16.2803C10.5785 16.1397 10.4995 15.9489 10.4995 15.75C10.4995 15.5511 10.5785 15.3603 10.7191 15.2197C10.8598 15.079 11.0505 15 11.2495 15H12.7495C12.9484 15 13.1391 15.079 13.2798 15.2197C13.4204 15.3603 13.4994 15.5511 13.4995 15.75Z" fill="#1D1F21" style="fill: var(--ui-icon-primary-color);"/>
</svg>
