<svg  viewBox="0 0 24 24" fill="none" xmlns="http://www.w3.org/2000/svg" id="__THIS_ID_NEEDS_FOR_UI_ICON_COMPONENT__">
<path d="M12 22.9378C11.803 22.9381 11.6079 22.8996 11.4259 22.8243C11.2439 22.749 11.0786 22.6386 10.9394 22.4992L10.9393 22.4992L1.50001 13.0598C1.36072 12.9205 1.25023 12.7552 1.17485 12.5732C1.09947 12.3912 1.06067 12.1961 1.06067 11.9991C1.06067 11.8022 1.09947 11.6071 1.17485 11.4251C1.25024 11.2431 1.36073 11.0778 1.50002 10.9385L10.9393 1.49917C11.2209 1.2183 11.6023 1.06056 12 1.06055C12.3977 1.06054 12.7791 1.21826 13.0607 1.49912L22.5 10.9385C22.6393 11.0778 22.7498 11.2432 22.8252 11.4252C22.9005 11.6071 22.9393 11.8022 22.9393 11.9992C22.9393 12.1962 22.9005 12.3912 22.8252 12.5732C22.7498 12.7552 22.6393 12.9205 22.5 13.0598L13.0607 22.4992C12.9215 22.6385 12.7561 22.749 12.5741 22.8243C12.3921 22.8996 12.197 22.9381 12 22.9378ZM12 21.4385L12.0007 21.4391L21.4393 11.9992L12 2.5598L2.56067 11.9992L12 21.4385L12 21.4385L12 21.4385Z" fill="#1D1F21" style="fill: var(--ui-icon-primary-color);"/>
</svg>
