<svg  viewBox="0 0 24 24" fill="none" xmlns="http://www.w3.org/2000/svg" id="__THIS_ID_NEEDS_FOR_UI_ICON_COMPONENT__">
<path d="M4.71295 13.4997H19.287C19.5786 13.4997 19.8638 13.4147 20.1079 13.2552C20.3519 13.0956 20.5441 12.8684 20.6611 12.6013C20.778 12.3342 20.8146 12.0389 20.7663 11.7513C20.718 11.4638 20.587 11.1966 20.3892 10.9823L13.1022 3.08807C12.9617 2.9359 12.7913 2.81446 12.6016 2.7314C12.4119 2.64835 12.2071 2.60547 12 2.60547C11.7929 2.60547 11.5881 2.64835 11.3984 2.7314C11.2087 2.81446 11.0383 2.9359 10.8978 3.08807H10.8977L3.61084 10.9823C3.41307 11.1965 3.28202 11.4638 3.23372 11.7513C3.18543 12.0389 3.22198 12.3342 3.33891 12.6013C3.45584 12.8684 3.64808 13.0956 3.89211 13.2552C4.13614 13.4148 4.42139 13.4997 4.71295 13.4997ZM12 4.10549L19.2864 11.9997L4.71341 11.9993L12 4.10549ZM19.5 14.9997H4.5C4.10231 15.0002 3.72105 15.1584 3.43984 15.4396C3.15864 15.7208 3.00045 16.1021 3 16.4997V18.7497C3.00045 19.1474 3.15864 19.5287 3.43984 19.8099C3.72105 20.0911 4.10231 20.2493 4.5 20.2497H19.5C19.8977 20.2493 20.279 20.0911 20.5602 19.8099C20.8414 19.5287 20.9995 19.1474 21 18.7497V16.4997C20.9995 16.1021 20.8414 15.7208 20.5602 15.4396C20.279 15.1584 19.8977 15.0002 19.5 14.9997ZM19.5 18.7497H4.5V16.4997H19.5V18.7497Z" fill="#1D1F21" style="fill: var(--ui-icon-primary-color);"/>
</svg>
