<svg  viewBox="0 0 24 24" fill="none" xmlns="http://www.w3.org/2000/svg" id="__THIS_ID_NEEDS_FOR_UI_ICON_COMPONENT__">
<path d="M21.7495 8.99326C21.7491 8.93593 21.742 8.87884 21.7283 8.82313C21.7268 8.81666 21.7248 8.81032 21.7231 8.80389C21.7174 8.78287 21.7107 8.76206 21.7032 8.74145C21.7003 8.73383 21.6975 8.72627 21.6944 8.71874C21.6866 8.69956 21.6778 8.68066 21.6683 8.66193C21.6646 8.65465 21.6612 8.64728 21.6573 8.64012C21.6461 8.61979 21.6337 8.5999 21.6205 8.58036C21.6175 8.57603 21.6151 8.57143 21.612 8.56717L21.6107 8.56502C21.5945 8.54251 21.5771 8.5209 21.5586 8.50029C21.5546 8.4959 21.5503 8.49187 21.5462 8.48757C21.5303 8.47058 21.5139 8.45438 21.4967 8.43916C21.4911 8.43424 21.4853 8.42954 21.4796 8.42476C21.4622 8.41023 21.4443 8.39658 21.4257 8.38381C21.4224 8.3815 21.4194 8.37871 21.416 8.37642L12.416 2.37642C12.2928 2.29431 12.1481 2.25049 12 2.25049C11.8519 2.25049 11.7072 2.29431 11.584 2.37642L2.58398 8.37642C2.5806 8.37869 2.57767 8.38145 2.57433 8.38377C2.55579 8.39656 2.53781 8.41022 2.5204 8.42476C2.51469 8.42954 2.50887 8.43424 2.50328 8.43916C2.48616 8.45433 2.46978 8.47051 2.45389 8.48745C2.44977 8.49182 2.44538 8.49587 2.44139 8.50034C2.42287 8.52093 2.4055 8.54252 2.38935 8.56502L2.38797 8.56717C2.38495 8.57143 2.38248 8.57603 2.37955 8.58036C2.36627 8.5999 2.35387 8.61979 2.3427 8.64012C2.33881 8.64728 2.33538 8.65465 2.33167 8.66193C2.32219 8.68065 2.3134 8.69956 2.30558 8.71874C2.30255 8.72627 2.29967 8.73383 2.29683 8.74145C2.28923 8.76207 2.2826 8.78289 2.27692 8.80389C2.27518 8.81032 2.27321 8.81666 2.27166 8.82313C2.25805 8.87884 2.25094 8.93593 2.25046 8.99326C2.25041 8.99569 2.25 8.99802 2.25 9.00045V18.7505C2.25045 19.1481 2.40864 19.5294 2.68984 19.8106C2.97105 20.0918 3.35231 20.25 3.75 20.2505H20.25C20.6477 20.25 21.029 20.0918 21.3102 19.8106C21.5914 19.5294 21.7495 19.1481 21.75 18.7505V9.00045C21.75 8.99802 21.7496 8.99569 21.7495 8.99326ZM3.75 10.4563L9.06775 14.2476L3.75 18.0039V10.4563ZM10.6018 15.0005H13.3982L18.7072 18.7505H5.29289L10.6018 15.0005ZM14.9323 14.2476L20.25 10.4563V18.0038L14.9323 14.2476ZM12 3.90188L19.679 9.02117L13.3964 13.5005H10.6036L4.32097 9.02117L12 3.90188Z" fill="#1D1F21" style="fill: var(--ui-icon-primary-color);"/>
</svg>
