<svg  viewBox="0 0 24 24" fill="none" xmlns="http://www.w3.org/2000/svg" id="__THIS_ID_NEEDS_FOR_UI_ICON_COMPONENT__">
<path d="M21.6456 15.2641C21.6949 15.3494 21.7268 15.4436 21.7397 15.5412C21.7525 15.6389 21.746 15.7381 21.7206 15.8332C21.6951 15.9283 21.6511 16.0175 21.5911 16.0957C21.5312 16.1738 21.4564 16.2394 21.3711 16.2886C21.2859 16.3379 21.1917 16.3698 21.0941 16.3827C20.9964 16.3955 20.8972 16.389 20.8021 16.3635C20.7069 16.3381 20.6178 16.2941 20.5396 16.2341C20.4615 16.1742 20.3959 16.0994 20.3467 16.0141L18.6233 13.0293C17.608 13.7093 16.4914 14.2244 15.3151 14.5554L15.86 17.6458C15.8946 17.8417 15.8499 18.0433 15.7358 18.2062C15.6217 18.3692 15.4476 18.4801 15.2517 18.5147C15.2083 18.5223 15.1645 18.5261 15.1205 18.5262C14.9443 18.5259 14.7738 18.4637 14.639 18.3503C14.5041 18.237 14.4134 18.0798 14.3827 17.9063L13.8467 14.8663C12.6192 15.0456 11.3721 15.0452 10.1447 14.865L9.60872 17.9051C9.57811 18.0786 9.48742 18.2358 9.35253 18.3491C9.21765 18.4625 9.04718 18.5247 8.87099 18.525C8.82704 18.5249 8.78318 18.5211 8.73989 18.5135C8.544 18.479 8.36985 18.368 8.25575 18.2051C8.14164 18.0422 8.09692 17.8406 8.13143 17.6447L8.67655 14.553C7.50161 14.2215 6.38646 13.7063 5.37237 13.0266L3.63894 16.029C3.58969 16.1143 3.52413 16.189 3.44599 16.249C3.36786 16.3089 3.27868 16.3529 3.18355 16.3784C3.08842 16.4039 2.9892 16.4104 2.89155 16.3975C2.79391 16.3847 2.69975 16.3527 2.61446 16.3034C2.52917 16.2542 2.45442 16.1886 2.39447 16.1105C2.33451 16.0324 2.29054 15.9432 2.26505 15.848C2.23956 15.7529 2.23306 15.6537 2.24592 15.5561C2.25878 15.4584 2.29074 15.3643 2.33999 15.279L4.16786 12.113C3.53034 11.5644 2.94411 10.9588 2.41644 10.3038C2.35454 10.2272 2.30834 10.1391 2.28048 10.0447C2.25261 9.95022 2.24363 9.85119 2.25403 9.75326C2.26444 9.65532 2.29403 9.56039 2.34112 9.47389C2.38822 9.38739 2.45189 9.31101 2.5285 9.24912C2.6051 9.18723 2.69316 9.14103 2.78762 9.11316C2.88208 9.0853 2.98111 9.07631 3.07905 9.08672C3.17698 9.09712 3.27191 9.12672 3.35841 9.17381C3.44491 9.2209 3.52129 9.28457 3.58318 9.36118C4.16887 10.09 4.83729 10.7482 5.57497 11.3227C5.58084 11.3269 5.58621 11.3315 5.59194 11.3359C7.4224 12.76 9.68083 13.5229 11.9999 13.5005C14.3184 13.5228 16.5763 12.7603 18.4065 11.3368C18.4114 11.3331 18.4161 11.3292 18.4211 11.3256C19.1602 10.7505 19.8299 10.0912 20.4165 9.36118C20.5416 9.20663 20.7229 9.10805 20.9206 9.08712C21.1183 9.06619 21.3162 9.12461 21.4709 9.24955C21.6255 9.37449 21.7242 9.55572 21.7453 9.75341C21.7664 9.9511 21.7081 10.1491 21.5833 10.3038C21.0546 10.9601 20.4671 11.5668 19.8281 12.1163L21.6456 15.2641Z" fill="#1D1F21" style="fill: var(--ui-icon-primary-color);"/>
</svg>
