<svg  viewBox="0 0 24 24" fill="none" xmlns="http://www.w3.org/2000/svg" id="__THIS_ID_NEEDS_FOR_UI_ICON_COMPONENT__">
<path d="M20.9996 6.32858C20.9948 5.87713 20.8988 5.43132 20.7174 5.01791C20.5359 4.60449 20.2728 4.23202 19.9438 3.92285C18.6296 2.67874 16.5015 2.72557 15.1998 4.02722L13.1422 6.08491C12.7143 5.69506 12.1527 5.4849 11.574 5.49803C10.9953 5.51116 10.4438 5.74656 10.034 6.15541L9.37494 6.81445C9.09405 7.09597 8.93631 7.47741 8.93631 7.87509C8.93631 8.27277 9.09405 8.65421 9.37494 8.93573L9.56798 9.12877L4.84825 13.8484C4.41683 14.2816 4.09739 14.8133 3.91753 15.3976C3.73768 15.9819 3.70283 16.6012 3.81599 17.202L2.89886 19.3028C2.79419 19.54 2.76393 19.8033 2.8121 20.058C2.86026 20.3127 2.98458 20.5468 3.16862 20.7294C3.30714 20.869 3.47186 20.9797 3.65333 21.0554C3.83481 21.1311 4.02944 21.1701 4.22606 21.1703C4.43376 21.1701 4.63917 21.1269 4.82939 21.0435L6.79805 20.184C7.39883 20.2972 8.01815 20.2624 8.60245 20.0825C9.18675 19.9027 9.71845 19.5832 10.1516 19.1517L14.8713 14.4321L15.0643 14.6251C15.3458 14.906 15.7273 15.0637 16.1249 15.0637C16.5226 15.0637 16.9041 14.906 17.1856 14.6251L17.8446 13.966C18.2535 13.5563 18.4889 13.0048 18.502 12.4261C18.5152 11.8473 18.305 11.2857 17.9151 10.8578L20.0114 8.76155C20.3316 8.44353 20.5841 8.06407 20.754 7.64598C20.9238 7.22788 21.0073 6.77978 20.9996 6.32858ZM9.09094 18.0911C8.8111 18.3698 8.46307 18.5703 8.08158 18.6725C7.70008 18.7747 7.29845 18.7751 6.91675 18.6737C6.75276 18.63 6.57879 18.6431 6.42323 18.711L4.41031 19.5897L5.28908 17.5768C5.35697 17.4212 5.3701 17.2473 5.32634 17.0833C5.22494 16.7016 5.22537 16.3 5.3276 15.9185C5.42982 15.537 5.63026 15.1889 5.90894 14.9091L10.6286 10.1894L13.8106 13.3714L9.09094 18.0911ZM18.9508 7.70091L16.3258 10.3259C16.2561 10.3955 16.2009 10.4782 16.1632 10.5692C16.1255 10.6602 16.1061 10.7577 16.1061 10.8562C16.1061 10.9547 16.1255 11.0522 16.1632 11.1432C16.2009 11.2342 16.2561 11.3169 16.3258 11.3865L16.784 11.8448C16.9244 11.9855 17.0033 12.1762 17.0033 12.3751C17.0033 12.5739 16.9244 12.7646 16.784 12.9054L16.1249 13.5645L10.4356 7.87509L11.0946 7.21605C11.2354 7.0756 11.4261 6.99673 11.6249 6.99673C11.8238 6.99673 12.0145 7.0756 12.1553 7.21605L12.6135 7.67427C12.6831 7.74391 12.7658 7.79916 12.8568 7.83685C12.9478 7.87455 13.0453 7.89395 13.1438 7.89395C13.2423 7.89395 13.3398 7.87455 13.4308 7.83685C13.5218 7.79916 13.6045 7.74391 13.6741 7.67427L16.2605 5.08786C16.9931 4.35529 18.1828 4.32124 18.9126 5.01219C19.0949 5.18436 19.2407 5.39134 19.3416 5.62087C19.4424 5.85039 19.4962 6.09781 19.4997 6.34849C19.5033 6.59917 19.4566 6.84802 19.3623 7.08031C19.268 7.31261 19.128 7.52363 18.9508 7.70091Z" fill="#1D1F21" style="fill: var(--ui-icon-primary-color);"/>
</svg>
