<svg  viewBox="0 0 24 24" fill="none" xmlns="http://www.w3.org/2000/svg" id="__THIS_ID_NEEDS_FOR_UI_ICON_COMPONENT__">
<path d="M16.5 10.5002C16.5 10.6991 16.421 10.8898 16.2803 11.0305C16.1397 11.1711 15.9489 11.2502 15.75 11.2502H8.25C8.05109 11.2502 7.86032 11.1711 7.71967 11.0305C7.57902 10.8898 7.5 10.6991 7.5 10.5002C7.5 10.3012 7.57902 10.1105 7.71967 9.96983C7.86032 9.82918 8.05109 9.75016 8.25 9.75016H15.75C15.9489 9.75017 16.1397 9.82919 16.2803 9.96984C16.421 10.1105 16.5 10.3013 16.5 10.5002ZM15.75 12.7502H8.25C8.05109 12.7502 7.86032 12.8292 7.71967 12.9698C7.57902 13.1105 7.5 13.3012 7.5 13.5002C7.5 13.6991 7.57902 13.8898 7.71967 14.0305C7.86032 14.1711 8.05109 14.2502 8.25 14.2502H15.75C15.9489 14.2502 16.1397 14.1711 16.2803 14.0305C16.421 13.8898 16.5 13.6991 16.5 13.5002C16.5 13.3012 16.421 13.1105 16.2803 12.9698C16.1397 12.8292 15.9489 12.7502 15.75 12.7502ZM24 9.75016V12.0002C23.9991 12.7955 23.6828 13.5581 23.1203 14.1205C22.5579 14.6829 21.7954 14.9993 21 15.0002H20.5128C19.8977 16.3484 18.7076 17.5313 16.9848 18.4884C15.014 19.5832 12.9044 20.0784 12.3048 20.204C12.1038 20.2465 11.8961 20.2465 11.6951 20.204C11.0956 20.0784 8.98604 19.5832 7.01518 18.4884C5.29239 17.5313 4.10229 16.3484 3.4872 15.0002H3C2.20462 14.9993 1.44208 14.6829 0.879666 14.1205C0.317251 13.5581 0.000893291 12.7955 0 12.0002L0 9.75016C0.000893291 8.95478 0.317251 8.19224 0.879666 7.62983C1.44208 7.06741 2.20462 6.75105 3 6.75016H3.09668C3.17267 6.54729 3.29161 6.36323 3.44534 6.21059C3.59908 6.05796 3.78398 5.94034 3.9874 5.86581L11.4874 3.1385C11.8186 3.01829 12.1814 3.01829 12.5126 3.1385L20.0126 5.86581C20.216 5.94035 20.4009 6.05797 20.5546 6.2106C20.7084 6.36324 20.8273 6.54729 20.9033 6.75016H21C21.7954 6.75105 22.5579 7.06741 23.1203 7.62983C23.6828 8.19224 23.9991 8.95478 24 9.75016ZM3.05182 13.5002C3.01746 13.2516 3.00015 13.001 3 12.7502V8.25016C2.60231 8.25062 2.22105 8.4088 1.93984 8.69C1.65864 8.97121 1.50045 9.35248 1.5 9.75016V12.0002C1.50045 12.3978 1.65864 12.7791 1.93984 13.0603C2.22105 13.3415 2.60231 13.4997 3 13.5002H3.05182ZM19.5 12.7502V7.27549L12 4.54823L4.5 7.27549V12.7502C4.5 17.0396 11.2349 18.575 12.0029 18.736C12.7651 18.575 19.5 17.0396 19.5 12.7502ZM22.5 9.75016C22.4995 9.35248 22.3414 8.97121 22.0602 8.69C21.779 8.4088 21.3977 8.25062 21 8.25016V12.7502C20.9999 13.001 20.9825 13.2516 20.9482 13.5002H21C21.3977 13.4997 21.779 13.3415 22.0602 13.0603C22.3414 12.7791 22.4995 12.3978 22.5 12.0002V9.75016Z" fill="#1D1F21" style="fill: var(--ui-icon-primary-color);"/>
</svg>
