<svg  viewBox="0 0 24 24" fill="none" xmlns="http://www.w3.org/2000/svg" id="__THIS_ID_NEEDS_FOR_UI_ICON_COMPONENT__">
<path d="M11.9999 2.25C10.0716 2.25 8.18651 2.82183 6.58313 3.89317C4.97975 4.96451 3.73007 6.48726 2.99212 8.26884C2.25416 10.0504 2.06108 12.0108 2.43729 13.9021C2.81349 15.7934 3.74209 17.5307 5.10565 18.8943C6.46921 20.2579 8.2065 21.1865 10.0978 21.5627C11.9891 21.9389 13.9495 21.7458 15.7311 21.0078C17.5127 20.2699 19.0354 19.0202 20.1068 17.4168C21.1781 15.8134 21.7499 13.9284 21.7499 12C21.747 9.41504 20.7188 6.93679 18.891 5.10894C17.0632 3.28109 14.5849 2.25293 11.9999 2.25ZM11.9999 20.25C10.3682 20.25 8.77319 19.7661 7.41649 18.8596C6.05978 17.9531 5.00236 16.6646 4.37794 15.1571C3.75351 13.6496 3.59014 11.9908 3.90846 10.3905C4.22679 8.79016 5.01253 7.32015 6.16631 6.16637C7.3201 5.01259 8.7901 4.22685 10.3904 3.90852C11.9908 3.59019 13.6496 3.75357 15.1571 4.37799C16.6646 5.00242 17.953 6.05984 18.8596 7.41655C19.7661 8.77325 20.2499 10.3683 20.2499 12C20.2475 14.1873 19.3775 16.2843 17.8308 17.8309C16.2842 19.3775 14.1872 20.2475 11.9999 20.25ZM12.416 11.376L7.91596 8.37598C7.80301 8.30068 7.67174 8.25746 7.53615 8.25091C7.40057 8.24436 7.26575 8.27473 7.14606 8.33878C7.02638 8.40283 6.92632 8.49816 6.85656 8.61461C6.7868 8.73106 6.74995 8.86425 6.74994 9V15C6.74994 15.1357 6.78678 15.269 6.85654 15.3854C6.9263 15.5019 7.02635 15.5972 7.14604 15.6613C7.26573 15.7253 7.40056 15.7557 7.53615 15.7491C7.67174 15.7426 7.80301 15.6993 7.91596 15.624L12.416 12.624C12.5187 12.5555 12.6029 12.4627 12.6612 12.3539C12.7195 12.245 12.7499 12.1235 12.7499 12C12.7499 11.8765 12.7195 11.755 12.6612 11.6461C12.6029 11.5373 12.5187 11.4445 12.416 11.376ZM8.24994 13.5986V10.4014L10.6479 12L8.24994 13.5986ZM18.416 11.376L13.916 8.37598C13.803 8.30069 13.6717 8.25746 13.5362 8.25091C13.4006 8.24436 13.2657 8.27473 13.1461 8.33878C13.0264 8.40283 12.9263 8.49816 12.8566 8.61461C12.7868 8.73106 12.75 8.86425 12.7499 9V15C12.7499 15.1357 12.7868 15.269 12.8565 15.3854C12.9263 15.5019 13.0264 15.5972 13.146 15.6613C13.2657 15.7253 13.4006 15.7557 13.5361 15.7491C13.6717 15.7426 13.803 15.6993 13.916 15.624L18.416 12.624C18.5187 12.5555 18.6029 12.4627 18.6612 12.3539C18.7195 12.245 18.7499 12.1235 18.7499 12C18.7499 11.8765 18.7195 11.755 18.6612 11.6461C18.6029 11.5373 18.5187 11.4445 18.416 11.376V11.376ZM14.2499 13.5986V10.4014L16.6479 12L14.2499 13.5986Z" fill="#1D1F21" style="fill: var(--ui-icon-primary-color);"/>
</svg>
