<svg  viewBox="0 0 24 24" fill="none" xmlns="http://www.w3.org/2000/svg" id="__THIS_ID_NEEDS_FOR_UI_ICON_COMPONENT__">
<path d="M20.2507 8.25C20.2508 8.14959 20.2306 8.0502 20.1915 7.95776C20.1523 7.86532 20.0948 7.78173 20.0226 7.71197L14.7805 2.46985C14.7632 2.45249 14.745 2.43601 14.7259 2.42042C14.7215 2.41678 14.7167 2.4137 14.7123 2.41018C14.6975 2.39857 14.6825 2.3871 14.6669 2.37662C14.6628 2.3739 14.6585 2.37164 14.6543 2.36899C14.6379 2.3584 14.6212 2.34806 14.6038 2.33875C14.6008 2.33716 14.5977 2.33591 14.5947 2.33436C14.576 2.32465 14.557 2.31544 14.5375 2.3073C14.5354 2.30643 14.5332 2.30582 14.5311 2.30496C14.5106 2.29668 14.4898 2.28904 14.4685 2.28256C14.4662 2.28186 14.4638 2.28144 14.4615 2.28077C14.4405 2.2746 14.4193 2.26904 14.3976 2.2647C14.3916 2.26349 14.3854 2.26298 14.3794 2.26192C14.3614 2.25879 14.3433 2.25562 14.3249 2.25379C14.3 2.25127 14.275 2.25001 14.25 2.25H5.24927C4.85158 2.25045 4.47032 2.40864 4.18911 2.68984C3.9079 2.97105 3.74972 3.35231 3.74927 3.75V20.25C3.74972 20.6477 3.9079 21.029 4.18911 21.3102C4.47032 21.5914 4.85158 21.7495 5.24927 21.75H18.75C19.1477 21.7495 19.529 21.5914 19.8102 21.3102C20.0914 21.029 20.2495 20.6477 20.25 20.25V8.26495C20.2501 8.25993 20.2507 8.25505 20.2507 8.25ZM15 4.81066L17.6894 7.5H15V4.81066ZM18.75 20.25H5.24927V3.75H13.5V8.25C13.5 8.34849 13.5194 8.44602 13.5571 8.53702C13.5948 8.62801 13.65 8.71069 13.7197 8.78034C13.7893 8.84998 13.872 8.90523 13.963 8.94292C14.054 8.98061 14.1515 9 14.25 9H18.75L18.7509 20.25H18.75ZM15.1553 14.0947C15.225 14.1643 15.2802 14.247 15.3179 14.338C15.3556 14.429 15.375 14.5265 15.375 14.625C15.375 14.7235 15.3556 14.8211 15.3179 14.912C15.2802 15.003 15.225 15.0857 15.1553 15.1554L12.5303 17.7804C12.5276 17.7831 12.5246 17.7854 12.5218 17.7881C12.5068 17.8026 12.4916 17.8167 12.4755 17.8299C12.4663 17.8375 12.4566 17.8441 12.4471 17.8511C12.437 17.8587 12.427 17.8666 12.4165 17.8736C12.4056 17.8809 12.3944 17.8872 12.3832 17.8939C12.3734 17.8997 12.3637 17.9059 12.3536 17.9114C12.3423 17.9174 12.3307 17.9225 12.3192 17.9279C12.3085 17.933 12.298 17.9383 12.287 17.9429C12.2759 17.9474 12.2646 17.9511 12.2534 17.9552C12.2416 17.9594 12.2298 17.964 12.2177 17.9677C12.2065 17.971 12.1952 17.9735 12.1839 17.9763C12.1715 17.9795 12.1592 17.983 12.1465 17.9855C12.1334 17.9881 12.1203 17.9896 12.1071 17.9915C12.0961 17.9931 12.0852 17.9952 12.074 17.9963C12.0494 17.9987 12.0247 18 12 18C11.9753 18 11.9506 17.9987 11.926 17.9963C11.9148 17.9952 11.9039 17.9931 11.8929 17.9915C11.8797 17.9896 11.8666 17.9881 11.8535 17.9855C11.8408 17.983 11.8285 17.9795 11.8161 17.9763C11.8048 17.9735 11.7935 17.971 11.7823 17.9677C11.7702 17.964 11.7584 17.9594 11.7466 17.9552C11.7354 17.9511 11.7241 17.9474 11.713 17.9429C11.702 17.9383 11.6915 17.933 11.6808 17.9279C11.6693 17.9225 11.6577 17.9174 11.6464 17.9114C11.6363 17.9059 11.6267 17.8997 11.6168 17.8939C11.6056 17.8872 11.5944 17.8809 11.5835 17.8736C11.573 17.8666 11.563 17.8587 11.5529 17.8511C11.5434 17.8441 11.5337 17.8375 11.5245 17.8299C11.5084 17.8167 11.4932 17.8026 11.4782 17.7881C11.4755 17.7854 11.4724 17.7831 11.4697 17.7804L8.84468 15.1554C8.70403 15.0147 8.625 14.824 8.625 14.625C8.625 14.5265 8.6444 14.429 8.68208 14.338C8.71977 14.247 8.77502 14.1643 8.84466 14.0947C8.9143 14.0251 8.99698 13.9698 9.08797 13.9321C9.17897 13.8944 9.27649 13.875 9.37499 13.875C9.5739 13.875 9.76467 13.954 9.90532 14.0947L11.25 15.4394V11.25C11.25 11.0511 11.329 10.8603 11.4697 10.7197C11.6103 10.579 11.8011 10.5 12 10.5C12.1989 10.5 12.3897 10.579 12.5303 10.7197C12.671 10.8603 12.75 11.0511 12.75 11.25V15.4394L14.0947 14.0947C14.2353 13.954 14.4261 13.875 14.625 13.875C14.8239 13.875 15.0147 13.954 15.1553 14.0947Z" fill="#1D1F21" style="fill: var(--ui-icon-primary-color);"/>
</svg>
