<svg  viewBox="0 0 24 24" fill="none" xmlns="http://www.w3.org/2000/svg" id="__THIS_ID_NEEDS_FOR_UI_ICON_COMPONENT__">
<path d="M17.2505 12.0005C17.2559 15.0309 16.6655 18.0328 15.5129 20.8354C15.4755 20.9266 15.4205 21.0094 15.351 21.0793C15.2816 21.1492 15.199 21.2047 15.1081 21.2427C15.0172 21.2806 14.9197 21.3003 14.8212 21.3006C14.7226 21.3009 14.625 21.2817 14.5339 21.2443C14.4428 21.2068 14.3599 21.1517 14.2901 21.0823C14.2202 21.0128 14.1648 20.9302 14.1269 20.8393C14.0889 20.7483 14.0693 20.6508 14.0691 20.5523C14.0688 20.4538 14.088 20.3562 14.1255 20.2651C15.2036 17.6433 15.7557 14.8352 15.7505 12.0005C15.7505 11.8016 15.8295 11.6108 15.9702 11.4702C16.1108 11.3295 16.3016 11.2505 16.5005 11.2505C16.6994 11.2505 16.8902 11.3295 17.0308 11.4702C17.1715 11.6108 17.2505 11.8016 17.2505 12.0005L17.2505 12.0005ZM12.0005 8.25049C12.5281 8.25087 13.0496 8.36237 13.5312 8.57774C14.0128 8.7931 14.4436 9.10751 14.7956 9.50046C14.8613 9.57396 14.9408 9.63379 15.0296 9.67655C15.1184 9.7193 15.2147 9.74413 15.3131 9.74962C15.4115 9.75511 15.5101 9.74115 15.6031 9.70855C15.6961 9.67594 15.7817 9.62533 15.8552 9.55959C15.9286 9.49386 15.9884 9.4143 16.031 9.32546C16.0737 9.23662 16.0984 9.14024 16.1038 9.04183C16.1092 8.94342 16.0952 8.84491 16.0625 8.75194C16.0298 8.65896 15.9791 8.57334 15.9133 8.49997C15.2044 7.70761 14.2716 7.14915 13.2384 6.89849C12.2051 6.64783 11.1201 6.71677 10.1269 7.09621C9.13375 7.47565 8.27916 8.14769 7.67625 9.02342C7.07334 9.89915 6.75052 10.9373 6.75051 12.0005C6.75099 14.1599 6.20338 16.2841 5.15895 18.1741C5.06248 18.348 5.03907 18.5532 5.09386 18.7444C5.14864 18.9356 5.27715 19.0972 5.4511 19.1937C5.62505 19.2902 5.8302 19.3136 6.02141 19.2588C6.21263 19.204 6.37425 19.0755 6.47072 18.9016C7.63843 16.7889 8.25082 14.4144 8.25051 12.0005C8.25164 11.0063 8.6471 10.0531 9.35011 9.3501C10.0531 8.64709 11.0063 8.25163 12.0005 8.25049ZM12.0005 2.25049C10.8935 2.24922 9.79435 2.43691 8.75047 2.80549C8.65753 2.83825 8.57195 2.889 8.49863 2.95485C8.42532 3.0207 8.36569 3.10036 8.32318 3.18926C8.28066 3.27817 8.25608 3.37458 8.25084 3.47299C8.2456 3.5714 8.25981 3.66988 8.29265 3.76279C8.32549 3.85571 8.37632 3.94124 8.44223 4.0145C8.50815 4.08777 8.58785 4.14732 8.67679 4.18976C8.76573 4.2322 8.86217 4.2567 8.96058 4.26185C9.059 4.26701 9.15746 4.25271 9.25035 4.21979C10.4949 3.78124 11.8265 3.64739 13.1334 3.82946C14.4404 4.01153 15.6847 4.50422 16.762 5.26624C17.8393 6.02825 18.7183 7.0374 19.3253 8.2091C19.9322 9.3808 20.2495 10.6809 20.2505 12.0005C20.2512 13.9633 20.0331 15.92 19.6 17.8344C19.5781 17.9305 19.5753 18.03 19.5918 18.1272C19.6084 18.2244 19.6439 18.3173 19.6964 18.4008C19.7489 18.4842 19.8173 18.5565 19.8978 18.6134C19.9782 18.6704 20.0691 18.711 20.1652 18.7328C20.2614 18.7546 20.3609 18.7572 20.458 18.7406C20.5552 18.7239 20.6481 18.6883 20.7315 18.6357C20.8148 18.5831 20.887 18.5145 20.9439 18.434C21.0007 18.3535 21.0412 18.2625 21.0629 18.1664C21.5206 16.143 21.7512 14.075 21.7505 12.0005C21.7476 9.41553 20.7194 6.93728 18.8916 5.10943C17.0637 3.28159 14.5855 2.25342 12.0005 2.25049ZM6.50066 5.85099C6.64888 5.71834 6.73832 5.53225 6.74933 5.33365C6.76033 5.13505 6.69199 4.94021 6.55935 4.792C6.49366 4.71861 6.41417 4.65888 6.32541 4.61621C6.23664 4.57354 6.14034 4.54878 6.042 4.54333C5.8434 4.53233 5.64857 4.60066 5.50035 4.73331C4.47864 5.64845 3.66119 6.76856 3.10124 8.02069C2.5413 9.27282 2.25142 10.6289 2.25051 12.0005C2.25338 13.1869 1.99825 14.3597 1.5028 15.4377C1.46152 15.5272 1.4383 15.624 1.43447 15.7225C1.43063 15.821 1.44627 15.9194 1.48047 16.0118C1.51467 16.1043 1.56677 16.1891 1.63379 16.2614C1.70081 16.3338 1.78143 16.3921 1.87104 16.4333C1.96064 16.4744 2.05748 16.4975 2.15601 16.5011C2.25454 16.5048 2.35282 16.489 2.44524 16.4546C2.53765 16.4203 2.62238 16.368 2.69459 16.3009C2.76679 16.2337 2.82504 16.153 2.86602 16.0633C3.45193 14.7892 3.75374 13.4029 3.75051 12.0005C3.75132 10.8398 3.99664 9.69233 4.47049 8.63278C4.94434 7.57322 5.63608 6.62538 6.50066 5.85099H6.50066ZM10.6801 18.8189C10.4994 18.736 10.293 18.7282 10.1066 18.7974C9.92008 18.8665 9.7687 19.0069 9.68569 19.1877C9.50506 19.5812 9.30657 19.9734 9.09591 20.3535C9.04809 20.4396 9.01771 20.5343 9.0065 20.6322C8.9953 20.7301 9.00349 20.8292 9.03061 20.924C9.05773 21.0187 9.10324 21.1071 9.16455 21.1842C9.22587 21.2613 9.30177 21.3256 9.38794 21.3734C9.4741 21.4212 9.56883 21.4515 9.66672 21.4626C9.76461 21.4738 9.86373 21.4655 9.95843 21.4384C10.0531 21.4112 10.1415 21.3656 10.2186 21.3043C10.2957 21.2429 10.36 21.167 10.4077 21.0808C10.6367 20.6677 10.8525 20.2412 11.0489 19.8133C11.09 19.7238 11.1131 19.6271 11.1168 19.5287C11.1205 19.4303 11.1047 19.3321 11.0705 19.2397C11.0363 19.1474 10.9842 19.0627 10.9172 18.9905C10.8502 18.9183 10.7696 18.86 10.6801 18.8189H10.6801ZM11.9994 11.2504C11.8005 11.2504 11.6097 11.3294 11.4691 11.4701C11.3284 11.6107 11.2494 11.8015 11.2494 12.0004C11.2502 13.4552 11.0676 14.9043 10.706 16.3135C10.6813 16.4089 10.6757 16.5082 10.6894 16.6058C10.7032 16.7034 10.736 16.7974 10.7861 16.8822C10.8362 16.9671 10.9025 17.0413 10.9812 17.1006C11.06 17.1598 11.1497 17.203 11.2451 17.2275C11.3406 17.2521 11.4399 17.2576 11.5375 17.2438C11.6351 17.2299 11.729 17.1969 11.8138 17.1468C11.8987 17.0966 11.9728 17.0302 12.032 16.9514C12.0911 16.8726 12.1342 16.7828 12.1586 16.6874C12.5517 15.1561 12.7502 13.5813 12.7494 12.0004C12.7494 11.8015 12.6704 11.6107 12.5297 11.4701C12.3891 11.3294 12.1983 11.2504 11.9994 11.2504H11.9994Z" fill="#1D1F21" style="fill: var(--ui-icon-primary-color);"/>
</svg>
