<svg  viewBox="0 0 24 24" fill="none" xmlns="http://www.w3.org/2000/svg" id="__THIS_ID_NEEDS_FOR_UI_ICON_COMPONENT__">
<path d="M12 6.00015C10.8133 6.00015 9.65326 6.35204 8.66657 7.01133C7.67988 7.67061 6.91084 8.60768 6.45672 9.70403C6.0026 10.8004 5.88378 12.0068 6.11529 13.1707C6.3468 14.3345 6.91824 15.4036 7.75735 16.2428C8.59646 17.0819 9.66556 17.6533 10.8294 17.8848C11.9933 18.1163 13.1997 17.9975 14.2961 17.5434C15.3924 17.0893 16.3295 16.3202 16.9888 15.3335C17.6481 14.3468 18 13.1868 18 12.0001C17.9981 10.4094 17.3654 8.88432 16.2406 7.75949C15.1158 6.63467 13.5907 6.00195 12 6.00015ZM12 16.5001C11.11 16.5001 10.2399 16.2362 9.49992 15.7417C8.7599 15.2473 8.18313 14.5445 7.84253 13.7222C7.50194 12.8999 7.41283 11.9951 7.58646 11.1222C7.76009 10.2493 8.18867 9.44749 8.81801 8.81816C9.44734 8.18882 10.2492 7.76024 11.1221 7.58661C11.995 7.41298 12.8998 7.50209 13.722 7.84268C14.5443 8.18328 15.2471 8.76005 15.7416 9.50007C16.236 10.2401 16.5 11.1101 16.5 12.0001C16.4986 13.1932 16.0241 14.337 15.1805 15.1806C14.3368 16.0242 13.193 16.4988 12 16.5001ZM20.9999 12.5231V11.4773L21.8403 10.2168C21.9654 10.0315 22.0477 9.82068 22.0812 9.59961C22.1147 9.37855 22.0987 9.15279 22.0342 8.93871C21.8376 8.29198 21.5787 7.66585 21.2612 7.06911C21.1555 6.87226 21.0073 6.70141 20.8274 6.56896C20.6474 6.43651 20.4402 6.34579 20.2209 6.30337L18.7337 6.00592L17.9942 5.2664L17.6968 3.77918C17.6544 3.55981 17.5636 3.35264 17.4312 3.1727C17.2987 2.99276 17.1279 2.84457 16.931 2.73887C16.3343 2.4214 15.7081 2.16256 15.0614 1.96598C14.8473 1.90145 14.6216 1.88536 14.4005 1.9189C14.1794 1.95244 13.9686 2.03476 13.7833 2.15989L12.5229 3.00011H11.4771L10.2168 2.15994C10.0314 2.0348 9.8206 1.95248 9.59951 1.91893C9.37843 1.88539 9.15265 1.90146 8.93855 1.96598C8.29187 2.16256 7.66577 2.42138 7.06905 2.73882C6.87215 2.8445 6.70125 2.9927 6.56877 3.17267C6.43629 3.35264 6.34556 3.55985 6.30317 3.77927L6.00581 5.26636L5.26625 6.00592L3.77912 6.30328C3.55974 6.34569 3.35256 6.43641 3.17261 6.56886C2.99266 6.70131 2.84446 6.87217 2.73876 7.06903C2.42124 7.66579 2.16235 8.29195 1.96574 8.93871C1.90125 9.15279 1.88519 9.37853 1.91873 9.59958C1.95226 9.82064 2.03456 10.0315 2.15965 10.2168L2.99992 11.4772V12.523L2.15965 13.7834C2.03455 13.9687 1.95226 14.1795 1.91873 14.4006C1.8852 14.6216 1.90127 14.8474 1.96579 15.0615C2.16234 15.7082 2.42118 16.3344 2.73867 16.9311C2.84436 17.128 2.99256 17.2989 3.17251 17.4313C3.35246 17.5638 3.55965 17.6545 3.77903 17.6969L5.2662 17.9943L6.00572 18.7338L6.30308 20.221C6.34549 20.4404 6.43621 20.6476 6.56866 20.8276C6.70111 21.0075 6.87197 21.1557 7.06883 21.2614C7.66558 21.5789 8.29171 21.8377 8.93842 22.0343C9.1525 22.0988 9.37824 22.1149 9.59929 22.0813C9.82034 22.0478 10.0312 21.9655 10.2165 21.8405L11.4769 21.0001H12.5228L13.7833 21.8405C14.0332 22.0082 14.3271 22.0981 14.6281 22.0989C14.7749 22.0988 14.9209 22.0771 15.0614 22.0344C15.7081 21.8378 16.3342 21.579 16.9309 21.2615C17.1278 21.1558 17.2986 21.0076 17.4311 20.8277C17.5636 20.6477 17.6543 20.4405 17.6967 20.2211L17.9941 18.7339L18.7337 17.9943L20.2208 17.697C20.4402 17.6546 20.6474 17.5638 20.8273 17.4314C21.0073 17.2989 21.1555 17.1281 21.2612 16.9312C21.5787 16.3345 21.8376 15.7084 22.0342 15.0617C22.0987 14.8476 22.1148 14.6218 22.0812 14.4008C22.0477 14.1797 21.9654 13.9689 21.8403 13.7836L20.9999 12.5231ZM19.9417 16.2196C19.9373 16.2229 19.9321 16.2251 19.9267 16.2261L18.2168 16.568C18.0716 16.597 17.9382 16.6684 17.8335 16.7731L16.7729 17.8338C16.6682 17.9385 16.5968 18.0719 16.5678 18.2171L16.2258 19.927C16.2243 19.9345 16.2212 19.9398 16.2243 19.9384C15.7156 20.2089 15.182 20.4298 14.631 20.5981C14.6253 20.5975 14.62 20.5956 14.6153 20.5924L13.1659 19.6261C13.0427 19.544 12.8979 19.5001 12.7499 19.5001H11.2499C11.1018 19.5001 10.9571 19.544 10.8339 19.6261L9.38446 20.5923C9.37805 20.5966 9.371 20.598 9.37489 20.5992C8.82361 20.4317 8.28968 20.2116 7.78046 19.942C7.77714 19.9375 7.77491 19.9323 7.77396 19.9269L7.43206 18.217C7.40304 18.0718 7.33166 17.9384 7.22693 17.8338L6.1663 16.7731C6.0616 16.6684 5.92825 16.5971 5.78306 16.568L4.07323 16.226C4.06801 16.2249 4.06394 16.2232 4.06234 16.2232C4.0616 16.2232 4.06138 16.2235 4.06179 16.2245C3.7913 15.7157 3.57037 15.1821 3.40206 14.631C3.40264 14.6254 3.40459 14.6201 3.40774 14.6154L4.37393 13.1661C4.45607 13.0429 4.49991 12.8981 4.49991 12.7501V11.2501C4.49991 11.102 4.45607 10.9573 4.37393 10.8341L3.40774 9.38475C3.40348 9.37829 3.40206 9.37138 3.40087 9.37513C3.56845 8.82381 3.78858 8.28986 4.05822 7.78061C4.06265 7.7773 4.06782 7.77508 4.07328 7.77416L5.78306 7.43225C5.92827 7.40323 6.06162 7.33186 6.1663 7.22713L7.22703 6.16641C7.33176 6.06173 7.40313 5.92837 7.43215 5.78317L7.77406 4.07338C7.77557 4.06588 7.77868 4.06098 7.77557 4.06203C8.28433 3.7915 8.81795 3.57056 9.36904 3.40226C9.37446 3.40349 9.3797 3.40539 9.38465 3.40794L10.834 4.37413C10.9572 4.45629 11.1019 4.50013 11.25 4.50011H12.75C12.898 4.50013 13.0428 4.45629 13.166 4.37413L14.6154 3.40789C14.6218 3.40363 14.6287 3.40226 14.6249 3.40107C15.1762 3.56863 15.7102 3.78874 16.2194 4.05837C16.2228 4.06279 16.225 4.06794 16.2259 4.07338L16.5679 5.78326C16.5969 5.92846 16.6683 6.06181 16.773 6.1665L17.8336 7.22713C17.9383 7.33182 18.0717 7.40319 18.2168 7.43226L19.9266 7.77425C19.9342 7.77567 19.9394 7.77887 19.938 7.77572C20.2086 8.28445 20.4296 8.81803 20.5979 9.36909C20.5973 9.37469 20.5953 9.38007 20.5922 9.38475L19.6259 10.8342C19.5438 10.9574 19.5 11.1021 19.4999 11.2502V12.7502C19.5 12.8982 19.5438 13.043 19.6259 13.1662L20.5922 14.6156C20.5965 14.622 20.5979 14.629 20.5991 14.6252C20.4315 15.1765 20.2114 15.7104 19.9417 16.2196H19.9417Z" fill="#1D1F21" style="fill: var(--ui-icon-primary-color);"/>
</svg>
