<svg  viewBox="0 0 24 24" fill="none" xmlns="http://www.w3.org/2000/svg" id="__THIS_ID_NEEDS_FOR_UI_ICON_COMPONENT__">
<path d="M20.644 9.7489L18.7691 6.50134C18.5474 6.11814 18.2324 5.79718 17.8535 5.56826C17.4745 5.33934 17.0439 5.20987 16.6016 5.19189C16.1592 5.17392 15.7195 5.268 15.3232 5.46542C14.9269 5.66283 14.587 5.95717 14.3349 6.32112L12.709 3.50487C12.4816 3.11085 12.1557 2.7827 11.7633 2.5526C11.3709 2.32251 10.9254 2.19837 10.4706 2.19236C10.0157 2.18635 9.56712 2.29868 9.16877 2.51834C8.77042 2.73799 8.436 3.05742 8.19833 3.44529C7.73423 3.02598 7.13567 2.78615 6.51044 2.76899C5.88521 2.75182 5.2744 2.95844 4.78798 3.35164C4.30157 3.74484 3.97152 4.29879 3.85727 4.91373C3.74302 5.52867 3.85207 6.1642 4.16479 6.70587L4.85418 7.89993C4.41273 7.93541 3.98743 8.08204 3.6179 8.32616C3.24838 8.57028 2.94665 8.90395 2.74082 9.29609C2.53499 9.68824 2.43175 10.1261 2.44072 10.5689C2.4497 11.0117 2.57059 11.445 2.79214 11.8285L6.35464 17.9989C6.89634 18.9372 7.61754 19.7595 8.47707 20.4191C9.33659 21.0786 10.3176 21.5624 11.3641 21.8428C12.4106 22.1232 13.502 22.1947 14.5762 22.0533C15.6503 21.9119 16.6861 21.5603 17.6243 21.0186C18.5626 20.4769 19.3849 19.7557 20.0445 18.8962C20.704 18.0366 21.1878 17.0556 21.4682 16.0091C21.7486 14.9627 21.8201 13.8712 21.6787 12.7971C21.5373 11.7229 21.1857 10.6872 20.644 9.7489ZM20.0193 15.621C19.6738 16.9105 18.9536 18.0686 17.9499 18.9488C16.9462 19.8291 15.7039 20.3919 14.3803 20.5662C13.0567 20.7404 11.7112 20.5183 10.5138 19.9278C9.31648 19.3373 8.32111 18.4051 7.65359 17.2489L4.09118 11.0785C3.94227 10.8201 3.90203 10.5132 3.97932 10.2252C4.05661 9.93716 4.24509 9.69161 4.50335 9.54249C4.76161 9.39337 5.06851 9.3529 5.3566 9.42997C5.64469 9.50703 5.89039 9.69533 6.0397 9.95348L7.7272 12.8763C7.74293 12.9032 7.7603 12.929 7.7792 12.9537C7.78424 12.9603 7.78955 12.9667 7.79477 12.9732C7.80941 12.9913 7.82475 13.0085 7.84077 13.0249C7.84645 13.0307 7.85194 13.0367 7.85775 13.0423C7.87911 13.063 7.90169 13.0825 7.92537 13.1005L7.92779 13.1022C7.95064 13.119 7.97442 13.1346 7.99902 13.1488C8.00612 13.1529 8.0133 13.1567 8.02053 13.1605C8.04031 13.1712 8.0605 13.181 8.0811 13.1898C8.08806 13.1928 8.09483 13.1959 8.10188 13.1987C8.12907 13.2095 8.15687 13.2188 8.18515 13.2264C8.18698 13.2269 8.18885 13.2271 8.19069 13.2276C8.21709 13.2343 8.24383 13.2395 8.27079 13.2433C8.27881 13.2444 8.28682 13.2452 8.29483 13.2461C8.31735 13.2486 8.33999 13.2501 8.36276 13.2505C8.3677 13.2506 8.37256 13.2515 8.3775 13.2515C8.37988 13.2515 8.38231 13.251 8.38469 13.251C8.41382 13.2509 8.44293 13.249 8.47184 13.2454C8.47427 13.2451 8.4767 13.2445 8.47912 13.2442C8.50556 13.2404 8.53179 13.2353 8.55768 13.2288C8.56614 13.2267 8.57452 13.2241 8.58294 13.2217C8.60391 13.2157 8.62469 13.2087 8.64529 13.2008C8.65353 13.1976 8.66172 13.1946 8.66987 13.1912C8.76796 13.1501 8.85616 13.0886 8.92855 13.0107C9.00093 12.9329 9.05584 12.8404 9.08958 12.7396C9.12333 12.6388 9.13513 12.5319 9.12421 12.4261C9.11328 12.3204 9.07988 12.2181 9.02624 12.1263L7.33874 9.20343L7.33837 9.20283L5.46374 5.95583C5.31486 5.69744 5.27466 5.39052 5.35197 5.1025C5.42928 4.81449 5.61778 4.56896 5.87604 4.41986C6.1343 4.27076 6.44119 4.2303 6.72927 4.30737C7.01734 4.38444 7.26304 4.57274 7.41235 4.83087L8.16079 6.12726L8.16226 6.12991L10.5998 10.3518C10.649 10.4371 10.7146 10.5119 10.7927 10.5718C10.8708 10.6318 10.96 10.6758 11.0552 10.7013C11.1503 10.7268 11.2495 10.7333 11.3472 10.7204C11.4448 10.7076 11.539 10.6756 11.6243 10.6263C11.7096 10.5771 11.7843 10.5115 11.8443 10.4334C11.9043 10.3553 11.9482 10.2661 11.9737 10.1709C11.9992 10.0758 12.0057 9.97658 11.9929 9.87893C11.98 9.78128 11.948 9.68712 11.8988 9.60182L9.46139 5.37991C9.38752 5.25197 9.33958 5.11072 9.3203 4.96425C9.30102 4.81777 9.31077 4.66893 9.34901 4.52622C9.38725 4.38352 9.45323 4.24974 9.54317 4.13253C9.6331 4.01532 9.74525 3.91698 9.8732 3.84311C10.0011 3.76924 10.1424 3.7213 10.2889 3.70201C10.4353 3.68273 10.5842 3.69249 10.7269 3.73073C10.8696 3.76897 11.0034 3.83494 11.1206 3.92488C11.2378 4.01482 11.3361 4.12697 11.41 4.25491L14.2223 9.12593L14.2225 9.12634L14.8159 10.1542C13.9966 10.8323 13.4439 11.7786 13.2557 12.8253C13.0674 13.872 13.2558 14.9516 13.7874 15.8727C13.8366 15.958 13.9022 16.0328 13.9803 16.0927C14.0584 16.1527 14.1476 16.1966 14.2427 16.2221C14.3379 16.2476 14.4371 16.2541 14.5347 16.2413C14.6324 16.2284 14.7265 16.1964 14.8118 16.1472C14.8971 16.098 14.9719 16.0324 15.0318 15.9543C15.0918 15.8761 15.1358 15.7869 15.1612 15.6918C15.1867 15.5967 15.1932 15.4975 15.1804 15.3998C15.1675 15.3022 15.1355 15.208 15.0863 15.1227C14.6885 14.4337 14.5807 13.6148 14.7867 12.8462C14.9926 12.0777 15.4954 11.4225 16.1845 11.0246C16.2061 11.0122 16.227 10.9986 16.2473 10.984C16.2642 10.9719 16.2801 10.9588 16.2956 10.9456C16.2986 10.943 16.3018 10.9408 16.3048 10.9383C16.3227 10.9226 16.3396 10.906 16.3557 10.8889L16.3572 10.8874C16.3734 10.8701 16.3886 10.8521 16.4029 10.8335L16.4046 10.8315C16.4181 10.8139 16.4306 10.7955 16.4425 10.7768C16.4437 10.7749 16.4451 10.7731 16.4464 10.7711C16.457 10.7539 16.4666 10.7362 16.4758 10.7184C16.4778 10.7144 16.4802 10.7106 16.4822 10.7066C16.4904 10.6899 16.4975 10.6727 16.5045 10.6554C16.5067 10.6499 16.5094 10.6446 16.5115 10.639C16.519 10.6189 16.5254 10.5983 16.5312 10.5776C16.532 10.5748 16.5332 10.5721 16.5339 10.5693C16.5347 10.5665 16.535 10.5636 16.5358 10.5609C16.5411 10.54 16.5458 10.5189 16.5494 10.4976C16.5505 10.4911 16.5508 10.4845 16.5517 10.478C16.5542 10.4602 16.5566 10.4425 16.5578 10.4246C16.5582 10.4191 16.5579 10.4137 16.5582 10.4082C16.559 10.3892 16.5597 10.3701 16.5591 10.351C16.5589 10.3473 16.5584 10.3437 16.5582 10.3401C16.5573 10.3193 16.5558 10.2985 16.5531 10.2777C16.5528 10.2754 16.5522 10.2731 16.5519 10.2707C16.5488 10.249 16.5451 10.2273 16.5401 10.2057C16.5394 10.2031 16.5385 10.2005 16.5379 10.1979C16.5328 10.1769 16.5271 10.156 16.5201 10.1353C16.518 10.1292 16.5153 10.1233 16.513 10.1173C16.5068 10.1004 16.5007 10.0835 16.4931 10.0669C16.4829 10.0441 16.4715 10.0218 16.459 10.0001L15.5215 8.37629C15.3726 8.11791 15.3324 7.81098 15.4097 7.52297C15.487 7.23496 15.6755 6.98942 15.9338 6.84033C16.192 6.69123 16.4989 6.65077 16.787 6.72784C17.0751 6.80491 17.3207 6.9932 17.4701 7.25134L19.3451 10.4989C19.7905 11.2657 20.0795 12.1132 20.1952 12.9924C20.311 13.8716 20.2512 14.765 20.0193 15.621ZM8.21884 22.9276C8.16273 23.0086 8.09122 23.0777 8.00839 23.131C7.92557 23.1843 7.83305 23.2208 7.73613 23.2383C7.63921 23.2559 7.53979 23.2542 7.44353 23.2333C7.34727 23.2124 7.25607 23.1727 7.17514 23.1166C5.81177 22.1729 4.67599 20.9371 3.85049 19.4991C3.75104 19.3269 3.72408 19.1222 3.77556 18.93C3.82703 18.7379 3.95272 18.5741 4.12497 18.4747C4.29722 18.3752 4.50192 18.3482 4.69405 18.3997C4.88618 18.4512 5.04999 18.5769 5.14944 18.7491C5.86462 19.9952 6.84864 21.0661 8.02987 21.8839C8.19334 21.9973 8.30508 22.1709 8.34051 22.3667C8.37595 22.5624 8.33218 22.7642 8.21884 22.9276ZM15.75 2.90556C15.7502 2.70677 15.8292 2.51618 15.9699 2.37568C16.1105 2.23518 16.3012 2.15625 16.5 2.15625H16.5007C17.4875 2.15854 18.4564 2.41948 19.3109 2.91303C20.1654 3.40659 20.8756 4.11553 21.3707 4.96916C21.42 5.05447 21.452 5.14865 21.4649 5.24633C21.4778 5.34402 21.4713 5.44328 21.4458 5.53846C21.4203 5.63364 21.3764 5.72287 21.3164 5.80104C21.2564 5.87922 21.1816 5.94481 21.0963 5.99407C21.011 6.04333 20.9168 6.0753 20.8191 6.08815C20.7214 6.10099 20.6221 6.09446 20.527 6.06893C20.4318 6.0434 20.3426 5.99937 20.2644 5.93936C20.1863 5.87934 20.1207 5.80452 20.0715 5.71916C19.7084 5.09306 19.1874 4.5731 18.5606 4.21113C17.9338 3.84917 17.223 3.65785 16.4992 3.65625C16.3003 3.65606 16.1096 3.57686 15.9691 3.43608C15.8286 3.2953 15.7498 3.10447 15.75 2.90556Z" fill="#1D1F21" style="fill: var(--ui-icon-primary-color);"/>
</svg>
