<svg  viewBox="0 0 24 24" fill="none" xmlns="http://www.w3.org/2000/svg" id="__THIS_ID_NEEDS_FOR_UI_ICON_COMPONENT__">
<path d="M22.4027 19.3344L21.0694 7.33433C21.029 6.96732 20.8545 6.62815 20.5793 6.3819C20.3042 6.13565 19.9478 5.99966 19.5786 6H16.4362C16.2591 4.95148 15.7164 3.99956 14.9043 3.3131C14.0922 2.62664 13.0632 2.25 11.9999 2.25C10.9365 2.25 9.90751 2.62664 9.09541 3.3131C8.28331 3.99956 7.74059 4.95148 7.56354 6H4.42113C4.05189 5.99966 3.69551 6.13566 3.42038 6.38192C3.14524 6.62818 2.97072 6.96735 2.93028 7.33438L1.597 19.3344C1.57371 19.544 1.59491 19.7563 1.65921 19.9572C1.72351 20.1581 1.82947 20.3432 1.97016 20.5004C2.11085 20.6576 2.28312 20.7833 2.47571 20.8694C2.6683 20.9555 2.87689 21 3.08784 21H20.9119C21.1228 21 21.3314 20.9555 21.524 20.8694C21.7166 20.7833 21.8889 20.6576 22.0296 20.5004C22.1702 20.3432 22.2762 20.1581 22.3405 19.9572C22.4048 19.7563 22.426 19.544 22.4027 19.3344H22.4027ZM11.9999 3.75C12.6648 3.75085 13.3106 3.97218 13.8363 4.37932C14.362 4.78647 14.7378 5.35644 14.9049 6H9.0948C9.26193 5.35644 9.63775 4.78647 10.1634 4.37932C10.6891 3.97218 11.335 3.75085 11.9999 3.75ZM3.08784 19.5L4.42113 7.5H19.5786L20.9119 19.5H3.08784Z" fill="#1D1F21" style="fill: var(--ui-icon-primary-color);"/>
</svg>
