<svg  viewBox="0 0 24 24" fill="none" xmlns="http://www.w3.org/2000/svg" id="__THIS_ID_NEEDS_FOR_UI_ICON_COMPONENT__">
<path d="M20.9545 4.45361H3.04553C2.62372 4.4541 2.21932 4.62188 1.92106 4.92014C1.62279 5.21841 1.45501 5.62281 1.45453 6.04462V17.9536C1.45501 18.3754 1.62279 18.7798 1.92106 19.0781C2.21932 19.3764 2.62372 19.5441 3.04553 19.5446H20.9545C21.3763 19.5441 21.7807 19.3764 22.079 19.0781C22.3773 18.7798 22.545 18.3754 22.5455 17.9536V6.04462C22.545 5.62281 22.3773 5.21841 22.079 4.92014C21.7807 4.62188 21.3763 4.4541 20.9545 4.45361ZM20.9545 17.9536H3.04553V6.04462H20.9545L20.9555 17.9536H20.9545ZM19.5 11.9991C19.5 12.198 19.421 12.3888 19.2804 12.5294C19.1397 12.6701 18.9489 12.7491 18.75 12.7491H5.25003C5.05112 12.7491 4.86035 12.6701 4.7197 12.5294C4.57905 12.3888 4.50003 12.198 4.50003 11.9991C4.50003 11.8002 4.57905 11.6094 4.7197 11.4688C4.86035 11.3281 5.05112 11.2491 5.25003 11.2491H18.75C18.9489 11.2491 19.1397 11.3281 19.2804 11.4688C19.421 11.6094 19.5 11.8002 19.5 11.9991ZM19.5 8.99911C19.5 9.19803 19.421 9.38879 19.2804 9.52944C19.1397 9.67009 18.9489 9.74911 18.75 9.74911H5.25003C5.05112 9.74911 4.86035 9.6701 4.7197 9.52944C4.57905 9.38879 4.50003 9.19803 4.50003 8.99911C4.50003 8.8002 4.57905 8.60944 4.7197 8.46879C4.86035 8.32813 5.05112 8.24911 5.25003 8.24911H18.75C18.9489 8.24912 19.1397 8.32814 19.2804 8.46879C19.421 8.60944 19.5 8.8002 19.5 8.99911ZM6.75003 14.9991C6.75003 15.198 6.67101 15.3888 6.53036 15.5294C6.38971 15.6701 6.19894 15.7491 6.00003 15.7491H5.25003C5.05112 15.7491 4.86035 15.6701 4.7197 15.5294C4.57905 15.3888 4.50003 15.198 4.50003 14.9991C4.50003 14.8002 4.57905 14.6094 4.7197 14.4688C4.86035 14.3281 5.05112 14.2491 5.25003 14.2491H6.00003C6.19894 14.2491 6.38971 14.3281 6.53036 14.4688C6.67101 14.6094 6.75003 14.8002 6.75003 14.9991ZM15.75 14.9991C15.75 15.198 15.671 15.3888 15.5304 15.5294C15.3897 15.6701 15.1989 15.7491 15 15.7491H9.00003C8.80112 15.7491 8.61035 15.6701 8.4697 15.5294C8.32905 15.3888 8.25003 15.198 8.25003 14.9991C8.25003 14.8002 8.32905 14.6094 8.4697 14.4688C8.61035 14.3281 8.80112 14.2491 9.00003 14.2491H15C15.1989 14.2491 15.3897 14.3281 15.5304 14.4688C15.671 14.6094 15.75 14.8002 15.75 14.9991ZM19.5 14.9991C19.5 15.198 19.421 15.3888 19.2804 15.5294C19.1397 15.6701 18.9489 15.7491 18.75 15.7491H18C17.8011 15.7491 17.6104 15.6701 17.4697 15.5294C17.329 15.3888 17.25 15.198 17.25 14.9991C17.25 14.8002 17.329 14.6094 17.4697 14.4688C17.6104 14.3281 17.8011 14.2491 18 14.2491H18.75C18.9489 14.2491 19.1397 14.3281 19.2804 14.4688C19.421 14.6094 19.5 14.8002 19.5 14.9991Z" fill="#1D1F21" style="fill: var(--ui-icon-primary-color);"/>
</svg>
