<svg  viewBox="0 0 24 24" fill="none" xmlns="http://www.w3.org/2000/svg" id="__THIS_ID_NEEDS_FOR_UI_ICON_COMPONENT__">
<path d="M5.055 3.24512C4.98877 3.17216 4.90882 3.11297 4.8197 3.07093C4.73058 3.02888 4.63406 3.00481 4.53563 3.00009C4.43721 2.99536 4.33882 3.01008 4.24609 3.0434C4.15335 3.07672 4.0681 3.12799 3.99519 3.19427C3.92227 3.26055 3.86314 3.34055 3.82116 3.4297C3.77918 3.51885 3.75518 3.61539 3.75053 3.71382C3.74588 3.81225 3.76067 3.91063 3.79406 4.00333C3.82745 4.09604 3.87877 4.18126 3.94511 4.25413L7.62393 8.30083L3.95175 12.2353C3.86763 12.3255 3.80703 12.435 3.77531 12.5541C3.7436 12.6733 3.74175 12.7984 3.76992 12.9184C3.7981 13.0385 3.85543 13.1497 3.93685 13.2423C4.01827 13.3349 4.12126 13.406 4.23671 13.4493L9.63955 15.4754L8.26462 22.35C8.2326 22.51 8.25365 22.6761 8.32457 22.8231C8.39549 22.97 8.51242 23.0899 8.6576 23.1644C8.80279 23.2389 8.96831 23.264 9.12907 23.2359C9.28982 23.2078 9.43703 23.1281 9.54837 23.0088L15.3469 16.7961L18.9451 20.7541C19.0113 20.8271 19.0913 20.8863 19.1804 20.9283C19.2695 20.9704 19.3661 20.9944 19.4645 20.9992C19.5629 21.0039 19.6613 20.9892 19.754 20.9558C19.8468 20.9225 19.932 20.8713 20.0049 20.805C20.0778 20.7387 20.137 20.6587 20.179 20.5695C20.2209 20.4804 20.2449 20.3839 20.2496 20.2854C20.2542 20.187 20.2394 20.0886 20.2061 19.9959C20.1727 19.9032 20.1213 19.818 20.055 19.7451L5.055 3.24512ZM10.2533 20.0551L11.2355 15.1441C11.2704 14.9696 11.2421 14.7883 11.1556 14.6327C11.0691 14.4771 10.9301 14.3573 10.7634 14.2948L5.81375 12.4387L8.63636 9.4145L14.3345 15.6824L10.2533 20.0551ZM10.1858 6.65528C10.0403 6.51956 9.95479 6.33163 9.94793 6.13283C9.94107 5.93404 10.0135 5.74066 10.1492 5.59524L14.4517 0.985326C14.5631 0.866036 14.7103 0.786312 14.871 0.758247C15.0318 0.730182 15.1973 0.755307 15.3425 0.829811C15.4877 0.904315 15.6046 1.02413 15.6755 1.17109C15.7464 1.31805 15.7675 1.48413 15.7355 1.64414L14.3606 8.51874L19.7634 10.5448C19.8789 10.5881 19.9819 10.6592 20.0633 10.7518C20.1447 10.8444 20.2021 10.9556 20.2302 11.0757C20.2584 11.1957 20.2566 11.3208 20.2248 11.44C20.1931 11.5592 20.1325 11.6687 20.0484 11.7588L17.9563 14.0003C17.8206 14.1455 17.6327 14.2308 17.434 14.2376C17.2354 14.2443 17.0421 14.1719 16.8968 14.0363C16.7515 13.9007 16.6659 13.7129 16.659 13.5142C16.652 13.3156 16.7242 13.1223 16.8597 12.9768L18.1864 11.5554L13.2367 9.69931C13.07 9.6368 12.931 9.51703 12.8445 9.36143C12.758 9.20583 12.7297 9.02454 12.7646 8.84998L13.7468 3.93904L11.2458 6.6187C11.1101 6.76411 10.9221 6.84965 10.7234 6.85651C10.5246 6.86337 10.3312 6.79099 10.1858 6.65528Z" fill="#1D1F21" style="fill: var(--ui-icon-primary-color);"/>
</svg>
