<svg  viewBox="0 0 24 24" fill="none" xmlns="http://www.w3.org/2000/svg" id="__THIS_ID_NEEDS_FOR_UI_ICON_COMPONENT__">
<path d="M8.99975 23.2495C8.88881 23.2495 8.77927 23.2248 8.67901 23.1773C8.57876 23.1298 8.49028 23.0607 8.41997 22.9749C8.34965 22.8891 8.29924 22.7887 8.27237 22.6811C8.2455 22.5735 8.24284 22.4612 8.26458 22.3524L9.63952 15.4778L4.23667 13.4518C4.12121 13.4085 4.01821 13.3374 3.93679 13.2448C3.85536 13.1522 3.79802 13.0409 3.76984 12.9209C3.74167 12.8009 3.74352 12.6757 3.77524 12.5566C3.80697 12.4374 3.86758 12.3279 3.95171 12.2378L14.4517 0.987766C14.5631 0.868477 14.7103 0.788754 14.871 0.760689C15.0318 0.732624 15.1973 0.757748 15.3424 0.832252C15.4876 0.906755 15.6045 1.02657 15.6755 1.17353C15.7464 1.32049 15.7675 1.48657 15.7355 1.64658L14.3605 8.52118L19.7634 10.5472C19.8788 10.5905 19.9818 10.6616 20.0633 10.7542C20.1447 10.8468 20.202 10.9581 20.2302 11.0781C20.2584 11.1981 20.2565 11.3233 20.2248 11.4424C20.1931 11.5616 20.1325 11.6711 20.0483 11.7612L9.54833 23.0112C9.47814 23.0865 9.39321 23.1465 9.29883 23.1875C9.20445 23.2285 9.10265 23.2496 8.99975 23.2495ZM5.81376 12.4412L10.7634 14.2972C10.9301 14.3598 11.0691 14.4795 11.1556 14.6351C11.242 14.7907 11.2704 14.972 11.2355 15.1466L10.2533 20.0576L18.1863 11.5578L13.2367 9.70176C13.07 9.63924 12.931 9.51947 12.8445 9.36387C12.758 9.20827 12.7297 9.02699 12.7646 8.85242L13.7468 3.94144L5.81376 12.4412Z" fill="#1D1F21" style="fill: var(--ui-icon-primary-color);"/>
</svg>
