<svg  viewBox="0 0 24 24" fill="none" xmlns="http://www.w3.org/2000/svg" id="__THIS_ID_NEEDS_FOR_UI_ICON_COMPONENT__">
<path d="M20.9998 11.9995C20.9998 12.1984 20.9208 12.3892 20.7802 12.5299C20.6395 12.6705 20.4487 12.7495 20.2498 12.7495H9.74993C9.55101 12.7495 9.36025 12.6705 9.2196 12.5299C9.07894 12.3892 8.99993 12.1984 8.99993 11.9995C8.99993 11.8006 9.07894 11.6099 9.2196 11.4692C9.36025 11.3286 9.55101 11.2495 9.74993 11.2495H20.2498C20.4487 11.2495 20.6395 11.3286 20.7802 11.4692C20.9208 11.6099 20.9998 11.8006 20.9998 11.9995ZM9.74993 6.74954H20.2498C20.4487 6.74954 20.6395 6.67052 20.7802 6.52987C20.9208 6.38921 20.9998 6.19845 20.9998 5.99954C20.9998 5.80062 20.9208 5.60986 20.7802 5.46921C20.6395 5.32855 20.4487 5.24954 20.2498 5.24954H9.74993C9.55101 5.24954 9.36025 5.32855 9.2196 5.46921C9.07894 5.60986 8.99993 5.80062 8.99993 5.99954C8.99993 6.19845 9.07894 6.38921 9.2196 6.52987C9.36025 6.67052 9.55101 6.74954 9.74993 6.74954ZM20.2498 17.2495H9.74983C9.55092 17.2495 9.36015 17.3286 9.2195 17.4692C9.07885 17.6099 8.99983 17.8006 8.99983 17.9995C8.99983 18.1984 9.07885 18.3892 9.2195 18.5299C9.36015 18.6705 9.55092 18.7495 9.74983 18.7495H20.2498C20.4487 18.7495 20.6395 18.6705 20.7802 18.5299C20.9208 18.3892 20.9998 18.1984 20.9998 17.9995C20.9998 17.8006 20.9208 17.6099 20.7802 17.4692C20.6395 17.3286 20.4487 17.2495 20.2498 17.2495ZM4.08533 6.29534L4.49993 6.08807V10.124C4.49993 10.3229 4.57894 10.5137 4.7196 10.6543C4.86025 10.795 5.05101 10.874 5.24993 10.874C5.44884 10.874 5.6396 10.795 5.78026 10.6543C5.92091 10.5137 5.99993 10.3229 5.99993 10.124V4.87454C5.99994 4.74669 5.96727 4.62096 5.90502 4.50929C5.84277 4.39762 5.75301 4.30372 5.64425 4.23651C5.5355 4.1693 5.41137 4.131 5.28365 4.12527C5.15593 4.11953 5.02886 4.14654 4.91452 4.20373L3.41452 4.95373C3.32635 4.99773 3.24771 5.05867 3.1831 5.13307C3.11849 5.20748 3.06917 5.29388 3.03797 5.38735C3.00677 5.48083 2.9943 5.57953 3.00127 5.67782C3.00823 5.77612 3.0345 5.87208 3.07857 5.96022C3.12264 6.04835 3.18364 6.12694 3.2581 6.19149C3.33256 6.25604 3.419 6.30529 3.5125 6.33641C3.606 6.36753 3.70471 6.37992 3.803 6.37288C3.90129 6.36583 3.99723 6.33948 4.08533 6.29534ZM6.77222 15.9657C6.93309 15.7272 7.04229 15.4577 7.09281 15.1745C7.14334 14.8913 7.13406 14.6007 7.06559 14.3212C6.99711 14.0418 6.87095 13.7798 6.6952 13.5521C6.51946 13.3243 6.29802 13.1359 6.04511 12.9988C5.7922 12.8617 5.51341 12.779 5.22665 12.7561C4.93989 12.7332 4.6515 12.7705 4.38002 12.8656C4.10853 12.9607 3.85995 13.1116 3.65023 13.3085C3.44052 13.5055 3.27431 13.7441 3.16229 14.009C3.08481 14.1922 3.08328 14.3987 3.15804 14.583C3.23279 14.7674 3.37771 14.9145 3.56091 14.9919C3.74412 15.0694 3.9506 15.071 4.13493 14.9962C4.31926 14.9214 4.46634 14.7765 4.54383 14.5933C4.57411 14.5216 4.61894 14.457 4.67547 14.4035C4.73201 14.35 4.79903 14.3088 4.8723 14.2826C4.94556 14.2563 5.02348 14.2455 5.10112 14.2509C5.17877 14.2563 5.25445 14.2777 5.32339 14.3138C5.39233 14.35 5.45303 14.4 5.50164 14.4608C5.55026 14.5215 5.58574 14.5917 5.60584 14.6669C5.62594 14.7421 5.63022 14.8207 5.61842 14.8976C5.60662 14.9745 5.57898 15.0482 5.53726 15.1139L3.14975 18.2997C3.06624 18.4112 3.0154 18.5437 3.00293 18.6824C2.99046 18.8211 3.01686 18.9605 3.07916 19.0851C3.14146 19.2096 3.23721 19.3144 3.35568 19.3876C3.47415 19.4608 3.61066 19.4995 3.74993 19.4995H6.37493C6.57384 19.4995 6.7646 19.4205 6.90526 19.2799C7.04591 19.1392 7.12493 18.9484 7.12493 18.7495C7.12493 18.5506 7.04591 18.3599 6.90526 18.2192C6.7646 18.0786 6.57384 17.9995 6.37493 17.9995H5.24919L6.75093 15.9956C6.75826 15.9858 6.7654 15.9759 6.77222 15.9657Z" fill="#1D1F21" style="fill: var(--ui-icon-primary-color);"/>
</svg>
