<svg  viewBox="0 0 24 24" fill="none" xmlns="http://www.w3.org/2000/svg" id="__THIS_ID_NEEDS_FOR_UI_ICON_COMPONENT__">
<path d="M19.5 7.5H9.375V4.875C9.375 4.17881 9.65156 3.51113 10.1438 3.01884C10.6361 2.52656 11.3038 2.25 12 2.25C12.6962 2.25 13.3639 2.52656 13.8562 3.01884C14.3484 3.51113 14.625 4.17881 14.625 4.875C14.625 5.07391 14.704 5.26468 14.8447 5.40533C14.9853 5.54598 15.1761 5.625 15.375 5.625C15.5739 5.625 15.7647 5.54598 15.9053 5.40533C16.046 5.26468 16.125 5.07391 16.125 4.875C16.125 3.78098 15.6904 2.73177 14.9168 1.95818C14.1432 1.1846 13.094 0.75 12 0.75C10.906 0.75 9.85677 1.1846 9.08318 1.95818C8.3096 2.73177 7.875 3.78098 7.875 4.875V7.5H4.5C4.10231 7.50045 3.72105 7.65864 3.43984 7.93984C3.15864 8.22105 3.00045 8.60231 3 9V19.5C3.00045 19.8977 3.15864 20.279 3.43984 20.5602C3.72105 20.8414 4.10231 20.9995 4.5 21H19.5C19.8977 20.9995 20.279 20.8414 20.5602 20.5602C20.8414 20.279 20.9995 19.8977 21 19.5V9C20.9995 8.60231 20.8414 8.22105 20.5602 7.93984C20.279 7.65864 19.8977 7.50045 19.5 7.5ZM19.5 19.5H4.5V9H19.5L19.501 19.5L19.5 19.5ZM13.125 14.25C13.125 14.4725 13.059 14.69 12.9354 14.875C12.8118 15.06 12.6361 15.2042 12.4305 15.2894C12.225 15.3745 11.9988 15.3968 11.7805 15.3534C11.5623 15.31 11.3618 15.2028 11.2045 15.0455C11.0472 14.8882 10.94 14.6877 10.8966 14.4695C10.8532 14.2512 10.8755 14.025 10.9606 13.8195C11.0458 13.6139 11.19 13.4382 11.375 13.3146C11.56 13.191 11.7775 13.125 12 13.125C12.2983 13.1253 12.5842 13.244 12.7951 13.4549C13.006 13.6658 13.1247 13.9517 13.125 14.25Z" fill="#1D1F21" style="fill: var(--ui-icon-primary-color);"/>
</svg>
