<svg  viewBox="0 0 24 24" fill="none" xmlns="http://www.w3.org/2000/svg" id="__THIS_ID_NEEDS_FOR_UI_ICON_COMPONENT__">
<path d="M14.625 10.8755C14.625 11.0744 14.546 11.2652 14.4054 11.4059C14.2647 11.5465 14.074 11.6255 13.875 11.6255H7.87506C7.67615 11.6255 7.48539 11.5465 7.34474 11.4059C7.20408 11.2652 7.12507 11.0744 7.12507 10.8755C7.12507 10.6766 7.20408 10.4858 7.34474 10.3452C7.48539 10.2045 7.67615 10.1255 7.87506 10.1255H13.875C14.074 10.1255 14.2647 10.2045 14.4054 10.3452C14.546 10.4859 14.625 10.6766 14.625 10.8755ZM21.5298 21.5306C21.3892 21.6713 21.1984 21.7503 20.9995 21.7503C20.8005 21.7503 20.6098 21.6713 20.4691 21.5306L16.417 17.4785C14.7126 18.9093 12.5217 19.627 10.3011 19.4819C8.08056 19.3367 6.00172 18.34 4.49814 16.6994C2.99457 15.0589 2.18233 12.9013 2.23081 10.6765C2.2793 8.45169 3.18476 6.33149 4.75838 4.75802C6.332 3.18456 8.45229 2.2793 10.6771 2.23104C12.9019 2.18277 15.0594 2.99522 16.6998 4.49896C18.3402 6.0027 19.3368 8.08164 19.4817 10.3022C19.6266 12.5228 18.9087 14.7137 17.4777 16.4179L21.5298 20.47C21.6705 20.6106 21.7495 20.8014 21.7495 21.0003C21.7495 21.1992 21.6705 21.39 21.5298 21.5306ZM10.8751 18.0002C12.2842 18.0002 13.6618 17.5824 14.8335 16.7994C16.0052 16.0165 16.9184 14.9038 17.4577 13.6019C17.9969 12.2999 18.138 10.8673 17.8631 9.48524C17.5882 8.10313 16.9096 6.83358 15.9132 5.83713C14.9167 4.84069 13.6472 4.1621 12.2651 3.88718C10.883 3.61226 9.45036 3.75336 8.14844 4.29263C6.84652 4.83191 5.73376 5.74513 4.95085 6.91683C4.16795 8.08852 3.75008 9.46606 3.75008 10.8753C3.75222 12.7643 4.50357 14.5753 5.8393 15.911C7.17502 17.2467 8.98605 17.9981 10.8751 18.0002Z" fill="#1D1F21" style="fill: var(--ui-icon-primary-color);"/>
</svg>
