<svg  viewBox="0 0 24 24" fill="none" xmlns="http://www.w3.org/2000/svg" id="__THIS_ID_NEEDS_FOR_UI_ICON_COMPONENT__">
<path d="M12.0002 6C11.2585 6 10.5335 6.21993 9.91679 6.63199C9.30011 7.04404 8.81946 7.62971 8.53563 8.31494C8.25181 9.00016 8.17754 9.75416 8.32224 10.4816C8.46693 11.209 8.82409 11.8772 9.34853 12.4017C9.87298 12.9261 10.5412 13.2833 11.2686 13.4279C11.996 13.5726 12.75 13.4984 13.4352 13.2145C14.1205 12.9307 14.7061 12.4501 15.1182 11.8334C15.5302 11.2167 15.7502 10.4917 15.7502 9.75C15.7491 8.75578 15.3536 7.80261 14.6506 7.0996C13.9476 6.39658 12.9944 6.00113 12.0002 6ZM12.0002 12C11.5552 12 11.1202 11.868 10.7501 11.6208C10.3801 11.3736 10.0918 11.0222 9.92145 10.611C9.75116 10.1999 9.7066 9.7475 9.79342 9.31105C9.88023 8.87459 10.0945 8.47368 10.4092 8.15901C10.7239 7.84434 11.1248 7.63005 11.5612 7.54323C11.9977 7.45642 12.4501 7.50097 12.8612 7.67127C13.2724 7.84157 13.6238 8.12996 13.871 8.49997C14.1182 8.86998 14.2502 9.30499 14.2502 9.75C14.2495 10.3465 14.0122 10.9184 13.5904 11.3402C13.1686 11.762 12.5967 11.9993 12.0002 12ZM12.0002 1.5C9.81291 1.50247 7.71592 2.37246 6.16928 3.9191C4.62264 5.46574 3.75265 7.56272 3.75018 9.75C3.75018 12.6934 5.11057 15.8136 7.6842 18.7734C8.84239 20.1107 10.1457 21.3151 11.5701 22.3644C11.6961 22.4527 11.8463 22.5 12.0002 22.5C12.1541 22.5 12.3042 22.4527 12.4303 22.3644C13.8547 21.3151 15.158 20.1107 16.3162 18.7734C18.8898 15.8136 20.2502 12.6934 20.2502 9.75C20.2477 7.56272 19.3777 5.46574 17.8311 3.9191C16.2844 2.37246 14.1875 1.50247 12.0002 1.5ZM12.0002 20.8106C10.4502 19.5949 5.25018 15.1155 5.25018 9.75C5.25018 7.95979 5.96134 6.2429 7.22721 4.97703C8.49308 3.71116 10.21 3 12.0002 3C13.7904 3 15.5073 3.71116 16.7732 4.97703C18.039 6.2429 18.7502 7.95979 18.7502 9.75C18.7502 15.1155 13.5499 19.5951 12.0002 20.8106Z" fill="#1D1F21" style="fill: var(--ui-icon-primary-color);"/>
</svg>
