<svg  viewBox="0 0 24 24" fill="none" xmlns="http://www.w3.org/2000/svg" id="__THIS_ID_NEEDS_FOR_UI_ICON_COMPONENT__">
<path d="M5.25636 12.7506C5.25636 12.9495 5.17734 13.1403 5.0367 13.2809C4.89605 13.4215 4.7053 13.5006 4.50639 13.5006H2.2565C2.05759 13.5006 1.86684 13.4216 1.72619 13.2809C1.58554 13.1403 1.50653 12.9495 1.50653 12.7506C1.50653 12.5517 1.58554 12.3609 1.72619 12.2203C1.86684 12.0796 2.05759 12.0006 2.2565 12.0006H3.00646V6.00091H2.2565C2.05759 6.00091 1.86684 5.92189 1.72619 5.78125C1.58554 5.6406 1.50653 5.44985 1.50653 5.25094C1.50653 5.05204 1.58554 4.86128 1.72619 4.72064C1.86684 4.57999 2.05759 4.50098 2.2565 4.50098H3.75643C3.76444 4.50098 3.77222 4.50194 3.78018 4.50217C3.78847 4.50244 3.79666 4.5029 3.80495 4.50345C3.84047 4.50545 3.87581 4.50998 3.91069 4.517L3.91151 4.51723C3.94708 4.52493 3.98202 4.53526 4.01606 4.54812C4.021 4.54991 4.026 4.5516 4.03089 4.55353C4.064 4.56651 4.09612 4.58187 4.12702 4.59948C4.13187 4.60223 4.13649 4.60525 4.1413 4.60813C4.17131 4.62594 4.20005 4.64581 4.22731 4.6676C4.22891 4.66888 4.23056 4.66998 4.23216 4.67126C4.25969 4.69422 4.28556 4.71911 4.30956 4.74573C4.31423 4.7509 4.31899 4.75585 4.32357 4.76116C4.34706 4.78837 4.36859 4.81722 4.38797 4.84749C4.3893 4.84959 4.39104 4.85133 4.39241 4.85344L7.50625 9.83565L10.6201 4.85344C10.6215 4.85133 10.6232 4.84964 10.6245 4.84749C10.6439 4.81721 10.6654 4.78836 10.6889 4.76116C10.6935 4.75585 10.6983 4.7509 10.7029 4.74578C10.7269 4.71912 10.7528 4.69421 10.7804 4.67126C10.782 4.66993 10.7837 4.66883 10.7853 4.66751C10.8125 4.6458 10.8411 4.62599 10.871 4.60823C10.8759 4.6053 10.8806 4.60219 10.8856 4.5994C10.9164 4.58185 10.9485 4.56654 10.9814 4.55358C10.9865 4.55161 10.9916 4.54987 10.9968 4.54799C11.0305 4.53529 11.0651 4.52508 11.1003 4.51741L11.102 4.51696C11.1367 4.50998 11.1719 4.50547 11.2072 4.50346C11.2157 4.50291 11.2241 4.50245 11.2326 4.50217C11.2405 4.50195 11.2482 4.50098 11.2561 4.50098H12.756C12.9549 4.50098 13.1457 4.58 13.2863 4.72064C13.427 4.86129 13.506 5.05205 13.506 5.25095C13.506 5.44985 13.427 5.64061 13.2863 5.78126C13.1457 5.9219 12.9549 6.00092 12.756 6.00092H12.0061V12.0006H12.756C12.9549 12.0006 13.1457 12.0797 13.2863 12.2203C13.427 12.3609 13.506 12.5517 13.506 12.7506C13.506 12.9495 13.427 13.1403 13.2863 13.2809C13.1457 13.4216 12.9549 13.5006 12.756 13.5006H10.5061C10.3072 13.5006 10.1165 13.4216 9.97581 13.2809C9.83517 13.1403 9.75615 12.9495 9.75615 12.7506C9.75615 12.5517 9.83517 12.3609 9.97581 12.2203C10.1165 12.0797 10.3072 12.0006 10.5061 12.0006V7.86593L8.14224 11.6482C8.07482 11.756 7.98107 11.845 7.86982 11.9066C7.75856 11.9683 7.63345 12.0006 7.50626 12.0006C7.37906 12.0006 7.25395 11.9683 7.14269 11.9066C7.03144 11.845 6.93769 11.756 6.87027 11.6482L4.50639 7.86593V12.0006C4.7053 12.0006 4.89605 12.0797 5.0367 12.2203C5.17734 12.3609 5.25636 12.5517 5.25636 12.7506ZM15.7559 10.5007H22.5056C22.7045 10.5007 22.8952 10.4217 23.0359 10.281C23.1765 10.1404 23.2555 9.94964 23.2555 9.75074C23.2555 9.55183 23.1765 9.36108 23.0359 9.22043C22.8952 9.07978 22.7045 9.00077 22.5056 9.00077H15.7559C15.557 9.00077 15.3662 9.07978 15.2256 9.22043C15.0849 9.36108 15.0059 9.55183 15.0059 9.75074C15.0059 9.94964 15.0849 10.1404 15.2256 10.281C15.3662 10.4217 15.557 10.5007 15.7559 10.5007ZM22.5056 12.0006H15.7559C15.557 12.0006 15.3662 12.0796 15.2256 12.2203C15.0849 12.3609 15.0059 12.5517 15.0059 12.7506C15.0059 12.9495 15.0849 13.1403 15.2256 13.2809C15.3662 13.4216 15.557 13.5006 15.7559 13.5006H22.5056C22.7045 13.5006 22.8952 13.4216 23.0359 13.2809C23.1765 13.1403 23.2555 12.9495 23.2555 12.7506C23.2555 12.5517 23.1765 12.3609 23.0359 12.2203C22.8952 12.0796 22.7045 12.0006 22.5056 12.0006ZM22.5056 15.0005H6.75629C6.55739 15.0005 6.36663 15.0795 6.22598 15.2202C6.08534 15.3608 6.00632 15.5516 6.00632 15.7505C6.00632 15.9494 6.08534 16.1401 6.22598 16.2808C6.36663 16.4214 6.55739 16.5004 6.75629 16.5004H22.5056C22.7045 16.5004 22.8952 16.4214 23.0359 16.2808C23.1765 16.1401 23.2555 15.9494 23.2555 15.7505C23.2555 15.5516 23.1765 15.3608 23.0359 15.2202C22.8952 15.0795 22.7045 15.0005 22.5056 15.0005ZM22.5056 18.0004H6.75629C6.55739 18.0004 6.36663 18.0794 6.22598 18.22C6.08534 18.3607 6.00632 18.5514 6.00632 18.7503C6.00632 18.9492 6.08534 19.14 6.22598 19.2806C6.36663 19.4213 6.55739 19.5003 6.75629 19.5003H22.5056C22.7045 19.5003 22.8952 19.4213 23.0359 19.2806C23.1765 19.14 23.2555 18.9492 23.2555 18.7503C23.2555 18.5514 23.1765 18.3607 23.0359 18.22C22.8952 18.0794 22.7045 18.0004 22.5056 18.0004Z" fill="#1D1F21" style="fill: var(--ui-icon-primary-color);"/>
</svg>
