<svg  viewBox="0 0 24 24" fill="none" xmlns="http://www.w3.org/2000/svg" id="__THIS_ID_NEEDS_FOR_UI_ICON_COMPONENT__">
<path d="M11.9998 16.5C13.1929 16.4987 14.3367 16.0241 15.1803 15.1805C16.0239 14.3369 16.4985 13.1931 16.4998 12V6C16.4998 4.80653 16.0257 3.66193 15.1818 2.81802C14.3379 1.97411 13.1933 1.5 11.9998 1.5C10.8063 1.5 9.66174 1.97411 8.81783 2.81802C7.97391 3.66193 7.49981 4.80653 7.49981 6V12C7.50114 13.1931 7.97567 14.3369 8.8193 15.1805C9.66292 16.0241 10.8067 16.4987 11.9998 16.5ZM8.99981 6C8.99981 5.20435 9.31588 4.44129 9.87849 3.87868C10.4411 3.31607 11.2042 3 11.9998 3C12.7955 3 13.5585 3.31607 14.1211 3.87868C14.6837 4.44129 14.9998 5.20435 14.9998 6V12C14.9998 12.7956 14.6837 13.5587 14.1211 14.1213C13.5585 14.6839 12.7955 15 11.9998 15C11.2042 15 10.4411 14.6839 9.87849 14.1213C9.31588 13.5587 8.99981 12.7956 8.99981 12V6ZM19.454 12.8324C19.2663 14.5387 18.4977 16.1286 17.2771 17.3357C16.0565 18.5427 14.4581 19.2935 12.7498 19.4622V21.75C12.7498 21.9489 12.6708 22.1397 12.5301 22.2803C12.3895 22.421 12.1987 22.5 11.9998 22.5C11.8009 22.5 11.6101 22.421 11.4695 22.2803C11.3288 22.1397 11.2498 21.9489 11.2498 21.75V19.4622C9.5415 19.2935 7.9431 18.5427 6.72252 17.3357C5.50193 16.1286 4.73335 14.5387 4.54558 12.8324C4.52382 12.6347 4.58145 12.4365 4.70579 12.2814C4.83013 12.1262 5.011 12.0268 5.20864 12.0049C5.40628 11.9831 5.60451 12.0406 5.75974 12.1649C5.91497 12.2891 6.01449 12.47 6.03643 12.6676C6.20079 14.1342 6.89982 15.4888 7.99992 16.4725C9.10002 17.4562 10.524 18 11.9998 18C13.4756 18 14.8996 17.4562 15.9997 16.4725C17.0998 15.4888 17.7988 14.1342 17.9632 12.6676C17.974 12.5697 18.004 12.4749 18.0515 12.3886C18.0989 12.3023 18.1629 12.2262 18.2398 12.1646C18.3166 12.1031 18.4049 12.0573 18.4995 12.0298C18.5941 12.0023 18.6931 11.9938 18.791 12.0046C18.8889 12.0154 18.9837 12.0454 19.07 12.0929C19.1563 12.1403 19.2324 12.2043 19.294 12.2812C19.3555 12.358 19.4014 12.4463 19.4288 12.5409C19.4563 12.6354 19.4649 12.7345 19.454 12.8324V12.8324Z" fill="#1D1F21" style="fill: var(--ui-icon-primary-color);"/>
</svg>
