<svg  viewBox="0 0 24 24" fill="none" xmlns="http://www.w3.org/2000/svg" id="__THIS_ID_NEEDS_FOR_UI_ICON_COMPONENT__">
<path d="M23.2501 8.25C23.2501 8.44891 23.171 8.63968 23.0304 8.78033C22.8897 8.92098 22.699 9 22.5001 9H21.0001V10.5C21.0001 10.6989 20.921 10.8897 20.7804 11.0303C20.6397 11.171 20.449 11.25 20.2501 11.25C20.0511 11.25 19.8604 11.171 19.7197 11.0303C19.5791 10.8897 19.5001 10.6989 19.5001 10.5V9H18.0001C17.8011 9 17.6104 8.92098 17.4697 8.78033C17.3291 8.63968 17.2501 8.44891 17.2501 8.25C17.2501 8.05109 17.3291 7.86032 17.4697 7.71967C17.6104 7.57902 17.8011 7.5 18.0001 7.5H19.5001V6C19.5001 5.80109 19.5791 5.61032 19.7197 5.46967C19.8604 5.32902 20.0511 5.25 20.2501 5.25C20.449 5.25 20.6397 5.32902 20.7804 5.46967C20.921 5.61032 21.0001 5.80109 21.0001 6V7.5H22.5001C22.699 7.5 22.8897 7.57902 23.0304 7.71967C23.171 7.86032 23.2501 8.05109 23.2501 8.25ZM14.2501 4.5H15.0001V5.25C15.0001 5.44891 15.0791 5.63968 15.2197 5.78033C15.3604 5.92098 15.5511 6 15.7501 6C15.949 6 16.1397 5.92098 16.2804 5.78033C16.421 5.63968 16.5001 5.44891 16.5001 5.25V4.5H17.2501C17.449 4.5 17.6397 4.42098 17.7804 4.28033C17.921 4.13968 18.0001 3.94891 18.0001 3.75C18.0001 3.55109 17.921 3.36032 17.7804 3.21967C17.6397 3.07902 17.449 3 17.2501 3H16.5001V2.25C16.5001 2.05109 16.421 1.86032 16.2804 1.71967C16.1397 1.57902 15.949 1.5 15.7501 1.5C15.5511 1.5 15.3604 1.57902 15.2197 1.71967C15.0791 1.86032 15.0001 2.05109 15.0001 2.25V3H14.2501C14.0511 3 13.8604 3.07902 13.7197 3.21967C13.5791 3.36032 13.5001 3.55109 13.5001 3.75C13.5001 3.94891 13.5791 4.13968 13.7197 4.28033C13.8604 4.42098 14.0511 4.5 14.2501 4.5ZM21.4996 13.8402C21.5283 13.9549 21.5294 14.0747 21.503 14.1899C21.1118 15.886 20.2736 17.4464 19.0756 18.7092C17.8777 19.9719 16.3635 20.8909 14.6904 21.3709C13.0172 21.8508 11.2461 21.8741 9.56096 21.4384C7.87578 21.0026 6.33796 20.1237 5.10717 18.8929C3.87638 17.6621 2.99749 16.1243 2.56175 14.4391C2.12602 12.754 2.14932 10.9829 2.62924 9.30974C3.10916 7.63661 4.02821 6.12245 5.29095 4.92446C6.5537 3.72648 8.11411 2.88835 9.81017 2.4971C9.93399 2.46867 10.063 2.47216 10.1851 2.50725C10.3072 2.54234 10.4184 2.60788 10.5083 2.69771C10.5981 2.78754 10.6637 2.89872 10.6988 3.02083C10.7339 3.14293 10.7374 3.27195 10.709 3.39578C10.3963 4.75912 10.435 6.17955 10.8215 7.52384C11.2079 8.86813 11.9296 10.0922 12.9186 11.0813C13.9077 12.0703 15.1318 12.792 16.476 13.1785C17.8203 13.565 19.2408 13.6037 20.6041 13.291C20.7955 13.247 20.9966 13.2799 21.164 13.3825C21.3315 13.4852 21.4519 13.6495 21.4996 13.84L21.4996 13.8402ZM19.7048 14.9537C19.3881 14.9845 19.0693 15 18.7501 15C16.1651 14.9971 13.6868 13.9689 11.859 12.1411C10.0312 10.3132 9.00299 7.83496 9.00006 5.25C9.00006 4.93085 9.01558 4.61197 9.04639 4.29529C7.68706 4.81961 6.48956 5.69225 5.57407 6.82562C4.38691 8.28811 3.74244 10.1164 3.75006 12C3.75253 14.1873 4.62252 16.2843 6.16916 17.8309C7.7158 19.3775 9.81278 20.2475 12.0001 20.25C13.8837 20.2576 15.7119 19.6132 17.1744 18.426C18.3078 17.5105 19.1805 16.313 19.7048 14.9537V14.9537Z" fill="#1D1F21" style="fill: var(--ui-icon-primary-color);"/>
</svg>
