<svg  viewBox="0 0 24 24" fill="none" xmlns="http://www.w3.org/2000/svg" id="__THIS_ID_NEEDS_FOR_UI_ICON_COMPONENT__">
<path d="M20.25 3.75H3.75C3.35231 3.75045 2.97105 3.90864 2.68984 4.18984C2.40864 4.47105 2.25045 4.85231 2.25 5.25V20.25C2.24999 20.3779 2.28266 20.5036 2.34491 20.6153C2.40717 20.7269 2.49694 20.8208 2.6057 20.888C2.71445 20.9553 2.83859 20.9935 2.96631 20.9993C3.09404 21.005 3.2211 20.978 3.33545 20.9208L6 19.5885L8.66455 20.9208C8.7687 20.9729 8.88355 21 9 21C9.11645 21 9.2313 20.9729 9.33545 20.9208L12 19.5885L14.6646 20.9208C14.7687 20.9729 14.8836 21 15 21C15.1164 21 15.2313 20.9729 15.3354 20.9208L18 19.5885L20.6646 20.9208C20.7789 20.978 20.906 21.005 21.0337 20.9993C21.1614 20.9935 21.2855 20.9553 21.3943 20.888C21.5031 20.8208 21.5928 20.7269 21.6551 20.6153C21.7173 20.5036 21.75 20.3779 21.75 20.25V5.25C21.7495 4.85231 21.5914 4.47105 21.3102 4.18984C21.029 3.90864 20.6477 3.75045 20.25 3.75ZM20.25 19.0365L18.3354 18.0792C18.2313 18.0271 18.1165 18 18 18C17.8835 18 17.7687 18.0271 17.6646 18.0792L15 19.4115L12.3354 18.0792C12.2313 18.0271 12.1164 18 12 18C11.8836 18 11.7687 18.0271 11.6646 18.0792L9 19.4115L6.33545 18.0792C6.2313 18.0271 6.11645 18 6 18C5.88355 18 5.7687 18.0271 5.66455 18.0792L3.75 19.0365V5.25H20.25V19.0365ZM12.75 10.5C12.75 10.3011 12.829 10.1103 12.9697 9.96968C13.1103 9.82903 13.3011 9.75001 13.5 9.75H18C18.1989 9.75 18.3897 9.82902 18.5303 9.96967C18.671 10.1103 18.75 10.3011 18.75 10.5C18.75 10.6989 18.671 10.8897 18.5303 11.0303C18.3897 11.171 18.1989 11.25 18 11.25H13.5C13.3011 11.25 13.1103 11.171 12.9697 11.0303C12.829 10.8897 12.75 10.6989 12.75 10.5ZM12.75 13.5C12.75 13.3011 12.829 13.1103 12.9697 12.9697C13.1103 12.829 13.3011 12.75 13.5 12.75H18C18.1989 12.75 18.3897 12.829 18.5303 12.9697C18.671 13.1103 18.75 13.3011 18.75 13.5C18.75 13.6989 18.671 13.8897 18.5303 14.0303C18.3897 14.171 18.1989 14.25 18 14.25H13.5C13.3011 14.25 13.1103 14.171 12.9697 14.0303C12.829 13.8897 12.75 13.6989 12.75 13.5ZM6 15.75H10.5C10.6989 15.75 10.8897 15.671 11.0303 15.5303C11.171 15.3897 11.25 15.1989 11.25 15V9C11.25 8.80109 11.171 8.61033 11.0303 8.46968C10.8897 8.32903 10.6989 8.25001 10.5 8.25H6C5.80109 8.25001 5.61033 8.32903 5.46968 8.46968C5.32903 8.61033 5.25001 8.80109 5.25 9V15C5.25001 15.1989 5.32903 15.3897 5.46968 15.5303C5.61033 15.671 5.80109 15.75 6 15.75ZM6.75 9.75H9.75V14.25H6.75V9.75Z" fill="#1D1F21" style="fill: var(--ui-icon-primary-color);"/>
</svg>
