<svg  viewBox="0 0 24 24" fill="none" xmlns="http://www.w3.org/2000/svg" id="__THIS_ID_NEEDS_FOR_UI_ICON_COMPONENT__">
<path d="M11.9999 2.25C10.0716 2.25 8.18651 2.82183 6.58313 3.89317C4.97975 4.96451 3.73007 6.48726 2.99212 8.26884C2.25416 10.0504 2.06108 12.0108 2.43729 13.9021C2.81349 15.7934 3.74209 17.5307 5.10565 18.8943C6.46921 20.2579 8.2065 21.1865 10.0978 21.5627C11.9891 21.9389 13.9495 21.7458 15.7311 21.0078C17.5127 20.2699 19.0354 19.0202 20.1068 17.4168C21.1781 15.8134 21.7499 13.9284 21.7499 12C21.747 9.41504 20.7188 6.93679 18.891 5.10894C17.0632 3.28109 14.5849 2.25293 11.9999 2.25ZM11.9999 20.25C10.3682 20.25 8.77319 19.7661 7.41649 18.8596C6.05978 17.9531 5.00236 16.6646 4.37794 15.1571C3.75351 13.6496 3.59014 11.9908 3.90846 10.3905C4.22679 8.79016 5.01253 7.32015 6.16631 6.16637C7.3201 5.01259 8.7901 4.22685 10.3904 3.90852C11.9908 3.59019 13.6496 3.75357 15.1571 4.37799C16.6646 5.00242 17.953 6.05984 18.8596 7.41655C19.7661 8.77325 20.2499 10.3683 20.2499 12C20.2475 14.1873 19.3775 16.2843 17.8308 17.8309C16.2842 19.3775 14.1872 20.2475 11.9999 20.25ZM14.8584 7.43646C14.9279 7.53289 14.9734 7.64444 14.9914 7.76192C15.0093 7.8794 14.999 7.99946 14.9615 8.11221L11.9615 17.1122C11.9304 17.2057 11.8812 17.2922 11.8167 17.3667C11.7522 17.4412 11.6736 17.5023 11.5854 17.5464C11.4973 17.5905 11.4013 17.6168 11.303 17.6239C11.2047 17.6309 11.106 17.6184 11.0125 17.5873C10.919 17.5561 10.8326 17.5068 10.7581 17.4422C10.6837 17.3776 10.6227 17.299 10.5787 17.2108C10.5346 17.1226 10.5084 17.0266 10.5015 16.9283C10.4946 16.83 10.5071 16.7313 10.5384 16.6378L13.2094 8.625H9.74994C9.55103 8.625 9.36027 8.54598 9.21961 8.40533C9.07896 8.26468 8.99994 8.07391 8.99994 7.875C8.99994 7.67609 9.07896 7.48532 9.21961 7.34467C9.36027 7.20402 9.55103 7.125 9.74994 7.125H14.2499C14.3688 7.12501 14.4859 7.15325 14.5917 7.2074C14.6975 7.26155 14.7889 7.34006 14.8584 7.43646Z" fill="#1D1F21" style="fill: var(--ui-icon-primary-color);"/>
</svg>
