<svg  viewBox="0 0 24 24" fill="none" xmlns="http://www.w3.org/2000/svg" id="__THIS_ID_NEEDS_FOR_UI_ICON_COMPONENT__">
<path d="M17.25 15.7505C17.2501 16.937 16.8982 18.097 16.2391 19.0836C15.5799 20.0702 14.6429 20.8392 13.5466 21.2933C12.4504 21.7474 11.2441 21.8662 10.0803 21.6347C8.91654 21.4032 7.84756 20.8318 7.00854 19.9927C6.93891 19.9231 6.88367 19.8404 6.84598 19.7494C6.80829 19.6584 6.7889 19.5609 6.78891 19.4624C6.78891 19.3639 6.80832 19.2664 6.84602 19.1754C6.88371 19.0844 6.93896 19.0017 7.00861 18.9321C7.07826 18.8624 7.16094 18.8072 7.25194 18.7695C7.34294 18.7318 7.44047 18.7124 7.53896 18.7124C7.63745 18.7124 7.73498 18.7319 7.82597 18.7696C7.91696 18.8072 7.99964 18.8625 8.06928 18.9321C8.59252 19.4553 9.23671 19.8413 9.94477 20.0561C10.6528 20.2708 11.4029 20.3076 12.1286 20.1632C12.8543 20.0188 13.5332 19.6977 14.1051 19.2282C14.6771 18.7588 15.1244 18.1556 15.4075 17.472C15.6907 16.7884 15.8009 16.0455 15.7283 15.3092C15.6558 14.5728 15.4028 13.8657 14.9917 13.2505C14.5806 12.6353 14.0242 12.131 13.3717 11.7822C12.7191 11.4334 11.9906 11.2509 11.2507 11.2508C11.1135 11.2508 10.979 11.2132 10.8617 11.1421C10.7444 11.0709 10.6489 10.969 10.5855 10.8473C10.5222 10.7256 10.4934 10.5889 10.5023 10.452C10.5113 10.3151 10.5576 10.1833 10.6362 10.0709L15.0587 3.75H7.5C7.30109 3.75 7.11032 3.67098 6.96967 3.53033C6.82902 3.38968 6.75 3.19891 6.75 3C6.75 2.80109 6.82902 2.61032 6.96967 2.46967C7.11032 2.32902 7.30109 2.25 7.5 2.25H16.4988C16.636 2.24999 16.7706 2.28761 16.8878 2.35876C17.0051 2.42991 17.1007 2.53187 17.164 2.65354C17.2274 2.77521 17.2562 2.91194 17.2472 3.04883C17.2383 3.18572 17.192 3.31754 17.1133 3.42993L12.5869 9.89932C13.9116 10.2031 15.0941 10.9471 15.9411 12.0099C16.7881 13.0727 17.2495 14.3914 17.25 15.7505Z" fill="#1D1F21" style="fill: var(--ui-icon-primary-color);"/>
</svg>
