<svg  viewBox="0 0 24 24" fill="none" xmlns="http://www.w3.org/2000/svg" id="__THIS_ID_NEEDS_FOR_UI_ICON_COMPONENT__">
<path d="M19.5 3H4.5C4.10231 3.00045 3.72105 3.15864 3.43984 3.43984C3.15864 3.72105 3.00045 4.10231 3 4.5V19.5C3.00045 19.8977 3.15864 20.279 3.43984 20.5602C3.72105 20.8414 4.10231 20.9995 4.5 21H19.5C19.8977 20.9995 20.279 20.8414 20.5602 20.5602C20.8414 20.279 20.9995 19.8977 21 19.5V4.5C20.9995 4.10231 20.8414 3.72105 20.5602 3.43984C20.279 3.15864 19.8977 3.00045 19.5 3ZM19.5 19.5H4.5V4.5H19.5L19.5009 19.5H19.5ZM12 7.125C11.1049 7.125 10.2464 7.48058 9.61351 8.11351C8.98058 8.74645 8.625 9.60489 8.625 10.5C8.625 11.3951 8.98058 12.2535 9.61351 12.8865C10.2464 13.5194 11.1049 13.875 12 13.875C12.0573 13.875 12.1142 13.8736 12.1708 13.8707L10.6061 16.4904C10.5556 16.5749 10.5222 16.6686 10.5079 16.7661C10.4936 16.8635 10.4987 16.9628 10.5227 17.0583C10.5468 17.1538 10.5895 17.2437 10.6483 17.3227C10.707 17.4017 10.7808 17.4684 10.8654 17.5189C10.9499 17.5694 11.0436 17.6028 11.1411 17.6171C11.2385 17.6314 11.3378 17.6263 11.4333 17.6023C11.5288 17.5782 11.6187 17.5355 11.6977 17.4767C11.7767 17.4179 11.8434 17.3442 11.8939 17.2596L14.9172 12.1976C14.9263 12.1824 14.9339 12.1668 14.9418 12.1513C15.2306 11.6379 15.3799 11.0579 15.3749 10.4689C15.3698 9.87985 15.2106 9.30243 14.9131 8.79406C14.6156 8.2857 14.1901 7.86412 13.679 7.57129C13.1679 7.27847 12.589 7.1246 12 7.125ZM10.125 10.5C10.125 10.1292 10.235 9.76665 10.441 9.45831C10.647 9.14996 10.9399 8.90964 11.2825 8.76773C11.6251 8.62581 12.0021 8.58868 12.3658 8.66103C12.7295 8.73337 13.0636 8.91195 13.3258 9.17417C13.588 9.4364 13.7666 9.77049 13.839 10.1342C13.9113 10.4979 13.8742 10.8749 13.7323 11.2175C13.5904 11.5601 13.35 11.853 13.0417 12.059C12.7334 12.265 12.3708 12.375 12 12.375C11.5029 12.3744 11.0263 12.1767 10.6748 11.8252C10.3233 11.4737 10.1256 10.9971 10.125 10.5Z" fill="#1D1F21" style="fill: var(--ui-icon-primary-color);"/>
</svg>
