<svg  viewBox="0 0 24 24" fill="none" xmlns="http://www.w3.org/2000/svg" id="__THIS_ID_NEEDS_FOR_UI_ICON_COMPONENT__">
<path d="M12 6.75C10.7854 6.75 9.74789 7.38153 9.07892 8.52818C8.54434 9.4444 8.25 10.6774 8.25 12C8.25 13.3225 8.54434 14.5555 9.07892 15.4717C9.74799 16.6185 10.7854 17.25 12 17.25C13.2146 17.25 14.252 16.6185 14.9211 15.4717C15.4557 14.5555 15.75 13.3225 15.75 12C15.75 10.6774 15.4557 9.4444 14.9211 8.52818C14.2521 7.38153 13.2146 6.75 12 6.75ZM12 15.75C11.1643 15.75 9.75 14.9602 9.75 12C9.75 9.03982 11.1643 8.25 12 8.25C12.8357 8.25 14.25 9.03982 14.25 12C14.25 14.9602 12.8357 15.75 12 15.75ZM19.5 3H4.5C4.10231 3.00045 3.72105 3.15864 3.43984 3.43984C3.15864 3.72105 3.00045 4.10231 3 4.5V19.5C3.00045 19.8977 3.15864 20.279 3.43984 20.5602C3.72105 20.8414 4.10231 20.9995 4.5 21H19.5C19.8977 20.9995 20.279 20.8414 20.5602 20.5602C20.8414 20.279 20.9995 19.8977 21 19.5V4.5C20.9995 4.10231 20.8414 3.72105 20.5602 3.43984C20.279 3.15864 19.8977 3.00045 19.5 3ZM19.5 19.5H4.5V4.5H19.5L19.5009 19.5L19.5 19.5Z" fill="#1D1F21" style="fill: var(--ui-icon-primary-color);"/>
</svg>
