<svg  viewBox="0 0 24 24" fill="none" xmlns="http://www.w3.org/2000/svg" id="__THIS_ID_NEEDS_FOR_UI_ICON_COMPONENT__">
<path d="M19.5 3H4.5C4.10231 3.00045 3.72105 3.15864 3.43984 3.43984C3.15864 3.72105 3.00045 4.10231 3 4.5V19.5C3.00045 19.8977 3.15864 20.279 3.43984 20.5602C3.72105 20.8414 4.10231 20.9995 4.5 21H19.5C19.8977 20.9995 20.279 20.8414 20.5602 20.5602C20.8414 20.279 20.9995 19.8977 21 19.5V4.5C20.9995 4.10231 20.8414 3.72105 20.5602 3.43984C20.279 3.15864 19.8977 3.00045 19.5 3ZM19.5 19.5H4.5V4.5H19.5L19.5009 19.5L19.5 19.5ZM14.4659 11.4577L11.2497 15.7495H14.25C14.4489 15.7495 14.6397 15.8285 14.7803 15.9691C14.921 16.1098 15 16.3005 15 16.4995C15 16.6984 14.921 16.8891 14.7803 17.0298C14.6397 17.1704 14.4489 17.2495 14.25 17.2495H9.77975C9.76978 17.2499 9.75989 17.25 9.74991 17.25C9.60933 17.25 9.47159 17.2104 9.35241 17.1359C9.23322 17.0613 9.13737 16.9548 9.0758 16.8284C9.01422 16.702 8.98939 16.5609 9.00414 16.4211C9.01889 16.2813 9.07262 16.1485 9.15921 16.0377L13.2534 10.5743C13.368 10.4001 13.4449 10.2039 13.4793 9.99827C13.5138 9.79264 13.505 9.58209 13.4535 9.38004C13.4021 9.17799 13.3091 8.98889 13.1804 8.82479C13.0518 8.66069 12.8904 8.52521 12.7065 8.42697C12.5226 8.32874 12.3202 8.26991 12.1123 8.25424C11.9044 8.23858 11.6955 8.26642 11.499 8.33599C11.3024 8.40556 11.1225 8.51533 10.9708 8.6583C10.819 8.80127 10.6987 8.9743 10.6176 9.16635C10.5401 9.34956 10.393 9.49448 10.2087 9.56923C10.0243 9.64399 9.81785 9.64246 9.63464 9.56497C9.45144 9.48749 9.30652 9.34041 9.23177 9.15608C9.15701 8.97174 9.15854 8.76526 9.23602 8.58206C9.39895 8.19665 9.6407 7.84957 9.94573 7.56314C10.2508 7.2767 10.6123 7.05723 11.0072 6.91883C11.4021 6.78042 11.8216 6.72615 12.2387 6.75949C12.6558 6.79283 13.0613 6.91305 13.4292 7.11242C13.7971 7.3118 14.1192 7.58592 14.3749 7.91717C14.6305 8.24843 14.8141 8.6295 14.9137 9.0359C15.0133 9.4423 15.0269 9.86505 14.9534 10.277C14.88 10.6889 14.7212 11.081 14.4872 11.4279C14.4803 11.438 14.4733 11.448 14.4659 11.4577Z" fill="#1D1F21" style="fill: var(--ui-icon-primary-color);"/>
</svg>
