<svg  viewBox="0 0 24 24" fill="none" xmlns="http://www.w3.org/2000/svg" id="__THIS_ID_NEEDS_FOR_UI_ICON_COMPONENT__">
<path d="M20.6131 6.25586L12.7381 1.8048C12.5127 1.67827 12.2585 1.61182 12 1.61182C11.7415 1.61182 11.4873 1.67827 11.2619 1.8048L3.38686 6.25586C3.15579 6.38676 2.96354 6.57657 2.82971 6.80596C2.69588 7.03534 2.62524 7.29611 2.625 7.56168V16.4365C2.62524 16.7021 2.69589 16.9629 2.82973 17.1923C2.96357 17.4216 3.15582 17.6114 3.38691 17.7423L11.2619 22.1934C11.4873 22.32 11.7415 22.3864 12 22.3864C12.2585 22.3864 12.5127 22.32 12.7381 22.1934L20.6131 17.7423C20.8442 17.6114 21.0364 17.4216 21.1703 17.1922C21.3041 16.9629 21.3748 16.7021 21.375 16.4365V7.56168C21.3748 7.2961 21.3041 7.03534 21.1703 6.80595C21.0364 6.57656 20.8442 6.38675 20.6131 6.25586ZM19.875 16.4365L12 20.8876L4.125 16.4365V7.56168L12 3.11062L19.875 7.56168V16.4365ZM7.875 11.9991C7.875 12.8149 8.11693 13.6125 8.57019 14.2908C9.02345 14.9692 9.66769 15.4979 10.4214 15.8101C11.1752 16.1223 12.0046 16.204 12.8047 16.0448C13.6049 15.8857 14.3399 15.4928 14.9168 14.9159C15.4937 14.339 15.8866 13.604 16.0457 12.8038C16.2049 12.0037 16.1232 11.1743 15.811 10.4205C15.4988 9.66679 14.9701 9.02255 14.2917 8.56929C13.6134 8.11603 12.8158 7.8741 12 7.8741C10.9064 7.87534 9.85787 8.31033 9.08455 9.08365C8.31123 9.85697 7.87624 10.9055 7.875 11.9991ZM14.625 11.9991C14.625 12.5183 14.471 13.0258 14.1826 13.4575C13.8942 13.8892 13.4842 14.2256 13.0045 14.4243C12.5249 14.623 11.9971 14.6749 11.4879 14.5737C10.9787 14.4724 10.511 14.2224 10.1438 13.8553C9.77673 13.4881 9.52672 13.0204 9.42544 12.5112C9.32415 12.002 9.37614 11.4742 9.57482 10.9946C9.7735 10.5149 10.1099 10.1049 10.5416 9.81649C10.9733 9.52805 11.4808 9.3741 12 9.3741C12.696 9.37488 13.3632 9.65169 13.8553 10.1438C14.3474 10.6359 14.6242 11.3031 14.625 11.9991Z" fill="#1D1F21" style="fill: var(--ui-icon-primary-color);"/>
</svg>
