<svg  viewBox="0 0 24 24" fill="none" xmlns="http://www.w3.org/2000/svg" id="__THIS_ID_NEEDS_FOR_UI_ICON_COMPONENT__">
<path d="M20.9478 10.6905L5.11203 1.82257C4.84558 1.67337 4.53994 1.60905 4.23596 1.6382C3.93198 1.66735 3.64413 1.78859 3.41089 1.98571C3.17766 2.18283 3.01014 2.44644 2.93073 2.74131C2.85131 3.03618 2.86379 3.34827 2.96649 3.63586L5.95349 11.9994L2.96649 20.3629C2.88611 20.5892 2.8611 20.8315 2.89356 21.0695C2.92603 21.3074 3.01502 21.5342 3.15308 21.7307C3.29115 21.9272 3.47428 22.0878 3.68715 22.199C3.90001 22.3102 4.13642 22.3688 4.37659 22.3699C4.63432 22.3695 4.8876 22.3027 5.11212 22.1762L20.9477 13.3082C21.1804 13.1779 21.3741 12.988 21.5089 12.7579C21.6438 12.5279 21.7148 12.2661 21.7148 11.9994C21.7149 11.7328 21.6438 11.4709 21.509 11.2409C21.3742 11.0108 21.1805 10.8209 20.9478 10.6905ZM4.37943 20.8666L7.27844 12.7494H12.7499C12.9488 12.7494 13.1396 12.6704 13.2802 12.5297C13.4209 12.3891 13.4999 12.1983 13.4999 11.9994C13.4999 11.8005 13.4209 11.6097 13.2802 11.4691C13.1396 11.3284 12.9488 11.2494 12.7499 11.2494H7.27849L4.37988 3.13177L20.2148 11.9994L4.37943 20.8666Z" fill="#1D1F21" style="fill: var(--ui-icon-primary-color);"/>
</svg>
