<svg  viewBox="0 0 24 24" fill="none" xmlns="http://www.w3.org/2000/svg" id="__THIS_ID_NEEDS_FOR_UI_ICON_COMPONENT__">
<path d="M17.9995 17.25H4.3125C2.28543 17.25 0.636292 15.5677 0.636292 13.5C0.636292 11.4323 2.28543 9.75 4.3125 9.75H17.8125C18.4092 9.75 18.9815 9.98705 19.4035 10.409C19.8254 10.831 20.0625 11.4033 20.0625 12C20.0625 12.5967 19.8254 13.169 19.4035 13.591C18.9815 14.0129 18.4092 14.25 17.8125 14.25H7.3125C7.11359 14.25 6.92282 14.171 6.78217 14.0303C6.64152 13.8897 6.5625 13.6989 6.5625 13.5C6.5625 13.3011 6.64152 13.1103 6.78217 12.9697C6.92282 12.829 7.11359 12.75 7.3125 12.75H17.8125C18.0114 12.75 18.2022 12.671 18.3428 12.5303C18.4835 12.3897 18.5625 12.1989 18.5625 12C18.5625 11.8011 18.4835 11.6103 18.3428 11.4697C18.2022 11.329 18.0114 11.25 17.8125 11.25H4.3125C3.11252 11.25 2.13629 12.2594 2.13629 13.5C2.13629 14.7406 3.11252 15.75 4.3125 15.75H17.9995C18.994 15.75 19.9478 15.3549 20.6511 14.6517C21.3544 13.9484 21.7495 12.9946 21.7495 12C21.7495 11.0054 21.3544 10.0516 20.6511 9.34835C19.9478 8.64509 18.994 8.25 17.9995 8.25H7.49945C7.30054 8.25 7.10977 8.17098 6.96912 8.03033C6.82847 7.88968 6.74945 7.69891 6.74945 7.5C6.74945 7.30109 6.82847 7.11032 6.96912 6.96967C7.10977 6.82902 7.30054 6.75 7.49945 6.75H17.9995C19.3918 6.75 20.7272 7.30312 21.7118 8.28769C22.6963 9.27226 23.2495 10.6076 23.2495 12C23.2495 13.3924 22.6963 14.7277 21.7118 15.7123C20.7272 16.6969 19.3918 17.25 17.9995 17.25Z" fill="#1D1F21" style="fill: var(--ui-icon-primary-color);"/>
</svg>
