<svg  viewBox="0 0 24 24" fill="none" xmlns="http://www.w3.org/2000/svg" id="__THIS_ID_NEEDS_FOR_UI_ICON_COMPONENT__">
<path d="M22.1658 18.8881L13.2978 3.05228C13.1676 2.81962 12.9776 2.6259 12.7476 2.49107C12.5175 2.35623 12.2557 2.28516 11.989 2.28516C11.7224 2.28516 11.4605 2.35623 11.2305 2.49107C11.0004 2.6259 10.8105 2.81962 10.6802 3.05228L1.81219 18.888C1.66299 19.1545 1.59867 19.4601 1.62782 19.7641C1.65698 20.0681 1.77821 20.3559 1.97533 20.5892C2.17245 20.8224 2.43606 20.9899 2.73094 21.0693C3.02581 21.1487 3.3379 21.1363 3.62549 21.0336L11.989 18.0466L20.3525 21.0336C20.5163 21.0924 20.689 21.1225 20.863 21.1227C21.1242 21.1212 21.3804 21.0517 21.6065 20.921C21.8326 20.7902 22.0206 20.6028 22.1522 20.3772C22.2837 20.1516 22.3541 19.8956 22.3565 19.6344C22.3589 19.3733 22.2932 19.116 22.1658 18.8881V18.8881ZM12.739 16.7216V11.2502C12.739 11.0513 12.66 10.8605 12.5193 10.7198C12.3787 10.5792 12.1879 10.5002 11.989 10.5002C11.7901 10.5002 11.5993 10.5792 11.4587 10.7198C11.318 10.8605 11.239 11.0513 11.239 11.2502V16.7216L3.1214 19.6202L11.989 3.78515L20.8563 19.6207L12.739 16.7216Z" fill="#1D1F21" style="fill: var(--ui-icon-primary-color);"/>
</svg>
