<svg  viewBox="0 0 24 24" fill="none" xmlns="http://www.w3.org/2000/svg" id="__THIS_ID_NEEDS_FOR_UI_ICON_COMPONENT__">
<path d="M20.9753 3.02561C20.7867 2.83716 20.5513 2.70235 20.2934 2.63504C20.0354 2.56773 19.7641 2.57036 19.5075 2.64264L2.03922 7.56956C1.74531 7.65245 1.4837 7.82308 1.28936 8.05863C1.09502 8.29419 0.977206 8.58345 0.951667 8.88776C0.926128 9.19206 0.99408 9.49692 1.14644 9.76157C1.2988 10.0262 1.52832 10.2381 1.8043 10.3688L9.83036 14.1706L13.6322 22.1967C13.7521 22.4537 13.943 22.6711 14.1824 22.8232C14.4219 22.9752 14.6999 23.0555 14.9835 23.0547C15.0264 23.0547 15.0697 23.0529 15.1132 23.0493C15.4181 23.0254 15.7082 22.9082 15.944 22.7136C16.1799 22.5191 16.3501 22.2565 16.4314 21.9617L21.3583 4.49348C21.4305 4.23684 21.4331 3.9656 21.3658 3.70763C21.2985 3.44966 21.1637 3.21426 20.9753 3.02561ZM14.9874 21.5538L11.2976 13.7641L15.1665 9.89518C15.2362 9.82553 15.2914 9.74285 15.3291 9.65185C15.3668 9.56085 15.3862 9.46331 15.3862 9.36482C15.3862 9.26632 15.3668 9.16879 15.3291 9.07779C15.2914 8.98678 15.2362 8.9041 15.1665 8.83445C15.0969 8.7648 15.0142 8.70955 14.9232 8.67186C14.8322 8.63417 14.7346 8.61477 14.6361 8.61477C14.5376 8.61477 14.4401 8.63417 14.3491 8.67186C14.2581 8.70955 14.1754 8.7648 14.1058 8.83445L10.2368 12.7034L2.44718 9.01298L19.9147 4.08625L14.9874 21.5538Z" fill="#1D1F21" style="fill: var(--ui-icon-primary-color);"/>
</svg>
