<svg  viewBox="0 0 24 24" fill="none" xmlns="http://www.w3.org/2000/svg" id="__THIS_ID_NEEDS_FOR_UI_ICON_COMPONENT__">
<path d="M21.4394 8.24961C21.4399 8.05255 21.4013 7.85734 21.3259 7.67528C21.2505 7.49322 21.1397 7.32793 21 7.18897L16.8106 2.99951C16.5291 2.7187 16.1476 2.56102 15.7499 2.56104C15.3523 2.56105 14.9708 2.71877 14.6893 2.99961L3.43927 14.2497C3.29385 14.395 3.17997 14.5688 3.10475 14.7602C3.09506 14.7835 3.08656 14.8073 3.07927 14.8314C3.02704 14.9857 3.00027 15.1474 3 15.3102V19.4996C3.00045 19.8973 3.15864 20.2786 3.43984 20.5598C3.72105 20.841 4.10231 20.9992 4.5 20.9996H8.68936C8.85392 20.9993 9.01731 20.972 9.17298 20.9186C9.19532 20.9118 9.21741 20.9039 9.23915 20.895C9.43065 20.8197 9.60456 20.7058 9.75 20.5602L17.5937 12.7166L17.9194 14.0195L14.4696 17.4693C14.4 17.5389 14.3447 17.6216 14.3071 17.7126C14.2694 17.8036 14.25 17.9011 14.25 17.9996C14.25 18.0981 14.2694 18.1957 14.3071 18.2867C14.3448 18.3777 14.4 18.4603 14.4697 18.53C14.5393 18.5996 14.622 18.6549 14.713 18.6925C14.804 18.7302 14.9015 18.7496 15 18.7496C15.0985 18.7496 15.1961 18.7302 15.287 18.6925C15.378 18.6548 15.4607 18.5996 15.5304 18.5299L19.2804 14.7799C19.3719 14.6883 19.4382 14.5746 19.4728 14.4498C19.5073 14.325 19.509 14.1933 19.4776 14.0677L18.8306 11.4797L20.9999 9.31034C21.1397 9.17138 21.2505 9.00607 21.3259 8.824C21.4013 8.64192 21.4399 8.44669 21.4394 8.24961ZM4.5 16.8103L7.18932 19.4996H4.5V16.8103ZM9.00004 19.1889L4.81066 14.9996L12.75 7.0603L16.9393 11.2496L9.00004 19.1889ZM18 10.1889L13.8107 5.99961L15.75 4.06025L19.9393 8.24961L18 10.1889Z" fill="#1D1F21" style="fill: var(--ui-icon-primary-color);"/>
</svg>
