<svg  viewBox="0 0 24 24" fill="none" xmlns="http://www.w3.org/2000/svg" id="__THIS_ID_NEEDS_FOR_UI_ICON_COMPONENT__">
<path d="M20.9999 7.19025L16.8106 3.00089C16.6713 2.86159 16.5059 2.7511 16.324 2.67571C16.142 2.60032 15.9469 2.56152 15.7499 2.56152C15.553 2.56152 15.3579 2.60032 15.1759 2.67571C14.9939 2.7511 14.8286 2.86159 14.6893 3.00089L12.2197 5.47043L12.2196 5.47057L12.2195 5.47066L3.43935 14.2508C3.29961 14.3898 3.18882 14.5551 3.11339 14.7372C3.03797 14.9192 2.99941 15.1145 2.99994 15.3115V19.5009C3.0004 19.8986 3.15858 20.2798 3.43979 20.561C3.72099 20.8423 4.10226 21.0004 4.49994 21.0009H8.99994C9.09844 21.0009 9.19596 20.9815 9.28696 20.9438C9.37795 20.9061 9.46063 20.8509 9.53026 20.7812L20.9999 9.31152C21.2808 9.03001 21.4386 8.64857 21.4386 8.25089C21.4386 7.85321 21.2808 7.47177 20.9999 7.19025ZM8.68931 19.5009H4.49994V15.3115L12.7499 7.06152L16.9393 11.2509L8.68931 19.5009ZM17.9999 10.1902L13.8106 6.00089L15.7499 4.06153L19.9393 8.25089L17.9999 10.1902Z" fill="#1D1F21" style="fill: var(--ui-icon-primary-color);"/>
</svg>
