<svg  viewBox="0 0 24 24" fill="none" xmlns="http://www.w3.org/2000/svg" id="__THIS_ID_NEEDS_FOR_UI_ICON_COMPONENT__">
<path d="M13.3125 2.25H6.375C6.36932 2.25 6.36383 2.25073 6.35815 2.25085C6.3419 2.25121 6.32565 2.25189 6.30936 2.25332C6.2997 2.25416 6.29022 2.25537 6.28065 2.25657C6.26628 2.25839 6.25191 2.26046 6.23753 2.26315C6.22599 2.2653 6.21464 2.26786 6.20329 2.27053C6.19143 2.27332 6.17962 2.27623 6.16786 2.27963C6.15426 2.28353 6.14094 2.28797 6.12767 2.29261C6.11819 2.29593 6.10876 2.29924 6.09938 2.30297C6.08445 2.30887 6.06994 2.3154 6.05552 2.3222C6.05026 2.32469 6.04486 2.32657 6.03959 2.32919C6.03671 2.33062 6.03415 2.33239 6.03135 2.33385C6.01744 2.34103 6.00402 2.34883 5.99066 2.35683C5.98201 2.36197 5.97331 2.36698 5.96498 2.37242C5.95417 2.37951 5.94378 2.38715 5.93335 2.39477C5.92332 2.40207 5.9132 2.40927 5.90364 2.417C5.89576 2.42336 5.88839 2.43018 5.8808 2.43683C5.86976 2.44649 5.85873 2.45607 5.84838 2.46628C5.84225 2.47232 5.83657 2.47879 5.83067 2.48504C5.82 2.49632 5.80933 2.50757 5.79945 2.51943C5.79345 2.52658 5.78805 2.53417 5.78233 2.54154C5.77354 2.55295 5.76461 2.56425 5.75646 2.57611C5.74978 2.58587 5.74383 2.59612 5.73756 2.60621C5.73138 2.61621 5.72497 2.62604 5.71929 2.6363C5.71224 2.64897 5.70606 2.66213 5.69975 2.67523C5.69576 2.68352 5.69146 2.69163 5.6878 2.70005C5.68157 2.71428 5.67627 2.72896 5.67091 2.74364C5.66798 2.75165 5.66477 2.75953 5.66212 2.76763C5.65759 2.78152 5.65392 2.79573 5.65021 2.80996C5.64769 2.81965 5.6449 2.82924 5.64275 2.83903C5.6401 2.85122 5.63813 2.86362 5.63607 2.87601C5.63396 2.88858 5.63181 2.90108 5.6303 2.91376C5.62915 2.92383 5.62856 2.93403 5.62783 2.94421C5.62664 2.95956 5.62567 2.9749 5.62549 2.99034C5.62546 2.9936 5.625 2.99675 5.625 3V15.375C5.62708 17.2143 6.35866 18.9777 7.65924 20.2783C8.95983 21.5788 10.7232 22.3104 12.5625 22.3125C12.661 22.3125 12.7585 22.2931 12.8495 22.2554C12.9405 22.2177 13.0232 22.1625 13.0928 22.0928C13.1625 22.0232 13.2177 21.9405 13.2554 21.8495C13.2931 21.7585 13.3125 21.661 13.3125 21.5625V16.125C15.1524 16.125 16.917 15.3941 18.2181 14.0931C19.5191 12.792 20.25 11.0274 20.25 9.1875C20.25 7.34756 19.5191 5.58298 18.2181 4.28195C16.917 2.98091 15.1524 2.25 13.3125 2.25ZM7.125 6.17706L11.349 14.625H7.125V6.17706ZM11.8125 12.198L7.58853 3.75H11.8125V12.198ZM7.17673 16.125H11.8125V20.761C10.6414 20.5959 9.55574 20.0544 8.71947 19.2181C7.8832 18.3818 7.34171 17.2961 7.17673 16.125ZM13.3125 14.625V3.75C14.7546 3.75 16.1377 4.32288 17.1574 5.34261C18.1771 6.36234 18.75 7.74539 18.75 9.1875C18.75 10.6296 18.1771 12.0127 17.1574 13.0324C16.1377 14.0521 14.7546 14.625 13.3125 14.625Z" fill="#1D1F21" style="fill: var(--ui-icon-primary-color);"/>
</svg>
