<svg  viewBox="0 0 24 24" fill="none" xmlns="http://www.w3.org/2000/svg" id="__THIS_ID_NEEDS_FOR_UI_ICON_COMPONENT__">
<path d="M18.9527 18.8272C20.7553 16.9947 21.7608 14.5241 21.7502 11.9536C21.7396 9.38315 20.7138 6.92096 18.8962 5.10331C17.0786 3.28566 14.6165 2.25978 12.046 2.24911C9.47552 2.23843 7.00494 3.24383 5.17232 5.04633C5.12545 5.08252 5.08341 5.12456 5.04722 5.17143C3.24477 7.00409 2.23943 9.47468 2.25015 12.0452C2.26087 14.6156 3.28678 17.0777 5.10445 18.8953C6.92213 20.7129 9.38432 21.7386 11.9548 21.7492C14.5253 21.7597 16.9958 20.7542 18.8283 18.9516C18.8749 18.9156 18.9167 18.8738 18.9527 18.8272ZM20.2502 11.9991C20.2519 13.928 19.5747 15.7959 18.3372 17.2754L6.72382 5.66211C7.9279 4.65799 9.3933 4.01797 10.9482 3.81708C12.5031 3.6162 14.083 3.86278 15.5028 4.52792C16.9225 5.19305 18.1232 6.24918 18.9641 7.57245C19.8049 8.89572 20.251 10.4313 20.2502 11.9991L20.2502 11.9991ZM3.75019 11.9991C3.74843 10.0703 4.42565 8.20235 5.66314 6.7228L17.2765 18.3362C16.0724 19.3403 14.607 19.9803 13.0521 20.1812C11.4972 20.382 9.91729 20.1354 8.49756 19.4703C7.07783 18.8052 5.87715 17.749 5.03632 16.4258C4.19548 15.1025 3.74933 13.5669 3.75019 11.9991L3.75019 11.9991Z" fill="#1D1F21" style="fill: var(--ui-icon-primary-color);"/>
</svg>
