<svg  viewBox="0 0 24 24" fill="none" xmlns="http://www.w3.org/2000/svg" id="__THIS_ID_NEEDS_FOR_UI_ICON_COMPONENT__">
<path d="M20.893 16.9404C20.6197 15.5989 19.8304 14.4184 18.6951 13.6532C18.6944 13.6511 18.694 13.649 18.6938 13.6468L17.689 3.60073C17.653 3.23019 17.48 2.88641 17.204 2.6366C16.928 2.3868 16.5687 2.24895 16.1964 2.25001H7.80388C7.43159 2.24894 7.0723 2.38679 6.79627 2.6366C6.52024 2.8864 6.34732 3.23019 6.31134 3.60073L5.3065 13.6468C5.30629 13.649 5.30586 13.6511 5.30522 13.6532C4.16994 14.4184 3.38062 15.5989 3.10727 16.9404C3.06167 17.1588 3.0653 17.3847 3.11789 17.6016C3.17048 17.8184 3.27072 18.0209 3.41133 18.1941C3.55193 18.3674 3.72936 18.5072 3.93074 18.6034C4.13212 18.6995 4.35239 18.7496 4.57554 18.75H11.2501V22.5C11.2501 22.6989 11.3292 22.8897 11.4698 23.0303C11.6105 23.171 11.8012 23.25 12.0001 23.25C12.1991 23.25 12.3898 23.171 12.5305 23.0303C12.6711 22.8897 12.7501 22.6989 12.7501 22.5V18.75H19.4248C19.6479 18.7496 19.8682 18.6995 20.0696 18.6034C20.2709 18.5072 20.4484 18.3674 20.589 18.1941C20.7296 18.0209 20.8298 17.8184 20.8824 17.6016C20.935 17.3847 20.9386 17.1588 20.893 16.9404ZM12.0191 17.251C12.0128 17.2508 12.0066 17.25 12.0001 17.25C11.9937 17.25 11.9875 17.2508 11.9811 17.251L4.57856 17.2519C4.57731 17.2506 4.57647 17.2489 4.57613 17.2471C4.5758 17.2453 4.57599 17.2435 4.57669 17.2418C4.77275 16.2816 5.33885 15.4371 6.15259 14.891C6.33424 14.7672 6.48635 14.605 6.59809 14.4157C6.70983 14.2264 6.77845 14.0149 6.79904 13.796L7.80388 3.75001H16.1964L17.2013 13.796C17.2219 14.0149 17.2905 14.2264 17.4022 14.4157C17.514 14.6049 17.6661 14.7672 17.8477 14.891C18.6614 15.4371 19.2275 16.2816 19.4236 17.2418C19.4243 17.2445 19.4247 17.2472 19.4248 17.25L12.0191 17.251Z" fill="#1D1F21" style="fill: var(--ui-icon-primary-color);"/>
</svg>
