<svg  viewBox="0 0 24 24" fill="none" xmlns="http://www.w3.org/2000/svg" id="__THIS_ID_NEEDS_FOR_UI_ICON_COMPONENT__">
<path d="M9.52954 17.5414C9.01822 19.0752 7.79975 20.202 6.00577 20.7999C5.20112 21.066 4.36189 21.213 3.51471 21.2362C3.3158 21.2362 3.12504 21.1572 2.98439 21.0165C2.84374 20.8759 2.76472 20.6851 2.76471 20.4862C2.78793 19.639 2.9349 18.7998 3.20096 17.9951C3.79898 16.2011 4.92572 14.9826 6.4595 14.4714C6.55296 14.4401 6.65166 14.4276 6.74995 14.4346C6.84824 14.4415 6.9442 14.4677 7.03234 14.5118C7.12049 14.5558 7.1991 14.6168 7.26368 14.6912C7.32825 14.7656 7.37753 14.852 7.40869 14.9455C7.43986 15.039 7.4523 15.1377 7.4453 15.236C7.4383 15.3343 7.41201 15.4302 7.36792 15.5183C7.32383 15.6065 7.26281 15.685 7.18834 15.7496C7.11388 15.8141 7.02743 15.8633 6.93393 15.8944C5.09097 16.5087 4.52014 18.5091 4.34363 19.6574C5.49133 19.4809 7.49213 18.9101 8.10644 17.0671C8.13753 16.9736 8.18674 16.8871 8.25126 16.8126C8.31578 16.7381 8.39435 16.6771 8.48248 16.633C8.5706 16.5889 8.66655 16.5625 8.76485 16.5555C8.86314 16.5485 8.96186 16.561 9.05535 16.5921C9.14884 16.6233 9.23527 16.6726 9.30971 16.7371C9.38414 16.8017 9.44512 16.8803 9.48916 16.9685C9.5332 17.0567 9.55943 17.1526 9.56636 17.2509C9.57329 17.3492 9.56078 17.4479 9.52954 17.5414L9.52954 17.5414ZM18.8943 10.4099L18.0533 11.2509V16.9935C18.0538 17.1906 18.0153 17.3858 17.9399 17.5678C17.8645 17.7499 17.7537 17.9152 17.614 18.0541L14.582 21.0862C14.39 21.2782 14.1495 21.4145 13.8861 21.4806C13.6228 21.5466 13.3464 21.5399 13.0866 21.4613C12.8267 21.3826 12.5931 21.2349 12.4106 21.0338C12.2281 20.8328 12.1036 20.586 12.0504 20.3198L11.3091 16.6133L7.38756 12.6918L3.68115 11.9505C3.41493 11.8973 3.16815 11.7728 2.96713 11.5903C2.7661 11.4078 2.61837 11.1742 2.53969 10.9144C2.46101 10.6545 2.45432 10.3782 2.52034 10.1148C2.58636 9.8515 2.72262 9.61102 2.91458 9.41903L5.94663 6.38694C6.08562 6.24723 6.25093 6.13647 6.433 6.06107C6.61507 5.98566 6.81029 5.9471 7.00736 5.94762H12.7499L13.5909 5.10662C16.271 2.42664 19.0211 2.50437 20.0793 2.66225C20.3969 2.70835 20.6911 2.85586 20.918 3.0828C21.145 3.30973 21.2925 3.60394 21.3387 3.92156C21.4966 4.97963 21.5744 7.72978 18.8943 10.4099ZM3.97531 10.4797L7.51082 11.1867L11.2499 7.44762H7.00736L3.97531 10.4797ZM8.81799 12.0009L12 15.1829L17.8336 9.34926C18.5657 8.61711 20.2283 6.6442 19.8551 4.14302C17.3557 3.77251 15.3837 5.4352 14.6516 6.1673L8.81799 12.0009ZM16.5533 12.7509L12.8142 16.4901L13.5212 20.0256L16.5533 16.9935L16.5533 12.7509Z" fill="#1D1F21" style="fill: var(--ui-icon-primary-color);"/>
</svg>
