<svg  viewBox="0 0 24 24" fill="none" xmlns="http://www.w3.org/2000/svg" id="__THIS_ID_NEEDS_FOR_UI_ICON_COMPONENT__">
<path d="M19.4999 3H4.49994C4.10225 3.00045 3.72098 3.15863 3.43978 3.43984C3.15857 3.72105 3.00039 4.10231 2.99994 4.5V9.99999C2.99994 18.386 10.1086 21.1679 11.5337 21.6404C11.8361 21.743 12.1639 21.743 12.4663 21.6404C13.8913 21.1679 20.9999 18.3861 20.9999 9.99999V4.5C20.9995 4.10231 20.8413 3.72104 20.5601 3.43984C20.2789 3.15863 19.8976 3.00045 19.4999 3ZM4.49994 4.5H19.4999V9.99999C19.4999 11.6577 19.1817 13.0653 18.6753 14.2572L12.4301 9.88557C12.3041 9.79733 12.1539 9.75001 12 9.75001C11.8461 9.75001 11.696 9.79733 11.5699 9.88557L5.3246 14.2572C4.81822 13.0653 4.49994 11.6577 4.49994 9.99999V4.5ZM11.9998 20.2146C11.1343 19.9268 7.95312 18.6924 6.02278 15.5995L12 11.4155L17.977 15.5994C16.0491 18.6883 12.873 19.9238 11.9998 20.2146H11.9998Z" fill="#1D1F21" style="fill: var(--ui-icon-primary-color);"/>
</svg>
