<svg  viewBox="0 0 24 24" fill="none" xmlns="http://www.w3.org/2000/svg" id="__THIS_ID_NEEDS_FOR_UI_ICON_COMPONENT__">
<path d="M19.4999 3H4.49994C4.10225 3.00046 3.72099 3.15864 3.43978 3.43984C3.15858 3.72105 3.00039 4.10231 2.99994 4.5V9.99999C2.99994 18.386 10.1086 21.1679 11.5337 21.6404C11.8361 21.743 12.1639 21.743 12.4663 21.6404C13.8913 21.1679 20.9999 18.3861 20.9999 9.99999V4.5C20.9995 4.10231 20.8413 3.72105 20.5601 3.43984C20.2789 3.15864 19.8976 3.00045 19.4999 3ZM19.4999 9.99999C19.4999 17.3369 13.2789 19.7887 11.9998 20.2146C10.7326 19.7932 4.49994 17.3437 4.49994 9.99999V4.5H19.4999L19.4999 9.99999ZM7.35712 12.1675C7.28587 12.0995 7.22871 12.0182 7.18891 11.9281C7.14911 11.838 7.12744 11.7409 7.12515 11.6425C7.12285 11.544 7.13997 11.4461 7.17553 11.3542C7.21109 11.2624 7.2644 11.1784 7.3324 11.1072C7.4004 11.0359 7.48177 10.9788 7.57186 10.939C7.66195 10.8992 7.759 10.8775 7.85746 10.8752C7.95593 10.8729 8.05388 10.89 8.14573 10.9256C8.23757 10.9612 8.32152 11.0145 8.39277 11.0825L10.625 13.2132L15.6071 8.4575C15.6784 8.3895 15.7623 8.3362 15.8541 8.30064C15.946 8.26507 16.0439 8.24795 16.1424 8.25024C16.2408 8.25253 16.3379 8.27419 16.428 8.31399C16.5181 8.35378 16.5994 8.41093 16.6674 8.48218C16.7354 8.55342 16.7887 8.63735 16.8243 8.7292C16.8599 8.82104 16.877 8.91899 16.8747 9.01745C16.8724 9.1159 16.8507 9.21295 16.811 9.30304C16.7712 9.39313 16.714 9.47449 16.6428 9.5425L11.1428 14.7925C11.0033 14.9257 10.8179 15 10.625 15C10.4321 15 10.2467 14.9257 10.1072 14.7925L7.35712 12.1675Z" fill="#1D1F21" style="fill: var(--ui-icon-primary-color);"/>
</svg>
