<svg  viewBox="0 0 24 24" fill="none" xmlns="http://www.w3.org/2000/svg" id="__THIS_ID_NEEDS_FOR_UI_ICON_COMPONENT__">
<path d="M23.1084 10.1874C23.1151 10.1782 23.1217 10.169 23.1279 10.1595C23.1348 10.1489 23.1411 10.1381 23.1475 10.1273C23.1531 10.1177 23.1588 10.1081 23.1639 10.0982C23.1698 10.0871 23.1749 10.0758 23.1801 10.0646C23.1849 10.0543 23.1898 10.0442 23.1941 10.0337C23.1988 10.0222 23.2027 10.0106 23.2068 9.999C23.2106 9.98824 23.2146 9.97761 23.2179 9.96663C23.2218 9.95394 23.2246 9.94108 23.2278 9.92825C23.2303 9.91809 23.2332 9.90812 23.2353 9.8978C23.2399 9.87485 23.2434 9.85174 23.2458 9.82849C23.2464 9.82269 23.2464 9.81673 23.2469 9.81089C23.2484 9.79248 23.2496 9.77406 23.2497 9.7556C23.2497 9.75371 23.25 9.75189 23.25 9.75C23.25 9.74309 23.2492 9.73639 23.2489 9.72952C23.2485 9.71416 23.248 9.69881 23.2467 9.68348C23.2457 9.67306 23.2443 9.66283 23.243 9.65254C23.2413 9.63937 23.2394 9.62625 23.237 9.61317C23.2349 9.60204 23.2325 9.59107 23.2299 9.58012C23.2272 9.56814 23.2241 9.55623 23.2207 9.54436C23.2176 9.53317 23.2142 9.5221 23.2105 9.51114C23.2066 9.49974 23.2025 9.48847 23.1981 9.47723C23.1939 9.46642 23.1896 9.4557 23.1849 9.44515C23.1799 9.43408 23.1745 9.4232 23.169 9.41233C23.1638 9.40206 23.1586 9.39182 23.153 9.38182C23.147 9.37131 23.1406 9.36104 23.1341 9.35075C23.1279 9.34088 23.1217 9.33101 23.115 9.32146C23.1083 9.31176 23.101 9.30236 23.0937 9.29292C23.0863 9.28336 23.079 9.27381 23.0712 9.26463C23.0688 9.26185 23.0669 9.25887 23.0644 9.25612L17.8144 3.25612C17.744 3.17567 17.6572 3.11121 17.5599 3.06703C17.4626 3.02286 17.3569 3.00001 17.25 3H6.75C6.6431 3.00001 6.53744 3.02286 6.4401 3.06703C6.34275 3.11121 6.25597 3.17567 6.18558 3.25612L0.935577 9.25612C0.933151 9.25888 0.931137 9.26186 0.928803 9.26464C0.921022 9.27379 0.913696 9.28332 0.906372 9.29284C0.899047 9.30232 0.891724 9.31178 0.884948 9.32151C0.878311 9.33102 0.872131 9.34084 0.865952 9.35067C0.859405 9.361 0.852951 9.37132 0.846954 9.38189C0.84137 9.39183 0.836197 9.40203 0.831024 9.41225C0.825486 9.42315 0.820084 9.43407 0.815139 9.44518C0.810471 9.45569 0.806168 9.46638 0.801956 9.47714C0.797561 9.48844 0.793304 9.49976 0.789459 9.51121C0.785798 9.52215 0.782395 9.53319 0.779251 9.54433C0.775864 9.55621 0.772842 9.56813 0.77005 9.58012C0.767486 9.59107 0.765106 9.60204 0.763046 9.61317C0.76062 9.62627 0.758743 9.63941 0.757046 9.6526C0.755673 9.66285 0.754299 9.67305 0.753383 9.68341C0.75201 9.69881 0.751461 9.71422 0.751003 9.72965C0.750824 9.73647 0.75 9.74313 0.75 9.75C0.75 9.75189 0.750275 9.75371 0.750275 9.75559C0.750412 9.77406 0.751602 9.79247 0.753067 9.81089C0.753571 9.81673 0.753571 9.82269 0.754165 9.82849C0.756592 9.85172 0.760117 9.87482 0.76474 9.8978C0.766803 9.90811 0.76973 9.91809 0.772202 9.92825C0.77536 9.94108 0.778244 9.95394 0.78209 9.96663C0.785385 9.97761 0.789413 9.98824 0.793213 9.999C0.797287 10.0106 0.801224 10.0222 0.805893 10.0337C0.810196 10.0442 0.815094 10.0543 0.819855 10.0646C0.825073 10.0759 0.830246 10.0871 0.83606 10.0982C0.841278 10.1081 0.846954 10.1177 0.852585 10.1274C0.858902 10.1381 0.865219 10.1489 0.872085 10.1594C0.878356 10.169 0.884993 10.1782 0.891679 10.1875C0.89882 10.1974 0.906007 10.2073 0.913652 10.2169C0.921113 10.2263 0.928941 10.2352 0.936815 10.2442C0.941896 10.25 0.946427 10.2561 0.951692 10.2617L11.4517 21.5117C11.4624 21.5231 11.4739 21.5334 11.4852 21.5441C11.4904 21.549 11.4954 21.5543 11.5008 21.5591C11.5248 21.5806 11.5502 21.6004 11.5768 21.6186C11.5827 21.6227 11.589 21.6263 11.5951 21.6302C11.6172 21.6444 11.64 21.6574 11.6634 21.6691C11.6711 21.673 11.6786 21.677 11.6863 21.6805C11.7156 21.6942 11.7456 21.7059 11.7764 21.7157C11.7808 21.7171 11.7855 21.7179 11.79 21.7193C11.8174 21.7272 11.8453 21.7336 11.8735 21.7383C11.8823 21.7398 11.8911 21.7413 11.9001 21.7425C11.9663 21.7525 12.0337 21.7525 12.0999 21.7425C12.1089 21.7413 12.1177 21.7398 12.1266 21.7383C12.1547 21.7336 12.1825 21.7272 12.2098 21.7193C12.2144 21.718 12.2191 21.7171 12.2237 21.7157C12.2544 21.7059 12.2844 21.6942 12.3137 21.6805C12.3214 21.677 12.329 21.673 12.3366 21.6691C12.36 21.6574 12.3827 21.6444 12.4048 21.6303C12.4109 21.6263 12.4173 21.6227 12.4233 21.6185C12.4499 21.6004 12.4752 21.5806 12.4991 21.5592C12.5046 21.5543 12.5096 21.549 12.515 21.5439C12.5262 21.5333 12.5377 21.5231 12.5483 21.5117L23.0483 10.2617C23.0536 10.256 23.0582 10.2499 23.0633 10.2441C23.0711 10.2352 23.0789 10.2263 23.0863 10.217C23.094 10.2073 23.1012 10.1974 23.1084 10.1874ZM6.89424 10.5L9.75678 17.4974L3.22591 10.5H6.89424ZM15.4851 10.5L12 19.0192L8.51486 10.5H15.4851ZM8.91824 9L12 4.9823L15.0818 9H8.91824ZM17.1058 10.5H20.7741L14.2432 17.4973L17.1058 10.5ZM20.8472 9H16.9722L13.5205 4.5H16.9097L20.8472 9ZM7.0903 4.5H10.4795L7.02777 9H3.15285L7.0903 4.5Z" fill="#1D1F21" style="fill: var(--ui-icon-primary-color);"/>
</svg>
