<svg  viewBox="0 0 24 24" fill="none" xmlns="http://www.w3.org/2000/svg" id="__THIS_ID_NEEDS_FOR_UI_ICON_COMPONENT__">
<path d="M11.9999 2.25C10.0716 2.25 8.18651 2.82183 6.58313 3.89317C4.97975 4.96451 3.73007 6.48726 2.99212 8.26884C2.25416 10.0504 2.06108 12.0108 2.43729 13.9021C2.81349 15.7934 3.74209 17.5307 5.10565 18.8943C6.46921 20.2579 8.2065 21.1865 10.0978 21.5627C11.9891 21.9389 13.9495 21.7458 15.7311 21.0078C17.5127 20.2699 19.0354 19.0202 20.1068 17.4168C21.1781 15.8134 21.7499 13.9284 21.7499 12C21.747 9.41504 20.7188 6.93679 18.891 5.10894C17.0632 3.28109 14.5849 2.25293 11.9999 2.25ZM11.9999 20.25C10.3682 20.25 8.77319 19.7661 7.41649 18.8596C6.05978 17.9531 5.00236 16.6646 4.37794 15.1571C3.75351 13.6496 3.59014 11.9908 3.90846 10.3905C4.22679 8.79016 5.01253 7.32015 6.16631 6.16637C7.3201 5.01259 8.7901 4.22685 10.3904 3.90852C11.9908 3.59019 13.6496 3.75357 15.1571 4.37799C16.6646 5.00242 17.953 6.05984 18.8596 7.41655C19.7661 8.77325 20.2499 10.3683 20.2499 12C20.2475 14.1873 19.3775 16.2843 17.8308 17.8309C16.2842 19.3775 14.1872 20.2475 11.9999 20.25ZM14.9788 8.33876C14.8591 8.27468 14.7243 8.2443 14.5887 8.25085C14.4531 8.25741 14.3219 8.30065 14.2089 8.37598L10.1249 11.0986V9C10.1249 8.80109 10.0459 8.61032 9.90527 8.46967C9.76462 8.32902 9.57386 8.25 9.37494 8.25C9.17603 8.25 8.98527 8.32902 8.84461 8.46967C8.70396 8.61032 8.62494 8.80109 8.62494 9V15C8.62494 15.1989 8.70396 15.3897 8.84461 15.5303C8.98527 15.671 9.17603 15.75 9.37494 15.75C9.57386 15.75 9.76462 15.671 9.90527 15.5303C10.0459 15.3897 10.1249 15.1989 10.1249 15V12.9014L14.2089 15.624C14.3219 15.6993 14.4531 15.7425 14.5887 15.7491C14.7243 15.7556 14.8591 15.7253 14.9788 15.6612C15.0985 15.5972 15.1986 15.5018 15.2683 15.3854C15.3381 15.2689 15.3749 15.1357 15.3749 15V9C15.3749 8.86425 15.3381 8.73104 15.2683 8.61459C15.1986 8.49814 15.0985 8.40281 14.9788 8.33876ZM13.8749 13.5986L11.477 12L13.8749 10.4014V13.5986Z" fill="#1D1F21" style="fill: var(--ui-icon-primary-color);"/>
</svg>
