<svg  viewBox="0 0 24 24" fill="none" xmlns="http://www.w3.org/2000/svg" id="__THIS_ID_NEEDS_FOR_UI_ICON_COMPONENT__">
<path d="M23.2473 12C23.2499 12.9853 23.0572 13.9614 22.6801 14.8717C22.3031 15.782 21.7492 16.6085 21.0505 17.3034C20.9098 17.4438 20.7191 17.5227 20.5203 17.5226C20.3215 17.5226 20.1308 17.4436 19.9902 17.303C19.8496 17.1624 19.7706 16.9717 19.7705 16.7729C19.7704 16.574 19.8493 16.3833 19.9898 16.2426C20.547 15.6855 20.989 15.0241 21.2905 14.2961C21.5921 13.5681 21.7473 12.7879 21.7473 12C21.7473 11.212 21.5921 10.4318 21.2905 9.70386C20.989 8.9759 20.547 8.31447 19.9898 7.75733C19.8493 7.61663 19.7704 7.42591 19.7705 7.22708C19.7706 7.02825 19.8496 6.83758 19.9902 6.69699C20.1308 6.5564 20.3215 6.47738 20.5203 6.47731C20.7191 6.47723 20.9098 6.55611 21.0505 6.6966C21.7492 7.39143 22.3031 8.21793 22.6801 9.12825C23.0572 10.0386 23.2499 11.0147 23.2473 12ZM15 2.99998V21C15 21.1404 14.9606 21.278 14.8863 21.3971C14.8119 21.5162 14.7057 21.612 14.5795 21.6737C14.4534 21.7354 14.3125 21.7604 14.1728 21.746C14.0332 21.7315 13.9004 21.6782 13.7896 21.592L7.24265 16.5H3C2.60231 16.4995 2.22105 16.3413 1.93984 16.0601C1.65864 15.7789 1.50045 15.3977 1.5 15V8.99998C1.50045 8.60229 1.65864 8.22103 1.93984 7.93982C2.22105 7.65861 2.60231 7.50043 3 7.49998H7.24265L13.7896 2.408C13.9004 2.3218 14.0332 2.26843 14.1728 2.25398C14.3125 2.23953 14.4534 2.26457 14.5795 2.32626C14.7057 2.38794 14.8119 2.48379 14.8863 2.60289C14.9606 2.722 15 2.85958 15 2.99998ZM3 15H6.75V8.99998H3V15ZM13.5 4.53349L8.25 8.61674V15.3832L13.5 19.4665V4.53349ZM17.3382 9.34843C17.2685 9.41807 17.2133 9.50075 17.1756 9.59175C17.1379 9.68275 17.1185 9.78027 17.1185 9.87877C17.1185 9.97726 17.1379 10.0748 17.1756 10.1658C17.2133 10.2568 17.2686 10.3394 17.3383 10.4091C17.5472 10.618 17.7129 10.866 17.826 11.139C17.9391 11.4119 17.9973 11.7045 17.9973 12C17.9973 12.2954 17.9391 12.588 17.826 12.861C17.7129 13.1339 17.5472 13.382 17.3383 13.5909C17.1976 13.7315 17.1186 13.9223 17.1185 14.1212C17.1185 14.3201 17.1975 14.5109 17.3382 14.6515C17.4788 14.7922 17.6696 14.8712 17.8685 14.8712C18.0674 14.8713 18.2581 14.7923 18.3988 14.6516C18.7471 14.3034 19.0233 13.89 19.2118 13.4351C19.4002 12.9801 19.4973 12.4924 19.4973 12C19.4973 11.5075 19.4002 11.0199 19.2118 10.5649C19.0233 10.1099 18.7471 9.69654 18.3988 9.34834C18.3292 9.27868 18.2465 9.22343 18.1555 9.18574C18.0645 9.14804 17.967 9.12865 17.8685 9.12865C17.77 9.12866 17.6724 9.14808 17.5815 9.18579C17.4905 9.2235 17.4078 9.27876 17.3382 9.34843Z" fill="#1D1F21" style="fill: var(--ui-icon-primary-color);"/>
</svg>
