<svg  viewBox="0 0 24 24" fill="none" xmlns="http://www.w3.org/2000/svg" id="__THIS_ID_NEEDS_FOR_UI_ICON_COMPONENT__">
<path d="M14.5795 2.32584C14.4534 2.26411 14.3125 2.23904 14.1728 2.25349C14.0332 2.26795 13.9004 2.32134 13.7896 2.4076L7.24265 7.49958H3C2.60231 7.50003 2.22105 7.65821 1.93984 7.93942C1.65864 8.22062 1.50045 8.60189 1.5 8.99958V14.9996C1.50045 15.3973 1.65864 15.7785 1.93984 16.0597C2.22105 16.3409 2.60231 16.4991 3 16.4996H7.24265L13.7896 21.5916C13.9004 21.6778 14.0332 21.7311 14.1728 21.7456C14.3125 21.76 14.4534 21.735 14.5795 21.6733C14.7057 21.6116 14.8119 21.5158 14.8863 21.3967C14.9606 21.2776 15 21.14 15 20.9996V2.99958C15 2.85917 14.9606 2.72159 14.8862 2.60248C14.8119 2.48337 14.7056 2.38752 14.5795 2.32584ZM3 8.99958H6.75V14.9996H3V8.99958ZM13.5 19.4661L8.25 15.3828V8.61634L13.5 4.53308V19.4661ZM23.0304 13.7192C23.1 13.7889 23.1553 13.8715 23.193 13.9625C23.2306 14.0535 23.25 14.1511 23.25 14.2496C23.25 14.3481 23.2306 14.4456 23.193 14.5366C23.1553 14.6276 23.1 14.7103 23.0304 14.7799C22.9607 14.8496 22.878 14.9048 22.787 14.9425C22.696 14.9802 22.5985 14.9996 22.5 14.9996C22.4015 14.9996 22.304 14.9802 22.213 14.9425C22.122 14.9048 22.0393 14.8496 21.9696 14.7799L20.25 13.0603L18.5304 14.7799C18.3897 14.9206 18.1989 14.9996 18 14.9996C17.8011 14.9996 17.6103 14.9206 17.4696 14.7799C17.329 14.6393 17.25 14.4485 17.25 14.2496C17.25 14.0507 17.329 13.8599 17.4696 13.7192L19.1893 11.9996L17.4696 10.2799C17.329 10.1393 17.2499 9.9485 17.25 9.74958C17.25 9.55065 17.329 9.35987 17.4696 9.21921C17.6103 9.07855 17.8011 8.99953 18 8.99953C18.1989 8.99953 18.3897 9.07855 18.5304 9.21921L20.25 10.9388L21.9696 9.21921C22.1103 9.07855 22.3011 8.99953 22.5 8.99953C22.6989 8.99953 22.8897 9.07855 23.0304 9.21921C23.171 9.35987 23.25 9.55065 23.25 9.74958C23.25 9.9485 23.171 10.1393 23.0304 10.2799L21.3107 11.9996L23.0304 13.7192Z" fill="#1D1F21" style="fill: var(--ui-icon-primary-color);"/>
</svg>
