<svg  viewBox="0 0 24 24" fill="none" xmlns="http://www.w3.org/2000/svg" id="__THIS_ID_NEEDS_FOR_UI_ICON_COMPONENT__">
<path d="M19.5 21H4.5C4.10231 20.9996 3.72104 20.8414 3.43984 20.5602C3.15863 20.279 3.00045 19.8977 3 19.5V4.5C3.00045 4.10231 3.15863 3.72104 3.43984 3.43984C3.72104 3.15863 4.10231 3.00045 4.5 3H19.5C19.8977 3.00045 20.279 3.15863 20.5602 3.43984C20.8414 3.72104 20.9995 4.10231 21 4.5V19.5C20.9996 19.8977 20.8414 20.279 20.5602 20.5602C20.279 20.8414 19.8977 20.9996 19.5 21ZM4.5 4.5V19.5H19.5L19.5009 19.5L19.5 4.5H4.5Z" fill="#1D1F21" style="fill: var(--ui-icon-primary-color);"/>
</svg>
