<svg  viewBox="0 0 24 24" fill="none" xmlns="http://www.w3.org/2000/svg" id="__THIS_ID_NEEDS_FOR_UI_ICON_COMPONENT__">
<path d="M17.5986 19.4995H3.75C3.35231 19.4991 2.97105 19.3409 2.68984 19.0597C2.40864 18.7785 2.25045 18.3972 2.25 17.9995V5.99951C2.25045 5.60183 2.40864 5.22056 2.68984 4.93935C2.97105 4.65815 3.35231 4.49997 3.75 4.49951H17.5986C17.8456 4.49926 18.0889 4.56012 18.3067 4.67669C18.5244 4.79325 18.71 4.96189 18.8468 5.16758L23.124 11.5835C23.2062 11.7067 23.25 11.8514 23.25 11.9995C23.25 12.1476 23.2062 12.2923 23.124 12.4155L18.8467 18.8316L18.8468 18.8315C18.71 19.0372 18.5244 19.2059 18.3067 19.3224C18.0889 19.439 17.8456 19.4998 17.5986 19.4995ZM17.5986 17.9995V17.9996L21.5986 11.9995L17.5986 5.99951H3.75V17.9995H17.5986Z" fill="#1D1F21" style="fill: var(--ui-icon-primary-color);"/>
</svg>
