<svg  viewBox="0 0 24 24" fill="none" xmlns="http://www.w3.org/2000/svg" id="__THIS_ID_NEEDS_FOR_UI_ICON_COMPONENT__">
<path d="M20.8 7.79647C21.8412 9.97262 22.0394 12.4573 21.3564 14.7711C20.6733 17.0848 19.1574 19.0634 17.1013 20.3252C15.0451 21.587 12.5945 22.0423 10.2223 21.6035C7.85013 21.1646 5.72461 19.8626 4.25598 17.9487C2.78736 16.0348 2.07974 13.6447 2.26969 11.2398C2.45965 8.83486 3.53372 6.58553 5.2846 4.92594C7.03548 3.26635 9.33905 2.31416 11.7507 2.25314C14.1624 2.19212 16.5111 3.02659 18.3437 4.59551L20.4696 2.4697C20.6102 2.32904 20.801 2.25001 20.9999 2.25C21.1988 2.24999 21.3896 2.329 21.5303 2.46965C21.6709 2.6103 21.7499 2.80107 21.75 2.99998C21.75 3.1989 21.671 3.38968 21.5303 3.53034L15.7127 9.34792L15.7123 9.34838L15.7118 9.34879L12.5303 12.5303C12.3896 12.671 12.1989 12.75 12 12.75C11.8011 12.75 11.6103 12.671 11.4696 12.5304C11.329 12.3897 11.2499 12.199 11.2499 12.0001C11.2499 11.8011 11.3289 11.6104 11.4696 11.4697L14.0683 8.87098C13.3638 8.40496 12.5226 8.19035 11.681 8.26192C10.8393 8.33348 10.0465 8.68701 9.43075 9.26528C8.81504 9.84355 8.41253 10.6127 8.28838 11.4482C8.16423 12.2837 8.3257 13.1367 8.74667 13.869C9.16764 14.6013 9.82345 15.1701 10.6079 15.4833C11.3924 15.7965 12.2596 15.8358 13.0692 15.5947C13.8788 15.3537 14.5833 14.8465 15.0687 14.1552C15.5541 13.4639 15.792 12.629 15.7438 11.7857C15.7382 11.6874 15.752 11.5889 15.7845 11.4959C15.817 11.4029 15.8674 11.3172 15.933 11.2437C16.0655 11.0953 16.2514 11.0056 16.45 10.9943C16.6486 10.983 16.8436 11.0511 16.992 11.1835C17.0655 11.2491 17.1253 11.3285 17.1681 11.4172C17.2109 11.5059 17.2358 11.6022 17.2414 11.7005C17.3098 12.8939 16.969 14.0749 16.2752 15.0483C15.5815 16.0216 14.5764 16.7292 13.426 17.0539C12.2757 17.3787 11.049 17.3012 9.94863 16.8343C8.84829 16.3674 7.9402 15.539 7.37446 14.486C6.80872 13.4331 6.61919 12.2186 6.8372 11.0433C7.05522 9.86808 7.66772 8.80239 8.57348 8.02241C9.47923 7.24243 10.624 6.79485 11.8186 6.75365C13.0132 6.71245 14.1861 7.0801 15.1434 7.79583L17.278 5.66127C15.7149 4.36344 13.7275 3.68886 11.6973 3.76711C9.66717 3.84535 7.73752 4.6709 6.27897 6.08519C4.82042 7.49948 3.93583 9.40279 3.79508 11.4296C3.65434 13.4563 4.26737 15.4636 5.51644 17.0659C6.7655 18.6683 8.56253 19.7526 10.5624 20.1107C12.5622 20.4688 14.6238 20.0754 16.3513 19.0061C18.0788 17.9367 19.3502 16.2669 19.9215 14.3172C20.4928 12.3675 20.3236 10.2755 19.4465 8.44301C19.3607 8.26352 19.3498 8.05733 19.4161 7.86979C19.4824 7.68224 19.6205 7.52872 19.8 7.44298C19.9794 7.35724 20.1856 7.34632 20.3732 7.41261C20.5607 7.4789 20.7142 7.61698 20.8 7.79647Z" fill="#1D1F21" style="fill: var(--ui-icon-primary-color);"/>
</svg>
