<svg  viewBox="0 0 24 24" fill="none" xmlns="http://www.w3.org/2000/svg" id="__THIS_ID_NEEDS_FOR_UI_ICON_COMPONENT__">
<path d="M17.625 2.25H6.375C5.57963 2.25091 4.8171 2.56727 4.25468 3.12968C3.69227 3.6921 3.37591 4.45463 3.375 5.25V17.25C3.37591 18.0454 3.69227 18.8079 4.25468 19.3703C4.8171 19.9327 5.57963 20.2491 6.375 20.25H7.49998L6.14996 22.05C6.03062 22.2092 5.97938 22.4092 6.00753 22.6061C6.03567 22.803 6.14088 22.9807 6.30002 23.1C6.45916 23.2194 6.65919 23.2706 6.85611 23.2425C7.05302 23.2143 7.23069 23.1091 7.35004 22.95L9.37502 20.25H14.625L16.65 22.95C16.7693 23.1091 16.947 23.2143 17.1439 23.2425C17.3408 23.2706 17.5408 23.2194 17.7 23.1C17.8591 22.9807 17.9643 22.803 17.9925 22.6061C18.0206 22.4092 17.9694 22.2092 17.85 22.05L16.5 20.25H17.625C18.4204 20.2491 19.1829 19.9327 19.7453 19.3703C20.3077 18.8079 20.6241 18.0454 20.625 17.25V5.25C20.6241 4.45463 20.3077 3.6921 19.7453 3.12968C19.1829 2.56727 18.4204 2.25091 17.625 2.25ZM4.875 11.25V7.5H11.25V11.25H4.875ZM12.75 7.5H19.125V11.25H12.75V7.5ZM6.375 3.75H17.625C18.0227 3.75045 18.404 3.90864 18.6852 4.18984C18.9664 4.47105 19.1245 4.85231 19.125 5.25V6H4.875V5.25C4.87545 4.85231 5.03364 4.47105 5.31484 4.18984C5.59605 3.90864 5.97731 3.75045 6.375 3.75ZM17.625 18.75H6.375C5.97731 18.7495 5.59605 18.5914 5.31484 18.3102C5.03364 18.029 4.87545 17.6477 4.875 17.25V12.75H19.125V17.25C19.1245 17.6477 18.9664 18.029 18.6852 18.3102C18.404 18.5914 18.0227 18.7495 17.625 18.75ZM9 16.125C9 16.3475 8.93402 16.565 8.8104 16.75C8.68679 16.935 8.51109 17.0792 8.30552 17.1644C8.09995 17.2495 7.87375 17.2718 7.65552 17.2284C7.43729 17.185 7.23684 17.0778 7.0795 16.9205C6.92217 16.7632 6.81502 16.5627 6.77162 16.3445C6.72821 16.1262 6.75049 15.9 6.83564 15.6945C6.92078 15.4889 7.06498 15.3132 7.24998 15.1896C7.43499 15.066 7.6525 15 7.875 15C8.17337 15 8.45952 15.1185 8.6705 15.3295C8.88147 15.5405 9 15.8266 9 16.125ZM17.25 16.125C17.25 16.3475 17.184 16.565 17.0604 16.75C16.9368 16.935 16.7611 17.0792 16.5555 17.1644C16.35 17.2495 16.1238 17.2718 15.9055 17.2284C15.6873 17.185 15.4868 17.0778 15.3295 16.9205C15.1722 16.7632 15.065 16.5627 15.0216 16.3445C14.9782 16.1262 15.0005 15.9 15.0856 15.6945C15.1708 15.4889 15.315 15.3132 15.5 15.1896C15.685 15.066 15.9025 15 16.125 15C16.4234 15 16.7095 15.1185 16.9205 15.3295C17.1315 15.5405 17.25 15.8266 17.25 16.125Z" fill="#1D1F21" style="fill: var(--ui-icon-primary-color);"/>
</svg>
