<svg  viewBox="0 0 24 24" fill="none" xmlns="http://www.w3.org/2000/svg" id="__THIS_ID_NEEDS_FOR_UI_ICON_COMPONENT__">
<path d="M22.5003 5.25048V11.25C22.5003 11.4489 22.4212 11.6397 22.2806 11.7803C22.1399 11.921 21.9492 12 21.7503 12C21.5513 12 21.3606 11.921 21.2199 11.7803C21.0793 11.6397 21.0003 11.4489 21.0003 11.25V7.06069L13.2806 14.7803C13.14 14.921 12.9492 15 12.7503 15C12.5513 15 12.3606 14.921 12.2199 14.7803L9.00026 11.5607L2.78063 17.7803C2.63998 17.921 2.44921 18 2.25029 18C2.05138 18 1.8606 17.921 1.71994 17.7804C1.57928 17.6397 1.50025 17.4489 1.50024 17.25C1.50024 17.0511 1.57925 16.8603 1.7199 16.7197L8.4699 9.96968C8.61057 9.82903 8.80134 9.75002 9.00026 9.75002C9.19918 9.75002 9.38996 9.82903 9.53063 9.96968L12.7503 13.1893L19.9396 6H15.7503C15.5514 6 15.3606 5.92098 15.2199 5.78033C15.0793 5.63968 15.0003 5.44891 15.0003 5.25C15.0003 5.05109 15.0793 4.86032 15.2199 4.71967C15.3606 4.57902 15.5514 4.5 15.7503 4.5H21.7503C21.7531 4.5 21.7558 4.50039 21.7586 4.50041C21.7804 4.50066 21.8023 4.50158 21.824 4.50373C21.8361 4.5049 21.8478 4.50714 21.8597 4.50888C21.872 4.51069 21.8844 4.51209 21.8966 4.51451C21.9097 4.51712 21.9226 4.52069 21.9355 4.52399C21.9462 4.52673 21.9571 4.52907 21.9677 4.53229C21.9803 4.53609 21.9925 4.54079 22.0048 4.54523C22.0156 4.54912 22.0264 4.55267 22.0371 4.55708C22.0485 4.56177 22.0593 4.56727 22.0703 4.57251C22.0815 4.57777 22.0928 4.58272 22.1037 4.58858C22.1141 4.59416 22.1241 4.60053 22.1342 4.60659C22.1451 4.61309 22.1561 4.61925 22.1667 4.62634C22.1777 4.63367 22.188 4.64186 22.1986 4.64973C22.2076 4.65651 22.2169 4.66283 22.2257 4.67006C22.2432 4.68439 22.2598 4.69961 22.2759 4.71542C22.2774 4.71693 22.2791 4.71817 22.2806 4.71968C22.2826 4.7216 22.2842 4.72373 22.286 4.72568C22.3014 4.74134 22.3162 4.75749 22.3301 4.77446C22.3379 4.78389 22.3447 4.79382 22.3519 4.80352C22.3592 4.81343 22.3669 4.82309 22.3738 4.83337C22.3814 4.84468 22.388 4.85642 22.3949 4.86804C22.4005 4.87743 22.4063 4.88656 22.4115 4.8962C22.4179 4.90801 22.4232 4.92014 22.4289 4.9322C22.4336 4.94236 22.4387 4.95232 22.443 4.96273C22.4479 4.97443 22.4518 4.98635 22.456 4.99821C22.46 5.00944 22.4644 5.02052 22.4679 5.03201C22.4715 5.04398 22.4742 5.05616 22.4772 5.06827C22.4801 5.07989 22.4833 5.09134 22.4857 5.10319C22.4885 5.11734 22.4902 5.13162 22.4922 5.14588C22.4936 5.15586 22.4955 5.16566 22.4965 5.17575C22.499 5.20061 22.5002 5.22552 22.5003 5.25048Z" fill="#1D1F21" style="fill: var(--ui-icon-primary-color);"/>
</svg>
