<svg  viewBox="0 0 24 24" fill="none" xmlns="http://www.w3.org/2000/svg" id="__THIS_ID_NEEDS_FOR_UI_ICON_COMPONENT__">
<path d="M20.2479 20.9993H3.75232C3.35716 20.9993 2.96896 20.8952 2.62679 20.6975C2.28462 20.4999 2.00054 20.2155 1.80314 19.8732C1.60575 19.5309 1.50199 19.1426 1.50232 18.7474C1.50265 18.3523 1.60704 17.9641 1.805 17.6221L10.0528 3.37285H10.0528C10.2504 3.03139 10.5344 2.7479 10.8762 2.55082C11.218 2.35374 11.6056 2.25 12.0001 2.25C12.3946 2.25 12.7822 2.35374 13.124 2.55082C13.4658 2.7479 13.7498 3.03139 13.9474 3.37285L22.1952 17.6221C22.3931 17.9642 22.4975 18.3523 22.4979 18.7474C22.4982 19.1426 22.3944 19.5309 22.197 19.8732C21.9996 20.2155 21.7156 20.4999 21.3734 20.6975C21.0312 20.8952 20.643 20.9993 20.2479 20.9993ZM11.351 4.12427L3.10322 18.3736C3.03723 18.4876 3.00243 18.6169 3.00233 18.7487C3.00222 18.8804 3.0368 19.0098 3.1026 19.1239C3.1684 19.238 3.26309 19.3328 3.37715 19.3987C3.4912 19.4646 3.6206 19.4993 3.75232 19.4993H20.2479C20.3796 19.4993 20.509 19.4646 20.623 19.3987C20.7371 19.3328 20.8318 19.238 20.8976 19.1239C20.9634 19.0098 20.998 18.8804 20.9979 18.7487C20.9978 18.6169 20.963 18.4876 20.897 18.3736L12.6492 4.12427C12.5833 4.01045 12.4887 3.91596 12.3747 3.85027C12.2608 3.78458 12.1316 3.75 12.0001 3.75C11.8686 3.75 11.7394 3.78458 11.6255 3.85027C11.5115 3.91596 11.4169 4.01045 11.351 4.12427H11.351Z" fill="#1D1F21" style="fill: var(--ui-icon-primary-color);"/>
</svg>
