<svg  viewBox="0 0 24 24" fill="none" xmlns="http://www.w3.org/2000/svg" id="__THIS_ID_NEEDS_FOR_UI_ICON_COMPONENT__">
<path d="M22.5 12.75V18.75C22.4995 19.1477 22.3414 19.529 22.0602 19.8102C21.779 20.0914 21.3977 20.2495 21 20.25H3C2.60231 20.2495 2.22105 20.0914 1.93984 19.8102C1.65864 19.529 1.50045 19.1477 1.5 18.75V12.75C1.50045 12.3523 1.65864 11.971 1.93984 11.6898C2.22105 11.4086 2.60231 11.2505 3 11.25H7.5C7.69891 11.25 7.88968 11.329 8.03033 11.4697C8.17098 11.6103 8.25 11.8011 8.25 12C8.25 12.1989 8.17098 12.3897 8.03033 12.5303C7.88968 12.671 7.69891 12.75 7.5 12.75H3V18.75H21V12.75H16.5C16.3011 12.75 16.1103 12.671 15.9697 12.5303C15.829 12.3897 15.75 12.1989 15.75 12C15.75 11.8011 15.829 11.6103 15.9697 11.4697C16.1103 11.329 16.3011 11.25 16.5 11.25H21C21.3977 11.2505 21.779 11.4086 22.0602 11.6898C22.3414 11.971 22.4995 12.3523 22.5 12.75ZM8.03032 7.28036L11.25 4.06064V12C11.25 12.1989 11.329 12.3897 11.4697 12.5303C11.6103 12.671 11.8011 12.75 12 12.75C12.1989 12.75 12.3897 12.671 12.5303 12.5303C12.671 12.3897 12.75 12.1989 12.75 12V4.06064L15.9697 7.28036C16.1103 7.42101 16.3011 7.50003 16.5 7.50002C16.6989 7.50001 16.8897 7.42098 17.0304 7.28032C17.171 7.13966 17.25 6.94888 17.25 6.74997C17.25 6.55105 17.171 6.36028 17.0303 6.21964L12.5303 1.71963C12.5276 1.71693 12.5246 1.71469 12.5219 1.71204C12.5069 1.69748 12.4916 1.68333 12.4755 1.6701C12.4665 1.66264 12.4569 1.65614 12.4476 1.64919C12.4373 1.6415 12.4272 1.63353 12.4165 1.62634C12.4058 1.61925 12.3948 1.61307 12.3838 1.60652C12.3737 1.60048 12.3638 1.59412 12.3534 1.58858C12.3426 1.58276 12.3314 1.57787 12.3204 1.57265C12.3092 1.56734 12.2982 1.5618 12.2868 1.55704C12.2764 1.55273 12.2657 1.54926 12.2551 1.54546C12.2426 1.54092 12.2302 1.53612 12.2173 1.53227C12.2071 1.52921 12.1968 1.52696 12.1865 1.52435C12.1731 1.52087 12.1598 1.51717 12.1461 1.51447C12.1348 1.51222 12.1233 1.51094 12.1119 1.50925C12.0991 1.50732 12.0865 1.50499 12.0735 1.50371C12.0546 1.50188 12.0356 1.50124 12.0166 1.50082C12.011 1.50073 12.0056 1.5 12 1.5C11.9944 1.5 11.989 1.50073 11.9834 1.50082C11.9644 1.50124 11.9454 1.50188 11.9265 1.50371C11.9135 1.50499 11.9009 1.50732 11.8881 1.50925C11.8767 1.51094 11.8652 1.51222 11.8539 1.51447C11.8402 1.51717 11.8269 1.52087 11.8135 1.52435C11.8032 1.52696 11.7929 1.52921 11.7827 1.53227C11.7698 1.53612 11.7574 1.54092 11.7449 1.54546C11.7343 1.54926 11.7236 1.55273 11.7132 1.55704C11.7018 1.5618 11.6908 1.56734 11.6796 1.57265C11.6686 1.57787 11.6574 1.58276 11.6466 1.58858C11.6362 1.59412 11.6263 1.60048 11.6162 1.60652C11.6052 1.61307 11.5942 1.61925 11.5835 1.62634C11.5728 1.63353 11.5627 1.6415 11.5524 1.64919C11.5431 1.65614 11.5335 1.66264 11.5245 1.6701C11.5084 1.68333 11.4931 1.69748 11.4781 1.71204C11.4754 1.71469 11.4724 1.71693 11.4697 1.71963L6.96968 6.21964C6.90003 6.28928 6.84478 6.37196 6.80709 6.46295C6.76939 6.55395 6.74999 6.65147 6.74998 6.74997C6.74997 6.94888 6.82899 7.13966 6.96964 7.28032C7.11028 7.42098 7.30105 7.50001 7.49997 7.50002C7.69888 7.50003 7.88966 7.42101 8.03032 7.28036ZM18.75 15.75C18.75 15.5275 18.684 15.31 18.5604 15.125C18.4368 14.94 18.2611 14.7958 18.0555 14.7106C17.85 14.6255 17.6238 14.6032 17.4055 14.6466C17.1873 14.69 16.9868 14.7972 16.8295 14.9545C16.6722 15.1118 16.565 15.3123 16.5216 15.5305C16.4782 15.7488 16.5005 15.975 16.5856 16.1805C16.6708 16.3861 16.815 16.5618 17 16.6854C17.185 16.809 17.4025 16.875 17.625 16.875C17.9233 16.8747 18.2092 16.756 18.4201 16.5451C18.631 16.3342 18.7497 16.0483 18.75 15.75Z" fill="#1D1F21" style="fill: var(--ui-icon-primary-color);"/>
</svg>
