<svg  viewBox="0 0 24 24" fill="none" xmlns="http://www.w3.org/2000/svg" id="__THIS_ID_NEEDS_FOR_UI_ICON_COMPONENT__">
<path d="M19.5 3H4.5C4.10231 3.00045 3.72105 3.15864 3.43984 3.43984C3.15864 3.72105 3.00045 4.10231 3 4.5V19.5C3.00045 19.8977 3.15864 20.279 3.43984 20.5602C3.72105 20.8414 4.10231 20.9995 4.5 21H18.5778C18.5792 21 18.5806 21.0002 18.582 21.0002C18.5831 21.0002 18.5842 21 18.5853 21H19.5C19.8977 20.9995 20.279 20.8414 20.5602 20.5602C20.8414 20.279 20.9995 19.8977 21 19.5V4.5C20.9995 4.10231 20.8414 3.72105 20.5602 3.43984C20.279 3.15864 19.8977 3.00045 19.5 3ZM9 11.25C9 10.6567 9.17595 10.0766 9.50559 9.58329C9.83524 9.08994 10.3038 8.70542 10.8519 8.47836C11.4001 8.2513 12.0033 8.19189 12.5853 8.30764C13.1672 8.4234 13.7018 8.70912 14.1213 9.12868C14.5409 9.54824 14.8266 10.0828 14.9424 10.6647C15.0581 11.2467 14.9987 11.8499 14.7716 12.3981C14.5446 12.9462 14.1601 13.4148 13.6667 13.7444C13.1734 14.0741 12.5933 14.25 12 14.25C11.2046 14.2491 10.4421 13.9327 9.87967 13.3703C9.31725 12.8079 9.00089 12.0454 9 11.25ZM6.43755 19.5C6.82161 18.5552 7.4387 17.723 8.23127 17.081C9.29851 16.2197 10.6286 15.75 12 15.75C13.3714 15.75 14.7015 16.2197 15.7687 17.081C16.5613 17.723 17.1784 18.5552 17.5624 19.5H6.43755ZM19.5 19.5H19.1556C18.822 18.4385 18.2561 17.4646 17.4991 16.6491C16.7421 15.8335 15.813 15.1969 14.7792 14.7853C15.5153 14.2072 16.0529 13.414 16.317 12.5161C16.5812 11.6182 16.5588 10.6603 16.253 9.77576C15.9472 8.89118 15.3732 8.12397 14.6109 7.58093C13.8486 7.03789 12.9359 6.74606 12 6.74606C11.0641 6.74606 10.1514 7.03789 9.3891 7.58093C8.62679 8.12397 8.05278 8.89118 7.74698 9.77576C7.44117 10.6603 7.41879 11.6182 7.68295 12.5161C7.94711 13.414 8.48467 14.2072 9.22078 14.7853C8.187 15.1969 7.25786 15.8335 6.50086 16.6491C5.74386 17.4646 5.178 18.4385 4.84438 19.5H4.5V4.5H19.5L19.501 19.5L19.5 19.5Z" fill="#1D1F21" style="fill: var(--ui-icon-primary-color);"/>
</svg>
