<svg  viewBox="0 0 24 24" fill="none" xmlns="http://www.w3.org/2000/svg" id="__THIS_ID_NEEDS_FOR_UI_ICON_COMPONENT__">
<path d="M15.75 5.25C15.75 5.05109 15.829 4.86032 15.9697 4.71967C16.1103 4.57902 16.3011 4.5 16.5 4.5H18V3C18 2.80109 18.079 2.61032 18.2197 2.46967C18.3603 2.32902 18.5511 2.25 18.75 2.25C18.9489 2.25 19.1397 2.32902 19.2803 2.46967C19.421 2.61032 19.5 2.80109 19.5 3V4.5H21C21.1989 4.5 21.3897 4.57902 21.5303 4.71967C21.671 4.86032 21.75 5.05109 21.75 5.25C21.75 5.44891 21.671 5.63968 21.5303 5.78033C21.3897 5.92098 21.1989 6 21 6H19.5V7.5C19.5 7.69891 19.421 7.88968 19.2803 8.03033C19.1397 8.17098 18.9489 8.25 18.75 8.25C18.5511 8.25 18.3603 8.17098 18.2197 8.03033C18.079 7.88968 18 7.69891 18 7.5V6H16.5C16.3011 6 16.1103 5.92098 15.9697 5.78033C15.829 5.63968 15.75 5.44891 15.75 5.25ZM21.6294 10.463C21.7097 10.9714 21.75 11.4853 21.75 12C21.7505 13.353 21.4688 14.6912 20.9228 15.9291C20.3767 17.1671 19.5784 18.2774 18.5789 19.1893C18.542 19.2307 18.5006 19.2679 18.4555 19.3C16.6756 20.8784 14.3791 21.7499 12.0002 21.75C9.62133 21.75 7.32485 20.8786 5.54489 19.3003C5.4994 19.2679 5.45769 19.2305 5.42056 19.1888C3.97005 17.863 2.95423 16.1297 2.50642 14.2162C2.0586 12.3028 2.19971 10.2987 2.91122 8.46691C3.62273 6.63511 4.87141 5.06121 6.49339 3.95174C8.11537 2.84228 10.0349 2.24908 12 2.25C12.5147 2.24998 13.0286 2.2903 13.537 2.37058C13.6343 2.38598 13.7276 2.4204 13.8116 2.47186C13.8955 2.52332 13.9686 2.59082 14.0265 2.67051C14.0844 2.7502 14.126 2.84051 14.149 2.93628C14.172 3.03206 14.1759 3.13143 14.1605 3.22871C14.145 3.326 14.1106 3.41929 14.0591 3.50327C14.0077 3.58725 13.9402 3.66027 13.8605 3.71815C13.7808 3.77604 13.6905 3.81766 13.5947 3.84064C13.4989 3.86362 13.3995 3.86751 13.3022 3.85208C12.8715 3.78409 12.4361 3.74996 12 3.75C10.4098 3.74909 8.85318 4.20807 7.51783 5.07162C6.18248 5.93518 5.12535 7.16646 4.47381 8.61711C3.82227 10.0678 3.60412 11.6759 3.84566 13.2477C4.0872 14.8195 4.77812 16.2879 5.83516 17.476C6.67118 16.2637 7.84735 15.3259 9.21542 14.781C8.48066 14.2022 7.94452 13.4088 7.68155 12.5112C7.41859 11.6136 7.44187 10.6563 7.74816 9.77251C8.05445 8.88873 8.62853 8.12235 9.39056 7.57995C10.1526 7.03756 11.0647 6.7461 12.0001 6.7461C12.9354 6.74611 13.8475 7.03759 14.6096 7.58C15.3716 8.12241 15.9456 8.88879 16.2519 9.77258C16.5582 10.6564 16.5815 11.6136 16.3185 12.5113C16.0555 13.4089 15.5194 14.2023 14.7846 14.7811C16.1527 15.326 17.3288 16.2637 18.1648 17.476C19.5093 15.9689 20.2516 14.0196 20.25 12C20.2501 11.5639 20.2159 11.1285 20.1479 10.6978C20.1322 10.6004 20.1359 10.5009 20.1588 10.4049C20.1816 10.309 20.2232 10.2185 20.2811 10.1386C20.3389 10.0587 20.412 9.99103 20.4961 9.93944C20.5802 9.88784 20.6736 9.85333 20.771 9.83789C20.8684 9.82245 20.9679 9.82638 21.0638 9.84946C21.1597 9.87254 21.2502 9.9143 21.3299 9.97237C21.4096 10.0304 21.4771 10.1037 21.5285 10.1879C21.5799 10.272 21.6142 10.3656 21.6294 10.463ZM12 14.25C12.5933 14.25 13.1734 14.0741 13.6667 13.7444C14.1601 13.4148 14.5446 12.9462 14.7716 12.398C14.9987 11.8499 15.0581 11.2467 14.9424 10.6647C14.8266 10.0828 14.5409 9.54824 14.1213 9.12868C13.7018 8.70912 13.1672 8.4234 12.5853 8.30764C12.0033 8.19189 11.4001 8.2513 10.8519 8.47836C10.3038 8.70542 9.83524 9.08994 9.50559 9.58329C9.17595 10.0766 9 10.6567 9 11.25C9.0009 12.0454 9.31726 12.8079 9.87968 13.3703C10.4421 13.9327 11.2046 14.2491 12 14.25ZM12 20.25C13.8312 20.2518 15.6104 19.6413 17.0547 18.5155C16.5117 17.6676 15.7642 16.9699 14.8809 16.4866C13.9976 16.0033 13.0069 15.75 12 15.75C10.9931 15.75 10.0024 16.0033 9.11912 16.4866C8.2358 16.9698 7.48826 17.6676 6.9453 18.5155C8.38956 19.6413 10.1688 20.2518 12 20.25Z" fill="#1D1F21" style="fill: var(--ui-icon-primary-color);"/>
</svg>
