<svg  viewBox="0 0 24 24" fill="none" xmlns="http://www.w3.org/2000/svg" id="__THIS_ID_NEEDS_FOR_UI_ICON_COMPONENT__">
<path d="M21.75 12.0002C21.7511 10.3781 21.3475 8.78136 20.5757 7.35462C19.8039 5.92789 18.6883 4.71626 17.33 3.8295C15.9717 2.94274 14.4137 2.40888 12.797 2.27629C11.1803 2.14369 9.55611 2.41654 8.0715 3.07012C6.58689 3.72371 5.28881 4.73737 4.29485 6.01928C3.30089 7.30119 2.64247 8.81083 2.37924 10.4114C2.116 12.012 2.25628 13.653 2.78735 15.1858C3.31842 16.7185 4.2235 18.0945 5.42061 19.1891C5.45773 19.2308 5.49942 19.2682 5.54489 19.3006C7.32485 20.8788 9.62134 21.7503 12.0002 21.7502C14.3791 21.7502 16.6755 20.8786 18.4554 19.3003C18.5006 19.2681 18.542 19.2309 18.5789 19.1895C19.5784 18.2777 20.3767 17.1673 20.9228 15.9294C21.4688 14.6914 21.7505 13.3532 21.75 12.0002ZM3.75 12.0002C3.74894 10.6636 4.07264 9.34681 4.69324 8.16305C5.31385 6.97929 6.21277 5.96403 7.31266 5.20464C8.41255 4.44524 9.68048 3.96445 11.0074 3.80363C12.3342 3.64282 13.6803 3.80679 14.9298 4.28144C16.1792 4.75609 17.2947 5.5272 18.1801 6.52843C19.0655 7.52967 19.6944 8.73103 20.0127 10.0292C20.331 11.3273 20.3291 12.6833 20.0072 13.9806C19.6853 15.2778 19.053 16.4774 18.1648 17.4762C17.3288 16.2639 16.1527 15.3262 14.7846 14.7813C15.5194 14.2025 16.0555 13.4091 16.3185 12.5115C16.5815 11.6138 16.5583 10.6565 16.252 9.77273C15.9457 8.88892 15.3716 8.12252 14.6096 7.5801C13.8476 7.03768 12.9354 6.7462 12.0001 6.74619C11.0647 6.74618 10.1526 7.03765 9.39052 7.58006C8.62848 8.12247 8.05439 8.88886 7.7481 9.77266C7.44181 10.6565 7.41853 11.6137 7.68151 12.5114C7.94448 13.409 8.48064 14.2024 9.21542 14.7812C7.84734 15.3262 6.67117 16.2639 5.83516 17.4762C4.49072 15.9692 3.74842 14.0198 3.75 12.0002ZM9 11.2502C9 10.6569 9.17595 10.0769 9.50559 9.58351C9.83524 9.09016 10.3038 8.70564 10.8519 8.47858C11.4001 8.25152 12.0033 8.19211 12.5853 8.30786C13.1672 8.42362 13.7018 8.70934 14.1213 9.1289C14.5409 9.54845 14.8266 10.083 14.9424 10.6649C15.0581 11.2469 14.9987 11.8501 14.7716 12.3983C14.5446 12.9464 14.1601 13.415 13.6667 13.7446C13.1734 14.0743 12.5933 14.2502 12 14.2502C11.2046 14.2493 10.4421 13.933 9.87967 13.3706C9.31725 12.8081 9.00089 12.0456 9 11.2502ZM6.9453 18.5157C7.48825 17.6678 8.23579 16.9701 9.1191 16.4868C10.0024 16.0035 10.9931 15.7502 12 15.7502C13.0069 15.7502 13.9976 16.0035 14.8809 16.4868C15.7642 16.9701 16.5117 17.6678 17.0547 18.5157C15.6095 19.6399 13.8309 20.2502 12 20.2502C10.1691 20.2502 8.39045 19.6399 6.9453 18.5157Z" fill="#1D1F21" style="fill: var(--ui-icon-primary-color);"/>
</svg>
