<svg  viewBox="0 0 24 24" fill="none" xmlns="http://www.w3.org/2000/svg" id="__THIS_ID_NEEDS_FOR_UI_ICON_COMPONENT__">
<path d="M19.5 12C19.4998 10.8225 19.222 9.66169 18.6894 8.6116C18.1567 7.56152 17.384 6.65174 16.4341 5.95604L15.8497 2.73239C15.7872 2.38654 15.6051 2.07366 15.3353 1.8484C15.0655 1.62314 14.7252 1.49983 14.3737 1.5H9.62627C9.27481 1.49982 8.93446 1.62313 8.66467 1.84839C8.39489 2.07365 8.21283 2.38654 8.1503 2.73239L7.56592 5.95604C6.61578 6.65158 5.84301 7.56132 5.31031 8.61144C4.77761 9.66157 4.5 10.8225 4.5 12C4.5 13.1775 4.77761 14.3384 5.31031 15.3886C5.84301 16.4387 6.61578 17.3484 7.56592 18.044L8.1503 21.2676C8.21283 21.6135 8.39489 21.9263 8.66467 22.1516C8.93446 22.3769 9.27481 22.5002 9.62627 22.5H14.3737C14.7252 22.5002 15.0655 22.3769 15.3353 22.1516C15.6051 21.9263 15.7872 21.6135 15.8497 21.2676L16.4341 18.044C17.384 17.3483 18.1567 16.4385 18.6894 15.3884C19.222 14.3383 19.4998 13.1775 19.5 12ZM9.62627 3H14.3737L14.7401 5.0206C12.9793 4.32647 11.0207 4.32647 9.25992 5.0206L9.62627 3ZM6 12C6 10.8133 6.35189 9.65327 7.01118 8.66658C7.67047 7.67988 8.60754 6.91085 9.7039 6.45672C10.8003 6.0026 12.0067 5.88378 13.1705 6.11529C14.3344 6.3468 15.4035 6.91824 16.2426 7.75736C17.0818 8.59647 17.6532 9.66557 17.8847 10.8295C18.1162 11.9933 17.9974 13.1997 17.5433 14.2961C17.0892 15.3925 16.3201 16.3295 15.3334 16.9888C14.3467 17.6481 13.1867 18 12 18C10.4093 17.9982 8.88418 17.3655 7.75935 16.2406C6.63452 15.1158 6.0018 13.5907 6 12ZM14.3737 21H9.62627L9.25992 18.9794C11.0207 19.6735 12.9793 19.6735 14.7401 18.9794L14.3737 21ZM11.25 12V8.25C11.25 8.05109 11.329 7.86032 11.4697 7.71967C11.6103 7.57902 11.8011 7.5 12 7.5C12.1989 7.5 12.3897 7.57902 12.5303 7.71967C12.671 7.86032 12.75 8.05109 12.75 8.25V11.25H15.75C15.9489 11.25 16.1397 11.329 16.2803 11.4697C16.421 11.6103 16.5 11.8011 16.5 12C16.5 12.1989 16.421 12.3897 16.2803 12.5303C16.1397 12.671 15.9489 12.75 15.75 12.75H12C11.9015 12.75 11.804 12.7306 11.713 12.6929C11.622 12.6552 11.5393 12.6 11.4697 12.5303C11.4 12.4607 11.3448 12.378 11.3071 12.287C11.2694 12.196 11.25 12.0985 11.25 12Z" fill="#1D1F21" style="fill: var(--ui-icon-primary-color);"/>
</svg>
