<svg  viewBox="0 0 24 24" fill="none" xmlns="http://www.w3.org/2000/svg" id="__THIS_ID_NEEDS_FOR_UI_ICON_COMPONENT__">
<path d="M13.125 18.75C13.125 18.9725 13.059 19.19 12.9354 19.375C12.8118 19.56 12.6361 19.7042 12.4305 19.7894C12.225 19.8745 11.9988 19.8968 11.7805 19.8534C11.5623 19.81 11.3618 19.7028 11.2045 19.5455C11.0472 19.3882 10.94 19.1877 10.8966 18.9695C10.8532 18.7512 10.8755 18.5251 10.9606 18.3195C11.0458 18.1139 11.19 17.9382 11.375 17.8146C11.56 17.691 11.7775 17.625 12 17.625C12.2983 17.6253 12.5842 17.744 12.7951 17.9549C13.006 18.1658 13.1247 18.4517 13.125 18.75Z" fill="#1D1F21" style="fill: var(--ui-icon-primary-color);"/>
</svg>
