<svg  viewBox="0 0 24 24" fill="none" xmlns="http://www.w3.org/2000/svg" id="__THIS_ID_NEEDS_FOR_UI_ICON_COMPONENT__">
<path d="M15.5304 14.4697C15.671 14.6103 15.7501 14.8011 15.75 15C15.75 15.1989 15.671 15.3897 15.5303 15.5304C15.3897 15.671 15.1989 15.75 15 15.75C14.8011 15.75 14.6103 15.671 14.4697 15.5303L12 13.0607L9.53039 15.5303C9.38975 15.671 9.19898 15.75 9.00006 15.75C8.80115 15.75 8.61037 15.671 8.46971 15.5304C8.32905 15.3897 8.25002 15.1989 8.25001 15C8.25 14.8011 8.32902 14.6103 8.46967 14.4697L10.9393 12L8.46967 9.53032C8.32902 9.38966 8.25 9.19888 8.25001 8.99997C8.25002 8.80105 8.32905 8.61028 8.46971 8.46964C8.61037 8.32899 8.80115 8.24997 9.00006 8.24998C9.19898 8.24999 9.38975 8.32902 9.53039 8.46968L12 10.9393L14.4696 8.46968C14.6102 8.32902 14.801 8.24999 14.9999 8.24998C15.1988 8.24997 15.3896 8.32899 15.5303 8.46964C15.6709 8.61028 15.7499 8.80105 15.75 8.99997C15.75 9.19888 15.671 9.38966 15.5303 9.53032L13.0607 12L15.5304 14.4697ZM20.9999 4.5V19.5C20.9995 19.8977 20.8413 20.279 20.5601 20.5602C20.2789 20.8414 19.8976 20.9995 19.4999 21H4.49994C4.10225 20.9995 3.72099 20.8414 3.43978 20.5602C3.15857 20.279 3.00039 19.8977 2.99994 19.5V4.5C3.00039 4.10231 3.15858 3.72105 3.43978 3.43984C3.72099 3.15864 4.10225 3.00046 4.49994 3H19.4999C19.8976 3.00045 20.2789 3.15864 20.5601 3.43984C20.8413 3.72105 20.9995 4.10231 20.9999 4.5ZM19.5009 19.5L19.4999 4.5H4.49994V19.5H19.4999L19.5009 19.5Z" fill="#1D1F21" style="fill: var(--ui-icon-primary-color);"/>
</svg>
