<svg  viewBox="0 0 24 24" fill="none" xmlns="http://www.w3.org/2000/svg" id="__THIS_ID_NEEDS_FOR_UI_ICON_COMPONENT__">
<path d="M19.4995 2.99976H17.2495V2.24976C17.2495 2.05084 17.1704 1.86008 17.0298 1.71943C16.8891 1.57877 16.6984 1.49976 16.4995 1.49976C16.3005 1.49976 16.1098 1.57877 15.9691 1.71943C15.8285 1.86008 15.7495 2.05084 15.7495 2.24976V2.99976H8.24945V2.24976C8.24945 2.05084 8.17043 1.86008 8.02978 1.71943C7.88913 1.57877 7.69836 1.49976 7.49945 1.49976C7.30054 1.49976 7.10977 1.57877 6.96912 1.71943C6.82847 1.86008 6.74945 2.05084 6.74945 2.24976V2.99976H4.49945C4.10175 3.00015 3.72044 3.15831 3.43922 3.43953C3.158 3.72075 2.99984 4.10205 2.99945 4.49976V19.4998C2.99984 19.8975 3.158 20.2788 3.43922 20.56C3.72044 20.8412 4.10175 20.9994 4.49945 20.9998H19.4995C19.8972 20.9994 20.2785 20.8412 20.5597 20.56C20.8409 20.2788 20.9991 19.8975 20.9995 19.4998V4.49976C20.9991 4.10205 20.8409 3.72075 20.5597 3.43953C20.2785 3.15831 19.8972 3.00015 19.4995 2.99976ZM9.75 17.6248C9.45463 17.6256 9.16203 17.5678 8.88912 17.4548C8.6162 17.3419 8.36837 17.176 8.15996 16.9667C8.01922 16.8261 7.94009 16.6354 7.93998 16.4365C7.93986 16.2376 8.01877 16.0467 8.15934 15.906C8.29991 15.7653 8.49063 15.6862 8.68954 15.686C8.88845 15.6859 9.07927 15.7648 9.22 15.9054C9.30725 15.9925 9.41465 16.0568 9.53267 16.0926C9.6507 16.1283 9.77572 16.1344 9.89666 16.1103C10.0176 16.0862 10.1307 16.0326 10.226 15.9543C10.3213 15.8761 10.3958 15.7755 10.443 15.6615C10.4902 15.5476 10.5085 15.4238 10.4964 15.3011C10.4843 15.1783 10.4421 15.0605 10.3735 14.958C10.305 14.8555 10.2123 14.7714 10.1035 14.7133C9.99473 14.6552 9.87332 14.6248 9.75 14.6248H9.74954C9.7262 14.6248 9.70285 14.6234 9.67955 14.6212C9.67209 14.6205 9.66481 14.6194 9.65744 14.6185C9.64183 14.6165 9.62627 14.6143 9.61075 14.6113C9.6021 14.6097 9.59354 14.6079 9.58498 14.6059C9.57088 14.6028 9.55683 14.5991 9.54287 14.5951C9.53435 14.5927 9.52584 14.5903 9.51746 14.5875C9.50336 14.5829 9.4894 14.5777 9.47553 14.5722C9.46798 14.5692 9.46033 14.5665 9.45292 14.5633C9.43676 14.5563 9.42087 14.5485 9.40503 14.5403C9.40046 14.5379 9.39565 14.5359 9.39112 14.5334C9.37134 14.5226 9.35193 14.5108 9.33289 14.498C9.32648 14.4937 9.32053 14.4889 9.31426 14.4844C9.30327 14.4765 9.29215 14.469 9.28148 14.4604C9.28011 14.4593 9.27892 14.4581 9.27755 14.4569C9.26624 14.4477 9.25562 14.4378 9.24486 14.428C9.23703 14.4208 9.22879 14.414 9.22133 14.4066C9.2141 14.3994 9.20755 14.3916 9.20059 14.3841C9.10984 14.2862 9.04673 14.1659 9.01772 14.0355C9.01721 14.0332 9.01639 14.0309 9.01589 14.0285C9.01328 14.0158 9.01172 14.0028 9.00975 13.99C9.00797 13.9783 9.00568 13.9668 9.00444 13.9551C9.00339 13.9454 9.00325 13.9356 9.00257 13.9258C9.00151 13.9104 9.00037 13.8951 9.00028 13.8797C9.00023 13.878 9 13.8764 9 13.8748C9 13.867 9.00092 13.8594 9.00119 13.8517C9.00165 13.8361 9.00211 13.8206 9.00352 13.8051C9.00449 13.7946 9.00613 13.7844 9.00756 13.774C9.00943 13.7601 9.01126 13.7461 9.01392 13.7323C9.01608 13.7211 9.01886 13.7103 9.02147 13.6993C9.02454 13.6865 9.02756 13.6738 9.03132 13.6611C9.0347 13.6497 9.03869 13.6387 9.04258 13.6275C9.04674 13.6157 9.05082 13.6038 9.05558 13.592C9.06025 13.5806 9.06556 13.5695 9.07077 13.5583C9.0759 13.5473 9.08084 13.5364 9.08652 13.5256C9.09266 13.5139 9.09952 13.5027 9.10625 13.4914C9.11207 13.4817 9.11765 13.4718 9.12392 13.4623C9.13189 13.4503 9.14054 13.4388 9.14914 13.4273C9.15436 13.4203 9.15885 13.413 9.16434 13.4062L9.68953 12.7498H8.625C8.42609 12.7498 8.23532 12.6707 8.09467 12.5301C7.95402 12.3894 7.875 12.1987 7.875 11.9998C7.875 11.8008 7.95402 11.6101 8.09467 11.4694C8.23532 11.3288 8.42609 11.2498 8.625 11.2498H11.25C11.3913 11.2498 11.5297 11.2897 11.6493 11.3649C11.7689 11.4401 11.8648 11.5475 11.926 11.6749C11.9872 11.8022 12.0112 11.9442 11.9952 12.0846C11.9792 12.225 11.9239 12.358 11.8357 12.4683L11.0042 13.5077C11.4046 13.7764 11.708 14.1667 11.8697 14.621C12.0315 15.0753 12.0429 15.5696 11.9024 16.0309C11.7619 16.4922 11.4768 16.8961 11.0893 17.1831C10.7017 17.47 10.2322 17.6249 9.75 17.6248ZM15.75 16.8748C15.75 17.0737 15.671 17.2644 15.5303 17.4051C15.3897 17.5457 15.1989 17.6248 15 17.6248C14.8011 17.6248 14.6103 17.5457 14.4697 17.4051C14.329 17.2644 14.25 17.0737 14.25 16.8748V13.4998L13.95 13.7248C13.7908 13.8441 13.5908 13.8954 13.3939 13.8672C13.197 13.8391 13.0193 13.7339 12.9 13.5747C12.7806 13.4156 12.7294 13.2156 12.7575 13.0187C12.7857 12.8217 12.8909 12.6441 13.05 12.5247L14.55 11.3997C14.6615 11.3162 14.7939 11.2653 14.9327 11.2528C15.0714 11.2403 15.2108 11.2667 15.3354 11.329C15.46 11.3912 15.5648 11.487 15.638 11.6055C15.7112 11.724 15.75 11.8605 15.75 11.9998V16.8748ZM19.4995 7.49976H4.49945V4.49976H6.74945V5.24976C6.74945 5.44867 6.82847 5.63943 6.96912 5.78009C7.10977 5.92074 7.30054 5.99976 7.49945 5.99976C7.69836 5.99976 7.88913 5.92074 8.02978 5.78009C8.17043 5.63943 8.24945 5.44867 8.24945 5.24976V4.49976H15.7495V5.24976C15.7495 5.44867 15.8285 5.63943 15.9691 5.78009C16.1098 5.92074 16.3005 5.99976 16.4995 5.99976C16.6984 5.99976 16.8891 5.92074 17.0298 5.78009C17.1704 5.63943 17.2495 5.44867 17.2495 5.24976V4.49976H19.4995V7.49976Z" fill="#1D1F21" style="fill: var(--ui-icon-primary-color);"/>
</svg>
