<svg  viewBox="0 0 24 24" fill="none" xmlns="http://www.w3.org/2000/svg" id="__THIS_ID_NEEDS_FOR_UI_ICON_COMPONENT__">
<path d="M21.375 18.75H20.625V3.75C20.625 3.55109 20.546 3.36032 20.4053 3.21967C20.2647 3.07902 20.0739 3 19.875 3H14.625C14.4261 3 14.2353 3.07902 14.0947 3.21967C13.954 3.36032 13.875 3.55109 13.875 3.75V7.5H9.375C9.17609 7.5 8.98532 7.57902 8.84467 7.71967C8.70402 7.86032 8.625 8.05109 8.625 8.25V12H4.125C3.92609 12 3.73532 12.079 3.59467 12.2197C3.45402 12.3603 3.375 12.5511 3.375 12.75V18.75H2.625C2.42609 18.75 2.23532 18.829 2.09467 18.9697C1.95402 19.1103 1.875 19.3011 1.875 19.5C1.875 19.6989 1.95402 19.8897 2.09467 20.0303C2.23532 20.171 2.42609 20.25 2.625 20.25H21.375C21.5739 20.25 21.7647 20.171 21.9053 20.0303C22.046 19.8897 22.125 19.6989 22.125 19.5C22.125 19.3011 22.046 19.1103 21.9053 18.9697C21.7647 18.829 21.5739 18.75 21.375 18.75ZM10.125 9H13.875V18.75H10.125V9ZM4.875 13.5H8.625V18.75H4.875V13.5Z" fill="#1D1F21" style="fill: var(--ui-icon-primary-color);"/>
</svg>
