<svg  viewBox="0 0 24 24" fill="none" xmlns="http://www.w3.org/2000/svg" id="__THIS_ID_NEEDS_FOR_UI_ICON_COMPONENT__">
<path d="M20.2501 4.49927H3.75013C3.35242 4.49966 2.97112 4.65782 2.6899 4.93904C2.40868 5.22026 2.25052 5.60156 2.25013 5.99926V20.8893C2.24914 21.1754 2.3301 21.4558 2.48344 21.6973C2.63678 21.9388 2.85609 22.1314 3.11542 22.2522C3.37474 22.373 3.66325 22.417 3.9468 22.379C4.23035 22.341 4.49708 22.2226 4.71545 22.0378L7.69274 19.5344L20.2501 19.4992C20.6478 19.4988 21.0291 19.3407 21.3103 19.0594C21.5915 18.7782 21.7497 18.3969 21.7501 17.9992V5.99926C21.7497 5.60156 21.5915 5.22026 21.3103 4.93904C21.0291 4.65782 20.6478 4.49966 20.2501 4.49927ZM7.50002 13.125C7.27751 13.125 7.06001 13.059 6.875 12.9354C6.69 12.8118 6.54581 12.6361 6.46066 12.4305C6.37551 12.2249 6.35323 11.9987 6.39664 11.7805C6.44005 11.5623 6.54719 11.3618 6.70453 11.2045C6.86186 11.0471 7.06231 10.94 7.28054 10.8966C7.49877 10.8532 7.72497 10.8755 7.93053 10.9606C8.1361 11.0458 8.3118 11.19 8.43542 11.375C8.55903 11.56 8.62501 11.7775 8.62501 12C8.62501 12.2983 8.50649 12.5845 8.29551 12.7955C8.08453 13.0064 7.79839 13.125 7.50002 13.125ZM12 13.125C11.7775 13.125 11.56 13.059 11.375 12.9354C11.19 12.8118 11.0458 12.6361 10.9606 12.4305C10.8755 12.2249 10.8532 11.9987 10.8966 11.7805C10.94 11.5623 11.0472 11.3618 11.2045 11.2045C11.3618 11.0471 11.5623 10.94 11.7805 10.8966C11.9988 10.8532 12.225 10.8755 12.4305 10.9606C12.6361 11.0458 12.8118 11.19 12.9354 11.375C13.059 11.56 13.125 11.7775 13.125 12C13.125 12.2983 13.0065 12.5845 12.7955 12.7955C12.5845 13.0064 12.2984 13.125 12 13.125ZM16.5 13.125C16.2775 13.125 16.06 13.059 15.875 12.9354C15.69 12.8118 15.5458 12.6361 15.4606 12.4305C15.3755 12.2249 15.3532 11.9987 15.3966 11.7805C15.44 11.5623 15.5472 11.3618 15.7045 11.2045C15.8618 11.0471 16.0623 10.94 16.2805 10.8966C16.4987 10.8532 16.7249 10.8755 16.9305 10.9606C17.1361 11.0458 17.3118 11.19 17.4354 11.375C17.559 11.56 17.625 11.7775 17.625 12C17.625 12.2983 17.5065 12.5845 17.2955 12.7955C17.0845 13.0064 16.7984 13.125 16.5 13.125Z" fill="#1D1F21" style="fill: var(--ui-icon-primary-color);"/>
</svg>
