<svg  viewBox="0 0 24 24" fill="none" xmlns="http://www.w3.org/2000/svg" id="__THIS_ID_NEEDS_FOR_UI_ICON_COMPONENT__">
<path d="M13.5 3.75C13.5 3.55109 13.579 3.36032 13.7197 3.21967C13.8603 3.07902 14.0511 3 14.25 3H15V2.25C15 2.05109 15.079 1.86032 15.2197 1.71967C15.3603 1.57902 15.5511 1.5 15.75 1.5C15.9489 1.5 16.1397 1.57902 16.2803 1.71967C16.421 1.86032 16.5 2.05109 16.5 2.25V3H17.25C17.4489 3 17.6397 3.07902 17.7803 3.21967C17.921 3.36032 18 3.55109 18 3.75C18 3.94891 17.921 4.13968 17.7803 4.28033C17.6397 4.42098 17.4489 4.5 17.25 4.5H16.5V5.25C16.5 5.44891 16.421 5.63968 16.2803 5.78033C16.1397 5.92098 15.9489 6 15.75 6C15.5511 6 15.3603 5.92098 15.2197 5.78033C15.079 5.63968 15 5.44891 15 5.25V4.5H14.25C14.0511 4.5 13.8603 4.42098 13.7197 4.28033C13.579 4.13968 13.5 3.94891 13.5 3.75ZM22.5 7.5H21V6C21 5.80109 20.921 5.61032 20.7803 5.46967C20.6397 5.32902 20.4489 5.25 20.25 5.25C20.0511 5.25 19.8603 5.32902 19.7197 5.46967C19.579 5.61032 19.5 5.80109 19.5 6V7.5H18C17.8011 7.5 17.6103 7.57902 17.4697 7.71967C17.329 7.86032 17.25 8.05109 17.25 8.25C17.25 8.44891 17.329 8.63968 17.4697 8.78033C17.6103 8.92098 17.8011 9 18 9H19.5V10.5C19.5 10.6989 19.579 10.8897 19.7197 11.0303C19.8603 11.171 20.0511 11.25 20.25 11.25C20.4489 11.25 20.6397 11.171 20.7803 11.0303C20.921 10.8897 21 10.6989 21 10.5V9H22.5C22.6989 9 22.8897 8.92098 23.0303 8.78033C23.171 8.63968 23.25 8.44891 23.25 8.25C23.25 8.05109 23.171 7.86032 23.0303 7.71967C22.8897 7.57902 22.6989 7.5 22.5 7.5ZM20.6041 13.291C19.2408 13.6036 17.8204 13.5648 16.4761 13.1783C15.1319 12.7918 13.9078 12.0701 12.9188 11.0811C11.9297 10.092 11.2081 8.86798 10.8216 7.52373C10.4351 6.17948 10.3963 4.75907 10.7089 3.39574C10.7373 3.27191 10.7338 3.14289 10.6987 3.02079C10.6636 2.89869 10.598 2.78752 10.5082 2.69769C10.4183 2.60786 10.3072 2.54233 10.1851 2.50725C10.0629 2.47216 9.93393 2.46867 9.8101 2.4971C8.11405 2.88835 6.55364 3.72647 5.2909 4.92446C4.02816 6.12244 3.10912 7.6366 2.6292 9.30972C2.14928 10.9829 2.12598 12.7539 2.56173 14.4391C2.99747 16.1243 3.87636 17.6621 5.10715 18.8929C6.33794 20.1237 7.87576 21.0026 9.56094 21.4383C11.2461 21.874 13.0172 21.8507 14.6903 21.3708C16.3635 20.8908 17.8776 19.9718 19.0756 18.709C20.2736 17.4463 21.1117 15.8859 21.5029 14.1898C21.5313 14.066 21.5278 13.9369 21.4927 13.8148C21.4576 13.6927 21.3921 13.5815 21.3022 13.4917C21.2124 13.4018 21.1012 13.3363 20.9791 13.3012C20.857 13.2661 20.728 13.2626 20.6041 13.291Z" fill="#1D1F21" style="fill: var(--ui-icon-primary-color);"/>
</svg>
