<svg  viewBox="0 0 24 24" fill="none" xmlns="http://www.w3.org/2000/svg" id="__THIS_ID_NEEDS_FOR_UI_ICON_COMPONENT__">
<path d="M22.4971 12.0001C22.498 12.2572 22.4325 12.5103 22.3067 12.7347C22.1809 12.959 21.9992 13.147 21.7793 13.2803L8.28223 21.5289C8.05488 21.6679 7.79461 21.7438 7.52817 21.7489C7.26174 21.7539 6.99878 21.6879 6.76634 21.5576C6.5339 21.4272 6.34038 21.2373 6.20568 21.0074C6.07099 20.7775 6 20.5158 6 20.2493V3.75079C6 3.48431 6.07099 3.22264 6.20568 2.99271C6.34038 2.76277 6.5339 2.57288 6.76634 2.44256C6.99878 2.31224 7.26174 2.2462 7.52817 2.25125C7.79461 2.25629 8.05488 2.33223 8.28223 2.47125L21.7793 10.7198C21.9992 10.8531 22.1809 11.0411 22.3067 11.2655C22.4325 11.4898 22.498 11.7429 22.4971 12.0001Z" fill="#1D1F21" style="fill: var(--ui-icon-primary-color);"/>
</svg>
