<svg width="282" height="282" viewBox="0 0 282 282" fill="none" xmlns="http://www.w3.org/2000/svg">
<path d="M282 0H0V282H282V0Z" fill="#1D1D21"/>
<path fill-rule="evenodd" clip-rule="evenodd" d="M262 20H20V262H262V20ZM282 0V282H0V0H282Z" fill="url(#paint0_linear_402_4263)"/>
<path d="M114.239 145.482C114.239 152.97 112.539 158.952 109.138 163.427C105.736 167.873 101.172 170.095 95.4437 170.095C90.133 170.095 85.8818 168.35 82.6896 164.859V187.816H71.8149V120.779H81.8393L82.287 125.702C85.4793 121.823 89.8199 119.885 95.3091 119.885C101.216 119.885 105.841 122.092 109.182 126.507C112.553 130.893 114.239 136.994 114.239 144.811V145.482ZM103.41 144.542C103.41 139.709 102.439 135.875 100.501 133.041C98.5908 130.207 95.8463 128.79 92.2663 128.79C87.8213 128.79 84.629 130.625 82.6896 134.294V155.775C84.6586 159.534 87.8805 161.413 92.3558 161.413C95.8167 161.413 98.5168 160.026 100.456 157.252C102.425 154.447 103.41 150.211 103.41 144.542ZM152.815 164.456C149.622 168.216 145.088 170.095 139.21 170.095C133.959 170.095 129.977 168.558 127.262 165.485C124.576 162.413 123.234 157.967 123.234 152.15V120.779H134.109V152.016C134.109 158.161 136.659 161.234 141.761 161.234C147.041 161.234 150.606 159.34 152.456 155.551V120.779H163.331V169.2H153.083L152.815 164.456ZM185.975 169.2H175.1V100.463H185.975V169.2ZM209.425 169.2H198.55V100.463H209.425V169.2Z" fill="white"/>
<defs>
<linearGradient id="paint0_linear_402_4263" x1="141" y1="0" x2="141" y2="282" gradientUnits="userSpaceOnUse">
<stop stop-color="#005BBB"/>
<stop offset="0.498175" stop-color="#005BBB"/>
<stop offset="0.498286" stop-color="#FFD500"/>
<stop offset="1" stop-color="#FFD500"/>
</linearGradient>
</defs>
</svg>
